<svg xmlns="http://www.w3.org/2000/svg" xmlns:xlink="http://www.w3.org/1999/xlink" width="812" height="602" viewBox="0 0 812 602">
  <defs>
    <linearGradient id="linear-gradient" x1="0.5" x2="0.5" y2="1" gradientUnits="objectBoundingBox">
      <stop offset="0" stop-color="#fff"/>
      <stop offset="1" stop-color="#f1f1f1"/>
    </linearGradient>
  </defs>
  <g id="Grupo_64229" data-name="Grupo 64229" transform="translate(-602 -1434)">
    <rect id="Rectángulo_29536" data-name="Rectángulo 29536" width="812" height="602" transform="translate(602 1434)" fill="url(#linear-gradient)"/>
    <g id="Rectángulo_4927" data-name="Rectángulo 4927" transform="translate(622 1474)" fill="none" stroke="#fff" stroke-width="3">
      <rect width="763.711" height="545.508" stroke="none"/>
      <rect x="1.5" y="1.5" width="760.711" height="542.508" fill="none"/>
    </g>
    <g id="Grupo_50655" data-name="Grupo 50655" transform="translate(728.7 1418.359)">
      <g id="Grupo_50615" data-name="Grupo 50615" transform="translate(79.68 130.108)">
        <g id="Grupo_50614" data-name="Grupo 50614" transform="translate(0 0)">
          <g id="Grupo_50608" data-name="Grupo 50608" transform="translate(77.14)">
            <rect id="Rectángulo_29154" data-name="Rectángulo 29154" width="281.042" height="368.514" rx="8" fill="#12263f"/>
            <rect id="Rectángulo_29155" data-name="Rectángulo 29155" width="242.976" height="297.241" transform="translate(19.033 34.827)" fill="#fffdfa"/>
            <path id="Trazado_100895" data-name="Trazado 100895" d="M258.686,145.469a5,5,0,1,1-5-5A5,5,0,0,1,258.686,145.469Z" transform="translate(-113.16 -126.676)" fill="#fff"/>
            <circle id="Elipse_4052" data-name="Elipse 4052" cx="9.404" cy="9.404" r="9.404" transform="translate(131.117 341.225)" fill="#fff"/>
            <rect id="Rectángulo_29156" data-name="Rectángulo 29156" width="242.976" height="18.151" transform="translate(19.033 34.827)" fill="#7d6eb2"/>
            <g id="Grupo_50607" data-name="Grupo 50607" transform="translate(45.026 75.44)">
              <rect id="Rectángulo_29157" data-name="Rectángulo 29157" width="78.652" height="84.751" fill="#e3e3e3"/>
              <line id="Línea_1560" data-name="Línea 1560" x2="187.691" transform="translate(0 106.483)" fill="none" stroke="#e3e3e3" stroke-miterlimit="10" stroke-width="3.151"/>
              <line id="Línea_1561" data-name="Línea 1561" x2="88.563" transform="translate(99.128 82.492)" fill="none" stroke="#e3e3e3" stroke-miterlimit="10" stroke-width="3.151"/>
              <line id="Línea_1562" data-name="Línea 1562" x2="88.563" transform="translate(99.128 62.321)" fill="none" stroke="#e3e3e3" stroke-miterlimit="10" stroke-width="3.151"/>
              <line id="Línea_1563" data-name="Línea 1563" x2="88.563" transform="translate(99.128 42.149)" fill="none" stroke="#e3e3e3" stroke-miterlimit="10" stroke-width="3.151"/>
              <line id="Línea_1564" data-name="Línea 1564" x2="88.563" transform="translate(99.128 21.978)" fill="none" stroke="#e3e3e3" stroke-miterlimit="10" stroke-width="3.151"/>
              <line id="Línea_1565" data-name="Línea 1565" x2="88.563" transform="translate(99.128 1.807)" fill="none" stroke="#e3e3e3" stroke-miterlimit="10" stroke-width="3.151"/>
              <line id="Línea_1566" data-name="Línea 1566" x2="187.691" transform="translate(0 127.24)" fill="none" stroke="#e3e3e3" stroke-miterlimit="10" stroke-width="3.151"/>
              <line id="Línea_1567" data-name="Línea 1567" x2="187.691" transform="translate(0 147.998)" fill="none" stroke="#e3e3e3" stroke-miterlimit="10" stroke-width="3.151"/>
              <line id="Línea_1568" data-name="Línea 1568" x2="187.691" transform="translate(0 168.755)" fill="none" stroke="#e3e3e3" stroke-miterlimit="10" stroke-width="3.151"/>
              <line id="Línea_1569" data-name="Línea 1569" x2="187.691" transform="translate(0 189.513)" fill="none" stroke="#e3e3e3" stroke-miterlimit="10" stroke-width="3.151"/>
              <line id="Línea_1570" data-name="Línea 1570" x2="187.691" transform="translate(0 210.27)" fill="none" stroke="#e3e3e3" stroke-miterlimit="10" stroke-width="3.151"/>
            </g>
          </g>
          <g id="Grupo_50613" data-name="Grupo 50613" transform="translate(0 262.384)">
            <g id="Grupo_50610" data-name="Grupo 50610" transform="translate(0 52.208)">
              <path id="Rectángulo_29158" data-name="Rectángulo 29158" d="M12.644,0H72.515a0,0,0,0,1,0,0V53.922a0,0,0,0,1,0,0H12.644A12.644,12.644,0,0,1,0,41.277V12.644A12.644,12.644,0,0,1,12.644,0Z" fill="#7d6eb2"/>
              <rect id="Rectángulo_29159" data-name="Rectángulo 29159" width="244.351" height="9.157" transform="translate(30.364)" fill="#7d6eb2"/>
              <rect id="Rectángulo_29160" data-name="Rectángulo 29160" width="244.351" height="9.156" transform="translate(30.364 44.765)" fill="#7d6eb2"/>
              <path id="Rectángulo_29161" data-name="Rectángulo 29161" d="M8.284,0H226.725a0,0,0,0,1,0,0V35.609a0,0,0,0,1,0,0H8.284A8.284,8.284,0,0,1,0,27.325V8.284A8.284,8.284,0,0,1,8.284,0Z" transform="translate(44.052 9.157)" fill="#fffdfa"/>
              <g id="Grupo_50609" data-name="Grupo 50609" transform="translate(44.394 17.475)">
                <line id="Línea_1571" data-name="Línea 1571" x2="226.383" fill="none" stroke="#e8e8e8" stroke-miterlimit="10" stroke-width="0.969"/>
                <line id="Línea_1572" data-name="Línea 1572" x2="226.383" transform="translate(0 9.157)" fill="none" stroke="#e8e8e8" stroke-miterlimit="10" stroke-width="0.969"/>
                <line id="Línea_1573" data-name="Línea 1573" x2="226.383" transform="translate(0 18.314)" fill="none" stroke="#e8e8e8" stroke-miterlimit="10" stroke-width="0.969"/>
              </g>
            </g>
            <g id="Grupo_50612" data-name="Grupo 50612" transform="translate(32.668 0)">
              <path id="Rectángulo_29162" data-name="Rectángulo 29162" d="M12.242,0H70.21a0,0,0,0,1,0,0V52.208a0,0,0,0,1,0,0H12.242A12.242,12.242,0,0,1,0,39.965V12.242A12.242,12.242,0,0,1,12.242,0Z" transform="translate(218.357 52.208) rotate(180)" fill="#26aab7"/>
              <rect id="Rectángulo_29163" data-name="Rectángulo 29163" width="188.959" height="8.866" transform="translate(188.959 8.866) rotate(180)" fill="#26aab7"/>
              <rect id="Rectángulo_29164" data-name="Rectángulo 29164" width="188.959" height="8.866" transform="translate(188.959 52.208) rotate(180)" fill="#26aab7"/>
              <path id="Rectángulo_29165" data-name="Rectángulo 29165" d="M8.02,0H171.892a0,0,0,0,1,0,0V34.477a0,0,0,0,1,0,0H8.02A8.02,8.02,0,0,1,0,26.457V8.02A8.02,8.02,0,0,1,8.02,0Z" transform="translate(175.705 43.342) rotate(180)" fill="#fffdfa"/>
              <g id="Grupo_50611" data-name="Grupo 50611" transform="translate(3.436 16.947)">
                <line id="Línea_1574" data-name="Línea 1574" x2="172.217" fill="none" stroke="#e8e8e8" stroke-miterlimit="10" stroke-width="0.969"/>
                <line id="Línea_1575" data-name="Línea 1575" x2="172.217" transform="translate(0 9.157)" fill="none" stroke="#e8e8e8" stroke-miterlimit="10" stroke-width="0.969"/>
                <line id="Línea_1576" data-name="Línea 1576" x2="172.217" transform="translate(0 18.314)" fill="none" stroke="#e8e8e8" stroke-miterlimit="10" stroke-width="0.969"/>
              </g>
            </g>
          </g>
        </g>
      </g>
      <g id="Grupo_50626" data-name="Grupo 50626" transform="translate(422.672 252.244)">
        <g id="Grupo_50616" data-name="Grupo 50616" transform="translate(40.08 41.943)">
          <path id="Trazado_100896" data-name="Trazado 100896" d="M376.669,253.341s6.383.921,10.128,14.779,5.95,37.2,20.753,49.309l-9.2,12.738-21.685-25.512Z" transform="translate(-376.669 -253.341)" fill="#fffdfa"/>
          <path id="Trazado_100897" data-name="Trazado 100897" d="M400.728,302.957s14.195,6.332,6.383,18.28l-14.155-12.866Z" transform="translate(-371.27 -236.895)" fill="#e1b89b"/>
        </g>
        <path id="Trazado_100898" data-name="Trazado 100898" d="M376.12,247.789c2.3,6.629-2.281,14.244-10.239,17.009s-16.277-.368-18.58-7,2.281-14.245,10.24-17.011S373.818,241.16,376.12,247.789Z" transform="translate(-346.521 -215.891)" fill="#5b7393"/>
        <g id="Grupo_50620" data-name="Grupo 50620" transform="translate(13.123 94.67)">
          <path id="Trazado_100899" data-name="Trazado 100899" d="M426.1,335.232,391.317,298.6l-1.912-5.657L377.084,295l-8.475,27.053,34.239,23.619-34.239,28.772s4.293,23.052,5.241,22.735c.751-.25,36.392-28.592,51.538-40.578A14,14,0,0,0,430.5,343.25h0A14.01,14.01,0,0,0,426.1,335.232Z" transform="translate(-352.384 -292.942)" fill="#00223d"/>
          <g id="Grupo_50619" data-name="Grupo 50619" transform="translate(0 1.443)">
            <g id="Grupo_50617" data-name="Grupo 50617" transform="translate(3.872 117.731)">
              <path id="Trazado_100900" data-name="Trazado 100900" d="M373.159,383.479l.564,19.215h-11.7l-.8-20.245Z" transform="translate(-358.702 -382.449)" fill="#e1b89b"/>
              <path id="Trazado_100901" data-name="Trazado 100901" d="M362.633,396.642l11.674-1.172,16.554,7.512a6.186,6.186,0,0,1,3.044,3l.615,3.2-32.976.128a2.2,2.2,0,0,1-2.1-2.885Z" transform="translate(-359.331 -378.132)" fill="#fffdfa"/>
            </g>
            <g id="Grupo_50618" data-name="Grupo 50618">
              <path id="Trazado_100902" data-name="Trazado 100902" d="M358.568,298.24s-4.214,18.378-.829,47.152L358.2,420.3l19.855-1.292,6.881-124.98Z" transform="translate(-356.423 -294.026)" fill="#00223d"/>
              <line id="Línea_1577" data-name="Línea 1577" x1="1.56" y2="28.622" transform="translate(22.975 73.07)" fill="none" stroke="#00223d" stroke-miterlimit="10" stroke-width="0.388"/>
              <path id="Trazado_100903" data-name="Trazado 100903" d="M376.4,324.573l.357-9.064,5.992-8.6" transform="translate(-349.801 -289.754)" fill="none" stroke="#00223d" stroke-miterlimit="10" stroke-width="0.388"/>
            </g>
          </g>
        </g>
        <g id="Grupo_50624" data-name="Grupo 50624" transform="translate(0 40.438)">
          <g id="Grupo_50621" data-name="Grupo 50621" transform="translate(15.269)">
            <path id="Trazado_100904" data-name="Trazado 100904" d="M367.256,252.316l10.432-.105A9.309,9.309,0,0,1,387,260.189c2.172,15.073,5.909,46.254,5.909,46.254L358.034,312.1V261.631A9.317,9.317,0,0,1,367.256,252.316Z" transform="translate(-358.034 -252.211)" fill="#fffdfa"/>
            <line id="Línea_1578" data-name="Línea 1578" x1="4.416" y1="30.95" transform="translate(30.461 23.281)" fill="none" stroke="#00223d" stroke-miterlimit="10" stroke-width="0.388"/>
          </g>
          <g id="Grupo_50623" data-name="Grupo 50623" transform="translate(0 0.088)">
            <circle id="Elipse_4053" data-name="Elipse 4053" cx="8.591" cy="8.591" r="8.591" transform="translate(0 82.971)" fill="#e1b89b"/>
            <g id="Grupo_50622" data-name="Grupo 50622" transform="translate(2.893)">
              <path id="Trazado_100905" data-name="Trazado 100905" d="M370.336,252.294s-15.661-.943-18.839,10.977-2.738,73.937-2.738,73.937l10.925.972,5.717-70.738Z" transform="translate(-348.739 -252.277)" fill="#fffdfa"/>
              <line id="Línea_1579" data-name="Línea 1579" y1="33.712" x2="2.725" transform="translate(13.078 25.81)" fill="none" stroke="#00223d" stroke-miterlimit="10" stroke-width="0.388"/>
            </g>
          </g>
        </g>
        <g id="Grupo_50625" data-name="Grupo 50625" transform="translate(9.875 0)">
          <path id="Trazado_100906" data-name="Trazado 100906" d="M370.014,261.006h0a5.643,5.643,0,0,1-5.643-5.643v-10.54h11.285v10.54A5.642,5.642,0,0,1,370.014,261.006Z" transform="translate(-350.54 -214.221)" fill="#e1b89b"/>
          <path id="Trazado_100907" data-name="Trazado 100907" d="M375.657,252.915l-11.286-8.092h11.286Z" transform="translate(-350.54 -214.221)" fill="#3f1311"/>
          <circle id="Elipse_4054" data-name="Elipse 4054" cx="14.329" cy="14.329" r="14.329" transform="translate(0 20.264) rotate(-45)" fill="#e1b89b"/>
          <path id="Trazado_100908" data-name="Trazado 100908" d="M378.563,236.755l3.227,4.255a.682.682,0,0,1-.477,1.09l-3.472.333Z" transform="translate(-346.075 -216.895)" fill="#e1b89b"/>
          <path id="Trazado_100909" data-name="Trazado 100909" d="M361.227,243.2s17.546,2.189,19.362-13.3c0,0-2.542-5.837-12.827-3.463s-9.722,15.784-9.722,15.784Z" transform="translate(-352.64 -220.503)" fill="#5b7393"/>
          <path id="Trazado_100910" data-name="Trazado 100910" d="M377.283,230.094s3.028.337,6.126,4.5c0,0-2.735-11.385-18.069-8.151l3.267,5.52Z" transform="translate(-350.218 -220.506)" fill="#5b7393"/>
          <path id="Trazado_100911" data-name="Trazado 100911" d="M365.238,240a4.455,4.455,0,1,1-4.455-4.455A4.455,4.455,0,0,1,365.238,240Z" transform="translate(-353.206 -217.297)" fill="#e1b89b"/>
        </g>
      </g>
      <g id="Grupo_50638" data-name="Grupo 50638" transform="translate(43.84 317.097)">
        <g id="Grupo_50627" data-name="Grupo 50627" transform="translate(85.557 0)">
          <path id="Trazado_100912" data-name="Trazado 100912" d="M147.962,309.087h0a5.639,5.639,0,0,0,4.4-6.653l-2.1-10.324L139.2,294.364l2.105,10.323A5.64,5.64,0,0,0,147.962,309.087Z" transform="translate(-122.023 -263.4)" fill="#e1b89b"/>
          <path id="Trazado_100913" data-name="Trazado 100913" d="M140.82,302.289l9.438-10.179L139.2,294.364Z" transform="translate(-122.023 -263.4)" fill="#3f1311"/>
          <circle id="Elipse_4055" data-name="Elipse 4055" cx="14.323" cy="14.323" r="14.323" transform="translate(0 23.804) rotate(-56.199)" fill="#e1b89b"/>
          <path id="Trazado_100914" data-name="Trazado 100914" d="M132.763,287.007l-2.311,4.812a.681.681,0,0,0,.686.972l3.466-.366Z" transform="translate(-124.947 -265.092)" fill="#e1b89b"/>
          <path id="Trazado_100915" data-name="Trazado 100915" d="M146.859,274.163a19.3,19.3,0,0,0-3.966.257c-11.769,1.7-12.1,11.335-12.1,11.335a11.6,11.6,0,0,1,4.341-5.254c16.895-2.805,18.168,9.476,18.1,9.464l6.3-2.283S163.658,274.829,146.859,274.163Z" transform="translate(-124.813 -269.354)" fill="#5b7393"/>
          <path id="Trazado_100916" data-name="Trazado 100916" d="M147.667,287.357a4.453,4.453,0,1,0,3.474-5.253A4.453,4.453,0,0,0,147.667,287.357Z" transform="translate(-119.248 -266.747)" fill="#e1b89b"/>
          <path id="Trazado_100917" data-name="Trazado 100917" d="M150.055,282.948c-.324-.206-2.134-1.659-5.56.359s-15.418,8.174-16.772.236,8.584-12.806,15.157-8.163,10.037,5.014,10.037,5.014Z" transform="translate(-125.87 -269.545)" fill="#5b7393"/>
        </g>
        <g id="Grupo_50632" data-name="Grupo 50632" transform="translate(0 94.196)">
          <g id="Grupo_50629" data-name="Grupo 50629" transform="translate(41.703 9.808)">
            <g id="Grupo_50628" data-name="Grupo 50628" transform="translate(1.634 37.698)">
              <path id="Trazado_100918" data-name="Trazado 100918" d="M103.117,381.458l5.1,18.526,11.179-3.433-5.18-19.578Z" transform="translate(-91.764 -376.973)" fill="#e1b89b"/>
              <path id="Trazado_100919" data-name="Trazado 100919" d="M121.73,390.427l-11.5,2.306L96.618,404.768a6.193,6.193,0,0,0-2.028,3.764l.35,3.233,31.548-9.552a2.2,2.2,0,0,0,1.162-3.375Z" transform="translate(-94.59 -372.514)" fill="#5b7393"/>
            </g>
            <path id="Trazado_100920" data-name="Trazado 100920" d="M113.623,348.66l12.245,48.31-21.826,5.548L93.363,353.264Z" transform="translate(-93.363 -348.66)" fill="#12263f"/>
          </g>
          <g id="Grupo_50631" data-name="Grupo 50631">
            <g id="Grupo_50630" data-name="Grupo 50630" transform="translate(0 59.022)">
              <path id="Trazado_100921" data-name="Trazado 100921" d="M84.309,385.623l-5.539,18.4,11.292,3.041,6.029-19.333Z" transform="translate(-56.497 -385.623)" fill="#e1b89b"/>
              <path id="Trazado_100922" data-name="Trazado 100922" d="M96.078,401.508l-10.963-4.165-17.931,2.948a6.19,6.19,0,0,0-3.719,2.109l-1.423,2.924,31.8,8.694a2.2,2.2,0,0,0,2.779-2.238Z" transform="translate(-62.042 -381.738)" fill="#5b7393"/>
            </g>
            <path id="Trazado_100923" data-name="Trazado 100923" d="M149.415,343.745,104.5,342.7a16.485,16.485,0,0,0-12.147,12.032l-14.4,52.256,19.506,6.447,15.666-45.581,47.432,7.9a22.923,22.923,0,0,0,12.07-1.064,17.672,17.672,0,0,0,9.862-8.858c2.776-5.777,3.2-15.864-4.422-24.539Z" transform="translate(-56.769 -341.294)" fill="#12263f"/>
          </g>
        </g>
        <g id="Grupo_50637" data-name="Grupo 50637" transform="translate(20.581 38.351)">
          <g id="Grupo_50633" data-name="Grupo 50633" transform="translate(13.78 7.618)">
            <path id="Trazado_100924" data-name="Trazado 100924" d="M104.733,322.568a8.587,8.587,0,1,1-6.077-10.515A8.587,8.587,0,0,1,104.733,322.568Z" transform="translate(-87.849 -302.856)" fill="#e1b89b"/>
            <path id="Trazado_100925" data-name="Trazado 100925" d="M134.09,329.2,151.08,306.41s5.218-3.624,15.089,1.06-11.521,25.513-11.521,25.513l-16.4,15.095a8.609,8.609,0,0,1-8.68,1.6c-9.094-3.224-28.621-13.418-33.052-17.494l6.111-11.754Z" transform="translate(-84.975 -305.073)" fill="#5b7393"/>
          </g>
          <g id="Grupo_50634" data-name="Grupo 50634" transform="translate(0 8.096)">
            <path id="Trazado_100926" data-name="Trazado 100926" d="M93.923,305.856l2.627,15.117-19.05-6.05Z" transform="translate(-77.499 -305.291)" fill="#fafafc"/>
            <path id="Trazado_100927" data-name="Trazado 100927" d="M102.181,312.732,81,314.214,93.923,306l-1.848-.566L77.5,314.33,83.282,348.5l24.945.242Z" transform="translate(-77.499 -305.431)" fill="#167377"/>
          </g>
          <g id="Grupo_50636" data-name="Grupo 50636" transform="translate(18.27)">
            <path id="Trazado_100928" data-name="Trazado 100928" d="M131.624,357.647l7.82-49.341c.2-2.049,2.266-4.632,6.506-6.073l9.292-2.883c3.093,0,5.865,3.451,6.693,6.431,2.189,7.878,5.676,26.75,4.873,57.05Z" transform="translate(-77.829 -299.351)" fill="#5b7393"/>
            <g id="Grupo_50635" data-name="Grupo 50635" transform="translate(0 4.882)">
              <path id="Trazado_100929" data-name="Trazado 100929" d="M108.4,330.6a8.587,8.587,0,1,1-8.588-8.588A8.588,8.588,0,0,1,108.4,330.6Z" transform="translate(-91.221 -296.723)" fill="#e1b89b"/>
              <path id="Trazado_100930" data-name="Trazado 100930" d="M134.051,335.435l15.726-29.664s2.056-4.2,12.8-2.226-4.538,27.624-4.538,27.624L146.1,349.989a8.606,8.606,0,0,1-7.97,3.789c-9.618-.763-31.118-5.567-36.451-8.359l2.867-12.935Z" transform="translate(-87.754 -303.018)" fill="#5b7393"/>
              <path id="Trazado_100931" data-name="Trazado 100931" d="M132.007,346.984s2.166-.27,4.044-3.229,13.3-21.931,13.3-21.931" transform="translate(-77.702 -296.784)" fill="none" stroke="#00223d" stroke-miterlimit="10" stroke-width="0.388"/>
            </g>
          </g>
        </g>
      </g>
      <g id="Grupo_50654" data-name="Grupo 50654" transform="translate(242.686 274.78)">
        <g id="Grupo_50643" data-name="Grupo 50643" transform="translate(6.615 92.799)">
          <g id="Grupo_50640" data-name="Grupo 50640" transform="translate(9.683 18.889)">
            <g id="Grupo_50639" data-name="Grupo 50639" transform="translate(0 50.298)">
              <path id="Trazado_100932" data-name="Trazado 100932" d="M246.806,366.277l-7.4,17.743L228.747,379.2l7.611-18.776Z" transform="translate(-221.93 -360.426)" fill="#e1b89b"/>
              <path id="Trazado_100933" data-name="Trazado 100933" d="M231.14,373.334l11.122,3.739,11.992,13.662a6.19,6.19,0,0,1,1.536,3.99l-.755,3.165-30.1-13.461a2.2,2.2,0,0,1-.728-3.5Z" transform="translate(-223.627 -356.147)" fill="#393e39"/>
            </g>
            <path id="Trazado_100934" data-name="Trazado 100934" d="M262.088,356.508l-13.8,34.94L228.23,382.23l19.557-59.581,15.313,6.037Z" transform="translate(-222.102 -322.649)" fill="#dee7f3"/>
          </g>
          <g id="Grupo_50642" data-name="Grupo 50642">
            <g id="Grupo_50641" data-name="Grupo 50641" transform="translate(58.818 81.687)">
              <path id="Trazado_100935" data-name="Trazado 100935" d="M272.5,369.814l2.822,19.015L263.7,390.205l-3.172-20.01Z" transform="translate(-260.53 -369.814)" fill="#e1b89b"/>
              <path id="Trazado_100936" data-name="Trazado 100936" d="M263.257,384.468l11.456-2.538,17.322,5.512a6.187,6.187,0,0,1,3.376,2.626l.987,3.1-32.731,4.009a2.2,2.2,0,0,1-2.429-2.619Z" transform="translate(-260.31 -365.798)" fill="#393e39"/>
            </g>
            <path id="Trazado_100937" data-name="Trazado 100937" d="M216.459,308.462s-1.582,18.821,7.573,23.082c8.519,3.962,39.076,5.061,39.076,5.061l8.68,63.961,20.948-3.436-5.649-74.264a6.257,6.257,0,0,0-5.32-5.114Z" transform="translate(-216.355 -308.462)" fill="#dee7f3"/>
          </g>
        </g>
        <g id="Grupo_50651" data-name="Grupo 50651" transform="translate(0 36.939)">
          <g id="Grupo_50649" data-name="Grupo 50649">
            <g id="Grupo_50645" data-name="Grupo 50645" transform="translate(6.719)">
              <g id="Grupo_50644" data-name="Grupo 50644" transform="translate(23.336 4.227)">
                <path id="Trazado_100938" data-name="Trazado 100938" d="M283.232,324.952l2.571-11.569-30.38-3.166-7.655-33.954c-.638-3.085-5.511-6.914-8.877-6.328l.971-.252c-3.366.585-6.458,4.17-5.819,7.256l6.169,40.618a5.932,5.932,0,0,0,4.627,4.466Z" transform="translate(-233.96 -269.683)" fill="#393e39"/>
              </g>
              <path id="Trazado_100939" data-name="Trazado 100939" d="M253.822,279.583a12.54,12.54,0,0,0-6.763-10.32c-3.029-1.55-6.6-2.936-9.4-2.735-6.063.435-13.392.655-18.951,2.567l-2.274,53.273,39.322.931Z" transform="translate(-216.433 -266.508)" fill="#393e39"/>
            </g>
            <g id="Grupo_50648" data-name="Grupo 50648" transform="translate(0 1.002)">
              <g id="Grupo_50646" data-name="Grupo 50646" transform="translate(35.69 49.101)">
                <path id="Trazado_100940" data-name="Trazado 100940" d="M245.69,311.577c-.3,4.4,2.636,5.262,7.035,5.566s8.593-.073,8.9-4.472a7.984,7.984,0,0,0-15.931-1.093Z" transform="translate(-235.713 -304.139)" fill="#e1b89b"/>
                <path id="Trazado_100941" data-name="Trazado 100941" d="M242.275,315l9.206.632a4.4,4.4,0,0,0,4.672-4.073h0a4.4,4.4,0,0,0-4.073-4.673l-9.2-.631a4.4,4.4,0,0,0-4.673,4.073h0A4.4,4.4,0,0,0,242.275,315Z" transform="translate(-238.191 -303.44)" fill="#e1b89b"/>
              </g>
              <g id="Grupo_50647" data-name="Grupo 50647">
                <path id="Trazado_100942" data-name="Trazado 100942" d="M227.566,267.261s-15.626.55-16.08,14.024a345.627,345.627,0,0,0,1.2,37.454,8.293,8.293,0,0,0,5.351,6.862c9.8,3.659,39.44,3.373,39.44,3.373l1.365-12.786-29.447-6.166Z" transform="translate(-211.386 -267.261)" fill="#393e39"/>
                <path id="Trazado_100943" data-name="Trazado 100943" d="M252.724,310.952l-27.715-5.8-.395-23.186" transform="translate(-207.002 -262.388)" fill="none" stroke="#00223d" stroke-miterlimit="10" stroke-width="0.388"/>
              </g>
            </g>
          </g>
          <g id="Grupo_50650" data-name="Grupo 50650" transform="translate(27.45 26.617)">
            <path id="Trazado_100944" data-name="Trazado 100944" d="M300.918,288.221,263.106,286.5a2.637,2.637,0,0,0-2.672,1.968L251.8,321.548a2.638,2.638,0,0,0,2.433,3.3L292.67,326.6a2.637,2.637,0,0,0,2.683-2.014l8.009-33.107A2.638,2.638,0,0,0,300.918,288.221Z" transform="translate(-225.471 -286.499)" fill="#14191e"/>
            <path id="Trazado_100945" data-name="Trazado 100945" d="M302.553,288.3l-37.812-1.72a2.637,2.637,0,0,0-2.671,1.968l-8.637,33.079a2.637,2.637,0,0,0,2.431,3.3l38.441,1.748a2.637,2.637,0,0,0,2.683-2.014L305,291.55A2.637,2.637,0,0,0,302.553,288.3Z" transform="translate(-224.928 -286.474)" fill="#252d37"/>
            <path id="Trazado_100946" data-name="Trazado 100946" d="M259.333,313.4,233.5,312.224A1.427,1.427,0,0,0,232,313.585h0a1.428,1.428,0,0,0,1.361,1.491l27.383,1.345Z" transform="translate(-232.003 -277.972)" fill="#14191e"/>
            <path id="Trazado_100947" data-name="Trazado 100947" d="M272.089,301.914a4.124,4.124,0,1,0,4.307-3.933A4.126,4.126,0,0,0,272.089,301.914Z" transform="translate(-218.717 -282.694)" fill="#fff"/>
          </g>
        </g>
        <g id="Grupo_50653" data-name="Grupo 50653" transform="translate(11.772 0)">
          <g id="Grupo_50652" data-name="Grupo 50652" transform="translate(0)">
            <path id="Trazado_100948" data-name="Trazado 100948" d="M232.384,275.812h0a5.643,5.643,0,0,1-4.783-6.388l1.5-10.433,11.171,1.608-1.5,10.432A5.641,5.641,0,0,1,232.384,275.812Z" transform="translate(-217.803 -232.061)" fill="#e1b89b"/>
            <path id="Trazado_100949" data-name="Trazado 100949" d="M238.916,268.47l-10.375-9.6,11.4,1.426Z" transform="translate(-217.473 -232.1)" fill="#3f1311"/>
            <path id="Trazado_100950" data-name="Trazado 100950" d="M252.353,257.6a14.329,14.329,0,1,1-12.142-16.222A14.33,14.33,0,0,1,252.353,257.6Z" transform="translate(-219.031 -237.948)" fill="#e1b89b"/>
            <path id="Trazado_100951" data-name="Trazado 100951" d="M244.112,253l2.588,4.671a.68.68,0,0,1-.627,1.011l-3.484-.164Z" transform="translate(-212.816 -234.046)" fill="#e1b89b"/>
            <path id="Trazado_100952" data-name="Trazado 100952" d="M235.762,238.856a19.314,19.314,0,0,1,3.976.025c11.854,1.017,10.717,9.625,10.717,9.625-1.688-3.113-1.892-.856-2.935-1.4-17.107-8.344-17.594,10.523-17.529,10.507L223.4,257S219.025,240.5,235.762,238.856Z" transform="translate(-219.347 -238.765)" fill="#12263f"/>
            <circle id="Elipse_4056" data-name="Elipse 4056" cx="4.455" cy="4.455" r="4.455" transform="translate(0 17.311) rotate(-36.739)" fill="#e1b89b"/>
          </g>
          <path id="Trazado_100953" data-name="Trazado 100953" d="M231.841,245.514s2.827-2.552,6.608.827,9.364,4.52,10.088,2.09-3.1-7.74-7.433-8.764-8.846,2.516-8.846,2.516Z" transform="translate(-216.379 -238.527)" fill="#12263f"/>
        </g>
      </g>
    </g>
  </g>
</svg>
