<svg xmlns="http://www.w3.org/2000/svg" xmlns:xlink="http://www.w3.org/1999/xlink" width="195.413" height="169.043" viewBox="0 0 195.413 169.043">
  <defs>
    <linearGradient id="linear-gradient" x1="0.5" x2="0.5" y2="1" gradientUnits="objectBoundingBox">
      <stop offset="0" stop-color="#fff"/>
      <stop offset="1" stop-color="#d3d3d3"/>
    </linearGradient>
    <linearGradient id="linear-gradient-5" x1="0.5" x2="0.5" y2="1" gradientUnits="objectBoundingBox">
      <stop offset="0" stop-color="#fff"/>
      <stop offset="1" stop-color="#f1f7fa"/>
    </linearGradient>
  </defs>
  <g id="Grupo_46872" data-name="Grupo 46872" transform="translate(-475.526 -769)">
    <g id="Grupo_46851" data-name="Grupo 46851" transform="translate(602.812 793.827)">
      <path id="Trazado_97330" data-name="Trazado 97330" d="M696.015,1337.308c0,2.342-3.066,4.241-6.848,4.241s-6.848-1.9-6.848-4.241,3.066-4.241,6.848-4.241S696.015,1334.966,696.015,1337.308Z" transform="translate(-658.292 -1247.194)" fill="#344966"/>
      <path id="Trazado_97331" data-name="Trazado 97331" d="M590.766,895.5a30.875,30.875,0,0,0-20.223,54.206c.023.025,4.823,5.213,5.615,10.646l.144,3.326a4.666,4.666,0,0,0,1.209,2.938c.065.072.133.14.2.207h26.107c.069-.067.137-.136.2-.207a4.666,4.666,0,0,0,1.209-2.938l.144-3.326c.791-5.433,5.592-10.622,5.615-10.646A30.875,30.875,0,0,0,590.766,895.5Z" transform="translate(-559.891 -895.504)" fill="url(#linear-gradient)"/>
      <path id="Rectángulo_28272" data-name="Rectángulo 28272" d="M0,0H26.238a0,0,0,0,1,0,0V.728A18.537,18.537,0,0,1,7.7,19.266h0a7.7,7.7,0,0,1-7.7-7.7V0A0,0,0,0,1,0,0Z" transform="translate(17.756 71.323)" fill="url(#linear-gradient)"/>
      <g id="Grupo_46849" data-name="Grupo 46849" transform="translate(17.56 13.037)">
        <path id="Trazado_97333" data-name="Trazado 97333" d="M666.191,994.745l-6.135-26.758-5.384,15.563L653.094,983l7.289-21.071,6.259,27.3,6.411-15.651,5.938,10.026-1.437.851-4.227-7.137Z" transform="translate(-653.094 -961.933)" fill="#f5ca56"/>
      </g>
      <g id="Grupo_46850" data-name="Grupo 46850" transform="translate(16.931 31.1)">
        <path id="Trazado_97334" data-name="Trazado 97334" d="M757.264,1098.219l-.147.015a1.412,1.412,0,0,1-1.549-1.259l-4.29-41.43a1.412,1.412,0,0,1,1.258-1.549l.147-.015a1.411,1.411,0,0,1,1.549,1.259l4.291,41.43A1.411,1.411,0,0,1,757.264,1098.219Z" transform="translate(-751.27 -1053.973)" fill="#f5ca56"/>
        <path id="Trazado_97335" data-name="Trazado 97335" d="M647.446,1098.256h0a1.485,1.485,0,0,0,1.63-1.325l4.275-41.283a1.486,1.486,0,0,0-1.324-1.63h0a1.485,1.485,0,0,0-1.63,1.325l-4.275,41.283A1.485,1.485,0,0,0,647.446,1098.256Z" transform="translate(-625.463 -1054.003)" fill="#f5ca56"/>
      </g>
      <path id="Trazado_97336" data-name="Trazado 97336" d="M671.661,1261.83H646.1a1.452,1.452,0,0,1-1.452-1.452h0a1.452,1.452,0,0,1,1.452-1.452h25.561a1.452,1.452,0,0,1,1.452,1.452h0A1.453,1.453,0,0,1,671.661,1261.83Z" transform="translate(-627.997 -1187.603)" fill="#344966"/>
      <path id="Trazado_97337" data-name="Trazado 97337" d="M671.661,1291.5H646.1a1.452,1.452,0,0,1-1.452-1.452h0a1.452,1.452,0,0,1,1.452-1.452h25.561a1.453,1.453,0,0,1,1.452,1.452h0A1.452,1.452,0,0,1,671.661,1291.5Z" transform="translate(-627.997 -1211.452)" fill="#344966"/>
      <path id="Trazado_97338" data-name="Trazado 97338" d="M671.661,1324.7H646.1a1.453,1.453,0,0,1-1.452-1.452h0a1.452,1.452,0,0,1,1.452-1.453h25.561a1.453,1.453,0,0,1,1.452,1.453h0A1.453,1.453,0,0,1,671.661,1324.7Z" transform="translate(-627.997 -1238.138)" fill="#344966"/>
    </g>
    <g id="Grupo_46852" data-name="Grupo 46852" transform="translate(475.526 822.229)">
      <path id="Trazado_97339" data-name="Trazado 97339" d="M1284.241,1143.909a19.775,19.775,0,1,1,4.232-27.644A19.8,19.8,0,0,1,1284.241,1143.909Zm-2.364-4.312h0a14.914,14.914,0,0,0,2.283-20.967h0a14.914,14.914,0,0,0-20.968-2.284h0a14.914,14.914,0,0,0-2.283,20.968h0A14.914,14.914,0,0,0,1281.878,1139.6Z" transform="translate(-1239.246 -1094.863)" fill="url(#linear-gradient)"/>
      <path id="Trazado_97340" data-name="Trazado 97340" d="M1233.408,1101.984c-.473.091-.786-.243-1.57-1.064-1.4-1.469-2.8-2.938-4.256-4.355a1.311,1.311,0,0,0-1.083-.233c-1.912.542-3.791,1.2-5.708,1.722-.594.162-.873.339-.986.977-.455,2.553-.982,5.094-1.476,7.611-2.336.366-8.15-.2-10.034-1,.034-2.47.03-5,.125-7.517a1.249,1.249,0,0,0-.918-1.44,52.06,52.06,0,0,1-5.078-2.713,1.431,1.431,0,0,0-1.847-.058c-1.846,1.307-3.771,2.5-5.64,3.778-.5.343-.889.378-1.278-.1q-2.741-3.357-5.479-6.716c-.449-.55.029-.857.336-1.164,1.553-1.554,3.1-3.116,4.7-4.617a1.421,1.421,0,0,0,.4-1.811c-.766-2.076-1.4-4.2-2.133-6.471l-8.125-1.629a29.635,29.635,0,0,1,1.095-9.967l8.122.08c1.309-2.3,2.474-4.451,3.759-6.53a1.116,1.116,0,0,0-.027-1.471c-1.26-1.839-2.464-3.718-3.711-5.566-.27-.4-.417-.714-.03-1.131a28.321,28.321,0,0,1,6.573-5.469.89.89,0,0,1,1.279.2c1.609,1.638,3.249,3.246,4.851,4.89a1.034,1.034,0,0,0,1.271.324c2.08-.667,4.192-1.245,6.314-1.769a.879.879,0,0,0,.767-.833c.51-2.544,1.038-5.084,1.573-7.691a31.79,31.79,0,0,1,9.867.98c-.028,2.875-.057,5.731-.083,8.464l7.308,3.934c1.659-1.092,3.561-2.365,5.484-3.605,1.579-1.018,1.255-1.172,2.671.254a3.1,3.1,0,0,0,.481.333l3.253,4.048a6.2,6.2,0,0,0,.568,1.02,1.276,1.276,0,0,1-.165,2.075c-1.667,1.525-3.24,3.155-4.813,4.78a1.2,1.2,0,0,0-.243.974c.5,1.89,1.166,3.742,1.566,5.651a1.468,1.468,0,0,0,1.434,1.359c2.418.439,4.818.978,7.467,1.527-.332,3.342-.655,6.6-.982,9.9-.628.006-.99.015-1.352.011-2.229-.022-4.709.241-6.937.179a1.12,1.12,0,0,0-1.174.769c-.991,1.873-1.851,3.417-2.855,5.283a1.326,1.326,0,0,0,.051,1.12c.966,1.552,2.018,3.051,3.015,4.585.807,1.241,1.1,1.7.835,2.309Zm-4.7-12.148a20.476,20.476,0,1,0-15.219,3.737A20.344,20.344,0,0,0,1228.71,1089.836Z" transform="translate(-1183.3 -1040.225)" fill="url(#linear-gradient)"/>
    </g>
    <path id="Trazado_97341" data-name="Trazado 97341" d="M1319.779,1425.276l-2.042,3.685c-.184.121-.375.033-.848-.179-.847-.379-1.695-.758-2.554-1.107a.6.6,0,0,0-.5.089c-.715.56-1.4,1.164-2.118,1.716a.492.492,0,0,0-.248.584c.249,1.16.466,2.326.692,3.476a12.973,12.973,0,0,1-4.418,1.314c-.413-1.051-.851-2.119-1.247-3.2a.571.571,0,0,0-.638-.451,23.843,23.843,0,0,1-2.618-.269c-.352-.052-.577-.042-.792.295-.555.873-1.163,1.711-1.733,2.575-.153.232-.311.314-.558.179q-1.741-.946-3.48-1.894c-.286-.155-.136-.368-.06-.551.388-.925.772-1.855,1.191-2.767a.65.65,0,0,0-.145-.835c-.683-.746-1.318-1.537-2.022-2.369l-3.72.716a13.543,13.543,0,0,1-1.261-4.407l3.451-1.372c.156-1.2.277-2.312.461-3.414a.51.51,0,0,0-.265-.618c-.852-.56-1.686-1.147-2.534-1.713-.183-.122-.3-.23-.208-.473a12.954,12.954,0,0,1,1.836-3.452.407.407,0,0,1,.576-.135c.964.415,1.937.811,2.9,1.23a.471.471,0,0,0,.594-.083c.765-.642,1.558-1.252,2.366-1.84a.4.4,0,0,0,.18-.485c-.224-1.165-.44-2.331-.664-3.527a14.512,14.512,0,0,1,4.345-1.292l1.429,3.6,3.774.4c.513-.75,1.1-1.617,1.7-2.475.491-.7.328-.713,1.174-.354a1.447,1.447,0,0,0,.261.058l2.077,1.15a2.9,2.9,0,0,0,.417.334.583.583,0,0,1,.29.906c-.442.934-.825,1.9-1.21,2.856a.548.548,0,0,0,.065.454c.539.713,1.14,1.382,1.64,2.121a.672.672,0,0,0,.842.327c1.1-.232,2.208-.419,3.424-.645.438,1.471.865,2.907,1.3,4.359-.265.111-.416.178-.57.238-.948.376-1.891.761-2.844,1.12-.271.1-.336.248-.364.529-.1.964-.253,1.921-.355,2.884a.607.607,0,0,0,.215.466c.677.489,1.382.942,2.069,1.419C1319.582,1424.829,1319.787,1424.974,1319.779,1425.276Zm-8.151-2.226a6.819,6.819,0,0,0-2.661-9.268h0a6.818,6.818,0,0,0-9.268,2.661h0a6.818,6.818,0,0,0,2.661,9.268h0a6.819,6.819,0,0,0,9.268-2.661Z" transform="translate(-799.729 -510.943)" fill="#fcfcfc"/>
    <rect id="Rectángulo_28273" data-name="Rectángulo 28273" width="120.613" height="77.296" rx="1" transform="translate(510.39 857.275)" fill="url(#linear-gradient-5)"/>
    <rect id="Rectángulo_28274" data-name="Rectángulo 28274" width="114.692" height="63.899" transform="translate(513.351 861.642)" fill="url(#linear-gradient)"/>
    <path id="Trazado_97342" data-name="Trazado 97342" d="M696.795,1589.686H825.137a2.244,2.244,0,0,0,2.244-2.244v-3.366h-136.2A5.61,5.61,0,0,0,696.795,1589.686Z" transform="translate(-188.587 -655.115)" fill="url(#linear-gradient-5)"/>
    <path id="Trazado_97343" data-name="Trazado 97343" d="M691.419,1585.635a5.335,5.335,0,0,1-.234-1.559h136.2a5.325,5.325,0,0,1-.234,1.559Z" transform="translate(-188.587 -655.115)" fill="#00223d" opacity="0.6"/>
    <path id="Trazado_97344" data-name="Trazado 97344" d="M1135.006,1304.954h-15.861l-31.844-57.872v-6.027h12.545Z" transform="translate(-573.95 -379.413)" fill="#fff" opacity="0.5" style="mix-blend-mode: soft-light;isolation: isolate"/>
    <path id="Trazado_97345" data-name="Trazado 97345" d="M883.014,1304.954h-21.63l-35.16-63.9h21.63Z" transform="translate(-270.721 -379.413)" fill="#fff" opacity="0.5" style="mix-blend-mode: soft-light;isolation: isolate"/>
    <path id="Trazado_97346" data-name="Trazado 97346" d="M745.974,1241.055h9.955l33.141,60.229v3.67h-7.935Z" transform="translate(-161.027 -379.413)" fill="#fff" opacity="0.5" style="mix-blend-mode: soft-light;isolation: isolate"/>
    <path id="Trazado_97347" data-name="Trazado 97347" d="M1441.342,1355.771l-.949,2.176c-.1.077-.208.039-.485-.055-.5-.167-.991-.334-1.492-.484a.337.337,0,0,0-.274.077c-.372.352-.721.727-1.1,1.075a.277.277,0,0,0-.108.341c.2.637.385,1.28.573,1.913a7.326,7.326,0,0,1-2.408.972c-.288-.568-.591-1.143-.871-1.73a.321.321,0,0,0-.381-.219,13.356,13.356,0,0,1-1.483-.011c-.2-.01-.326.007-.429.208-.264.519-.561,1.022-.834,1.536-.074.138-.158.193-.3.13l-2.053-.876c-.168-.072-.1-.2-.062-.305.169-.541.334-1.082.521-1.616a.367.367,0,0,0-.125-.461c-.423-.382-.822-.792-1.26-1.221l-2.049.6a7.635,7.635,0,0,1-.942-2.4l1.863-.953c.024-.68.032-1.311.076-1.939a.289.289,0,0,0-.182-.333c-.508-.268-1.007-.553-1.512-.825-.109-.059-.18-.113-.142-.255a7.3,7.3,0,0,1,.845-2.033.229.229,0,0,1,.316-.107c.563.181,1.129.352,1.691.535a.266.266,0,0,0,.329-.078c.4-.4.807-.786,1.229-1.158a.227.227,0,0,0,.075-.282c-.188-.641-.371-1.284-.561-1.943a8.184,8.184,0,0,1,2.368-.956l.993,1.941,2.138.023c.247-.448.53-.965.82-1.478.239-.421.146-.417.64-.262a.839.839,0,0,0,.15.019l1.226.534a1.627,1.627,0,0,0,.252.165c.237.1.305.23.211.493-.2.547-.362,1.107-.526,1.666a.308.308,0,0,0,.061.251c.34.372.713.714,1.033,1.1a.378.378,0,0,0,.489.138c.6-.189,1.216-.353,1.886-.544l.96,2.375c-.143.076-.224.122-.307.164-.511.261-1.02.528-1.536.78a.29.29,0,0,0-.176.317c0,.545-.039,1.091-.045,1.636a.341.341,0,0,0,.145.249c.406.239.825.455,1.236.685C1441.208,1355.53,1441.331,1355.6,1441.342,1355.771Zm-4.69-.814a3.842,3.842,0,0,0-1.987-5.056h0a3.842,3.842,0,0,0-5.057,1.987h0a3.842,3.842,0,0,0,1.987,5.056h0a3.842,3.842,0,0,0,5.057-1.987Z" transform="translate(-946.743 -463.029)" fill="#fec55e"/>
    <path id="Trazado_97348" data-name="Trazado 97348" d="M959.761,1124.843s2.463,70.247,11.935,85.157H955.462v-87.085Z" transform="translate(-384.765 -284.458)" fill="#00223d"/>
    <path id="Trazado_97349" data-name="Trazado 97349" d="M758.171,1466.055a12.706,12.706,0,0,1,5.366,1.176V1485.8h-13.96a11.218,11.218,0,0,1-3.6-8.194C745.974,1471.225,751.435,1466.055,758.171,1466.055Z" transform="translate(-135.494 -560.256)" fill="#00223d"/>
    <path id="Trazado_97350" data-name="Trazado 97350" d="M810.158,1487.658c5.9,0,10.676,4.526,10.676,10.108a9.674,9.674,0,0,1-1.646,5.395H801.128a9.672,9.672,0,0,1-1.647-5.395C799.482,1492.183,804.261,1487.658,810.158,1487.658Z" transform="translate(-203.292 -577.619)" fill="#00223d"/>
    <path id="Trazado_97351" data-name="Trazado 97351" d="M878.227,1426.878c9,0,16.291,6.906,16.291,15.425a15.1,15.1,0,0,1-6.063,12.006H868a15.1,15.1,0,0,1-6.063-12.006C861.935,1433.784,869.229,1426.878,878.227,1426.878Z" transform="translate(-289.234 -528.767)" fill="#00223d"/>
    <path id="Trazado_97352" data-name="Trazado 97352" d="M1050.331,1124.843s-2.682,70.247-12.153,85.157h16.452v-87.085Z" transform="translate(-483.933 -284.458)" fill="#00223d"/>
    <path id="Trazado_97353" data-name="Trazado 97353" d="M1246.258,1466.055a12.711,12.711,0,0,0-5.366,1.176V1485.8h13.96a11.217,11.217,0,0,0,3.6-8.194C1258.455,1471.225,1252.994,1466.055,1246.258,1466.055Z" transform="translate(-727.541 -560.256)" fill="#00223d"/>
    <path id="Trazado_97354" data-name="Trazado 97354" d="M1178.754,1487.658c-5.9,0-10.676,4.526-10.676,10.108a9.675,9.675,0,0,0,1.646,5.395h18.058a9.672,9.672,0,0,0,1.647-5.395C1189.429,1492.183,1184.65,1487.658,1178.754,1487.658Z" transform="translate(-644.226 -577.619)" fill="#00223d"/>
    <path id="Trazado_97355" data-name="Trazado 97355" d="M1064.685,1426.878c-9,0-16.291,6.906-16.291,15.425a15.1,15.1,0,0,0,6.063,12.006h20.457a15.1,15.1,0,0,0,6.063-12.006C1080.977,1433.784,1073.683,1426.878,1064.685,1426.878Z" transform="translate(-512.286 -528.767)" fill="#00223d"/>
    <g id="Grupo_46853" data-name="Grupo 46853" transform="translate(544.764 769)">
      <path id="Trazado_97356" data-name="Trazado 97356" d="M986.93,1154.766l7.927-3.237,7.928,3.237s9.668,12.863-7.928,29.681C977.262,1167.629,986.93,1154.766,986.93,1154.766Z" transform="translate(-968.925 -1076.457)" fill="#f4b34a"/>
      <path id="Trazado_97357" data-name="Trazado 97357" d="M1003.687,1166.577l5.335-2.178,5.336,2.178s6.507,8.657-5.336,19.976C997.18,1175.234,1003.687,1166.577,1003.687,1166.577Z" transform="translate(-983.09 -1086.801)" fill="#fec55e"/>
      <path id="Trazado_97358" data-name="Trazado 97358" d="M1023.406,1153.206l2.285-1.677,2.286,1.677s2.787,6.663-2.286,15.373C1020.619,1159.868,1023.406,1153.206,1023.406,1153.206Z" transform="translate(-999.758 -1076.457)" fill="#00223d"/>
      <path id="Trazado_97359" data-name="Trazado 97359" d="M1107.224,1068.231s-10.478-1.482-14.407,9.915h0a22.677,22.677,0,0,1,.061-11.731,44.851,44.851,0,0,1,8.134-16.4C1109.188,1040.075,1107.224,1068.231,1107.224,1068.231Z" transform="translate(-1092.076 -993.158)" fill="url(#linear-gradient)"/>
      <path id="Trazado_97360" data-name="Trazado 97360" d="M906.246,1068.231s10.478-1.482,14.406,9.915h0a22.676,22.676,0,0,0-.061-11.731,44.855,44.855,0,0,0-8.134-16.4C904.282,1040.075,906.246,1068.231,906.246,1068.231Z" transform="translate(-869.529 -993.158)" fill="url(#linear-gradient)"/>
      <path id="Trazado_97361" data-name="Trazado 97361" d="M951.642,813.508c.847-24.293,10.163-35.731,16.935-44.508,6.772,8.777,16.076,20.215,16.923,44.508s-6.581,35.891-6.581,35.891h-20.7S950.8,837.8,951.642,813.508Z" transform="translate(-942.638 -769)" fill="#7d6eb2"/>
      <path id="Trazado_97362" data-name="Trazado 97362" d="M1024.537,1086.852v-28.128S1030.561,1075.213,1024.537,1086.852Z" transform="translate(-998.605 -1001.865)" fill="#8ec8c8"/>
      <path id="Trazado_97363" data-name="Trazado 97363" d="M1038.454,813.757c.845-24.237,10.12-35.678,16.888-44.446v80.337h-10.307S1037.608,838.05,1038.454,813.757Z" transform="translate(-1029.451 -769.25)" fill="#584795"/>
      <path id="Trazado_97364" data-name="Trazado 97364" d="M967.472,794.082c3.486-11.8,9.323-19.066,13.965-25.082,4.6,5.967,10.378,13.167,13.87,24.8A41.333,41.333,0,0,1,967.472,794.082Z" transform="translate(-955.498 -769)" fill="#8ec8c8"/>
      <path id="Trazado_97365" data-name="Trazado 97365" d="M1052.3,769.311V796.6a42.6,42.6,0,0,1-13.917-2.264C1041.861,782.572,1047.67,775.315,1052.3,769.311Z" transform="translate(-1026.412 -769.25)" fill="#26aab7"/>
      <path id="Trazado_97366" data-name="Trazado 97366" d="M1040.855,1058.723v28.128C1034.832,1075.212,1040.855,1058.723,1040.855,1058.723Z" transform="translate(-1014.922 -1001.864)" fill="#26aab7"/>
      <path id="Trazado_97367" data-name="Trazado 97367" d="M995.517,953.138a9.792,9.792,0,0,0,3.881.8,9.66,9.66,0,1,0-3.881-.8Z" transform="translate(-973.651 -902.268)" fill="url(#linear-gradient)"/>
      <path id="Trazado_97368" data-name="Trazado 97368" d="M996.686,950.636a8.185,8.185,0,1,0,8.183-8.067A8.126,8.126,0,0,0,996.686,950.636Z" transform="translate(-978.978 -908.505)" fill="#584795"/>
    </g>
    <path id="Trazado_97369" data-name="Trazado 97369" d="M805.852,1497.8H745.974a12.017,12.017,0,0,1,9.4-4.521c.084,0,.168,0,.251,0,0-.083,0-.167,0-.251a12.043,12.043,0,0,1,23.3-4.276,10.717,10.717,0,0,1,13.554,1.7,7.985,7.985,0,0,1,13.372-1.574Z" transform="translate(-177.81 -572.263)" fill="#fcfcfc" opacity="0.6"/>
    <path id="Trazado_97370" data-name="Trazado 97370" d="M1072.768,1491.168V1481.1a7.982,7.982,0,0,1,12.3,2.927,10.719,10.719,0,0,1,14.36-3.2,10.681,10.681,0,0,1,20.789,4.91,3.789,3.789,0,0,1,2.7,5.43Z" transform="translate(-559.417 -565.626)" fill="#fcfcfc" opacity="0.6"/>
    <g id="Grupo_46855" data-name="Grupo 46855" transform="translate(601.718 829.991)">
      <path id="Trazado_97371" data-name="Trazado 97371" d="M810.213,1126.226c.139.006.521.134,1.078,1.187a39.547,39.547,0,0,1,1.752,5.409l-3.105,1.157-.4-.848-.657-6.53S810.175,1126.224,810.213,1126.226Z" transform="translate(-799.065 -1117.11)" fill="#26aab7"/>
      <path id="Trazado_97372" data-name="Trazado 97372" d="M827.805,1123.241a18.971,18.971,0,0,1,4.1.586s.749,6.439-.674,11.332c-.319,1.095.263,4.54.263,4.54l-9.2-.121s1.09-8.328.68-9.673a37.5,37.5,0,0,1-.42-6.033l2.067-.356A20.8,20.8,0,0,1,827.805,1123.241Z" transform="translate(-820.762 -1114.71)" fill="#8ec8c8"/>
      <path id="Trazado_97373" data-name="Trazado 97373" d="M848.533,1268a12.387,12.387,0,0,0,.578,3c.374.65-.019,1.757-.039,1.908s-.788.368-2.009.239-1.2-.412-1.1-.867.748-1.041.788-1.475a11.344,11.344,0,0,0-.374-1.995Z" transform="translate(-842.562 -1231.058)" fill="#ffc3b5"/>
      <path id="Trazado_97374" data-name="Trazado 97374" d="M797.146,1196.63s6.352-.353,7.77.506-1.008,5.075-1.008,5.075-4.419-.2-13.077.3c-2.05.118-2.227-5.345-1.844-5.8S797.146,1196.63,797.146,1196.63Z" transform="translate(-787.446 -1173.581)" fill="#03192b"/>
      <path id="Trazado_97375" data-name="Trazado 97375" d="M846.311,1286.191c-1.258-.134-1.1-.752-1-1.22a4.155,4.155,0,0,1,.639-.968,2.1,2.1,0,0,0,.841.409,3.143,3.143,0,0,0,1.84-.372,6.1,6.1,0,0,1,.168,1.622A3.657,3.657,0,0,1,846.311,1286.191Z" transform="translate(-841.962 -1243.923)" fill="#293241"/>
      <path id="Trazado_97376" data-name="Trazado 97376" d="M851.533,1201.432c.254,1.92,1.51,11.48,1.51,11.48l-2.915.362s-3.585-12.478-3.4-14.386,1.526-2.069,1.526-2.069S850.862,1196.349,851.533,1201.432Z" transform="translate(-846.491 -1173.839)" fill="#00223d"/>
      <path id="Trazado_97377" data-name="Trazado 97377" d="M818.439,1130.055c.86-.323,1.281,7.429,1.4,10.62a37.57,37.57,0,0,0,4.84-.049c.311-.023,1.028-.286,1.337-.326a3.094,3.094,0,0,1,.76-.036,14.318,14.318,0,0,1,1.781.8c.168.177.624.622.547.815s-.876-.537-.876-.537l-.39-.219c.486.475,1.414,1.1,1.28,1.328s-.967-.412-1.563-.846c.511.462,1.146,1.289,1,1.417-.131.116-.854-.841-1.626-1.116-.286-.1-.571.181-.8.215a1.621,1.621,0,0,1-.583.032l-.836-.237c-.285.026-.292.194-.579.255-.334.071-.882.146-1.307.25a22.578,22.578,0,0,1-4.015.876C816.538,1143.3,816.406,1130.818,818.439,1130.055Z" transform="translate(-816.745 -1120.18)" fill="#ffc3b5"/>
      <path id="Trazado_97378" data-name="Trazado 97378" d="M862.072,1134.366c-.161-3.268-.138-7.3,1.695-7.983.723-.271,2,1.359,1.768,8.05A13.741,13.741,0,0,1,862.072,1134.366Z" transform="translate(-862.009 -1117.213)" fill="#26aab7"/>
      <path id="Trazado_97379" data-name="Trazado 97379" d="M795.937,1279.3a1.588,1.588,0,0,0-.089,1.367c.331.623,2.069,1.541,2.251,1.879a.819.819,0,0,1,.11.577l-5.162-1.266.4-1.556.483-1.076Z" transform="translate(-781.136 -1240.087)" fill="#ffc3b5"/>
      <path id="Trazado_97380" data-name="Trazado 97380" d="M792.053,1285.408s-1.451.251-2.026-.208-.537-.543-.749-.464c-.136.051-.344.671-.475,1.107a.424.424,0,0,0,.305.533l5.375,1.329c.408.078.679-.177.4-.5a4.859,4.859,0,0,0-.555-.516A18.671,18.671,0,0,0,792.053,1285.408Z" transform="translate(-777.075 -1244.491)" fill="#293241"/>
      <path id="Trazado_97381" data-name="Trazado 97381" d="M785.417,1198.67a2.2,2.2,0,0,1,2.988-1.312c1.567.647,1.988,2.235,1.493,3.861s-3.75,11.187-3.863,12.5l-2.6.017s.472-7.57.588-9.4A17.724,17.724,0,0,1,785.417,1198.67Z" transform="translate(-771.121 -1174.115)" fill="#00223d"/>
      <path id="Trazado_97382" data-name="Trazado 97382" d="M799.8,1160.022H791.11a.566.566,0,0,0-.524.353l-2.675,6.546h-4.789a.243.243,0,0,0-.242.243h0a.243.243,0,0,0,.242.244h13.631a.952.952,0,0,0,.868-.564l2.694-6.021A.568.568,0,0,0,799.8,1160.022Z" transform="translate(-781.283 -1144.274)" fill="#fec55e"/>
      <path id="Trazado_97383" data-name="Trazado 97383" d="M810.482,1176.85a.478.478,0,1,1-.358-.626A.511.511,0,0,1,810.482,1176.85Z" transform="translate(-796.645 -1157.29)" fill="#fff"/>
      <g id="Grupo_46854" data-name="Grupo 46854" transform="translate(4.273)">
        <path id="Trazado_97384" data-name="Trazado 97384" d="M831.449,1080.442a6.674,6.674,0,0,1-.768-.307,3.867,3.867,0,0,0-.876-.331,2.113,2.113,0,0,0-1.778.474c-.573.622-1.591.112-1.386,3.368.232,3.685,2.281,3.281,2.331,3.218s1.828-2.358,1.828-2.358.622,1.36.622,1.31S834.594,1081.5,831.449,1080.442Z" transform="translate(-826.613 -1079.776)"/>
        <path id="Trazado_97385" data-name="Trazado 97385" d="M842.08,1108.788l.177,1.317s.4,1.9-.114,2.263-2.168-2.317-2.168-2.317l.175-3.337Z" transform="translate(-838.8 -1101.427)" fill="#ffc3b5"/>
        <path id="Trazado_97386" data-name="Trazado 97386" d="M840.86,1107.8A3.777,3.777,0,0,0,843,1109.9l-.15-1.116-1.93-2.074Z" transform="translate(-839.566 -1101.427)" fill="#fc8899"/>
        <path id="Trazado_97387" data-name="Trazado 97387" d="M834.078,1088.12a1.756,1.756,0,0,1,2.022,1.776,13.364,13.364,0,0,1-.148,1.689c-.235,1.52-1.272,2.859-1.958,2.739a3.3,3.3,0,0,1-2.107-3.594A2.908,2.908,0,0,1,834.078,1088.12Z" transform="translate(-830.903 -1086.465)" fill="#ffc3b5"/>
        <path id="Trazado_97388" data-name="Trazado 97388" d="M851.838,1099.97a.511.511,0,1,1-.388-.691A.566.566,0,0,1,851.838,1099.97Z" transform="translate(-850.378 -1095.446)" fill="#ffc3b5"/>
        <path id="Trazado_97389" data-name="Trazado 97389" d="M830.962,1088.232s.829.206,1.137-.328a2.5,2.5,0,0,1,2.807-1.207c1.4.477-1.231-1.16-1.342-1.16l-1.455-.009s-1.035.851-1.072.945-.336,1.114-.336,1.114Z" transform="translate(-829.89 -1084.399)"/>
      </g>
      <path id="Trazado_97390" data-name="Trazado 97390" d="M837.466,1110.641l1.509.288a.672.672,0,0,1-.811.461C837.35,1111.259,837.466,1110.641,837.466,1110.641Z" transform="translate(-830.604 -1104.583)" fill="#fff"/>
    </g>
    <g id="Grupo_46857" data-name="Grupo 46857" transform="translate(623.044 928.867)">
      <path id="Trazado_97391" data-name="Trazado 97391" d="M590.749,1592.063v5.476c0,.886-9.877,1.6-22.06,1.6s-22.06-.718-22.06-1.6v-5.476Z" transform="translate(-546.629 -1590.402)" fill="#f4b34a"/>
      <g id="Grupo_46856" data-name="Grupo 46856" transform="translate(0 1.661)">
        <path id="Trazado_97392" data-name="Trazado 97392" d="M546.629,1599.08v-7.017h15.965v5.476C562.594,1598.271,555.848,1598.888,546.629,1599.08Z" transform="translate(-518.474 -1592.063)" fill="#fec55e"/>
        <path id="Trazado_97393" data-name="Trazado 97393" d="M644.926,1599.095c-1.714.031-3.506.048-5.352.048-2.751,0-5.384-.037-7.812-.1v-6.975h13.164Z" transform="translate(-617.514 -1592.063)" fill="#fec55e"/>
        <path id="Trazado_97394" data-name="Trazado 97394" d="M716.708,1599.013c-7.86-.245-13.364-.813-13.364-1.474v-5.476h13.364Z" transform="translate(-703.344 -1592.063)" fill="#eab054"/>
      </g>
      <path id="Trazado_97395" data-name="Trazado 97395" d="M546.629,1585.2c0,.885,9.877,1.6,22.06,1.6s22.06-.718,22.06-1.6-9.877-1.6-22.06-1.6S546.629,1584.316,546.629,1585.2Z" transform="translate(-546.629 -1583.598)" fill="#f4b34a"/>
      <path id="Trazado_97396" data-name="Trazado 97396" d="M566.471,1587.214c0,.614,8.133,1.112,18.166,1.112s18.166-.5,18.166-1.112-8.133-1.111-18.166-1.111S566.471,1586.6,566.471,1587.214Z" transform="translate(-562.577 -1585.612)" fill="#f7cc7f"/>
    </g>
    <g id="Grupo_46859" data-name="Grupo 46859" transform="translate(626.819 923.072)">
      <path id="Trazado_97397" data-name="Trazado 97397" d="M571.518,1562.534v5.476c0,.885-9.877,1.6-22.06,1.6s-22.06-.718-22.06-1.6v-5.476Z" transform="translate(-527.398 -1560.873)" fill="#f4b34a"/>
      <g id="Grupo_46858" data-name="Grupo 46858" transform="translate(0 1.661)">
        <path id="Trazado_97398" data-name="Trazado 97398" d="M527.4,1569.552v-7.017h15.965v5.476C543.363,1568.742,536.617,1569.359,527.4,1569.552Z" transform="translate(-499.243 -1562.534)" fill="#fec55e"/>
        <path id="Trazado_97399" data-name="Trazado 97399" d="M625.694,1569.566c-1.714.031-3.506.047-5.353.047-2.75,0-5.383-.037-7.812-.1v-6.976h13.164Z" transform="translate(-598.282 -1562.534)" fill="#fec55e"/>
        <path id="Trazado_97400" data-name="Trazado 97400" d="M697.476,1569.484c-7.86-.245-13.364-.812-13.364-1.474v-5.476h13.364Z" transform="translate(-684.112 -1562.534)" fill="#eab054"/>
      </g>
      <ellipse id="Elipse_3874" data-name="Elipse 3874" cx="22.06" cy="1.603" rx="22.06" ry="1.603" transform="translate(0 0)" fill="#f4b34a"/>
      <ellipse id="Elipse_3875" data-name="Elipse 3875" cx="18.166" cy="1.111" rx="18.166" ry="1.111" transform="translate(3.894 0.492)" fill="#f7cc7f"/>
    </g>
    <g id="Grupo_46861" data-name="Grupo 46861" transform="translate(624.304 917.123)">
      <path id="Trazado_97401" data-name="Trazado 97401" d="M584.331,1532.221v5.476c0,.885-9.876,1.6-22.06,1.6s-22.06-.718-22.06-1.6v-5.476Z" transform="translate(-540.211 -1530.56)" fill="#f4b34a"/>
      <g id="Grupo_46860" data-name="Grupo 46860" transform="translate(0 1.661)">
        <path id="Trazado_97402" data-name="Trazado 97402" d="M540.211,1539.238v-7.017h15.964v5.476C556.175,1538.429,549.43,1539.046,540.211,1539.238Z" transform="translate(-512.055 -1532.221)" fill="#fec55e"/>
        <path id="Trazado_97403" data-name="Trazado 97403" d="M638.508,1539.252c-1.713.031-3.506.047-5.352.047-2.75,0-5.384-.036-7.812-.1v-6.976h13.164Z" transform="translate(-611.096 -1532.221)" fill="#fec55e"/>
        <path id="Trazado_97404" data-name="Trazado 97404" d="M710.29,1539.171c-7.86-.246-13.364-.813-13.364-1.474v-5.476H710.29Z" transform="translate(-696.926 -1532.221)" fill="#fec55e"/>
      </g>
      <ellipse id="Elipse_3876" data-name="Elipse 3876" cx="22.06" cy="1.603" rx="22.06" ry="1.603" transform="translate(0 0)" fill="#f4b34a"/>
      <ellipse id="Elipse_3877" data-name="Elipse 3877" cx="18.166" cy="1.111" rx="18.166" ry="1.111" transform="translate(3.894 0.492)" fill="#f7cc7f"/>
    </g>
    <g id="Grupo_46863" data-name="Grupo 46863" transform="translate(626.819 911.255)">
      <path id="Trazado_97405" data-name="Trazado 97405" d="M571.518,1502.322v5.476c0,.885-9.877,1.6-22.06,1.6s-22.06-.718-22.06-1.6v-5.476Z" transform="translate(-527.398 -1500.661)" fill="#f4b34a"/>
      <g id="Grupo_46862" data-name="Grupo 46862" transform="translate(0 1.661)">
        <path id="Trazado_97406" data-name="Trazado 97406" d="M527.4,1509.339v-7.017h15.965v5.476C543.363,1508.53,536.617,1509.147,527.4,1509.339Z" transform="translate(-499.243 -1502.322)" fill="#fec55e"/>
        <path id="Trazado_97407" data-name="Trazado 97407" d="M625.694,1509.354c-1.714.031-3.506.048-5.353.048-2.75,0-5.383-.037-7.812-.1v-6.976h13.164Z" transform="translate(-598.282 -1502.322)" fill="#fec55e"/>
        <path id="Trazado_97408" data-name="Trazado 97408" d="M697.476,1509.272c-7.86-.246-13.364-.813-13.364-1.474v-5.476h13.364Z" transform="translate(-684.112 -1502.322)" fill="#fec55e"/>
      </g>
      <path id="Trazado_97409" data-name="Trazado 97409" d="M527.4,1495.461c0,.885,9.877,1.6,22.06,1.6s22.06-.718,22.06-1.6-9.877-1.6-22.06-1.6S527.4,1494.576,527.4,1495.461Z" transform="translate(-527.398 -1493.858)" fill="#f4b34a"/>
      <path id="Trazado_97410" data-name="Trazado 97410" d="M547.24,1497.474c0,.614,8.133,1.112,18.166,1.112s18.166-.5,18.166-1.112-8.133-1.111-18.166-1.111S547.24,1496.861,547.24,1497.474Z" transform="translate(-543.346 -1495.872)" fill="#f7cc7f"/>
    </g>
    <g id="Grupo_46865" data-name="Grupo 46865" transform="translate(598.103 923.293)">
      <rect id="Rectángulo_28275" data-name="Rectángulo 28275" width="38.646" height="14.065" transform="translate(0)" fill="#fcfcfc"/>
      <g id="Grupo_46864" data-name="Grupo 46864" transform="translate(0)">
        <rect id="Rectángulo_28276" data-name="Rectángulo 28276" width="38.646" height="1.809" transform="translate(0 2.05)" fill="#eff4ef"/>
        <rect id="Rectángulo_28277" data-name="Rectángulo 28277" width="38.646" height="1.809" transform="translate(0 5.584)" fill="#eff4ef"/>
        <rect id="Rectángulo_28278" data-name="Rectángulo 28278" width="38.646" height="1.809" transform="translate(0 9.119)" fill="#eff4ef"/>
        <rect id="Rectángulo_28279" data-name="Rectángulo 28279" width="38.646" height="1.809" transform="translate(0 12.256)" fill="#eff4ef"/>
        <rect id="Rectángulo_28280" data-name="Rectángulo 28280" width="8.038" height="14.065" transform="translate(14.386)" fill="#f5ca56"/>
      </g>
      <rect id="Rectángulo_28281" data-name="Rectángulo 28281" width="5.836" height="14.065" transform="translate(38.177)" fill="#26aab7"/>
    </g>
    <g id="Grupo_46866" data-name="Grupo 46866" transform="translate(624.521 885.584)">
      <path id="Trazado_97411" data-name="Trazado 97411" d="M597.655,1366.344a5.017,5.017,0,0,1,2.3-3.014,2.9,2.9,0,0,1,3.076.393c2.64,1.985.339,4.172,3.344,7.937a15.178,15.178,0,0,1,2.623,3.485c.783,1.918-.149,2.84-1.644,3.759-7.153,4.4-10.9-4.63-10.768-6.7A33.249,33.249,0,0,1,597.655,1366.344Z" transform="translate(-576.446 -1363.053)"/>
      <path id="Trazado_97412" data-name="Trazado 97412" d="M655.74,1436.22c.3-.048,1.034-.572,1.293-.62.2-.037.634-.1.818-.13.226-.845,1.375-5.45,1.5-6.8.139-1.462,1.174-7.789,1.174-7.789l2.678.487s-1.112,4.867-1.42,7.227c-.264,2.027-2.488,6.585-2.771,7.066,0,.012,0,.023,0,.035-.043.716-.388.477-.388.477l-.56.143s-1.982.191-2.111.238S655.439,1436.267,655.74,1436.22Z" transform="translate(-641.954 -1409.531)" fill="#ffc3b5"/>
      <path id="Trazado_97413" data-name="Trazado 97413" d="M650.486,1402.034c-1.893.642-2.969,5.789-2.969,5.789s2.97.829,3.731.395c0,0,.864-3.829,1.174-3.7Z" transform="translate(-629.576 -1394.383)" fill="#8ec8c8"/>
      <path id="Trazado_97414" data-name="Trazado 97414" d="M737.069,1544.352a20.264,20.264,0,0,0-.907,3.177c-.013.085.108.5.1.59a5.368,5.368,0,0,1-4.266,2.034,24.227,24.227,0,0,0,1.854-1.614,28.09,28.09,0,0,0,.74-4.177C735.477,1544.775,736.082,1544.448,737.069,1544.352Z" transform="translate(-730.804 -1508.772)" fill="#ffc3b5"/>
      <path id="Trazado_97415" data-name="Trazado 97415" d="M654.421,1457.265l2.558,7.206s-4.111.774-5.649,1.056-10.125.657-10.342.809c-.162.113-1.936,5.851-2.728,9.015a7.442,7.442,0,0,1-3.256-.322c.442-4.526,2.04-11.7,2.551-12.479C638.389,1461.278,654.421,1457.265,654.421,1457.265Z" transform="translate(-631.68 -1438.776)" fill="#d1d1d1"/>
      <path id="Trazado_97416" data-name="Trazado 97416" d="M702.868,1560.446a20.244,20.244,0,0,0-.3,3.291c0,.087.2.472.205.562a5.369,5.369,0,0,1-3.81,2.8,23.913,23.913,0,0,0,1.518-1.932,27.988,27.988,0,0,0-.056-4.241C701.383,1561.16,701.915,1560.726,702.868,1560.446Z" transform="translate(-690.121 -1521.707)" fill="#ffc3b5"/>
      <path id="Trazado_97417" data-name="Trazado 97417" d="M640.333,1459.17l.992,1.7a4.857,4.857,0,0,1-2.435,6.982l-.044.017c-1.457.565-9.822,2.543-10.008,2.733-.137.142-.8,6.11-.99,9.366a7.443,7.443,0,0,1-3.259.294c-.414-4.529-.188-11.874.168-12.736C625.337,1466.116,640.333,1459.17,640.333,1459.17Z" transform="translate(-614.605 -1440.307)" fill="#fcfcfc"/>
      <path id="Trazado_97418" data-name="Trazado 97418" d="M698.36,1577.349c.223-.246,1.04,1.107,1.245,1.4a.648.648,0,0,1,.137.621,30.128,30.128,0,0,1-5.436,2.851.527.527,0,0,1-.315-.084c-.411-.364,1.481-3.05,2.33-3.4A4.075,4.075,0,0,0,698.36,1577.349Z" transform="translate(-686.037 -1535.269)" fill="#8ec8c8"/>
      <path id="Trazado_97419" data-name="Trazado 97419" d="M737.19,1560.713c.265-.2.814,1.284.961,1.605a.646.646,0,0,1,.018.635,30.057,30.057,0,0,1-5.874,1.783.528.528,0,0,1-.293-.142c-.335-.434,2.026-2.718,2.927-2.906A4.073,4.073,0,0,0,737.19,1560.713Z" transform="translate(-731.969 -1521.907)" fill="#8ec8c8"/>
      <path id="Trazado_97420" data-name="Trazado 97420" d="M627.516,1401.512h0a.713.713,0,0,1-.191-.04,3.3,3.3,0,0,0-1.718.1c-.727.307-1.855,3.175-1.788,6.118.027.45.054.853.078,1.134.184,2.223.822,6.4.856,6.418.868.558,6.1-1.607,6.464-2.083s.572-6.255.747-6.543l.344-5.026A39.486,39.486,0,0,0,627.516,1401.512Z" transform="translate(-604.811 -1393.877)" fill="#8ec8c8"/>
      <path id="Trazado_97421" data-name="Trazado 97421" d="M640.118,1388.8a13.4,13.4,0,0,0-.27,2.432c.068.688-.257,2.9-1.713,2.911s-.276-2.818-.139-3.492a25.792,25.792,0,0,0,.17-2.76Z" transform="translate(-615.291 -1383.018)" fill="#ffc3b5"/>
      <path id="Trazado_97422" data-name="Trazado 97422" d="M637.415,1388.94c.023-.571.03-1.047.03-1.047l1.952.909s-.069.357-.138.811A1.7,1.7,0,0,1,637.415,1388.94Z" transform="translate(-614.571 -1383.018)" fill="#fc8899"/>
      <path id="Trazado_97423" data-name="Trazado 97423" d="M631.543,1367.064a2.417,2.417,0,0,1,1.027,1.321c.275.9-.038,3.239-1.981,3.8s-2.785-1.285-2.385-2.73S629.474,1366.182,631.543,1367.064Z" transform="translate(-606.003 -1366.091)" fill="#ffc3b5"/>
      <path id="Trazado_97424" data-name="Trazado 97424" d="M647.835,1374.3c.038.389.252.685.478.663s.378-.355.341-.743-.252-.684-.478-.662S647.8,1373.915,647.835,1374.3Z" transform="translate(-625.877 -1371.497)" fill="#ffc3b5"/>
      <path id="Trazado_97425" data-name="Trazado 97425" d="M624.475,1367.406s.352,2.6,1.194,3.073.489,1.625.489,1.625.763-2.682.1-3.543A3.7,3.7,0,0,0,624.475,1367.406Z" transform="translate(-599.163 -1366.552)"/>
      <path id="Trazado_97426" data-name="Trazado 97426" d="M626.466,1383.352c-.228.339-.227.739,0,.893s.6,0,.828-.335.228-.74,0-.894S626.694,1383.012,626.466,1383.352Z" transform="translate(-600.458 -1379.05)" fill="#ffc3b5"/>
      <path id="Trazado_97427" data-name="Trazado 97427" d="M638.855,1385.71l1.37.345a.623.623,0,0,1-.771.386C638.713,1386.278,638.855,1385.71,638.855,1385.71Z" transform="translate(-615.679 -1381.263)" fill="#fff"/>
      <path id="Trazado_97428" data-name="Trazado 97428" d="M589.925,1434.9c-.024-.063-.079-.064-.135-.065a13.748,13.748,0,0,1-1.621-.121,1.153,1.153,0,0,1-.26-.067.677.677,0,0,0-.448-.016.894.894,0,0,1-.249.026c-.272,0-1.05-.265-1.449-.335a.234.234,0,0,1-.186-.175c-.393-1.554-1.236-5.04-1.345-6.186-.14-1.466-1.152-8.075-1.152-8.075l-2.708.755s1.115,4.879,1.423,7.245c.238,1.827,2.064,5.7,2.636,6.818a1.142,1.142,0,0,0,1.053.87.339.339,0,0,1,.215.115,1.505,1.505,0,0,0,.342.3.8.8,0,0,1,.233.232c.115.168.218.344.32.52.068.117.138.154.238.126a.212.212,0,0,0,.157-.24,1.072,1.072,0,0,0-.162-.533.29.29,0,0,1,.022-.387,1.214,1.214,0,0,1,.2-.226.348.348,0,0,1,.277-.1,4.5,4.5,0,0,0,.591.11l.164.033.09.019c.014,0,.3.035.4.035.079,0,.208.006.317.011a1.713,1.713,0,0,0,.315-.047.386.386,0,0,0,.253-.1c.03-.026.058-.056.043-.1a.1.1,0,0,0-.088-.066,3.725,3.725,0,0,1-.4-.067c.1,0,.413-.007.513-.01a.47.47,0,0,0,.344-.151C589.907,1435.005,589.949,1434.966,589.925,1434.9Z" transform="translate(-553.911 -1408.735)" fill="#ffc3b5"/>
      <path id="Trazado_97429" data-name="Trazado 97429" d="M613.683,1402.261c1.337-.243,2.439,5.738,2.439,5.738s-2.97.829-3.731.395c0,0-.864-3.829-1.174-3.7Z" transform="translate(-586.155 -1394.561)" fill="#8ec8c8"/>
    </g>
    <g id="Grupo_46870" data-name="Grupo 46870" transform="translate(511.83 789.049)">
      <g id="Grupo_46869" data-name="Grupo 46869" transform="translate(0 0)">
        <path id="Trazado_97430" data-name="Trazado 97430" d="M1308.849,1190.618s-.6.586-.612.8a9.776,9.776,0,0,0,.191,2.735c.244.215,1.066.594.732.61-.239.011-1.559.06-2.449.011-.26-.015-.543-2.009-.646-2.315-.149-.443-.512-1.443-.377-1.752a2.59,2.59,0,0,1,.829-.749,4.094,4.094,0,0,0,.918-.981Z" transform="translate(-1302.866 -1126.605)" fill="#f48c7f"/>
        <path id="Trazado_97431" data-name="Trazado 97431" d="M1264.862,1204.159s-.536,1.519-.537,1.523c-.04.24-.2.835-.2,1.054,0,.822,3.7-.7,2.867-1.062a.878.878,0,0,1-.335-.576,1.929,1.929,0,0,1,.311-.972Z" transform="translate(-1252.593 -1138.781)" fill="#f7a491"/>
        <g id="Grupo_46867" data-name="Grupo 46867" transform="translate(3.936 37.098)">
          <path id="Trazado_97432" data-name="Trazado 97432" d="M1247.133,1060.193s.269,2.723.269,2.763c0,4.4.871,13.007.705,13.835-.4,2.019-4.75,12.322-4.75,12.322l-2.35-.281,3.062-12.335-1.127-4.965-1.593-9.814Z" transform="translate(-1233.003 -1060.193)" fill="#0f8a96"/>
          <path id="Trazado_97433" data-name="Trazado 97433" d="M1255.784,1064.192l-.446,2.581-1.206,10.62-4.593,10.379s.646,1.51,1.6,1.723l7.311-10.656,4.541-13.636-.16-3.03Z" transform="translate(-1249.539 -1061.784)" fill="#26aab7"/>
        </g>
        <path id="Trazado_97434" data-name="Trazado 97434" d="M1305.758,1193.9s1.381,3.9,1.921,4.087c.144.05.832.176.962.482a.937.937,0,0,1,.018.318h-2.878s-.381-1.637-.525-2.391a11.275,11.275,0,0,1-.677-2.012C1304.663,1194.218,1305.758,1193.9,1305.758,1193.9Z" transform="translate(-1302.078 -1130.562)"/>
        <path id="Trazado_97435" data-name="Trazado 97435" d="M1249.538,1213.311l.423-1.341a3.66,3.66,0,0,0,1.333.314,13.379,13.379,0,0,0,1.312-.314c1.774.585,3.226.87,2.962,1.341h-6.031Z" transform="translate(-1238.213 -1145.085)"/>
        <path id="Trazado_97436" data-name="Trazado 97436" d="M1141.93,892.2s3.122,2.021,10.817,1.746c0,0-8.248,3.115-11.472,3.6l-1.327-5.242Z" transform="translate(-1113.852 -888.067)" fill="#b54273"/>
        <path id="Trazado_97437" data-name="Trazado 97437" d="M1190.385,900.114a7.948,7.948,0,0,1-2.127,2.7l-.692-2.732.045-1.321Z" transform="translate(-1160.837 -893.347)" fill="#e36099"/>
        <path id="Trazado_97438" data-name="Trazado 97438" d="M1187.567,875.725s9.016-.609,10.418-.094l1.449,5.724a28.442,28.442,0,0,0-10.132,1.227Z" transform="translate(-1169.885 -874.587)" fill="#c1507f"/>
        <path id="Trazado_97439" data-name="Trazado 97439" d="M1210.322,1000.987l1.232.945c.237-.183.757-.954,1.093-1.194l-1.126-1.228h0a.326.326,0,0,1-.131-.294.972.972,0,0,1,.031-.189c.035-.1.067-.213.1-.31s-.2-.292-.319-.327-.162.433-.215.572a15.191,15.191,0,0,0-.389,1.759Z" transform="translate(-1187.564 -973.42)" fill="#fc8899"/>
        <path id="Trazado_97440" data-name="Trazado 97440" d="M1228.4,1011.9c-.347-.369-.835-.576-1.2-.96l-5.468,3.765s-4.227-5-6.523-3.228a38.169,38.169,0,0,0,2.839,4.085c1.4,1.738,3.548,2.568,3.966,2.376C1222.49,1017.725,1228.278,1012.052,1228.4,1011.9Z" transform="translate(-1204.277 -983.51)" fill="#d1d1d1"/>
        <path id="Trazado_97441" data-name="Trazado 97441" d="M1323.812,938.43c.181.482.494,1.24.494,1.24.009.218.054,1.123.111,2.232l1.539-.843a17.587,17.587,0,0,1-.177-1.908c.049-.1.166,0,.576-.766a1.4,1.4,0,0,0,.1-.591s-.025-.454-.131-.483a.212.212,0,0,0-.242.134c-.027.082,0,.262-.023.344a.566.566,0,0,1-.349.211,6.057,6.057,0,0,1-.149-1.333s.009-.383.022-.509c.011-.108.07-.427.07-.427s.057-.46-.085-.477c-.084-.01-.249.378-.345.78a7.735,7.735,0,0,1-.182.883c-.105,0-.138-.736-.138-.736a2.354,2.354,0,0,0,.041-.5c.074-.2.1-.57-.079-.578a2.98,2.98,0,0,0-.2.479s-.05.331-.084.486a8.82,8.82,0,0,0-.047.882c-.021.157-.065.1-.08.107a3.853,3.853,0,0,1-.025-.5,2.924,2.924,0,0,1-.021-.484,3.506,3.506,0,0,0,.008-.515c-.018-.38-.25-.312-.291.042-.015.135-.031.282-.046.431-.059.58.01,1.122-.05,1.134a4.13,4.13,0,0,1-.146-.98s-.188-.533-.246-.01a4.46,4.46,0,0,0,.009,1.107A4.3,4.3,0,0,0,1323.812,938.43Z" transform="translate(-1323.605 -922.551)" fill="#ffc3b5"/>
        <path id="Trazado_97442" data-name="Trazado 97442" d="M1273.227,974.494a.892.892,0,0,0-1.463.367.663.663,0,0,0-.841.329s-.955-.166-1.012,1.239c0,0-.485-.032-.479.539a1.4,1.4,0,0,0,.337.912.68.68,0,0,0-.059.735.645.645,0,0,0,.529.451s.188.73.537.915a1.056,1.056,0,0,0,.774.024.5.5,0,0,0,.536.307c.372-.081.793-.5,1.233-.385a4.53,4.53,0,0,0,1.511-.192,1.535,1.535,0,0,0,.641-1.9.923.923,0,0,0-.075-1.289,1.606,1.606,0,0,0-.612-1.687A2.139,2.139,0,0,0,1273.227,974.494Z" transform="translate(-1262.226 -954.01)"/>
        <path id="Trazado_97443" data-name="Trazado 97443" d="M1248.678,1011.78l-1.888-.971s-1.678.245-1.886.27-.6,7.841-.633,10.768.324,3.4.324,3.4a18.594,18.594,0,0,0,4.681-.136,15.2,15.2,0,0,0,4.195-1.813s-2.42-5.326-2.976-7.012S1248.678,1011.78,1248.678,1011.78Z" transform="translate(-1235.051 -983.402)" fill="#fcfcfc"/>
        <path id="Trazado_97444" data-name="Trazado 97444" d="M1282.244,969.021l-6.2-4.958s-1.413-5.227-1.492-5.42-1.461-.131-2.021-.118a37.6,37.6,0,0,0,1.158,6.575c.449,1.088,5.242,5.711,5.242,5.711a17.172,17.172,0,0,1,1.151,4.746c.11,3.42-.133,8.172.029,8.3.966.457,4.417.1,4.592-.277C1286.639,979.413,1282.244,969.021,1282.244,969.021Z" transform="translate(-1272.316 -941.364)" fill="#d1d1d1"/>
        <path id="Trazado_97445" data-name="Trazado 97445" d="M1278.122,999.311l.283,1.087s.526,1.552.134,1.911-2.061-1.723-2.061-1.723l-.192-2.818Z" transform="translate(-1266.546 -972.92)" fill="#ffc3b5"/>
        <path id="Trazado_97446" data-name="Trazado 97446" d="M1277.992,998.68a3.2,3.2,0,0,0,2.012,1.552l-.239-.922-1.836-1.544Z" transform="translate(-1268.19 -972.92)" fill="#fc8899"/>
        <path id="Trazado_97447" data-name="Trazado 97447" d="M1274.2,981.559a1.488,1.488,0,0,1,2.076.943,11.252,11.252,0,0,1,.291,1.4c.18,1.288-.337,2.625-.922,2.7a2.786,2.786,0,0,1-2.588-2.394A2.461,2.461,0,0,1,1274.2,981.559Z" transform="translate(-1263.823 -959.775)" fill="#ffc3b5"/>
        <path id="Trazado_97448" data-name="Trazado 97448" d="M1289.623,994.218a.433.433,0,1,1-.484-.464A.479.479,0,0,1,1289.623,994.218Z" transform="translate(-1279.942 -969.692)" fill="#ffc3b5"/>
        <path id="Trazado_97449" data-name="Trazado 97449" d="M1270.573,976.187c.664.406.964,1.11.671,1.571a1.281,1.281,0,0,1-1.732.1c-.664-.407-.964-1.11-.671-1.571A1.281,1.281,0,0,1,1270.573,976.187Z" transform="translate(-1257.735 -955.352)"/>
        <path id="Trazado_97450" data-name="Trazado 97450" d="M1281.659,979.014c.025.208-.206.408-.517.445s-.583-.1-.608-.309.206-.408.516-.445S1281.633,978.805,1281.659,979.014Z" transform="translate(-1270.356 -957.594)"/>
        <path id="Trazado_97451" data-name="Trazado 97451" d="M1271.975,985.684a.483.483,0,1,1-.538-.427A.486.486,0,0,1,1271.975,985.684Z" transform="translate(-1258.806 -962.862)"/>
        <path id="Trazado_97452" data-name="Trazado 97452" d="M1242.709,1013.235s2.622,6.2,3.554,8.381c.1.237.608,1.781.626,1.935.042.342-1.4.956-1.575.952-.161,0-2.271-6.548-3.5-9.727a9.452,9.452,0,0,0-1.8-2.927l-.6-.492-.057-.184S1242.028,1011.411,1242.709,1013.235Z" transform="translate(-1227.507 -983.696)" fill="#d1d1d1"/>
        <rect id="Rectángulo_28282" data-name="Rectángulo 28282" width="0.485" height="43.536" transform="translate(17.171 0.119) rotate(-14.213)"/>
        <g id="Grupo_46868" data-name="Grupo 46868" transform="translate(23.674 25.438)">
          <path id="Trazado_97453" data-name="Trazado 97453" d="M1210.7,1002.107a1.451,1.451,0,0,0-.086-.284.8.8,0,0,0-.163-.26.5.5,0,0,1-.083-.172.292.292,0,0,0-.037-.068h0a.685.685,0,0,0-.161-.156.74.74,0,0,1-.174-.189.523.523,0,0,0-.195-.172c-.078-.038-.138-.039-.165.009-.129.221-.774.928-.512,1.27a8.213,8.213,0,0,1,.562.719c.08.185.364.173.533.108A.646.646,0,0,0,1210.7,1002.107Z" transform="translate(-1209.059 -1000.777)" fill="#ffc3b5"/>
        </g>
      </g>
      <path id="Trazado_97454" data-name="Trazado 97454" d="M1277.012,999.9l-1.252.137a.557.557,0,0,0,.636.436C1277.07,1000.414,1277.012,999.9,1277.012,999.9Z" transform="translate(-1264.773 -974.631)" fill="#fff"/>
    </g>
    <g id="Grupo_46871" data-name="Grupo 46871" transform="translate(542.981 880.368)">
      <path id="Trazado_97455" data-name="Trazado 97455" d="M948.017,1340.366a6.012,6.012,0,0,0,.742-.122,3.5,3.5,0,0,1,.842-.121,1.919,1.919,0,0,1,1.484.769c.386.664,1.389.412.569,3.26-.929,3.224-2.667,2.463-2.7,2.4s-1.158-2.45-1.158-2.45-.818,1.084-.808,1.04S945.019,1340.689,948.017,1340.366Z" transform="translate(-906.233 -1339.405)"/>
      <path id="Trazado_97456" data-name="Trazado 97456" d="M975.345,1375.35c.012-.212.976.01,1.1-.157s-1.055-.672-1.03-.854c.047-.336,1.327.473,1.358.319s-1.247-1.051-.994-1.232,1.229,1.07,1.336.921-1.012-1.082-.84-1.434c.092-.188,1.711,1.836,2,1.831s.158-1.124.407-1.179-.014,2.159.093,2.281a32.557,32.557,0,0,0,3.174,3.579c.262-.287,1.879-1.714,2.119-1.989.4.635,1.019.994,1.452,1.6a19.5,19.5,0,0,1-3.738,2.907c-1.064.035-3.347-4.273-3.836-5.051s-.952-.783-1.357-1.132S975.333,1375.562,975.345,1375.35Z" transform="translate(-945.47 -1365.75)" fill="#edaea2"/>
      <path id="Trazado_97457" data-name="Trazado 97457" d="M960.51,1387.694s3.592-2.764,4.267-4.008-.919-2.128-2.171-2.142-3.9,3.713-3.9,3.713Z" transform="translate(-921.625 -1372.698)" fill="#c1507f"/>
      <path id="Trazado_97458" data-name="Trazado 97458" d="M985.23,1609.707s.107,1.929.108,1.933c.039.245.194.85.194,1.072,0,.836-3.653-.71-2.834-1.081.074-.033.462-.287.486-.571.038-.439.133-1.326.133-1.326Z" transform="translate(-946.905 -1556.083)" fill="#ffc3b5"/>
      <path id="Trazado_97459" data-name="Trazado 97459" d="M985.052,1619.334a13,13,0,0,0,1.3.319c.44.064,1.019-.475,1.329-.329.342.16.308,1.737.308,1.737s-4.578.274-5.872-.15C981.6,1620.743,983.3,1619.93,985.052,1619.334Z" transform="translate(-949.25 -1563.793)" fill="#fcfcfc"/>
      <path id="Trazado_97460" data-name="Trazado 97460" d="M944.218,1610.649s.107,1.929.108,1.933c.04.245.195.85.195,1.073,0,.837-3.653-.71-2.834-1.081.074-.033.578-.477.6-.761.037-.439.018-1.136.018-1.136Z" transform="translate(-897.844 -1556.841)" fill="#ffc3b5"/>
      <path id="Trazado_97461" data-name="Trazado 97461" d="M943.922,1620.277a13.01,13.01,0,0,0,1.3.32c.439.064,1.018-.475,1.329-.329.342.16.356,1.6.356,1.6s-4.895.361-6.046.022C940.341,1621.738,942.168,1620.872,943.922,1620.277Z" transform="translate(-900.071 -1564.551)" fill="#fcfcfc"/>
      <path id="Trazado_97462" data-name="Trazado 97462" d="M953.118,1468.77l-1.545.678-3.249,15.8.132,11.847,2.6.062s1.212-10.364,1.212-11.167,5.611-14.055,5.611-14.055Z" transform="translate(-912.534 -1442.806)" fill="#03192b"/>
      <path id="Trazado_97463" data-name="Trazado 97463" d="M936.756,1468.235s1.138,12.176,1.138,14.229.923,13.54.923,13.54l2.61-.015s.188-3.5.468-8.653c.044-.807-.056-2.435,0-3.27.406-6.007.871-16.122.645-16.36C940.83,1465.9,936.756,1468.235,936.756,1468.235Z" transform="translate(-894.98 -1441.401)" fill="#00223d"/>
      <path id="Trazado_97464" data-name="Trazado 97464" d="M941.975,1380.047a10.833,10.833,0,0,1,2.548.53c.567.352.861,1.821.861,1.821s-.323,7.638-.174,9.424c.116,1.382.174,7.033.174,7.033s-6.623,1-9.232.2c0,0,.45-4.1.359-5.161s.035-10.773.194-11.464a2.547,2.547,0,0,1,1.6-2.13A14.556,14.556,0,0,1,941.975,1380.047Z" transform="translate(-897.647 -1371.481)" fill="#fcfcfc"/>
      <path id="Trazado_97465" data-name="Trazado 97465" d="M955.2,1369.31l.664,2.519s-1.21,1.516-2.2,1.335c-.832-.151-.713-1.22-.713-1.22a6.528,6.528,0,0,0,.123-2.2C952.874,1369.033,955.2,1369.31,955.2,1369.31Z" transform="translate(-911.418 -1362.822)" fill="#ffc3b5"/>
      <path id="Trazado_97466" data-name="Trazado 97466" d="M956.053,1369.745c-.2-.713,2.128-.436,2.128-.436l.055.209a1.175,1.175,0,0,1-.217.378,3.23,3.23,0,0,1-1.928.959A3.484,3.484,0,0,0,956.053,1369.745Z" transform="translate(-914.401 -1362.822)" fill="#fc8899"/>
      <path id="Trazado_97467" data-name="Trazado 97467" d="M1161.1,1598.547s-.668.652-.683.891-.059,2.8.214,3.042,1.074.409.816.678a7.99,7.99,0,0,1-2.685.1c-.29-.016-.654-2.328-.768-2.667-.167-.494-.572-1.605-.42-1.949a2.893,2.893,0,0,1,.924-.834,4.535,4.535,0,0,0,1.025-1.091Z" transform="translate(-1157.211 -1545.647)" fill="#ffc3b5"/>
      <path id="Trazado_97468" data-name="Trazado 97468" d="M1112.308,1613.606s-.6,1.689-.6,1.693c-.044.268-.22.929-.22,1.172,0,.914,4.121-.775,3.2-1.181a.973.973,0,0,1-.374-.64,2.143,2.143,0,0,1,.347-1.081Z" transform="translate(-1101.495 -1559.188)" fill="#ffc3b5"/>
      <path id="Trazado_97469" data-name="Trazado 97469" d="M1092.533,1453.5s.3,3.028.3,3.073c0,4.9.971,14.465.786,15.387-.45,2.245-5.3,13.7-5.3,13.7l-2.62-.313,3.415-13.718-1.257-5.522-1.778-10.914Z" transform="translate(-1075.255 -1430.529)" fill="#03192b"/>
      <path id="Trazado_97470" data-name="Trazado 97470" d="M1102.182,1457.944l-.5,2.87-1.345,11.811-5.123,11.543s.72,1.68,1.784,1.916l8.153-11.852,5.065-15.165-.178-3.369Z" transform="translate(-1093.698 -1432.299)" fill="#00223d"/>
      <path id="Trazado_97471" data-name="Trazado 97471" d="M1157.5,1602.2s1.539,4.336,2.142,4.545c.16.056.928.2,1.073.536a1.482,1.482,0,0,1,0,.444h-3.21s-.406-1.911-.566-2.75a12.44,12.44,0,0,1-.755-2.237C1156.278,1602.549,1157.5,1602.2,1157.5,1602.2Z" transform="translate(-1156.177 -1550.047)"/>
      <path id="Trazado_97472" data-name="Trazado 97472" d="M1095.218,1623.785l.472-1.491a4.094,4.094,0,0,0,1.487.349,14.93,14.93,0,0,0,1.464-.349c1.978.651,3.6.967,3.3,1.491h-6.725Z" transform="translate(-1085.457 -1566.2)"/>
      <path id="Trazado_97473" data-name="Trazado 97473" d="M1018.466,1412.8l-.27.163a2.057,2.057,0,0,1-.33.235c-.068.016-1.915-.025-1.915-.025s-.006.615.005.615.972.783.972.783l.2.093,1.258-.376,1.149-.144s.815-.094.815-.114a5.367,5.367,0,0,0-.055-.7l-.493-.505s-.354-.079-.366-.079-.354-.068-.366-.071-.548.08-.548.08Z" transform="translate(-988.277 -1397.724)" fill="#edaea2"/>
      <path id="Trazado_97474" data-name="Trazado 97474" d="M1015.194,1414.016a3.106,3.106,0,0,0-.572.127c-.2.08-1.773,1.272-1.773,1.272s-.211.115-.322.024a.254.254,0,0,1-.1-.2s-.187.1-.314.032a.214.214,0,0,1-.107-.25.359.359,0,0,1-.291-.04c-.107-.091-.052-.326-.052-.326s-.338.206-.469.067-.075-.286.056-.4.911-.628,1-.688.35-.334.43-.37.274-.143.274-.143.326.035.346.048.111.239.274.3a.416.416,0,0,0,.362-.048.312.312,0,0,0,0-.123,2.79,2.79,0,0,1-.155-.362c-.028-.139-.064-.179-.115-.211s-.334-.115-.473-.171a2.341,2.341,0,0,0-.723.107l-.279.12s.052-.206.227-.238.394-.08.516-.092.41.076.541.083a2.119,2.119,0,0,1,.525.084,6.251,6.251,0,0,0,1.094-.008S1015.48,1413.658,1015.194,1414.016Z" transform="translate(-982.273 -1397.541)" fill="#ffc3b5"/>
      <path id="Trazado_97475" data-name="Trazado 97475" d="M945.821,1399.856c.375-.008,4.7-.045,6.326-.058a1.8,1.8,0,0,0,1.093-.383l3.615-2.845,2.194,2.3-4.416,3.052a7.276,7.276,0,0,1-2.354.367c-1.707-.172-6.047-1.042-6.481-.983Z" transform="translate(-913.205 -1384.776)" fill="#ffc3b5"/>
      <path id="Trazado_97476" data-name="Trazado 97476" d="M1042.707,1401.759c-.375-.008-4.932-.074-6.558-.088a1.791,1.791,0,0,1-1.093-.384l-3.615-2.845-1.583,1.825,4.488,3.242a1.511,1.511,0,0,0,1.037.279c1.707-.173,6.383-.63,6.817-.571Z" transform="translate(-1013.358 -1386.28)" fill="#edaea2"/>
      <path id="Trazado_97477" data-name="Trazado 97477" d="M936.026,1386.349s3.026-3.183,4.121-3.987a1.572,1.572,0,0,1,2.553,1.264c.1,2.024-3.911,5.646-3.911,5.646Z" transform="translate(-894.939 -1373.08)" fill="#c1507f"/>
      <path id="Trazado_97478" data-name="Trazado 97478" d="M1085.363,1386.352s-3.026-3.183-4.121-3.987-3.3-.12-3.122,1.26c.178,1.408,5.122,4.971,5.122,4.971Z" transform="translate(-1065.484 -1373.082)" fill="#167377"/>
      <path id="Trazado_97479" data-name="Trazado 97479" d="M1097.3,1384.132c.07.487,1.366,13.741,1.366,13.741-6.137,2.964-9.523.528-9.523.528s.2-9.307-.04-10.574c-.159-.838-.011-6.487.532-6.643a9.919,9.919,0,0,1,2.02-.424,22.691,22.691,0,0,1,4.148.052A6.582,6.582,0,0,1,1097.3,1384.132Z" transform="translate(-1080.936 -1372.014)" fill="#167377"/>
      <path id="Trazado_97480" data-name="Trazado 97480" d="M1107.493,1366.479l-.452,2.76s1.653,3.512,2.641,3.217c.828-.248.319-3.265.319-3.265a7.946,7.946,0,0,1-.316-2.431C1109.819,1365.95,1107.493,1366.479,1107.493,1366.479Z" transform="translate(-1095.954 -1360.453)" fill="#ffc3b5"/>
      <path id="Trazado_97481" data-name="Trazado 97481" d="M1111.376,1366.76c.135-.81-2.191-.281-2.191-.281l-.038.237a1.311,1.311,0,0,0,.252.4,3.125,3.125,0,0,0,2.035.883A4.227,4.227,0,0,1,1111.376,1366.76Z" transform="translate(-1097.646 -1360.453)" fill="#fc8899"/>
      <path id="Trazado_97482" data-name="Trazado 97482" d="M1102.488,1342.87c-.066-.023-.527,3.261.348,4.165s2.582,1.2,3.194.488c.677-.787.643-4.317-.718-5.246S1102.488,1342.87,1102.488,1342.87Z" transform="translate(-1091.332 -1340.896)" fill="#ffc3b5"/>
      <path id="Trazado_97483" data-name="Trazado 97483" d="M1107.9,1337.181a2.466,2.466,0,0,0-1.8,1.372,2.6,2.6,0,0,0,.744,3.472,2.027,2.027,0,0,1,.943,1.527l.156-.418a2.29,2.29,0,0,0,.12-1,1.9,1.9,0,0,0-.156-.6c-.231-.475.5-.791.7-1.187.157-.3.164-1,.411-1.5l.3-.385a1.931,1.931,0,0,1,1.347-.365C1111.325,1338.232,1110.507,1335.114,1107.9,1337.181Z" transform="translate(-1096.419 -1336.471)"/>
      <path id="Trazado_97484" data-name="Trazado 97484" d="M1118.406,1356.233c.007.4-.183.729-.424.733s-.442-.317-.449-.718.183-.729.424-.733S1118.4,1355.832,1118.406,1356.233Z" transform="translate(-1106.264 -1351.777)" fill="#ffc3b5"/>
      <path id="Trazado_97485" data-name="Trazado 97485" d="M1105.86,1363.024l-1.447.147a.635.635,0,0,0,.727.5C1105.919,1363.614,1105.86,1363.024,1105.86,1363.024Z" transform="translate(-1091.145 -1357.813)" fill="#fff"/>
      <path id="Trazado_97486" data-name="Trazado 97486" d="M1135.238,1411.76a.4.4,0,0,1,0-.09c.1-.971.9-9.116,1.037-9.463.122-.313,3.735-5.479,3.735-5.479l1.775,2.419-3.474,4.634c-.078.294-1.331,5.793-1.331,5.793s-.257,1-.372,1.6c.053.144.1.281.15.393a3.573,3.573,0,0,0,.374.6,4.13,4.13,0,0,1,.444.785c.036.142.1.436.141.613s.089.384.1.481a.93.93,0,0,0,.112.258.155.155,0,0,1-.183.224c-.126-.042-.225-.205-.285-.307-.171-.287-.262-.812-.3-.784s-.192.918-.216,1.019a10.918,10.918,0,0,1-.3,1.323c-.1.189-.235.158-.271.039-.031-.1.112-1.548.112-1.548s.018-.185-.063-.127-.213,1.37-.269,1.563-.184.294-.293.14a5.822,5.822,0,0,1,.1-1.58s.025-.175-.049-.159-.169,1.135-.227,1.232a.147.147,0,0,1-.275-.03,6.909,6.909,0,0,1,.132-1.431s-.01-.1-.057-.066-.195.981-.292,1.069a.1.1,0,0,1-.148,0c-.177-.121.094-1.023.092-1.471a11.1,11.1,0,0,0,.143-1.486C1135.256,1411.894,1135.246,1411.812,1135.238,1411.76Z" transform="translate(-1133.063 -1384.903)" fill="#ffc3b5"/>
      <path id="Trazado_97487" data-name="Trazado 97487" d="M1126.935,1389.092l3.086,2.072a33.476,33.476,0,0,1,2.673-3.509c1.169-1.154-.426-4.69-1.18-4.49C1129.829,1383.612,1126.935,1389.092,1126.935,1389.092Z" transform="translate(-1122.812 -1373.994)" fill="#167377"/>
      <path id="Trazado_97488" data-name="Trazado 97488" d="M954.978,1347.049a1.6,1.6,0,0,0-2.142,1.179,12.149,12.149,0,0,0-.2,1.527c-.09,1.394.567,2.785,1.2,2.814a3,3,0,0,0,2.575-2.775A2.642,2.642,0,0,0,954.978,1347.049Z" transform="translate(-911.915 -1344.884)" fill="#ffc3b5"/>
      <path id="Trazado_97489" data-name="Trazado 97489" d="M950.456,1359.98a.464.464,0,1,0,.48-.537A.514.514,0,0,0,950.456,1359.98Z" transform="translate(-906.434 -1354.935)" fill="#ffc3b5"/>
      <path id="Trazado_97490" data-name="Trazado 97490" d="M954.386,1347.565s-.776.02-.944-.513a2.275,2.275,0,0,0-2.253-1.621c-1.334.149,1.319-.788,1.418-.766l1.292.277s.751.958.766,1.048.079,1.054.079,1.054Z" transform="translate(-909.885 -1343.057)"/>
      <path id="Trazado_97491" data-name="Trazado 97491" d="M963.119,1367.82l-1.395-.04a.61.61,0,0,0,.629.568C963.1,1368.391,963.119,1367.82,963.119,1367.82Z" transform="translate(-920.399 -1361.636)" fill="#fff"/>
    </g>
  </g>
</svg>
