<svg xmlns="http://www.w3.org/2000/svg" xmlns:xlink="http://www.w3.org/1999/xlink" width="812" height="602" viewBox="0 0 812 602">
  <defs>
    <linearGradient id="linear-gradient" x1="0.5" x2="0.5" y2="1" gradientUnits="objectBoundingBox">
      <stop offset="0" stop-color="#fff"/>
      <stop offset="1" stop-color="#f1f1f1"/>
    </linearGradient>
    <linearGradient id="linear-gradient-2" x1="0.5" x2="0.5" y2="1" gradientUnits="objectBoundingBox">
      <stop offset="0" stop-color="#fff"/>
      <stop offset="1" stop-color="#d3d3d3"/>
    </linearGradient>
    <linearGradient id="linear-gradient-6" x1="0.5" x2="0.5" y2="1" gradientUnits="objectBoundingBox">
      <stop offset="0" stop-color="#fff"/>
      <stop offset="1" stop-color="#f1f7fa"/>
    </linearGradient>
  </defs>
  <g id="Grupo_64231" data-name="Grupo 64231" transform="translate(-602 -1434)">
    <rect id="Rectángulo_29536" data-name="Rectángulo 29536" width="812" height="602" transform="translate(602 1434)" fill="url(#linear-gradient)"/>
    <g id="Rectángulo_4927" data-name="Rectángulo 4927" transform="translate(622 1474)" fill="none" stroke="#fff" stroke-width="3">
      <rect width="763.711" height="545.508" stroke="none"/>
      <rect x="1.5" y="1.5" width="760.711" height="542.508" fill="none"/>
    </g>
    <g id="Grupo_46872" data-name="Grupo 46872" transform="translate(293.612 758.776)">
      <g id="Grupo_46851" data-name="Grupo 46851" transform="translate(787.026 829.757)">
        <path id="Trazado_97330" data-name="Trazado 97330" d="M715.836,1343.446c0,5.732-7.5,10.379-16.758,10.379s-16.759-4.647-16.759-10.379,7.5-10.379,16.759-10.379S715.836,1337.714,715.836,1343.446Z" transform="translate(-623.519 -1122.914)" fill="#344966"/>
        <path id="Trazado_97331" data-name="Trazado 97331" d="M635.45,895.5a75.559,75.559,0,0,0-49.49,132.655c.056.06,11.8,12.757,13.741,26.054l.352,8.139a11.42,11.42,0,0,0,2.959,7.189c.159.175.324.343.493.507h63.89c.169-.164.335-.332.494-.507a11.422,11.422,0,0,0,2.959-7.189l.352-8.139c1.937-13.3,13.685-25.994,13.741-26.054A75.56,75.56,0,0,0,635.45,895.5Z" transform="translate(-559.891 -895.504)" fill="url(#linear-gradient-2)"/>
        <path id="Rectángulo_28272" data-name="Rectángulo 28272" d="M0,0H64.211a0,0,0,0,1,0,0V7.624A39.524,39.524,0,0,1,24.687,47.148H16.419A16.419,16.419,0,0,1,0,30.728V0A0,0,0,0,1,0,0Z" transform="translate(43.454 174.544)" fill="url(#linear-gradient-2)"/>
        <g id="Grupo_46849" data-name="Grupo 46849" transform="translate(42.974 31.905)">
          <path id="Trazado_97333" data-name="Trazado 97333" d="M685.147,1042.233l-15.013-65.484-13.176,38.088-3.864-1.336,17.839-51.567,15.318,66.818,15.69-38.3,14.532,24.535-3.518,2.084L702.611,999.6Z" transform="translate(-653.094 -961.933)" fill="#f5ca56"/>
        </g>
        <g id="Grupo_46850" data-name="Grupo 46850" transform="translate(41.434 76.109)">
          <path id="Trazado_97334" data-name="Trazado 97334" d="M765.94,1162.253l-.36.037a3.455,3.455,0,0,1-3.791-3.081l-10.5-101.39a3.454,3.454,0,0,1,3.079-3.791l.361-.038a3.454,3.454,0,0,1,3.79,3.08l10.5,101.391A3.454,3.454,0,0,1,765.94,1162.253Z" transform="translate(-751.27 -1053.973)" fill="#f5ca56"/>
          <path id="Trazado_97335" data-name="Trazado 97335" d="M649.374,1162.291h0a3.635,3.635,0,0,0,3.989-3.242l10.463-101.03a3.636,3.636,0,0,0-3.241-3.99h0a3.635,3.635,0,0,0-3.99,3.242L646.134,1158.3A3.635,3.635,0,0,0,649.374,1162.291Z" transform="translate(-595.574 -1053.992)" fill="#f5ca56"/>
        </g>
        <path id="Trazado_97336" data-name="Trazado 97336" d="M710.756,1266.034H648.2a3.554,3.554,0,0,1-3.553-3.554h0a3.554,3.554,0,0,1,3.553-3.554h62.556a3.554,3.554,0,0,1,3.554,3.554h0A3.555,3.555,0,0,1,710.756,1266.034Z" transform="translate(-603.899 -1084.381)" fill="#344966"/>
        <path id="Trazado_97337" data-name="Trazado 97337" d="M710.756,1295.7H648.2a3.554,3.554,0,0,1-3.553-3.554h0a3.554,3.554,0,0,1,3.553-3.554h62.556a3.555,3.555,0,0,1,3.554,3.554h0A3.554,3.554,0,0,1,710.756,1295.7Z" transform="translate(-603.899 -1099.803)" fill="#344966"/>
        <path id="Trazado_97338" data-name="Trazado 97338" d="M710.756,1328.908H648.2a3.555,3.555,0,0,1-3.553-3.554h0a3.554,3.554,0,0,1,3.553-3.554h62.556a3.554,3.554,0,0,1,3.554,3.554h0A3.555,3.555,0,0,1,710.756,1328.908Z" transform="translate(-603.899 -1117.059)" fill="#344966"/>
      </g>
      <g id="Grupo_46852" data-name="Grupo 46852" transform="translate(475.526 899.264)">
        <path id="Trazado_97339" data-name="Trazado 97339" d="M1329.791,1195.584a48.394,48.394,0,1,1,10.357-67.651A48.449,48.449,0,0,1,1329.791,1195.584Zm-5.784-10.554h0a36.5,36.5,0,0,0,5.588-51.312h0a36.5,36.5,0,0,0-51.313-5.589h0a36.5,36.5,0,0,0-5.588,51.313h0A36.5,36.5,0,0,0,1324.007,1185.03Z" transform="translate(-1219.677 -1075.555)" fill="url(#linear-gradient-2)"/>
        <path id="Trazado_97340" data-name="Trazado 97340" d="M1305.927,1191.365c-1.157.223-1.924-.595-3.841-2.6-3.431-3.594-6.863-7.189-10.416-10.658a3.211,3.211,0,0,0-2.649-.569c-4.678,1.327-9.277,2.937-13.968,4.215-1.454.4-2.135.829-2.414,2.392-1.114,6.248-2.4,12.465-3.613,18.626-5.717.9-19.944-.487-24.555-2.438.083-6.046.073-12.225.306-18.395.072-1.921-.4-2.694-2.246-3.524a127.388,127.388,0,0,1-12.427-6.639c-1.637-.969-2.777-1.376-4.52-.142-4.517,3.2-9.228,6.122-13.8,9.245-1.228.84-2.176.925-3.127-.24q-6.708-8.216-13.408-16.437c-1.1-1.347.07-2.1.822-2.849,3.8-3.8,7.582-7.627,11.506-11.3,1.472-1.378,1.683-2.512.975-4.432-1.874-5.082-3.417-10.286-5.219-15.836l-19.885-3.987a72.507,72.507,0,0,1,2.679-24.391l19.876.194c3.2-5.62,6.053-10.892,9.2-15.979a2.732,2.732,0,0,0-.066-3.6c-3.085-4.5-6.03-9.1-9.083-13.62-.661-.978-1.02-1.747-.073-2.766a69.277,69.277,0,0,1,16.087-13.384,2.179,2.179,0,0,1,3.131.5c3.937,4.009,7.951,7.943,11.87,11.967a2.531,2.531,0,0,0,3.111.793c5.09-1.633,10.259-3.048,15.451-4.328a2.151,2.151,0,0,0,1.877-2.039c1.247-6.225,2.541-12.441,3.851-18.821a77.8,77.8,0,0,1,24.147,2.4c-.069,7.036-.138,14.025-.2,20.714l17.885,9.626c4.06-2.674,8.715-5.788,13.42-8.823,3.863-2.491,3.07-2.868,6.536.621a7.6,7.6,0,0,0,1.177.816q3.98,4.952,7.961,9.907a15.108,15.108,0,0,0,1.389,2.5c1.554,1.876,1.556,3.286-.4,5.078-4.08,3.732-7.93,7.722-11.778,11.7a2.938,2.938,0,0,0-.6,2.383c1.225,4.626,2.854,9.158,3.832,13.83.479,2.286,1.422,2.946,3.509,3.325,5.917,1.075,11.791,2.393,18.273,3.737-.812,8.179-1.6,16.157-2.4,24.225-1.538.015-2.423.037-3.307.028-5.455-.054-11.525.589-16.978.437-1.548-.043-2.168.549-2.874,1.883-2.425,4.583-4.53,8.361-6.986,12.928a3.245,3.245,0,0,0,.124,2.742c2.365,3.8,4.938,7.467,7.378,11.22,1.975,3.036,2.7,4.171,2.044,5.65Zm-11.5-29.729a50.109,50.109,0,1,0-37.245,9.146A49.782,49.782,0,0,0,1294.429,1161.636Z" transform="translate(-1183.3 -1040.224)" fill="url(#linear-gradient-2)"/>
      </g>
      <path id="Trazado_97341" data-name="Trazado 97341" d="M1361.919,1455.053l-5,9.019c-.451.3-.917.081-2.076-.437-2.073-.927-4.147-1.855-6.251-2.708a1.462,1.462,0,0,0-1.219.218c-1.751,1.37-3.419,2.847-5.183,4.2a1.2,1.2,0,0,0-.607,1.43c.609,2.838,1.14,5.691,1.693,8.507-2.264,1.369-8.524,3.244-10.813,3.217-1.01-2.572-2.083-5.186-3.052-7.838a1.4,1.4,0,0,0-1.56-1.1,58.223,58.223,0,0,1-6.407-.659c-.861-.127-1.413-.1-1.938.722-1.359,2.136-2.846,4.188-4.241,6.3-.375.568-.761.768-1.365.439q-4.261-2.316-8.517-4.636c-.7-.379-.334-.9-.147-1.348.951-2.265,1.889-4.539,2.915-6.771a1.589,1.589,0,0,0-.353-2.045c-1.672-1.826-3.226-3.761-4.949-5.8l-9.105,1.754a33.155,33.155,0,0,1-3.086-10.786l8.445-3.357c.383-2.932.677-5.656,1.128-8.354a1.249,1.249,0,0,0-.65-1.511c-2.085-1.371-4.126-2.807-6.2-4.193-.448-.3-.734-.563-.509-1.158a31.68,31.68,0,0,1,4.493-8.448,1,1,0,0,1,1.41-.332c2.359,1.016,4.739,1.985,7.094,3.01a1.154,1.154,0,0,0,1.452-.2c1.872-1.571,3.814-3.064,5.791-4.5a.984.984,0,0,0,.441-1.187c-.549-2.851-1.077-5.705-1.625-8.631a35.492,35.492,0,0,1,10.632-3.162l3.5,8.8,9.235.981c1.256-1.834,2.687-3.958,4.153-6.056,1.2-1.723.8-1.745,2.873-.868a3.463,3.463,0,0,0,.639.141q2.542,1.409,5.083,2.815a7.078,7.078,0,0,0,1.019.817,1.426,1.426,0,0,1,.708,2.218c-1.081,2.286-2.02,4.64-2.961,6.989a1.338,1.338,0,0,0,.161,1.111c1.318,1.746,2.791,3.382,4.013,5.19a1.644,1.644,0,0,0,2.061.8c2.691-.568,5.4-1.026,8.378-1.579,1.072,3.6,2.118,7.114,3.175,10.667-.649.272-1.019.435-1.394.583-2.319.921-4.629,1.863-6.961,2.742-.663.25-.823.607-.891,1.294-.234,2.359-.618,4.7-.868,7.059a1.484,1.484,0,0,0,.527,1.14c1.657,1.2,3.381,2.305,5.063,3.472C1361.437,1453.959,1361.939,1454.314,1361.919,1455.053Zm-19.947-5.448a16.686,16.686,0,0,0-6.512-22.681h0a16.687,16.687,0,0,0-22.682,6.513h0a16.686,16.686,0,0,0,6.512,22.682h0a16.686,16.686,0,0,0,22.682-6.513Z" transform="translate(-777.431 -330.387)" fill="#fcfcfc"/>
      <rect id="Rectángulo_28273" data-name="Rectángulo 28273" width="295.171" height="189.163" rx="1" transform="translate(560.847 985.03)" fill="url(#linear-gradient-6)"/>
      <rect id="Rectángulo_28274" data-name="Rectángulo 28274" width="280.679" height="156.377" transform="translate(568.093 995.718)" fill="url(#linear-gradient-2)"/>
      <path id="Trazado_97342" data-name="Trazado 97342" d="M704.914,1597.805H1019a5.492,5.492,0,0,0,5.492-5.492v-8.238H691.185A13.729,13.729,0,0,0,704.914,1597.805Z" transform="translate(-149.406 -423.611)" fill="url(#linear-gradient-6)"/>
      <path id="Trazado_97343" data-name="Trazado 97343" d="M691.757,1587.89a13.06,13.06,0,0,1-.572-3.815h333.307a13.032,13.032,0,0,1-.572,3.815Z" transform="translate(-149.406 -423.611)" fill="#00223d" opacity="0.6"/>
      <path id="Trazado_97344" data-name="Trazado 97344" d="M1204.047,1397.431H1165.23L1087.3,1255.8v-14.75H1118Z" transform="translate(-519.208 -245.336)" fill="#fff" opacity="0.5" style="mix-blend-mode: soft-light;isolation: isolate"/>
      <path id="Trazado_97345" data-name="Trazado 97345" d="M965.2,1397.431H912.269l-86.046-156.377h52.934Z" transform="translate(-154.974 -245.336)" fill="#fff" opacity="0.5" style="mix-blend-mode: soft-light;isolation: isolate"/>
      <path id="Trazado_97346" data-name="Trazado 97346" d="M745.974,1241.054h24.361l81.1,147.4v8.981H832.02Z" transform="translate(-2.667 -245.336)" fill="#fff" opacity="0.5" style="mix-blend-mode: soft-light;isolation: isolate"/>
      <path id="Trazado_97347" data-name="Trazado 97347" d="M1465.24,1371.231l-2.322,5.324c-.236.189-.509.095-1.187-.135-1.212-.41-2.426-.819-3.652-1.186a.824.824,0,0,0-.671.187c-.909.862-1.765,1.779-2.682,2.631a.678.678,0,0,0-.265.834c.493,1.559.944,3.132,1.4,4.682a17.932,17.932,0,0,1-5.893,2.38c-.7-1.389-1.446-2.8-2.131-4.232a.787.787,0,0,0-.933-.536,32.759,32.759,0,0,1-3.629-.028c-.489-.025-.8.018-1.048.509-.648,1.269-1.373,2.5-2.043,3.759-.181.339-.386.471-.742.319q-2.512-1.071-5.025-2.145c-.411-.177-.234-.487-.153-.748.412-1.322.817-2.648,1.273-3.954a.9.9,0,0,0-.307-1.127c-1.036-.935-2.01-1.938-3.085-2.989l-5.014,1.468a18.7,18.7,0,0,1-2.306-5.884l4.558-2.333c.058-1.665.078-3.209.187-4.746a.706.706,0,0,0-.446-.814c-1.242-.657-2.464-1.354-3.7-2.02-.268-.145-.442-.276-.347-.623a17.867,17.867,0,0,1,2.069-4.976.562.562,0,0,1,.774-.261c1.378.443,2.764.861,4.139,1.31a.651.651,0,0,0,.8-.191c.967-.981,1.976-1.923,3.008-2.835a.556.556,0,0,0,.184-.691c-.461-1.569-.908-3.142-1.372-4.754a20.03,20.03,0,0,1,5.8-2.34c.825,1.614,1.646,3.216,2.431,4.75l5.231.057c.605-1.1,1.3-2.363,2.006-3.618.584-1.03.357-1.021,1.565-.64a2.023,2.023,0,0,0,.367.045l3,1.308a3.878,3.878,0,0,0,.616.4c.579.242.748.563.516,1.207-.485,1.34-.885,2.71-1.287,4.078a.754.754,0,0,0,.148.615c.833.91,1.746,1.748,2.528,2.7a.925.925,0,0,0,1.2.338c1.478-.462,2.976-.864,4.616-1.332l2.349,5.814c-.349.187-.548.3-.752.4-1.25.64-2.5,1.291-3.758,1.908a.709.709,0,0,0-.43.775c-.005,1.334-.1,2.669-.11,4a.832.832,0,0,0,.355.61c.994.585,2.02,1.114,3.025,1.677C1464.911,1370.643,1465.212,1370.814,1465.24,1371.231Zm-11.478-1.993a9.4,9.4,0,0,0-4.862-12.373h0a9.4,9.4,0,0,0-12.375,4.862h0a9.4,9.4,0,0,0,4.863,12.374h0a9.4,9.4,0,0,0,12.375-4.862Z" transform="translate(-943.035 -299.405)" fill="#fec55e"/>
      <path id="Trazado_97348" data-name="Trazado 97348" d="M965.982,1127.633s6.029,171.911,29.207,208.4H955.462V1122.915Z" transform="translate(-247.03 -183.937)" fill="#00223d"/>
      <path id="Trazado_97349" data-name="Trazado 97349" d="M775.822,1466.055a31.092,31.092,0,0,1,13.132,2.877v45.437H754.791a27.452,27.452,0,0,1-8.817-20.054C745.974,1478.707,759.337,1466.055,775.822,1466.055Z" transform="translate(59.818 -362.274)" fill="#00223d"/>
      <path id="Trazado_97350" data-name="Trazado 97350" d="M825.608,1487.657c14.429,0,26.126,11.075,26.126,24.737a23.675,23.675,0,0,1-4.029,13.2H803.511a23.67,23.67,0,0,1-4.03-13.2C799.482,1498.733,811.179,1487.657,825.608,1487.657Z" transform="translate(-28.66 -373.501)" fill="#00223d"/>
      <path id="Trazado_97351" data-name="Trazado 97351" d="M901.8,1426.878c22.019,0,39.869,16.9,39.869,37.75a36.964,36.964,0,0,1-14.837,29.381H876.772a36.964,36.964,0,0,1-14.837-29.381C861.935,1443.779,879.785,1426.878,901.8,1426.878Z" transform="translate(-148.596 -341.912)" fill="#00223d"/>
      <path id="Trazado_97352" data-name="Trazado 97352" d="M1067.919,1127.633s-6.564,171.911-29.742,208.4h40.261V1122.915Z" transform="translate(-370.007 -183.937)" fill="#00223d"/>
      <path id="Trazado_97353" data-name="Trazado 97353" d="M1254.024,1466.055a31.1,31.1,0,0,0-13.133,2.877v45.437h34.164a27.45,27.45,0,0,0,8.816-20.054C1283.872,1478.707,1270.509,1466.055,1254.024,1466.055Z" transform="translate(-672.799 -362.274)" fill="#00223d"/>
      <path id="Trazado_97354" data-name="Trazado 97354" d="M1194.2,1487.657c-14.429,0-26.126,11.075-26.126,24.737a23.675,23.675,0,0,0,4.029,13.2H1216.3a23.671,23.671,0,0,0,4.029-13.2C1220.33,1498.733,1208.633,1487.657,1194.2,1487.657Z" transform="translate(-574.286 -373.501)" fill="#00223d"/>
      <path id="Trazado_97355" data-name="Trazado 97355" d="M1088.263,1426.878c-22.019,0-39.869,16.9-39.869,37.75a36.964,36.964,0,0,0,14.837,29.381H1113.3a36.964,36.964,0,0,0,14.837-29.381C1128.132,1443.779,1110.282,1426.878,1088.263,1426.878Z" transform="translate(-424.607 -341.912)" fill="#00223d"/>
      <g id="Grupo_46853" data-name="Grupo 46853" transform="translate(644.969 769)">
        <path id="Trazado_97356" data-name="Trazado 97356" d="M990.766,1159.45l19.4-7.922,19.4,7.922s23.66,31.479-19.4,72.636C967.105,1190.929,990.766,1159.45,990.766,1159.45Z" transform="translate(-946.703 -967.808)" fill="#f4b34a"/>
        <path id="Trazado_97357" data-name="Trazado 97357" d="M1006.269,1169.729l13.056-5.33,13.057,5.33s15.924,21.187-13.057,48.886C990.344,1190.916,1006.269,1169.729,1006.269,1169.729Z" transform="translate(-955.862 -974.496)" fill="#fec55e"/>
        <path id="Trazado_97358" data-name="Trazado 97358" d="M1024.511,1155.631l5.592-4.1,5.593,4.1s6.819,16.305-5.593,37.622C1017.692,1171.937,1024.511,1155.631,1024.511,1155.631Z" transform="translate(-966.64 -967.808)" fill="#00223d"/>
        <path id="Trazado_97359" data-name="Trazado 97359" d="M1129.146,1097.666s-25.642-3.626-35.257,24.264h0a55.5,55.5,0,0,1,.15-28.709c3.152-11.453,9.073-26.957,19.9-40.127C1133.953,1028.763,1129.146,1097.666,1129.146,1097.666Z" transform="translate(-1092.075 -913.945)" fill="url(#linear-gradient-2)"/>
        <path id="Trazado_97360" data-name="Trazado 97360" d="M906.546,1097.666s25.642-3.626,35.256,24.264h0a55.492,55.492,0,0,0-.15-28.709c-3.152-11.453-9.074-26.957-19.9-40.127C901.738,1028.763,906.546,1097.666,906.546,1097.666Z" transform="translate(-816.689 -913.945)" fill="url(#linear-gradient-2)"/>
        <path id="Trazado_97361" data-name="Trazado 97361" d="M951.739,877.921C953.81,818.47,976.611,790.479,993.184,769c16.573,21.479,39.342,49.47,41.414,108.921s-16.105,87.834-16.105,87.834H967.844S949.667,937.371,951.739,877.921Z" transform="translate(-929.705 -769)" fill="#7d6eb2"/>
        <path id="Trazado_97362" data-name="Trazado 97362" d="M1024.537,1127.56v-68.837S1039.277,1099.076,1024.537,1127.56Z" transform="translate(-961.074 -919.575)" fill="#8ec8c8"/>
        <path id="Trazado_97363" data-name="Trazado 97363" d="M1038.551,878.082c2.067-59.313,24.767-87.312,41.33-108.772V965.916h-25.224S1036.48,937.533,1038.551,878.082Z" transform="translate(-1016.517 -769.162)" fill="#584795"/>
        <path id="Trazado_97364" data-name="Trazado 97364" d="M967.472,830.381C976,801.506,990.286,783.722,1001.646,769c11.268,14.6,25.4,32.223,33.943,60.69C1023.521,834.281,998.221,840.716,967.472,830.381Z" transform="translate(-938.168 -769)" fill="#8ec8c8"/>
        <path id="Trazado_97365" data-name="Trazado 97365" d="M1072.445,769.311v66.772a104.24,104.24,0,0,1-34.059-5.541C1046.889,801.764,1061.105,784,1072.445,769.311Z" transform="translate(-1009.082 -769.162)" fill="#26aab7"/>
        <path id="Trazado_97366" data-name="Trazado 97366" d="M1044.729,1058.723v68.837C1029.989,1099.075,1044.729,1058.723,1044.729,1058.723Z" transform="translate(-981.266 -919.575)" fill="#26aab7"/>
        <path id="Trazado_97367" data-name="Trazado 97367" d="M1003.94,979.665a23.956,23.956,0,0,0,9.5,1.947,23.642,23.642,0,1,0-9.5-1.947Z" transform="translate(-950.43 -855.174)" fill="url(#linear-gradient-2)"/>
        <path id="Trazado_97368" data-name="Trazado 97368" d="M996.686,962.31a20.03,20.03,0,1,0,20.027-19.742A19.887,19.887,0,0,0,996.686,962.31Z" transform="translate(-953.35 -859.207)" fill="#584795"/>
      </g>
      <path id="Trazado_97369" data-name="Trazado 97369" d="M892.511,1522.133H745.974a29.409,29.409,0,0,1,23.012-11.063c.206,0,.411,0,.615.007,0-.2-.007-.41-.007-.615A29.472,29.472,0,0,1,826.617,1500a26.227,26.227,0,0,1,33.17,4.167,19.541,19.541,0,0,1,32.724-3.854Z" transform="translate(-43.739 -370.037)" fill="#fcfcfc" opacity="0.6"/>
      <path id="Trazado_97370" data-name="Trazado 97370" d="M1072.768,1517.842V1493.2a19.534,19.534,0,0,1,30.109,7.163,26.231,26.231,0,0,1,35.142-7.823,26.14,26.14,0,0,1,50.876,12.017,9.271,9.271,0,0,1,6.61,13.288Z" transform="translate(-504.675 -365.746)" fill="#fcfcfc" opacity="0.6"/>
      <g id="Grupo_46855" data-name="Grupo 46855" transform="translate(784.35 918.259)">
        <path id="Trazado_97371" data-name="Trazado 97371" d="M812.14,1126.226c.34.014,1.274.327,2.638,2.9,1.741,3.292,4.288,13.237,4.288,13.237l-7.6,2.83-.976-2.076-1.608-15.98S812.046,1126.222,812.14,1126.226Z" transform="translate(-784.857 -1103.917)" fill="#26aab7"/>
        <path id="Trazado_97372" data-name="Trazado 97372" d="M835.776,1123.241a46.413,46.413,0,0,1,10.046,1.434s1.833,15.757-1.65,27.732c-.78,2.679.644,11.11.644,11.11l-22.519-.3s2.668-20.381,1.663-23.673-1.029-14.765-1.029-14.765.154-.025,5.059-.872A50.929,50.929,0,0,1,835.776,1123.241Z" transform="translate(-818.539 -1102.365)" fill="#8ec8c8"/>
        <path id="Trazado_97373" data-name="Trazado 97373" d="M852.318,1268s.5,5.749,1.414,7.342-.047,4.3-.1,4.67-1.928.9-4.917.583-2.94-1.007-2.7-2.123,1.832-2.548,1.928-3.609a27.767,27.767,0,0,0-.916-4.882Z" transform="translate(-837.705 -1177.598)" fill="#ffc3b5"/>
        <path id="Trazado_97374" data-name="Trazado 97374" d="M809.187,1196.838s15.544-.863,19.015,1.24-2.466,12.419-2.466,12.419-10.816-.5-32,.724c-5.017.29-5.449-13.082-4.512-14.187S809.187,1196.838,809.187,1196.838Z" transform="translate(-785.45 -1140.432)" fill="#03192b"/>
        <path id="Trazado_97375" data-name="Trazado 97375" d="M847.855,1289.358c-3.078-.328-2.7-1.84-2.45-2.987A10.176,10.176,0,0,1,846.97,1284a5.133,5.133,0,0,0,2.059,1c1.388.411,3.29-.4,4.5-.91a14.916,14.916,0,0,1,.412,3.971C853.895,1288.446,850.933,1289.685,847.855,1289.358Z" transform="translate(-837.213 -1185.917)" fill="#293241"/>
        <path id="Trazado_97376" data-name="Trazado 97376" d="M858.5,1208.126c.621,4.7,3.7,28.094,3.7,28.094l-7.135.885s-8.774-30.536-8.324-35.207,3.734-5.064,3.734-5.064S856.855,1195.685,858.5,1208.126Z" transform="translate(-846.159 -1140.6)" fill="#00223d"/>
        <path id="Trazado_97377" data-name="Trazado 97377" d="M820.516,1130.069c2.105-.79,3.135,18.18,3.42,25.99a91.938,91.938,0,0,0,11.845-.12c.761-.057,2.516-.7,3.273-.8a7.59,7.59,0,0,1,1.86-.088,35.1,35.1,0,0,1,4.359,1.963c.412.433,1.527,1.522,1.339,1.994s-2.144-1.315-2.144-1.315l-.955-.535c1.19,1.162,3.46,2.692,3.132,3.25s-2.366-1.009-3.825-2.069c1.251,1.13,2.806,3.153,2.447,3.468-.321.284-2.09-2.057-3.98-2.732-.7-.25-1.4.442-1.949.526a3.966,3.966,0,0,1-1.427.079l-2.047-.58c-.7.063-.714.475-1.418.625-.817.174-2.158.357-3.2.611-5.992,1.465-7.992,2.146-9.826,2.145C815.862,1162.477,815.54,1131.936,820.516,1130.069Z" transform="translate(-816.368 -1105.902)" fill="#ffc3b5"/>
        <path id="Trazado_97378" data-name="Trazado 97378" d="M862.162,1145.96c-.395-8-.337-17.856,4.147-19.537,1.769-.664,4.888,3.327,4.327,19.7A33.652,33.652,0,0,1,862.162,1145.96Z" transform="translate(-862.009 -1103.983)" fill="#26aab7"/>
        <path id="Trazado_97379" data-name="Trazado 97379" d="M800.12,1279.411a3.888,3.888,0,0,0-.219,3.346c.811,1.526,5.065,3.77,5.508,4.6a2.006,2.006,0,0,1,.27,1.413l-12.632-3.1.968-3.807,1.181-2.632Z" transform="translate(-763.898 -1183.436)" fill="#ffc3b5"/>
        <path id="Trazado_97380" data-name="Trazado 97380" d="M796.783,1286.418s-3.55.614-4.959-.508-1.314-1.328-1.833-1.136c-.334.124-.842,1.641-1.163,2.708a1.038,1.038,0,0,0,.747,1.305l13.153,3.251c1,.191,1.661-.433.989-1.234a11.814,11.814,0,0,0-1.358-1.262A45.65,45.65,0,0,0,796.783,1286.418Z" transform="translate(-760.129 -1186.284)" fill="#293241"/>
        <path id="Trazado_97381" data-name="Trazado 97381" d="M788.283,1200.869c1-2.115,3.29-4.869,7.312-3.211,3.835,1.582,4.865,5.469,3.655,9.449s-9.177,27.377-9.454,30.595l-6.36.042s1.156-18.527,1.439-23.005A43.377,43.377,0,0,1,788.283,1200.869Z" transform="translate(-753.299 -1140.778)" fill="#00223d"/>
        <path id="Trazado_97382" data-name="Trazado 97382" d="M824.283,1160.021h-21.26a1.385,1.385,0,0,0-1.283.864l-6.546,16.02H783.472a.594.594,0,0,0-.594.595h0a.594.594,0,0,0,.594.6h33.36a2.33,2.33,0,0,0,2.124-1.38l6.592-14.734A1.391,1.391,0,0,0,824.283,1160.021Z" transform="translate(-778.973 -1121.481)" fill="#fec55e"/>
        <path id="Trazado_97383" data-name="Trazado 97383" d="M811.844,1177.768a1.17,1.17,0,1,1-.877-1.532A1.251,1.251,0,0,1,811.844,1177.768Z" transform="translate(-777.982 -1129.898)" fill="#fff"/>
        <g id="Grupo_46854" data-name="Grupo 46854" transform="translate(10.456)">
          <path id="Trazado_97384" data-name="Trazado 97384" d="M838.447,1081.406a16.278,16.278,0,0,1-1.881-.753,9.48,9.48,0,0,0-2.145-.809,5.174,5.174,0,0,0-4.351,1.161c-1.4,1.522-3.894.274-3.392,8.242.568,9.018,5.583,8.028,5.7,7.876s4.473-5.771,4.473-5.771,1.522,3.329,1.522,3.205S846.144,1084,838.447,1081.406Z" transform="translate(-826.613 -1079.776)"/>
          <path id="Trazado_97385" data-name="Trazado 97385" d="M845.126,1111.789l.433,3.224s.969,4.642-.278,5.537-5.305-5.671-5.305-5.671l.428-8.165Z" transform="translate(-837.098 -1093.776)" fill="#ffc3b5"/>
          <path id="Trazado_97386" data-name="Trazado 97386" d="M840.86,1109.36a9.246,9.246,0,0,0,5.227,5.161l-.367-2.732L841,1106.714Z" transform="translate(-837.693 -1093.776)" fill="#fc8899"/>
          <path id="Trazado_97387" data-name="Trazado 97387" d="M837.3,1088.152a4.3,4.3,0,0,1,4.949,4.346,32.728,32.728,0,0,1-.362,4.133c-.575,3.72-3.113,7-4.791,6.7s-5.9-3.5-5.157-8.8C832.4,1091.271,834.526,1088.6,837.3,1088.152Z" transform="translate(-829.529 -1084.101)" fill="#ffc3b5"/>
          <path id="Trazado_97388" data-name="Trazado 97388" d="M853.281,1100.979a1.251,1.251,0,1,1-.95-1.691A1.385,1.385,0,0,1,853.281,1100.979Z" transform="translate(-849.708 -1089.908)" fill="#ffc3b5"/>
          <path id="Trazado_97389" data-name="Trazado 97389" d="M831.341,1092.144s2.029.505,2.781-.8,3.445-4.12,6.869-2.953-3.012-2.84-3.285-2.84-3.56-.023-3.56-.023-2.533,2.083-2.624,2.312-.822,2.725-.822,2.725Z" transform="translate(-828.717 -1082.765)"/>
        </g>
        <path id="Trazado_97390" data-name="Trazado 97390" d="M837.474,1110.641l3.692.705a1.643,1.643,0,0,1-1.985,1.128C837.19,1112.153,837.474,1110.641,837.474,1110.641Z" transform="translate(-820.682 -1095.817)" fill="#fff"/>
      </g>
      <g id="Grupo_46857" data-name="Grupo 46857" transform="translate(836.541 1160.235)">
        <path id="Trazado_97391" data-name="Trazado 97391" d="M654.6,1592.063v13.4c0,2.167-24.171,3.923-53.986,3.923s-53.987-1.756-53.987-3.923v-13.4Z" transform="translate(-546.629 -1587.997)" fill="#f4b34a"/>
        <g id="Grupo_46856" data-name="Grupo 46856" transform="translate(0 4.066)">
          <path id="Trazado_97392" data-name="Trazado 97392" d="M546.629,1609.236v-17.173H585.7v13.4C585.7,1607.256,569.19,1608.766,546.629,1609.236Z" transform="translate(-477.726 -1592.063)" fill="#fec55e"/>
          <path id="Trazado_97393" data-name="Trazado 97393" d="M663.978,1609.272c-4.194.076-8.581.116-13.1.116-6.732,0-13.175-.089-19.117-.254v-17.071h32.216Z" transform="translate(-596.893 -1592.063)" fill="#fec55e"/>
          <path id="Trazado_97394" data-name="Trazado 97394" d="M736.05,1609.072c-19.235-.6-32.706-1.99-32.706-3.607v-13.4H736.05Z" transform="translate(-703.344 -1592.063)" fill="#eab054"/>
        </g>
        <path id="Trazado_97395" data-name="Trazado 97395" d="M546.629,1587.521c0,2.167,24.171,3.923,53.987,3.923s53.986-1.757,53.986-3.923-24.171-3.923-53.986-3.923S546.629,1585.355,546.629,1587.521Z" transform="translate(-546.629 -1583.598)" fill="#f4b34a"/>
        <path id="Trazado_97396" data-name="Trazado 97396" d="M566.471,1588.823c0,1.5,19.9,2.72,44.457,2.72s44.457-1.218,44.457-2.72-19.9-2.72-44.457-2.72S566.471,1587.32,566.471,1588.823Z" transform="translate(-556.941 -1584.9)" fill="#f7cc7f"/>
      </g>
      <g id="Grupo_46859" data-name="Grupo 46859" transform="translate(845.777 1146.053)">
        <path id="Trazado_97397" data-name="Trazado 97397" d="M635.37,1562.534v13.4c0,2.166-24.17,3.923-53.986,3.923s-53.986-1.757-53.986-3.923v-13.4Z" transform="translate(-527.397 -1558.469)" fill="#f4b34a"/>
        <g id="Grupo_46858" data-name="Grupo 46858" transform="translate(0 4.065)">
          <path id="Trazado_97398" data-name="Trazado 97398" d="M527.4,1579.708v-17.174h39.069v13.4C566.467,1577.726,549.959,1579.237,527.4,1579.708Z" transform="translate(-458.495 -1562.534)" fill="#fec55e"/>
          <path id="Trazado_97399" data-name="Trazado 97399" d="M644.747,1579.743c-4.194.077-8.581.116-13.1.116-6.731,0-13.175-.09-19.118-.252v-17.072h32.217Z" transform="translate(-577.662 -1562.534)" fill="#fec55e"/>
          <path id="Trazado_97400" data-name="Trazado 97400" d="M716.818,1579.542c-19.235-.6-32.706-1.989-32.706-3.607v-13.4h32.706Z" transform="translate(-684.112 -1562.534)" fill="#eab054"/>
        </g>
        <ellipse id="Elipse_3874" data-name="Elipse 3874" cx="53.986" cy="3.923" rx="53.986" ry="3.923" transform="translate(0 0)" fill="#f4b34a"/>
        <ellipse id="Elipse_3875" data-name="Elipse 3875" cx="44.456" cy="2.72" rx="44.456" ry="2.72" transform="translate(9.53 1.203)" fill="#f7cc7f"/>
      </g>
      <g id="Grupo_46861" data-name="Grupo 46861" transform="translate(839.623 1131.494)">
        <path id="Trazado_97401" data-name="Trazado 97401" d="M648.183,1532.221v13.4c0,2.167-24.17,3.923-53.986,3.923s-53.986-1.756-53.986-3.923v-13.4Z" transform="translate(-540.211 -1528.155)" fill="#f4b34a"/>
        <g id="Grupo_46860" data-name="Grupo 46860" transform="translate(0 4.066)">
          <path id="Trazado_97402" data-name="Trazado 97402" d="M540.211,1549.394v-17.173H579.28v13.4C579.28,1547.413,562.771,1548.923,540.211,1549.394Z" transform="translate(-471.307 -1532.221)" fill="#fec55e"/>
          <path id="Trazado_97403" data-name="Trazado 97403" d="M657.56,1549.429c-4.193.076-8.581.116-13.1.116-6.731,0-13.175-.089-19.118-.252v-17.072H657.56Z" transform="translate(-590.475 -1532.221)" fill="#fec55e"/>
          <path id="Trazado_97404" data-name="Trazado 97404" d="M729.631,1549.229c-19.234-.6-32.706-1.99-32.706-3.607v-13.4h32.706Z" transform="translate(-696.926 -1532.221)" fill="#fec55e"/>
        </g>
        <ellipse id="Elipse_3876" data-name="Elipse 3876" cx="53.986" cy="3.923" rx="53.986" ry="3.923" transform="translate(0 0)" fill="#f4b34a"/>
        <ellipse id="Elipse_3877" data-name="Elipse 3877" cx="44.456" cy="2.72" rx="44.456" ry="2.72" transform="translate(9.53 1.203)" fill="#f7cc7f"/>
      </g>
      <g id="Grupo_46863" data-name="Grupo 46863" transform="translate(845.777 1117.134)">
        <path id="Trazado_97405" data-name="Trazado 97405" d="M635.37,1502.322v13.4c0,2.167-24.17,3.923-53.986,3.923s-53.986-1.756-53.986-3.923v-13.4Z" transform="translate(-527.398 -1498.256)" fill="#f4b34a"/>
        <g id="Grupo_46862" data-name="Grupo 46862" transform="translate(0 4.065)">
          <path id="Trazado_97406" data-name="Trazado 97406" d="M527.4,1519.495v-17.173h39.069v13.4C566.467,1517.515,549.959,1519.025,527.4,1519.495Z" transform="translate(-458.495 -1502.322)" fill="#fec55e"/>
          <path id="Trazado_97407" data-name="Trazado 97407" d="M644.747,1519.53c-4.194.075-8.581.117-13.1.117-6.731,0-13.175-.09-19.118-.254v-17.072h32.217Z" transform="translate(-577.662 -1502.322)" fill="#fec55e"/>
          <path id="Trazado_97408" data-name="Trazado 97408" d="M716.818,1519.331c-19.235-.6-32.706-1.99-32.706-3.607v-13.4h32.706Z" transform="translate(-684.112 -1502.322)" fill="#fec55e"/>
        </g>
        <path id="Trazado_97409" data-name="Trazado 97409" d="M527.4,1497.781c0,2.166,24.17,3.922,53.986,3.922s53.986-1.756,53.986-3.922-24.17-3.923-53.986-3.923S527.4,1495.615,527.4,1497.781Z" transform="translate(-527.398 -1493.858)" fill="#f4b34a"/>
        <path id="Trazado_97410" data-name="Trazado 97410" d="M547.24,1499.083c0,1.5,19.9,2.72,44.457,2.72s44.457-1.217,44.457-2.72-19.9-2.72-44.457-2.72S547.24,1497.581,547.24,1499.083Z" transform="translate(-537.711 -1495.16)" fill="#f7cc7f"/>
      </g>
      <g id="Grupo_46865" data-name="Grupo 46865" transform="translate(775.503 1146.593)">
        <rect id="Rectángulo_28275" data-name="Rectángulo 28275" width="94.576" height="34.422" transform="translate(0)" fill="#fcfcfc"/>
        <g id="Grupo_46864" data-name="Grupo 46864" transform="translate(0)">
          <rect id="Rectángulo_28276" data-name="Rectángulo 28276" width="94.576" height="4.428" transform="translate(0 5.016)" fill="#eff4ef"/>
          <rect id="Rectángulo_28277" data-name="Rectángulo 28277" width="94.576" height="4.428" transform="translate(0 13.666)" fill="#eff4ef"/>
          <rect id="Rectángulo_28278" data-name="Rectángulo 28278" width="94.576" height="4.428" transform="translate(0 22.316)" fill="#eff4ef"/>
          <rect id="Rectángulo_28279" data-name="Rectángulo 28279" width="94.576" height="4.428" transform="translate(0 29.994)" fill="#eff4ef"/>
          <rect id="Rectángulo_28280" data-name="Rectángulo 28280" width="19.67" height="34.422" transform="translate(35.207)" fill="#f5ca56"/>
        </g>
        <rect id="Rectángulo_28281" data-name="Rectángulo 28281" width="14.283" height="34.422" transform="translate(93.429)" fill="#26aab7"/>
      </g>
      <g id="Grupo_46866" data-name="Grupo 46866" transform="translate(840.154 1054.311)">
        <path id="Trazado_97411" data-name="Trazado 97411" d="M599.2,1371.107c1.222-2.941,2.465-5.888,5.636-7.377a7.1,7.1,0,0,1,7.527.963c6.46,4.857.831,10.211,8.185,19.423,2.285,2.863,5.051,5.174,6.42,8.529,1.917,4.694-.365,6.949-4.024,9.2-17.5,10.759-26.68-11.331-26.351-16.386C596.839,1381.7,598.415,1373,599.2,1371.107Z" transform="translate(-547.298 -1363.053)"/>
        <path id="Trazado_97412" data-name="Trazado 97412" d="M655.9,1458.42c.738-.117,2.531-1.4,3.163-1.519.491-.09,1.551-.251,2-.317.553-2.067,3.365-13.339,3.68-16.642.341-3.579,2.872-19.063,2.872-19.063l6.553,1.192s-2.721,11.911-3.474,17.687c-.646,4.961-6.089,16.115-6.781,17.293,0,.029,0,.056,0,.085-.106,1.752-.949,1.167-.949,1.167l-1.371.35s-4.85.467-5.166.583S655.164,1458.536,655.9,1458.42Z" transform="translate(-622.164 -1393.107)" fill="#ffc3b5"/>
        <path id="Trazado_97413" data-name="Trazado 97413" d="M654.783,1402.033c-4.633,1.572-7.267,14.167-7.267,14.167s7.268,2.029,9.13.965c0,0,2.114-9.37,2.872-9.043Z" transform="translate(-603.613 -1383.311)" fill="#8ec8c8"/>
        <path id="Trazado_97414" data-name="Trazado 97414" d="M744.417,1544.352a49.592,49.592,0,0,0-2.219,7.776c-.031.208.264,1.225.237,1.443-2.846,3.882-6.935,4.731-10.441,4.979,1.786-1.745,4.41-3.4,4.537-3.95a68.758,68.758,0,0,0,1.81-10.221C740.521,1545.388,742,1544.588,744.417,1544.352Z" transform="translate(-729.084 -1457.278)" fill="#ffc3b5"/>
        <path id="Trazado_97415" data-name="Trazado 97415" d="M682.522,1457.265l6.261,17.634s-10.062,1.894-13.824,2.583-24.778,1.609-25.31,1.981c-.4.278-4.737,14.32-6.676,22.062a18.211,18.211,0,0,1-7.969-.789c1.082-11.077,4.992-28.629,6.244-30.539C643.287,1467.084,682.522,1457.265,682.522,1457.265Z" transform="translate(-626.868 -1412.017)" fill="#d1d1d1"/>
        <path id="Trazado_97416" data-name="Trazado 97416" d="M708.511,1560.446a49.5,49.5,0,0,0-.723,8.054c.008.213.489,1.155.5,1.374-2.068,4.345-5.926,5.946-9.323,6.845,1.428-2.047,3.7-4.162,3.716-4.729a68.533,68.533,0,0,0-.136-10.379C704.878,1562.193,706.181,1561.131,708.511,1560.446Z" transform="translate(-677.317 -1465.642)" fill="#ffc3b5"/>
        <path id="Trazado_97417" data-name="Trazado 97417" d="M663.441,1459.169l2.428,4.148a11.886,11.886,0,0,1-5.959,17.086l-.109.042c-3.566,1.382-24.038,6.223-24.491,6.689-.336.346-1.97,14.953-2.424,22.921a18.213,18.213,0,0,1-7.976.72c-1.013-11.084-.461-29.058.411-31.169C626.742,1476.168,663.441,1459.169,663.441,1459.169Z" transform="translate(-600.479 -1413.007)" fill="#fcfcfc"/>
        <path id="Trazado_97418" data-name="Trazado 97418" d="M704.766,1577.392c.545-.6,2.547,2.711,3.046,3.418a1.585,1.585,0,0,1,.335,1.519c-.178.328-10.731,6.536-13.3,6.978a1.293,1.293,0,0,1-.77-.205c-1.006-.891,3.624-7.465,5.7-8.328A9.972,9.972,0,0,0,704.766,1577.392Z" transform="translate(-674.61 -1474.411)" fill="#8ec8c8"/>
        <path id="Trazado_97419" data-name="Trazado 97419" d="M744.746,1560.74c.648-.489,1.993,3.141,2.352,3.929a1.58,1.58,0,0,1,.044,1.554c-.236.289-11.764,4.411-14.375,4.362a1.293,1.293,0,0,1-.718-.347c-.821-1.063,4.958-6.652,7.162-7.112A9.968,9.968,0,0,0,744.746,1560.74Z" transform="translate(-731.969 -1465.771)" fill="#8ec8c8"/>
        <path id="Trazado_97420" data-name="Trazado 97420" d="M632.87,1401.67h0a1.721,1.721,0,0,1-.467-.1,8.073,8.073,0,0,0-4.205.239c-1.78.751-4.539,7.769-4.375,14.973.066,1.1.133,2.086.19,2.774.449,5.441,2.011,15.652,2.094,15.707,2.124,1.367,14.937-3.933,15.818-5.1s1.4-15.307,1.828-16.012l.842-12.3C643.108,1401.412,635.149,1401.653,632.87,1401.67Z" transform="translate(-577.307 -1382.984)" fill="#8ec8c8"/>
        <path id="Trazado_97421" data-name="Trazado 97421" d="M644.029,1390.118a32.771,32.771,0,0,0-.66,5.951c.165,1.684-.629,7.107-4.192,7.125s-.676-6.9-.34-8.546a63.119,63.119,0,0,0,.415-6.755Z" transform="translate(-583.272 -1375.963)" fill="#ffc3b5"/>
        <path id="Trazado_97422" data-name="Trazado 97422" d="M637.415,1390.455c.056-1.4.073-2.562.073-2.562l4.778,2.226s-.169.873-.339,1.984A4.17,4.17,0,0,1,637.415,1390.455Z" transform="translate(-581.51 -1375.963)" fill="#fc8899"/>
        <path id="Trazado_97423" data-name="Trazado 97423" d="M636.515,1367.4a5.918,5.918,0,0,1,2.514,3.234c.673,2.214-.094,7.926-4.849,9.3s-6.816-3.146-5.836-6.682S631.454,1365.24,636.515,1367.4Z" transform="translate(-574.013 -1365.017)" fill="#ffc3b5"/>
        <path id="Trazado_97424" data-name="Trazado 97424" d="M647.844,1375.379c.094.95.617,1.676,1.171,1.622s.926-.868.833-1.819-.617-1.675-1.171-1.62S647.75,1374.43,647.844,1375.379Z" transform="translate(-594.107 -1368.513)" fill="#ffc3b5"/>
        <path id="Trazado_97425" data-name="Trazado 97425" d="M624.474,1367.406s.862,6.371,2.922,7.521,1.2,3.976,1.2,3.976,1.868-6.563.239-8.671A9.065,9.065,0,0,0,624.474,1367.406Z" transform="translate(-562.529 -1365.316)"/>
        <path id="Trazado_97426" data-name="Trazado 97426" d="M626.712,1383.924c-.559.83-.557,1.809,0,2.186s1.469.011,2.027-.819.557-1.81,0-2.187S627.272,1383.094,626.712,1383.924Z" transform="translate(-563.065 -1373.397)" fill="#ffc3b5"/>
        <path id="Trazado_97427" data-name="Trazado 97427" d="M638.87,1385.709l3.352.843a1.524,1.524,0,0,1-1.888.946C638.523,1387.1,638.87,1385.709,638.87,1385.709Z" transform="translate(-582.152 -1374.828)" fill="#fff"/>
        <path id="Trazado_97428" data-name="Trazado 97428" d="M603.751,1456.633c-.06-.153-.193-.156-.33-.16a33.553,33.553,0,0,1-3.967-.3,2.791,2.791,0,0,1-.637-.163,1.658,1.658,0,0,0-1.1-.04,2.182,2.182,0,0,1-.61.065c-.666,0-2.569-.65-3.546-.82a.571.571,0,0,1-.456-.428c-.962-3.8-3.025-12.333-3.292-15.139-.342-3.587-2.82-19.762-2.82-19.762l-6.628,1.848s2.728,11.94,3.482,17.729c.582,4.47,5.05,13.956,6.45,16.685a2.8,2.8,0,0,0,2.576,2.129.826.826,0,0,1,.525.281,3.678,3.678,0,0,0,.837.728,1.963,1.963,0,0,1,.571.568c.282.411.533.841.783,1.272.166.286.339.376.583.308a.52.52,0,0,0,.384-.586,2.621,2.621,0,0,0-.4-1.305.71.71,0,0,1,.053-.946,3,3,0,0,1,.5-.554.857.857,0,0,1,.678-.246,11.019,11.019,0,0,0,1.445.269l.4.081.219.047c.034.008.739.085.98.085.194,0,.508.014.775.027a4.184,4.184,0,0,0,.771-.115.943.943,0,0,0,.619-.248c.072-.065.142-.137.1-.247a.244.244,0,0,0-.214-.162,9.239,9.239,0,0,1-.974-.164c.245,0,1.01-.018,1.255-.024a1.15,1.15,0,0,0,.841-.37C603.708,1456.882,603.811,1456.786,603.751,1456.633Z" transform="translate(-515.616 -1392.592)" fill="#ffc3b5"/>
        <path id="Trazado_97429" data-name="Trazado 97429" d="M617.25,1402.272c3.271-.6,5.97,14.043,5.97,14.043s-7.269,2.029-9.131.965c0,0-2.114-9.37-2.872-9.043Z" transform="translate(-549.882 -1383.427)" fill="#8ec8c8"/>
      </g>
      <g id="Grupo_46870" data-name="Grupo 46870" transform="translate(564.37 818.065)">
        <g id="Grupo_46869" data-name="Grupo 46869" transform="translate(0 0)">
          <path id="Trazado_97430" data-name="Trazado 97430" d="M1313.469,1192.993s-1.465,1.433-1.5,1.96-.13,6.166.469,6.693,2.609,1.454,1.791,1.492c-.585.027-3.816.147-5.994.027-.635-.036-1.33-4.917-1.581-5.665-.365-1.086-1.254-3.531-.922-4.289a6.349,6.349,0,0,1,2.03-1.834,10.006,10.006,0,0,0,2.247-2.4Z" transform="translate(-1298.825 -1036.336)" fill="#f48c7f"/>
          <path id="Trazado_97431" data-name="Trazado 97431" d="M1265.924,1204.206s-1.313,3.717-1.314,3.727c-.1.588-.482,2.044-.482,2.578,0,2.011,9.043-1.707,7.018-2.6a2.149,2.149,0,0,1-.82-1.409,4.725,4.725,0,0,1,.762-2.378Z" transform="translate(-1235.898 -1044.21)" fill="#f7a491"/>
          <g id="Grupo_46867" data-name="Grupo 46867" transform="translate(9.633 90.788)">
            <path id="Trazado_97432" data-name="Trazado 97432" d="M1256,1060.193s.658,6.663.658,6.762c0,10.778,2.131,31.831,1.726,33.858-.988,4.941-11.625,30.154-11.625,30.154l-5.75-.689,7.493-30.186-2.759-12.151-3.9-24.017Z" transform="translate(-1221.42 -1060.193)" fill="#0f8a96"/>
            <path id="Trazado_97433" data-name="Trazado 97433" d="M1264.822,1067.115l-1.091,6.316-2.951,25.989-11.241,25.4s1.582,3.7,3.914,4.215l17.891-26.079,11.113-33.37-.391-7.414Z" transform="translate(-1249.539 -1061.221)" fill="#26aab7"/>
          </g>
          <path id="Trazado_97434" data-name="Trazado 97434" d="M1307.475,1193.9s3.378,9.54,4.7,10c.352.122,2.036.431,2.354,1.18a2.3,2.3,0,0,1,.043.779h-7.043s-.933-4.006-1.284-5.852c0,0-1.865-4.513-1.658-4.923S1307.475,1193.9,1307.475,1193.9Z" transform="translate(-1298.468 -1038.895)"/>
          <path id="Trazado_97435" data-name="Trazado 97435" d="M1249.538,1215.252l1.036-3.281a8.962,8.962,0,0,0,3.261.768,32.781,32.781,0,0,0,3.211-.768c4.34,1.432,7.9,2.128,7.25,3.281h-14.758Z" transform="translate(-1221.822 -1048.286)"/>
          <path id="Trazado_97436" data-name="Trazado 97436" d="M1144.8,892.195s7.641,4.945,26.472,4.273c0,0-20.184,7.622-28.076,8.8l-3.249-12.828Z" transform="translate(-1076.086 -882.093)" fill="#b54273"/>
          <path id="Trazado_97437" data-name="Trazado 97437" d="M1194.464,902.068a19.453,19.453,0,0,1-5.2,6.615L1187.567,902l.11-3.234Z" transform="translate(-1122.151 -885.507)" fill="#e36099"/>
          <path id="Trazado_97438" data-name="Trazado 97438" d="M1187.567,876.161s22.065-1.492,25.5-.231l3.546,14.009a69.6,69.6,0,0,0-24.794,3Z" transform="translate(-1144.296 -873.376)" fill="#c1507f"/>
          <path id="Trazado_97439" data-name="Trazado 97439" d="M1210.322,1004.748l3.016,2.313c.581-.448,1.852-2.334,2.675-2.921l-2.756-3.006h0a.8.8,0,0,1-.322-.72,2.384,2.384,0,0,1,.077-.463c.085-.237.163-.521.247-.759s-.482-.716-.781-.8-.4,1.06-.526,1.4a37.157,37.157,0,0,0-.952,4.3Z" transform="translate(-1154.627 -937.283)" fill="#fc8899"/>
          <path id="Trazado_97440" data-name="Trazado 97440" d="M1247.487,1013.291c-.847-.9-2.042-1.411-2.928-2.349l-13.382,9.214s-10.345-12.235-15.964-7.9a93.317,93.317,0,0,0,6.949,10c3.435,4.254,8.682,6.284,9.705,5.814C1233.021,1027.54,1247.187,1013.656,1247.487,1013.291Z" transform="translate(-1188.451 -943.808)" fill="#d1d1d1"/>
          <path id="Trazado_97441" data-name="Trazado 97441" d="M1324.112,943.25c.442,1.179,1.208,3.034,1.208,3.034.021.532.131,2.748.271,5.462l3.766-2.062a42.966,42.966,0,0,1-.434-4.671c.121-.245.406.008,1.409-1.875a3.42,3.42,0,0,0,.247-1.446s-.061-1.11-.321-1.183a.519.519,0,0,0-.591.327c-.067.2.011.642-.056.843a1.385,1.385,0,0,1-.854.517c-.243.018-.365-3.263-.365-3.263s.023-.937.055-1.247c.027-.264.171-1.045.171-1.045s.141-1.126-.208-1.168c-.205-.025-.609.924-.844,1.908a18.831,18.831,0,0,1-.446,2.161c-.256,0-.338-1.8-.338-1.8a5.742,5.742,0,0,0,.1-1.23c.181-.5.233-1.394-.194-1.416a7.269,7.269,0,0,0-.5,1.173s-.123.81-.205,1.19a21.51,21.51,0,0,0-.116,2.158c-.052.385-.158.243-.2.263a9.478,9.478,0,0,1-.062-1.222,7.179,7.179,0,0,1-.052-1.185,8.625,8.625,0,0,0,.02-1.261c-.044-.929-.612-.764-.711.1-.037.33-.076.69-.112,1.054-.145,1.418.025,2.747-.122,2.776a10.1,10.1,0,0,1-.357-2.4s-.46-1.3-.6-.025a10.92,10.92,0,0,0,.021,2.709A10.539,10.539,0,0,0,1324.112,943.25Z" transform="translate(-1323.604 -904.391)" fill="#ffc3b5"/>
          <path id="Trazado_97442" data-name="Trazado 97442" d="M1278.718,974.861a2.183,2.183,0,0,0-3.579.9,1.622,1.622,0,0,0-2.057.8s-2.336-.406-2.476,3.032c0,0-1.187-.078-1.172,1.319a3.435,3.435,0,0,0,.826,2.233,1.664,1.664,0,0,0-.144,1.8,1.58,1.58,0,0,0,1.295,1.1s.46,1.787,1.314,2.239a2.586,2.586,0,0,0,1.894.059,1.225,1.225,0,0,0,1.313.752c.91-.2,1.941-1.212,3.018-.942a11.075,11.075,0,0,0,3.7-.47s2.838-1.7,1.569-4.654a2.258,2.258,0,0,0-.182-3.154s.684-2.793-1.5-4.128A5.234,5.234,0,0,0,1278.718,974.861Z" transform="translate(-1251.794 -924.733)"/>
          <path id="Trazado_97443" data-name="Trazado 97443" d="M1255.059,1013.186l-4.621-2.378s-4.105.6-4.615.661-1.468,19.188-1.549,26.353.794,8.326.794,8.326,6.689.677,11.456-.334a37.2,37.2,0,0,0,10.266-4.437s-5.922-13.033-7.283-17.16S1255.059,1013.186,1255.059,1013.186Z" transform="translate(-1221.709 -943.738)" fill="#fcfcfc"/>
          <path id="Trazado_97444" data-name="Trazado 97444" d="M1296.335,984.238l-15.178-12.132s-3.457-12.791-3.651-13.265-3.577-.32-4.945-.288c-.438.011,1.905,13.839,2.834,16.092,1.1,2.662,12.828,13.975,12.828,13.975s2.654,6.576,2.816,11.614c.27,8.37-.326,20,.071,20.314,2.364,1.117,10.809.246,11.239-.678C1307.091,1009.67,1296.335,984.238,1296.335,984.238Z" transform="translate(-1272.038 -916.555)" fill="#d1d1d1"/>
          <path id="Trazado_97445" data-name="Trazado 97445" d="M1280.778,1001.545l.692,2.66s1.287,3.8.328,4.676-5.044-4.217-5.044-4.217l-.469-6.9Z" transform="translate(-1252.45 -936.96)" fill="#ffc3b5"/>
          <path id="Trazado_97446" data-name="Trazado 97446" d="M1278.083,1000a7.827,7.827,0,0,0,4.925,3.8l-.585-2.255-4.492-3.779Z" transform="translate(-1254.095 -936.96)" fill="#fc8899"/>
          <path id="Trazado_97447" data-name="Trazado 97447" d="M1275.907,981.773a3.641,3.641,0,0,1,5.079,2.307,27.47,27.47,0,0,1,.712,3.435c.441,3.152-.823,6.424-2.257,6.6s-5.646-1.392-6.333-5.859C1272.685,985.5,1273.763,982.814,1275.907,981.773Z" transform="translate(-1250.515 -928.46)" fill="#ffc3b5"/>
          <path id="Trazado_97448" data-name="Trazado 97448" d="M1290.85,994.893a1.06,1.06,0,1,1-1.184-1.137A1.173,1.173,0,0,1,1290.85,994.893Z" transform="translate(-1267.157 -934.873)" fill="#ffc3b5"/>
          <path id="Trazado_97449" data-name="Trazado 97449" d="M1273.241,976.589c1.624.995,2.359,2.715,1.641,3.844s-2.614,1.236-4.237.242-2.358-2.715-1.643-3.844S1271.618,975.595,1273.241,976.589Z" transform="translate(-1241.824 -925.601)"/>
          <path id="Trazado_97450" data-name="Trazado 97450" d="M1283.288,979.471c.062.51-.5,1-1.264,1.09s-1.426-.248-1.487-.757.5-1,1.263-1.09S1283.226,978.961,1283.288,979.471Z" transform="translate(-1255.629 -927.05)"/>
          <path id="Trazado_97451" data-name="Trazado 97451" d="M1273.369,986.307a1.183,1.183,0,1,1-1.318-1.046A1.189,1.189,0,0,1,1273.369,986.307Z" transform="translate(-1241.141 -930.457)"/>
          <path id="Trazado_97452" data-name="Trazado 97452" d="M1247.547,1016.219s6.416,15.165,8.7,20.51c.247.579,1.489,4.358,1.533,4.736.1.837-3.414,2.341-3.855,2.33-.393-.009-5.559-16.026-8.56-23.805a23.117,23.117,0,0,0-4.4-7.162l-1.458-1.2-.14-.45S1245.88,1011.753,1247.547,1016.219Z" transform="translate(-1210.345 -943.928)" fill="#d1d1d1"/>
          <rect id="Rectángulo_28282" data-name="Rectángulo 28282" width="1.186" height="106.543" transform="translate(42.022 0.291) rotate(-14.213)"/>
          <g id="Grupo_46868" data-name="Grupo 46868" transform="translate(57.937 62.252)">
            <path id="Trazado_97453" data-name="Trazado 97453" d="M1213.069,1004.032a3.562,3.562,0,0,0-.21-.7,1.971,1.971,0,0,0-.4-.637,1.217,1.217,0,0,1-.2-.421.745.745,0,0,0-.089-.167l0,0a1.706,1.706,0,0,0-.4-.381,1.8,1.8,0,0,1-.426-.461,1.284,1.284,0,0,0-.477-.421c-.19-.092-.337-.095-.4.023-.315.541-1.893,2.271-1.254,3.108a20.006,20.006,0,0,1,1.376,1.759c.2.454.89.423,1.3.265A1.58,1.58,0,0,0,1213.069,1004.032Z" transform="translate(-1209.059 -1000.776)" fill="#ffc3b5"/>
          </g>
        </g>
        <path id="Trazado_97454" data-name="Trazado 97454" d="M1278.824,999.895l-3.065.336a1.364,1.364,0,0,0,1.556,1.066C1278.965,1001.165,1278.824,999.895,1278.824,999.895Z" transform="translate(-1248.871 -938.067)" fill="#fff"/>
      </g>
      <g id="Grupo_46871" data-name="Grupo 46871" transform="translate(640.606 1041.545)">
        <path id="Trazado_97455" data-name="Trazado 97455" d="M950.421,1340.72a14.62,14.62,0,0,0,1.817-.3,8.56,8.56,0,0,1,2.06-.3,4.7,4.7,0,0,1,3.633,1.882c.945,1.625,3.4,1.008,1.391,7.978-2.274,7.889-6.527,6.027-6.606,5.868s-2.835-6-2.835-6-2,2.653-1.978,2.546S943.084,1341.509,950.421,1340.72Z" transform="translate(-848.164 -1338.368)"/>
        <path id="Trazado_97456" data-name="Trazado 97456" d="M975.345,1378.9c.029-.519,2.388.025,2.694-.385s-2.583-1.644-2.521-2.091c.115-.821,3.247,1.157,3.324.782s-3.052-2.573-2.434-3.016,3.007,2.619,3.268,2.253-2.477-2.647-2.056-3.511c.226-.461,4.187,4.492,4.888,4.481s.385-2.75,1-2.885-.033,5.285.227,5.581,5.56,7.112,7.767,8.759c.64-.7,4.6-4.2,5.186-4.867.977,1.556,2.494,2.432,3.553,3.919-2.1,2.167-8.293,7.086-9.148,7.114-2.6.086-8.191-10.457-9.388-12.361s-2.331-1.916-3.321-2.769S975.316,1379.416,975.345,1378.9Z" transform="translate(-902.233 -1355.403)" fill="#edaea2"/>
        <path id="Trazado_97457" data-name="Trazado 97457" d="M963.126,1396.595s8.791-6.765,10.442-9.81-2.248-5.208-5.314-5.241-9.552,9.087-9.552,9.087Z" transform="translate(-867.964 -1359.896)" fill="#c1507f"/>
        <path id="Trazado_97458" data-name="Trazado 97458" d="M989.067,1609.707s.262,4.72.264,4.73c.1.6.475,2.08.475,2.625,0,2.047-8.939-1.737-6.936-2.645.182-.081,1.132-.7,1.19-1.4.093-1.074.326-3.245.326-3.245Z" transform="translate(-895.277 -1478.477)" fill="#ffc3b5"/>
        <path id="Trazado_97459" data-name="Trazado 97459" d="M989.438,1619.383a31.719,31.719,0,0,0,3.174.783c1.075.156,2.493-1.163,3.253-.806.837.391.753,4.251.753,4.251s-11.2.672-14.37-.367C980.994,1622.833,985.148,1620.842,989.438,1619.383Z" transform="translate(-901.823 -1483.462)" fill="#fcfcfc"/>
        <path id="Trazado_97460" data-name="Trazado 97460" d="M948.056,1610.649s.262,4.721.263,4.731c.1.6.476,2.079.476,2.625,0,2.047-8.941-1.738-6.937-2.645.182-.082,1.414-1.166,1.473-1.863.092-1.074.043-2.781.043-2.781Z" transform="translate(-834.568 -1478.967)" fill="#ffc3b5"/>
        <path id="Trazado_97461" data-name="Trazado 97461" d="M948.484,1620.327a31.771,31.771,0,0,0,3.174.782c1.075.157,2.492-1.162,3.253-.806.837.392.871,3.919.871,3.919s-11.979.884-14.8.054C939.722,1623.9,944.193,1621.784,948.484,1620.327Z" transform="translate(-841.172 -1483.953)" fill="#fcfcfc"/>
        <path id="Trazado_97462" data-name="Trazado 97462" d="M960.056,1468.769l-3.78,1.661-7.951,38.677.322,28.993,6.373.151s2.965-25.363,2.965-27.328,13.732-34.4,13.732-34.4Z" transform="translate(-860.736 -1405.229)" fill="#03192b"/>
        <path id="Trazado_97463" data-name="Trazado 97463" d="M936.756,1469.99s2.785,29.8,2.785,34.821,2.258,33.136,2.258,33.136l6.389-.037s.461-8.569,1.146-21.177c.107-1.974-.138-5.958,0-8,.994-14.7,2.132-39.455,1.578-40.038C946.727,1464.285,936.756,1469.99,936.756,1469.99Z" transform="translate(-834.519 -1404.32)" fill="#00223d"/>
        <path id="Trazado_97464" data-name="Trazado 97464" d="M950.4,1380.073s5.007.531,6.237,1.3c1.387.862,2.108,4.457,2.108,4.457s-.791,18.693-.426,23.063c.283,3.381.426,17.21.426,17.21s-16.207,2.446-22.592.5c0,0,1.1-10.04.879-12.632s.086-26.364.475-28.055c.353-1.535,1-4.295,3.923-5.212S950.4,1380.073,950.4,1380.073Z" transform="translate(-841.919 -1359.109)" fill="#fcfcfc"/>
        <path id="Trazado_97465" data-name="Trazado 97465" d="M958.464,1369.386l1.624,6.164s-2.962,3.709-5.388,3.267c-2.035-.371-1.746-2.986-1.746-2.986s.78-3.634.3-5.378S958.464,1369.386,958.464,1369.386Z" transform="translate(-851.324 -1353.51)" fill="#ffc3b5"/>
        <path id="Trazado_97466" data-name="Trazado 97466" d="M956.069,1370.452c-.477-1.744,5.207-1.066,5.207-1.066l.135.51a2.871,2.871,0,0,1-.531.925,7.906,7.906,0,0,1-4.718,2.348A8.508,8.508,0,0,0,956.069,1370.452Z" transform="translate(-854.136 -1353.51)" fill="#fc8899"/>
        <path id="Trazado_97467" data-name="Trazado 97467" d="M1166.256,1601.187s-1.635,1.6-1.673,2.18-.146,6.859.523,7.444,2.629,1,2,1.66c-.477.5-4.142.39-6.571.257-.709-.038-1.6-5.7-1.879-6.527-.409-1.208-1.4-3.929-1.028-4.77a7.075,7.075,0,0,1,2.262-2.04,11.116,11.116,0,0,0,2.508-2.67Z" transform="translate(-1156.73 -1471.729)" fill="#ffc3b5"/>
        <path id="Trazado_97468" data-name="Trazado 97468" d="M1113.492,1613.659s-1.464,4.133-1.465,4.144c-.109.655-.537,2.272-.537,2.868,0,2.237,10.086-1.9,7.826-2.889a2.379,2.379,0,0,1-.914-1.567,5.243,5.243,0,0,1,.849-2.644Z" transform="translate(-1087.03 -1480.484)" fill="#ffc3b5"/>
        <path id="Trazado_97469" data-name="Trazado 97469" d="M1102.421,1453.5s.735,7.41.735,7.52c0,11.987,2.375,35.4,1.924,37.655-1.1,5.5-12.967,33.535-12.967,33.535l-6.413-.766,8.356-33.572-3.075-13.513-4.351-26.71Z" transform="translate(-1060.136 -1397.291)" fill="#03192b"/>
        <path id="Trazado_97470" data-name="Trazado 97470" d="M1112.262,1461.195l-1.217,7.022-3.292,28.9-12.537,28.249s1.763,4.111,4.365,4.688l19.953-29,12.394-37.113-.434-8.244Z" transform="translate(-1091.499 -1398.436)" fill="#00223d"/>
        <path id="Trazado_97471" data-name="Trazado 97471" d="M1159.414,1602.2s3.767,10.611,5.243,11.122c.391.136,2.271.481,2.626,1.313a3.607,3.607,0,0,1,0,1.087h-7.855s-.993-4.675-1.386-6.729c0,0-2.079-5.018-1.847-5.475S1159.414,1602.2,1159.414,1602.2Z" transform="translate(-1156.176 -1474.574)"/>
        <path id="Trazado_97472" data-name="Trazado 97472" d="M1095.217,1625.942l1.154-3.649a10.023,10.023,0,0,0,3.638.855,36.431,36.431,0,0,0,3.581-.855c4.841,1.594,8.806,2.366,8.084,3.649h-16.458Z" transform="translate(-1071.331 -1485.019)"/>
        <path id="Trazado_97473" data-name="Trazado 97473" d="M1022.109,1412.982l-.661.4a5.074,5.074,0,0,1-.808.574c-.165.039-4.687-.061-4.687-.061s-.016,1.5.013,1.5,2.378,1.915,2.378,1.915l.5.228,3.08-.919,2.812-.353s2-.231,2-.279a13.113,13.113,0,0,0-.136-1.7c-.079-.078-1.208-1.236-1.208-1.236s-.865-.194-.895-.194-.867-.166-.9-.175-1.342.195-1.342.195Z" transform="translate(-948.229 -1376.078)" fill="#edaea2"/>
        <path id="Trazado_97474" data-name="Trazado 97474" d="M1021.1,1416.278a7.592,7.592,0,0,0-1.4.312c-.486.195-4.339,3.114-4.339,3.114s-.517.282-.789.058a.623.623,0,0,1-.253-.487s-.458.254-.769.078a.523.523,0,0,1-.262-.613.878.878,0,0,1-.711-.1c-.262-.223-.126-.8-.126-.8s-.827.505-1.149.165-.184-.7.137-.973,2.228-1.538,2.452-1.684.857-.817,1.051-.905.671-.35.671-.35.8.086.847.116.272.584.671.73a1.021,1.021,0,0,0,.886-.117.762.762,0,0,0,.01-.3,6.845,6.845,0,0,1-.38-.885c-.068-.341-.155-.437-.282-.516s-.818-.281-1.158-.418a5.729,5.729,0,0,0-1.77.263l-.682.292s.126-.5.555-.583.963-.2,1.264-.225a13.363,13.363,0,0,1,1.324.2,5.2,5.2,0,0,1,1.284.205,15.274,15.274,0,0,0,2.677-.019S1021.8,1415.4,1021.1,1416.278Z" transform="translate(-940.532 -1375.96)" fill="#ffc3b5"/>
        <path id="Trazado_97475" data-name="Trazado 97475" d="M945.853,1404.613c.917-.02,11.5-.11,15.482-.143a4.389,4.389,0,0,0,2.675-.938l8.847-6.962,5.37,5.63-10.806,7.47c-.735.531-4.858.99-5.76.9-4.177-.422-14.8-2.549-15.862-2.4Z" transform="translate(-866.033 -1367.705)" fill="#ffc3b5"/>
        <path id="Trazado_97476" data-name="Trazado 97476" d="M1061.3,1406.558c-.918-.02-12.07-.182-16.048-.215a4.386,4.386,0,0,1-2.674-.939l-8.848-6.963-3.874,4.466,10.984,7.934a3.7,3.7,0,0,0,2.539.682c4.177-.422,15.62-1.541,16.682-1.4Z" transform="translate(-989.479 -1368.678)" fill="#edaea2"/>
        <path id="Trazado_97477" data-name="Trazado 97477" d="M936.026,1392.616s7.406-7.791,10.085-9.757a3.846,3.846,0,0,1,6.248,3.093c.25,4.953-9.57,13.817-9.57,13.817Z" transform="translate(-835.476 -1360.143)" fill="#c1507f"/>
        <path id="Trazado_97478" data-name="Trazado 97478" d="M1095.859,1392.619s-7.406-7.79-10.086-9.757-8.067-.3-7.64,3.083c.436,3.445,12.535,12.165,12.535,12.165Z" transform="translate(-1047.211 -1360.144)" fill="#167377"/>
        <path id="Trazado_97479" data-name="Trazado 97479" d="M1109.252,1389.109c.173,1.193,3.344,33.629,3.344,33.629-15.018,7.254-23.3,1.292-23.3,1.292s.492-22.777-.1-25.877c-.389-2.051-.026-15.876,1.3-16.258a24.268,24.268,0,0,1,4.944-1.036c1.819-.188,8.888-.3,10.152.126A16.112,16.112,0,0,1,1109.252,1389.109Z" transform="translate(-1069.2 -1359.454)" fill="#167377"/>
        <path id="Trazado_97480" data-name="Trazado 97480" d="M1108.147,1366.724l-1.106,6.755s4.045,8.6,6.463,7.871c2.027-.606.779-7.989.779-7.989s-1.105-3.964-.774-5.948S1108.147,1366.724,1108.147,1366.724Z" transform="translate(-1079.909 -1351.978)" fill="#ffc3b5"/>
        <path id="Trazado_97481" data-name="Trazado 97481" d="M1114.6,1367.413c.331-1.984-5.362-.689-5.362-.689l-.093.581a3.2,3.2,0,0,0,.617.976,7.646,7.646,0,0,0,4.98,2.161A10.333,10.333,0,0,1,1114.6,1367.413Z" transform="translate(-1081.002 -1351.978)" fill="#fc8899"/>
        <path id="Trazado_97482" data-name="Trazado 97482" d="M1102.749,1344.165c-.161-.056-1.29,7.981.852,10.192s6.318,2.935,7.816,1.194c1.656-1.927,1.572-10.563-1.758-12.839S1102.749,1344.165,1102.749,1344.165Z" transform="translate(-1075.447 -1339.332)" fill="#ffc3b5"/>
        <path id="Trazado_97483" data-name="Trazado 97483" d="M1111.057,1338.207c-1.169.131-2.759.751-4.4,3.357a6.35,6.35,0,0,0,1.821,8.5,4.961,4.961,0,0,1,2.307,3.736l.382-1.024a5.609,5.609,0,0,0,.294-2.45,4.642,4.642,0,0,0-.38-1.474c-.566-1.163,1.213-1.936,1.712-2.9.384-.744.4-2.449,1.007-3.681l.723-.941a4.724,4.724,0,0,1,3.3-.892C1119.451,1340.781,1117.448,1333.151,1111.057,1338.207Z" transform="translate(-1082.97 -1336.471)"/>
        <path id="Trazado_97484" data-name="Trazado 97484" d="M1119.67,1357.272c.017.98-.448,1.783-1.039,1.793s-1.082-.777-1.1-1.758.447-1.783,1.037-1.792S1119.653,1356.292,1119.67,1357.272Z" transform="translate(-1089.956 -1346.368)" fill="#ffc3b5"/>
        <path id="Trazado_97485" data-name="Trazado 97485" d="M1107.954,1363.024l-3.54.36a1.555,1.555,0,0,0,1.78,1.223C1108.1,1364.468,1107.954,1363.024,1107.954,1363.024Z" transform="translate(-1071.941 -1350.271)" fill="#fff"/>
        <path id="Trazado_97486" data-name="Trazado 97486" d="M1135.633,1433.514a.973.973,0,0,1,0-.22c.234-2.375,2.206-22.309,2.537-23.157.3-.766,9.14-13.409,9.14-13.409l4.345,5.92-8.5,11.341c-.191.721-3.258,14.177-3.258,14.177s-.629,2.453-.911,3.923c.129.353.255.688.367.962a8.768,8.768,0,0,0,.916,1.473,10.083,10.083,0,0,1,1.086,1.92c.089.347.252,1.066.344,1.5s.217.941.239,1.176a2.258,2.258,0,0,0,.274.631.379.379,0,0,1-.448.547c-.309-.1-.55-.5-.7-.752-.417-.7-.642-1.987-.745-1.918s-.47,2.246-.529,2.493a26.842,26.842,0,0,1-.746,3.238c-.248.462-.576.386-.664.1-.075-.249.274-3.789.274-3.789s.044-.452-.154-.311-.52,3.354-.659,3.824-.451.719-.717.341c-.323-.459.233-3.867.233-3.867s.062-.428-.12-.388-.413,2.778-.556,3.015a.36.36,0,0,1-.673-.073,16.873,16.873,0,0,1,.322-3.5s-.025-.242-.14-.161-.477,2.4-.713,2.615a.249.249,0,0,1-.363.005c-.434-.3.23-2.5.224-3.6s.5-2.331.35-3.637C1135.678,1433.843,1135.651,1433.641,1135.633,1433.514Z" transform="translate(-1130.31 -1367.788)" fill="#ffc3b5"/>
        <path id="Trazado_97487" data-name="Trazado 97487" d="M1126.935,1397.682l7.552,5.07s4.256-6.333,6.541-8.588c2.862-2.824-1.042-11.477-2.887-10.988C1134.017,1384.271,1126.935,1397.682,1126.935,1397.682Z" transform="translate(-1116.844 -1360.734)" fill="#167377"/>
        <path id="Trazado_97488" data-name="Trazado 97488" d="M958.38,1347.209a3.9,3.9,0,0,0-5.243,2.884,29.737,29.737,0,0,0-.49,3.738c-.22,3.412,1.389,6.817,2.935,6.886s5.921-1.949,6.3-6.791C962.117,1350.937,960.753,1348.15,958.38,1347.209Z" transform="translate(-852.994 -1341.911)" fill="#ffc3b5"/>
        <path id="Trazado_97489" data-name="Trazado 97489" d="M950.457,1360.757a1.136,1.136,0,1,0,1.175-1.314A1.258,1.258,0,0,0,950.457,1360.757Z" transform="translate(-842.725 -1348.41)" fill="#ffc3b5"/>
        <path id="Trazado_97490" data-name="Trazado 97490" d="M959.555,1351.763s-1.9.049-2.31-1.256-2.249-4.332-5.513-3.968,3.229-1.927,3.471-1.874,3.162.678,3.162.678,1.838,2.345,1.875,2.566.194,2.579.194,2.579Z" transform="translate(-850.648 -1340.729)"/>
        <path id="Trazado_97491" data-name="Trazado 97491" d="M965.137,1367.878l-3.413-.1a1.493,1.493,0,0,0,1.539,1.389C965.092,1369.275,965.137,1367.878,965.137,1367.878Z" transform="translate(-860.592 -1352.743)" fill="#fff"/>
      </g>
    </g>
  </g>
</svg>
