<svg xmlns="http://www.w3.org/2000/svg" xmlns:xlink="http://www.w3.org/1999/xlink" width="812" height="602" viewBox="0 0 812 602">
  <defs>
    <linearGradient id="linear-gradient" x1="0.5" x2="0.5" y2="1" gradientUnits="objectBoundingBox">
      <stop offset="0" stop-color="#fff"/>
      <stop offset="1" stop-color="#f1f1f1"/>
    </linearGradient>
    <linearGradient id="linear-gradient-2" x1="0.5" x2="0.5" y2="1" gradientUnits="objectBoundingBox">
      <stop offset="0" stop-color="#fff"/>
      <stop offset="1" stop-color="#d2e6ee"/>
    </linearGradient>
    <linearGradient id="linear-gradient-11" x1="0.5" x2="0.5" y2="1" gradientUnits="objectBoundingBox">
      <stop offset="0" stop-color="#ea3065"/>
      <stop offset="1" stop-color="#a22f5f"/>
    </linearGradient>
  </defs>
  <g id="Grupo_64232" data-name="Grupo 64232" transform="translate(-602 -4438.365)">
    <rect id="Rectángulo_29536" data-name="Rectángulo 29536" width="812" height="602" transform="translate(602 4438.365)" fill="url(#linear-gradient)"/>
    <g id="Rectángulo_4927" data-name="Rectángulo 4927" transform="translate(622 4478.642)" fill="none" stroke="#fff" stroke-width="3">
      <rect width="763.711" height="545.508" stroke="none"/>
      <rect x="1.5" y="1.5" width="760.711" height="542.508" fill="none"/>
    </g>
    <g id="Grupo_57053" data-name="Grupo 57053" transform="translate(762.548 4504.972)">
      <path id="Trazado_16323" data-name="Trazado 16323" d="M428.3,320.693a32.3,32.3,0,0,0-32.21,32.21h0a58.941,58.941,0,0,1-58.768,58.768H114.643A76.567,76.567,0,0,1,38.3,335.327h0a76.568,76.568,0,0,1,76.343-76.343h0a15.366,15.366,0,0,0,15.322-15.321h0a15.367,15.367,0,0,0-15.322-15.322H74.7A37.353,37.353,0,0,1,37.452,191.1h0a37.354,37.354,0,0,1,37.173-37.244h36.341a32.3,32.3,0,0,0,32.209-32.21h0a58.941,58.941,0,0,1,58.769-58.768H388.354A76.568,76.568,0,0,1,464.7,139.22h0a76.568,76.568,0,0,1-76.343,76.343h0a15.366,15.366,0,0,0-15.321,15.322h0a15.366,15.366,0,0,0,15.321,15.321H428.3C477.035,246.206,477.035,320.693,428.3,320.693Z" transform="translate(0 0)" fill-rule="evenodd" fill="url(#linear-gradient-2)"/>
      <path id="Trazado_16324" data-name="Trazado 16324" d="M196.467,123.917a1.072,1.072,0,0,0-.857-1.859,1.057,1.057,0,0,0-.568.26q-.81.724-1.6,1.469a1.07,1.07,0,1,0,1.469,1.556q.766-.724,1.554-1.427Zm96.862,245a1.071,1.071,0,0,0-.614,1.929,1.058,1.058,0,0,0,.66.21l.889-.014,1.117-.029.158-.006a1.07,1.07,0,1,0-.092-2.139l-1.228.033-.889.015Zm8.454-.464a1.071,1.071,0,0,0,.232,2.128l.974-.1,1.178-.137a1.071,1.071,0,0,0-.282-2.123l-1.129.132-.974.1Zm8.372-1.223a1.071,1.071,0,0,0,.426,2.1l.634-.125.992-.208.494-.11a1.07,1.07,0,1,0-.475-2.087l-.47.1-.968.2-.634.125Zm8.2-2.038a1.07,1.07,0,1,0,.647,2.04l.867-.268.922-.3.275-.094a1.07,1.07,0,0,0-.7-2.024l-.251.085-.9.291-.866.269Zm7.925-2.9a1.07,1.07,0,1,0,.869,1.956l.723-.315.849-.384.406-.189a1.071,1.071,0,1,0-.918-1.934l-.382.178-.824.373-.722.316Zm7.538-3.79a1.071,1.071,0,0,0,.629,1.99,1.055,1.055,0,0,0,.453-.145l.319-.183.776-.461.764-.468a1.071,1.071,0,0,0-.645-1.977,1.059,1.059,0,0,0-.484.159l-.742.453-.752.447-.319.185Zm7.02-4.657a1.07,1.07,0,0,0,1.3,1.7l.466-.353.694-.54.549-.439a1.07,1.07,0,1,0-1.346-1.664l-.528.422-.673.523-.467.354Zm6.4-5.48a1.07,1.07,0,1,0,1.5,1.523l.432-.422.611-.609.489-.5a1.07,1.07,0,1,0-1.539-1.487l-.472.483-.592.592-.432.421Zm5.681-6.228a1.07,1.07,0,1,0,1.676,1.331l.311-.387.528-.672.5-.647a1.07,1.07,0,1,0-1.707-1.291l-.481.626-.512.652-.311.387Zm4.887-6.871a1.071,1.071,0,1,0,1.821,1.127l.173-.274.442-.725.513-.863a1.071,1.071,0,0,0-1.859-1.064l-.487.82-.43.7-.173.274Zm4.051-7.4a1.07,1.07,0,1,0,1.935.915l.414-.888.351-.773.14-.319a1.07,1.07,0,1,0-1.965-.85l-.131.3-.34.752-.405.865Zm3.182-7.806a1.07,1.07,0,1,0,2.031.677l.253-.745.264-.809.159-.5a1.071,1.071,0,0,0-2.046-.632l-.152.48-.257.787-.252.745Zm2.313-8.123a1.07,1.07,0,1,0,2.091.458l.141-.623.18-.836.132-.654a1.07,1.07,0,1,0-2.1-.416l-.129.632-.175.814-.141.624Zm1.445-8.325a1.07,1.07,0,1,0,2.126.242l.063-.538.093-.856.074-.757a1.07,1.07,0,1,0-2.131-.2l-.072.736-.09.833-.063.537Zm.581-8.43a1.072,1.072,0,0,0,2.062.418,1.1,1.1,0,0,0,.078-.392l.009-.5.006-.866,0-.8a1.07,1.07,0,1,0-2.14.017l0,.774-.006.845-.009.5Zm-.268-8.448a1.07,1.07,0,0,0,2.132-.188l-.043-.517-.08-.869-.079-.766a1.07,1.07,0,1,0-2.128.229l.077.745.078.848.043.518Zm-1.1-8.379a1.07,1.07,0,1,0,2.1-.4l-.11-.593-.168-.864-.138-.665a1.07,1.07,0,1,0-2.094.44l.132.644.165.843.111.594Zm-1.927-8.229a1.07,1.07,0,1,0,2.052-.608l-.212-.731-.257-.85-.153-.491a1.071,1.071,0,1,0-2.04.65l.148.47.25.829.212.73Zm-2.735-8.007a1.07,1.07,0,1,0,1.987-.794l-.378-.937-.345-.827-.106-.244a1.07,1.07,0,0,0-1.963.856l.1.224.337.806.371.917Zm-3.512-7.683a1.071,1.071,0,0,0,1.9-1l-.205-.392-.425-.8-.39-.715a1.07,1.07,0,1,0-1.873,1.036l.38.7.414.779.2.393Zm-4.26-7.293a1.071,1.071,0,0,0,1.78-1.19l-.491-.742-.516-.763-.2-.29a1.07,1.07,0,1,0-1.753,1.228l.188.271.5.744.491.742Zm-4.977-6.836a1.071,1.071,0,0,0,1.657-1.357l-.357-.439-.6-.721-.426-.5a1.071,1.071,0,0,0-1.88.606,1.06,1.06,0,0,0,.253.785l.412.487.582.7.356.441Zm-5.634-6.3a1.071,1.071,0,0,0,1.8-1.007,1.059,1.059,0,0,0-.283-.5l-.28-.285-.679-.674-.58-.563a1.072,1.072,0,0,0-1.784,1.017,1.059,1.059,0,0,0,.3.527l.564.548.662.656.28.284Zm-6.232-5.711a1.07,1.07,0,0,0,1.359-1.654l-.328-.272-.76-.618-.594-.472a1.071,1.071,0,1,0-1.322,1.684l.575.456.742.6.328.272Zm-6.756-5.08a1.069,1.069,0,1,0,1.187-1.779l-.574-.389-.843-.557-.387-.249a1.072,1.072,0,0,0-1.54,1.365,1.061,1.061,0,0,0,.391.44l.366.236.824.544.575.388Zm-7.218-4.426a1.07,1.07,0,1,0,1.03-1.876l-.2-.111-.916-.5-.792-.417a1.07,1.07,0,0,0-.988,1.9l.771.407.9.485.2.111Zm-7.589-3.758a1.07,1.07,0,1,0,.865-1.958L317,212.622l-.967-.409a1.071,1.071,0,0,0-1.335,1.528,1.059,1.059,0,0,0,.513.447l.946.4,1,.434Zm-7.885-3.094a1.07,1.07,0,1,0,.7-2.023l-.155-.054q-.944-.321-1.891-.633a1.072,1.072,0,0,0-1.289,1.5,1.058,1.058,0,0,0,.625.538c.622.2,1.24.413,1.859.622l.154.053Zm-8.116-2.54a1.071,1.071,0,0,0,.587-2.059q-1.036-.294-2.074-.579a1.071,1.071,0,0,0-.563,2.066c.685.187,1.366.378,2.05.572Zm-8.238-2.155a1.072,1.072,0,0,0,.963-1.838,1.055,1.055,0,0,0-.467-.244c-.669-.122-1.42-.335-2.1-.489a1.07,1.07,0,1,0-.476,2.086c.667.153,1.413.364,2.074.485Zm-8.324-1.818a1.071,1.071,0,0,0,.416-2.1q-1.056-.21-2.11-.409a1.07,1.07,0,0,0-.4,2.1q1.048.2,2.094.407ZM276.2,203.9a1.072,1.072,0,0,0,.908-1.835,1.059,1.059,0,0,0-.56-.276q-1.062-.176-2.121-.342a1.07,1.07,0,1,0-.332,2.114q1.053.166,2.105.339Zm-8.436-1.264a1.07,1.07,0,0,0,.284-2.121q-1.063-.143-2.128-.28a1.07,1.07,0,0,0-.272,2.123q1.059.137,2.116.279Zm-8.474-1.036a1.07,1.07,0,1,0,.233-2.127c-.712-.077-1.423-.156-2.135-.228a1.071,1.071,0,0,0-.8,1.881,1.046,1.046,0,0,0,.581.247l2.121.227Zm-8.5-.835a1.072,1.072,0,0,0,.772-1.9,1.054,1.054,0,0,0-.585-.237c-.713-.063-1.426-.123-2.139-.182a1.07,1.07,0,0,0-.176,2.133q1.065.087,2.128.181ZM242.244,200a1.07,1.07,0,1,0,.233-2.127q-1.059-.113-2.116-.237a1.07,1.07,0,1,0-.254,2.125c.712.084,1.425.163,2.138.239Zm-8.541-1.116a1.071,1.071,0,0,0,.338-2.114c-.7-.11-1.4-.216-2.1-.343a1.07,1.07,0,1,0-.369,2.108c.7.127,1.42.236,2.128.349Zm-8.478-1.583a1.072,1.072,0,0,0,1.053-1.731,1.057,1.057,0,0,0-.592-.359q-1.038-.228-2.07-.472a1.071,1.071,0,1,0-.495,2.083q1.051.246,2.1.479Zm-8.369-2.143a1.07,1.07,0,1,0,.611-2.051c-.675-.2-1.351-.408-2.022-.623a1.071,1.071,0,1,0-.66,2.037q1.032.332,2.07.637Zm-8.185-2.823a1.07,1.07,0,1,0,.8-1.986q-.982-.392-1.952-.808a1.071,1.071,0,0,0-1.217,1.7,1.1,1.1,0,0,0,.367.261q1,.428,2,.829Zm-7.873-3.657a1.07,1.07,0,1,0,1.02-1.882q-.924-.5-1.833-1.028a1.07,1.07,0,1,0-1.088,1.844c.625.366,1.262.722,1.9,1.066ZM193.441,184a1.072,1.072,0,0,0,1.66-1.2,1.055,1.055,0,0,0-.37-.512c-.56-.42-1.108-.852-1.651-1.293a1.07,1.07,0,0,0-1.358,1.654c.566.46,1.136.909,1.719,1.347Zm-6.5-5.864a1.071,1.071,0,1,0,1.588-1.437c-.47-.516-.921-1.041-1.362-1.579a1.071,1.071,0,1,0-1.66,1.352c.466.566.94,1.12,1.435,1.663Zm-5.15-7.128a1.07,1.07,0,0,0,1.877-1.029c-.335-.607-.651-1.219-.949-1.845a1.07,1.07,0,1,0-1.936.912c.316.665.652,1.316,1.008,1.962Zm-3.25-8.2a1.071,1.071,0,1,0,2.079-.512q-.252-1-.436-2.022a1.071,1.071,0,0,0-2.084-.1,1.052,1.052,0,0,0-.024.475c.131.726.288,1.447.465,2.163Zm-.987-8.766a1.07,1.07,0,1,0,2.14.054c.016-.691.05-1.379.11-2.068a1.07,1.07,0,1,0-2.132-.193c-.066.731-.1,1.473-.118,2.207Zm1.412-8.716a1.071,1.071,0,1,0,2.044.637c.191-.624.421-1.363.674-1.96a1.071,1.071,0,1,0-2-.766c-.263.682-.5,1.391-.718,2.088Zm3.555-8.03a1.07,1.07,0,1,0,1.853,1.072q.522-.908,1.085-1.789a1.071,1.071,0,0,0-1.8-1.155q-.588.924-1.135,1.872Zm4.984-7.163a1.071,1.071,0,0,0,.9,1.745,1.056,1.056,0,0,0,.754-.39c.444-.544.9-1.074,1.359-1.6a1.071,1.071,0,1,0-1.609-1.414C188.437,129.023,187.968,129.581,187.509,130.142Z" transform="translate(0.759 0.321)" fill="#fff" fill-rule="evenodd"/>
      <g id="Grupo_12331" data-name="Grupo 12331" transform="translate(163.934 137.295)">
        <path id="Trazado_16325" data-name="Trazado 16325" d="M206.442,212.174a.679.679,0,0,1,1.146.727c-.076.122-26.963,41.9-5.727,66.252a.677.677,0,0,1-1.02.892C178.93,254.917,206.364,212.3,206.442,212.174Z" transform="translate(-163.095 -136.488)" fill="#000618" fill-rule="evenodd"/>
        <path id="Trazado_16326" data-name="Trazado 16326" d="M284.353,206.39a.677.677,0,1,1,1.145-.722c.044.068,15.4,23.907-.8,42.221a.677.677,0,1,1-1.013-.9C299.2,229.448,284.394,206.456,284.353,206.39Z" transform="translate(-162.601 -136.523)" fill="#000618" fill-rule="evenodd"/>
        <path id="Trazado_16327" data-name="Trazado 16327" d="M210.786,184.116l-11.325,12.451a45.447,45.447,0,0,1,4.883,22.183c-.539,12.585-42.97,82.343,35.418,81.984s34.775-40.8,34.775-40.8,25.857-8.373,12.8-45.813S210.786,184.116,210.786,184.116Z" transform="translate(-163.095 -136.641)" fill="#000618" fill-rule="evenodd"/>
        <path id="Trazado_16328" data-name="Trazado 16328" d="M275.187,260.531c-.456-.456-.722-.7-.722-.7a16.851,16.851,0,0,0,2.347-1.045,70.626,70.626,0,0,0,6.7-8.845c10.691-16.619-.687-39.467-.687-39.467l-6.05-1.807s-12.047-4.314-15.282-5.393-40.632,1.258-51.239,21.214,1.209,48.887,1.209,48.887,44.1-1.424,46.614-1.6C259.947,271.636,267.2,268.812,275.187,260.531Z" transform="translate(-163.022 -136.535)" fill="#01020e" fill-rule="evenodd"/>
        <path id="Trazado_16329" data-name="Trazado 16329" d="M295.972,271.046c12.594,5.5,14.228,17.013,15.865,29.826,1.451,11.363,1.905,28.51-1.087,54.557s-50.6-34.361-50.6-34.361Z" transform="translate(-162.728 -136.167)" fill="#ef8871" fill-rule="evenodd"/>
        <path id="Trazado_16330" data-name="Trazado 16330" d="M222.44,270.741l-12.224-6.254s-12.916,3.214-19.524,11.52-26.619,79.3-27.375,87.979,5.128,41.769,15.89,41.769,16.115-72.333,16.115-72.333l8.789-27.111Z" transform="translate(-163.253 -136.202)" fill="#f4ad85" fill-rule="evenodd"/>
        <path id="Trazado_16331" data-name="Trazado 16331" d="M222.425,270.741,210.2,264.487a48.375,48.375,0,0,0-8.925,3.428c1.584.765,2.821,2.721,2.676,7.055-.377,11.329-17.653,54.562-21.428,66.645s-6.8,19.257-6.8,19.257l-7.868-16.5c-.711,2.666-1.358,5.165-1.931,7.441,2.944,15.861,6.6,37.606,7.1,50.036,1.825,2.421,3.883,3.908,6.162,3.908,10.761,0,16.115-72.333,16.115-72.333l8.789-27.111Z" transform="translate(-163.238 -136.202)" fill="#ef8871" fill-rule="evenodd"/>
        <path id="Trazado_16332" data-name="Trazado 16332" d="M254.652,255.194s32.483,11.577,41.656,15.938c-.016.017-1.753,1.832-3.726,11.79-1.982,10.007,0,24.544-2.075,38.893-1.5,10.368-8.521,62.819-12.3,91.128l-80.074-6.46c-.024-1.262-.075-2.778-.149-4.5,6.576,5.121,12.879,5.349,8.978-9.609-6.8-26.054-5.477-71.366-3.21-84.959s5.64-27.9,2.431-41.682C208.338,263.794,254.652,255.194,254.652,255.194Z" transform="translate(-163.064 -136.253)" fill="#26aab7" fill-rule="evenodd"/>
        <path id="Trazado_16333" data-name="Trazado 16333" d="M275.965,262.958c8.127,3.048,16.379,6.257,20.323,8.132-.016.017-1.753,1.832-3.726,11.79-1.982,10.007,0,24.544-2.075,38.893-.3,2.076-.823,5.842-1.5,10.758-18.091,2.819-71.529,8.94-84.353,7.8a22.841,22.841,0,0,1-2.738-.413c0-14.138.821-26.49,1.831-32.545.057-.348.117-.7.176-1.045,4.526,13.359,61.513,20.826,61.513,20.826s9.45-20.9,6.995-28.641-13.786-7.525-13.786-7.525l.288-6.918s11.33-15.341,14.052-20.009C273.309,263.477,274.368,263.124,275.965,262.958Z" transform="translate(-163.043 -136.211)" fill="#167377" fill-rule="evenodd"/>
        <path id="Trazado_16334" data-name="Trazado 16334" d="M280.563,264.7l.67.254c-1.443,5.821-3.376,12.65-6.076,16.674a28.741,28.741,0,0,1-9.4,9.361c-4.123,2.391-9.517,3.826-17.048,3.635a25.215,25.215,0,0,1-15.92-6.02A33.131,33.131,0,0,1,222.7,272.773c-2.074-7.237-4.028-9.649-4.693-10.3l.792-.175c.927,1.088,2.747,3.863,4.587,10.282a32.4,32.4,0,0,0,9.859,15.486,24.519,24.519,0,0,0,15.479,5.853c7.384.187,12.656-1.21,16.674-3.539a28.085,28.085,0,0,0,9.17-9.141c2.651-3.952,4.568-10.75,6-16.533Zm13.343,5.321.593.258c-1.562,2.768-3.763,8.581-5.788,20.745-2.425,14.579.354,21.153,2.481,23.92-.023.333-.047.666-.074,1-2.281-2.589-5.731-9.283-3.109-25.036,1.988-11.949,4.236-17.917,5.9-20.886Zm-90.725,41.394q.075-.686.154-1.32c1.826-3.592,8.773-19.4,4.813-45.2.216-.067.442-.134.69-.2,4.553,29.51-5.079,46.155-5.3,46.539a.354.354,0,0,1-.352.186Z" transform="translate(-163.036 -136.214)" fill="#167377" fill-rule="evenodd"/>
        <path id="Trazado_16335" data-name="Trazado 16335" d="M252.015,220.632l.244,0A12.84,12.84,0,0,1,265.231,233.3l.163,26.007c4.715,1.723,10.357,3.813,15.64,5.831-8.314,17.952-18.118,29.815-33.787,26.416-21.464-4.655-20.7-22.677-27.237-29.322,6.106-1.323,13.27-2.762,19.486-3.977l-.155-24.656A12.884,12.884,0,0,1,252.015,220.632Z" transform="translate(-162.945 -136.44)" fill="#ef8871" fill-rule="evenodd"/>
        <path id="Trazado_16336" data-name="Trazado 16336" d="M264.343,228.958a12.567,12.567,0,0,1,.8,4.33L265.3,259.3c4.715,1.723,10.357,3.813,15.64,5.83-6.114,13.2-13.036,23.113-22.5,26.078,15.056-10.154,10.428-22.7,7.219-24.017s-28.69-8.467-28.69-8.467l2.437-.478-.155-24.656a12.913,12.913,0,0,1,4.606-9.965C250.645,223.559,257.407,225.664,264.343,228.958Z" transform="translate(-162.853 -136.424)" fill="#ea745d" fill-rule="evenodd"/>
        <path id="Trazado_16337" data-name="Trazado 16337" d="M280.742,196.13c.25,0,.5.009.745.026l.007,0h0a10.026,10.026,0,1,1-8.025,3.1c.138,2.966,1.087,6.534,4.878,6.4l-.871-5.713A3.446,3.446,0,0,1,280.742,196.13Z" transform="translate(-162.67 -136.573)" fill="#ea745d" fill-rule="evenodd"/>
        <path id="Trazado_16338" data-name="Trazado 16338" d="M209.5,207.366c-.241.066-.479.139-.712.221l-.007,0h0a10.025,10.025,0,1,0,8.558.894c.642,2.9.66,6.592-3.035,7.454l-.655-5.743A3.443,3.443,0,0,0,209.5,207.366Z" transform="translate(-163.042 -136.512)" fill="#ea745d" fill-rule="evenodd"/>
        <path id="Trazado_16339" data-name="Trazado 16339" d="M240.408,152.369h0a34.417,34.417,0,0,1,38.543,29.486l4.117,30.938a34.416,34.416,0,0,1-29.488,38.542h0a34.415,34.415,0,0,1-38.539-29.487l-4.118-30.938A34.414,34.414,0,0,1,240.408,152.369Z" transform="translate(-162.996 -136.812)" fill="#f4ad85" fill-rule="evenodd"/>
        <path id="Trazado_16340" data-name="Trazado 16340" d="M240.408,152.369h0a34.43,34.43,0,0,1,38.038,26.637,14.294,14.294,0,0,1-1.566,5.036l-15.854-.926s-10.435,19.95-31.869,24.8c-5.762,1.3-7.57,7.11-6.392,12.627,2.866,13.436,14.4,32.691,42.807,26.843a34.017,34.017,0,0,1-11.991,3.952h0a34.415,34.415,0,0,1-38.539-29.487l-4.118-30.938A34.414,34.414,0,0,1,240.408,152.369Z" transform="translate(-162.996 -136.812)" fill="#ef8871" fill-rule="evenodd"/>
        <path id="Trazado_16344" data-name="Trazado 16344" d="M285.461,278.024s1.31-.189,1.606.838-4.048,6.549-4.331,6.738-8.9-.9-8.9-.9-.454-.425-.358-.752a1.6,1.6,0,0,1,.416-.613Z" transform="translate(-162.655 -136.129)" fill="#000618" fill-rule="evenodd"/>
        <path id="Trazado_16346" data-name="Trazado 16346" d="M219.518,206.484s.3,2.274.583,4.386-3.77,7.761-5.389,7.975l-1.026-7.706s-1.157-3.443-5.52-2.86C192.73,194.667,191.244,170,203.849,155.43s43.193-19.467,48.789-18.394,12.328,9.431,12.328,9.431,4.008-4.665,8.511-3.117,22.178,26.3,23.064,32.961-10.247,21.569-10.247,21.569c-4.364.58-4.58,4.2-4.58,4.2l.637,4.791c-1.619.216-2.813-1.833-3.094-3.944s-.584-4.385-.584-4.385c-14.238-4.181-21.959-21.562-21.959-21.562S241.879,206.779,219.518,206.484Z" transform="translate(-163.079 -136.894)" fill="#000618" fill-rule="evenodd"/>
        <path id="Trazado_16347" data-name="Trazado 16347" d="M195.381,179.34a37.611,37.611,0,0,1,4.4-18.024c13.959,10.814,36.508,18.055,55.289-23.429a20.44,20.44,0,0,1,3.559,2.308C251.358,161.292,232.775,198.134,195.381,179.34Z" transform="translate(-163.079 -136.888)" fill="#0f1630" fill-rule="evenodd"/>
        <path id="Trazado_16348" data-name="Trazado 16348" d="M219.512,206.291s.3,2.274.583,4.386-3.77,7.761-5.389,7.975l-1.026-7.706s-1.157-3.443-5.52-2.86a37.886,37.886,0,0,1-11.706-19.793c.02.014,26.443,18.367,58.973-15.78,0,0,14.883,23.211,36.658,16.3a100.054,100.054,0,0,1-5.8,8.877c-4.364.58-4.58,4.2-4.58,4.2l.638,4.791c-1.62.216-2.814-1.833-3.095-3.944s-.584-4.385-.584-4.385c-14.238-4.181-21.959-21.562-21.959-21.562S241.873,206.586,219.512,206.291Z" transform="translate(-163.073 -136.701)" fill="#01020e" fill-rule="evenodd"/>
        <path id="Trazado_16349" data-name="Trazado 16349" d="M284.615,251.883l2.227.607s1.3-11.622,1.293-12.748a13.47,13.47,0,0,0-1.447-4.643c-.859-1.9-4.009-9.073-4.178-9.3s-2.206,1.538-1.288,4.681,2.473,7.4,2.459,8.308-2.094,8.96-2.094,8.96Z" transform="translate(-162.615 -136.412)" fill="#ef8871" fill-rule="evenodd"/>
        <path id="Trazado_16350" data-name="Trazado 16350" d="M286.95,251.9a4.95,4.95,0,0,0-2.6-4.314c-2.232-1.354-7.5-5.529-8.627-6.017a3.93,3.93,0,0,0-3.746.584,66.139,66.139,0,0,0-6.441,4.673c-.888.923-3.1,6.61-3.373,7.207s1.956,1.138,3.732-.207c0,0-.93,1.866-1.229,2.5a46.274,46.274,0,0,0-.746,6.416c-.037.975,2.658.488,3.572-1.753,0,0-.147,1.614-.148,2.115s1.541.313,1.541.313,1.778,9.643,2.177,10.846,15.708,56.252,15.708,56.252l22.145-1.337s-24.158-54.028-24.318-54.822C283.233,267.554,286.979,257.614,286.95,251.9Z" transform="translate(-162.717 -136.328)" fill="#f4ad85" fill-rule="evenodd"/>
        <path id="Trazado_16351" data-name="Trazado 16351" d="M268.854,263.341l.095.51h0l.034.185,0,.018,0,.008.005.026.005.027.005.027.005.023v0l.006.028.009.056.006.029v0l.017.087.006.031c.474,2.54,1.662,8.828,1.979,9.785.295.893,8.789,31.393,13.16,47.1a63.5,63.5,0,0,0,8.457-4.163s-17.133-39.882-17.534-41.453.542-2.818.211-3.242-1.653-1.039-1.983-2.172-1.133-5.145-.613-6.749c.4-1.239,1.7-1.087,2.275-.953a15.082,15.082,0,0,0,1.68.421c.859.114.794-.411.794-.411a12.616,12.616,0,0,1,1.913-4.3c-.939-.511-2.394-2.931-2.394-2.931-.959-.414-1.712-.947-2.461-.418a18.54,18.54,0,0,0-2.84,2.885,28.081,28.081,0,0,1-.576,3.733C270.763,262.951,268.854,263.341,268.854,263.341Z" transform="translate(-162.68 -136.256)" fill="#ef8871" fill-rule="evenodd"/>
        <g id="Grupo_12330" data-name="Grupo 12330" transform="translate(0.329 176.878)">
          <path id="Trazado_16352" data-name="Trazado 16352" d="M170.352,414.642H330.9a4.676,4.676,0,0,0,4.484-4.824h0a4.676,4.676,0,0,0-4.484-4.823H170.352a4.677,4.677,0,0,0-4.484,4.823h0A4.677,4.677,0,0,0,170.352,414.642Z" transform="translate(-163.567 -312.32)" fill="#000618" fill-rule="evenodd"/>
          <path id="Trazado_16353" data-name="Trazado 16353" d="M333.822,312.819H167.452a3.786,3.786,0,0,0-3.822,4.5l12.716,84.453a5.438,5.438,0,0,0,5.176,4.5h138.23a5.439,5.439,0,0,0,5.177-4.5l12.716-84.453A3.786,3.786,0,0,0,333.822,312.819Z" transform="translate(-163.58 -312.819)" fill="#3c4973" fill-rule="evenodd"/>
          <path id="Trazado_16354" data-name="Trazado 16354" d="M330.1,316.789H171.131a3.618,3.618,0,0,0-3.652,4.3l12.15,80.7a5.2,5.2,0,0,0,4.946,4.3H316.656a5.2,5.2,0,0,0,4.947-4.3l12.15-80.7A3.618,3.618,0,0,0,330.1,316.789Z" transform="translate(-163.559 -312.798)" fill="#7d6eb2" fill-rule="evenodd"/>
          <path id="Trazado_16355" data-name="Trazado 16355" d="M176.465,381.085l3.116,20.7a5.2,5.2,0,0,0,4.946,4.3H316.607a5.2,5.2,0,0,0,4.947-4.3l12.15-80.7A3.612,3.612,0,0,0,331.354,317C313.158,348.391,268.442,399.806,176.465,381.085Z" transform="translate(-163.51 -312.796)" fill="#3c4973" fill-rule="evenodd"/>
          <path id="Trazado_16356" data-name="Trazado 16356" d="M250.263,384.424c9.739,0,17.682-6.631,17.682-14.761S260,354.9,250.263,354.9s-17.681,6.631-17.681,14.76S240.525,384.424,250.263,384.424Z" transform="translate(-163.206 -312.591)" fill="#000618" fill-rule="evenodd"/>
          <path id="Trazado_16357" data-name="Trazado 16357" d="M250.24,358.429a14.1,14.1,0,0,1,11.6,5.554L241.283,378a10.484,10.484,0,0,1-4.478-8.358c0-6.193,6.015-11.215,13.435-11.215Zm10.915,17.756-6.173-3.4-10.3,7.073a15.635,15.635,0,0,0,5.554,1A14.377,14.377,0,0,0,261.155,376.185Z" transform="translate(-163.183 -312.572)" fill="#fff" fill-rule="evenodd"/>
        </g>
        <path id="Trazado_16360" data-name="Trazado 16360" d="M12.5,1.282a1.043,1.043,0,0,1,.2,1.438,1,1,0,0,1-1.422.087c-.01-.009-3.438-3-9.546,2.626A1.023,1.023,0,0,1,.3,5.32,1.016,1.016,0,0,1,.295,3.883C7.67-2.908,12.489,1.271,12.5,1.282Z" transform="matrix(-0.966, 0.259, -0.259, -0.966, 99.989, 93.165)" fill="#ef8871" fill-rule="evenodd"/>
        <path id="Trazado_16361" data-name="Trazado 16361" d="M286.279,278.219a.647.647,0,0,1,.516.619c.07.566-3.353,5.015-12.934,5.352,0,0-.229-.071-.264-.218s.116-.312.116-.312l-.049-.179s-.345.247-.345.543,1.417,6.212,1.7,7.7,3.194,1.143,5.656.547,8.331-2.65,9.872-5.832a3.078,3.078,0,0,0-.047-1.488c-.236-.685-3.209-6.194-3.363-6.525a.919.919,0,0,0-.955-.429Z" transform="translate(-162.656 -136.129)" fill="#0f1630" fill-rule="evenodd"/>
        <path id="Trazado_16362" data-name="Trazado 16362" d="M278.409,283.634a27.053,27.053,0,0,1-4.548.527s-.229-.071-.264-.218.116-.312.116-.312l-.049-.179s-.345.247-.345.543,1.417,6.213,1.7,7.7,3.194,1.143,5.656.547c.349-.084.769-.2,1.236-.342l-3.5-8.265Z" transform="translate(-162.656 -136.1)" fill="#000618" fill-rule="evenodd"/>
      </g>
      <g id="Grupo_12332" data-name="Grupo 12332" transform="translate(97.94 411.671)">
        <path id="Trazado_16363" data-name="Trazado 16363" d="M118.154,419.136h265.2a6.074,6.074,0,0,1,6.056,6.057h0a6.074,6.074,0,0,1-6.056,6.057h-265.2a6.074,6.074,0,0,1-6.057-6.057h0A6.075,6.075,0,0,1,118.154,419.136Z" transform="translate(-97.535 -409.74)" fill-rule="evenodd" fill="url(#linear-gradient-2)"/>
        <path id="Rectángulo_2800" data-name="Rectángulo 2800" d="M7.684,0H298.75a7.684,7.684,0,0,1,7.684,7.684v.085a7.684,7.684,0,0,1-7.684,7.684H7.685A7.685,7.685,0,0,1,0,7.768V7.684A7.684,7.684,0,0,1,7.684,0Z" fill="url(#linear-gradient-2)"/>
        <rect id="Rectángulo_2801" data-name="Rectángulo 2801" width="16.075" height="15.452" transform="translate(184.096)" fill="url(#linear-gradient-2)"/>
        <rect id="Rectángulo_2802" data-name="Rectángulo 2802" width="8.351" height="15.452" transform="translate(208.522)" fill="url(#linear-gradient-2)"/>
        <rect id="Rectángulo_2803" data-name="Rectángulo 2803" width="4.176" height="15.452" transform="translate(225.641)" fill="url(#linear-gradient-2)"/>
        <rect id="Rectángulo_2804" data-name="Rectángulo 2804" width="17.982" height="15.452" transform="translate(244.117)" fill="url(#linear-gradient-2)"/>
        <rect id="Rectángulo_2805" data-name="Rectángulo 2805" width="8.991" height="15.452" transform="translate(275.655)" fill="url(#linear-gradient-2)"/>
        <rect id="Rectángulo_2806" data-name="Rectángulo 2806" width="150.607" height="9.185" rx="4.567" transform="translate(3.758 2.509)" fill="url(#linear-gradient-2)"/>
      </g>
      <g id="Grupo_12333" data-name="Grupo 12333" transform="translate(188.249 83.125)">
        <path id="Trazado_16364" data-name="Trazado 16364" d="M199.184,98.493l3.306,19.029,42.9-34.506-44.8,11.015Z" transform="translate(-187.372 -83.016)" fill="#d5eaf5" fill-rule="evenodd"/>
        <path id="Trazado_16365" data-name="Trazado 16365" d="M202.472,117.426l16.544-13.307a26.607,26.607,0,0,1,.773-3.374l-13.9,3.735Z" transform="translate(-187.355 -82.92)" fill="#ecf6fc" fill-rule="evenodd"/>
        <path id="Trazado_16366" data-name="Trazado 16366" d="M245.454,83.016,187.436,93.747l11.811,4.745Z" transform="translate(-187.436 -83.016)" fill="#fff" fill-rule="evenodd"/>
        <path id="Trazado_16367" data-name="Trazado 16367" d="M245.354,83.016l-26.073,34.64-13.411-13.079Z" transform="translate(-187.336 -83.016)" fill="#fff" fill-rule="evenodd"/>
      </g>
      <g id="Grupo_12335" data-name="Grupo 12335" transform="translate(94.865 239.305)">
        <path id="Trazado_16368" data-name="Trazado 16368" d="M97.07,260.411a75.815,75.815,0,0,1,17.581-2.061h0a15.366,15.366,0,0,0,15.321-15.321h0a15.175,15.175,0,0,0-.154-2.162h24.229a6.666,6.666,0,0,1,6.647,6.647V294.4a.743.743,0,0,1-1.267.526L148.1,283.6H103.717a6.666,6.666,0,0,1-6.647-6.647Z" transform="translate(-94.542 -238.34)" fill="#7d6eb2" fill-rule="evenodd"/>
        <path id="Trazado_16369" data-name="Trazado 16369" d="M101.2,238.354h50.329A6.666,6.666,0,0,1,158.179,245v46.887a.742.742,0,0,1-1.267.525l-11.326-11.327H101.2a6.666,6.666,0,0,1-6.647-6.646V245A6.666,6.666,0,0,1,101.2,238.354Z" transform="translate(-94.556 -238.354)" fill="#ffd947" fill-rule="evenodd"/>
        <g id="Grupo_12334" data-name="Grupo 12334" transform="translate(8.826 4.29)">
          <path id="Trazado_16370" data-name="Trazado 16370" d="M133.241,250.318l8.327.033A7.545,7.545,0,0,1,147,252.705a8.086,8.086,0,0,1,2.238,5.6v.028c0,.034,0,.068-.005.1a7.981,7.981,0,0,1-2.26,5.451,7.572,7.572,0,0,1-5.43,2.323h-.025c-.032,0-.064,0-.1-.005l-8.238-.032L118.5,273.529a1.972,1.972,0,0,1-2-.112,2.048,2.048,0,0,1-.7-.762,2.086,2.086,0,0,1-.239-.987l.1-26.972a2.092,2.092,0,0,1,.246-1,2.054,2.054,0,0,1,.7-.755,2.014,2.014,0,0,1,.99-.32,1.98,1.98,0,0,1,1.01.219l.078.044,14.552,7.43Zm8.327,2.121-8.579-.033a1.048,1.048,0,0,1-.475-.116l-14.767-7.54-.1,26.869,14.792-7.41a1.036,1.036,0,0,1,.5-.126l8.487.033.113,0a5.49,5.49,0,0,0,3.932-1.684,5.9,5.9,0,0,0,1.67-4.017l0-.109a5.976,5.976,0,0,0-1.65-4.147A5.456,5.456,0,0,0,141.568,252.439Z" transform="translate(-103.269 -242.621)" fill="#7d6eb2" fill-rule="evenodd"/>
          <path id="Trazado_16371" data-name="Trazado 16371" d="M143.3,264.761v9.4a3.361,3.361,0,0,1-3.351,3.351h0a3.361,3.361,0,0,1-3.351-3.351v-9.139l4.8.018A6.4,6.4,0,0,0,143.3,264.761Z" transform="translate(-103.155 -242.501)" fill="#7d6eb2" fill-rule="evenodd"/>
          <rect id="Rectángulo_2807" data-name="Rectángulo 2807" width="1.572" height="13.771" transform="translate(31.275 8.748)" fill="#7d6eb2"/>
          <rect id="Rectángulo_2808" data-name="Rectángulo 2808" width="1.572" height="13.771" transform="translate(36.313 8.748)" fill="#7d6eb2"/>
          <path id="Trazado_16372" data-name="Trazado 16372" d="M112.6,253.724a1.047,1.047,0,0,1-.353,2.063l-8.041-1.4a1.046,1.046,0,1,1,.352-2.063l8.042,1.4Zm-.631,12.982a1.046,1.046,0,0,1,.91,1.883l-5.3,2.558a1.046,1.046,0,1,1-.909-1.883l5.3-2.558Zm.91-18.95a1.046,1.046,0,1,1-.91,1.883l-6.056-2.924a1.046,1.046,0,0,1,.909-1.883l6.057,2.924Zm-.631,12.8a1.046,1.046,0,0,1,.353,2.062l-8.042,1.4a1.046,1.046,0,1,1-.352-2.063Z" transform="translate(-103.335 -242.61)" fill="#7d6eb2" fill-rule="evenodd"/>
        </g>
      </g>
      <g id="Grupo_12340" data-name="Grupo 12340" transform="translate(319.589 119.489)">
        <path id="Trazado_16373" data-name="Trazado 16373" d="M380.337,119.184H327.973a6.934,6.934,0,0,0-6.914,6.914v48.78a.771.771,0,0,0,1.317.546l11.785-11.783h46.176a6.935,6.935,0,0,0,6.914-6.915V126.1A6.934,6.934,0,0,0,380.337,119.184Z" transform="translate(-318.053 -119.184)" fill="#7d6eb2" fill-rule="evenodd"/>
        <path id="Trazado_16374" data-name="Trazado 16374" d="M377.345,119.184H324.984a6.935,6.935,0,0,0-6.915,6.914v48.78a.772.772,0,0,0,1.318.546l11.784-11.783h46.175a6.934,6.934,0,0,0,6.915-6.915V126.1A6.934,6.934,0,0,0,377.345,119.184Z" transform="translate(-318.069 -119.184)" fill="#ffd947" fill-rule="evenodd"/>
        <g id="Grupo_12338" data-name="Grupo 12338" transform="translate(12.958 11.313)">
          <g id="Grupo_12336" data-name="Grupo 12336">
            <path id="Trazado_16375" data-name="Trazado 16375" d="M338.01,140.4a4.983,4.983,0,1,0-4.983-4.982A4.991,4.991,0,0,0,338.01,140.4Z" transform="translate(-330.946 -130.436)" fill="#7d6eb2" fill-rule="evenodd"/>
            <path id="Trazado_16376" data-name="Trazado 16376" d="M338.021,141.917h0a7.085,7.085,0,0,1,7.065,7.064v6.892a.793.793,0,0,1-.791.79H331.746a.792.792,0,0,1-.789-.79v-6.892A7.085,7.085,0,0,1,338.021,141.917Z" transform="translate(-330.957 -130.374)" fill="#7d6eb2" fill-rule="evenodd"/>
          </g>
          <g id="Grupo_12337" data-name="Grupo 12337" transform="translate(26.149)">
            <path id="Trazado_16377" data-name="Trazado 16377" d="M364.017,140.4a4.983,4.983,0,1,0-4.982-4.982A4.992,4.992,0,0,0,364.017,140.4Z" transform="translate(-356.954 -130.436)" fill="#7d6eb2" fill-rule="evenodd"/>
            <path id="Trazado_16378" data-name="Trazado 16378" d="M364.028,141.917h0a7.086,7.086,0,0,1,7.065,7.064v6.892a.793.793,0,0,1-.791.79H357.754a.791.791,0,0,1-.789-.79v-6.892A7.084,7.084,0,0,1,364.028,141.917Z" transform="translate(-356.965 -130.374)" fill="#7d6eb2" fill-rule="evenodd"/>
          </g>
        </g>
        <g id="Grupo_12339" data-name="Grupo 12339" transform="translate(24.599 5.981)">
          <path id="Trazado_16379" data-name="Trazado 16379" d="M351.019,137.119a5.993,5.993,0,1,0-5.993-5.993A6,6,0,0,0,351.019,137.119Z" transform="translate(-342.522 -125.133)" fill="#7d6eb2" fill-rule="evenodd"/>
          <path id="Trazado_16380" data-name="Trazado 16380" d="M351.033,138.942h0a8.521,8.521,0,0,1,8.5,8.5v8.29a.952.952,0,0,1-.95.95H343.485a.953.953,0,0,1-.95-.95v-8.29A8.523,8.523,0,0,1,351.033,138.942Z" transform="translate(-342.535 -125.058)" fill="#7d6eb2" fill-rule="evenodd"/>
        </g>
      </g>
      <path id="Trazado_16381" data-name="Trazado 16381" d="M423.521,264.583a17.792,17.792,0,1,1-12.58,5.211,17.739,17.739,0,0,1,12.58-5.211Zm15.864,18.74h-7.26a35.227,35.227,0,0,1-.605,5.766,21.664,21.664,0,0,1,5.328,1.948,15.8,15.8,0,0,0,2.538-7.715Zm-9.158,0H424.47v4.887a35.5,35.5,0,0,1,5.191.5,33.3,33.3,0,0,0,.565-5.387Zm-7.654,0h-5.755a33.083,33.083,0,0,0,.564,5.387,35.514,35.514,0,0,1,5.191-.5v-4.887Zm-7.654,0h-7.261a15.815,15.815,0,0,0,2.539,7.715,21.635,21.635,0,0,1,5.328-1.948,35.227,35.227,0,0,1-.605-5.766Zm-7.261-1.9h7.261a35.823,35.823,0,0,1,.45-4.9,21.038,21.038,0,0,1-5.587-2.143,15.807,15.807,0,0,0-2.124,7.04Zm9.571-4.508a33.879,33.879,0,0,0-.41,4.508h5.755v-3.981a35.538,35.538,0,0,1-5.345-.527Zm12.588,0a35.539,35.539,0,0,1-5.345.527v3.981h5.756a33.688,33.688,0,0,0-.411-4.508Zm2.308,4.508h7.261a15.8,15.8,0,0,0-2.122-7.04,21.079,21.079,0,0,1-5.589,2.143,35.669,35.669,0,0,1,.45,4.9Zm-7.653-14.77v8.89a33.968,33.968,0,0,0,4.985-.491,21.8,21.8,0,0,0-1.375-4.2c-.676-1.482-1.92-3.591-3.609-4.2Zm0,23.455v7.983c1.689-.613,2.934-2.722,3.609-4.2a20.818,20.818,0,0,0,1.162-3.326,33.878,33.878,0,0,0-4.772-.452Zm-1.9,7.983V290.11a33.907,33.907,0,0,0-4.773.452,20.634,20.634,0,0,0,1.164,3.326c.674,1.484,1.92,3.592,3.608,4.2Zm0-22.549v-8.89c-1.688.612-2.935,2.722-3.609,4.2a21.8,21.8,0,0,0-1.376,4.2,33.967,33.967,0,0,0,4.986.491ZM410.835,272.8a19.338,19.338,0,0,0,4.9,1.861,23.738,23.738,0,0,1,1.508-4.591A14.025,14.025,0,0,1,419,267.135a15.953,15.953,0,0,0-8.161,5.667Zm20.476,1.861a19.338,19.338,0,0,0,4.9-1.861,16.069,16.069,0,0,0-1.449-1.665,15.894,15.894,0,0,0-6.711-4,14.114,14.114,0,0,1,1.758,2.937,23.942,23.942,0,0,1,1.506,4.591Zm4.393,17.917a19.975,19.975,0,0,0-4.6-1.64,23.029,23.029,0,0,1-1.3,3.735,14.028,14.028,0,0,1-1.759,2.938,15.9,15.9,0,0,0,6.712-4q.495-.5.945-1.033Zm-19.765-1.64a19.834,19.834,0,0,0-4.6,1.64q.449.535.946,1.033a15.873,15.873,0,0,0,6.711,4,14.073,14.073,0,0,1-1.757-2.937A22.985,22.985,0,0,1,415.939,290.939Z" transform="translate(1.995 1.093)" fill="#fff" fill-rule="evenodd"/>
      <path id="Trazado_16382" data-name="Trazado 16382" d="M76.457,183.71a6.471,6.471,0,0,1,2.556-2.663,3.952,3.952,0,0,0,1.933-2.594,16.75,16.75,0,0,0,.394-4.346,1,1,0,0,1,1-1h1.705a1.769,1.769,0,0,1,.513.081,3.685,3.685,0,0,1,1.85,1.724,6.467,6.467,0,0,1,.806,3.16,7.229,7.229,0,0,1-.334,2.157,5.731,5.731,0,0,0-.376,2.384.781.781,0,0,0,.291.04H91.07a5.609,5.609,0,0,1,1.452.18,3.424,3.424,0,0,1,1.719,1.022,3.309,3.309,0,0,1,.778,2.248,5.832,5.832,0,0,1-.155,1.285c.617,1.589.741,3.563-.512,4.864a3.954,3.954,0,0,1-1.36,3.547,4.2,4.2,0,0,1-4.112,3.053H81.039a6.6,6.6,0,0,1-3.766-1.532,2.26,2.26,0,0,1-.586,1l-.035.032a2.206,2.206,0,0,1-1.519.606H71.568a2.221,2.221,0,0,1-2.219-2.219V185.486a2.219,2.219,0,0,1,.666-1.581l.032-.03a2.213,2.213,0,0,1,1.521-.606h3.564a2.212,2.212,0,0,1,1.325.441Zm.893,11.058c.9.907,2.406,2.1,3.689,2.1H88.88a2.3,2.3,0,0,0,2.285-1.9,1,1,0,0,1,.53-.689c.723-.362.745-1.552.641-2.217a.987.987,0,0,1,.384-1.006c.946-.7.625-2.209.221-3.108a.978.978,0,0,1-.084-.727,4.355,4.355,0,0,0,.169-1.107,1.414,1.414,0,0,0-.281-.937,1.506,1.506,0,0,0-.74-.41,3.628,3.628,0,0,0-.936-.11H86.792a2.048,2.048,0,0,1-2.116-1.252c-.446-1.079-.029-2.7.3-3.758a5.257,5.257,0,0,0,.244-1.564,4.442,4.442,0,0,0-.546-2.179,2.257,2.257,0,0,0-.685-.794h-.665a15.585,15.585,0,0,1-.462,3.887,5.866,5.866,0,0,1-2.906,3.81,6.082,6.082,0,0,0-2.607,4.327v7.641Zm-2.218-9.507H71.568a.208.208,0,0,0-.137.043l-.022.025a.22.22,0,0,0-.067.157v11.256a.227.227,0,0,0,.067.16.224.224,0,0,0,.159.066h3.564a.2.2,0,0,0,.134-.041l.024-.025a.229.229,0,0,0,.067-.16V185.486a.226.226,0,0,0-.068-.159A.223.223,0,0,0,75.132,185.261Z" transform="translate(0.173 0.597)" fill="#fff" fill-rule="evenodd"/>
      <g id="Grupo_12341" data-name="Grupo 12341" transform="translate(359.049 90.546)">
        <rect id="Rectángulo_2809" data-name="Rectángulo 2809" width="5.664" height="5.664" rx="1.314" transform="translate(0 11.422)" fill="#fff"/>
        <rect id="Rectángulo_2810" data-name="Rectángulo 2810" width="5.664" height="5.664" rx="1.314" transform="translate(10.477 11.422)" fill="#a6cae4"/>
        <path id="Rectángulo_2811" data-name="Rectángulo 2811" d="M1.314,0H4.349A1.314,1.314,0,0,1,5.663,1.314V4.35A1.314,1.314,0,0,1,4.349,5.664H1.313A1.313,1.313,0,0,1,0,4.351V1.314A1.314,1.314,0,0,1,1.314,0Z" transform="translate(20.956 11.422)" fill="#fff"/>
        <rect id="Rectángulo_2812" data-name="Rectángulo 2812" width="5.664" height="5.664" rx="1.314" transform="translate(31.433 11.422)" fill="#a6cae4"/>
        <rect id="Rectángulo_2813" data-name="Rectángulo 2813" width="5.663" height="5.664" rx="1.314" transform="translate(41.911 11.422)" fill="#fff"/>
        <rect id="Rectángulo_2814" data-name="Rectángulo 2814" width="5.664" height="5.664" rx="1.314" transform="translate(52.389 11.422)" fill="#fff"/>
        <rect id="Rectángulo_2815" data-name="Rectángulo 2815" width="5.664" height="5.664" rx="1.314" transform="translate(62.866 11.422)" fill="#fff"/>
        <rect id="Rectángulo_2816" data-name="Rectángulo 2816" width="5.664" height="5.663" rx="1.314" transform="translate(31.812)" fill="#fff"/>
        <rect id="Rectángulo_2817" data-name="Rectángulo 2817" width="5.664" height="5.663" rx="1.314" transform="translate(42.29)" fill="#a6cae4"/>
        <rect id="Rectángulo_2818" data-name="Rectángulo 2818" width="5.664" height="5.663" rx="1.314" transform="translate(52.768)" fill="#fff"/>
        <path id="Rectángulo_2819" data-name="Rectángulo 2819" d="M1.314,0H4.349A1.314,1.314,0,0,1,5.663,1.314V4.35A1.314,1.314,0,0,1,4.35,5.663H1.313A1.313,1.313,0,0,1,0,4.35V1.314A1.314,1.314,0,0,1,1.314,0Z" transform="translate(41.911 23.694)" fill="#fff"/>
        <path id="Rectángulo_2820" data-name="Rectángulo 2820" d="M1.313,0H4.35A1.314,1.314,0,0,1,5.663,1.314V4.35A1.313,1.313,0,0,1,4.35,5.663H1.314A1.314,1.314,0,0,1,0,4.35V1.313A1.313,1.313,0,0,1,1.313,0Z" transform="translate(52.389 23.694)" fill="#a6cae4"/>
      </g>
      <path id="Trazado_16383" data-name="Trazado 16383" d="M147.444,193.346h0a7.784,7.784,0,0,1,10.979,0l.746.745.745-.745a7.786,7.786,0,0,1,10.98,0h0a7.786,7.786,0,0,1,0,10.98l-.745.745-10.98,10.98-10.98-10.98-.745-.745A7.786,7.786,0,0,1,147.444,193.346Z" transform="translate(0.584 0.695)" fill="#fff" fill-rule="evenodd"/>
      <g id="Grupo_12347" data-name="Grupo 12347" transform="translate(104.538 320.067)">
        <g id="Grupo_12345" data-name="Grupo 12345">
          <g id="Grupo_12342" data-name="Grupo 12342" transform="translate(15.383)">
            <path id="Trazado_16384" data-name="Trazado 16384" d="M132.762,321.631c-8.053-8.2-14.044,2.216-13.207,12.672.792,9.912,9.337,43.925,7.754,58.235h3.271C138.583,374.189,143.071,332.128,132.762,321.631Z" transform="translate(-119.476 -318.681)" fill="#63a9ba" fill-rule="evenodd"/>
            <path id="Trazado_16385" data-name="Trazado 16385" d="M129.339,392.514c7.79-28.921-2.072-68.9-2.105-69.034a.462.462,0,0,0-.9.218c.033.136,9.907,40.158,2.058,68.816Z" transform="translate(-119.439 -318.657)" fill="#80b9c9" fill-rule="evenodd"/>
          </g>
          <g id="Grupo_12343" data-name="Grupo 12343" transform="translate(0 19.889)">
            <path id="Trazado_16386" data-name="Trazado 16386" d="M112.976,339.6c-8.486-4.5-10.626,5.314-7.317,13.43,2.742,6.726,14.855,26.622,19.435,39.405h4.313C129.774,374.765,122.994,344.9,112.976,339.6Z" transform="translate(-104.176 -338.463)" fill="#fff" fill-rule="evenodd"/>
            <path id="Trazado_16387" data-name="Trazado 16387" d="M127.809,392.41c-2.807-23.893-18.7-49.863-18.754-49.957a.386.386,0,1,0-.661.4c.056.094,15.844,25.9,18.648,49.556Z" transform="translate(-104.154 -338.443)" fill="#b8b8c1" fill-rule="evenodd"/>
          </g>
          <g id="Grupo_12344" data-name="Grupo 12344" transform="translate(26.312 31.563)">
            <path id="Trazado_16388" data-name="Trazado 16388" d="M148.7,350.871c8.225-3.592,9.528,5.7,5.875,13.031-2.472,4.961-11.382,17.661-17.383,28.465h-6.848C132.689,376.023,140.2,354.585,148.7,350.871Z" transform="translate(-130.347 -350.074)" fill="#3a7f80" fill-rule="evenodd"/>
            <path id="Trazado_16389" data-name="Trazado 16389" d="M132.779,392.349c5.839-19.8,19.288-38.463,19.342-38.539a.361.361,0,0,1,.588.42c-.054.074-13.361,18.541-19.186,38.118Z" transform="translate(-130.334 -350.055)" fill="#51a5a5" fill-rule="evenodd"/>
          </g>
        </g>
        <g id="Grupo_12346" data-name="Grupo 12346" transform="translate(10.433 66.142)">
          <path id="Rectángulo_2821" data-name="Rectángulo 2821" d="M1.538,0H29.992A1.538,1.538,0,0,1,31.53,1.538V8.575a1.539,1.539,0,0,1-1.539,1.539H1.538A1.538,1.538,0,0,1,0,8.576V1.538A1.538,1.538,0,0,1,1.538,0Z" fill="url(#linear-gradient-11)"/>
          <path id="Trazado_16390" data-name="Trazado 16390" d="M120.969,390.147H139.65l4.878,4.4L140.543,409.9H120.076l-3.984-15.348Z" transform="translate(-114.545 -384.436)" fill-rule="evenodd" fill="url(#linear-gradient-11)"/>
          <path id="Trazado_16391" data-name="Trazado 16391" d="M144.528,394.525l-.819,3.155h-26.8l-.819-3.155Z" transform="translate(-114.545 -384.412)" fill-rule="evenodd" fill="url(#linear-gradient-11)"/>
        </g>
      </g>
      <circle id="Elipse_641" data-name="Elipse 641" cx="2.643" cy="2.643" r="2.643" transform="translate(277.585 99.419)" fill="#a6cae4"/>
      <circle id="Elipse_642" data-name="Elipse 642" cx="2.643" cy="2.643" r="2.643" transform="translate(320.631 250.832)" fill="#a6cae4"/>
      <circle id="Elipse_643" data-name="Elipse 643" cx="2.643" cy="2.643" r="2.643" transform="translate(374.249 361.089)" fill="#a6cae4"/>
      <circle id="Elipse_644" data-name="Elipse 644" cx="2.643" cy="2.643" r="2.643" transform="translate(66.135 339.944)" fill="#a6cae4"/>
      <path id="Trazado_16392" data-name="Trazado 16392" d="M384.089,184.5a2.643,2.643,0,1,0-2.643-2.643A2.648,2.648,0,0,0,384.089,184.5Z" transform="translate(1.864 0.63)" fill="#a6cae4" fill-rule="evenodd"/>
      <circle id="Elipse_645" data-name="Elipse 645" cx="2.643" cy="2.643" r="2.643" transform="translate(145.429 162.476)" fill="#a6cae4"/>
      <circle id="Elipse_646" data-name="Elipse 646" cx="2.643" cy="2.643" r="2.643" transform="translate(139.009 314.268)" fill="#fff"/>
      <circle id="Elipse_647" data-name="Elipse 647" cx="2.643" cy="2.643" r="2.643" transform="translate(391.618 301.052)" fill="#fff"/>
      <path id="Trazado_16393" data-name="Trazado 16393" d="M339.775,193.889a2.643,2.643,0,1,0-2.644-2.643A2.648,2.648,0,0,0,339.775,193.889Z" transform="translate(1.624 0.681)" fill="#fff" fill-rule="evenodd"/>
      <circle id="Elipse_648" data-name="Elipse 648" cx="2.643" cy="2.643" r="2.643" transform="translate(317.232 91.489)" fill="#fff"/>
      <circle id="Elipse_649" data-name="Elipse 649" cx="2.643" cy="2.643" r="2.643" transform="translate(423.713 157.945)" fill="#fff"/>
      <g id="Grupo_12348" data-name="Grupo 12348" transform="translate(351.553 355.918)">
        <path id="Trazado_16394" data-name="Trazado 16394" d="M382.353,384.49a8.64,8.64,0,1,1-6.111,2.532,8.618,8.618,0,0,1,6.111-2.532Zm3.726,4.917a5.27,5.27,0,1,0,1.542,3.725A5.256,5.256,0,0,0,386.079,389.407Z" transform="translate(-349.731 -354.176)" fill="#d2b236" fill-rule="evenodd"/>
        <path id="Trazado_16395" data-name="Trazado 16395" d="M368.694,410.072h0a13.591,13.591,0,0,0,13.554-13.554V382.392a1.2,1.2,0,0,0-1.2-1.2H356.341a1.2,1.2,0,0,0-1.2,1.2v14.125A13.591,13.591,0,0,0,368.694,410.072Z" transform="translate(-349.831 -354.194)" fill="#ffd947" fill-rule="evenodd"/>
        <path id="Trazado_16396" data-name="Trazado 16396" d="M377.571,394.825a13.443,13.443,0,0,1-.655,4.154,13.3,13.3,0,0,1-.9,2.133,13.682,13.682,0,0,1-6.816,6.232,13.514,13.514,0,0,1-7.4.852,13.483,13.483,0,0,0,14.995-.852,13.715,13.715,0,0,0,3.645-4.138,13.44,13.44,0,0,0,1.776-6.687V382.392a1.2,1.2,0,0,0-1.2-1.2h-3.441v13.63Z" transform="translate(-349.795 -354.194)" fill="#d2b236" fill-rule="evenodd"/>
        <path id="Trazado_16397" data-name="Trazado 16397" d="M356.948,409.936h23.494a1.812,1.812,0,0,0,1.807-1.807h0a1.812,1.812,0,0,0-1.807-1.808H356.948a1.812,1.812,0,0,0-1.806,1.808h0A1.812,1.812,0,0,0,356.948,409.936Z" transform="translate(-349.831 -354.057)" fill="#d2b236" fill-rule="evenodd"/>
        <path id="Rectángulo_2822" data-name="Rectángulo 2822" d="M2.271,0H2.3a2.27,2.27,0,0,1,2.27,2.27v8.2a2.27,2.27,0,0,1-2.27,2.27H2.271A2.271,2.271,0,0,1,0,10.472v-8.2A2.271,2.271,0,0,1,2.271,0Z" transform="translate(7.368 29.576)" fill="#d2b236"/>
        <path id="Trazado_16398" data-name="Trazado 16398" d="M357.147,364.629H367.48A1.429,1.429,0,0,0,368.9,363.2h0a1.429,1.429,0,0,0-1.425-1.424h-13.9a3.733,3.733,0,0,1-3.721-3.721h0a3.731,3.731,0,0,1,3.721-3.72h36.143a3.731,3.731,0,0,1,3.72,3.72h0a3.732,3.732,0,0,1-3.72,3.721H377.118a1.428,1.428,0,0,0-1.425,1.424h0a1.429,1.429,0,0,0,1.425,1.425h4.85a2.88,2.88,0,0,1,2.871,2.871h0a2.879,2.879,0,0,1-2.871,2.87h-8.022a5.726,5.726,0,0,0-5.708,5.709V378.7a1.351,1.351,0,0,1-1.348,1.347h0a1.351,1.351,0,0,1-1.348-1.347v-4.979a3.357,3.357,0,0,0-3.346-3.347h-5.048a2.879,2.879,0,0,1-2.87-2.87h0A2.879,2.879,0,0,1,357.147,364.629Z" transform="translate(-349.86 -354.339)" fill="#fff" fill-rule="evenodd"/>
      </g>
    </g>
  </g>
</svg>
