<svg xmlns="http://www.w3.org/2000/svg" xmlns:xlink="http://www.w3.org/1999/xlink" width="109.714" height="109.746" viewBox="0 0 109.714 109.746">
  <defs>
    <linearGradient id="linear-gradient" x1="0.5" x2="0.5" y2="1" gradientUnits="objectBoundingBox">
      <stop offset="0" stop-color="#fff"/>
      <stop offset="1" stop-color="#d2e6ee"/>
    </linearGradient>
  </defs>
  <g id="Grupo_14490" data-name="Grupo 14490" transform="translate(-0.073 0)">
    <g id="Grupo_14488" data-name="Grupo 14488" transform="translate(1.683 1.446)">
      <path id="Trazado_24362" data-name="Trazado 24362" d="M151.441,297.549l7.984-1.82a6.4,6.4,0,0,0,4.975-6.369l-.154-7.753-12.766,2.91Z" transform="translate(-120.606 -222.692)" fill="url(#linear-gradient)"/>
      <path id="Trazado_24363" data-name="Trazado 24363" d="M113.325,324.055c-5.911-14.749-7.855-31.092-3.959-45.228l12.127,3.344.008-.031a36.9,36.9,0,0,0-.592,12.139,34.865,34.865,0,0,0,7.461,18.291,6.057,6.057,0,0,1-.945,8.473l-6.209,5.036a5.064,5.064,0,0,1-7.89-2.024Z" transform="translate(-85.958 -220.507)" fill="#6b5e9a"/>
      <path id="Trazado_24364" data-name="Trazado 24364" d="M133.759,312.569a34.863,34.863,0,0,1-7.461-18.291,36.9,36.9,0,0,1,.592-12.139l-.008.031-12.127-3.344c-.2.732-.384,1.472-.555,2.215l4.093,1.129.008-.031a36.9,36.9,0,0,0-.592,12.139,34.863,34.863,0,0,0,7.461,18.291,6.057,6.057,0,0,1-.945,8.473l-4.964,4.026a5.075,5.075,0,0,0,7.343,1.01l6.209-5.036a6.056,6.056,0,0,0,.945-8.472Z" transform="translate(-91.348 -220.507)" fill="#7d6eb2"/>
      <g id="Grupo_14487" data-name="Grupo 14487">
        <g id="Grupo_14486" data-name="Grupo 14486">
          <g id="Grupo_14485" data-name="Grupo 14485">
            <path id="Trazado_24365" data-name="Trazado 24365" d="M269.4,98.647c-5.487-10.4-19.383-10.669-19.383-10.669l-9.254-40.6s11.955-5.346,12.844-18.017Z" transform="translate(-190.78 -24.517)" fill="url(#linear-gradient)"/>
            <path id="Trazado_24366" data-name="Trazado 24366" d="M90.525,154.014l-45.343-1.547a5.74,5.74,0,0,1-5.146-4.448L37.9,138.66a5.74,5.74,0,0,1,2.71-6.239l40.658-19Z" transform="translate(-31.291 -90.553)" fill="#f5ca56"/>
            <path id="Trazado_24367" data-name="Trazado 24367" d="M212.913,153.719l8.655.3-9.254-40.6-7.761,3.628Z" transform="translate(-162.333 -90.553)" fill="#deac2f"/>
            <path id="Trazado_24368" data-name="Trazado 24368" d="M16.358,240.216l-4.259.912a2.989,2.989,0,0,1-3.578-2.25L7.659,235.1a2.988,2.988,0,0,1,2.25-3.578l4.259-.912Z" transform="translate(-7.584 -182.626)" fill="url(#linear-gradient)"/>
            <path id="Trazado_24369" data-name="Trazado 24369" d="M320.559,83.938h0A3.8,3.8,0,0,1,316,81.074L300.121,11.4a3.8,3.8,0,0,1,2.863-4.555h0a3.8,3.8,0,0,1,4.555,2.864l15.883,69.677A3.8,3.8,0,0,1,320.559,83.938Z" transform="translate(-237.341 -6.747)" fill="#7d6eb2"/>
          </g>
        </g>
      </g>
    </g>
    <g id="Grupo_14489" data-name="Grupo 14489" transform="translate(0.073 0)">
      <path id="Trazado_24370" data-name="Trazado 24370" d="M79.71,31.5a1.61,1.61,0,0,0-3.14.716l9.625,42.224c.623,2.733-3.646,3.752-4.279.975L66.076,5.93c-.64-2.817,3.576-4.061,4.235-1.165l4.354,19.1a1.61,1.61,0,0,0,3.14-.716l-4.354-19.1C71.923-2.658,61.388-.447,62.883,6.4,61.949,17.768,51.114,22.793,51,22.843l-.011.006-.011,0-40.658,19q-.065.031-.128.067a7.312,7.312,0,0,0-3.657,6.23l-2.889.619A4.6,4.6,0,0,0,.189,54.279l.861,3.778a4.639,4.639,0,0,0,5.486,3.466l2.9-.622a7.31,7.31,0,0,0,6.011,4.064l.071,0,6.746.23c-.2,1.248-.373,2.516-.5,3.795a72.07,72.07,0,0,0,1.054,20.5,1.611,1.611,0,0,0,3.164-.6,68.855,68.855,0,0,1-1.013-19.584c.133-1.351.313-2.69.537-4l9.617.328a40.175,40.175,0,0,0,.481,13.414,36.66,36.66,0,0,0,6.909,15.053c2.049,2.638,1.265,5.291-1.142,7.242-1.9,1.543-3.676,3.262-5.722,4.621a3.5,3.5,0,0,1-3.867-.026c-2.181-1.48-2.779-5.586-3.51-7.926-.6-1.924-3.7-1.051-3.074.96,1,3.2,1.794,7.607,4.776,9.631a6.788,6.788,0,0,0,7.457.044c2.134-1.417,3.986-3.194,5.969-4.8,3.785-3.071,4.766-7.715,1.656-11.719a33.429,33.429,0,0,1-6.3-13.724q-.184-.9-.323-1.8l2.423-.552a8.042,8.042,0,0,0,6.227-7.971l-.04-2.038,13.816.471h.024c.129,0,12.843.355,17.895,9.637,1.575,6.773,12.105,4.379,10.553-2.43ZM5.84,58.379a1.4,1.4,0,0,1-1.65-1.038l-.861-3.778a1.376,1.376,0,0,1,1.017-1.646l2.7-.579L8.524,57.8Zm38.028,9.768a4.809,4.809,0,0,1-3.723,4.767l-2.064.47a35.955,35.955,0,0,1,.284-7.635l5.459.186Zm-28.2-6.395A4.11,4.11,0,0,1,12,58.555L9.864,49.194a4.111,4.111,0,0,1,1.893-4.452l38.78-18.127,8.346,36.612Zm46.553,1.625L53.511,25.172A25.531,25.531,0,0,0,64.464,13.346L77.2,69.213C71.886,64.712,65.033,63.634,62.221,63.378Z" transform="translate(-0.073 0)" fill="#00223d"/>
      <path id="Trazado_24371" data-name="Trazado 24371" d="M406.812,147.129a1.612,1.612,0,0,0-.073,1.557l1.305,2.645-7.681.054a1.611,1.611,0,0,0,.023,3.221l10.251-.071a1.625,1.625,0,0,0,1.433-2.323l-1.306-2.648,8.149-.066a1.611,1.611,0,0,0-.026-3.221l-10.715.088a1.61,1.61,0,0,0-1.358.765Z" transform="translate(-313.349 -114.922)" fill="#00223d"/>
      <path id="Trazado_24372" data-name="Trazado 24372" d="M386.851,67.1a1.6,1.6,0,0,0,.726-.174l9.146-4.631a1.625,1.625,0,0,0,.248-2.718l-2.349-1.789,7.266-3.69c1.8-.912.421-3.825-1.458-2.871l-9.554,4.852a1.625,1.625,0,0,0-.247,2.717l2.347,1.787-6.853,3.47A1.627,1.627,0,0,0,386.851,67.1Z" transform="translate(-302.715 -40.1)" fill="#00223d"/>
      <path id="Trazado_24373" data-name="Trazado 24373" d="M431.362,230.3l-8.147-.176,1.342-2.631a1.624,1.624,0,0,0-1.4-2.342l-10.249-.209a1.611,1.611,0,0,0-.066,3.22l7.68.157-1.34,2.628a1.625,1.625,0,0,0,1.4,2.341l10.713.231a1.611,1.611,0,0,0,.069-3.22Z" transform="translate(-323.168 -176.728)" fill="#00223d"/>
    </g>
  </g>
</svg>
