<svg xmlns="http://www.w3.org/2000/svg" xmlns:xlink="http://www.w3.org/1999/xlink" width="812" height="602" viewBox="0 0 812 602">
  <defs>
    <linearGradient id="linear-gradient" x1="0.5" x2="0.5" y2="1" gradientUnits="objectBoundingBox">
      <stop offset="0" stop-color="#fff"/>
      <stop offset="1" stop-color="#f1f1f1"/>
    </linearGradient>
    <linearGradient id="linear-gradient-2" x1="0.5" x2="0.5" y2="1" gradientUnits="objectBoundingBox">
      <stop offset="0" stop-color="#fff"/>
      <stop offset="1" stop-color="#d2e6ee"/>
    </linearGradient>
  </defs>
  <g id="Grupo_64227" data-name="Grupo 64227" transform="translate(-602 -1433.723)">
    <rect id="Rectángulo_29536" data-name="Rectángulo 29536" width="812" height="602" transform="translate(602 1433.723)" fill="url(#linear-gradient)"/>
    <g id="Rectángulo_4927" data-name="Rectángulo 4927" transform="translate(622 1474)" fill="none" stroke="#fff" stroke-width="3">
      <rect width="763.711" height="545.508" stroke="none"/>
      <rect x="1.5" y="1.5" width="760.711" height="542.508" fill="none"/>
    </g>
    <g id="Grupo_42967" data-name="Grupo 42967" transform="translate(-150.985 529.656)">
      <g id="men" transform="translate(947.649 1110.458)">
        <g id="man_2" transform="translate(158.294 2.881)">
          <g id="head" transform="translate(67.662 0)">
            <path id="Trazado_24273" data-name="Trazado 24273" d="M237.2,115.917s-.583-2.793,12.3-2.793,19-15.616,18.836-20.446S266.407,82.7,263.67,80.12,231.952,86.4,231.952,86.4s.246,3.16.893,7.943A158.936,158.936,0,0,0,237.2,115.917Z" transform="translate(-223.487 -66.05)" fill="#f97070" fill-rule="evenodd"/>
            <path id="Trazado_24274" data-name="Trazado 24274" d="M252.7,142.774a50.175,50.175,0,0,0,30.326-15.048L268.181,97.8a9.14,9.14,0,0,0-.227-6.161c-1.1-2.366-3.4-3.118-5.087-1.728-2.736,2.254-1.933,23.828-1.933,23.828.6,11.275-6.345,16.38-11.637,18.625Z" transform="translate(-213.507 -60.546)" fill="#f97070" fill-rule="evenodd"/>
            <g id="Grupo_14474" data-name="Grupo 14474">
              <path id="Trazado_24275" data-name="Trazado 24275" d="M235.044,91.366s28.981-8.855,31.718-6.279,4.509,7.727,4.669,12.558-5.956,20.446-18.836,20.446-12.3,2.793-12.3,2.793c3.275,11.445,8.422,22.176,16.322,23.611a23.835,23.835,0,0,0,5.752-1.66c5.291-2.245,12.242-7.35,11.637-18.625,0,0-.8-21.574,1.933-23.828,1.687-1.389,3.987-.638,5.087,1.728,0,0-.1-16.218-3.637-21.853s-5.474-3.059-5.474-3.059-.162-5.314-7.406-5.958-34.778-.8-37.515,12.881,8.943,15.188,8.943,15.188C235.289,94.526,235.044,91.366,235.044,91.366Z" transform="translate(-226.578 -71.017)" fill="#00223d" fill-rule="evenodd"/>
              <path id="Trazado_24276" data-name="Trazado 24276" d="M264.01,80c-2.714-2.555-27.16,4.72-32.033,6.205a.323.323,0,1,0,.187.618c5.246-1.6,10.5-3.045,15.611-4.3,9.077-2.229,14.813-2.973,15.791-2.053,2.963,2.79,4.43,8.206,4.567,12.333.118,3.541-2.543,9.057-4.471,11.842-2.612,3.773-7.168,8.272-14.042,8.272-2.013,0-8.138,0-11.122,1.407-.284.134-1.686.848-1.492,1.774a.323.323,0,0,0,.315.258.336.336,0,0,0,.317-.389c-.074-.354.75-.876,1.136-1.059,2.853-1.345,8.869-1.345,10.846-1.345,7.155,0,11.875-4.65,14.573-8.551,1.843-2.662,4.715-8.335,4.586-12.229C268.638,88.517,267.108,82.912,264.01,80Z" transform="translate(-223.605 -66.161)" fill="#fff"/>
              <path id="Trazado_24277" data-name="Trazado 24277" d="M268.366,91.624a4.485,4.485,0,0,0-2.881-2.546,3.074,3.074,0,0,0-2.7.706c-2.609,2.149-2.229,20.76-2.051,24.095a18.053,18.053,0,0,1-3.538,12.483,19.5,19.5,0,0,1-7.9,5.827.323.323,0,0,0,.252.6,20.157,20.157,0,0,0,8.159-6.024,18.687,18.687,0,0,0,3.675-12.916c-.159-3.5-.484-21.669,1.815-23.562a2.465,2.465,0,0,1,2.16-.572A3.827,3.827,0,0,1,267.78,91.9a.323.323,0,1,0,.586-.273Z" transform="translate(-213.625 -60.669)" fill="#fff"/>
              <g id="Grupo_14473" data-name="Grupo 14473" transform="translate(9.979 24.519)">
                <g id="Grupo_14471" data-name="Grupo 14471" transform="translate(2.667 4.733)">
                  <path id="Trazado_24278" data-name="Trazado 24278" d="M237.774,93.142c.378.824.249,2.294-.586,2.664s-2.01-.5-2.387-1.32-.219-2.3.586-2.664C236.221,91.447,237.4,92.324,237.774,93.142Z" transform="translate(-234.606 -88.35)" fill="#232323" fill-rule="evenodd"/>
                  <path id="Trazado_24279" data-name="Trazado 24279" d="M248.466,90.995c.378.824.219,2.3-.586,2.664-.835.373-2.012-.5-2.388-1.32s-.247-2.294.588-2.664S248.089,90.177,248.466,90.995Z" transform="translate(-228.459 -89.585)" fill="#232323" fill-rule="evenodd"/>
                </g>
                <g id="Grupo_14472" data-name="Grupo 14472">
                  <path id="Trazado_24280" data-name="Trazado 24280" d="M244.128,87.121a7.432,7.432,0,0,1,1.207-.332,10.825,10.825,0,0,1,6.015.518.563.563,0,0,1-.428,1.041,9.529,9.529,0,0,0-5.369-.473,7.936,7.936,0,0,0-.778.192c-.085.03-.143.047-.2.065a.585.585,0,0,1-.784-.288A.574.574,0,0,1,244.128,87.121Z" transform="translate(-226.672 -86.581)" fill="#232323" fill-rule="evenodd"/>
                  <path id="Trazado_24281" data-name="Trazado 24281" d="M232.97,90.5a3.64,3.64,0,0,1,.832-.988,5.97,5.97,0,0,1,2.823-1.331,10.282,10.282,0,0,1,3.288-.082.555.555,0,0,1,.487.611.564.564,0,0,1-.63.487,9.2,9.2,0,0,0-2.927.065,4.86,4.86,0,0,0-2.3,1.078,2.836,2.836,0,0,0-.476.5c-.049.061-.1.112-.094.134a.555.555,0,1,1-1-.471Z" transform="translate(-232.913 -85.758)" fill="#232323" fill-rule="evenodd"/>
                </g>
                <path id="Trazado_24282" data-name="Trazado 24282" d="M239.9,94.127l.614,9.512,3.554-.714a.275.275,0,0,1,.109.539l-3.9.785a.25.25,0,0,1-.225-.061.322.322,0,0,1-.1-.221l-.594-9.862a.269.269,0,0,1,.28-.263A.285.285,0,0,1,239.9,94.127Z" transform="translate(-229.208 -82.403)" fill="#232323" fill-rule="evenodd"/>
                <path id="Trazado_24283" data-name="Trazado 24283" d="M250.14,102.864s-2.547,2.563-9.23,4.906c0,0,2.793,2.246,5.332,1.314S250.14,102.864,250.14,102.864Z" transform="translate(-228.312 -77.213)" fill="#fefefe" fill-rule="evenodd"/>
              </g>
            </g>
          </g>
          <g id="body" transform="translate(0 66.857)">
            <path id="pants" d="M365.974,227.621c-2.535-4.54-4.159-7.451-4.159-7.451-13.524,16.744-77.925,26.565-80.5,26.243l1.722,12.886c13.565-3.437,27.948-7.3,43.47-11.667A108.4,108.4,0,0,0,365.974,227.621Z" transform="translate(-127.425 -52.062)" fill="#00223d" fill-rule="evenodd"/>
            <g id="body-2" data-name="body">
              <g id="Grupo_14476" data-name="Grupo 14476" transform="translate(0 10.092)">
                <path id="Trazado_24284" data-name="Trazado 24284" d="M354.72,227.731s-.629,24,2.037,25.774,4.146-10.218,4.146-10.218-.148,17.62,6.515,23.543,5.389-40.492,5.389-40.492Z" transform="translate(-85.231 -58.606)" fill="#f97070" fill-rule="evenodd"/>
                <g id="Grupo_14475" data-name="Grupo 14475" transform="translate(0 153.989)">
                  <path id="Trazado_24285" data-name="Trazado 24285" d="M185.075,238.333c2.576,3.14,23.023.644,23.023.644a2.489,2.489,0,0,0,.05-1.082,3.2,3.2,0,0,0-.238-.775c-1.986-4.471-14.187-8.97-19.134-9.252-5.257-.3-6.169,6.338-4.176,9.778A5.139,5.139,0,0,0,185.075,238.333Z" transform="translate(-183.627 -211.721)" fill="#f97070" fill-rule="evenodd"/>
                  <path id="Trazado_24286" data-name="Trazado 24286" d="M191.209,230.38c3.541.967,9.5-5.8,9.5-5.8s6.5-1.268,11.654-1.8c-1.961-2.135-6.12-5.753-11.3-5.088C193.784,218.627,187.666,229.415,191.209,230.38Z" transform="translate(-179.86 -217.614)" fill="#f97070" fill-rule="evenodd"/>
                </g>
                <path id="Trazado_24287" data-name="Trazado 24287" d="M372.878,265.527c-9.46,9.761-27.952,16.509-45,20.933a2.183,2.183,0,0,0-.43-.849c-23.939-29.148-40.191-65.222-50.546-101.3a363.015,363.015,0,0,1-8.794-38.194c-.873-5.044-1.72-10.292-2.213-15.392a2.19,2.19,0,1,0-4.361.421c.5,5.213,1.364,10.566,2.256,15.719a367.686,367.686,0,0,0,8.9,38.657C283.121,221.85,299.44,258.106,323.4,287.58a304.6,304.6,0,0,1-32.634,5.961s-.644,5.151,1.931,5.474,66.976-9.5,80.5-26.243C373.2,272.772,375.3,266.654,372.878,265.527Z" transform="translate(-138.809 -114.756)" fill="#f1f1f1" fill-rule="evenodd"/>
                <path id="Trazado_24288" data-name="Trazado 24288" d="M363.83,291.563c17.043-4.423,35.538-11.172,45-20.933,0,0,.967-14.491-2.576-21.574s-26.073-64.116-26.073-64.116c12,5.019,26.076,10.659,36.054,13.882,0,0,15.777,74.061,28.014,90.162l20.93-1.61s2.032-82.849-17.288-106.678-73.837-54.968-90.9-59.155a57.215,57.215,0,0,0-8.425-1.36c-15.068-1.361-30.536,2.164-30.536,2.164l-13.847,10.788-7.406-8.373-.805,10.788-10.947,0s-16.908,17.551-22.061,39.125c-1.8,7.538-1.949,21.443-1.382,36.347.295,7.724.781,15.715,1.331,23.228.9,12.349,1.975,23.4,2.64,29.84-19.829,3.311-40.94,11.979-51.819,16.88-.1,3.716-4.359,11.418-9.269,15.468a15.526,15.526,0,0,1-5.419,2.812,3.2,3.2,0,0,1,.238.775c6.983.87,62.751,7.532,82.356,1.2,20.93-6.763,19.055-36.089,19.055-36.089,6.4,15.178,11.9,27.107,14.112,29,6.763,5.8,11.914,4.509,11.914,4.509a304.6,304.6,0,0,0,32.634-5.961c-23.962-29.474-40.281-65.73-50.708-102.064a367.637,367.637,0,0,1-8.9-38.657c-.892-5.153-1.753-10.506-2.256-15.719a2.19,2.19,0,1,1,4.361-.421c.493,5.1,1.341,10.348,2.213,15.392a363,363,0,0,0,8.793,38.194c10.355,36.083,26.607,72.156,50.546,101.3A2.181,2.181,0,0,1,363.83,291.563Z" transform="translate(-174.758 -119.859)" fill="#f5ca56" fill-rule="evenodd"/>
                <path id="Trazado_24289" data-name="Trazado 24289" d="M240.025,192.571a.323.323,0,0,0-.567-.187.316.316,0,0,0-.077.233c.967,13.237,2.037,24.933,3.272,35.752a.323.323,0,0,0,.32.287.33.33,0,0,0,.321-.359C242.062,217.491,240.992,205.8,240.025,192.571Z" transform="translate(-151.551 -78.205)" fill="#fff"/>
                <path id="Trazado_24290" data-name="Trazado 24290" d="M300.314,160.035a69.073,69.073,0,0,1-3.184-7.084,66.584,66.584,0,0,1-4.263-15.747c-.885-6.925-.025-12.595,2.555-16.85a.323.323,0,1,0-.551-.336c-2.659,4.383-3.549,10.192-2.645,17.267a67.248,67.248,0,0,0,4.3,15.9,69.375,69.375,0,0,0,3.215,7.15.323.323,0,0,0,.594-.057A.318.318,0,0,0,300.314,160.035Z" transform="translate(-121.344 -119.863)" fill="#fff"/>
                <path id="Trazado_24291" data-name="Trazado 24291" d="M359,178.619c-8.423-2.722-16.922-6.084-24.227-9.022-11.909-4.791-23.9-9.876-35.634-15.115a.322.322,0,0,0-.425.162.321.321,0,0,0,.162.427c11.75,5.246,23.746,10.336,35.656,15.125,7.314,2.943,15.826,6.311,24.269,9.038a.311.311,0,0,0,.1.016.323.323,0,0,0,.1-.63Z" transform="translate(-117.429 -99.963)" fill="#fff"/>
                <path id="Trazado_24292" data-name="Trazado 24292" d="M274.941,239.818c-2.8-6.648-5.726-13.789-9.209-22.474-7.109-17.732-14.1-35.727-20.788-53.484a.33.33,0,0,0-.17-.181.324.324,0,0,0-.246-.008.32.32,0,0,0-.181.17.31.31,0,0,0-.008.246c6.686,17.763,13.682,35.761,20.793,53.5,3.48,8.675,6.407,15.819,9.214,22.485a.324.324,0,0,0,.3.2.319.319,0,0,0,.124-.025A.322.322,0,0,0,274.941,239.818Z" transform="translate(-148.71 -94.671)" fill="#fff"/>
              </g>
              <g id="Grupo_14477" data-name="Grupo 14477" transform="translate(106.534)">
                <path id="Trazado_24293" data-name="Trazado 24293" d="M274.021,136.706l13.847-10.788-6.082-12.256a50.175,50.175,0,0,1-30.327,15.047l3.4,10.41,10.947,0,.8-10.788Z" transform="translate(-251.135 -113.339)" fill="#f1f1f1" fill-rule="evenodd"/>
                <path id="Trazado_24294" data-name="Trazado 24294" d="M288.274,125.893,282.2,113.642a.313.313,0,0,0-.068-.1.324.324,0,0,0-.457.011,49.9,49.9,0,0,1-19.98,12.683,43.558,43.558,0,0,1-10.134,2.265.323.323,0,0,0,.019.646,44.164,44.164,0,0,0,10.323-2.3,50.6,50.6,0,0,0,19.92-12.516l5.877,11.845a.326.326,0,0,0,.433.147.323.323,0,0,0,.162-.187A.311.311,0,0,0,288.274,125.893Z" transform="translate(-251.254 -113.457)" fill="#fff"/>
              </g>
            </g>
          </g>
        </g>
        <g id="man_1" transform="translate(0 0)">
          <g id="body-3" data-name="body" transform="translate(0 68.984)">
            <path id="pants-2" data-name="pants" d="M177.263,273.412l-1.793-16.9L137.7,255l1.916-24.625-9.644,24.3-5.594-1.887C140.714,263.136,159.2,269.622,177.263,273.412Z" transform="translate(-59.421 -45.439)" fill="#26aab7" fill-rule="evenodd"/>
            <g id="body-4" data-name="body">
              <g id="Grupo_14478" data-name="Grupo 14478" transform="translate(82.428)">
                <path id="Trazado_24295" data-name="Trazado 24295" d="M156.113,187.315c6.761-21.251,23.173-57.288,23.173-57.288a43.056,43.056,0,0,0-5.332-1.6L162.2,133.9l-2.253-13.685-8.855,10.3-11.432-8.855s-1.59.238-4.192.748C135.468,122.413,152.893,167.674,156.113,187.315Z" transform="translate(-135.468 -108.813)" fill="#26aab7" fill-rule="evenodd"/>
                <path id="Trazado_24296" data-name="Trazado 24296" d="M160.669,138.067l11.753-5.474-.851-11.316c-15.5.277-30.278-8.3-30.278-8.3l-3.165,12.852,11.432,8.855,8.855-10.3Z" transform="translate(-133.937 -112.978)" fill="#8ec8c8" fill-rule="evenodd"/>
              </g>
              <g id="body-5" data-name="body" transform="translate(0 13.6)">
                <g id="Grupo_14480" data-name="Grupo 14480" transform="translate(84.903 12.3)">
                  <path id="Trazado_24297" data-name="Trazado 24297" d="M137.039,253.813c13.688,4.936,27.286,10,37.675,13.913,1.366-3.551,5.162-23.685,8.964-44.983,5.684,9.564,24.654,38.438,47.2,39.78,27.048,1.608,67.7-33.769,67.7-33.769-.55-7.513-1.037-15.5-1.331-23.228C258,211.964,236.68,228.39,236.68,228.39s-28.819-73.739-37.031-87.585A34.438,34.438,0,0,0,188.1,129.419l-13.245,26.2,5.8,9.017-28.7,28.5c-6.634,24-14.91,60.677-14.91,60.677Z" transform="translate(-137.039 -129.419)" fill="#00223d" fill-rule="evenodd"/>
                  <g id="Grupo_14479" data-name="Grupo 14479" transform="translate(9.715 79.894)">
                    <path id="Trazado_24298" data-name="Trazado 24298" d="M149.084,180.135a3.219,3.219,0,1,1-3.22,3.22,3.22,3.22,0,0,1,3.22-3.22Z" transform="translate(-141.677 -180.135)" fill="#e0f0ff" fill-rule="evenodd"/>
                    <path id="Trazado_24299" data-name="Trazado 24299" d="M146.346,192.807a3.14,3.14,0,1,1-3.14,3.14A3.14,3.14,0,0,1,146.346,192.807Z" transform="translate(-143.206 -172.845)" fill="#e0f0ff" fill-rule="evenodd"/>
                  </g>
                </g>
                <path id="Trazado_24300" data-name="Trazado 24300" d="M132.835,255l37.77,1.511,2.48.1,2.9-24.392c-10.544-.017-25.456-.38-41.231-1.843Z" transform="translate(-54.555 -59.039)" fill="#00223d" fill-rule="evenodd"/>
                <path id="Trazado_24301" data-name="Trazado 24301" d="M151.583,233.642c-16.38-1.519-33.688-4.222-48.006-8.956a110.125,110.125,0,0,0,32.768,31.373l5.594,1.887Z" transform="translate(-71.388 -62.31)" fill="#00223d" fill-rule="evenodd"/>
                <path id="Trazado_24302" data-name="Trazado 24302" d="M103.864,278.647c15.8,7.67,38.406,11.585,59.475,13.537,15.775,1.463,30.687,1.826,41.231,1.843,9.379.016,15.3-.241,15.3-.241a26.221,26.221,0,0,0,4.353-12.952,22.393,22.393,0,0,0-.006-2.344s-7.426-2.861-18.5-7.031c-10.389-3.913-23.987-8.978-37.675-13.913,0,0,8.277-36.674,14.91-60.677.487-1.761.964-3.455,1.429-5.06L169.47,165.468l5.474-7.406L156.5,122.931c-7.5,1.964-16.782,5.039-23.939,9.483q-.8.494-1.56,1.013c-14.168,9.66-50.877,75.994-47.657,121.075C84.1,265.131,92.094,272.932,103.864,278.647Z" transform="translate(-83.144 -120.852)" fill="#00223d" fill-rule="evenodd"/>
                <path id="Trazado_24303" data-name="Trazado 24303" d="M146.5,194.848l28.7-28.5-5.8-9.017,13.245-26.2a51.582,51.582,0,0,0-9.713-4.687s-16.412,36.037-23.173,57.288c-.58,1.821-1.193,3.856-1.831,6.056C147.469,191.393,146.991,193.087,146.5,194.848Z" transform="translate(-46.692 -118.83)" fill="#cce7ff" fill-rule="evenodd"/>
                <path id="Trazado_24304" data-name="Trazado 24304" d="M142.681,166.227,157.6,192.568c.638-2.2,1.251-4.234,1.831-6.056-3.22-19.641-20.645-64.9-20.645-64.9-2.343.462-5.507,1.145-9.074,2.079l18.447,35.131Z" transform="translate(-56.354 -121.611)" fill="#cce7ff" fill-rule="evenodd"/>
                <path id="Trazado_24305" data-name="Trazado 24305" d="M121.552,132.3a10.586,10.586,0,0,0-4.679-3.212,6.713,6.713,0,0,0-2.268-.339.324.324,0,0,0-.184.569.318.318,0,0,0,.235.076,6.047,6.047,0,0,1,2.024.31,9.953,9.953,0,0,1,4.387,3.021c4.19,4.789,6.268,14.173,6.007,27.14a.323.323,0,0,0,.317.329.325.325,0,0,0,.329-.317C127.988,146.56,125.912,137.281,121.552,132.3Z" transform="translate(-65.214 -117.51)" fill="#fff"/>
                <path id="Trazado_24306" data-name="Trazado 24306" d="M215.051,225.417c-5.857-14.994-11.99-30.276-18.231-45.423-3.13-7.593-6.862-16.568-10.824-25.552-1.213-2.751-2.826-6.369-4.553-9.983-1.158-2.426-2.218-4.6-3.445-6.675a29.508,29.508,0,0,0-2.265-3.281.323.323,0,0,0-.573.164.324.324,0,0,0,.068.238,28.76,28.76,0,0,1,2.215,3.209c1.213,2.046,2.267,4.209,3.418,6.623,1.722,3.606,3.333,7.22,4.543,9.965,3.962,8.984,7.692,17.951,10.818,25.538,6.238,15.137,12.371,30.416,18.228,45.412a.318.318,0,0,0,.172.178.309.309,0,0,0,.129.028.333.333,0,0,0,.117-.022.326.326,0,0,0,.184-.419Z" transform="translate(-30.206 -114.264)" fill="#fff"/>
                <path id="Trazado_24307" data-name="Trazado 24307" d="M200.338,238.792a.321.321,0,0,0-.228-.1c-14.252-.024-35.6-.662-56.381-3.568-23.98-3.354-41.582-8.915-52.323-16.525a.323.323,0,1,0-.373.526c10.811,7.662,28.482,13.256,52.524,16.628,20.827,2.921,42.249,3.562,56.553,3.585a.319.319,0,0,0,.228-.095.321.321,0,0,0,0-.455Z" transform="translate(-78.683 -65.844)" fill="#fff"/>
                <path id="Trazado_24308" data-name="Trazado 24308" d="M212.32,169.145a.325.325,0,0,0-.372.265c-2.9,17.346-5.83,34.337-8.693,50.5-2.108,11.9-3.913,21.9-5.873,32.015-.833,4.3-1.552,7.908-2.346,11.516-.255,1.152-.559,2.511-.9,3.845l-.02.08c-.161.624-.325,1.27-.536,1.873-13.552-5.1-25.692-9.586-37.105-13.7,2.99-13.269,6.245-26.94,9.677-40.629,1.626-6.487,3.017-11.853,4.379-16.884q.378-1.392.761-2.785l28.639-28.446a.32.32,0,0,0,.044-.4l-5.7-8.861,9.047-17.893a.322.322,0,0,0,.019-.247.329.329,0,0,0-.162-.187.317.317,0,0,0-.246-.017.32.32,0,0,0-.187.161L193.619,157.4a.315.315,0,0,0,.017.32l5.654,8.8-27.652,27.464c.386-1.383.742-2.642,1.085-3.83a.307.307,0,0,0,.032-.1c.627-2.163,1.222-4.126,1.818-6,2.435-7.654,5.34-15.128,8.116-22.064,2.76-6.9,5.824-14.217,9.365-22.368a.323.323,0,0,0-.416-.428.31.31,0,0,0-.176.172c-3.543,8.154-6.608,15.476-9.373,22.384-2.492,6.229-5.355,13.565-7.729,20.859-.756-4.151-1.867-8.349-2.858-11.924-1.306-4.709-2.834-9.723-4.808-15.785-2.875-8.822-6.15-18.186-10.014-28.625a.318.318,0,0,0-.169-.181.321.321,0,0,0-.247-.009.315.315,0,0,0-.181.167.321.321,0,0,0-.01.247c3.861,10.432,7.135,19.788,10.006,28.6,1.971,6.048,3.5,11.056,4.8,15.756a126.374,126.374,0,0,1,3.053,13.075c-.525,1.654-1.049,3.373-1.6,5.247L157.9,163.691l5.35-7.237a.317.317,0,0,0,.027-.342l-15.689-29.878a.323.323,0,0,0-.572.3l15.594,29.7-5.355,7.243a.32.32,0,0,0-.02.351l14.844,26.217c-.649,2.246-1.322,4.657-2.175,7.814-1.364,5.036-2.758,10.405-4.384,16.9-3.423,13.658-6.675,27.305-9.663,40.565l-.14-.05c-11.917-4.293-21.027-7.47-29.539-10.3-4.809-1.6-8.745-2.858-12.384-3.959,1.873-3.975,3.42-8.1,4.553-11.254,1.468-4.091,2.94-8.628,4.5-13.871,2.22-7.464,4.372-15.517,6.58-24.614.819-3.37,1.774-7.363,2.653-11.432a.318.318,0,0,0-.044-.244.322.322,0,0,0-.2-.14.315.315,0,0,0-.243.044.329.329,0,0,0-.142.2c-.879,4.069-1.832,8.055-2.648,11.416-2.205,9.083-4.356,17.125-6.572,24.583-1.553,5.232-3.021,9.758-4.485,13.836A108.448,108.448,0,0,1,113.1,240.8c-2.6-.781-5.666-1.678-8.79-2.417a.322.322,0,0,0-.387.239.318.318,0,0,0,.039.244.323.323,0,0,0,.2.145c3.255.77,6.465,1.712,9.449,2.617,3.625,1.1,7.555,2.354,12.366,3.954,8.51,2.829,17.615,6,29.525,10.295,11.7,4.216,24.181,8.823,38.153,14.085a.3.3,0,0,0,.117.022.323.323,0,0,0,.3-.206,20.5,20.5,0,0,0,.674-2.273c.361-1.408.666-2.769.92-3.921.8-3.619,1.515-7.226,2.35-11.531,1.961-10.128,3.767-20.128,5.874-32.026,2.862-16.169,5.788-33.161,8.693-50.506A.324.324,0,0,0,212.32,169.145Z" transform="translate(-71.194 -119.051)" fill="#fff"/>
                <path id="Trazado_24309" data-name="Trazado 24309" d="M171.046,254.545a.325.325,0,0,0-.309-.3l-37.436-1.5,1.451-18.666a.322.322,0,1,0-.643-.05l-1.479,19a.323.323,0,0,0,.309.348l37.493,1.5,1.75,16.514.665.142Z" transform="translate(-54.673 -57.102)" fill="#fff" fill-rule="evenodd"/>
                <path id="Trazado_24310" data-name="Trazado 24310" d="M138.085,233.932a.323.323,0,0,0-.424-.169.323.323,0,0,0-.172.178l-7.3,18.392-6.516-2.2q1.144.742,2.3,1.46l4.294,1.448a.3.3,0,0,0,.1.017.323.323,0,0,0,.3-.2l7.412-18.677A.321.321,0,0,0,138.085,233.932Z" transform="translate(-59.826 -57.102)" fill="#fff" fill-rule="evenodd"/>
                <g id="Grupo_14481" data-name="Grupo 14481" transform="translate(136.405 147.953)">
                  <path id="Trazado_24311" data-name="Trazado 24311" d="M169.938,240.511s13.833,3.135,22.538,4.227c-1.993-3.44-1.081-10.079,4.176-9.778,4.947.282,17.147,4.781,19.134,9.252a15.526,15.526,0,0,0,5.419-2.812c4.91-4.05,9.167-11.752,9.269-15.468.032-1.158-.339-1.928-1.218-2.081a22.89,22.89,0,0,0-5.252.131c-5.158.534-11.654,1.8-11.654,1.8s-5.958,6.763-9.5,5.8,2.576-11.754,9.851-12.686c1.667-1.515,2.683-2.79,2.064-3.253-1.931-1.449-40.475,11.919-40.475,11.919A26.22,26.22,0,0,1,169.938,240.511Z" transform="translate(-169.614 -215.53)" fill="#f97070" fill-rule="evenodd"/>
                  <path id="Trazado_24312" data-name="Trazado 24312" d="M230.248,222.8a1.658,1.658,0,0,0-.818-.376c-2.076-.361-5.774.142-7.982.443l-.2.027c-2.878.391-5.855.884-8.845,1.464a.353.353,0,0,0-.135.061c-2.065,2.328-6.582,6.459-9.217,5.741a1.012,1.012,0,0,1-.484-.279c-.854-.923.263-3.337.495-3.811a16.915,16.915,0,0,1,4.256-5.325,11.3,11.3,0,0,1,5.539-2.64.319.319,0,0,0,.214-.123.324.324,0,0,0-.3-.518,11.737,11.737,0,0,0-5.87,2.785,17.543,17.543,0,0,0-4.423,5.537c-.477.974-1.47,3.365-.389,4.534a1.64,1.64,0,0,0,.788.463c3.548.969,9.055-5.03,9.753-5.811,2.941-.569,5.87-1.052,8.7-1.438,1.879-.255,3.313-.41,4.647-.5a15.221,15.221,0,0,1,3.332.028,1.006,1.006,0,0,1,.506.228c1,.87.052,3.773-.263,4.641a30.69,30.69,0,0,1-4.244,7.606,26.116,26.116,0,0,1-4.2,4.507,15.16,15.16,0,0,1-5.041,2.669c-2.442-4.728-14.917-8.932-19.288-9.183a4.66,4.66,0,0,0-4.378,2.106,8.26,8.26,0,0,0-.386,7.6c-2.694-.356-5.325-.814-7.324-1.175-4.792-.866-9.7-1.864-14.575-2.968a.32.32,0,0,0-.386.243.316.316,0,0,0,.041.244.324.324,0,0,0,.2.143c4.888,1.106,9.8,2.106,14.6,2.974,2.185.394,5.065.893,7.968,1.257a.31.31,0,0,0,.151-.016.37.37,0,0,0,.147-.11.32.32,0,0,0,.063-.153.326.326,0,0,0-.017-.151,7.781,7.781,0,0,1-.055-7.363,4.06,4.06,0,0,1,3.91-1.983c3.578.2,8.426,2.13,9.827,2.714,1.783.744,7.7,3.4,9.014,6.311a3.092,3.092,0,0,1,.23.734.322.322,0,0,0,.318.269.334.334,0,0,0,.32-.377,3.505,3.505,0,0,0-.131-.517,15.748,15.748,0,0,0,5.2-2.768,26.683,26.683,0,0,0,4.3-4.617,31.35,31.35,0,0,0,4.335-7.773C230.85,226.27,231.417,223.817,230.248,222.8Z" transform="translate(-169.732 -214.42)" fill="#fff"/>
                </g>
              </g>
            </g>
          </g>
          <g id="head-2" data-name="head" transform="translate(89.462)">
            <path id="Trazado_24313" data-name="Trazado 24313" d="M169.935,135.368a4.214,4.214,0,0,0,1.01,0c17.065,1.289,22.54-50.232,22.54-50.232-13.882-1.089-32.647-9.858-35.546-7.283s-6.8,16.3-6.8,16.3a16.208,16.208,0,0,0-4,.1,5.969,5.969,0,0,0-3.566,1.667c-2.092,2.415,4.025,7.245,4.025,7.245l-7.461,30.3s14.777,8.576,30.278,8.3Z" transform="translate(-139.815 -64.477)" fill="#f97070" fill-rule="evenodd"/>
            <path id="Trazado_24314" data-name="Trazado 24314" d="M155.385,82.559c2.9-2.576,21.664,6.194,35.546,7.283,0,0,3.256.606,4.061-7.122s-15.618-18.193-41.217-11.27a5.6,5.6,0,0,1-3.543,1.771c-1.931,0-3.863,1.289-4.83,11.271a127.429,127.429,0,0,0-.816,14.471,16.209,16.209,0,0,1,4-.1S152.486,85.135,155.385,82.559Z" transform="translate(-137.261 -69.188)" fill="#00223d" fill-rule="evenodd"/>
            <path id="Trazado_24315" data-name="Trazado 24315" d="M170.527,121.072a56.873,56.873,0,0,1-20.791-4,63.494,63.494,0,0,1-9.318-4.253.323.323,0,0,0-.325.559,63.264,63.264,0,0,0,9.416,4.3,58.26,58.26,0,0,0,20.267,4.049c.255,0,.51,0,.764-.006a.323.323,0,0,0,.317-.329A.32.32,0,0,0,170.527,121.072Z" transform="translate(-139.933 -44.112)" fill="#fff"/>
            <path id="Trazado_24316" data-name="Trazado 24316" d="M165.871,118.923a.32.32,0,0,0-.219-.115c-6.769-.592-14.454-9.35-17.444-13.086a.323.323,0,1,0-.5.4c3.042,3.8,10.873,12.711,17.891,13.327a.333.333,0,0,0,.351-.295A.32.32,0,0,0,165.871,118.923Z" transform="translate(-135.503 -48.239)" fill="#fff"/>
            <g id="Grupo_14484" data-name="Grupo 14484" transform="translate(25.699 25.033)">
              <g id="Grupo_14482" data-name="Grupo 14482" transform="translate(1.955 4.501)">
                <path id="Trazado_24317" data-name="Trazado 24317" d="M167.818,91.447c-.37.777-.269,2.176.518,2.539s1.919-.447,2.289-1.219.243-2.182-.518-2.541C169.319,89.859,168.188,90.674,167.818,91.447Z" transform="translate(-151.663 -86.67)" fill="#232323" fill-rule="evenodd"/>
                <path id="Trazado_24318" data-name="Trazado 24318" d="M157.688,89.245c-.372.778-.243,2.182.517,2.541.788.367,1.919-.447,2.289-1.219s.271-2.176-.517-2.541S158.059,88.474,157.688,89.245Z" transform="translate(-157.488 -87.935)" fill="#232323" fill-rule="evenodd"/>
              </g>
              <g id="Grupo_14483" data-name="Grupo 14483">
                <path id="Trazado_24319" data-name="Trazado 24319" d="M163.445,85.643a7.164,7.164,0,0,0-1.142-.334,10.283,10.283,0,0,0-5.725.4.531.531,0,0,0-.293.682.536.536,0,0,0,.684.313,9.067,9.067,0,0,1,5.11-.37c.331.072.577.143.739.2.08.028.134.047.187.065a.559.559,0,0,0,.751-.263A.545.545,0,0,0,163.445,85.643Z" transform="translate(-156.247 -85.078)" fill="#232323" fill-rule="evenodd"/>
                <path id="Trazado_24320" data-name="Trazado 24320" d="M173.845,89.035a3.483,3.483,0,0,0-.777-.953,5.673,5.673,0,0,0-2.664-1.306,9.793,9.793,0,0,0-3.124-.128.526.526,0,0,0-.471.575.536.536,0,0,0,.591.471,8.694,8.694,0,0,1,2.782.106,4.62,4.62,0,0,1,2.169,1.057,2.741,2.741,0,0,1,.444.482c.044.058.093.106.088.128a.527.527,0,1,0,.961-.432Z" transform="translate(-150.171 -84.214)" fill="#232323" fill-rule="evenodd"/>
              </g>
              <path id="Trazado_24321" data-name="Trazado 24321" d="M165.507,94.254l.165,6.027L162.3,99.55a.261.261,0,0,0-.11.51l3.7.8a.235.235,0,0,0,.214-.055.306.306,0,0,0,.1-.208l-.18-6.361a.255.255,0,0,0-.263-.254A.27.27,0,0,0,165.507,94.254Z" transform="translate(-152.94 -79.954)" fill="#232323" fill-rule="evenodd"/>
              <path id="Trazado_24322" data-name="Trazado 24322" d="M157.716,100.256a8.725,8.725,0,0,0,1.164,2.224,7.323,7.323,0,0,0,4.422,2.93,9.872,9.872,0,0,0,4.49-.173.273.273,0,0,0,.183-.312.245.245,0,0,0-.3-.191,9.473,9.473,0,0,1-4.257.162,7.308,7.308,0,0,1-4.932-4.171,2.546,2.546,0,0,1-.191-.452l-.06-.124a.264.264,0,0,0-.329-.214A.261.261,0,0,0,157.716,100.256Z" transform="translate(-155.405 -76.538)" fill="#232323" fill-rule="evenodd"/>
            </g>
          </g>
        </g>
      </g>
      <g id="Document" transform="translate(1249.683 1028.435)">
        <g id="Artwork_6" data-name="Artwork 6">
          <g id="Grupo_39656" data-name="Grupo 39656">
            <g id="Grupo_39652" data-name="Grupo 39652" transform="translate(19.268)">
              <path id="Trazado_92892" data-name="Trazado 92892" d="M468.184,235.326H408.359v-101.8h44.478l15.347,15.346Z" transform="translate(-408.359 -133.529)" fill="#35363b"/>
              <g id="Grupo_39650" data-name="Grupo 39650" transform="translate(8.551 13.189)">
                <rect id="Rectángulo_27994" data-name="Rectángulo 27994" width="42.789" height="2.929" fill="#555866"/>
                <rect id="Rectángulo_27995" data-name="Rectángulo 27995" width="42.789" height="2.929" transform="translate(0 7.277)" fill="#555866"/>
                <rect id="Rectángulo_27996" data-name="Rectángulo 27996" width="42.789" height="2.929" transform="translate(0 14.555)" fill="#555866"/>
                <rect id="Rectángulo_27997" data-name="Rectángulo 27997" width="42.789" height="2.929" transform="translate(0 21.832)" fill="#555866"/>
                <rect id="Rectángulo_27998" data-name="Rectángulo 27998" width="42.789" height="2.929" transform="translate(0 29.11)" fill="#555866"/>
                <rect id="Rectángulo_27999" data-name="Rectángulo 27999" width="25.186" height="2.929" transform="translate(0 36.387)" fill="#42444f"/>
              </g>
              <g id="Grupo_39651" data-name="Grupo 39651" transform="translate(8.551 64.218)">
                <rect id="Rectángulo_28000" data-name="Rectángulo 28000" width="42.789" height="2.929" fill="#555866"/>
                <rect id="Rectángulo_28001" data-name="Rectángulo 28001" width="42.789" height="2.929" transform="translate(0 7.277)" fill="#555866"/>
                <rect id="Rectángulo_28002" data-name="Rectángulo 28002" width="42.789" height="2.929" transform="translate(0 14.555)" fill="#555866"/>
                <rect id="Rectángulo_28003" data-name="Rectángulo 28003" width="25.186" height="2.928" transform="translate(0 21.832)" fill="#42444f"/>
              </g>
              <path id="Trazado_92893" data-name="Trazado 92893" d="M457.953,148.875H442.606V133.529h0l15.347,15.346Z" transform="translate(-398.128 -133.529)" fill="#27282b"/>
            </g>
            <g id="Grupo_39655" data-name="Grupo 39655" transform="translate(0 17.62)">
              <path id="Trazado_92894" data-name="Trazado 92894" d="M453.348,248.893H393.523V147.1H438l15.347,15.347Z" transform="translate(-393.523 -147.096)" fill="url(#linear-gradient-2)"/>
              <g id="Grupo_39653" data-name="Grupo 39653" transform="translate(8.551 13.19)">
                <rect id="Rectángulo_28004" data-name="Rectángulo 28004" width="42.789" height="2.929" fill="#42444f"/>
                <rect id="Rectángulo_28005" data-name="Rectángulo 28005" width="42.789" height="2.929" transform="translate(0 7.277)" fill="#42444f"/>
                <rect id="Rectángulo_28006" data-name="Rectángulo 28006" width="42.789" height="2.929" transform="translate(0 14.555)" fill="#42444f"/>
                <rect id="Rectángulo_28007" data-name="Rectángulo 28007" width="42.789" height="2.929" transform="translate(0 21.832)" fill="#42444f"/>
                <rect id="Rectángulo_28008" data-name="Rectángulo 28008" width="42.789" height="2.929" transform="translate(0 29.11)" fill="#42444f"/>
                <rect id="Rectángulo_28009" data-name="Rectángulo 28009" width="25.186" height="2.929" transform="translate(0 36.387)" fill="#42444f"/>
              </g>
              <g id="Grupo_39654" data-name="Grupo 39654" transform="translate(8.551 64.218)">
                <rect id="Rectángulo_28010" data-name="Rectángulo 28010" width="42.789" height="2.928" fill="#42444f"/>
                <rect id="Rectángulo_28011" data-name="Rectángulo 28011" width="42.789" height="2.929" transform="translate(0 7.277)" fill="#42444f"/>
                <rect id="Rectángulo_28012" data-name="Rectángulo 28012" width="42.789" height="2.929" transform="translate(0 14.555)" fill="#42444f"/>
                <rect id="Rectángulo_28013" data-name="Rectángulo 28013" width="25.186" height="2.929" transform="translate(0 21.832)" fill="#42444f"/>
              </g>
              <path id="Trazado_92895" data-name="Trazado 92895" d="M443.117,162.443H427.77V147.1h0l15.347,15.347Z" transform="translate(-383.292 -147.096)" fill="#c5cbd6"/>
            </g>
          </g>
        </g>
      </g>
      <g id="Grupo_42966" data-name="Grupo 42966" transform="translate(914.326 1088.144)">
        <path id="Trazado_92922" data-name="Trazado 92922" d="M392.692,289.148v69.388H290.68V289.148a7,7,0,0,1,7-7h88.017A7,7,0,0,1,392.692,289.148Z" transform="translate(-285.884 -282.15)" fill="#35363b" opacity="0.25" style="mix-blend-mode: multiply;isolation: isolate"/>
        <path id="Trazado_94708" data-name="Trazado 94708" d="M392.692,303.087V282.15H290.68v20.937c0,1.166,3.132,2.111,7,2.111h88.017C389.559,305.2,392.692,304.253,392.692,303.087Z" transform="translate(-285.884 -205.765)" fill="#35363b" opacity="0.25" style="mix-blend-mode: multiply;isolation: isolate"/>
        <g id="Artwork_4" data-name="Artwork 4" transform="translate(0 3.099)">
          <g id="Grupo_39695" data-name="Grupo 39695">
            <rect id="Rectángulo_28103" data-name="Rectángulo 28103" width="102.014" height="92.307" rx="4.306" fill="url(#linear-gradient-2)"/>
            <g id="Grupo_39694" data-name="Grupo 39694" transform="translate(66.407 5.314)">
              <path id="Trazado_92926" data-name="Trazado 92926" d="M348.645,290.876a3.548,3.548,0,1,1-3.548-3.548A3.548,3.548,0,0,1,348.645,290.876Z" transform="translate(-320.515 -287.328)" fill="#26aab7"/>
              <path id="Trazado_92927" data-name="Trazado 92927" d="M342.172,290.876a3.548,3.548,0,1,1-3.548-3.548A3.548,3.548,0,0,1,342.172,290.876Z" transform="translate(-324.558 -287.328)" fill="#f5ca56"/>
              <path id="Trazado_92928" data-name="Trazado 92928" d="M335.7,290.876a3.548,3.548,0,1,1-3.548-3.548A3.548,3.548,0,0,1,335.7,290.876Z" transform="translate(-328.602 -287.328)" fill="#7d6eb2"/>
            </g>
          </g>
        </g>
        <g id="Grupo_39703" data-name="Grupo 39703" transform="translate(11.355 31.233)">
          <g id="gear" transform="translate(0 1.529)">
            <g id="Grupo_39698" data-name="Grupo 39698">
              <g id="gear-2" data-name="gear">
                <path id="Trazado_92931" data-name="Trazado 92931" d="M331.647,324.416a18.711,18.711,0,0,0,0-6.944h-6.034a12.712,12.712,0,0,0-1.136-2.749l4.263-4.263a18.655,18.655,0,0,0-4.91-4.913l-4.267,4.266a12.655,12.655,0,0,0-2.749-1.137V302.64a18.723,18.723,0,0,0-6.946,0v6.036a12.714,12.714,0,0,0-2.747,1.137l-4.266-4.266a18.572,18.572,0,0,0-4.907,4.913l4.263,4.263a12.632,12.632,0,0,0-1.137,2.749h-6.032a18.707,18.707,0,0,0,0,6.944h6.032a12.658,12.658,0,0,0,1.137,2.749l-4.263,4.263a18.593,18.593,0,0,0,4.907,4.913l4.266-4.266a12.892,12.892,0,0,0,2.747,1.139v6.034a18.718,18.718,0,0,0,6.946,0v-6.034a12.831,12.831,0,0,0,2.749-1.139l4.267,4.266a18.617,18.617,0,0,0,4.91-4.91l-4.263-4.267a12.739,12.739,0,0,0,1.136-2.749Zm-18.3.286a3.759,3.759,0,1,1,3.758-3.758A3.758,3.758,0,0,1,313.345,324.7Z" transform="translate(-294.718 -302.315)" fill="#6f7082"/>
              </g>
            </g>
          </g>
          <g id="Data_server" data-name="Data server" transform="translate(43.765)">
            <g id="Grupo_39702" data-name="Grupo 39702">
              <g id="Grupo_39699" data-name="Grupo 39699" transform="translate(0 25.728)">
                <path id="Trazado_92932" data-name="Trazado 92932" d="M321.655,319.251v9.116c0,1.831,8.167,3.318,18.242,3.318s18.244-1.487,18.244-3.318v-9.116Z" transform="translate(-321.655 -315.935)" fill="#fff"/>
                <ellipse id="Elipse_3779" data-name="Elipse 3779" cx="18.243" cy="3.317" rx="18.243" ry="3.317" fill="#6f7082"/>
              </g>
              <g id="Grupo_39700" data-name="Grupo 39700" transform="translate(0 12.864)">
                <path id="Trazado_92933" data-name="Trazado 92933" d="M321.655,311.334v9.115c0,1.833,8.167,3.318,18.242,3.318s18.244-1.485,18.244-3.318v-9.115Z" transform="translate(-321.655 -308.016)" fill="#fff"/>
                <ellipse id="Elipse_3780" data-name="Elipse 3780" cx="18.243" cy="3.317" rx="18.243" ry="3.317" fill="#6f7082"/>
              </g>
              <g id="Grupo_39701" data-name="Grupo 39701">
                <path id="Trazado_92934" data-name="Trazado 92934" d="M321.655,303.416v9.115c0,1.833,8.167,3.318,18.242,3.318s18.244-1.485,18.244-3.318v-9.115Z" transform="translate(-321.655 -300.099)" fill="#fff"/>
                <ellipse id="Elipse_3781" data-name="Elipse 3781" cx="18.243" cy="3.317" rx="18.243" ry="3.317" fill="#6f7082"/>
              </g>
            </g>
          </g>
        </g>
      </g>
      <g id="chat" transform="translate(1098.606 1045.762)">
        <g id="Grupo_39680" data-name="Grupo 39680">
          <path id="Trazado_92914" data-name="Trazado 92914" d="M387.738,106.406H358.563a15.5,15.5,0,0,0-.887,30.983l-9.586,11.4,18.07-11.371h21.578a15.505,15.505,0,1,0,0-31.011Z" transform="translate(-343.059 -106.406)" fill="#7d6eb2"/>
          <path id="Trazado_92915" data-name="Trazado 92915" d="M355.1,112.867a5.041,5.041,0,1,0,5.042,5.041A5.042,5.042,0,0,0,355.1,112.867Zm13.683,0a5.041,5.041,0,1,0,5.041,5.041A5.041,5.041,0,0,0,368.781,112.867Zm13.682,0a5.041,5.041,0,1,0,5.041,5.041A5.041,5.041,0,0,0,382.462,112.867Z" transform="translate(-338.688 -102.37)" fill="#fff"/>
        </g>
      </g>
    </g>
  </g>
</svg>
