<svg xmlns="http://www.w3.org/2000/svg" xmlns:xlink="http://www.w3.org/1999/xlink" width="231.584" height="251.643" viewBox="0 0 231.584 251.643">
  <defs>
    <linearGradient id="linear-gradient" x1="0.5" x2="0.5" y2="1" gradientUnits="objectBoundingBox">
      <stop offset="0" stop-color="#fff"/>
      <stop offset="1" stop-color="#d2e6ee"/>
    </linearGradient>
  </defs>
  <g id="Grupo_46257" data-name="Grupo 46257" transform="translate(-1334.22 -2187.273)">
    <g id="Grupo_12238" data-name="Grupo 12238" transform="translate(1336.905 2191.896)">
      <g id="Grupo_12237" data-name="Grupo 12237" transform="translate(0 23.315)">
        <g id="Grupo_12236" data-name="Grupo 12236" transform="translate(0 135.415)">
          <g id="Grupo_12235" data-name="Grupo 12235">
            <g id="Grupo_12226" data-name="Grupo 12226" transform="translate(0 1.336)">
              <path id="Trazado_16083" data-name="Trazado 16083" d="M1280.817,2355.813l-37.189-7.176c-3.243-.625-5.668-6.906-5.668-11.751v-4.755c0-4.845,2.425-11.125,5.668-11.75l37.189-7.177c3.9-.751,7.348,3.743,7.348,9.564v23.482C1288.165,2352.07,1284.712,2356.565,1280.817,2355.813Z" transform="translate(-1228.245 -2312.589)" fill="#f6fafc"/>
              <path id="Trazado_16084" data-name="Trazado 16084" d="M1235.147,2329.59a10.876,10.876,0,1,0,0,21.74" transform="translate(-1223.905 -2317.675)" stroke="#00223d" stroke-miterlimit="10" stroke-width="5.369" fill="url(#linear-gradient)"/>
              <path id="Trazado_16085" data-name="Trazado 16085" d="M1260.472,2365.922s-8.777,9.151-1.651,18.626a1.194,1.194,0,0,1-.952,1.9h-9.13a2.078,2.078,0,0,1-2.064-2.089v-20.7" transform="translate(-1230.936 -2328.195)" stroke="#00223d" stroke-miterlimit="10" stroke-width="5.158" fill="url(#linear-gradient)"/>
              <path id="Trazado_16086" data-name="Trazado 16086" d="M1277.919,2359.474l-35.223-5c-3.071-.436-5.369-4.811-5.369-8.187v-3.313c0-3.376,2.3-7.75,5.369-8.187l35.223-5c3.689-.524,6.959,2.607,6.959,6.663v16.359C1284.878,2356.866,1281.608,2360,1277.919,2359.474Z" transform="translate(-1228.05 -2317.719)" fill="#aee6e6"/>
              <path id="Trazado_16087" data-name="Trazado 16087" d="M1280.817,2355.813l-37.189-7.176c-3.243-.625-5.668-6.906-5.668-11.751v-4.755c0-4.845,2.425-11.125,5.668-11.75l37.189-7.177c3.9-.751,7.348,3.743,7.348,9.564v23.482C1288.165,2352.07,1284.712,2356.565,1280.817,2355.813Z" transform="translate(-1228.245 -2312.589)" fill="none" stroke="#00223d" stroke-miterlimit="10" stroke-width="5.732"/>
              <line id="Línea_140" data-name="Línea 140" y2="41.798" transform="translate(52.536)" fill="#eec251" stroke="#00223d" stroke-miterlimit="10" stroke-width="4.585"/>
            </g>
            <g id="Grupo_12234" data-name="Grupo 12234" transform="translate(67.397)">
              <g id="Grupo_12233" data-name="Grupo 12233">
                <g id="Grupo_12228" data-name="Grupo 12228" transform="translate(14.097)">
                  <g id="Grupo_12227" data-name="Grupo 12227">
                    <path id="Trazado_16088" data-name="Trazado 16088" d="M1345.335,2360.082l-3.529-3.576a30.511,30.511,0,0,0,.121-42.513l3.531-3.574A35.607,35.607,0,0,1,1345.335,2360.082Z" transform="translate(-1341.807 -2310.419)" fill="#00223d"/>
                  </g>
                </g>
                <g id="Grupo_12230" data-name="Grupo 12230" transform="translate(7.05 7.135)">
                  <g id="Grupo_12229" data-name="Grupo 12229">
                    <path id="Trazado_16089" data-name="Trazado 16089" d="M1335.141,2356.135l-3.529-3.572a20.337,20.337,0,0,0,.12-28.249l3.529-3.572A25.426,25.426,0,0,1,1335.141,2356.135Z" transform="translate(-1331.612 -2320.742)" fill="#00223d"/>
                  </g>
                </g>
                <g id="Grupo_12232" data-name="Grupo 12232" transform="translate(0 14.27)">
                  <g id="Grupo_12231" data-name="Grupo 12231">
                    <path id="Trazado_16090" data-name="Trazado 16090" d="M1324.944,2352.189l-3.532-3.573a10.179,10.179,0,0,0,.122-13.98l3.529-3.573A15.274,15.274,0,0,1,1324.944,2352.189Z" transform="translate(-1321.412 -2331.064)" fill="#00223d"/>
                  </g>
                </g>
              </g>
            </g>
          </g>
        </g>
        <path id="Trazado_16091" data-name="Trazado 16091" d="M1530.485,2251.585l12.708-1.865-9.432-6.329,5.682-7.281-9.972.852.585-8.746-8.857,8.151-4.111-6.887-2.6,9.543" transform="translate(-1388.903 -2228.216)" fill="#f5ca56" stroke="#00223d" stroke-miterlimit="10" stroke-width="4.423"/>
      </g>
      <path id="Trazado_16092" data-name="Trazado 16092" d="M1343.181,2272.186h-34.593c-.641,0-1.216-.591-1.443-1.485l-2.059-8.14c-.5-1.985-2.392-1.978-2.887.011l-4.086,16.386c-.516,2.072-2.508,1.966-2.924-.156l-3.923-20.011c-.405-2.069-2.329-2.239-2.9-.257l-3.708,12.956c-.242.846-.8,1.395-1.418,1.395h-23.231" transform="translate(-1248.67 -2257.139)" fill="none" stroke="#00223d" stroke-linecap="round" stroke-miterlimit="10" stroke-width="5.124"/>
      <path id="Trazado_16093" data-name="Trazado 16093" d="M1246.519,2281.286h0a2.925,2.925,0,0,1-2.916-2.916h0a2.925,2.925,0,0,1,2.916-2.916h0a2.925,2.925,0,0,1,2.916,2.916h0A2.924,2.924,0,0,1,1246.519,2281.286Z" transform="translate(-1243.603 -2262.795)" fill="#00223d"/>
    </g>
    <g id="Grupo_12246" data-name="Grupo 12246" transform="translate(1370.88 2216.453)">
      <g id="Grupo_12242" data-name="Grupo 12242" transform="translate(0 0)">
        <path id="Trazado_16094" data-name="Trazado 16094" d="M1443.168,2365.432H1470.3c6.5,0,6.5-5.08,6.241-11.576-.35-8.848,2.063-21,.073-28.708-2.955-11.446,16.057-10.551,17.325-33.074h0v.288c-.008-27.933-20.095-44.2-44.108-44.2s-43.491,17.365-43.491,38.786c0,5.986.318,10.208,3.033,15.269l6.318.64s-2.839,12.814,4.2,17.989,3.52,16.74,9.279,18.262,12.155-7.61,12.155-7.61S1443.771,2357.794,1443.168,2365.432Z" transform="translate(-1389.483 -2235.617)" fill="#ccdcea"/>
        <g id="Grupo_12239" data-name="Grupo 12239">
          <path id="Trazado_16095" data-name="Trazado 16095" d="M1398.666,2290.829c-3-5.695-3.352-10.445-3.352-17.179,0-24.1,21.523-43.637,48.074-43.637s52.443,19.014,52.443,50.453c-.109,11.739-2.269,23.128-12.352,33.325v43.759" transform="translate(-1386.076 -2230.013)" fill="none" stroke="#00223d" stroke-linecap="round" stroke-miterlimit="10" stroke-width="5.124"/>
          <path id="Trazado_16096" data-name="Trazado 16096" d="M1406.35,2390.276c.348,1.049,21.519,5.166,33.134-5.578" transform="translate(-1389.484 -2277.779)" fill="none" stroke="#00223d" stroke-linecap="round" stroke-miterlimit="10" stroke-width="5.124"/>
          <path id="Trazado_16097" data-name="Trazado 16097" d="M1395.409,2319.719s-4.576,7.3-12.382,18.449c-3.9,5.573,3.726,6.619,8.16,6.792,3.547.349,1.242,1.568,0,3.135s3.352,4.006,3.352,4.006l.195,2.089s-1.064,2.264,1.774,3.135,2.338,8.433,2.307,12.887" transform="translate(-1381.949 -2257.713)" fill="none" stroke="#00223d" stroke-linecap="round" stroke-miterlimit="10" stroke-width="5.124"/>
          <path id="Trazado_16098" data-name="Trazado 16098" d="M1407.289,2366.567" transform="translate(-1389.774 -2272.181)" fill="none" stroke="#414651" stroke-miterlimit="10" stroke-width="5.124"/>
          <path id="Trazado_16099" data-name="Trazado 16099" d="M1422.262,2285.441" transform="translate(-1394.398 -2247.129)" fill="none" stroke="#414651" stroke-miterlimit="10" stroke-width="5.124"/>
          <path id="Trazado_16100" data-name="Trazado 16100" d="M1527.5,2306.352" transform="translate(-1426.896 -2253.586)" fill="none" stroke="#414651" stroke-miterlimit="10" stroke-width="5.124"/>
          <path id="Trazado_16101" data-name="Trazado 16101" d="M1399.86,2366.4" transform="translate(-1387.48 -2272.128)" fill="none" stroke="#414651" stroke-miterlimit="10" stroke-width="5.124"/>
        </g>
        <path id="Trazado_16102" data-name="Trazado 16102" d="M1408.6,2367.112s-6.316-1.039-8.3,0" transform="translate(-1387.617 -2272.206)" fill="none" stroke="#00223d" stroke-linecap="round" stroke-miterlimit="10" stroke-width="2.678"/>
        <path id="Trazado_16103" data-name="Trazado 16103" d="M1431.658,2352.834" transform="translate(-1397.299 -2267.94)" fill="none" stroke="#414651" stroke-miterlimit="10" stroke-width="3.125"/>
        <g id="Grupo_12241" data-name="Grupo 12241" transform="translate(20.233 7.84)">
          <path id="Trazado_16104" data-name="Trazado 16104" d="M1470.078,2297.591c-4.485,0-8.171-1.391-10.022-3.891a12.018,12.018,0,0,0-3.328-3.016,29.666,29.666,0,0,1-11.05,2.092c-13.028,0-23.627-8.114-23.627-18.087l0-.237c-.111-4.216,2.339-8.841,6.726-12.692,8.332-7.314,21.748-10.548,35.886-8.653h0c10.9,1.463,18.584,5.489,22.829,11.967,6.064,9.256,2.828,20.011,2.688,20.465-2.563,7.3-10.581,10.909-16.673,11.8A23.805,23.805,0,0,1,1470.078,2297.591Z" transform="translate(-1414.566 -2244.82)" fill="#91b8c5"/>
          <g id="Grupo_12240" data-name="Grupo 12240">
            <path id="Trazado_16105" data-name="Trazado 16105" d="M1511.619,2288.9" transform="translate(-1442.224 -2256.038)" fill="#fff"/>
            <path id="Trazado_16106" data-name="Trazado 16106" d="M1491.685,2272.83" transform="translate(-1436.069 -2251.075)" fill="#fff"/>
            <path id="Trazado_16107" data-name="Trazado 16107" d="M1462.634,2290.092c-4.8,0-8.747-1.505-10.728-4.213a12.9,12.9,0,0,0-3.562-3.264,31.466,31.466,0,0,1-11.829,2.264c-13.946,0-25.292-8.784-25.292-19.582l0-.256c-.119-4.564,2.5-9.571,7.2-13.741,8.92-7.919,23.282-11.419,38.417-9.367h0c11.673,1.583,19.9,5.942,24.439,12.955,6.491,10.021,3.027,21.665,2.877,22.156-2.743,7.9-11.327,11.811-17.848,12.771A25.275,25.275,0,0,1,1462.634,2290.092Zm-14.139-10.286.552.3a15.3,15.3,0,0,1,4.905,4.278c1.893,2.587,6.591,3.736,11.984,2.941,5.816-.857,13.445-4.266,15.8-11.057.019-.064,3.251-11.016-2.612-20.043-4.127-6.354-11.74-10.324-22.629-11.8-14.4-1.953-28,1.316-36.372,8.748-4.149,3.683-6.466,7.995-6.356,11.827v.025l0,.273c0,9.409,10.2,17.065,22.748,17.065a28.716,28.716,0,0,0,11.405-2.3Z" transform="translate(-1411.222 -2241.356)" fill="#00223d"/>
            <path id="Trazado_16108" data-name="Trazado 16108" d="M1455.675,2291.46a.851.851,0,0,1-.855-.847c0-7.471-8.331-13.548-18.571-13.548a.846.846,0,1,1,0-1.692c11.183,0,20.281,6.837,20.281,15.24A.852.852,0,0,1,1455.675,2291.46Z" transform="translate(-1418.686 -2251.86)" fill="#00223d"/>
            <path id="Trazado_16109" data-name="Trazado 16109" d="M1437.238,2268.8c-3.619-1.216-7.789-.426-10.122,2.826-2.047,2.851-.519,6,2.554,7.213a24.719,24.719,0,0,1,4.031,1.535,14.546,14.546,0,0,0,2.123,1.363c1.952.769,3.8.289,5.636,1.567.52.362,2.174,1.139,2.489,1.69.8,1.4-1.224,1.693-2.29,1.9-2.376.453-4.119-.9-6.4-.993-.7-.028-.7,1.055,0,1.083,1.9.074,3.434,1.328,5.376,1.166a9.108,9.108,0,0,0,4.062-1.049c2.621-1.823-1.111-3.6-2.423-4.54a7.179,7.179,0,0,0-3.585-1.508,7.79,7.79,0,0,1-3.89-1.234,10.763,10.763,0,0,0-2.348-1.258c-1.552-.568-3.326-.734-4.426-2.115a3.51,3.51,0,0,1,.4-4.693,7.761,7.761,0,0,1,8.528-1.906c.668.224.955-.821.291-1.044Z" transform="translate(-1415.841 -2249.665)" fill="#00223d"/>
            <path id="Trazado_16110" data-name="Trazado 16110" d="M1414.306,2265.763a3.977,3.977,0,0,0,2.914,4.213c2.293.642,4.255-.764,5.9-2.184.532-.459-.245-1.222-.774-.765-1.176,1.017-2.523,2.13-4.184,2.007a2.921,2.921,0,0,1-2.76-3.271c.091-.688-1-.682-1.094,0Z" transform="translate(-1412.165 -2248.734)" fill="#00223d"/>
            <path id="Trazado_16111" data-name="Trazado 16111" d="M1442.958,2272.776c2.73.027,4.755-2.967,4.522-5.5a2.924,2.924,0,0,0-1.73-2.538c-1.474-.654-3.443-.1-4.564-1.439-.449-.538-1.219.231-.774.765,1.266,1.517,3.073.94,4.718,1.593,2.991,1.188.387,6.067-2.171,6.042a.541.541,0,0,0,0,1.082Z" transform="translate(-1420.194 -2248.074)" fill="#00223d"/>
            <path id="Trazado_16112" data-name="Trazado 16112" d="M1435.908,2263.489c-2.179-.864-2.459-5.361-.437-6.511,1.574-.9,3.4-.2,4.886-1.472.532-.458-.244-1.22-.774-.765-1.2,1.03-2.926.559-4.314,1.143a3.587,3.587,0,0,0-2.073,2.7c-.457,2.177.152,5.053,2.42,5.953.654.259.937-.787.291-1.043Z" transform="translate(-1417.964 -2245.446)" fill="#00223d"/>
            <path id="Trazado_16113" data-name="Trazado 16113" d="M1453.912,2294.208c1.034-.087,3.171-.394,3.231,1.1.027.694,1.122.7,1.094,0-.092-2.3-2.556-2.336-4.326-2.187-.7.059-.7,1.142,0,1.083Z" transform="translate(-1424.242 -2257.326)" fill="#00223d"/>
            <path id="Trazado_16114" data-name="Trazado 16114" d="M1489.384,2279.539c-2.15,1.806-5.767,1.716-8.382,1.169-2.45-.511-4.672-1.845-7.26-1.56-2.432.269-6.851,3.268-2.95,5.122a14.63,14.63,0,0,0,6.127.92c1.158,0,6.023-.525,5.85,1.72-.12,1.552-2.885,1.875-4.006,2.016a22.709,22.709,0,0,1-9.636-1.158c-2.36-.73-4.526-1.751-6.936-.743-.646.271-.089,1.2.552.935,2.049-.857,4.176.26,6.094.852a32.216,32.216,0,0,0,4.774,1.144,17.916,17.916,0,0,0,6.939-.234c2.753-.7,5.159-4.174,1.283-5.274-2.867-.814-5.935-.068-8.851-.675a5.038,5.038,0,0,1-1.68-.487c-1.355-.873-.02-2.2.973-2.694,1.7-.85,3.9-.273,5.585.267,3.834,1.227,8.883,2.313,12.3-.554.537-.451-.24-1.213-.774-.765Z" transform="translate(-1426.872 -2253.014)" fill="#00223d"/>
            <path id="Trazado_16115" data-name="Trazado 16115" d="M1457.585,2244.256c4.642,3.832-3.24,6.487-1.569,10.358.4.928,1.741,1.218,1.086,2.52-.355.706-1.087.885-1.37,1.731-.627,1.877.335,3.2,1.963,4.072.62.332,1.173-.6.552-.935a2.487,2.487,0,0,1-.937-3.636c.326-.381.78-.543,1.046-.994a1.83,1.83,0,0,0,.307-.971c0-.833-.509-1.016-.94-1.578-1.012-1.318-.556-2.039.249-3.321,1.76-2.8,3.5-5.438.386-8.011-.537-.444-1.315.318-.773.765Z" transform="translate(-1424.907 -2241.974)" fill="#00223d"/>
            <path id="Trazado_16116" data-name="Trazado 16116" d="M1445.262,2261.653c1.082-1.215,1.232-2.992,1.657-4.495.379-1.337,1.1-2.565.451-3.911a7.417,7.417,0,0,0-4.127-3.23,5.24,5.24,0,0,0-2.3-.262c-.746.08-2.981,1.152-3.128-.167-.075-.685-1.171-.693-1.094,0,.335,3.028,3.439,1.021,5.342,1.282a6.453,6.453,0,0,1,3.713,2.065,2.319,2.319,0,0,1,.489,2.7c-.464,1.56-.686,4.027-1.774,5.25-.464.521.307,1.289.773.765Z" transform="translate(-1419.094 -2243.738)" fill="#00223d"/>
            <path id="Trazado_16117" data-name="Trazado 16117" d="M1472.324,2300.893c2.439-2.685,5.282-2.651,8.642-2.06,2.038.359,4.23.984,6.228.155,1.981-.822,3.428-1.9,5.609-2.3,1.61-.291,2.884-.764,3.566-2.327.276-.632-.666-1.184-.944-.546-.929,2.126-3.554,1.679-5.4,2.411a24.046,24.046,0,0,0-2.547,1.392c-1.633.881-3.078.71-4.853.415-4.2-.7-7.931-1.366-11.07,2.091-.469.517.3,1.284.773.765Z" transform="translate(-1429.806 -2257.469)" fill="#00223d"/>
            <path id="Trazado_16118" data-name="Trazado 16118" d="M1509.659,2292.5c.265-2.223.028-4.3-2.213-5.363-2.644-1.259-4.733,1.378-7.254.561-.671-.217-.959.828-.291,1.044,1.816.588,3.025-.347,4.73-.8a3.318,3.318,0,0,1,3.647,1.237,5.137,5.137,0,0,1,.287,3.317c-.082.69,1.012.684,1.094,0Z" transform="translate(-1438.489 -2255.388)" fill="#00223d"/>
            <path id="Trazado_16119" data-name="Trazado 16119" d="M1509.716,2277.577c-.907-.024-1.36-.251-1.212-1.178.108-.677.393-1.32.561-1.982.3-1.181.216-2.372-1.147-2.745a.542.542,0,0,0-.291,1.043c1.219.334-.1,2.809-.216,3.63-.214,1.569.811,2.274,2.305,2.313a.541.541,0,0,0,0-1.082Z" transform="translate(-1440.872 -2250.711)" fill="#00223d"/>
            <path id="Trazado_16120" data-name="Trazado 16120" d="M1489.483,2266.577c5.494.187,9.624-6.61,5.494-10.851a11.029,11.029,0,0,0-7.475-2.9c-2.531-.087-5.382.583-7.387-1.4a3.818,3.818,0,0,1,.742-6.144c.585-.383.037-1.321-.552-.934-4.167,2.728-2.67,8.347,2.036,9.434,3.587.828,7.191-.447,10.544,1.668,4.874,3.075,2.225,10.243-3.4,10.052-.7-.024-.7,1.058,0,1.083Z" transform="translate(-1431.801 -2242.249)" fill="#00223d"/>
          </g>
          <path id="Trazado_16121" data-name="Trazado 16121" d="M1482.713,2263.738c-.007-.163-.019-.326-.037-.491a7.118,7.118,0,0,0-6.6-6.374,7.579,7.579,0,0,1-12.741,0,7.118,7.118,0,0,0-6.573,6.5,7.431,7.431,0,0,0,.234,2.656,3.2,3.2,0,0,0,.768,1.362l11.89,12.453,11.531-12.1A5.491,5.491,0,0,0,1482.713,2263.738Z" transform="translate(-1425.275 -2246.145)" fill="#f6fafc"/>
          <path id="Trazado_16122" data-name="Trazado 16122" d="M1486.728,2266.389c-.007-.158-.019-.318-.035-.479a6.8,6.8,0,0,0-6.186-6.216c-2.523-.134-5.241,2.408-6.443,4.539-1.208-2.14-2.965-4.686-5.5-4.537a6.807,6.807,0,0,0-6.162,6.339,7.521,7.521,0,0,0,.219,2.591,3.151,3.151,0,0,0,.72,1.327l11.147,12.145,10.81-11.8A5.482,5.482,0,0,0,1486.728,2266.389Z" transform="translate(-1427.016 -2247.017)" fill="#ada4ce"/>
          <path id="Trazado_16123" data-name="Trazado 16123" d="M1482.915,2263.288c-.007-.178-.02-.358-.039-.538a7.616,7.616,0,0,0-6.917-6.975,7.769,7.769,0,0,1-13.359,0,7.626,7.626,0,0,0-6.891,7.113,8.494,8.494,0,0,0,.245,2.907,3.556,3.556,0,0,0,.805,1.49l12.466,13.627,12.09-13.24A6.161,6.161,0,0,0,1482.915,2263.288Z" transform="translate(-1424.949 -2245.805)" fill="none" stroke="#00223d" stroke-miterlimit="10" stroke-width="4.229"/>
        </g>
      </g>
      <path id="Trazado_16124" data-name="Trazado 16124" d="M1401.57,2316.2l7.123-2.2a.983.983,0,0,0,.666-.713l1.727-7.252,2.2,7.123a.984.984,0,0,0,.712.667l7.253,1.728-7.122,2.2a.984.984,0,0,0-.667.712l-1.727,7.253-2.2-7.123a.986.986,0,0,0-.713-.667Z" transform="translate(-1388.008 -2253.487)" fill="#f6c343" stroke="#00223d" stroke-miterlimit="10" stroke-width="2.279"/>
      <path id="Trazado_16125" data-name="Trazado 16125" d="M1477.424,2319.6v8.626c0,2.151-2.036,3.895-4.548,3.895h-15.591c-2.511,0-4.547,1.744-4.547,3.9v.557c0,2.151,2.036,3.9,4.547,3.9h30.209c2.511,0,4.547,1.744,4.547,3.9h0c0,2.151-2.036,3.9-4.547,3.9h-24.037c-2.511,0-4.547,1.743-4.547,3.895v.279c0,2.151,2.036,3.9,4.547,3.9H1481v13.293" transform="translate(-1403.808 -2257.677)" fill="none" stroke="#00223d" stroke-miterlimit="10" stroke-width="3.29"/>
      <path id="Trazado_16126" data-name="Trazado 16126" d="M1475.764,2316.171h17.053l-8.526-13.936Z" transform="translate(-1410.919 -2252.315)" fill="#00223d"/>
      <line id="Línea_141" data-name="Línea 141" y2="17.114" transform="translate(39.571 112.48)" fill="none" stroke="#00223d" stroke-linecap="round" stroke-miterlimit="10" stroke-width="4.229"/>
      <g id="Grupo_12243" data-name="Grupo 12243" transform="translate(73.371 166.127)">
        <path id="Trazado_16127" data-name="Trazado 16127" d="M1554.572,2305.822c1.181-6.614,5.8-9.891,10.145-14.407,2.8-2.91,5.853-5.546,7.67-9.152a15.266,15.266,0,0,1,2.188-3.632,4.363,4.363,0,0,1,6.164-.35c1.877,1.825,1.823,4.831.932,7.125-.98,2.522-3.473,3.958-4.541,6.445-.814,1.9-2.043,4.65-.213,5.756,6.692,4.047,11.129-.022,13.589-2.866a30.714,30.714,0,0,1,6.045-5.444,27.857,27.857,0,0,1,3.634-2.059c.94-.443,3.261-.859,3.784-1.758,1.4-2.41,2.34-4.365,5.832-4.011,3.394.343,4.544,2.995,5.985,5.61,11.922,21.638-12.864,41.119-32.889,40.719-4.652-.093-9.27-1.05-13.921-.9s-9.591,1.647-12.362,5.386" transform="translate(-1554.572 -2277.166)" fill="#ccdcea" stroke="#00223d" stroke-miterlimit="10" stroke-width="4.1"/>
        <path id="Trazado_16128" data-name="Trazado 16128" d="M1577.787,2317.18c6.263-2.783,5.538-7.974,5.243-12.268" transform="translate(-1561.741 -2285.734)" fill="none" stroke="#00223d" stroke-linecap="round" stroke-miterlimit="10" stroke-width="4.1"/>
        <path id="Trazado_16129" data-name="Trazado 16129" d="M1623.813,2315.281c1.088-1.89-.335-4.487-2.62-5.129-2.709-.761-4.935,2.143-5.85,4.181-1.615,3.6-4.209,9.189-9.136,8.936-3.326-.171-6.625-2.239-9.58-3.582-16.482-7.492-22.271,1.392-22.271,1.392" transform="translate(-1560.681 -2287.313)" fill="none" stroke="#00223d" stroke-linecap="round" stroke-miterlimit="10" stroke-width="4.1"/>
        <path id="Trazado_16130" data-name="Trazado 16130" d="M1596.915,2309.238a14.885,14.885,0,0,1,7.422,7.423" transform="translate(-1567.647 -2287.07)" fill="#fff" stroke="#00223d" stroke-linecap="round" stroke-miterlimit="10" stroke-width="4.1"/>
        <path id="Trazado_16131" data-name="Trazado 16131" d="M1609.345,2304.5s9.353-6.828,11.926-15.932" transform="translate(-1571.486 -2280.687)" fill="none" stroke="#00223d" stroke-linecap="round" stroke-miterlimit="10" stroke-width="4.1"/>
        <path id="Trazado_16132" data-name="Trazado 16132" d="M1633.443,2286.084s.232,12.989-14.381,23.427" transform="translate(-1574.486 -2279.92)" fill="none" stroke="#00223d" stroke-linecap="round" stroke-miterlimit="10" stroke-width="4.1"/>
        <path id="Trazado_16133" data-name="Trazado 16133" d="M1642.783,2304.547s4.871-9.742.464-12.757-5.205,4.041-5.205,4.041" transform="translate(-1580.347 -2281.45)" fill="none" stroke="#414651" stroke-linecap="round" stroke-miterlimit="10" stroke-width="4.1"/>
        <path id="Trazado_16134" data-name="Trazado 16134" d="M1642.621,2304.61s4.979-9.906.464-12.758c-4.406-2.783-5.566,4.871-5.566,4.871" transform="translate(-1580.185 -2281.513)" fill="#ccdcea" stroke="#00223d" stroke-linecap="round" stroke-miterlimit="10" stroke-width="4.1"/>
      </g>
      <g id="Grupo_12245" data-name="Grupo 12245" transform="translate(96.683 121.037)">
        <g id="Grupo_12244" data-name="Grupo 12244">
          <path id="Trazado_16135" data-name="Trazado 16135" d="M1618.514,2250.592a8.82,8.82,0,1,0,3.3-12.03A8.821,8.821,0,0,0,1618.514,2250.592Z" transform="translate(-1597.271 -2219.798)" fill="#fff" stroke="#00223d" stroke-miterlimit="10" stroke-width="2.554"/>
          <line id="Línea_142" data-name="Línea 142" x2="6.029" y2="7.679" transform="translate(35.928 32.926)" fill="none" stroke="#00223d" stroke-miterlimit="10" stroke-width="2.211"/>
          <path id="Trazado_16136" data-name="Trazado 16136" d="M1620.805,2250.567a6.975,6.975,0,1,0,2.585-9.552A7,7,0,0,0,1620.805,2250.567Z" transform="translate(-1598.05 -2220.632)" fill="#ccdcea"/>
          <path id="Trazado_16137" data-name="Trazado 16137" d="M1590.135,2248.149a2.65,2.65,0,1,0,.99-3.615A2.651,2.651,0,0,0,1590.135,2248.149Z" transform="translate(-1588.758 -2221.893)" fill="#aee6e6"/>
          <path id="Trazado_16138" data-name="Trazado 16138" d="M1648.032,2274.669a3.539,3.539,0,1,0,.4-4.989A3.538,3.538,0,0,0,1648.032,2274.669Z" transform="translate(-1606.483 -2229.504)" fill="#e36099"/>
          <path id="Trazado_16139" data-name="Trazado 16139" d="M1642.824,2217.547a3.525,3.525,0,1,0,1.69-4.691A3.524,3.524,0,0,0,1642.824,2217.547Z" transform="translate(-1605.032 -2212.114)" fill="#e36099"/>
          <path id="Trazado_16140" data-name="Trazado 16140" d="M1643.766,2216.99a3.547,3.547,0,1,0,1.7-4.72A3.546,3.546,0,0,0,1643.766,2216.99Z" transform="translate(-1605.322 -2211.933)" fill="none" stroke="#00223d" stroke-miterlimit="10" stroke-width="2.477"/>
          <path id="Trazado_16141" data-name="Trazado 16141" d="M1605.475,2220.536a3.467,3.467,0,1,0,.527-4.875A3.467,3.467,0,0,0,1605.475,2220.536Z" transform="translate(-1593.366 -2212.847)" fill="#aee6e6" stroke="#00223d" stroke-miterlimit="10" stroke-width="2.803"/>
          <path id="Trazado_16142" data-name="Trazado 16142" d="M1646.267,2275.406a4.091,4.091,0,1,0,1.466-5.6A4.09,4.09,0,0,0,1646.267,2275.406Z" transform="translate(-1606.026 -2229.632)" fill="none" stroke="#00223d" stroke-miterlimit="10" stroke-width="2.064"/>
          <path id="Trazado_16143" data-name="Trazado 16143" d="M1588.768,2247.414a3.582,3.582,0,1,0,1.34-4.885A3.581,3.581,0,0,0,1588.768,2247.414Z" transform="translate(-1588.298 -2221.236)" fill="none" stroke="#00223d" stroke-miterlimit="10" stroke-width="2.708"/>
          <path id="Trazado_16144" data-name="Trazado 16144" d="M1662.911,2249.034a3.5,3.5,0,1,0,1.06-4.836A3.5,3.5,0,0,0,1662.911,2249.034Z" transform="translate(-1611.167 -2221.725)" fill="#f6c343" stroke="#00223d" stroke-miterlimit="10" stroke-width="2.477"/>
          <path id="Trazado_16145" data-name="Trazado 16145" d="M1623.727,2250.4a4.859,4.859,0,1,0,1.817-6.627A4.859,4.859,0,0,0,1623.727,2250.4Z" transform="translate(-1599.042 -2221.569)" fill="#00223d"/>
          <line id="Línea_143" data-name="Línea 143" x1="13.215" y1="1.118" transform="translate(6.814 25.06)" fill="none" stroke="#00223d" stroke-miterlimit="10" stroke-width="2.211"/>
          <line id="Línea_144" data-name="Línea 144" y1="10.138" x2="7.198" transform="translate(16.842 32.874)" fill="none" stroke="#00223d" stroke-miterlimit="10" stroke-width="2.064"/>
          <line id="Línea_145" data-name="Línea 145" y1="12.535" x2="7.706" transform="translate(32.249 6.125)" fill="none" stroke="#00223d" stroke-miterlimit="10" stroke-width="2.477"/>
          <line id="Línea_146" data-name="Línea 146" x2="13.442" y2="0.186" transform="translate(38.021 25.181)" fill="none" stroke="#00223d" stroke-miterlimit="10" stroke-width="2.233"/>
          <line id="Línea_147" data-name="Línea 147" x1="6.701" y1="9.896" transform="translate(17.016 8.668)" fill="none" stroke="#00223d" stroke-miterlimit="10" stroke-width="2.708"/>
          <path id="Trazado_16146" data-name="Trazado 16146" d="M1604.79,2278.106a3.77,3.77,0,1,0,1.855-5.083A3.827,3.827,0,0,0,1604.79,2278.106Z" transform="translate(-1593.283 -2230.698)" fill="#aee6e6" stroke="#00223d" stroke-miterlimit="10" stroke-width="2.058"/>
        </g>
      </g>
    </g>
    <path id="Trazado_16147" data-name="Trazado 16147" d="M1615.858,2359.3h29.28c.641,0,1.216-.592,1.443-1.485l2.06-8.139c.5-1.985,2.391-1.979,2.886.01l4.086,16.386c.516,2.072,2.508,1.965,2.925-.155l3.922-20.012c.4-2.068,2.33-2.239,2.9-.257l3.708,12.956c.243.845.8,1.395,1.418,1.395h23.231" transform="translate(-139.25 -53.5)" fill="none" stroke="#00223d" stroke-linecap="round" stroke-miterlimit="10" stroke-width="5.124"/>
    <path id="Trazado_16148" data-name="Trazado 16148" d="M1739.382,2368.4h0a2.925,2.925,0,0,0,2.916-2.916h0a2.925,2.925,0,0,0-2.916-2.916h0a2.924,2.924,0,0,0-2.916,2.916h0A2.925,2.925,0,0,0,1739.382,2368.4Z" transform="translate(-176.494 -59.156)" fill="#00223d"/>
    <g id="Grupo_12249" data-name="Grupo 12249" transform="translate(1448.318 2188.043)">
      <g id="Grupo_12247" data-name="Grupo 12247" transform="translate(5.471 5.132)">
        <path id="Trazado_16149" data-name="Trazado 16149" d="M1617.832,2399.808c-6.983-.188-6.7-10.761-13.681-10.95s-7.269,10.385-14.253,10.2-6.7-10.761-13.684-10.949-7.27,10.384-14.254,10.2" transform="translate(-1561.961 -2388.102)" fill="none" stroke="#00223d" stroke-linecap="round" stroke-miterlimit="10" stroke-width="2.664"/>
      </g>
      <g id="Grupo_12248" data-name="Grupo 12248" transform="translate(5.846 3.723)">
        <path id="Trazado_16150" data-name="Trazado 16150" d="M1562.5,2386.063c6.983.188,6.7,10.761,13.681,10.95s7.269-10.384,14.252-10.2,6.7,10.761,13.684,10.95,7.27-10.385,14.255-10.2" transform="translate(-1562.504 -2386.063)" fill="none" stroke="#00223d" stroke-linecap="round" stroke-miterlimit="10" stroke-width="2.664"/>
      </g>
      <ellipse id="Elipse_628" data-name="Elipse 628" cx="2.609" cy="2.212" rx="2.609" ry="2.212" transform="matrix(0.243, -0.97, 0.97, 0.243, 60.24, 19.828)" fill="#e36099" stroke="#00223d" stroke-miterlimit="10" stroke-width="1.54"/>
      <path id="Trazado_16151" data-name="Trazado 16151" d="M1561.215,2383.324a2.617,2.617,0,0,1-2.451,2.527,2.263,2.263,0,0,1-2-2.647,2.615,2.615,0,0,1,2.452-2.527A2.264,2.264,0,0,1,1561.215,2383.324Z" transform="translate(-1554.881 -2380.677)" fill="#e36099" stroke="#00223d" stroke-miterlimit="10" stroke-width="1.54"/>
      <circle id="Elipse_629" data-name="Elipse 629" cx="2.661" cy="2.661" r="2.661" transform="translate(0 13.516)" fill="#e36099" stroke="#00223d" stroke-miterlimit="10" stroke-width="1.736"/>
      <circle id="Elipse_630" data-name="Elipse 630" cx="2.661" cy="2.661" r="2.661" transform="translate(59.897 4.901) rotate(-49.027)" fill="#e36099" stroke="#00223d" stroke-miterlimit="10" stroke-width="1.736"/>
    </g>
    <path id="Trazado_16152" data-name="Trazado 16152" d="M1681.551,2316.5a3.454,3.454,0,0,1-2.269-.939l-11.144-10.325a2.229,2.229,0,0,1,.245-3.555,3.517,3.517,0,0,1,4.291.189l8.726,8.038,18.132-19.033a3.5,3.5,0,0,1,4.268-.429,2.215,2.215,0,0,1,.518,3.508l-20.375,21.486a3.283,3.283,0,0,1-2.3,1.061Z" transform="translate(-155.156 -36.719)" fill="#f5ca56" stroke="#00223d" stroke-miterlimit="10" stroke-width="3.438"/>
  </g>
</svg>
