<svg xmlns="http://www.w3.org/2000/svg" xmlns:xlink="http://www.w3.org/1999/xlink" width="411.962" height="281.256" viewBox="0 0 411.962 281.256">
  <defs>
    <linearGradient id="linear-gradient" x1="0.5" x2="0.5" y2="1" gradientUnits="objectBoundingBox">
      <stop offset="0" stop-color="#fff"/>
      <stop offset="1" stop-color="#f1f7fa"/>
    </linearGradient>
    <linearGradient id="linear-gradient-2" x1="0.5" x2="0.5" y2="1" gradientUnits="objectBoundingBox">
      <stop offset="0" stop-color="#fff"/>
      <stop offset="1" stop-color="#d3d3d3"/>
    </linearGradient>
  </defs>
  <g id="Grupo_46795" data-name="Grupo 46795" transform="translate(-343.613 -798.768)">
    <g id="Grupo_46739" data-name="Grupo 46739" transform="translate(343.613 802.775)">
      <g id="Grupo_46726" data-name="Grupo 46726" transform="translate(52.87 84.257)">
        <path id="Trazado_97178" data-name="Trazado 97178" d="M729.009,1473.615h42.673a9.564,9.564,0,0,1,9.564,9.564v19.893a9.564,9.564,0,0,1-9.564,9.564h-.317l3.425,11.474a.544.544,0,0,1-.851.588l-15.811-12.062H729.009a9.564,9.564,0,0,1-9.564-9.564v-19.893A9.564,9.564,0,0,1,729.009,1473.615Z" transform="translate(-719.445 -1473.615)" fill="#f1f1f1"/>
        <path id="Trazado_97179" data-name="Trazado 97179" d="M801.353,1523.3h-40.97a4.734,4.734,0,0,1-4.734-4.735h0a4.734,4.734,0,0,1,4.734-4.733h40.97a4.734,4.734,0,0,1,4.734,4.733h0A4.734,4.734,0,0,1,801.353,1523.3Z" transform="translate(-749.135 -1506.599)" fill="#00223d" opacity="0.25"/>
        <path id="Trazado_97180" data-name="Trazado 97180" d="M801.353,1603.662h-40.97a4.734,4.734,0,0,1-4.734-4.734h0a4.734,4.734,0,0,1,4.734-4.734h40.97a4.734,4.734,0,0,1,4.734,4.734h0A4.734,4.734,0,0,1,801.353,1603.662Z" transform="translate(-749.135 -1572.5)" fill="#00223d" opacity="0.25"/>
      </g>
      <g id="Grupo_46727" data-name="Grupo 46727" transform="translate(266.618 30.561)">
        <path id="Trazado_97181" data-name="Trazado 97181" d="M1964.485,1175.156h-46.537a10.43,10.43,0,0,0-10.43,10.43v21.694a10.431,10.431,0,0,0,10.43,10.43h.345l-3.735,12.513a.593.593,0,0,0,.928.641l17.243-13.155h31.756a10.431,10.431,0,0,0,10.43-10.43v-21.694A10.431,10.431,0,0,0,1964.485,1175.156Z" transform="translate(-1907.517 -1175.156)" fill="#f1f1f1"/>
        <rect id="Rectángulo_28254" data-name="Rectángulo 28254" width="55.273" height="9.468" rx="4.725" transform="translate(5.51 8.868)" fill="#00223d" opacity="0.25"/>
        <path id="Rectángulo_28255" data-name="Rectángulo 28255" d="M4.724,0H26.686A4.724,4.724,0,0,1,31.41,4.724v.02a4.724,4.724,0,0,1-4.724,4.724H4.725A4.725,4.725,0,0,1,0,4.744V4.724A4.724,4.724,0,0,1,4.724,0Z" transform="translate(7.027 23.183)" fill="#00223d" opacity="0.25"/>
      </g>
      <g id="Grupo_46728" data-name="Grupo 46728" transform="translate(11.613 189.302)">
        <path id="Trazado_97182" data-name="Trazado 97182" d="M491.538,2059.48a10.239,10.239,0,0,1,6.351-2c5.331,0,8.154,2.9,8.154,6.979,0,2.352-1.137,4.743-3.45,7.135-2.94,3.1-5.057,4.625-6.39,4.625a2.208,2.208,0,0,1-2.234-2.234c0-1.1,1.019-2.195,2.783-3.8a1.68,1.68,0,0,1,.314-.275c2-1.842,2.626-2.861,2.626-4.116a2.328,2.328,0,0,0-2.587-2.43,8.419,8.419,0,0,0-2.509.47,8.088,8.088,0,0,1-2.117.471,2.445,2.445,0,0,1-2.352-2.509A2.965,2.965,0,0,1,491.538,2059.48Zm5.371,26.147a3.894,3.894,0,0,1-4-4,3.834,3.834,0,0,1,4-3.685,3.757,3.757,0,0,1,3.685,3.685A3.806,3.806,0,0,1,496.909,2085.627Z" transform="translate(-490.127 -2057.481)" fill="#26aab7"/>
      </g>
      <g id="Grupo_46729" data-name="Grupo 46729" transform="translate(332.355 102.02)">
        <path id="Trazado_97183" data-name="Trazado 97183" d="M2273.828,1573.662a6.73,6.73,0,0,1,4.177-1.314c3.505,0,5.363,1.907,5.363,4.589a6.865,6.865,0,0,1-2.269,4.692c-1.933,2.037-3.327,3.042-4.2,3.042a1.453,1.453,0,0,1-1.47-1.469c0-.722.671-1.444,1.831-2.5a1.2,1.2,0,0,1,.206-.18c1.315-1.212,1.728-1.882,1.728-2.706a1.532,1.532,0,0,0-1.7-1.6,5.529,5.529,0,0,0-1.65.31,5.3,5.3,0,0,1-1.392.309,1.607,1.607,0,0,1-1.546-1.65A1.95,1.95,0,0,1,2273.828,1573.662Zm3.532,17.2a2.561,2.561,0,0,1-2.629-2.63,2.521,2.521,0,0,1,2.629-2.423,2.47,2.47,0,0,1,2.423,2.423A2.5,2.5,0,0,1,2277.36,1590.858Z" transform="translate(-2272.9 -1572.348)" fill="#3c4973"/>
      </g>
      <g id="Grupo_46735" data-name="Grupo 46735" transform="translate(359.882 153.345)">
        <g id="Grupo_46730" data-name="Grupo 46730">
          <path id="Trazado_97184" data-name="Trazado 97184" d="M2476.414,1902.889h-48.946a1.567,1.567,0,0,1-1.567-1.567V1859.19a1.567,1.567,0,1,1,3.133,0v40.565h47.379a1.567,1.567,0,1,1,0,3.134Z" transform="translate(-2425.901 -1857.623)" fill="#3c4973"/>
        </g>
        <g id="Grupo_46734" data-name="Grupo 46734" transform="translate(3.705 6.758)">
          <g id="Grupo_46731" data-name="Grupo 46731" transform="translate(0 4.105)">
            <path id="Trazado_97185" data-name="Trazado 97185" d="M2448.062,1942.108a1.566,1.566,0,0,1-1.126-2.656l15.819-16.364a1.566,1.566,0,0,1,1.979-.226l7.481,4.852,7.889-9.166a1.566,1.566,0,1,1,2.375,2.044l-8.78,10.2a1.568,1.568,0,0,1-2.041.292l-7.545-4.9-14.922,15.437A1.564,1.564,0,0,1,2448.062,1942.108Z" transform="translate(-2446.495 -1918.005)" fill="#f5ca56"/>
          </g>
          <g id="Grupo_46733" data-name="Grupo 46733" transform="translate(28.981)">
            <g id="Grupo_46732" data-name="Grupo 46732">
              <path id="Trazado_97186" data-name="Trazado 97186" d="M2614.615,1906.556l-2.232-4.522-4.8-1.533,10.7-5.312Z" transform="translate(-2607.578 -1895.188)" fill="#f5ca56"/>
            </g>
          </g>
        </g>
      </g>
      <g id="Grupo_46736" data-name="Grupo 46736" transform="translate(72.082 26.861)">
        <path id="Trazado_97187" data-name="Trazado 97187" d="M835.713,1173.556a9.481,9.481,0,1,1,9.481-9.481A9.492,9.492,0,0,1,835.713,1173.556Zm0-16.352a6.87,6.87,0,1,0,6.87,6.871A6.878,6.878,0,0,0,835.713,1157.2Z" transform="translate(-826.232 -1154.593)" fill="#00223d"/>
      </g>
      <g id="Grupo_46737" data-name="Grupo 46737" transform="translate(363.88 107.398)">
        <path id="Trazado_97188" data-name="Trazado 97188" d="M2455.066,1616.129a6.945,6.945,0,1,1,6.945-6.944A6.952,6.952,0,0,1,2455.066,1616.129Zm0-11.977a5.032,5.032,0,1,0,5.032,5.032A5.038,5.038,0,0,0,2455.066,1604.153Z" transform="translate(-2448.122 -1602.24)" fill="#ebf3fa" opacity="0.25"/>
      </g>
      <g id="Grupo_46738" data-name="Grupo 46738" transform="translate(0 146.887)">
        <path id="Trazado_97189" data-name="Trazado 97189" d="M431.817,1834.2a6.236,6.236,0,1,1,6.236-6.236A6.243,6.243,0,0,1,431.817,1834.2Zm0-10.754a4.518,4.518,0,1,0,4.518,4.518A4.523,4.523,0,0,0,431.817,1823.447Z" transform="translate(-425.581 -1821.73)" fill="#7d6eb2"/>
      </g>
      <path id="Trazado_97190" data-name="Trazado 97190" d="M2287.257,1090.809a3.393,3.393,0,1,1-3.392-3.392A3.392,3.392,0,0,1,2287.257,1090.809Z" transform="translate(-1946.755 -1072.642)" fill="#fff"/>
      <circle id="Elipse_3864" data-name="Elipse 3864" cx="6.671" cy="6.671" r="6.671" transform="translate(27.039 80.979) rotate(-45)" fill="#ebf3fa" opacity="0.25"/>
      <path id="Trazado_97191" data-name="Trazado 97191" d="M2385.144,1010.307a5.015,5.015,0,1,1-5.015-5.015A5.015,5.015,0,0,1,2385.144,1010.307Z" transform="translate(-2024.37 -1005.292)" fill="#ebf3fa" opacity="0.25"/>
      <path id="Trazado_97192" data-name="Trazado 97192" d="M2528.239,1682.949a4.281,4.281,0,1,1-4.281-4.281A4.281,4.281,0,0,1,2528.239,1682.949Z" transform="translate(-2142.924 -1557.519)" fill="#ebf3fa" opacity="0.25"/>
      <path id="Trazado_97193" data-name="Trazado 97193" d="M2312.663,1152.97a5.337,5.337,0,1,1-5.337-5.336A5.336,5.336,0,0,1,2312.663,1152.97Z" transform="translate(-1964.4 -1122.025)" fill="#fff"/>
      <circle id="Elipse_3865" data-name="Elipse 3865" cx="5.413" cy="5.413" r="5.413" transform="translate(90.334 18.324) rotate(-22.5)" fill="#00223d"/>
    </g>
    <path id="Trazado_97194" data-name="Trazado 97194" d="M950.8,2529.058H630.387a1.893,1.893,0,0,1-1.893-1.894h0a1.893,1.893,0,0,1,1.893-1.892H950.8a1.893,1.893,0,0,1,1.893,1.892h0A1.893,1.893,0,0,1,950.8,2529.058Z" transform="translate(-248.375 -1449.034)" fill="url(#linear-gradient)"/>
    <g id="Grupo_46788" data-name="Grupo 46788" transform="translate(363.023 878.163)">
      <g id="Grupo_46746" data-name="Grupo 46746" transform="translate(106.716 9.097)">
        <path id="v-2" d="M1201.581,1625.025h.006l4.918.018,1.113,11.616-5.741,3.031-6.122-3,.99-11.651Z" transform="translate(-1183.319 -1598.012)" fill="#e49963"/>
        <g id="Grupo_46745" data-name="Grupo 46745">
          <path id="Trazado_97195" data-name="Trazado 97195" d="M1147.024,1511.453c3.027,7.564,10.3,11.769,16.238,9.391s8.3-10.437,5.276-18-10.3-11.769-16.238-9.392S1144,1503.889,1147.024,1511.453Z" transform="translate(-1142.273 -1489.566)" fill="#e49963"/>
          <path id="Trazado_97196" data-name="Trazado 97196" d="M1257.342,1554.507a1.113,1.113,0,1,0,.278-1.549A1.112,1.112,0,0,0,1257.342,1554.507Z" transform="translate(-1233.662 -1538.747)"/>
          <path id="Trazado_97197" data-name="Trazado 97197" d="M1210.939,1572.758a1.2,1.2,0,1,0,.3-1.677A1.2,1.2,0,0,0,1210.939,1572.758Z" transform="translate(-1195.594 -1553.597)"/>
          <path id="Trazado_97198" data-name="Trazado 97198" d="M1248.857,1572.347c1.5,1.186,3.386,2.617,3.386,2.617a2.921,2.921,0,0,1-2.1,2.6c.767-.7,1.44-1.621.642-2.69S1248.857,1572.347,1248.857,1572.347Z" transform="translate(-1226.867 -1554.811)" fill="#d68d5d"/>
          <g id="Grupo_46740" data-name="Grupo 46740" transform="translate(12.597 15.388)">
            <path id="Trazado_97199" data-name="Trazado 97199" d="M1197.2,1563.459a.555.555,0,0,1-.541-.684,2.961,2.961,0,0,1,2.7-2.365.555.555,0,1,1,.005,1.11c-1.254.006-1.624,1.5-1.628,1.512A.555.555,0,0,1,1197.2,1563.459Z" transform="translate(-1196.645 -1560.41)" fill="#201d40"/>
          </g>
          <g id="Grupo_46741" data-name="Grupo 46741" transform="translate(22.053 11.659)">
            <path id="Trazado_97200" data-name="Trazado 97200" d="M1249.665,1541.43a.469.469,0,0,1-.234-.063.464.464,0,0,1-.165-.633,2.285,2.285,0,0,1,1.426-1.019,2.373,2.373,0,0,1,1.928.611.463.463,0,1,1-.578.723,1.5,1.5,0,0,0-1.182-.424,1.338,1.338,0,0,0-.8.577A.462.462,0,0,1,1249.665,1541.43Z" transform="translate(-1249.203 -1539.683)" fill="#201d40"/>
          </g>
          <path id="Trazado_97201" data-name="Trazado 97201" d="M1127.246,1491.117c-2.56-7.289,3.676-11.48,3.676-11.48s-1.673-.15-1.873-2.5a6.183,6.183,0,0,0,3.89-.084c8.313-3.01,14.036-2.97,14.036.588,0,1.266,5.49.4,5.03,8.915.032-.6-1.929-4.1-3.783-4.452s-.18,2.129-4.054,2.66c-3.909.537-6.783-.412-9.171,1.792-1.868,1.922-2.331,11.706-2.047,12.295C1132.3,1497.5,1128.371,1494.32,1127.246,1491.117Z" transform="translate(-1126.629 -1474.88)" fill="#3c4973"/>
          <path id="Trazado_97202" data-name="Trazado 97202" d="M1182.825,1572.347s.353,4.438-.286,5.811c-.667-1.78-2.1.106-3.439.284-3.246.429-9.1-.653-9.681,4.215-3.966,1.255-7.682-7.235-7.682-7.235-.227,9.485,6.713,14.871,16.7,13.293C1185.019,1587.676,1185.629,1578.513,1182.825,1572.347Z" transform="translate(-1155.416 -1554.811)" fill="#3c4973"/>
          <g id="Grupo_46742" data-name="Grupo 46742" transform="translate(18.368 24.002)">
            <path id="Trazado_97203" data-name="Trazado 97203" d="M1230.924,1610.918a8.439,8.439,0,0,1-2-.786.37.37,0,0,1,.35-.653,5.36,5.36,0,0,0,4.094.7,3.865,3.865,0,0,0,2.131-1.687.37.37,0,0,1,.656.344,4.555,4.555,0,0,1-2.558,2.047A5.007,5.007,0,0,1,1230.924,1610.918Z" transform="translate(-1228.725 -1608.291)" fill="#d68d5d"/>
          </g>
          <g id="Grupo_46744" data-name="Grupo 46744" transform="translate(1.508 20.146)">
            <path id="Trazado_97204" data-name="Trazado 97204" d="M1139.728,1587.385c1.67.938,2.4,2.807,1.634,4.174s-2.744,1.715-4.415.776-2.4-2.807-1.634-4.174S1138.058,1586.447,1139.728,1587.385Z" transform="translate(-1135.008 -1586.858)" fill="#e49963"/>
            <g id="Grupo_46743" data-name="Grupo 46743" transform="translate(1.863 1.546)">
              <path id="Trazado_97205" data-name="Trazado 97205" d="M1147.964,1598.528a.427.427,0,0,0,.128-.144,1.893,1.893,0,0,0-.2-2.317,2.017,2.017,0,0,0-2.3-.421.419.419,0,1,0,.378.747,1.2,1.2,0,0,1,1.321.258,1.073,1.073,0,0,1,.064,1.335.419.419,0,0,0,.61.542Z" transform="translate(-1145.361 -1595.453)" fill="#d68d5d"/>
            </g>
          </g>
        </g>
      </g>
      <path id="Trazado_97206" data-name="Trazado 97206" d="M1236.835,2472.885a4.544,4.544,0,0,1,3.284-3.159c4.349,6,15.028,2.318,14.674,10.434-16.24-.105-22.99,0-22.99,0a59.5,59.5,0,0,1,.718-8.02l.846.155Z" transform="translate(-1106.165 -2281.644)"/>
      <path id="Trazado_97207" data-name="Trazado 97207" d="M1101.781,2473.759a4.542,4.542,0,0,1,3.284-3.158c4.349,6,15.028,2.318,14.675,10.433-16.24-.1-22.989,0-22.989,0a59.576,59.576,0,0,1,.717-8.019l.847.155Z" transform="translate(-995.41 -2282.362)"/>
      <path id="Trazado_97208" data-name="Trazado 97208" d="M1224.3,1960.59s2.637,38.455,1.566,47-4.865,19.511-4.434,47.79c-5.294,1.325-12.964,0-12.964,0s-1.137-31.976,4.459-46.259c-2.276-13.872-9.578-45.647-9.578-45.647Z" transform="translate(-1082.833 -1864.108)" fill="#213755"/>
      <path id="Trazado_97209" data-name="Trazado 97209" d="M1123.513,1966.432s-5.324,43.173-7.93,51.362-7.689,15.112-12.407,42.97c-5.44.272-10.507,0-10.507,0s.734-35.336,9.208-43.373c.287-14.068-1.37-50.682-1.37-50.682Z" transform="translate(-992.063 -1868.899)" fill="#344966"/>
      <g id="v" transform="translate(105.686 46.393)">
        <path id="h-5" d="M1122.125,1684.325s9.247-3.238,12.331-1.753c9.581,4.613,11.779,0,11.779,0,3.062.264,12.3,1.753,12.3,1.753,0,10.322.689,20.678.5,28.489-.132,6.8,1.164,25.312,1.164,25.312a93.414,93.414,0,0,1-19.839,2.742,90.745,90.745,0,0,1-19.46-2.634s.515-18.748.943-25.716C1121.709,1704.708,1122.125,1694.619,1122.125,1684.325Z" transform="translate(-1120.905 -1682.183)" fill="#7d6eb2"/>
      </g>
      <g id="c" transform="translate(140.693 48.535)">
        <path id="c-2" data-name="c" d="M1334.546,1709.43c-3.817-9.106-15.143-14.9-16.437-15.34l-2.627,11.691a68.426,68.426,0,0,1,9.391,6.7c-.67,3.255-.558,6.448-2.442,10.565,0,0,1.637-2.258,3.656-.922,1.963,1.3,5.572-1.352,5.572-1.352S1337.461,1716.386,1334.546,1709.43Z" transform="translate(-1315.482 -1694.09)" fill="#6f5fa5"/>
      </g>
      <g id="c-3" data-name="c" transform="translate(93.347 48.535)">
        <g id="c-4" data-name="c" transform="translate(37.803 3.528)">
          <g id="c-5" data-name="c">
            <path id="c-6" data-name="c" d="M1293.373,1748.523a.98.98,0,0,0,.2.04h.217a1.032,1.032,0,0,0,.878-.721l10.175-32.8a.985.985,0,0,0,.041-.2,1.087,1.087,0,0,0,0-.129c0-.026,0-.052,0-.078s-.009-.045-.013-.067a1.03,1.03,0,0,0-.708-.82,1.056,1.056,0,0,0-.193-.042,1.129,1.129,0,0,0-.221,0h-25.615l-10.264,34.86h25.521Z" transform="translate(-1266.893 -1713.698)" fill="#8ec8c8"/>
            <path id="c-7" data-name="c" d="M1273.915,1713.744a1.035,1.035,0,0,0-1.294.681l-10.111,32.724-.023.076a1.034,1.034,0,0,0,.676,1.29v0a1.033,1.033,0,0,0,1.293-.68l10.137-32.8A1.034,1.034,0,0,0,1273.915,1713.744Z" transform="translate(-1262.441 -1713.698)" fill="#00223d"/>
          </g>
        </g>
        <path id="c-8" data-name="c" d="M1431.448,1798.562a1.06,1.06,0,0,1,.306-.134c-.01-.016-.023-.031-.034-.047a1.867,1.867,0,0,1,.1-2.567,1.108,1.108,0,0,1,.368-.155,1.544,1.544,0,0,1,.474-1.718,1.163,1.163,0,0,1,.661-.184,1.543,1.543,0,0,1,.505-1.8,1.809,1.809,0,0,1,1.97,2.971,1.292,1.292,0,0,1-.572.206,1.758,1.758,0,0,1-.257,2.287,1.106,1.106,0,0,1-.368.154,1.544,1.544,0,0,1-.474,1.717,1.147,1.147,0,0,1-.611.184,1.32,1.32,0,0,1-.4,1.592,1.528,1.528,0,0,1-1.663-2.509Z" transform="translate(-1362.818 -1774.175)" fill="#e49963"/>
        <path id="Trazado_97210" data-name="Trazado 97210" d="M1258.746,1796.488l2.335-1.353a4.411,4.411,0,0,1,4.4-3.391l-1.048,3.391s1.845,1.433,6.223-1.019c4.279-.962,2.451,2.158,3.87,2.382,2.093.33-1.526,4.443-5.8,5.072-5.528.815-6.184-.317-6.184-.317l-3.129,1.093Z" transform="translate(-1221.607 -1774.174)" fill="#e49963"/>
        <path id="c-9" data-name="c" d="M1067.851,1719.942c7.8-.545,21.118-4.4,21.118-4.4,2.131,3.268,1.541,7.609,1.541,7.609-12.119,10.626-30.36,14.061-35.957,11.5-5.109-2.334-1.5-33.438,11.326-40.563h0C1070.277,1701.531,1067.851,1719.942,1067.851,1719.942Z" transform="translate(-1052.319 -1694.09)" fill="#6f5fa5"/>
      </g>
      <g id="Grupo_46755" data-name="Grupo 46755" transform="translate(191.416 0)">
        <path id="Trazado_97211" data-name="Trazado 97211" d="M1770.85,2471.244c-4.349,5.8-15.028,2.241-14.674,10.087,16.24-.1,22.989,0,22.989,0a55.674,55.674,0,0,0-.717-7.754Z" transform="translate(-1727.606 -2282.89)" fill="#060f17"/>
        <path id="Trazado_97212" data-name="Trazado 97212" d="M1905.9,2472.088c-4.348,5.8-15.027,2.241-14.674,10.086,16.24-.1,22.989,0,22.989,0a55.654,55.654,0,0,0-.717-7.753Z" transform="translate(-1838.361 -2283.582)" fill="#060f17"/>
        <path id="Trazado_97213" data-name="Trazado 97213" d="M1787.689,1979.039s-2.637,37.177-1.565,45.442,4.864,18.862,4.434,46.2c5.294,1.281,12.964,0,12.964,0s1.137-30.912-4.46-44.72c2.276-13.411,9.578-44.13,9.578-44.13Z" transform="translate(-1751.962 -1879.238)" fill="#060f17"/>
        <path id="Trazado_97214" data-name="Trazado 97214" d="M1851.69,1984.686s5.324,41.737,7.931,49.653,7.688,14.61,12.406,41.542a56.5,56.5,0,0,0,11.924-1.077s-2.151-33.085-10.624-40.854c-.287-13.6,1.37-49,1.37-49Z" transform="translate(-1805.942 -1883.869)" fill="#060f17"/>
        <g id="Grupo_46752" data-name="Grupo 46752" transform="translate(43.612 9.59)">
          <g id="Grupo_46751" data-name="Grupo 46751">
            <g id="Grupo_46750" data-name="Grupo 46750">
              <path id="Trazado_97215" data-name="Trazado 97215" d="M1872.994,1524.041c-2.886,7.211-9.817,11.219-15.48,8.953s-7.916-9.95-5.03-17.161,9.817-11.22,15.481-8.953S1875.88,1516.829,1872.994,1524.041Z" transform="translate(-1849.175 -1501.096)" fill="#e49963"/>
              <path id="Trazado_97216" data-name="Trazado 97216" d="M1863.1,1565.088a1.061,1.061,0,1,1-.265-1.477A1.06,1.06,0,0,1,1863.1,1565.088Z" transform="translate(-1857.323 -1547.985)"/>
              <path id="Trazado_97217" data-name="Trazado 97217" d="M1906.537,1582.488a1.148,1.148,0,1,1-.287-1.6A1.149,1.149,0,0,1,1906.537,1582.488Z" transform="translate(-1892.819 -1562.141)"/>
              <path id="Trazado_97218" data-name="Trazado 97218" d="M1866.145,1582.1c-1.435,1.131-3.228,2.5-3.228,2.5a2.785,2.785,0,0,0,2,2.478c-.731-.663-1.373-1.546-.612-2.564S1866.145,1582.1,1866.145,1582.1Z" transform="translate(-1858.761 -1563.3)" fill="#d68d5d"/>
              <g id="Grupo_46747" data-name="Grupo 46747" transform="translate(13.216 16.749)">
                <path id="Trazado_97219" data-name="Trazado 97219" d="M1915.87,1573.622a.53.53,0,0,1-.515-.407c-.014-.056-.369-1.436-1.552-1.441a.529.529,0,1,1,0-1.059,2.824,2.824,0,0,1,2.577,2.254.529.529,0,0,1-.392.637A.509.509,0,0,1,1915.87,1573.622Z" transform="translate(-1913.277 -1570.715)"/>
              </g>
              <g id="Grupo_46748" data-name="Grupo 46748" transform="translate(3.9 13.194)">
                <path id="Trazado_97220" data-name="Trazado 97220" d="M1864.48,1552.62a.441.441,0,0,1-.38-.216,1.287,1.287,0,0,0-.767-.554,1.441,1.441,0,0,0-1.12.405.441.441,0,0,1-.551-.689,2.261,2.261,0,0,1,1.838-.582,2.172,2.172,0,0,1,1.359.971.441.441,0,0,1-.38.664Z" transform="translate(-1861.497 -1550.954)"/>
              </g>
              <path id="Trazado_97221" data-name="Trazado 97221" d="M1861.623,1501.317c-2.087-6.71.553-10.275.553-10.275-1.792-.359-2.488.261-2.488.261a3.979,3.979,0,0,1-.22-3.445c-3.7-1.443-5.548.955-8.889,1.763-4.576,1.106-10.227-.719-10.756-6.3a.953.953,0,0,1,1.487-.88,4.2,4.2,0,0,0,2.493.728,4.493,4.493,0,0,1-1.008-2.577.953.953,0,0,1,1.574-.742c.951.792,2.716,1.54,5.862.95,2.094-.392,6.888-3.746,9.875-3.091,2.442.535,4.378,2.613,5.212,5.587a7.671,7.671,0,0,1,6.6,7.226c.591,6.488-6.925,11.467-6.925,11.467Z" transform="translate(-1839.818 -1477.62)" fill="#3c4973"/>
              <path id="Trazado_97222" data-name="Trazado 97222" d="M1948.1,1600.791a3.053,3.053,0,0,0-1.543,3.986c.737,1.3,2.622,1.625,4.211.724a3.052,3.052,0,0,0,1.543-3.985C1951.572,1600.215,1949.686,1599.891,1948.1,1600.791Z" transform="translate(-1927.109 -1578.213)" fill="#e49963"/>
              <g id="Grupo_46749" data-name="Grupo 46749" transform="translate(20.835 23.543)">
                <path id="Trazado_97223" data-name="Trazado 97223" d="M1956.033,1611.416a.4.4,0,0,1-.122-.136,1.806,1.806,0,0,1,.184-2.21,1.925,1.925,0,0,1,2.191-.41.4.4,0,0,1-.358.714,1.138,1.138,0,0,0-1.259.251,1.021,1.021,0,0,0-.057,1.272.4.4,0,0,1-.579.519Z" transform="translate(-1955.623 -1608.478)" fill="#d68d5d"/>
              </g>
              <path id="Trazado_97224" data-name="Trazado 97224" d="M1864.508,1620.2a.338.338,0,0,1,.357-.509,23.983,23.983,0,0,0,6.342.566.338.338,0,0,1,.261.564,4.22,4.22,0,0,1-6.96-.621Z" transform="translate(-1860.024 -1594.124)" fill="#fff"/>
            </g>
          </g>
        </g>
        <path id="Trazado_97225" data-name="Trazado 97225" d="M1688.524,1672.442s.271-.735-23.1-.546l-6.266,7.406c6.485,5.2,28.2,6.124,28.2,6.124Z" transform="translate(-1648.05 -1627.328)" fill="#060f17"/>
        <path id="Trazado_97226" data-name="Trazado 97226" d="M1869.579,1668.586l7.371-.688,7.131,1.988-8.035,8.269Z" transform="translate(-1820.613 -1624.075)" fill="#6451a8"/>
        <path id="Trazado_97227" data-name="Trazado 97227" d="M1883.782,1648.344c3,2.467,3.618,4.171,10,.875l.958-9.811-10.389-.819Z" transform="translate(-1832.261 -1600.038)" fill="#e49963"/>
        <path id="Trazado_97228" data-name="Trazado 97228" d="M1828.04,1676.972h0l-2.185-.865.292-3.085-6.06,4.866-1.711.273-1.636-.573-5.1-5.867-.261,3.088-1.928.386h0l-6.95,1.125-.828,38.58-2.742,13.126a66.148,66.148,0,0,0,29.677,2.436l-.341-13.177,7.2-37.705Z" transform="translate(-1762.679 -1627.211)" fill="#7d6eb2"/>
        <path id="Trazado_97229" data-name="Trazado 97229" d="M1879.743,1729.174l-4.354,29.457,2.412,3.35,3.143-2.415,1.07-30.147Z" transform="translate(-1825.377 -1674.327)" fill="#2e2d57"/>
        <path id="Trazado_97230" data-name="Trazado 97230" d="M1898.15,1707.931l1.592-.419,1.621.708-.686,3.493-2.282-.205Z" transform="translate(-1844.044 -1656.562)" fill="#2e2d57"/>
        <g id="Grupo_46753" data-name="Grupo 46753" transform="translate(31.039 44.758)">
          <path id="Trazado_97231" data-name="Trazado 97231" d="M1787.759,1673.094l-1.092,35.582-4.709,22.913s-7.448-.751-12.025-5.106l5.865-17.249,2-36.046Z" transform="translate(-1769.933 -1673.094)" fill="#060f17"/>
          <path id="Trazado_97232" data-name="Trazado 97232" d="M1839.354,1673.094l-1.086,35.105-5.421-26.9Z" transform="translate(-1821.528 -1673.094)" fill="#122739"/>
        </g>
        <g id="Grupo_46754" data-name="Grupo 46754" transform="translate(54.354 47.034)">
          <path id="Trazado_97233" data-name="Trazado 97233" d="M1909.2,1685.745l-9.672,57.686s12.835,1.576,18.112-1.9l-2.864-18.962,3.5-32.194Z" transform="translate(-1899.525 -1685.745)" fill="#060f17"/>
          <path id="Trazado_97234" data-name="Trazado 97234" d="M1927.519,1685.745l-5.653,33.811,10.122-25.509Z" transform="translate(-1917.847 -1685.745)" fill="#122739"/>
        </g>
        <path id="Trazado_97235" data-name="Trazado 97235" d="M1597.528,1437.427c.515,1.8.668,3.741,2.951,4.711,0,0-.337,5.972-.085,10.873,0,0,5.525-6.23,5.524-6.235a32.839,32.839,0,0,1-.268-7.83c.079-.551.187-1.1.273-1.65.237-1.339.632-2.709-.185-4.326-3.153-6.245-2.091-8.3-2.525-8.606-.706-.311-2.365.946-1.427,4.015a11.22,11.22,0,0,1,.684,4.427s-2.383-.45-3.229.383C1598.856,1433.568,1596.926,1435.323,1597.528,1437.427Z" transform="translate(-1597.412 -1424.318)" fill="#e49963"/>
        <path id="Trazado_97236" data-name="Trazado 97236" d="M1605.179,1536.881c3.22-1.073,4.915-1.556,7.419-1.556,5.919,17.64,10.138,24.287,8.379,29.351-1.467,4.222-6.11,3.885-8.379.721C1609.6,1561.224,1606.952,1545.368,1605.179,1536.881Z" transform="translate(-1603.782 -1515.354)" fill="#060f17"/>
        <path id="Trazado_97237" data-name="Trazado 97237" d="M1987.78,1711.508l18.648,29.176,22.149,12.506-6.827,6.8-22.221-9.74-15.251-21.518Z" transform="translate(-1914.677 -1659.839)" fill="#060f17"/>
        <path id="Trazado_97238" data-name="Trazado 97238" d="M1869.4,1678.161s-2.744,2.77-5.266,3.478l-2.983-7.887,1.517-2.03Z" transform="translate(-1813.699 -1627.211)" fill="#fff"/>
        <path id="Trazado_97239" data-name="Trazado 97239" d="M1907,1684.089a13.211,13.211,0,0,0,4.563,4.36l4.34-7.207-1.133-2.291Z" transform="translate(-1851.299 -1633.14)" fill="#fff"/>
      </g>
      <g id="с" transform="translate(97.65 124.683)">
        <path id="с-2" data-name="с" d="M1246,2126.668H1083.168c-3.827,0-6.929-2.088-6.929-4.663h0c0-2.575,3.1-4.663,6.929-4.663H1246c3.827,0,6.929,2.088,6.929,4.663h0C1252.931,2124.58,1249.829,2126.668,1246,2126.668Z" transform="translate(-1076.239 -2117.342)" fill="url(#linear-gradient-2)"/>
        <g id="Grupo_46756" data-name="Grupo 46756" transform="translate(65.757 5.749)">
          <path id="Trazado_97240" data-name="Trazado 97240" d="M1443.934,2218.581h0a2.2,2.2,0,0,1-1.84-3.4l42.993-65.886,3.68,2.4-42.993,65.885A2.2,2.2,0,0,1,1443.934,2218.581Z" transform="translate(-1441.733 -2149.296)" fill="url(#linear-gradient-2)"/>
        </g>
        <g id="Grupo_46757" data-name="Grupo 46757" transform="translate(63.9 5.749)">
          <path id="Trazado_97241" data-name="Trazado 97241" d="M1476.246,2218.581h0a2.2,2.2,0,0,0,1.84-3.4l-42.993-65.886-3.68,2.4,42.993,65.885A2.2,2.2,0,0,0,1476.246,2218.581Z" transform="translate(-1431.413 -2149.296)" fill="url(#linear-gradient-2)"/>
        </g>
      </g>
      <g id="с-3" data-name="с" transform="translate(266.068 98.9)">
        <path id="с-4" data-name="с" d="M2046.257,2349h0a2.1,2.1,0,0,1-2.1-2.105V2309.6h4.209V2346.9A2.1,2.1,0,0,1,2046.257,2349Z" transform="translate(-2038.431 -2249.231)" fill="url(#linear-gradient-2)"/>
        <path id="с-5" data-name="с" d="M2128.35,2349h0a2.1,2.1,0,0,1-2.1-2.105V2309.6h4.21V2346.9A2.105,2.105,0,0,1,2128.35,2349Z" transform="translate(-2105.754 -2249.231)" fill="url(#linear-gradient-2)"/>
        <path id="с-6" data-name="с" d="M2236.072,2349h0a2.1,2.1,0,0,1-2.1-2.105V2309.6h4.209V2346.9A2.1,2.1,0,0,1,2236.072,2349Z" transform="translate(-2194.095 -2249.231)" fill="url(#linear-gradient-2)"/>
        <path id="с-7" data-name="с" d="M2318.167,2349h0a2.105,2.105,0,0,1-2.105-2.105V2309.6h4.209V2346.9A2.1,2.1,0,0,1,2318.167,2349Z" transform="translate(-2261.42 -2249.231)" fill="url(#linear-gradient-2)"/>
        <path id="с-8" data-name="с" d="M2045.806,1979.059v44.379a.914.914,0,0,1-.914.915h-27.516a5.027,5.027,0,0,0-5.027,5.026h0a5.026,5.026,0,0,0,5.027,5.027h33.457a5.026,5.026,0,0,0,5.027-5.027v-50.32a5.027,5.027,0,0,0-5.027-5.027h0A5.027,5.027,0,0,0,2045.806,1979.059Z" transform="translate(-2012.349 -1974.032)" fill="#344966"/>
        <rect id="с-9" data-name="с" width="21.756" height="51.136" transform="translate(38.484 0)" fill="#344966"/>
        <path id="с-10" data-name="с" d="M2166.728,1979.059v44.379a.915.915,0,0,1-.915.915H2138.3a5.026,5.026,0,0,0-5.027,5.026h0a5.026,5.026,0,0,0,5.027,5.027h33.458a5.026,5.026,0,0,0,5.027-5.027v-50.32a5.027,5.027,0,0,0-5.027-5.027h0A5.027,5.027,0,0,0,2166.728,1979.059Z" transform="translate(-2111.515 -1974.032)" fill="url(#linear-gradient-2)"/>
      </g>
      <g id="с-11" data-name="с" transform="translate(38.598 98.9)">
        <path id="с-12" data-name="с" d="M1057.678,2349h0a2.1,2.1,0,0,0,2.1-2.105V2309.6h-4.21V2346.9A2.105,2.105,0,0,0,1057.678,2349Z" transform="translate(-1000.239 -2249.231)" fill="url(#linear-gradient-2)"/>
        <path id="с-13" data-name="с" d="M975.583,2349h0a2.1,2.1,0,0,0,2.1-2.105V2309.6h-4.209V2346.9A2.1,2.1,0,0,0,975.583,2349Z" transform="translate(-932.914 -2249.231)" fill="url(#linear-gradient-2)"/>
        <path id="с-14" data-name="с" d="M867.862,2349h0a2.1,2.1,0,0,0,2.1-2.105V2309.6h-4.21V2346.9A2.1,2.1,0,0,0,867.862,2349Z" transform="translate(-844.573 -2249.231)" fill="url(#linear-gradient-2)"/>
        <path id="с-15" data-name="с" d="M785.768,2349h0a2.1,2.1,0,0,0,2.1-2.105V2309.6h-4.209V2346.9A2.1,2.1,0,0,0,785.768,2349Z" transform="translate(-777.248 -2249.231)" fill="url(#linear-gradient-2)"/>
        <path id="с-16" data-name="с" d="M878.983,1979.059v44.379a.914.914,0,0,0,.914.915h27.516a5.027,5.027,0,0,1,5.027,5.026h0a5.026,5.026,0,0,1-5.027,5.027H873.957a5.026,5.026,0,0,1-5.027-5.027v-50.32a5.027,5.027,0,0,1,5.027-5.027h0A5.027,5.027,0,0,1,878.983,1979.059Z" transform="translate(-847.175 -1974.032)" fill="#344966"/>
        <rect id="с-17" data-name="с" width="21.755" height="51.136" transform="translate(26.782 51.136) rotate(180)" fill="#344966"/>
        <path id="с-18" data-name="с" d="M758.062,1979.059v44.379a.915.915,0,0,0,.914.915h27.516a5.027,5.027,0,0,1,5.027,5.026h0a5.026,5.026,0,0,1-5.027,5.027H753.036a5.026,5.026,0,0,1-5.027-5.027v-50.32a5.027,5.027,0,0,1,5.027-5.027h0A5.027,5.027,0,0,1,758.062,1979.059Z" transform="translate(-748.009 -1974.032)" fill="url(#linear-gradient-2)"/>
      </g>
      <g id="Grupo_46762" data-name="Grupo 46762" transform="translate(203.703 49.884)">
        <path id="Trazado_97242" data-name="Trazado 97242" d="M2096.793,1738.669c-4.642-1.674-11.813-5.336-7.047-12.028s4.644-3.771,2.928-11.9,4.064-14.521,9.574-12.9,6.916,6.076,13.669,4.948,12.366,5.188,9.825,10.665-3.628,8.115-1.251,11.146,13.087,6.3,8.62,13.562-6.514,6.817-4.963,10.541-2.027,7.962-8.236,7.383-11.83-2.926-14.107-9.859S2096.793,1738.669,2096.793,1738.669Z" transform="translate(-2012.168 -1701.588)" fill="#3c4973"/>
        <path id="Trazado_97243" data-name="Trazado 97243" d="M2013.549,2462.763l-3.668,1.1-2.763-2.824a13.651,13.651,0,0,0-.422-4.1l6.853-1.137A59.366,59.366,0,0,1,2013.549,2462.763Z" transform="translate(-1945.348 -2320.103)" fill="#e49963"/>
        <path id="Trazado_97244" data-name="Trazado 97244" d="M1956.295,2485.357a3.755,3.755,0,0,0-2.737-2.544c-3.624,4.833-12.524,1.868-12.23,8.406,13.535-.084,19.159,0,19.159,0a46.449,46.449,0,0,0-.6-6.462l-.705.125Z" transform="translate(-1891.735 -2342.261)" fill="#aaa5a5"/>
        <path id="Trazado_97245" data-name="Trazado 97245" d="M1881.749,2465.516l-3.819.262-2.2-2.34a22.308,22.308,0,0,0,.614-5.12l6.438.287A59.384,59.384,0,0,1,1881.749,2465.516Z" transform="translate(-1837.947 -2322.173)" fill="#e49963"/>
        <path id="Trazado_97246" data-name="Trazado 97246" d="M1822,2485.357a3.756,3.756,0,0,0-2.737-2.544c-3.624,4.833-12.524,1.868-12.229,8.406,13.534-.084,19.159,0,19.159,0a46.374,46.374,0,0,0-.6-6.462l-.706.125Z" transform="translate(-1781.598 -2342.261)" fill="#aaa5a5"/>
        <path id="Trazado_97247" data-name="Trazado 97247" d="M1920.377,2142c-10.427,1.4-39.8,12.289-41.438,14.258-3.382,4.068-1.6,26.2-3.205,44.467l8.537.5c4.09-14.874,3.764-21.293,5.614-38.354,0,0,33.559,2.514,45.686-5.671C1948.072,2148.764,1928.809,2140,1920.377,2142Z" transform="translate(-1837.947 -2062.528)" fill="#213755"/>
        <path id="Trazado_97248" data-name="Trazado 97248" d="M1939.984,2022.791c2.464.42,3.413,2.4,4.008,6.038-9.388,5.531-23.336,5.925-23.336,5.925l-4.445-2.2S1927.395,2028.527,1939.984,2022.791Z" transform="translate(-1871.142 -1965.002)" fill="#d68d5d"/>
        <path id="Trazado_97249" data-name="Trazado 97249" d="M2074.3,1913.418c-4.108,5.97-19.847,18.809-22.453,19.213l-3.156-8.833s15.366-16.632,18.163-19.572C2071.684,1899.125,2081.023,1903.684,2074.3,1913.418Z" transform="translate(-1979.785 -1866.037)" fill="#d68d5d"/>
        <path id="Trazado_97250" data-name="Trazado 97250" d="M2094.825,1909.392c3.294-3.55,7.585-11.562,13.169-10.993s5.986,6.5,4.3,9.686-7.495,11.053-7.495,11.053Z" transform="translate(-2017.621 -1862.967)" fill="#9b9393"/>
        <path id="Trazado_97251" data-name="Trazado 97251" d="M1966.777,2043.109c2.367.815,3.717,8.271,3.053,8.841-10.146,4.019-31.257-.328-31.257-.328l-1.122-3.823S1953.437,2046.82,1966.777,2043.109Z" transform="translate(-1888.562 -1981.665)" fill="#e49963"/>
        <path id="Trazado_97252" data-name="Trazado 97252" d="M2138.966,1940.078c-2.32-11.971-3.32-16.214-4.284-21.847-2.382-13.923,4.622-23.709-7.385-30.382l-8.751,1.41c-7.077,7.445-11.432,14.2-11.806,18.869-.514,6.021,5.461,9.288,5.461,9.288l-2.4,16.393s-.566,1.339,9.3,3.2S2138.966,1940.078,2138.966,1940.078Z" transform="translate(-2027.368 -1854.339)" fill="#aaa5a5"/>
        <path id="Trazado_97253" data-name="Trazado 97253" d="M2126.638,1922.261c-4.108,6.039-21.664,21.387-24.3,21.523l-1.888-9.158s15.948-18.69,18.745-21.663C2124.026,1907.8,2133.365,1912.414,2126.638,1922.261Z" transform="translate(-2022.234 -1873.182)" fill="#e49963"/>
        <path id="Trazado_97254" data-name="Trazado 97254" d="M2152.735,1919.237c3.065-4.461,9.249-12.691,14.834-12.121s5.987,6.5,4.3,9.686-7.5,11.053-7.5,11.053Z" transform="translate(-2065.113 -1870.116)" fill="#9b9393"/>
        <path id="Trazado_97255" data-name="Trazado 97255" d="M1877.872,2064.655c-3.228-.793-10.245-3.151-13.071,4.24.709,1.356,3.307-1.993,4.423-2.3,1.771-.492,3.291.438,4.632,1.72,1.923,1.837,5.137.166,5.137.166Z" transform="translate(-1828.982 -1998.521)" fill="#e49963"/>
        <g id="Grupo_46758" data-name="Grupo 46758" transform="translate(0 43.648)">
          <path id="Trazado_97256" data-name="Trazado 97256" d="M1785.288,2098.351h-30.32v-4.071h34.391A4.071,4.071,0,0,1,1785.288,2098.351Z" transform="translate(-1738.909 -2067.277)" fill="#3c4973"/>
          <path id="Trazado_97257" data-name="Trazado 97257" d="M1666.177,1949.693l15.591,25.575,3.6-1.894-17.485-29.179h0A4.071,4.071,0,0,0,1666.177,1949.693Z" transform="translate(-1665.708 -1944.195)" fill="#3c4973"/>
        </g>
        <path id="Trazado_97258" data-name="Trazado 97258" d="M2161.751,1763.177c-1.474,6.157-6.59,10.21-11.426,9.052s-7.562-7.088-6.087-13.246,6.59-10.21,11.425-9.052S2163.226,1757.02,2161.751,1763.177Z" transform="translate(-2057.817 -1741.072)" fill="#e49963"/>
        <path id="Trazado_97259" data-name="Trazado 97259" d="M2188.336,1842.481l-8.038,4.981s-.712,3.552-1.069,4.7c-.735,2.378,2.08,3.417,4.46,1.937a6.963,6.963,0,0,0,2.985-3.461Z" transform="translate(-2086.743 -1817.133)" fill="#e49963"/>
        <path id="Trazado_97260" data-name="Trazado 97260" d="M2142.988,1749.715c2.284.2,7.232-.2,9.035-2.34,1.287,4.344,6.755,8.48,11.278,10.419.182-4.458.149-12.657-7.842-16.064C2149.183,1739.053,2142.988,1749.715,2142.988,1749.715Z" transform="translate(-2057.12 -1734.154)" fill="#3c4973"/>
        <path id="Trazado_97261" data-name="Trazado 97261" d="M2151.188,1804.437a.865.865,0,1,1-.389-1.16A.865.865,0,0,1,2151.188,1804.437Z" transform="translate(-2062.5 -1784.908)"/>
        <path id="Trazado_97262" data-name="Trazado 97262" d="M2188.326,1813.281a.937.937,0,1,1-.421-1.255A.936.936,0,0,1,2188.326,1813.281Z" transform="translate(-2092.846 -1792.076)"/>
        <g id="Grupo_46759" data-name="Grupo 46759" transform="translate(94.337 18.416)">
          <path id="Trazado_97263" data-name="Trazado 97263" d="M2192.239,1805.965a.322.322,0,0,1-.151-.155,2.48,2.48,0,0,0-1.749-1.211.325.325,0,0,1,.091-.645,3.1,3.1,0,0,1,2.25,1.582.326.326,0,0,1-.16.432A.321.321,0,0,1,2192.239,1805.965Z" transform="translate(-2190.06 -1803.951)" fill="#2e2d57"/>
        </g>
        <g id="Grupo_46760" data-name="Grupo 46760" transform="translate(86.621 17.098)">
          <path id="Trazado_97264" data-name="Trazado 97264" d="M2147.353,1797.8a.33.33,0,0,1-.087-.063.326.326,0,0,1,0-.46,2.283,2.283,0,0,1,2.269-.557.325.325,0,0,1-.211.616,1.635,1.635,0,0,0-1.6.4A.325.325,0,0,1,2147.353,1797.8Z" transform="translate(-2147.173 -1796.623)" fill="#2e2d57"/>
        </g>
        <path id="Trazado_97265" data-name="Trazado 97265" d="M2154.91,1820.373a8.664,8.664,0,0,1-1.344,1.277.343.343,0,0,0-.113.457,4.715,4.715,0,0,0,2.09,1.461.091.091,0,0,0,.1-.153,4.459,4.459,0,0,1-1.065-1.242.406.406,0,0,1,0-.37c.136-.268.406-.814.588-1.267A.154.154,0,0,0,2154.91,1820.373Z" transform="translate(-2065.665 -1798.963)" fill="#d68d5d"/>
        <path id="Trazado_97266" data-name="Trazado 97266" d="M2225.146,1821.659a2.25,2.25,0,1,0,3.482.086A2.488,2.488,0,0,0,2225.146,1821.659Z" transform="translate(-2123.538 -1799.515)" fill="#e49963"/>
        <g id="Grupo_46761" data-name="Grupo 46761" transform="translate(101.79 22.703)">
          <path id="Trazado_97267" data-name="Trazado 97267" d="M2231.972,1830.336a.318.318,0,0,1-.115-.1,1.472,1.472,0,0,1-.113-1.8,1.569,1.569,0,0,1,1.718-.59.326.326,0,1,1-.2.619.928.928,0,0,0-.986.352.833.833,0,0,0,.105,1.033.326.326,0,0,1-.406.487Z" transform="translate(-2231.486 -1827.777)" fill="#d68d5d"/>
        </g>
        <path id="Trazado_97268" data-name="Trazado 97268" d="M1995.718,2150.6c-10.427,1.4-39.846,10.938-41.483,12.908-3.382,4.068,4.147,21.488,6.555,43.915h10.065c-.105-15.98,1.171-30.679-3.746-35.89,0,0,28.2-1.881,42.255-1.881C2016.53,2169.65,2020.495,2145.436,1995.718,2150.6Z" transform="translate(-1901.621 -2069.224)" fill="#344966"/>
        <path id="Trazado_97269" data-name="Trazado 97269" d="M2159.063,1847.458a.265.265,0,0,1,.243-.422,18.841,18.841,0,0,0,4.993.005.265.265,0,0,1,.243.423,3.309,3.309,0,0,1-5.479-.005Z" transform="translate(-2070.259 -1820.866)" fill="#fff"/>
      </g>
      <g id="Grupo_46787" data-name="Grupo 46787" transform="translate(0 54.508)">
        <g id="Grupo_46763" data-name="Grupo 46763" transform="translate(67.504 36.187)">
          <path id="Trazado_97270" data-name="Trazado 97270" d="M1040.1,2047.982c-1.991,1.325-1.439,8.545-.688,8.913,10.354,1.265,27.842-7.313,27.842-7.313l.685-3.837A179.578,179.578,0,0,1,1040.1,2047.982Z" transform="translate(-1015.328 -2024.638)" fill="#e49963"/>
          <path id="Trazado_97271" data-name="Trazado 97271" d="M910.7,1939.248c3.7,5.919,19.9,21.225,22.417,21.451l2.141-8.677s-14.543-18.438-17.105-21.381C913.726,1925.535,904.636,1929.6,910.7,1939.248Z" transform="translate(-908.677 -1928.424)" fill="#e49963"/>
        </g>
        <path id="Trazado_97272" data-name="Trazado 97272" d="M805.8,1742.669c.445-6.06-1.307-11.414-6.14-14.141-4.9-2.763-11.033-.052-11.033-.052h0s-5.193-1.848-9.9,3.337-1.147,9.747-3.072,13.528c-1.14,2.239-6.938,2.7-5.44,9.995.432,2.1,2.962,3.519,5.1,3.66,3.765.247,7.271-1.208,8.8.247,5.029,4.8,16.173,3.062,17.733-1.326.484-1.36,10.508,1.272,9.508-7.993C810.847,1745.23,805.4,1748.085,805.8,1742.669Z" transform="translate(-727.417 -1727.286)" fill="#3c4973"/>
        <g id="Grupo_46766" data-name="Grupo 46766" transform="translate(58.249 33.504)">
          <g id="Grupo_46765" data-name="Grupo 46765">
            <g id="Grupo_46764" data-name="Grupo 46764">
              <path id="Trazado_97273" data-name="Trazado 97273" d="M868.179,1914.982l-7.959-1.47-2.984,3.971,6.343,13,9.329-7.919Z" transform="translate(-857.235 -1913.513)" fill="#e49963"/>
            </g>
          </g>
        </g>
        <g id="Grupo_46769" data-name="Grupo 46769" transform="translate(48.67 33.495)">
          <g id="Grupo_46768" data-name="Grupo 46768">
            <g id="Grupo_46767" data-name="Grupo 46767">
              <path id="Trazado_97274" data-name="Trazado 97274" d="M834.834,1946.293c-.136-2.475,3.863-12.636,1.758-17.75-1.533-4.114-4.094-11.021-7.23-12.173-1.48-.544-3-.922-4.844-1.432,0,0,1.04,5.184-1.127,5.358-4.172.335-6.832-6.827-6.832-6.827-2.25-.215-12.568,3.175-12.563,4.022.024,6.637,5.416,16.32,7.179,23.5.694,7.749-2.01,17.023-2.02,17.9,0,0,16.6,4.667,26.439-.75C835.8,1957.386,835.022,1949.71,834.834,1946.293Z" transform="translate(-803.995 -1913.459)" fill="#c1507f"/>
            </g>
          </g>
        </g>
        <path id="Trazado_97275" data-name="Trazado 97275" d="M825.293,2121.723s-3.664,9.244-4.558,15.065,4.15,9.554,4.15,9.554h41.94s4.49-7.282,3.2-12.31-4.268-5.828-4.268-5.828Z" transform="translate(-768.966 -2050.76)" fill="#c1507f"/>
        <path id="Trazado_97276" data-name="Trazado 97276" d="M955.069,2156.032c-5.354-.755-20.895,5.282-27.521,18.4h18.538Z" transform="translate(-856.649 -2078.844)" fill="#d68d5d"/>
        <g id="Grupo_46770" data-name="Grupo 46770" transform="translate(92.548 76.969)">
          <path id="Trazado_97277" data-name="Trazado 97277" d="M1047.879,2160.145a14.868,14.868,0,0,0,1.874-2.665,4.625,4.625,0,0,1,7.456-.874c7.73,8.522,24.208,27.949,27.881,30.367,1.038.683,7.094,4.169,12.851,3.48,0,0,2.842,1.083.948,3.339-.974,1.162-15.605,2.361-15.605,2.361l-1.141-4.3c-8.517-6.3-19.119-5.85-28.109-17.374A34.636,34.636,0,0,1,1047.879,2160.145Z" transform="translate(-1047.879 -2155.098)" fill="#d68d5d"/>
          <path id="Trazado_97278" data-name="Trazado 97278" d="M1239.161,2349.879l5.888,3.821.809-.964-4.775-4.453c2.713-2.141,9-.355,9-.355,2.058-1.329,6.07-5.641,6.484-7.952-1.318-1.642-5.707,1.737-5.707,1.737.161.73-1.225,3.266-2.328,3.7-4.794,1.035-9.572-.327-13.47-2.307C1235.057,2343.1,1231.8,2348.042,1239.161,2349.879Z" transform="translate(-1200.793 -2306.345)" fill="#c1507f"/>
        </g>
        <g id="Grupo_46771" data-name="Grupo 46771" transform="translate(89.271 83.084)">
          <path id="Trazado_97279" data-name="Trazado 97279" d="M1032.857,2189.179a2.772,2.772,0,0,0-2.027,2.287c-.419,2.974-2.585,9,.345,15.306,7.193,15.485,11.439,25.689,12.193,29.685-1.879,3.519,5.613,13.13,5.725,13.759l5.391-1.688s-3.094-4.6-4.208-6.4c-2.653-4.291-3.086-9.557-3.517-13.639-1.841-17.426,1.324-28.429-11.285-38.652A2.944,2.944,0,0,0,1032.857,2189.179Z" transform="translate(-1029.666 -2189.091)" fill="#e49963"/>
          <path id="Trazado_97280" data-name="Trazado 97280" d="M1086.908,2459.735l.532,7,1.257.059.646-6.5c3.347.86,5.737,6.938,5.737,6.938,2.3.831,8.166,1.407,10.254.334.507-2.043-4.841-3.485-4.841-3.485-.483.572-3.34,1.006-4.353.392a20.84,20.84,0,0,1-6.545-12.111S1083.906,2452.767,1086.908,2459.735Z" transform="translate(-1075.892 -2404.998)" fill="#c1507f"/>
        </g>
        <g id="Grupo_46774" data-name="Grupo 46774" transform="translate(60.719 27.506)">
          <g id="Grupo_46773" data-name="Grupo 46773">
            <g id="Grupo_46772" data-name="Grupo 46772">
              <path id="Trazado_97281" data-name="Trazado 97281" d="M877.426,1881.138l-6.463-.968.515,6s1.237,2.718,2.672,2.9l5.287-1.432Z" transform="translate(-870.963 -1880.17)" fill="#e49963"/>
            </g>
          </g>
        </g>
        <g id="Grupo_46778" data-name="Grupo 46778" transform="translate(52.985 4.588)">
          <path id="Trazado_97282" data-name="Trazado 97282" d="M835.661,1768c1.669,6.968,7.458,11.554,12.93,10.243s8.556-8.021,6.888-14.989-7.457-11.554-12.93-10.244S833.993,1761.03,835.661,1768Z" transform="translate(-833.907 -1752.785)" fill="#e49963"/>
          <path id="Trazado_97283" data-name="Trazado 97283" d="M933.155,1814.688a.979.979,0,1,0,.44-1.313A.978.978,0,0,0,933.155,1814.688Z" transform="translate(-914.148 -1802.391)"/>
          <path id="Trazado_97284" data-name="Trazado 97284" d="M890.393,1824.7a1.059,1.059,0,1,0,.476-1.421A1.059,1.059,0,0,0,890.393,1824.7Z" transform="translate(-879.072 -1810.502)"/>
          <g id="Grupo_46775" data-name="Grupo 46775" transform="translate(9.617 11.038)">
            <path id="Trazado_97285" data-name="Trazado 97285" d="M881.961,1816.416a.366.366,0,0,0,.17-.175,2.808,2.808,0,0,1,1.98-1.37.369.369,0,0,0-.1-.73,3.506,3.506,0,0,0-2.544,1.791.368.368,0,0,0,.5.485Z" transform="translate(-881.428 -1814.137)" fill="#2e2d57"/>
          </g>
          <g id="Grupo_46776" data-name="Grupo 46776" transform="translate(18.421 9.546)">
            <path id="Trazado_97286" data-name="Trazado 97286" d="M933.085,1807.177a.368.368,0,0,0,.095-.592,2.586,2.586,0,0,0-2.567-.63.368.368,0,0,0,.238.7,1.847,1.847,0,0,1,1.811.457A.368.368,0,0,0,933.085,1807.177Z" transform="translate(-930.364 -1805.844)" fill="#2e2d57"/>
          </g>
          <path id="Trazado_97287" data-name="Trazado 97287" d="M926.2,1832.721a9.817,9.817,0,0,0,1.521,1.445.388.388,0,0,1,.128.517,5.32,5.32,0,0,1-2.365,1.654.1.1,0,0,1-.109-.173,5.021,5.021,0,0,0,1.2-1.405.462.462,0,0,0,0-.419c-.153-.3-.459-.921-.666-1.433A.174.174,0,0,1,926.2,1832.721Z" transform="translate(-907.823 -1818.296)" fill="#d68d5d"/>
          <path id="Trazado_97288" data-name="Trazado 97288" d="M832.363,1834.176a2.547,2.547,0,1,1-3.941.1A2.815,2.815,0,0,1,832.363,1834.176Z" transform="translate(-827.976 -1818.919)" fill="#e49963"/>
          <g id="Grupo_46777" data-name="Grupo 46777" transform="translate(1.691 15.889)">
            <path id="Trazado_97289" data-name="Trazado 97289" d="M839.316,1844a.369.369,0,0,0,.13-.108,1.666,1.666,0,0,0,.128-2.042,1.776,1.776,0,0,0-1.945-.668.369.369,0,0,0,.231.7,1.05,1.05,0,0,1,1.115.4.943.943,0,0,1-.119,1.169.368.368,0,0,0,.459.551Z" transform="translate(-837.376 -1841.099)" fill="#d68d5d"/>
          </g>
          <path id="Trazado_97290" data-name="Trazado 97290" d="M896.231,1861.7a.293.293,0,0,1,.269-.468,20.865,20.865,0,0,0,5.531,0,.294.294,0,0,1,.27.468,3.666,3.666,0,0,1-6.07,0Z" transform="translate(-883.902 -1841.723)" fill="#fff"/>
        </g>
        <path id="Trazado_97291" data-name="Trazado 97291" d="M832.512,1761.34c6.532-.875,15.671-7.53,16.421-10.945-1.264-4.1-8-6.165-11.8-4.264S829.745,1756.177,832.512,1761.34Z" transform="translate(-777.908 -1742.156)" fill="#3c4973"/>
        <path id="Trazado_97292" data-name="Trazado 97292" d="M1171.416,1952.951h0a1.657,1.657,0,0,1-1.06-2.088l10.083-30.886a1.655,1.655,0,0,1,2.088-1.06h0a1.656,1.656,0,0,1,1.06,2.088l-10.082,30.886A1.656,1.656,0,0,1,1171.416,1952.951Z" transform="translate(-1055.705 -1884.373)" fill="#fff"/>
        <path id="Trazado_97293" data-name="Trazado 97293" d="M1199.913,2018.256l2.054-6.293a8.511,8.511,0,0,1,0,7.057c-1.781,3.436-3.475,3.59-3.475,3.59Z" transform="translate(-1078.847 -1960.746)" fill="#e49963"/>
        <path id="Trazado_97294" data-name="Trazado 97294" d="M1185.316,2018.143c-.52-1.221-1.743-4.278-.52-4.264s1.423,1.5,1.423,1.5Z" transform="translate(-1067.183 -1962.317)" fill="#e49963"/>
        <g id="Grupo_46786" data-name="Grupo 46786" transform="translate(0 28.034)">
          <g id="Grupo_46781" data-name="Grupo 46781" transform="translate(17.129 3.727)">
            <g id="Grupo_46780" data-name="Grupo 46780">
              <g id="Grupo_46779" data-name="Grupo 46779">
                <path id="Trazado_97295" data-name="Trazado 97295" d="M628.678,1909.494a4.58,4.58,0,0,0,.954-5.666c1.522-.326,9.549,11.834,13.01,19.561,6.038-6.085,16.676-14.3,19.553-14.782,0,0,3.881-1.043,5.275,3.649,1.245,4.188-3.61,7.156-3.61,7.156s-20.765,14.661-23.836,13.357C635.245,1930.741,630.92,1913.292,628.678,1909.494Z" transform="translate(-628.678 -1903.821)" fill="#e49963"/>
              </g>
            </g>
          </g>
          <g id="Grupo_46785" data-name="Grupo 46785">
            <g id="Grupo_46784" data-name="Grupo 46784">
              <g id="Grupo_46783" data-name="Grupo 46783">
                <g id="Grupo_46782" data-name="Grupo 46782">
                  <path id="Trazado_97296" data-name="Trazado 97296" d="M546.265,1892.161c1.694.1,3.79-.734,4.443.785l3.344-1.63.2-2.017c-2.874-4.6-9.878-5.911-10.572-5.972-1.8-.158-2.639-.344-2.779-.1s-.582,1.845,2.032,2.159c3.281.393,1.1,3.016-5.553.52-1.666-.625-4.8.187-3.669,1.4C534.964,1888.648,538.555,1891.69,546.265,1892.161Z" transform="translate(-533.472 -1883.108)" fill="#e49963"/>
                </g>
              </g>
            </g>
          </g>
        </g>
      </g>
    </g>
    <g id="Grupo_46790" data-name="Grupo 46790" transform="translate(460.926 798.768)">
      <path id="Trazado_97297" data-name="Trazado 97297" d="M1409.635,1412.273a10.391,10.391,0,0,1-.587,3.444c-1.918,5.506-8.32,9.551-15.925,9.551s-14.006-4.044-15.924-9.551a10.386,10.386,0,0,1-.588-3.444Z" transform="translate(-1331.464 -1321.99)" fill="#3c4973"/>
      <path id="Trazado_97298" data-name="Trazado 97298" d="M1409.635,1412.273a10.391,10.391,0,0,1-.587,3.444H1377.2a10.386,10.386,0,0,1-.588-3.444Z" transform="translate(-1331.464 -1321.99)" fill="#00223d"/>
      <path id="Trazado_97299" data-name="Trazado 97299" d="M1317.211,804.444a34.579,34.579,0,1,0-61.909,21.184,43.285,43.285,0,0,1,9.176,26.531v.17h36.309v-.17a43.408,43.408,0,0,1,9.2-26.563A34.422,34.422,0,0,0,1317.211,804.444Z" transform="translate(-1220.974 -769.865)" fill="url(#linear-gradient-2)"/>
      <g id="Grupo_46789" data-name="Grupo 46789" transform="translate(45.638 25.371)">
        <path id="Trazado_97300" data-name="Trazado 97300" d="M1401.36,1003.571a.884.884,0,0,1-.835-1.175c.041-.117,4.118-11.865,7.081-23.828,5.252-21.2,2.549-24.651,1.144-25.148-4.133-1.463-7.424.7-9.456,2.775a17.638,17.638,0,0,0-1.709,2.047,33.513,33.513,0,0,1,2.346,5c1.831,4.892,2.318,9.461,1.3,12.223a4.338,4.338,0,0,1-4.691,3.042,5.011,5.011,0,0,1-4.474-3.54c-.931-2.474-.811-6.111.331-9.98a26.643,26.643,0,0,1,3.1-6.818,17.144,17.144,0,0,0-4.163-4.706c-2.276-1.659-4.413-1.731-6.352-.215-4,3.13-4.158,12.545-.443,27.226a194.567,194.567,0,0,0,7.108,21.888.884.884,0,0,1-1.639.662,196.387,196.387,0,0,1-7.178-22.1c-3.96-15.641-3.6-25.422,1.064-29.069,2.563-2,5.576-1.94,8.482.179a18.321,18.321,0,0,1,4.2,4.6,18.732,18.732,0,0,1,1.449-1.673c3.382-3.45,7.4-4.588,11.309-3.2,2.435.862,3.433,4.138,3.053,10.017A103.817,103.817,0,0,1,1409.319,979c-2.983,12.041-7.084,23.857-7.125,23.975A.884.884,0,0,1,1401.36,1003.571Zm-4.853-43.676a25.1,25.1,0,0,0-2.415,5.586c-1.02,3.456-1.158,6.766-.372,8.857a3.271,3.271,0,0,0,2.952,2.4,2.573,2.573,0,0,0,2.9-1.889C1400.743,971.664,1399.321,965.16,1396.507,959.895Z" transform="translate(-1380.108 -950.391)" fill="#f5ca56"/>
      </g>
      <path id="Rectángulo_28256" data-name="Rectángulo 28256" d="M6.652,0H36.564a6.651,6.651,0,0,1,6.651,6.651v0A6.651,6.651,0,0,1,36.564,13.3H6.652A6.652,6.652,0,0,1,0,6.652v0A6.652,6.652,0,0,1,6.652,0Z" transform="translate(40.051 78.11)" fill="#3c4973"/>
      <path id="Trazado_97301" data-name="Trazado 97301" d="M1825.136,990.388h-11.306a2.914,2.914,0,0,1-2.914-2.914h0a2.914,2.914,0,0,1,2.914-2.914h11.306a2.914,2.914,0,0,1,2.914,2.914h0A2.914,2.914,0,0,1,1825.136,990.388Z" transform="translate(-1704.733 -954.387)" fill="#f5ca56"/>
      <path id="Trazado_97302" data-name="Trazado 97302" d="M1069.591,990.388h-11.306a2.914,2.914,0,0,1-2.914-2.914h0a2.914,2.914,0,0,1,2.914-2.914h11.306a2.914,2.914,0,0,1,2.914,2.914h0A2.914,2.914,0,0,1,1069.591,990.388Z" transform="translate(-1055.371 -954.387)" fill="#f5ca56"/>
      <path id="Trazado_97303" data-name="Trazado 97303" d="M1145.625,781.943l-9-6.847a2.914,2.914,0,0,1-.555-4.083h0a2.914,2.914,0,0,1,4.083-.554l9,6.846a2.915,2.915,0,0,1,.555,4.083h0A2.914,2.914,0,0,1,1145.625,781.943Z" transform="translate(-1124.22 -769.864)" fill="#f5ca56"/>
      <path id="Trazado_97304" data-name="Trazado 97304" d="M1747.811,781.943l9-6.847a2.914,2.914,0,0,0,.555-4.083h0a2.914,2.914,0,0,0-4.084-.554l-9,6.846a2.914,2.914,0,0,0-.555,4.083h0A2.914,2.914,0,0,0,1747.811,781.943Z" transform="translate(-1646.475 -769.864)" fill="#f5ca56"/>
      <path id="Trazado_97305" data-name="Trazado 97305" d="M1145.625,1176.842l-9,6.846a2.914,2.914,0,0,0-.555,4.083h0a2.914,2.914,0,0,0,4.083.554l9-6.846a2.915,2.915,0,0,0,.555-4.083h0A2.914,2.914,0,0,0,1145.625,1176.842Z" transform="translate(-1124.22 -1119.134)" fill="#f5ca56"/>
      <path id="Trazado_97306" data-name="Trazado 97306" d="M1747.811,1176.842l9,6.846a2.914,2.914,0,0,1,.555,4.083h0a2.915,2.915,0,0,1-4.084.554l-9-6.846a2.914,2.914,0,0,1-.555-4.083h0A2.914,2.914,0,0,1,1747.811,1176.842Z" transform="translate(-1646.475 -1119.134)" fill="#f5ca56"/>
    </g>
    <g id="Grupo_46794" data-name="Grupo 46794" transform="translate(508.009 985.845)">
      <g id="Grupo_46792" data-name="Grupo 46792" transform="translate(3.721 12.171)">
        <path id="Trazado_97307" data-name="Trazado 97307" d="M1388.114,2091.652v2.42h.659a.579.579,0,0,1,.579.58v.1a.579.579,0,0,1-.579.58h-28.079a.674.674,0,0,1-.674-.674v-3.485a.674.674,0,0,1,.674-.674h28.079a.579.579,0,0,1,.579.579h0a.579.579,0,0,1-.579.579Z" transform="translate(-1360.02 -2090.494)" fill="#f5ca56"/>
        <path id="Rectángulo_28257" data-name="Rectángulo 28257" d="M1.207,0H25.05a0,0,0,0,1,0,0V2.419a0,0,0,0,1,0,0H1.207A1.207,1.207,0,0,1,0,1.212v0A1.207,1.207,0,0,1,1.207,0Z" transform="translate(3.127 1.158)" fill="#fff"/>
      </g>
      <g id="Grupo_46793" data-name="Grupo 46793" transform="translate(0 6.823)">
        <path id="Trazado_97308" data-name="Trazado 97308" d="M1340.578,2062.051v2.677h-.66a.612.612,0,0,0-.578.641v.108a.612.612,0,0,0,.578.64H1368a.713.713,0,0,0,.674-.745v-3.856a.712.712,0,0,0-.674-.746h-28.08a.612.612,0,0,0-.578.64h0a.612.612,0,0,0,.578.64Z" transform="translate(-1339.34 -2060.77)" fill="#b54273"/>
        <path id="Rectángulo_28258" data-name="Rectángulo 28258" d="M1.336,0H25.05a0,0,0,0,1,0,0V2.677a0,0,0,0,1,0,0H1.336A1.336,1.336,0,0,1,0,1.341V1.336A1.336,1.336,0,0,1,1.336,0Z" transform="translate(26.205 3.958) rotate(180)" fill="#fff"/>
      </g>
      <path id="Rectángulo_28259" data-name="Rectángulo 28259" d="M2.166,0h23.32a2.167,2.167,0,0,1,2.167,2.167v.008a2.167,2.167,0,0,1-2.167,2.167H2.167A2.167,2.167,0,0,1,0,2.175V2.166A2.166,2.166,0,0,1,2.166,0Z" transform="translate(2.288 0)" fill="#f5ca56"/>
      <rect id="Rectángulo_28260" data-name="Rectángulo 28260" width="27.653" height="2.481" rx="1.238" transform="translate(4.095 4.342)" fill="#7d6eb2"/>
    </g>
  </g>
</svg>
