<svg xmlns="http://www.w3.org/2000/svg" xmlns:xlink="http://www.w3.org/1999/xlink" width="379.256" height="355.524" viewBox="0 0 379.256 355.524">
  <defs>
    <linearGradient id="linear-gradient" x1="0.5" x2="0.5" y2="1" gradientUnits="objectBoundingBox">
      <stop offset="0" stop-color="#fff"/>
      <stop offset="1" stop-color="#d2e6ee"/>
    </linearGradient>
    <linearGradient id="linear-gradient-7" x1="-19.527" y1="26.574" x2="-18.481" y2="26.574" xlink:href="#linear-gradient"/>
    <linearGradient id="linear-gradient-8" x1="-28.053" y1="40.71" x2="-27.008" y2="40.71" xlink:href="#linear-gradient"/>
    <linearGradient id="linear-gradient-9" y1="0.5" x2="1" y2="0.5" gradientUnits="objectBoundingBox">
      <stop offset="0" stop-color="#f9b776"/>
      <stop offset="1" stop-color="#f47960"/>
    </linearGradient>
    <linearGradient id="linear-gradient-11" x1="-0.138" y1="0.775" x2="1.475" y2="-0.237" xlink:href="#linear-gradient"/>
    <linearGradient id="linear-gradient-13" x1="78.211" y1="1.605" x2="80.211" y2="4.278" xlink:href="#linear-gradient-9"/>
    <linearGradient id="linear-gradient-14" x1="0.339" y1="0.706" x2="2.358" y2="-1.072" xlink:href="#linear-gradient-9"/>
    <linearGradient id="linear-gradient-15" x1="-0.241" y1="1.066" x2="3.808" y2="-1.521" xlink:href="#linear-gradient"/>
    <linearGradient id="linear-gradient-19" x1="-41.391" y1="-14.688" x2="-41.713" y2="-15.754" xlink:href="#linear-gradient-9"/>
    <linearGradient id="linear-gradient-20" x1="-136.11" y1="-73.662" x2="-137.053" y2="-78.309" xlink:href="#linear-gradient-9"/>
  </defs>
  <g id="Grupo_46159" data-name="Grupo 46159" transform="translate(-464.412 -478.871)">
    <g id="Grupo_46142" data-name="Grupo 46142" transform="translate(469.29 478.87)">
      <g id="Grupo_46137" data-name="Grupo 46137" transform="translate(0 17.467)">
        <g id="Grupo_46134" data-name="Grupo 46134">
          <path id="Trazado_96135" data-name="Trazado 96135" d="M503.555,1094.561a.567.567,0,0,1-.367-.485c-.055-.739-.1-1.491-.12-2.237a.549.549,0,0,1,.545-.564c.754-.017.55.736.7,2.736a.547.547,0,0,1-.521.585A.579.579,0,0,1,503.555,1094.561Z" transform="translate(-503.068 -1035.858)" fill="#00223d"/>
          <path id="Trazado_96136" data-name="Trazado 96136" d="M504.77,716.05c.138-1.417.335-2.846.586-4.247a.554.554,0,0,1,.653-.44c.835.162.29.633-.117,4.809a.551.551,0,0,1-.615.49A.567.567,0,0,1,504.77,716.05Zm2.249-11c.43-1.364.922-2.736,1.446-4.03a.565.565,0,0,1,1.048.423c-.522,1.291-1,2.615-1.417,3.949a.565.565,0,0,1-1.078-.342Zm4.465-10.294c.7-1.238,1.458-2.463,2.255-3.643a.565.565,0,0,1,.942.623c-.781,1.156-1.524,2.357-2.209,3.569A.565.565,0,0,1,511.484,694.755Zm6.588-8.369a.549.549,0,0,1-.06-.782c.945-1.067,1.946-2.11,2.976-3.1.529-.509,1.324.289.8.8-1.009.971-1.99,1.994-2.916,3.039A.569.569,0,0,1,518.072,686.386Zm8.151-7.624a.545.545,0,0,1,.1-.776c1.15-.853,2.349-1.671,3.563-2.431a.561.561,0,0,1,.616.938c-1.19.745-2.365,1.547-3.492,2.382A.573.573,0,0,1,526.223,678.762Zm9.891-5.531a.568.568,0,0,1-.312-.283.544.544,0,0,1,.261-.737c1.306-.6,2.652-1.164,4-1.664a.574.574,0,0,1,.731.324.544.544,0,0,1-.319.714c-1.321.49-2.64,1.039-3.92,1.631A.571.571,0,0,1,536.114,673.231Zm10.644-3.661a.568.568,0,0,1-.352-.389.545.545,0,0,1,.408-.667c1.405-.329,2.842-.606,4.271-.825a.572.572,0,0,1,.651.462.546.546,0,0,1-.461.633c-1.4.215-2.808.487-4.185.809A.571.571,0,0,1,546.758,669.57Zm10.844-1.945a.548.548,0,0,1,.54-.569c1.447-.038,2.917-.02,4.367.054a.554.554,0,1,1-.042,1.107c-1.421-.073-2.861-.09-4.279-.053A.57.57,0,0,1,557.6,667.626Zm36.121,12.04c-3.377-2.579-4.136-2.537-3.673-3.236a.566.566,0,0,1,.779-.154c1.219.79,2.422,1.638,3.577,2.519A.554.554,0,1,1,593.722,679.665Zm-24.8-11.3a.553.553,0,0,1,.648-.446c1.429.254,2.868.566,4.277.928a.553.553,0,1,1-.27,1.072c-1.381-.355-2.791-.661-4.191-.91A.565.565,0,0,1,568.919,668.363Zm15.225,5.418c-3.822-1.847-4.566-1.658-4.258-2.44a.574.574,0,0,1,.729-.308c1.357.533,2.708,1.123,4.014,1.754a.553.553,0,1,1-.485.994Z" transform="translate(-504.545 -667.038)" fill="#00223d"/>
          <path id="Trazado_96137" data-name="Trazado 96137" d="M1226.522,794.1c-1.295-1.383-2.1-1.852-1.56-2.379a.569.569,0,0,1,.8.007c1.4,1.376,2.1,1.925,1.56,2.411A.643.643,0,0,1,1226.522,794.1Z" transform="translate(-1130.516 -775.295)" fill="#00223d"/>
        </g>
        <g id="Grupo_46135" data-name="Grupo 46135" transform="translate(13.204 55.913)">
          <path id="Trazado_96138" data-name="Trazado 96138" d="M1351.029,1098.362a.564.564,0,0,1-.367-.555c.039-.728.063-1.465.072-2.191a.55.55,0,0,1,.571-.539.57.57,0,0,1,.557.569c-.009.741-.034,1.493-.074,2.236a.551.551,0,0,1-.593.516A.58.58,0,0,1,1351.029,1098.362Z" transform="translate(-1253.147 -1095.077)" fill="#00223d"/>
          <path id="Trazado_96139" data-name="Trazado 96139" d="M672.709,1208.649c-1.451-.594-2.893-1.254-4.288-1.964a.556.556,0,0,1-.25-.748c.394-.764.714-.047,4.958,1.689a.558.558,0,0,1,.313.725A.574.574,0,0,1,672.709,1208.649Zm6.856,1.748c.214-.832.707-.2,5.194.6a.564.564,0,0,1,.465.644.554.554,0,0,1-.648.447c-1.536-.271-3.084-.611-4.6-1.009A.563.563,0,0,1,679.565,1210.4Zm-17.719-7.634c-1.285-.889-2.549-1.844-3.757-2.837a.55.55,0,0,1-.077-.781c.557-.659.708.108,4.474,2.715a.552.552,0,0,1,.145.773A.568.568,0,0,1,661.846,1202.764ZM692,1212.873a.565.565,0,0,1-.368-.54.549.549,0,0,1,.578-.531c1.532.062,3.081.06,4.606,0a.57.57,0,0,1,.6.529.548.548,0,0,1-.53.578c-1.556.066-3.138.068-4.7,0A.584.584,0,0,1,692,1212.873Zm12.147-.835a.569.569,0,0,1-.359-.418.545.545,0,0,1,.444-.645c1.5-.27,3.005-.606,4.477-1a.574.574,0,0,1,.7.39.545.545,0,0,1-.386.68c-1.5.4-3.039.745-4.569,1.021A.575.575,0,0,1,704.145,1212.037Zm11.627-3.438a.57.57,0,0,1-.321-.3.544.544,0,0,1,.288-.726c1.4-.587,2.79-1.239,4.133-1.94a.575.575,0,0,1,.765.232.544.544,0,0,1-.225.749c-1.371.715-2.79,1.381-4.218,1.98A.572.572,0,0,1,715.772,1208.6Zm10.551-5.86a.572.572,0,0,1-.258-.195.545.545,0,0,1,.12-.773c1.232-.874,2.44-1.811,3.591-2.784a.571.571,0,0,1,.8.064.546.546,0,0,1-.053.781c-1.175.994-2.408,1.95-3.665,2.842A.568.568,0,0,1,726.323,1202.739Zm8.791-8.1c-.661-.574.117-.689,2.814-4.284a.564.564,0,0,1,.911.666c-.92,1.227-1.906,2.429-2.93,3.573A.569.569,0,0,1,735.114,1194.634Zm7.03-9.7c-.772-.418-.045-.694,1.774-4.8a.566.566,0,0,1,1.035.455c-.621,1.4-1.309,2.791-2.046,4.13A.563.563,0,0,1,742.143,1184.933Zm4.618-11.024a.56.56,0,0,1-.347-.674c.414-1.449.77-2.927,1.057-4.393a.554.554,0,0,1,.66-.43.565.565,0,0,1,.447.656c-.293,1.5-.656,3-1.079,4.482a.556.556,0,0,1-.695.374Z" transform="translate(-650.865 -1158.822)" fill="#00223d"/>
          <path id="Trazado_96140" data-name="Trazado 96140" d="M605.8,1352c-1.333-1.44-2.006-2.018-1.445-2.478.583-.479.909.264,2.274,1.738a.547.547,0,0,1-.032.783A.572.572,0,0,1,605.8,1352Z" transform="translate(-604.152 -1316.163)" fill="#00223d"/>
        </g>
        <g id="Grupo_46136" data-name="Grupo 46136" transform="translate(14.008 13.389)">
          <path id="Trazado_96141" data-name="Trazado 96141" d="M617.31,833.893l8.013-.992a35.871,35.871,0,0,0,8.69,7.414c.313,7.727-.213,8.29.613,8.566l9.235,3.076a.665.665,0,0,0,.736-.218l4.864-6.278a35.737,35.737,0,0,0,11.385-.727l5.829,5.6a.678.678,0,0,0,.764.123l8.645-4.211a.64.64,0,0,0,.356-.668l-1.131-7.893a34.059,34.059,0,0,0,7.412-8.43l8.086-.03a.652.652,0,0,0,.62-.443l2.99-9.032a.655.655,0,0,0-.233-.727l-6.462-4.876a34.185,34.185,0,0,0-.911-11.2c5.365-5.629,6.119-5.634,5.726-6.395-4.478-8.322-4.223-9.03-5.1-8.922l-8.013.992a35.871,35.871,0,0,0-8.69-7.414c-.312-7.722.214-8.29-.613-8.566-9.228-2.9-9.448-3.534-9.971-2.858l-4.864,6.278a35.727,35.727,0,0,0-11.385.727c-5.738-5.294-5.813-6.106-6.593-5.726-8.48,4.318-9.122,4.027-9,4.879l1.13,7.893a34.057,34.057,0,0,0-7.411,8.431c-7.718.187-8.433-.352-8.706.473-2.8,8.988-3.457,9.231-2.758,9.759l6.461,4.876a34.193,34.193,0,0,0,.911,11.2c-5.346,5.61-6.12,5.63-5.726,6.395C616.688,833.293,616.433,834,617.31,833.893Z" transform="translate(-610.306 -769.538)" fill="#7d6eb2"/>
          <path id="Trazado_96142" data-name="Trazado 96142" d="M859.91,1022.45a9.256,9.256,0,0,1,10.068-8.52,9.541,9.541,0,0,1,8.821,10.026,9.257,9.257,0,0,1-10.068,8.521h0A9.539,9.539,0,0,1,859.91,1022.45Zm8.877,9.2.005,0Zm1.079-16.061a7.593,7.593,0,0,0-8.268,7,7.833,7.833,0,0,0,7.245,8.235,7.6,7.6,0,0,0,8.268-7A7.834,7.834,0,0,0,869.866,1015.587Z" transform="translate(-827.287 -981.979)" fill="url(#linear-gradient)"/>
          <path id="Trazado_96143" data-name="Trazado 96143" d="M763.74,948.136h0a25,25,0,0,1-3.782-1.8.835.835,0,0,1-.37-1.011.794.794,0,0,1,.062-.129.847.847,0,0,1,1.156-.285A23.4,23.4,0,0,0,765.2,946.9h0a22.391,22.391,0,0,0,28.131-13q.16-.423.3-.855c3.858-11.654-2.7-24.22-14.524-28.163-11.807-3.933-24.58,2.23-28.434,13.852-2.29,6.919-.289,11.562-.558,12.274a.852.852,0,0,1-1.618-.124,23.387,23.387,0,0,1,.892-13.605c7.3-19.321,34.793-20.5,44.374-1.918a23.406,23.406,0,0,1,1.476,18.22q-.155.468-.328.927a23.325,23.325,0,0,1-11.72,12.787,24.417,24.417,0,0,1-18.515,1.175Q764.205,948.312,763.74,948.136Z" transform="translate(-729.911 -884.769)" fill="url(#linear-gradient)"/>
        </g>
      </g>
      <g id="Grupo_46141" data-name="Grupo 46141" transform="translate(94.753 0)">
        <g id="Grupo_46138" data-name="Grupo 46138">
          <path id="Trazado_96144" data-name="Trazado 96144" d="M1228.738,792.679a.344.344,0,0,1-.223-.294c-.033-.448-.058-.9-.073-1.357a.333.333,0,0,1,.33-.342c.458-.01.334.447.425,1.66a.333.333,0,0,1-.316.355A.351.351,0,0,1,1228.738,792.679Z" transform="translate(-1228.443 -757.066)" fill="#00223d"/>
          <path id="Trazado_96145" data-name="Trazado 96145" d="M1229.475,563.052c.084-.86.2-1.726.356-2.576a.336.336,0,0,1,.4-.267c.507.1.176.384-.071,2.917a.334.334,0,0,1-.373.3A.344.344,0,0,1,1229.475,563.052Zm1.364-6.674c.261-.827.559-1.66.878-2.445a.343.343,0,0,1,.636.257c-.316.783-.6,1.586-.859,2.4a.343.343,0,0,1-.654-.208Zm2.709-6.245c.424-.751.884-1.494,1.368-2.21a.343.343,0,0,1,.572.378c-.474.7-.925,1.43-1.34,2.165A.343.343,0,0,1,1233.548,550.133Zm4-5.077a.332.332,0,0,1-.037-.474c.573-.647,1.18-1.281,1.805-1.882.321-.309.8.175.482.484-.612.589-1.207,1.209-1.769,1.844A.345.345,0,0,1,1237.545,545.056Zm4.945-4.625a.331.331,0,0,1,.062-.471c.7-.517,1.425-1.014,2.162-1.475a.34.34,0,0,1,.374.569c-.722.452-1.434.938-2.118,1.445A.348.348,0,0,1,1242.49,540.431Zm6-3.356a.345.345,0,0,1-.189-.171.33.33,0,0,1,.158-.447c.792-.366,1.609-.706,2.427-1.01a.348.348,0,0,1,.443.2.33.33,0,0,1-.193.433c-.8.3-1.6.63-2.378.989A.346.346,0,0,1,1248.49,537.075Zm6.457-2.221a.346.346,0,0,1-.214-.236.331.331,0,0,1,.248-.4c.853-.2,1.724-.368,2.591-.5a.347.347,0,0,1,.4.281.331.331,0,0,1-.279.384c-.849.13-1.7.3-2.539.491A.346.346,0,0,1,1254.947,534.855Zm6.578-1.18a.333.333,0,0,1,.328-.345c.878-.023,1.77-.012,2.65.033a.336.336,0,1,1-.025.672c-.862-.044-1.735-.055-2.6-.032A.346.346,0,0,1,1261.525,533.675Zm21.913,7.3c-2.049-1.565-2.509-1.539-2.228-1.963a.343.343,0,0,1,.473-.094c.739.479,1.469.993,2.17,1.528A.336.336,0,1,1,1283.438,540.979Zm-15.047-6.857a.336.336,0,0,1,.393-.271c.867.154,1.74.343,2.594.563a.335.335,0,1,1-.164.65c-.838-.215-1.693-.4-2.543-.552A.342.342,0,0,1,1268.392,534.122Zm9.236,3.287c-2.318-1.121-2.77-1.006-2.583-1.48a.349.349,0,0,1,.442-.187c.823.323,1.643.681,2.435,1.064a.335.335,0,1,1-.294.6Z" transform="translate(-1229.338 -533.318)" fill="#00223d"/>
          <path id="Trazado_96146" data-name="Trazado 96146" d="M1667.334,610.4c-.786-.839-1.273-1.123-.946-1.443a.345.345,0,0,1,.484,0c.847.835,1.272,1.168.946,1.462A.39.39,0,0,1,1667.334,610.4Z" transform="translate(-1609.091 -598.993)" fill="#00223d"/>
        </g>
        <g id="Grupo_46139" data-name="Grupo 46139" transform="translate(8.01 33.92)">
          <path id="Trazado_96147" data-name="Trazado 96147" d="M1742.868,794.986a.343.343,0,0,1-.223-.337c.024-.442.039-.889.044-1.329a.333.333,0,0,1,.346-.327.345.345,0,0,1,.338.345c-.006.449-.021.906-.045,1.356a.334.334,0,0,1-.36.313A.348.348,0,0,1,1742.868,794.986Z" transform="translate(-1683.486 -792.993)" fill="#00223d"/>
          <path id="Trazado_96148" data-name="Trazado 96148" d="M1331.357,861.892c-.88-.36-1.755-.761-2.6-1.191a.337.337,0,0,1-.152-.454c.239-.464.433-.029,3.008,1.025a.338.338,0,0,1,.19.44A.348.348,0,0,1,1331.357,861.892Zm4.159,1.061c.13-.5.429-.119,3.151.362a.342.342,0,0,1,.282.39.336.336,0,0,1-.393.271c-.931-.165-1.871-.371-2.792-.612A.341.341,0,0,1,1335.516,862.953Zm-10.749-4.631c-.779-.54-1.546-1.119-2.279-1.721a.334.334,0,0,1-.047-.474c.338-.4.429.066,2.714,1.647a.335.335,0,0,1,.088.469A.345.345,0,0,1,1324.767,858.322Zm18.292,6.133a.343.343,0,0,1-.223-.328.333.333,0,0,1,.351-.322c.929.037,1.869.036,2.794,0a.345.345,0,0,1,.361.321.332.332,0,0,1-.321.351c-.944.04-1.9.042-2.852,0A.36.36,0,0,1,1343.059,864.455Zm7.369-.507a.345.345,0,0,1-.217-.253.331.331,0,0,1,.269-.391c.91-.164,1.823-.368,2.716-.607a.348.348,0,0,1,.423.236.331.331,0,0,1-.234.412c-.911.244-1.844.452-2.772.619A.35.35,0,0,1,1350.428,863.948Zm7.054-2.086a.346.346,0,0,1-.195-.182.33.33,0,0,1,.175-.441c.849-.356,1.692-.752,2.508-1.177a.349.349,0,0,1,.464.141.33.33,0,0,1-.136.454c-.832.433-1.693.838-2.559,1.2A.346.346,0,0,1,1357.482,861.862Zm6.4-3.555a.347.347,0,0,1-.156-.118.33.33,0,0,1,.073-.469c.747-.53,1.48-1.1,2.178-1.689a.347.347,0,0,1,.483.039.332.332,0,0,1-.032.474c-.713.6-1.461,1.183-2.223,1.724A.346.346,0,0,1,1363.883,858.307Zm5.333-4.917c-.4-.348.071-.418,1.707-2.6a.343.343,0,0,1,.553.4c-.558.744-1.156,1.474-1.777,2.168A.345.345,0,0,1,1369.216,853.39Zm4.264-5.886c-.468-.253-.027-.421,1.076-2.912a.343.343,0,0,1,.628.276c-.377.85-.794,1.693-1.241,2.506A.342.342,0,0,1,1373.48,847.5Zm2.8-6.688a.34.34,0,0,1-.21-.409c.251-.879.467-1.776.641-2.665a.336.336,0,0,1,.4-.261.342.342,0,0,1,.271.4c-.178.908-.4,1.823-.655,2.719a.337.337,0,0,1-.421.227Z" transform="translate(-1318.105 -831.664)" fill="#00223d"/>
          <path id="Trazado_96149" data-name="Trazado 96149" d="M1290.763,948.86c-.809-.874-1.217-1.224-.877-1.5s.552.16,1.38,1.055a.331.331,0,0,1-.02.475A.347.347,0,0,1,1290.763,948.86Z" transform="translate(-1289.766 -927.117)" fill="#00223d"/>
        </g>
        <g id="Grupo_46140" data-name="Grupo 46140" transform="translate(8.498 8.123)">
          <path id="Trazado_96150" data-name="Trazado 96150" d="M1297.749,634.542l4.861-.6a21.752,21.752,0,0,0,5.271,4.5c.19,4.687-.129,5.03.372,5.2l5.6,1.866a.4.4,0,0,0,.447-.132l2.95-3.809a21.679,21.679,0,0,0,6.907-.441l3.536,3.4a.412.412,0,0,0,.463.074l5.244-2.555a.388.388,0,0,0,.216-.405l-.686-4.788a20.668,20.668,0,0,0,4.5-5.114l4.905-.018a.4.4,0,0,0,.376-.269l1.814-5.479a.4.4,0,0,0-.141-.441l-3.92-2.958a20.74,20.74,0,0,0-.553-6.8c3.254-3.415,3.712-3.418,3.474-3.88-2.717-5.049-2.562-5.478-3.094-5.413l-4.861.6a21.759,21.759,0,0,0-5.272-4.5c-.189-4.685.13-5.029-.372-5.2-5.6-1.759-5.732-2.144-6.049-1.734l-2.951,3.809a21.672,21.672,0,0,0-6.907.441c-3.481-3.211-3.527-3.7-4-3.474-5.145,2.62-5.534,2.443-5.46,2.96l.686,4.788a20.657,20.657,0,0,0-4.5,5.115c-4.682.113-5.116-.214-5.281.287-1.7,5.453-2.1,5.6-1.673,5.92l3.92,2.958a20.763,20.763,0,0,0,.553,6.8c-3.243,3.4-3.713,3.416-3.474,3.88C1297.371,634.179,1297.216,634.608,1297.749,634.542Z" transform="translate(-1293.499 -595.5)" fill="#f6c343"/>
          <path id="Trazado_96151" data-name="Trazado 96151" d="M1444.924,748.932a5.615,5.615,0,0,1,6.107-5.169,5.788,5.788,0,0,1,5.352,6.082,5.616,5.616,0,0,1-6.108,5.169h0A5.787,5.787,0,0,1,1444.924,748.932Zm5.385,5.58h0Zm.655-9.743a4.606,4.606,0,0,0-5.016,4.245,4.752,4.752,0,0,0,4.395,5,4.611,4.611,0,0,0,5.016-4.245A4.753,4.753,0,0,0,1450.964,744.769Z" transform="translate(-1425.133 -724.38)" fill="url(#linear-gradient)"/>
          <path id="Trazado_96152" data-name="Trazado 96152" d="M1386.582,703.849h0a15.164,15.164,0,0,1-2.294-1.093.506.506,0,0,1-.225-.614.507.507,0,0,1,.739-.251,14.2,14.2,0,0,0,2.665,1.205h0a13.583,13.583,0,0,0,17.066-7.885q.1-.256.184-.519a13.738,13.738,0,0,0-26.061-8.682c-1.389,4.2-.175,7.014-.338,7.446a.517.517,0,0,1-.981-.075,14.185,14.185,0,0,1,.541-8.254c4.427-11.721,21.107-12.435,26.92-1.163a14.2,14.2,0,0,1,.895,11.053q-.093.284-.2.562a14.151,14.151,0,0,1-7.11,7.758,14.814,14.814,0,0,1-11.232.713C1386.96,703.988,1386.77,703.92,1386.582,703.849Z" transform="translate(-1366.06 -665.406)" fill="url(#linear-gradient)"/>
        </g>
      </g>
    </g>
    <g id="Grupo_46143" data-name="Grupo 46143" transform="translate(464.412 502.167)">
      <path id="Trazado_96153" data-name="Trazado 96153" d="M1073.329,2269.109h-50.66c-3.551,0-6.828,2.588-6.828,4.382v109.971c0,1.8,3.278,3.562,6.828,3.562h50.66c3.551,0,7.66-1.767,7.66-3.562V2273.491C1080.989,2271.7,1076.88,2269.109,1073.329,2269.109Z" transform="translate(-943.981 -2065.665)" fill="#00223d"/>
      <path id="Trazado_96154" data-name="Trazado 96154" d="M529.282,2565.238c0-.928-3.2-1.888-6.752-1.888H472.445c-3.551,0-6.722.96-6.722,1.888v75.786c0,.929,3.171,1.805,6.722,1.805H522.53c3.55,0,6.752-.876,6.752-1.805Z" transform="translate(-465.723 -2321.47)" fill="#00223d"/>
      <path id="Trazado_96155" data-name="Trazado 96155" d="M2730.048,1173.658c0-2.281-3.819-4-7.369-4h-50.7c-3.551,0-6.281,1.721-6.281,4v252.725c0,2.281,2.73,4.8,6.281,4.8h50.7c3.55,0,7.369-2.523,7.369-4.8Z" transform="translate(-2378.319 -1109.829)" fill="#00223d"/>
      <path id="Trazado_96156" data-name="Trazado 96156" d="M1641.913,1902.637c0-1.68-3.062-3.235-6.613-3.235h-50.086c-3.551,0-6.067,1.554-6.067,3.235v159.744c0,1.68,2.516,3.229,6.067,3.229H1635.3c3.551,0,6.613-1.549,6.613-3.229Z" transform="translate(-1433.705 -1744.251)" fill="#00223d"/>
      <path id="Trazado_96157" data-name="Trazado 96157" d="M2187.823,1525.44c0-1.886-2.812-3.141-6.362-3.141h-50.085c-3.551,0-6.316,1.255-6.316,3.141v209.073c0,1.886,2.766,3.255,6.316,3.255h50.085c3.551,0,6.362-1.369,6.362-3.255Z" transform="translate(-1908.305 -1416.409)" fill="#00223d"/>
      <path id="Trazado_96158" data-name="Trazado 96158" d="M2570.231,772.65l40.542-59.677a2.91,2.91,0,0,1,4.838-.036l41.8,59.677a3.117,3.117,0,0,1-2.406,4.94h-82.339A3.116,3.116,0,0,1,2570.231,772.65Z" transform="translate(-2294.845 -711.661)" fill="#00223d"/>
    </g>
    <g id="Grupo_46146" data-name="Grupo 46146" transform="translate(730.051 642.09)">
      <g id="Grupo_46145" data-name="Grupo 46145" transform="translate(0 0)">
        <circle id="Elipse_3866" data-name="Elipse 3866" cx="40.17" cy="40.17" r="40.17" transform="translate(0 56.809) rotate(-45)" fill="#00223d"/>
        <circle id="Elipse_3867" data-name="Elipse 3867" cx="38.834" cy="38.834" r="38.834" transform="translate(1.889 56.809) rotate(-45)" fill="#f6c343"/>
        <path id="Trazado_96159" data-name="Trazado 96159" d="M2683.114,1957.967a.878.878,0,0,1-.4-.1.89.89,0,0,1-.394-1.2,36.585,36.585,0,0,1,32.817-20.206,37.026,37.026,0,0,1,6.627.6.891.891,0,1,1-.319,1.753,35.234,35.234,0,0,0-6.307-.568,34.813,34.813,0,0,0-31.227,19.227A.89.89,0,0,1,2683.114,1957.967Z" transform="translate(-2658.328 -1916.399)" fill="#fff"/>
        <circle id="Elipse_3868" data-name="Elipse 3868" cx="32.868" cy="32.868" r="32.868" transform="translate(11.172 57.655) rotate(-45)" opacity="0.78" fill="url(#linear-gradient)"/>
        <g id="Grupo_46144" data-name="Grupo 46144" transform="translate(43.178 34.393)">
          <path id="Trazado_96160" data-name="Trazado 96160" d="M2841.089,2093.816v-3.575a29.177,29.177,0,0,1-10.034-2.176,2.068,2.068,0,0,1-1.143-2.444l.908-3.331a2.086,2.086,0,0,1,2.831-1.364,24.206,24.206,0,0,0,9.263,1.95c3.591,0,6.268-1.217,6.268-3.712,0-2.252-2.069-3.59-7.059-4.929-7.12-1.948-12.232-5.052-12.232-11.319,0-5.66,4.138-9.981,11.319-11.137V2048.2a2.083,2.083,0,0,1,2.083-2.083h2.1a2.084,2.084,0,0,1,2.083,2.083v3.211a26.581,26.581,0,0,1,7.953,1.428,2.074,2.074,0,0,1,1.3,2.5l-.835,3.081a2.078,2.078,0,0,1-2.743,1.4,21.707,21.707,0,0,0-7.8-1.416c-4.26,0-5.477,1.765-5.477,3.347,0,1.948,2.556,3.287,8.094,4.991,7.912,2.373,11.2,5.659,11.2,11.562,0,5.417-4.017,10.285-11.806,11.5v4a2.084,2.084,0,0,1-2.083,2.084h-2.1A2.084,2.084,0,0,1,2841.089,2093.816Z" transform="translate(-2829.838 -2046.12)" fill="#f6c343"/>
        </g>
      </g>
      <rect id="Rectángulo_28275" data-name="Rectángulo 28275" width="78.71" height="14.992" rx="3.634" transform="translate(17.453 108.27)" fill="#f6c343"/>
      <rect id="Rectángulo_28276" data-name="Rectángulo 28276" width="78.71" height="14.992" rx="3.634" transform="translate(17.515 125.197)" fill="#f6c343"/>
      <rect id="Rectángulo_28277" data-name="Rectángulo 28277" width="78.71" height="14.992" rx="3.634" transform="translate(17.577 142.125)" fill="#f6c343"/>
      <rect id="Rectángulo_28278" data-name="Rectángulo 28278" width="78.71" height="14.992" rx="3.634" transform="translate(17.639 158.614)" fill="#f6c343"/>
      <rect id="Rectángulo_28279" data-name="Rectángulo 28279" width="78.71" height="14.992" rx="3.634" transform="translate(17.701 175.103)" fill="#f6c343"/>
    </g>
    <g id="Grupo_46149" data-name="Grupo 46149" transform="translate(644.781 659.893)">
      <g id="Grupo_46148" data-name="Grupo 46148" transform="translate(0 0)">
        <circle id="Elipse_3869" data-name="Elipse 3869" cx="40.17" cy="40.17" r="40.17" transform="translate(0 56.809) rotate(-45)" fill="#00223d"/>
        <circle id="Elipse_3870" data-name="Elipse 3870" cx="38.834" cy="38.834" r="38.834" transform="translate(1.889 56.809) rotate(-45)" fill="#f6c343"/>
        <path id="Trazado_96161" data-name="Trazado 96161" d="M2030.342,2094.262a.892.892,0,0,1-.794-1.293,36.585,36.585,0,0,1,32.817-20.205,37.067,37.067,0,0,1,6.627.6.891.891,0,1,1-.319,1.753,35.282,35.282,0,0,0-6.308-.567,34.812,34.812,0,0,0-31.226,19.227A.89.89,0,0,1,2030.342,2094.262Z" transform="translate(-2005.557 -2052.694)" fill="#fff"/>
        <circle id="Elipse_3871" data-name="Elipse 3871" cx="32.868" cy="32.868" r="32.868" transform="translate(11.172 57.655) rotate(-45)" opacity="0.78" fill="url(#linear-gradient)"/>
        <g id="Grupo_46147" data-name="Grupo 46147" transform="translate(43.178 34.393)">
          <path id="Trazado_96162" data-name="Trazado 96162" d="M2188.319,2230.11v-3.576a29.149,29.149,0,0,1-10.033-2.176,2.067,2.067,0,0,1-1.143-2.443l.908-3.331a2.085,2.085,0,0,1,2.83-1.364,24.214,24.214,0,0,0,9.264,1.951c3.59,0,6.268-1.218,6.268-3.713,0-2.251-2.069-3.59-7.059-4.929-7.12-1.947-12.232-5.051-12.232-11.319,0-5.66,4.139-9.98,11.319-11.136V2184.5a2.084,2.084,0,0,1,2.084-2.084h2.1a2.083,2.083,0,0,1,2.083,2.084v3.21a26.585,26.585,0,0,1,7.953,1.428,2.073,2.073,0,0,1,1.3,2.5l-.835,3.08a2.078,2.078,0,0,1-2.743,1.4,21.688,21.688,0,0,0-7.8-1.417c-4.26,0-5.477,1.765-5.477,3.347,0,1.947,2.556,3.286,8.094,4.99,7.911,2.374,11.2,5.659,11.2,11.562,0,5.417-4.017,10.285-11.806,11.5v4a2.084,2.084,0,0,1-2.084,2.083h-2.1A2.084,2.084,0,0,1,2188.319,2230.11Z" transform="translate(-2177.067 -2182.413)" fill="#f6c343"/>
        </g>
      </g>
      <rect id="Rectángulo_28280" data-name="Rectángulo 28280" width="78.71" height="14.992" rx="3.634" transform="translate(17.453 106.518)" fill="#f6c343"/>
      <rect id="Rectángulo_28281" data-name="Rectángulo 28281" width="78.71" height="14.992" rx="3.634" transform="translate(17.515 123.445)" fill="#f6c343"/>
      <rect id="Rectángulo_28282" data-name="Rectángulo 28282" width="78.71" height="14.992" rx="3.634" transform="translate(17.577 140.372)" fill="#f6c343"/>
      <rect id="Rectángulo_28283" data-name="Rectángulo 28283" width="78.71" height="14.992" rx="3.634" transform="translate(17.639 157.3)" fill="#f6c343"/>
    </g>
    <g id="Grupo_46150" data-name="Grupo 46150" transform="translate(492.911 564.902)">
      <path id="Trazado_96163" data-name="Trazado 96163" d="M848.126,2940.9a.655.655,0,0,1-.5-.231q-.572-.672-1.132-1.353a.657.657,0,1,1,1.015-.834q.552.671,1.117,1.335a.657.657,0,0,1-.5,1.083Z" transform="translate(-825.124 -2710.125)" fill="#00223d"/>
      <path id="Trazado_96164" data-name="Trazado 96164" d="M703.6,1418.627a.655.655,0,0,1-.522-.257c-.711-.925-1.413-1.872-2.087-2.816a.657.657,0,0,1,1.069-.764c.666.931,1.359,1.866,2.06,2.78a.657.657,0,0,1-.521,1.057Zm-4.049-5.665a.656.656,0,0,1-.548-.293c-.646-.973-1.281-1.968-1.886-2.955a.657.657,0,0,1,1.12-.687c.6.974,1.224,1.955,1.861,2.915a.657.657,0,0,1-.547,1.02Zm-3.641-5.935a.657.657,0,0,1-.573-.334c-.574-1.016-1.135-2.054-1.667-3.085a.657.657,0,1,1,1.167-.6c.525,1.016,1.078,2.04,1.644,3.042a.657.657,0,0,1-.572.98Zm-3.2-6.186a.657.657,0,0,1-.6-.378c-.5-1.055-.977-2.133-1.431-3.2a.657.657,0,0,1,1.21-.513c.447,1.053.921,2.115,1.41,3.156a.657.657,0,0,1-.594.937Zm-2.716-6.41a.657.657,0,0,1-.615-.425c-.413-1.09-.808-2.2-1.176-3.3a.657.657,0,1,1,1.246-.416c.362,1.087.752,2.182,1.158,3.256a.657.657,0,0,1-.382.847A.648.648,0,0,1,690,1394.431Zm-2.2-6.6a.657.657,0,0,1-.631-.475c-.325-1.123-.629-2.264-.9-3.39a.657.657,0,0,1,1.276-.312c.271,1.109.571,2.232.89,3.338a.658.658,0,0,1-.632.84Zm-1.654-6.761a.657.657,0,0,1-.643-.528c-.229-1.141-.437-2.3-.618-3.454a.657.657,0,1,1,1.3-.2c.178,1.133.383,2.277.608,3.4a.657.657,0,0,1-.515.773A.641.641,0,0,1,686.144,1381.065Zm-1.078-6.876a.657.657,0,0,1-.652-.584c-.128-1.143-.234-2.319-.315-3.5a.657.657,0,1,1,1.311-.09c.079,1.157.183,2.314.31,3.439a.657.657,0,0,1-.58.726A.634.634,0,0,1,685.066,1374.189Zm-.481-6.945a.657.657,0,0,1-.656-.638c-.025-.882-.038-1.783-.038-2.678q0-.413,0-.827a.657.657,0,0,1,.657-.652h.006a.657.657,0,0,1,.651.663q0,.409,0,.816c0,.883.013,1.771.038,2.641a.657.657,0,0,1-.638.676Zm.059-6.962h-.03a.657.657,0,0,1-.627-.685c.051-1.153.123-2.329.215-3.5a.657.657,0,1,1,1.31.1c-.09,1.154-.162,2.316-.212,3.454A.657.657,0,0,1,684.645,1360.282Zm.544-6.943a.625.625,0,0,1-.074,0,.657.657,0,0,1-.58-.726c.129-1.151.279-2.321.446-3.475a.657.657,0,1,1,1.3.188c-.165,1.141-.313,2.3-.44,3.434A.657.657,0,0,1,685.189,1353.339Zm1-6.893a.668.668,0,0,1-.115-.01.657.657,0,0,1-.532-.762c.2-1.143.426-2.3.665-3.439a.657.657,0,0,1,1.286.27c-.236,1.126-.457,2.269-.657,3.4A.658.658,0,0,1,686.184,1346.447Zm1.428-6.811a.666.666,0,0,1-.155-.019.657.657,0,0,1-.484-.793c.273-1.128.569-2.268.878-3.387a.657.657,0,1,1,1.267.35c-.305,1.106-.6,2.233-.868,3.347A.657.657,0,0,1,687.612,1339.635Zm1.853-6.707a.658.658,0,0,1-.628-.852c.346-1.111.714-2.231,1.093-3.327a.657.657,0,1,1,1.242.43c-.376,1.083-.739,2.189-1.08,3.287A.658.658,0,0,1,689.464,1332.929Zm2.281-6.578a.657.657,0,0,1-.613-.893c.419-1.09.861-2.184,1.313-3.25a.657.657,0,0,1,1.21.513c-.446,1.053-.882,2.132-1.3,3.209A.658.658,0,0,1,691.746,1326.351Zm2.72-6.413a.657.657,0,0,1-.595-.935c.495-1.062,1.013-2.122,1.54-3.153a.657.657,0,0,1,1.17.6c-.519,1.016-1.03,2.062-1.519,3.11A.657.657,0,0,1,694.466,1319.938Zm57.841-3.356a11.985,11.985,0,0,1-1.886-.149.657.657,0,1,1,.207-1.3,10.9,10.9,0,0,0,3.27.017.657.657,0,0,1,.187,1.3A12.54,12.54,0,0,1,752.306,1316.583Zm5.023-1.073a.657.657,0,0,1-.258-1.262,15.841,15.841,0,0,0,2.907-1.636.657.657,0,0,1,.758,1.074,17.221,17.221,0,0,1-3.15,1.771A.654.654,0,0,1,757.329,1315.51Zm-10.109-.125a.656.656,0,0,1-.289-.068,14.752,14.752,0,0,1-3.029-2.007.657.657,0,1,1,.85-1,13.426,13.426,0,0,0,2.758,1.829.657.657,0,0,1-.29,1.247Zm-49.581-1.65a.657.657,0,0,1-.573-.978c.574-1.025,1.171-2.044,1.776-3.029a.657.657,0,1,1,1.12.687c-.6.97-1.184,1.975-1.75,2.984A.657.657,0,0,1,697.639,1313.735Zm65.369-2.179a.657.657,0,0,1-.466-1.12,22.155,22.155,0,0,0,2.187-2.575.657.657,0,0,1,1.063.773,23.473,23.473,0,0,1-2.317,2.728A.656.656,0,0,1,763.009,1311.555Zm-21.1-.588a.656.656,0,0,1-.511-.244c-.42-.519-.834-1.08-1.23-1.665-.278-.41-.55-.835-.808-1.263a.657.657,0,1,1,1.125-.68c.247.409.507.815.772,1.206.376.555.768,1.085,1.165,1.576a.657.657,0,0,1-.511,1.07Zm-40.627-3.172a.657.657,0,0,1-.545-1.024c.655-.974,1.335-1.941,2.023-2.874a.657.657,0,0,1,1.058.78c-.676.918-1.346,1.869-1.99,2.827A.656.656,0,0,1,701.286,1307.8Zm65.785-1.86a.658.658,0,0,1-.591-.943,15.755,15.755,0,0,0,1.125-3.14.657.657,0,1,1,1.277.309,17.079,17.079,0,0,1-1.219,3.4A.658.658,0,0,1,767.071,1305.935Zm-28.768-.9a.657.657,0,0,1-.6-.385,32.409,32.409,0,0,1-1.291-3.309.657.657,0,0,1,1.249-.41,31.066,31.066,0,0,0,1.238,3.174.657.657,0,0,1-.6.93Zm-32.879-2.847a.657.657,0,0,1-.51-1.071c.742-.916,1.509-1.817,2.279-2.678a.657.657,0,1,1,.98.876c-.756.846-1.509,1.731-2.238,2.63A.656.656,0,0,1,705.424,1302.187Zm63.269-2.969h-.015a.658.658,0,0,1-.643-.671q0-.155,0-.309a14.886,14.886,0,0,0-.306-3,.657.657,0,1,1,1.287-.266,16.188,16.188,0,0,1,.333,3.269q0,.169,0,.338A.657.657,0,0,1,768.693,1299.219Zm-32.561-.786a.657.657,0,0,1-.642-.52,33.62,33.62,0,0,1-.553-3.507.657.657,0,1,1,1.307-.135,32.34,32.34,0,0,0,.531,3.369.657.657,0,0,1-.643.794Zm-26.063-1.438a.657.657,0,0,1-.467-1.119c.826-.835,1.68-1.655,2.538-2.436a.657.657,0,0,1,.884.972c-.842.765-1.679,1.569-2.488,2.387A.654.654,0,0,1,710.069,1296.994Zm57.217-4.533a.656.656,0,0,1-.6-.38,14.21,14.21,0,0,0-.664-1.258,17.958,17.958,0,0,0-1.068-1.6.657.657,0,0,1,1.051-.789,19.312,19.312,0,0,1,1.146,1.713c.264.444.508.907.726,1.375a.657.657,0,0,1-.6.934Zm-52.064-.149a.657.657,0,0,1-.415-1.167c.881-.716,1.789-1.412,2.7-2.072l.1-.07a.657.657,0,1,1,.762,1.07l-.089.064c-.891.645-1.779,1.327-2.641,2.027A.653.653,0,0,1,715.222,1292.312Zm20.191-.792h0a.657.657,0,0,1-.657-.657,34.906,34.906,0,0,1,.185-3.542.657.657,0,1,1,1.307.135,33.5,33.5,0,0,0-.178,3.408A.657.657,0,0,1,735.413,1291.52Zm-14.543-3.272a.657.657,0,0,1-.351-1.213c1-.629,2.018-1.229,3.037-1.785a.657.657,0,0,1,.629,1.154c-.994.542-1.991,1.129-2.964,1.743A.655.655,0,0,1,720.87,1288.247Zm42.281-1.334a.655.655,0,0,1-.445-.174,19.989,19.989,0,0,0-2.662-2.061.657.657,0,0,1,.715-1.1,21.268,21.268,0,0,1,2.837,2.2.657.657,0,0,1-.445,1.14Zm-36.172-1.994a.657.657,0,0,1-.276-1.254c1.072-.5,2.165-.955,3.251-1.367a.657.657,0,0,1,.466,1.229c-1.057.4-2.122.849-3.166,1.331A.654.654,0,0,1,726.98,1284.919Zm9.144-.314a.656.656,0,0,1-.644-.789c.136-.666.293-1.334.468-2-.759.182-1.521.387-2.275.612a.657.657,0,1,1-.375-1.26c1.014-.3,2.042-.569,3.061-.8a.657.657,0,0,1,1.253.4c-.334,1.094-.619,2.208-.844,3.312A.657.657,0,0,1,736.124,1284.605Zm21.222-1.481a.655.655,0,0,1-.269-.058,25.084,25.084,0,0,0-3.18-1.175.657.657,0,0,1,.373-1.26,26.47,26.47,0,0,1,3.346,1.237.657.657,0,0,1-.27,1.256Zm-6.652-1.987a.678.678,0,0,1-.11-.009,31.654,31.654,0,0,0-3.387-.383.657.657,0,1,1,.078-1.312,33.024,33.024,0,0,1,3.528.4.657.657,0,0,1-.109,1.305ZM740.287,1281a.657.657,0,0,1-.083-1.309c1.182-.152,2.368-.252,3.527-.3a.657.657,0,1,1,.051,1.313c-1.119.043-2.266.139-3.41.286A.707.707,0,0,1,740.287,1281Zm-2.137-3.049a.657.657,0,0,1-.608-.9c.437-1.075.931-2.157,1.469-3.215a.657.657,0,1,1,1.172.595c-.521,1.026-1,2.074-1.423,3.115A.657.657,0,0,1,738.15,1277.955Zm3.141-6.2a.657.657,0,0,1-.561-1c.6-.984,1.253-1.975,1.943-2.944a.657.657,0,1,1,1.071.762c-.671.943-1.308,1.908-1.891,2.866A.657.657,0,0,1,741.291,1271.75Zm4.047-5.652a.657.657,0,0,1-.5-1.084,33.152,33.152,0,0,1,2.445-2.565.657.657,0,1,1,.9.956,31.9,31.9,0,0,0-2.348,2.463A.656.656,0,0,1,745.338,1266.1Zm5.054-4.751a.657.657,0,0,1-.4-1.182,33.133,33.133,0,0,1,2.945-1.973.657.657,0,1,1,.672,1.129,31.971,31.971,0,0,0-2.828,1.9A.656.656,0,0,1,750.392,1261.347Zm5.959-3.564a.657.657,0,0,1-.281-1.252c1.034-.488,2.1-.937,3.254-1.372a.657.657,0,1,1,.464,1.229c-1.123.423-2.156.859-3.157,1.331A.656.656,0,0,1,756.35,1257.783Zm6.5-2.477a.657.657,0,0,1-.195-1.285c1-.312,2.074-.621,3.368-.973a.657.657,0,0,1,.345,1.268c-1.279.348-2.335.653-3.323.96A.661.661,0,0,1,762.849,1255.307Zm6.711-1.861a.657.657,0,0,1-.168-1.292c1.076-.285,2.225-.593,3.339-.922a.657.657,0,0,1,.371,1.261c-1.13.333-2.29.644-3.374.932A.671.671,0,0,1,769.561,1253.446Zm6.663-2.019a.657.657,0,0,1-.232-1.272,24.883,24.883,0,0,0,3.089-1.387.657.657,0,1,1,.625,1.156,26.19,26.19,0,0,1-3.252,1.462A.654.654,0,0,1,776.224,1251.427Zm6.045-3.365a.657.657,0,0,1-.425-1.158,12.959,12.959,0,0,0,2.23-2.425.657.657,0,1,1,1.072.76,14.43,14.43,0,0,1-2.453,2.668A.652.652,0,0,1,782.268,1248.062Zm3.988-5.591a.648.648,0,0,1-.25-.05.657.657,0,0,1-.357-.858c.418-1.013.822-2.067,1.235-3.221a.657.657,0,0,1,1.237.443c-.42,1.174-.831,2.247-1.257,3.28A.657.657,0,0,1,786.256,1242.471Zm2.362-6.548a.658.658,0,0,1-.626-.859c.355-1.1.7-2.207,1.032-3.314a.657.657,0,0,1,1.257.382c-.339,1.114-.682,2.226-1.039,3.334A.657.657,0,0,1,788.618,1235.924Zm2.043-6.657a.657.657,0,0,1-.629-.848c.338-1.114.68-2.227,1.035-3.334a.657.657,0,1,1,1.252.4c-.352,1.1-.693,2.208-1.029,3.316A.658.658,0,0,1,790.661,1229.267Zm2.141-6.625a.658.658,0,0,1-.619-.877c.418-1.177.827-2.25,1.248-3.281a.657.657,0,1,1,1.216.5c-.414,1.012-.815,2.066-1.226,3.223A.657.657,0,0,1,792.8,1222.642Zm2.649-6.43a.657.657,0,0,1-.591-.943c.524-1.083,1.079-2.132,1.651-3.118a.657.657,0,1,1,1.137.659c-.556.958-1.1,1.978-1.605,3.031A.657.657,0,0,1,795.45,1216.212Zm3.5-6.008a.657.657,0,0,1-.537-1.034c.678-.967,1.4-1.91,2.159-2.8a.657.657,0,0,1,1,.849c-.729.862-1.431,1.773-2.086,2.708A.657.657,0,0,1,798.948,1210.2Zm4.49-5.3a.657.657,0,0,1-.46-1.126c.62-.609,1.273-1.208,1.941-1.781q.343-.295.691-.582a.657.657,0,1,1,.837,1.013q-.338.279-.672.566c-.646.555-1.277,1.134-1.877,1.722A.655.655,0,0,1,803.438,1204.9Zm5.357-4.438a.657.657,0,0,1-.379-1.194c.967-.68,1.966-1.325,2.969-1.916a.657.657,0,1,1,.667,1.132c-.973.574-1.942,1.2-2.88,1.859A.655.655,0,0,1,808.8,1200.462Zm5.994-3.528a.657.657,0,0,1-.285-1.25c1.068-.513,2.162-.982,3.253-1.392a.657.657,0,1,1,.463,1.229c-1.055.4-2.113.85-3.146,1.347A.657.657,0,0,1,814.79,1196.935Zm6.509-2.443a.657.657,0,0,1-.173-1.291c1.144-.313,2.308-.572,3.459-.77a.657.657,0,1,1,.222,1.3c-1.109.191-2.231.44-3.334.742A.658.658,0,0,1,821.3,1194.491Zm6.852-1.174a.657.657,0,0,1-.045-1.312,34.219,34.219,0,0,1,3.548-.062.657.657,0,0,1-.045,1.313,32.686,32.686,0,0,0-3.411.06Z" transform="translate(-683.891 -1191.923)" fill="#00223d"/>
      <path id="Trazado_96165" data-name="Trazado 96165" d="M1839.591,1196.14a.659.659,0,0,1-.13-.013c-.561-.113-1.13-.211-1.69-.293a.657.657,0,1,1,.189-1.3c.584.085,1.177.187,1.76.3a.657.657,0,0,1-.129,1.3Z" transform="translate(-1686.554 -1194.186)" fill="#00223d"/>
    </g>
    <g id="Grupo_46153" data-name="Grupo 46153" transform="translate(611.479 505.981)">
      <path id="Trazado_96166" data-name="Trazado 96166" d="M1651.063,1224.913s2.58,15.5-8.592,18.618-23.218,3.5-25.92,8.241c0,0,.8-30.71,31.333-31.4Z" transform="translate(-1613.289 -1157.736)" fill="#f6c343"/>
      <path id="Trazado_96167" data-name="Trazado 96167" d="M1923.6,1227.146s7.7,13.365,4.951,17.811c-2.615,4.229-32.295,22.631-35.185,24.417a.288.288,0,0,1-.386-.079h0a3.952,3.952,0,0,1-.579-3.534c1.851-5.816,7.525-23.134,10.92-27.82C1907.422,1232.281,1923.6,1227.146,1923.6,1227.146Z" transform="translate(-1852.945 -1163.625)" fill="#7d6eb2"/>
      <path id="Trazado_96168" data-name="Trazado 96168" d="M1971.295,1287.759a.354.354,0,0,0,.28-.045c.162-.1,16.242-10.464,22.99-15.192a3.7,3.7,0,0,0,1.511-3.749,55.182,55.182,0,0,0-3.227-10.728.355.355,0,0,0-.651.283,54.379,54.379,0,0,1,3.182,10.582,3,3,0,0,1-1.222,3.031c-6.737,4.72-22.805,15.073-22.966,15.176a.354.354,0,0,0,.1.641Z" transform="translate(-1921.462 -1190.302)" fill="#fff"/>
      <path id="Trazado_96169" data-name="Trazado 96169" d="M1641.071,937.853s-10.41-11.382-15.479-10.106c-4.822,1.214-31.338,23.938-33.915,26.153a.288.288,0,0,0-.042.391h0a3.95,3.95,0,0,0,3.194,1.62c6.1,0,24.327-.176,29.82-1.995C1631.284,951.721,1641.071,937.853,1641.071,937.853Z" transform="translate(-1591.577 -903.249)" fill="#7d6eb2"/>
      <path id="Trazado_96170" data-name="Trazado 96170" d="M1674.889,957.489a.355.355,0,0,0,.315-.07c.148-.123,14.875-12.308,21.412-17.3a3,3,0,0,1,3.259-.249A54.382,54.382,0,0,1,1709,946.1a.354.354,0,1,0,.466-.534,54.075,54.075,0,0,0-9.249-6.322,3.707,3.707,0,0,0-4.031.307c-6.549,5-21.285,17.2-21.434,17.319a.355.355,0,0,0,.138.617Z" transform="translate(-1663.776 -912.937)" fill="#fff"/>
      <path id="Trazado_96171" data-name="Trazado 96171" d="M1888.954,801.738a79.664,79.664,0,0,1-17.479,17.7c-22.973,16.916-42.785,25.375-48.482,27.63a3.025,3.025,0,0,1-3.048-.5,53.323,53.323,0,0,1-15.186-20.416,4.395,4.395,0,0,1,.672-4.518,229.029,229.029,0,0,1,40.441-37.178,79.664,79.664,0,0,1,21.993-11.255C1879.4,782.273,1885.756,794.567,1888.954,801.738Z" transform="translate(-1776.61 -768.973)" fill="#f6c343"/>
      <path id="Trazado_96172" data-name="Trazado 96172" d="M2290.163,745.089a82.672,82.672,0,0,1,33.509-3.864,1.486,1.486,0,0,1,1.3,1.775,82.659,82.659,0,0,1-13.718,30.632C2308.055,766.46,2301.7,754.165,2290.163,745.089Z" transform="translate(-2198.909 -740.865)" fill="#7d6eb2"/>
      <g id="Grupo_46151" data-name="Grupo 46151" transform="translate(69.862 17.856)">
        <path id="Trazado_96173" data-name="Trazado 96173" d="M2131.649,880c-5.963,4.364-7,13.09-2.316,19.491s13.315,8.051,19.279,3.687,7-13.09,2.316-19.491S2137.613,875.637,2131.649,880Z" transform="translate(-2126.4 -877.562)" fill="#7d6eb2"/>
        <path id="Trazado_96174" data-name="Trazado 96174" d="M2152.437,897.151c-4.752,3.478-5.579,10.431-1.846,15.531s10.61,6.415,15.361,2.937,5.578-10.431,1.846-15.531S2157.188,893.674,2152.437,897.151Z" transform="translate(-2145.398 -892.903)" fill="url(#linear-gradient-7)"/>
        <path id="Trazado_96175" data-name="Trazado 96175" d="M2264.623,935.925a.355.355,0,0,0,.373-.131,8.951,8.951,0,0,0-.108-10.562,9.313,9.313,0,0,0-2.087-2.071.354.354,0,0,0-.413.576,8.586,8.586,0,0,1,1.928,1.914,8.236,8.236,0,0,1,.113,9.719.354.354,0,0,0,.072.5A.348.348,0,0,0,2264.623,935.925Z" transform="translate(-2244.495 -917.146)" fill="#fff"/>
      </g>
      <g id="Grupo_46152" data-name="Grupo 46152" transform="translate(52.822 38.498)">
        <path id="Trazado_96176" data-name="Trazado 96176" d="M1999.418,1037.193c-3.94,2.883-4.625,8.648-1.531,12.876s8.8,5.319,12.737,2.436,4.625-8.648,1.53-12.876S2003.358,1034.31,1999.418,1037.193Z" transform="translate(-1995.95 -1035.581)" fill="#7d6eb2"/>
        <path id="Trazado_96177" data-name="Trazado 96177" d="M2013.151,1048.521a7.579,7.579,0,1,0,10.148,1.941A7.316,7.316,0,0,0,2013.151,1048.521Z" transform="translate(-2008.502 -1045.715)" fill="url(#linear-gradient-8)"/>
        <path id="Trazado_96178" data-name="Trazado 96178" d="M2086.433,1073.451a.356.356,0,0,0,.373-.131,6.034,6.034,0,0,0-.071-7.121,6.233,6.233,0,0,0-1.406-1.395.354.354,0,1,0-.412.576,5.539,5.539,0,0,1,1.246,1.238,5.319,5.319,0,0,1,.075,6.277.355.355,0,0,0,.071.5A.345.345,0,0,0,2086.433,1073.451Z" transform="translate(-2073.165 -1060.929)" fill="#fff"/>
      </g>
    </g>
    <g id="Grupo_46158" data-name="Grupo 46158" transform="translate(570.086 624.253)">
      <path id="Trazado_96179" data-name="Trazado 96179" d="M1610.31,3161.4s-.73,4.129-1.087,8.217a2.817,2.817,0,0,0,2.694,3.052c5.444.227,17.088.668,21.267.481a.916.916,0,0,0,.806-1.255,2.05,2.05,0,0,0-1.049-1.105l-19.234-8.84Z" transform="translate(-1565.515 -2963.488)" fill="#26aab7"/>
      <path id="Trazado_96180" data-name="Trazado 96180" d="M1613.042,3137.752l.586,4.94s3.37,1.569,5.67-.2l-1.4-5.505Z" transform="translate(-1568.845 -2942.262)" fill="url(#linear-gradient-9)"/>
      <path id="Trazado_96181" data-name="Trazado 96181" d="M1514.745,2431.893c-.253,1.29-1.359,64.37,5.384,92.639a.96.96,0,0,1-.563,1.116,16.717,16.717,0,0,1-5.492,1.116,1.653,1.653,0,0,1-1.639-1.186c-1.928-6.559-11.163-39.42-12.368-70.811-1.347-35.077,0-1.195,0-1.195l.789-21.682Z" transform="translate(-1470.108 -2329.268)" fill="#26aab7"/>
      <path id="Trazado_96182" data-name="Trazado 96182" d="M1432.789,3177.9s-1.161,2.085-2.286,7.625a1.719,1.719,0,0,0,1.512,2.058c1.8.176,4.565.4,6.781.388a1.713,1.713,0,0,0,1.7-1.911,14.448,14.448,0,0,0-3.373-7.925Z" transform="translate(-1410.12 -2977.826)" fill="#26aab7"/>
      <path id="Trazado_96183" data-name="Trazado 96183" d="M1440.425,3127.327l1.369,7.469s1.354,1.007,4.032.277l-.654-8.037Z" transform="translate(-1418.776 -2933.61)" fill="url(#linear-gradient-9)"/>
      <path id="Trazado_96184" data-name="Trazado 96184" d="M1397.975,2423.493c-5.515,33.282,1.2,82.259,3.459,91.845a1.5,1.5,0,0,0,1.207,1.135,10.034,10.034,0,0,0,4.313-.172,1.369,1.369,0,0,0,.985-1.261c.3-7.75-.243-55.328,4.9-74.13a4.273,4.273,0,0,1,1.647-2.356l9.974-7.09.765-11.461Z" transform="translate(-1380.025 -2318.933)" fill="#26aab7"/>
      <g id="Grupo_46154" data-name="Grupo 46154" transform="translate(15.89 15.902)">
        <path id="Trazado_96185" data-name="Trazado 96185" d="M1433.539,1945.978c-16.527-.273-34.762,4.339-34.762,4.339-4.926,28.745-.861,61.9-.861,61.9,12.795,3.355,27.228-2.052,27.228-2.052,2.126-12.014,12.048-45.827,12.048-45.827a54.438,54.438,0,0,0,20.2-6.412c-4.178-4.844-6.148-11.007-7-14.65A55.445,55.445,0,0,1,1433.539,1945.978Z" transform="translate(-1396.339 -1920.382)" fill="url(#linear-gradient-11)"/>
        <path id="Trazado_96186" data-name="Trazado 96186" d="M1842.1,1769.268a3.162,3.162,0,0,0-3.678-1.033c-2.432,10.273-15.184,18.6-28.285,22.674.855,3.644,2.826,9.806,7,14.65C1838.881,1793.334,1842.1,1769.268,1842.1,1769.268Z" transform="translate(-1756.082 -1768.016)" fill="url(#linear-gradient-9)"/>
      </g>
      <g id="Grupo_46155" data-name="Grupo 46155" transform="translate(98.228)">
        <path id="Trazado_96187" data-name="Trazado 96187" d="M2029.954,1663.936c.17.54-1.8,1.362-2.956-.847-.04-1.058-.684-5.594-.052-6.456,3.369-4.593,9.9-10.35,9.9-10.35a1.554,1.554,0,0,1,.194,2.159l-3.168,3.3a15.333,15.333,0,0,1,1.85,3.657,4.437,4.437,0,0,1-.443,3.268c-.556,1-1.315,2.3-2.032,3.324A4.386,4.386,0,0,1,2029.954,1663.936Z" transform="translate(-2026.67 -1646.283)" fill="url(#linear-gradient-13)"/>
        <path id="Trazado_96188" data-name="Trazado 96188" d="M2045.953,1704.477l-2.887,2.448-.906,2.437,2.574,2.856s.865-4.835,1.509-5.882S2046.552,1704.783,2045.953,1704.477Z" transform="translate(-2040.136 -1696.875)" fill="url(#linear-gradient-14)"/>
      </g>
      <path id="Trazado_96189" data-name="Trazado 96189" d="M1301.7,2013.182l-6.339-16s-15.437,10.489-17.975,23.787a36.536,36.536,0,0,1,13.42,3.6C1291.951,2018.284,1301.7,2013.182,1301.7,2013.182Z" transform="translate(-1277.038 -1951.343)" fill="url(#linear-gradient-15)"/>
      <path id="Trazado_96190" data-name="Trazado 96190" d="M1312.852,2186.552s-17.332,9.8-23.18,1.432a6.575,6.575,0,0,1-1.205-5.108,36.543,36.543,0,0,0-13.419-3.6,18.354,18.354,0,0,0,1.995,12.582c10.244,18.738,38.1-1.036,38.1-1.036Z" transform="translate(-1274.696 -2109.656)" fill="url(#linear-gradient-9)"/>
      <g id="Grupo_46156" data-name="Grupo 46156" transform="translate(36.036 50.302)">
        <path id="Trazado_96191" data-name="Trazado 96191" d="M1550.6,2091.71l9.459-33.033a.963.963,0,0,1,.815-.694c1.714-.2,6.68-.761,12.413-1.246,6.906-.584,14.927-1.057,19.72-.655a.966.966,0,0,1,.79,1.39c-2.725,5.514-13.936,27.943-19.55,35.291a.971.971,0,0,1-.78.383l-21.947-.2A.966.966,0,0,1,1550.6,2091.71Z" transform="translate(-1550.566 -2052.724)" fill="#00223d"/>
        <path id="Trazado_96192" data-name="Trazado 96192" d="M1726.509,2032.519l6.858-1.143a.493.493,0,0,1,.549.64l-.679,2.057a.492.492,0,0,1-.4.334l-6.6.882a.492.492,0,0,1-.544-.6l.42-1.8A.492.492,0,0,1,1726.509,2032.519Z" transform="translate(-1702.803 -2031.369)" fill="#26aab7"/>
        <path id="Trazado_96193" data-name="Trazado 96193" d="M1692.652,2052l.565-2.943a.679.679,0,0,1,.6-.548l13.852-1.406a.68.68,0,0,1,.73.836l-.88,3.667a.681.681,0,0,1-.627.521l-13.536.682A.681.681,0,0,1,1692.652,2052Z" transform="translate(-1674.081 -2045.045)" fill="#26aab7"/>
        <path id="Trazado_96194" data-name="Trazado 96194" d="M1562.278,2193.77s-1.318-5.418-.786-7.34,1.561-4.394,4.994-3.845a50.25,50.25,0,0,1,7.482,2,1.965,1.965,0,0,1-2.813,1.7l1.618,1.252s-.231,2-2.435.934l1.5,1.66a1.753,1.753,0,0,1-2.567.591C1567.653,2189.656,1566.876,2194.423,1562.278,2193.77Z" transform="translate(-1559.955 -2162.764)" fill="url(#linear-gradient-9)"/>
      </g>
      <path id="Trazado_96195" data-name="Trazado 96195" d="M1517.762,1861.246l-5.259,15.207a.548.548,0,0,0,.25.66c1.434.792,6.6,3.083,12.821-.862a2.58,2.58,0,0,0,1.188-1.843l1.7-13.162Z" transform="translate(-1481.412 -1833.166)" fill="url(#linear-gradient-9)"/>
      <g id="Grupo_46157" data-name="Grupo 46157" transform="translate(26.369 6.094)">
        <path id="Trazado_96196" data-name="Trazado 96196" d="M1550.849,1753.439s5.774,10.87,5.034,15.26-7.9,4.076-14.146.51l-4.367-11.737Z" transform="translate(-1529.427 -1745.535)" fill="url(#linear-gradient-19)"/>
        <path id="Trazado_96197" data-name="Trazado 96197" d="M1489.146,1710.845a.448.448,0,0,0,.2-.656,11.7,11.7,0,0,1-1.606-3.411s-1.038-.665,2.642-1.546,9.168-2.248,10.322-5.381c1.125-3.054-1.83-10.735-6.545-4.615a.448.448,0,0,1-.71.005c-.773-1.006-2.8-3.094-5.626-1.828-2.64,1.185-2.937,3.119-2.9,4.094a.445.445,0,0,1-.528.456,5.167,5.167,0,0,0-6.033,2.813c-1.231,2.706-.431,4.239.3,4.988a.447.447,0,0,1-.191.742,2.688,2.688,0,0,0-1.9,3.067c.157,2.841,3.333,2.591,4.238,2.461a.449.449,0,0,1,.4.141c.776.858,4.269,4.5,8.051,4.941a.452.452,0,0,0,.474-.6l-1.637-4.757a.451.451,0,0,1,.243-.558Z" transform="translate(-1476.56 -1692.936)" fill="#00223d"/>
        <path id="Trazado_96198" data-name="Trazado 96198" d="M1548.482,1825.912s-4.111-2.821-4.412-.445,3.7,3.441,5.685,2.555Z" transform="translate(-1535.238 -1807.327)" fill="url(#linear-gradient-20)"/>
      </g>
    </g>
  </g>
</svg>
