<svg xmlns="http://www.w3.org/2000/svg" xmlns:xlink="http://www.w3.org/1999/xlink" width="391.518" height="336.784" viewBox="0 0 391.518 336.784">
  <defs>
    <linearGradient id="linear-gradient" x1="0.5" x2="0.5" y2="1" gradientUnits="objectBoundingBox">
      <stop offset="0" stop-color="#fff"/>
      <stop offset="1" stop-color="#d3d3d3"/>
    </linearGradient>
    <linearGradient id="linear-gradient-3" x1="0.5" x2="0.5" y2="1" gradientUnits="objectBoundingBox">
      <stop offset="0" stop-color="#fff"/>
      <stop offset="1" stop-color="#d2e6ee"/>
    </linearGradient>
  </defs>
  <g id="Grupo_46132" data-name="Grupo 46132" transform="translate(-103.362 -31.308)">
    <g id="Grupo_46099" data-name="Grupo 46099" transform="translate(142.179 148.13)">
      <path id="Trazado_96006" data-name="Trazado 96006" d="M118.321,58.188l5.093,6.875c-1.372,2.063,9.24-10.934,9.24-10.934l3.732,1.638L129.465,67.5a4.5,4.5,0,0,1-7.453.292l-7.484-.235-3.583-7.254C111.948,61.106,117.7,57.031,118.321,58.188Z" transform="translate(-110.945 -54.129)" fill="#00223d" fill-rule="evenodd"/>
      <path id="Trazado_96007" data-name="Trazado 96007" d="M112.841,55.664l-.051,8.968C111.3,60.629,112.841,55.664,112.841,55.664Z" transform="translate(-106.028 -47.806)" fill="#191e7f" fill-rule="evenodd"/>
    </g>
    <g id="Grupo_46100" data-name="Grupo 46100" transform="translate(305.96 40.955)">
      <path id="Trazado_96008" data-name="Trazado 96008" d="M200.84,33.192a57.9,57.9,0,1,1-57.9,57.9,57.926,57.926,0,0,1,57.9-57.9Zm0,17.082a40.816,40.816,0,1,1-40.813,40.819A40.815,40.815,0,0,1,200.84,50.274Z" transform="translate(-142.94 -33.192)" fill-rule="evenodd" fill="url(#linear-gradient)"/>
      <path id="Trazado_96009" data-name="Trazado 96009" d="M187.091,36.529a40.816,40.816,0,1,1-40.813,40.819,40.815,40.815,0,0,1,40.813-40.819Zm0,13.447a27.448,27.448,0,1,1-27.366,27.371,27.416,27.416,0,0,1,27.366-27.371Z" transform="translate(-129.191 -19.447)" fill="#00223d" fill-rule="evenodd"/>
      <path id="Trazado_96010" data-name="Trazado 96010" d="M176.271,39.156a27.448,27.448,0,1,1-27.366,27.371,27.416,27.416,0,0,1,27.366-27.371Zm0,11.39a15.979,15.979,0,1,1-15.976,15.981,15.937,15.937,0,0,1,15.976-15.981Z" transform="translate(-118.37 -8.627)" fill-rule="evenodd" fill="url(#linear-gradient)"/>
      <path id="Trazado_96011" data-name="Trazado 96011" d="M167.106,73.339A15.979,15.979,0,1,0,151.13,57.362a15.936,15.936,0,0,0,15.976,15.976Z" transform="translate(-109.206 0.538)" fill="#00223d" fill-rule="evenodd"/>
      <path id="Trazado_96012" data-name="Trazado 96012" d="M161.949,63.612l51.1-10.757,2.848-6.8,20.407-6.8-6.486,12.023,10.441,8.385-21.673,1.265-4.746-3.48-51.414,8.226L164,69.148l-10.124-2.215,7.91-8.543Z" transform="translate(-97.876 -8.244)" fill="#00223d" fill-rule="evenodd"/>
    </g>
    <path id="Trazado_96013" data-name="Trazado 96013" d="M183.078,36.645l1.525,8.2,11.8-2.194L172.093,66.509,158.876,53.045l-32.039,33.3,6.011,5.784,26.088-27.112,13.046,13.291L204,46.887l.456,12.523,8.339-.3-1.013-27.8Z" transform="translate(96.694 0)" fill="#f6c343"/>
    <g id="Grupo_46108" data-name="Grupo 46108" transform="translate(417.338 108.663)">
      <g id="Grupo_46103" data-name="Grupo 46103" transform="translate(0 33.621)">
        <g id="Grupo_46101" data-name="Grupo 46101">
          <path id="Trazado_96014" data-name="Trazado 96014" d="M210.39,75.633c1.28-.6,2.411-1.147,3.4-1.633-.3-1.07-.594-2.135-.891-3.2-.317-1.06-.619-2.129-.916-3.2-1.111.123-2.35.256-3.762.415l-2.836.322a18,18,0,0,0-3.6-4.418l.932-2.759c.466-1.331.865-2.519,1.239-3.573-.973-.537-1.945-1.075-2.913-1.6-.973-.537-1.966-1.07-2.938-1.612-.686.886-1.459,1.858-2.329,2.979l-1.833,2.329a18.167,18.167,0,0,0-4.965-.584l-1.208-2.667c-.584-1.285-1.09-2.421-1.561-3.445-1.075.276-2.15.558-3.22.834s-2.15.558-3.22.834c.1,1.121.194,2.365.333,3.768l.256,2.913a18.728,18.728,0,0,0-4.064,2.949l-2.616-1.09c-1.31-.553-2.457-1.029-3.507-1.464-.589.942-1.177,1.889-1.766,2.81l-1.766,2.831c.84.742,1.766,1.587,2.8,2.524l2.084,1.853a18.607,18.607,0,0,0-1,6.655l-2.411,1.147c-1.28.6-2.411,1.147-3.414,1.612.3,1.07.6,2.14.916,3.2.3,1.07.594,2.135.891,3.2,1.116-.123,2.37-.261,3.773-.394l2.575-.276a18.462,18.462,0,0,0,3.788,4.807l-.819,2.319c-.466,1.326-.865,2.513-1.239,3.568.973.538,1.94,1.06,2.913,1.6s1.95,1.075,2.933,1.592c.691-.865,1.479-1.843,2.339-2.938l1.541-1.94a17.924,17.924,0,0,0,5.416.655l1,2.237c.563,1.3,1.085,2.426,1.536,3.435,1.075-.282,2.145-.558,3.22-.834s2.145-.558,3.22-.834c-.1-1.1-.194-2.344-.307-3.752l-.215-2.508a18.973,18.973,0,0,0,4.361-3.256l2.329.957c1.31.538,2.452,1.008,3.5,1.423.594-.921,1.182-1.868,1.771-2.81s1.177-1.868,1.766-2.81c-.84-.742-1.766-1.587-2.821-2.519l-1.991-1.751a18.168,18.168,0,0,0,.855-6.721ZM192.2,88.968a11.743,11.743,0,1,1,8.416-14.318A11.749,11.749,0,0,1,192.2,88.968Z" transform="translate(-164.698 -52.987)" fill="#f6c343"/>
        </g>
        <g id="Grupo_46102" data-name="Grupo 46102" transform="translate(10.174 10.194)">
          <path id="Trazado_96015" data-name="Trazado 96015" d="M178.974,83.617a14.4,14.4,0,1,1,16.35-12.132A14.418,14.418,0,0,1,178.974,83.617Zm3.87-26.1a11.99,11.99,0,1,0,10.1,13.616A12.005,12.005,0,0,0,182.844,57.515Z" transform="translate(-166.685 -54.978)" fill="#00223d"/>
        </g>
      </g>
      <g id="Grupo_46105" data-name="Grupo 46105" transform="translate(14.072)">
        <path id="Trazado_96016" data-name="Trazado 96016" d="M197.029,58c.722-.609,1.351-1.152,1.915-1.638-.379-.635-.753-1.269-1.126-1.909-.389-.63-.763-1.264-1.136-1.9-.7.271-1.469.568-2.355.916l-1.766.691a12.123,12.123,0,0,0-3.077-2.227l.123-1.94c.072-.932.128-1.766.184-2.508-.717-.179-1.438-.358-2.15-.527s-1.449-.353-2.165-.537c-.292.691-.619,1.449-.988,2.319L183.7,50.55a11.985,11.985,0,0,0-3.292.476l-1.239-1.51c-.594-.727-1.116-1.372-1.6-1.95-.64.363-1.285.727-1.93,1.09l-1.925,1.09c.256.7.527,1.485.855,2.365l.665,1.833a12.623,12.623,0,0,0-2.114,2.6l-1.868-.256c-.937-.133-1.756-.241-2.508-.343-.215.712-.43,1.418-.655,2.114-.215.712-.435,1.418-.65,2.124q1,.5,2.232,1.147l1.664.834a12.236,12.236,0,0,0,.5,4.453l-1.357,1.152c-.722.609-1.357,1.152-1.92,1.628.374.635.747,1.269,1.136,1.9.374.64.747,1.275,1.121,1.909.7-.266,1.484-.573,2.36-.9l1.612-.614a12.391,12.391,0,0,0,3.261,2.442l-.128,1.633c-.072.937-.128,1.766-.184,2.508.717.179,1.428.348,2.15.532s1.433.358,2.16.522c.3-.681.635-1.444,1-2.293l.655-1.515a11.854,11.854,0,0,0,3.6-.507l1.029,1.27c.584.737,1.116,1.377,1.577,1.95l1.93-1.09,1.93-1.09c-.251-.691-.527-1.474-.845-2.36l-.563-1.577a12.837,12.837,0,0,0,2.247-2.846l1.664.215c.932.123,1.751.23,2.493.322.225-.7.44-1.408.66-2.114s.44-1.408.655-2.114c-.665-.333-1.408-.717-2.247-1.136l-1.582-.788a12.092,12.092,0,0,0-.6-4.474Zm-9.424,11.7a7.822,7.822,0,1,1,2.964-10.658A7.821,7.821,0,0,1,187.605,69.7Z" transform="translate(-167.447 -46.419)" fill="#00223d"/>
        <g id="Grupo_46104" data-name="Grupo 46104" transform="translate(6.726 6.86)">
          <path id="Trazado_96017" data-name="Trazado 96017" d="M179.434,66.883a9.592,9.592,0,1,1,8.451-10.612A9.608,9.608,0,0,1,179.434,66.883Zm-1.981-17.471a7.99,7.99,0,1,0,8.84,7.039A8,8,0,0,0,177.453,49.412Z" transform="translate(-168.761 -47.759)" fill="#f6c343"/>
        </g>
      </g>
      <g id="Grupo_46107" data-name="Grupo 46107" transform="translate(44.212 19.058)">
        <path id="Trazado_96018" data-name="Trazado 96018" d="M203.982,62.806q1.167-.875,2.073-1.566c-.348-.681-.691-1.362-1.039-2.042s-.706-1.351-1.055-2.032c-.732.235-1.551.491-2.483.793l-1.868.6a12.444,12.444,0,0,0-3.036-2.488l.251-1.991c.133-.957.241-1.817.348-2.58-.732-.23-1.464-.461-2.186-.676-.727-.23-1.474-.456-2.2-.686-.343.691-.727,1.449-1.167,2.329l-.916,1.822a12.491,12.491,0,0,0-3.43.282l-1.182-1.633c-.568-.788-1.065-1.485-1.52-2.114l-2.058,1q-1.029.507-2.058,1c.22.742.456,1.572.737,2.5l.568,1.93a12.94,12.94,0,0,0-2.339,2.544l-1.915-.379c-.957-.195-1.792-.358-2.559-.507-.271.717-.538,1.433-.814,2.14l-.8,2.15c.665.384,1.4.829,2.232,1.321l1.659.962a12.846,12.846,0,0,0,.235,4.628l-1.469,1.106c-.783.578-1.469,1.1-2.083,1.551.348.681.7,1.362,1.054,2.037s.691,1.357,1.039,2.037c.737-.235,1.566-.5,2.493-.783l1.7-.537a12.767,12.767,0,0,0,3.21,2.728l-.23,1.674c-.133.957-.241,1.812-.348,2.575.727.235,1.454.45,2.181.681s1.464.461,2.2.676c.348-.681.747-1.449,1.177-2.3l.773-1.52a12.364,12.364,0,0,0,3.747-.3l.978,1.372c.558.793,1.065,1.49,1.5,2.109.686-.338,1.372-.671,2.058-1s1.372-.671,2.058-1c-.215-.732-.45-1.556-.722-2.493l-.486-1.659a13.173,13.173,0,0,0,2.5-2.795l1.7.328c.952.184,1.792.348,2.554.486.271-.706.537-1.423.809-2.14s.543-1.423.809-2.14c-.665-.384-1.408-.829-2.247-1.316l-1.587-.906a12.361,12.361,0,0,0-.338-4.653ZM193.534,74.288a8.085,8.085,0,1,1,3.721-10.811A8.086,8.086,0,0,1,193.534,74.288Z" transform="translate(-173.335 -50.142)" fill="#00223d"/>
        <g id="Grupo_46106" data-name="Grupo 46106" transform="translate(6.753 6.948)">
          <path id="Trazado_96019" data-name="Trazado 96019" d="M185.085,71.308a9.911,9.911,0,1,1,9.378-10.417A9.919,9.919,0,0,1,185.085,71.308Zm-.957-18.142a8.256,8.256,0,1,0,8.677,7.812A8.265,8.265,0,0,0,184.128,53.167Z" transform="translate(-174.654 -51.499)" fill="#f6c343"/>
        </g>
      </g>
    </g>
    <g id="Grupo_46109" data-name="Grupo 46109" transform="translate(151.802 81.725)">
      <path id="Trazado_96020" data-name="Trazado 96020" d="M155.992,42.319c55.459,39,124.7,79.456,191.29,87.657,0,0,8.728,11.149-.578,46.229-9.276,34.962-20.445,41.2-20.445,41.2-63.035-22.974-143.1-18.423-210.23-8.9Z" transform="translate(-99.631 -36.369)" fill="#00223d" fill-rule="evenodd"/>
      <path id="Trazado_96021" data-name="Trazado 96021" d="M156.846,41.19l8.088,1.945c12.541,3.015,13.325,44.612,1.684,93.017-11.615,48.282-31.251,85.092-43.793,82.077l-8.083-1.945c12.536,3.015,32.178-33.8,43.788-82.077,11.641-48.4,10.857-90-1.684-93.017Z" transform="translate(-104.924 -41.02)" fill="#dba50e" fill-rule="evenodd"/>
      <path id="Trazado_96022" data-name="Trazado 96022" d="M121.077,123.435c11.641-48.4,31.246-85.1,43.67-82.108,12.541,3.015,13.325,44.612,1.684,93.016-11.61,48.282-31.251,85.092-43.788,82.077-12.424-2.989-13.181-44.7-1.566-92.986ZM126,124.618c9.839-40.9,25.784-72.152,35.51-69.812,9.844,2.365,9.721,37.425-.113,78.325s-25.666,72.182-35.51,69.812c-9.726-2.339-9.721-37.42.113-78.325Z" transform="translate(-112.825 -41.157)" fill="#f6c343" fill-rule="evenodd"/>
      <path id="Trazado_96023" data-name="Trazado 96023" d="M121.345,113.734c9.839-40.9,25.784-72.152,35.51-69.812,9.844,2.365,9.721,37.425-.113,78.325s-25.666,72.182-35.51,69.812c-9.726-2.339-9.721-37.42.113-78.325Z" transform="translate(-108.174 -30.273)" fill="#dba50e" fill-rule="evenodd"/>
      <path id="Trazado_96024" data-name="Trazado 96024" d="M116.66,105.905q3.087-12.838,6.173-25.666c2.083-8.672,4.141-17.23,6.225-25.9,3.419-.292,7.187-.5,11.221-.773l11.364-.865A285.6,285.6,0,0,1,145.6,85.588a293.255,293.255,0,0,1-9.68,32.51l-9.793-6.2c-3.44-2.191-6.557-4.177-9.465-5.994Z" transform="translate(-97.028 6.385)" fill="#00223d" fill-rule="evenodd"/>
      <path id="Trazado_96025" data-name="Trazado 96025" d="M118.745,77.345c3.409-14.18,8.892-25.134,12.408-24.289,3.4.819,3.425,13.094.01,27.279s-9.009,25.1-12.408,24.289c-3.517-.845-3.425-13.1-.01-27.279Z" transform="translate(-99.124 7.667)" fill="#0c2c46" fill-rule="evenodd"/>
      <path id="Trazado_96026" data-name="Trazado 96026" d="M179.536,59.449a29.3,29.3,0,0,1,3.22.522c20.747,4.991,32.771,28.712,26.936,52.971s-27.33,39.918-48.072,34.932a35.364,35.364,0,0,1-4.837-1.536c.584.138,1.024.369,1.613.512,0,0,11.17-6.24,20.445-41.2,8.907-33.939,1.142-45.472.7-46.2Z" transform="translate(68.232 34.188)" fill="#f6c343" fill-rule="evenodd"/>
      <path id="Trazado_96027" data-name="Trazado 96027" d="M141.439,69.129,239.18,92.635c2.58.619,1.177,10.571-2.042,13.145L136.832,90.337c3.732-4.684,6.2-15.49,4.607-21.208Z" transform="translate(-13.941 74.06)" fill="#dba50e" fill-rule="evenodd"/>
      <path id="Trazado_96028" data-name="Trazado 96028" d="M160.076,74.492c2.355,21.146-13.3,75.4-19.078,89.633l43.721,7.914S205,105.257,196.411,80.128Z" transform="translate(3.219 96.15)" fill="#dba50e" fill-rule="evenodd"/>
      <path id="Trazado_96029" data-name="Trazado 96029" d="M143.064,164.781l33.145,5.989s20.276-66.782,11.692-91.911L161.728,74.8c2.841,20.148-12.751,74.665-18.664,89.981Z" transform="translate(11.729 97.418)" fill="#f6c343" fill-rule="evenodd"/>
    </g>
    <g id="Grupo_46125" data-name="Grupo 46125" transform="translate(269.906 86.674)">
      <g id="Grupo_46121" data-name="Grupo 46121">
        <g id="Grupo_46110" data-name="Grupo 46110" transform="translate(50.99)">
          <rect id="Rectángulo_28267" data-name="Rectángulo 28267" width="1.749" height="19.259" fill="#f6c343"/>
        </g>
        <g id="Grupo_46115" data-name="Grupo 46115" transform="translate(61.261 3.197)">
          <g id="Grupo_46111" data-name="Grupo 46111" transform="translate(0 0)">
            <rect id="Rectángulo_28268" data-name="Rectángulo 28268" width="18.608" height="1.75" transform="translate(0 17.328) rotate(-68.628)" fill="#f6c343"/>
          </g>
          <g id="Grupo_46112" data-name="Grupo 46112" transform="translate(9.182 8.404)">
            <rect id="Rectángulo_28269" data-name="Rectángulo 28269" width="18.637" height="1.748" transform="translate(0 13.931) rotate(-48.371)" fill="#f6c343"/>
          </g>
          <g id="Grupo_46113" data-name="Grupo 46113" transform="translate(16.722 22.125)">
            <rect id="Rectángulo_28270" data-name="Rectángulo 28270" width="17.463" height="1.747" transform="translate(0 7.1) rotate(-23.99)" fill="#f6c343"/>
          </g>
          <g id="Grupo_46114" data-name="Grupo 46114" transform="translate(24.246 39.549)">
            <rect id="Rectángulo_28271" data-name="Rectángulo 28271" width="1.748" height="16.128" transform="matrix(0.066, -0.998, 0.998, 0.066, 0, 1.744)" fill="#f9c61e"/>
          </g>
        </g>
        <g id="Grupo_46120" data-name="Grupo 46120" transform="translate(0 2.055)">
          <g id="Grupo_46116" data-name="Grupo 46116" transform="translate(33.81 0)">
            <rect id="Rectángulo_28272" data-name="Rectángulo 28272" width="1.75" height="18.547" transform="translate(0 0.6) rotate(-20.06)" fill="#f6c343"/>
          </g>
          <g id="Grupo_46117" data-name="Grupo 46117" transform="translate(16.87 6.977)">
            <rect id="Rectángulo_28273" data-name="Rectángulo 28273" width="1.748" height="21.141" transform="translate(0 1.196) rotate(-43.167)" fill="#f6c343"/>
          </g>
          <g id="Grupo_46118" data-name="Grupo 46118" transform="translate(6.459 21.32)">
            <rect id="Rectángulo_28274" data-name="Rectángulo 28274" width="1.747" height="19.617" transform="translate(0 1.596) rotate(-65.975)" fill="#f6c343"/>
          </g>
          <g id="Grupo_46119" data-name="Grupo 46119" transform="translate(0 39.622)">
            <path id="Trazado_96030" data-name="Trazado 96030" d="M136,53.079l-.105-1.746,17.455-1.067.1,1.747Z" transform="translate(-135.897 -50.265)" fill="#f6c343"/>
          </g>
        </g>
      </g>
      <g id="Grupo_46124" data-name="Grupo 46124" transform="translate(18.741 22.601)">
        <path id="Trazado_96031" data-name="Trazado 96031" d="M165.724,66.009c-1.884,3.512-6.158,5.871-11.129,5.82-5.052-.051-9.276-2.5-11.006-6.045Z" transform="translate(-122.95 32.732)" fill="url(#linear-gradient-3)"/>
        <path id="Trazado_96032" data-name="Trazado 96032" d="M188.27,129.222s-.758-4.576.624-14.026,22.959-25.83,12.634-51.036c-9.547-23.358-47.959-23.429-58.781-.6-11.144,23.383,10.4,41.806,11.584,51.282s.338,14.041.338,14.041Z" transform="translate(-139.558 -46.539)" fill="#f6c343"/>
        <path id="Trazado_96033" data-name="Trazado 96033" d="M142.962,62.627l29.992.307-.138,12.992a3.13,3.13,0,0,1-3.158,3.1l-23.737-.246a3.075,3.075,0,0,1-3.092-3.158Z" transform="translate(-126.085 19.729)" fill="url(#linear-gradient-3)"/>
        <path id="Trazado_96034" data-name="Trazado 96034" d="M144.3,63l29.828.307a1.649,1.649,0,0,1,1.669,1.7h0a1.713,1.713,0,0,1-1.7,1.746l-29.828-.307a1.779,1.779,0,0,1-1.746-1.781h0A1.718,1.718,0,0,1,144.3,63Z" transform="translate(-127.362 21.278)" fill="#00223d"/>
        <path id="Trazado_96035" data-name="Trazado 96035" d="M144.29,64.006l29.833.307a1.64,1.64,0,0,1,1.664,1.7h0a1.709,1.709,0,0,1-1.7,1.746l-29.833-.3a1.783,1.783,0,0,1-1.746-1.787h0a1.711,1.711,0,0,1,1.781-1.664Z" transform="translate(-127.407 25.409)" fill="#00223d"/>
        <path id="Trazado_96036" data-name="Trazado 96036" d="M144.281,64.946l29.828.307a1.7,1.7,0,0,1,1.669,1.7h0a1.713,1.713,0,0,1-1.7,1.746l-29.828-.307A1.775,1.775,0,0,1,142.5,66.61h0a1.766,1.766,0,0,1,1.781-1.664Z" transform="translate(-127.444 29.281)" fill="#00223d"/>
        <path id="Trazado_96037" data-name="Trazado 96037" d="M169.906,59.45c-1.055-3.384-4.259-4.208-6.665-3.88-2.7.363-4.643,2.037-4.715,4.039-.046.814-.087,3.1-.128,6.127l-.957-.01-1.52-.015-.911-.01c.026-3.02.041-5.308.031-6.122-.077-2.053-2.048-3.757-4.781-4.157-2.4-.338-5.564.44-6.67,3.762-1.551,4.643,1.853,7.571,3.87,8.472l5.411.143c-.1,9.823-.292,24.709-.292,24.919l2.119.026c.015-.855.2-15.285.292-24.924l.906.01,1.525.015.952.01c-.107,9.639-.179,24.074-.184,24.929l2.119.01c.005-.21.077-15.091.189-24.914l4.94.046.425-.082C167.894,66.985,171.36,64.123,169.906,59.45ZM148.14,65.628a4.692,4.692,0,0,1-2.539-5.774c.691-2.083,2.708-2.559,4.356-2.329,1.623.23,2.923,1.167,2.959,2.1.01.788-.005,3.051-.026,6.051Zm17.082.174-4.7-.046c.036-2.995.082-5.257.128-6.051.031-.942,1.264-1.817,2.872-2.032a3.7,3.7,0,0,1,4.361,2.411A4.666,4.666,0,0,1,165.222,65.8Z" transform="translate(-124.572 -10.249)" fill="#00223d"/>
        <g id="Grupo_46122" data-name="Grupo 46122" transform="translate(56.8 26.375)">
          <path id="Trazado_96038" data-name="Trazado 96038" d="M153.357,59.011l-2.7-.84a23.753,23.753,0,0,0,.824-6.46l2.831-.02A26.34,26.34,0,0,1,153.357,59.011Z" transform="translate(-150.654 -51.691)" fill="#f9eff4"/>
        </g>
        <g id="Grupo_46123" data-name="Grupo 46123" transform="translate(43.516 5.203)">
          <path id="Trazado_96039" data-name="Trazado 96039" d="M161.189,62.518a16.434,16.434,0,0,0-1.157-2.672c-3.844-7.059-11.891-9.557-11.973-9.583l.819-2.708c.374.113,9.245,2.872,13.637,10.934a19.029,19.029,0,0,1,1.357,3.133Z" transform="translate(-148.059 -47.555)" fill="#f9eff4"/>
        </g>
      </g>
    </g>
    <g id="Grupo_46126" data-name="Grupo 46126" transform="translate(331.315 214.819)">
      <path id="Trazado_96040" data-name="Trazado 96040" d="M164.21,78.412l-.65,83.081-5.964.143s-3.773-21.157-3.773-30.729,2.4-15.475,2.4-15.475l-4.279-32.009s1.377-1.863,2.646-3.67c.154-.01.307-.015.456-.031a89.2,89.2,0,0,0,9.163-1.31Z" transform="translate(-131.204 -20.798)" fill="#7d6eb2" fill-rule="evenodd"/>
      <path id="Trazado_96041" data-name="Trazado 96041" d="M175.1,79.2,166.989,91.73l-12.178,70.022-5.953.143c-.363-8.513-1.531-41.11,6.363-46.6l-.051-5.18h0c-.389-7.689-.809-21.628.778-28.717l2.611-3.046a22.448,22.448,0,0,0,10.35,1.633c2.519-.251,4.638-.537,6.194-.783Z" transform="translate(-145.066 -21.057)" fill="#7d6eb2" fill-rule="evenodd"/>
      <path id="Trazado_96042" data-name="Trazado 96042" d="M167.39,101.512l-11.231-.01-2.693-1.136-.256,1.147h-4.228l-.348-6.726,5.953-.143s8.134,4.423,11.088,4.285,1.715,2.585,1.715,2.585Z" transform="translate(-144.842 46.053)" fill="#00223d" fill-rule="evenodd"/>
      <path id="Trazado_96043" data-name="Trazado 96043" d="M171.815,101.512l-11.226-.01-2.7-1.136-.246,1.147h-4.228l-.363-6.726,5.964-.143s8.139,4.423,11.088,4.285,1.715,2.585,1.715,2.585Z" transform="translate(-126.657 46.053)" fill="#00223d" fill-rule="evenodd"/>
      <path id="Trazado_96044" data-name="Trazado 96044" d="M208.178,74.354,193.922,85.493a3.9,3.9,0,0,1-4.448.241l-8.185-5.063-2.053-.589v-.005l-6.2-1.781-1.111-1.136h-2.933L168,78.178l-5.856,1.679a10.415,10.415,0,0,0-1.331,1.474l2.862-8.062-3.133-3.379L148.158,96.913a2.87,2.87,0,0,0,2.913,4.049l7.5-4.883-.241,22.559c7.295,4.689,18.556,2.826,22.523-.036q.653-13.714,1.321-27.412l8.3,3.547a3.9,3.9,0,0,0,4.233-.778l16-15.423Z" transform="translate(-147.893 -55.9)" fill-rule="evenodd" fill="url(#linear-gradient-3)"/>
      <path id="Trazado_96045" data-name="Trazado 96045" d="M151.75,69.418c.845-.3,1.914.532,2.391,1.868s.174,2.662-.676,2.964-1.915-.532-2.385-1.868-.179-2.662.671-2.964Z" transform="translate(-135.713 -58.09)" fill="#fc9" stroke="#ff0" stroke-miterlimit="10" stroke-width="0.198" fill-rule="evenodd"/>
      <path id="Trazado_96046" data-name="Trazado 96046" d="M150.461,69.407l.553-.328a.374.374,0,0,1,.5.138l4.315,7.335a.372.372,0,0,1-.128.507l-.553.317a.366.366,0,0,1-.5-.128l-4.315-7.335a.372.372,0,0,1,.128-.507Z" transform="translate(-138.054 -59.425)" fill-rule="evenodd"/>
      <path id="Trazado_96047" data-name="Trazado 96047" d="M155.283,69.272c.891.128,1.454,1.362,1.264,2.764s-1.07,2.437-1.966,2.319S153.128,73,153.317,71.6s1.07-2.442,1.966-2.324Z" transform="translate(-125.702 -58.481)" fill="#ffb699" fill-rule="evenodd"/>
      <path id="Trazado_96048" data-name="Trazado 96048" d="M159.651,74.275a9.815,9.815,0,0,1,2.181-2.8,8.435,8.435,0,0,1,4.059-1.495.989.989,0,0,1-.22,1.106,5.932,5.932,0,0,1-1.822,1.1,4.47,4.47,0,0,0,2.314-.425c1.73-.614,3.609-2.058,4.254-1.1s-.087,3.189-2.181,4.587a43.1,43.1,0,0,1-5.948,2.918Z" transform="translate(-99.463 -55.529)" fill="#ffb699" fill-rule="evenodd"/>
      <path id="Trazado_96049" data-name="Trazado 96049" d="M151.68,70.411h6.46V76.39a3.233,3.233,0,0,1-3.23,3.23h0a3.237,3.237,0,0,1-3.23-3.23Z" transform="translate(-132.296 -53.754)" fill="#f49e7f" fill-rule="evenodd"/>
      <path id="Trazado_96050" data-name="Trazado 96050" d="M158.1,86.4c3.916,0,7.11-4.285,7.11-9.526s-3.194-9.526-7.11-9.526-7.11,4.274-7.11,9.526,3.189,9.526,7.11,9.526Z" transform="translate(-135.121 -66.37)" fill="#ffb699" fill-rule="evenodd"/>
      <path id="Trazado_96051" data-name="Trazado 96051" d="M153.818,74.129s2.222,1.3,6.834,1.4a10.771,10.771,0,0,0,7.689-3.409s-3.071-4.515-7.94-4.94-8.1,4.515-8.1,4.515a2.3,2.3,0,0,0-1.515,2.36c-.067,2.012,1.838,6.2,1.838,6.2L153,76.981a4.069,4.069,0,0,0,1.019-1.372,3.123,3.123,0,0,0-.2-1.479Z" transform="translate(-136 -67.157)" fill-rule="evenodd" fill="url(#linear-gradient-3)"/>
      <path id="Trazado_96052" data-name="Trazado 96052" d="M153.771,70.476s-.169.1-.5.241c.184-.5.5-.241.5-.241Zm1.51-2.431a2.3,2.3,0,0,1,1.52,2.36c.072,2.012-1.838,6.2-1.838,6.2l-.384-3.276a4.205,4.205,0,0,1-1.024-1.372,3.149,3.149,0,0,1,.215-1.479Z" transform="translate(-125.73 -63.503)" fill-rule="evenodd" fill="url(#linear-gradient-3)"/>
      <path id="Trazado_96053" data-name="Trazado 96053" d="M150.209,77.084a8.183,8.183,0,0,0,.8-2.59c-.118-1.275.067-4.663,1.689-5.2,1.659-.553,3.829,3.435,2.263,4.4-.021-.02-.451-.814-.522-.732-.056-.036-.1.072-.072.543a4.711,4.711,0,0,1-.614,3.107,8.759,8.759,0,0,1-1.725,1.408Z" transform="translate(-138.355 -58.574)" fill="#ffb699" fill-rule="evenodd"/>
    </g>
    <g id="Grupo_46127" data-name="Grupo 46127" transform="translate(391.502 211.994)">
      <path id="Trazado_96054" data-name="Trazado 96054" d="M170.565,77.3a9.781,9.781,0,0,0-2.16-2.774,8.369,8.369,0,0,0-4.039-1.484.99.99,0,0,0,.225,1.1,5.871,5.871,0,0,0,1.807,1.08,4.276,4.276,0,0,1-2.293-.415c-1.72-.609-3.578-2.037-4.228-1.085s.092,3.164,2.165,4.551a42.167,42.167,0,0,0,5.9,2.9Z" transform="translate(-159.651 -40.112)" fill="#ffbd99" fill-rule="evenodd"/>
      <path id="Trazado_96055" data-name="Trazado 96055" d="M166.6,78.559l.645,82.492,5.918.143s2.693-22.37,2.693-31.881-1.9-14.205-1.9-14.205l4.817-31.574s-1.362-1.848-2.626-3.634c-.148-.015-.3-.026-.45-.041a88.286,88.286,0,0,1-9.1-1.3Z" transform="translate(-131.011 -17.367)" fill="#00223d" fill-rule="evenodd"/>
      <path id="Trazado_96056" data-name="Trazado 96056" d="M167.181,79.337l8.047,12.444,12.091,69.526,5.923.143s1.136-27-1.659-36.759-4.31-10.914-4.31-10.914,1.162-22.216-1.08-32.249l-2.6-3.03a22.28,22.28,0,0,1-10.274,1.618c-2.5-.246-4.6-.532-6.143-.778Z" transform="translate(-128.634 -17.622)" fill="#00223d" fill-rule="evenodd"/>
      <path id="Trazado_96057" data-name="Trazado 96057" d="M200.207,70.688l8.549,2.38a8.03,8.03,0,0,1,5.4,4.981l7.8,21.233a5.639,5.639,0,0,1-1.121,5.733l-8.8,9.7-3.486-4.054s-6.5,7.105-12.05,6.568-7.32-1.894-7.32-1.894l-1.239-21.694-2.462,4.643a5.287,5.287,0,0,1-7.274,2.129L161.124,90.78l2.723-4.94,11.958,5.928A3.419,3.419,0,0,0,180.52,89.9L184.3,79.759a8.046,8.046,0,0,1,3.65-4.233l6.946-3.839Zm9.961,17.435,4.157,10.089a5.63,5.63,0,0,1-1.029,5.928l-3,3.322Z" transform="translate(-153.583 -49.787)" fill="#26aab7" fill-rule="evenodd"/>
      <path id="Trazado_96058" data-name="Trazado 96058" d="M172.126,78.536c-.4.266-.906.614-1.213.845-.558.415-.906.686-.906.686a5.791,5.791,0,0,0,3.015,3.814,14.993,14.993,0,0,0,1.9-2.094Z" transform="translate(-116.994 -17.462)" fill="#ffbd99" fill-rule="evenodd"/>
      <path id="Trazado_96059" data-name="Trazado 96059" d="M174.111,69.834h-6.389V75.2a3.206,3.206,0,0,0,3.2,3.194h0a3.2,3.2,0,0,0,3.189-3.194Z" transform="translate(-126.406 -53.305)" fill="#eda27c" fill-rule="evenodd"/>
      <path id="Trazado_96060" data-name="Trazado 96060" d="M173.1,66.954c-3.711.133-6.578,4.075-6.394,8.8s1.1,9.142,6.649,9.506,6.952-5.283,6.778-10.008-3.327-8.441-7.033-8.3Z" transform="translate(-130.639 -65.183)" fill="#ffbd99" fill-rule="evenodd"/>
      <path id="Trazado_96061" data-name="Trazado 96061" d="M183.309,70.158a4.146,4.146,0,0,0-3.389-3.45c-3.03-.543-14.164,1.249-14.164,1.249s1.684,6,5.774,6.767a26.1,26.1,0,0,0,9.219-.481,13.2,13.2,0,0,0,.481,4.689,13.32,13.32,0,0,0,2.022,3.286s2.851-4.515,2.278-8.149-2.222-3.911-2.222-3.911Z" transform="translate(-134.504 -66.605)" fill="#00223d" fill-rule="evenodd"/>
      <path id="Trazado_96062" data-name="Trazado 96062" d="M168.81,101.73l11.226-.01,2.693-1.136.256,1.147h4.228l.358-6.721-5.959-.143s-8.134,4.418-11.083,4.279-1.72,2.585-1.72,2.585Z" transform="translate(-122.964 49.797)" fill="#26aab7" fill-rule="evenodd"/>
      <path id="Trazado_96063" data-name="Trazado 96063" d="M164.452,101.487l11.139-.005,2.682-1.126.246,1.131h4.2l.353-6.67-5.918-.143s-8.078,4.387-11,4.254-1.7,2.559-1.7,2.559Z" transform="translate(-140.919 49.01)" fill="#26aab7" fill-rule="evenodd"/>
    </g>
    <path id="Trazado_96064" data-name="Trazado 96064" d="M179.527,74.141c-2.15,5.83-4.3,11.543-6.4,17.292-2.508-1.889-5.011-3.7-7.479-5.513s-4.924-3.624-7.341-5.4c2.058-5.672,4.121-11.349,6.225-17.1-.537-.358-1.029-.752-1.566-1.106Q147.244,105.4,132.2,146.507q-14.7,40.3-28.835,78.832c.491.435.942.865,1.387,1.3q2.081-5.674,4.167-11.349c2.191,2.012,4.387,4.059,6.624,6.071,2.2,2.048,4.433,4.136,6.675,6.184-1.433,3.86-2.867,7.684-4.254,11.461.445.435.937.906,1.433,1.341q14.574-39,29.818-79.738,15.649-41.655,31.973-85.287c-.538-.394-1.075-.788-1.659-1.182Zm-56.416,151.04c-2.242-2.048-4.479-4.136-6.716-6.143-2.2-2.053-4.433-4.1-6.629-6.107q1.682-4.492,3.358-9.1c2.2,2.012,4.433,4.018,6.67,6.066,2.242,2.012,4.479,4.059,6.762,6.107-1.162,3.071-2.283,6.148-3.445,9.178Zm4.341-11.543c-2.283-2.048-4.52-4.1-6.8-6.143-2.2-2.012-4.433-4.018-6.675-6.03,1.121-3.03,2.242-6.107,3.358-9.178,2.242,2.012,4.479,3.977,6.762,5.989,2.237,2.007,4.525,4.059,6.808,6.066-1.167,3.112-2.329,6.184-3.45,9.3Zm4.346-11.7c-2.288-2.053-4.571-4.059-6.808-6.071-2.283-2.007-4.52-3.977-6.762-5.984,1.121-3.077,2.242-6.148,3.4-9.26,2.237,1.93,4.52,3.942,6.808,5.907,2.283,2.012,4.566,3.983,6.9,6.03-1.213,3.112-2.375,6.266-3.537,9.378Zm4.433-11.82c-2.329-2.012-4.612-4.018-6.9-5.989s-4.566-3.977-6.849-5.907c1.167-3.112,2.283-6.266,3.45-9.378,2.283,1.93,4.566,3.9,6.849,5.871,2.329,1.971,4.658,3.977,6.987,5.948-1.213,3.189-2.375,6.342-3.537,9.455Zm4.433-11.9c-2.329-2.012-4.658-3.983-6.941-5.953-2.329-1.966-4.612-3.937-6.9-5.866,1.162-3.112,2.329-6.3,3.445-9.455,2.329,1.93,4.612,3.86,6.941,5.79,2.329,1.971,4.658,3.942,7.028,5.912-1.208,3.189-2.37,6.378-3.578,9.572Zm4.52-12.055c-2.375-1.971-4.745-3.942-7.074-5.871s-4.612-3.86-6.941-5.83c1.167-3.153,2.329-6.3,3.537-9.531,2.283,1.93,4.612,3.819,6.987,5.749,2.329,1.971,4.7,3.9,7.074,5.871-1.208,3.23-2.421,6.419-3.583,9.613Zm4.52-12.137c-2.37-1.966-4.745-3.9-7.115-5.83-2.329-1.93-4.658-3.819-6.987-5.749,1.167-3.194,2.329-6.424,3.537-9.654,2.329,1.894,4.7,3.783,7.028,5.713,2.375,1.894,4.791,3.824,7.167,5.754-1.208,3.271-2.416,6.537-3.629,9.767Zm4.571-12.291c-2.375-1.93-4.791-3.819-7.167-5.749-2.37-1.894-4.7-3.783-7.074-5.677,1.208-3.23,2.375-6.5,3.583-9.731,2.37,1.853,4.745,3.747,7.12,5.6,2.416,1.894,4.832,3.824,7.254,5.713-1.254,3.312-2.462,6.619-3.716,9.849Zm4.653-12.367c-2.416-1.93-4.832-3.824-7.254-5.713s-4.791-3.742-7.115-5.6c1.162-3.271,2.37-6.542,3.578-9.849,2.375,1.853,4.791,3.7,7.213,5.554,2.416,1.894,4.832,3.783,7.294,5.672-1.249,3.312-2.5,6.619-3.716,9.931Zm4.658-12.531c-2.416-1.889-4.878-3.778-7.3-5.631s-4.832-3.706-7.207-5.554q1.812-4.968,3.629-9.931c2.416,1.812,4.832,3.665,7.254,5.518l7.387,5.554-3.762,10.043Zm4.745-12.644q-3.693-2.78-7.387-5.554c-2.462-1.853-4.878-3.665-7.3-5.477,1.208-3.348,2.462-6.7,3.675-10.043,2.462,1.812,4.878,3.583,7.341,5.4,2.462,1.853,4.971,3.7,7.479,5.554-1.3,3.389-2.554,6.778-3.808,10.125Z" transform="translate(0 127.744)" fill="#00223d" fill-rule="evenodd"/>
    <path id="Trazado_96065" data-name="Trazado 96065" d="M112.522,74.212l1.781,2.969,2.723,2.611s5.447-.522,6.772.287,1.049,2.754,1.049,2.754H114.129l-.8-1.4.072,1.4H110l-.225-5.457Z" transform="translate(26.427 176.722)" fill="#00223d" fill-rule="evenodd"/>
    <path id="Trazado_96066" data-name="Trazado 96066" d="M118.961,97.711l-1.049,32.48-4.822.133s-2.421-15.649-2.35-22.012a23.632,23.632,0,0,1,2.631-10.734L109,61.479c.671,4.3,11.2,10.345,11.2,10.345Z" transform="translate(23.219 124.275)" fill="#9fbfed" fill-rule="evenodd"/>
    <path id="Trazado_96067" data-name="Trazado 96067" d="M116.307,61.246a8.478,8.478,0,0,1,.317-3.056,7.29,7.29,0,0,1,2.283-2.928.863.863,0,0,1,.358.891,5.616,5.616,0,0,1-.819,1.628s.5-.123,1.474-1.362c1-1.259,1.71-3.153,2.631-2.759.886.415,1.387,2.375.486,4.341a37.412,37.412,0,0,1-3,4.883Z" transform="translate(53.208 91.85)" fill="#ffb699" fill-rule="evenodd"/>
    <path id="Trazado_96068" data-name="Trazado 96068" d="M116.22,68.1l1.787,2.969,2.713,2.611s5.447-.527,6.783.287,1.039,2.754,1.039,2.754H117.822l-.8-1.4.072,1.4h-3.379l-.23-5.457Z" transform="translate(41.68 151.555)" fill="#00223d" fill-rule="evenodd"/>
    <path id="Trazado_96069" data-name="Trazado 96069" d="M110.371,59.638h6.071l-.164-6.112s-2.672,1.433-3.4,1.382c-.747-.046-2.5-1.766-2.5-1.766Z" transform="translate(28.87 89.936)" fill="#f4a57d" fill-rule="evenodd"/>
    <path id="Trazado_96070" data-name="Trazado 96070" d="M117.056,54.088s.491.635,2.887.8c2.385.154,3.184-.722,3.184-.722l3.681.973a9.569,9.569,0,0,1,5.958,4.709l4.9,9.132a.926.926,0,0,0,1.577.087l8.088-9.808,3.732,1.638L142.21,75.966a4.5,4.5,0,0,1-7.458.292l-4.254-5.8-.113,20.926c-4.638,2.815-15.93,2.815-20.394,0l-1.234-27.064a9.06,9.06,0,0,1,4.889-8.467Z" transform="translate(22.185 93.832)" fill="#00223d" fill-rule="evenodd"/>
    <path id="Trazado_96071" data-name="Trazado 96071" d="M129.385,61.373l21.392,6.936a3.593,3.593,0,0,1,1.909,5.36L136.5,98.787l-4.525.63s2.17-9.823,5.221-16.294a24.016,24.016,0,0,1,7.341-8.927l-21.786.01a10.282,10.282,0,0,1-7.448-3.148c-2.785-2.913-6.368-7.161-6.312-9.685,4.464,2.815,15.756,2.815,20.394,0Z" transform="translate(23.185 123.839)" fill="#b9d2fc" fill-rule="evenodd"/>
    <path id="Trazado_96072" data-name="Trazado 96072" d="M115.919,66.683c3.373,0,6.117-3.563,6.117-7.934s-2.744-7.939-6.117-7.939c-3.358,0-6.107,3.563-6.107,7.939s2.749,7.934,6.107,7.934Z" transform="translate(26.567 80.326)" fill="#ffbd99" fill-rule="evenodd"/>
    <path id="Trazado_96073" data-name="Trazado 96073" d="M114.6,50.562h10.555a.551.551,0,0,1,.553.553v2.3a2.875,2.875,0,0,1-2.867,2.867h-2.652l-.282.783a1.546,1.546,0,0,0,.3,1.551l.532.589-.706.834a1.9,1.9,0,0,0-.425.911l-.322,1.756s-.461-2.217-1.459-1.766-.2,3.02.517,3.235a.652.652,0,0,0,.891-.41,11.87,11.87,0,0,0-.932,3.077c-.092,1.787-5.139,1.551-5.139-.292,0,0-4.546-3.9-3.22-9.311a5.6,5.6,0,0,1,1.8-3.286v-.538a2.864,2.864,0,0,1,2.856-2.856Z" transform="translate(26.084 79.309)" fill="#00223d" fill-rule="evenodd"/>
    <g id="Grupo_46128" data-name="Grupo 46128" transform="translate(157.136 240.216)">
      <path id="Trazado_96074" data-name="Trazado 96074" d="M158.2,94.2c16.555,0,30.627,1.618,35.659,3.906,1.188-.553,1.853-1.1,2-1.679h0v3.532c0,3.153-16.877,5.759-37.66,5.759s-37.66-2.606-37.66-5.759l.031-3.737c0,.665.691,1.275,1.966,1.853,5.068-2.257,19.1-3.875,35.664-3.875Z" transform="translate(-86.397 18.831)" fill="#f9c61e" fill-rule="evenodd"/>
      <path id="Trazado_96075" data-name="Trazado 96075" d="M158.171,93.469c20.814,0,37.66,2.606,37.66,5.759,0,3.184-16.846,5.764-37.66,5.764-20.783,0-37.629-2.58-37.629-5.764,0-3.153,16.846-5.759,37.629-5.759Z" transform="translate(-86.372 15.825)" fill="#dba50e" fill-rule="evenodd"/>
      <path id="Trazado_96076" data-name="Trazado 96076" d="M136.151,102.137c-.143-.522-.256-1.039-.374-1.5a47.253,47.253,0,0,1-5.528-.4,11.543,11.543,0,0,1-3.3-.926c-.809-.4-1.126-.84-1.039-1.362,1.3-.056,2.575-.113,3.849-.174a2.223,2.223,0,0,0,1.474,1.162,14.968,14.968,0,0,0,4.254.635c-.143-.578-.287-1.126-.4-1.623-.113-.461-.23-.9-.348-1.3-1.387-.087-2.805-.2-4.2-.379a8.764,8.764,0,0,1-2.257-.491c-.461-.2-.635-.4-.548-.635.174-.379.983-.666,2.4-.9.466-.061,1.014-.118,1.679-.148.64-.056,1.392-.087,2.257-.087a.587.587,0,0,1-.056-.2h1.474c.031.056.061.143.087.2.752,0,1.449.031,2.058.087.609.031,1.188.087,1.679.148a8.094,8.094,0,0,1,2.836.747c-.927.031-1.884.061-2.836.087a3.585,3.585,0,0,0-1.362-.491,18.886,18.886,0,0,0-2.2-.2c.118.23.2.491.323.753s.256.548.4.87c1.618.082,2.718.143,3.271.2a26.578,26.578,0,0,1,2.749.348,14.188,14.188,0,0,1,2.083.522,4.182,4.182,0,0,1,1.362.752c.752.635.548,1.244-.727,1.792a9.949,9.949,0,0,1-2.687.665,31.907,31.907,0,0,1-4.085.322c.2.461.435.983.666,1.5-.983,0-1.966.026-2.954.026Zm-2-7.755a16.235,16.235,0,0,0-2.488.23c-.609.118-.957.292-.983.461,0,.2.261.379.84.522a19.51,19.51,0,0,0,3.036.323c-.087-.292-.143-.584-.23-.845l-.174-.691ZM138,99.562a10.593,10.593,0,0,0,3.619-.609c.783-.287.983-.665.64-1.07a2.821,2.821,0,0,0-1.566-.722,27.745,27.745,0,0,0-3.906-.435c.143.4.348.809.522,1.275.2.461.43.983.691,1.561Z" transform="translate(-64.326 17.2)" fill="#fdce2f"/>
      <path id="Trazado_96077" data-name="Trazado 96077" d="M157.937,92.536c16.56,0,30.627,1.623,35.664,3.906,1.157-.517,1.853-1.1,1.971-1.679h0l.025,3.532c0,3.184-16.877,5.764-37.66,5.764-20.809,0-37.655-2.58-37.655-5.764v-3.7c0,.635.691,1.269,2,1.848,5.037-2.283,19.1-3.906,35.659-3.906Z" transform="translate(-87.443 11.982)" fill="#f9c61e" fill-rule="evenodd"/>
      <path id="Trazado_96078" data-name="Trazado 96078" d="M157.937,91.812c20.814,0,37.66,2.58,37.66,5.764s-16.846,5.759-37.66,5.759c-20.783,0-37.655-2.575-37.655-5.759s16.872-5.764,37.655-5.764Z" transform="translate(-87.443 8.999)" fill="#dba50e" fill-rule="evenodd"/>
      <path id="Trazado_96079" data-name="Trazado 96079" d="M135.9,100.479c-.143-.522-.261-1.014-.4-1.479-2.257-.087-4.111-.23-5.528-.43a10.328,10.328,0,0,1-3.3-.927c-.783-.379-1.1-.84-1.014-1.336,1.275-.082,2.58-.143,3.824-.2a2.38,2.38,0,0,0,1.5,1.157,14.369,14.369,0,0,0,4.254.665c-.143-.609-.292-1.157-.435-1.648-.113-.466-.23-.9-.317-1.305-1.392-.087-2.81-.2-4.228-.374a8.476,8.476,0,0,1-2.227-.466c-.491-.2-.666-.43-.553-.665.148-.374.957-.665,2.375-.865.466-.087,1.044-.118,1.679-.174.665-.031,1.418-.061,2.257-.087a.653.653,0,0,0-.056-.2h1.505a1.642,1.642,0,0,0,.087.2c.753.026,1.418.056,2.053.087.609.026,1.162.087,1.653.143a8.373,8.373,0,0,1,2.867.753c-.957.031-1.884.056-2.841.087a3.482,3.482,0,0,0-1.387-.461,13.467,13.467,0,0,0-2.17-.2c.087.23.2.461.317.722.118.292.23.578.379.87,1.648.087,2.749.174,3.3.2a27.658,27.658,0,0,1,2.749.343,14.978,14.978,0,0,1,2.058.522,4.384,4.384,0,0,1,1.387.753c.753.665.553,1.275-.722,1.8a11.739,11.739,0,0,1-2.693.7,32.415,32.415,0,0,1-4.08.287c.2.491.4.983.635,1.5-.983.031-1.94.031-2.923.031Zm-2-7.76a16.006,16.006,0,0,0-2.488.235c-.64.143-.957.287-.988.491-.026.174.23.343.814.491a16.857,16.857,0,0,0,3.036.317c-.056-.292-.143-.548-.2-.809s-.118-.491-.174-.727Zm3.819,5.18a11.487,11.487,0,0,0,3.65-.578c.753-.317.952-.665.635-1.07a2.8,2.8,0,0,0-1.561-.752,24.774,24.774,0,0,0-3.936-.4c.174.374.348.809.548,1.244.2.491.435,1.014.665,1.561Z" transform="translate(-65.377 10.35)" fill="#fdce2f"/>
      <path id="Trazado_96080" data-name="Trazado 96080" d="M155.527,91.315c16.555,0,30.622,1.618,35.659,3.906,1.162-.522,1.853-1.1,1.971-1.679h.031v3.532c0,3.184-16.877,5.759-37.66,5.759-20.814,0-37.66-2.575-37.66-5.759V93.368c0,.64.722,1.275,2,1.853,5.068-2.288,19.1-3.906,35.664-3.906Z" transform="translate(-97.39 6.952)" fill="#f9c61e" fill-rule="evenodd"/>
      <path id="Trazado_96081" data-name="Trazado 96081" d="M155.527,90.591c20.814,0,37.66,2.575,37.66,5.759s-16.846,5.759-37.66,5.759c-20.783,0-37.66-2.575-37.66-5.759s16.877-5.759,37.66-5.759Z" transform="translate(-97.39 3.97)" fill="#dba50e" fill-rule="evenodd"/>
      <path id="Trazado_96082" data-name="Trazado 96082" d="M133.482,99.253c-.143-.517-.256-1.014-.374-1.474a53.79,53.79,0,0,1-5.529-.435,9.975,9.975,0,0,1-3.3-.927c-.809-.374-1.126-.839-1.039-1.331,1.3-.087,2.575-.143,3.819-.2a2.368,2.368,0,0,0,1.5,1.162,14.713,14.713,0,0,0,4.254.665c-.143-.609-.287-1.157-.4-1.653-.113-.461-.23-.9-.348-1.3-1.387-.087-2.805-.2-4.2-.379a8.644,8.644,0,0,1-2.257-.461c-.461-.2-.635-.435-.548-.665.143-.379.983-.665,2.4-.87.435-.087,1.014-.113,1.653-.174.665-.026,1.418-.056,2.257-.087,0-.056-.031-.113-.031-.2h1.474a2.083,2.083,0,0,0,.087.2c.752.031,1.449.061,2.058.087s1.188.087,1.679.148a8.551,8.551,0,0,1,2.836.753c-.927.026-1.884.056-2.836.087a3.52,3.52,0,0,0-1.362-.466,13.919,13.919,0,0,0-2.2-.2c.087.23.2.461.317.722.118.292.261.578.379.87,1.648.082,2.749.169,3.3.2a26.566,26.566,0,0,1,2.749.348,12.809,12.809,0,0,1,2.053.522,4.318,4.318,0,0,1,1.392.753c.752.665.548,1.275-.727,1.792a11.082,11.082,0,0,1-2.693.7,32.25,32.25,0,0,1-4.08.292c.2.491.4.983.665,1.5-.983.026-1.966.026-2.954.026Zm-2-7.755a16.923,16.923,0,0,0-2.488.23c-.635.143-.957.292-.983.491-.031.174.261.348.809.491a17.539,17.539,0,0,0,3.066.323c-.087-.292-.143-.553-.23-.814-.056-.261-.113-.491-.174-.722Zm3.85,5.18a11.552,11.552,0,0,0,3.619-.578c.783-.317.957-.665.64-1.07a2.816,2.816,0,0,0-1.566-.752,24.708,24.708,0,0,0-3.936-.4c.174.374.348.809.553,1.244.2.491.43,1.014.691,1.561Z" transform="translate(-75.32 5.321)" fill="#fdce2f"/>
      <path id="Trazado_96083" data-name="Trazado 96083" d="M158.9,90.24c16.56,0,30.627,1.623,35.664,3.911,1.182-.553,1.853-1.1,2-1.679h0V96c0,3.184-16.877,5.764-37.66,5.764-20.814,0-37.66-2.58-37.66-5.764V92.267c0,.665.727,1.275,2,1.853,5.068-2.257,19.1-3.88,35.664-3.88Z" transform="translate(-83.509 2.524)" fill="#f9c61e" fill-rule="evenodd"/>
      <path id="Trazado_96084" data-name="Trazado 96084" d="M158.9,89.516c20.814,0,37.66,2.58,37.66,5.733,0,3.184-16.846,5.759-37.66,5.759-20.783,0-37.66-2.575-37.66-5.759,0-3.153,16.877-5.733,37.66-5.733Z" transform="translate(-83.509 -0.458)" fill="#dba50e" fill-rule="evenodd"/>
      <path id="Trazado_96085" data-name="Trazado 96085" d="M136.857,98.183c-.149-.522-.261-1.044-.379-1.5a48.506,48.506,0,0,1-5.528-.4,11.713,11.713,0,0,1-3.3-.926c-.809-.4-1.126-.84-1.039-1.362,1.3-.056,2.575-.118,3.849-.174a2.258,2.258,0,0,0,1.474,1.157,14.813,14.813,0,0,0,4.259.64c-.149-.578-.292-1.131-.41-1.623-.113-.461-.23-.9-.343-1.3-1.392-.087-2.81-.2-4.2-.379a8.568,8.568,0,0,1-2.257-.491c-.466-.2-.64-.4-.553-.64.143-.374.983-.66,2.4-.9.466-.056,1.014-.113,1.679-.143.64-.056,1.392-.056,2.232-.087,0-.056-.031-.143-.031-.2h1.479c.026.061.056.148.087.2.753,0,1.444.031,2.053.087.609.031,1.188.087,1.679.143a7.966,7.966,0,0,1,2.836.752c-.927.031-1.879.056-2.836.087a3.585,3.585,0,0,0-1.362-.491,17.833,17.833,0,0,0-2.2-.2c.087.23.2.491.322.747s.261.584.374.87c1.653.087,2.749.143,3.3.2a25.23,25.23,0,0,1,2.749.348,13.654,13.654,0,0,1,2.058.517,4.55,4.55,0,0,1,1.387.752c.753.64.548,1.249-.722,1.8a9.994,9.994,0,0,1-2.693.665,31,31,0,0,1-4.085.317c.2.466.435.983.665,1.505-.983,0-1.966.031-2.948.031Zm-2-7.755a15.612,15.612,0,0,0-2.488.23c-.635.143-.952.287-.983.461-.031.2.261.379.809.522a21.455,21.455,0,0,0,3.071.317c-.087-.287-.149-.578-.235-.84l-.174-.691Zm3.855,5.18A10.687,10.687,0,0,0,142.324,95c.783-.292.957-.665.64-1.07A2.786,2.786,0,0,0,141.4,93.2a27.747,27.747,0,0,0-3.936-.435c.174.41.348.814.553,1.275s.435.988.7,1.566Z" transform="translate(-61.439 0.893)" fill="#fdce2f"/>
      <path id="Trazado_96086" data-name="Trazado 96086" d="M157.882,88.928c16.56,0,30.627,1.623,35.664,3.911,1.188-.553,1.853-1.1,2-1.679h0v3.532c0,3.153-16.877,5.759-37.66,5.759s-37.66-2.606-37.66-5.759l.031-3.737c0,.665.7,1.275,1.966,1.853,5.068-2.257,19.109-3.88,35.664-3.88Z" transform="translate(-87.69 -2.88)" fill="#f9c61e" fill-rule="evenodd"/>
      <path id="Trazado_96087" data-name="Trazado 96087" d="M157.652,88.19c20.7,0,37.461,2.59,37.461,5.728,0,3.169-16.759,5.733-37.461,5.733-20.67,0-37.425-2.565-37.425-5.733,0-3.138,16.754-5.728,37.425-5.728Z" transform="translate(-87.67 -5.919)" fill="#dba50e" fill-rule="evenodd"/>
      <path id="Trazado_96088" data-name="Trazado 96088" d="M135.842,96.871c-.148-.522-.261-1.039-.379-1.5a48.6,48.6,0,0,1-5.528-.4,11.672,11.672,0,0,1-3.3-.927c-.814-.4-1.131-.84-1.044-1.362,1.3-.056,2.575-.118,3.849-.174a2.242,2.242,0,0,0,1.474,1.157,14.812,14.812,0,0,0,4.259.64c-.148-.578-.292-1.131-.4-1.623-.118-.461-.235-.9-.348-1.3-1.392-.087-2.81-.2-4.2-.379a8.881,8.881,0,0,1-2.257-.491c-.466-.2-.64-.4-.553-.635.174-.379.983-.665,2.406-.9.461-.056,1.008-.113,1.679-.143.635-.056,1.387-.087,2.257-.087a.5.5,0,0,1-.061-.2h1.479c.026.061.056.148.087.2.752,0,1.444.031,2.053.087.609.031,1.188.087,1.679.143a8.042,8.042,0,0,1,2.836.753c-.927.031-1.879.061-2.836.087a3.586,3.586,0,0,0-1.362-.491,17.836,17.836,0,0,0-2.2-.2c.113.23.2.491.317.752s.261.548.4.865c1.623.087,2.723.143,3.271.2a25.237,25.237,0,0,1,2.749.348,14.029,14.029,0,0,1,2.083.522,4.223,4.223,0,0,1,1.362.747c.753.64.548,1.249-.722,1.8a9.993,9.993,0,0,1-2.693.665,31,31,0,0,1-4.085.317c.2.466.435.988.671,1.5-.988,0-1.971.031-2.954.031Zm-2-7.755a15.616,15.616,0,0,0-2.493.23c-.6.113-.952.287-.983.461,0,.2.261.379.84.522a20.37,20.37,0,0,0,3.041.317c-.087-.287-.148-.578-.23-.84l-.174-.691ZM137.7,94.3a10.56,10.56,0,0,0,3.614-.609c.783-.287.988-.665.64-1.07a2.785,2.785,0,0,0-1.561-.722,27.072,27.072,0,0,0-3.911-.435c.143.4.348.809.522,1.27.2.466.435.988.7,1.566Z" transform="translate(-65.62 -4.511)" fill="#f9c61e"/>
      <path id="Trazado_96089" data-name="Trazado 96089" d="M157.628,87.266c16.555,0,30.622,1.623,35.659,3.906,1.157-.522,1.853-1.1,1.971-1.679h0l.026,3.532c0,3.184-16.872,5.759-37.655,5.759-20.814,0-37.66-2.575-37.66-5.759V89.319c0,.64.7,1.275,2,1.853,5.037-2.283,19.1-3.906,35.664-3.906Z" transform="translate(-88.736 -9.725)" fill="#f9c61e" fill-rule="evenodd"/>
      <path id="Trazado_96090" data-name="Trazado 96090" d="M157.423,86.542c20.7,0,37.46,2.565,37.46,5.728S178.124,98,157.423,98c-20.67,0-37.455-2.565-37.455-5.733s16.785-5.728,37.455-5.728Z" transform="translate(-88.736 -12.707)" fill="#dba50e" fill-rule="evenodd"/>
      <path id="Trazado_96091" data-name="Trazado 96091" d="M135.583,95.209c-.143-.522-.261-1.014-.4-1.479a55.26,55.26,0,0,1-5.529-.435,10.2,10.2,0,0,1-3.3-.926c-.778-.374-1.1-.84-1.008-1.331,1.269-.087,2.575-.143,3.819-.2a2.38,2.38,0,0,0,1.505,1.157,14.4,14.4,0,0,0,4.254.665c-.143-.609-.287-1.157-.435-1.648-.113-.466-.23-.9-.317-1.305-1.387-.087-2.805-.2-4.223-.374a8.576,8.576,0,0,1-2.232-.466c-.491-.2-.665-.435-.548-.665.143-.374.952-.665,2.37-.87.466-.087,1.044-.113,1.679-.169.665-.031,1.423-.061,2.257-.087a.654.654,0,0,0-.056-.2h1.5c.031.087.061.143.087.2.753.026,1.418.056,2.058.087.6.026,1.157.082,1.648.143a8.371,8.371,0,0,1,2.867.752c-.957.031-1.884.056-2.836.087a3.535,3.535,0,0,0-1.392-.466,13.5,13.5,0,0,0-2.17-.2c.087.23.2.461.317.722.118.292.235.578.379.87,1.648.087,2.749.174,3.3.2a27.67,27.67,0,0,1,2.754.348,13.719,13.719,0,0,1,2.053.522,4.476,4.476,0,0,1,1.392.752c.753.665.548,1.275-.727,1.8a11.763,11.763,0,0,1-2.693.691,32.309,32.309,0,0,1-4.08.292c.2.491.4.983.635,1.5-.983.031-1.935.031-2.923.031Zm-2-7.76a16.913,16.913,0,0,0-2.488.23c-.64.148-.957.292-.983.491-.031.174.23.348.809.5a16.866,16.866,0,0,0,3.041.317c-.061-.292-.148-.553-.2-.814s-.118-.491-.174-.722Zm3.824,5.18a11.6,11.6,0,0,0,3.645-.578c.753-.317.957-.665.635-1.07a2.8,2.8,0,0,0-1.561-.752,24.7,24.7,0,0,0-3.937-.4c.174.374.348.809.548,1.244.2.491.435,1.014.671,1.561Z" transform="translate(-66.666 -11.356)" fill="#f9c61e"/>
      <path id="Trazado_96092" data-name="Trazado 96092" d="M155.213,86.044c16.56,0,30.627,1.623,35.664,3.911,1.157-.522,1.853-1.1,1.966-1.679h.031v3.532c0,3.184-16.877,5.759-37.66,5.759-20.814,0-37.66-2.575-37.66-5.759V88.1c0,.635.727,1.275,2,1.853,5.068-2.288,19.109-3.911,35.664-3.911Z" transform="translate(-98.684 -14.759)" fill="#f9c61e" fill-rule="evenodd"/>
      <path id="Trazado_96093" data-name="Trazado 96093" d="M155.213,85.321c20.814,0,37.66,2.575,37.66,5.759s-16.846,5.759-37.66,5.759c-20.783,0-37.66-2.575-37.66-5.759s16.877-5.759,37.66-5.759Z" transform="translate(-98.684 -17.737)" fill="#dba50e" fill-rule="evenodd"/>
      <path id="Trazado_96094" data-name="Trazado 96094" d="M133.173,93.983c-.148-.522-.261-1.014-.379-1.474a55.385,55.385,0,0,1-5.528-.435,9.942,9.942,0,0,1-3.3-.927c-.814-.379-1.131-.84-1.044-1.331,1.3-.087,2.575-.143,3.819-.2a2.391,2.391,0,0,0,1.5,1.157,14.6,14.6,0,0,0,4.259.671c-.148-.609-.292-1.162-.41-1.653-.113-.461-.23-.9-.343-1.3-1.392-.087-2.81-.2-4.2-.379a8.811,8.811,0,0,1-2.257-.461c-.466-.2-.64-.435-.553-.665.143-.379.983-.665,2.406-.87.43-.087,1.008-.118,1.648-.174.665-.026,1.418-.056,2.257-.087,0-.056-.031-.113-.031-.2h1.479a.925.925,0,0,0,.087.2c.752.031,1.444.061,2.053.087s1.188.087,1.679.143a8.639,8.639,0,0,1,2.836.752c-.927.031-1.879.061-2.836.087a3.611,3.611,0,0,0-1.362-.461,13.833,13.833,0,0,0-2.2-.2c.087.236.2.466.317.727.113.287.261.578.374.865,1.653.087,2.749.174,3.3.2a25.233,25.233,0,0,1,2.749.348,13.019,13.019,0,0,1,2.058.522,4.342,4.342,0,0,1,1.387.752c.752.665.548,1.269-.722,1.792a11.143,11.143,0,0,1-2.693.7,32.327,32.327,0,0,1-4.085.292c.2.491.41.983.671,1.505-.988.026-1.971.026-2.954.026Zm-2-7.755a15.62,15.62,0,0,0-2.493.23c-.635.143-.952.287-.983.491-.031.174.261.348.809.491a17.172,17.172,0,0,0,3.071.317c-.087-.287-.148-.548-.235-.809-.056-.261-.113-.491-.169-.722Zm3.849,5.18a11.515,11.515,0,0,0,3.614-.578c.783-.317.957-.665.64-1.07a2.75,2.75,0,0,0-1.561-.752,24.693,24.693,0,0,0-3.942-.41c.174.379.348.814.553,1.249.2.491.435,1.008.7,1.561Z" transform="translate(-76.613 -16.386)" fill="#fdce2f"/>
      <path id="Trazado_96095" data-name="Trazado 96095" d="M158.583,84.97c16.56,0,30.627,1.623,35.664,3.906,1.188-.548,1.853-1.1,2-1.679h0v3.532c0,3.184-16.877,5.764-37.66,5.764-20.809,0-37.66-2.58-37.66-5.764V87c0,.665.727,1.275,2,1.853,5.063-2.257,19.1-3.88,35.659-3.88Z" transform="translate(-84.803 -19.182)" fill="#f9c61e" fill-rule="evenodd"/>
      <path id="Trazado_96096" data-name="Trazado 96096" d="M158.583,84.246c20.814,0,37.66,2.575,37.66,5.733,0,3.184-16.846,5.759-37.66,5.759-20.783,0-37.66-2.575-37.66-5.759,0-3.158,16.877-5.733,37.66-5.733Z" transform="translate(-84.803 -22.165)" fill="#dba50e" fill-rule="evenodd"/>
      <path id="Trazado_96097" data-name="Trazado 96097" d="M136.543,92.913c-.143-.522-.261-1.044-.379-1.5A48.423,48.423,0,0,1,130.636,91a11.566,11.566,0,0,1-3.3-.921c-.814-.41-1.131-.84-1.044-1.362,1.305-.061,2.575-.118,3.849-.174a2.255,2.255,0,0,0,1.479,1.157,14.774,14.774,0,0,0,4.254.64c-.143-.584-.292-1.131-.4-1.623-.118-.466-.235-.9-.348-1.305-1.392-.087-2.81-.2-4.2-.374a8.783,8.783,0,0,1-2.257-.491c-.466-.2-.64-.41-.553-.64.148-.374.988-.665,2.406-.9.461-.056,1.014-.118,1.679-.143.635-.061,1.387-.061,2.227-.087,0-.056-.031-.148-.031-.2h1.479c.031.056.056.148.087.2.753,0,1.449.026,2.053.087.609.026,1.188.087,1.679.143a7.933,7.933,0,0,1,2.836.753c-.921.031-1.879.056-2.836.087a3.474,3.474,0,0,0-1.357-.491,18.975,18.975,0,0,0-2.2-.2c.087.236.2.491.317.753s.261.578.374.87c1.653.087,2.754.143,3.3.2a26.565,26.565,0,0,1,2.749.348,13.91,13.91,0,0,1,2.058.522,4.386,4.386,0,0,1,1.387.753c.752.64.553,1.244-.722,1.8a10.135,10.135,0,0,1-2.693.665,31.888,31.888,0,0,1-4.08.317c.2.466.43.983.666,1.5-.988,0-1.971.031-2.954.031Zm-2-7.76a16.143,16.143,0,0,0-2.493.236c-.635.143-.952.287-.983.461-.026.2.261.379.814.522a21.273,21.273,0,0,0,3.066.317c-.087-.292-.143-.578-.23-.84l-.174-.7Zm3.849,5.186a10.746,10.746,0,0,0,3.619-.609c.778-.292.952-.665.635-1.075a2.82,2.82,0,0,0-1.561-.722,27.832,27.832,0,0,0-3.936-.435c.174.41.348.814.548,1.275s.435.983.7,1.566Z" transform="translate(-62.732 -20.813)" fill="#f9c61e"/>
      <path id="Trazado_96098" data-name="Trazado 96098" d="M122.576,91.1l-.9,2.677-.645,1.633s3.317.619,4.638.66.763-1.244.763-1.244l-.092-2.309Z" transform="translate(-84.362 6.063)" fill="#ffbd99" fill-rule="evenodd"/>
      <path id="Trazado_96099" data-name="Trazado 96099" d="M120.606,91.243,117.9,93.772l-1.715,2.319s3.082,2.283,4.423,1.638S122,94.2,122,94.2Z" transform="translate(-104.327 6.656)" fill="#ffbd99" fill-rule="evenodd"/>
      <path id="Trazado_96100" data-name="Trazado 96100" d="M125.207,82.4s-2.862.921-3.425,1.531-.343,2.309-.343,2.309l4.52-1Z" transform="translate(-82.842 -29.752)" fill="#f4a082" fill-rule="evenodd"/>
      <path id="Trazado_96101" data-name="Trazado 96101" d="M126.046,78.767l.865,14.851-4.878,3.523.745,1.86,3.7-.385,4.4-3.629-2.619-15.956Z" transform="translate(-80.231 -44.731)" fill="#167377" fill-rule="evenodd"/>
      <path id="Trazado_96102" data-name="Trazado 96102" d="M135.065,86.713l-13.77,7.376-.42-3.7a3.571,3.571,0,0,1,2.442-3.793l12.158-3.952Zm-13.243,20.4c2.042-4.008,3.46-7.208,3.46-7.208s1.4-.169,3.512-.5l-1.454,28.927-4.935.251-.584-21.469Zm15.5-24.269c-.527-.026-.962-.072-1.3-.1.333.026.768.072,1.3.1Z" transform="translate(-85.093 -28.742)" fill="#00223d" fill-rule="evenodd"/>
      <path id="Trazado_96103" data-name="Trazado 96103" d="M125.665,82.443s-2.954.594-3.573,1.147-.563,2.493-.563,2.493l4.581-.773Z" transform="translate(-82.312 -29.591)" fill="#ffb699" fill-rule="evenodd"/>
      <path id="Trazado_96104" data-name="Trazado 96104" d="M123.362,76.248l-.8-1.336s1.229-3.865,5.047-2.5c3.8,1.341,5.073,22.16,12.915,26.987,0,0-1.229,1.874-5.631-.7-4.377-2.59-8.242-8.933-10.12-15.3-1.853-6.368-1.408-7.151-1.408-7.151Z" transform="translate(-78.068 -72.118)" fill="#00223d" fill-rule="evenodd"/>
      <path id="Trazado_96105" data-name="Trazado 96105" d="M129.178,77.967c-1.085,1.9-3.512,5.743-5.887,6a12.808,12.808,0,0,1,1.341-2.928l-2.135-3,3.844-2.81Z" transform="translate(-78.315 -59.309)" fill="#f4a082" fill-rule="evenodd"/>
      <path id="Trazado_96106" data-name="Trazado 96106" d="M124.937,80.426l-1.055,1.341-1.341,5.293a6,6,0,0,0,.63,4.5,61.108,61.108,0,0,1,3.737,7.023c.266,1.2,1.925,12.332,1.925,12.332s3.148.865,8.528-.241c5.385-1.131,6.394-1.8,6.394-1.8a90.5,90.5,0,0,1-1.827-12.04c-.507-6.394-2.641-13.847-4.085-16.125-.824-1.29-8.073-4.95-8.073-4.95Z" transform="translate(-78.906 -57.106)" fill="#d5f2e8" fill-rule="evenodd"/>
      <path id="Trazado_96107" data-name="Trazado 96107" d="M167.7,82.265s4.111,8.385-2.954,13c-7.09,4.592-21.341,6.225-21.341,6.225a152.529,152.529,0,0,1-7.161,13.985c-3.844,6.491-15.715,17.84-15.715,17.84l-4.075-2.785,21.858-35.377a8.359,8.359,0,0,1,4.97-3.967l9.905-2.887.41-4.064a22.2,22.2,0,0,0,8.073-.333,36.045,36.045,0,0,0,6.03-1.633Z" transform="translate(-103.215 -30.324)" fill="#00223d" fill-rule="evenodd"/>
      <path id="Trazado_96108" data-name="Trazado 96108" d="M132.007,78.89c-1.633,3.629,2.693,17.85,2.693,17.85l-12.557,9.219,1.433,2.882s17.476-7.412,17.742-10.658c.195-2.411-1.351-12.2-2.252-18.213-.507-3.4-5.109-4.479-6.839-1.5A4.707,4.707,0,0,0,132.007,78.89Z" transform="translate(-79.778 -53.123)" fill="#167377" fill-rule="evenodd"/>
      <path id="Trazado_96109" data-name="Trazado 96109" d="M122.157,74.517l2.053-1.853c2.012.783,2.5,1.833,3.015,3.8l-1.341,1.587Z" transform="translate(-79.72 -69.87)" fill="#1363b2" fill-rule="evenodd"/>
      <path id="Trazado_96110" data-name="Trazado 96110" d="M122.8,82.932s4,5.093,6.967,4.6c2.995-.471,5.677-4.151,3.865-7.6-1.833-3.46-3.931-7.97-8.441-6.23-4.535,1.74-4.96,4-4.382,6.23a4.948,4.948,0,0,0,1.991,2.995Z" transform="translate(-86.124 -67.162)" fill="#ffb699" fill-rule="evenodd"/>
      <path id="Trazado_96111" data-name="Trazado 96111" d="M129.721,79.05A10.012,10.012,0,0,1,125.026,86c-4.151,2.365-6-5.006-3.952-9.3a7.255,7.255,0,0,1,11.548-1.833c3.44,3.486,3.015,8.088,2.012,9.721a8.027,8.027,0,0,1-3.532-2.416,8.455,8.455,0,0,1-1.382-3.128Z" transform="translate(-87.642 -69.402)" fill="#00223d" fill-rule="evenodd"/>
      <path id="Trazado_96112" data-name="Trazado 96112" d="M146.608,91.3l-16.483,2.657L119.15,80.639l-.312.266a.4.4,0,0,0-.046.568l10.422,12.639h0l.072.384a.383.383,0,0,0,.445.338l17.005-2.744Z" transform="translate(-93.974 -37.022)" fill="#b9d2fc" fill-rule="evenodd"/>
      <path id="Trazado_96113" data-name="Trazado 96113" d="M115.659,96.1c2.672.113,10.064-3.911,10.064-3.911l5.426.133a2.565,2.565,0,0,1,.389,1.346,3.141,3.141,0,0,1-.425,2.022l-.031,2.759h-1.172l-.517-2.744L124.3,98.43l-10.2.021S112.972,95.963,115.659,96.1Z" transform="translate(-113.867 10.556)" fill="#167377" fill-rule="evenodd"/>
      <path id="Trazado_96114" data-name="Trazado 96114" d="M120.491,97.606c2.662-.235,9.46-5.2,9.46-5.2l5.4-.584a2.6,2.6,0,0,1,.558,1.285,3.183,3.183,0,0,1-.154,2.063l.333,2.739-1.162.154-.875-2.652-4.689,3.368-10.11,1.362S117.809,97.826,120.491,97.606Z" transform="translate(-93.283 9.061)" fill="#167377" fill-rule="evenodd"/>
    </g>
    <g id="Grupo_46131" data-name="Grupo 46131" transform="translate(247.143 250.12)">
      <g id="Grupo_46129" data-name="Grupo 46129" transform="translate(0 64.125)">
        <path id="Trazado_96115" data-name="Trazado 96115" d="M134.43,93.013h72.786v2.012H136.278a2.213,2.213,0,0,0-2.2,2.216v8.006a2.213,2.213,0,0,0,2.2,2.216h70.938v2.012H134.43a2.945,2.945,0,0,1-2.923-2.923V95.936a2.945,2.945,0,0,1,2.923-2.923Z" transform="translate(-131.215 -60.083)" fill="#d5f2e8" fill-rule="evenodd"/>
        <path id="Trazado_96116" data-name="Trazado 96116" d="M134.206,93.406h70.938v12.439H134.206a2.213,2.213,0,0,1-2.2-2.216V95.623a2.213,2.213,0,0,1,2.2-2.216Z" transform="translate(-129.143 -58.464)" fill="#eadce4" fill-rule="evenodd"/>
        <path id="Trazado_96117" data-name="Trazado 96117" d="M134.43,89.8h72.786v2.012H136.278a2.213,2.213,0,0,0-2.2,2.217v8.006a2.213,2.213,0,0,0,2.2,2.217h70.938v2.012H134.43a2.945,2.945,0,0,1-2.923-2.923V92.72A2.945,2.945,0,0,1,134.43,89.8Z" transform="translate(-131.215 -73.329)" fill="#00223d" fill-rule="evenodd"/>
        <path id="Trazado_96118" data-name="Trazado 96118" d="M134.206,90.19h70.938v12.439H134.206a2.213,2.213,0,0,1-2.2-2.217V92.407a2.213,2.213,0,0,1,2.2-2.217Z" transform="translate(-129.143 -71.711)" fill="#eadce4" fill-rule="evenodd"/>
        <path id="Trazado_96119" data-name="Trazado 96119" d="M134.373,86.58h72.786v2.012H136.221a2.222,2.222,0,0,0-2.2,2.222v8a2.222,2.222,0,0,0,2.2,2.222h70.938v2.012H134.373a2.949,2.949,0,0,1-2.923-2.923V89.5a2.949,2.949,0,0,1,2.923-2.923Z" transform="translate(-131.45 -86.58)" fill="#26aab7" fill-rule="evenodd"/>
        <path id="Trazado_96120" data-name="Trazado 96120" d="M134.153,86.973h70.938V99.417H134.153a2.222,2.222,0,0,1-2.2-2.222v-8a2.222,2.222,0,0,1,2.2-2.222Z" transform="translate(-129.382 -84.961)" fill="#eadce4" fill-rule="evenodd"/>
      </g>
      <g id="Grupo_46130" data-name="Grupo 46130" transform="translate(19.722)">
        <path id="Trazado_96121" data-name="Trazado 96121" d="M176.26,89.985c2.759,5.037-6.158,32.879-6.158,32.879l-4.7-.1.338-26.071c-11.84,4.459-18.715,0-18.715,0l.338,26.071-4.694.1s-8.917-27.842-6.163-32.879c2.385-4.29,16.135-6.158,19.877-5.784,3.742-.374,17.5,1.495,19.877,5.784Z" transform="translate(-132.522 -32.448)" fill="#00223d" fill-rule="evenodd"/>
        <path id="Trazado_96122" data-name="Trazado 96122" d="M156.325,97.89l-8.917-.2-2.073-1.09-.271,1.09-3.3-.338-.036-5.651,4.7.1s6.26,4.049,8.574,4.049c2.35,0,1.326,2.042,1.326,2.042Z" transform="translate(-108.846 -1.382)" fill="#167377" fill-rule="evenodd"/>
        <path id="Trazado_96123" data-name="Trazado 96123" d="M135.509,97.89l8.953-.2,2.073-1.09.276,1.09,3.266-.338.067-5.651-4.694.1s-6.266,4.049-8.579,4.049c-2.35,0-1.362,2.042-1.362,2.042Z" transform="translate(-135.303 -1.382)" fill="#167377" fill-rule="evenodd"/>
        <path id="Trazado_96124" data-name="Trazado 96124" d="M144.511,108.79h7.827l-10.11-11.507,9.905-19.227c-7.806-.22-12.229,11.41-15.715,19.083a3.4,3.4,0,0,0,.63,3.737Z" transform="translate(-131.948 -57.579)" fill="#167377" fill-rule="evenodd"/>
        <path id="Trazado_96125" data-name="Trazado 96125" d="M150.516,107.868l-6.5,4.218,6.7-14.461-10.1-19.57c7.643-.215,12.071,10.33,15.526,17.87a4.808,4.808,0,0,1-.476,4.817Z" transform="translate(-113.418 -57.579)" fill="#167377" fill-rule="evenodd"/>
        <path id="Trazado_96126" data-name="Trazado 96126" d="M139.417,75.871c-.783.1-1.3,1.157-1.157,2.385s.886,2.14,1.669,2.037c.783-.067,1.326-1.152,1.157-2.38-.138-1.223-.886-2.145-1.669-2.042Z" transform="translate(-123.214 -66.595)" fill="#ffb699" fill-rule="evenodd"/>
        <path id="Trazado_96127" data-name="Trazado 96127" d="M142.707,75.871c.783.1,1.3,1.157,1.157,2.385s-.886,2.14-1.669,2.037c-.783-.067-1.29-1.152-1.157-2.38s.886-2.145,1.669-2.042Z" transform="translate(-111.766 -66.595)" fill="#ffb699" fill-rule="evenodd"/>
        <path id="Trazado_96128" data-name="Trazado 96128" d="M148.405,77.986h2.181a10.777,10.777,0,0,1,10.755,10.755V109.13a7.853,7.853,0,0,1-7.827,7.827h-8.032a7.854,7.854,0,0,1-7.832-7.827V88.741a10.777,10.777,0,0,1,10.755-10.755Z" transform="translate(-125.634 -57.853)" fill="#167377" fill-rule="evenodd"/>
        <path id="Trazado_96129" data-name="Trazado 96129" d="M139.3,77.421h6.537v2.856a2.887,2.887,0,0,1-2.862,2.9h-.783a2.894,2.894,0,0,1-2.892-2.9Z" transform="translate(-118.842 -60.18)" fill="#e58d6e" fill-rule="evenodd"/>
        <path id="Trazado_96130" data-name="Trazado 96130" d="M145.545,74.25c3.983-.066,7.284,4.054,7.387,9.224s-3.061,9.465-7.044,9.531c-3.952.067-7.284-4.085-7.351-9.26-.1-5.17,3.025-9.424,7.008-9.5Z" transform="translate(-121.991 -73.246)" fill="#ffb699" fill-rule="evenodd"/>
        <path id="Trazado_96131" data-name="Trazado 96131" d="M138.394,81.57H164.2a1.178,1.178,0,0,1,1.182,1.142v17.983a1.178,1.178,0,0,1-1.182,1.142h-25.81a1.152,1.152,0,0,1-1.182-1.142V82.712a1.152,1.152,0,0,1,1.182-1.142Z" transform="translate(-127.438 -43.091)" fill="#f9eff4" fill-rule="evenodd"/>
        <path id="Trazado_96132" data-name="Trazado 96132" d="M142.971,90.3a3.739,3.739,0,1,0-3.737-3.742,3.762,3.762,0,0,0,3.737,3.742Z" transform="translate(-119.11 -37.929)" fill="#c8c6cc" fill-rule="evenodd"/>
        <path id="Trazado_96133" data-name="Trazado 96133" d="M155.88,79.019s-3.071-4.52-7.94-4.94-8.1,4.515-8.1,4.515a2.3,2.3,0,0,0-1.52,2.36c-.067,2.012,1.838,6.2,1.838,6.2l.384-3.276a4.075,4.075,0,0,0,1.024-1.372,3.17,3.17,0,0,0-.21-1.479s2.222,1.3,6.839,1.408a9.194,9.194,0,0,0,3.158-.491,1.586,1.586,0,0,0,.015.563,4.153,4.153,0,0,0,1.019,1.372l.384,3.276s1.914-4.187,1.843-6.2a2.781,2.781,0,0,0-.154-.681A10.878,10.878,0,0,0,155.88,79.019Z" transform="translate(-122.897 -74.053)" fill="#00223d"/>
      </g>
    </g>
  </g>
</svg>
