<svg xmlns="http://www.w3.org/2000/svg" width="59.067" height="250.327" viewBox="0 0 59.067 250.327">
  <g id="Grupo_57037" data-name="Grupo 57037" transform="translate(-393.732 -725.267)">
    <g id="Grupo_10125" data-name="Grupo 10125" transform="translate(426.007 757.753)">
      <path id="Trazado_10044" data-name="Trazado 10044" d="M789.953,294.389c.135.729.2,1.144.348,1.734,1.1,4.317,1.477,5.24.655,10.464l-4.71,11.31-3.975-.617-1.429-17.332s1.931-5.792,2.085-6.178a14.791,14.791,0,0,1,1.736-1.891Z" transform="translate(-772.321 -219.966)" fill="#f0c17d" fill-rule="evenodd"/>
      <path id="Trazado_10045" data-name="Trazado 10045" d="M786.817,234.563c3.749,1.422,5.641,8.76,5.808,16.042l.762,60.143a61.024,61.024,0,0,1-12.405-3.363l-6.931-64.325Z" transform="translate(-774.051 -234.563)" fill="#29343d" fill-rule="evenodd"/>
    </g>
    <path id="Trazado_10046" data-name="Trazado 10046" d="M780.039,381.178a88.945,88.945,0,0,0,5.937,7.314c1.73,1.822,3.861,3.634,5.942,5.556,1.552,1.5,4.363,2.087,5.257,3.818.6,1.169.364,2.566-1.577,3.762-2.063,1.272-5.982,1.157-8.685.7-5.67-.965-10.049-4.715-14.513-8.158l-.414.859c-2.824-1.134-4.051-1.885-4.915-3.868l-.635-4.378c-.013-3.986.656-4.363,2.319-7.967l4.853,1.523Z" transform="translate(-349.983 559.928)" fill="#151717" fill-rule="evenodd"/>
    <path id="Trazado_10047" data-name="Trazado 10047" d="M789.757,293.84c.552,5.77,1.841,11.518,1.655,17.315-.561,17.539-3.179,34.953-3.9,52.479l-1.895,45.907a.925.925,0,0,1-.445.858c-1.565.908-6.744-.611-11.566-3.4-4.028-2.325-6.534-4.8-6.337-6.078l1.961-81.3,1.139-20.533,8.464-2.291Z" transform="translate(-349.774 538.287)" fill="#29343d" fill-rule="evenodd"/>
    <path id="Trazado_10048" data-name="Trazado 10048" d="M767.3,239.152c-11.968,6.911-21.453,18.589-17.568,20.846s16.735-1.516,28.7-8.425,18.618-14.418,14.733-16.676S779.266,232.244,767.3,239.152Z" transform="translate(-354.463 522.901)" fill="#44515c" fill-rule="evenodd"/>
    <path id="Trazado_10049" data-name="Trazado 10049" d="M765.3,229.351a44.822,44.822,0,0,1-.07,12.838l8.5,3.522,1.211-.3,3.694-.664c.212-3.28.423-6.494.753-9.766Z" transform="translate(-350.291 521.862)" fill="#f0c17d" fill-rule="evenodd"/>
    <path id="Trazado_10050" data-name="Trazado 10050" d="M761.692,391.646a89.217,89.217,0,0,0,6.118,7.163c1.775,1.778,3.951,3.536,6.079,5.405,1.591,1.459,4.415,1.977,5.351,3.686.634,1.154.429,2.556-1.481,3.8-2.031,1.322-5.953,1.3-8.666.912-5.693-.823-10.163-4.462-14.713-7.793-.1.368-.092.348-.194.714-1.922-.506-4.518-1.486-5.176-3.091l-.67-4.529c-.113-3.985.545-4.379,2.117-8.025l4.785,1.077Z" transform="translate(-354.596 562.748)" fill="#151717" fill-rule="evenodd"/>
    <path id="Trazado_10051" data-name="Trazado 10051" d="M754.664,306.927c-2.437,39.662-4.065,68.453-5.58,106.275-.665,1.174,1.907,3.848,6.245,6.351a27.455,27.455,0,0,0,9.552,3.621c1.6.163,1.9.026,2.445-.452,2.814-43.869,11.482-83.985,14.514-127.839Z" transform="translate(-354.43 538.553)" fill="#333d45" fill-rule="evenodd"/>
    <path id="Trazado_10052" data-name="Trazado 10052" d="M780.09,236.946c6.831,5.161,7.745,24.528,9.5,33.159l1.545,36.906c-7.767,8.468-19.955,11.3-29.957,11.579l2.777-77.519,1.586-2.158,10.192,4.9,2.124-1.97Z" transform="translate(-351.324 523.797)" fill="#139eab" fill-rule="evenodd"/>
    <path id="Trazado_10053" data-name="Trazado 10053" d="M776.461,237.63c3.4-2.758,8.142-4.719,10.522-2.4,8.7,8.479,2.514,48.869,2.016,59.531-.448,9.587.141,16.4.819,27.158-.083,1.739-.689,7.792-9.765,11.351-1.649-15.687-3.425-29.3-2.255-41.633C779.32,275.624,782.578,250.948,776.461,237.63Z" transform="translate(-347.431 523.099)" fill="#44515c" fill-rule="evenodd"/>
    <path id="Trazado_10054" data-name="Trazado 10054" d="M751.594,337.861c2.76,4.848,19.331,4.836,28.645-2.162,3.36-16.006,2.979-55.84-2.207-72.423-2.562-8.192-4.054-12.478-9.516-20.351l-1.191-2.858c-.93.252-12.145,5.736-16.131,11.781-6,9.1-.36,29.327.719,48.894C753.1,322.346,752.451,328.637,751.594,337.861Z" transform="translate(-354.558 524.592)" fill="#44515c" fill-rule="evenodd"/>
    <path id="Trazado_10055" data-name="Trazado 10055" d="M764.747,240.529c8.743,15.215,14.522,30.1,13.861,49.566a176.944,176.944,0,0,0-11.31-24.474l3.507-5.868-5.735-.772c-.871-5.616-2.913-10.02-4.759-15.288l1.358-2.622,4.808-3.522Z" transform="translate(-351.544 523.95)" fill="#5e6c78" fill-rule="evenodd"/>
    <path id="Trazado_10056" data-name="Trazado 10056" d="M775.358,234.1l4.883.02,5.731,16.929-3.242,3.588,3.937,4.632L778.33,289.61C779.625,272.442,781.7,250.547,775.358,234.1Z" transform="translate(-347.711 523.071)" fill="#5e6c78" fill-rule="evenodd"/>
    <path id="Trazado_10057" data-name="Trazado 10057" d="M793.826,268.349c-.793-.43-3.207-.2-3.512.469l-.405.718-.637,2.24h2.452s1.756-.5,1.814-.773C793.626,270.584,793.8,268.928,793.826,268.349Z" transform="translate(-344.168 531.739)" fill="#f0c17d" fill-rule="evenodd"/>
    <path id="Trazado_10058" data-name="Trazado 10058" d="M765.736,237.114c2.5,1.583,6.916,5.036,9.633,6.325l-2.423,6.025c-6.738-4.711-8.179-6.356-9.371-9.872Z" transform="translate(-350.712 523.84)" fill="#12bdcc" fill-rule="evenodd"/>
    <path id="Trazado_10059" data-name="Trazado 10059" d="M777.117,236.672c-.719,2.685-1.893,4.176-4.159,6.867,1.024,1.743,1.519,2.317,2.548,4.058,2.2-3.977,2.677-4.245,2.09-8.173Z" transform="translate(-348.322 523.727)" fill="#12bdcc" fill-rule="evenodd"/>
    <g id="Grupo_10126" data-name="Grupo 10126" transform="translate(409.087 725.267)">
      <path id="Trazado_10060" data-name="Trazado 10060" d="M785.5,224.457c-.12,4.455.11,6.3-1.548,11.64-.672,2.164-1.522,5.045-2.149,5.467-.829.557-3.406,2.088-4.449,1.932-2.075-.311-6.513-3.192-8.106-4.161-3.373-2.05-3.359-2.334-4.113-6.5l-1.832-5.95L764.418,215c7.056-2.2,13.273-3.67,16.616-2.44C784.391,213.793,785.735,215.709,785.5,224.457Z" transform="translate(-759.869 -207.794)" fill="#ffdba7" fill-rule="evenodd"/>
      <path id="Trazado_10061" data-name="Trazado 10061" d="M766.335,211.322c-10.1,2.7-4.792,17.7-.217,24.444.231-3.465-1.355-7.1.189-8.073.853-.542,3.491-.528,4.872,4.1.472-3.972-.195-4.288.35-8.009.895.464,15.737-3.144,16.261-8.093a37.858,37.858,0,0,1-4.138-3.536C778.752,207.556,770.078,207.751,766.335,211.322Z" transform="translate(-760.566 -208.671)" fill-rule="evenodd"/>
    </g>
    <path id="Trazado_10062" data-name="Trazado 10062" d="M773.237,243.4l-1.848,5.145.247,1.117,1.664,1.12-1.275,5.11c4.049,11.66,5.135,23.214,5.748,36.42,1.535-12.125,2.025-26.841.019-39.672l-2.551-2.752.432-2.595-.179-.962-1.9-3.056Z" transform="translate(-348.722 525.408)" fill="#171e24" fill-rule="evenodd"/>
    <g id="Grupo_10128" data-name="Grupo 10128" transform="translate(405.383 776.681)">
      <g id="Grupo_10127" data-name="Grupo 10127" transform="translate(24.455 0)">
        <path id="Trazado_10063" data-name="Trazado 10063" d="M777.1,257.7l1.271.711v42.374l-1.271-.711Z" transform="translate(-777.104 -247.598)" fill="#5c2205" fill-rule="evenodd"/>
        <path id="Trazado_10064" data-name="Trazado 10064" d="M777.1,259.755l17.131-10.106,1.281.725L778.385,260.48Z" transform="translate(-777.104 -249.649)" fill="#632404" fill-rule="evenodd"/>
        <path id="Trazado_10065" data-name="Trazado 10065" d="M778.11,260.325l17.131-10.106v42.373L778.11,302.7Z" transform="translate(-776.847 -249.504)" fill="#451903" fill-rule="evenodd"/>
      </g>
      <path id="Trazado_10066" data-name="Trazado 10066" d="M784.117,272.509a8.741,8.741,0,0,0,2.92-3.236,3.9,3.9,0,0,1,2.289-2.216,29.521,29.521,0,0,1,3.8-1.149c1.28-.3,1.6,1.531.88,2.147-.464.4-3.375,1.187-3.5,1.932a6.423,6.423,0,0,0,2.681-.626c2.556-.922,2.469-1.393,2.521-2.278,1.089.371,1.178.238,1.888,1.169a4.36,4.36,0,0,1,.556,1.008c.27.61.05,5.053-.051,5.809a2.756,2.756,0,0,1-2.321,2.565,43.444,43.444,0,0,0-7.74,2.43Z" transform="translate(-750.863 -245.516)" fill="#ffdba7" fill-rule="evenodd"/>
      <path id="Trazado_10067" data-name="Trazado 10067" d="M791.837,270.15c-9.273,4.089-14.288,6.145-22.773,10.436-3.7,1.875-7.621,4.933-11.452,7.168,1.021,3.572,1.867,5.975,3.08,7.076,1.96,1.784,4.577.672,8.127-.639,8.1-3,20.156-10.2,27.071-15.06Z" transform="translate(-757.613 -244.428)" fill="#5e6c78" fill-rule="evenodd"/>
    </g>
    <path id="Trazado_10068" data-name="Trazado 10068" d="M760.974,250.007c7.246,7.942,10.029,31.25,12.316,42.233l-11.364,6.866c-4.029-11.282-11.468-26.789-13.169-38.083-.738-4.895.212-9.882,4.036-12.947C755.119,246.21,758.137,246.9,760.974,250.007Z" transform="translate(-354.545 526.369)" fill="#5e6c78" fill-rule="evenodd"/>
  </g>
</svg>
