<svg xmlns="http://www.w3.org/2000/svg" xmlns:xlink="http://www.w3.org/1999/xlink" width="428.211" height="297.796" viewBox="0 0 428.211 297.796">
  <defs>
    <linearGradient id="linear-gradient" x1="0.5" x2="0.5" y2="1" gradientUnits="objectBoundingBox">
      <stop offset="0" stop-color="#fff"/>
      <stop offset="1" stop-color="#d2e6ee"/>
    </linearGradient>
    <linearGradient id="linear-gradient-5" y1="0.5" x2="1" y2="0.5" gradientUnits="objectBoundingBox">
      <stop offset="0" stop-color="#ff928e"/>
      <stop offset="1" stop-color="#feb3b1"/>
    </linearGradient>
    <linearGradient id="linear-gradient-8" x1="294.087" y1="1.605" x2="296.088" y2="4.278" xlink:href="#linear-gradient-5"/>
    <linearGradient id="linear-gradient-9" x1="0.439" y1="-3.503" x2="0.505" y2="0.689" xlink:href="#linear-gradient-5"/>
    <linearGradient id="linear-gradient-10" x1="0.511" y1="0.146" x2="0.456" y2="1.705" xlink:href="#linear-gradient-5"/>
    <linearGradient id="linear-gradient-11" x1="-47.545" y1="17.427" x2="-48.867" y2="15.942" xlink:href="#linear-gradient-5"/>
    <linearGradient id="linear-gradient-12" x1="-155.484" y1="82.575" x2="-159.791" y2="75.375" xlink:href="#linear-gradient-5"/>
    <linearGradient id="linear-gradient-13" x1="0.5" x2="0.5" y2="1" gradientUnits="objectBoundingBox">
      <stop offset="0" stop-color="#fff"/>
      <stop offset="1" stop-color="#d3d3d3"/>
    </linearGradient>
    <linearGradient id="linear-gradient-25" x1="1.66" y1="1.186" x2="0.085" y2="0.256" xlink:href="#linear-gradient-5"/>
    <linearGradient id="linear-gradient-26" x1="0.892" y1="0.928" x2="-0.916" y2="-1.638" xlink:href="#linear-gradient-5"/>
    <linearGradient id="linear-gradient-27" y1="0.5" x2="1" y2="0.5" gradientUnits="objectBoundingBox">
      <stop offset="0" stop-color="#dae3fe"/>
      <stop offset="1" stop-color="#e9effd"/>
    </linearGradient>
    <linearGradient id="linear-gradient-28" x1="0" y1="0.5" x2="1" y2="0.5" xlink:href="#linear-gradient-27"/>
    <linearGradient id="linear-gradient-40" x1="0" y1="0.5" x2="1" y2="0.5" xlink:href="#linear-gradient-27"/>
    <linearGradient id="linear-gradient-41" x1="0" y1="0.5" x2="1" y2="0.5" xlink:href="#linear-gradient-27"/>
    <linearGradient id="linear-gradient-45" x1="0" y1="0.5" x2="1" y2="0.5" xlink:href="#linear-gradient-27"/>
    <linearGradient id="linear-gradient-49" x1="0" y1="0.5" x2="1" y2="0.5" xlink:href="#linear-gradient-27"/>
    <linearGradient id="linear-gradient-126" x1="0" y1="0.5" x2="1" y2="0.5" xlink:href="#linear-gradient-27"/>
  </defs>
  <g id="Grupo_46190" data-name="Grupo 46190" transform="translate(-323.582 -253.746)">
    <g id="Grupo_46161" data-name="Grupo 46161" transform="translate(323.582 289.107)">
      <path id="Trazado_96199" data-name="Trazado 96199" d="M323.582,427.564V624.576c0,16.207,12.45,29.46,28.069,29.878,69.369,1.855,311.989,6.355,378.024,5.345,11.35-.173,20.544-9.6,20.871-21.365,1.273-45.769,3.341-155.827-4.312-206.922a22.11,22.11,0,0,0-20.86-19.155c-58.122-1.929-315.316-8.053-381.32-6.516C332.672,406.107,323.582,415.753,323.582,427.564Z" transform="translate(-323.582 -405.597)" fill="#00223d"/>
      <path id="Trazado_96200" data-name="Trazado 96200" d="M374.757,451.82V638.995c0,9.463,7.323,17.173,16.444,17.314l368.232,4.719c9.043.14,16.455-7.407,16.489-16.788l.616-185.5a12.125,12.125,0,0,0-11.592-12.367l-377-7.9A13.106,13.106,0,0,0,374.757,451.82Z" transform="translate(-362.84 -430.812)" fill="#f1f1f1"/>
      <path id="Trazado_96201" data-name="Trazado 96201" d="M777.231,1400.346h-.008l-403.936-7.139a.444.444,0,0,1-.436-.452.456.456,0,0,1,.452-.436l403.936,7.14a.444.444,0,0,1-.008.888Z" transform="translate(-361.378 -1162.544)" fill="#fff" opacity="0.65"/>
    </g>
    <g id="Grupo_46178" data-name="Grupo 46178" transform="translate(347.969 315.259)">
      <path id="Trazado_96202" data-name="Trazado 96202" d="M543.209,937.127H436.7a5.815,5.815,0,0,1-5.815-5.814V920.745a4.284,4.284,0,0,1,4.284-4.284H544.74a4.284,4.284,0,0,1,4.284,4.284v10.567A5.815,5.815,0,0,1,543.209,937.127Z" transform="translate(-430.286 -823.65)" fill="#707070" opacity="0.37"/>
      <path id="Trazado_96203" data-name="Trazado 96203" d="M543.209,1112.978H436.7a5.814,5.814,0,0,1-5.815-5.815v-57.5a4.284,4.284,0,0,1,4.284-4.284H544.74a4.284,4.284,0,0,1,4.284,4.284v57.5A5.815,5.815,0,0,1,543.209,1112.978Z" transform="translate(-430.286 -922.549)" fill="#707070" opacity="0.37"/>
      <path id="Trazado_96204" data-name="Trazado 96204" d="M1105.957,937.127H999.449a5.815,5.815,0,0,1-5.814-5.814V920.745a4.284,4.284,0,0,1,4.284-4.284h109.568a4.284,4.284,0,0,1,4.284,4.284v10.567A5.814,5.814,0,0,1,1105.957,937.127Z" transform="translate(-861.989 -823.65)" fill="#707070" opacity="0.37"/>
      <path id="Trazado_96205" data-name="Trazado 96205" d="M1105.957,1112.978H999.449a5.814,5.814,0,0,1-5.814-5.815v-57.5a4.284,4.284,0,0,1,4.284-4.284h109.568a4.284,4.284,0,0,1,4.284,4.284v57.5A5.814,5.814,0,0,1,1105.957,1112.978Z" transform="translate(-861.989 -922.549)" fill="#707070" opacity="0.37"/>
      <path id="Trazado_96206" data-name="Trazado 96206" d="M1668.7,937.127H1562.2a5.814,5.814,0,0,1-5.814-5.814V920.745a4.284,4.284,0,0,1,4.284-4.284h109.568a4.284,4.284,0,0,1,4.284,4.284v10.567A5.815,5.815,0,0,1,1668.7,937.127Z" transform="translate(-1293.691 -823.65)" fill="#707070" opacity="0.37"/>
      <path id="Trazado_96207" data-name="Trazado 96207" d="M1668.7,1112.978H1562.2a5.814,5.814,0,0,1-5.814-5.815v-57.5a4.284,4.284,0,0,1,4.284-4.284h109.568a4.284,4.284,0,0,1,4.284,4.284v57.5A5.815,5.815,0,0,1,1668.7,1112.978Z" transform="translate(-1293.691 -922.549)" fill="#707070" opacity="0.37"/>
      <g id="Grupo_46162" data-name="Grupo 46162" transform="translate(0)">
        <path id="Trazado_96208" data-name="Trazado 96208" d="M429.045,531.6c-.306,13.137-2.81,55.218,3.587,64.221,9.055,12.744,85.181,6.707,103.793,1.677s9.558-52.316,7.546-65.9-39.636-14.085-67.355-13.582S429.315,520.034,429.045,531.6Z" transform="translate(-428.308 -517.903)" fill="#f6c343"/>
        <path id="Trazado_96209" data-name="Trazado 96209" d="M903.508,612.459a.78.78,0,0,1-.775-.693c-.641-5.679-1.462-10.888-2.063-14.69l-.244-1.55a.781.781,0,0,1,1.542-.241l.244,1.548c.6,3.817,1.427,9.045,2.072,14.758a.781.781,0,0,1-.688.863A.761.761,0,0,1,903.508,612.459Z" transform="translate(-790.479 -576.759)" fill="#fff"/>
        <path id="Trazado_96210" data-name="Trazado 96210" d="M811.787,744.51a.781.781,0,0,1-.1-1.554A116.248,116.248,0,0,0,825.3,740.5c7.361-1.989,10.63-12.26,9.716-30.528a.78.78,0,0,1,.741-.818.8.8,0,0,1,.818.741c.956,19.1-2.7,29.906-10.868,32.113a117.721,117.721,0,0,1-13.811,2.492A.8.8,0,0,1,811.787,744.51Z" transform="translate(-721.889 -664.62)" fill="#fff"/>
        <path id="Trazado_96211" data-name="Trazado 96211" d="M450.4,734.439a.781.781,0,0,1-.777-.71c-.35-3.858-.557-8.526-.615-13.874a.781.781,0,0,1,1.561-.017c.058,5.306.263,9.932.609,13.749a.781.781,0,0,1-.707.848Z" transform="translate(-444.187 -672.222)" opacity="0.56" fill="url(#linear-gradient)"/>
        <path id="Trazado_96212" data-name="Trazado 96212" d="M450.759,562.263h-.023a.781.781,0,0,1-.757-.8c.076-2.535.159-4.9.233-7.006.083-2.36.154-4.391.191-5.964.218-9.352,12.707-11.843,31.391-12.708a.781.781,0,1,1,.072,1.56c-21.077.975-29.74,4.215-29.9,11.184-.037,1.578-.108,3.615-.192,5.983-.074,2.1-.157,4.466-.233,7A.78.78,0,0,1,450.759,562.263Z" transform="translate(-444.932 -531.618)" fill="#fff"/>
        <path id="Trazado_96213" data-name="Trazado 96213" d="M599.5,637.551a1.668,1.668,0,0,1-1.418-2.543l29.068-47.176a1.668,1.668,0,0,1,2.84,1.75l-29.068,47.176A1.668,1.668,0,0,1,599.5,637.551Z" transform="translate(-558.358 -570.939)" fill="#fff"/>
        <path id="Trazado_96214" data-name="Trazado 96214" d="M540.688,656.138a1.663,1.663,0,0,1-1.237-.549l-11.338-12.532a7.624,7.624,0,0,1-1.881-5.625,7.409,7.409,0,0,1,2.538-5.171l11.947-10.042a1.668,1.668,0,0,1,2.146,2.553l-11.947,10.042a4.062,4.062,0,0,0-1.357,2.845,4.276,4.276,0,0,0,1.027,3.159l11.337,12.532a1.668,1.668,0,0,1-1.236,2.787Z" transform="translate(-503.415 -597.627)" fill="#fff"/>
        <path id="Trazado_96215" data-name="Trazado 96215" d="M744.489,656.138a1.668,1.668,0,0,1-1.236-2.787L754.59,640.82a4.278,4.278,0,0,0,1.027-3.16,4.063,4.063,0,0,0-1.357-2.845l-11.947-10.042a1.668,1.668,0,1,1,2.146-2.553l11.947,10.042a7.409,7.409,0,0,1,2.538,5.171,7.626,7.626,0,0,1-1.881,5.625l-11.338,12.531A1.663,1.663,0,0,1,744.489,656.138Z" transform="translate(-668.736 -597.627)" fill="#fff"/>
      </g>
      <g id="Grupo_46164" data-name="Grupo 46164" transform="translate(131.829 0.477)">
        <path id="Trazado_96216" data-name="Trazado 96216" d="M995.157,533.65c-.306,13.137-2.81,55.218,3.587,64.221,9.055,12.744,85.181,6.707,103.793,1.677s9.558-52.316,7.546-65.9-39.636-14.085-67.355-13.582S995.427,522.081,995.157,533.65Z" transform="translate(-994.42 -519.949)" fill="#00223d"/>
        <path id="Trazado_96217" data-name="Trazado 96217" d="M1469.621,612.459a.781.781,0,0,1-.775-.693c-.641-5.679-1.462-10.888-2.063-14.69l-.243-1.55a.78.78,0,1,1,1.542-.241l.244,1.548c.6,3.817,1.427,9.045,2.072,14.758a.78.78,0,0,1-.688.863A.764.764,0,0,1,1469.621,612.459Z" transform="translate(-1356.591 -577.235)" fill="#fff"/>
        <path id="Trazado_96218" data-name="Trazado 96218" d="M1377.9,744.51a.781.781,0,0,1-.1-1.554,116.258,116.258,0,0,0,13.611-2.452c7.36-1.989,10.63-12.26,9.716-30.528a.78.78,0,0,1,.741-.818.8.8,0,0,1,.818.741c.956,19.1-2.7,29.906-10.868,32.113A117.726,117.726,0,0,1,1378,744.5.794.794,0,0,1,1377.9,744.51Z" transform="translate(-1288.001 -665.096)" fill="#fff"/>
        <path id="Trazado_96219" data-name="Trazado 96219" d="M1016.512,734.439a.781.781,0,0,1-.777-.71c-.349-3.858-.557-8.526-.615-13.874a.781.781,0,0,1,1.561-.017c.058,5.306.263,9.932.609,13.749a.781.781,0,0,1-.707.848Z" transform="translate(-1010.299 -672.698)" fill="#fff"/>
        <path id="Trazado_96220" data-name="Trazado 96220" d="M1016.872,562.263h-.024a.781.781,0,0,1-.757-.8c.076-2.535.16-4.9.233-7.006.083-2.36.154-4.391.192-5.964.218-9.352,12.707-11.843,31.391-12.708a.781.781,0,1,1,.072,1.56c-21.076.975-29.74,4.215-29.9,11.184-.036,1.578-.108,3.615-.192,5.983-.074,2.1-.157,4.466-.233,7A.78.78,0,0,1,1016.872,562.263Z" transform="translate(-1011.044 -532.094)" fill="#fff"/>
        <g id="Grupo_46163" data-name="Grupo 46163" transform="translate(29.402 9.587)">
          <path id="Trazado_96221" data-name="Trazado 96221" d="M1253.314,592.333a1.667,1.667,0,0,1-1.641-1.964l5.033-27.877a1.668,1.668,0,0,1,1.949-1.343,30.333,30.333,0,0,1,24.357,25.2,1.668,1.668,0,0,1-1.41,1.9l-28.049,4.065A1.656,1.656,0,0,1,1253.314,592.333Zm6.367-27.544-4.314,23.893,24.042-3.484A27,27,0,0,0,1259.681,564.789Z" transform="translate(-1221.148 -561.121)" fill="#fff"/>
          <path id="Trazado_96222" data-name="Trazado 96222" d="M1145.459,664.907a24.779,24.779,0,1,1,4.6-49.125,1.667,1.667,0,0,1,1.333,1.935l-3.645,20.189,20.315-2.944a1.671,1.671,0,0,1,1.888,1.4,24.8,24.8,0,0,1-24.495,28.546Zm0-46.223a21.444,21.444,0,1,0,21.444,21.444c0-.539-.02-1.08-.06-1.617l-20.906,3.03a1.668,1.668,0,0,1-1.881-1.947l3.752-20.778A21.271,21.271,0,0,0,1145.459,618.684Z" transform="translate(-1120.68 -602.72)" fill="#fff"/>
        </g>
      </g>
      <g id="Grupo_46165" data-name="Grupo 46165" transform="translate(263.657 0.477)">
        <path id="Trazado_96223" data-name="Trazado 96223" d="M1561.27,533.65c-.307,13.137-2.81,55.218,3.587,64.221,9.055,12.744,85.181,6.707,103.793,1.677s9.557-52.316,7.545-65.9-39.636-14.085-67.355-13.582S1561.54,522.081,1561.27,533.65Z" transform="translate(-1560.533 -519.949)" fill="#26aab7"/>
        <path id="Trazado_96224" data-name="Trazado 96224" d="M2035.733,612.459a.781.781,0,0,1-.774-.693c-.641-5.679-1.462-10.888-2.063-14.69l-.244-1.55a.781.781,0,0,1,1.542-.241l.243,1.548c.6,3.817,1.427,9.045,2.072,14.758a.78.78,0,0,1-.688.863A.761.761,0,0,1,2035.733,612.459Z" transform="translate(-1922.704 -577.235)" fill="#fff"/>
        <path id="Trazado_96225" data-name="Trazado 96225" d="M1944.012,744.51a.781.781,0,0,1-.1-1.554,116.233,116.233,0,0,0,13.611-2.452c7.361-1.989,10.63-12.26,9.716-30.528a.78.78,0,0,1,.74-.818.8.8,0,0,1,.819.741c.956,19.1-2.7,29.906-10.868,32.113a117.712,117.712,0,0,1-13.811,2.492A.8.8,0,0,1,1944.012,744.51Z" transform="translate(-1854.114 -665.096)" fill="#fff"/>
        <path id="Trazado_96226" data-name="Trazado 96226" d="M1582.625,734.439a.78.78,0,0,1-.777-.71c-.35-3.858-.557-8.526-.615-13.874a.781.781,0,0,1,1.562-.017c.058,5.306.263,9.932.609,13.749a.781.781,0,0,1-.707.848Z" transform="translate(-1576.412 -672.698)" fill="#fff"/>
        <path id="Trazado_96227" data-name="Trazado 96227" d="M1582.985,562.263h-.024a.781.781,0,0,1-.757-.8c.076-2.535.159-4.9.233-7.006.083-2.36.154-4.391.191-5.964.218-9.352,12.707-11.843,31.391-12.708a.781.781,0,1,1,.073,1.56c-21.077.975-29.74,4.215-29.9,11.184-.036,1.578-.108,3.615-.192,5.983-.074,2.1-.157,4.466-.233,7A.78.78,0,0,1,1582.985,562.263Z" transform="translate(-1577.157 -532.094)" fill="#fff"/>
        <path id="Trazado_96228" data-name="Trazado 96228" d="M1754.834,648.9a2.007,2.007,0,0,1-2.006-1.953l-.917-34.234a3.233,3.233,0,0,1,4.6-3.015l33.817,15.817a3.233,3.233,0,0,1,.152,5.78l-29.852,15.914a2.007,2.007,0,0,1-1.888-3.542l28.471-15.178-31.254-14.617.883,32.968a2.008,2.008,0,0,1-1.953,2.061Z" transform="translate(-1707.345 -588.562)" fill="#fff"/>
      </g>
      <g id="Grupo_46169" data-name="Grupo 46169" transform="translate(35.085 68.242)">
        <g id="Grupo_46166" data-name="Grupo 46166" transform="translate(0 24.763)">
          <path id="Trazado_96229" data-name="Trazado 96229" d="M613.34,924.407l-5.894-5.749a4.8,4.8,0,0,0-3.352-1.364H591.309A4.8,4.8,0,0,0,588,918.618l-6.031,5.744a4.8,4.8,0,0,0-1.488,3.349l-1.5,56.781a4.8,4.8,0,0,0,4.8,4.928H612.62a4.8,4.8,0,0,0,4.8-5.024l-2.632-56.775A4.8,4.8,0,0,0,613.34,924.407Zm-15.541,2.96a3.587,3.587,0,1,1,2.928-2.928A3.59,3.59,0,0,1,597.8,927.367Z" transform="translate(-578.973 -917.294)" fill="url(#linear-gradient)"/>
        </g>
        <path id="Trazado_96230" data-name="Trazado 96230" d="M608.774,995.871l21.287-3.615a1.387,1.387,0,0,1,1.619,1.367v1.2a1.387,1.387,0,0,1-1.231,1.378l-21.287,2.41a1.387,1.387,0,0,1-1.543-1.378h0A1.386,1.386,0,0,1,608.774,995.871Z" transform="translate(-600.948 -950.022)" fill="#00223d"/>
        <path id="Trazado_96231" data-name="Trazado 96231" d="M608.774,1023.163l21.287-3.615a1.387,1.387,0,0,1,1.619,1.367v1.2a1.387,1.387,0,0,1-1.231,1.378l-21.287,2.41a1.387,1.387,0,0,1-1.543-1.378h0A1.387,1.387,0,0,1,608.774,1023.163Z" transform="translate(-600.948 -970.959)" fill="#00223d"/>
        <g id="Grupo_46168" data-name="Grupo 46168" transform="translate(4.669 63.169)">
          <circle id="Elipse_3872" data-name="Elipse 3872" cx="11.803" cy="11.803" r="11.803" transform="translate(0 22.975) rotate(-76.717)" fill="#00223d"/>
          <circle id="Elipse_3873" data-name="Elipse 3873" cx="11.411" cy="11.411" r="11.411" transform="translate(1.48 4.268) rotate(-7.018)" fill="#f6c343"/>
          <path id="Trazado_96232" data-name="Trazado 96232" d="M618.129,1102.742a.444.444,0,0,1-.4-.644,10.931,10.931,0,0,1,9.805-6.037,11.058,11.058,0,0,1,1.98.178.444.444,0,1,1-.159.873,10.15,10.15,0,0,0-1.82-.164,10.047,10.047,0,0,0-9.013,5.549A.444.444,0,0,1,618.129,1102.742Z" transform="translate(-613.339 -1092.839)" fill="#fff" opacity="0.61"/>
          <circle id="Elipse_3874" data-name="Elipse 3874" cx="9.658" cy="9.658" r="9.658" transform="translate(0.79 14.448) rotate(-45)" fill="#fff" opacity="0.61"/>
          <g id="Grupo_46167" data-name="Grupo 46167" transform="translate(10.194 7.613)">
            <path id="Trazado_96233" data-name="Trazado 96233" d="M646.1,1128.931v-1.051a8.577,8.577,0,0,1-2.948-.639.608.608,0,0,1-.336-.718l.267-.978a.613.613,0,0,1,.832-.4,7.114,7.114,0,0,0,2.722.573c1.055,0,1.842-.358,1.842-1.091,0-.662-.608-1.055-2.074-1.448-2.092-.572-3.594-1.484-3.594-3.326,0-1.663,1.216-2.932,3.326-3.272v-1.051a.612.612,0,0,1,.612-.612h.617a.612.612,0,0,1,.612.612v.943a7.817,7.817,0,0,1,2.337.42.609.609,0,0,1,.381.736l-.246.905a.61.61,0,0,1-.806.412,6.383,6.383,0,0,0-2.292-.416c-1.252,0-1.609.519-1.609.983,0,.572.751.966,2.378,1.466,2.324.7,3.29,1.663,3.29,3.4,0,1.591-1.18,3.022-3.469,3.38v1.176a.612.612,0,0,1-.612.612h-.617A.613.613,0,0,1,646.1,1128.931Z" transform="translate(-642.799 -1114.916)" fill="#f6c343"/>
          </g>
        </g>
        <path id="Trazado_96234" data-name="Trazado 96234" d="M630.256,844.553a.909.909,0,0,1-.84-.561c-1.557-3.769.223-7.838,1.991-10.588.539-.838,1.125-1.66,1.692-2.454a22.572,22.572,0,0,0,3.507-6.159,11.038,11.038,0,0,0-2.114-10.288,7.027,7.027,0,0,0-7.4-1.106c-2.363,1.246-5.719,5.617-1.644,20.9a.908.908,0,0,1-1.755.468c-4.179-15.672-.919-21.142,2.552-22.972a8.7,8.7,0,0,1,9.628,1.529,12.892,12.892,0,0,1,2.469,12.015A24.264,24.264,0,0,1,634.578,832c-.554.777-1.127,1.58-1.643,2.382-1.256,1.953-3.164,5.707-1.84,8.912a.908.908,0,0,1-.839,1.255Z" transform="translate(-611.767 -810.956)" fill="#00223d"/>
      </g>
      <g id="Grupo_46173" data-name="Grupo 46173" transform="translate(170.401 68.242)">
        <g id="Grupo_46170" data-name="Grupo 46170" transform="translate(0 24.763)">
          <path id="Trazado_96235" data-name="Trazado 96235" d="M1194.431,924.407l-5.894-5.749a4.8,4.8,0,0,0-3.352-1.364H1172.4a4.8,4.8,0,0,0-3.311,1.324l-6.031,5.744a4.8,4.8,0,0,0-1.489,3.349l-1.5,56.781a4.8,4.8,0,0,0,4.8,4.928h28.846a4.8,4.8,0,0,0,4.8-5.024l-2.632-56.775A4.8,4.8,0,0,0,1194.431,924.407Zm-15.541,2.96a3.587,3.587,0,1,1,2.928-2.928A3.59,3.59,0,0,1,1178.889,927.367Z" transform="translate(-1160.063 -917.294)" fill="url(#linear-gradient)"/>
        </g>
        <path id="Trazado_96236" data-name="Trazado 96236" d="M1189.865,995.871l21.286-3.615a1.387,1.387,0,0,1,1.619,1.367v1.2a1.387,1.387,0,0,1-1.231,1.378l-21.286,2.41a1.387,1.387,0,0,1-1.543-1.378h0A1.386,1.386,0,0,1,1189.865,995.871Z" transform="translate(-1182.039 -950.022)" fill="#00223d"/>
        <path id="Trazado_96237" data-name="Trazado 96237" d="M1189.865,1023.163l21.286-3.615a1.387,1.387,0,0,1,1.619,1.367v1.2a1.387,1.387,0,0,1-1.231,1.378l-21.286,2.41a1.387,1.387,0,0,1-1.543-1.378h0A1.387,1.387,0,0,1,1189.865,1023.163Z" transform="translate(-1182.039 -970.959)" fill="#00223d"/>
        <g id="Grupo_46172" data-name="Grupo 46172" transform="translate(3.447 61.947)">
          <circle id="Elipse_3875" data-name="Elipse 3875" cx="11.803" cy="11.803" r="11.803" transform="translate(0 21.809) rotate(-67.5)" fill="#00223d"/>
          <circle id="Elipse_3876" data-name="Elipse 3876" cx="11.411" cy="11.411" r="11.411" transform="matrix(0.973, -0.23, 0.23, 0.973, 1.695, 6.938)" fill="#f6c343"/>
          <path id="Trazado_96238" data-name="Trazado 96238" d="M1199.219,1102.742a.444.444,0,0,1-.4-.644,10.931,10.931,0,0,1,9.805-6.037,11.057,11.057,0,0,1,1.98.178.444.444,0,0,1-.16.873,10.151,10.151,0,0,0-1.821-.164,10.047,10.047,0,0,0-9.013,5.549A.444.444,0,0,1,1199.219,1102.742Z" transform="translate(-1193.207 -1091.617)" fill="#fff" opacity="0.61"/>
          <circle id="Elipse_3877" data-name="Elipse 3877" cx="9.658" cy="9.658" r="9.658" transform="translate(3.052 10.443) rotate(-22.5)" fill="#fff" opacity="0.61"/>
          <g id="Grupo_46171" data-name="Grupo 46171" transform="translate(11.416 8.835)">
            <path id="Trazado_96239" data-name="Trazado 96239" d="M1227.2,1128.931v-1.051a8.577,8.577,0,0,1-2.948-.639.609.609,0,0,1-.336-.718l.267-.978a.613.613,0,0,1,.832-.4,7.116,7.116,0,0,0,2.722.573c1.055,0,1.842-.358,1.842-1.091,0-.662-.608-1.055-2.074-1.448-2.092-.572-3.594-1.484-3.594-3.326,0-1.663,1.216-2.932,3.326-3.272v-1.051a.612.612,0,0,1,.612-.612h.618a.612.612,0,0,1,.612.612v.943a7.819,7.819,0,0,1,2.337.42.609.609,0,0,1,.381.736l-.245.905a.61.61,0,0,1-.806.412,6.383,6.383,0,0,0-2.292-.416c-1.252,0-1.609.519-1.609.983,0,.572.751.966,2.378,1.466,2.325.7,3.29,1.663,3.29,3.4,0,1.591-1.18,3.022-3.469,3.38v1.176a.612.612,0,0,1-.612.612h-.618A.612.612,0,0,1,1227.2,1128.931Z" transform="translate(-1223.889 -1114.916)" fill="#f6c343"/>
          </g>
        </g>
        <path id="Trazado_96240" data-name="Trazado 96240" d="M1211.347,844.553a.908.908,0,0,1-.839-.561c-1.557-3.769.223-7.838,1.991-10.588.539-.838,1.125-1.66,1.692-2.454a22.566,22.566,0,0,0,3.506-6.159,11.038,11.038,0,0,0-2.114-10.288,7.026,7.026,0,0,0-7.4-1.106c-2.363,1.246-5.719,5.617-1.645,20.9a.908.908,0,0,1-1.755.468c-4.179-15.672-.919-21.142,2.552-22.972a8.7,8.7,0,0,1,9.628,1.529,12.892,12.892,0,0,1,2.469,12.015,24.262,24.262,0,0,1-3.761,6.669c-.554.777-1.127,1.58-1.643,2.382-1.255,1.953-3.164,5.707-1.84,8.912a.908.908,0,0,1-.839,1.255Z" transform="translate(-1192.858 -810.956)" fill="#00223d"/>
      </g>
      <g id="Grupo_46177" data-name="Grupo 46177" transform="translate(305.718 68.242)">
        <g id="Grupo_46174" data-name="Grupo 46174" transform="translate(0 24.763)">
          <path id="Trazado_96241" data-name="Trazado 96241" d="M1775.521,924.407l-5.894-5.749a4.8,4.8,0,0,0-3.352-1.364H1753.49a4.8,4.8,0,0,0-3.311,1.324l-6.031,5.744a4.8,4.8,0,0,0-1.488,3.349l-1.5,56.781a4.8,4.8,0,0,0,4.8,4.928H1774.8a4.8,4.8,0,0,0,4.8-5.024l-2.632-56.775A4.8,4.8,0,0,0,1775.521,924.407Zm-15.541,2.96a3.587,3.587,0,1,1,2.928-2.928A3.59,3.59,0,0,1,1759.98,927.367Z" transform="translate(-1741.153 -917.294)" fill="url(#linear-gradient)"/>
        </g>
        <path id="Trazado_96242" data-name="Trazado 96242" d="M1770.955,995.871l21.287-3.615a1.387,1.387,0,0,1,1.619,1.367v1.2a1.387,1.387,0,0,1-1.23,1.378l-21.287,2.41a1.387,1.387,0,0,1-1.543-1.378h0A1.386,1.386,0,0,1,1770.955,995.871Z" transform="translate(-1763.129 -950.022)" fill="#00223d"/>
        <path id="Trazado_96243" data-name="Trazado 96243" d="M1770.955,1023.163l21.287-3.615a1.387,1.387,0,0,1,1.619,1.367v1.2a1.387,1.387,0,0,1-1.23,1.378l-21.287,2.41a1.387,1.387,0,0,1-1.543-1.378h0A1.387,1.387,0,0,1,1770.955,1023.163Z" transform="translate(-1763.129 -970.959)" fill="#00223d"/>
        <g id="Grupo_46176" data-name="Grupo 46176" transform="translate(5.553 64.054)">
          <circle id="Elipse_3878" data-name="Elipse 3878" cx="11.803" cy="11.803" r="11.803" transform="matrix(0.138, -0.99, 0.99, 0.138, 0, 23.382)" fill="#00223d"/>
          <circle id="Elipse_3879" data-name="Elipse 3879" cx="11.411" cy="11.411" r="11.411" transform="translate(0.625 3.345) rotate(-6.845)" fill="#f6c343"/>
          <path id="Trazado_96244" data-name="Trazado 96244" d="M1780.31,1102.742a.444.444,0,0,1-.4-.644,10.931,10.931,0,0,1,9.805-6.037,11.053,11.053,0,0,1,1.98.178.444.444,0,1,1-.16.873,10.106,10.106,0,0,0-10.833,5.385A.444.444,0,0,1,1780.31,1102.742Z" transform="translate(-1776.405 -1093.724)" fill="#fff" opacity="0.61"/>
          <circle id="Elipse_3880" data-name="Elipse 3880" cx="9.658" cy="9.658" r="9.658" transform="translate(2.28 5.866) rotate(-10.699)" fill="#fff" opacity="0.61"/>
          <g id="Grupo_46175" data-name="Grupo 46175" transform="translate(9.309 6.728)">
            <path id="Trazado_96245" data-name="Trazado 96245" d="M1808.285,1128.931v-1.051a8.576,8.576,0,0,1-2.948-.639.609.609,0,0,1-.336-.718l.267-.978a.613.613,0,0,1,.832-.4,7.116,7.116,0,0,0,2.722.573c1.055,0,1.842-.358,1.842-1.091,0-.662-.608-1.055-2.074-1.448-2.092-.572-3.594-1.484-3.594-3.326,0-1.663,1.216-2.932,3.326-3.272v-1.051a.612.612,0,0,1,.612-.612h.617a.612.612,0,0,1,.612.612v.943a7.819,7.819,0,0,1,2.337.42.609.609,0,0,1,.381.736l-.246.905a.61.61,0,0,1-.806.412,6.385,6.385,0,0,0-2.292-.416c-1.252,0-1.609.519-1.609.983,0,.572.751.966,2.378,1.466,2.324.7,3.29,1.663,3.29,3.4,0,1.591-1.18,3.022-3.469,3.38v1.176a.612.612,0,0,1-.612.612h-.618A.613.613,0,0,1,1808.285,1128.931Z" transform="translate(-1804.979 -1114.916)" fill="#f6c343"/>
          </g>
        </g>
        <path id="Trazado_96246" data-name="Trazado 96246" d="M1792.438,844.553a.909.909,0,0,1-.84-.561c-1.557-3.769.223-7.838,1.991-10.588.539-.838,1.125-1.66,1.692-2.454a22.567,22.567,0,0,0,3.507-6.159,11.04,11.04,0,0,0-2.114-10.288,7.027,7.027,0,0,0-7.4-1.106c-2.363,1.246-5.719,5.617-1.644,20.9a.908.908,0,0,1-1.755.468c-4.179-15.672-.918-21.142,2.553-22.972a8.7,8.7,0,0,1,9.628,1.529,12.892,12.892,0,0,1,2.469,12.015,24.269,24.269,0,0,1-3.761,6.669c-.554.777-1.127,1.58-1.643,2.382-1.256,1.953-3.165,5.707-1.84,8.912a.908.908,0,0,1-.839,1.255Z" transform="translate(-1773.948 -810.956)" fill="#00223d"/>
      </g>
    </g>
    <g id="Grupo_46186" data-name="Grupo 46186" transform="translate(431.99 382.955)">
      <path id="Trazado_96247" data-name="Trazado 96247" d="M945.206,1485.612s-.581,3.29-.866,6.546a2.243,2.243,0,0,0,2.146,2.431c4.336.181,13.612.532,16.94.383a.73.73,0,0,0,.642-1h0a1.634,1.634,0,0,0-.836-.881l-15.322-7.042Z" transform="translate(-908.187 -1327.961)" fill="#d5f2e8"/>
      <path id="Trazado_96248" data-name="Trazado 96248" d="M946.042,1475.31l.467,3.935s2.684,1.25,4.517-.157l-1.111-4.385Z" transform="translate(-909.5 -1319.592)" fill="url(#linear-gradient-5)"/>
      <path id="Trazado_96249" data-name="Trazado 96249" d="M907.463,1159.646c-.2,1.027-1.082,51.275,4.289,73.792a.764.764,0,0,1-.448.889,13.312,13.312,0,0,1-4.374.889,1.317,1.317,0,0,1-1.306-.945c-1.535-5.224-8.892-31.4-9.852-56.405-1.072-27.941,0-.951,0-.951l.629-17.271Z" transform="translate(-870.57 -1077.9)" fill="#7d6eb2"/>
      <path id="Trazado_96250" data-name="Trazado 96250" d="M866.311,1492.981a23.668,23.668,0,0,0-1.82,6.073,1.369,1.369,0,0,0,1.2,1.639c1.432.141,3.636.322,5.4.31a1.365,1.365,0,0,0,1.351-1.522,11.511,11.511,0,0,0-2.687-6.313Z" transform="translate(-846.918 -1333.614)" fill="#d5f2e8"/>
      <path id="Trazado_96251" data-name="Trazado 96251" d="M868.912,1470.487l1.091,5.95a3.847,3.847,0,0,0,3.212.22l-.521-6.4Z" transform="translate(-850.331 -1316.181)" fill="url(#linear-gradient-5)"/>
      <path id="Trazado_96252" data-name="Trazado 96252" d="M850.686,1157.113c-4.393,26.511.953,65.524,2.756,73.16a1.19,1.19,0,0,0,.962.9,7.989,7.989,0,0,0,3.436-.137,1.091,1.091,0,0,0,.784-1.005c.242-6.173-.193-44.071,3.9-59.049a3.4,3.4,0,0,1,1.312-1.877l7.945-5.648.609-9.129Z" transform="translate(-835.052 -1073.825)" fill="#7d6eb2"/>
      <g id="Grupo_46179" data-name="Grupo 46179" transform="translate(13.994 12.667)">
        <path id="Trazado_96253" data-name="Trazado 96253" d="M878.845,943.469c-13.165-.218-27.69,3.456-27.69,3.456-3.924,22.9-.686,49.307-.686,49.307,10.192,2.673,21.688-1.634,21.688-1.634,1.694-9.57,9.6-36.5,9.6-36.5a43.365,43.365,0,0,0,16.094-5.107,28.228,28.228,0,0,1-5.579-11.669A44.17,44.17,0,0,1,878.845,943.469Z" transform="translate(-849.213 -923.081)" fill="#d5f2e8"/>
        <path id="Trazado_96254" data-name="Trazado 96254" d="M1059.57,864a2.519,2.519,0,0,0-2.93-.823c-1.937,8.183-12.1,14.818-22.531,18.062a28.23,28.23,0,0,0,5.579,11.669C1057.007,883.173,1059.57,864,1059.57,864Z" transform="translate(-991.053 -863.005)" fill="url(#linear-gradient-5)"/>
      </g>
      <g id="Grupo_46180" data-name="Grupo 46180" transform="translate(79.581)">
        <path id="Trazado_96255" data-name="Trazado 96255" d="M1133.479,822.672c.135.43-1.432,1.085-2.354-.674-.032-.843-.545-4.456-.041-5.143a67.3,67.3,0,0,1,7.886-8.245,1.238,1.238,0,0,1,.155,1.72l-2.524,2.629a12.23,12.23,0,0,1,1.474,2.913,3.537,3.537,0,0,1-.353,2.6c-.443.8-1.047,1.836-1.619,2.648A3.491,3.491,0,0,1,1133.479,822.672Z" transform="translate(-1130.864 -808.611)" fill="url(#linear-gradient-8)"/>
        <path id="Trazado_96256" data-name="Trazado 96256" d="M1140.807,834.614l-2.3,1.95-.722,1.941,2.05,2.275a26.459,26.459,0,0,1,1.2-4.686C1141.55,835.261,1141.284,834.858,1140.807,834.614Z" transform="translate(-1136.173 -828.559)" fill="url(#linear-gradient-9)"/>
      </g>
      <path id="Trazado_96257" data-name="Trazado 96257" d="M815.431,978.148,810.381,965.4s-12.3,8.355-14.318,18.948a27.972,27.972,0,0,1,10.357,2.9C808.287,983.05,815.431,978.148,815.431,978.148Z" transform="translate(-794.446 -928.89)" fill="#d5f2e8"/>
      <path id="Trazado_96258" data-name="Trazado 96258" d="M905.318,904.663l-4.189,12.114a.437.437,0,0,0,.2.526,9.846,9.846,0,0,0,10.213-.687,2.054,2.054,0,0,0,.946-1.468l1.357-10.484Z" transform="translate(-875.027 -882.296)" fill="url(#linear-gradient-10)"/>
      <g id="Grupo_46181" data-name="Grupo 46181" transform="translate(22.341 4.854)">
        <path id="Trazado_96259" data-name="Trazado 96259" d="M922.966,856.492s4.6,8.658,4.01,12.156-6.29,3.246-11.268.406L912.23,859.7Z" transform="translate(-905.902 -850.197)" fill="url(#linear-gradient-11)"/>
        <path id="Trazado_96260" data-name="Trazado 96260" d="M895.084,843.723a.357.357,0,0,0,.156-.522,9.314,9.314,0,0,1-1.28-2.717s-.827-.53,2.1-1.231,7.3-1.791,8.222-4.286c.9-2.433-1.458-8.551-5.213-3.676a.357.357,0,0,1-.565,0c-.616-.8-2.234-2.464-4.481-1.456a3.375,3.375,0,0,0-2.311,3.261.355.355,0,0,1-.42.363,4.115,4.115,0,0,0-4.805,2.24c-.981,2.156-.344,3.376.237,3.973a.356.356,0,0,1-.152.591,2.141,2.141,0,0,0-1.511,2.443c.125,2.263,2.655,2.064,3.376,1.961a.358.358,0,0,1,.317.112c.618.684,3.4,3.586,6.413,3.936a.36.36,0,0,0,.378-.476l-1.3-3.789a.359.359,0,0,1,.194-.444Z" transform="translate(-885.058 -829.457)" fill="#00223d"/>
        <path id="Trazado_96261" data-name="Trazado 96261" d="M918.743,889.363s-3.275-2.247-3.514-.355,2.949,2.741,4.529,2.036Z" transform="translate(-908.193 -874.559)" fill="url(#linear-gradient-12)"/>
      </g>
      <g id="Grupo_46185" data-name="Grupo 46185" transform="translate(16.176 77.973)">
        <path id="Trazado_96262" data-name="Trazado 96262" d="M1017.956,1241.144a.918.918,0,0,1-.9-.75l-5.971-32.037a.917.917,0,0,1,1.8-.336l5.971,32.037a.918.918,0,0,1-.734,1.07A.933.933,0,0,1,1017.956,1241.144Z" transform="translate(-975.56 -1192.41)" fill="url(#linear-gradient-13)"/>
        <path id="Trazado_96263" data-name="Trazado 96263" d="M1020.173,1239.248H971.106a1.834,1.834,0,1,1,0-3.668h47.862l12.4-28.661H960.559a1.834,1.834,0,0,1,0-3.668h73.6a1.835,1.835,0,0,1,1.684,2.563l-13.986,32.329A1.834,1.834,0,0,1,1020.173,1239.248Z" transform="translate(-935.405 -1189.325)" fill="url(#linear-gradient-13)"/>
        <g id="Grupo_46182" data-name="Grupo 46182">
          <path id="Trazado_96264" data-name="Trazado 96264" d="M940.1,1225.458H901.432a1.909,1.909,0,0,1-1.83-1.364l-23.026-76.825H860.493a1.909,1.909,0,1,1,0-3.819H878a1.909,1.909,0,0,1,1.83,1.364l23.026,76.825H940.1a1.909,1.909,0,1,1,0,3.818Z" transform="translate(-858.583 -1143.45)" fill="url(#linear-gradient-13)"/>
        </g>
        <g id="Grupo_46183" data-name="Grupo 46183" transform="translate(37.187 79.13)">
          <circle id="Elipse_3881" data-name="Elipse 3881" cx="4.773" cy="4.773" r="4.773" transform="translate(0 9.291) rotate(-76.718)" fill="#00223d"/>
          <circle id="Elipse_3882" data-name="Elipse 3882" cx="3.447" cy="3.447" r="3.447" transform="translate(2.162 2.295)" fill="url(#linear-gradient-13)"/>
        </g>
        <g id="Grupo_46184" data-name="Grupo 46184" transform="translate(73.57 79.396)">
          <circle id="Elipse_3883" data-name="Elipse 3883" cx="4.773" cy="4.773" r="4.773" transform="translate(0 9.423) rotate(-80.783)" fill="#00223d"/>
          <circle id="Elipse_3884" data-name="Elipse 3884" cx="3.447" cy="3.447" r="3.447" transform="translate(1.896 2.029)" fill="url(#linear-gradient-13)"/>
        </g>
        <path id="Trazado_96265" data-name="Trazado 96265" d="M1070.553,1242.735a.917.917,0,0,1-.917-.9l-.635-31.744a.917.917,0,0,1,.9-.935.9.9,0,0,1,.935.9l.635,31.744a.917.917,0,0,1-.9.935Z" transform="translate(-1020.002 -1193.856)" fill="url(#linear-gradient-13)"/>
        <path id="Trazado_96266" data-name="Trazado 96266" d="M1112.668,1242.583a.917.917,0,0,1-.917-.917v-31.6a.917.917,0,1,1,1.834,0v31.6A.917.917,0,0,1,1112.668,1242.583Z" transform="translate(-1052.797 -1193.85)" fill="url(#linear-gradient-13)"/>
        <path id="Trazado_96267" data-name="Trazado 96267" d="M1159.57,1242.446h-.006a.918.918,0,0,1-.911-.923l.217-31.452a.917.917,0,0,1,.917-.911h.006a.917.917,0,0,1,.911.923l-.217,31.452A.917.917,0,0,1,1159.57,1242.446Z" transform="translate(-1088.776 -1193.858)" fill="url(#linear-gradient-13)"/>
        <path id="Trazado_96268" data-name="Trazado 96268" d="M1190.042,1243.687a.929.929,0,0,1-.176-.017.917.917,0,0,1-.726-1.075l5.961-30.724a.917.917,0,1,1,1.8.349l-5.961,30.724A.918.918,0,0,1,1190.042,1243.687Z" transform="translate(-1112.152 -1195.368)" fill="url(#linear-gradient-13)"/>
        <path id="Trazado_96269" data-name="Trazado 96269" d="M1042.182,1242.876H974.467a.917.917,0,0,1,0-1.834h67.715a.917.917,0,1,1,0,1.834Z" transform="translate(-946.778 -1218.316)" fill="url(#linear-gradient-13)"/>
        <path id="Trazado_96270" data-name="Trazado 96270" d="M1048.177,1282.9H987.6a.917.917,0,1,1,0-1.834h60.579a.917.917,0,1,1,0,1.834Z" transform="translate(-956.851 -1249.018)" fill="url(#linear-gradient-13)"/>
        <path id="Trazado_96271" data-name="Trazado 96271" d="M1051.776,1319.794H997.6a.917.917,0,1,1,0-1.834h54.172a.917.917,0,1,1,0,1.834Z" transform="translate(-964.527 -1277.322)" fill="url(#linear-gradient-13)"/>
      </g>
      <path id="Trazado_96272" data-name="Trazado 96272" d="M790.821,1045.2s-8.4,19.143,12.139,21.944l2.8-2.334s-10.272-5.6-4.669-16.809C801.093,1048.006,795.023,1042.87,790.821,1045.2Z" transform="translate(-789.119 -989.643)" fill="url(#linear-gradient-25)"/>
      <path id="Trazado_96273" data-name="Trazado 96273" d="M851.359,1131.42h7.471s4.669,6.07,4.2,7.47-5.081.287-5.081.287l-2.389-4.023s-7,.467-7-1.4S851.359,1131.42,851.359,1131.42Z" transform="translate(-834.717 -1056.249)" fill="url(#linear-gradient-26)"/>
    </g>
    <g id="Grupo_46187" data-name="Grupo 46187" transform="translate(569.141 470.193)">
      <path id="Trazado_96274" data-name="Trazado 96274" d="M1479.569,1208.946a1.374,1.374,0,0,1-1.373-1.332c-.027-.872-.5-21.381,13.654-23.571a9.7,9.7,0,0,1,7.968,2.126c6.986,5.758,7.643,20.716,7.667,21.35a1.374,1.374,0,0,1-2.746.107c-.006-.143-.634-14.365-6.671-19.337a6.972,6.972,0,0,0-5.8-1.529c-11.777,1.823-11.332,20.58-11.327,20.77a1.374,1.374,0,0,1-1.331,1.416Z" transform="translate(-1454.878 -1183.749)" fill="#00223d"/>
      <path id="Trazado_96275" data-name="Trazado 96275" d="M1378.122,1321.075l10.057-57.374,37.782-.624,12.178,61.788h-56.746A3.307,3.307,0,0,1,1378.122,1321.075Z" transform="translate(-1378.086 -1244.484)" fill="#7d6eb2"/>
      <path id="Trazado_96276" data-name="Trazado 96276" d="M1591.019,1263.7l-7.338-.624,12.178,61.788h7.285a2.329,2.329,0,0,0,2.28-2.8Z" transform="translate(-1535.805 -1244.484)" fill="#5d4b9d"/>
      <path id="Trazado_96277" data-name="Trazado 96277" d="M1444.7,1208.276a1.374,1.374,0,0,1-1.373-1.332c-.027-.872-.5-21.381,13.654-23.571a9.7,9.7,0,0,1,7.968,2.126c6.986,5.757,7.643,20.715,7.667,21.35a1.374,1.374,0,0,1-2.747.107c-.006-.143-.634-14.365-6.671-19.337a6.973,6.973,0,0,0-5.8-1.528c-11.777,1.822-11.333,20.58-11.327,20.77a1.374,1.374,0,0,1-1.331,1.416Z" transform="translate(-1428.133 -1183.234)" fill="#00223d"/>
    </g>
    <g id="Grupo_46188" data-name="Grupo 46188" transform="translate(617.823 494.963)">
      <path id="Trazado_96278" data-name="Trazado 96278" d="M1676.837,1310.647a.6.6,0,0,1-.6-.577,33.642,33.642,0,0,1,1.169-9.105c1.746-6.224,5.25-9.914,10.134-10.67a7.818,7.818,0,0,1,6.421,1.71c5.837,4.811,6.393,17.486,6.413,18.024a.6.6,0,1,1-1.19.046c0-.126-.556-12.681-5.982-17.151a6.674,6.674,0,0,0-5.48-1.451c-10.695,1.655-10.3,18.392-10.294,18.561a.6.6,0,0,1-.577.614Z" transform="translate(-1655.489 -1290.049)" fill="#00223d"/>
      <path id="Trazado_96279" data-name="Trazado 96279" d="M1587.172,1392.763l8.7-36.139,32.666-.54,10.529,39.955H1590A2.859,2.859,0,0,1,1587.172,1392.763Z" transform="translate(-1587.141 -1340.603)" fill="#26aab7"/>
      <path id="Trazado_96280" data-name="Trazado 96280" d="M1771.239,1356.624l-6.344-.54,10.529,39.955h6.3a2.013,2.013,0,0,0,1.971-2.424Z" transform="translate(-1723.502 -1340.603)" fill="#167377"/>
      <path id="Trazado_96281" data-name="Trazado 96281" d="M1646.694,1310.068a.6.6,0,0,1-.6-.577,33.649,33.649,0,0,1,1.169-9.105c1.746-6.224,5.25-9.914,10.134-10.67a7.819,7.819,0,0,1,6.421,1.71c5.837,4.811,6.393,17.486,6.414,18.024a.6.6,0,1,1-1.19.046c-.005-.126-.556-12.682-5.982-17.151a6.67,6.67,0,0,0-5.48-1.451c-10.694,1.655-10.3,18.391-10.294,18.56a.6.6,0,0,1-.577.614Z" transform="translate(-1632.365 -1289.605)" fill="#00223d"/>
    </g>
    <g id="Grupo_46189" data-name="Grupo 46189" transform="translate(526.408 253.746)">
      <path id="Trazado_96282" data-name="Trazado 96282" d="M1372.761,1293.086l-1.319-.236a.228.228,0,0,1,.08-.448h.009l1.3.245h.007a.222.222,0,0,1-.08.437Z" transform="translate(-1330.112 -1050.53)" fill="url(#linear-gradient-27)"/>
      <path id="Trazado_96283" data-name="Trazado 96283" d="M1354.164,1288.483l-1.287-.37a.247.247,0,1,1,.136-.475h0l.007,0,1.269.377.007,0a.241.241,0,0,1-.135.463Z" transform="translate(-1315.878 -1046.872)" fill="url(#linear-gradient-28)"/>
      <path id="Trazado_96284" data-name="Trazado 96284" d="M1336.12,1282.037l-1.244-.5a.266.266,0,0,1,.2-.495h0l.007,0,1.226.5.007,0a.26.26,0,0,1-.195.483Z" transform="translate(-1302.077 -1041.808)" fill="url(#linear-gradient-28)"/>
      <path id="Trazado_96285" data-name="Trazado 96285" d="M1318.78,1273.875l-1.191-.612a.286.286,0,0,1,.261-.508h0l.007,0,1.172.615.007,0a.28.28,0,0,1-.258.5Z" transform="translate(-1288.824 -1035.437)" fill="url(#linear-gradient-28)"/>
      <path id="Trazado_96286" data-name="Trazado 96286" d="M1302.267,1264.141l-1.131-.719a.3.3,0,0,1,.327-.515h0l.007,0,1.111.72.007,0a.3.3,0,0,1-.323.5Z" transform="translate(-1276.214 -1027.872)" fill="url(#linear-gradient-28)"/>
      <path id="Trazado_96287" data-name="Trazado 96287" d="M1286.678,1252.98l-1.064-.815a.324.324,0,0,1,.394-.514l0,0,.006.005,1.044.814.006.005a.318.318,0,0,1-.389.5Z" transform="translate(-1264.318 -1019.221)" fill="url(#linear-gradient-28)"/>
      <path id="Trazado_96288" data-name="Trazado 96288" d="M1272.095,1240.53l-.991-.9a.343.343,0,0,1,.462-.508l0,0,.006.006.971.9.006.006a.337.337,0,0,1-.456.5Z" transform="translate(-1253.197 -1009.591)" fill="url(#linear-gradient-28)"/>
      <path id="Trazado_96289" data-name="Trazado 96289" d="M1258.583,1226.924l-.915-.98a.362.362,0,0,1,.53-.495l0,0,.006.007.895.975.006.006a.357.357,0,0,1-.523.485Z" transform="translate(-1242.901 -999.084)" fill="url(#linear-gradient-28)"/>
      <path id="Trazado_96290" data-name="Trazado 96290" d="M1246.2,1212.281l-.834-1.049a.382.382,0,1,1,.6-.475l0,0,.006.007.814,1.042.005.007a.376.376,0,0,1-.591.465Z" transform="translate(-1233.477 -987.79)" fill="url(#linear-gradient-28)"/>
      <path id="Trazado_96291" data-name="Trazado 96291" d="M1235,1196.7l-.75-1.113a.4.4,0,0,1,.666-.448l0,0,.005.008.73,1.1.005.008a.4.4,0,0,1-.657.439Z" transform="translate(-1224.96 -975.786)" fill="url(#linear-gradient-28)"/>
      <path id="Trazado_96292" data-name="Trazado 96292" d="M1225.052,1180.3l-.66-1.168a.42.42,0,0,1,.732-.414l0,0,0,.009.641,1.156,0,.009a.414.414,0,0,1-.723.4Z" transform="translate(-1217.407 -963.163)" fill="url(#linear-gradient-28)"/>
      <path id="Trazado_96293" data-name="Trazado 96293" d="M1216.414,1163.182l-.567-1.217a.44.44,0,1,1,.8-.371l0,0,0,.01.548,1.2,0,.009a.434.434,0,0,1-.788.363Z" transform="translate(-1210.863 -949.992)" fill="url(#linear-gradient-28)"/>
      <path id="Trazado_96294" data-name="Trazado 96294" d="M1209.165,1145.436l-.466-1.261a.456.456,0,0,1,.856-.316v0l0,.01.452,1.243,0,.01a.453.453,0,0,1-.85.312Z" transform="translate(-1205.389 -936.352)" fill="url(#linear-gradient-28)"/>
      <path id="Trazado_96295" data-name="Trazado 96295" d="M1203.4,1127.172l-.361-1.295a.467.467,0,1,1,.9-.251v0l0,.011.348,1.274,0,.011a.463.463,0,0,1-.893.247Z" transform="translate(-1201.057 -922.333)" fill="url(#linear-gradient-40)"/>
      <path id="Trazado_96296" data-name="Trazado 96296" d="M1199.144,1108.52l-.257-1.318a.478.478,0,1,1,.938-.183v0l0,.011.247,1.3,0,.01a.474.474,0,0,1-.932.18Z" transform="translate(-1197.876 -908.024)" fill="url(#linear-gradient-41)"/>
      <path id="Trazado_96297" data-name="Trazado 96297" d="M1196.293,1089.6l-.16-1.333a.489.489,0,1,1,.97-.116v.013l.15,1.312v.01a.485.485,0,0,1-.964.113Z" transform="translate(-1195.769 -893.515)" fill="url(#linear-gradient-28)"/>
      <path id="Trazado_96298" data-name="Trazado 96298" d="M1194.816,1070.524l-.064-1.34a.5.5,0,1,1,1-.048v.013l.057,1.32v.01a.5.5,0,0,1-.991.045Z" transform="translate(-1194.711 -878.894)" fill="url(#linear-gradient-28)"/>
      <path id="Trazado_96299" data-name="Trazado 96299" d="M1194.578,1051.4l.028-1.342a.51.51,0,0,1,1.02.022v.012l-.034,1.321v.01a.507.507,0,0,1-1.014-.024Z" transform="translate(-1194.578 -864.238)" fill="url(#linear-gradient-41)"/>
      <path id="Trazado_96300" data-name="Trazado 96300" d="M1195.425,1032.3l.117-1.337a.521.521,0,1,1,1.038.091v.013l-.121,1.316v.01a.518.518,0,0,1-1.031-.093Z" transform="translate(-1195.226 -849.613)" fill="url(#linear-gradient-45)"/>
      <path id="Trazado_96301" data-name="Trazado 96301" d="M1197.513,1013.328l.2-1.326a.532.532,0,0,1,1.052.16v0l0,.01-.2,1.306,0,.01a.529.529,0,0,1-1.045-.162Z" transform="translate(-1196.825 -835.082)" fill="url(#linear-gradient-28)"/>
      <path id="Trazado_96302" data-name="Trazado 96302" d="M1200.788,994.537l.282-1.311a.543.543,0,1,1,1.061.229v0l0,.01-.285,1.291,0,.01a.539.539,0,0,1-1.054-.23Z" transform="translate(-1199.332 -820.697)" fill="url(#linear-gradient-28)"/>
      <path id="Trazado_96303" data-name="Trazado 96303" d="M1205.2,976l.359-1.292a.554.554,0,1,1,1.067.3v0l0,.009-.361,1.272,0,.009a.55.55,0,0,1-1.059-.3Z" transform="translate(-1202.707 -806.506)" fill="url(#linear-gradient-28)"/>
      <path id="Trazado_96304" data-name="Trazado 96304" d="M1210.68,957.76l.433-1.269a.564.564,0,0,1,1.068.365v0l0,.009-.433,1.249,0,.009a.561.561,0,0,1-1.062-.365Z" transform="translate(-1206.906 -792.552)" fill="url(#linear-gradient-49)"/>
      <path id="Trazado_96305" data-name="Trazado 96305" d="M1217.2,939.867l.5-1.245a.575.575,0,1,1,1.066.432v0l0,.009-.5,1.224,0,.009a.572.572,0,0,1-1.059-.432Z" transform="translate(-1211.898 -778.862)" fill="url(#linear-gradient-28)"/>
      <path id="Trazado_96306" data-name="Trazado 96306" d="M1224.7,922.385l.571-1.214a.586.586,0,1,1,1.061.5v0l0,.009-.569,1.194,0,.009a.583.583,0,0,1-1.053-.5Z" transform="translate(-1217.643 -765.492)" fill="url(#linear-gradient-28)"/>
      <path id="Trazado_96307" data-name="Trazado 96307" d="M1233.148,905.352l.635-1.181a.6.6,0,1,1,1.051.566v0l0,.008-.632,1.161,0,.008a.594.594,0,0,1-1.044-.565Z" transform="translate(-1224.111 -752.467)" fill="url(#linear-gradient-28)"/>
      <path id="Trazado_96308" data-name="Trazado 96308" d="M1242.5,888.807l.7-1.147a.608.608,0,0,1,1.038.632v0l-.005.008-.694,1.127-.005.008a.6.6,0,0,1-1.031-.632Z" transform="translate(-1231.275 -739.819)" fill="url(#linear-gradient-28)"/>
      <path id="Trazado_96309" data-name="Trazado 96309" d="M1252.758,872.821l.76-1.1a.614.614,0,1,1,1.011.7h0l-.005.008-.751,1.088-.005.008a.613.613,0,0,1-1.009-.7Z" transform="translate(-1239.127 -727.608)" fill="url(#linear-gradient-28)"/>
      <path id="Trazado_96310" data-name="Trazado 96310" d="M1263.85,857.406l.813-1.066a.617.617,0,0,1,.982.749h0l-.005.007-.8,1.05-.005.007a.616.616,0,0,1-.979-.748Z" transform="translate(-1247.622 -715.83)" fill="url(#linear-gradient-28)"/>
      <path id="Trazado_96311" data-name="Trazado 96311" d="M1275.678,842.548l.862-1.026a.621.621,0,1,1,.95.8h0l-.005.007-.853,1.012-.005.007a.62.62,0,0,1-.948-.8Z" transform="translate(-1256.681 -704.479)" fill="url(#linear-gradient-28)"/>
      <path id="Trazado_96312" data-name="Trazado 96312" d="M1288.188,828.26l.907-.986a.625.625,0,1,1,.919.846h0l-.005.006-.9.972-.005.006a.623.623,0,0,1-.917-.845Z" transform="translate(-1266.263 -693.564)" fill="url(#linear-gradient-28)"/>
      <path id="Trazado_96313" data-name="Trazado 96313" d="M1301.327,814.544l.949-.945a.628.628,0,1,1,.887.89h0l-.006.006-.939.932-.006.006a.627.627,0,0,1-.884-.889Z" transform="translate(-1276.327 -683.087)" fill="url(#linear-gradient-28)"/>
      <path id="Trazado_96314" data-name="Trazado 96314" d="M1315.042,801.4l.987-.905a.632.632,0,1,1,.854.931h0l-.006.005-.978.893-.006.005a.631.631,0,0,1-.851-.93Z" transform="translate(-1286.832 -673.048)" fill="url(#linear-gradient-28)"/>
      <path id="Trazado_96315" data-name="Trazado 96315" d="M1329.282,788.823l1.021-.866a.635.635,0,1,1,.821.969h0l-.006,0-1.012.854-.006.005a.634.634,0,0,1-.819-.969Z" transform="translate(-1297.742 -663.442)" fill="url(#linear-gradient-28)"/>
      <path id="Trazado_96316" data-name="Trazado 96316" d="M1344,776.8l1.053-.827a.639.639,0,0,1,.789,1.005h0l-.005,0-1.044.816-.005,0a.638.638,0,0,1-.787-1Z" transform="translate(-1309.018 -654.262)" fill="url(#linear-gradient-28)"/>
      <path id="Trazado_96317" data-name="Trazado 96317" d="M1359.154,765.331l1.081-.788a.642.642,0,1,1,.757,1.038h0l-.005,0-1.071.778-.005,0a.641.641,0,0,1-.755-1.037Z" transform="translate(-1320.627 -645.501)" fill="url(#linear-gradient-28)"/>
      <path id="Trazado_96318" data-name="Trazado 96318" d="M1374.694,754.392l1.107-.752a.646.646,0,1,1,.726,1.069h0l-.005,0-1.1.743-.005,0a.645.645,0,0,1-.724-1.068Z" transform="translate(-1332.534 -637.146)" fill="url(#linear-gradient-28)"/>
      <path id="Trazado_96319" data-name="Trazado 96319" d="M1390.6,743.961l1.132-.716a.65.65,0,1,1,.7,1.1h0l-.005,0-1.122.708-.005,0a.649.649,0,0,1-.693-1.1Z" transform="translate(-1344.723 -629.179)" fill="url(#linear-gradient-28)"/>
      <path id="Trazado_96320" data-name="Trazado 96320" d="M1406.832,734.034l1.153-.682a.653.653,0,0,1,.665,1.125h0l-.005,0-1.144.674,0,0a.652.652,0,0,1-.663-1.123Z" transform="translate(-1357.16 -621.598)" fill="url(#linear-gradient-28)"/>
      <path id="Trazado_96321" data-name="Trazado 96321" d="M1423.355,724.594l1.172-.648a.657.657,0,0,1,.636,1.15h0l0,0-1.163.641,0,0a.656.656,0,0,1-.634-1.148Z" transform="translate(-1369.821 -614.389)" fill="url(#linear-gradient-28)"/>
      <path id="Trazado_96322" data-name="Trazado 96322" d="M1440.142,715.627l1.188-.615a.66.66,0,0,1,.607,1.173h0l0,0-1.179.608,0,0a.659.659,0,0,1-.605-1.172Z" transform="translate(-1382.685 -607.542)" fill="url(#linear-gradient-28)"/>
      <path id="Trazado_96323" data-name="Trazado 96323" d="M1457.163,707.115l1.2-.583a.664.664,0,0,1,.58,1.195h0l0,0-1.194.577,0,0a.663.663,0,0,1-.578-1.193Z" transform="translate(-1395.729 -601.042)" fill="url(#linear-gradient-28)"/>
      <path id="Trazado_96324" data-name="Trazado 96324" d="M1474.387,699.023l1.214-.555a.667.667,0,1,1,.555,1.214h0l0,0-1.207.549,0,0a.666.666,0,0,1-.553-1.213Z" transform="translate(-1408.93 -594.861)" fill="url(#linear-gradient-28)"/>
      <path id="Trazado_96325" data-name="Trazado 96325" d="M1491.787,691.32l1.225-.528a.671.671,0,1,1,.531,1.233h0l0,0-1.218.523,0,0a.67.67,0,0,1-.529-1.231Z" transform="translate(-1422.266 -588.977)" fill="url(#linear-gradient-28)"/>
      <path id="Trazado_96326" data-name="Trazado 96326" d="M1509.344,683.977l1.237-.5a.675.675,0,0,1,.51,1.25h0l-1.23.5h0a.674.674,0,0,1-.507-1.248Z" transform="translate(-1435.723 -583.365)" fill="url(#linear-gradient-28)"/>
      <path id="Trazado_96327" data-name="Trazado 96327" d="M1527.047,676.967l1.244-.481a.678.678,0,0,1,.489,1.265h0l-1.238.476h0a.677.677,0,0,1-.488-1.264Z" transform="translate(-1449.294 -578.009)" fill="url(#linear-gradient-28)"/>
      <path id="Trazado_96328" data-name="Trazado 96328" d="M1544.861,670.26l1.251-.461a.682.682,0,1,1,.471,1.28h0l-1.246.456h0a.681.681,0,0,1-.469-1.278Z" transform="translate(-1462.95 -572.882)" fill="url(#linear-gradient-28)"/>
      <path id="Trazado_96329" data-name="Trazado 96329" d="M1562.781,663.837l1.258-.441a.682.682,0,1,1,.451,1.287h0l-1.253.44h0a.683.683,0,1,1-.453-1.288Z" transform="translate(-1476.688 -567.973)" fill="url(#linear-gradient-28)"/>
      <path id="Trazado_96330" data-name="Trazado 96330" d="M1580.8,657.67l1.264-.425a.679.679,0,1,1,.433,1.287h0l-1.259.425h0a.68.68,0,0,1-.435-1.288Z" transform="translate(-1490.51 -563.256)" fill="url(#linear-gradient-28)"/>
      <path id="Trazado_96331" data-name="Trazado 96331" d="M1598.906,651.709l1.269-.411a.676.676,0,1,1,.416,1.286l-1.264.412a.677.677,0,0,1-.423-1.285Z" transform="translate(-1504.392 -558.696)" fill="url(#linear-gradient-28)"/>
      <path id="Trazado_96332" data-name="Trazado 96332" d="M1617.072,645.923l1.272-.4a.673.673,0,1,1,.4,1.284l-1.269.4a.674.674,0,0,1-.409-1.284Z" transform="translate(-1518.326 -554.267)" fill="url(#linear-gradient-28)"/>
      <path id="Trazado_96333" data-name="Trazado 96333" d="M1635.29,640.282l1.275-.391a.67.67,0,1,1,.392,1.281l-1.272.392a.671.671,0,1,1-.4-1.281Z" transform="translate(-1532.299 -549.948)" fill="url(#linear-gradient-28)"/>
      <path id="Trazado_96334" data-name="Trazado 96334" d="M1653.547,634.752l1.277-.384a.666.666,0,0,1,.384,1.277l-1.275.385a.668.668,0,0,1-.388-1.277Z" transform="translate(-1546.304 -545.712)" fill="url(#linear-gradient-28)"/>
      <path id="Trazado_96335" data-name="Trazado 96335" d="M1671.828,629.3l1.277-.379a.663.663,0,1,1,.378,1.272l-1.276.381a.664.664,0,0,1-.381-1.273Z" transform="translate(-1560.327 -541.537)" fill="url(#linear-gradient-28)"/>
      <path id="Trazado_96336" data-name="Trazado 96336" d="M1690.12,623.905l1.278-.376a.66.66,0,0,1,.374,1.267l-1.277.378a.661.661,0,1,1-.376-1.268Z" transform="translate(-1574.361 -537.398)" fill="url(#linear-gradient-28)"/>
      <path id="Trazado_96337" data-name="Trazado 96337" d="M1708.418,618.521l1.278-.376a.657.657,0,0,1,.373,1.261l-1.278.378a.658.658,0,0,1-.374-1.262Z" transform="translate(-1588.399 -533.267)" fill="url(#linear-gradient-28)"/>
      <path id="Trazado_96338" data-name="Trazado 96338" d="M1726.71,613.117l1.278-.379a.654.654,0,1,1,.373,1.254l-1.278.381a.655.655,0,0,1-.374-1.256Z" transform="translate(-1602.435 -529.12)" fill="url(#linear-gradient-28)"/>
      <path id="Trazado_96339" data-name="Trazado 96339" d="M1744.991,607.662l1.276-.383a.651.651,0,0,1,.376,1.247l-1.277.386a.652.652,0,0,1-.377-1.249Z" transform="translate(-1616.461 -524.932)" fill="url(#linear-gradient-28)"/>
      <path id="Trazado_96340" data-name="Trazado 96340" d="M1763.25,602.123l1.274-.39a.648.648,0,1,1,.381,1.239l-1.276.393a.649.649,0,1,1-.382-1.241Z" transform="translate(-1630.472 -520.676)" fill="url(#linear-gradient-28)"/>
      <path id="Trazado_96341" data-name="Trazado 96341" d="M1781.474,596.468l1.271-.4a.645.645,0,1,1,.389,1.23l-1.273.4a.646.646,0,0,1-.389-1.232Z" transform="translate(-1644.458 -516.33)" fill="url(#linear-gradient-28)"/>
      <path id="Trazado_96342" data-name="Trazado 96342" d="M1799.654,590.665l1.267-.41a.642.642,0,1,1,.4,1.22l-1.27.413a.643.643,0,0,1-.4-1.223Z" transform="translate(-1658.409 -511.869)" fill="url(#linear-gradient-28)"/>
      <path id="Trazado_96343" data-name="Trazado 96343" d="M1817.776,584.683l1.261-.424h0a.639.639,0,0,1,.408,1.211l-1.265.427a.64.64,0,1,1-.409-1.212Z" transform="translate(-1672.317 -507.268)" fill="url(#linear-gradient-28)"/>
      <path id="Trazado_96344" data-name="Trazado 96344" d="M1835.825,578.489l1.255-.439h0a.636.636,0,0,1,.42,1.2l-1.26.442a.637.637,0,1,1-.422-1.2h0Z" transform="translate(-1686.171 -502.502)" fill="url(#linear-gradient-28)"/>
      <path id="Trazado_96345" data-name="Trazado 96345" d="M1853.8,572.051l1.248-.457h0a.633.633,0,0,1,.436,1.188l-1.253.46a.633.633,0,1,1-.437-1.189h0Z" transform="translate(-1699.964 -497.548)" fill="url(#linear-gradient-28)"/>
      <path id="Trazado_96346" data-name="Trazado 96346" d="M1871.661,565.34l1.24-.477h0a.63.63,0,0,1,.452,1.175l-1.245.48a.63.63,0,0,1-.454-1.176h0Z" transform="translate(-1713.678 -492.381)" fill="url(#linear-gradient-28)"/>
      <path id="Trazado_96347" data-name="Trazado 96347" d="M1889.406,558.326l1.231-.5h0a.627.627,0,0,1,.471,1.161l-1.237.5a.627.627,0,0,1-.472-1.162h0Z" transform="translate(-1727.3 -486.981)" fill="url(#linear-gradient-28)"/>
      <path id="Trazado_96348" data-name="Trazado 96348" d="M1907.014,550.979l1.22-.523h0a.623.623,0,0,1,.492,1.146l-1.227.527a.624.624,0,0,1-.493-1.147h0Z" transform="translate(-1740.818 -481.322)" fill="url(#linear-gradient-28)"/>
      <path id="Trazado_96349" data-name="Trazado 96349" d="M1924.47,543.267l1.209-.549,0,0a.62.62,0,0,1,.514,1.129l-1.216.554a.621.621,0,0,1-.515-1.131h0Z" transform="translate(-1754.22 -475.383)" fill="url(#linear-gradient-28)"/>
      <path id="Trazado_96350" data-name="Trazado 96350" d="M1941.753,535.154l1.193-.578.006,0a.617.617,0,0,1,.539,1.11l-1.2.585a.618.618,0,0,1-.541-1.112h0Z" transform="translate(-1767.49 -469.13)" fill="url(#linear-gradient-28)"/>
      <path id="Trazado_96351" data-name="Trazado 96351" d="M1958.781,526.48l1.168-.623.007,0a.614.614,0,0,1,.579,1.084l-1.181.632a.615.615,0,1,1-.58-1.085h0Z" transform="translate(-1780.568 -462.434)" fill="url(#linear-gradient-28)"/>
      <path id="Trazado_96352" data-name="Trazado 96352" d="M1975.438,517.088l1.136-.675.009-.005a.61.61,0,0,1,.625,1.049l-1.151.688a.612.612,0,1,1-.628-1.051h0Z" transform="translate(-1793.366 -455.177)" fill="url(#linear-gradient-28)"/>
      <path id="Trazado_96353" data-name="Trazado 96353" d="M1991.622,506.863l1.1-.737.01-.006a.6.6,0,0,1,.673,1l-1.111.754a.6.6,0,1,1-.678-1h0Z" transform="translate(-1805.806 -447.271)" fill="url(#linear-gradient-28)"/>
      <path id="Trazado_96354" data-name="Trazado 96354" d="M2007.165,495.639l1.041-.81.011-.008a.592.592,0,0,1,.729.933l-1.058.83a.595.595,0,1,1-.734-.935h0Z" transform="translate(-1817.756 -438.587)" fill="url(#linear-gradient-28)"/>
      <path id="Trazado_96355" data-name="Trazado 96355" d="M2021.847,483.274l.968-.891.012-.011a.583.583,0,0,1,.791.855l-.988.917a.585.585,0,0,1-.8-.858l0,0Z" transform="translate(-1829.05 -429.014)" fill="url(#linear-gradient-28)"/>
      <path id="Trazado_96356" data-name="Trazado 96356" d="M2035.4,469.638l.875-.982.013-.014a.573.573,0,0,1,.857.761l-.9,1.013a.576.576,0,1,1-.863-.763v0Z" transform="translate(-1839.477 -418.452)" fill="url(#linear-gradient-28)"/>
      <path id="Trazado_96357" data-name="Trazado 96357" d="M2047.478,454.664l.753-1.073.012-.017a.564.564,0,0,1,.924.646l-.772,1.11a.567.567,0,1,1-.93-.647v0Z" transform="translate(-1848.778 -406.857)" fill="url(#linear-gradient-40)"/>
      <path id="Trazado_96358" data-name="Trazado 96358" d="M2057.686,438.368l.606-1.16.011-.02a.554.554,0,0,1,.984.511l-.622,1.2a.557.557,0,1,1-.99-.512v0Z" transform="translate(-1856.64 -394.242)" fill="url(#linear-gradient-28)"/>
      <path id="Trazado_96359" data-name="Trazado 96359" d="M2065.651,420.934q.23-.614.436-1.234v0a.545.545,0,0,1,1.036.34q-.211.647-.447,1.283a.548.548,0,1,1-1.029-.379v0Z" transform="translate(-1862.78 -380.765)" fill="url(#linear-gradient-40)"/>
      <path id="Trazado_96360" data-name="Trazado 96360" d="M2070.955,402.538l.236-1.285,0-.024a.536.536,0,0,1,1.055.191l-.239,1.335a.539.539,0,0,1-1.06-.19v0Z" transform="translate(-1866.867 -366.547)" fill="url(#linear-gradient-41)"/>
      <path id="Trazado_96361" data-name="Trazado 96361" d="M2073.382,383.7l.04-1.308v-.023a.527.527,0,0,1,1.053.03l-.036,1.355a.529.529,0,0,1-1.059-.028V383.7Z" transform="translate(-1868.737 -352.022)" fill="url(#linear-gradient-28)"/>
      <path id="Trazado_96362" data-name="Trazado 96362" d="M2072.5,364.771l-.148-1.3,0-.022a.517.517,0,0,1,1.028-.119l.159,1.346a.52.52,0,1,1-1.033.122v0Z" transform="translate(-1867.943 -337.458)" fill="url(#linear-gradient-28)"/>
      <path id="Trazado_96363" data-name="Trazado 96363" d="M2068.81,346.2l-.33-1.268-.005-.021a.508.508,0,0,1,.983-.258l.346,1.308a.511.511,0,0,1-.989.261v0Z" transform="translate(-1864.961 -323.19)" fill="url(#linear-gradient-41)"/>
      <path id="Trazado_96364" data-name="Trazado 96364" d="M2062.536,328.323l-.506-1.21-.008-.02a.5.5,0,0,1,.919-.387l.528,1.248a.5.5,0,1,1-.923.391v0Z" transform="translate(-1859.993 -309.482)" fill="url(#linear-gradient-28)"/>
      <path id="Trazado_96365" data-name="Trazado 96365" d="M2053.76,311.539l-.676-1.122-.011-.019a.489.489,0,0,1,.837-.507l.7,1.156a.492.492,0,0,1-.841.512v0Z" transform="translate(-1853.105 -296.637)" fill="url(#linear-gradient-28)"/>
      <path id="Trazado_96366" data-name="Trazado 96366" d="M2042.582,296.274l-.838-1-.014-.017a.48.48,0,0,1,.736-.617l.871,1.035a.483.483,0,0,1-.739.622v0Z" transform="translate(-1844.371 -284.982)" fill="url(#linear-gradient-28)"/>
      <path id="Trazado_96367" data-name="Trazado 96367" d="M2029.162,282.99c-.326-.291-.653-.579-.99-.857a.471.471,0,0,1,.6-.729c.35.287.691.584,1.03.884a.474.474,0,0,1-.628.709h0Z" transform="translate(-1833.924 -274.882)" fill="url(#linear-gradient-28)"/>
      <path id="Trazado_96368" data-name="Trazado 96368" d="M2013.683,272.041l-1.116-.684-.019-.011a.461.461,0,0,1,.48-.788l1.157.7a.464.464,0,0,1-.482.794h0Z" transform="translate(-1821.901 -266.591)" fill="url(#linear-gradient-28)"/>
      <path id="Trazado_96369" data-name="Trazado 96369" d="M1996.7,263.7l-1.21-.5-.019-.008a.452.452,0,0,1,.346-.835l1.25.514a.455.455,0,0,1-.346.842h0Z" transform="translate(-1808.76 -260.324)" fill="url(#linear-gradient-28)"/>
      <path id="Trazado_96370" data-name="Trazado 96370" d="M1978.664,258.027l-1.272-.322-.019,0a.435.435,0,0,1,.211-.844l1.312.322a.44.44,0,1,1-.21.855h0Z" transform="translate(-1794.835 -256.122)" fill="url(#linear-gradient-28)"/>
      <path id="Trazado_96371" data-name="Trazado 96371" d="M1959.984,255.037l-1.307-.136-.018,0a.419.419,0,0,1,.084-.833l1.344.13a.424.424,0,1,1-.082.843h0Z" transform="translate(-1780.442 -253.99)" fill="url(#linear-gradient-28)"/>
      <path id="Trazado_96372" data-name="Trazado 96372" d="M1941.05,254.56l-1.314.055h-.018a.4.4,0,0,1-.036-.8l1.35-.066a.407.407,0,1,1,.04.813h-.021Z" transform="translate(-1765.878 -253.746)" fill="url(#linear-gradient-28)"/>
      <path id="Trazado_96373" data-name="Trazado 96373" d="M1922.275,256.436l-1.29.25-.018,0a.385.385,0,0,1-.149-.756l1.323-.266a.391.391,0,0,1,.155.766h0Z" transform="translate(-1751.464 -255.213)" fill="url(#linear-gradient-28)"/>
      <path id="Trazado_96374" data-name="Trazado 96374" d="M1904.119,261.156l-1.233.448-.017.006a.369.369,0,0,1-.255-.693l1.263-.47a.374.374,0,0,1,.261.7h0Z" transform="translate(-1737.552 -258.869)" fill="url(#linear-gradient-28)"/>
      <path id="Trazado_96375" data-name="Trazado 96375" d="M1887.1,268.759c-.384.211-.768.422-1.144.648a.353.353,0,0,1-.365-.6c.385-.235.778-.455,1.171-.675a.358.358,0,0,1,.35.624h0Z" transform="translate(-1724.545 -264.745)" fill="url(#linear-gradient-28)"/>
      <path id="Trazado_96376" data-name="Trazado 96376" d="M1871.649,279.187l-1.018.831-.013.011a.336.336,0,0,1-.427-.519l1.037-.86a.341.341,0,0,1,.435.525l0,0Z" transform="translate(-1712.771 -272.79)" fill="url(#linear-gradient-28)"/>
      <path id="Trazado_96377" data-name="Trazado 96377" d="M1858.222,292.1l-.875.984-.01.011a.319.319,0,0,1-.479-.423l.887-1.013a.324.324,0,1,1,.488.427v0Z" transform="translate(-1702.575 -282.744)" fill="url(#linear-gradient-28)"/>
      <path id="Trazado_96378" data-name="Trazado 96378" d="M1847,307.048l-.718,1.108-.007.011a.3.3,0,0,1-.51-.327l.724-1.137a.308.308,0,1,1,.519.331v0Z" transform="translate(-1694.093 -294.262)" fill="url(#linear-gradient-41)"/>
      <path id="Trazado_96379" data-name="Trazado 96379" d="M1838.195,323.6l-.546,1.2-.005.011a.286.286,0,0,1-.522-.235l.547-1.228a.291.291,0,0,1,.532.237v0Z" transform="translate(-1687.476 -307.011)" fill="url(#linear-gradient-40)"/>
      <path id="Trazado_96380" data-name="Trazado 96380" d="M1831.961,341.366l-.362,1.269,0,.012a.27.27,0,0,1-.519-.146l.359-1.3a.275.275,0,0,1,.529.147v0Z" transform="translate(-1682.85 -320.684)" fill="url(#linear-gradient-28)"/>
      <path id="Trazado_96381" data-name="Trazado 96381" d="M1828.5,359.97l-.163,1.309,0,.012a.253.253,0,0,1-.5-.061l.157-1.334a.258.258,0,1,1,.513.06v0Z" transform="translate(-1680.366 -335.002)" fill="url(#linear-gradient-126)"/>
      <path id="Trazado_96382" data-name="Trazado 96382" d="M1827.821,378.987l.05,1.319v.012a.236.236,0,0,1-.472.02l-.061-1.342a.242.242,0,0,1,.483-.022v.014Z" transform="translate(-1679.989 -349.635)" fill="url(#linear-gradient-49)"/>
      <path id="Trazado_96383" data-name="Trazado 96383" d="M1829.768,397.959l.164.812,0,.007a.222.222,0,0,1-.435.09l-.174-.826a.225.225,0,1,1,.44-.092v0Z" transform="translate(-1681.511 -364.233)" fill="url(#linear-gradient-41)"/>
    </g>
  </g>
</svg>
