<svg xmlns="http://www.w3.org/2000/svg" width="168.326" height="338.336" viewBox="0 0 168.326 338.336">
  <g id="Grupo_53941" data-name="Grupo 53941" transform="translate(-926.307 -451.532)">
    <g id="Grupo_46726" data-name="Grupo 46726" transform="translate(926.307 495.726)">
      <path id="Trazado_97178" data-name="Trazado 97178" d="M726.781,1473.615h32.729a7.335,7.335,0,0,1,7.335,7.335v15.257a7.335,7.335,0,0,1-7.335,7.335h-.243l2.627,8.8a.417.417,0,0,1-.653.451l-12.126-9.251H726.781a7.335,7.335,0,0,1-7.335-7.335V1480.95A7.335,7.335,0,0,1,726.781,1473.615Z" transform="translate(-719.445 -1473.615)" fill="#dee7f3"/>
      <path id="Trazado_97179" data-name="Trazado 97179" d="M790.7,1521.1H759.28a3.631,3.631,0,0,1-3.631-3.631h0a3.631,3.631,0,0,1,3.631-3.631H790.7a3.631,3.631,0,0,1,3.631,3.631h0A3.631,3.631,0,0,1,790.7,1521.1Z" transform="translate(-750.653 -1508.285)" fill="#00223d" opacity="0.25"/>
      <path id="Trazado_97180" data-name="Trazado 97180" d="M790.7,1601.456H759.28a3.631,3.631,0,0,1-3.631-3.631h0a3.631,3.631,0,0,1,3.631-3.631H790.7a3.631,3.631,0,0,1,3.631,3.631h0A3.631,3.631,0,0,1,790.7,1601.456Z" transform="translate(-750.653 -1577.556)" fill="#00223d" opacity="0.25"/>
    </g>
    <g id="Grupo_53210" data-name="Grupo 53210" transform="translate(1036.593 487.189)">
      <path id="Trazado_97178-2" data-name="Trazado 97178" d="M759.508,1473.615H726.78a7.335,7.335,0,0,0-7.335,7.335v15.257a7.335,7.335,0,0,0,7.335,7.335h.243l-2.627,8.8a.417.417,0,0,0,.653.451l12.126-9.251h22.333a7.335,7.335,0,0,0,7.335-7.335V1480.95A7.335,7.335,0,0,0,759.508,1473.615Z" transform="translate(-719.445 -1473.615)" fill="#dee7f3"/>
      <path id="Trazado_97179-2" data-name="Trazado 97179" d="M759.28,1521.1H790.7a3.631,3.631,0,0,0,3.631-3.631h0a3.631,3.631,0,0,0-3.631-3.631H759.28a3.63,3.63,0,0,0-3.631,3.631h0A3.631,3.631,0,0,0,759.28,1521.1Z" transform="translate(-751.929 -1508.285)" fill="#00223d" opacity="0.25"/>
      <path id="Trazado_97180-2" data-name="Trazado 97180" d="M759.28,1601.456H790.7a3.631,3.631,0,0,0,3.631-3.631h0a3.631,3.631,0,0,0-3.631-3.631H759.28a3.63,3.63,0,0,0-3.631,3.631h0A3.631,3.631,0,0,0,759.28,1601.456Z" transform="translate(-751.929 -1577.556)" fill="#00223d" opacity="0.25"/>
    </g>
    <g id="Grupo_53209" data-name="Grupo 53209" transform="translate(956.632 464.493)">
      <g id="Grupo_46746" data-name="Grupo 46746" transform="translate(22.465)">
        <path id="v-2" d="M1205.544,1625.025h.01l8.263.031,1.871,19.519-9.646,5.092-10.287-5.035,1.662-19.576Z" transform="translate(-1174.858 -1579.636)" fill="#e49963"/>
        <g id="Grupo_46745" data-name="Grupo 46745" transform="translate(0)">
          <path id="Trazado_97195" data-name="Trazado 97195" d="M1147.92,1524.15c5.087,12.71,17.3,19.774,27.284,15.779s13.951-17.536,8.865-30.245-17.3-19.775-27.284-15.78S1142.835,1511.441,1147.92,1524.15Z" transform="translate(-1139.939 -1487.374)" fill="#e49963"/>
          <path id="Trazado_97196" data-name="Trazado 97196" d="M1257.478,1555.7a1.87,1.87,0,1,0,.467-2.6A1.869,1.869,0,0,0,1257.478,1555.7Z" transform="translate(-1217.688 -1529.215)"/>
          <path id="Trazado_97197" data-name="Trazado 97197" d="M1211.086,1574.045a2.024,2.024,0,1,0,.506-2.817A2.023,2.023,0,0,0,1211.086,1574.045Z" transform="translate(-1185.302 -1541.849)"/>
          <path id="Trazado_97198" data-name="Trazado 97198" d="M1248.857,1572.347c2.528,1.993,5.69,4.4,5.69,4.4a4.907,4.907,0,0,1-3.529,4.369c1.289-1.169,2.42-2.724,1.078-4.52S1248.857,1572.347,1248.857,1572.347Z" transform="translate(-1211.907 -1542.882)" fill="#d68d5d"/>
          <g id="Grupo_46740" data-name="Grupo 46740" transform="translate(21.166 25.856)">
            <path id="Trazado_97199" data-name="Trazado 97199" d="M1197.579,1565.533a.921.921,0,0,1-.217-.026.933.933,0,0,1-.691-1.124c.326-1.368,1.7-3.96,4.541-3.973a.933.933,0,1,1,.009,1.866c-2.107.01-2.729,2.515-2.735,2.541A.933.933,0,0,1,1197.579,1565.533Z" transform="translate(-1196.645 -1560.41)" fill="#201d40"/>
          </g>
          <g id="Grupo_46741" data-name="Grupo 46741" transform="translate(37.054 19.59)">
            <path id="Trazado_97200" data-name="Trazado 97200" d="M1249.98,1542.619a.778.778,0,0,1-.67-1.171,3.832,3.832,0,0,1,2.4-1.712,3.984,3.984,0,0,1,3.24,1.027.778.778,0,0,1-.971,1.215,2.525,2.525,0,0,0-1.986-.712,2.247,2.247,0,0,0-1.337.969A.778.778,0,0,1,1249.98,1542.619Z" transform="translate(-1249.203 -1539.683)" fill="#201d40"/>
          </g>
          <path id="Trazado_97201" data-name="Trazado 97201" d="M1127.665,1502.162c-4.3-12.247,6.177-19.288,6.177-19.288s-2.812-.252-3.147-4.2a10.386,10.386,0,0,0,6.536-.141c13.968-5.057,23.585-4.99,23.585.987,0,2.127,9.224.67,8.451,14.979.054-1.01-3.242-6.893-6.357-7.48s-.3,3.576-6.812,4.47c-6.569.9-11.4-.693-15.41,3.01-3.139,3.23-3.917,19.67-3.44,20.659C1136.156,1512.89,1129.556,1507.545,1127.665,1502.162Z" transform="translate(-1126.629 -1474.88)" fill="#00223d"/>
          <path id="Trazado_97202" data-name="Trazado 97202" d="M1197.174,1572.347s.594,7.458-.481,9.764c-1.12-2.991-3.522.178-5.779.477-5.453.721-15.291-1.1-16.266,7.083-6.664,2.109-12.908-12.157-12.908-12.157-.382,15.937,11.28,24.987,28.062,22.335C1200.86,1598.1,1201.885,1582.707,1197.174,1572.347Z" transform="translate(-1151.12 -1542.882)" fill="#00223d"/>
          <g id="Grupo_46742" data-name="Grupo 46742" transform="translate(30.864 40.33)">
            <path id="Trazado_97203" data-name="Trazado 97203" d="M1232.42,1612.705a14.148,14.148,0,0,1-3.366-1.32.622.622,0,0,1,.587-1.1c2.581,1.381,4.9,1.773,6.879,1.168a6.491,6.491,0,0,0,3.581-2.834.622.622,0,0,1,1.1.578,7.649,7.649,0,0,1-4.3,3.439A8.408,8.408,0,0,1,1232.42,1612.705Z" transform="translate(-1228.725 -1608.291)" fill="#d68d5d"/>
          </g>
          <g id="Grupo_46744" data-name="Grupo 46744" transform="translate(2.533 33.851)">
            <path id="Trazado_97204" data-name="Trazado 97204" d="M1142.939,1587.745c2.807,1.576,4.036,4.716,2.746,7.013s-4.611,2.881-7.418,1.3-4.036-4.716-2.746-7.013S1140.132,1586.167,1142.939,1587.745Z" transform="translate(-1135.008 -1586.858)" fill="#e49963"/>
            <g id="Grupo_46743" data-name="Grupo 46743" transform="translate(3.13 2.598)">
              <path id="Trazado_97205" data-name="Trazado 97205" d="M1149.735,1600.621a.712.712,0,0,0,.215-.243,3.182,3.182,0,0,0-.339-3.894,3.393,3.393,0,0,0-3.864-.708.7.7,0,0,0,.636,1.256,2.008,2.008,0,0,1,2.22.433,1.8,1.8,0,0,1,.108,2.244.7.7,0,0,0,1.024.911Z" transform="translate(-1145.361 -1595.453)" fill="#d68d5d"/>
            </g>
          </g>
        </g>
      </g>
      <path id="Trazado_97206" data-name="Trazado 97206" d="M1240.258,2475.033c1.759-4.776,5.517-5.308,5.517-5.308,7.307,10.082,25.251,3.9,24.657,17.532-27.287-.177-38.628,0-38.628,0a100.018,100.018,0,0,1,1.205-13.477l1.422.261Z" transform="translate(-1177.545 -2168.982)" fill="#36c"/>
      <path id="Trazado_97207" data-name="Trazado 97207" d="M1105.2,2475.907c1.759-4.776,5.518-5.306,5.518-5.306,7.307,10.081,25.251,3.895,24.657,17.529-27.287-.174-38.628,0-38.628,0a100.024,100.024,0,0,1,1.2-13.474l1.423.261Z" transform="translate(-1083.319 -2169.593)" fill="#36c"/>
      <path id="Trazado_97208" data-name="Trazado 97208" d="M1238.557,1960.59s4.43,64.615,2.63,78.981-8.174,32.783-7.451,80.3c-8.9,2.226-21.783,0-21.783,0s-1.91-53.728,7.493-77.726c-3.824-23.31-16.094-76.7-16.094-76.7Z" transform="translate(-1157.694 -1813.759)" fill="#213755"/>
      <path id="Trazado_97209" data-name="Trazado 97209" d="M1144.5,1966.432s-8.946,72.542-13.325,86.3-12.919,25.394-20.847,72.2c-9.141.458-17.654,0-17.654,0s1.234-59.375,15.471-72.878c.481-23.638-2.3-85.16-2.3-85.16Z" transform="translate(-1080.471 -1817.834)" fill="#344966"/>
      <g id="v" transform="translate(20.735 62.669)">
        <path id="h-5" d="M1122.956,1685.782s15.537-5.44,20.719-2.945c16.1,7.751,19.791,0,19.791,0,5.145.443,20.674,2.945,20.674,2.945,0,17.343,1.158,34.745.843,47.869-.222,11.429,1.956,42.532,1.956,42.532s-17.13,4.491-33.335,4.607c-16.205-.105-32.7-4.426-32.7-4.426s.865-31.5,1.585-43.21C1122.257,1720.031,1122.956,1703.079,1122.956,1685.782Z" transform="translate(-1120.905 -1682.182)" fill="#8ec8c8"/>
      </g>
      <g id="c" transform="translate(79.556 66.266)">
        <path id="c-2" data-name="c" d="M1347.516,1719.865c-6.413-15.3-25.444-25.034-27.619-25.776l-4.414,19.644a114.928,114.928,0,0,1,15.779,11.255c-1.125,5.469-.936,10.833-4.1,17.751,0,0,2.75-3.795,6.143-1.549,3.3,2.182,9.362-2.273,9.362-2.273S1352.414,1731.553,1347.516,1719.865Z" transform="translate(-1315.482 -1694.089)" fill="#26aab7"/>
      </g>
      <g id="c-3" data-name="c" transform="translate(0 66.266)">
        <g id="c-4" data-name="c" transform="translate(63.52 5.928)">
          <g id="c-5" data-name="c">
            <path id="c-6" data-name="c" d="M1310.723,1772.214a1.761,1.761,0,0,0,.333.067h.365a1.735,1.735,0,0,0,1.475-1.211l17.1-55.122a1.763,1.763,0,0,0,.068-.333,1.828,1.828,0,0,0,0-.218c0-.043,0-.087,0-.131s-.016-.075-.022-.113a1.731,1.731,0,0,0-1.19-1.377,1.784,1.784,0,0,0-.326-.07,1.832,1.832,0,0,0-.37,0h-43.04l-17.247,58.574h42.882Z" transform="translate(-1266.229 -1713.698)" fill="#7d6eb2"/>
            <path id="c-7" data-name="c" d="M1281.721,1713.776a1.738,1.738,0,0,0-2.174,1.144l-16.989,54.984-.039.129a1.736,1.736,0,0,0,1.136,2.167l0,0a1.737,1.737,0,0,0,2.174-1.143l17.033-55.11A1.736,1.736,0,0,0,1281.721,1713.776Z" transform="translate(-1262.441 -1713.697)" fill="#00223d"/>
          </g>
        </g>
        <path id="c-8" data-name="c" d="M1431.8,1803.2a1.782,1.782,0,0,1,.515-.224c-.018-.027-.038-.052-.057-.08-1.07-1.615-1-3.546.16-4.314a1.869,1.869,0,0,1,.618-.259,2.594,2.594,0,0,1,.8-2.885,1.948,1.948,0,0,1,1.111-.31,2.592,2.592,0,0,1,.849-3.022,3.04,3.04,0,0,1,3.309,4.993,2.166,2.166,0,0,1-.96.345c.771,1.5.616,3.149-.432,3.843a1.856,1.856,0,0,1-.618.26,2.593,2.593,0,0,1-.8,2.885,1.911,1.911,0,0,1-1.025.31,2.217,2.217,0,0,1-.675,2.675,2.568,2.568,0,0,1-2.795-4.216Z" transform="translate(-1316.479 -1762.223)" fill="#e49963"/>
        <path id="Trazado_97210" data-name="Trazado 97210" d="M1258.746,1799.715l3.924-2.273a7.413,7.413,0,0,1,7.387-5.7c-.722,2.335-1.761,5.7-1.761,5.7s3.1,2.407,10.456-1.713c7.19-1.616,4.119,3.626,6.5,4,3.516.556-2.563,7.466-9.742,8.521-9.289,1.369-10.391-.532-10.391-.532l-5.257,1.837Z" transform="translate(-1196.342 -1762.222)" fill="#e49963"/>
        <path id="c-9" data-name="c" d="M1078.417,1737.528c13.114-.916,35.484-7.393,35.484-7.393,3.581,5.491,2.59,12.784,2.59,12.784-20.364,17.854-51.014,23.626-60.417,19.329-8.585-3.923-2.525-56.186,19.031-68.158h0C1082.494,1706.593,1078.417,1737.528,1078.417,1737.528Z" transform="translate(-1052.319 -1694.089)" fill="#26aab7"/>
      </g>
    </g>
    <g id="Grupo_46794" data-name="Grupo 46794" transform="translate(941.611 744.991)">
      <g id="Grupo_46792" data-name="Grupo 46792" transform="translate(9.82 32.122)">
        <path id="Trazado_97307" data-name="Trazado 97307" d="M1434.17,2093.55v6.386h1.739a1.529,1.529,0,0,1,1.529,1.53v.253a1.528,1.528,0,0,1-1.529,1.53H1361.8a1.779,1.779,0,0,1-1.779-1.779v-9.2a1.778,1.778,0,0,1,1.779-1.778h74.109a1.529,1.529,0,0,1,1.529,1.526h0a1.529,1.529,0,0,1-1.529,1.529Z" transform="translate(-1360.021 -2090.495)" fill="#7d6eb2"/>
        <path id="Rectángulo_28257" data-name="Rectángulo 28257" d="M1.207,0H66.116a0,0,0,0,1,0,0V6.386a0,0,0,0,1,0,0H1.207A1.207,1.207,0,0,1,0,5.179V1.207A1.207,1.207,0,0,1,1.207,0Z" transform="translate(8.253 3.056)" fill="#fff"/>
      </g>
      <g id="Grupo_46793" data-name="Grupo 46793" transform="translate(0 18.008)">
        <path id="Trazado_97308" data-name="Trazado 97308" d="M1342.607,2064.151v7.067h-1.74a1.616,1.616,0,0,0-1.527,1.691v.285a1.614,1.614,0,0,0,1.527,1.69h74.111a1.882,1.882,0,0,0,1.779-1.967v-10.179a1.881,1.881,0,0,0-1.779-1.967h-74.111a1.615,1.615,0,0,0-1.527,1.69h0a1.615,1.615,0,0,0,1.527,1.691Z" transform="translate(-1339.34 -2060.77)" fill="#167377"/>
        <path id="Rectángulo_28258" data-name="Rectángulo 28258" d="M1.336,0h64.78a0,0,0,0,1,0,0V7.066a0,0,0,0,1,0,0H1.336A1.336,1.336,0,0,1,0,5.73V1.336A1.336,1.336,0,0,1,1.336,0Z" transform="translate(69.163 10.447) rotate(180)" fill="#fff"/>
      </g>
      <path id="Rectángulo_28259" data-name="Rectángulo 28259" d="M2.166,0H70.818a2.167,2.167,0,0,1,2.167,2.167V9.292a2.167,2.167,0,0,1-2.167,2.167H2.167A2.167,2.167,0,0,1,0,9.293V2.166A2.166,2.166,0,0,1,2.166,0Z" transform="translate(6.04 0)" fill="#5b7393"/>
      <rect id="Rectángulo_28260" data-name="Rectángulo 28260" width="72.985" height="6.549" rx="1.238" transform="translate(10.809 11.459)" fill="#7d6eb2"/>
    </g>
    <g id="Grupo_54152" data-name="Grupo 54152" transform="translate(935.149 583.134)">
      <path id="Trazado_100437" data-name="Trazado 100437" d="M2511.429,1127.775h-42.757c-2.023,0-3.662,1.971-3.662,4.4V1164c0,2.432,1.639,4.4,3.662,4.4h42.757c2.022,0,3.662-1.971,3.662-4.4v-31.822C2515.092,1129.746,2513.452,1127.775,2511.429,1127.775Z" transform="translate(-2465.011 -1127.775)" fill="#d7e9f9"/>
      <path id="Trazado_100438" data-name="Trazado 100438" d="M2515.087,1132.18v1.745h-50.081v-1.745c0-2.432,1.64-4.4,3.662-4.4h42.757C2513.448,1127.778,2515.087,1129.749,2515.087,1132.18Z" transform="translate(-2465.006 -1127.778)" fill="#7d6eb2"/>
      <g id="Grupo_50283" data-name="Grupo 50283" transform="translate(7.573 13.656)">
        <rect id="Rectángulo_29047" data-name="Rectángulo 29047" width="6.155" height="11.991" rx="2" transform="translate(0 9.093)" fill="#167377"/>
        <rect id="Rectángulo_29048" data-name="Rectángulo 29048" width="6.156" height="14.928" rx="2" transform="translate(9.593 6.156)" fill="#167377"/>
        <rect id="Rectángulo_29049" data-name="Rectángulo 29049" width="6.155" height="17.886" rx="2" transform="translate(19.186 3.198)" fill="#7d6eb2"/>
        <rect id="Rectángulo_29050" data-name="Rectángulo 29050" width="6.155" height="21.084" rx="2" transform="translate(28.779)" fill="#7d6eb2"/>
      </g>
      <circle id="Elipse_4018" data-name="Elipse 4018" cx="1.198" cy="1.198" r="1.198" transform="translate(2.462 2.145)" fill="#d8e5ed"/>
      <circle id="Elipse_4019" data-name="Elipse 4019" cx="1.198" cy="1.198" r="1.198" transform="translate(5.725 2.145)" fill="#d8e5ed"/>
      <circle id="Elipse_4020" data-name="Elipse 4020" cx="1.198" cy="1.198" r="1.198" transform="translate(8.988 2.145)" fill="#d8e5ed"/>
    </g>
    <g id="Grupo_47021" data-name="Grupo 47021" transform="translate(1051.245 602.773)">
      <g id="Grupo_47020" data-name="Grupo 47020" transform="translate(2.462 2.471)">
        <path id="Trazado_97743" data-name="Trazado 97743" d="M1372.411,209.378A18.917,18.917,0,0,1,1347.7,237.9l-6.7,2.887,2.886-6.7a18.917,18.917,0,0,1,28.524-24.708Z" transform="translate(-1339.803 -203.53)" fill="#fdfdfd" fill-rule="evenodd"/>
        <path id="Trazado_97744" data-name="Trazado 97744" d="M1356.355,239.379a19.211,19.211,0,0,1-11.377-3.722l-6.535,2.814a.316.316,0,0,1-.416-.416l2.814-6.535a19.235,19.235,0,1,1,16.8,7.815Q1357,239.379,1356.355,239.379Zm-11.335-4.4a.316.316,0,0,1,.19.063,18.6,18.6,0,1,0-2.01-28.047,18.678,18.678,0,0,0-1.742,24.294.317.317,0,0,1,.038.315l-2.572,5.971,5.972-2.572A.313.313,0,0,1,1345.02,234.978Z" transform="translate(-1337.12 -200.923)" fill="#00223d"/>
      </g>
      <circle id="Elipse_3890" data-name="Elipse 3890" cx="16.078" cy="16.078" r="16.078" transform="translate(5.616 5.617)" fill="#00223d"/>
      <path id="Trazado_97745" data-name="Trazado 97745" d="M1335.47,220.889a21.621,21.621,0,0,1-11.78-3.48.317.317,0,0,1,.345-.531,21.069,21.069,0,0,0,22.847.024.317.317,0,0,1,.343.532A21.691,21.691,0,0,1,1335.47,220.889Zm15.422-6.566a.317.317,0,0,1-.228-.536,21.008,21.008,0,0,0,2.646-25.812.317.317,0,1,1,.536-.338,21.8,21.8,0,0,1,3.226,13.654,21.46,21.46,0,0,1-5.951,12.934A.316.316,0,0,1,1350.892,214.323Zm-33.364-3.2a.317.317,0,0,1-.266-.144,21.717,21.717,0,0,1-3.361-14.039.317.317,0,0,1,.63.066,21.078,21.078,0,0,0,3.262,13.628.317.317,0,0,1-.265.489Zm-2.206-18.739a.317.317,0,0,1-.3-.422,21.7,21.7,0,0,1,26.546-13.6.316.316,0,0,1-.177.608,21.065,21.065,0,0,0-25.772,13.2A.317.317,0,0,1,1315.322,192.387Zm35.16-8.106a.316.316,0,0,1-.222-.091,21.087,21.087,0,0,0-4.382-3.316.317.317,0,0,1,.313-.55,21.721,21.721,0,0,1,4.513,3.415.316.316,0,0,1-.222.542Z" transform="translate(-1313.784 -177.498)" fill="#00223d"/>
    </g>
    <g id="Grupo_47026" data-name="Grupo 47026" transform="translate(1031.386 451.532)">
      <g id="Grupo_47025" data-name="Grupo 47025" transform="translate(0 0)">
        <path id="Trazado_97773" data-name="Trazado 97773" d="M2503.434,335.764h15.381a1.927,1.927,0,0,0,1.922-1.922v-14.42h-7.69l-1.922,1.922h-7.691a1.928,1.928,0,0,0-1.923,1.922v10.575A1.927,1.927,0,0,0,2503.434,335.764Z" transform="translate(-2501.195 -319.105)" fill="#eff4ef" fill-rule="evenodd"/>
        <path id="Trazado_97774" data-name="Trazado 97774" d="M2516.132,333.4H2500.75a2.241,2.241,0,0,1-2.239-2.239V320.583a2.241,2.241,0,0,1,2.239-2.239h7.56l1.83-1.83a.316.316,0,0,1,.224-.093h7.691a.316.316,0,0,1,.315.316v14.42A2.241,2.241,0,0,1,2516.132,333.4Zm-15.382-14.42a1.608,1.608,0,0,0-1.606,1.606v10.575a1.608,1.608,0,0,0,1.606,1.606h15.382a1.607,1.607,0,0,0,1.606-1.606v-14.1h-7.243l-1.83,1.83a.315.315,0,0,1-.223.093Z" transform="translate(-2498.511 -316.422)" fill="#00223d"/>
      </g>
      <path id="Trazado_97775" data-name="Trazado 97775" d="M2540.078,371.726h-4.806a.317.317,0,0,1,0-.633h4.806a.317.317,0,0,1,0,.633Z" transform="translate(-2531.111 -365.325)" fill="#00223d"/>
      <path id="Trazado_97776" data-name="Trazado 97776" d="M2537.194,408.172h-1.922a.316.316,0,0,1,0-.633h1.922a.316.316,0,1,1,0,.633Z" transform="translate(-2531.111 -397.926)" fill="#00223d"/>
    </g>
    <path id="Trazado_97777" data-name="Trazado 97777" d="M1429.6,282.747a10.584,10.584,0,1,0,9.971,7.013l-1.6,1.6a8.61,8.61,0,1,1-2.864-4.625l1.409-1.409a10.55,10.55,0,0,0-6.921-2.574Zm-5.57,9.542a1.324,1.324,0,0,1,1.872-1.872l3.7,3.7,8.331-8.331a1.324,1.324,0,1,1,1.872,1.872l-9.268,9.268a1.324,1.324,0,0,1-1.872,0Z" transform="translate(-356.665 331.131)" fill="#fff" fill-rule="evenodd"/>
  </g>
</svg>
