<svg xmlns="http://www.w3.org/2000/svg" width="194.831" height="252.418" viewBox="0 0 194.831 252.418">
  <g id="Grupo_10124" data-name="Grupo 10124" transform="translate(-1005.404 -90.998)">
    <path id="Trazado_10009" data-name="Trazado 10009" d="M1141.278,97.507l7.4,4.27V98.1l5.811,3.355v3.673l7.4,4.27V105.73l5.811,3.355v3.673l7.4,4.27v-3.673l5.812,3.355v3.673l7.4,4.27v-3.673l5.812,3.355v3.673l7.4,4.27v-3.673l5.811,3.355v3.673l7.4,4.27v-3.673l5.812,3.355v3.673l7.4,4.27v-3.673l4.911,2.835V287.721l-96.467-55.7V91l4.911,2.836Z" transform="translate(-34.496)" fill="#26aab7"/>
    <g id="Grupo_10123" data-name="Grupo 10123" transform="translate(1099.975 146.694)">
      <g id="Grupo_10122" data-name="Grupo 10122">
        <path id="Trazado_10010" data-name="Trazado 10010" d="M1227.922,173.119l-7.4,4.27v-3.673l-5.812,3.355v3.673l-7.4,4.27v-3.673l-5.811,3.355v3.673l-7.4,4.27v-3.673l-5.812,3.355V196l-7.4,4.27v-3.673l-5.811,3.355v3.673l-7.4,4.27v-3.673l-5.812,3.355v3.673l-7.4,4.27v-3.673l-5.812,3.355v3.673l-7.4,4.27v-3.673l-4.911,2.835V363.332l96.467-55.7V166.61l-4.911,2.836Z" transform="translate(-1134.47 -166.61)" fill="#167377"/>
        <g id="Grupo_10103" data-name="Grupo 10103" transform="translate(11.16 137.399)">
          <path id="Trazado_10011" data-name="Trazado 10011" d="M1166.449,378.637l-16.53,9.544V364.223l16.53-9.544Z" transform="translate(-1149.2 -353.546)" fill="#d5f2e8"/>
          <g id="Grupo_10102" data-name="Grupo 10102">
            <path id="Trazado_10012" data-name="Trazado 10012" d="M1166.911,378.535l-17.968,10.374V363.515l17.968-10.374Zm-16.531,8.106,15.093-8.714V355.408l-15.093,8.714Z" transform="translate(-1148.943 -353.141)" fill="#fff"/>
          </g>
          <path id="Trazado_10013" data-name="Trazado 10013" d="M1166.346,364.779l-16.211,9.359v1.437l7.387-4.265v15.412l1.438-.83V370.481l7.387-4.265Z" transform="translate(-1149.257 -356.206)" fill="#fff"/>
        </g>
        <g id="Grupo_10105" data-name="Grupo 10105" transform="translate(39.748 120.697)">
          <path id="Trazado_10014" data-name="Trazado 10014" d="M1207.984,374.257l-19.1,11.028V343.121l19.1-11.028Z" transform="translate(-1188.051 -330.895)" fill="#167377"/>
          <g id="Grupo_10104" data-name="Grupo 10104">
            <path id="Trazado_10015" data-name="Trazado 10015" d="M1208.517,374.068l-20.763,11.987v-43.6l20.763-11.987Zm-19.1,9.591,17.441-10.069V332.863l-17.441,10.069Z" transform="translate(-1187.754 -330.466)" fill="#26aab7"/>
          </g>
        </g>
        <g id="Grupo_10107" data-name="Grupo 10107" transform="translate(11.16 97.63)">
          <path id="Trazado_10016" data-name="Trazado 10016" d="M1166.449,324.647l-16.53,9.544V310.234l16.53-9.544Z" transform="translate(-1149.2 -299.556)" fill="#d5f2e8"/>
          <g id="Grupo_10106" data-name="Grupo 10106">
            <path id="Trazado_10017" data-name="Trazado 10017" d="M1166.911,324.545l-17.968,10.374V309.525l17.968-10.374Zm-16.531,8.107,15.093-8.714v-22.52l-15.093,8.714Z" transform="translate(-1148.943 -299.151)" fill="#fff"/>
          </g>
          <path id="Trazado_10018" data-name="Trazado 10018" d="M1166.346,310.789l-16.211,9.359v1.437l7.387-4.265v15.412l1.438-.83V316.491l7.387-4.265Z" transform="translate(-1149.257 -302.217)" fill="#fff"/>
        </g>
        <g id="Grupo_10109" data-name="Grupo 10109" transform="translate(11.16 57.861)">
          <path id="Trazado_10019" data-name="Trazado 10019" d="M1166.449,270.658l-16.53,9.544V256.244l16.53-9.544Z" transform="translate(-1149.2 -245.567)" fill="#d5f2e8"/>
          <g id="Grupo_10108" data-name="Grupo 10108">
            <path id="Trazado_10020" data-name="Trazado 10020" d="M1166.911,270.556l-17.968,10.374V255.535l17.968-10.374Zm-16.531,8.106,15.093-8.714V247.429l-15.093,8.714Z" transform="translate(-1148.943 -245.161)" fill="#fff"/>
          </g>
          <path id="Trazado_10021" data-name="Trazado 10021" d="M1166.346,256.8l-16.211,9.359V267.6l7.387-4.265v15.412l1.438-.83V262.5l7.387-4.265Z" transform="translate(-1149.257 -248.227)" fill="#fff"/>
        </g>
        <g id="Grupo_10114" data-name="Grupo 10114" transform="translate(41.146 80.318)">
          <g id="Grupo_10111" data-name="Grupo 10111" transform="translate(28.749 23.17)">
            <path id="Trazado_10022" data-name="Trazado 10022" d="M1246.186,332.6l-16.53,9.544V318.187l16.53-9.544Z" transform="translate(-1228.937 -307.509)" fill="#d5f2e8"/>
            <g id="Grupo_10110" data-name="Grupo 10110">
              <path id="Trazado_10023" data-name="Trazado 10023" d="M1246.648,332.5l-17.968,10.374V317.478l17.968-10.374Zm-16.53,8.107,15.093-8.714v-22.52l-15.093,8.714Z" transform="translate(-1228.68 -307.104)" fill="#fff"/>
            </g>
            <path id="Trazado_10024" data-name="Trazado 10024" d="M1246.084,318.742l-16.211,9.359v1.437l7.387-4.265v15.412l1.437-.83V324.444l7.387-4.265Z" transform="translate(-1228.994 -310.17)" fill="#fff"/>
          </g>
          <g id="Grupo_10113" data-name="Grupo 10113">
            <path id="Trazado_10025" data-name="Trazado 10025" d="M1207.158,301.144l-16.53,9.544V286.73l16.53-9.544Z" transform="translate(-1189.908 -276.053)" fill="#d5f2e8"/>
            <g id="Grupo_10112" data-name="Grupo 10112">
              <path id="Trazado_10026" data-name="Trazado 10026" d="M1207.619,301.042l-17.968,10.374V286.022l17.968-10.374Zm-16.53,8.106,15.093-8.714V277.915l-15.093,8.714Z" transform="translate(-1189.651 -275.648)" fill="#fff"/>
            </g>
            <path id="Trazado_10027" data-name="Trazado 10027" d="M1207.055,287.286l-16.211,9.359v1.437l7.387-4.265V309.23l1.437-.83V292.988l7.387-4.265Z" transform="translate(-1189.965 -278.713)" fill="#fff"/>
          </g>
        </g>
        <g id="Grupo_10116" data-name="Grupo 10116" transform="translate(41.146 40.549)">
          <path id="Trazado_10028" data-name="Trazado 10028" d="M1207.158,247.154l-16.53,9.544V232.741l16.53-9.544Z" transform="translate(-1189.908 -222.063)" fill="#d5f2e8"/>
          <g id="Grupo_10115" data-name="Grupo 10115">
            <path id="Trazado_10029" data-name="Trazado 10029" d="M1207.619,247.052l-17.968,10.374v-25.4l17.968-10.374Zm-16.53,8.107,15.093-8.714v-22.52l-15.093,8.714Z" transform="translate(-1189.651 -221.658)" fill="#fff"/>
          </g>
          <path id="Trazado_10030" data-name="Trazado 10030" d="M1207.055,233.3l-16.211,9.359v1.437l7.387-4.265v15.412l1.437-.83V239l7.387-4.265Z" transform="translate(-1189.965 -224.724)" fill="#fff"/>
        </g>
        <g id="Grupo_10121" data-name="Grupo 10121" transform="translate(69.894 23.951)">
          <g id="Grupo_10118" data-name="Grupo 10118" transform="translate(0 39.769)">
            <path id="Trazado_10031" data-name="Trazado 10031" d="M1246.186,278.611l-16.53,9.544V264.2l16.53-9.544Z" transform="translate(-1228.937 -253.52)" fill="#d5f2e8"/>
            <g id="Grupo_10117" data-name="Grupo 10117">
              <path id="Trazado_10032" data-name="Trazado 10032" d="M1246.648,278.509l-17.968,10.374V263.489l17.968-10.374Zm-16.53,8.106,15.093-8.714V255.382l-15.093,8.714Z" transform="translate(-1228.68 -253.115)" fill="#fff"/>
            </g>
            <path id="Trazado_10033" data-name="Trazado 10033" d="M1246.084,264.753l-16.211,9.359v1.437l7.387-4.265V286.7l1.437-.83V270.455l7.387-4.265Z" transform="translate(-1228.994 -256.18)" fill="#fff"/>
          </g>
          <g id="Grupo_10120" data-name="Grupo 10120">
            <path id="Trazado_10034" data-name="Trazado 10034" d="M1246.186,224.621l-16.53,9.544V210.208l16.53-9.544Z" transform="translate(-1228.937 -199.53)" fill="#d5f2e8"/>
            <g id="Grupo_10119" data-name="Grupo 10119">
              <path id="Trazado_10035" data-name="Trazado 10035" d="M1246.648,224.519l-17.968,10.374V209.5l17.968-10.374Zm-16.53,8.106,15.093-8.714V201.392l-15.093,8.714Z" transform="translate(-1228.68 -199.125)" fill="#fff"/>
            </g>
            <path id="Trazado_10036" data-name="Trazado 10036" d="M1246.084,210.763l-16.211,9.359v1.437l7.387-4.265v15.412l1.437-.83V216.465l7.387-4.265Z" transform="translate(-1228.994 -202.19)" fill="#fff"/>
          </g>
        </g>
        <path id="Trazado_10037" data-name="Trazado 10037" d="M1211.157,367.7l-.072.042c-.267.154-.483.063-.483-.2v-9.1a1,1,0,0,1,.483-.762l.072-.042c.267-.154.483-.063.483.2v9.1A1,1,0,0,1,1211.157,367.7Z" transform="translate(-1154.024 -216.908)" fill="#fff"/>
        <path id="Trazado_10038" data-name="Trazado 10038" d="M1233.285,235.729l-98.725,57c-.424.245-.768.1-.768-.324v-3.227a1.589,1.589,0,0,1,.768-1.21l98.725-57c.424-.245.768-.1.768.325v3.226A1.591,1.591,0,0,1,1233.285,235.729Z" transform="translate(-1133.792 -183.53)" fill="#26aab7"/>
        <path id="Trazado_10039" data-name="Trazado 10039" d="M1233.285,289.718l-98.725,57c-.424.245-.768.1-.768-.325v-3.227a1.59,1.59,0,0,1,.768-1.21l98.725-57c.424-.245.768-.1.768.324v3.227A1.591,1.591,0,0,1,1233.285,289.718Z" transform="translate(-1133.792 -197.751)" fill="#26aab7"/>
      </g>
    </g>
    <path id="Trazado_10040" data-name="Trazado 10040" d="M1101.871,222.3V363.332l-96.467-55.7V166.61Z" transform="translate(0 -19.916)" fill="#26aab7"/>
    <path id="Trazado_10041" data-name="Trazado 10041" d="M1005.4,146.694,1101.871,91l96.467,55.7-96.467,55.7Z" transform="translate(0)" fill="#26aab7"/>
    <path id="Trazado_10042" data-name="Trazado 10042" d="M1196.09,147.413l-5.589,3.227-87.382,50.452-87.387-50.452-5.589-3.227,92.977-53.679Z" transform="translate(-1.248 -0.721)" fill="#167377"/>
    <path id="Trazado_10043" data-name="Trazado 10043" d="M1192.5,152.948,1105.118,203.4l-87.387-50.452,87.387-50.452Z" transform="translate(-3.247 -3.028)" fill="#12263f"/>
  </g>
</svg>
