<svg xmlns="http://www.w3.org/2000/svg" xmlns:xlink="http://www.w3.org/1999/xlink" width="124.767" height="124.767" viewBox="0 0 124.767 124.767">
  <defs>
    <radialGradient id="radial-gradient" cx="0.076" cy="0.019" r="1.465" gradientTransform="translate(0.001)" gradientUnits="objectBoundingBox">
      <stop offset="0" stop-color="#f6f6f7"/>
      <stop offset="0.477" stop-color="#f9f9fa"/>
      <stop offset="0.715" stop-color="#fff"/>
    </radialGradient>
  </defs>
  <g id="Grupo_57027" data-name="Grupo 57027" transform="translate(-217 -997)">
    <g id="Grupo_18531" data-name="Grupo 18531" transform="translate(217 997)">
      <g id="Grupo_18423" data-name="Grupo 18423" transform="translate(0 0)">
        <g id="Grupo_18421" data-name="Grupo 18421">
          <g id="Grupo_18420" data-name="Grupo 18420">
            <g id="Grupo_18419" data-name="Grupo 18419">
              <path id="Trazado_40936" data-name="Trazado 40936" d="M319.39,2208.1a62.384,62.384,0,1,1-62.383-62.382A62.383,62.383,0,0,1,319.39,2208.1Z" transform="translate(-194.623 -2145.721)" fill="#fff"/>
            </g>
          </g>
        </g>
        <path id="Trazado_40937" data-name="Trazado 40937" d="M318.65,2207.3a62.382,62.382,0,1,0-62.383,62.385A62.136,62.136,0,0,0,318.65,2207.3Z" transform="translate(-193.883 -2144.915)" fill="url(#radial-gradient)"/>
        <path id="Trazado_40938" data-name="Trazado 40938" d="M297.307,2200.746a47.617,47.617,0,1,0-47.617,47.617A47.44,47.44,0,0,0,297.307,2200.746Z" transform="translate(-187.117 -2138.156)" fill="none" stroke="#7d6eb2" stroke-miterlimit="10" stroke-width="4"/>
        <g id="Grupo_18422" data-name="Grupo 18422" transform="translate(11.052 35.024)">
          <path id="Trazado_40939" data-name="Trazado 40939" d="M307.953,2164.488a62.391,62.391,0,0,1-107.408,62.125,62.193,62.193,0,0,0,107.408-62.125Z" transform="translate(-200.545 -2164.488)" fill="#eceef0"/>
        </g>
      </g>
    </g>
    <g id="Grupo_50464" data-name="Grupo 50464" transform="translate(-93.672 1012.123)">
      <path id="Trazado_40970" data-name="Trazado 40970" d="M350.476,36.279a4.811,4.811,0,1,1,4.811-4.811A4.816,4.816,0,0,1,350.476,36.279Zm0-7.744a2.933,2.933,0,1,0,2.933,2.934A2.937,2.937,0,0,0,350.476,28.535Z" transform="translate(0.67 0.401)" fill="#00223d"/>
      <path id="Trazado_40971" data-name="Trazado 40971" d="M345.446,52.467a.938.938,0,0,1-.938-.938V41.6a.938.938,0,1,1,1.877,0v9.925A.937.937,0,0,1,345.446,52.467Z" transform="translate(0.49 2.58)" fill="#00223d"/>
      <path id="Trazado_40972" data-name="Trazado 40972" d="M356.354,75.137h-3.917a.938.938,0,0,1-.938-.938V58.134a.35.35,0,0,0-.125-.269.354.354,0,0,0-.295-.079.41.41,0,0,0-.285.416v16a.939.939,0,0,1-.938.938h-3.918A.938.938,0,0,1,345,74.2v-19.3a2.76,2.76,0,0,1-3.642-2.682V42.236a6.294,6.294,0,0,1,5.578-6.254,36.323,36.323,0,0,1,4.221-.14.939.939,0,0,1-.009,1.878,34.076,34.076,0,0,0-4,.127,4.415,4.415,0,0,0-3.914,4.389v9.976a.928.928,0,0,0,.7.931A.885.885,0,0,0,345,52.279a.938.938,0,1,1,1.877,0V73.26h2.042V58.2a2.285,2.285,0,0,1,1.862-2.268,2.231,2.231,0,0,1,2.6,2.2V73.26h2.041V52.279a.938.938,0,1,1,1.877,0V74.2A.938.938,0,0,1,356.354,75.137Z" transform="translate(0 1.829)" fill="#00223d"/>
      <path id="Trazado_40973" data-name="Trazado 40973" d="M350.191,50.62a.94.94,0,0,1-.837-.512l-1.76-3.449a.94.94,0,0,1-.1-.528l.556-5.155a.939.939,0,1,1,1.866.2l-.526,4.878.8,1.562.8-1.562-.522-4.839a.938.938,0,0,1,1.866-.2l.551,5.117a.94.94,0,0,1-.1.528l-1.76,3.449A.937.937,0,0,1,350.191,50.62Z" transform="translate(0.954 2.498)" fill="#00223d"/>
      <path id="Trazado_40974" data-name="Trazado 40974" d="M355.864,52.114H345.446a.938.938,0,1,1,0-1.877h10.417a.938.938,0,1,1,0,1.877Z" transform="translate(0.49 4.069)" fill="#00223d"/>
      <path id="Trazado_40975" data-name="Trazado 40975" d="M355.162,53.217a.938.938,0,0,1-.938-.938V40.739a.939.939,0,0,1,.938-.938H365.77a1.041,1.041,0,1,0,0-2.081H349.954a.939.939,0,0,1,0-1.878H365.77a2.918,2.918,0,1,1,0,5.835H356.1v10.6A.937.937,0,0,1,355.162,53.217Z" transform="translate(1.191 1.83)" fill="#00223d"/>
      <path id="Trazado_40976" data-name="Trazado 40976" d="M401.413,56.533H362.405a.938.938,0,0,1-.938-.938V42.569a.938.938,0,0,1,.938-.938h1.428a1.041,1.041,0,1,0,0-2.081h-1.428a.939.939,0,0,1-.938-.939V25.016a.939.939,0,0,1,.938-.939h39.008a.939.939,0,0,1,.938.939V55.594A.939.939,0,0,1,401.413,56.533Zm-38.069-1.877h37.131v-28.7H363.344V37.672h.49a2.918,2.918,0,1,1,0,5.835h-.49Z" transform="translate(3.128 0)" fill="#00223d"/>
      <path id="Trazado_40977" data-name="Trazado 40977" d="M383.32,38.678a.925.925,0,0,1-.358-.072.939.939,0,0,1-.58-.867V27.673a.939.939,0,0,1,.939-.938,10.929,10.929,0,0,1,7.78,3.223.94.94,0,0,1,0,1.328L383.985,38.4A.935.935,0,0,1,383.32,38.678Zm.94-10.019v6.814l4.817-4.819A9.046,9.046,0,0,0,384.26,28.659Z" transform="translate(6.381 0.413)" fill="#00223d"/>
      <path id="Trazado_40978" data-name="Trazado 40978" d="M382.272,50.605a11,11,0,0,1,0-22.008.939.939,0,0,1,.938.938v9.678l6.842,6.843a.937.937,0,0,1,0,1.327A10.928,10.928,0,0,1,382.272,50.605Zm-.938-20.083a9.128,9.128,0,1,0,6.7,16.164l-6.42-6.42a.937.937,0,0,1-.275-.663Z" transform="translate(4.653 0.703)" fill="#00223d"/>
      <path id="Trazado_40979" data-name="Trazado 40979" d="M391.911,47.261a.937.937,0,0,1-.664-.275l-7.117-7.117a.94.94,0,0,1,0-1.328l7.117-7.117a.939.939,0,0,1,1.234-.082,10,10,0,0,1,3.316,7.863,10.933,10.933,0,0,1-3.223,7.78A.935.935,0,0,1,391.911,47.261Zm-5.792-8.055,5.758,5.757a9.065,9.065,0,0,0,2.043-5.757,8.681,8.681,0,0,0-2-5.8Z" transform="translate(6.61 1.1)" fill="#00223d"/>
      <path id="Trazado_40980" data-name="Trazado 40980" d="M402.558,55.7H361.921a2.579,2.579,0,1,1,0-5.157h40.637a2.579,2.579,0,0,1,0,5.157Zm-40.637-3.281a.7.7,0,0,0,0,1.4h40.637a.7.7,0,0,0,0-1.4Z" transform="translate(2.797 4.116)" fill="#00223d"/>
    </g>
  </g>
</svg>
