<svg xmlns="http://www.w3.org/2000/svg" width="392.387" height="317" viewBox="0 0 392.387 317">
  <g id="Grupo_46713" data-name="Grupo 46713" transform="translate(-1328.082 -309.288)">
    <g id="Grupo_46712" data-name="Grupo 46712" transform="translate(1328.082 309.288)">
      <path id="Trazado_97072" data-name="Trazado 97072" d="M2123.808,429.108c6.968,0,12.984,4.739,15.807,11.6a20.429,20.429,0,0,1,25.477,19.78v.057c11.572.836,20.718,11.13,20.718,23.708a24.865,24.865,0,0,1-3.284,12.433,20.414,20.414,0,0,1,4.25,32.226c3.832,5.295,6.154,13.116,6.221,21.914l35.885,26.759-39.95-6.2c-3,6.861-7.39,12.063-12.336,14.505.049.644.075,1.295.075,1.954,0,12.915-9.644,23.425-21.657,23.756-3.276,10.661-12.666,18.36-23.74,18.36-13.8,0-24.982-11.952-24.982-26.694V449.521C2106.291,438.248,2114.134,429.108,2123.808,429.108Z" transform="translate(-1903.823 -397.934)" fill="#7d6eb2"/>
      <g id="Grupo_46673" data-name="Grupo 46673" transform="translate(0 78.108)">
        <path id="Trazado_97073" data-name="Trazado 97073" d="M1448.491,648.452l.724-.724L1410.99,609.5h-82.908v1.024h82.484Z" transform="translate(-1328.082 -609.503)" fill="#26aab7"/>
      </g>
      <g id="Grupo_46674" data-name="Grupo 46674" transform="translate(104.519 42.336)">
        <path id="Trazado_97074" data-name="Trazado 97074" d="M1781.693,493.6l.724-.724L1761.55,472.01h-31.737v1.024h31.312Z" transform="translate(-1729.813 -472.01)" fill="#167377"/>
      </g>
      <g id="Grupo_46675" data-name="Grupo 46675" transform="translate(54.752 156.511)">
        <path id="Trazado_97075" data-name="Trazado 97075" d="M1600.269,927.372l.725-.725L1585.2,910.854h-46.673v1.024h46.249Z" transform="translate(-1538.527 -910.854)" fill="#167377"/>
      </g>
      <g id="Grupo_46676" data-name="Grupo 46676" transform="translate(38.64 190.772)">
        <path id="Trazado_97076" data-name="Trazado 97076" d="M1476.6,1073.712h62.421l30.448-30.449-.724-.723-30.149,30.148h-62Z" transform="translate(-1476.601 -1042.54)" fill="#167377"/>
      </g>
      <path id="Trazado_97077" data-name="Trazado 97077" d="M1613.868,658.482h1.885l-1.885-3.912h-1.887Z" transform="translate(-1538.118 -564.737)" fill="#26aab7"/>
      <path id="Trazado_97078" data-name="Trazado 97078" d="M1574.426,657.481h9.773l-1.4-2.911h-9.772Z" transform="translate(-1509.296 -564.737)" fill="#26aab7"/>
      <path id="Trazado_97079" data-name="Trazado 97079" d="M1997.207,1266.249h1.147l-3.5-7.076h-1.147Z" transform="translate(-1820.529 -1012.04)" fill="#00223d"/>
      <rect id="Rectángulo_28204" data-name="Rectángulo 28204" width="40.061" height="0.838" transform="translate(74.13 94.732) rotate(180)" fill="#26aab7"/>
      <rect id="Rectángulo_28205" data-name="Rectángulo 28205" width="55.541" height="0.88" transform="translate(213.586 254.441) rotate(180)" fill="#00223d"/>
      <rect id="Rectángulo_28206" data-name="Rectángulo 28206" width="29.669" height="5.093" transform="translate(213.586 261.509) rotate(180)" fill="#00223d"/>
      <g id="Grupo_46677" data-name="Grupo 46677" transform="translate(146.389 3.834)">
        <path id="Trazado_97080" data-name="Trazado 97080" d="M2230.33,324.027v.658l1.677,0,0,1.679h.659l0-2.338Zm.035,20.667v.659l2.336,0,0-2.338h-.659l0,1.679Z" transform="translate(-2141.98 -324.023)" fill="#12263f"/>
        <path id="Trazado_97081" data-name="Trazado 97081" d="M1890.746,324.149l0,2.338h.658l0-1.679,1.678,0,0-.659Zm.032,18.988,0,2.338,2.339,0,0-.659-1.68,0,0-1.679Z" transform="translate(-1890.746 -324.113)" fill="#12263f"/>
      </g>
      <rect id="Rectángulo_28207" data-name="Rectángulo 28207" width="20.988" height="1.471" transform="translate(327.749 61.787) rotate(180)" fill="#00223d"/>
      <rect id="Rectángulo_28208" data-name="Rectángulo 28208" width="20.988" height="6.185" transform="translate(327.749 69.274) rotate(180)" fill="#00223d"/>
      <rect id="Rectángulo_28209" data-name="Rectángulo 28209" width="12.381" height="0.925" transform="translate(309.284 72.278) rotate(180)" fill="#00223d"/>
      <rect id="Rectángulo_28210" data-name="Rectángulo 28210" width="12.381" height="2.503" transform="translate(309.284 75.185) rotate(180)" fill="#00223d"/>
      <rect id="Rectángulo_28211" data-name="Rectángulo 28211" width="0.924" height="17.33" transform="translate(307.224 69.274) rotate(180)" fill="#00223d"/>
      <rect id="Rectángulo_28212" data-name="Rectángulo 28212" width="15.459" height="2.8" transform="translate(177.824 247.134) rotate(180)" fill="#00223d"/>
      <rect id="Rectángulo_28213" data-name="Rectángulo 28213" width="15.459" height="0.526" transform="translate(177.824 243.553) rotate(180)" fill="#00223d"/>
      <rect id="Rectángulo_28214" data-name="Rectángulo 28214" width="27.032" height="3.379" transform="translate(338.574 130.343) rotate(180)" fill="#00223d"/>
      <rect id="Rectángulo_28215" data-name="Rectángulo 28215" width="2.227" height="3.379" transform="translate(308.929 130.343) rotate(180)" fill="#00223d"/>
      <path id="Trazado_97082" data-name="Trazado 97082" d="M1754.341,528.913a20.416,20.416,0,0,1,4.25-32.226,24.867,24.867,0,0,1-3.283-12.433c0-12.578,9.145-22.872,20.718-23.708,0-.019,0-.038,0-.057a20.429,20.429,0,0,1,25.477-19.78c2.822-6.862,8.839-11.6,15.806-11.6,9.676,0,17.52,9.14,17.52,20.413V603.265c0,14.742-11.186,26.694-24.984,26.694-11.073,0-20.463-7.7-23.739-18.361-12.013-.33-21.656-10.84-21.656-23.755q0-.988.075-1.954c-8.051-3.975-14.646-15.255-16.11-29.112C1747.232,545.607,1749.665,535.377,1754.341,528.913Z" transform="translate(-1638.836 -397.934)" fill="#e4f4f6"/>
      <g id="Grupo_46678" data-name="Grupo 46678" transform="translate(147.959 177.207)">
        <path id="Trazado_97083" data-name="Trazado 97083" d="M1896.979,1022.085l1.206-.236-.6.119.6-.118c-.011-.058-1.09-5.862,2.38-10.072,2.463-2.987,6.608-4.5,12.322-4.5,5.892,0,10.116-1.634,12.555-4.861,3.736-4.942,1.874-11.725,1.792-12.011l-1.182.335c.018.064,1.773,6.493-1.594,10.941-2.2,2.9-6.088,4.367-11.571,4.367-6.1,0-10.572,1.668-13.277,4.958C1895.773,1015.671,1896.928,1021.827,1896.979,1022.085Z" transform="translate(-1896.777 -990.404)" fill="#fff"/>
      </g>
      <g id="Grupo_46679" data-name="Grupo 46679" transform="translate(124.24 141.285)">
        <path id="Trazado_97084" data-name="Trazado 97084" d="M1845.439,897.363c.02-.389.423-9.59-5.715-16.055-3.8-4-9.254-6.031-16.211-6.031-6.132,0-10.644-1.795-13.411-5.333-5.163-6.6-2.608-17.208-2.582-17.314l-1.192-.3c-.115.457-2.729,11.284,2.8,18.363,3.011,3.855,7.85,5.81,14.383,5.81,6.6,0,11.753,1.9,15.312,5.64,5.776,6.075,5.391,15.064,5.386,15.154Z" transform="translate(-1805.611 -852.333)" fill="#fff"/>
      </g>
      <g id="Grupo_46680" data-name="Grupo 46680" transform="translate(130.982 105.504)">
        <path id="Trazado_97085" data-name="Trazado 97085" d="M1840.711,761.119c4.321,0,9.391-.827,13.4-3.873,4.511-3.423,6.8-9.014,6.8-16.617,0-7.97,2.279-14.155,6.774-18.384,7.179-6.754,17.659-6.2,17.764-6.192l.075-1.227c-.451-.027-11.12-.591-18.681,6.524-4.751,4.47-7.161,10.957-7.161,19.279,0,7.2-2.123,12.46-6.311,15.639-8.108,6.154-21.381,2.545-21.515,2.508l-.33,1.184A37.324,37.324,0,0,0,1840.711,761.119Z" transform="translate(-1831.526 -714.805)" fill="#fff"/>
      </g>
      <g id="Grupo_46681" data-name="Grupo 46681" transform="translate(136.195 68.76)">
        <path id="Trazado_97086" data-name="Trazado 97086" d="M1886.74,608.813l1.222-.132a25.7,25.7,0,0,0-2.9-8.756,16.129,16.129,0,0,0-14.764-8.841c-15.43,0-17.51-8.851-17.51-17.51h-1.229c0,5.908,1.109,10.061,3.493,13.07,3.02,3.815,8.007,5.669,15.246,5.669,6.052,0,10.653,2.75,13.67,8.174A24.867,24.867,0,0,1,1886.74,608.813Z" transform="translate(-1851.563 -573.573)" fill="#fff"/>
      </g>
      <g id="Grupo_46682" data-name="Grupo 46682" transform="translate(124.779 98.409)">
        <path id="Trazado_97087" data-name="Trazado 97087" d="M1828.257,713.369c-2.9-2.439-4.377-6.261-4.377-11.36,0-4.461-1.313-7.859-3.9-10.1-4.666-4.036-12.016-3.028-12.113-3.014l-.179-1.216c.324-.047,7.984-1.114,13.089,3.3,2.877,2.485,4.335,6.2,4.335,11.034,0,4.715,1.323,8.219,3.933,10.413,4.212,3.544,10.457,2.51,10.519,2.5l.212,1.21a15.418,15.418,0,0,1-2.464.179A14.108,14.108,0,0,1,1828.257,713.369Zm-20.484-25.082.09.608h0Z" transform="translate(-1807.684 -687.533)" fill="#fff"/>
      </g>
      <g id="Grupo_46683" data-name="Grupo 46683" transform="translate(162.848 45.914)">
        <path id="Trazado_97088" data-name="Trazado 97088" d="M1954.761,525.291c1.254,0,9.488-.191,14.471-5.085a12.71,12.71,0,0,0,3.718-9.448c0-7.434-4.62-10.2-9.087-12.872-4.437-2.655-8.626-5.163-8.626-12.123h-1.229c0,7.657,4.689,10.463,9.225,13.177,4.365,2.613,8.489,5.081,8.489,11.818a11.526,11.526,0,0,1-3.35,8.572c-4.927,4.837-13.651,4.735-13.738,4.733l-.023,1.228Z" transform="translate(-1954.008 -485.763)" fill="#fff"/>
      </g>
      <g id="Grupo_46684" data-name="Grupo 46684" transform="translate(162.849 133.725)">
        <path id="Trazado_97089" data-name="Trazado 97089" d="M1979.074,850.645h1.229c0-4.74-1.314-15.761-13.484-15.761-4.566,0-7.9-1.928-9.9-5.732a15.8,15.8,0,0,1-1.68-5.876l-1.228.056a16.737,16.737,0,0,0,1.8,6.354c1.532,2.932,4.685,6.427,11.007,6.427C1977.482,836.112,1979.074,845.217,1979.074,850.645Z" transform="translate(-1954.011 -823.276)" fill="#fff"/>
      </g>
      <g id="Grupo_46685" data-name="Grupo 46685" transform="translate(219.507 177.207)">
        <path id="Trazado_97090" data-name="Trazado 97090" d="M2202.573,1022.085c.051-.258,1.207-6.414-2.631-11.08-2.706-3.289-7.173-4.958-13.277-4.958-5.482,0-9.375-1.469-11.569-4.367-3.37-4.448-1.614-10.877-1.6-10.942l-1.182-.335c-.082.286-1.944,7.069,1.792,12.011,2.439,3.227,6.663,4.861,12.556,4.861,5.72,0,9.868,1.517,12.328,4.51,3.473,4.223,2.385,10.005,2.374,10.063Z" transform="translate(-2171.781 -990.404)" fill="#fff"/>
      </g>
      <g id="Grupo_46686" data-name="Grupo 46686" transform="translate(234.379 141.285)">
        <path id="Trazado_97091" data-name="Trazado 97091" d="M2228.958,897.363l1.226-.063c0-.09-.388-9.079,5.388-15.154,3.557-3.742,8.709-5.64,15.313-5.64,6.531,0,11.37-1.955,14.382-5.81,5.53-7.079,2.916-17.906,2.8-18.363l-1.194.3c.027.106,2.583,10.711-2.579,17.314-2.768,3.539-7.281,5.333-13.411,5.333-6.958,0-12.412,2.029-16.211,6.031C2228.533,887.773,2228.937,896.974,2228.958,897.363Z" transform="translate(-2228.945 -852.333)" fill="#fff"/>
      </g>
      <g id="Grupo_46687" data-name="Grupo 46687" transform="translate(213.479 105.504)">
        <path id="Trazado_97092" data-name="Trazado 97092" d="M2193.424,761.119a37.328,37.328,0,0,0,9.184-1.159l-.331-1.184c-.134.037-13.419,3.64-21.517-2.512-4.186-3.178-6.308-8.439-6.308-15.635,0-8.322-2.409-14.809-7.16-19.279-7.561-7.115-18.231-6.551-18.682-6.524l.075,1.227c.1-.005,10.6-.552,17.773,6.2,4.49,4.228,6.766,10.411,6.766,18.377,0,7.6,2.287,13.194,6.8,16.617C2184.034,760.292,2189.1,761.119,2193.424,761.119Z" transform="translate(-2148.611 -714.805)" fill="#fff"/>
      </g>
      <g id="Grupo_46688" data-name="Grupo 46688" transform="translate(225.865 68.76)">
        <path id="Trazado_97093" data-name="Trazado 97093" d="M2197.441,608.813a24.916,24.916,0,0,1,2.768-8.326c3.018-5.424,7.618-8.174,13.671-8.174,7.24,0,12.226-1.854,15.246-5.669,2.383-3.01,3.493-7.163,3.493-13.07h-1.229c0,8.659-2.081,17.51-17.51,17.51a16.129,16.129,0,0,0-14.764,8.841,25.627,25.627,0,0,0-2.9,8.756Z" transform="translate(-2196.22 -573.573)" fill="#fff"/>
      </g>
      <g id="Grupo_46689" data-name="Grupo 46689" transform="translate(241.592 98.409)">
        <path id="Trazado_97094" data-name="Trazado 97094" d="M2259.132,716.31a14.107,14.107,0,0,0,9.05-2.941c2.9-2.439,4.376-6.261,4.376-11.36,0-4.463,1.316-7.863,3.909-10.1,4.685-4.046,12.034-3.021,12.108-3.009l.179-1.216c-.325-.048-7.985-1.114-13.089,3.3-2.877,2.486-4.336,6.2-4.336,11.034,0,4.719-1.325,8.224-3.938,10.419-4.224,3.547-10.451,2.5-10.513,2.493l-.213,1.211A15.475,15.475,0,0,0,2259.132,716.31Z" transform="translate(-2256.666 -687.532)" fill="#fff"/>
      </g>
      <g id="Grupo_46690" data-name="Grupo 46690" transform="translate(216.667 45.914)">
        <path id="Trazado_97095" data-name="Trazado 97095" d="M2179.055,525.291h.15l-.022-1.228c-.087,0-8.825.1-13.743-4.737a11.53,11.53,0,0,1-3.346-8.567c0-6.737,4.124-9.2,8.489-11.818,4.535-2.713,9.226-5.52,9.226-13.177h-1.229c0,6.96-4.19,9.467-8.628,12.123-4.466,2.673-9.087,5.438-9.087,12.872a12.714,12.714,0,0,0,3.718,9.448C2169.568,525.1,2177.8,525.291,2179.055,525.291Z" transform="translate(-2160.865 -485.763)" fill="#fff"/>
      </g>
      <g id="Grupo_46691" data-name="Grupo 46691" transform="translate(209.317 133.725)">
        <path id="Trazado_97096" data-name="Trazado 97096" d="M2132.616,850.645h1.229c0-5.428,1.592-14.532,12.256-14.532,6.32,0,9.474-3.494,11.007-6.427a16.781,16.781,0,0,0,1.8-6.354l-1.228-.056h0a15.813,15.813,0,0,1-1.681,5.876c-2,3.8-5.332,5.732-9.9,5.732C2133.93,834.884,2132.616,845.905,2132.616,850.645Z" transform="translate(-2132.616 -823.276)" fill="#fff"/>
      </g>
      <g id="Grupo_46703" data-name="Grupo 46703" transform="translate(251.256 174.466)">
        <path id="Trazado_97097" data-name="Trazado 97097" d="M2457.64,1217a23.339,23.339,0,0,1-2.675.392c-.865.027-4.869-1.788-6.149-1.615s-9.634,3.722-10.013,3.981.178.829.178.829l19.178.228Z" transform="translate(-2400.983 -1154.395)" fill="#dba585"/>
        <rect id="Rectángulo_28216" data-name="Rectángulo 28216" width="31.9" height="2.922" transform="translate(63.119 69.194) rotate(-179.566)" fill="#12263f"/>
        <rect id="Rectángulo_28217" data-name="Rectángulo 28217" width="31.899" height="2.922" transform="matrix(-0.292, -0.956, 0.956, -0.292, 31.209, 68.952)" fill="#12263f"/>
        <g id="Grupo_46692" data-name="Grupo 46692" transform="translate(89.47 124.947)">
          <path id="Trazado_97098" data-name="Trazado 97098" d="M2637.7,1463.147l1.231,2.662s5.181-1.932,5.207-2-1.427-3.7-1.427-3.7Z" transform="translate(-2637.703 -1460.115)" fill="#525368"/>
        </g>
        <g id="Grupo_46693" data-name="Grupo 46693" transform="translate(43.657 127.921)">
          <path id="Trazado_97099" data-name="Trazado 97099" d="M2463.049,1471.547l-1.434,4.189s5.687,1.253,6.513,1.187c.073-.006,1.075-4.745,1.075-4.745Z" transform="translate(-2461.615 -1471.547)" fill="#6a6b87"/>
        </g>
        <path id="Trazado_97100" data-name="Trazado 97100" d="M2428.749,1481s-3.974-1.08-4.092-1.252a4.107,4.107,0,0,0-2.327-1.03c-.752.126-.82,1.024-1.57,1.208s-6.558,2.041-7.363,2.515-4.647-.923-5.386.072-1.458,3.611,4.578,4.515,12.5,3.6,13.943,3.231S2428.969,1482.605,2428.749,1481Z" transform="translate(-2377.942 -1348.92)" fill="#167377"/>
        <path id="Trazado_97101" data-name="Trazado 97101" d="M2618.408,1471.6s-3.683,1.572-3.877,1.512a3.994,3.994,0,0,0-2.4.617c-.5.549-.008,1.276-.469,1.868s-3.088,4.069-3.856,4.87c-.629.656-4.076,1.27-5.181,2.425-.833.87.147,4.353,6.011,2.688,5.71-1.62,12.781-4.429,13.662-5.58S2619.547,1472.691,2618.408,1471.6Z" transform="translate(-2522.092 -1343.662)" fill="#167377"/>
        <g id="Grupo_46694" data-name="Grupo 46694" transform="translate(61.07 67.156)">
          <path id="Trazado_97102" data-name="Trazado 97102" d="M2560.012,1246.543s-16.2,7.2-19.632,9.667-10.948,7-11.2,8.108-1.738.029.928,5.573,15.267,18.892,16.449,20.343c1.232,1.513,9.974,10.576,9.974,10.576l6.576-4.952s-12.642-18.589-14.473-21.322-2.652-3.137-1.571-4.345,5.4-1.189,27.652-10.4c2.224-.921,8.426-3.054,9.245-6.039,1.477-5.395.21-12.231-5.77-15.239S2560.012,1246.543,2560.012,1246.543Z" transform="translate(-2528.542 -1237.991)" fill="#6756a0"/>
        </g>
        <g id="Grupo_46695" data-name="Grupo 46695" transform="translate(84.763 21.384)">
          <path id="Trazado_97103" data-name="Trazado 97103" d="M2619.682,1064.24a2.357,2.357,0,0,1,.458.779,18.755,18.755,0,0,1,.717,2.129c.735,2.57,1.4,5.866,1.4,5.866s9.272-7.725,7.961-8.21-2.281-2.743-2.281-2.743S2618.705,1063.373,2619.682,1064.24Z" transform="translate(-2619.61 -1062.061)" fill="#dba585"/>
        </g>
        <g id="Grupo_46696" data-name="Grupo 46696" transform="translate(85.414 50.247)">
          <path id="Trazado_97104" data-name="Trazado 97104" d="M2622.112,1173s7.524,14.388,7.85,19.782,15.708-1.7,15.708-1.7Z" transform="translate(-2622.112 -1172.999)" fill="#e7dac4"/>
        </g>
        <g id="Grupo_46697" data-name="Grupo 46697" transform="translate(92.793 68.634)">
          <path id="Trazado_97105" data-name="Trazado 97105" d="M2650.917,1244.721l-.173,1.341-.268,1.769h0c.231-.015,15.021-.944,16.093-.671s-2.036-3.489-2.036-3.489Z" transform="translate(-2650.476 -1243.671)" fill="#363957"/>
        </g>
        <g id="Grupo_46698" data-name="Grupo 46698" transform="translate(43.657 71.994)">
          <path id="Trazado_97106" data-name="Trazado 97106" d="M2510.751,1257.384s-16.736,3.938-20.874,5.26-11.257,3.65-13.171,4.741c-1.017.581-2.568,1.449-4.428,7.5-2.106,6.855-6.916,26.136-8.007,29.14-.685,1.885-2.657,9.306-2.657,9.306l8.552,1.482s10.184-20.5,11.011-25.97c1.39-9.2,4.956-9.25,6.4-10.087s8.379.735,33.062-1.234c2.467-.2,9.211-.319,10.956-2.981,3.154-4.81,6.337-10.272,1.439-15.108S2510.751,1257.384,2510.751,1257.384Z" transform="translate(-2461.615 -1256.584)" fill="#7d6eb2"/>
        </g>
        <g id="Grupo_46699" data-name="Grupo 46699" transform="translate(76.843 2.868)">
          <path id="Trazado_97107" data-name="Trazado 97107" d="M2593.891,992.218s-2.9,5-2.237,6.365-3.025,4.66-2.42,5.358,1.852,1.545,1.83,1.749,1.072,6.723,2.493,6.869,11.139-.358,11.945-3.4,3.175-9.7,3.734-10.933S2604.193,987.441,2593.891,992.218Z" transform="translate(-2589.167 -990.89)" fill="#dba585"/>
        </g>
        <g id="Grupo_46700" data-name="Grupo 46700" transform="translate(80.647)">
          <path id="Trazado_97108" data-name="Trazado 97108" d="M2616.691,983.1a10.817,10.817,0,0,1,1.985,1.886c.637.3,4.4,2.165,3.613,4.184-1.05,2.714-5.3,9.986-5.657,10.746-.049.1-.049-.09-.013-.5-.262-2.567-3.422-5.445-3.422-5.445l-1.687-.762a4.943,4.943,0,0,0,.533-3.165c-1.909-2.045-8.252-4.249-8.252-4.249C2604.695,976.746,2612.439,979.943,2616.691,983.1Z" transform="translate(-2603.791 -979.868)" fill="#00223d"/>
        </g>
        <g id="Grupo_46701" data-name="Grupo 46701" transform="translate(89.117 11.595)">
          <path id="Trazado_97109" data-name="Trazado 97109" d="M2637.907,1024.814a1.5,1.5,0,0,1,2.47,1.447c-.346,2.018-3.249,3.638-3.881,2.738S2637.428,1025.543,2637.907,1024.814Z" transform="translate(-2636.347 -1024.436)" fill="#dba585"/>
        </g>
        <path id="Trazado_97110" data-name="Trazado 97110" d="M2626.734,1072.606s11.745,6.842,14.394,18.792,7.442,32.933,7.527,35.419c0,0-15.891-7.648-24.5-5.544,0,0-5.419-19.471-8.27-24.071s1.386-15.41,1.386-15.41S2621.322,1075.3,2626.734,1072.606Z" transform="translate(-2531.361 -1048.478)" fill="#167377"/>
        <path id="Trazado_97111" data-name="Trazado 97111" d="M2645.5,1089.745l-9.462,27.752a2.53,2.53,0,0,0-.13.653l-2.269,36.491-39.566.881-11.528,41.968a4.41,4.41,0,0,0,.637,3.714,3.221,3.221,0,0,0,2.222,1.462c2.509.307,53.3,0,53.3,0v-2.1a1.914,1.914,0,0,0-1.934-1.894h-47.485a2.569,2.569,0,0,1-2.017-.947,1.67,1.67,0,0,1-.4-1.3c.21-1.338,10.347-35.532,10.347-35.532l38.259-.678a3.261,3.261,0,0,0,3.229-3.091l1.662-39.263a3.1,3.1,0,0,1,.121-.737l7.734-26.532s.809-1.85-.679-2.029A1.653,1.653,0,0,0,2645.5,1089.745Z" transform="translate(-2507.303 -1060.269)" fill="#727997"/>
        <path id="Trazado_97112" data-name="Trazado 97112" d="M2626.5,1338.43s-.029-3.03,4.124-3.241c4.768-.243,35.781-.458,35.781-.458l-.207,3.223Z" transform="translate(-2539.941 -1242.406)" fill="#b0c0d2"/>
        <path id="Trazado_97113" data-name="Trazado 97113" d="M2361.214,1247.224v1.414h-67.4v-1.414a2.211,2.211,0,0,1,1.979-2.386h63.442A2.212,2.212,0,0,1,2361.214,1247.224Z" transform="translate(-2293.814 -1175.9)" fill="#727997"/>
        <path id="Rectángulo_28218" data-name="Rectángulo 28218" d="M0,0H17.11a3.258,3.258,0,0,1,3.258,3.258v0a0,0,0,0,1,0,0H0a0,0,0,0,1,0,0V0A0,0,0,0,1,0,0Z" transform="translate(3.819 138.426)" fill="#727997"/>
        <rect id="Rectángulo_28219" data-name="Rectángulo 28219" width="2.692" height="68.946" transform="translate(5.114 72.738)" fill="#727997"/>
        <rect id="Rectángulo_28220" data-name="Rectángulo 28220" width="2.692" height="68.946" transform="translate(10.521 72.738)" fill="#727997"/>
        <path id="Trazado_97114" data-name="Trazado 97114" d="M2621.648,1070.68a18.893,18.893,0,0,1,.717,2.129,22.214,22.214,0,0,0,4.116-3.1A38.735,38.735,0,0,1,2621.648,1070.68Z" transform="translate(-2536.355 -1046.338)" fill="#997761"/>
        <path id="Trazado_97115" data-name="Trazado 97115" d="M2332.616,1248.638h-38.8v-1.414a2.232,2.232,0,0,1,2.037-2.386h30.69Z" transform="translate(-2293.814 -1175.9)" fill="#727997"/>
        <g id="Grupo_46702" data-name="Grupo 46702" transform="translate(53.686 29.501)">
          <path id="Trazado_97116" data-name="Trazado 97116" d="M2536.7,1097.138s-2.8,3.962-4.525,6.964c-1.96,3.4-3.886,6.761-4.311,7.516-.865,1.537-3.942,2.357-5.3,2.941-1.252.538-22.109,11.7-22.375,11.677s2.246,4.16,2.246,4.16,28.962-8.305,30.264-9.494,5.165-6.6,6.746-8.836c1.506-2.124,3.816-5.61,5.04-7.112,1.37-1.679,4.242-7.424.59-10.29C2540.4,1091,2537.82,1095.456,2536.7,1097.138Z" transform="translate(-2500.163 -1093.258)" fill="#167377"/>
        </g>
        <path id="Trazado_97117" data-name="Trazado 97117" d="M2640.741,1137.443s-3.35,9.084-5.365,12.181a59.194,59.194,0,0,1-4.237,5.673l-1.072-3.136S2638.737,1140.238,2640.741,1137.443Z" transform="translate(-2542.583 -1096.446)" fill="#269095"/>
      </g>
      <g id="Grupo_46708" data-name="Grupo 46708" transform="translate(7.399 17.586)">
        <g id="Grupo_46704" data-name="Grupo 46704" transform="translate(27.798 33.703)">
          <rect id="Rectángulo_28221" data-name="Rectángulo 28221" width="7.282" height="22.117" fill="#12263f"/>
        </g>
        <g id="Grupo_46705" data-name="Grupo 46705">
          <rect id="Rectángulo_28222" data-name="Rectángulo 28222" width="62.878" height="44.357" rx="2" fill="#12263f"/>
        </g>
        <g id="Grupo_46706" data-name="Grupo 46706" transform="translate(2.462 2.531)">
          <rect id="Rectángulo_28223" data-name="Rectángulo 28223" width="57.953" height="34.875" fill="#fff"/>
        </g>
        <g id="Grupo_46707" data-name="Grupo 46707" transform="translate(29.411 38.559)">
          <path id="Trazado_97118" data-name="Trazado 97118" d="M1473.621,527.116a2.028,2.028,0,1,1-2.029-2.028A2.029,2.029,0,0,1,1473.621,527.116Z" transform="translate(-1469.564 -525.088)" fill="#747474"/>
        </g>
        <rect id="Rectángulo_28224" data-name="Rectángulo 28224" width="32.759" height="1.669" transform="translate(47.819 56.655) rotate(180)" fill="#12263f"/>
        <rect id="Rectángulo_28225" data-name="Rectángulo 28225" width="18.626" height="21.532" transform="translate(57.34 34.647) rotate(180)" fill="#f6f6f6"/>
        <rect id="Rectángulo_28226" data-name="Rectángulo 28226" width="19.191" height="2.684" transform="translate(35.835 15.799) rotate(180)" fill="#f6f6f6"/>
        <rect id="Rectángulo_28227" data-name="Rectángulo 28227" width="19.191" height="2.684" transform="translate(35.835 21.311) rotate(180)" fill="#f6f6f6"/>
        <rect id="Rectángulo_28228" data-name="Rectángulo 28228" width="19.191" height="11.072" transform="translate(35.835 34.647) rotate(180)" fill="#f6f6f6"/>
        <rect id="Rectángulo_28229" data-name="Rectángulo 28229" width="8.142" height="22.144" transform="translate(13.933 34.647) rotate(180)" fill="#f6f6f6"/>
        <rect id="Rectángulo_28230" data-name="Rectángulo 28230" width="51.55" height="5.529" transform="translate(57.529 10.746) rotate(180)" fill="#f6f6f6"/>
      </g>
      <g id="Grupo_46709" data-name="Grupo 46709" transform="translate(59.832 107.777)">
        <rect id="Rectángulo_28231" data-name="Rectángulo 28231" width="31.924" height="45.13" rx="2" transform="translate(31.924 45.13) rotate(180)" fill="#12263f"/>
        <rect id="Rectángulo_28232" data-name="Rectángulo 28232" width="28.395" height="37.038" transform="translate(30.159 39.124) rotate(180)" fill="#fff"/>
        <path id="Trazado_97119" data-name="Trazado 97119" d="M1614.439,885.58a1.349,1.349,0,1,0,1.349-1.349A1.349,1.349,0,0,0,1614.439,885.58Z" transform="translate(-1599.769 -842.425)" fill="#f6f6f6"/>
        <rect id="Rectángulo_28233" data-name="Rectángulo 28233" width="24.713" height="4.93" transform="translate(28.386 9.68) rotate(180)" fill="#f6f6f6"/>
        <rect id="Rectángulo_28234" data-name="Rectángulo 28234" width="10.172" height="24.168" transform="translate(28.386 35.759) rotate(180)" fill="#f6f6f6"/>
        <rect id="Rectángulo_28235" data-name="Rectángulo 28235" width="12.652" height="2.799" transform="translate(16.325 14.391) rotate(180)" fill="#f6f6f6"/>
        <rect id="Rectángulo_28236" data-name="Rectángulo 28236" width="12.652" height="2.799" transform="translate(16.325 19.229) rotate(180)" fill="#f6f6f6"/>
        <rect id="Rectángulo_28237" data-name="Rectángulo 28237" width="12.652" height="2.799" transform="translate(16.325 24.067) rotate(180)" fill="#f6f6f6"/>
        <rect id="Rectángulo_28238" data-name="Rectángulo 28238" width="12.652" height="9.653" transform="translate(16.325 35.759) rotate(180)" fill="#f6f6f6"/>
      </g>
      <g id="Grupo_46710" data-name="Grupo 46710" transform="translate(42.032 180.888)">
        <rect id="Rectángulo_28239" data-name="Rectángulo 28239" width="49.765" height="33.791" rx="2" transform="translate(52.165 33.791) rotate(180)" fill="#12263f"/>
        <rect id="Rectángulo_28240" data-name="Rectángulo 28240" width="46.988" height="30.194" transform="translate(50.777 31.993) rotate(180)" fill="#fff"/>
        <path id="Rectángulo_28241" data-name="Rectángulo 28241" d="M2.483,0h49.6a2.482,2.482,0,0,1,2.482,2.482v0a0,0,0,0,1,0,0H0a0,0,0,0,1,0,0v0A2.483,2.483,0,0,1,2.483,0Z" transform="translate(54.565 36.274) rotate(180)" fill="#12263f"/>
        <rect id="Rectángulo_28242" data-name="Rectángulo 28242" width="7.767" height="0.537" transform="translate(31.166 35.3) rotate(180)" fill="#f6f6f6"/>
        <rect id="Rectángulo_28243" data-name="Rectángulo 28243" width="43.01" height="4.198" transform="translate(48.763 8.191) rotate(180)" fill="#f6f6f6"/>
        <rect id="Rectángulo_28244" data-name="Rectángulo 28244" width="14.746" height="19.235" transform="translate(48.763 29.798) rotate(180)" fill="#f6f6f6"/>
        <rect id="Rectángulo_28245" data-name="Rectángulo 28245" width="14.746" height="19.235" transform="translate(32.128 29.798) rotate(180)" fill="#f6f6f6"/>
        <rect id="Rectángulo_28246" data-name="Rectángulo 28246" width="8.993" height="2.749" transform="translate(14.746 13.311) rotate(180)" fill="#f6f6f6"/>
        <rect id="Rectángulo_28247" data-name="Rectángulo 28247" width="8.993" height="2.749" transform="translate(14.746 17.56) rotate(180)" fill="#f6f6f6"/>
        <rect id="Rectángulo_28248" data-name="Rectángulo 28248" width="8.993" height="10.737" transform="translate(14.746 29.798) rotate(180)" fill="#f6f6f6"/>
      </g>
      <path id="Trazado_97120" data-name="Trazado 97120" d="M2153.165,377.767h7.324l-2.241-4.65h-7.324Z" transform="translate(-1936.844 -356.511)" fill="#00223d"/>
      <path id="Trazado_97121" data-name="Trazado 97121" d="M2139.992,377.767h1.745l-2.241-4.65h-1.746Z" transform="translate(-1927.097 -356.511)" fill="#00223d"/>
      <path id="Trazado_97122" data-name="Trazado 97122" d="M2046.31,363.1h29.656l-.985-2.324h-29.656Z" transform="translate(-1858.719 -347.377)" fill="#00223d"/>
      <g id="Grupo_46711" data-name="Grupo 46711" transform="translate(107.691)">
        <path id="Trazado_97123" data-name="Trazado 97123" d="M1744.382,346.874l15.722.066a2.385,2.385,0,0,0,2.4-2.375l.138-32.815a2.386,2.386,0,0,0-2.375-2.4l-15.723-.066a2.385,2.385,0,0,0-2.4,2.376l-.138,32.815A2.385,2.385,0,0,0,1744.382,346.874Z" transform="translate(-1742.006 -309.288)" fill="#12263f"/>
        <path id="Trazado_97124" data-name="Trazado 97124" d="M1751.01,349.1l12.551.053a2.229,2.229,0,0,0,2.239-2.22l.1-24.806a2.229,2.229,0,0,0-2.22-2.238l-12.55-.053a2.23,2.23,0,0,0-2.24,2.22l-.1,24.806A2.23,2.23,0,0,0,1751.01,349.1Z" transform="translate(-1747.025 -317.092)" fill="#fff"/>
        <path id="Trazado_97125" data-name="Trazado 97125" d="M1772.683,314.084l4.339.018a.321.321,0,0,1,.32.323h0a.322.322,0,0,1-.323.321l-4.34-.018a.322.322,0,0,1-.32-.323h0A.322.322,0,0,1,1772.683,314.084Z" transform="translate(-1764.462 -312.836)" fill="#f6f6f6"/>
        <path id="Trazado_97126" data-name="Trazado 97126" d="M1776.061,438.285a1.39,1.39,0,1,0,1.4-1.384A1.391,1.391,0,0,0,1776.061,438.285Z" transform="translate(-1767.201 -403.7)" fill="#f6f6f6"/>
        <rect id="Rectángulo_28249" data-name="Rectángulo 28249" width="13.04" height="5.257" transform="translate(16.901 9.845) rotate(180)" fill="#f6f6f6"/>
        <rect id="Rectángulo_28250" data-name="Rectángulo 28250" width="13.04" height="2.185" transform="translate(16.901 13.395) rotate(180)" fill="#f6f6f6"/>
        <rect id="Rectángulo_28251" data-name="Rectángulo 28251" width="13.04" height="2.184" transform="translate(16.901 16.944) rotate(180)" fill="#f6f6f6"/>
        <rect id="Rectángulo_28252" data-name="Rectángulo 28252" width="13.04" height="11.674" transform="translate(16.901 29.984) rotate(180)" fill="#f6f6f6"/>
      </g>
    </g>
  </g>
</svg>
