<svg xmlns="http://www.w3.org/2000/svg" xmlns:xlink="http://www.w3.org/1999/xlink" width="350.103" height="373.404" viewBox="0 0 350.103 373.404">
  <defs>
    <linearGradient id="linear-gradient" x1="1.047" y1="-0.803" x2="0.223" y2="1.106" gradientUnits="objectBoundingBox">
      <stop offset="0" stop-color="#1d325f"/>
      <stop offset="1" stop-color="#00030e"/>
    </linearGradient>
    <linearGradient id="linear-gradient-2" x1="2.929" y1="-13.106" x2="0.343" y2="1.338" xlink:href="#linear-gradient"/>
    <linearGradient id="linear-gradient-3" x1="4.546" y1="-12.953" x2="0.602" y2="0.147" xlink:href="#linear-gradient"/>
    <linearGradient id="linear-gradient-4" x1="0.5" x2="0.5" y2="1" gradientUnits="objectBoundingBox">
      <stop offset="0" stop-color="#fff"/>
      <stop offset="1" stop-color="#d2e6ee"/>
    </linearGradient>
  </defs>
  <g id="Grupo_57069" data-name="Grupo 57069" transform="translate(-147.708 -96.925)">
    <path id="Trazado_96572" data-name="Trazado 96572" d="M220.207,176.7c-45.984-14.894-84.676,29.4-68.03,66.246,17.262,38.2,62.158,4.537,43.613-5.968-9.321-5.281-27.031,5.219-33.089,21.293-7.679,20.373-10.9,36-6.36,59.486,9.153,47.37,54.29,75.476,95.394,47.257,21.539-14.787,42.88-39.654,76.34-39.654" transform="translate(0 22.743)" fill="none" stroke="#fff" stroke-miterlimit="10" stroke-width="1" stroke-dasharray="3"/>
    <path id="Trazado_96573" data-name="Trazado 96573" d="M240.319,184.87a35.147,35.147,0,0,0-.845-7.675,3.977,3.977,0,0,1,1.871-4.331l3.48-2.009a3.965,3.965,0,0,0,1.451-5.419l-3.671-6.36a3.968,3.968,0,0,0-5.42-1.451l-3.489,2.014a3.974,3.974,0,0,1-4.688-.547,34.988,34.988,0,0,0-13.286-7.674,3.97,3.97,0,0,1-2.813-3.783v-4.025a3.967,3.967,0,0,0-3.967-3.967H201.6a3.967,3.967,0,0,0-3.967,3.967v4.025a3.971,3.971,0,0,1-2.811,3.783,34.993,34.993,0,0,0-13.287,7.674,3.974,3.974,0,0,1-4.688.547l-3.489-2.014a3.965,3.965,0,0,0-5.419,1.451l-3.672,6.36a3.967,3.967,0,0,0,1.453,5.419l3.479,2.009a3.974,3.974,0,0,1,1.871,4.331,35.287,35.287,0,0,0,0,15.35,3.976,3.976,0,0,1-1.871,4.331l-3.479,2.009a3.967,3.967,0,0,0-1.453,5.419l3.672,6.36a3.965,3.965,0,0,0,5.419,1.451l3.489-2.014a3.976,3.976,0,0,1,4.688.547,34.994,34.994,0,0,0,13.287,7.674,3.971,3.971,0,0,1,2.811,3.783v4.026A3.967,3.967,0,0,0,201.6,230.1h7.343a3.967,3.967,0,0,0,3.967-3.967V222.1a3.97,3.97,0,0,1,2.813-3.783,34.989,34.989,0,0,0,13.286-7.674,3.976,3.976,0,0,1,4.688-.547l3.489,2.015a3.969,3.969,0,0,0,5.42-1.453l3.671-6.359a3.967,3.967,0,0,0-1.451-5.42l-3.48-2.009a3.975,3.975,0,0,1-1.871-4.331A35.146,35.146,0,0,0,240.319,184.87ZM205.273,202.8A17.932,17.932,0,1,1,223.2,184.87,17.932,17.932,0,0,1,205.273,202.8Z" transform="translate(5.024 11.688)" fill="#fff"/>
    <path id="Trazado_96574" data-name="Trazado 96574" d="M275.356,194.8a27.135,27.135,0,0,0-.653-5.935,3.074,3.074,0,0,1,1.447-3.348l2.689-1.553a3.067,3.067,0,0,0,1.123-4.19l-2.839-4.917a3.066,3.066,0,0,0-4.19-1.123l-2.7,1.557a3.074,3.074,0,0,1-3.624-.422,27.05,27.05,0,0,0-10.272-5.932,3.072,3.072,0,0,1-2.174-2.926V162.9a3.067,3.067,0,0,0-3.067-3.067h-5.677a3.067,3.067,0,0,0-3.068,3.067v3.112a3.071,3.071,0,0,1-2.173,2.926,27.044,27.044,0,0,0-10.273,5.932,3.074,3.074,0,0,1-3.624.422l-2.7-1.557a3.066,3.066,0,0,0-4.19,1.123l-2.839,4.917a3.068,3.068,0,0,0,1.123,4.19l2.689,1.553a3.071,3.071,0,0,1,1.447,3.348,27.3,27.3,0,0,0,0,11.869,3.072,3.072,0,0,1-1.447,3.349l-2.689,1.553a3.067,3.067,0,0,0-1.123,4.19l2.839,4.917a3.068,3.068,0,0,0,4.19,1.123l2.7-1.559a3.074,3.074,0,0,1,3.624.422,27.047,27.047,0,0,0,10.273,5.934,3.07,3.07,0,0,1,2.173,2.925V226.7a3.067,3.067,0,0,0,3.067,3.067H251.1a3.067,3.067,0,0,0,3.067-3.067V223.59a3.071,3.071,0,0,1,2.174-2.925,27.053,27.053,0,0,0,10.272-5.934,3.071,3.071,0,0,1,3.624-.421l2.7,1.557a3.067,3.067,0,0,0,4.19-1.123l2.839-4.917a3.066,3.066,0,0,0-1.123-4.19l-2.689-1.553a3.076,3.076,0,0,1-1.447-3.349A27.124,27.124,0,0,0,275.356,194.8Zm-27.1,13.864A13.864,13.864,0,1,1,262.125,194.8,13.865,13.865,0,0,1,248.261,208.667Z" transform="translate(22.015 18.234)" fill="#7d6eb2"/>
    <path id="Trazado_96575" data-name="Trazado 96575" d="M214.432,201.325c10.382,6.167,36.032,13.014,48.249,2.644s12.393-33.164,2.814-46.01c-3.631-4.869-10.885-8.695-15.49-4.737-4,3.438-2.515,10.319,1.276,13.986,7.239,7,19.585,5.874,28.02.372,27.317-17.818,49.979-38.56,80.287-45.27,37.245-8.246,67.994,10.236,56.659,36.742-5.1,11.928-10.441,24.048-11.963,36.933s3.909,28.045,16.28,31.954c7.87,2.486,16.311-.142,24.331-2.1s17.238-3.018,23.86,1.909c6.8,5.061,9.057,15.553,5.147,23.075-9.783,18.821-60.575,23.3-60.575,48.839" transform="translate(21.458 5.427)" fill="none" stroke="#fff" stroke-miterlimit="10" stroke-width="1" stroke-dasharray="3"/>
    <g id="Grupo_46303" data-name="Grupo 46303" transform="translate(387.489 153.865)">
      <g id="Grupo_46301" data-name="Grupo 46301" transform="translate(0 0)">
        <rect id="Rectángulo_28305" data-name="Rectángulo 28305" width="76.529" height="103.125" rx="5.13" fill="#fff"/>
        <path id="Trazado_96576" data-name="Trazado 96576" d="M334.046,141.557h62.945a6.791,6.791,0,0,1,6.792,6.792v89.54a6.792,6.792,0,0,1-6.792,6.793" transform="translate(-327.254 -141.556)" fill="none" stroke="#00223d" stroke-linecap="round" stroke-miterlimit="10" stroke-width="0.25"/>
      </g>
      <g id="Grupo_46302" data-name="Grupo 46302" transform="translate(12.1 27.675)">
        <rect id="Rectángulo_28306" data-name="Rectángulo 28306" width="44.719" height="3.665" fill="#e8e8e8"/>
        <rect id="Rectángulo_28307" data-name="Rectángulo 28307" width="44.719" height="3.665" transform="translate(0 14.122)" fill="#e8e8e8"/>
        <rect id="Rectángulo_28308" data-name="Rectángulo 28308" width="44.719" height="3.665" transform="translate(0 28.243)" fill="#e8e8e8"/>
        <rect id="Rectángulo_28309" data-name="Rectángulo 28309" width="44.719" height="3.665" transform="translate(0 42.365)" fill="#e8e8e8"/>
        <rect id="Rectángulo_28310" data-name="Rectángulo 28310" width="44.719" height="3.665" transform="translate(0 56.486)" fill="#e8e8e8"/>
      </g>
      <rect id="Rectángulo_28311" data-name="Rectángulo 28311" width="7.087" height="7.087" rx="0.969" transform="translate(61.552 25.964)" fill="none" stroke="#00223d" stroke-linecap="round" stroke-miterlimit="10" stroke-width="0.25"/>
      <rect id="Rectángulo_28312" data-name="Rectángulo 28312" width="7.087" height="7.087" rx="0.969" transform="translate(61.552 40.085)" fill="none" stroke="#00223d" stroke-linecap="round" stroke-miterlimit="10" stroke-width="0.25"/>
      <rect id="Rectángulo_28313" data-name="Rectángulo 28313" width="7.087" height="7.087" rx="0.969" transform="translate(61.552 54.207)" fill="none" stroke="#00223d" stroke-linecap="round" stroke-miterlimit="10" stroke-width="0.25"/>
      <rect id="Rectángulo_28314" data-name="Rectángulo 28314" width="7.087" height="7.087" rx="0.969" transform="translate(61.552 68.329)" fill="none" stroke="#00223d" stroke-linecap="round" stroke-miterlimit="10" stroke-width="0.25"/>
      <rect id="Rectángulo_28315" data-name="Rectángulo 28315" width="7.087" height="7.087" rx="0.969" transform="translate(61.552 82.45)" fill="none" stroke="#00223d" stroke-linecap="round" stroke-miterlimit="10" stroke-width="0.25"/>
      <path id="Trazado_96577" data-name="Trazado 96577" d="M376.368,166.612l.041-4.479,4.48.041-.041,4.439Z" transform="translate(-313.534 -134.886)" fill="#26aab7"/>
      <path id="Trazado_96578" data-name="Trazado 96578" d="M376.368,177.277l.041-4.48,4.48.041-.041,4.439Z" transform="translate(-313.534 -131.429)" fill="#26aab7"/>
      <path id="Trazado_96579" data-name="Trazado 96579" d="M376.368,187.942l.041-4.48,4.48.042-.041,4.439Z" transform="translate(-313.534 -127.972)" fill="#26aab7"/>
    </g>
    <g id="Grupo_46314" data-name="Grupo 46314" transform="translate(334.119 296.545)">
      <g id="Grupo_46304" data-name="Grupo 46304" transform="translate(0 11.639)">
        <rect id="Rectángulo_28316" data-name="Rectángulo 28316" width="151.458" height="120.508" rx="12" fill="#fff"/>
        <path id="Trazado_96580" data-name="Trazado 96580" d="M440.07,271.738v84.378a18.065,18.065,0,0,1-18.065,18.065H306.677a18.065,18.065,0,0,1-18.064-18.065" transform="translate(-288.613 -253.673)" fill="none" stroke="#00223d" stroke-miterlimit="10" stroke-width="0.25"/>
        <path id="Trazado_96581" data-name="Trazado 96581" d="M288.613,276.161A18.064,18.064,0,0,1,306.677,258.1H422.006a18.064,18.064,0,0,1,18.065,18.065Z" transform="translate(-288.613 -258.095)" fill="#7d6eb2"/>
      </g>
      <g id="Grupo_46309" data-name="Grupo 46309" transform="translate(21.559 43.149)">
        <g id="Grupo_46305" data-name="Grupo 46305">
          <rect id="Rectángulo_28317" data-name="Rectángulo 28317" width="18.903" height="13.217" rx="1.684" fill="#e8e8e8"/>
          <rect id="Rectángulo_28318" data-name="Rectángulo 28318" width="18.903" height="13.217" rx="1.684" transform="translate(22.359)" fill="#e8e8e8"/>
          <rect id="Rectángulo_28319" data-name="Rectángulo 28319" width="18.903" height="13.217" rx="1.684" transform="translate(44.719)" fill="#e8e8e8"/>
          <rect id="Rectángulo_28320" data-name="Rectángulo 28320" width="18.903" height="13.217" rx="1.684" transform="translate(67.078)" fill="#e8e8e8"/>
          <rect id="Rectángulo_28321" data-name="Rectángulo 28321" width="18.903" height="13.217" rx="1.684" transform="translate(89.437)" fill="#e8e8e8"/>
        </g>
        <g id="Grupo_46306" data-name="Grupo 46306" transform="translate(0 18.504)">
          <rect id="Rectángulo_28322" data-name="Rectángulo 28322" width="18.903" height="13.217" rx="1.684" fill="#e8e8e8"/>
          <rect id="Rectángulo_28323" data-name="Rectángulo 28323" width="18.903" height="13.217" rx="1.684" transform="translate(22.359)" fill="#7d6eb2"/>
          <rect id="Rectángulo_28324" data-name="Rectángulo 28324" width="18.903" height="13.217" rx="1.684" transform="translate(44.719)" fill="#e8e8e8"/>
          <rect id="Rectángulo_28325" data-name="Rectángulo 28325" width="18.903" height="13.217" rx="1.684" transform="translate(67.078)" fill="#e8e8e8"/>
          <rect id="Rectángulo_28326" data-name="Rectángulo 28326" width="18.903" height="13.217" rx="1.684" transform="translate(89.437)" fill="#e8e8e8"/>
        </g>
        <g id="Grupo_46307" data-name="Grupo 46307" transform="translate(0 37.009)">
          <rect id="Rectángulo_28327" data-name="Rectángulo 28327" width="18.903" height="13.217" rx="1.684" fill="#e8e8e8"/>
          <rect id="Rectángulo_28328" data-name="Rectángulo 28328" width="18.903" height="13.217" rx="1.684" transform="translate(22.359)" fill="#e8e8e8"/>
          <rect id="Rectángulo_28329" data-name="Rectángulo 28329" width="18.903" height="13.217" rx="1.684" transform="translate(44.719)" fill="#e8e8e8"/>
          <rect id="Rectángulo_28330" data-name="Rectángulo 28330" width="18.903" height="13.217" rx="1.684" transform="translate(67.078)" fill="#7d6eb2"/>
          <rect id="Rectángulo_28331" data-name="Rectángulo 28331" width="18.903" height="13.217" rx="1.684" transform="translate(89.437)" fill="#e8e8e8"/>
        </g>
        <g id="Grupo_46308" data-name="Grupo 46308" transform="translate(0 55.513)">
          <rect id="Rectángulo_28332" data-name="Rectángulo 28332" width="18.903" height="13.217" rx="1.684" fill="#e8e8e8"/>
          <rect id="Rectángulo_28333" data-name="Rectángulo 28333" width="18.903" height="13.217" rx="1.684" transform="translate(22.359)" fill="#e8e8e8"/>
          <rect id="Rectángulo_28334" data-name="Rectángulo 28334" width="18.903" height="13.217" rx="1.684" transform="translate(44.719)" fill="#e8e8e8"/>
          <rect id="Rectángulo_28335" data-name="Rectángulo 28335" width="18.903" height="13.217" rx="1.684" transform="translate(67.078)" fill="#e8e8e8"/>
          <rect id="Rectángulo_28336" data-name="Rectángulo 28336" width="18.903" height="13.217" rx="1.684" transform="translate(89.437)" fill="#e8e8e8"/>
        </g>
      </g>
      <g id="Grupo_46310" data-name="Grupo 46310" transform="translate(109.901)">
        <path id="Trazado_96582" data-name="Trazado 96582" d="M376.1,272.584h0a4.491,4.491,0,0,1-4.492-4.492V253.8a4.491,4.491,0,0,1,4.492-4.492h0a4.492,4.492,0,0,1,4.492,4.492v14.295A4.491,4.491,0,0,1,376.1,272.584Z" transform="translate(-371.608 -249.306)" fill="#cfdeff"/>
        <path id="Trazado_96583" data-name="Trazado 96583" d="M380.591,252.7v14.294a4.492,4.492,0,0,1-4.492,4.492h0a4.491,4.491,0,0,1-4.492-4.492" transform="translate(-371.608 -248.206)" fill="none" stroke="#00030e" stroke-linecap="round" stroke-miterlimit="10" stroke-width="0.25"/>
      </g>
      <g id="Grupo_46311" data-name="Grupo 46311" transform="translate(69.725 43.754)">
        <path id="Trazado_96584" data-name="Trazado 96584" d="M350.932,294.356h0l-7.908-7.909a2.9,2.9,0,0,1,0-4.1h0l7.908,7.909A2.9,2.9,0,0,1,350.932,294.356Z" transform="translate(-340.974 -282.348)" fill="#00223d"/>
        <path id="Trazado_96585" data-name="Trazado 96585" d="M341.268,292.013h0l7.909-7.909a2.9,2.9,0,0,1,4.1,0h0l-7.909,7.909A2.9,2.9,0,0,1,341.268,292.013Z" transform="translate(-341.268 -282.054)" fill="#00223d"/>
      </g>
      <g id="Grupo_46312" data-name="Grupo 46312" transform="translate(25.006 80.763)">
        <path id="Trazado_96586" data-name="Trazado 96586" d="M317.162,322.3h0l-7.909-7.909a2.9,2.9,0,0,1,0-4.1h0l7.909,7.908A2.9,2.9,0,0,1,317.162,322.3Z" transform="translate(-307.203 -310.297)" fill="#00223d"/>
        <path id="Trazado_96587" data-name="Trazado 96587" d="M307.5,319.961h0l7.909-7.909a2.9,2.9,0,0,1,4.1,0h0l-7.909,7.909A2.9,2.9,0,0,1,307.5,319.961Z" transform="translate(-307.497 -310.003)" fill="#00223d"/>
      </g>
      <g id="Grupo_46313" data-name="Grupo 46313" transform="translate(114.444 99.267)">
        <path id="Trazado_96588" data-name="Trazado 96588" d="M384.7,336.277h0l-7.909-7.909a2.9,2.9,0,0,1,0-4.1h0l7.909,7.909A2.9,2.9,0,0,1,384.7,336.277Z" transform="translate(-374.745 -324.271)" fill="#00223d"/>
        <path id="Trazado_96589" data-name="Trazado 96589" d="M375.039,333.935h0l7.909-7.909a2.9,2.9,0,0,1,4.1,0h0l-7.908,7.909A2.9,2.9,0,0,1,375.039,333.935Z" transform="translate(-375.039 -323.977)" fill="#00223d"/>
      </g>
    </g>
    <g id="Grupo_46316" data-name="Grupo 46316" transform="translate(246.707 158.246)">
      <circle id="Elipse_3888" data-name="Elipse 3888" cx="84.676" cy="84.676" r="84.676" transform="translate(0 167.076) rotate(-80.594)" fill="#12263f"/>
      <circle id="Elipse_3889" data-name="Elipse 3889" cx="66.89" cy="66.89" r="66.89" transform="translate(2.781 97.377) rotate(-45)" fill="#fff"/>
      <g id="Grupo_46315" data-name="Grupo 46315" transform="translate(34.961 34.961)">
        <rect id="Rectángulo_28337" data-name="Rectángulo 28337" width="7.406" height="10.589" rx="0.973" transform="translate(58.713)" fill="#e8e8e8"/>
        <rect id="Rectángulo_28338" data-name="Rectángulo 28338" width="7.406" height="10.59" rx="0.973" transform="translate(28.001 10.214) rotate(-29.999)" fill="#e8e8e8"/>
        <rect id="Rectángulo_28339" data-name="Rectángulo 28339" width="7.406" height="10.59" rx="0.973" transform="translate(6.511 34.415) rotate(-59.999)" fill="#e8e8e8"/>
        <rect id="Rectángulo_28340" data-name="Rectángulo 28340" width="7.406" height="10.59" rx="0.973" transform="translate(0 66.119) rotate(-90)" fill="#e8e8e8"/>
        <rect id="Rectángulo_28341" data-name="Rectángulo 28341" width="7.406" height="10.59" rx="0.973" transform="translate(10.214 96.831) rotate(-120.001)" fill="#e8e8e8"/>
        <rect id="Rectángulo_28342" data-name="Rectángulo 28342" width="7.406" height="10.59" rx="0.973" transform="translate(34.415 118.321) rotate(-150.001)" fill="#e8e8e8"/>
        <rect id="Rectángulo_28343" data-name="Rectángulo 28343" width="7.406" height="10.589" rx="0.973" transform="translate(66.119 124.832) rotate(180)" fill="#e8e8e8"/>
        <rect id="Rectángulo_28344" data-name="Rectángulo 28344" width="7.406" height="10.59" rx="0.973" transform="translate(96.831 114.618) rotate(150.001)" fill="#e8e8e8"/>
        <rect id="Rectángulo_28345" data-name="Rectángulo 28345" width="7.406" height="10.59" rx="0.973" transform="translate(118.322 90.417) rotate(119.999)" fill="#e8e8e8"/>
        <rect id="Rectángulo_28346" data-name="Rectángulo 28346" width="7.406" height="10.589" rx="0.973" transform="translate(124.832 58.713) rotate(90)" fill="#e8e8e8"/>
        <rect id="Rectángulo_28347" data-name="Rectángulo 28347" width="7.406" height="10.59" rx="0.973" transform="translate(114.618 28.001) rotate(60)" fill="#e8e8e8"/>
        <rect id="Rectángulo_28348" data-name="Rectángulo 28348" width="7.406" height="10.59" rx="0.973" transform="translate(90.417 6.51) rotate(29.999)" fill="#e8e8e8"/>
      </g>
      <path id="Trazado_96590" data-name="Trazado 96590" d="M296.138,167.888a66.89,66.89,0,0,1,0,133.78" transform="translate(-198.761 -137.401)" fill="none" stroke="#00223d" stroke-miterlimit="10" stroke-width="0.25"/>
      <path id="Trazado_96591" data-name="Trazado 96591" d="M296.138,154.456a84.676,84.676,0,0,1,0,169.352" transform="translate(-198.761 -141.756)" fill="none" stroke="#00223d" stroke-miterlimit="10" stroke-width="0.25"/>
      <path id="Trazado_96592" data-name="Trazado 96592" d="M298.137,178.285c2.214,10.5,7.6,44.653.094,62.057a1.007,1.007,0,0,1-1.846,0c-7.512-17.4-2.12-51.556.094-62.057A.847.847,0,0,1,298.137,178.285Z" transform="translate(-199.931 -134.249)" fill="#00223d"/>
      <path id="Trazado_96593" data-name="Trazado 96593" d="M265.154,218.666c8.109-1.711,36.988-5.874,50.43-.073a.778.778,0,0,1,0,1.425c-13.442,5.8-42.321,1.638-50.43-.071A.654.654,0,0,1,265.154,218.666Z" transform="translate(-208.974 -121.929)" fill="#00223d"/>
    </g>
    <g id="Grupo_46321" data-name="Grupo 46321" transform="translate(190.544 214.871)">
      <g id="Grupo_46317" data-name="Grupo 46317" transform="translate(28.898)">
        <path id="Trazado_96594" data-name="Trazado 96594" d="M204.962,221.2l5.443-15.312h16.218L222.959,218.9Z" transform="translate(-201.054 -181.709)" fill="#f4b7bc" stroke="#f4b7bc" stroke-linecap="round" stroke-linejoin="round" stroke-width="0.25"/>
        <path id="Trazado_96595" data-name="Trazado 96595" d="M219.092,210.828l-.539,6.467,1.742-6.2Z" transform="translate(-196.648 -180.106)" fill="#00030e" stroke="#00030e" stroke-miterlimit="10" stroke-width="0.25"/>
        <circle id="Elipse_3890" data-name="Elipse 3890" cx="12.449" cy="12.449" r="12.449" transform="translate(0 24.749) rotate(-76.718)" fill="#f4b7bc" stroke="#f4b7bc" stroke-linecap="round" stroke-linejoin="round" stroke-width="0.25"/>
        <path id="Trazado_96596" data-name="Trazado 96596" d="M224.132,195.184c2.883,5.844,3.353,15.247.376,19.321s-6.9-.314-7.757-2.508c0,0-2.7-2.447-2.272-4.387.5-2.264,3.422-1.931,3.839.548" transform="translate(-197.984 -185.178)" fill="#f4b7bc" stroke="#f4b7bc" stroke-linecap="round" stroke-linejoin="round" stroke-width="0.25"/>
        <path id="Trazado_96597" data-name="Trazado 96597" d="M215.455,207.444c1.229,1.163,2.655.146,2.429-1.408" transform="translate(-197.652 -181.66)" fill="none" stroke="#00030e" stroke-linecap="round" stroke-linejoin="round" stroke-width="0.25"/>
        <path id="Trazado_96598" data-name="Trazado 96598" d="M220.953,208.733c1.273.688,1.833,2.656,3.464,2.357,1.226-.226,1.564-1.684,1.333-2.708s-.52-2.477.053-3.17,2.423-2.014,1.234-3.7,1.291-3.354,1.651-5.383c.655-3.685-4.015-9.9-12.646-8.222-10.686,2.078-10.184,9.451-10.184,9.451s-2.105.869-3.223,4.187c-.98,2.909.089,6.192,3.676,9.667s2.719,4.489,2.007,5.358-.237,1.895,2.45,2.054,8.664,0,8.954-5.213a7.32,7.32,0,0,1-1.315-2.493A1.826,1.826,0,0,1,220.953,208.733Z" transform="translate(-201.92 -187.627)" stroke="#00030e" stroke-linecap="round" stroke-linejoin="round" stroke-width="0.25" fill="url(#linear-gradient)"/>
        <path id="Trazado_96599" data-name="Trazado 96599" d="M224.009,197.527c1.732,5.665,1.655,12.808-.837,16.219-1.471,2.013-3.171,1.96-4.62,1.127" transform="translate(-196.648 -184.418)" fill="none" stroke="#00030e" stroke-linecap="round" stroke-linejoin="round" stroke-width="0.25"/>
        <path id="Trazado_96600" data-name="Trazado 96600" d="M203.441,219.162l2.014-4.066s5.536-2.642,19.362-.777l.932,2.09Z" transform="translate(-201.547 -179.191)" fill="#167377"/>
      </g>
      <g id="Grupo_46319" data-name="Grupo 46319" transform="translate(0 26.723)">
        <path id="Trazado_96601" data-name="Trazado 96601" d="M236.93,210.27a6.317,6.317,0,0,0-3.8-1.263h-1.863l-3.986-1.13a1.794,1.794,0,0,0-1.684.384c-1.107.984-3.179,2.832-4.188,3.774-.244.226.066.723.29.8a3.079,3.079,0,0,0,2.679-.538l.229-.163,1.671,1.951a12.841,12.841,0,0,1,2.4,4.211c2.184,6.4,6.314,5.562,8.646,7.267l5.175-10.968C240.131,212.7,238.206,211.224,236.93,210.27Zm-9.9,1.017,1.568.52.234,1.11Z" transform="translate(-166.853 -207.808)" fill="#f4b7bc" stroke="#f4b7bc" stroke-linecap="round" stroke-linejoin="round" stroke-width="0.25"/>
        <path id="Trazado_96602" data-name="Trazado 96602" d="M235.187,217.848c-.575.726-3.785.147-7.32,1.065v.467c2.268,3.428,5.409,3.113,7.332,4.519l5.175-10.968A20.071,20.071,0,0,0,235.187,217.848Z" transform="translate(-164.73 -206.147)" fill="#00030e" stroke="#00030e" stroke-linecap="round" stroke-linejoin="round" stroke-width="0.25"/>
        <path id="Trazado_96603" data-name="Trazado 96603" d="M207.619,218.5c-15.592,4.124-28.269,38.28-27.388,44.617s13.191,27.673,27.195,34.347l4.321-11.986s-14.916-15.4-14.455-21.121c0,0,.81-3.9,7.235-10.395Z" transform="translate(-180.187 -204.342)" fill="#8ec8c8"/>
        <g id="Grupo_46318" data-name="Grupo 46318" transform="translate(16.83 27.814)">
          <path id="Trazado_96604" data-name="Trazado 96604" d="M201.372,267a54.64,54.64,0,0,1-1.638,14.5c.449.246.9.479,1.355.7l4.321-11.986s-1.85-1.911-4.223-4.632A13.651,13.651,0,0,1,201.372,267Z" transform="translate(-190.681 -216.893)" fill="#00030e" stroke="#00030e" stroke-linecap="round" stroke-linejoin="round" stroke-width="0.25"/>
          <path id="Trazado_96605" data-name="Trazado 96605" d="M200.406,250.617l2.466-21.8c-8.917,1.692-11.18,8.562-9.424,14.261,1.919,6.226,2.247,6.89,3.72,11.148A48.237,48.237,0,0,1,200.406,250.617Z" transform="translate(-192.897 -228.813)" fill="#00030e" stroke="#00030e" stroke-linecap="round" stroke-linejoin="round" stroke-width="0.25"/>
        </g>
        <path id="Trazado_96606" data-name="Trazado 96606" d="M203.842,318.182c-6.373-15.23,5.914-22.63-1.97-48-4.325-13.914-7.1-25.473-8.8-33.512a14.817,14.817,0,0,1,10.47-17.267c10.212-2.942,24.946-5.5,38.037-2.018A14.782,14.782,0,0,1,252.223,228.6c2.691,12.617,11,41.093,8.333,89.581Z" transform="translate(-176.113 -205.248)" fill="#8ec8c8"/>
        <path id="Trazado_96607" data-name="Trazado 96607" d="M203.764,313.049c-6.373-15.229,5.914-22.63-1.97-48-4.325-13.914-7.1-25.473-8.8-33.512" transform="translate(-176.035 -200.115)" fill="none" stroke="#00030e" stroke-linecap="round" stroke-linejoin="round" stroke-width="0.25"/>
        <path id="Trazado_96608" data-name="Trazado 96608" d="M233.725,241.578s9.051,34.311,2.34,68.215" transform="translate(-162.831 -196.86)" fill="none" stroke="#00030e" stroke-linecap="round" stroke-miterlimit="10" stroke-width="0.25"/>
        <path id="Trazado_96609" data-name="Trazado 96609" d="M228.174,239.315c6.6,6.99,19.519,20.527,19.519,20.527a152.339,152.339,0,0,0-3.726-22.236Z" transform="translate(-164.631 -198.148)" fill="#00030e" stroke="#00030e" stroke-linecap="round" stroke-miterlimit="10" stroke-width="0.25"/>
        <path id="Trazado_96610" data-name="Trazado 96610" d="M215.871,317.734a27.943,27.943,0,0,1-.724-18.3c5.429-17.151-21.739-76.942-7.557-82.342" transform="translate(-172.649 -204.797)" fill="none" stroke="#00030e" stroke-linecap="round" stroke-miterlimit="10" stroke-width="0.25"/>
        <path id="Trazado_96611" data-name="Trazado 96611" d="M262.281,247.315c3.873-13.909-23.7-34.384-23.7-34.384a13.04,13.04,0,0,0-5.175,10.968Z" transform="translate(-162.938 -206.147)" fill="#8ec8c8"/>
        <path id="Trazado_96612" data-name="Trazado 96612" d="M233.407,222.774l9.32,7.558,9.092-.359c-5.583-5.548-13.836-11.371-17.054-13.57A12.812,12.812,0,0,0,233.407,222.774Z" transform="translate(-162.938 -205.022)" fill="#00030e" stroke="#00030e" stroke-miterlimit="10" stroke-width="0.25"/>
        <path id="Trazado_96613" data-name="Trazado 96613" d="M230.071,216.652c-9.933-1.054-9.807,22.6,0,29.467s33.045,9.508,35.687,0S241.744,217.892,230.071,216.652Z" transform="translate(-166.416 -204.952)" fill="#8ec8c8"/>
        <path id="Trazado_96614" data-name="Trazado 96614" d="M223.027,229.368c.935,5.107,3.251,10.044,6.928,12.618,9.806,6.867,33.045,9.508,35.687,0" transform="translate(-166.299 -200.819)" fill="none" stroke="#00030e" stroke-linecap="round" stroke-miterlimit="10" stroke-width="0.25"/>
        <path id="Trazado_96615" data-name="Trazado 96615" d="M257.457,233.492c-8.139-8.111-21.732-16.054-29.2-16.848" transform="translate(-164.603 -204.944)" fill="none" stroke="#00030e" stroke-linecap="round" stroke-miterlimit="10" stroke-width="0.25"/>
        <path id="Trazado_96616" data-name="Trazado 96616" d="M262.174,247.315c3.873-13.909-23.7-34.384-23.7-34.384a13.078,13.078,0,0,0-4.75,7.019" transform="translate(-162.831 -206.147)" fill="none" stroke="#00030e" stroke-linecap="round" stroke-miterlimit="10" stroke-width="0.25"/>
        <path id="Trazado_96617" data-name="Trazado 96617" d="M200.9,219.4c7.99-2.3,18.748-4.371,29.321-3.493" transform="translate(-173.472 -205.248)" fill="none" stroke="#00030e" stroke-linecap="round" stroke-linejoin="round" stroke-width="0.25"/>
      </g>
      <g id="Grupo_46320" data-name="Grupo 46320" transform="translate(22.917 139.655)">
        <path id="Trazado_96618" data-name="Trazado 96618" d="M227.674,293.093H202.306a34.054,34.054,0,0,0,2.131,4.2s-.746,33.555-2.237,42.13c-1.385,7.96-7.588,18.81-3.1,59.383,3.34,2.156,9.6.616,14.144-.964l14.434-92.517Z" transform="translate(-197.494 -293.093)" fill="#8ec8c8"/>
        <path id="Trazado_96619" data-name="Trazado 96619" d="M216.037,295.561l-.847,52.211,6.747-43.245v-8.965Z" transform="translate(-191.757 -292.293)" fill="#00030e" stroke="#00030e" stroke-linecap="round" stroke-miterlimit="10" stroke-width="0.25"/>
        <path id="Trazado_96620" data-name="Trazado 96620" d="M236.677,398.984c7.8-42.631,11.663-77.654,13.215-105.891l-37.064,0a18.7,18.7,0,0,0,8.138,7.118s11.644,31.766,6.969,43.118c-5.773,14.023-6.866,40.97-7.012,55.527C224.036,403.048,232.738,402.351,236.677,398.984Z" transform="translate(-192.523 -293.093)" fill="#8ec8c8"/>
        <path id="Trazado_96621" data-name="Trazado 96621" d="M253.684,293.094H201.128c.262.625.561,1.266.889,1.919h51.554C253.607,294.376,253.649,293.724,253.684,293.094Z" transform="translate(-196.315 -293.092)" fill="#00030e" stroke="#00030e" stroke-miterlimit="10" stroke-width="0.25"/>
        <path id="Trazado_96622" data-name="Trazado 96622" d="M245.45,379.8a6.78,6.78,0,0,0-2.411-2.2l-8.34-4.513c-3.938,3.367-12.641,4.064-15.753-.124-.026,2.65-.021,4.891-.008,6.567a3.377,3.377,0,0,0,3.382,3.345h23.265a1.025,1.025,0,0,0,.853-1.593Z" transform="translate(-190.545 -267.199)" stroke="#00030e" stroke-linecap="round" stroke-linejoin="round" stroke-width="0.25" fill="url(#linear-gradient-2)"/>
        <path id="Trazado_96623" data-name="Trazado 96623" d="M198.7,373.162q.449,4.062,1.045,8.526a1.658,1.658,0,0,0,1.634,1.438H215.2a1.642,1.642,0,0,0,1.588-2.1,62.885,62.885,0,0,0-3.939-8.828C208.308,373.778,202.044,375.318,198.7,373.162Z" transform="translate(-197.101 -267.448)" stroke="#00030e" stroke-linecap="round" stroke-linejoin="round" stroke-width="0.25" fill="url(#linear-gradient-3)"/>
        <path id="Trazado_96624" data-name="Trazado 96624" d="M214.532,295.562a14.988,14.988,0,0,0,5.882,3.852s11.644,31.766,6.969,43.118" transform="translate(-191.97 -292.292)" fill="none" stroke="#00030e" stroke-linecap="round" stroke-miterlimit="10" stroke-width="0.25"/>
        <path id="Trazado_96625" data-name="Trazado 96625" d="M238.444,293.093c-.792,35.546-3.947,59.092-12.058,108.436" transform="translate(-188.127 -293.093)" fill="none" stroke="#00030e" stroke-miterlimit="10" stroke-width="0.25"/>
        <line id="Línea_1506" data-name="Línea 1506" y1="14.305" x2="2.955" transform="translate(49.839)" fill="none" stroke="#00030e" stroke-miterlimit="10" stroke-width="0.25"/>
        <line id="Línea_1507" data-name="Línea 1507" x1="12.34" y2="87.373" transform="translate(14.466 17.804)" fill="none" stroke="#00030e" stroke-miterlimit="10" stroke-width="0.25"/>
      </g>
    </g>
    <path id="Trazado_96628" data-name="Trazado 96628" d="M184.56,275.3l1.364,3.688a12.178,12.178,0,0,0,7.194,7.194l3.688,1.365-3.688,1.364a12.182,12.182,0,0,0-7.194,7.194L184.56,299.8,183.2,296.11A12.178,12.178,0,0,0,176,288.915l-3.688-1.364L176,286.186a12.174,12.174,0,0,0,7.194-7.194Z" transform="translate(7.804 55.667)" fill="#26aab7"/>
    <path id="Trazado_96631" data-name="Trazado 96631" d="M253.848,278.168l.385,1.042a3.439,3.439,0,0,0,2.031,2.031l1.041.385-1.041.385a3.436,3.436,0,0,0-2.031,2.031l-.385,1.042-.385-1.042a3.438,3.438,0,0,0-2.033-2.031l-1.041-.385,1.041-.385a3.441,3.441,0,0,0,2.033-2.031Z" transform="translate(33.115 56.596)" fill="#26aab7"/>
    <path id="Trazado_96633" data-name="Trazado 96633" d="M173.16,264.724l.385,1.041a3.442,3.442,0,0,0,2.031,2.033l1.042.384-1.042.387a3.432,3.432,0,0,0-2.031,2.031l-.385,1.041-.385-1.041a3.432,3.432,0,0,0-2.031-2.031l-1.042-.387,1.042-.384a3.442,3.442,0,0,0,2.031-2.033Z" transform="translate(6.957 52.237)" fill="#26aab7"/>
    <g id="Grupo_46332" data-name="Grupo 46332" transform="translate(148.24 121.615)">
      <g id="Grupo_46137" data-name="Grupo 46137" transform="translate(0 12.889)">
        <g id="Grupo_46134" data-name="Grupo 46134">
          <path id="Trazado_96135" data-name="Trazado 96135" d="M503.428,1093.7a.418.418,0,0,1-.271-.358c-.041-.545-.07-1.1-.089-1.65a.4.4,0,0,1,.4-.416c.557-.012.406.543.516,2.018a.4.4,0,0,1-.384.432A.425.425,0,0,1,503.428,1093.7Z" transform="translate(-503.068 -1050.384)" fill="#00223d"/>
          <path id="Trazado_96136" data-name="Trazado 96136" d="M504.769,703.2c.1-1.046.248-2.1.433-3.133a.409.409,0,0,1,.482-.325c.616.12.214.467-.086,3.549a.407.407,0,0,1-.454.361A.418.418,0,0,1,504.769,703.2Zm1.659-8.117c.317-1.006.68-2.019,1.067-2.974a.417.417,0,0,1,.774.312c-.385.952-.735,1.929-1.046,2.914a.417.417,0,0,1-.8-.253Zm3.295-7.6c.516-.913,1.076-1.818,1.664-2.688a.417.417,0,0,1,.7.46c-.576.853-1.125,1.739-1.63,2.633A.417.417,0,0,1,509.723,687.489Zm4.861-6.175a.4.4,0,0,1-.044-.577c.7-.787,1.436-1.557,2.2-2.289.391-.376.977.213.587.589-.744.716-1.468,1.471-2.151,2.242A.419.419,0,0,1,514.584,681.314Zm6.015-5.625a.4.4,0,0,1,.076-.572c.849-.629,1.733-1.233,2.629-1.794a.414.414,0,0,1,.455.692c-.878.55-1.745,1.141-2.576,1.758A.423.423,0,0,1,520.6,675.689Zm7.3-4.081a.418.418,0,0,1-.23-.208.4.4,0,0,1,.192-.544c.964-.446,1.957-.858,2.951-1.228a.424.424,0,0,1,.539.239.4.4,0,0,1-.235.527c-.975.362-1.948.767-2.892,1.2A.421.421,0,0,1,527.9,671.608Zm7.854-2.7a.419.419,0,0,1-.26-.287.4.4,0,0,1,.3-.493c1.037-.242,2.1-.447,3.151-.609a.422.422,0,0,1,.48.341.4.4,0,0,1-.34.467c-1.033.159-2.072.36-3.088.6A.421.421,0,0,1,535.751,668.906Zm8-1.435a.4.4,0,0,1,.4-.42c1.068-.028,2.152-.015,3.223.04a.409.409,0,1,1-.031.817c-1.049-.054-2.111-.067-3.157-.039A.421.421,0,0,1,543.752,667.471Zm26.652,8.884c-2.492-1.9-3.052-1.872-2.71-2.388a.418.418,0,0,1,.575-.114c.9.583,1.787,1.208,2.639,1.859A.409.409,0,1,1,570.4,676.355Zm-18.3-8.34a.409.409,0,0,1,.478-.329c1.054.188,2.116.418,3.156.685a.408.408,0,1,1-.2.791c-1.019-.262-2.06-.488-3.093-.671A.417.417,0,0,1,552.1,668.015Zm11.234,4c-2.82-1.363-3.369-1.223-3.142-1.8a.424.424,0,0,1,.538-.227c1,.393,2,.829,2.962,1.294a.408.408,0,1,1-.358.733Z" transform="translate(-504.603 -667.038)" fill="#00223d"/>
          <path id="Trazado_96137" data-name="Trazado 96137" d="M1226.069,793.434c-.956-1.021-1.548-1.366-1.151-1.756a.421.421,0,0,1,.589.005c1.031,1.016,1.547,1.421,1.15,1.779A.474.474,0,0,1,1226.069,793.434Z" transform="translate(-1155.229 -779.558)" fill="#00223d"/>
        </g>
        <g id="Grupo_46135" data-name="Grupo 46135" transform="translate(9.743 41.257)">
          <path id="Trazado_96138" data-name="Trazado 96138" d="M1350.932,1097.5a.417.417,0,0,1-.271-.409c.029-.537.047-1.081.054-1.617a.405.405,0,0,1,.421-.4.421.421,0,0,1,.411.42c-.007.547-.026,1.1-.055,1.65a.407.407,0,0,1-.437.381A.431.431,0,0,1,1350.932,1097.5Z" transform="translate(-1278.708 -1095.078)" fill="#00223d"/>
          <path id="Trazado_96139" data-name="Trazado 96139" d="M668.823,1198.1c-1.07-.438-2.135-.925-3.164-1.449a.41.41,0,0,1-.185-.552c.291-.564.527-.035,3.658,1.246a.411.411,0,0,1,.231.535A.424.424,0,0,1,668.823,1198.1Zm5.059,1.29c.158-.614.522-.145,3.833.44a.416.416,0,0,1,.343.475.408.408,0,0,1-.478.33c-1.133-.2-2.276-.451-3.4-.745A.415.415,0,0,1,673.882,1199.388Zm-13.074-5.633c-.948-.656-1.881-1.361-2.772-2.094a.406.406,0,0,1-.057-.576c.411-.486.522.08,3.3,2a.407.407,0,0,1,.107.57A.419.419,0,0,1,660.808,1193.756Zm22.248,7.459a.417.417,0,0,1-.272-.4.405.405,0,0,1,.427-.391c1.13.045,2.273.044,3.4,0a.421.421,0,0,1,.44.391.4.4,0,0,1-.391.427c-1.148.049-2.315.05-3.469,0A.428.428,0,0,1,683.055,1201.215Zm8.963-.616a.42.42,0,0,1-.265-.308.4.4,0,0,1,.328-.476c1.106-.2,2.217-.447,3.3-.738a.423.423,0,0,1,.515.288.4.4,0,0,1-.285.5c-1.108.3-2.242.55-3.372.753A.423.423,0,0,1,692.018,1200.6Zm8.58-2.537a.421.421,0,0,1-.237-.222.4.4,0,0,1,.212-.536c1.032-.433,2.059-.915,3.05-1.431a.424.424,0,0,1,.564.171.4.4,0,0,1-.166.553c-1.012.527-2.059,1.019-3.112,1.461A.422.422,0,0,1,700.6,1198.062Zm7.785-4.324a.423.423,0,0,1-.19-.144.4.4,0,0,1,.088-.57c.909-.645,1.8-1.336,2.65-2.054a.422.422,0,0,1,.587.047.4.4,0,0,1-.039.576c-.867.734-1.777,1.439-2.7,2.1A.419.419,0,0,1,708.383,1193.738Zm6.486-5.98c-.488-.423.086-.509,2.076-3.161a.417.417,0,0,1,.672.492c-.679.905-1.406,1.793-2.162,2.636A.42.42,0,0,1,714.869,1187.757Zm5.187-7.158c-.57-.309-.033-.512,1.309-3.542a.417.417,0,0,1,.764.336c-.458,1.034-.966,2.059-1.51,3.048A.416.416,0,0,1,720.056,1180.6Zm3.408-8.134a.414.414,0,0,1-.256-.5c.306-1.069.568-2.16.78-3.242a.409.409,0,0,1,.487-.317.417.417,0,0,1,.33.484c-.217,1.1-.484,2.217-.8,3.307a.41.41,0,0,1-.513.276Z" transform="translate(-652.704 -1161.333)" fill="#00223d"/>
          <path id="Trazado_96140" data-name="Trazado 96140" d="M605.364,1351.317c-.984-1.062-1.48-1.489-1.067-1.828.43-.353.671.195,1.678,1.283a.4.4,0,0,1-.024.577A.422.422,0,0,1,605.364,1351.317Z" transform="translate(-604.152 -1324.871)" fill="#00223d"/>
        </g>
        <g id="Grupo_46136" data-name="Grupo 46136" transform="translate(10.336 9.88)">
          <path id="Trazado_96141" data-name="Trazado 96141" d="M615.474,817.024l5.913-.732a26.46,26.46,0,0,0,6.411,5.471c.231,5.7-.157,6.117.452,6.32l6.814,2.27a.491.491,0,0,0,.543-.161l3.589-4.633a26.364,26.364,0,0,0,8.4-.536l4.3,4.135a.5.5,0,0,0,.563.09l6.378-3.107a.472.472,0,0,0,.263-.493l-.834-5.824a25.126,25.126,0,0,0,5.469-6.22l5.966-.022a.481.481,0,0,0,.458-.327l2.206-6.664a.483.483,0,0,0-.172-.536l-4.768-3.6a25.228,25.228,0,0,0-.672-8.266c3.958-4.154,4.515-4.157,4.225-4.719-3.3-6.14-3.116-6.663-3.764-6.583l-5.913.732a26.465,26.465,0,0,0-6.412-5.47c-.23-5.7.158-6.117-.452-6.321-6.809-2.139-6.971-2.608-7.357-2.109l-3.589,4.633a26.356,26.356,0,0,0-8.4.536c-4.234-3.906-4.29-4.505-4.865-4.225-6.258,3.186-6.731,2.971-6.641,3.6l.834,5.824a25.129,25.129,0,0,0-5.469,6.221c-5.7.138-6.223-.26-6.424.349-2.064,6.632-2.55,6.811-2.035,7.2l4.768,3.6a25.231,25.231,0,0,0,.673,8.266c-3.945,4.14-4.516,4.154-4.225,4.719C615.015,816.581,614.827,817.1,615.474,817.024Z" transform="translate(-610.306 -769.538)" fill="#12263f"/>
          <path id="Trazado_96142" data-name="Trazado 96142" d="M859.9,1020.208a6.83,6.83,0,0,1,7.428-6.287,7.039,7.039,0,0,1,6.509,7.4,6.83,6.83,0,0,1-7.428,6.287h0A7.038,7.038,0,0,1,859.9,1020.208Zm6.55,6.787h0Zm.8-11.85a5.6,5.6,0,0,0-6.1,5.163,5.78,5.78,0,0,0,5.346,6.076,5.609,5.609,0,0,0,6.1-5.163A5.78,5.78,0,0,0,867.25,1015.145Z" transform="translate(-835.832 -990.346)" fill="url(#linear-gradient-4)"/>
          <path id="Trazado_96143" data-name="Trazado 96143" d="M759.583,936.064h0a18.435,18.435,0,0,1-2.79-1.329.616.616,0,0,1-.273-.746.579.579,0,0,1,.046-.1.625.625,0,0,1,.853-.21,17.263,17.263,0,0,0,3.241,1.466h0a16.522,16.522,0,0,0,20.757-9.59q.118-.312.223-.631a16.709,16.709,0,0,0-31.7-10.559c-1.69,5.105-.213,8.531-.411,9.057a.629.629,0,0,1-1.194-.092A17.258,17.258,0,0,1,749,913.295c5.385-14.256,25.673-15.124,32.743-1.415a17.272,17.272,0,0,1,1.089,13.444q-.114.346-.242.684a17.21,17.21,0,0,1-8.648,9.435,18.016,18.016,0,0,1-13.662.867Q759.927,936.194,759.583,936.064Z" transform="translate(-734.622 -889.307)" fill="url(#linear-gradient-4)"/>
        </g>
      </g>
      <g id="Grupo_46141" data-name="Grupo 46141" transform="translate(69.916 0)">
        <g id="Grupo_46138" data-name="Grupo 46138">
          <path id="Trazado_96144" data-name="Trazado 96144" d="M1228.661,792.156a.253.253,0,0,1-.165-.217c-.025-.331-.043-.667-.053-1a.245.245,0,0,1,.244-.253c.338-.007.246.33.313,1.225a.245.245,0,0,1-.233.262A.258.258,0,0,1,1228.661,792.156Z" transform="translate(-1228.443 -765.879)" fill="#00223d"/>
          <path id="Trazado_96145" data-name="Trazado 96145" d="M1229.474,555.258c.062-.634.15-1.274.263-1.9a.248.248,0,0,1,.292-.2c.374.072.13.283-.052,2.153a.247.247,0,0,1-.275.219A.254.254,0,0,1,1229.474,555.258Zm1.007-4.925c.192-.61.413-1.225.648-1.8a.253.253,0,0,1,.469.189c-.233.578-.446,1.17-.634,1.768a.253.253,0,0,1-.482-.153Zm2-4.608c.313-.554.652-1.1,1.009-1.63a.253.253,0,0,1,.422.279c-.35.517-.682,1.055-.989,1.6A.253.253,0,0,1,1232.48,545.725Zm2.949-3.746a.245.245,0,0,1-.027-.35c.423-.478.871-.945,1.332-1.388.237-.228.593.129.356.357-.452.435-.891.892-1.305,1.36A.254.254,0,0,1,1235.429,541.979Zm3.648-3.413a.244.244,0,0,1,.046-.347c.515-.382,1.052-.748,1.595-1.089a.251.251,0,0,1,.276.42c-.533.334-1.058.692-1.563,1.067A.257.257,0,0,1,1239.078,538.566Zm4.427-2.476a.254.254,0,0,1-.139-.126.243.243,0,0,1,.116-.33c.585-.27,1.188-.521,1.791-.745a.257.257,0,0,1,.327.145.244.244,0,0,1-.143.32c-.591.219-1.182.465-1.755.73A.255.255,0,0,1,1243.505,536.09Zm4.765-1.638a.255.255,0,0,1-.158-.174.244.244,0,0,1,.183-.3c.629-.147,1.272-.272,1.912-.37a.256.256,0,0,1,.292.207.245.245,0,0,1-.206.283c-.627.1-1.257.218-1.873.362A.256.256,0,0,1,1248.27,534.452Zm4.854-.871a.246.246,0,0,1,.242-.255c.648-.017,1.306-.009,1.955.024a.248.248,0,1,1-.019.5c-.636-.033-1.281-.04-1.915-.024A.255.255,0,0,1,1253.123,533.581Zm16.169,5.389c-1.512-1.155-1.852-1.136-1.644-1.449a.254.254,0,0,1,.349-.069c.545.354,1.084.733,1.6,1.128A.248.248,0,1,1,1269.292,538.971Zm-11.1-5.06a.248.248,0,0,1,.291-.2c.639.114,1.284.253,1.914.416a.247.247,0,1,1-.12.48c-.618-.159-1.25-.3-1.876-.407A.253.253,0,0,1,1258.19,533.911Zm6.815,2.425c-1.71-.827-2.044-.742-1.906-1.092a.257.257,0,0,1,.326-.138c.608.239,1.212.5,1.8.785a.249.249,0,0,1,.119.332A.252.252,0,0,1,1265.005,536.336Z" transform="translate(-1229.374 -533.318)" fill="#00223d"/>
          <path id="Trazado_96146" data-name="Trazado 96146" d="M1667.059,610c-.579-.619-.939-.829-.7-1.065a.255.255,0,0,1,.357,0c.625.616.939.862.7,1.079A.288.288,0,0,1,1667.059,610Z" transform="translate(-1624.083 -601.58)" fill="#00223d"/>
        </g>
        <g id="Grupo_46139" data-name="Grupo 46139" transform="translate(5.911 25.029)">
          <path id="Trazado_96147" data-name="Trazado 96147" d="M1742.809,794.463a.252.252,0,0,1-.164-.248c.018-.326.029-.656.032-.981a.246.246,0,0,1,.255-.241.255.255,0,0,1,.249.255c0,.332-.015.668-.033,1a.247.247,0,0,1-.265.231A.257.257,0,0,1,1742.809,794.463Z" transform="translate(-1698.993 -792.993)" fill="#00223d"/>
          <path id="Trazado_96148" data-name="Trazado 96148" d="M1329,855.492c-.649-.266-1.3-.561-1.92-.879a.249.249,0,0,1-.112-.335c.176-.342.319-.021,2.219.756a.249.249,0,0,1,.14.324A.257.257,0,0,1,1329,855.492Zm3.069.783c.1-.372.316-.088,2.325.267a.253.253,0,0,1,.208.288.248.248,0,0,1-.29.2c-.687-.121-1.38-.274-2.06-.452A.251.251,0,0,1,1332.069,856.274Zm-7.932-3.417c-.575-.4-1.141-.825-1.682-1.27a.246.246,0,0,1-.035-.35c.249-.295.316.049,2,1.215a.247.247,0,0,1,.064.346A.254.254,0,0,1,1324.137,852.857Zm13.5,4.525a.253.253,0,0,1-.165-.242.246.246,0,0,1,.259-.237c.686.028,1.379.027,2.062,0a.255.255,0,0,1,.267.237.245.245,0,0,1-.237.259c-.7.03-1.4.031-2.1,0A.263.263,0,0,1,1337.634,857.383Zm5.438-.374a.254.254,0,0,1-.16-.187.244.244,0,0,1,.2-.288c.671-.121,1.345-.271,2-.448a.257.257,0,0,1,.312.175.243.243,0,0,1-.173.3c-.672.18-1.36.334-2.045.457A.26.26,0,0,1,1343.071,857.009Zm5.205-1.539a.255.255,0,0,1-.144-.135.244.244,0,0,1,.129-.326c.626-.263,1.248-.555,1.85-.868a.257.257,0,0,1,.342.1.244.244,0,0,1-.1.335c-.614.32-1.249.618-1.888.886A.254.254,0,0,1,1348.277,855.469Zm4.722-2.623a.26.26,0,0,1-.115-.087.244.244,0,0,1,.054-.346c.551-.391,1.092-.811,1.608-1.246a.256.256,0,0,1,.356.028.245.245,0,0,1-.024.35c-.526.445-1.078.873-1.641,1.272A.256.256,0,0,1,1353,852.846Zm3.935-3.628c-.3-.257.052-.308,1.26-1.917a.253.253,0,0,1,.408.3c-.412.549-.853,1.087-1.311,1.6A.254.254,0,0,1,1356.934,849.218Zm3.147-4.343c-.346-.187-.02-.311.794-2.149a.253.253,0,0,1,.463.2c-.278.627-.586,1.249-.916,1.849A.252.252,0,0,1,1360.081,844.875Zm2.067-4.935a.251.251,0,0,1-.155-.3c.185-.649.345-1.31.473-1.967a.248.248,0,0,1,.3-.192.253.253,0,0,1,.2.293c-.131.67-.294,1.345-.483,2.006a.249.249,0,0,1-.311.167Z" transform="translate(-1319.221 -833.187)" fill="#00223d"/>
          <path id="Trazado_96149" data-name="Trazado 96149" d="M1290.5,948.443c-.6-.645-.9-.9-.647-1.109s.407.118,1.018.778a.245.245,0,0,1-.014.35A.256.256,0,0,1,1290.5,948.443Z" transform="translate(-1289.766 -932.399)" fill="#00223d"/>
        </g>
        <g id="Grupo_46140" data-name="Grupo 46140" transform="translate(6.271 5.993)">
          <path id="Trazado_96150" data-name="Trazado 96150" d="M1296.635,624.308l3.587-.444a16.054,16.054,0,0,0,3.89,3.319c.14,3.459-.1,3.711.274,3.834l4.134,1.377a.3.3,0,0,0,.329-.1l2.177-2.81a16,16,0,0,0,5.1-.325l2.609,2.508a.3.3,0,0,0,.342.055l3.87-1.885a.286.286,0,0,0,.159-.3l-.506-3.533a15.244,15.244,0,0,0,3.318-3.774l3.62-.013a.292.292,0,0,0,.277-.2l1.339-4.043a.293.293,0,0,0-.1-.325l-2.892-2.183a15.3,15.3,0,0,0-.408-5.015c2.4-2.52,2.739-2.522,2.563-2.863-2-3.725-1.891-4.042-2.283-3.994l-3.587.444a16.059,16.059,0,0,0-3.89-3.319c-.14-3.457.1-3.711-.274-3.834-4.13-1.3-4.229-1.582-4.463-1.28l-2.177,2.81a15.992,15.992,0,0,0-5.1.325c-2.569-2.37-2.6-2.733-2.952-2.563-3.8,1.933-4.083,1.8-4.029,2.184l.506,3.533a15.245,15.245,0,0,0-3.318,3.774c-3.455.084-3.775-.158-3.9.212-1.252,4.023-1.547,4.132-1.234,4.369l2.893,2.183a15.319,15.319,0,0,0,.408,5.015c-2.393,2.511-2.739,2.52-2.563,2.863C1296.356,624.04,1296.242,624.357,1296.635,624.308Z" transform="translate(-1293.499 -595.501)" fill="#f6c343"/>
          <path id="Trazado_96151" data-name="Trazado 96151" d="M1444.921,747.573a4.143,4.143,0,0,1,4.507-3.814,4.271,4.271,0,0,1,3.948,4.488,4.143,4.143,0,0,1-4.507,3.814h0A4.269,4.269,0,0,1,1444.921,747.573Zm3.974,4.117h0Zm.483-7.189a3.4,3.4,0,0,0-3.7,3.133,3.506,3.506,0,0,0,3.243,3.686,3.4,3.4,0,0,0,3.7-3.133A3.507,3.507,0,0,0,1449.378,744.5Z" transform="translate(-1430.318 -729.456)" fill="url(#linear-gradient-4)"/>
          <path id="Trazado_96152" data-name="Trazado 96152" d="M1384.061,696.525h0a11.177,11.177,0,0,1-1.693-.807.374.374,0,0,1-.166-.453.419.419,0,0,1,.028-.058.38.38,0,0,1,.518-.127,10.474,10.474,0,0,0,1.966.889h0a10.023,10.023,0,0,0,12.593-5.818q.071-.189.136-.383a10.137,10.137,0,0,0-19.229-6.406,11.25,11.25,0,0,0-.25,5.494.381.381,0,0,1-.724-.056,10.469,10.469,0,0,1,.4-6.09c3.267-8.649,15.575-9.175,19.864-.858a10.478,10.478,0,0,1,.66,8.156c-.046.14-.1.278-.147.415a10.442,10.442,0,0,1-5.246,5.724,10.931,10.931,0,0,1-8.288.526Q1384.269,696.6,1384.061,696.525Z" transform="translate(-1368.918 -668.159)" fill="url(#linear-gradient-4)"/>
        </g>
      </g>
    </g>
    <g id="Grupo_46333" data-name="Grupo 46333" transform="translate(437.984 96.925)">
      <path id="Trazado_94748" data-name="Trazado 94748" d="M104.233,102.074l29.424.3a2.713,2.713,0,0,1,2.433,1.57l2.685,5.783a.33.33,0,0,0,.628-.126l.295-7.165.3-28.643a5.073,5.073,0,0,0-5.021-5.125l-30.391-.314a5.073,5.073,0,0,0-5.126,5.02l-.244,23.57A5.074,5.074,0,0,0,104.233,102.074Z" transform="translate(-99.212 -68.359)" fill="#00223d" style="mix-blend-mode: multiply;isolation: isolate"/>
      <path id="Rectángulo_28116" data-name="Rectángulo 28116" d="M.555,0H5.641A.556.556,0,0,1,6.2.556V9.737a.556.556,0,0,1-.556.556H.556A.556.556,0,0,1,0,9.737V.555A.555.555,0,0,1,.555,0Z" transform="translate(14.021 16.75) rotate(0.591)" fill="#7d6eb2"/>
      <rect id="Rectángulo_28117" data-name="Rectángulo 28117" width="6.197" height="6.198" rx="0.431" transform="translate(7.03 20.773) rotate(0.593)" fill="#f6c343"/>
      <rect id="Rectángulo_28118" data-name="Rectángulo 28118" width="6.197" height="15.837" rx="0.556" transform="matrix(1, 0.01, -0.01, 1, 20.963, 11.277)" fill="#8ec8c8"/>
      <rect id="Rectángulo_28119" data-name="Rectángulo 28119" width="5.598" height="20.435" rx="0.888" transform="translate(27.896 6.75) rotate(0.593)" fill="#fff"/>
    </g>
  </g>
</svg>
