<svg id="Grupo_54158" data-name="Grupo 54158" xmlns="http://www.w3.org/2000/svg" xmlns:xlink="http://www.w3.org/1999/xlink" width="91.25" height="91.25" viewBox="0 0 91.25 91.25">
  <defs>
    <radialGradient id="radial-gradient" cx="0.076" cy="0.019" r="1.465" gradientTransform="translate(0.001)" gradientUnits="objectBoundingBox">
      <stop offset="0" stop-color="#f6f6f7"/>
      <stop offset="0.477" stop-color="#f9f9fa"/>
      <stop offset="0.715" stop-color="#fff"/>
    </radialGradient>
  </defs>
  <g id="Grupo_18531" data-name="Grupo 18531" transform="translate(0 0)">
    <g id="Grupo_18423" data-name="Grupo 18423" transform="translate(0 0)">
      <g id="Grupo_18421" data-name="Grupo 18421">
        <g id="Grupo_18420" data-name="Grupo 18420">
          <g id="Grupo_18419" data-name="Grupo 18419">
            <path id="Trazado_40936" data-name="Trazado 40936" d="M285.873,2191.345a45.625,45.625,0,1,1-45.624-45.624A45.624,45.624,0,0,1,285.873,2191.345Z" transform="translate(-194.623 -2145.721)" fill="#fff"/>
          </g>
        </g>
      </g>
      <path id="Trazado_40937" data-name="Trazado 40937" d="M285.561,2191.005a45.624,45.624,0,1,0-45.624,45.626A45.444,45.444,0,0,0,285.561,2191.005Z" transform="translate(-194.311 -2145.382)" fill="url(#radial-gradient)"/>
      <path id="Trazado_40938" data-name="Trazado 40938" d="M272.05,2188.31a34.825,34.825,0,1,0-34.825,34.825A34.7,34.7,0,0,0,272.05,2188.31Z" transform="translate(-191.461 -2142.534)" fill="none" stroke="#7d6eb2" stroke-miterlimit="10" stroke-width="4"/>
      <g id="Grupo_18422" data-name="Grupo 18422" transform="translate(8.083 25.615)">
        <path id="Trazado_40939" data-name="Trazado 40939" d="M279.1,2164.488a45.63,45.63,0,0,1-78.554,45.436,45.485,45.485,0,0,0,78.554-45.436Z" transform="translate(-200.545 -2164.488)" fill="#eceef0"/>
      </g>
    </g>
  </g>
  <g id="Grupo_22578" data-name="Grupo 22578" transform="translate(22.063 23.808)">
    <path id="Trazado_49251" data-name="Trazado 49251" d="M3432.226,531.4l-7.432-.01h0a.682.682,0,0,0-.682.683l0,1.863h-.777l-9.6-4.2,7.56-7.56a.684.684,0,0,0,.089-.11l.381-.381h0l.287-.287,1.39-1.39a2.96,2.96,0,0,0,0-4.181l-.842-.842a2.96,2.96,0,0,0-4.181,0l-1.39,1.39-.287.287-.381.381a.685.685,0,0,0-.11.089L3405.8,527.589a6.424,6.424,0,0,0-1.1.13l-8.585,1.8a6.451,6.451,0,0,0-4.174,2.95l-4.436,7.292a2.952,2.952,0,0,0,1.748,4.38l-2.567,2.567a.684.684,0,0,0-.2.406l-1.713,5.7a.682.682,0,0,0,.85.85l3.252-.978h0l2.457-.739a.676.676,0,0,0,.393-.191l1.9-1.9a2.426,2.426,0,0,0,2.023,1.105,2.389,2.389,0,0,0,.372-.029l8.442-1.334h0l.447-.071a5.091,5.091,0,0,1,2.23.147l2.956.877a6.391,6.391,0,0,0,3.94-.091l7.012-2.438,3.085,0v.956a.682.682,0,0,0,.681.681l7.391.011h0a.682.682,0,0,0,.682-.681l.019-16.906A.682.682,0,0,0,3432.226,531.4Zm-.7,16.9-6.028-.009v-1.637l-.014-11.357v-1.364l0-1.182,6.066.008Zm-10.593-1.65a.692.692,0,0,0-.225.038l-7.121,2.476a5.035,5.035,0,0,1-3.1.072l-2.956-.877a6.468,6.468,0,0,0-2.831-.187l-.447.071-.648.1-7.795,1.231a1.047,1.047,0,0,1-1.165-.746c-.009-.033-.017-.067-.023-.1a2.743,2.743,0,0,1,2.265-3.184l.095-.015,1.149-.185,5.024-.808h0l2.055-.33a2.972,2.972,0,0,0,1.868-1.1l1.146-1.455a4.128,4.128,0,0,0-.641-5.761l5.122-5.122,10.218,4.467a.682.682,0,0,0,.272.057h.923l.014,11.357Zm-30.552-3.82a1.571,1.571,0,0,1-1.207-.206,1.592,1.592,0,0,1-.5-2.16l4.436-7.292a5.081,5.081,0,0,1,3.288-2.324l7.772-1.627-5.189,5.189-1.7.208a2.964,2.964,0,0,0-2.181,1.4l-3.564,5.833-.889.889A1.6,1.6,0,0,1,3390.38,542.834Zm7.027-6.852-1.765,1.765.617-1.01A1.606,1.606,0,0,1,3397.407,535.982Zm-5.961,7.891,1.165-1.165,7-7,.783-.783.783-.783,5.183-5.183.616-.616.575-.575,7.708-7.708,1.075,1.075-7.117,7.117-.549.549-.549.549-4.536,4.536-.741.741-.783.783-12.851,12.851-1.075-1.075Zm29.067-28.387a1.581,1.581,0,0,1,1.126.466l.842.842a1.594,1.594,0,0,1,0,2.251l-.907.908-3.093-3.093.908-.908A1.58,1.58,0,0,1,3420.513,515.486Zm-3.283,2.624.285-.285,3.093,3.093-.285.285,0,0-.48.48-.516.516-1.064-1.064-.965-.965-1.064-1.064.516-.516.48-.48ZM3387.391,551.7l-.944.284h0l.284-.944.66.66Zm1.483-.446-1.7-1.7.322-1.072,2.447,2.446Zm2.37-.953-1.075-1.075,13.919-13.919.553-.553.528-.528,4.434-4.434.549-.549.549-.549,6.592-6.592,1.075,1.075-6.008,6.008-.549.549-.549.549-4.784,4.784-.487.487-.487.487-8.03,8.03-.808.13a4.109,4.109,0,0,0-3.455,4.133Zm15.392-13.412a2.765,2.765,0,0,1,.513,3.923L3406,542.268a1.613,1.613,0,0,1-1.013.6l-1.354.218h0l-3.862.621,6.833-6.833Z" transform="translate(-3384.747 -514.123)" fill="#12263f"/>
    <path id="Trazado_49252" data-name="Trazado 49252" d="M3751.559,779.122a1.875,1.875,0,1,0,1.091-3.477c-.041,0-.081-.006-.122-.006a1.876,1.876,0,0,0-.969,3.484Zm.969-2.119a.5.5,0,0,1,.12.016.512.512,0,0,1,0,1,.506.506,0,0,1-.119.015.514.514,0,1,1,0-1.027Z" transform="translate(-3709.045 -745.903)" fill="#12263f"/>
  </g>
</svg>
