<svg xmlns="http://www.w3.org/2000/svg" xmlns:xlink="http://www.w3.org/1999/xlink" width="124.767" height="124.767" viewBox="0 0 124.767 124.767">
  <defs>
    <radialGradient id="radial-gradient" cx="0.076" cy="0.019" r="1.465" gradientTransform="translate(0.001)" gradientUnits="objectBoundingBox">
      <stop offset="0" stop-color="#f6f6f7"/>
      <stop offset="0.477" stop-color="#f9f9fa"/>
      <stop offset="0.715" stop-color="#fff"/>
    </radialGradient>
  </defs>
  <g id="Grupo_50460" data-name="Grupo 50460" transform="translate(-217 -997)">
    <g id="Grupo_18531" data-name="Grupo 18531" transform="translate(217 997)">
      <g id="Grupo_18423" data-name="Grupo 18423" transform="translate(0 0)">
        <g id="Grupo_18421" data-name="Grupo 18421">
          <g id="Grupo_18420" data-name="Grupo 18420">
            <g id="Grupo_18419" data-name="Grupo 18419">
              <path id="Trazado_40936" data-name="Trazado 40936" d="M319.39,2208.1a62.384,62.384,0,1,1-62.383-62.382A62.383,62.383,0,0,1,319.39,2208.1Z" transform="translate(-194.623 -2145.721)" fill="#fff"/>
            </g>
          </g>
        </g>
        <path id="Trazado_40937" data-name="Trazado 40937" d="M318.65,2207.3a62.382,62.382,0,1,0-62.383,62.385A62.136,62.136,0,0,0,318.65,2207.3Z" transform="translate(-193.883 -2144.915)" fill="url(#radial-gradient)"/>
        <path id="Trazado_40938" data-name="Trazado 40938" d="M297.307,2200.746a47.617,47.617,0,1,0-47.617,47.617A47.44,47.44,0,0,0,297.307,2200.746Z" transform="translate(-187.117 -2138.156)" fill="none" stroke="#7d6eb2" stroke-miterlimit="10" stroke-width="4"/>
        <g id="Grupo_18422" data-name="Grupo 18422" transform="translate(11.052 35.024)">
          <path id="Trazado_40939" data-name="Trazado 40939" d="M307.953,2164.488a62.391,62.391,0,0,1-107.408,62.125,62.193,62.193,0,0,0,107.408-62.125Z" transform="translate(-200.545 -2164.488)" fill="#eceef0"/>
        </g>
      </g>
    </g>
    <g id="Grupo_18527" data-name="Grupo 18527" transform="translate(255.003 1026.859)">
      <path id="Trazado_40981" data-name="Trazado 40981" d="M307.41,287.788h-3.36a.922.922,0,0,1-.921-.921V272.96a.921.921,0,0,1,.921-.921h3.36a.921.921,0,0,1,.921.921v13.907A.922.922,0,0,1,307.41,287.788Zm-2.439-1.842h1.517V273.881h-1.517Z" transform="translate(-263.88 -222.424)" fill="#00223d"/>
      <path id="Trazado_40982" data-name="Trazado 40982" d="M305.774,246.323a5.751,5.751,0,1,1,2.727-.7A5.737,5.737,0,0,1,305.774,246.323Zm-.006-9.647a3.9,3.9,0,1,0,1.11.162A3.909,3.909,0,0,0,305.769,236.676Z" transform="translate(-264.297 -227.421)" fill="#00223d"/>
      <path id="Trazado_40983" data-name="Trazado 40983" d="M299.85,263.481l-8.706-.024a2.321,2.321,0,0,1,.007-4.642l6.641.018a.326.326,0,0,0,.3-.209.954.954,0,0,1,.121-.218l6.013-8.081a.921.921,0,1,1,1.478,1.1l-5.949,7.994a2.179,2.179,0,0,1-1.966,1.256l-6.641-.018a.479.479,0,0,0-.34.817.471.471,0,0,0,.337.141l8.7.023a.324.324,0,0,0,.3-.2.923.923,0,0,1,.1-.176l4.621-6.419a.921.921,0,1,1,1.495,1.078l-4.57,6.347A2.162,2.162,0,0,1,299.85,263.481Z" transform="translate(-265.8 -225.39)" fill="#00223d"/>
      <path id="Trazado_40984" data-name="Trazado 40984" d="M301.585,262.179H272.213a.922.922,0,0,1,0-1.843h29.372a.922.922,0,0,1,0,1.843Z" transform="translate(-268.156 -223.996)" fill="#00223d"/>
      <path id="Trazado_40985" data-name="Trazado 40985" d="M311.717,274.275H300.27a1.939,1.939,0,0,1-1.936-1.936v-1.3a1.939,1.939,0,0,1,1.936-1.936h10.149a3.238,3.238,0,0,1,3.234,3.235A1.939,1.939,0,0,1,311.717,274.275Zm-11.446-3.329a.094.094,0,0,0-.094.094v1.3a.094.094,0,0,0,.094.094h11.446a.094.094,0,0,0,.094-.094,1.394,1.394,0,0,0-1.392-1.393Z" transform="translate(-264.524 -222.818)" fill="#00223d"/>
      <path id="Trazado_40986" data-name="Trazado 40986" d="M317.043,286.141H269.448a.921.921,0,0,1,0-1.842h47.595a.921.921,0,0,1,0,1.842Z" transform="translate(-268.527 -220.778)" fill="#00223d"/>
      <path id="Trazado_40987" data-name="Trazado 40987" d="M293.123,291.246a3.315,3.315,0,0,1-3.311-3.312V269.882a2.5,2.5,0,0,1,2.5-2.5h9.126a.4.4,0,0,0,.4-.4l.02-7.349a.921.921,0,1,1,1.842.006l-.02,7.348a2.247,2.247,0,0,1-2.243,2.238h-9.126a.653.653,0,0,0-.653.652v18.051a1.47,1.47,0,1,0,2.939,0V274.116a1.949,1.949,0,0,1,1.946-1.948h11.3a1.554,1.554,0,0,0,1.553-1.552V268.5l.066-17.5a2.859,2.859,0,0,0-3.1-2.864,2.987,2.987,0,0,0-2.616,3.031l-.034,2.967a.948.948,0,0,1-.931.911.922.922,0,0,1-.911-.931l.034-2.962a4.838,4.838,0,0,1,4.307-4.853,4.7,4.7,0,0,1,5.1,4.71l-.066,19.6a3.4,3.4,0,0,1-3.395,3.394h-11.3a.105.105,0,0,0-.1.105v13.818A3.316,3.316,0,0,1,293.123,291.246Z" transform="translate(-265.668 -225.882)" fill="#00223d"/>
      <path id="Trazado_40988" data-name="Trazado 40988" d="M307.41,286.141h-3.36a.921.921,0,1,1,0-1.842h3.36a.921.921,0,0,1,0,1.842Z" transform="translate(-263.88 -220.778)" fill="#00223d"/>
      <path id="Trazado_40989" data-name="Trazado 40989" d="M274.98,286.141h-2.4a.921.921,0,0,1,0-1.842h2.4a.921.921,0,1,1,0,1.842Z" transform="translate(-268.106 -220.778)" fill="#00223d"/>
      <path id="Trazado_40990" data-name="Trazado 40990" d="M282.2,289.442a3.37,3.37,0,0,1-3.366-3.366V263.784a3.366,3.366,0,1,1,6.731,0v22.293A3.37,3.37,0,0,1,282.2,289.442Zm0-27.181a1.524,1.524,0,0,0-1.522,1.523v22.293a1.523,1.523,0,0,0,3.046,0V263.784A1.524,1.524,0,0,0,282.2,262.26Z" transform="translate(-267.143 -223.985)" fill="#00223d"/>
      <path id="Trazado_40991" data-name="Trazado 40991" d="M311.136,275.14a.921.921,0,0,1-.921-.921V256.026a.921.921,0,0,1,1.842,0v18.193A.921.921,0,0,1,311.136,275.14Z" transform="translate(-262.928 -224.699)" fill="#00223d"/>
      <path id="Trazado_40992" data-name="Trazado 40992" d="M288.888,230.743a2.444,2.444,0,1,1-2.443-2.444A2.444,2.444,0,0,1,288.888,230.743Z" transform="translate(-266.449 -228.299)" fill="#00223d"/>
      <path id="Trazado_40993" data-name="Trazado 40993" d="M295.916,230.743a2.444,2.444,0,1,1-2.444-2.444A2.445,2.445,0,0,1,295.916,230.743Z" transform="translate(-265.505 -228.299)" fill="#00223d"/>
      <path id="Trazado_40994" data-name="Trazado 40994" d="M302.944,230.743A2.444,2.444,0,1,1,300.5,228.3,2.445,2.445,0,0,1,302.944,230.743Z" transform="translate(-264.561 -228.299)" fill="#00223d"/>
    </g>
  </g>
</svg>
