<svg xmlns="http://www.w3.org/2000/svg" xmlns:xlink="http://www.w3.org/1999/xlink" width="124.767" height="124.767" viewBox="0 0 124.767 124.767">
  <defs>
    <radialGradient id="radial-gradient" cx="0.076" cy="0.019" r="1.465" gradientTransform="translate(0.001)" gradientUnits="objectBoundingBox">
      <stop offset="0" stop-color="#f6f6f7"/>
      <stop offset="0.477" stop-color="#f9f9fa"/>
      <stop offset="0.715" stop-color="#fff"/>
    </radialGradient>
  </defs>
  <g id="Grupo_57027" data-name="Grupo 57027" transform="translate(-217 -997)">
    <g id="Grupo_18531" data-name="Grupo 18531" transform="translate(217 997)">
      <g id="Grupo_18423" data-name="Grupo 18423" transform="translate(0 0)">
        <g id="Grupo_18421" data-name="Grupo 18421">
          <g id="Grupo_18420" data-name="Grupo 18420">
            <g id="Grupo_18419" data-name="Grupo 18419">
              <path id="Trazado_40936" data-name="Trazado 40936" d="M319.39,2208.1a62.384,62.384,0,1,1-62.383-62.382A62.383,62.383,0,0,1,319.39,2208.1Z" transform="translate(-194.623 -2145.721)" fill="#fff"/>
            </g>
          </g>
        </g>
        <path id="Trazado_40937" data-name="Trazado 40937" d="M318.65,2207.3a62.382,62.382,0,1,0-62.383,62.385A62.136,62.136,0,0,0,318.65,2207.3Z" transform="translate(-193.883 -2144.915)" fill="url(#radial-gradient)"/>
        <path id="Trazado_40938" data-name="Trazado 40938" d="M297.307,2200.746a47.617,47.617,0,1,0-47.617,47.617A47.44,47.44,0,0,0,297.307,2200.746Z" transform="translate(-187.117 -2138.156)" fill="none" stroke="#7d6eb2" stroke-miterlimit="10" stroke-width="4"/>
        <g id="Grupo_18422" data-name="Grupo 18422" transform="translate(11.052 35.024)">
          <path id="Trazado_40939" data-name="Trazado 40939" d="M307.953,2164.488a62.391,62.391,0,0,1-107.408,62.125,62.193,62.193,0,0,0,107.408-62.125Z" transform="translate(-200.545 -2164.488)" fill="#eceef0"/>
        </g>
      </g>
    </g>
    <g id="Grupo_50462" data-name="Grupo 50462" transform="translate(-20.945 690.525)">
      <path id="Trazado_96545" data-name="Trazado 96545" d="M272.07,385.124a4.129,4.129,0,0,1,4.282-3.01c-1.389-2.079-1.9-4.178-.793-6.4a5.83,5.83,0,0,1,4.18-3.14v-7.736H300.8v-5.785h-8.6v-4.177c0-1.321-.008-2.642,0-3.964.022-3.063,1.548-4.816,4.553-5.268a21.492,21.492,0,0,1-1.436-3.39,6.5,6.5,0,0,1,4.937-7.906,5.38,5.38,0,0,0,.612-.229h1.85c3.2.8,5.261,2.7,5.725,6.065a7.017,7.017,0,0,1-1.789,5.33c3.7.969,4.73,2.344,4.731,6.213,0,2.367,0,4.733,0,7.242h-8.58v5.775h21v7.688c4.824,1.9,6,5.134,3.482,9.657a4.178,4.178,0,0,1,4.24,3.035v8.457H314.353q-.011-3.9-.022-7.794a3.45,3.45,0,0,1,1.956-3.2,10.233,10.233,0,0,1,2.089-.61c-2.251-4.823-1.371-7.189,3.538-9.548v-5.692H302.8v5.8c4.632,1.532,5.811,4.761,3.5,9.452,3.4.781,4.092,1.674,4.091,5.253q0,3.171,0,6.342H293.212c0-2.554.008-5.109,0-7.663a3.44,3.44,0,0,1,1.665-3.109,12.4,12.4,0,0,1,2.39-.882c-2.279-4.65-1.285-7.353,3.542-9.481,0-1.877,0-3.754,0-5.671H281.667V372.5c4.713,1.7,5.835,4.741,3.529,9.5a1.678,1.678,0,0,0,.341.127c2.612.367,3.721,1.592,3.732,4.181.01,2.422-.013,4.844-.021,7.266H272.07ZM298,357.056h7.667v-5.568h1.9v5.586h1.915c0-2.377.121-4.706-.041-7.014a2.619,2.619,0,0,0-2.892-2.474q-4.756-.029-9.511,0a2.659,2.659,0,0,0-2.891,2.488c-.143,2.311-.037,4.638-.037,6.969h2.04V351.5H298Zm-10.6,34.6c0-2.042.043-3.971-.017-5.9a1.672,1.672,0,0,0-1.781-1.736c-3.253-.041-6.508-.035-9.761-.011a1.748,1.748,0,0,0-1.857,1.7c-.114,1.959-.033,3.929-.033,5.9h2.077v-4.591h1.861v4.605h5.795V387h1.849v4.657Zm42.243,0c0-2.025.08-4-.035-5.956a1.7,1.7,0,0,0-1.74-1.667c-3.3-.033-6.6-.082-9.891.046-.6.023-1.614.811-1.661,1.318-.19,2.075-.079,4.177-.079,6.256h1.85v-4.619h1.94v4.589h5.753v-4.6h1.894v4.637Zm-30.7-4.662v4.658h5.747v-4.634h1.954v4.608h1.9c0-1.973.043-3.858-.016-5.739a1.752,1.752,0,0,0-1.825-1.859c-3.252-.047-6.5-.033-9.757-.011a1.682,1.682,0,0,0-1.817,1.57c-.116,2-.035,4.013-.035,6.054h1.933v-4.646Zm2.918-51.007a4.846,4.846,0,1,0,4.792,4.969A4.99,4.99,0,0,0,301.856,335.986Zm3.781,42.245a3.836,3.836,0,1,0-3.839,3.886A3.925,3.925,0,0,0,305.636,378.232Zm-21.127-.03a3.86,3.86,0,0,0-3.845-3.861,3.887,3.887,0,0,0,.063,7.773A3.839,3.839,0,0,0,284.51,378.2Zm34.573-.055a3.835,3.835,0,0,0,3.729,3.964,3.885,3.885,0,0,0,.168-7.767A3.858,3.858,0,0,0,319.083,378.147Z" transform="translate(0 0)" fill="#00223d"/>
      <path id="Trazado_96556" data-name="Trazado 96556" d="M321.258,465.412v1.7h-1.7v-1.7Z" transform="translate(-34.941 -96.595)" fill="#00223d"/>
      <path id="Trazado_96557" data-name="Trazado 96557" d="M336,467.064h-1.7v-1.738H336Z" transform="translate(-45.783 -96.532)" fill="#00223d"/>
      <path id="Trazado_96558" data-name="Trazado 96558" d="M350.239,467.1h-1.688v-1.691h1.688Z" transform="translate(-56.269 -96.592)" fill="#00223d"/>
      <path id="Trazado_96559" data-name="Trazado 96559" d="M363.092,467.064v-1.657h1.747v1.657Z" transform="translate(-66.967 -96.592)" fill="#00223d"/>
      <path id="Trazado_96560" data-name="Trazado 96560" d="M401.14,467.038h-1.7v-1.73h1.7Z" transform="translate(-93.71 -96.519)" fill="#00223d"/>
      <path id="Trazado_96561" data-name="Trazado 96561" d="M414.222,465.227H415.9v1.691h-1.679Z" transform="translate(-104.585 -96.459)" fill="#00223d"/>
      <path id="Trazado_96562" data-name="Trazado 96562" d="M430.149,467.1h-1.657V465.4h1.657Z" transform="translate(-115.084 -96.584)" fill="#00223d"/>
      <path id="Trazado_96563" data-name="Trazado 96563" d="M444.993,465.371v1.691H443.3v-1.691Z" transform="translate(-125.978 -96.565)" fill="#00223d"/>
    </g>
  </g>
</svg>
