<svg xmlns="http://www.w3.org/2000/svg" xmlns:xlink="http://www.w3.org/1999/xlink" width="171.248" height="186.767" viewBox="0 0 171.248 186.767">
  <defs>
    <linearGradient id="linear-gradient" x1="0.5" x2="0.5" y2="1" gradientUnits="objectBoundingBox">
      <stop offset="0" stop-color="#fff"/>
      <stop offset="1" stop-color="#d2e6ee"/>
    </linearGradient>
  </defs>
  <g id="Grupo_57070" data-name="Grupo 57070" transform="translate(-858.739 -9199.027)">
    <g id="Grupo_28908" data-name="Grupo 28908" transform="translate(858.739 9199.027)">
      <path id="Trazado_68596" data-name="Trazado 68596" d="M1074.21,467.779H1009.04c-16.716,1.112-16.642,19.526-16.642,19.526h0V575.3h65.252V487.305S1057.959,468.83,1074.21,467.779Z" transform="translate(-932.079 -419.363)" fill="#00223d"/>
      <g id="Grupo_28775" data-name="Grupo 28775" transform="translate(55.755 69.054)">
        <rect id="Rectángulo_26427" data-name="Rectángulo 26427" width="0.787" height="67.724" transform="translate(0 0)" fill="#00223d"/>
      </g>
      <g id="Grupo_28777" data-name="Grupo 28777" transform="translate(16.702 33.336)">
        <path id="Trazado_68598" data-name="Trazado 68598" d="M589.126,342.353h-39.84v-27.77h39.84Zm-39.053-.787h38.265v-26.2H550.073Z" transform="translate(-549.286 -314.583)" fill="#00223d"/>
      </g>
      <g id="Grupo_28778" data-name="Grupo 28778" transform="translate(129.493 83.161)">
        <path id="Trazado_68599" data-name="Trazado 68599" d="M1734.981,842.927h-39.84V820.76h39.84Zm-39.053-.788h38.265V821.547h-38.265Z" transform="translate(-1695.141 -820.76)" fill="#00223d"/>
      </g>
      <path id="Trazado_68600" data-name="Trazado 68600" d="M1047.74,455.642c-16.251,1.05-16.56,19.526-16.56,19.526V563.16H965.927V475.168s-.074-18.414,16.642-19.526Z" transform="translate(-908.213 -408.421)" fill="url(#linear-gradient)"/>
      <rect id="Rectángulo_26428" data-name="Rectángulo 26428" width="44.82" height="3.955" transform="translate(66.282 70.208)" fill="#00223d"/>
      <rect id="Rectángulo_26429" data-name="Rectángulo 26429" width="38.27" height="2.801" transform="translate(66.282 79.353)" fill="#7d6eb2"/>
      <rect id="Rectángulo_26430" data-name="Rectángulo 26430" width="19.238" height="4.161" transform="translate(66.282 86.747)" fill="#f1f1f1"/>
      <rect id="Rectángulo_26431" data-name="Rectángulo 26431" width="19.897" height="4.161" transform="translate(91.205 86.747)" fill="#7d6eb2"/>
      <rect id="Rectángulo_26432" data-name="Rectángulo 26432" width="30.649" height="2.966" transform="translate(66.282 94.76)" fill="#f1f1f1"/>
      <rect id="Rectángulo_26433" data-name="Rectángulo 26433" width="34.531" height="1.648" transform="translate(66.282 102.175)" fill="#7d6eb2"/>
      <rect id="Rectángulo_26434" data-name="Rectángulo 26434" width="41.524" height="1.648" transform="translate(66.282 109.59)" fill="#f1f1f1"/>
      <g id="Grupo_28779" data-name="Grupo 28779" transform="translate(66.135 116.857)">
        <path id="Trazado_68601" data-name="Trazado 68601" d="M1071.009,1172.44h-19.533v-9.358h19.533Zm-19.238-.3h18.942v-8.767h-18.942Z" transform="translate(-1051.476 -1163.082)" fill="#00223d"/>
      </g>
      <rect id="Rectángulo_26435" data-name="Rectángulo 26435" width="17.467" height="2.142" transform="translate(90.34 117.005)" fill="#00223d"/>
      <rect id="Rectángulo_26436" data-name="Rectángulo 26436" width="12.38" height="2.142" transform="translate(90.34 121.536)" fill="#00223d"/>
      <rect id="Rectángulo_26437" data-name="Rectángulo 26437" width="37.343" height="1.648" transform="translate(66.282 131.835)" fill="#00223d"/>
      <rect id="Rectángulo_26438" data-name="Rectángulo 26438" width="19.67" height="1.648" transform="translate(66.282 139.25)" fill="#00223d"/>
      <g id="Grupo_28786" data-name="Grupo 28786" transform="translate(134.144 87.839)">
        <g id="Grupo_28785" data-name="Grupo 28785">
          <path id="Trazado_68603" data-name="Trazado 68603" d="M1749.311,882.125a6.921,6.921,0,1,1,6.921-6.921A6.929,6.929,0,0,1,1749.311,882.125Zm0-12.853a5.932,5.932,0,1,0,5.932,5.932A5.939,5.939,0,0,0,1749.311,869.273Z" transform="translate(-1742.39 -868.284)" fill="#00223d"/>
        </g>
        <path id="Trazado_96709" data-name="Trazado 96709" d="M4.514,10.978l7.063-5.227" transform="translate(-1.125 -1.444)" fill="none" stroke="#00223d" stroke-linecap="round" stroke-width="3"/>
        <path id="Trazado_96710" data-name="Trazado 96710" d="M0,5.227,7.063,0" transform="matrix(-0.259, -0.966, 0.966, -0.259, 5.31, 11.008)" fill="none" stroke="#00223d" stroke-linecap="round" stroke-width="3"/>
      </g>
      <rect id="Rectángulo_26439" data-name="Rectángulo 26439" width="31.555" height="2.224" transform="translate(21.154 41.249)" fill="#00223d"/>
      <rect id="Rectángulo_26440" data-name="Rectángulo 26440" width="31.555" height="2.224" transform="translate(21.154 54.952)" fill="#00223d"/>
      <rect id="Rectángulo_26441" data-name="Rectángulo 26441" width="24.801" height="2.225" transform="translate(21.154 46.109)" fill="#00223d"/>
      <rect id="Rectángulo_26442" data-name="Rectángulo 26442" width="24.801" height="2.225" transform="translate(21.154 36.209)" fill="#00223d"/>
      <rect id="Rectángulo_26443" data-name="Rectángulo 26443" width="27.829" height="2.224" transform="translate(21.154 50.969)" fill="#00223d"/>
      <rect id="Rectángulo_26444" data-name="Rectángulo 26444" width="11.17" height="2.225" transform="translate(150.855 90.703)" fill="#7d6eb2"/>
      <rect id="Rectángulo_26445" data-name="Rectángulo 26445" width="12.534" height="2.225" transform="translate(150.855 95.563)" fill="#7d6eb2"/>
      <g id="Grupo_28787" data-name="Grupo 28787" transform="translate(127.827 105.8)">
        <path id="Trazado_68604" data-name="Trazado 68604" d="M1690.309,1064.985h-12.093v-.788h11.305V1050.75h.787Z" transform="translate(-1678.216 -1050.75)" fill="#00223d"/>
      </g>
      <g id="Grupo_28789" data-name="Grupo 28789" transform="translate(38.947 62.463)">
        <path id="Trazado_68606" data-name="Trazado 68606" d="M789.037,640.151H775.276V610.487h.787v28.876h12.974Z" transform="translate(-775.276 -610.487)" fill="#00223d"/>
      </g>
      <g id="Grupo_28790" data-name="Grupo 28790" transform="translate(127.049 51.262)">
        <path id="Trazado_68607" data-name="Trazado 68607" d="M1671.111,525.5h-.787v-8.96c-.011-.148-.967-17.349,13.55-19.852l.134.776c-13.827,2.384-12.909,18.884-12.9,19.051Z" transform="translate(-1670.308 -496.689)" fill="#00223d"/>
      </g>
      <g id="Grupo_28791" data-name="Grupo 28791" transform="translate(154.171 81.327)">
        <path id="Trazado_68608" data-name="Trazado 68608" d="M1962.923,818.1h-.787V802.918h-16.29v-.787h17.077Z" transform="translate(-1945.846 -802.131)" fill="#00223d"/>
      </g>
      <g id="Grupo_28792" data-name="Grupo 28792" transform="translate(14.58 48.762)">
        <path id="Trazado_68609" data-name="Trazado 68609" d="M543.234,485.9h-15.5V471.292h.787V485.11h14.714Z" transform="translate(-527.733 -471.292)" fill="#00223d"/>
      </g>
      <g id="Grupo_28794" data-name="Grupo 28794" transform="translate(114.109 136.397)">
        <path id="Trazado_68611" data-name="Trazado 68611" d="M1552.965,1383.73h-14.111v-.787h13.324v-21.357h.787Z" transform="translate(-1538.854 -1361.586)" fill="#00223d"/>
      </g>
      <g id="Grupo_28812" data-name="Grupo 28812" transform="translate(109.783 115.795)">
        <g id="Grupo_28795" data-name="Grupo 28795" transform="translate(24.765 53.721)">
          <path id="Trazado_68612" data-name="Trazado 68612" d="M1749.972,1698.216a4.555,4.555,0,0,1-1.872,1.18c-.943.2-1.6.465-1.61,1.024s2.714.928,3.792.364c1.61-.842,1.774-.588,1.952-1.009s-.214-1.546-.2-1.68A8.677,8.677,0,0,0,1749.972,1698.216Z" transform="translate(-1746.491 -1698.043)" fill="#61a3a3"/>
        </g>
        <g id="Grupo_28796" data-name="Grupo 28796" transform="translate(28.244 53.152)">
          <path id="Trazado_68613" data-name="Trazado 68613" d="M1781.943,1692.538a3.869,3.869,0,0,0-.1.467c.018.01,2.125.246,2.061-.121-.052-.3-.126-.62-.126-.62Z" transform="translate(-1781.836 -1692.263)" fill="#2f6b8c"/>
        </g>
        <g id="Grupo_28797" data-name="Grupo 28797" transform="translate(35.61 54.079)">
          <path id="Trazado_68614" data-name="Trazado 68614" d="M1859.8,1701.753a3.293,3.293,0,0,1-1.6,1.169c-.9.216-1.485.627-1.529,1.171s2.125,1.256,3.648.3c1-.628,1.374-.592,1.576-.991s-.106-1.517-.085-1.646A8.471,8.471,0,0,0,1859.8,1701.753Z" transform="translate(-1856.669 -1701.684)" fill="#61a3a3"/>
        </g>
        <g id="Grupo_28798" data-name="Grupo 28798" transform="translate(38.733 53.506)">
          <path id="Trazado_68615" data-name="Trazado 68615" d="M1888.427,1696.035a4.175,4.175,0,0,0-.028.47c.017.01,2.025.366,2.013,0a2.81,2.81,0,0,0-.127-.645Z" transform="translate(-1888.395 -1695.863)" fill="#2f6b8c"/>
        </g>
        <g id="Grupo_28799" data-name="Grupo 28799" transform="translate(28.156 23.961)">
          <path id="Trazado_68616" data-name="Trazado 68616" d="M1783.265,1397.739s-.975,7.085-1.374,9.481c-.466,2.8-.624,5.115-.754,6.564-.163,1.823-.073,11.154-.187,11.687s2.307.256,2.307.256,1.775-12.164,2.262-14.106c.453-1.808,1.7-9.262,2.113-8.768s1.753,8.985,2.059,10.411,1.543,12.651,1.543,12.651,2.058.447,2.619,0c0,0-.125-10.01-.321-12.683-.075-1.019.645-12.2-1.078-16.705C1791.543,1394.145,1783.265,1397.739,1783.265,1397.739Z" transform="translate(-1780.946 -1395.712)" fill="#00223d"/>
        </g>
        <path id="Trazado_68617" data-name="Trazado 68617" d="M1802.633,1419.744l-.11,1.064s2.972,1.2,10.207,1.2V1420.8Z" transform="translate(-1772.243 -1393.417)" fill="#61a3a3"/>
        <g id="Grupo_28802" data-name="Grupo 28802" transform="translate(18.496 12.938)">
          <g id="Grupo_28801" data-name="Grupo 28801">
            <g id="Grupo_28800" data-name="Grupo 28800">
              <path id="Trazado_68618" data-name="Trazado 68618" d="M1686.368,1283.724s-.433.956-.69,1.015-.562.379-.782.477-.912.152-1.1.333a6.954,6.954,0,0,1-.537.845c-.17.134-.548.364-.431.507s.51.03.51.03a.281.281,0,0,0-.084.29c.124.308.331.322.331.322s-.066.232.018.347a.556.556,0,0,0,.386.26.531.531,0,0,0,.179.319.473.473,0,0,0,.46.076s.206.284.4.229a1.707,1.707,0,0,0,.436-.281,6.477,6.477,0,0,0,1.43-2.2,7.823,7.823,0,0,1,.954-1.85Z" transform="translate(-1682.808 -1283.724)" fill="#eea886"/>
            </g>
          </g>
        </g>
        <g id="Grupo_28803" data-name="Grupo 28803" transform="translate(22.252 9.599)">
          <path id="Trazado_68619" data-name="Trazado 68619" d="M1720.966,1257.978s3.363,1.53,4.558,1.236a5,5,0,0,0,1.971-1.795c.228-.3.452-.605.664-.912h0c.848-1.225,1.513-2.4,1.513-2.4s2.508-2.938.5-4.248a1.338,1.338,0,0,0-1.4.445,12.88,12.88,0,0,0-1.634,2.606c-.176.383-2.639,3.935-2.766,4.016s-1.2-.2-2.067-.275c-1.407-.117-1.128-.177-1.128-.177Z" transform="translate(-1720.966 -1249.807)" fill="#8ec8c8"/>
        </g>
        <path id="Trazado_68620" data-name="Trazado 68620" d="M1798.369,1242.879a16.619,16.619,0,0,0-2.887.8,13.2,13.2,0,0,0-.954,3.9,30.4,30.4,0,0,0,.644,5.3c.333,1.225-.438,6.44.179,7.3a27.561,27.561,0,0,0,10.43,1.041s-1.1-4.921-.892-6.6c.262-2.151.892-7.1.892-7.1s-.683-3.336-1.138-3.721a18.786,18.786,0,0,0-3.618-1.011Z" transform="translate(-1765.032 -1233.884)" fill="#8ec8c8"/>
        <path id="Trazado_68621" data-name="Trazado 68621" d="M1891.969,1312.064s.488,3.172.453,3.376S1894.629,1314.8,1891.969,1312.064Z" transform="translate(-1852.884 -1296.337)" fill="#61a3a3"/>
        <g id="Grupo_28804" data-name="Grupo 28804" transform="translate(0 0.334)">
          <path id="Trazado_68622" data-name="Trazado 68622" d="M1932.157,1405.957l2.242-3.722a1.333,1.333,0,0,0-.454-1.83l-5.618-3.385a1.333,1.333,0,0,0-1.83.454l-2.242,3.721a1.333,1.333,0,0,0,.454,1.83l5.619,3.385A1.333,1.333,0,0,0,1932.157,1405.957Z" transform="translate(-1881.819 -1373.092)" fill="#c4b4af"/>
          <rect id="Rectángulo_26449" data-name="Rectángulo 26449" width="7.513" height="44.787" transform="translate(49.306 25.321) rotate(121.07)" fill="#7acff7"/>
          <rect id="Rectángulo_26450" data-name="Rectángulo 26450" width="2.505" height="44.787" transform="translate(9.651 4.353) rotate(-58.931)" fill="#f6c343"/>
          <rect id="Rectángulo_26451" data-name="Rectángulo 26451" width="2.505" height="44.787" transform="translate(48.013 27.466) rotate(121.069)" fill="#f6c343"/>
          <rect id="Rectángulo_26452" data-name="Rectángulo 26452" width="2.504" height="44.787" transform="matrix(-0.516, 0.857, -0.857, -0.516, 46.721, 29.612)" fill="#f6c343"/>
          <path id="Trazado_68623" data-name="Trazado 68623" d="M1501.969,1164.327l3.878-6.435-8.705-1.756-2.239-.452,1.446,1.768Z" transform="translate(-1494.902 -1155.684)" fill="#eddad3"/>
          <path id="Trazado_68624" data-name="Trazado 68624" d="M1592.948,1180.255a1.253,1.253,0,0,0,1.292-2.145Z" transform="translate(-1583.297 -1175.903)" fill="#deccc6"/>
          <path id="Trazado_68625" data-name="Trazado 68625" d="M1579.817,1202.047a1.253,1.253,0,0,0,1.293-2.145Z" transform="translate(-1571.459 -1195.549)" fill="#e3d1ca"/>
          <path id="Trazado_68626" data-name="Trazado 68626" d="M1566.687,1223.841a1.253,1.253,0,0,0,1.292-2.145Z" transform="translate(-1559.621 -1215.198)" fill="#eddad3"/>
          <rect id="Rectángulo_26453" data-name="Rectángulo 26453" width="2.505" height="2.752" transform="matrix(0.516, -0.857, 0.857, 0.516, 46.975, 26.841)" fill="#b39696"/>
          <rect id="Rectángulo_26454" data-name="Rectángulo 26454" width="2.505" height="2.752" transform="translate(49.333 28.261) rotate(121.07)" fill="#dbb8b8"/>
          <rect id="Rectángulo_26455" data-name="Rectángulo 26455" width="2.504" height="2.752" transform="translate(48.04 30.406) rotate(121.067)" fill="#f2cbcb"/>
          <path id="Trazado_68627" data-name="Trazado 68627" d="M1504.553,1160.036l-9.651-4.353,10.944,2.208Z" transform="translate(-1494.902 -1155.684)" fill="#deccc6"/>
          <path id="Trazado_68628" data-name="Trazado 68628" d="M1503.261,1162.182l-8.359-6.5,9.651,4.353Z" transform="translate(-1494.902 -1155.684)" fill="#e3d1ca"/>
          <path id="Trazado_68629" data-name="Trazado 68629" d="M1503.261,1162.182l-8.359-6.5,7.066,8.643Z" transform="translate(-1494.902 -1155.684)" fill="#eddad3"/>
          <path id="Trazado_68630" data-name="Trazado 68630" d="M1496.348,1157.452l.793-1.316-2.239-.452Z" transform="translate(-1494.902 -1155.684)" fill="#00223d"/>
        </g>
        <g id="Grupo_28809" data-name="Grupo 28809" transform="translate(32.656 23.414)">
          <g id="Grupo_28808" data-name="Grupo 28808">
            <g id="Grupo_28807" data-name="Grupo 28807">
              <g id="Grupo_28806" data-name="Grupo 28806">
                <g id="Grupo_28805" data-name="Grupo 28805">
                  <path id="Trazado_68631" data-name="Trazado 68631" d="M1827.8,1393.126a1.088,1.088,0,0,0,.338-.08s.174-.123.3-.2a1.04,1.04,0,0,1,.1-.057,1.991,1.991,0,0,0,.562-.3,13.361,13.361,0,0,0,.954-1.2l-.441-.555-.338-.578a13.445,13.445,0,0,0-1.935.411.722.722,0,0,0-.061.045,2.507,2.507,0,0,0-.331.406c-.031.031-.314.363-.292.492a.427.427,0,0,0,.239.339,1.015,1.015,0,0,0,.263.495.633.633,0,0,0,.345.44S1827.6,1393.1,1827.8,1393.126Z" transform="translate(-1826.654 -1390.149)" fill="#eea886"/>
                </g>
              </g>
            </g>
          </g>
        </g>
        <path id="Trazado_68632" data-name="Trazado 68632" d="M1854.671,1251.163c-.339.131-.7.95-.431,2.556a6.926,6.926,0,0,0,1.084,2.862c.229.4,1.486,2.885,1.26,3.212s-2.361,2.433-2.485,2.6-2.508,2.33-2.508,2.33l1.214,1.7s5.148-4.021,5.55-4.423,1.6-1.245,1.158-2.647c-.452-1.426-1.262-4.762-1.406-5.023S1856.909,1250.3,1854.671,1251.163Z" transform="translate(-1816.482 -1241.313)" fill="#8ec8c8"/>
        <g id="Grupo_28811" data-name="Grupo 28811" transform="translate(18.902 15.116)">
          <g id="Grupo_28810" data-name="Grupo 28810">
            <path id="Trazado_68633" data-name="Trazado 68633" d="M1687.11,1306.756s.825-.92,1.237-.9.131.365.131.365.271-.349.565-.165-.056.574-.056.574a.34.34,0,0,1,.492.08c.217.29-.144.548-.144.548s.545-.081.429.364a1.92,1.92,0,0,1-1.008,1.111s-.232.091-.421-.2a.482.482,0,0,1-.654-.4s-.615-.142-.427-.619A.427.427,0,0,1,1687.11,1306.756Z" transform="translate(-1686.931 -1305.853)" fill="#eea886"/>
          </g>
        </g>
        <path id="Trazado_68634" data-name="Trazado 68634" d="M1821.686,1238.073s-.155-.706,2.055-.87,3.706.333,3.747.967-5.6,2.217-5.6,2.217Z" transform="translate(-1789.517 -1228.816)" fill="#61a3a3"/>
        <path id="Trazado_68635" data-name="Trazado 68635" d="M1817.676,1161.237s-3.1-1.149-2.911,2.977.922,4.546,2.964,3.969,2.214-3.18,2.48-4.433S1818.691,1161.417,1817.676,1161.237Z" transform="translate(-1783.272 -1160.223)" fill="#eea886"/>
        <path id="Trazado_68636" data-name="Trazado 68636" d="M1828.383,1210.569s.744.328,3.167-.739a10.974,10.974,0,0,1,.407-3.212c.475-1.551-3.251,2.069-3.251,2.069.039.027.047.182.024.4a4.409,4.409,0,0,1-.12.641C1828.474,1210.244,1828.506,1210.152,1828.383,1210.569Z" transform="translate(-1795.557 -1200.921)" fill="#eea886"/>
        <path id="Trazado_68637" data-name="Trazado 68637" d="M1819.006,1157.861s.009-1.1-.449-1.2-.694.536-.694.536l-.369-.02s.33-1.117-.107-1.373-3.051-.031-3.379-.407.148-2.61.861-2.829,2.661-.664,3.9.438c0,0,1.063.459,1.106,1.335A9.4,9.4,0,0,1,1819.006,1157.861Z" transform="translate(-1782.5 -1152.288)" fill="#163342"/>
        <path id="Trazado_68638" data-name="Trazado 68638" d="M1830.691,1225.3c2.407-.4,2.766-1.773,2.772-1.795a3.517,3.517,0,0,1-2.652,1.153A4.408,4.408,0,0,1,1830.691,1225.3Z" transform="translate(-1797.638 -1216.497)" fill="#b07c63"/>
        <path id="Trazado_68639" data-name="Trazado 68639" d="M1853.519,1189.794c.137-.364.912-.318.832.259s-.719,1.464-.976,1.3S1853.33,1190.3,1853.519,1189.794Z" transform="translate(-1817.982 -1185.893)" fill="#eea886"/>
      </g>
      <g id="Grupo_28813" data-name="Grupo 28813" transform="translate(105.115 131.294)">
        <path id="Trazado_68640" data-name="Trazado 68640" d="M1459.805,1322.074h-12.324V1309.75h12.324Zm-11.143-1.181h9.962v-9.962h-9.962Z" transform="translate(-1447.481 -1309.75)" fill="#00223d"/>
      </g>
      <g id="Grupo_28814" data-name="Grupo 28814" transform="translate(109.598 130.31)">
        <path id="Trazado_68641" data-name="Trazado 68641" d="M1475.406,1325.183l-1.621-1.888,9.018-7.409,1.671,2.034Z" transform="translate(-1473.256 -1314.104)" fill="#00223d"/>
        <path id="Trazado_96711" data-name="Trazado 96711" d="M1.678,9.549,0,7.61,9.332,0l1.729,2.088Z" transform="matrix(-0.259, -0.966, 0.966, -0.259, 2.863, 13.156)" fill="#00223d"/>
      </g>
      <path id="Trazado_68642" data-name="Trazado 68642" d="M1015.764,924.38a33.225,33.225,0,0,0-49.837-8.945v7.615A27.76,27.76,0,0,1,1014.787,940c.012.344.02.685.02,1.028a27.756,27.756,0,0,1-48.88,18.024v7.622a32.836,32.836,0,0,0,6.483,4.177H1001.7c.685-.336,1.359-.7,2.03-1.088A33.2,33.2,0,0,0,1015.764,924.38Z" transform="translate(-908.213 -816.114)" fill="#3f444f" opacity="0.24" style="mix-blend-mode: hard-light;isolation: isolate"/>
      <g id="Grupo_28815" data-name="Grupo 28815" transform="translate(0 91.733)">
        <rect id="Rectángulo_26456" data-name="Rectángulo 26456" width="53.658" height="9.122" transform="matrix(-0.768, 0.64, -0.64, -0.768, 47.06, 60.681)" fill="#00223d"/>
        <rect id="Rectángulo_26457" data-name="Rectángulo 26457" width="2.866" height="6.924" transform="matrix(-0.768, 0.64, -0.64, -0.768, 48.558, 58.002)" fill="#8ec8c8"/>
        <path id="Trazado_68643" data-name="Trazado 68643" d="M760.4,957.726a33.2,33.2,0,1,0,12.038-45.385A33.2,33.2,0,0,0,760.4,957.726Zm4.715-2.738A27.75,27.75,0,1,1,816.85,940h0a27.753,27.753,0,0,1-51.732,14.988Z" transform="translate(-718.868 -907.846)" fill="#00223d"/>
        <path id="Trazado_68644" data-name="Trazado 68644" d="M824.485,982.625s28.9-21.944,54.192,7.319h0a27.753,27.753,0,0,0-54.192-7.318Z" transform="translate(-780.694 -957.79)" fill="#c2c2c2" opacity="0.3"/>
      </g>
      <g id="Grupo_28848" data-name="Grupo 28848" transform="translate(64.363 67.729)">
        <g id="Grupo_28816" data-name="Grupo 28816" transform="translate(15.536 6.589)">
          <path id="Trazado_68645" data-name="Trazado 68645" d="M1192.15,735.971a12.721,12.721,0,0,0,.463-1.984c-.067-.19-1.316-1.4-1.305-1.548s1.671-1.17,1.841-1.462.477.563.537,1.3.179,1.915.177,2.074-.388,2.175-.388,2.175Z" transform="translate(-1191.308 -730.918)" fill="#de9d7d"/>
        </g>
        <g id="Grupo_28817" data-name="Grupo 28817" transform="translate(11.57 11.443)">
          <path id="Trazado_68646" data-name="Trazado 68646" d="M1151.018,783.205s.031.186.078.466h0c.029.173.064.382.1.6.116.692.257,1.516.309,1.8a7.207,7.207,0,0,0,.838,2.3,1.326,1.326,0,0,0,.845.369c.262.024.953.291,1.761-.986a38.445,38.445,0,0,0,2.161-6.013c.068-.244.264-.929.264-.929l-1.662-.588s-1.194,3.243-1.363,3.69c-.128.339-.876,1.7-.914,1.743s-.132-3.718-.132-3.718Z" transform="translate(-1151.018 -780.23)" fill="#1363b2"/>
        </g>
        <g id="Grupo_28819" data-name="Grupo 28819" transform="translate(16.863 37.811)">
          <g id="Grupo_28818" data-name="Grupo 28818">
            <path id="Trazado_68647" data-name="Trazado 68647" d="M1206.826,1049.136a13.157,13.157,0,0,0,1.745,2.419c.7.461.263.927-.071.928s-2.039.122-2.415-.3-.562-1.7-.912-2.038-.71-1.663.17-1.986C1206.122,1047.869,1206.826,1049.136,1206.826,1049.136Z" transform="translate(-1204.794 -1048.112)" fill="#1363b2"/>
          </g>
        </g>
        <g id="Grupo_28821" data-name="Grupo 28821" transform="translate(17.353 37.853)">
          <g id="Grupo_28820" data-name="Grupo 28820">
            <path id="Trazado_68648" data-name="Trazado 68648" d="M1210.782,1048.6s1.4,2.435,1.647,2.8-.456.359-.888.188a8.465,8.465,0,0,1-1.677-2.235,1.173,1.173,0,0,1-.033-.815Z" transform="translate(-1209.771 -1048.538)" fill="#eea886"/>
          </g>
        </g>
        <g id="Grupo_28823" data-name="Grupo 28823" transform="translate(16.941 39.23)">
          <g id="Grupo_28822" data-name="Grupo 28822">
            <path id="Trazado_68649" data-name="Trazado 68649" d="M1205.581,1062.526l.324,2.5.172.007-.053-1.8Z" transform="translate(-1205.581 -1062.526)" fill="#1363b2"/>
          </g>
        </g>
        <g id="Grupo_28825" data-name="Grupo 28825" transform="translate(4.694 37.819)">
          <g id="Grupo_28824" data-name="Grupo 28824">
            <path id="Trazado_68650" data-name="Trazado 68650" d="M1083.2,1049.206a13.154,13.154,0,0,0,1.745,2.419c.7.461.263.927-.071.928s-2.039.122-2.414-.3-.562-1.7-.912-2.038-.722-1.7.17-1.986C1082.5,1047.972,1083.2,1049.206,1083.2,1049.206Z" transform="translate(-1081.168 -1048.191)" fill="#1363b2"/>
          </g>
        </g>
        <g id="Grupo_28827" data-name="Grupo 28827" transform="translate(5.189 37.853)">
          <g id="Grupo_28826" data-name="Grupo 28826">
            <path id="Trazado_68651" data-name="Trazado 68651" d="M1087.278,1048.61s1.331,2.43,1.573,2.79-.456.359-.889.188a8.473,8.473,0,0,1-1.677-2.235,1.174,1.174,0,0,1-.033-.815Z" transform="translate(-1086.193 -1048.538)" fill="#eea886"/>
          </g>
        </g>
        <g id="Grupo_28829" data-name="Grupo 28829" transform="translate(4.776 39.23)">
          <g id="Grupo_28828" data-name="Grupo 28828">
            <path id="Trazado_68652" data-name="Trazado 68652" d="M1082,1062.526l.324,2.5.172.007-.053-1.8Z" transform="translate(-1082.003 -1062.526)" fill="#1363b2"/>
          </g>
        </g>
        <g id="Grupo_28831" data-name="Grupo 28831" transform="translate(1.288 18.178)">
          <g id="Grupo_28830" data-name="Grupo 28830">
            <path id="Trazado_68653" data-name="Trazado 68653" d="M1046.567,850.388l11.1,5.058a2.119,2.119,0,0,1,.563.314h0a2.177,2.177,0,0,1,.34.323,2.05,2.05,0,0,1,.475,1.142c.433,4.294,3.645,11.107,3.645,11.107,1.031.5.952.066.952.066-.65-2.085-1.44-10.678-1.723-14.132-.06-.732-.1-1.233-.1-1.393-.005-.109-.124-.252-.33-.418-1.523-1.235-7.791-3.792-7.791-3.792C1048.989,848.542,1046.567,850.388,1046.567,850.388Z" transform="translate(-1046.567 -848.656)" fill="#eea886"/>
          </g>
        </g>
        <g id="Grupo_28833" data-name="Grupo 28833" transform="translate(0.418 17.415)">
          <g id="Grupo_28832" data-name="Grupo 28832">
            <path id="Trazado_68654" data-name="Trazado 68654" d="M1037.778,845.137a3.493,3.493,0,0,0,3.35,3.092h5.191a32.376,32.376,0,0,0-1.89,5.593c-.559,2.716-1.876,7.521-1.876,7.521s.086.163,1.025.072c0,0,4.075-8.121,5.635-10.163a13.792,13.792,0,0,0,1.463-4.247c.056-.479.021-.849-.157-1a12.967,12.967,0,0,0-1.146-.783,25.956,25.956,0,0,0-6.023-2.957,43.119,43.119,0,0,1-4.529-1.361S1037.435,842.137,1037.778,845.137Z" transform="translate(-1037.723 -840.906)" fill="#eea886"/>
          </g>
        </g>
        <g id="Grupo_28834" data-name="Grupo 28834" transform="translate(0 17.595)">
          <path id="Trazado_68655" data-name="Trazado 68655" d="M1041.952,849.88h-4.65s-3.381.088-3.777-2.906a5.62,5.62,0,0,1,1.242-4.237s1.579.422,3.555.9a15.293,15.293,0,0,1,3.573-.312s5.9,1.188,8.083,4.1C1049.978,847.423,1046.514,845.676,1041.952,849.88Z" transform="translate(-1033.479 -842.737)" fill="#00223d"/>
        </g>
        <g id="Grupo_28835" data-name="Grupo 28835" transform="translate(13.467 1.599)">
          <path id="Trazado_68656" data-name="Trazado 68656" d="M1170.323,683.689c-.018.337-.024.675-.029,1,0,.1,0,.2.011.3a3.128,3.128,0,0,0,.6,1.615h0a1.946,1.946,0,0,0,2.052.8c1.551-.369,2.584-5.4,2.584-5.4-.424-1.97-3.052-2.085-4.1-1.38C1170.607,681.18,1170.388,682.426,1170.323,683.689Z" transform="translate(-1170.294 -680.228)" fill="#eea886"/>
        </g>
        <g id="Grupo_28836" data-name="Grupo 28836" transform="translate(1.037 5.987)">
          <path id="Trazado_68657" data-name="Trazado 68657" d="M1044.014,736.558s.048.576,4.444,1.271l.345.056c.406.067.75.129,1.045.183,2.085.383,1.664.373,2.531-1.082a12.886,12.886,0,0,1,1.221-2.258,4.662,4.662,0,0,0,1.1-1.139c.234-.367,1.12-.131,1.947-.855s.484-1.766.535-2.609a9.96,9.96,0,0,0-.472-3.164c-2.317-4.34-5.692-.9-6.308-.274s-2.707,5.761-3.279,6.411C1045.091,735.41,1044.014,736.558,1044.014,736.558Z" transform="translate(-1044.014 -724.804)" fill="#1363b2"/>
        </g>
        <g id="Grupo_28837" data-name="Grupo 28837" transform="translate(11.375 6.047)">
          <path id="Trazado_68658" data-name="Trazado 68658" d="M1149.04,725.583s.343,4.226,1.352,4.7c1.037.491.674-3.665.674-3.665S1150.214,724.876,1149.04,725.583Z" transform="translate(-1149.04 -725.414)" fill="#eea886"/>
        </g>
        <g id="Grupo_28838" data-name="Grupo 28838" transform="translate(17.291 0.831)">
          <path id="Trazado_68659" data-name="Trazado 68659" d="M1209.359,675.274a9.063,9.063,0,0,1,.439,2.429,5.037,5.037,0,0,0,.837-1.8c.138-.855.549-2.237-.735-3.294S1209.359,675.274,1209.359,675.274Z" transform="translate(-1209.144 -672.422)" fill="#163342"/>
        </g>
        <g id="Grupo_28839" data-name="Grupo 28839" transform="translate(12.267 4.462)">
          <path id="Trazado_68660" data-name="Trazado 68660" d="M1158.1,712.309c0,1.043,1.114,1.63,1.2,1.134a1.126,1.126,0,0,1,.235-.29h0c.038-.039.072-.073.09-.093a1.4,1.4,0,0,1,.29-.232,5.005,5.005,0,0,1,1.023-.447l-1.122-3.071s-.211.241-.486.6A5.327,5.327,0,0,0,1158.1,712.309Z" transform="translate(-1158.1 -709.309)" fill="#eea886"/>
        </g>
        <g id="Grupo_28840" data-name="Grupo 28840" transform="translate(13.414 6.364)">
          <path id="Trazado_68661" data-name="Trazado 68661" d="M1170.042,730.575c.039-.039.072-.073.09-.093a1.379,1.379,0,0,1,.291-.232,3.475,3.475,0,0,1-.6-1.616A3.066,3.066,0,0,0,1170.042,730.575Z" transform="translate(-1169.756 -728.634)" fill="#a77860"/>
        </g>
        <g id="Grupo_28845" data-name="Grupo 28845" transform="translate(9.352 24.41)">
          <g id="Grupo_28844" data-name="Grupo 28844">
            <g id="Grupo_28843" data-name="Grupo 28843">
              <g id="Grupo_28842" data-name="Grupo 28842">
                <g id="Grupo_28841" data-name="Grupo 28841">
                  <path id="Trazado_68662" data-name="Trazado 68662" d="M1128.881,914.6a.907.907,0,0,1-.152-.249s-.029-.176-.057-.3a.852.852,0,0,0-.026-.095,1.674,1.674,0,0,1-.153-.513,11.207,11.207,0,0,1,.158-1.28l.591-.064.545-.139a11.3,11.3,0,0,1,.9,1.4c0,.022.007.043.009.063a2.139,2.139,0,0,1-.047.437c0,.037-.032.4-.122.464a.359.359,0,0,1-.343.057.856.856,0,0,1-.451.134.531.531,0,0,1-.466.053S1129.014,914.7,1128.881,914.6Z" transform="translate(-1128.491 -911.962)" fill="#ffb48f"/>
                </g>
              </g>
            </g>
          </g>
        </g>
        <g id="Grupo_28846" data-name="Grupo 28846" transform="translate(6.479 7.334)">
          <path id="Trazado_68663" data-name="Trazado 68663" d="M1102.414,740.644s.581-2.182-.934-2.149-1.619,1.924-1.663,2.3-.562,4.791-.5,5.627a28.142,28.142,0,0,0,.071,3.082c.133.83,2.83,6.61,2.874,6.633s1.376-.522,1.376-.522-1.729-5.641-1.958-6.164a3.819,3.819,0,0,1-.234-1.805C1101.427,747.244,1102.347,740.983,1102.414,740.644Z" transform="translate(-1099.3 -738.494)" fill="#1363b2"/>
        </g>
        <g id="Grupo_28847" data-name="Grupo 28847" transform="translate(6.817 0)">
          <path id="Trazado_68664" data-name="Trazado 68664" d="M1113.63,667.848s-.731,1.289-1.869.984-1.974-.007-2.112.473-1.113,3.051-2.145,2.968-1.783-1.65-2.364-1.344-1.214,2.041-1.971,1.574-.608-2.065,1.007-2.758,2.766-.692,3.237-1.593,1.644-3.358,2.765-3.844a3.149,3.149,0,0,1,3.377.379,2.444,2.444,0,0,1,1.073,2.669Z" transform="translate(-1102.73 -663.983)" fill="#163342"/>
        </g>
        <path id="Trazado_68665" data-name="Trazado 68665" d="M1165.054,902.609h0a2.178,2.178,0,0,1,.34.323,7.285,7.285,0,0,0,.1-2.312A7.793,7.793,0,0,1,1165.054,902.609Z" transform="translate(-1152.103 -877.327)" fill="#b07c63"/>
        <path id="Trazado_68666" data-name="Trazado 68666" d="M1091.892,787.835c.406.067.75.129,1.045.183h0a4.487,4.487,0,0,1-.319-.986,40.79,40.79,0,0,1,.051-4.928c.2-2.038.189-1.894.189-1.894A20.494,20.494,0,0,0,1091.892,787.835Z" transform="translate(-1086.065 -768.767)" fill="#185795"/>
        <path id="Trazado_68667" data-name="Trazado 68667" d="M1151.809,808.465h0c.029.173.028.167.065.39a3.044,3.044,0,0,0,1.666-1.124,3.5,3.5,0,0,1-1.369.436A.45.45,0,0,0,1151.809,808.465Z" transform="translate(-1140.161 -793.581)" fill="#185795"/>
      </g>
      <g id="Grupo_28907" data-name="Grupo 28907" transform="translate(68.564 111.944)">
        <g id="Grupo_28853" data-name="Grupo 28853" transform="translate(10.757 4.253)">
          <g id="Grupo_28852" data-name="Grupo 28852">
            <g id="Grupo_28851" data-name="Grupo 28851">
              <g id="Grupo_28850" data-name="Grupo 28850">
                <g id="Grupo_28849" data-name="Grupo 28849">
                  <path id="Trazado_68668" data-name="Trazado 68668" d="M1190.2,1156.785a3.009,3.009,0,0,1,1.4,3.378c-.459,2.47-.662,2.8-.149,3.768s1.119,5.082.657,5.862-5.718-3.429-6.447-6.961.462-5.1.883-5.688A3.118,3.118,0,0,1,1190.2,1156.785Z" transform="translate(-1185.432 -1156.378)" fill="#0e2d3d"/>
                </g>
              </g>
            </g>
          </g>
        </g>
        <g id="Grupo_28855" data-name="Grupo 28855">
          <g id="Grupo_28854" data-name="Grupo 28854">
            <path id="Trazado_68669" data-name="Trazado 68669" d="M1076.153,1113.17h7.816v6.859l-1.193-1.193h-6.623Z" transform="translate(-1076.153 -1113.17)" fill="#8ec8c8"/>
          </g>
        </g>
        <g id="Grupo_28856" data-name="Grupo 28856" transform="translate(14.394 56.846)">
          <path id="Trazado_68670" data-name="Trazado 68670" d="M1224.315,1691.042a4.653,4.653,0,0,0,.542.906c.26.339,1.068,1.731,1.424,1.828s1.456.291,1.553.906.145,1.052-.938,1.1-1.8.114-2.313-.647a5.64,5.64,0,0,0-1.343-1.31v1.984h-.421a18.008,18.008,0,0,0-.307-2.211,2.494,2.494,0,0,1,.6-2.556C1224.113,1690.217,1224.315,1691.042,1224.315,1691.042Z" transform="translate(-1222.383 -1690.675)" fill="#7c6db2"/>
        </g>
        <g id="Grupo_28857" data-name="Grupo 28857" transform="translate(14.892 56.995)">
          <path id="Trazado_68671" data-name="Trazado 68671" d="M1230.845,1695.137s-.971.243-1.343,0-1.637-2.381-2.056-2.509c0,0,.406-.824,1.434-.225C1228.88,1692.4,1230.57,1694.781,1230.845,1695.137Z" transform="translate(-1227.446 -1692.185)" fill="#eea886"/>
        </g>
        <g id="Grupo_28861" data-name="Grupo 28861" transform="translate(27.712 22.232)">
          <g id="Grupo_28860" data-name="Grupo 28860">
            <g id="Grupo_28859" data-name="Grupo 28859">
              <g id="Grupo_28858" data-name="Grupo 28858">
                <path id="Trazado_68672" data-name="Trazado 68672" d="M1357.74,1340.146s.673.129.9-.187a2.193,2.193,0,0,1,.781-.539c.184-.086.651-.558.761-.327s-.733.816-.885.974.826.228.995.381-.038,1.768-.7,1.642a6.119,6.119,0,0,1-1.416-.7,4.131,4.131,0,0,1-.488-.072Z" transform="translate(-1357.686 -1339.029)" fill="#eea886"/>
              </g>
            </g>
          </g>
        </g>
        <g id="Grupo_28865" data-name="Grupo 28865" transform="translate(29.649 23.585)">
          <g id="Grupo_28864" data-name="Grupo 28864">
            <g id="Grupo_28863" data-name="Grupo 28863">
              <g id="Grupo_28862" data-name="Grupo 28862">
                <path id="Trazado_68673" data-name="Trazado 68673" d="M1377.88,1352.769a15.1,15.1,0,0,1,2.119.667c.1.147.07.254-.12.214s-1.96-.446-1.96-.446,2.28,1.016,2.392,1.118c.066.06.011.271-.093.259s-2.421-.89-2.421-.89,2.127.953,2.2,1.066a.16.16,0,0,1-.2.221c-.162-.06-2.186-.832-2.186-.832a9.466,9.466,0,0,1,1.506.921c0,.079-.038.265-.42.048s-1.336-.631-1.336-.631Z" transform="translate(-1377.356 -1352.769)" fill="#eea886"/>
              </g>
            </g>
          </g>
        </g>
        <g id="Grupo_28866" data-name="Grupo 28866" transform="translate(9.26 58.46)">
          <path id="Trazado_68674" data-name="Trazado 68674" d="M1171.869,1707.11a18.187,18.187,0,0,0,1.521,2s.971.356,1.068,1.035.081,1.133-1.068,1.165-1.9-.174-2.112-.87a3.168,3.168,0,0,0-.671-1.169v1.456h-.259s-.065-1.408-.081-1.667-.186-1.254.36-1.695A1.516,1.516,0,0,1,1171.869,1707.11Z" transform="translate(-1170.23 -1707.071)" fill="#7c6db2"/>
        </g>
        <g id="Grupo_28867" data-name="Grupo 28867" transform="translate(7.816 26.854)">
          <path id="Trazado_68675" data-name="Trazado 68675" d="M1157.913,1386.555a10.158,10.158,0,0,0-1.74,3.891c-.371,2.111.219,9.2.2,10.241s-.987,3.64-.793,5.606.96,11.749.96,11.749l2.1-.416s-.122-9.974,0-10.8.365-3.833.413-4.172,3.081-9.261,3.081-10.783S1161.213,1384.072,1157.913,1386.555Z" transform="translate(-1155.557 -1385.981)" fill="#167377"/>
        </g>
        <g id="Grupo_28868" data-name="Grupo 28868" transform="translate(12.341 27.678)">
          <path id="Trazado_68676" data-name="Trazado 68676" d="M1206.233,1394.8s2.249,8.583,2.516,9.772a25.109,25.109,0,0,1,.653,2.675,17.679,17.679,0,0,1-.435,3.053l-2.856,13.658h-2.72s1.515-8.194,1.556-9.8,1.277-3.886,1.034-4.565-3.907-8.518-3.907-8.518S1199.3,1392.312,1206.233,1394.8Z" transform="translate(-1201.527 -1394.358)" fill="#167377"/>
        </g>
        <g id="Grupo_28869" data-name="Grupo 28869" transform="translate(9.658 58.499)">
          <path id="Trazado_68677" data-name="Trazado 68677" d="M1177.031,1709.465a1.55,1.55,0,0,1-1.825-.176,5.635,5.635,0,0,1-.938-1.567l1.242-.255Z" transform="translate(-1174.269 -1707.467)" fill="#eea886"/>
        </g>
        <g id="Grupo_28871" data-name="Grupo 28871" transform="translate(15.302 13.539)">
          <g id="Grupo_28870" data-name="Grupo 28870">
            <path id="Trazado_68678" data-name="Trazado 68678" d="M1232.424,1250.714a2.8,2.8,0,0,1,1.628.838,10.742,10.742,0,0,1,1.542,2.348c.183.4,2.756,4.11,2.889,4.194s1.427.516,2.283.8c1.322.445,3.972,1.408,3.972,1.408l-.526,1.666s-4.983-1.63-6.231-1.938c-1.526-.376-5.039-4.882-5.039-4.882S1230.322,1252.082,1232.424,1250.714Z" transform="translate(-1231.607 -1250.714)" fill="#7d6eb2"/>
          </g>
        </g>
        <g id="Grupo_28873" data-name="Grupo 28873" transform="translate(8.064 12.826)">
          <g id="Grupo_28872" data-name="Grupo 28872">
            <path id="Trazado_68679" data-name="Trazado 68679" d="M1164.508,1243.53a12.6,12.6,0,0,0,1.618.651,8.93,8.93,0,0,1,2.318,2.952,4.909,4.909,0,0,1-.584,3.269c-.584,1.351-.033,1.8-.3,3.152a55.639,55.639,0,0,0-.131,7.156c.05.751-7.807,1.888-9.359.521,0,0,1.05-4.555,2.293-5.855a5.1,5.1,0,0,0,.057-2.622c-.183-.467-2.252-3.953-2.252-3.953s-.152-3.536.75-4.236c.784-.609,2.921-.826,3.3-.959A6.556,6.556,0,0,1,1164.508,1243.53Z" transform="translate(-1158.071 -1243.467)" fill="url(#linear-gradient)"/>
          </g>
        </g>
        <g id="Grupo_28875" data-name="Grupo 28875" transform="translate(12.217 9.859)">
          <g id="Grupo_28874" data-name="Grupo 28874">
            <path id="Trazado_68680" data-name="Trazado 68680" d="M1203.126,1214.972s-.036.331-.078.778c-.016.177-.033.372-.049.572a13.436,13.436,0,0,0-.063,1.571s-1.248,1.251-2.667-1.459a3.723,3.723,0,0,0,.147-2.639C1199.967,1212.272,1203.126,1214.972,1203.126,1214.972Z" transform="translate(-1200.269 -1213.329)" fill="#eea886"/>
          </g>
        </g>
        <g id="Grupo_28876" data-name="Grupo 28876" transform="translate(17.975 17.046)">
          <path id="Trazado_68681" data-name="Trazado 68681" d="M1259.356,1289.553a10.2,10.2,0,0,0-.019-3.213,7.759,7.759,0,0,1-.573,2.529Z" transform="translate(-1258.764 -1286.34)" fill="#183c59"/>
        </g>
        <g id="Grupo_28877" data-name="Grupo 28877" transform="translate(11.258 12.933)">
          <path id="Trazado_68682" data-name="Trazado 68682" d="M1190.526,1244.776s.858,2.536,3.215,2.349,1.117-2.141,1.117-2.141a5.228,5.228,0,0,0-.753-.369c-.165-.032-2.606-.063-2.606-.063Z" transform="translate(-1190.526 -1244.553)" fill="#eea886"/>
        </g>
        <g id="Grupo_28878" data-name="Grupo 28878" transform="translate(15.591 13.364)">
          <path id="Trazado_68683" data-name="Trazado 68683" d="M1234.542,1248.934a23.23,23.23,0,0,1,1.234,6.9c0,3.48.1,9.15.531,10.94s1.658,7.327,1.658,7.327l.961-.5s-2.312-8.836-2.487-9.474a61.386,61.386,0,0,1,.3-7.932,16.7,16.7,0,0,0,.761-3.768,6.37,6.37,0,0,0-2.286-3.292Z" transform="translate(-1234.542 -1248.934)" fill="#7d6eb2"/>
        </g>
        <g id="Grupo_28879" data-name="Grupo 28879" transform="translate(6.515 13.049)">
          <path id="Trazado_68684" data-name="Trazado 68684" d="M1147.544,1245.736a35.505,35.505,0,0,1,1.156,5.6c.389,3.147-1.194,17.752-2.254,21.067l-4.111-.663s.885-10.323,2.086-12.2,1.583-3.541.287-7.462.568-5.863.568-5.863S1147.184,1245.777,1147.544,1245.736Z" transform="translate(-1142.335 -1245.736)" fill="#7d6eb2"/>
        </g>
        <g id="Grupo_28880" data-name="Grupo 28880" transform="translate(5.633 20.143)">
          <path id="Trazado_68685" data-name="Trazado 68685" d="M1143.907,1321.131l-4.985,8.634-5.541-3.2,4.768-8.759Z" transform="translate(-1133.381 -1317.807)" fill="#00223d"/>
        </g>
        <g id="Grupo_28881" data-name="Grupo 28881" transform="translate(6.21 20.812)">
          <path id="Trazado_68686" data-name="Trazado 68686" d="M1148.588,1327.554l-4.427,7.668-4.921-2.842,4.235-7.779Z" transform="translate(-1139.239 -1324.601)" fill="url(#linear-gradient)"/>
        </g>
        <g id="Grupo_28882" data-name="Grupo 28882" transform="translate(11.858 21.389)">
          <path id="Trazado_68687" data-name="Trazado 68687" d="M1198.684,1332.147l.311-.538-1.99-1.149-.388.493Z" transform="translate(-1196.616 -1330.46)" fill="#616161"/>
        </g>
        <g id="Grupo_28888" data-name="Grupo 28888" transform="translate(11.402 26.518)">
          <g id="Grupo_28887" data-name="Grupo 28887">
            <g id="Grupo_28886" data-name="Grupo 28886">
              <g id="Grupo_28885" data-name="Grupo 28885">
                <g id="Grupo_28884" data-name="Grupo 28884">
                  <g id="Grupo_28883" data-name="Grupo 28883">
                    <path id="Trazado_68688" data-name="Trazado 68688" d="M1194.272,1385.249a1.021,1.021,0,0,1-.326-.047s-.174-.1-.3-.165a.956.956,0,0,0-.1-.045,1.894,1.894,0,0,1-.556-.235,12.65,12.65,0,0,1-1-1.056l.369-.561.27-.574a12.734,12.734,0,0,1,1.86.225.605.605,0,0,1,.062.037,2.4,2.4,0,0,1,.347.355c.032.027.327.316.317.439a.4.4,0,0,1-.2.34.966.966,0,0,1-.207.489.6.6,0,0,1-.289.444S1194.454,1385.2,1194.272,1385.249Z" transform="translate(-1191.986 -1382.565)" fill="#eea886"/>
                  </g>
                </g>
              </g>
            </g>
          </g>
        </g>
        <g id="Grupo_28890" data-name="Grupo 28890" transform="translate(5.506 13.488)">
          <g id="Grupo_28889" data-name="Grupo 28889">
            <path id="Trazado_68689" data-name="Trazado 68689" d="M1136.891,1250.249a2.091,2.091,0,0,0-2.381,1.234,7.612,7.612,0,0,0-.979,3.194c-.109.769-.6,2.869-.654,3.086s-1.169,2.8-.656,3.706,5.755,3.583,5.722,3.783.907-2.022.907-2.022a22.416,22.416,0,0,1-2.467-1.546c-.564-.591-1.754-1.228-1.509-1.961.287-.861,1.15-3.767,1.35-4.192S1138.167,1250.792,1136.891,1250.249Z" transform="translate(-1132.087 -1250.199)" fill="#7d6eb2"/>
          </g>
        </g>
        <g id="Grupo_28895" data-name="Grupo 28895" transform="translate(11.706 4.856)">
          <g id="Grupo_28894" data-name="Grupo 28894">
            <g id="Grupo_28893" data-name="Grupo 28893">
              <g id="Grupo_28892" data-name="Grupo 28892">
                <g id="Grupo_28891" data-name="Grupo 28891">
                  <path id="Trazado_68690" data-name="Trazado 68690" d="M1198.629,1162.579s2.695.847,1.232,5.5-5.144-.539-4.758-3.372S1198.629,1162.579,1198.629,1162.579Z" transform="translate(-1195.074 -1162.5)" fill="#eea987"/>
                </g>
              </g>
            </g>
          </g>
        </g>
        <g id="Grupo_28900" data-name="Grupo 28900" transform="translate(11.493 4.482)">
          <g id="Grupo_28899" data-name="Grupo 28899">
            <g id="Grupo_28898" data-name="Grupo 28898">
              <g id="Grupo_28897" data-name="Grupo 28897">
                <g id="Grupo_28896" data-name="Grupo 28896">
                  <path id="Trazado_68691" data-name="Trazado 68691" d="M1198.19,1161.872a6.081,6.081,0,0,1-3.58,1.478,5.678,5.678,0,0,0-.927,1.406s-2-3.408.458-5.451S1199.094,1161.03,1198.19,1161.872Z" transform="translate(-1192.916 -1158.706)" fill="#0e2d3d"/>
                </g>
              </g>
            </g>
          </g>
        </g>
        <g id="Grupo_28905" data-name="Grupo 28905" transform="translate(12.28 8.288)">
          <g id="Grupo_28904" data-name="Grupo 28904">
            <g id="Grupo_28903" data-name="Grupo 28903">
              <g id="Grupo_28902" data-name="Grupo 28902">
                <g id="Grupo_28901" data-name="Grupo 28901">
                  <path id="Trazado_68692" data-name="Trazado 68692" d="M1201.837,1198.3c-.017-.338-.226-1.109-.729-.893s.031,1.784.364,1.688C1201.473,1199.1,1201.878,1199.1,1201.837,1198.3Z" transform="translate(-1200.902 -1197.372)" fill="#eea987"/>
                </g>
              </g>
            </g>
          </g>
        </g>
        <g id="Grupo_28906" data-name="Grupo 28906" transform="translate(12.963 11.012)">
          <path id="Trazado_68693" data-name="Trazado 68693" d="M1209.878,1226.309c-.016.177-.033.372-.049.572,0,0-1.19-.071-1.985-1.84C1207.9,1225.118,1208.767,1226.4,1209.878,1226.309Z" transform="translate(-1207.844 -1225.041)" fill="#a77860"/>
        </g>
      </g>
      <g id="Grupo_46379" data-name="Grupo 46379" transform="translate(72.367 0)">
        <g id="Grupo_46137" data-name="Grupo 46137" transform="translate(0 8.567)">
          <g id="Grupo_46134" data-name="Grupo 46134">
            <path id="Trazado_96135" data-name="Trazado 96135" d="M503.307,1092.886a.278.278,0,0,1-.18-.238c-.027-.363-.047-.732-.059-1.1a.269.269,0,0,1,.267-.276c.37-.008.27.361.343,1.342a.269.269,0,0,1-.255.287A.287.287,0,0,1,503.307,1092.886Z" transform="translate(-503.068 -1064.096)" fill="#00223d"/>
            <path id="Trazado_96136" data-name="Trazado 96136" d="M504.768,691.076c.068-.7.165-1.4.288-2.083a.272.272,0,0,1,.32-.216c.41.079.142.31-.057,2.359a.27.27,0,0,1-.3.24A.278.278,0,0,1,504.768,691.076Zm1.1-5.4c.211-.669.452-1.342.709-1.977a.277.277,0,0,1,.514.208c-.256.633-.489,1.282-.7,1.937a.277.277,0,0,1-.529-.168Zm2.19-5.049c.343-.607.715-1.208,1.106-1.787a.277.277,0,0,1,.462.305c-.383.567-.748,1.156-1.084,1.75A.277.277,0,0,1,508.061,680.631Zm3.231-4.1a.269.269,0,0,1-.03-.384c.463-.523.954-1.035,1.459-1.521.26-.25.649.141.39.391-.495.476-.976.978-1.43,1.49A.279.279,0,0,1,511.292,676.527Zm4-3.739a.268.268,0,0,1,.05-.38c.564-.418,1.152-.82,1.747-1.192a.275.275,0,0,1,.3.46c-.584.366-1.16.759-1.712,1.169A.281.281,0,0,1,515.29,672.788Zm4.851-2.713a.278.278,0,0,1-.153-.139.267.267,0,0,1,.128-.361c.641-.3,1.3-.571,1.962-.816a.282.282,0,0,1,.359.159.267.267,0,0,1-.156.35c-.648.24-1.295.51-1.922.8A.28.28,0,0,1,520.141,670.075Zm5.22-1.8a.279.279,0,0,1-.173-.191.267.267,0,0,1,.2-.327c.689-.161,1.394-.3,2.095-.4a.28.28,0,0,1,.319.227.268.268,0,0,1-.226.31c-.687.105-1.377.239-2.052.4A.28.28,0,0,1,525.361,668.28Zm5.318-.954a.269.269,0,0,1,.265-.279c.71-.019,1.43-.01,2.142.026a.272.272,0,1,1-.02.543c-.7-.036-1.4-.044-2.1-.026A.279.279,0,0,1,530.679,667.326Zm17.715,5.9c-1.656-1.265-2.029-1.244-1.8-1.587a.277.277,0,0,1,.382-.076c.6.387,1.188.8,1.754,1.235A.272.272,0,1,1,548.395,673.231Zm-12.164-5.543a.271.271,0,0,1,.318-.219c.7.125,1.407.278,2.1.456a.271.271,0,1,1-.132.526c-.677-.174-1.369-.324-2.056-.446A.277.277,0,0,1,536.23,667.687Zm7.467,2.657c-1.875-.906-2.239-.813-2.088-1.2a.282.282,0,0,1,.357-.151c.666.261,1.328.551,1.969.86a.271.271,0,1,1-.238.487Z" transform="translate(-504.658 -667.038)" fill="#00223d"/>
            <path id="Trazado_96137" data-name="Trazado 96137" d="M1225.641,792.806c-.635-.678-1.029-.908-.765-1.167a.28.28,0,0,1,.391,0c.685.675,1.028.944.765,1.182A.315.315,0,0,1,1225.641,792.806Z" transform="translate(-1178.555 -783.583)" fill="#00223d"/>
          </g>
          <g id="Grupo_46135" data-name="Grupo 46135" transform="translate(6.476 27.423)">
            <path id="Trazado_96138" data-name="Trazado 96138" d="M1350.841,1096.689a.277.277,0,0,1-.18-.272c.02-.357.031-.719.036-1.075a.269.269,0,0,1,.28-.264.28.28,0,0,1,.273.279c0,.363-.017.732-.036,1.1a.27.27,0,0,1-.291.253A.29.29,0,0,1,1350.841,1096.689Z" transform="translate(-1302.835 -1095.078)" fill="#00223d"/>
            <path id="Trazado_96139" data-name="Trazado 96139" d="M665.155,1188.14c-.711-.291-1.419-.615-2.1-.963a.272.272,0,0,1-.123-.366c.193-.375.35-.023,2.432.828a.274.274,0,0,1,.154.356A.282.282,0,0,1,665.155,1188.14Zm3.362.857c.1-.408.347-.1,2.548.293a.277.277,0,0,1,.228.316.271.271,0,0,1-.318.219c-.753-.133-1.513-.3-2.257-.495A.276.276,0,0,1,668.517,1189Zm-8.69-3.744c-.63-.436-1.25-.9-1.843-1.392a.269.269,0,0,1-.038-.383c.273-.323.347.053,2.194,1.332a.271.271,0,0,1,.071.379A.278.278,0,0,1,659.827,1185.253Zm14.788,4.958a.277.277,0,0,1-.181-.265.27.27,0,0,1,.284-.26c.751.03,1.511.029,2.259,0a.279.279,0,0,1,.292.26.268.268,0,0,1-.26.283c-.763.033-1.539.034-2.306,0A.282.282,0,0,1,674.615,1190.211Zm5.958-.41a.279.279,0,0,1-.176-.2.268.268,0,0,1,.218-.316c.735-.132,1.474-.3,2.2-.491a.282.282,0,0,1,.342.191.267.267,0,0,1-.189.333c-.737.2-1.491.366-2.241.5A.279.279,0,0,1,680.572,1189.8Zm5.7-1.686a.279.279,0,0,1-.157-.148.267.267,0,0,1,.141-.356c.686-.288,1.368-.608,2.027-.951a.282.282,0,0,1,.375.114.267.267,0,0,1-.11.367c-.672.351-1.368.677-2.069.971A.281.281,0,0,1,686.275,1188.115Zm5.174-2.874a.28.28,0,0,1-.127-.1.267.267,0,0,1,.059-.379c.6-.428,1.2-.888,1.761-1.366a.28.28,0,0,1,.39.031.268.268,0,0,1-.026.383c-.576.488-1.181.957-1.8,1.394A.279.279,0,0,1,691.449,1185.241Zm4.311-3.975c-.324-.281.057-.338,1.38-2.1a.277.277,0,0,1,.447.327c-.451.6-.935,1.191-1.437,1.753A.279.279,0,0,1,695.761,1181.266Zm3.448-4.758c-.379-.205-.022-.34.87-2.354a.277.277,0,0,1,.508.223c-.3.687-.642,1.369-1,2.026A.276.276,0,0,1,699.208,1176.508Zm2.265-5.407a.275.275,0,0,1-.17-.331c.2-.711.378-1.436.519-2.155a.272.272,0,0,1,.324-.211.277.277,0,0,1,.219.322c-.144.734-.322,1.474-.529,2.2a.273.273,0,0,1-.341.183Z" transform="translate(-654.441 -1163.702)" fill="#00223d"/>
            <path id="Trazado_96140" data-name="Trazado 96140" d="M604.958,1350.668c-.654-.706-.984-.99-.709-1.215s.446.129,1.115.853a.268.268,0,0,1-.016.384A.28.28,0,0,1,604.958,1350.668Z" transform="translate(-604.152 -1333.09)" fill="#00223d"/>
          </g>
          <g id="Grupo_46136" data-name="Grupo 46136" transform="translate(6.87 6.567)">
            <path id="Trazado_96141" data-name="Trazado 96141" d="M613.741,801.1l3.93-.487a17.59,17.59,0,0,0,4.262,3.636c.153,3.789-.1,4.066.3,4.2l4.529,1.509a.326.326,0,0,0,.361-.107l2.385-3.079a17.519,17.519,0,0,0,5.583-.356l2.859,2.748a.332.332,0,0,0,.374.06l4.24-2.065a.314.314,0,0,0,.175-.328l-.554-3.871a16.7,16.7,0,0,0,3.635-4.135l3.966-.015a.32.32,0,0,0,.3-.217l1.467-4.43a.321.321,0,0,0-.114-.357l-3.169-2.391a16.768,16.768,0,0,0-.447-5.495c2.631-2.761,3-2.763,2.809-3.136-2.2-4.082-2.071-4.429-2.5-4.376l-3.93.487a17.589,17.589,0,0,0-4.262-3.636c-.153-3.787.1-4.066-.3-4.2-4.526-1.422-4.634-1.733-4.89-1.4l-2.385,3.079a17.519,17.519,0,0,0-5.584.356c-2.814-2.6-2.851-2.995-3.233-2.808-4.159,2.118-4.474,1.975-4.414,2.393l.554,3.871a16.7,16.7,0,0,0-3.635,4.135c-3.785.092-4.136-.173-4.27.232-1.372,4.408-1.7,4.527-1.352,4.786l3.169,2.392a16.772,16.772,0,0,0,.447,5.495c-2.622,2.752-3,2.761-2.808,3.136C613.436,800.806,613.311,801.154,613.741,801.1Z" transform="translate(-610.306 -769.538)" fill="#8ec8c8"/>
            <path id="Trazado_96142" data-name="Trazado 96142" d="M859.9,1018.093a4.539,4.539,0,0,1,4.938-4.179,4.679,4.679,0,0,1,4.326,4.917,4.54,4.54,0,0,1-4.937,4.179h0A4.678,4.678,0,0,1,859.9,1018.093Zm4.354,4.511h0Zm.529-7.877a3.724,3.724,0,0,0-4.055,3.432,3.842,3.842,0,0,0,3.553,4.039,3.728,3.728,0,0,0,4.055-3.432A3.842,3.842,0,0,0,864.782,1014.727Z" transform="translate(-843.899 -998.244)" fill="url(#linear-gradient)"/>
            <path id="Trazado_96143" data-name="Trazado 96143" d="M755.66,924.669h0a12.268,12.268,0,0,1-1.855-.884.409.409,0,0,1-.181-.5.386.386,0,0,1,.031-.063.416.416,0,0,1,.567-.14,11.48,11.48,0,0,0,2.154.975h0a10.981,10.981,0,0,0,13.8-6.374q.078-.207.149-.42a11.106,11.106,0,0,0-21.068-7.018c-1.123,3.393-.142,5.67-.273,6.02a.418.418,0,0,1-.793-.061,11.469,11.469,0,0,1,.437-6.673c3.579-9.476,17.064-10.053,21.763-.941a11.48,11.48,0,0,1,.724,8.936q-.076.229-.161.455a11.44,11.44,0,0,1-5.748,6.271,11.975,11.975,0,0,1-9.081.576Q755.888,924.756,755.66,924.669Z" transform="translate(-739.068 -893.591)" fill="url(#linear-gradient)"/>
          </g>
        </g>
        <g id="Grupo_46141" data-name="Grupo 46141" transform="translate(46.471 0)">
          <g id="Grupo_46138" data-name="Grupo 46138">
            <path id="Trazado_96144" data-name="Trazado 96144" d="M1228.588,791.663a.168.168,0,0,1-.109-.144c-.016-.22-.028-.444-.036-.665a.163.163,0,0,1,.162-.168c.224-.005.164.219.208.814a.163.163,0,0,1-.155.174A.169.169,0,0,1,1228.588,791.663Z" transform="translate(-1228.443 -774.197)" fill="#00223d"/>
            <path id="Trazado_96145" data-name="Trazado 96145" d="M1229.474,547.9c.041-.422.1-.847.175-1.263a.164.164,0,0,1,.194-.131c.249.048.087.188-.035,1.431a.164.164,0,0,1-.183.146A.169.169,0,0,1,1229.474,547.9Zm.669-3.273c.128-.406.275-.814.43-1.2a.168.168,0,0,1,.312.126c-.155.384-.3.778-.422,1.175a.168.168,0,0,1-.321-.1Zm1.329-3.063c.208-.368.434-.733.671-1.084a.168.168,0,0,1,.281.185c-.233.344-.454.7-.657,1.062A.168.168,0,0,1,1231.472,541.565Zm1.96-2.49a.163.163,0,0,1-.018-.233c.281-.318.579-.628.885-.923.157-.151.394.086.236.237-.3.289-.592.593-.868.9A.169.169,0,0,1,1233.432,539.075Zm2.425-2.268a.162.162,0,0,1,.031-.231c.342-.254.7-.5,1.06-.723a.167.167,0,0,1,.183.279c-.354.222-.7.46-1.039.709A.171.171,0,0,1,1235.857,536.807Zm2.943-1.646a.169.169,0,0,1-.093-.084.162.162,0,0,1,.077-.219c.389-.18.789-.346,1.19-.5a.171.171,0,0,1,.217.1.162.162,0,0,1-.095.213c-.393.146-.785.309-1.166.485A.17.17,0,0,1,1238.8,535.161Zm3.167-1.089a.169.169,0,0,1-.1-.116.162.162,0,0,1,.121-.2c.418-.1.846-.18,1.271-.246a.17.17,0,0,1,.194.138.162.162,0,0,1-.137.188c-.417.064-.836.145-1.245.241A.17.17,0,0,1,1241.967,534.072Zm3.226-.579a.164.164,0,0,1,.161-.169c.431-.011.868-.006,1.3.016a.165.165,0,1,1-.013.329c-.423-.021-.851-.027-1.273-.016A.17.17,0,0,1,1245.193,533.493Zm10.747,3.582c-1.005-.767-1.231-.755-1.093-.963a.168.168,0,0,1,.232-.046c.362.235.721.487,1.064.75A.165.165,0,1,1,1255.94,537.075Zm-7.38-3.363a.165.165,0,0,1,.193-.133c.425.076.853.168,1.272.276a.164.164,0,1,1-.08.319c-.411-.106-.831-.2-1.247-.271A.168.168,0,0,1,1248.561,533.712Zm4.53,1.612c-1.137-.55-1.359-.493-1.267-.726a.171.171,0,0,1,.217-.092c.4.159.806.334,1.194.522a.165.165,0,0,1,.079.221A.167.167,0,0,1,1253.091,535.324Z" transform="translate(-1229.407 -533.318)" fill="#00223d"/>
            <path id="Trazado_96146" data-name="Trazado 96146" d="M1666.8,609.616c-.385-.411-.624-.551-.464-.708a.17.17,0,0,1,.237,0c.415.41.624.573.464.717A.192.192,0,0,1,1666.8,609.616Z" transform="translate(-1638.234 -604.021)" fill="#00223d"/>
          </g>
          <g id="Grupo_46139" data-name="Grupo 46139" transform="translate(3.929 16.636)">
            <path id="Trazado_96147" data-name="Trazado 96147" d="M1742.754,793.97a.168.168,0,0,1-.109-.165c.012-.217.019-.436.022-.652a.163.163,0,0,1,.17-.16.169.169,0,0,1,.166.169c0,.22-.01.444-.022.665a.164.164,0,0,1-.176.153A.17.17,0,0,1,1742.754,793.97Z" transform="translate(-1713.63 -792.993)" fill="#00223d"/>
            <path id="Trazado_96148" data-name="Trazado 96148" d="M1326.774,849.45c-.432-.177-.861-.373-1.276-.584a.165.165,0,0,1-.075-.222c.117-.227.212-.014,1.475.5a.166.166,0,0,1,.093.216A.171.171,0,0,1,1326.774,849.45Zm2.04.52c.063-.247.21-.058,1.545.178a.168.168,0,0,1,.138.192.165.165,0,0,1-.193.133c-.457-.081-.917-.182-1.37-.3A.167.167,0,0,1,1328.814,849.97Zm-5.272-2.271c-.382-.265-.758-.549-1.118-.844a.163.163,0,0,1-.023-.232c.166-.2.21.032,1.331.808a.164.164,0,0,1,.043.23A.169.169,0,0,1,1323.542,847.7Zm8.971,3.008a.168.168,0,0,1-.109-.161.164.164,0,0,1,.172-.158c.456.018.917.018,1.37,0a.169.169,0,0,1,.177.157.163.163,0,0,1-.157.172c-.463.02-.934.02-1.4,0A.174.174,0,0,1,1332.513,850.707Zm3.614-.249a.17.17,0,0,1-.106-.124.162.162,0,0,1,.132-.192c.446-.08.894-.18,1.332-.3a.171.171,0,0,1,.208.116.162.162,0,0,1-.115.2c-.447.12-.9.222-1.36.3A.173.173,0,0,1,1336.127,850.458Zm3.46-1.023a.171.171,0,0,1-.1-.09.162.162,0,0,1,.086-.216c.416-.174.83-.369,1.23-.577a.171.171,0,0,1,.228.069.162.162,0,0,1-.067.223c-.408.213-.83.411-1.255.589A.17.17,0,0,1,1339.587,849.436Zm3.139-1.743a.172.172,0,0,1-.077-.058.162.162,0,0,1,.036-.23c.366-.26.726-.539,1.068-.829a.17.17,0,0,1,.237.019.162.162,0,0,1-.016.232c-.349.3-.716.58-1.09.846A.17.17,0,0,1,1342.726,847.692Zm2.616-2.412c-.2-.171.035-.205.837-1.275a.168.168,0,0,1,.271.2c-.274.365-.567.723-.872,1.063A.169.169,0,0,1,1345.342,845.28Zm2.091-2.887c-.23-.124-.013-.207.528-1.428a.168.168,0,0,1,.308.135c-.185.417-.389.83-.609,1.229A.167.167,0,0,1,1347.433,842.394Zm1.374-3.28a.167.167,0,0,1-.1-.2c.123-.431.229-.871.315-1.307a.165.165,0,0,1,.2-.128.168.168,0,0,1,.133.2c-.087.445-.2.894-.321,1.334a.166.166,0,0,1-.207.111Z" transform="translate(-1320.275 -834.625)" fill="#00223d"/>
            <path id="Trazado_96149" data-name="Trazado 96149" d="M1290.255,948.049c-.4-.428-.6-.6-.43-.737s.271.078.677.517a.162.162,0,0,1-.01.233A.17.17,0,0,1,1290.255,948.049Z" transform="translate(-1289.766 -937.385)" fill="#00223d"/>
          </g>
          <g id="Grupo_46140" data-name="Grupo 46140" transform="translate(4.168 3.984)">
            <path id="Trazado_96150" data-name="Trazado 96150" d="M1295.584,614.648l2.384-.3a10.673,10.673,0,0,0,2.585,2.206c.093,2.3-.063,2.467.182,2.549l2.748.915a.2.2,0,0,0,.219-.065l1.447-1.868a10.634,10.634,0,0,0,3.387-.216l1.734,1.667a.2.2,0,0,0,.227.036l2.572-1.253a.19.19,0,0,0,.106-.2l-.336-2.348a10.136,10.136,0,0,0,2.205-2.508l2.406-.009a.194.194,0,0,0,.184-.132l.89-2.687a.194.194,0,0,0-.069-.216l-1.922-1.451a10.176,10.176,0,0,0-.271-3.333c1.6-1.675,1.82-1.677,1.7-1.9-1.333-2.476-1.257-2.687-1.518-2.655l-2.384.3a10.67,10.67,0,0,0-2.585-2.206c-.093-2.3.063-2.467-.182-2.549-2.745-.863-2.811-1.051-2.967-.851l-1.447,1.868a10.627,10.627,0,0,0-3.387.216c-1.707-1.575-1.729-1.817-1.962-1.7-2.523,1.285-2.714,1.2-2.678,1.452l.336,2.348a10.129,10.129,0,0,0-2.205,2.508c-2.3.056-2.509-.1-2.59.141-.833,2.674-1.028,2.747-.821,2.9l1.923,1.451a10.172,10.172,0,0,0,.271,3.333c-1.591,1.669-1.821,1.675-1.7,1.9C1295.4,614.47,1295.322,614.681,1295.584,614.648Z" transform="translate(-1293.499 -595.5)" fill="#7d6eb2"/>
            <path id="Trazado_96151" data-name="Trazado 96151" d="M1444.918,746.289a2.754,2.754,0,0,1,3-2.535,2.838,2.838,0,0,1,2.625,2.983,2.754,2.754,0,0,1-3,2.535h0A2.838,2.838,0,0,1,1444.918,746.289Zm2.641,2.737h0Zm.321-4.779a2.26,2.26,0,0,0-2.46,2.082,2.331,2.331,0,0,0,2.156,2.45,2.262,2.262,0,0,0,2.46-2.082A2.331,2.331,0,0,0,1447.88,744.247Z" transform="translate(-1435.211 -734.247)" fill="url(#linear-gradient)"/>
            <path id="Trazado_96152" data-name="Trazado 96152" d="M1381.68,689.613h0a7.424,7.424,0,0,1-1.125-.536.249.249,0,0,1-.11-.3.275.275,0,0,1,.019-.039.252.252,0,0,1,.344-.085,6.974,6.974,0,0,0,1.307.591h0a6.662,6.662,0,0,0,8.37-3.867q.048-.126.09-.254a6.738,6.738,0,0,0-12.781-4.258,7.479,7.479,0,0,0-.166,3.652.253.253,0,0,1-.481-.037,6.959,6.959,0,0,1,.265-4.048c2.172-5.749,10.352-6.1,13.2-.571a6.963,6.963,0,0,1,.439,5.421q-.046.139-.1.276a6.94,6.94,0,0,1-3.487,3.8,7.266,7.266,0,0,1-5.509.35C1381.866,689.68,1381.773,689.647,1381.68,689.613Z" transform="translate(-1371.615 -670.758)" fill="url(#linear-gradient)"/>
          </g>
        </g>
      </g>
    </g>
  </g>
</svg>
