<svg xmlns="http://www.w3.org/2000/svg" xmlns:xlink="http://www.w3.org/1999/xlink" width="283.015" height="395.163" viewBox="0 0 283.015 395.163">
  <defs>
    <linearGradient id="linear-gradient" x1="0.5" x2="0.5" y2="1" gradientUnits="objectBoundingBox">
      <stop offset="0" stop-color="#fff"/>
      <stop offset="1" stop-color="#d3d3d3"/>
    </linearGradient>
    <linearGradient id="linear-gradient-3" y1="0.5" x2="1" y2="0.5" gradientUnits="objectBoundingBox">
      <stop offset="0" stop-color="#ff928e"/>
      <stop offset="1" stop-color="#feb3b1"/>
    </linearGradient>
    <linearGradient id="linear-gradient-6" x1="294.087" y1="1.605" x2="296.088" y2="4.278" xlink:href="#linear-gradient-3"/>
    <linearGradient id="linear-gradient-7" x1="0.439" y1="-3.503" x2="0.505" y2="0.689" xlink:href="#linear-gradient-3"/>
    <linearGradient id="linear-gradient-8" x1="0.511" y1="0.146" x2="0.456" y2="1.705" xlink:href="#linear-gradient-3"/>
    <linearGradient id="linear-gradient-9" x1="-47.545" y1="17.427" x2="-48.867" y2="15.942" xlink:href="#linear-gradient-3"/>
    <linearGradient id="linear-gradient-10" x1="-155.484" y1="82.575" x2="-159.791" y2="75.375" xlink:href="#linear-gradient-3"/>
    <linearGradient id="linear-gradient-11" x1="1.66" y1="1.186" x2="0.085" y2="0.256" xlink:href="#linear-gradient-3"/>
    <linearGradient id="linear-gradient-12" x1="0.892" y1="0.928" x2="-0.916" y2="-1.638" xlink:href="#linear-gradient-3"/>
  </defs>
  <g id="Grupo_47027" data-name="Grupo 47027" transform="translate(-1298.469 -210.368)">
    <g id="Grupo_47019" data-name="Grupo 47019" transform="translate(1377.874 246.229)">
      <path id="Trazado_97725" data-name="Trazado 97725" d="M1960.859,551.24l-7.493,12.978h63.546l-7.493-12.978a13.053,13.053,0,0,0-11.575-6.683h-25.411A13.054,13.054,0,0,0,1960.859,551.24Z" transform="translate(-1883.335 -544.557)" fill-rule="evenodd" fill="url(#linear-gradient)"/>
      <rect id="Rectángulo_28316" data-name="Rectángulo 28316" width="202.383" height="284.502" rx="8" transform="translate(0.613 14.8)" fill="#00223d"/>
      <rect id="Rectángulo_28317" data-name="Rectángulo 28317" width="168.969" height="251.089" transform="translate(17.32 31.507)" fill="#fdfdfd"/>
      <path id="Trazado_97726" data-name="Trazado 97726" d="M1989.655,603.362V620.19A11.692,11.692,0,0,1,1978,631.847h-59.081a11.692,11.692,0,0,1-11.657-11.657V603.362a3.348,3.348,0,0,1,3.342-3.342h75.712A3.348,3.348,0,0,1,1989.655,603.362Z" transform="translate(-1846.652 -588.683)" fill-rule="evenodd" fill="url(#linear-gradient)"/>
      <path id="Trazado_97727" data-name="Trazado 97727" d="M1967.434,634.919a2.264,2.264,0,1,1,0-4.527h54.194a2.264,2.264,0,0,1,0,4.527Z" transform="translate(-1892.725 -612.846)" fill="#dbdada" fill-rule="evenodd"/>
      <path id="Trazado_97728" data-name="Trazado 97728" d="M1967.434,687.253a2.263,2.263,0,1,1,0-4.527h54.194a2.263,2.263,0,0,1,0,4.527Z" transform="translate(-1892.725 -654.483)" fill="#dbdada" fill-rule="evenodd"/>
      <g id="Grupo_47018" data-name="Grupo 47018" transform="translate(49.946 67.011)">
        <g id="Grupo_47014" data-name="Grupo 47014" transform="translate(0 156.953)">
          <path id="Trazado_97729" data-name="Trazado 97729" d="M1857.23,1640.216H1956.7a2.125,2.125,0,0,1,0,4.251H1857.23a2.125,2.125,0,0,1,0-4.251Z" transform="translate(-1855.105 -1640.216)" fill="#dbdada" fill-rule="evenodd"/>
          <path id="Trazado_97730" data-name="Trazado 97730" d="M1857.23,1689.286H1956.7a2.125,2.125,0,0,1,0,4.25H1857.23a2.125,2.125,0,0,1,0-4.25Z" transform="translate(-1855.105 -1679.256)" fill="#dbdada" fill-rule="evenodd"/>
          <path id="Trazado_97731" data-name="Trazado 97731" d="M1857.23,1738.353h59.914a2.125,2.125,0,0,1,0,4.251H1857.23a2.125,2.125,0,0,1,0-4.251Z" transform="translate(-1855.105 -1718.293)" fill="#dbdada" fill-rule="evenodd"/>
        </g>
        <g id="Grupo_47015" data-name="Grupo 47015" transform="translate(0 95.48)">
          <path id="Trazado_97732" data-name="Trazado 97732" d="M1860.672,1351.28l1.945-1.945a.648.648,0,0,1,.916,0l3.241,3.241,5.834-5.834a.647.647,0,0,1,.917,0l1.945,1.944a.649.649,0,0,1,0,.917l-8.237,8.237a.649.649,0,0,1-.917,0l-5.644-5.644a.649.649,0,0,1,0-.917Zm-2.973-11.8a2.6,2.6,0,0,0-2.593,2.593v20.743a2.6,2.6,0,0,0,2.593,2.593h20.743a2.6,2.6,0,0,0,2.593-2.593v-20.743a2.6,2.6,0,0,0-2.593-2.593Z" transform="translate(-1855.106 -1339.482)" fill="#26aab7" fill-rule="evenodd"/>
          <rect id="Rectángulo_28318" data-name="Rectángulo 28318" width="67.416" height="6.836" rx="3.418" transform="translate(36.301)" fill="#dbdada"/>
          <path id="Trazado_97733" data-name="Trazado 97733" d="M2034.819,1398.833h63.165a2.125,2.125,0,1,1,0,4.251h-63.165a2.125,2.125,0,0,1,0-4.251Z" transform="translate(-1996.393 -1386.701)" fill="#dbdada" fill-rule="evenodd"/>
          <path id="Trazado_97734" data-name="Trazado 97734" d="M2034.819,1445.535h45.926a2.125,2.125,0,0,1,0,4.25h-45.926a2.125,2.125,0,1,1,0-4.25Z" transform="translate(-1996.393 -1423.857)" fill="#dbdada" fill-rule="evenodd"/>
        </g>
        <g id="Grupo_47016" data-name="Grupo 47016" transform="translate(0 47.74)">
          <path id="Trazado_97735" data-name="Trazado 97735" d="M1860.672,1117.73l1.945-1.944a.648.648,0,0,1,.916,0l3.241,3.241,5.834-5.834a.648.648,0,0,1,.917,0l1.945,1.945a.649.649,0,0,1,0,.916l-8.237,8.237a.648.648,0,0,1-.917,0l-5.644-5.644a.648.648,0,0,1,0-.917Zm-2.973-11.8a2.6,2.6,0,0,0-2.593,2.593v20.743a2.6,2.6,0,0,0,2.593,2.593h20.743a2.6,2.6,0,0,0,2.593-2.593v-20.743a2.6,2.6,0,0,0-2.593-2.593Z" transform="translate(-1855.106 -1105.932)" fill="#26aab7" fill-rule="evenodd"/>
          <rect id="Rectángulo_28319" data-name="Rectángulo 28319" width="67.416" height="6.836" rx="3.418" transform="translate(36.301)" fill="#dbdada"/>
          <path id="Trazado_97736" data-name="Trazado 97736" d="M2034.819,1165.284h63.165a2.125,2.125,0,1,1,0,4.25h-63.165a2.125,2.125,0,1,1,0-4.25Z" transform="translate(-1996.393 -1153.152)" fill="#dbdada" fill-rule="evenodd"/>
          <path id="Trazado_97737" data-name="Trazado 97737" d="M2034.819,1211.985h45.926a2.125,2.125,0,0,1,0,4.251h-45.926a2.125,2.125,0,0,1,0-4.251Z" transform="translate(-1996.393 -1190.306)" fill="#dbdada" fill-rule="evenodd"/>
        </g>
        <g id="Grupo_47017" data-name="Grupo 47017" transform="translate(0)">
          <path id="Trazado_97738" data-name="Trazado 97738" d="M1860.672,884.181l1.945-1.945a.648.648,0,0,1,.916,0l3.241,3.241,5.834-5.834a.648.648,0,0,1,.917,0l1.945,1.945a.649.649,0,0,1,0,.917l-8.237,8.237a.648.648,0,0,1-.917,0l-5.644-5.644a.649.649,0,0,1,0-.917Zm-2.973-11.8a2.6,2.6,0,0,0-2.593,2.593v20.743a2.6,2.6,0,0,0,2.593,2.593h20.743a2.6,2.6,0,0,0,2.593-2.593V874.976a2.6,2.6,0,0,0-2.593-2.593Z" transform="translate(-1855.106 -872.383)" fill="#26aab7" fill-rule="evenodd"/>
          <rect id="Rectángulo_28320" data-name="Rectángulo 28320" width="67.416" height="6.836" rx="3.418" transform="translate(36.301)" fill="#dbdada"/>
          <path id="Trazado_97739" data-name="Trazado 97739" d="M2034.819,931.734h63.165a2.125,2.125,0,1,1,0,4.25h-63.165a2.125,2.125,0,1,1,0-4.25Z" transform="translate(-1996.393 -919.602)" fill="#dbdada" fill-rule="evenodd"/>
          <path id="Trazado_97740" data-name="Trazado 97740" d="M2034.819,978.436h45.926a2.125,2.125,0,0,1,0,4.251h-45.926a2.125,2.125,0,0,1,0-4.251Z" transform="translate(-1996.393 -956.758)" fill="#dbdada" fill-rule="evenodd"/>
        </g>
      </g>
      <path id="Trazado_97741" data-name="Trazado 97741" d="M1884.913,1925.274H1731.735a.613.613,0,1,1,0-1.226h153.177a.613.613,0,1,1,0,1.226Z" transform="translate(-1706.519 -1642.065)" fill="#8673c6"/>
      <path id="Trazado_97742" data-name="Trazado 97742" d="M1809.837,895.767a.613.613,0,0,1-.433-1.047,12.665,12.665,0,0,0,3.742-9.01V810.4a.613.613,0,0,1,1.227,0V885.71a13.88,13.88,0,0,1-4.1,9.877A.611.611,0,0,1,1809.837,895.767Zm-194.539,0a.612.612,0,0,1-.434-.18,13.883,13.883,0,0,1-4.1-9.877V810.4a.613.613,0,0,1,1.227,0V885.71a12.663,12.663,0,0,0,3.742,9.01.613.613,0,0,1-.434,1.047Zm198.461-93.3a.613.613,0,0,1-.613-.613v-7.5a.613.613,0,0,1,1.227,0v7.5A.613.613,0,0,1,1813.759,802.471Zm-202.383,0a.613.613,0,0,1-.613-.613v-7.5a.613.613,0,0,1,1.227,0v7.5A.613.613,0,0,1,1611.376,802.471Zm202.383-82.563a.613.613,0,0,1-.613-.613v-7.5a.613.613,0,0,1,1.227,0v7.5A.614.614,0,0,1,1813.759,719.908Zm-202.383,0a.613.613,0,0,1-.613-.613v-7.5a.613.613,0,0,1,1.227,0v7.5A.613.613,0,0,1,1611.376,719.908Zm202.383-16.045a.613.613,0,0,1-.613-.613V627.939a12.766,12.766,0,0,0-12.752-12.752h-31.042a.613.613,0,0,1,0-1.226h31.042a14,14,0,0,1,13.979,13.979V703.25A.613.613,0,0,1,1813.759,703.863Zm-202.383,0a.613.613,0,0,1-.613-.613V627.939a14,14,0,0,1,13.979-13.979h31.041a.613.613,0,0,1,0,1.226h-31.041a12.767,12.767,0,0,0-12.752,12.752V703.25A.613.613,0,0,1,1611.376,703.863Z" transform="translate(-1610.763 -599.773)" fill="#8673c6"/>
    </g>
    <g id="Grupo_47021" data-name="Grupo 47021" transform="translate(1335.844 253.536)">
      <g id="Grupo_47020" data-name="Grupo 47020" transform="translate(4.77 4.788)">
        <path id="Trazado_97743" data-name="Trazado 97743" d="M1402.683,214.572a36.651,36.651,0,0,1-47.87,55.263l-12.985,5.592,5.592-12.985a36.651,36.651,0,0,1,55.263-47.871Z" transform="translate(-1339.506 -203.242)" fill="#fdfdfd" fill-rule="evenodd"/>
        <path id="Trazado_97744" data-name="Trazado 97744" d="M1374.387,275.43a37.224,37.224,0,0,1-22.043-7.211l-12.66,5.453a.613.613,0,0,1-.806-.806l5.452-12.66a37.268,37.268,0,1,1,32.558,15.14Q1375.636,275.43,1374.387,275.43Zm-21.961-8.527a.614.614,0,0,1,.368.123,36.037,36.037,0,1,0-3.894-54.339,36.187,36.187,0,0,0-3.376,47.069.613.613,0,0,1,.073.611l-4.983,11.569,11.569-4.983A.611.611,0,0,1,1352.425,266.9Z" transform="translate(-1337.12 -200.923)" fill="#00223d"/>
      </g>
      <circle id="Elipse_3890" data-name="Elipse 3890" cx="31.15" cy="31.15" r="31.15" transform="translate(10.881 10.883)" fill="#00223d"/>
      <path id="Trazado_97745" data-name="Trazado 97745" d="M1355.8,261.567a41.888,41.888,0,0,1-22.823-6.741.613.613,0,0,1,.668-1.029,40.821,40.821,0,0,0,44.265.047.613.613,0,0,1,.664,1.031A42.025,42.025,0,0,1,1355.8,261.567Zm29.879-12.722a.613.613,0,0,1-.442-1.039,40.7,40.7,0,0,0,5.127-50.009.613.613,0,1,1,1.038-.654,42.227,42.227,0,0,1,6.25,26.453,41.577,41.577,0,0,1-11.531,25.06A.611.611,0,0,1,1385.678,248.845Zm-64.641-6.194a.613.613,0,0,1-.515-.279,42.072,42.072,0,0,1-6.511-27.2.613.613,0,1,1,1.22.128,40.841,40.841,0,0,0,6.321,26.4.613.613,0,0,1-.514.947Zm-4.275-36.306a.614.614,0,0,1-.578-.817,42.039,42.039,0,0,1,51.432-26.343.613.613,0,0,1-.343,1.177,40.813,40.813,0,0,0-49.932,25.574A.613.613,0,0,1,1316.763,206.345Zm68.12-15.7a.611.611,0,0,1-.43-.177,40.877,40.877,0,0,0-8.49-6.424.613.613,0,0,1,.606-1.066,42.116,42.116,0,0,1,8.745,6.617.613.613,0,0,1-.431,1.05Z" transform="translate(-1313.784 -177.498)" fill="#00223d"/>
    </g>
    <circle id="Elipse_3891" data-name="Elipse 3891" cx="7.052" cy="7.052" r="7.052" transform="translate(1419.904 232.125)" fill="#eff4ef"/>
    <path id="Trazado_97751" data-name="Trazado 97751" d="M2584.338,1001.585a1.276,1.276,0,1,0,1.744-.467A1.277,1.277,0,0,0,2584.338,1001.585Z" transform="translate(-1007.319 -661.426)" fill="#00223d" fill-rule="evenodd"/>
    <path id="Trazado_97752" data-name="Trazado 97752" d="M2563.257,1080.266a1.276,1.276,0,1,0,1.276-1.276A1.276,1.276,0,0,0,2563.257,1080.266Z" transform="translate(-990.683 -723.517)" fill="#00223d" fill-rule="evenodd"/>
    <path id="Trazado_97753" data-name="Trazado 97753" d="M2584.338,1158.947a1.276,1.276,0,1,0,.468-1.743A1.277,1.277,0,0,0,2584.338,1158.947Z" transform="translate(-1007.319 -785.607)" fill="#00223d" fill-rule="evenodd"/>
    <path id="Trazado_97762" data-name="Trazado 97762" d="M1905.115,296.5a7.731,7.731,0,1,0,7.731,7.731,7.731,7.731,0,0,0-7.731-7.731Zm-2.093-9.846h4.187a.86.86,0,0,1,.786.486l1.385,2.769a14.871,14.871,0,0,1,2.848,1.18l2.937-.979a.861.861,0,0,1,.9.212l1.48,1.48,1.48,1.48a.86.86,0,0,1,.212.9l-.979,2.937a14.806,14.806,0,0,1,1.179,2.848l2.77,1.384a.86.86,0,0,1,.486.786v4.187a.861.861,0,0,1-.486.786l-2.77,1.384a14.807,14.807,0,0,1-1.179,2.848l.979,2.937a.861.861,0,0,1-.212.9l-1.48,1.48-1.48,1.48a.862.862,0,0,1-.9.212l-2.937-.979a14.859,14.859,0,0,1-2.848,1.18l-1.385,2.769a.861.861,0,0,1-.786.486h-4.186a.861.861,0,0,1-.786-.486l-1.385-2.769a14.85,14.85,0,0,1-2.848-1.18l-2.938.979a.861.861,0,0,1-.9-.212l-1.48-1.48-1.48-1.48a.861.861,0,0,1-.212-.9l.979-2.937a14.843,14.843,0,0,1-1.18-2.848l-2.769-1.384a.86.86,0,0,1-.486-.786v-4.187a.86.86,0,0,1,.486-.786l2.769-1.385a14.842,14.842,0,0,1,1.18-2.848l-.979-2.937a.862.862,0,0,1,.212-.9l1.48-1.48,1.48-1.48a.86.86,0,0,1,.9-.212l2.938.979a14.856,14.856,0,0,1,2.848-1.18l1.385-2.769A.861.861,0,0,1,1903.021,286.651Z" transform="translate(-588.57 42.467)" fill="#eff4ef" stroke="#00223d" stroke-width="1" fill-rule="evenodd"/>
    <path id="Trazado_97777" data-name="Trazado 97777" d="M1439.533,282.747a20.505,20.505,0,1,0,19.318,13.587l-3.091,3.091a16.681,16.681,0,1,1-5.548-8.961l2.73-2.73a20.439,20.439,0,0,0-13.409-4.987Zm-10.792,18.487a2.565,2.565,0,0,1,3.627-3.627l7.165,7.164,16.141-16.142a2.565,2.565,0,0,1,3.627,3.627l-17.955,17.955a2.565,2.565,0,0,1-3.627,0Z" transform="translate(-61.658 -7.697)" fill="#fff" fill-rule="evenodd"/>
    <path id="Trazado_97778" data-name="Trazado 97778" d="M2223.842,240.863a.612.612,0,0,1-.434-.179l-2.529-2.53a.613.613,0,0,1,.866-.867l2.53,2.53a.613.613,0,0,1-.434,1.047Zm-10.118,0a.613.613,0,0,1-.434-1.047l2.53-2.53a.613.613,0,1,1,.867.867l-2.53,2.53A.61.61,0,0,1,2213.723,240.863Zm2.529-7.589a.609.609,0,0,1-.433-.18l-2.53-2.53a.613.613,0,0,1,.867-.867l2.53,2.53a.613.613,0,0,1-.434,1.047Zm5.06,0a.613.613,0,0,1-.433-1.047l2.529-2.53a.613.613,0,0,1,.867.867l-2.53,2.53A.611.611,0,0,1,2221.312,233.274Z" transform="translate(-729.308 -19.15)" fill="#eff4ef"/>
    <g id="Grupo_47028" data-name="Grupo 47028" transform="translate(1311.653 386.512)">
      <path id="Trazado_96247" data-name="Trazado 96247" d="M945.475,1485.612s-.76,4.3-1.133,8.565a2.935,2.935,0,0,0,2.808,3.18c5.674.237,17.81.7,22.165.5a.955.955,0,0,0,.841-1.309h0a2.136,2.136,0,0,0-1.094-1.152l-20.047-9.214Z" transform="translate(-897.039 -1279.336)" fill="#12263f"/>
      <path id="Trazado_96248" data-name="Trazado 96248" d="M946.042,1475.5l.611,5.148s3.512,1.635,5.91-.206l-1.454-5.737Z" transform="translate(-898.229 -1271.751)" fill="url(#linear-gradient-3)"/>
      <path id="Trazado_96249" data-name="Trazado 96249" d="M911.216,1159.647c-.264,1.344-1.416,67.09,5.611,96.553a1,1,0,0,1-.587,1.163,17.411,17.411,0,0,1-5.724,1.164,1.724,1.724,0,0,1-1.709-1.236c-2.009-6.836-11.635-41.086-12.891-73.8-1.4-36.558,0-1.244,0-1.244l.823-22.6Z" transform="translate(-862.944 -1052.688)" fill="#5b7393"/>
      <path id="Trazado_96250" data-name="Trazado 96250" d="M866.881,1492.981s-1.21,2.173-2.382,7.946a1.791,1.791,0,0,0,1.576,2.145c1.874.184,4.758.421,7.068.405a1.785,1.785,0,0,0,1.768-1.992,15.063,15.063,0,0,0-3.516-8.26Z" transform="translate(-841.506 -1284.459)" fill="#12263f"/>
      <path id="Trazado_96251" data-name="Trazado 96251" d="M868.912,1470.558l1.427,7.786s1.411,1.05,4.2.289l-.681-8.377Z" transform="translate(-844.6 -1268.659)" fill="url(#linear-gradient-3)"/>
      <path id="Trazado_96252" data-name="Trazado 96252" d="M851.208,1157.971c-5.748,34.688,1.247,85.734,3.605,95.725a1.557,1.557,0,0,0,1.258,1.183,10.456,10.456,0,0,0,4.5-.18,1.428,1.428,0,0,0,1.026-1.315c.317-8.077-.253-57.664,5.1-77.262a4.451,4.451,0,0,1,1.717-2.456l10.395-7.39.8-11.945Z" transform="translate(-830.752 -1048.994)" fill="#5b7393"/>
      <g id="Grupo_46179" data-name="Grupo 46179" transform="translate(18.31 16.573)">
        <path id="Trazado_96253" data-name="Trazado 96253" d="M887.984,944.133c-17.225-.285-36.231,4.523-36.231,4.523-5.134,29.959-.9,64.514-.9,64.514,13.335,3.5,28.378-2.138,28.378-2.138,2.217-12.522,12.557-47.763,12.557-47.763a56.742,56.742,0,0,0,21.058-6.683c-4.355-5.048-6.407-11.471-7.3-15.269A57.8,57.8,0,0,1,887.984,944.133Z" transform="translate(-849.213 -917.456)" fill="#12263f"/>
        <path id="Trazado_96254" data-name="Trazado 96254" d="M1067.423,864.311a3.3,3.3,0,0,0-3.834-1.077c-2.535,10.708-15.826,19.389-29.48,23.633.892,3.8,2.945,10.22,7.3,15.269C1064.07,889.393,1067.423,864.311,1067.423,864.311Z" transform="translate(-977.773 -863.005)" fill="url(#linear-gradient-3)"/>
      </g>
      <g id="Grupo_46180" data-name="Grupo 46180" transform="translate(104.127)">
        <path id="Trazado_96255" data-name="Trazado 96255" d="M1134.286,827.01c.177.563-1.874,1.42-3.081-.882-.042-1.1-.713-5.83-.054-6.729,3.511-4.787,10.319-10.788,10.319-10.788a1.62,1.62,0,0,1,.2,2.25l-3.3,3.441a16,16,0,0,1,1.928,3.811,4.628,4.628,0,0,1-.462,3.406c-.58,1.044-1.37,2.4-2.118,3.464A4.568,4.568,0,0,1,1134.286,827.01Z" transform="translate(-1130.864 -808.611)" fill="url(#linear-gradient-6)"/>
        <path id="Trazado_96256" data-name="Trazado 96256" d="M1141.739,834.614l-3.009,2.551-.945,2.54,2.683,2.976s.9-5.039,1.573-6.131S1142.364,834.933,1141.739,834.614Z" transform="translate(-1135.676 -826.691)" fill="url(#linear-gradient-7)"/>
      </g>
      <path id="Trazado_96257" data-name="Trazado 96257" d="M821.4,982.08,814.8,965.4s-16.089,10.932-18.735,24.792a36.6,36.6,0,0,1,13.551,3.8C812.058,988.494,821.4,982.08,821.4,982.08Z" transform="translate(-793.947 -917.629)" fill="#12263f"/>
      <path id="Trazado_96258" data-name="Trazado 96258" d="M906.617,904.663l-5.481,15.85a.571.571,0,0,0,.261.688c1.494.826,6.876,3.214,13.363-.9A2.689,2.689,0,0,0,916,918.381l1.775-13.718Z" transform="translate(-866.984 -875.397)" fill="url(#linear-gradient-8)"/>
      <g id="Grupo_46181" data-name="Grupo 46181" transform="translate(29.232 6.352)">
        <path id="Trazado_96259" data-name="Trazado 96259" d="M926.278,856.492s6.018,11.329,5.247,15.905-8.23,4.248-14.744.531L912.23,860.7Z" transform="translate(-903.951 -848.255)" fill="url(#linear-gradient-9)"/>
        <path id="Trazado_96260" data-name="Trazado 96260" d="M898.177,848.123a.467.467,0,0,0,.2-.683,12.187,12.187,0,0,1-1.674-3.555s-1.082-.692,2.754-1.611,9.556-2.343,10.758-5.608c1.172-3.183-1.908-11.188-6.822-4.81a.467.467,0,0,1-.74.005c-.806-1.048-2.923-3.224-5.864-1.905-2.752,1.235-3.061,3.251-3.023,4.267a.464.464,0,0,1-.55.475,5.384,5.384,0,0,0-6.287,2.931c-1.283,2.821-.449,4.417.31,5.2a.465.465,0,0,1-.2.773,2.8,2.8,0,0,0-1.977,3.2c.164,2.961,3.474,2.7,4.417,2.565a.468.468,0,0,1,.414.147c.808.894,4.45,4.692,8.391,5.15a.471.471,0,0,0,.494-.622l-1.706-4.958a.469.469,0,0,1,.254-.581Z" transform="translate(-885.058 -829.457)" fill="#00223d"/>
        <path id="Trazado_96261" data-name="Trazado 96261" d="M919.831,889.706s-4.285-2.94-4.6-.464,3.859,3.586,5.925,2.663Z" transform="translate(-906.027 -870.337)" fill="url(#linear-gradient-10)"/>
      </g>
      <path id="Trazado_96272" data-name="Trazado 96272" d="M791.346,1045.392s-11,25.047,15.884,28.713l3.665-3.054s-13.44-7.332-6.109-21.993C804.786,1049.058,796.845,1042.337,791.346,1045.392Z" transform="translate(-789.12 -972.693)" fill="url(#linear-gradient-11)"/>
      <path id="Trazado_96273" data-name="Trazado 96273" d="M852.224,1131.42H862s6.109,7.942,5.5,9.775-6.649.376-6.649.376l-3.126-5.263s-9.164.611-9.164-1.832S852.224,1131.42,852.224,1131.42Z" transform="translate(-830.448 -1033.063)" fill="url(#linear-gradient-12)"/>
    </g>
  </g>
</svg>
