<svg xmlns="http://www.w3.org/2000/svg" xmlns:xlink="http://www.w3.org/1999/xlink" width="286.385" height="237.695" viewBox="0 0 286.385 237.695">
  <defs>
    <linearGradient id="linear-gradient" x1="0.5" x2="0.5" y2="1" gradientUnits="objectBoundingBox">
      <stop offset="0" stop-color="#fff"/>
      <stop offset="1" stop-color="#d3d3d3"/>
    </linearGradient>
    <linearGradient id="linear-gradient-3" x1="0.5" x2="0.5" y2="1" gradientUnits="objectBoundingBox">
      <stop offset="0" stop-color="#fff"/>
      <stop offset="1" stop-color="#d2e6ee"/>
    </linearGradient>
    <clipPath id="clip-path">
      <path id="Trazado_10129" data-name="Trazado 10129" d="M1609.628,254.641q-1.351,10.528-2.708,21.056-.681,5.291-1.358,10.585-1.354,10.527-2.711,21.056a.666.666,0,0,1,.209-.146l6.674-51.885A1.19,1.19,0,0,1,1609.628,254.641Z" transform="translate(-1602.852 -254.641)" fill="none"/>
    </clipPath>
  </defs>
  <g id="Grupo_10192" data-name="Grupo 10192" transform="translate(-1384.904 -208.671)">
    <g id="Grupo_10134" data-name="Grupo 10134" transform="translate(1384.904 208.671)">
      <g id="Grupo_10130" data-name="Grupo 10130" transform="translate(0 161.88)" opacity="0.2" style="mix-blend-mode: multiply;isolation: isolate">
        <path id="Trazado_10069" data-name="Trazado 10069" d="M1468.628,367.073c19.243,11.113,19.346,29.126.228,40.238s-50.212,11.1-69.46-.005-19.335-29.12-.226-40.227S1449.39,355.968,1468.628,367.073Z" transform="translate(-1384.904 -358.745)" fill="#9cb6c1"/>
      </g>
      <path id="Trazado_10070" data-name="Trazado 10070" d="M1466.333,284.423s-6.994-.928-8.067,6.02C1458.266,290.443,1465.272,291.864,1466.333,284.423Z" transform="translate(-1379.133 -202.715)" fill="#152746"/>
      <path id="Trazado_10071" data-name="Trazado 10071" d="M1458.674,286.866s2.622,5.471,2.8,6.928,3.255,4.056,5.046,4.611,6.745,1.509,5.855-1.106-1.883-3.65-2.2-5.362a11.745,11.745,0,0,0-3.2-5.347c-1.027-.7-4.337-2.957-4.337-2.957Z" transform="translate(-1379.101 -202.774)" fill="#efb185"/>
      <g id="Grupo_10131" data-name="Grupo 10131" transform="translate(78.87 86.051)">
        <path id="Trazado_10072" data-name="Trazado 10072" d="M1470.125,304.708l15.944-8.9-12.225-7.357-15.821,9.4Z" transform="translate(-1458.022 -288.447)" fill="#e1e2e4"/>
        <path id="Trazado_10073" data-name="Trazado 10073" d="M1465.119,299.819l5.47-3.056-4.195-2.524-5.431,3.229Z" transform="translate(-1457.791 -287.991)" fill="#167377"/>
        <path id="Trazado_10074" data-name="Trazado 10074" d="M1468.714,295.329l7.31-4.26-1.974-1.252-7.306,4.4Z" transform="translate(-1457.336 -288.339)" fill="#c8cacc"/>
        <path id="Trazado_10075" data-name="Trazado 10075" d="M1471.483,297.1l7.312-4.263-1.975-1.252-7.305,4.4Z" transform="translate(-1457.118 -288.2)" fill="#c8cacc"/>
        <path id="Trazado_10076" data-name="Trazado 10076" d="M1469.264,302.745l13.257-7.734-2.2-1.166-13.025,7.785Z" transform="translate(-1457.292 -288.022)" fill="#c8cacc"/>
      </g>
      <path id="Trazado_10077" data-name="Trazado 10077" d="M1466.752,286.562s3.532,2.94,4.223,4.747,1.311,3.524.8,3.735c-1.228.516-1.958-1.178-2.452-2.4s-2.446-1.836-3.589-2.169-5.18-2.992-4.118-5.488l1.756-.986Z" transform="translate(-1378.883 -202.745)" fill="#e5a67c"/>
      <path id="Trazado_10078" data-name="Trazado 10078" d="M1442.074,234.143s5.1-.849,8.718,15.944,3.612,17.857,3.612,17.857l13.679,20.432a7.358,7.358,0,0,0-8.067,6.02s-11.35-11.784-12.626-16.034S1426.344,236.269,1442.074,234.143Z" transform="translate(-1380.883 -206.668)" fill="#12263f"/>
      <path id="Trazado_10079" data-name="Trazado 10079" d="M1459.409,291.95a7.965,7.965,0,0,1,2.162-4.068c-8.592-7.792-14.985-22.661-14.985-22.661l-2.857,3.515c1.549,3.564,2.769,6.223,3.055,7.178C1448.06,280.166,1459.409,291.95,1459.409,291.95Z" transform="translate(-1380.276 -204.222)" fill="#152746"/>
      <path id="Trazado_10080" data-name="Trazado 10080" d="M1431.764,370.632s-2.052,4.784,0,6.015,2.32,2.594,5.6,2.322,2.806.821,3.93,2.048,12.745,6.289,14.928,3.828-3.962-5.347-6.145-6.775-7.387-7.167-7.524-8.806S1431.764,370.632,1431.764,370.632Z" transform="translate(-1381.29 -196.077)" fill="#111114"/>
      <path id="Trazado_10081" data-name="Trazado 10081" d="M1431.764,376.489c2.049,1.232,2.32,2.594,5.6,2.322s2.806.821,3.93,2.048,12.745,6.289,14.928,3.828c.748-.845.522-1.731-.19-2.6-.8.146-1.927.348-3.405.605-3.415.6-7.821-3.34-9.518-4.808s-3.841-.893-6.775-1.383-2.527-4.968-2.527-4.968l-2.17-.755C1431.233,371.851,1430.019,375.443,1431.764,376.489Z" transform="translate(-1381.29 -195.919)" fill="#0a0a0a"/>
      <path id="Trazado_10082" data-name="Trazado 10082" d="M1412.5,384.894s-.868,5.651,1.3,8.713,6.95,8.356,9.014,8.119,2.39-1.177,2.39-1.177a20.482,20.482,0,0,0-.651-9.178,29.8,29.8,0,0,1-1.629-6.477Z" transform="translate(-1382.747 -194.809)" fill="#111114"/>
      <path id="Trazado_10083" data-name="Trazado 10083" d="M1413.8,393.607c1.91,2.688,5.835,7.105,8.156,7.974-3.064-3.943,1.53-3.128-1.924-5-4.745-2.574-1.713-4.727-3.833-5.329s-.567-5.833-.567-5.833l-1.142-.523H1412.5S1411.632,390.545,1413.8,393.607Z" transform="translate(-1382.747 -194.809)" fill="#0a0a0a"/>
      <path id="Trazado_10084" data-name="Trazado 10084" d="M1436.181,300.224s9.752-1.061,13.018-8.287a238.435,238.435,0,0,1-1.085,34.43c-1.974,18.49-3.6,51.007-3.6,51.007s-6.322,5.952-12.846,0c0,0-1.832-21.465,0-33.365,0,0-1.223-20.829.817-31.245S1436.181,300.224,1436.181,300.224Z" transform="translate(-1381.29 -202.121)" fill="#12263f"/>
      <path id="Trazado_10085" data-name="Trazado 10085" d="M1444.073,377.374s1.631-32.516,3.6-51.007a238.435,238.435,0,0,0,1.085-34.43c-2.39,5.294-8.264,7.278-11.236,7.961.236,7.058.9,27.858.792,34.774-.1,6.576-1.385,33.828-1.931,45.274C1440.724,380.522,1444.073,377.374,1444.073,377.374Z" transform="translate(-1380.854 -202.121)" fill="#12263f"/>
      <path id="Trazado_10086" data-name="Trazado 10086" d="M1414.835,298.587s-.942,10.81-1.144,27.613-1.425,23.13-1.836,25.708-1.834,30.7-1.017,38.9c0,0,5.3,8.2,13.658,0,0,0,1.425-28.825,2.852-35.386s9.412-38.43,12.634-49.869c1.427-5.056,1.764-6.967,1.764-6.967S1427.677,308.7,1414.835,298.587Z" transform="translate(-1382.883 -201.598)" fill="#12263f"/>
      <path id="Trazado_10087" data-name="Trazado 10087" d="M1424.049,390.953s1.425-28.825,2.852-35.386,9.412-38.43,12.634-49.869a26.811,26.811,0,0,1,4.722-8.944s-9.24,6.484-17.236,6.465c-.355,2.468-3.742,26-4.537,36.288-.782,10.2-7.764,46.083-5.895,55.084C1418.652,394.654,1421.17,393.777,1424.049,390.953Z" transform="translate(-1382.436 -201.742)" fill="#12263f"/>
      <path id="Trazado_10088" data-name="Trazado 10088" d="M1424.209,236.693s-14.379,8.66-14.672,9.832-3.959,4.214,2.5,16.921c0,0,8.408,13.708,5.7,28.188a89.434,89.434,0,0,1-3.185,12.836s7.307,9.352,25.426,1.194c3.656-1.643,9.6-7.215,11.221-11.471a97.055,97.055,0,0,1-1.282-26.4c1.319-14.374,1.332-32.908-6.908-34.786C1443.007,233.005,1440.782,230.676,1424.209,236.693Z" transform="translate(-1383.069 -206.792)" fill="#167377"/>
      <path id="Trazado_10089" data-name="Trazado 10089" d="M1450.018,297.056s-3.328-10.874-1.581-28.488c1.54-15.512.786-33.686-7.454-35.564,0,0-.952-.99-6.211-.009l-.807.6s12.121,13.235,7.018,34.121c-3.413,13.965-5.13,18.228-.079,34.6C1442.058,306.067,1448.924,299.939,1450.018,297.056Z" transform="translate(-1381.045 -206.792)" fill="#12263f"/>
      <path id="Trazado_10090" data-name="Trazado 10090" d="M1429.759,243.878l-8.936-1.486-5.263,8.689Z" transform="translate(-1382.492 -206.018)" fill="#89b7c9"/>
      <path id="Trazado_10091" data-name="Trazado 10091" d="M1409.537,246.239c-.292,1.175-3.959,4.214,2.5,16.921,0,0,7.217,13.68,4.984,28.108-.957,6.2-.795,6.608-2.753,11.944-1.164,3.178,3.959,6.764,9.609,7.908,7.1,1.436,16.168-3.562,17-7.734,3.515-17.747.052-27.673-4.762-35.848-7.333-12.434-12.859-29.789-12.859-29.789l1.517-1.54c-.189.067-.372.129-.561.2C1424.209,236.407,1409.83,245.066,1409.537,246.239Z" transform="translate(-1383.069 -206.505)" fill="#1b2f5b"/>
      <path id="Trazado_10092" data-name="Trazado 10092" d="M1409.537,246.239c-.292,1.175-3.959,4.214,2.5,16.921,0,0,7.217,13.68,4.984,28.108-.957,6.2-.795,6.608-2.753,11.944-1.164,3.178,3.959,6.764,9.609,7.908,7.1,1.436,16.168-3.562,17-7.734,3.515-17.747.052-27.673-4.762-35.848-7.333-12.434-12.859-29.789-12.859-29.789l1.517-1.54c-.189.067-.372.129-.561.2C1424.209,236.407,1409.83,245.066,1409.537,246.239Z" transform="translate(-1383.069 -206.505)" fill="#12263f"/>
      <path id="Trazado_10093" data-name="Trazado 10093" d="M1418.813,249.6a73.352,73.352,0,0,0,4.291,6.8c.591.856,3.413,1.341,3.413,1.341s-.394,2.919.207,3.754c5.617,7.794,12.786,13.915,14.334,36.472,0,0,.091-15.034-1-19.87a36.477,36.477,0,0,0-4.649-10.613c-7.333-12.434-12.859-29.79-12.859-29.79l.3-.31c-.2-.3-.3-.449-.3-.449-.726.438-1.8,1.1-3.042,1.865C1417.525,240.632,1415.8,243.986,1418.813,249.6Z" transform="translate(-1382.365 -206.448)" fill="#1d396b"/>
      <path id="Trazado_10094" data-name="Trazado 10094" d="M1419.057,239.19l-.767,3.028s9.59,17.889,17.22,28.807c6.68,9.567,5.414,28.412,5.414,28.412.517-14.518-14.9-35.619-19.011-41.274-11.624-16-2.855-18.973-2.855-18.973Z" transform="translate(-1382.467 -206.27)" fill="#152746"/>
      <path id="Trazado_10095" data-name="Trazado 10095" d="M1418.813,249.6a73.352,73.352,0,0,0,4.291,6.8c.591.856,3.413,1.341,3.413,1.341s-.394,2.919.207,3.754c5.617,7.794,12.786,13.915,14.334,36.472,0,0,.091-15.034-1-19.87a36.477,36.477,0,0,0-4.649-10.613c-7.333-12.434-12.859-29.79-12.859-29.79l.3-.31c-.2-.3-.3-.449-.3-.449-.726.438-1.8,1.1-3.042,1.865C1417.525,240.632,1415.8,243.986,1418.813,249.6Z" transform="translate(-1382.365 -206.448)" fill="url(#linear-gradient)"/>
      <path id="Trazado_10096" data-name="Trazado 10096" d="M1439.264,292.969c.438,3.065.28.462-.12-4.388A21.652,21.652,0,0,0,1439.264,292.969Z" transform="translate(-1380.642 -202.385)" fill="#1b2f5b"/>
      <path id="Trazado_10097" data-name="Trazado 10097" d="M1440.665,267.574c-1.137,4.654-2.086,8.232-2.657,11.538.448,4.865.943,5.028,1.252,8.787.565-9.13,5.2-16.729,7.3-29.964,2.706-17.068-7.065-23.517-7.065-23.517l.068,9.57A40.234,40.234,0,0,1,1440.665,267.574Z" transform="translate(-1380.727 -206.646)" fill="#152746"/>
      <path id="Trazado_10098" data-name="Trazado 10098" d="M1440.026,268.025c-1.093,4.454-2.124,8.22-2.074,10.8-.077,4.679,1.882,19.9,1.786,17.382-1-25.423,5.862-24.78,6.348-42.028.032-1.2-.066-3.242-.151-4.355-.067-.878-1.763-2.163-1.763-2.163s1.079-1.8.887-2.586c-1.958-8.108-6.451-12.123-7.708-12.447-.135.013-.286.03-.43.045l-2.956,2.616C1436.583,238.7,1444.317,250.455,1440.026,268.025Z" transform="translate(-1381.045 -206.787)" fill="url(#linear-gradient)"/>
      <path id="Trazado_10099" data-name="Trazado 10099" d="M1427.6,231.824s11.242,4.934,6.991,13.449l5.3,2.446S1443.873,233.063,1427.6,231.824Z" transform="translate(-1381.545 -206.85)" fill="url(#linear-gradient-3)"/>
      <g id="Grupo_10133" data-name="Grupo 10133" transform="translate(35.207)">
        <path id="Trazado_10100" data-name="Trazado 10100" d="M1420.772,226.942s5.051,6.609,1.766,11.534c-1.835,2.753,3.355,8.611,11.447,7.544,0,0,3.557-1.148,3.094-2.433-1.044-2.931.036-4.7,1.165-7.078S1420.772,226.942,1420.772,226.942Z" transform="translate(-1417.289 -207.234)" fill="#efb185"/>
        <path id="Trazado_10101" data-name="Trazado 10101" d="M1422.483,238.449a2.215,2.215,0,0,0-.358,1.107c2.83-3.315,8.65-3.96,8.65-3.96l-8.311-7.986c-.309-.125-.575-.233-.811-.326l-.179.777C1422.745,230.167,1424.933,234.775,1422.483,238.449Z" transform="translate(-1417.234 -207.207)" fill="#dd9569"/>
        <path id="Trazado_10102" data-name="Trazado 10102" d="M1436.262,243.093c-1.092-4.694.036-4.7,1.165-7.078.311-.654-.87-1.668-2.743-2.8a5.692,5.692,0,0,0-1.209,1.58c-2.8,5.074-2.516,8.857-1.992,10.851a8.329,8.329,0,0,0,1.686-.122C1434.128,245.311,1436.605,244.545,1436.262,243.093Z" transform="translate(-1416.474 -206.74)" fill="#f2b78f"/>
        <g id="Grupo_10132" data-name="Grupo 10132">
          <path id="Trazado_10103" data-name="Trazado 10103" d="M1419.015,224.581s2.635,9.02,9.228,12.73c5.852,3.294,12.523,5.25,13.252-1.5.577-5.367,2.22-19.049-2.657-21.43-6.278-3.059-8.789-7.213-15.593-4.145C1423.245,210.233,1415.533,214.462,1419.015,224.581Z" transform="translate(-1417.499 -208.633)" fill="#efb185"/>
          <path id="Trazado_10104" data-name="Trazado 10104" d="M1419.015,224.409a20.631,20.631,0,0,0,9.211,12.856,26.061,26.061,0,0,0,5.493,2.439c-3.094-1.949-3.443-2.6-5.91-5.091s3.277-1.867-1.076-8.379c-1.481-2.216,5.186.305,6.637.166,8.577-.826,7.589-5.7,7.611-7.792a14.09,14.09,0,0,0-.9-2.495l-.918-1.511c-.1-.136-.212-.271-.323-.395a28.735,28.735,0,0,0-3-2.868c-3.678.339-14.127,1.308-14.333,1.379-.141.045-1.767,2.616-3.274,5.058A14.175,14.175,0,0,0,1419.015,224.409Z" transform="translate(-1417.498 -208.461)" fill="#e6a376"/>
          <path id="Trazado_10105" data-name="Trazado 10105" d="M1423.465,233.225s-7.415-5.9-5.65-15.243a10.742,10.742,0,0,1,8.891-9.017c3.884-.745,10.8-.618,14.341,7.07,1.1,2.4.838,8.98-9.019,7.147-1.415-.264-4.479-2.046-5.7-.776s-1.2,3.484-.442,5.309c.662,1.6-.775,1.881-1,1.548s-2.408-4.889-4.037-2.933C1419.4,228.1,1423.272,232.919,1423.465,233.225Z" transform="translate(-1417.543 -208.671)" fill="#341c09"/>
          <path id="Trazado_10106" data-name="Trazado 10106" d="M1423.465,232.945c-.193-.305-4.069-5.129-2.609-6.894,1.63-1.956,3.82,2.6,4.037,2.933s1.66.055,1-1.548c-.76-1.825-.775-4.037.442-5.309,1.1-1.153,3.725.2,5.259.662a12.228,12.228,0,0,1-5.147-5.085c-1.783-3.475-4.05-5-6.119-5.481a11.066,11.066,0,0,0-2.51,5.479C1416.05,227.049,1423.465,232.945,1423.465,232.945Z" transform="translate(-1417.543 -208.392)" fill="#221101"/>
        </g>
      </g>
      <path id="Trazado_10107" data-name="Trazado 10107" d="M1423.448,235.476a14.166,14.166,0,0,0,11.625,9.51l-2.193,6.639S1415.7,244.487,1423.448,235.476Z" transform="translate(-1382.03 -206.562)" fill="url(#linear-gradient-3)"/>
      <path id="Trazado_10108" data-name="Trazado 10108" d="M1409.537,245.577c-.292,1.175-3.959,4.214,2.5,16.921,0,0,7.217,13.68,4.984,28.108-.957,6.2-.795,6.608-2.753,11.944-1.127,3.072,3.624,6.526,9.046,7.784,2.647-7.759,3.495-9.952,4.23-18.294,1.01-11.418-.923-20.615-10.98-31.292-8.845-9.39-5.687-13.508-6.067-16.124A3.289,3.289,0,0,0,1409.537,245.577Z" transform="translate(-1383.069 -205.843)" fill="#12263f"/>
      <path id="Trazado_10109" data-name="Trazado 10109" d="M1419.323,289.65s6.248.3,7.874,1.48a7.957,7.957,0,0,1,2.593,5.783,3.681,3.681,0,0,1-2.343,3.152s-1.732.684-4.223-2.432c-.947-1.184-4-1.876-5.841-1.856a2.387,2.387,0,0,1-2.465-2.593C1414.87,291.986,1419.323,289.65,1419.323,289.65Z" transform="translate(-1382.543 -202.301)" fill="#efb185"/>
      <path id="Trazado_10110" data-name="Trazado 10110" d="M1423.118,297.3c2.491,3.116,4.223,2.432,4.223,2.432a3.558,3.558,0,0,0,.439-.2c-.436-1.6-2.389-3.454-3.982-4.395a12.369,12.369,0,0,0-4.745-1.226l-2.779,1.359a2.631,2.631,0,0,0,1,.176C1419.12,295.422,1422.171,296.113,1423.118,297.3Z" transform="translate(-1382.436 -201.966)" fill="#e6a376"/>
      <path id="Trazado_10111" data-name="Trazado 10111" d="M1413.664,243.391c2.823-1.339,7.244,7.074,3.808,13.849-4.284,8.45-12.912,21.515-12.912,21.515s12.9,8.826,17.776,12.678c3.029,2.391-.079,8.29-3.115,8.69-3.686.481-28.772-13.633-27.928-19.674C1392.258,273.532,1403.487,248.223,1413.664,243.391Z" transform="translate(-1384.403 -205.951)" fill="#12263f"/>
      <path id="Trazado_10112" data-name="Trazado 10112" d="M1391.293,280.447c-.844,6.041,24.242,20.155,27.928,19.674a4.6,4.6,0,0,0,2.761-1.822c-11.025-4.649-25.119-12.027-26.218-18.561-2.018-12.012,12.437-30.641,18.294-36.465a1.47,1.47,0,0,0-.395.116C1403.487,248.221,1392.258,273.531,1391.293,280.447Z" transform="translate(-1384.403 -205.949)" fill="#152746"/>
    </g>
    <g id="Grupo_10191" data-name="Grupo 10191" transform="translate(1462.247 237.207)">
      <g id="Grupo_10135" data-name="Grupo 10135" transform="translate(124.153 104.641)" opacity="0.2" style="mix-blend-mode: multiply;isolation: isolate">
        <path id="Trazado_10113" data-name="Trazado 10113" d="M1644.064,339.332c16.635,9.6,16.716,25.176.192,34.778-16.509,9.6-43.389,9.595-60.023-.007s-16.714-25.167-.192-34.765S1627.444,329.736,1644.064,339.332Z" transform="translate(-1571.706 -332.136)" fill="#9cb6c1"/>
      </g>
      <path id="Trazado_10114" data-name="Trazado 10114" d="M1605.245,257.3s5.17.635,4.961,6.5-5.631,31.195-11.849,36.225-6.093-6.946-6.093-6.946S1596.086,256.012,1605.245,257.3Z" transform="translate(-1445.935 -233.385)" fill="#1d2833"/>
      <g id="Grupo_10137" data-name="Grupo 10137" transform="translate(125.854 67.547)">
        <path id="Trazado_10115" data-name="Trazado 10115" d="M1599.731,304.927c-.032-.268-.062-.527-.108-.779-.009-.037-.016-.074-.027-.109a6.46,6.46,0,0,0-.169-.7c-.009-.035-.021-.064-.032-.1-.059-.191-.13-.37-.2-.543-.02-.054-.045-.109-.068-.161-.067-.15-.147-.291-.224-.427-.03-.054-.057-.115-.092-.168s-.053-.071-.078-.108a4.363,4.363,0,0,0-.456-.572c-.051-.054-.1-.1-.157-.153a3.282,3.282,0,0,0-.624-.485l2.053,1.2a3.276,3.276,0,0,1,.629.481c.048.05.1.1.15.153a4.1,4.1,0,0,1,.464.578c.016.026.037.043.055.07a.265.265,0,0,1,.016.031c.036.055.064.117.093.172a3.383,3.383,0,0,1,.183.337.672.672,0,0,1,.043.091c.018.051.048.106.067.163.036.074.066.15.1.23.037.106.071.217.11.329.006.024.018.044.025.067a.264.264,0,0,0,.018.058c.037.137.073.279.108.426.018.079.035.165.05.248a.282.282,0,0,0,.018.074c0,.031.014.065.016.1.025.138.046.277.063.423.011.1.024.2.033.3,0,.016,0,.029,0,.045s0,.046.005.068c.011.138.02.277.023.42s.009.282.009.424v.024l.1,34.629-2.054-1.192-.094-34.629c0-.323-.018-.629-.045-.922C1599.737,304.98,1599.733,304.951,1599.731,304.927Z" transform="translate(-1571.378 -297.521)" fill="#8fb6d7"/>
        <path id="Trazado_10116" data-name="Trazado 10116" d="M1573.287,322.066c0-.172.014-.349.021-.523a.911.911,0,0,0,.01-.129.2.2,0,0,1,.009-.052c.01-.113.016-.228.026-.343.019-.176.038-.351.062-.527.009-.074.018-.147.029-.219a.507.507,0,0,0,.016-.115c.01-.066.018-.133.029-.2.03-.181.057-.362.094-.545.021-.112.046-.224.069-.34.006-.03.014-.058.021-.091a.764.764,0,0,1,.018-.118c.043-.187.086-.367.133-.55.039-.16.084-.317.123-.472a.168.168,0,0,1,.006-.024c.008-.018.008-.037.016-.057.049-.182.1-.365.157-.544s.11-.354.167-.531c0-.014.011-.025.014-.037a.151.151,0,0,0,.006-.02c.055-.151.107-.3.162-.456s.121-.329.183-.494c.021-.056.045-.112.07-.167a.331.331,0,0,1,.03-.074c.027-.08.062-.155.091-.233.067-.157.135-.313.2-.468.053-.126.114-.256.174-.383a.105.105,0,0,0,.013-.038l.028-.046c.076-.169.153-.337.239-.5s.174-.347.265-.52a.046.046,0,0,0,.014-.027.373.373,0,0,0,.029-.051c.133-.244.265-.489.409-.727.027-.051.064-.1.09-.149.135-.219.271-.43.406-.643.07-.112.139-.23.214-.342.028-.036.053-.072.078-.11.061-.091.126-.177.19-.266.087-.124.171-.254.259-.374s.184-.238.273-.356a1.049,1.049,0,0,0,.067-.088.109.109,0,0,1,.021-.025c.107-.136.217-.27.329-.406s.208-.25.315-.368c.016-.019.032-.04.046-.054s.036-.04.054-.06c.073-.083.147-.163.218-.241.109-.116.214-.231.326-.341.057-.059.117-.116.176-.171a.743.743,0,0,1,.078-.078c.028-.029.057-.061.083-.092.115-.1.236-.211.349-.315s.232-.206.348-.3v-.006a.179.179,0,0,0,.025-.021c.1-.087.217-.177.321-.262s.227-.172.337-.257c.047-.032.095-.065.139-.1.029-.021.056-.038.084-.061s.078-.054.119-.079c.108-.076.215-.146.318-.218l.331-.2a.82.82,0,0,1,.074-.042l13.18-7.613c.08-.046.163-.091.245-.133.1-.059.208-.113.313-.164.078-.041.155-.079.242-.114a.1.1,0,0,0,.035-.019l.039-.016c.1-.045.2-.087.311-.129a3.257,3.257,0,0,1,.308-.116c.035-.013.069-.023.1-.035l.057-.022c.053-.015.106-.033.157-.047.106-.033.213-.064.318-.091.078-.018.157-.033.237-.051l.057-.012a.126.126,0,0,1,.043-.006c.108-.025.226-.044.338-.06s.215-.024.329-.033a.064.064,0,0,0,.023,0h.01c.135-.008.262-.012.384-.01.086,0,.171,0,.254.01.033,0,.061,0,.093,0a.444.444,0,0,0,.067,0,4.652,4.652,0,0,1,.493.071.386.386,0,0,1,.042.015c.084.015.173.046.257.068a2.826,2.826,0,0,1,.3.082c.016,0,.037.017.057.025a4.34,4.34,0,0,1,.675.313c.684.4,1.373.795,2.05,1.191a3.972,3.972,0,0,0-.67-.31,3.7,3.7,0,0,0-.381-.115c-.073-.022-.149-.045-.229-.061a4.254,4.254,0,0,0-.612-.088.509.509,0,0,0-.083,0,5.308,5.308,0,0,0-.655,0c-.007,0-.01,0-.014,0a5.649,5.649,0,0,0-.722.1c-.014,0-.03.009-.044.011a6.345,6.345,0,0,0-.712.19l-.064.022c-.254.086-.511.186-.766.3l-.018.01a8.967,8.967,0,0,0-.814.419l-13.176,7.609c-.286.163-.568.347-.847.544-.026.017-.052.037-.081.055-.274.2-.539.4-.806.625l-.012.008c-.266.229-.53.471-.79.722-.026.027-.053.054-.078.078-.243.242-.482.491-.715.752-.018.019-.037.04-.051.057q-.371.422-.726.872c-.014.016-.023.03-.034.044-.19.246-.374.5-.558.762-.061.085-.127.174-.187.265-.094.141-.184.285-.276.426-.149.228-.294.461-.435.694-.157.268-.315.539-.467.818-.014.027-.032.058-.049.088-.188.353-.368.716-.541,1.085-.007.013-.014.032-.023.047-.157.342-.306.691-.446,1.041-.02.045-.039.093-.059.138-.144.356-.274.714-.395,1.074-.005.015-.01.029-.014.044q-.193.563-.345,1.132c-.014.04-.018.072-.033.109-.092.357-.183.716-.259,1.079-.006.035-.014.072-.021.11-.072.351-.137.705-.189,1.053-.005.05-.012.09-.019.137-.045.35-.089.695-.109,1.043-.006.038-.01.077-.014.118-.027.375-.037.745-.037,1.116l.094,34.63-2.046-1.193-.1-34.629C1573.283,322.394,1573.283,322.232,1573.287,322.066Z" transform="translate(-1573.283 -297.747)" fill="#8fb6d7"/>
        <g id="Grupo_10136" data-name="Grupo 10136" transform="translate(2.051 1.191)">
          <path id="Trazado_10117" data-name="Trazado 10117" d="M1583.8,307.528c-4.769,2.752-8.631,9.988-8.613,16.134l.094,34.63,2.067-1.19-.1-34.633c-.016-4.831,2.933-10.478,6.555-12.571l13.18-7.61c3.624-2.094,6.59.139,6.6,4.974l.1,34.629,2.064-1.189-.1-34.63c-.014-6.151-3.909-8.907-8.674-6.154Z" transform="translate(-1575.184 -298.852)" fill="#558299"/>
        </g>
      </g>
      <g id="Grupo_10142" data-name="Grupo 10142" transform="translate(157.475 18.484)">
        <g id="Grupo_10140" data-name="Grupo 10140" transform="translate(0.275 2.566)" style="isolation: isolate">
          <g id="Grupo_10139" data-name="Grupo 10139" clip-path="url(#clip-path)">
            <g id="Grupo_10138" data-name="Grupo 10138" style="isolation: isolate">
              <path id="Trazado_10118" data-name="Trazado 10118" d="M1603.046,307.143l6.674-51.885,0,0-6.674,51.887Z" transform="translate(-1602.837 -254.593)" fill="#123468"/>
              <path id="Trazado_10119" data-name="Trazado 10119" d="M1603.047,307.151l6.674-51.887c-.018-.038-.03-.073-.045-.111l-6.69,52.037a.582.582,0,0,1,.062-.039Z" transform="translate(-1602.842 -254.601)" fill="#113365"/>
              <path id="Trazado_10120" data-name="Trazado 10120" d="M1602.987,307.195l6.69-52.037a.218.218,0,0,1-.016-.069l-6.706,52.123.032-.017Z" transform="translate(-1602.844 -254.606)" fill="#113163"/>
              <path id="Trazado_10121" data-name="Trazado 10121" d="M1602.957,307.217l6.706-52.123c-.007-.02-.018-.043-.025-.063l-6.708,52.206a.216.216,0,0,1,.027-.021Z" transform="translate(-1602.846 -254.61)" fill="#103060"/>
              <path id="Trazado_10122" data-name="Trazado 10122" d="M1602.932,307.242l6.708-52.206-.012-.061-6.717,52.28.021-.012Z" transform="translate(-1602.847 -254.615)" fill="#102f5e"/>
              <path id="Trazado_10123" data-name="Trazado 10123" d="M1602.912,307.258l6.717-52.28c0-.02,0-.04,0-.059l-6.733,52.353.021-.014Z" transform="translate(-1602.849 -254.619)" fill="#0f2e5b"/>
              <path id="Trazado_10124" data-name="Trazado 10124" d="M1602.893,307.276l6.733-52.353a.354.354,0,0,1-.005-.06l-6.744,52.425.016-.012Z" transform="translate(-1602.85 -254.624)" fill="#0f2c58"/>
              <path id="Trazado_10125" data-name="Trazado 10125" d="M1602.878,307.293l6.744-52.425c0-.024-.006-.043-.006-.065l-6.747,52.5.01-.009Z" transform="translate(-1602.851 -254.628)" fill="#0f2b56"/>
              <path id="Trazado_10126" data-name="Trazado 10126" d="M1602.869,307.306l6.747-52.5a.362.362,0,0,1,0-.067l-6.758,52.577.006-.012Z" transform="translate(-1602.851 -254.633)" fill="#0e2a53"/>
              <path id="Trazado_10127" data-name="Trazado 10127" d="M1602.863,307.324l6.758-52.577a.43.43,0,0,1,.008-.082l-6.772,52.67a.013.013,0,0,1,.007-.011Z" transform="translate(-1602.852 -254.639)" fill="#0e2851"/>
              <path id="Trazado_10128" data-name="Trazado 10128" d="M1602.856,307.337l6.772-52.67v-.026l-.337,2.613-.336,2.621-.335,2.63-.345,2.631-.335,2.633-.338,2.642-.682,5.287-.338,2.646-.343,2.647-.677,5.292-.339,2.644-.342,2.643-.343,2.641-.338,2.635-.334,2.63-.342,2.628-.335,2.622-.338,2.614Z" transform="translate(-1602.852 -254.641)" fill="#0d274e"/>
            </g>
          </g>
        </g>
        <g id="Grupo_10141" data-name="Grupo 10141" transform="translate(0 2.22)">
          <path id="Trazado_10130" data-name="Trazado 10130" d="M1609.755,254.32c-2.187,17-4.971,34.765-7.158,51.77,11.25,6.494,23.7,13.523,34.955,20.016,2.185-17,4.486-34.883,6.674-51.885C1632.975,267.725,1621,260.816,1609.755,254.32Z" transform="translate(-1602.597 -254.32)" fill="#13376d"/>
        </g>
        <path id="Trazado_10131" data-name="Trazado 10131" d="M1609.127,253.923v-.012c0-.02,0-.043.008-.064a.275.275,0,0,1,0-.059.236.236,0,0,1,.009-.054.209.209,0,0,1,.016-.056.445.445,0,0,0,.014-.061.34.34,0,0,1,.021-.067c.009-.024.016-.047.027-.071s.026-.053.037-.081l0-.014h0a.4.4,0,0,0,.039-.068c.021-.031.037-.061.059-.091a.673.673,0,0,1,.063-.087l0-.006a1.006,1.006,0,0,1,.074-.087c.026-.03.057-.06.083-.09a.394.394,0,0,1,.039-.032c.009-.009.013-.018.023-.024a.166.166,0,0,0,.035-.032,1.128,1.128,0,0,1,.112-.082c.025-.021.059-.041.089-.061a.122.122,0,0,0,.021-.013l.01,0a1.015,1.015,0,0,1,.127-.069,1.087,1.087,0,0,1,.135-.063l.023-.01.391-.156a1.036,1.036,0,0,1,.121-.044,1.555,1.555,0,0,1,.153-.043,1.175,1.175,0,0,1,.149-.03h.009c.047-.01.094-.014.14-.019s.1-.005.15-.005a1.192,1.192,0,0,1,.124,0h.025c.047,0,.1.01.147.017l.146.026.08.024.025.006.039.012a1.258,1.258,0,0,1,.161.059.888.888,0,0,1,.153.079l1.749,1.006,1.752,1.013,1.711.987q2.6,1.5,5.2,3l.133.077.251.146q2.409,1.388,4.819,2.781l.234.136.181.1q3.2,1.845,6.383,3.688l.509.293,1.517.873q2.76,1.594,5.523,3.189l.013.006,1.752,1.016.56.322q1.474.846,2.94,1.7a.169.169,0,0,0-.073.01h-.017a8.7,8.7,0,0,0-.844.3l-.392.156c-.3.119-.628.257-.942.4l-.072.032c-.016.009-.032.014-.046.022-.426.187-.828.375-1.119.526l-.01,0-.017.011a1.625,1.625,0,0,0-.188.1l-34.471-19.9a.064.064,0,0,1-.013-.024.092.092,0,0,1-.01-.027.078.078,0,0,1-.012-.024.122.122,0,0,1-.011-.025.132.132,0,0,0-.01-.026.12.12,0,0,0-.009-.026l0-.027c0-.009-.007-.017-.007-.023a.111.111,0,0,0-.011-.028.129.129,0,0,1-.006-.028.059.059,0,0,1,0-.025.072.072,0,0,1-.009-.027.154.154,0,0,0,0-.029.308.308,0,0,1,0-.044.194.194,0,0,1-.005-.043c0-.038,0-.077,0-.115Z" transform="translate(-1602.083 -252.262)" fill="#102f5e"/>
        <path id="Trazado_10132" data-name="Trazado 10132" d="M1641.677,272.884a.53.53,0,0,1,.084-.046c.028-.016.062-.031.1-.05a.315.315,0,0,1,.069-.032.181.181,0,0,1,.062-.033c.016-.011.039-.02.061-.033l.063-.027.011-.009a.586.586,0,0,0,.066-.035.5.5,0,0,0,.088-.042l.1-.044c.041-.021.08-.036.119-.058s.1-.044.149-.066a.281.281,0,0,1,.043-.018c.045-.024.092-.043.146-.068h0l0,0c.206-.088.41-.183.624-.27a.032.032,0,0,1,.014-.008.051.051,0,0,0,.021-.011c.2-.083.394-.163.578-.238l.392-.156c.605-.242.943-.35.938-.3-.2,1.569-.47,3.663-.671,5.234l-.678,5.261-.676,5.274q-.951,7.386-1.9,14.772l-.135,1.1-.345,2.642-.071.605q-.809,6.281-1.617,12.563l0,.014-.005.054q-.335,2.592-.667,5.176a1.628,1.628,0,0,1-1.064,1.253l-.388.161a1.942,1.942,0,0,1-.551.122c-.013,0-.018.012-.039.012a.1.1,0,0,1-.031,0,1.3,1.3,0,0,1-.251-.005.334.334,0,0,1-.073,0l-.018,0-.084-.011a.96.96,0,0,1-.139-.027h0c-.026-.006-.046-.015-.069-.02s-.037-.008-.052-.015a.258.258,0,0,0-.046-.013,1.421,1.421,0,0,1-.133-.056.462.462,0,0,1-.064-.036.041.041,0,0,1-.029-.01l-.01-.005a.557.557,0,0,1-.086-.051.489.489,0,0,1-.078-.054.325.325,0,0,1-.055-.043l-.007-.005a.736.736,0,0,1-.059-.05l-.052-.053a.387.387,0,0,1-.051-.052c-.012-.013-.021-.028-.035-.042a.028.028,0,0,1-.015-.014l-.01-.014c-.023-.036-.053-.068-.073-.108a1.355,1.355,0,0,1-.062-.121Z" transform="translate(-1600.048 -250.763)" fill="#0b2244"/>
      </g>
      <g id="Grupo_10144" data-name="Grupo 10144" transform="translate(119.532 69.5)">
        <path id="Trazado_10133" data-name="Trazado 10133" d="M1600.872,339.982v-.463l37.6-21.91c.086,0,.237.549.328.567.01,0-.757.08-.742.083l.012,0,.032.008c.025.011.05.017.078.027s.045.017.068.028l.069.033a.158.158,0,0,1,.033.016h0a.251.251,0,0,0,.039.022,9.4,9.4,0,0,1,.151.1c.018.014.041.036.064.053l.012,0,.01.012c.029.028.064.058.093.088s.069.076.1.118l.011.015.018.026c.028.039.059.074.086.116s.04.071.058.1a.776.776,0,0,0,.05.093c0,.013.014.026.021.045a.559.559,0,0,1,.041.1,1.864,1.864,0,0,1,.08.223c0,.024.016.037.021.056a.524.524,0,0,0,.007.056,2.423,2.423,0,0,1,.078.58v.492c0,.8,1.482.662.952.968-.683.4-3.217,1.61-3.9,2l-1.667.97-1.864,1.079-1.878,1.081-.941.543c-.969.56-1.934,1.119-2.9,1.676l-1.8,1.033-1.885,1.093-1.884,1.084-1.884,1.094-1.889,1.087-1.882,1.086-1.889,1.093-1.881,1.085-1.731,1c-.092.055-.18.107-.276.156l-1.752,1.017-1.87,1.082-1.867,1.074-1.865,1.075-1.852,1.071s-.01-.467-.012-1.261l0-.493v-2.384Z" transform="translate(-1564.791 -298.138)" fill="#0b2244"/>
        <g id="Grupo_10143" data-name="Grupo 10143" transform="translate(1.526)">
          <path id="Trazado_10134" data-name="Trazado 10134" d="M1568.837,320.855c11.268,6.545,23.295,13.533,34.555,20.084,12.04-6.956,25.2-14.751,37.237-21.7-11.262-6.546-23.641-13.138-34.907-19.683Z" transform="translate(-1568.837 -299.558)" fill="#133870"/>
        </g>
        <path id="Trazado_10135" data-name="Trazado 10135" d="M1567.429,321.091c0-.055.009-.116.018-.173,0-.009,0-.024,0-.037a.087.087,0,0,0,.009-.036c0-.028.006-.061.012-.092.013-.049.025-.1.037-.154a.428.428,0,0,1,.033-.085.182.182,0,0,0,.005-.032.133.133,0,0,1,.011-.024.6.6,0,0,1,.053-.137c.018-.04.031-.08.051-.12.009-.012.013-.023.021-.032l0-.01a.689.689,0,0,1,.039-.072.67.67,0,0,1,.062-.1c.016-.031.039-.059.057-.088.011-.006.016-.018.025-.027h0c.012-.016.023-.031.032-.042s.041-.047.059-.07a.262.262,0,0,0,.05-.054.588.588,0,0,0,.055-.047.31.31,0,0,1,.044-.04.25.25,0,0,1,.05-.037c.016-.017.034-.027.046-.041l.056-.035a.679.679,0,0,1,.078-.045l.064-.037c.032-.013.063-.029.094-.043a.2.2,0,0,0,.047-.014.119.119,0,0,0,.041-.018.249.249,0,0,0,.037-.008l.035-.007a.2.2,0,0,1,.036-.011.1.1,0,0,1,.035-.006.126.126,0,0,1,.03-.006.136.136,0,0,1,.031,0,.124.124,0,0,0,.037,0,.122.122,0,0,0,.028,0h.031a.114.114,0,0,1,.03,0h.035l34.555,20.084h0v2.847l0,.493c0,.141,0,.265,0,.389v.4c0,.043.006.082.006.122v.27a.332.332,0,0,0,0,.082l-1.747-1.012-1.13-.656q-2.906-1.692-5.809-3.376l-.072-.042L1593,337.875l-1.764-1.024-1.049-.612q-1.052-.607-2.113-1.229l-.38-.219-.153-.09q-2.577-1.5-5.156-3l-3.532-2.054q-3.517-2.047-7.032-4.087l-3.492-2.024a1.58,1.58,0,0,1-.349-.293h-.005a.108.108,0,0,1-.016-.027.593.593,0,0,1-.1-.123.927.927,0,0,1-.1-.147.825.825,0,0,1-.057-.109.21.21,0,0,1-.02-.028c0-.008,0-.012-.011-.016-.026-.054-.044-.106-.069-.158s-.041-.112-.061-.169a1.125,1.125,0,0,1-.028-.129.2.2,0,0,1-.013-.032V322.3c-.018-.06-.026-.118-.039-.177s-.014-.12-.018-.184a1.392,1.392,0,0,1-.008-.179v-.012l0-.491C1567.422,321.2,1567.426,321.152,1567.429,321.091Z" transform="translate(-1567.422 -298.005)" fill="#102f5e"/>
      </g>
      <path id="Trazado_10136" data-name="Trazado 10136" d="M1568.748,320.859l56.53,7.325,15.357-8.942-34.906-19.684Z" transform="translate(-1447.785 -230.058)" fill="#0b2244"/>
      <path id="Trazado_10137" data-name="Trazado 10137" d="M1609.7,254.273l32.229,37.561-3.988,30.97-34.906-19.684Z" transform="translate(-1445.088 -233.62)" fill="#102f5e"/>
      <g id="Grupo_10145" data-name="Grupo 10145" transform="translate(106.489 72.061)">
        <path id="Trazado_10138" data-name="Trazado 10138" d="M1581.827,364.077s1.316,4.627-1.938,5.79a28.394,28.394,0,0,0-7.179,3.546c-1.251.983-15.245,6.933-16.967,4.117s2.449-6,3.5-6.979,10.6-9.226,10.6-9.226Z" transform="translate(-1555.33 -297.26)" fill="#111114"/>
        <path id="Trazado_10139" data-name="Trazado 10139" d="M1592.313,371.542s1.317,4.629-1.942,5.795a28.427,28.427,0,0,0-7.174,3.537c-1.256.99-15.245,6.933-16.968,4.125s2.451-6,3.5-6.982,10.6-9.223,10.6-9.223Z" transform="translate(-1554.505 -296.672)" fill="#111114"/>
        <path id="Trazado_10140" data-name="Trazado 10140" d="M1604.24,301.932s-34.313,21.573-35.3,27.059-.781,37.8-.781,37.8,8.791,3.788,13.031,1.424l3.556-30.452s26.991-19.922,28.181-20.663S1604.24,301.932,1604.24,301.932Z" transform="translate(-1554.322 -301.932)" fill="#131c24"/>
        <path id="Trazado_10141" data-name="Trazado 10141" d="M1612.546,316.441c-1.19.741-28.181,20.663-28.181,20.663l-3.556,30.452c-2.048,1.14-5.156.841-7.819.237,1.215-9.243,3.933-29.6,4.912-34.764,1.277-6.735,28.964-22.673,28.964-22.673l5.639,5.281C1612.657,316.063,1612.687,316.352,1612.546,316.441Z" transform="translate(-1553.941 -301.269)" fill="#0e1419"/>
        <path id="Trazado_10142" data-name="Trazado 10142" d="M1603.46,302.694s3.965,11.777,6.026,14.345c0,0-27.421,14.517-28.827,21.528s-3.115,37.041-3.115,37.041a17.154,17.154,0,0,0,14.393,1.069s3.066-23.059,3.381-32.344c0,0,41.469-10.976,38.4-33.677C1633.72,310.657,1617.849,316.968,1603.46,302.694Z" transform="translate(-1553.583 -301.872)" fill="#1d2833"/>
        <path id="Trazado_10143" data-name="Trazado 10143" d="M1594.562,343.669c-.315,9.285-3.381,32.344-3.381,32.344a18.781,18.781,0,0,1-4.047.943c.234-3.609.525-8.346.891-14.58,1.371-23.258,4.952-22.815,4.952-22.815,26.313-11.874,31.627-23.218,31.627-23.218l8.45-5.2C1634.587,333.057,1594.562,343.669,1594.562,343.669Z" transform="translate(-1552.828 -301.207)" fill="#131c24"/>
      </g>
      <path id="Trazado_10144" data-name="Trazado 10144" d="M1619.593,259.353s13.091,6.672,13.415,7.68,3.723,3.434-1.13,14.932c0,0-6.5,12.492-3.236,24.973a78.821,78.821,0,0,0,3.579,11.014s-5.809,8.621-22.135,2.613c-3.3-1.21-8.836-5.707-10.511-9.321a84.979,84.979,0,0,0-.511-23.143c-2.046-12.469-3.2-28.656,3.881-30.808C1602.944,257.294,1604.743,255.121,1619.593,259.353Z" transform="translate(-1445.523 -233.426)" fill="#26aab7"/>
      <path id="Trazado_10145" data-name="Trazado 10145" d="M1597.38,312.575s3.9-8.484,1.279-23.759c-2.3-13.452-2.766-29.371,4.313-31.523,0,0,.771-.923,5.421-.392l.742.476s-9.843,10.813-5.742,29.185c2.405,10.766,3.914,18.291,3.252,31.526C1606.47,321.522,1598.516,315.028,1597.38,312.575Z" transform="translate(-1445.552 -233.426)" fill="#1c2933"/>
      <path id="Trazado_10147" data-name="Trazado 10147" d="M1632.137,266.852c.329,1.007,3.723,3.434-1.13,14.932,0,0-5.458,12.394-2.615,24.858,1.22,5.352,1.112,5.72,3.146,10.262,1.216,2.7-3.042,6.152-7.9,7.5-6.107,1.687-10.8,0-11.78-3.593-4.17-15.284-4.234-25.575-.948-33.584a249.828,249.828,0,0,0,8.734-26.946l-1.416-1.252c.165.049.325.092.5.14C1618.722,259.172,1631.813,265.844,1632.137,266.852Z" transform="translate(-1444.653 -233.246)" fill="#1d2833"/>
      <path id="Trazado_10148" data-name="Trazado 10148" d="M1622.883,261.345l.852,2.6s-7.27,16.218-13.257,26.222c-5.243,8.766,2,31.088,2,31.088-1.672-27.938,5.833-37.966,9.077-43.163,9.165-14.686,1.324-16.745,1.324-16.745Z" transform="translate(-1444.652 -233.064)" fill="#131c24"/>
      <path id="Trazado_10149" data-name="Trazado 10149" d="M1623.686,270.41a53.022,53.022,0,0,1-2.849,6.133c-.461.788-2.336,4.308-2.772,5.092-10.974,19.683-7.448,18.948-5.534,40.536,0,0-4.069-8.473-4.536-23.23a29.067,29.067,0,0,1,2.3-11.888,165.985,165.985,0,0,0,9.393-26.812l-.285-.251.237-.414c.657.341,1.64.85,2.768,1.444C1624.252,262.5,1625.969,265.323,1623.686,270.41Z" transform="translate(-1444.699 -233.203)" fill="#2b3d4b"/>
      <path id="Trazado_10150" data-name="Trazado 10150" d="M1603.053,286.944c1.284,4,1.935,7.045,2.645,9.9-.094,4.274.476,10.5.437,13.8-1.057-7.942-5.148-15.624-7.391-27.146-3.875-19.879,5.29-25.044,5.29-25.044l.534,8.361C1603.077,272.044,1600.387,278.617,1603.053,286.944Z" transform="translate(-1445.501 -233.292)" fill="#131c24"/>
      <path id="Trazado_10151" data-name="Trazado 10151" d="M1603.908,287.566a128.473,128.473,0,0,1,2.453,15.374c.647,9.2.243,17.355.176,15.149-.7-22.265-6.288-24.669-7.774-39.706a27.617,27.617,0,0,1,.832-11.228c2.3-6.93,5.339-10.053,6.419-10.417l.375.014,2.745,2.1A34.188,34.188,0,0,0,1603.908,287.566Z" transform="translate(-1445.443 -233.426)" fill="#2b3d4b"/>
      <path id="Trazado_10152" data-name="Trazado 10152" d="M1614.478,255.453s-9.513,5-5.274,12.178l-4.476,2.465S1600.341,257.541,1614.478,255.453Z" transform="translate(-1445.005 -233.527)" fill="#feffff"/>
      <path id="Trazado_10153" data-name="Trazado 10153" d="M1620.455,250.767s-4,6.084-.835,10.183c1.774,2.293-2.4,7.732-9.525,7.3,0,0-3.183-.78-2.859-1.933.738-2.625-.315-4.1-1.454-6.112S1620.455,250.767,1620.455,250.767Z" transform="translate(-1444.876 -233.896)" fill="#efb185"/>
      <path id="Trazado_10154" data-name="Trazado 10154" d="M1619.148,260.922a1.876,1.876,0,0,1,.383.944c-2.676-2.718-7.8-2.922-7.8-2.922l6.772-7.492c.263-.125.489-.234.683-.331l.208.666C1618.41,253.707,1616.788,257.867,1619.148,260.922Z" transform="translate(-1444.404 -233.868)" fill="#dd9569"/>
      <path id="Trazado_10155" data-name="Trazado 10155" d="M1607.236,265.815c.672-4.165-.315-4.1-1.454-6.112-.308-.549.66-1.508,2.222-2.61a4.929,4.929,0,0,1,1.161,1.305c2.762,4.256,2.744,7.578,2.413,9.352a7.015,7.015,0,0,1-1.482,0C1609.242,267.619,1607.031,267.1,1607.236,265.815Z" transform="translate(-1444.876 -233.398)" fill="#f2b78f"/>
      <g id="Grupo_10146" data-name="Grupo 10146" transform="translate(156.48 0.139)">
        <path id="Trazado_10156" data-name="Trazado 10156" d="M1622.236,248.554s-1.739,8.043-7.272,11.692c-4.9,3.237-10.615,5.36-11.664-.494-.834-4.652-3.12-16.5.991-18.88,5.294-3.064,7.232-6.846,13.36-4.586C1617.652,236.285,1624.654,239.5,1622.236,248.554Z" transform="translate(-1601.657 -235.228)" fill="#efb185"/>
        <path id="Trazado_10157" data-name="Trazado 10157" d="M1622.179,248.366a18.067,18.067,0,0,1-7.245,11.8,23,23,0,0,1-4.645,2.467c2.582-1.893,2.843-2.487,4.843-4.812s-2.977-1.429.425-7.381c1.154-2.03-4.515.584-5.785.551-7.548-.193-6.984-4.507-7.13-6.336a12.954,12.954,0,0,1,.621-2.234l.714-1.373c.083-.125.169-.251.257-.365a25,25,0,0,1,2.447-2.692c3.233.069,12.418.27,12.6.315.13.032,1.707,2.176,3.172,4.216A12.336,12.336,0,0,1,1622.179,248.366Z" transform="translate(-1601.599 -235.04)" fill="#e6a376"/>
        <path id="Trazado_10158" data-name="Trazado 10158" d="M1618.943,256.372s6.111-5.61,3.991-13.661a9.414,9.414,0,0,0-8.328-7.331c-3.435-.41-10.042-.2-12.658,6.735-.815,2.164-.262,6.9,8.234,4.691,1.216-.315,4.447-.741,5.584.293s1.265,2.97.717,4.609c-.482,1.442.791,1.593.967,1.289s1.8-4.418,3.343-2.808C1622.181,251.639,1619.091,256.093,1618.943,256.372Z" transform="translate(-1601.675 -235.255)" fill="#341c09"/>
        <path id="Trazado_10159" data-name="Trazado 10159" d="M1618.323,256.166c.148-.279,3.238-4.733,1.849-6.182-1.539-1.61-3.169,2.506-3.343,2.808s-1.449.153-.967-1.289c.548-1.64.427-3.574-.717-4.609-1.032-.94-3.868-.463-5.584-.293,1.408-.9,4.216-1.217,5.219-3.563,1.336-3.144,3.225-4.616,5-5.165a9.721,9.721,0,0,1,2.531,4.632C1624.434,250.556,1618.323,256.166,1618.323,256.166Z" transform="translate(-1601.055 -235.049)" fill="#221101"/>
      </g>
      <path id="Trazado_10160" data-name="Trazado 10160" d="M1618.393,258.38a12.4,12.4,0,0,1-9.562,9.021l2.324,5.665S1625.717,265.771,1618.393,258.38Z" transform="translate(-1444.632 -233.297)" fill="#feffff"/>
      <path id="Trazado_10161" data-name="Trazado 10161" d="M1631.4,266.339c.329,1.007,3.723,3.434-1.13,14.932,0,0-5.458,12.394-2.615,24.858,1.22,5.352,1.112,5.72,3.146,10.262,1.171,2.61-2.762,5.923-7.42,7.359-2.791-6.613-3.663-8.477-4.83-15.716-1.582-9.912-.464-18.064,7.66-28.013,7.14-8.746,4.132-12.149,4.3-14.457C1631.026,265.917,1631.353,266.188,1631.4,266.339Z" transform="translate(-1443.916 -232.732)" fill="#131c24"/>
      <path id="Trazado_10162" data-name="Trazado 10162" d="M1601.932,242.125s-1.253,7.744,8.607,4.941c0,0,4.928-1.313,6.911-5.889.422-.975,1.562-2.593,3.232-2.761,0,0-2.622-3.728-9.415-3.247-3.2.225-6.511,3.331-7.323,3.836S1604.444,242.748,1601.932,242.125Z" transform="translate(-1445.179 -235.126)" fill="#341c09"/>
      <g id="Grupo_10148" data-name="Grupo 10148" transform="translate(161.079 90.502)">
        <path id="Trazado_10163" data-name="Trazado 10163" d="M1632.386,326.21c-.023-.272-.059-.53-.1-.776-.009-.04-.018-.078-.025-.115a6.774,6.774,0,0,0-.169-.7c-.01-.032-.025-.063-.032-.1a4.725,4.725,0,0,0-.2-.543,1.391,1.391,0,0,0-.069-.157c-.068-.152-.141-.29-.221-.435-.032-.05-.061-.111-.094-.162s-.055-.073-.073-.109a4.235,4.235,0,0,0-.458-.571c-.055-.057-.1-.1-.157-.156a3.548,3.548,0,0,0-.627-.484l2.049,1.193a3.244,3.244,0,0,1,.628.486,1.176,1.176,0,0,1,.153.148,4.036,4.036,0,0,1,.464.581c.016.023.039.044.057.068a.215.215,0,0,0,.016.034c.033.055.064.118.1.17.06.112.124.219.183.334a.941.941,0,0,0,.037.093c.023.052.043.1.068.162.035.08.063.149.1.228.039.109.075.216.11.332.006.02.016.044.025.067a.166.166,0,0,0,.016.053c.041.138.08.285.108.43.021.081.04.164.054.248a.331.331,0,0,0,.012.076.77.77,0,0,1,.02.1c.025.138.047.279.062.422.018.1.023.2.032.3,0,.014,0,.029,0,.042a.435.435,0,0,1,0,.072c.014.137.024.274.028.413s.009.28.009.427v.023l.1,34.635-2.056-1.192-.094-34.635c0-.319-.021-.626-.045-.919C1632.393,326.264,1632.39,326.234,1632.386,326.21Z" transform="translate(-1604.034 -318.802)" fill="#8fb6d7"/>
        <path id="Trazado_10164" data-name="Trazado 10164" d="M1605.95,343.348c0-.174.012-.347.021-.521,0-.043.012-.087.012-.134a.283.283,0,0,0,.006-.046c0-.116.016-.232.025-.345.014-.17.041-.349.06-.523.009-.082.021-.15.031-.223.007-.042.012-.079.018-.12.01-.065.016-.126.025-.193.03-.18.06-.364.1-.544.018-.117.042-.227.067-.34,0-.035.013-.061.018-.09s.015-.08.023-.117c.039-.188.082-.37.129-.558.037-.154.079-.315.122-.467a.071.071,0,0,0,.006-.023c0-.022.01-.039.016-.06.051-.181.1-.365.16-.545s.108-.355.169-.526c0-.015.009-.027.01-.04s0-.015.011-.017c.049-.153.1-.31.157-.458s.123-.326.188-.493c.018-.06.045-.115.066-.169.008-.026.025-.052.029-.077.03-.077.065-.153.092-.228.067-.163.133-.316.2-.474.059-.125.116-.249.174-.376.006-.015.013-.026.02-.046s.013-.024.02-.04c.079-.173.161-.339.243-.5s.174-.347.272-.519c0-.009.009-.014.01-.026a.194.194,0,0,1,.029-.05c.133-.247.267-.486.407-.728a1.326,1.326,0,0,1,.092-.149c.13-.218.268-.43.4-.639.073-.115.137-.233.215-.345.024-.039.053-.072.079-.111.064-.087.127-.177.189-.267.087-.123.176-.249.261-.374s.182-.238.272-.355c.023-.028.043-.057.066-.09a.105.105,0,0,0,.023-.026c.1-.134.219-.27.327-.4s.21-.249.313-.371a.511.511,0,0,0,.051-.056c.018-.019.038-.038.057-.057.072-.08.141-.164.215-.241.107-.116.217-.227.326-.339.057-.064.119-.116.172-.173l.08-.08c.032-.028.055-.057.087-.086.114-.111.232-.217.346-.32s.231-.2.347-.3l0,0,.024-.022.321-.26c.114-.088.224-.175.341-.26.045-.03.091-.066.136-.1a.431.431,0,0,0,.083-.059c.041-.025.08-.056.121-.083l.32-.212c.109-.068.217-.137.328-.2.02-.014.046-.025.073-.044l13.184-7.608a2.693,2.693,0,0,1,.24-.136c.1-.056.213-.11.313-.166.082-.039.157-.077.237-.111a.279.279,0,0,0,.043-.016c.007-.01.023-.011.034-.018.1-.043.206-.091.311-.129s.206-.083.306-.117l.1-.034c.023-.007.039-.014.066-.022.051-.013.1-.032.155-.049.1-.031.21-.059.316-.091.074-.018.157-.032.235-.049a.391.391,0,0,1,.057-.014.3.3,0,0,0,.037-.006,3.435,3.435,0,0,1,.342-.057c.107-.014.221-.026.333-.032a.053.053,0,0,1,.021,0l.012,0c.128-.011.258-.013.386-.013.084,0,.166.006.249.01.033.005.062.005.093.01h.067a4.165,4.165,0,0,1,.493.071l.043.012c.085.018.172.047.253.069.1.028.2.049.3.08.018.008.033.021.055.029a3.855,3.855,0,0,1,.673.311c.69.4,1.37.8,2.052,1.192a4.159,4.159,0,0,0-.67-.311c-.121-.044-.246-.08-.38-.117-.077-.017-.15-.043-.226-.059a4.242,4.242,0,0,0-.61-.089.754.754,0,0,0-.082,0,6.376,6.376,0,0,0-.658,0,.022.022,0,0,1-.015,0,5.408,5.408,0,0,0-.724.1.13.13,0,0,0-.044.009,6.18,6.18,0,0,0-.71.189c-.02.01-.044.012-.068.024a6.748,6.748,0,0,0-.759.3.028.028,0,0,0-.018.005,8.838,8.838,0,0,0-.812.421l-13.185,7.608c-.281.166-.564.347-.841.548a.713.713,0,0,0-.076.053c-.281.2-.55.4-.813.623l-.009.008c-.267.231-.536.47-.791.724a.459.459,0,0,0-.077.081c-.245.236-.484.49-.717.746-.018.022-.032.04-.051.06q-.374.419-.726.869l-.035.043q-.285.372-.555.762c-.059.086-.123.174-.187.265-.1.139-.186.286-.277.427-.146.225-.294.461-.436.693-.157.268-.311.541-.463.819a.863.863,0,0,0-.053.087c-.188.356-.37.714-.539,1.081a.351.351,0,0,1-.025.054c-.157.343-.306.686-.445,1.041-.023.043-.041.095-.059.137-.139.355-.272.713-.395,1.072,0,.017-.01.029-.014.047-.126.374-.243.753-.345,1.13-.009.034-.02.074-.031.11-.094.357-.183.716-.257,1.075-.009.038-.015.073-.025.113-.073.353-.135.705-.188,1.054-.006.047-.015.093-.021.134-.043.35-.084.7-.111,1.042,0,.037-.01.081-.012.12-.025.376-.037.749-.037,1.113l.1,34.639-2.051-1.193-.1-34.638C1605.939,343.677,1605.943,343.517,1605.95,343.348Z" transform="translate(-1605.939 -319.028)" fill="#8fb6d7"/>
        <g id="Grupo_10147" data-name="Grupo 10147" transform="translate(2.055 1.192)">
          <path id="Trazado_10165" data-name="Trazado 10165" d="M1616.453,328.808c-4.764,2.75-8.625,9.988-8.609,16.133l.1,34.639,2.069-1.193-.1-34.638c-.011-4.832,2.931-10.474,6.555-12.57l13.18-7.608c3.624-2.092,6.589.138,6.6,4.972l.1,34.635,2.061-1.192-.1-34.635c-.013-6.143-3.91-8.9-8.671-6.151Z" transform="translate(-1607.844 -320.134)" fill="#558299"/>
        </g>
      </g>
      <g id="Grupo_10149" data-name="Grupo 10149" transform="translate(0 88.621)" opacity="0.2" style="mix-blend-mode: multiply;isolation: isolate">
        <path id="Trazado_10166" data-name="Trazado 10166" d="M1664.9,394.9l-73.849,42.919L1456.607,360.2l73.852-42.917Z" transform="translate(-1456.607 -317.284)" fill="#9cb6c1"/>
      </g>
      <g id="Grupo_10165" data-name="Grupo 10165" transform="translate(20.426 42.116)">
        <g id="Grupo_10154" data-name="Grupo 10154" transform="translate(104.235 56.86)">
          <g id="Grupo_10153" data-name="Grupo 10153" style="isolation: isolate">
            <g id="Grupo_10150" data-name="Grupo 10150" transform="translate(0 28.469)">
              <path id="Trazado_10167" data-name="Trazado 10167" d="M1575.431,421.411l-3.066-1.782-.188-66.352,3.066,1.781Z" transform="translate(-1572.177 -353.277)" fill="#dfe5f3"/>
            </g>
            <g id="Grupo_10151" data-name="Grupo 10151">
              <path id="Trazado_10168" data-name="Trazado 10168" d="M1575.242,357.134l-3.066-1.781,49.3-28.469,3.066,1.783Z" transform="translate(-1572.177 -326.884)" fill="#aeb6bc"/>
            </g>
            <g id="Grupo_10152" data-name="Grupo 10152" transform="translate(3.066 1.783)">
              <path id="Trazado_10169" data-name="Trazado 10169" d="M1624.323,328.537l.19,66.354-49.307,28.466L1575.019,357Z" transform="translate(-1575.019 -328.537)" fill="#cad3da"/>
            </g>
          </g>
        </g>
        <g id="Grupo_10159" data-name="Grupo 10159" transform="translate(13.54 4.286)">
          <g id="Grupo_10158" data-name="Grupo 10158" style="isolation: isolate">
            <g id="Grupo_10155" data-name="Grupo 10155" transform="translate(0 28.465)">
              <path id="Trazado_10170" data-name="Trazado 10170" d="M1491.354,372.676l-3.072-1.785-.186-66.356,3.072,1.785Z" transform="translate(-1488.096 -304.535)" fill="#dfe5f3"/>
            </g>
            <g id="Grupo_10156" data-name="Grupo 10156">
              <path id="Trazado_10171" data-name="Trazado 10171" d="M1491.168,308.4l-3.072-1.785,49.307-28.465,3.068,1.783Z" transform="translate(-1488.096 -278.145)" fill="#aeb6bc"/>
            </g>
            <g id="Grupo_10157" data-name="Grupo 10157" transform="translate(3.072 1.783)">
              <path id="Trazado_10172" data-name="Trazado 10172" d="M1540.247,279.8l.186,66.356-49.3,28.468-.186-66.357Z" transform="translate(-1490.944 -279.798)" fill="#cad3da"/>
            </g>
          </g>
        </g>
        <g id="Grupo_10164" data-name="Grupo 10164">
          <g id="Grupo_10163" data-name="Grupo 10163" style="isolation: isolate">
            <g id="Grupo_10160" data-name="Grupo 10160" transform="translate(102.785 59.346)">
              <path id="Trazado_10173" data-name="Trazado 10173" d="M1635.476,329.189l-.008,3.548L1570.833,370.3l.012-3.547Z" transform="translate(-1570.833 -329.189)" fill="#83643d"/>
            </g>
            <g id="Grupo_10161" data-name="Grupo 10161" transform="translate(0 37.563)">
              <path id="Trazado_10174" data-name="Trazado 10174" d="M1578.341,368.339l-.012,3.547-102.785-59.343.01-3.548Z" transform="translate(-1475.543 -308.995)" fill="#5b452a"/>
            </g>
            <g id="Grupo_10162" data-name="Grupo 10162" transform="translate(0.01)">
              <path id="Trazado_10175" data-name="Trazado 10175" d="M1642.971,333.517l-64.631,37.561-102.787-59.344,64.633-37.563Z" transform="translate(-1475.553 -274.171)" fill="#936f44"/>
            </g>
          </g>
        </g>
      </g>
      <path id="Trazado_10176" data-name="Trazado 10176" d="M1572.879,295.45s-7.109,1.332-11.956-.685-3.684-2.179-3.309-2.914c.811-1.6,7.217-1.153,8.4-1.467s-.982-1.249-1.47-2.063-1.6-1.769-1.218-2.035,1.375-.538,3.172.9a39.144,39.144,0,0,0,6.35,3.382Z" transform="translate(-1448.692 -231.118)" fill="#efb185"/>
      <path id="Trazado_10177" data-name="Trazado 10177" d="M1570.836,289.795a12.078,12.078,0,0,1,.374,3.164,7.122,7.122,0,0,1-1.021,3.644s23.186,4.652,29.076,1.664c0,0,5.692-8.777-3.017-11.115Z" transform="translate(-1447.672 -231.034)" fill="#1d2833"/>
      <g id="Grupo_10180" data-name="Grupo 10180" transform="translate(108.086 72.683)">
        <g id="Grupo_10166" data-name="Grupo 10166">
          <path id="Trazado_10178" data-name="Trazado 10178" d="M1601.538,313.788l-25.191,14.641-19.537-11.281L1582,302.509Z" transform="translate(-1556.81 -302.509)" fill="#e2e6ed"/>
        </g>
        <g id="Grupo_10167" data-name="Grupo 10167" transform="translate(17.748 16.392)">
          <path id="Trazado_10179" data-name="Trazado 10179" d="M1579.793,321.128l-.6.351-5.926-3.422.6-.352Z" transform="translate(-1573.264 -317.706)" fill="#a5aab4"/>
        </g>
        <g id="Grupo_10168" data-name="Grupo 10168" transform="translate(12.493 16.115)">
          <path id="Trazado_10180" data-name="Trazado 10180" d="M1577.8,322.529l-.609.356-8.8-5.081.609-.356Z" transform="translate(-1568.392 -317.449)" fill="#a5aab4"/>
        </g>
        <g id="Grupo_10169" data-name="Grupo 10169" transform="translate(14.784 16.061)">
          <path id="Trazado_10181" data-name="Trazado 10181" d="M1578.821,321.844l-.605.35-7.7-4.445.607-.35Z" transform="translate(-1570.516 -317.399)" fill="#a5aab4"/>
        </g>
        <g id="Grupo_10170" data-name="Grupo 10170" transform="translate(6.095 10.874)">
          <path id="Trazado_10182" data-name="Trazado 10182" d="M1572.092,315.211l-5.1,2.961-4.536-2.62,5.094-2.962Z" transform="translate(-1562.461 -312.59)" fill="#a5aab4"/>
        </g>
        <g id="Grupo_10171" data-name="Grupo 10171" transform="translate(11.217 18.132)">
          <path id="Trazado_10183" data-name="Trazado 10183" d="M1575.517,323.762l-.609.355-7.7-4.445.609-.354Z" transform="translate(-1567.209 -319.319)" fill="#a5aab4"/>
        </g>
        <g id="Grupo_10172" data-name="Grupo 10172" transform="translate(14.177 18.465)">
          <path id="Trazado_10184" data-name="Trazado 10184" d="M1576.49,323.049l-.611.354-5.926-3.421.607-.355Z" transform="translate(-1569.953 -319.627)" fill="#a5aab4"/>
        </g>
        <g id="Grupo_10173" data-name="Grupo 10173" transform="translate(16.066 14.042)">
          <path id="Trazado_10185" data-name="Trazado 10185" d="M1581.109,320.606l-.611.355-8.794-5.079.609-.356Z" transform="translate(-1571.704 -315.527)" fill="#a5aab4"/>
        </g>
        <g id="Grupo_10174" data-name="Grupo 10174" transform="translate(26.055 10.866)">
          <path id="Trazado_10186" data-name="Trazado 10186" d="M1587.494,316l-.6.352-5.926-3.422.6-.352Z" transform="translate(-1580.965 -312.583)" fill="#a5aab4"/>
        </g>
        <g id="Grupo_10175" data-name="Grupo 10175" transform="translate(20.8 10.589)">
          <path id="Trazado_10187" data-name="Trazado 10187" d="M1585.5,317.406l-.609.356-8.8-5.08.609-.356Z" transform="translate(-1576.094 -312.326)" fill="#a5aab4"/>
        </g>
        <g id="Grupo_10176" data-name="Grupo 10176" transform="translate(23.092 10.535)">
          <path id="Trazado_10188" data-name="Trazado 10188" d="M1586.522,316.721l-.6.351-7.7-4.445.607-.35Z" transform="translate(-1578.218 -312.276)" fill="#a5aab4"/>
        </g>
        <g id="Grupo_10177" data-name="Grupo 10177" transform="translate(19.525 12.606)">
          <path id="Trazado_10189" data-name="Trazado 10189" d="M1583.218,318.639l-.609.354-7.7-4.445.609-.354Z" transform="translate(-1574.911 -314.195)" fill="#a5aab4"/>
        </g>
        <g id="Grupo_10178" data-name="Grupo 10178" transform="translate(22.484 12.939)">
          <path id="Trazado_10190" data-name="Trazado 10190" d="M1584.192,317.926l-.611.354-5.926-3.421.607-.355Z" transform="translate(-1577.655 -314.504)" fill="#a5aab4"/>
        </g>
        <g id="Grupo_10179" data-name="Grupo 10179" transform="translate(24.373 8.515)">
          <path id="Trazado_10191" data-name="Trazado 10191" d="M1588.811,315.483l-.611.355-8.794-5.079.609-.356Z" transform="translate(-1579.406 -310.404)" fill="#a5aab4"/>
        </g>
      </g>
      <path id="Trazado_10192" data-name="Trazado 10192" d="M1603.864,314.321s-7.837,6.473-15.51,4.96c0,0,.01-2,3.417-2.74s4.709-3.354,4.688-3.749-2.7-.63-3.9-.687-2.635-1.7.28-1.879,7.894-1.292,10.726-.673C1603.565,309.553,1606.39,312.568,1603.864,314.321Z" transform="translate(-1446.243 -229.286)" fill="#efb185"/>
      <path id="Trazado_10193" data-name="Trazado 10193" d="M1629.44,266.357s5.123-.943,6.685,4.716,3.963,31.45-.464,38.109-33.319,10.162-33.319,10.162a7.9,7.9,0,0,0-.878-8.013l24.953-10.433S1620.314,267.87,1629.44,266.357Z" transform="translate(-1445.212 -232.674)" fill="#1d2833"/>
      <g id="Grupo_10190" data-name="Grupo 10190" transform="translate(40.576 47.696)">
        <g id="Grupo_10181" data-name="Grupo 10181" transform="translate(3.711 28.389)" opacity="0.1">
          <path id="Trazado_10194" data-name="Trazado 10194" d="M1511.683,307.057c3.232,1.863,3.242,4.881.041,6.74a12.788,12.788,0,0,1-11.632,0c-3.224-1.861-3.238-4.873-.037-6.733A12.812,12.812,0,0,1,1511.683,307.057Z" transform="translate(-1497.664 -305.663)"/>
        </g>
        <g id="Grupo_10185" data-name="Grupo 10185" transform="translate(3.711 16.8)">
          <g id="Grupo_10182" data-name="Grupo 10182" transform="translate(1.983 11.263)">
            <path id="Trazado_10195" data-name="Trazado 10195" d="M1510.145,306.418c2.453,1.415,2.457,3.706.027,5.119a9.721,9.721,0,0,1-8.829-.005c-2.444-1.412-2.457-3.7-.025-5.111A9.726,9.726,0,0,1,1510.145,306.418Z" transform="translate(-1499.502 -305.361)" fill="#dfe5f3"/>
          </g>
          <path id="Trazado_10196" data-name="Trazado 10196" d="M1497.665,299.592l1.983,10.195h12.463l2.005-10.451Z" transform="translate(-1497.664 -294.571)" fill="#dfe5f3"/>
          <g id="Grupo_10183" data-name="Grupo 10183">
            <path id="Trazado_10197" data-name="Trazado 10197" d="M1511.683,296.312c3.232,1.865,3.242,4.883.041,6.743a12.808,12.808,0,0,1-11.632-.005c-3.224-1.862-3.238-4.872-.037-6.731A12.806,12.806,0,0,1,1511.683,296.312Z" transform="translate(-1497.664 -294.919)" fill="#9fb0bc"/>
          </g>
          <g id="Grupo_10184" data-name="Grupo 10184" transform="translate(1.982 1.282)">
            <path id="Trazado_10198" data-name="Trazado 10198" d="M1509.75,297.124c2.363,1.365,2.367,3.569.027,4.93a9.353,9.353,0,0,1-8.5-.005c-2.357-1.36-2.369-3.56-.032-4.921A9.387,9.387,0,0,1,1509.75,297.124Z" transform="translate(-1499.501 -296.107)" fill="#388852"/>
          </g>
        </g>
        <path id="Trazado_10199" data-name="Trazado 10199" d="M1499.8,301.481s-6.066-7.67-.1-21.466c0,0,5.239,6.606,2.238,23.54A4.772,4.772,0,0,1,1499.8,301.481Z" transform="translate(-1494 -279.291)" fill="#388852"/>
        <path id="Trazado_10200" data-name="Trazado 10200" d="M1499.568,280.106c.114,5.314.413,14.538,1.144,22.755a3.569,3.569,0,0,0,1.023.686C1504.529,287.759,1500.173,280.956,1499.568,280.106Z" transform="translate(-1493.804 -279.284)" fill="#2c7741"/>
        <path id="Trazado_10201" data-name="Trazado 10201" d="M1502.472,300.6s-4.86-8.487,3.088-21.244c0,0,4.2,7.313-1.289,23.613A4.781,4.781,0,0,1,1502.472,300.6Z" transform="translate(-1493.691 -279.343)" fill="#388852"/>
        <path id="Trazado_10202" data-name="Trazado 10202" d="M1505,279.344c-.674,5.272-1.754,14.434-2.249,22.672a3.581,3.581,0,0,0,.908.829C1508.777,287.65,1505.476,280.272,1505,279.344Z" transform="translate(-1493.553 -279.344)" fill="#2c7741"/>
        <g id="Grupo_10186" data-name="Grupo 10186" transform="translate(0 10.32)">
          <path id="Trazado_10203" data-name="Trazado 10203" d="M1503.314,303.195s-7.275-2.572-9.09-14.284c0,0,6.274,2.207,11.385,14.773A3.779,3.779,0,0,1,1503.314,303.195Z" transform="translate(-1494.224 -288.911)" fill="#388852"/>
          <path id="Trazado_10204" data-name="Trazado 10204" d="M1494.308,288.943c2.309,3.5,6.379,9.529,10.326,14.708a2.869,2.869,0,0,0,.969.031C1500.836,291.965,1495.067,289.256,1494.308,288.943Z" transform="translate(-1494.217 -288.909)" fill="#2c7741"/>
        </g>
        <g id="Grupo_10187" data-name="Grupo 10187" transform="translate(10.358 10.513)">
          <path id="Trazado_10205" data-name="Trazado 10205" d="M1505.786,302.048s-3.892-4.449-.7-12.958c0,0,3.36,3.831,2.058,14.146A2.889,2.889,0,0,1,1505.786,302.048Z" transform="translate(-1503.827 -289.09)" fill="#388852"/>
          <path id="Trazado_10206" data-name="Trazado 10206" d="M1505.033,289.143c.227,3.206.683,8.764,1.372,13.7a2.169,2.169,0,0,0,.64.385C1508.257,293.617,1505.421,289.638,1505.033,289.143Z" transform="translate(-1503.732 -289.086)" fill="#2c7741"/>
        </g>
        <g id="Grupo_10188" data-name="Grupo 10188" transform="translate(12.975 3.9)">
          <path id="Trazado_10207" data-name="Trazado 10207" d="M1507.325,299.674s-3.722-6.757,2.705-16.714c0,0,3.218,5.822-1.318,18.6A3.761,3.761,0,0,1,1507.325,299.674Z" transform="translate(-1506.253 -282.96)" fill="#388852"/>
          <path id="Trazado_10208" data-name="Trazado 10208" d="M1509.948,283.04c-.6,4.148-1.574,11.36-2.067,17.852a2.855,2.855,0,0,0,.7.664C1512.814,289.638,1510.308,283.779,1509.948,283.04Z" transform="translate(-1506.125 -282.954)" fill="#2c7741"/>
        </g>
        <g id="Grupo_10189" data-name="Grupo 10189" transform="translate(14.968 10.841)">
          <path id="Trazado_10209" data-name="Trazado 10209" d="M1508.136,300.429s-.882-5.693,6.173-11.035c0,0,.773,4.906-5.682,12.716A2.814,2.814,0,0,1,1508.136,300.429Z" transform="translate(-1508.1 -289.394)" fill="#388852"/>
          <path id="Trazado_10210" data-name="Trazado 10210" d="M1514.3,289.459c-1.486,2.758-4.006,7.571-6.014,12a2.045,2.045,0,0,0,.32.647C1514.627,294.824,1514.367,290.071,1514.3,289.459Z" transform="translate(-1508.085 -289.389)" fill="#2c7741"/>
        </g>
      </g>
      <path id="Trazado_10211" data-name="Trazado 10211" d="M1626.417,300.606l-24.953,10.433a8.593,8.593,0,0,1,1.307,2.731c5.671-1.807,26.6-4.915,26.111-9.429-2.5-23.236-2.357-34.334-2.357-34.334l-1.315,1.713C1622.9,281.542,1626.417,300.606,1626.417,300.606Z" transform="translate(-1445.212 -232.382)" fill="#2b3d4b"/>
    </g>
  </g>
</svg>
