<svg xmlns="http://www.w3.org/2000/svg" xmlns:xlink="http://www.w3.org/1999/xlink" width="383.215" height="467.845" viewBox="0 0 383.215 467.845">
  <defs>
    <linearGradient id="linear-gradient" x1="-30.681" y1="-2.445" x2="159.693" y2="15.534" gradientUnits="objectBoundingBox">
      <stop offset="0" stop-color="#a737d5"/>
      <stop offset="1" stop-color="#ef497a"/>
    </linearGradient>
    <linearGradient id="linear-gradient-2" y1="0.5" x2="1" y2="0.5" gradientUnits="objectBoundingBox">
      <stop offset="0" stop-color="#dae3fe"/>
      <stop offset="1" stop-color="#e9effd"/>
    </linearGradient>
    <linearGradient id="linear-gradient-6" x1="-31.909" y1="0.302" x2="-31.237" y2="1.263" gradientUnits="objectBoundingBox">
      <stop offset="0" stop-color="#febbba"/>
      <stop offset="1" stop-color="#ff928e"/>
    </linearGradient>
    <linearGradient id="linear-gradient-7" x1="-71.467" y1="1.602" x2="-70.432" y2="-1.187" xlink:href="#linear-gradient-6"/>
    <linearGradient id="linear-gradient-8" x1="-29.825" y1="1.698" x2="-29.362" y2="-1.193" xlink:href="#linear-gradient-6"/>
    <linearGradient id="linear-gradient-9" x1="-94.169" y1="1.857" x2="-93.914" y2="0.807" xlink:href="#linear-gradient-6"/>
    <linearGradient id="linear-gradient-10" x1="-62.392" y1="1.328" x2="-60.931" y2="-1.033" xlink:href="#linear-gradient-6"/>
    <linearGradient id="linear-gradient-11" x1="-225.703" y1="3.259" x2="-220.387" y2="-4.349" xlink:href="#linear-gradient-6"/>
    <linearGradient id="linear-gradient-12" x1="-114.581" y1="1.592" x2="-112.969" y2="4.225" xlink:href="#linear-gradient-6"/>
    <linearGradient id="linear-gradient-13" x1="0.245" y1="0.738" x2="1.049" y2="-0.129" xlink:href="#linear-gradient-6"/>
    <linearGradient id="linear-gradient-14" x1="0.5" x2="0.5" y2="1" gradientUnits="objectBoundingBox">
      <stop offset="0" stop-color="#f4efe2"/>
      <stop offset="0.697" stop-color="#fff"/>
      <stop offset="1" stop-color="#f4efe2"/>
    </linearGradient>
    <radialGradient id="radial-gradient" cx="0.5" cy="0.5" r="0.5" gradientUnits="objectBoundingBox">
      <stop offset="0" stop-color="#f2f2f0"/>
      <stop offset="1" stop-color="#eae699"/>
    </radialGradient>
    <linearGradient id="linear-gradient-15" x1="168.484" y1="-0.207" x2="169.492" y2="-0.207" xlink:href="#linear-gradient-6"/>
    <linearGradient id="linear-gradient-16" x1="187.787" y1="-0.014" x2="188.801" y2="-0.014" xlink:href="#linear-gradient-6"/>
    <linearGradient id="linear-gradient-17" x1="1.116" y1="0.941" x2="-0.257" y2="0.054" xlink:href="#linear-gradient-6"/>
    <linearGradient id="linear-gradient-18" x1="1.434" y1="1.247" x2="-0.053" y2="0.185" xlink:href="#linear-gradient-6"/>
    <linearGradient id="linear-gradient-19" x1="259.481" y1="0.059" x2="261.483" y2="-1.721" xlink:href="#linear-gradient-6"/>
    <linearGradient id="linear-gradient-20" x1="24.605" y1="0.303" x2="25.607" y2="0.303" xlink:href="#linear-gradient-6"/>
    <linearGradient id="linear-gradient-21" x1="63.919" y1="0.247" x2="64.91" y2="0.247" xlink:href="#linear-gradient-6"/>
    <linearGradient id="linear-gradient-22" x1="78.957" y1="0.5" x2="79.957" y2="0.5" xlink:href="#linear-gradient-6"/>
    <linearGradient id="linear-gradient-23" x1="-2.291" y1="7.018" x2="-3.428" y2="8.299" xlink:href="#linear-gradient-6"/>
    <linearGradient id="linear-gradient-24" x1="-13.283" y1="24.541" x2="-10.677" y2="21.894" xlink:href="#linear-gradient-6"/>
  </defs>
  <g id="Grupo_28685" data-name="Grupo 28685" transform="translate(-488.187 -455)">
    <g id="Grupo_28695" data-name="Grupo 28695" transform="translate(493.04 459.873)">
      <g id="Grupo_28689" data-name="Grupo 28689" transform="translate(0 71.462)">
        <g id="Grupo_28685-2" data-name="Grupo 28685" opacity="0.3">
          <path id="Trazado_68412" data-name="Trazado 68412" d="M549.308,913.341a1.347,1.347,0,0,1-1.415,1.275c-1.444-.075-2.912-.088-4.364-.039a1.347,1.347,0,0,1-1.39-1.275v-.026a1.347,1.347,0,0,1,1.3-1.391c1.529-.051,3.074-.038,4.594.041a1.347,1.347,0,0,1,1.275,1.273A1.282,1.282,0,0,1,549.308,913.341ZM536.476,915.3c-1.431.246-2.866.556-4.265.921a1.347,1.347,0,1,1-.68-2.607c1.472-.384,2.982-.71,4.488-.969a1.347,1.347,0,0,1,1.556,1.1,1.365,1.365,0,0,1,.018.159A1.347,1.347,0,0,1,536.476,915.3ZM525.5,918.483c-1.337.557-2.666,1.179-3.951,1.849a1.347,1.347,0,0,1-1.246-2.389c1.353-.706,2.753-1.361,4.161-1.947a1.347,1.347,0,1,1,1.036,2.487Zm-9.992,5.558c-1.18.843-2.337,1.747-3.44,2.687a1.347,1.347,0,0,1-1.748-2.051c1.161-.989,2.379-1.941,3.621-2.828a1.347,1.347,0,0,1,1.567,2.192Zm-8.5,7.646c-.961,1.081-1.89,2.219-2.759,3.382a1.347,1.347,0,1,1-2.157-1.614c.915-1.223,1.892-2.421,2.9-3.558a1.347,1.347,0,1,1,2.013,1.79Zm-6.6,9.337c-.7,1.269-1.353,2.583-1.942,3.908a1.347,1.347,0,0,1-2.462-1.1c.62-1.393,1.308-2.777,2.044-4.113a1.347,1.347,0,1,1,2.36,1.3Zm-1.167,50.012a1.347,1.347,0,0,1-1.817-.574c-.7-1.352-1.355-2.754-1.94-4.166a1.347,1.347,0,0,1,2.489-1.032c.555,1.34,1.175,2.671,1.843,3.955a1.346,1.346,0,0,1-.575,1.816Zm-3.2-39.45c-.4,1.392-.743,2.818-1.021,4.239a1.347,1.347,0,1,1-2.644-.518c.293-1.5.655-3,1.076-4.464a1.347,1.347,0,1,1,2.59.743Zm-1.287,28.6a1.348,1.348,0,0,1-1.642-.967c-.382-1.475-.7-2.987-.961-4.492a1.347,1.347,0,0,1,2.656-.452c.243,1.431.55,2.867.913,4.269a1.347,1.347,0,0,1-.967,1.641Zm-.607-17.329c-.078,1.445-.094,2.913-.049,4.362a1.347,1.347,0,0,1-2.691.114c0-.01,0-.019,0-.029-.049-1.526-.031-3.071.05-4.592a1.347,1.347,0,0,1,2.691,0C494.144,962.759,494.144,962.807,494.141,962.856Z" transform="translate(-491.373 -911.854)" fill="#00223d"/>
          <path id="Trazado_68413" data-name="Trazado 68413" d="M553.448,1410.867a1.339,1.339,0,0,0-.281-.754c-.426-.549-.848-1.115-1.254-1.684a1.347,1.347,0,1,0-2.193,1.564c.427.6.87,1.194,1.318,1.772a1.347,1.347,0,0,0,2.409-.9Z" transform="translate(-539.762 -1324.987)" fill="#00223d"/>
        </g>
        <g id="Grupo_28686" data-name="Grupo 28686" transform="translate(44.713 18.437)" opacity="0.3">
          <path id="Trazado_68414" data-name="Trazado 68414" d="M763.805,1537.985a1.348,1.348,0,0,0-1.2-1.267c-.69-.074-1.392-.163-2.082-.266a1.347,1.347,0,1,0-.4,2.665c.728.108,1.466.2,2.193.28a1.347,1.347,0,0,0,1.488-1.412Z" transform="translate(-758.975 -1450.514)" fill="#00223d"/>
          <path id="Trazado_68415" data-name="Trazado 68415" d="M868.2,1095.41a1.347,1.347,0,1,1-2.694.01c0-1.416-.071-2.855-.195-4.291A1.347,1.347,0,0,1,868,1090.9q.081.933.13,1.862C868.173,1093.642,868.2,1094.534,868.2,1095.41Zm-2.349-10.158a1.347,1.347,0,0,1-1.61-1.018c-.315-1.393-.691-2.788-1.12-4.146a1.347,1.347,0,1,1,2.569-.811c.452,1.43.848,2.9,1.179,4.365a1.319,1.319,0,0,1,.031.227A1.348,1.348,0,0,1,865.852,1085.252Zm1.872,17.483c-.2,1.485-.465,2.982-.791,4.45a1.347,1.347,0,0,1-2.63-.583c.309-1.394.562-2.815.751-4.226a1.347,1.347,0,0,1,2.67.359Zm-5.359-28.5a1.347,1.347,0,0,1-1.795-.639c-.612-1.289-1.286-2.566-2-3.8a1.347,1.347,0,0,1,2.328-1.357c.756,1.3,1.466,2.641,2.11,4a1.345,1.345,0,0,1-.639,1.795Zm2.493,39.984c-.521,1.4-1.11,2.806-1.75,4.166a1.347,1.347,0,0,1-2.438-1.147c.608-1.292,1.167-2.623,1.662-3.957a1.347,1.347,0,1,1,2.526.937Zm-5.316,10.579c-.818,1.26-1.7,2.5-2.616,3.685a1.347,1.347,0,1,1-2.13-1.65c.873-1.127,1.709-2.3,2.486-3.5a1.347,1.347,0,0,1,2.26,1.467Zm-7.5,9.17c-1.073,1.052-2.2,2.071-3.356,3.027a1.347,1.347,0,0,1-1.72-2.074c1.1-.909,2.169-1.877,3.189-2.876a1.347,1.347,0,1,1,1.887,1.924Zm-9.317,7.316c-1.277.792-2.6,1.539-3.94,2.219a1.347,1.347,0,1,1-1.221-2.4c1.27-.646,2.528-1.355,3.741-2.107a1.347,1.347,0,1,1,1.42,2.29Zm-10.7,5.092c-1.417.49-2.873.926-4.329,1.3a1.347,1.347,0,1,1-.663-2.611c1.383-.351,2.766-.765,4.112-1.23a1.347,1.347,0,1,1,.88,2.546Zm-11.547,2.615c-1.1.125-2.212.218-3.313.276q-.6.031-1.193.05a1.332,1.332,0,0,1-1.388-1.3,1.347,1.347,0,0,1,1.305-1.388q.566-.017,1.135-.047c1.047-.055,2.106-.144,3.15-.263a1.347,1.347,0,0,1,1.491,1.186c0,.027.006.055.007.083A1.347,1.347,0,0,1,820.48,1148.994Z" transform="translate(-805.293 -1060.16)" fill="#00223d"/>
          <path id="Trazado_68416" data-name="Trazado 68416" d="M1048.412,1025.139a1.345,1.345,0,0,0-.285-.76c-.45-.574-.921-1.149-1.4-1.709a1.347,1.347,0,1,0-2.049,1.749c.454.532.9,1.079,1.329,1.624a1.347,1.347,0,0,0,2.405-.9Z" transform="translate(-996.672 -1022.197)" fill="#00223d"/>
        </g>
        <g id="Grupo_28688" data-name="Grupo 28688" transform="translate(12.804 13.273)">
          <path id="Trazado_68417" data-name="Trazado 68417" d="M628.73,996.607A.63.63,0,0,0,628,996.6l-6.295,4.37A33.384,33.384,0,0,0,611.2,998.4l-3.574-6.773a.629.629,0,0,0-.653-.328l-9.084,1.406a.629.629,0,0,0-.523.51l-1.36,7.536a33.382,33.382,0,0,0-9.239,5.621l-7.321-2.263a.63.63,0,0,0-.694.23l-5.429,7.417a.63.63,0,0,0-.009.731l4.37,6.295a33.376,33.376,0,0,0-2.565,10.506l-6.773,3.574a.63.63,0,0,0-.328.653l1.406,9.084a.629.629,0,0,0,.51.523l7.537,1.36a33.378,33.378,0,0,0,5.621,9.24l-2.263,7.321a.63.63,0,0,0,.23.694l7.417,5.429a.63.63,0,0,0,.731.009l6.295-4.371A33.382,33.382,0,0,0,606,1065.374l3.575,6.773a.629.629,0,0,0,.653.328l9.084-1.406a.629.629,0,0,0,.523-.51l1.36-7.537a33.381,33.381,0,0,0,9.239-5.621l7.321,2.263a.63.63,0,0,0,.694-.23l5.429-7.417a.63.63,0,0,0,.009-.731l-4.37-6.295a33.38,33.38,0,0,0,2.566-10.506l6.773-3.574a.63.63,0,0,0,.328-.653l-1.406-9.084a.63.63,0,0,0-.51-.523l-7.536-1.36a33.388,33.388,0,0,0-5.621-9.24l2.263-7.321a.629.629,0,0,0-.23-.694Z" transform="translate(-568.006 -991.294)" fill="#e2dfdf"/>
          <g id="Grupo_28687" data-name="Grupo 28687" transform="translate(31.354 31.354)">
            <path id="Trazado_68418" data-name="Trazado 68418" d="M774.094,1189.052a9.233,9.233,0,1,1,.028-1.357A9.25,9.25,0,0,1,774.094,1189.052Zm-14.655,3.653a7.084,7.084,0,1,0-1.6-5.182,7.19,7.19,0,0,0-.022,1.051A7.032,7.032,0,0,0,759.439,1192.705Z" transform="translate(-755.655 -1178.947)" fill="#00223d"/>
          </g>
          <path id="Trazado_68419" data-name="Trazado 68419" d="M719.624,1120.723a23.247,23.247,0,0,0-.24-2.322h0q-.056-.366-.125-.73a22.876,22.876,0,0,0-.954-3.511l-.016-.046c-.016-.044-.032-.088-.049-.132-.031-.086-.064-.171-.1-.256a.539.539,0,0,0-.531-.346.551.551,0,0,0-.165.035.539.539,0,0,0-.31.7,21.667,21.667,0,0,1-5.948,24.037,21.51,21.51,0,0,1-10.948,5.113,21.865,21.865,0,0,1-2.215.229,21.642,21.642,0,1,1,7.047-41.67.531.531,0,0,0,.231.039.539.539,0,0,0,.175-1.037,22.721,22.721,0,1,0-7.4,43.745,23.185,23.185,0,0,0,2.325-.241,22.723,22.723,0,0,0,19.218-23.6Z" transform="translate(-656.466 -1081.133)" fill="#00223d"/>
        </g>
      </g>
      <g id="Grupo_28694" data-name="Grupo 28694" transform="translate(24.59 0)">
        <g id="Grupo_28690" data-name="Grupo 28690" opacity="0.3">
          <path id="Trazado_68420" data-name="Trazado 68420" d="M888.623,488.495a.832.832,0,0,0-.639-.765c-.687-.163-1.389-.308-2.085-.429a.832.832,0,1,0-.286,1.639c.663.116,1.332.254,1.988.409a.833.833,0,0,0,1-.618A.847.847,0,0,0,888.623,488.495Z" transform="translate(-843.755 -486.766)" fill="#00223d"/>
          <path id="Trazado_68421" data-name="Trazado 68421" d="M677.07,485.079a.832.832,0,0,1-.872.79,34.661,34.661,0,0,0-3.491.006q-.366.019-.735.047a.833.833,0,0,1-.891-.769.861.861,0,0,1,.769-.891q.386-.028.769-.049a36.119,36.119,0,0,1,3.66-.006.832.832,0,0,1,.79.786C677.071,485.022,677.071,485.05,677.07,485.079Zm-9.285,1.41a34.51,34.51,0,0,0-4.086,1.073.832.832,0,0,1-.521-1.58,36.069,36.069,0,0,1,4.283-1.125.833.833,0,0,1,.978.655.871.871,0,0,1,.014.119A.832.832,0,0,1,667.785,486.489Zm-8.009,2.644a34.179,34.179,0,0,0-3.7,2.045.832.832,0,0,1-.894-1.4,35.94,35.94,0,0,1,3.878-2.145.832.832,0,0,1,.714,1.5Zm-7.115,4.531a34.37,34.37,0,0,0-3.084,2.887.832.832,0,0,1-1.211-1.142,36.09,36.09,0,0,1,3.234-3.027.832.832,0,1,1,1.06,1.283Zm-5.793,6.131a34.668,34.668,0,0,0-2.291,3.549.832.832,0,0,1-1.451-.815,36.423,36.423,0,0,1,2.4-3.72.832.832,0,0,1,1.341.986Zm-4.129,7.351a34.086,34.086,0,0,0-1.354,4,.832.832,0,1,1-1.606-.435,35.8,35.8,0,0,1,1.42-4.193.832.832,0,0,1,1.54.631Zm-2.2,8.134a34.184,34.184,0,0,0-.332,4.211.832.832,0,0,1-1.664-.029,36.1,36.1,0,0,1,.348-4.415.832.832,0,0,1,1.655.072A.853.853,0,0,1,640.535,515.28Zm-.062,13.6a.832.832,0,0,1-1-.622,36.213,36.213,0,0,1-.669-3.789c-.025-.194-.046-.386-.067-.58a.824.824,0,0,1,.741-.914.832.832,0,0,1,.914.741c.019.181.039.363.063.547a34.542,34.542,0,0,0,.638,3.619.824.824,0,0,1,.021.145A.832.832,0,0,1,640.473,528.878Z" transform="translate(-638.539 -484.164)" fill="#00223d"/>
        </g>
        <g id="Grupo_28691" data-name="Grupo 28691" transform="translate(52.48 12.337)" opacity="0.3">
          <path id="Trazado_68422" data-name="Trazado 68422" d="M971.991,606.133a36.252,36.252,0,0,1-.091,4.354.832.832,0,1,1-1.659-.135,34.415,34.415,0,0,0,.086-4.154.832.832,0,0,1,1.662-.077Zm-1.124-3.383a.832.832,0,0,1-.953-.689,34.825,34.825,0,0,0-.906-4.058.832.832,0,0,1,1.6-.459,36.357,36.357,0,0,1,.949,4.253.81.81,0,0,1,.01.09A.832.832,0,0,1,970.868,602.75Zm.413,12.052a36.185,36.185,0,0,1-1.141,4.2.832.832,0,0,1-1.577-.532,34.526,34.526,0,0,0,1.089-4.011.832.832,0,0,1,1.645.125A.845.845,0,0,1,971.281,614.8Zm-2.571-20.275a.833.833,0,0,1-1.091-.44,34.251,34.251,0,0,0-1.858-3.718.832.832,0,1,1,1.44-.833,35.684,35.684,0,0,1,1.949,3.9.832.832,0,0,1-.44,1.091ZM968.5,623.04a36.175,36.175,0,0,1-2.118,3.806.832.832,0,1,1-1.4-.9,34.3,34.3,0,0,0,2.02-3.63.832.832,0,0,1,1.5.72Zm-4.679,7.33a36.364,36.364,0,0,1-2.968,3.19.832.832,0,0,1-1.147-1.2,34.757,34.757,0,0,0,2.831-3.044.832.832,0,0,1,1.284,1.059Zm-6.3,6a35.966,35.966,0,0,1-3.648,2.386.832.832,0,0,1-.825-1.446,34.019,34.019,0,0,0,3.479-2.275.832.832,0,0,1,.995,1.335Z" transform="translate(-952.626 -583.921)" fill="#00223d"/>
          <path id="Trazado_68423" data-name="Trazado 68423" d="M1011.527,560.408a.831.831,0,0,0-.167-.458c-.429-.568-.878-1.126-1.332-1.658a.832.832,0,1,0-1.266,1.08c.434.508.861,1.04,1.271,1.582a.832.832,0,0,0,1.495-.547Z" transform="translate(-999.217 -558)" fill="#00223d"/>
        </g>
        <g id="Grupo_28693" data-name="Grupo 28693" transform="translate(8.496 8.813)">
          <path id="Trazado_68424" data-name="Trazado 68424" d="M730.022,540.461a.422.422,0,0,0-.489-.006l-4.212,2.924a22.34,22.34,0,0,0-7.03-1.716l-2.392-4.532a.422.422,0,0,0-.437-.22l-6.078.941a.421.421,0,0,0-.35.341l-.91,5.043A22.33,22.33,0,0,0,701.941,547l-4.9-1.514a.421.421,0,0,0-.464.154l-3.633,4.963a.421.421,0,0,0-.006.489l2.925,4.212a22.333,22.333,0,0,0-1.717,7.031l-4.532,2.392a.422.422,0,0,0-.22.437l.941,6.078a.421.421,0,0,0,.341.35l5.043.91a22.33,22.33,0,0,0,3.762,6.182l-1.515,4.9a.421.421,0,0,0,.154.464l4.963,3.633a.421.421,0,0,0,.489.006l4.212-2.924a22.334,22.334,0,0,0,7.03,1.717l2.392,4.532a.421.421,0,0,0,.437.22l6.078-.941a.421.421,0,0,0,.35-.342l.91-5.043a22.336,22.336,0,0,0,6.183-3.762l4.9,1.514a.422.422,0,0,0,.464-.154l3.633-4.963a.421.421,0,0,0,.006-.489l-2.925-4.212a22.336,22.336,0,0,0,1.717-7.03l4.532-2.392a.421.421,0,0,0,.22-.437l-.941-6.078a.422.422,0,0,0-.342-.35l-5.043-.91a22.336,22.336,0,0,0-3.762-6.183l1.514-4.9a.421.421,0,0,0-.154-.464Z" transform="translate(-689.389 -536.906)" fill="#e2dfdf"/>
          <g id="Grupo_28692" data-name="Grupo 28692" transform="translate(20.871 20.87)">
            <path id="Trazado_68425" data-name="Trazado 68425" d="M826.856,668.694a6.273,6.273,0,1,1,.019-.933A6.438,6.438,0,0,1,826.856,668.694Zm-6.7,4.021a4.629,4.629,0,0,0,5.043-4.176h0a4.63,4.63,0,0,0-9.219-.867,4.706,4.706,0,0,0-.014.68A4.637,4.637,0,0,0,820.157,672.715Z" transform="translate(-814.297 -661.811)" fill="#00223d"/>
          </g>
          <path id="Trazado_68426" data-name="Trazado 68426" d="M788.948,621.122q-.042-.789-.164-1.585a15.763,15.763,0,0,0-.8-3.091l-.051-.134a.832.832,0,1,0-1.554.6,14.052,14.052,0,0,1,.764,2.883h0c.009.054.016.108.024.162a13.872,13.872,0,0,1-.716,6.824,14.081,14.081,0,0,1-1.773,3.329l-.018.025-.056.077a13.919,13.919,0,0,1-9.162,5.57,14.2,14.2,0,0,1-1.434.149,14.011,14.011,0,1,1,4.561-26.977.832.832,0,0,0,1.084-.457.833.833,0,0,0-.457-1.085,15.675,15.675,0,1,0-5.1,30.18,16.055,16.055,0,0,0,1.6-.166A15.7,15.7,0,0,0,788.948,621.122Z" transform="translate(-746.217 -594.671)" fill="#00223d"/>
        </g>
      </g>
    </g>
    <g id="Grupo_28702" data-name="Grupo 28702" transform="translate(553.989 455)">
      <path id="Trazado_68431" data-name="Trazado 68431" d="M856.149,802.476a28.539,28.539,0,0,1,28.539-28.539h242.7a25.143,25.143,0,0,1,25.111,23.865l17.914,351.863a18.541,18.541,0,0,1-18.18,19.481L874.069,1174.2a17.6,17.6,0,0,1-17.92-17.6Z" transform="translate(-856.149 -720.647)" fill="#00223d"/>
      <path id="Trazado_68432" data-name="Trazado 68432" d="M957.421,2798.792h-.009l-31.125-.4a19.2,19.2,0,0,1-18.874-19.12v-46.992a.664.664,0,1,1,1.329,0v46.992a17.861,17.861,0,0,0,17.563,17.791l31.124.4a.665.665,0,0,1-.008,1.329Z" transform="translate(-898.848 -2351.218)" fill="#91b3fa"/>
      <path id="Trazado_68433" data-name="Trazado 68433" d="M908.078,2607.888a.664.664,0,0,1-.664-.665v-7.61a.664.664,0,1,1,1.329,0v7.61A.664.664,0,0,1,908.078,2607.888Z" transform="translate(-898.848 -2240.721)" fill="url(#linear-gradient)"/>
      <g id="Grupo_28700" data-name="Grupo 28700" transform="translate(19.883 50.362)">
        <path id="Trazado_68434" data-name="Trazado 68434" d="M975.145,764.753a8.29,8.29,0,0,1,9.4-8.268c33.142,4.495,147.11,18.395,241.337,11.162a7.665,7.665,0,0,1,8.255,7.23l18.784,353.431a8.821,8.821,0,0,1-8.287,9.277c-39.63,2.345-202.839,11.411-261.054,5.314a6.988,6.988,0,0,1-6.253-6.916Z" transform="translate(-975.145 -756.408)" fill="#dbdada"/>
        <path id="Trazado_68435" data-name="Trazado 68435" d="M998.509,819.326a7.978,7.978,0,0,1,9.048-7.957c31.894,4.325,141.57,17.7,232.249,10.741a7.377,7.377,0,0,1,7.944,6.957l18.077,340.123a8.489,8.489,0,0,1-7.975,8.928c-38.138,2.257-195.2,10.982-251.224,5.114a6.726,6.726,0,0,1-6.018-6.656Z" transform="translate(-994.605 -802.124)" fill="#fff"/>
        <path id="Trazado_68436" data-name="Trazado 68436" d="M1175.188,990.588l3.387,72.919a4.635,4.635,0,0,0,4.5,4.422c13.505.381,55.586,1.407,79.346.169a5.177,5.177,0,0,0,4.9-5c.453-13.675,1.445-53.477-1.672-70.116a5.842,5.842,0,0,0-5.546-4.753l-79.822-2.791A4.929,4.929,0,0,0,1175.188,990.588Z" transform="translate(-1141.759 -947.164)" fill="#dbdada"/>
        <path id="Trazado_68437" data-name="Trazado 68437" d="M1923.042,1021.845a2.434,2.434,0,0,0,2.505-2.446,2.669,2.669,0,0,0-2.647-2.492l-88.065-1.569a1.674,1.674,0,0,0-1.72,2.384l.6,1.694a3.907,3.907,0,0,0,3.432,2.43Z" transform="translate(-1689.643 -972.074)" fill="#dbdada"/>
        <path id="Trazado_68438" data-name="Trazado 68438" d="M1834.834,1096.695a1.674,1.674,0,0,0-1.72,2.384l.6,1.694a3.907,3.907,0,0,0,3.432,2.43h85.9a2.434,2.434,0,0,0,2.505-2.446,2.669,2.669,0,0,0-2.647-2.492Z" transform="translate(-1689.643 -1039.837)" fill="#dbdada"/>
        <path id="Trazado_68439" data-name="Trazado 68439" d="M1834.834,1179.235a1.674,1.674,0,0,0-1.72,2.384l.6,1.694a3.907,3.907,0,0,0,3.432,2.43h85.9a2.434,2.434,0,0,0,2.505-2.446,2.669,2.669,0,0,0-2.647-2.492Z" transform="translate(-1689.643 -1108.585)" fill="#dbdada"/>
        <path id="Trazado_68440" data-name="Trazado 68440" d="M1834.834,1273.177a1.674,1.674,0,0,0-1.72,2.384l.6,1.694a3.907,3.907,0,0,0,3.432,2.43h85.9a2.434,2.434,0,0,0,2.505-2.446,2.669,2.669,0,0,0-2.647-2.492Z" transform="translate(-1689.643 -1186.831)" fill="#dbdada"/>
        <path id="Trazado_68441" data-name="Trazado 68441" d="M1834.834,1365.859a1.674,1.674,0,0,0-1.72,2.384l.6,1.693a3.907,3.907,0,0,0,3.432,2.43h85.9a2.434,2.434,0,0,0,2.505-2.446,2.669,2.669,0,0,0-2.647-2.492Z" transform="translate(-1689.643 -1264.027)" fill="#dbdada"/>
        <path id="Trazado_68442" data-name="Trazado 68442" d="M1389.293,1583.667a2.33,2.33,0,0,0,2.415-2.446,2.759,2.759,0,0,0-2.737-2.467l-205.6-1.62c-1.417-.011-1.854.886-.971,1.995l2.009,2.523a6.066,6.066,0,0,0,4.181,2.015Z" transform="translate(-1147.393 -1440)" fill="#dbdada"/>
        <path id="Trazado_68443" data-name="Trazado 68443" d="M1183.374,1658.49c-1.417-.011-1.854.886-.971,2l2.009,2.523a6.067,6.067,0,0,0,4.181,2.015h200.7a2.33,2.33,0,0,0,2.415-2.446,2.759,2.759,0,0,0-2.737-2.466Z" transform="translate(-1147.393 -1507.763)" fill="#dbdada"/>
        <path id="Trazado_68444" data-name="Trazado 68444" d="M1171.473,1791.228c4.93-.378,14.163-.553,19.246-.624a4.606,4.606,0,0,1,4.547,3.522,75.066,75.066,0,0,1,2.164,18.609,4.091,4.091,0,0,1-4.127,4.005l-18.756-.2a4.5,4.5,0,0,1-4.436-4.084l-1.649-17.645A3.281,3.281,0,0,1,1171.473,1791.228Z" transform="translate(-1136.149 -1617.802)" fill="#fff" opacity="0.6"/>
        <path id="Trazado_68445" data-name="Trazado 68445" d="M1381.47,1837.625a2.05,2.05,0,0,0-2.191,2.44l.533,3.553a3.1,3.1,0,0,0,2.959,2.548h46.086a2.545,2.545,0,0,0,2.544-2.576l-.016-1.3a2.759,2.759,0,0,0-2.606-2.684Z" transform="translate(-1311.729 -1656.964)" fill="#dbdada"/>
        <path id="Trazado_68446" data-name="Trazado 68446" d="M1783,1791.228c4.93-.378,14.164-.553,19.246-.624a4.606,4.606,0,0,1,4.547,3.522,75.057,75.057,0,0,1,2.164,18.609,4.09,4.09,0,0,1-4.127,4.005l-18.755-.2a4.5,4.5,0,0,1-4.436-4.084l-1.649-17.645A3.281,3.281,0,0,1,1783,1791.228Z" transform="translate(-1645.495 -1617.802)" fill="#dbdada"/>
        <path id="Trazado_68447" data-name="Trazado 68447" d="M1992.993,1837.625a2.051,2.051,0,0,0-2.191,2.44l.534,3.553a3.1,3.1,0,0,0,2.959,2.548h46.086a2.545,2.545,0,0,0,2.544-2.576l-.016-1.3a2.76,2.76,0,0,0-2.606-2.684Z" transform="translate(-1821.075 -1656.964)" fill="#dbdada"/>
        <g id="Grupo_28699" data-name="Grupo 28699" transform="translate(38.146 213.849)">
          <path id="Trazado_68448" data-name="Trazado 68448" d="M1227.087,2095.176h-.047l-17.307-.166a4.653,4.653,0,0,1-4.748-3.957l-1.521-14.521a3.155,3.155,0,0,1,.745-2.373,3.8,3.8,0,0,1,2.648-1.307h0c1.458-.1,3.511-.275,5.685-.46,4.578-.39,10.274-.875,13.48-.915a4.837,4.837,0,0,1,4.846,3.39c.9,3.333.822,9.644.651,16.366A4.277,4.277,0,0,1,1227.087,2095.176Zm-20.139-21a2.461,2.461,0,0,0-1.721.836,1.834,1.834,0,0,0-.441,1.379l1.521,14.521a3.329,3.329,0,0,0,3.439,2.767l17.307.166h.034a2.948,2.948,0,0,0,3.1-2.649c.169-6.619.25-12.823-.605-15.985a3.572,3.572,0,0,0-3.546-2.408c-3.158.04-8.828.523-13.384.911-2.18.186-4.239.361-5.707.461Z" transform="translate(-1203.447 -2065.594)" fill="#fff"/>
          <path id="Trazado_68449" data-name="Trazado 68449" d="M1224.423,2091.137c3.636-.249,11.538-1.051,15.286-1.1a3.351,3.351,0,0,1,3.354,2.317c.723,2.674.627,8.005.5,12.926a2.879,2.879,0,0,1-3.044,2.634l-13.83-.133a3.2,3.2,0,0,1-3.271-2.687l-1.216-11.6A2.246,2.246,0,0,1,1224.423,2091.137Z" transform="translate(-1219.061 -2081.055)" fill="url(#linear-gradient-2)"/>
          <path id="Trazado_68450" data-name="Trazado 68450" d="M1435.189,2128.718a4.3,4.3,0,0,0,4.192,3.2l160.131-1.366a3.249,3.249,0,0,0-.013-6.5l-160.135-.73A4.3,4.3,0,0,0,1435.189,2128.718Z" transform="translate(-1396.347 -2108.779)" fill="#dbdada"/>
          <path id="Trazado_68451" data-name="Trazado 68451" d="M1233.12,2048.628h0a2.656,2.656,0,0,1,3.664,1l3.414,6.119a.853.853,0,0,0,1.523-.066l8.467-18.85a.946.946,0,0,1,1.808.408,37.215,37.215,0,0,1-10.829,25.9s-5.077-1.973-9.165-10.951A2.786,2.786,0,0,1,1233.12,2048.628Z" transform="translate(-1227.02 -2036.269)" fill="#00223d"/>
          <path id="Trazado_68452" data-name="Trazado 68452" d="M1227.087,2317.169h-.047l-17.307-.166a4.652,4.652,0,0,1-4.748-3.957l-1.521-14.521a3.154,3.154,0,0,1,.745-2.373,3.8,3.8,0,0,1,2.648-1.307h0c1.458-.1,3.511-.275,5.685-.46,4.578-.39,10.274-.875,13.48-.915h.069a4.827,4.827,0,0,1,4.777,3.39c.9,3.333.822,9.644.651,16.365A4.277,4.277,0,0,1,1227.087,2317.169Zm-20.139-21a2.46,2.46,0,0,0-1.721.836,1.833,1.833,0,0,0-.441,1.379l1.521,14.521a3.329,3.329,0,0,0,3.439,2.767l17.307.167h.034a2.949,2.949,0,0,0,3.1-2.648c.169-6.62.25-12.823-.605-15.985a3.551,3.551,0,0,0-3.547-2.407c-3.157.039-8.827.522-13.383.91-2.18.186-4.239.361-5.707.461Z" transform="translate(-1203.447 -2250.495)" fill="#fff"/>
          <path id="Trazado_68453" data-name="Trazado 68453" d="M1224.423,2313.135c3.636-.248,11.538-1.051,15.286-1.1a3.349,3.349,0,0,1,3.354,2.317c.723,2.674.627,8,.5,12.925a2.879,2.879,0,0,1-3.044,2.634l-13.83-.133a3.2,3.2,0,0,1-3.271-2.686l-1.216-11.6A2.246,2.246,0,0,1,1224.423,2313.135Z" transform="translate(-1219.061 -2265.96)" fill="url(#linear-gradient-2)"/>
          <path id="Trazado_68454" data-name="Trazado 68454" d="M1435.189,2350.715a4.3,4.3,0,0,0,4.192,3.2l160.131-1.365a3.249,3.249,0,0,0-.013-6.5l-160.135-.73A4.3,4.3,0,0,0,1435.189,2350.715Z" transform="translate(-1396.347 -2293.683)" fill="#dbdada"/>
          <path id="Trazado_68455" data-name="Trazado 68455" d="M1233.12,2270.626h0a2.656,2.656,0,0,1,3.664,1l3.414,6.119a.853.853,0,0,0,1.523-.066l8.467-18.85a.946.946,0,0,1,1.808.408,37.215,37.215,0,0,1-10.829,25.9s-5.077-1.973-9.165-10.951A2.786,2.786,0,0,1,1233.12,2270.626Z" transform="translate(-1227.02 -2221.174)" fill="#00223d"/>
          <path id="Trazado_68456" data-name="Trazado 68456" d="M1227.087,2539.167h-.047l-17.307-.166a4.652,4.652,0,0,1-4.748-3.957l-1.521-14.521a3.158,3.158,0,0,1,.745-2.375,3.8,3.8,0,0,1,2.648-1.307h0c1.458-.1,3.511-.274,5.685-.459,4.578-.39,10.274-.875,13.48-.915h.069a4.827,4.827,0,0,1,4.777,3.39c.9,3.334.822,9.644.651,16.365A4.277,4.277,0,0,1,1227.087,2539.167Zm-20.139-21a2.464,2.464,0,0,0-1.721.836,1.834,1.834,0,0,0-.441,1.38l1.521,14.521a3.328,3.328,0,0,0,3.439,2.766l17.307.166h.034a2.948,2.948,0,0,0,3.1-2.648c.169-6.62.25-12.824-.605-15.985a3.546,3.546,0,0,0-3.547-2.407c-3.157.04-8.827.522-13.383.91-2.18.186-4.239.361-5.707.461Z" transform="translate(-1203.447 -2435.399)" fill="#fff"/>
          <path id="Trazado_68457" data-name="Trazado 68457" d="M1224.423,2535.132c3.636-.249,11.538-1.051,15.286-1.1a3.352,3.352,0,0,1,3.354,2.317c.723,2.675.627,8.005.5,12.926a2.879,2.879,0,0,1-3.044,2.634l-13.83-.133a3.2,3.2,0,0,1-3.271-2.686l-1.216-11.6A2.246,2.246,0,0,1,1224.423,2535.132Z" transform="translate(-1219.061 -2450.863)" fill="url(#linear-gradient-2)"/>
          <path id="Trazado_68458" data-name="Trazado 68458" d="M1435.189,2572.713a4.3,4.3,0,0,0,4.192,3.2l160.131-1.365a3.25,3.25,0,0,0-.013-6.5l-160.135-.73A4.3,4.3,0,0,0,1435.189,2572.713Z" transform="translate(-1396.347 -2478.587)" fill="#dbdada"/>
          <path id="Trazado_68459" data-name="Trazado 68459" d="M1233.12,2492.624h0a2.656,2.656,0,0,1,3.664,1l3.414,6.119a.853.853,0,0,0,1.523-.066l8.467-18.85a.946.946,0,0,1,1.808.408,37.217,37.217,0,0,1-10.829,25.9s-5.077-1.973-9.165-10.951A2.787,2.787,0,0,1,1233.12,2492.624Z" transform="translate(-1227.02 -2406.078)" fill="#00223d"/>
          <path id="Trazado_68460" data-name="Trazado 68460" d="M1227.087,2761.164h-.047l-17.307-.166a4.651,4.651,0,0,1-4.748-3.957l-1.521-14.521a3.157,3.157,0,0,1,.745-2.374,3.8,3.8,0,0,1,2.648-1.307h0c1.458-.1,3.511-.274,5.685-.46,4.578-.39,10.274-.875,13.48-.915h.069a4.826,4.826,0,0,1,4.777,3.39c.9,3.333.822,9.643.651,16.365A4.277,4.277,0,0,1,1227.087,2761.164Zm-20.139-21a2.462,2.462,0,0,0-1.721.835,1.837,1.837,0,0,0-.441,1.38l1.521,14.521a3.328,3.328,0,0,0,3.439,2.766l17.307.166h.034a2.948,2.948,0,0,0,3.1-2.648c.169-6.62.25-12.824-.605-15.985a3.541,3.541,0,0,0-3.547-2.407c-3.157.04-8.827.523-13.383.911-2.18.186-4.239.361-5.707.461Z" transform="translate(-1203.447 -2620.303)" fill="#fff"/>
          <path id="Trazado_68461" data-name="Trazado 68461" d="M1224.423,2757.13c3.636-.248,11.538-1.051,15.286-1.1a3.35,3.35,0,0,1,3.354,2.316c.723,2.675.627,8.006.5,12.926a2.879,2.879,0,0,1-3.044,2.634l-13.83-.133a3.2,3.2,0,0,1-3.271-2.686l-1.216-11.6A2.247,2.247,0,0,1,1224.423,2757.13Z" transform="translate(-1219.061 -2635.768)" fill="url(#linear-gradient-2)"/>
          <path id="Trazado_68462" data-name="Trazado 68462" d="M1435.189,2794.71h0a4.3,4.3,0,0,0,4.192,3.2l160.131-1.365a3.249,3.249,0,0,0-.013-6.5l-160.135-.731A4.3,4.3,0,0,0,1435.189,2794.71Z" transform="translate(-1396.347 -2663.492)" fill="#dbdada"/>
          <path id="Trazado_68463" data-name="Trazado 68463" d="M1233.12,2714.622h0a2.656,2.656,0,0,1,3.664,1l3.414,6.119a.853.853,0,0,0,1.523-.066l8.467-18.849a.945.945,0,0,1,1.808.408,37.215,37.215,0,0,1-10.829,25.9s-5.077-1.973-9.165-10.951A2.786,2.786,0,0,1,1233.12,2714.622Z" transform="translate(-1227.02 -2590.983)" fill="#00223d"/>
        </g>
      </g>
      <path id="Trazado_68464" data-name="Trazado 68464" d="M1696.721,460.316c-8.766-6.1-16.389-5.978-21.755-4.395a10.7,10.7,0,0,0-7.6,11.253l2.314,25.258,27.536,2.444S1713.914,472.276,1696.721,460.316Zm-12.11,20.377a6.866,6.866,0,1,1,6.866-6.866A6.866,6.866,0,0,1,1684.612,480.693Z" transform="translate(-1531.783 -455)" fill="#00223d"/>
      <g id="Grupo_28701" data-name="Grupo 28701" transform="translate(138.941 3.699)">
        <path id="Trazado_68465" data-name="Trazado 68465" d="M1689.4,500.243a.664.664,0,0,1-.661-.6l-.368-4.022a.664.664,0,1,1,1.323-.121l.368,4.023a.664.664,0,0,1-.6.722C1689.438,500.243,1689.418,500.243,1689.4,500.243Zm-.722-7.883a.665.665,0,0,1-.661-.6l-.28-3.054a10.216,10.216,0,0,1,7.244-10.719,20.579,20.579,0,0,1,10.064-.413.664.664,0,0,1-.267,1.3,19.288,19.288,0,0,0-9.421.386,8.885,8.885,0,0,0-6.3,9.324l.28,3.054a.665.665,0,0,1-.6.722Z" transform="translate(-1687.692 -477.135)" fill="#bdd0fb"/>
      </g>
      <path id="Trazado_68466" data-name="Trazado 68466" d="M1456.511,674.786v-12.7a7.749,7.749,0,0,1,8.015-7.745l87.554,3a7.537,7.537,0,0,1,7.265,7.081l.732,12.2Z" transform="translate(-1356.198 -621.03)" fill="#00223d"/>
      <path id="Trazado_68467" data-name="Trazado 68467" d="M1629.817,676.378h-3.765a.664.664,0,1,1,0-1.329h3.765a.664.664,0,1,1,0,1.329Z" transform="translate(-1496.857 -638.281)" fill="#bdd0fb"/>
      <path id="Trazado_68468" data-name="Trazado 68468" d="M1481.562,688.049a.665.665,0,0,1-.665-.665v-5.137a7.207,7.207,0,0,1,7.2-7.2h13.843a.664.664,0,1,1,0,1.329H1488.1a5.876,5.876,0,0,0-5.87,5.869v5.137A.664.664,0,0,1,1481.562,688.049Z" transform="translate(-1376.509 -638.281)" fill="#bdd0fb"/>
      <path id="Trazado_68469" data-name="Trazado 68469" d="M1241.281,756.736a8.251,8.251,0,0,1,8.241-7.854l153.106,0a11.317,11.317,0,0,1,11.151,9.386l.13.749a9.718,9.718,0,0,1-9.576,11.376H1247.254a6.318,6.318,0,0,1-6.311-6.622Z" transform="translate(-1176.642 -699.774)" fill="#dbdada"/>
    </g>
    <g id="Grupo_28708" data-name="Grupo 28708" transform="translate(488.187 562.192)">
      <g id="Grupo_28705" data-name="Grupo 28705" transform="translate(0 86.666)">
        <path id="Trazado_68470" data-name="Trazado 68470" d="M662.269,1789.063s-5.457,2.655-6.461,5.7c-.805,2.447-6.839,2.762-7.436,7.575a5.521,5.521,0,0,1-4.621,4.853c-6.163.945-15.661,4.145-17.18,14.846-1.16,8.167,3,11.265,7.373,12.336a6.189,6.189,0,0,1,4.693,7.149c-.622,3.108.306,6.7,5.69,9.541,12.066,6.367,24.115-15.082,24.115-15.082l2.469-37.452Z" transform="translate(-598.965 -1760.015)" fill="#00223d"/>
        <path id="Trazado_68471" data-name="Trazado 68471" d="M971.848,1670.858s-15.525,42.323-41.979,55.551c0,0,8.8,14.366,13.4,15.237,0,0,28.259-36.169,31.14-65.8Z" transform="translate(-851.749 -1661.56)" fill="url(#linear-gradient-6)"/>
        <path id="Trazado_68472" data-name="Trazado 68472" d="M476.041,3182.26l-.781,6.419a2.652,2.652,0,0,1-2.326,2.32,41.041,41.041,0,0,1-8.59.134,2.27,2.27,0,0,1-1.907-2.944c.788-2.478,2.228-6.2,4.306-8.387h7.12A2.194,2.194,0,0,1,476.041,3182.26Z" transform="translate(-462.33 -2918.376)" fill="#7d6eb2"/>
        <path id="Trazado_68473" data-name="Trazado 68473" d="M809.655,2744.522l1.2,7.069s-4.024,40.765-4.74,57.071a12.775,12.775,0,0,0,1.891,7.261l7,11.364-17.785-10.495-.354-2.171,2.911-4-3.813-45.667a14.008,14.008,0,0,1,1.594-7.749l3.679-6.911Z" transform="translate(-740.178 -2555.829)" fill="url(#linear-gradient-7)"/>
        <path id="Trazado_68474" data-name="Trazado 68474" d="M813.938,3165.6h-5.676a3.418,3.418,0,0,1-2.712-1.33c-1.769-2.3-5.435-6.785-7.188-6.9-2.36-.157-2.058,8.231-2.058,8.231h-1.323l-1.675-10.424a6.17,6.17,0,0,1,3.238-6.45s.54,3.989,3.464,5.753,11.9,8.083,11.9,8.083a8.119,8.119,0,0,1,2.307.062A1.5,1.5,0,0,1,813.938,3165.6Z" transform="translate(-737.939 -2892.494)" fill="#7d6eb2"/>
        <path id="Trazado_68475" data-name="Trazado 68475" d="M519.878,2749.971s-23.576,44.722-27.324,54.933a98.089,98.089,0,0,0-5.111,19.535c-.079,1.261-1.646,2.47-5.968,2.47-2.23,0-3.322-.894-3.857-1.76a2.518,2.518,0,0,1-.1-2.439c1.364-2.759,5.692-11.581,7.295-15.58,1.914-4.777,6.03-26.422,8.288-33.948s4.81-15.689,14.641-23.21C507.746,2749.971,514.5,2743.36,519.878,2749.971Z" transform="translate(-474.76 -2557.919)" fill="url(#linear-gradient-8)"/>
        <path id="Trazado_68476" data-name="Trazado 68476" d="M775.008,2057.244c6.081-25.771-9.325-40.346-9.325-40.346,9.721-9.332,27.434-13.578,27.434-13.578s16.9,12.357,14.9,22.029c-1.175,5.668-11.88,33.953-11.88,33.953S786.234,2063.986,775.008,2057.244Z" transform="translate(-714.996 -1938.472)" fill="#7d6eb2"/>
        <path id="Trazado_68477" data-name="Trazado 68477" d="M669.56,2338.8c2.475-7.456,13.484-12.759,13.484-12.759,11.226,6.742,21.125,2.058,21.125,2.058s2.22,8.485.688,16.371-11.145,58.563-11.145,58.563c-15.147,3.069-38.441-3.088-38.441-3.088C664.918,2382.82,667.085,2346.26,669.56,2338.8Z" transform="translate(-623.032 -2207.273)" fill="#7d6eb2"/>
        <path id="Trazado_68478" data-name="Trazado 68478" d="M838.71,1890.841l-4.945,22.21c-.473,1.956,1.31,1.636,3.288,1.264,3.239-.611,7.414-1.869,8.81-4.389a2.392,2.392,0,0,0,.253-.837l2.124-15.4a2.767,2.767,0,0,0-1.619-2.908l-4.1-1.818A2.767,2.767,0,0,0,838.71,1890.841Z" transform="translate(-771.639 -1843.023)" fill="url(#linear-gradient-9)"/>
        <g id="Grupo_28703" data-name="Grupo 28703" transform="translate(55.998 18.779)">
          <path id="Trazado_68479" data-name="Trazado 68479" d="M846.481,1773.093s5.856,2.473,9.838,10.935,1.008,12.369-2.727,12.906-9.321.455-15.229-5.012S838.869,1770.162,846.481,1773.093Z" transform="translate(-829.607 -1765.201)" fill="url(#linear-gradient-10)"/>
          <path id="Trazado_68480" data-name="Trazado 68480" d="M810.2,1749.8s-4.418-12.38,6.558-12.527l2.583,1.805s4.028-6.864-2.583-10.141-14.347-.57-17.16,8.335-3.294,14.867,1.387,19.128,6.608-.57,6.608-.57-2.548-3.985-1.511-6.117,3.431.441,3.431.441Z" transform="translate(-797.472 -1727.601)" fill="#00223d"/>
          <path id="Trazado_68481" data-name="Trazado 68481" d="M835.921,1846.63s-2.234-6.377-5.214-3.838,2.422,5.891,4.537,6.976Z" transform="translate(-824.424 -1823.047)" fill="url(#linear-gradient-11)"/>
        </g>
        <g id="Grupo_28704" data-name="Grupo 28704" transform="translate(117.01)">
          <path id="Trazado_68482" data-name="Trazado 68482" d="M1167.2,1632.214c.237.753-2.506,1.9-4.121-1.18-.056-1.476-.954-7.8-.072-9,4.7-6.4,9.658-6.819,9.658-6.819.924,1.67,2.051,3.08,2.579,5.1a6.19,6.19,0,0,1-.617,4.557c-.776,1.4-1.833,3.213-2.834,4.635A6.113,6.113,0,0,1,1167.2,1632.214Z" transform="translate(-1162.619 -1615.213)" fill="url(#linear-gradient-12)"/>
        </g>
        <path id="Trazado_68483" data-name="Trazado 68483" d="M747.426,2023.757s45.229,55.228,79.019-7.656a7.772,7.772,0,0,0,.243-3.928c-.2-1.172.57-5.328,1-7.452a1.171,1.171,0,0,0-1.041-1.395,1.6,1.6,0,0,0-1.412.605l-6.172,7.859a3.3,3.3,0,0,0,1.747,3.912,1.626,1.626,0,0,1,.6,2.455c-25.7,33.686-68.68-3.279-69.467-2.844C749.151,2016.854,745.927,2018.557,747.426,2023.757Z" transform="translate(-699.473 -1938.472)" fill="url(#linear-gradient-13)"/>
      </g>
      <g id="Grupo_28707" data-name="Grupo 28707" transform="translate(77.38)">
        <path id="Trazado_68484" data-name="Trazado 68484" d="M1126.423,1868.694c.072-.886.977-1.653,2.509-2.268-1.665-.918-2.586-1.9-2.509-2.868.236-2.921,9.486-4.559,20.661-3.657s20.043,4,19.808,6.92c-.071.886-.976,1.653-2.509,2.268,1.666.918,2.587,1.9,2.509,2.868-.071.885-.976,1.652-2.509,2.267,1.666.918,2.587,1.9,2.509,2.868-.071.886-.976,1.653-2.509,2.268,1.666.918,2.587,1.9,2.509,2.868-.1,1.292-1.974,2.332-4.991,3.013a25.883,25.883,0,0,1-.076,3.156c-.437,5.383-6.491,9.6-14.5,9.6s-14.938-5.754-15.017-11.153a27.154,27.154,0,0,1,.157-3.523c-3.832-1.28-6.165-2.842-6.043-4.358.072-.886.977-1.653,2.509-2.268-1.665-.918-2.586-1.9-2.509-2.867.072-.886.977-1.653,2.509-2.268C1127.267,1870.643,1126.346,1869.659,1126.423,1868.694Z" transform="translate(-1092.837 -1732.145)" fill="url(#linear-gradient-14)"/>
        <g id="Grupo_28706" data-name="Grupo 28706" transform="translate(36.813 134.55)">
          <path id="Trazado_68485" data-name="Trazado 68485" d="M1187.682,2005.129a48.267,48.267,0,0,0,8.865-.725.268.268,0,1,0-.1-.527,57.8,57.8,0,0,1-14.766.466,63.476,63.476,0,0,1-12.384-2.136.269.269,0,0,0-.15.516,64.012,64.012,0,0,0,12.491,2.155C1183.715,2005.046,1185.747,2005.129,1187.682,2005.129Z" transform="translate(-1165.078 -1985.421)" fill="#91b3fa"/>
          <path id="Trazado_68486" data-name="Trazado 68486" d="M1168.309,1967.373a42.164,42.164,0,0,0,10.884-1.18.268.268,0,0,0-.147-.516c-3.873,1.1-10.11,1.445-16.683.915-6.5-.524-12.566-1.844-16.222-3.529a.268.268,0,1,0-.225.487c3.71,1.711,9.842,3.048,16.4,3.577C1164.367,1967.292,1166.384,1967.373,1168.309,1967.373Z" transform="translate(-1145.76 -1952.805)" fill="#91b3fa"/>
          <path id="Trazado_68487" data-name="Trazado 68487" d="M1168.364,1936.641a39.2,39.2,0,0,0,11.473-1.381.268.268,0,0,0-.168-.51c-3.816,1.258-10.286,1.672-17.306,1.106-6.5-.524-12.566-1.844-16.222-3.53a.269.269,0,0,0-.225.488c3.71,1.711,9.842,3.048,16.4,3.577C1164.4,1936.559,1166.432,1936.641,1168.364,1936.641Z" transform="translate(-1145.76 -1927.205)" fill="#91b3fa"/>
          <path id="Trazado_68488" data-name="Trazado 68488" d="M1168.747,1906.1a46.289,46.289,0,0,0,9.664-.879.268.268,0,0,0-.117-.524,55.965,55.965,0,0,1-15.514.62c-6.444-.519-12.477-1.825-16.139-3.492a.268.268,0,0,0-.222.489c3.715,1.691,9.816,3.013,16.318,3.538C1164.793,1906.013,1166.816,1906.1,1168.747,1906.1Z" transform="translate(-1146.179 -1901.797)" fill="#91b3fa"/>
        </g>
        <path id="Trazado_68489" data-name="Trazado 68489" d="M1006.993,1207.156a37.8,37.8,0,0,1,6.768-13.213c6.653-8.384,17.506-25.436,18.842-48.709,1.943-33.851-28.079-50.8-55.474-48.5s-54.428,22.7-51.468,54.19c1.821,19.377,12.666,34.075,20.741,42.515a44.842,44.842,0,0,1,10.765,19.073c2.423,8.75,8.19,19.653,21.9,20.318C996.8,1233.694,1004.168,1217.161,1006.993,1207.156Z" transform="translate(-925.437 -1096.531)" fill="url(#radial-gradient)"/>
        <path id="Trazado_68490" data-name="Trazado 68490" d="M1160.653,1551.3l-9.586-62.346c-.2-1.288-.832-2.153-1.416-1.932s-.9,1.444-.7,2.732c.005.034.012.077.018.11l10.918,61.767c.082.464.318.758.527.655S1160.722,1551.749,1160.653,1551.3Z" transform="translate(-1111.557 -1421.746)" fill="#00223d"/>
        <path id="Trazado_68491" data-name="Trazado 68491" d="M1278.716,1554.262l9.586-62.346c.2-1.288.832-2.153,1.416-1.932s.9,1.444.7,2.733c-.005.034-.012.077-.018.11l-10.919,61.766c-.082.465-.318.758-.527.655S1278.648,1554.712,1278.716,1554.262Z" transform="translate(-1219.67 -1424.214)" fill="#00223d"/>
        <path id="Trazado_68492" data-name="Trazado 68492" d="M1161.76,1429.128a1,1,0,0,1,1.258-.327l5.338,2.494,1.853-5.279a1.133,1.133,0,0,1,.649-.653,1.32,1.32,0,0,1,1.64.506l.009.017,4.389,8,4.073-11.393.007-.019a1.3,1.3,0,0,1,.617-.7,1.6,1.6,0,0,1,2.015.4l6.137,8.448a.74.74,0,0,1-.216,1.066,1.028,1.028,0,0,1-1.305-.142l-5.4-6.027-4.865,10.838,0,.008a.86.86,0,0,1-.428.42,1.016,1.016,0,0,1-1.273-.33l-4.695-7.533-1.767,3.81-.016.034a.746.746,0,0,1-.044.081,1,1,0,0,1-1.257.327l-6.336-2.961A.753.753,0,0,1,1161.76,1429.128Z" transform="translate(-1122.18 -1367.273)" fill="#00223d" opacity="0.79"/>
        <path id="Trazado_68493" data-name="Trazado 68493" d="M1018.541,1580.058a1.717,1.717,0,0,0,1.378-2.741,70.333,70.333,0,0,1-4.415-6.707,1.717,1.717,0,1,0-2.974,1.718,73.756,73.756,0,0,0,4.631,7.036A1.716,1.716,0,0,0,1018.541,1580.058Z" transform="translate(-997.785 -1490.683)" fill="#fff" opacity="0.79"/>
        <path id="Trazado_68494" data-name="Trazado 68494" d="M968.751,1313.514a1.718,1.718,0,0,0,1.574-2.4c-10.041-23.124-1.4-42.5-1.307-42.694a1.718,1.718,0,0,0-3.123-1.431c-.387.845-9.365,20.977,1.28,45.493A1.719,1.719,0,0,0,968.751,1313.514Z" transform="translate(-955.882 -1237.671)" fill="#fff" opacity="0.79"/>
      </g>
    </g>
    <g id="Grupo_28714" data-name="Grupo 28714" transform="translate(735.833 663.948)">
      <path id="Trazado_68495" data-name="Trazado 68495" d="M2287.4,3165.665s.951,5.1,1.441,10.148a3.482,3.482,0,0,1-3.3,3.8c-6.729.345-21.122,1.027-26.291.846a1.133,1.133,0,0,1-1.012-1.542,2.534,2.534,0,0,1,1.284-1.38l23.679-11.157Z" transform="translate(-2205.751 -2921.694)" fill="#f6c343"/>
      <path id="Trazado_68496" data-name="Trazado 68496" d="M2399.1,3143.251l-.667,6.115s-4.148,1.979-7.014-.177l1.66-6.824Z" transform="translate(-2316.736 -2902.287)" fill="url(#linear-gradient-15)"/>
      <path id="Trazado_68497" data-name="Trazado 68497" d="M2399.675,2459.64c.328,1.592,2.439,79.578-5.565,114.612a1.187,1.187,0,0,0,.709,1.373,20.674,20.674,0,0,0,6.8,1.315,2.045,2.045,0,0,0,2.013-1.486c2.305-8.133,13.338-48.874,14.457-87.7,1.251-43.388-.014-1.476-.014-1.476l-1.232-26.8Z" transform="translate(-2318.954 -2333.498)" fill="#167377"/>
      <path id="Trazado_68498" data-name="Trazado 68498" d="M2549.95,3180.046s1.46,2.565,2.916,9.4a2.125,2.125,0,0,1-1.845,2.562c-2.221.24-5.64.554-8.381.561a2.119,2.119,0,0,1-2.12-2.343,17.864,17.864,0,0,1,4.078-9.839Z" transform="translate(-2440.915 -2933.672)" fill="#f6c343"/>
      <path id="Trazado_68499" data-name="Trazado 68499" d="M2571.281,3131.448l-1.6,9.253s-1.663,1.261-4.983.39l.713-9.946Z" transform="translate(-2461.06 -2892.942)" fill="url(#linear-gradient-16)"/>
      <path id="Trazado_68500" data-name="Trazado 68500" d="M2457.061,2453c7.212,41.088-.508,101.727-3.195,113.607a1.849,1.849,0,0,1-1.479,1.418,12.42,12.42,0,0,1-5.335-.163,1.693,1.693,0,0,1-1.233-1.548c-.467-9.579-.353-68.415-6.928-91.6a5.286,5.286,0,0,0-2.065-2.895l-12.416-8.649L2423.33,2449Z" transform="translate(-2343.316 -2324.776)" fill="#167377"/>
      <g id="Grupo_28709" data-name="Grupo 28709" transform="translate(8.901 19.556)">
        <path id="Trazado_68501" data-name="Trazado 68501" d="M2214.358,1993.051c20.432-.533,43.034,4.956,43.034,4.956,6.43,35.484,1.795,76.528,1.795,76.528-15.781,4.3-33.691-2.216-33.691-2.216-2.771-14.831-15.438-56.523-15.438-56.523a67.317,67.317,0,0,1-25.059-7.69c5.109-6.038,7.472-13.682,8.487-18.2A68.566,68.566,0,0,0,2214.358,1993.051Z" transform="translate(-2153.709 -1961.948)" fill="#f6c343"/>
        <path id="Trazado_68502" data-name="Trazado 68502" d="M1997.729,1824.146a3.91,3.91,0,0,1,4.536-1.321c3.128,12.674,18.995,22.823,35.242,27.7-1.015,4.515-3.378,12.159-8.487,18.2C2001.991,1853.866,1997.729,1824.146,1997.729,1824.146Z" transform="translate(-1997.729 -1822.568)" fill="url(#linear-gradient-17)"/>
      </g>
      <g id="Grupo_28710" data-name="Grupo 28710" transform="translate(0 0)">
        <path id="Trazado_68503" data-name="Trazado 68503" d="M1953.853,1727.275c-.2.669,2.239,1.663,3.645-1.082.038-1.309.781-6.925-.012-7.983-4.219-5.639-12.364-12.682-12.364-12.682a1.922,1.922,0,0,0-.215,2.672l3.957,4.044a18.959,18.959,0,0,0-2.245,4.544,5.489,5.489,0,0,0,.586,4.036c.7,1.233,1.653,2.834,2.552,4.086A5.421,5.421,0,0,0,1953.853,1727.275Z" transform="translate(-1944.46 -1705.529)" fill="url(#linear-gradient-18)"/>
        <path id="Trazado_68504" data-name="Trazado 68504" d="M1977.339,1761.476l3.6,2.993,1.15,3-3.15,3.562s-1.128-5.969-1.935-7.255S1976.6,1761.861,1977.339,1761.476Z" transform="translate(-1971.197 -1752.128)" fill="url(#linear-gradient-19)"/>
      </g>
      <path id="Trazado_68505" data-name="Trazado 68505" d="M2572.48,2058.233l7.649-19.862s19.211,12.788,22.507,29.2a45.183,45.183,0,0,0-16.551,4.606C2584.6,2064.427,2572.48,2058.233,2572.48,2058.233Z" transform="translate(-2467.546 -1982.757)" fill="#f6c343"/>
      <path id="Trazado_68506" data-name="Trazado 68506" d="M2459.826,2222.573s21.546,11.907,28.679,1.5a8.129,8.129,0,0,0,1.429-6.33,45.163,45.163,0,0,1,16.551-4.606,22.7,22.7,0,0,1-2.318,15.581c-12.446,23.291-47.127-.83-47.127-.83Z" transform="translate(-2371.395 -2128.319)" fill="url(#linear-gradient-20)"/>
      <path id="Trazado_68507" data-name="Trazado 68507" d="M2417.667,1908.24l6.681,18.742a.677.677,0,0,1-.3.819c-1.763,1-8.122,3.89-15.863-.915a3.192,3.192,0,0,1-1.491-2.265l-2.261-16.255Z" transform="translate(-2327.576 -1874.37)" fill="url(#linear-gradient-21)"/>
      <g id="Grupo_28712" data-name="Grupo 28712" transform="translate(39.11 68.678)">
        <g id="Grupo_28711" data-name="Grupo 28711">
          <path id="Trazado_68508" data-name="Trazado 68508" d="M2232.251,2160.951l-11.737-40.988a1.2,1.2,0,0,0-1.01-.861c-2.127-.248-8.289-.945-15.4-1.546-8.569-.725-18.522-1.312-24.468-.813a1.2,1.2,0,0,0-.981,1.726c3.382,6.842,17.292,34.673,24.259,43.789a1.2,1.2,0,0,0,.968.476l27.232-.254A1.2,1.2,0,0,0,2232.251,2160.951Z" transform="translate(-2178.526 -2116.557)" fill="#12263f"/>
          <path id="Trazado_68509" data-name="Trazado 68509" d="M2410.791,2253.319s1.635-6.723.975-9.108-1.937-5.452-6.2-4.771a62.34,62.34,0,0,0-9.283,2.476,2.438,2.438,0,0,0,3.491,2.1l-2.008,1.553s.287,2.488,3.021,1.158l-1.867,2.06a2.176,2.176,0,0,0,3.186.733C2404.121,2248.215,2405.086,2254.128,2410.791,2253.319Z" transform="translate(-2359.901 -2218.828)" fill="url(#linear-gradient-22)"/>
        </g>
        <path id="Trazado_68510" data-name="Trazado 68510" d="M2301.919,2178.589a3.445,3.445,0,1,1-3.446-3.446A3.446,3.446,0,0,1,2301.919,2178.589Z" transform="translate(-2275.563 -2165.354)" fill="#91b3fa"/>
        <path id="Trazado_68511" data-name="Trazado 68511" d="M2258.995,2145.2l-2.39-8.107a2.78,2.78,0,0,0-2.088-1.951c-7.49-1.562-27.99-1.894-28.2-1.9l.013-.916c.846.013,20.795.336,28.37,1.917a3.7,3.7,0,0,1,2.781,2.588l2.39,8.106Z" transform="translate(-2218.334 -2129.693)" fill="#91b3fa"/>
      </g>
      <g id="Grupo_28713" data-name="Grupo 28713" transform="translate(66.781 5.733)">
        <path id="Trazado_68512" data-name="Trazado 68512" d="M2372.07,1790.156c-.233.233-9.837,20.242-9.837,20.242l10.886,5.575,11.758-17.53S2375.973,1786.259,2372.07,1790.156Z" transform="translate(-2359.209 -1781.109)" fill="url(#linear-gradient-23)"/>
        <path id="Trazado_68513" data-name="Trazado 68513" d="M2364.987,1757.662a1.942,1.942,0,0,1-.13,1.618l-5.429,9.6a1.814,1.814,0,0,1-.3.393c-.646.638-2.858,2.494-4.567-.033-1.457-2.154-2.824-4.113-4.289-4.92a1.69,1.69,0,0,0-2.343.818,71.153,71.153,0,0,0-3.716,9.351,1.867,1.867,0,0,0,1.006,2.248,46.094,46.094,0,0,0,10.426,3.227,1.693,1.693,0,0,0,1.642-.74c1.663-2.417,6.351-9.173,7.951-10.863,1.487-1.571,4.23-.979,5.466-.6a1.66,1.66,0,0,0,1.387-.193,4.17,4.17,0,0,0,1.44-6.176,1.913,1.913,0,0,1,.538-2.5,4.2,4.2,0,0,0,1.472-5.782,5.316,5.316,0,0,0-5.865-3.046,1.787,1.787,0,0,1-1.892-1.116,1.165,1.165,0,0,0-.9-.749,1.784,1.784,0,0,1-1.364-2.1,4.821,4.821,0,0,0-2.483-5.406c-4.7-2.739-8.811,1.724-9.857,5.493s4.205,6.431,7.508,6.875C2363.122,1753.384,2364.452,1756.194,2364.987,1757.662Z" transform="translate(-2344.135 -1739.842)" fill="#00223d"/>
        <path id="Trazado_68514" data-name="Trazado 68514" d="M2458.242,1900.47s2.088-6.483,4.761-6.245,4.778,3.064,1.465,6.24C2460.347,1904.416,2458.242,1900.47,2458.242,1900.47Z" transform="translate(-2439.176 -1868.424)" fill="url(#linear-gradient-24)"/>
      </g>
    </g>
  </g>
</svg>
