<svg xmlns="http://www.w3.org/2000/svg" xmlns:xlink="http://www.w3.org/1999/xlink" width="212.755" height="156.029" viewBox="0 0 212.755 156.029">
  <defs>
    <linearGradient id="linear-gradient" x1="0.5" x2="0.5" y2="1" gradientUnits="objectBoundingBox">
      <stop offset="0" stop-color="#fff"/>
      <stop offset="1" stop-color="#d2e6ee"/>
    </linearGradient>
  </defs>
  <g id="Grupo_53057" data-name="Grupo 53057" transform="translate(-487.853 -335.572)">
    <path id="Trazado_97074" data-name="Trazado 97074" d="M798.9,370.889q-.127-.3-.262-.6a29.809,29.809,0,0,0-27.076-17.622h-.312a29.846,29.846,0,0,0-26.834,17.1q-.263.556-.5,1.125a29.935,29.935,0,0,0,0,23.231q.287.678.605,1.338a29.447,29.447,0,0,0,1.826,3.25,29.8,29.8,0,0,0,24.907,13.635h.312a29.838,29.838,0,0,0,26.977-17.4q.187-.405.361-.819a29.937,29.937,0,0,0,0-23.231Zm-3.8,22.626a55.183,55.183,0,0,0-8.72-2.281,58.23,58.23,0,0,0,.039-17.2,54.944,54.944,0,0,0,8.785-2.311q.14.307.271.617a26.212,26.212,0,0,1,0,20.33Q795.291,393.1,795.1,393.515ZM759.5,382.5a53.565,53.565,0,0,1,.6-8.073,82.867,82.867,0,0,0,11.947.842,83.875,83.875,0,0,0,10.693-.669,54.768,54.768,0,0,1-.04,16.06A83.91,83.91,0,0,0,772.046,390a82.822,82.822,0,0,0-11.906.836A53.384,53.384,0,0,1,759.5,382.5Zm22.07-24.065a26.266,26.266,0,0,1,11.829,9.972,52.11,52.11,0,0,1-7.671,1.967,38.7,38.7,0,0,0-2.919-8.479,24.877,24.877,0,0,0-2.356-3.9Q781.018,358.2,781.572,358.439Zm-6.02-.3a17.135,17.135,0,0,1,3.919,5.406,34.707,34.707,0,0,1,2.572,7.4,80.417,80.417,0,0,1-10,.608,79.393,79.393,0,0,1-11.237-.775,34.521,34.521,0,0,1,2.533-7.233,17.122,17.122,0,0,1,3.919-5.406,5.788,5.788,0,0,1,8.291,0Zm-22.613,5.9a26.031,26.031,0,0,1,8.3-5.6q.555-.234,1.116-.441A24.886,24.886,0,0,0,760,361.9a38.482,38.482,0,0,0-2.865,8.244,48.722,48.722,0,0,1-7.48-2.106A26.176,26.176,0,0,1,752.939,364.037Zm-5.6,28.632a26.212,26.212,0,0,1,0-20.33q.221-.52.462-1.028l.132.052a51.917,51.917,0,0,0,8.5,2.431,58.193,58.193,0,0,0,.041,17.677,51.929,51.929,0,0,0-8.539,2.439l-.025.01Q747.609,393.3,747.341,392.669Zm13.9,13.9a26.274,26.274,0,0,1-11.441-9.384,48.943,48.943,0,0,1,7.4-2.064,38.259,38.259,0,0,0,2.8,7.989,24.882,24.882,0,0,0,2.356,3.9Q761.8,406.8,761.241,406.57Zm6.02.3a17.123,17.123,0,0,1-3.919-5.407,34.28,34.28,0,0,1-2.471-6.976,79.478,79.478,0,0,1,11.175-.766,80.391,80.391,0,0,1,9.936.6,34.462,34.462,0,0,1-2.511,7.141,17.136,17.136,0,0,1-3.919,5.407,5.788,5.788,0,0,1-8.291,0Zm22.613-5.9a26.029,26.029,0,0,1-8.3,5.6q-.555.234-1.116.442a24.873,24.873,0,0,0,2.356-3.9,38.48,38.48,0,0,0,2.86-8.223,52.369,52.369,0,0,1,7.588,1.929A26.2,26.2,0,0,1,789.874,400.972Z" transform="translate(-224.966 -15.156)" fill="#f1f1f1"/>
    <g id="Grupo_46671" data-name="Grupo 46671" transform="translate(524.363 372.68)">
      <rect id="Rectángulo_28394" data-name="Rectángulo 28394" width="147.175" height="109.444" rx="2" transform="translate(14.535 0)" fill="#00223d"/>
      <rect id="Rectángulo_28395" data-name="Rectángulo 28395" width="140.536" height="104.507" transform="translate(17.854 3.824)" fill="#fff"/>
      <rect id="Rectángulo_28396" data-name="Rectángulo 28396" width="176.245" height="7.006" transform="translate(0 105.191)" fill="#00223d"/>
      <rect id="Rectángulo_28397" data-name="Rectángulo 28397" width="134.999" height="96.017" transform="translate(20.623 6.045)" fill="#e7eefd"/>
    </g>
    <g id="Grupo_46677" data-name="Grupo 46677" transform="translate(487.853 412.675)">
      <g id="Grupo_46676" data-name="Grupo 46676" transform="translate(0)">
        <path id="Trazado_97075" data-name="Trazado 97075" d="M514.477,1019.639c-.067,1,.322,2.037.042,3-.37,1.281-1.769,1.993-2.363,3.187-.622,1.25-.3,2.893-1.175,3.978-.313.386-.748.654-1.081,1.023a2.652,2.652,0,0,0-.21,3.181,4.007,4.007,0,0,0,3.394,1.412c1.276-.008,2.542-.308,3.817-.248,1.3.062,2.565.5,3.862.453a6.57,6.57,0,0,0,4.644-2.419,11.885,11.885,0,0,0,2.31-4.818,10.521,10.521,0,0,0,.344-2.022c.146-2.662-1.2-5.176-2.762-7.339a7.231,7.231,0,0,0-2.62-2.485C520.174,1015.374,514.708,1016.164,514.477,1019.639Z" transform="translate(-506.833 -1016.039)" fill="#00223d"/>
        <g id="Grupo_46672" data-name="Grupo 46672" transform="translate(16.974 70.213)">
          <path id="Trazado_97076" data-name="Trazado 97076" d="M640.792,1635.7s-.456,4.5.463,5.014c1.665.925,4.736,1.807,4.479,2.6s-7.618.825-7.822.1.62-2.941-.254-7.256Z" transform="translate(-637.658 -1635.702)" fill="#fb9391"/>
          <path id="Trazado_97077" data-name="Trazado 97077" d="M639.728,1686.414a6.509,6.509,0,0,0-.073,1.617c.2.724,7.565.693,7.822-.1.191-.589-1.435-1.253-2.977-1.915C644.134,1686.628,643.357,1687.583,639.728,1686.414Z" transform="translate(-639.401 -1680.314)" fill="#8ec8c8"/>
        </g>
        <g id="Grupo_46673" data-name="Grupo 46673" transform="translate(2.146 70.004)">
          <path id="Trazado_97078" data-name="Trazado 97078" d="M510.95,1633.938s-1.216,4.36-.4,5.02c1.483,1.2,4.359,2.587,3.97,3.327s-7.647-.484-7.725-1.232,1.112-2.793.986-7.193Z" transform="translate(-506.795 -1633.858)" fill="#fb9391"/>
          <path id="Trazado_97079" data-name="Trazado 97079" d="M507.15,1683.388a6.5,6.5,0,0,0-.348,1.581c.078.749,7.337,1.971,7.725,1.232.288-.548-1.2-1.479-2.608-2.394C511.456,1684.349,510.528,1685.158,507.15,1683.388Z" transform="translate(-506.799 -1677.776)" fill="#8ec8c8"/>
        </g>
        <path id="Trazado_97080" data-name="Trazado 97080" d="M664.431,1153.466s1.546,2.071,2.835,2.071,5.67-5.476,5.67-5.476l1.031,1.659s-3.673,8.005-7.022,8.07-5.863-3.672-5.8-3.865,2.19-2.457,2.19-2.457Z" transform="translate(-641.509 -1134.874)" fill="#fb9391"/>
        <path id="Trazado_97081" data-name="Trazado 97081" d="M528.172,1283.4a18.109,18.109,0,0,1,2.9,5.257c.9,2.834-1.491,36.421-1.491,36.421h-3.995s-2.119-29.911-2.119-30.176c0-1.045-7.866,30.176-7.866,30.176h-3.988s2.158-36.556,7.167-41.678l4.687.29Z" transform="translate(-508.922 -1253.103)" fill="#00223d"/>
        <path id="Trazado_97082" data-name="Trazado 97082" d="M584.134,1269.283v1.256s-2.384,2.319-9.39,0l-.016-1.256,6.153-.387Z" transform="translate(-564.883 -1240.246)" fill="#060633"/>
        <path id="Trazado_97083" data-name="Trazado 97083" d="M525.79,1132.133a7.688,7.688,0,0,1,3.743.778c.9.622,2.891,4.131,2.891,4.131l-2.284,1.942a2.826,2.826,0,0,1-1.582,3.18l-.385,5.122a10.974,10.974,0,0,1-9.406,0s-1.031-9.6-2-8.762a12.714,12.714,0,0,0-1.546,1.579l-3.608-3.576s3.933-3.94,5.235-4.558a6.3,6.3,0,0,1,5.523-.055Z" transform="translate(-508.922 -1118.249)" fill="#fff"/>
        <path id="Trazado_97084" data-name="Trazado 97084" d="M493.815,1183.044s-2.094,2.445-1.853,3.121,3.939,6.247,4.434,7.3a2.844,2.844,0,0,1,.35,1.684l-1.884.918a4.529,4.529,0,0,0-.508-1.929c-.41-.438-6.643-6.865-6.5-8.895s3.006-5.131,3.006-5.131Z" transform="translate(-487.853 -1161.525)" fill="#fb9391"/>
        <g id="Grupo_46674" data-name="Grupo 46674" transform="translate(9.024 0.186)">
          <path id="Trazado_97085" data-name="Trazado 97085" d="M646.339,1066.111s.273-.536.557-.363c.724.441.083,1.209-.344,1.408Z" transform="translate(-637.405 -1060.272)" fill="#fb9391"/>
          <path id="Trazado_97086" data-name="Trazado 97086" d="M577.049,1019.55a4.089,4.089,0,0,0-2.785,6.1,17.67,17.67,0,0,0,1.986,3.2,4.069,4.069,0,0,1,1.035,2.794l-.029,1.04c2.5.912,3.474.285,3.474.285l-.347-3.036h0c2.521-.6,1.642-5.275,1.482-6.67h0c0-.053-.008-.1-.014-.157A4.089,4.089,0,0,0,577.049,1019.55Z" transform="translate(-572.993 -1019.279)" fill="#fb9391"/>
          <path id="Trazado_97087" data-name="Trazado 97087" d="M571.7,1022.1a17,17,0,0,0-1.706,2.866c-.047.113-.374.959-.242,1.037a5.269,5.269,0,0,1-1.665-1.832,4.26,4.26,0,0,1,3.007-6.386,4.5,4.5,0,0,1,4.172,1.151,7.411,7.411,0,0,1,1.438,3.877c-.285-1.527-2.486-2.439-3.788-2.841.038.012-.771,1.435-.814,1.506C571.972,1021.687,571.837,1021.893,571.7,1022.1Z" transform="translate(-567.494 -1017.683)" fill="#00223d"/>
          <path id="Trazado_97088" data-name="Trazado 97088" d="M578.667,1080.26a.606.606,0,0,0-.349-.25,1.024,1.024,0,0,0-1.1.231c-.442.556.713,1.764,1.63.993C578.844,1081.234,579.1,1080.918,578.667,1080.26Z" transform="translate(-576.027 -1072.892)" fill="#fb9391"/>
          <path id="Trazado_97089" data-name="Trazado 97089" d="M634.86,1067.494a.357.357,0,1,0-.351.363A.357.357,0,0,0,634.86,1067.494Z" transform="translate(-626.594 -1061.539)" fill="#060633"/>
          <path id="Trazado_97090" data-name="Trazado 97090" d="M605.7,1074.181a.357.357,0,1,0-.351.363A.357.357,0,0,0,605.7,1074.181Z" transform="translate(-600.742 -1067.469)" fill="#060633"/>
          <path id="Trazado_97091" data-name="Trazado 97091" d="M622.1,1090.053s-.47-.339-.65-.283a.533.533,0,0,0-.273.28.412.412,0,0,0-.338-.212c-.222,0-.681.617-.681.617s.662.956,1.33.811.605-1.163.605-1.163Z" transform="translate(-614.186 -1081.597)" fill="#fa7267"/>
          <path id="Trazado_97092" data-name="Trazado 97092" d="M600.134,1067.5a.148.148,0,0,1-.127-.248,1.78,1.78,0,0,1,1.083-.495.148.148,0,0,1,.16.135.152.152,0,0,1-.135.16,1.484,1.484,0,0,0-.89.4A.147.147,0,0,1,600.134,1067.5Z" transform="translate(-596.288 -1061.194)" fill="#060633"/>
          <path id="Trazado_97093" data-name="Trazado 97093" d="M630.458,1060a.149.149,0,0,1-.065-.272,1.765,1.765,0,0,1,1.169-.225.148.148,0,1,1-.046.293,1.477,1.477,0,0,0-.96.18A.149.149,0,0,1,630.458,1060Z" transform="translate(-623.207 -1054.749)" fill="#060633"/>
          <path id="Trazado_97094" data-name="Trazado 97094" d="M623.982,1072.154a.635.635,0,0,0,.507-.625.124.124,0,0,0-.038-.084,1.846,1.846,0,0,1-.467-1.1.125.125,0,1,0-.25.012,2.1,2.1,0,0,0,.5,1.225c-.013.1-.089.331-.489.357a.125.125,0,1,0,.016.249A1.083,1.083,0,0,0,623.982,1072.154Z" transform="translate(-617.27 -1064.273)" fill="#ea6868"/>
          <path id="Trazado_97095" data-name="Trazado 97095" d="M622.1,1092.314l-1.942.4a2.326,2.326,0,0,0,1.254.4C621.934,1093.035,622.1,1092.314,622.1,1092.314Z" transform="translate(-614.186 -1083.858)" fill="#fafafc"/>
        </g>
        <g id="Grupo_46675" data-name="Grupo 46675" transform="translate(5.984 30.846)">
          <path id="Trazado_97096" data-name="Trazado 97096" d="M542.538,1288.271s1.636,2.3,1.47,2.829-.867,2.035-.922,2.3a12.974,12.974,0,0,1-.166,1.906c-.145.221-.493-1.525-.493-1.525s.088,1.531-.179,1.627-.5-1.537-.5-1.537.139,1.548-.123,1.557-.416-1.494-.416-1.494.091,1.2-.117,1.207a3.535,3.535,0,0,1-.263-2.659,3.42,3.42,0,0,0,.677-2.511Z" transform="translate(-540.665 -1288.271)" fill="#fb9391"/>
          <path id="Trazado_97097" data-name="Trazado 97097" d="M565.778,1302.87a6.909,6.909,0,0,1,.823,1.884c.01.52.16,1.575-.063,1.572s-.527-1.464-.687-1.526-.164-.722-.164-.722Z" transform="translate(-562.852 -1301.216)" fill="#fb9391"/>
        </g>
        <path id="Trazado_97098" data-name="Trazado 97098" d="M583.254,1205.834a3.009,3.009,0,0,1-2.575-1.83.067.067,0,0,1,.124-.051,2.872,2.872,0,0,0,2.45,1.746,2.694,2.694,0,0,0,2.4-1.268.067.067,0,0,1,.119.061A2.836,2.836,0,0,1,583.254,1205.834Z" transform="translate(-570.157 -1182.624)" fill="#7c9af2"/>
        <path id="Trazado_97099" data-name="Trazado 97099" d="M665.866,1181.8a.067.067,0,0,1-.067-.059,3.844,3.844,0,0,0-1.093-2.1.067.067,0,1,1,.092-.1,3.907,3.907,0,0,1,1.135,2.185.067.067,0,0,1-.059.074Z" transform="translate(-644.648 -1161)" fill="#7c9af2"/>
        <path id="Trazado_97100" data-name="Trazado 97100" d="M619.312,1278.587a1.182,1.182,0,1,1,1.182-1.182A1.183,1.183,0,0,1,619.312,1278.587Zm0-1.827a.645.645,0,1,0,.645.645A.646.646,0,0,0,619.312,1276.76Z" transform="translate(-603.369 -1246.742)" fill="#bdd1f9"/>
      </g>
      <path id="Trazado_97101" data-name="Trazado 97101" d="M771.781,1124.958c.084-.117,1.372-1.958,1.372-1.958l1.614,2.272-2.177,1.956Z" transform="translate(-739.61 -1110.88)" fill="#fb9391"/>
      <path id="Trazado_97102" data-name="Trazado 97102" d="M764.084,1122.018a3.5,3.5,0,0,1,.26-1.844c.4-.6,1.2-2.142,1.439-1.64s-.433,1.917-.4,2.292,1.476,1.535-.266,2.851S764.084,1122.018,764.084,1122.018Z" transform="translate(-732.657 -1106.833)" fill="#fb9391"/>
    </g>
    <g id="Grupo_46680" data-name="Grupo 46680" transform="translate(640.237 335.572)">
      <path id="Trazado_97103" data-name="Trazado 97103" d="M2029.331,806.8s-.432,3.026.648,4.539,3.314,3.675,2.738,4.251-6.989-2.666-6.845-3.386,1.153-3.675.937-5.4Z" transform="translate(-2003.984 -753.411)" fill="#fb9391"/>
      <path id="Trazado_97104" data-name="Trazado 97104" d="M2026.261,841.575c-.176.667-.337,1.207-.388,1.464-.144.72,6.268,3.963,6.845,3.386.427-.427-.69-1.727-1.738-2.987C2030.39,843.809,2028.9,844.2,2026.261,841.575Z" transform="translate(-2003.984 -784.241)" fill="#060633"/>
      <path id="Trazado_97105" data-name="Trazado 97105" d="M1973.469,811.124s-.432,3.026.648,4.539,3.314,3.675,2.738,4.251-6.989-2.666-6.845-3.386,1.153-3.675.937-5.4Z" transform="translate(-1954.452 -757.24)" fill="#fb9391"/>
      <path id="Trazado_97106" data-name="Trazado 97106" d="M1858.479,336.746a5.251,5.251,0,0,1,1.793,5c-.3,1.486-1.255,2.891-1.015,4.387a12.99,12.99,0,0,0,.507,1.624,5.114,5.114,0,0,1,.008,2.889,2.95,2.95,0,0,1-1.085,1.652,3.8,3.8,0,0,1-1.281.485,8.857,8.857,0,0,1-2.956.295,3.888,3.888,0,0,1-2.61-1.286c-.425-.517-.72-1.212-1.347-1.448a2.344,2.344,0,0,0-.676-.112,9.592,9.592,0,0,0-2.655.071,16.208,16.208,0,0,1-2.742.707,3,3,0,0,1-1.475-5.674c.954-.488,2.222-.51,2.848-1.379.526-.729.36-1.762.762-2.566.7-1.4,2.676-1.487,3.876-2.489,1.162-.97,1.694-2.418,3.175-3.038A5.133,5.133,0,0,1,1858.479,336.746Z" transform="translate(-1840.344 -335.572)" fill="#00223d"/>
      <path id="Trazado_97107" data-name="Trazado 97107" d="M1862.823,592.335s-1.517,7.371.9,8.409,10.538,2.866,11.023,4.353,0,13.612,0,13.612l3.864.115s1.208-13.694,1.1-15.023c-.26-3.056-1.1-3.819-1.1-3.819a5.814,5.814,0,0,1,2.28,3.771c.216,1.172.219,13.833.219,13.833l3.862.114s2.646-16.906-.307-19.231-11.048-5.692-11.048-5.692Z" transform="translate(-1858.996 -563.242)" fill="#167377"/>
      <path id="Trazado_97108" data-name="Trazado 97108" d="M1972.236,503.615l1.777,7.17-2.786.673a24.69,24.69,0,0,1-2.45-6.064C1968.153,502.475,1972.236,503.615,1972.236,503.615Z" transform="translate(-1953.304 -484.38)" fill="#fb9391"/>
      <path id="Trazado_97109" data-name="Trazado 97109" d="M1847.937,434.623s3.1.72,4.467,2.522,2.234,5.692,2.234,5.692l-2.954.937s-.144,2.162-1.513,2.738a13.55,13.55,0,0,0,0,6.268s-7.277,2.161-11.744,0l-.36-9.8-2.738-1.153s1.441-6.268,4.827-7.205A12.768,12.768,0,0,1,1847.937,434.623Z" transform="translate(-1835.033 -422.869)" fill="#fff"/>
      <path id="Trazado_97110" data-name="Trazado 97110" d="M1833.67,505.331l3.777,1.49s-.9,3.082-.61,4.647c.46,2.493,3.909,5.017,5.6,4.909l-.077,1.5s-8.41-.532-9.347-5.251S1833.67,505.331,1833.67,505.331Z" transform="translate(-1832.721 -486.096)" fill="#fb9391"/>
      <path id="Trazado_97111" data-name="Trazado 97111" d="M1972.233,500.84h0a.05.05,0,0,1-.049-.051,5.247,5.247,0,0,0-.892-2.384.05.05,0,0,1,.083-.056,5.239,5.239,0,0,1,.909,2.443A.05.05,0,0,1,1972.233,500.84Z" transform="translate(-1955.582 -479.885)" fill="#485f73"/>
      <path id="Trazado_97112" data-name="Trazado 97112" d="M1893.57,521.786a4.12,4.12,0,0,1-2.708-1.11.05.05,0,1,1,.065-.076,3.579,3.579,0,0,0,4.512.526.05.05,0,0,1,.061.079A3.455,3.455,0,0,1,1893.57,521.786Z" transform="translate(-1884.258 -499.624)" fill="#485f73"/>
      <path id="Trazado_97113" data-name="Trazado 97113" d="M1874.542,491.254a.05.05,0,0,1-.017,0l-.5-.18a.05.05,0,1,1,.034-.094l.452.162,1.1-3.589a.049.049,0,0,1,.063-.033.05.05,0,0,1,.033.062l-1.12,3.639a.05.05,0,0,1-.048.035Z" transform="translate(-1869.316 -470.299)" fill="#485f73"/>
      <path id="Trazado_97114" data-name="Trazado 97114" d="M1988.439,401.535s.465-.336.631-.065c.422.69-.457,1.062-.905,1.045Z" transform="translate(-1970.552 -393.91)" fill="#ea6868"/>
      <path id="Trazado_97115" data-name="Trazado 97115" d="M1933.538,341.1a3.9,3.9,0,0,0-5.022,3.964,16.848,16.848,0,0,0,.29,3.582,3.881,3.881,0,0,1-.339,2.822l-.189.345a.79.79,0,0,0,.177.978,2.829,2.829,0,0,0,2.071.826.766.766,0,0,0,.655-.495l.662-1.756h0c2.4.592,3.692-3.762,4.164-5.015h0c.02-.046.039-.093.057-.14A3.9,3.9,0,0,0,1933.538,341.1Z" transform="translate(-1917.364 -340.327)" fill="#fb9391"/>
      <path id="Trazado_97116" data-name="Trazado 97116" d="M1929.387,342.094a16.6,16.6,0,0,0-1.777,1.008,4.215,4.215,0,0,0-1.594,1.424,5.028,5.028,0,0,1-.615-2.28,3.671,3.671,0,0,1,.03-1.1,4.077,4.077,0,0,1,.713-1.383,4.258,4.258,0,0,1,1.383-1.445,3.242,3.242,0,0,1,1.289-.322,5.487,5.487,0,0,1,3.023.593,3.951,3.951,0,0,1,1.937,2.343,6.9,6.9,0,0,1-.479,3.931,3.947,3.947,0,0,0-.286-1.677,3.343,3.343,0,0,0-.459-1.011,16.389,16.389,0,0,1-1.207-1.419A4.617,4.617,0,0,1,1929.387,342.094Z" transform="translate(-1914.876 -337.705)" fill="#00223d"/>
      <path id="Trazado_97117" data-name="Trazado 97117" d="M1925.811,384.538a.579.579,0,0,0-.187-.365.978.978,0,0,0-1.037-.285c-.617.279-.164,1.808.95,1.553C1925.537,385.442,1925.888,385.283,1925.811,384.538Z" transform="translate(-1913.931 -378.358)" fill="#fb9391"/>
      <path id="Trazado_97118" data-name="Trazado 97118" d="M1981.494,400.323a.34.34,0,1,0-.456.155A.34.34,0,0,0,1981.494,400.323Z" transform="translate(-1964.064 -392.551)" fill="#050521"/>
      <path id="Trazado_97119" data-name="Trazado 97119" d="M1954.091,391.576a.34.34,0,1,0-.456.155A.34.34,0,0,0,1954.091,391.576Z" transform="translate(-1939.766 -384.795)" fill="#050521"/>
      <path id="Trazado_97120" data-name="Trazado 97120" d="M1957.423,415.123s-.212-.289-.392-.3a.506.506,0,0,0-.334.165.393.393,0,0,0-.237-.3,4.9,4.9,0,0,0-.815-.09s.252,1.024.9,1.064a.854.854,0,0,0,.859-.519Z" transform="translate(-1941.716 -405.65)" fill="#dd4e4e"/>
      <path id="Trazado_97121" data-name="Trazado 97121" d="M1955.48,413.829a2.014,2.014,0,0,1-1.256-.8.048.048,0,0,1,.012-.067.048.048,0,0,1,.067.012c.033.048.832,1.173,1.869.615a.048.048,0,0,1,.046.084A1.274,1.274,0,0,1,1955.48,413.829Z" transform="translate(-1940.449 -404.184)" fill="#050521"/>
      <path id="Trazado_97122" data-name="Trazado 97122" d="M1950.753,386.633a.142.142,0,0,1,.017-.266,1.7,1.7,0,0,1,1.129.126.142.142,0,0,1,.065.189.145.145,0,0,1-.189.065,1.415,1.415,0,0,0-.925-.108A.142.142,0,0,1,1950.753,386.633Z" transform="translate(-1937.304 -380.572)" fill="#0b0755"/>
      <path id="Trazado_97123" data-name="Trazado 97123" d="M1980.546,394.608a.141.141,0,0,1,.065-.258,1.68,1.68,0,0,1,1.087.326.141.141,0,0,1,.03.2.143.143,0,0,1-.2.03,1.408,1.408,0,0,0-.891-.272A.139.139,0,0,1,1980.546,394.608Z" transform="translate(-1963.741 -387.686)" fill="#0b0755"/>
      <path id="Trazado_97124" data-name="Trazado 97124" d="M1964.665,396.789a.839.839,0,0,1-.334-.078.05.05,0,1,1,.04-.092c.444.193.633-.072.674-.143a1.91,1.91,0,0,1,.1-1.239.05.05,0,0,1,.091.042,1.825,1.825,0,0,0-.085,1.186.051.051,0,0,1,0,.037A.541.541,0,0,1,1964.665,396.789Z" transform="translate(-1949.392 -388.451)" fill="#ea6868"/>
      <path id="Trazado_97125" data-name="Trazado 97125" d="M1917.818,601.631a1.837,1.837,0,0,0,.824.253c.462.02,1.827-.1,2.048-.072a10.757,10.757,0,0,0,1.531.406c.212-.051-1.049-.812-1.049-.812s1.167.5,1.316.317-1.055-.823-1.055-.823,1.185.361,1.266.161-1.065-.562-1.065-.562,1.084.161,1.145,0a4.092,4.092,0,0,0-2.169-.7c-.663.04-2.715.34-2.715.34Z" transform="translate(-1908.176 -569.855)" fill="#fb9391"/>
      <path id="Trazado_97126" data-name="Trazado 97126" d="M1970.4,845.9c-.176.667-.337,1.207-.388,1.464-.144.72,6.269,3.963,6.845,3.386.427-.427-.691-1.727-1.738-2.987C1974.528,848.129,1973.035,848.523,1970.4,845.9Z" transform="translate(-1954.452 -788.071)" fill="#060633"/>
      <g id="Grupo_46678" data-name="Grupo 46678" transform="translate(6.636 24.366)">
        <path id="Trazado_97127" data-name="Trazado 97127" d="M1961.84,551.732l-12.7-1.12-4.8,8.943,12.7,1.12Z" transform="translate(-1938.323 -550.612)" fill="#060633"/>
        <rect id="Rectángulo_28398" data-name="Rectángulo 28398" width="8.538" height="0.564" transform="translate(0.05 7.852) rotate(5.037)" fill="#060633"/>
      </g>
      <g id="Grupo_46679" data-name="Grupo 46679" transform="translate(11.546 5.397)">
        <path id="Trazado_97128" data-name="Trazado 97128" d="M1945.982,385.378a1.147,1.147,0,1,1,1.627-.745h0a1.148,1.148,0,0,1-1.627.745Zm1-1.988a1.077,1.077,0,0,0-1.526.7,1.077,1.077,0,1,0,2.088.527h0A1.078,1.078,0,0,0,1946.979,383.39Z" transform="translate(-1944.134 -383.206)" fill="#060633"/>
        <path id="Trazado_97129" data-name="Trazado 97129" d="M1974.357,393.868a1.147,1.147,0,1,1,1.628-.745h0a1.147,1.147,0,0,1-1.393.832A1.162,1.162,0,0,1,1974.357,393.868Zm1-1.988a1.1,1.1,0,0,0-.22-.082,1.077,1.077,0,1,0,.781,1.307h0a1.078,1.078,0,0,0-.56-1.226Z" transform="translate(-1969.294 -390.734)" fill="#060633"/>
        <path id="Trazado_97130" data-name="Trazado 97130" d="M1934.621,385.349l.025-.066,1.3.49-.025.066Z" transform="translate(-1934.621 -385.047)" fill="#060633"/>
        <path id="Trazado_97131" data-name="Trazado 97131" d="M1964.532,396.345l-.018-.068a1.011,1.011,0,0,1,1.135.326l-.059.038A.926.926,0,0,0,1964.532,396.345Z" transform="translate(-1961.127 -394.752)" fill="#060633"/>
      </g>
      <path id="Trazado_97132" data-name="Trazado 97132" d="M2023.7,591.289a.414.414,0,1,1,.279.556A.441.441,0,0,1,2023.7,591.289Z" transform="translate(-2002.045 -561.996)" fill="#fff"/>
    </g>
    <g id="Grupo_46681" data-name="Grupo 46681" transform="translate(520.152 406.404)">
      <rect id="Rectángulo_28399" data-name="Rectángulo 28399" width="12.771" height="65.97" transform="translate(0 12.542)" fill="#7d6eb2"/>
      <rect id="Rectángulo_28400" data-name="Rectángulo 28400" width="4.639" height="66.079" transform="translate(4.222 12.542)" fill="#6756a3"/>
      <path id="Trazado_97133" data-name="Trazado 97133" d="M779.451,960.7l-6.542,12.542H785.68Z" transform="translate(-772.909 -960.696)" fill="#fff"/>
      <path id="Trazado_97134" data-name="Trazado 97134" d="M805.048,960.7l-3.271,6.271h6.385Z" transform="translate(-798.506 -960.696)" fill="#00223d"/>
      <rect id="Rectángulo_28401" data-name="Rectángulo 28401" width="12.771" height="7.213" transform="translate(0 77.984)" fill="#00223d"/>
      <rect id="Rectángulo_28402" data-name="Rectángulo 28402" width="12.771" height="3.07" transform="translate(0 75.441)" fill="#fff"/>
    </g>
    <g id="Grupo_46688" data-name="Grupo 46688" transform="translate(549.643 363.055)">
      <rect id="Rectángulo_28403" data-name="Rectángulo 28403" width="82.209" height="105.984" transform="translate(0)" fill="#fff"/>
      <rect id="Rectángulo_28404" data-name="Rectángulo 28404" width="82.209" height="7.776" transform="translate(0)" fill="#12263f"/>
      <g id="Grupo_46682" data-name="Grupo 46682" transform="translate(3.325 2.912)">
        <path id="Trazado_97135" data-name="Trazado 97135" d="M1062.52,604.75a.93.93,0,1,1,.93.93A.93.93,0,0,1,1062.52,604.75Z" transform="translate(-1062.52 -603.82)" fill="#dde7fe"/>
        <path id="Trazado_97136" data-name="Trazado 97136" d="M1096.958,604.75a.93.93,0,1,1,.93.93A.93.93,0,0,1,1096.958,604.75Z" transform="translate(-1093.056 -603.82)" fill="#dde7fe"/>
        <path id="Trazado_97137" data-name="Trazado 97137" d="M1131.4,604.75a.93.93,0,1,1,.93.93A.93.93,0,0,1,1131.4,604.75Z" transform="translate(-1123.592 -603.82)" fill="#dde7fe"/>
      </g>
      <g id="Grupo_46684" data-name="Grupo 46684" transform="translate(6.515 13.947)">
        <rect id="Rectángulo_28405" data-name="Rectángulo 28405" width="23.304" height="23.304" fill="url(#linear-gradient)"/>
        <g id="Grupo_46683" data-name="Grupo 46683" transform="translate(1.75 4.669)">
          <path id="Trazado_97138" data-name="Trazado 97138" d="M1106.125,786.265l6.883-12.41,5.061,6.9L1120.6,778l5.355,8.269Z" transform="translate(-1106.125 -770.293)" fill="#fff"/>
          <path id="Trazado_97139" data-name="Trazado 97139" d="M1195.821,744.2a1.781,1.781,0,1,1,1.782,1.781A1.782,1.782,0,0,1,1195.821,744.2Z" transform="translate(-1185.657 -742.414)" fill="#fff"/>
        </g>
      </g>
      <rect id="Rectángulo_28406" data-name="Rectángulo 28406" width="16.55" height="2.497" transform="translate(58.527 13.922)" fill="#7d6eb2"/>
      <rect id="Rectángulo_28407" data-name="Rectángulo 28407" width="20.297" height="2.497" transform="translate(35.274 13.922)" fill="#7d6eb2"/>
      <g id="Grupo_46685" data-name="Grupo 46685" transform="translate(35.274 21.322)">
        <rect id="Rectángulo_28408" data-name="Rectángulo 28408" width="23.657" height="1.142" fill="#f1f1f1"/>
        <rect id="Rectángulo_28409" data-name="Rectángulo 28409" width="7.085" height="1.142" transform="translate(25.131)" fill="#f1f1f1"/>
        <rect id="Rectángulo_28410" data-name="Rectángulo 28410" width="9.637" height="1.142" transform="translate(0 3.54)" fill="#f1f1f1"/>
        <rect id="Rectángulo_28411" data-name="Rectángulo 28411" width="12.782" height="1.142" transform="translate(10.614 3.54)" fill="#f1f1f1"/>
        <rect id="Rectángulo_28412" data-name="Rectángulo 28412" width="7.085" height="1.142" transform="translate(25.131 3.54)" fill="#f1f1f1"/>
        <rect id="Rectángulo_28413" data-name="Rectángulo 28413" width="12.669" height="1.142" transform="translate(0 6.601)" fill="#f1f1f1"/>
        <rect id="Rectángulo_28414" data-name="Rectángulo 28414" width="19.994" height="1.142" transform="translate(14.686 6.601)" fill="#f1f1f1"/>
      </g>
      <g id="Grupo_46686" data-name="Grupo 46686" transform="translate(35.274 32.568)">
        <rect id="Rectángulo_28415" data-name="Rectángulo 28415" width="23.657" height="1.142" fill="#f1f1f1"/>
        <rect id="Rectángulo_28416" data-name="Rectángulo 28416" width="7.085" height="1.142" transform="translate(25.131)" fill="#f1f1f1"/>
        <rect id="Rectángulo_28417" data-name="Rectángulo 28417" width="9.637" height="1.142" transform="translate(0 3.54)" fill="#f1f1f1"/>
        <rect id="Rectángulo_28418" data-name="Rectángulo 28418" width="12.782" height="1.142" transform="translate(10.614 3.54)" fill="#f1f1f1"/>
      </g>
      <g id="Grupo_46687" data-name="Grupo 46687" transform="translate(6.326 50.219)">
        <rect id="Rectángulo_28419" data-name="Rectángulo 28419" width="39.493" height="1.506" fill="#f1f1f1"/>
        <rect id="Rectángulo_28420" data-name="Rectángulo 28420" width="11.828" height="1.506" transform="translate(41.954)" fill="#f1f1f1"/>
        <rect id="Rectángulo_28421" data-name="Rectángulo 28421" width="16.088" height="1.506" transform="translate(0 4.669)" fill="#f1f1f1"/>
        <rect id="Rectángulo_28422" data-name="Rectángulo 28422" width="21.339" height="1.506" transform="translate(17.72 4.669)" fill="#f1f1f1"/>
        <rect id="Rectángulo_28423" data-name="Rectángulo 28423" width="11.828" height="1.506" transform="translate(41.954 4.669)" fill="#f1f1f1"/>
        <rect id="Rectángulo_28424" data-name="Rectángulo 28424" width="21.149" height="1.506" transform="translate(0 8.706)" fill="#f1f1f1"/>
        <rect id="Rectángulo_28425" data-name="Rectángulo 28425" width="33.379" height="1.506" transform="translate(24.517 8.706)" fill="#f1f1f1"/>
      </g>
      <rect id="Rectángulo_28426" data-name="Rectángulo 28426" width="60.205" height="34.897" transform="translate(7.285 64.616)" fill="url(#linear-gradient)"/>
      <path id="Trazado_97140" data-name="Trazado 97140" d="M1303.186,1223.484v17.879l13.588-8.939Z" transform="translate(-1272.592 -1150.36)" fill="#12263f"/>
      <rect id="Rectángulo_28427" data-name="Rectángulo 28427" width="24.335" height="2.08" transform="translate(6.509 43.875)" fill="#00223d"/>
      <rect id="Rectángulo_28428" data-name="Rectángulo 28428" width="19.134" height="2.08" transform="translate(33.721 43.875)" fill="#00223d"/>
    </g>
    <g id="Grupo_46689" data-name="Grupo 46689" transform="translate(651.168 403.389)">
      <rect id="Rectángulo_28429" data-name="Rectángulo 28429" width="22.74" height="1.017" fill="#bdd1f9"/>
      <rect id="Rectángulo_28430" data-name="Rectángulo 28430" width="9.899" height="1.017" transform="translate(0 3.375)" fill="#bdd1f9"/>
      <rect id="Rectángulo_28431" data-name="Rectángulo 28431" width="11.37" height="1.017" transform="translate(11.37 3.375)" fill="#bdd1f9"/>
      <rect id="Rectángulo_28432" data-name="Rectángulo 28432" width="13.712" height="1.017" transform="translate(0 6.419)" fill="#bdd1f9"/>
      <rect id="Rectángulo_28433" data-name="Rectángulo 28433" width="7.423" height="1.017" transform="translate(15.317 6.419)" fill="#bdd1f9"/>
      <rect id="Rectángulo_28434" data-name="Rectángulo 28434" width="10.414" height="1.017" transform="translate(0 9.776)" fill="#bdd1f9"/>
      <rect id="Rectángulo_28435" data-name="Rectángulo 28435" width="9.666" height="1.017" transform="translate(13.073 9.776)" fill="#bdd1f9"/>
    </g>
    <g id="Grupo_46690" data-name="Grupo 46690" transform="translate(643.595 422.275)">
      <rect id="Rectángulo_28436" data-name="Rectángulo 28436" width="30.313" height="1.017" fill="#bdd1f9"/>
      <rect id="Rectángulo_28437" data-name="Rectángulo 28437" width="13.195" height="1.017" transform="translate(0 3.375)" fill="#bdd1f9"/>
      <rect id="Rectángulo_28438" data-name="Rectángulo 28438" width="15.156" height="1.017" transform="translate(15.156 3.375)" fill="#bdd1f9"/>
      <rect id="Rectángulo_28439" data-name="Rectángulo 28439" width="18.279" height="1.017" transform="translate(0 6.419)" fill="#bdd1f9"/>
      <rect id="Rectángulo_28440" data-name="Rectángulo 28440" width="9.895" height="1.017" transform="translate(20.418 6.419)" fill="#bdd1f9"/>
      <rect id="Rectángulo_28441" data-name="Rectángulo 28441" width="13.882" height="1.017" transform="translate(0 9.776)" fill="#bdd1f9"/>
      <rect id="Rectángulo_28442" data-name="Rectángulo 28442" width="12.886" height="1.017" transform="translate(17.427 9.776)" fill="#bdd1f9"/>
    </g>
    <g id="Grupo_46691" data-name="Grupo 46691" transform="translate(616.86 396.531)">
      <path id="Trazado_97141" data-name="Trazado 97141" d="M1656.389,887.409c0-7.646-6.712-13.844-14.991-13.844s-14.992,6.2-14.992,13.844a13.26,13.26,0,0,0,4.15,9.561,11.934,11.934,0,0,1,3.669,8.575h0a4.746,4.746,0,0,0,4.746,4.746h4.855a4.746,4.746,0,0,0,4.745-4.746h0a11.936,11.936,0,0,1,3.668-8.575A13.259,13.259,0,0,0,1656.389,887.409Z" transform="translate(-1626.406 -873.565)" fill="#f6c343"/>
      <path id="Trazado_97142" data-name="Trazado 97142" d="M1780.525,1001.568a.177.177,0,0,1-.176-.167c-.083-1.543,2.257-25.654,2.356-26.679a.176.176,0,1,1,.351.034c-.024.251-2.437,25.11-2.355,26.626a.176.176,0,0,1-.167.186Z" transform="translate(-1762.904 -963.118)" fill="#060633"/>
      <path id="Trazado_97143" data-name="Trazado 97143" d="M1714.509,1001.568h-.01a.177.177,0,0,1-.167-.186c.082-1.517-2.331-26.376-2.355-26.626a.176.176,0,1,1,.351-.034c.1,1.026,2.439,25.136,2.356,26.679A.176.176,0,0,1,1714.509,1001.568Z" transform="translate(-1702.281 -963.118)" fill="#060633"/>
      <path id="Trazado_97144" data-name="Trazado 97144" d="M1719.615,987.248a2.185,2.185,0,0,1-1.323-.467,1.474,1.474,0,0,1-.994.3,1.743,1.743,0,0,1-1.292-.918,14.1,14.1,0,0,1-.8-2.546.088.088,0,1,1,.173-.037,14.113,14.113,0,0,0,.779,2.494,1.569,1.569,0,0,0,1.155.832,1.291,1.291,0,0,0,.839-.238l0,0a3.389,3.389,0,0,1-.974-2.011,2.656,2.656,0,0,1,.279-1.832,1.07,1.07,0,0,1,.484-.445,1.033,1.033,0,0,1,1.23.575,2.6,2.6,0,0,1,.151,1.385,4.345,4.345,0,0,1-.449,1.8,2.067,2.067,0,0,1-.437.53,1.855,1.855,0,0,0,1.794.282,1.677,1.677,0,0,0,.619-.466,1.309,1.309,0,0,1-.512-.55,2.143,2.143,0,0,1-.17-.822,7.513,7.513,0,0,1,.264-2.418.088.088,0,0,1,.058-.06.661.661,0,0,1,.7.269,1.614,1.614,0,0,1,.251.68,4.861,4.861,0,0,1,.052,1.973,2.518,2.518,0,0,1-.376.868,1.462,1.462,0,0,0,.993.054,1.705,1.705,0,0,0,.508-.26,2.632,2.632,0,0,1-.262-.537,5.363,5.363,0,0,1,.107-3.877.087.087,0,0,1,.052-.049.874.874,0,0,1,.973.4,2.128,2.128,0,0,1,.27,1.016,4.889,4.889,0,0,1-.193,2.022,2.545,2.545,0,0,1-.7,1.052.9.9,0,0,0,.613.368.921.921,0,0,0,.526-.135,1.284,1.284,0,0,0,.6-1.27.088.088,0,1,1,.174-.028,1.447,1.447,0,0,1-.684,1.45,1.075,1.075,0,0,1-.63.159,1.061,1.061,0,0,1-.738-.432,1.881,1.881,0,0,1-.56.286,1.64,1.64,0,0,1-1.153-.079,1.865,1.865,0,0,1-.709.544A1.745,1.745,0,0,1,1719.615,987.248Zm-1.383-4.755a.586.586,0,0,0-.226.044.9.9,0,0,0-.4.375,2.521,2.521,0,0,0-.255,1.712,3.213,3.213,0,0,0,.919,1.906l.027.024a1.891,1.891,0,0,0,.422-.5,4.191,4.191,0,0,0,.427-1.732,2.464,2.464,0,0,0-.134-1.292A.94.94,0,0,0,1718.232,982.494Zm2.355.3a7.348,7.348,0,0,0-.245,2.312,2,2,0,0,0,.153.755,1.145,1.145,0,0,0,.461.487,2.332,2.332,0,0,0,.363-.828,4.691,4.691,0,0,0-.053-1.9,1.474,1.474,0,0,0-.219-.608A.514.514,0,0,0,1720.587,982.793Zm2.021-.88a5.19,5.19,0,0,0-.087,3.71,2.409,2.409,0,0,0,.236.484,2.376,2.376,0,0,0,.641-.968,4.72,4.72,0,0,0,.183-1.949,1.983,1.983,0,0,0-.241-.933A.72.72,0,0,0,1722.608,981.913Z" transform="translate(-1705.143 -969.465)" fill="#060633"/>
      <path id="Rectángulo_28443" data-name="Rectángulo 28443" d="M0,0H12.051a0,0,0,0,1,0,0V0A3.443,3.443,0,0,1,8.608,3.443H3.443A3.443,3.443,0,0,1,0,0V0A0,0,0,0,1,0,0Z" transform="translate(8.966 40.886)" fill="url(#linear-gradient)"/>
      <path id="Trazado_97145" data-name="Trazado 97145" d="M1705.006,1223.159a24.7,24.7,0,0,1-6.908-1.077,1.148,1.148,0,1,1,.713-2.182c.106.034,6.656,2.112,10.751.064a1.148,1.148,0,1,1,1.026,2.053A12.559,12.559,0,0,1,1705.006,1223.159Z" transform="translate(-1689.273 -1180.607)" fill="#00223d"/>
      <path id="Trazado_97146" data-name="Trazado 97146" d="M1705.006,1206.7a24.705,24.705,0,0,1-6.908-1.077,1.148,1.148,0,0,1,.713-2.182c.106.034,6.656,2.112,10.751.064a1.148,1.148,0,1,1,1.026,2.053A12.557,12.557,0,0,1,1705.006,1206.7Z" transform="translate(-1689.273 -1166.012)" fill="url(#linear-gradient)"/>
      <path id="Trazado_97147" data-name="Trazado 97147" d="M1705.006,1190.24a24.691,24.691,0,0,1-6.908-1.077,1.148,1.148,0,0,1,.713-2.182c.106.034,6.656,2.112,10.751.065a1.148,1.148,0,1,1,1.026,2.053A12.556,12.556,0,0,1,1705.006,1190.24Z" transform="translate(-1689.273 -1151.418)" fill="#00223d"/>
    </g>
    <g id="Grupo_46692" data-name="Grupo 46692" transform="translate(640.381 431.247)">
      <path id="Trazado_97148" data-name="Trazado 97148" d="M2044.489,1584.539s4.947,2.191,6.078,2.474,4.806-.212,2.969-2.474-3.393-1.06-6.715-2.756S2044.489,1584.539,2044.489,1584.539Z" transform="translate(-2020.515 -1535.91)" fill="#fff"/>
      <path id="Trazado_97149" data-name="Trazado 97149" d="M1845.47,1495.467s-9.383-2.067-11.238,3.233,7.3,7.782,8.994,8.164,5.6.707,6.485.99,4.17.565,4.63.777,5.195,1.307,5.195,1.307l3.534-4.841-3.675-3.131-1.568-5.764Z" transform="translate(-1833.985 -1459.364)" fill="#aee6e6"/>
      <path id="Trazado_97150" data-name="Trazado 97150" d="M1868.279,1303.426s7.633-.424,11.344,4.983,6.573,10.284,1.484,14.949-12.192,2.332-12.192,2.332l-9.436.583s-9.754-.689-7.421-9.806S1860.081,1303.638,1868.279,1303.426Z" transform="translate(-1849.691 -1289.428)" fill="#fff"/>
      <path id="Rectángulo_28444" data-name="Rectángulo 28444" d="M4.058,0H14.125a4.057,4.057,0,0,1,4.057,4.057V8.878a4.057,4.057,0,0,1-4.057,4.057H4.058A4.058,4.058,0,0,1,0,8.877V4.058A4.058,4.058,0,0,1,4.058,0Z" transform="translate(9.241 24.6)" fill="#060633"/>
      <path id="Trazado_97151" data-name="Trazado 97151" d="M1880.239,1594.532s-4.948,2.191-6.078,2.474-4.806-.212-2.969-2.474,3.393-1.06,6.715-2.757S1880.239,1594.532,1880.239,1594.532Z" transform="translate(-1866.528 -1544.77)" fill="#fff"/>
      <path id="Trazado_97152" data-name="Trazado 97152" d="M2043.871,1418.289a.061.061,0,0,1-.046-.021.062.062,0,0,1,.005-.087c4.058-3.583,6.574-3.162,6.678-3.142a.061.061,0,0,1-.022.121c-.025,0-2.567-.426-6.574,3.113A.063.063,0,0,1,2043.871,1418.289Z" transform="translate(-2020.035 -1388.38)" fill="#060633"/>
      <path id="Trazado_97153" data-name="Trazado 97153" d="M1894.135,1415.985a.061.061,0,0,1-.044-.018,14.92,14.92,0,0,0-6.49-3.429.061.061,0,0,1,.026-.12,15.053,15.053,0,0,1,6.55,3.462.061.061,0,0,1,0,.087A.06.06,0,0,1,1894.135,1415.985Z" transform="translate(-1881.483 -1386.076)" fill="#060633"/>
      <path id="Trazado_97154" data-name="Trazado 97154" d="M2050.587,1380.027a.062.062,0,0,1-.06-.049l-.636-3.044a.062.062,0,0,1,.048-.073.061.061,0,0,1,.073.047l.636,3.044a.062.062,0,0,1-.048.073Z" transform="translate(-2025.425 -1354.548)" fill="#060633"/>
      <path id="Trazado_97155" data-name="Trazado 97155" d="M1929.251,1383.548h-.005a.061.061,0,0,1-.056-.066l.265-3.287a.063.063,0,0,1,.066-.056.061.061,0,0,1,.056.066l-.265,3.287A.061.061,0,0,1,1929.251,1383.548Z" transform="translate(-1918.402 -1357.455)" fill="#060633"/>
      <path id="Trazado_97156" data-name="Trazado 97156" d="M1917.619,1261.851s-.577-.339-.74-.006c-.415.847.581,1.189,1.1,1.119Z" transform="translate(-1907.399 -1252.436)" fill="#ea6868"/>
      <path id="Trazado_97157" data-name="Trazado 97157" d="M1919.853,1518.121h-.012c-.455-.091-1.579-.461-2.571-.787-.553-.182-1.031-.339-1.3-.416-.719-.208-3.748-.49-3.779-.493-.063-.012-5.721-1.133-6.351-1.273a.062.062,0,0,1,.027-.12c.628.14,6.285,1.261,6.342,1.272.119.011,3.064.285,3.8.5.266.077.745.235,1.3.417.94.309,2.109.694,2.556.784a.061.061,0,0,1-.012.122Z" transform="translate(-1897.66 -1477.062)" fill="#060633"/>
      <path id="Trazado_97158" data-name="Trazado 97158" d="M1920.818,1201.252a14.335,14.335,0,0,1-1.471-6.2c-.009-.729-.066-1.544-.138-2.465a4.549,4.549,0,1,0-8.632,2.16c.026.053.054.1.082.156h0c.66,1.349,2.062,6.288,5.029,5.485l.407,2a5.658,5.658,0,0,0,4.729-1.145Z" transform="translate(-1901.486 -1187.269)" fill="#fb9391"/>
      <path id="Trazado_97159" data-name="Trazado 97159" d="M1928.211,1253.151a.331.331,0,1,1,.442.152A.331.331,0,0,1,1928.211,1253.151Z" transform="translate(-1917.505 -1244.434)" fill="#060633"/>
      <path id="Trazado_97160" data-name="Trazado 97160" d="M1962.891,1244.312a.331.331,0,1,1,.443.152A.331.331,0,0,1,1962.891,1244.312Z" transform="translate(-1948.255 -1236.597)" fill="#060633"/>
      <path id="Trazado_97161" data-name="Trazado 97161" d="M1945.382,1271.961a1.508,1.508,0,0,1-.726-.193.074.074,0,1,1,.07-.129c1.179.637,2.092-.643,2.13-.7a.074.074,0,0,1,.121.085A2.258,2.258,0,0,1,1945.382,1271.961Z" transform="translate(-1932.082 -1260.603)" fill="#060633"/>
      <path id="Trazado_97162" data-name="Trazado 97162" d="M1969.164,1212.251l.238,3.234-.816.215-2.19-3.348Z" transform="translate(-1951.393 -1208.591)" fill="#00223d"/>
      <path id="Trazado_97163" data-name="Trazado 97163" d="M1984.331,1235.1a.676.676,0,0,1,.177-.444,1.14,1.14,0,0,1,1.173-.445c.747.256.389,2.081-.933,1.908C1984.748,1236.115,1984.324,1235.969,1984.331,1235.1Z" transform="translate(-1967.296 -1228.019)" fill="#fb9391"/>
      <path id="Trazado_97164" data-name="Trazado 97164" d="M1945.74,1252.765a.972.972,0,0,1-.273-.041.369.369,0,0,1-.243-.156c-.053-.1-.019-.214.025-.36a2.009,2.009,0,0,0-.034-1.385.074.074,0,0,1,.139-.047,2.166,2.166,0,0,1,.036,1.474c-.035.118-.061.2-.037.247a.261.261,0,0,0,.155.085.69.69,0,0,0,.792-.256.073.073,0,1,1,.125.078A.847.847,0,0,1,1945.74,1252.765Z" transform="translate(-1932.595 -1242.706)" fill="#ea6868"/>
      <path id="Trazado_97165" data-name="Trazado 97165" d="M1955.833,1237.579a.221.221,0,0,1-.111-.413,1.933,1.933,0,0,1,1.626-.145.221.221,0,0,1-.17.408,1.485,1.485,0,0,0-1.235.12A.222.222,0,0,1,1955.833,1237.579Z" transform="translate(-1941.83 -1230.452)" fill="#060633"/>
      <path id="Trazado_97166" data-name="Trazado 97166" d="M1920.535,1247.1a.218.218,0,0,1-.131-.043.221.221,0,0,1-.048-.309,2.065,2.065,0,0,1,1.2-.805.221.221,0,0,1,.078.435,1.647,1.647,0,0,0-.92.632A.22.22,0,0,1,1920.535,1247.1Z" transform="translate(-1910.532 -1238.464)" fill="#060633"/>
      <path id="Trazado_97167" data-name="Trazado 97167" d="M1911.189,1182.717a.8.8,0,0,0-.377-1.17.66.66,0,0,1-.181-.071.46.46,0,0,1-.14-.229l-.2-.55a.236.236,0,0,0-.252-.2,1.338,1.338,0,0,0-.924.131,1.985,1.985,0,0,0-1.118-.4c-.128.009-.254.042-.382.044-.5.008-.962-.45-1.431-.289a2.109,2.109,0,0,0-.339.186,5.269,5.269,0,0,1-1.077.325,1.048,1.048,0,0,0-.8.717.611.611,0,0,1-.058.231.389.389,0,0,1-.184.13,3.93,3.93,0,0,0-1.12.544.777.777,0,0,0-.136,1.1,1.231,1.231,0,0,0-.607.514.791.791,0,0,0-.011.774.326.326,0,0,1,.064.145c0,.1-.1.164-.175.222a.941.941,0,0,0-.209,1.245.97.97,0,0,1,.157.254,1.448,1.448,0,0,1,.023.263.573.573,0,0,0,.466.49,1.131,1.131,0,0,0,.806-.323c.006.113.146.161.259.167a1.548,1.548,0,0,0,1.542-1.171c.4.036.9.023,1.09-.336a1.017,1.017,0,0,0,.08-.25l.2-.87c.125-.023.23.1.267.221a1.949,1.949,0,0,0,.1.367c.146.272.532.259.836.208a1.508,1.508,0,0,0,.5-.143.511.511,0,0,0,.28-.41.849.849,0,0,0,.842.259,5.22,5.22,0,0,0,2.107-.756c.244-.142.41-.2.453-.511A.929.929,0,0,0,1911.189,1182.717Z" transform="translate(-1893.75 -1179.948)" fill="#00223d"/>
      <path id="Trazado_97168" data-name="Trazado 97168" d="M1939.626,1481.872s6.432-3.816,9.9.354-2.686,7.421-4.17,8.764a9.127,9.127,0,0,1-5.018,2.474,17.615,17.615,0,0,0-4.523,1.131c-2.12.707-3.887,1.343-4.1,1.484s-3.675,1.343-3.675,1.343-3.534-3.534-3.6-4.594c0,0,3.463-3.081,4.453-3.979s5.725-2.029,6.573-3.16A39.411,39.411,0,0,1,1939.626,1481.872Z" transform="translate(-1914.182 -1446.246)" fill="#aee6e6"/>
      <circle id="Elipse_3892" data-name="Elipse 3892" cx="0.619" cy="0.619" r="0.619" transform="translate(17.713 30.448)" fill="#fff"/>
    </g>
  </g>
</svg>
