<svg xmlns="http://www.w3.org/2000/svg" xmlns:xlink="http://www.w3.org/1999/xlink" width="124.767" height="124.767" viewBox="0 0 124.767 124.767">
  <defs>
    <radialGradient id="radial-gradient" cx="0.076" cy="0.019" r="1.465" gradientTransform="translate(0.001)" gradientUnits="objectBoundingBox">
      <stop offset="0" stop-color="#f6f6f7"/>
      <stop offset="0.477" stop-color="#f9f9fa"/>
      <stop offset="0.715" stop-color="#fff"/>
    </radialGradient>
  </defs>
  <g id="Grupo_57027" data-name="Grupo 57027" transform="translate(-217 -997)">
    <g id="Grupo_18531" data-name="Grupo 18531" transform="translate(217 997)">
      <g id="Grupo_18423" data-name="Grupo 18423" transform="translate(0 0)">
        <g id="Grupo_18421" data-name="Grupo 18421">
          <g id="Grupo_18420" data-name="Grupo 18420">
            <g id="Grupo_18419" data-name="Grupo 18419">
              <path id="Trazado_40936" data-name="Trazado 40936" d="M319.39,2208.1a62.384,62.384,0,1,1-62.383-62.382A62.383,62.383,0,0,1,319.39,2208.1Z" transform="translate(-194.623 -2145.721)" fill="#fff"/>
            </g>
          </g>
        </g>
        <path id="Trazado_40937" data-name="Trazado 40937" d="M318.65,2207.3a62.382,62.382,0,1,0-62.383,62.385A62.136,62.136,0,0,0,318.65,2207.3Z" transform="translate(-193.883 -2144.915)" fill="url(#radial-gradient)"/>
        <path id="Trazado_40938" data-name="Trazado 40938" d="M297.307,2200.746a47.617,47.617,0,1,0-47.617,47.617A47.44,47.44,0,0,0,297.307,2200.746Z" transform="translate(-187.117 -2138.156)" fill="none" stroke="#7d6eb2" stroke-miterlimit="10" stroke-width="4"/>
        <g id="Grupo_18422" data-name="Grupo 18422" transform="translate(11.052 35.024)">
          <path id="Trazado_40939" data-name="Trazado 40939" d="M307.953,2164.488a62.391,62.391,0,0,1-107.408,62.125,62.193,62.193,0,0,0,107.408-62.125Z" transform="translate(-200.545 -2164.488)" fill="#eceef0"/>
        </g>
      </g>
    </g>
    <g id="Grupo_46651" data-name="Grupo 46651" transform="translate(1804.997 -130.118)">
      <path id="Trazado_96966" data-name="Trazado 96966" d="M-1526,1219.963a5.789,5.789,0,0,1-2.254-1.563c-1.738-1.721-3.512-3.4-5.253-5.122a1.912,1.912,0,0,0-1.459-.58c-3.942.017-7.883.011-11.825.008a4.112,4.112,0,0,1-4.468-4.441q-.008-13.492,0-26.984a7.334,7.334,0,0,1,.167-1.8,4.012,4.012,0,0,1,3.658-2.961c.726-.039,1.455-.023,2.182-.027s1.45,0,2.2,0c.085-.61.129-1.19.251-1.752a8.277,8.277,0,0,1,8.114-6.537c1.839-.023,3.679,0,5.518-.013a2.565,2.565,0,0,0,.936-.18c3.542-1.465,7.075-2.953,10.62-4.412a.7.7,0,0,0,.5-.752,8.539,8.539,0,0,1,.231-2.153,4.083,4.083,0,0,1,4.313-2.82,4.131,4.131,0,0,1,3.695,3.668,11.461,11.461,0,0,1,.042,1.15q0,6.58,0,13.159c0,.18.016.359.028.609.23.013.442.036.653.037,1.435,0,2.87-.008,4.305,0a4.083,4.083,0,0,1,4.311,4.293q.015,13.8,0,27.591a4.08,4.08,0,0,1-4.343,4.322q-5.973.016-11.946,0a1.907,1.907,0,0,0-1.455.585c-1.754,1.733-3.542,3.432-5.3,5.165a5.506,5.506,0,0,1-2.217,1.51Zm-9.731-35.223c-.13-.04-.186-.063-.244-.075a8.2,8.2,0,0,1-6.617-5.712.491.491,0,0,0-.567-.388c-1.193.011-2.385,0-3.578.009-1.717.01-2.447.726-2.448,2.424q-.007,13.616,0,27.232c0,1.651.755,2.4,2.408,2.4,3.982,0,7.965.012,11.948,0a3.649,3.649,0,0,1,2.717,1.107c1.9,1.877,3.821,3.726,5.735,5.585.778.756,1.212.751,2-.013,1.914-1.86,3.839-3.708,5.736-5.584a3.644,3.644,0,0,1,2.721-1.1c4.043.017,8.087.009,12.13,0a2.022,2.022,0,0,0,2.193-2.192q.01-13.828,0-27.656a2.024,2.024,0,0,0-2.236-2.207c-1.213-.009-2.426-.005-3.639-.006h-1.351c0,1.263,0,2.433,0,3.6-.011,3.073.037,6.147-.062,9.217a3.974,3.974,0,0,1-3.393,3.675,4.167,4.167,0,0,1-4.393-2.234,5.074,5.074,0,0,1-.443-2.657.7.7,0,0,0-.517-.8c-3.082-1.262-6.151-2.555-9.225-3.835-.178-.074-.364-.126-.6-.208v.736c0,1.678.033,3.357-.008,5.034a4.137,4.137,0,0,1-5.6,3.756,4.069,4.069,0,0,1-2.661-3.835C-1535.752,1188.936-1535.733,1186.856-1535.733,1184.74Zm18.58-19.048a3.365,3.365,0,0,0-.375.1c-3.186,1.325-6.368,2.661-9.561,3.97-.383.157-.374.4-.374.711q0,6.034-.006,12.069a.637.637,0,0,0,.473.7c3.007,1.23,6,2.488,9,3.737.268.112.537.221.84.345Zm6.244,10.853q0-7.181,0-14.362a2.072,2.072,0,0,0-2.082-2.258,2.109,2.109,0,0,0-2.06,2.233c0,.162,0,.323,0,.485q0,8.757,0,17.513,0,5.3,0,10.6a2.091,2.091,0,0,0,2.245,2.275,2.078,2.078,0,0,0,1.9-2.311Q-1510.9,1183.635-1510.908,1176.545Zm-18.678,6.071v-12.291c-1.95,0-3.871-.1-5.777.024a6.105,6.105,0,0,0-5.553,5.942,6.066,6.066,0,0,0,5.284,6.29C-1533.653,1182.768-1531.642,1182.616-1529.587,1182.616Zm-4.078,2.192c0,2.043-.007,4.041,0,6.037a2.039,2.039,0,0,0,2.069,2.2,2.077,2.077,0,0,0,2.063-2.219c.01-1.6,0-3.193,0-4.79v-1.225Z" transform="translate(0 0)" fill="#00223d"/>
      <path id="Trazado_96972" data-name="Trazado 96972" d="M-1440.382,1483.515h-15.52a5.194,5.194,0,0,1-.666-.018.934.934,0,0,1-.888-.913.933.933,0,0,1,.7-1.062,2.27,2.27,0,0,1,.656-.074q15.7-.005,31.4,0a2.023,2.023,0,0,1,.712.1.935.935,0,0,1,.633,1.054.939.939,0,0,1-.85.887,4.823,4.823,0,0,1-.726.024Z" transform="translate(-82.403 -284.264)" fill="#00223d"/>
      <path id="Trazado_96973" data-name="Trazado 96973" d="M-1483.139,1517.6q-7.76,0-15.519,0a3.664,3.664,0,0,1-.6-.03.952.952,0,0,1-.859-.944.973.973,0,0,1,.808-1.05,3.228,3.228,0,0,1,.662-.047q15.58,0,31.16,0a3.51,3.51,0,0,1,.663.04.982.982,0,0,1,.83,1.034.977.977,0,0,1-.9.974,5.71,5.71,0,0,1-.726.024Z" transform="translate(-44.925 -314.204)" fill="#00223d"/>
      <path id="Trazado_96974" data-name="Trazado 96974" d="M-1492.354,1551.732q-3.15,0-6.3,0a2.561,2.561,0,0,1-.718-.072.945.945,0,0,1-.721-1.052.932.932,0,0,1,.817-.915,3.618,3.618,0,0,1,.664-.037q6.27-.005,12.539-.007h.061c.931.006,1.419.357,1.427,1.025s-.5,1.052-1.407,1.053q-3.18,0-6.36,0Z" transform="translate(-44.949 -344.177)" fill="#00223d"/>
      <path id="Trazado_96975" data-name="Trazado 96975" d="M-1498.66,1483.418c-.141,0-.283.006-.423,0a1.012,1.012,0,0,1-1.068-1,1.029,1.029,0,0,1,1.014-1.062,6.61,6.61,0,0,1,1.028,0,1.02,1.02,0,0,1,1.037,1.038,1.015,1.015,0,0,1-1.1,1.022C-1498.337,1483.424-1498.5,1483.419-1498.66,1483.418Z" transform="translate(-44.902 -284.169)" fill="#00223d"/>
      <path id="Trazado_96976" data-name="Trazado 96976" d="M-1200.465,1517.6c-1.039.016-1.524-.313-1.525-1.019s.486-1.046,1.52-1.044a4.269,4.269,0,0,1,.663.03,1,1,0,0,1,.895,1.04,1,1,0,0,1-.949.989A5.352,5.352,0,0,1-1200.465,1517.6Z" transform="translate(-306.825 -314.21)" fill="#00223d"/>
    </g>
  </g>
</svg>
