<svg xmlns="http://www.w3.org/2000/svg" xmlns:xlink="http://www.w3.org/1999/xlink" width="283.304" height="276.35" viewBox="0 0 283.304 276.35">
  <defs>
    <linearGradient id="linear-gradient" x1="0.5" x2="0.5" y2="1" gradientUnits="objectBoundingBox">
      <stop offset="0" stop-color="#fff"/>
      <stop offset="1" stop-color="#d2e6ee"/>
    </linearGradient>
  </defs>
  <g id="Grupo_46353" data-name="Grupo 46353" transform="translate(-411.73 -101.791)">
    <path id="Trazado_96663" data-name="Trazado 96663" d="M425.482,157.576h-4.345v-4.342a1.677,1.677,0,0,0-1.676-1.678h-.035a1.677,1.677,0,0,0-1.676,1.678v4.342h-4.342a1.678,1.678,0,0,0-1.678,1.678v.033a1.676,1.676,0,0,0,1.678,1.676h4.342v4.345a1.675,1.675,0,0,0,1.676,1.676h.035a1.675,1.675,0,0,0,1.676-1.676v-4.345h4.345a1.675,1.675,0,0,0,1.676-1.676v-.033A1.677,1.677,0,0,0,425.482,157.576Z" transform="translate(0 60.831)" fill="#f1f1f1"/>
    <path id="Trazado_96664" data-name="Trazado 96664" d="M468.69,107.811h-4.345v-4.342a1.677,1.677,0,0,0-1.676-1.678h-.033a1.678,1.678,0,0,0-1.678,1.678v4.342h-4.343a1.678,1.678,0,0,0-1.678,1.678v.033a1.677,1.677,0,0,0,1.678,1.676h4.343v4.345a1.677,1.677,0,0,0,1.678,1.676h.033a1.677,1.677,0,0,0,1.676-1.676V111.2h4.345a1.677,1.677,0,0,0,1.676-1.676v-.033A1.677,1.677,0,0,0,468.69,107.811Z" transform="translate(52.816 0)" fill="#f1f1f1"/>
    <path id="Trazado_96665" data-name="Trazado 96665" d="M511.235,115.327H506.89v-4.342a1.675,1.675,0,0,0-1.676-1.676h-.036a1.675,1.675,0,0,0-1.676,1.676v4.342h-4.345a1.677,1.677,0,0,0-1.676,1.678v.033a1.677,1.677,0,0,0,1.676,1.678H503.5v4.342a1.677,1.677,0,0,0,1.676,1.678h.036a1.677,1.677,0,0,0,1.676-1.678v-4.342h4.345a1.677,1.677,0,0,0,1.676-1.678v-.033A1.677,1.677,0,0,0,511.235,115.327Z" transform="translate(104.821 9.19)" fill="#f1f1f1"/>
    <path id="Trazado_96666" data-name="Trazado 96666" d="M544.4,163.124h-4.345v-4.343a1.677,1.677,0,0,0-1.676-1.678h-.036a1.677,1.677,0,0,0-1.676,1.678v4.343h-4.345a1.677,1.677,0,0,0-1.676,1.678v.033a1.677,1.677,0,0,0,1.676,1.678h4.345v4.343a1.677,1.677,0,0,0,1.676,1.678h.036a1.677,1.677,0,0,0,1.676-1.678v-4.343H544.4a1.677,1.677,0,0,0,1.676-1.678V164.8A1.677,1.677,0,0,0,544.4,163.124Z" transform="translate(145.364 67.612)" fill="#f1f1f1"/>
    <g id="Grupo_46353-2" data-name="Grupo 46353" transform="translate(434.134 126.179)">
      <path id="Trazado_96667" data-name="Trazado 96667" d="M494.886,198.761a46.959,46.959,0,1,0-65.141-12.921A46.96,46.96,0,0,0,494.886,198.761Z" transform="translate(-421.811 -112.765)" fill="#110239"/>
      <path id="Trazado_96668" data-name="Trazado 96668" d="M439.9,113.267a46.958,46.958,0,0,1,13.476,92.943Z" transform="translate(-399.701 -112.747)" fill="#26aab7"/>
      <path id="Trazado_96669" data-name="Trazado 96669" d="M441.591,195.168l-.231-.022,3.278-46.765,39.2-26.228a46.939,46.939,0,0,1-42.251,73.015Z" transform="translate(-397.915 -101.29)" fill="#7d6eb2"/>
      <path id="Trazado_96670" data-name="Trazado 96670" d="M462.57,183.856a47.172,47.172,0,0,0,8.078.384l-1.869-46.929L422.234,131.1A46.956,46.956,0,0,0,462.57,183.856Z" transform="translate(-421.805 -90.353)" fill="#f1f1f1"/>
    </g>
    <g id="Grupo_46370" data-name="Grupo 46370" transform="translate(430.299 188.355)">
      <g id="Grupo_46359" data-name="Grupo 46359" transform="translate(220.596 102.288)">
        <g id="Grupo_46355" data-name="Grupo 46355" transform="translate(18.7 8.795)">
          <path id="Trazado_96674" data-name="Trazado 96674" d="M528.186,209.591a.5.5,0,0,1-.42-.538.584.584,0,0,1,.627-.48c4.742.284,11.078-2.487,12.994-7.109.231-.556.46-1.171.7-1.818,1.158-3.1,2.616-7,5.663-8.4a6.721,6.721,0,0,1,5.1-.036.5.5,0,0,1,.3.689.64.64,0,0,1-.762.324,5.44,5.44,0,0,0-4.18-.018c-2.582,1.189-3.949,4.829-5.038,7.732-.247.658-.485,1.285-.718,1.849-2.182,5.245-9.043,8.123-14.183,7.816C528.242,209.6,528.213,209.6,528.186,209.591Z" transform="translate(-527.762 -190.727)" fill="#fff"/>
        </g>
        <g id="Grupo_46356" data-name="Grupo 46356" transform="translate(8.64 0)">
          <path id="Trazado_96675" data-name="Trazado 96675" d="M530.355,213.895a8.382,8.382,0,0,1-4.98-2.887c-1.76-2.26-2.038-5.669-.778-9.881.124-.418.284-.9.458-1.429.989-3.009,2.5-7.6,1.011-10.154a3.619,3.619,0,0,0-2.4-1.678.543.543,0,0,1-.4-.682.615.615,0,0,1,.729-.4l.007,0A4.782,4.782,0,0,1,527.11,189c1.713,2.954.109,7.812-.942,10.99-.169.518-.327.991-.449,1.4-1.171,3.891-.958,7,.6,9,1.329,1.709,3.656,2.66,6.9,2.833a.5.5,0,0,1,.511.547.587.587,0,0,1-.622.487A16.681,16.681,0,0,1,530.355,213.895Z" transform="translate(-523.235 -186.769)" fill="#fff"/>
        </g>
        <g id="Grupo_46357" data-name="Grupo 46357" transform="translate(11.015 47.814)">
          <path id="Trazado_96676" data-name="Trazado 96676" d="M526.35,220.233a5.361,5.361,0,0,1-1.824-.664.425.425,0,0,1-.116-.653.609.609,0,0,1,.765-.127c2.838,1.713,8.612-.511,11.067-2.242a14.752,14.752,0,0,0,2.918-3.313c1.747-2.382,3.562-4.865,6.431-4.947a.465.465,0,0,1,.531.467.559.559,0,0,1-.565.5c-2.26.064-3.907,2.309-5.487,4.462a15.462,15.462,0,0,1-3.176,3.554C534.7,218.818,529.882,220.878,526.35,220.233Z" transform="translate(-524.304 -208.284)" fill="#fff"/>
        </g>
        <g id="Grupo_46358" data-name="Grupo 46358" transform="translate(0 33.226)">
          <path id="Trazado_96677" data-name="Trazado 96677" d="M527.76,227.221a6.9,6.9,0,0,1-1.964-.693c-3.574-1.9-5.694-6.769-6.247-9.605-.3-1.525.16-3.536.645-5.678.776-3.422,1.584-6.994-.642-8.623a.473.473,0,0,1-.071-.716.627.627,0,0,1,.8-.076c2.74,2.009,1.818,6.056,1.011,9.587-.469,2.049-.907,3.974-.647,5.32.5,2.567,2.494,7.245,5.747,8.981a5.383,5.383,0,0,0,3.983.476.545.545,0,0,1,.667.313.49.49,0,0,1-.391.589A6.731,6.731,0,0,1,527.76,227.221Z" transform="translate(-519.348 -201.72)" fill="#fff"/>
        </g>
      </g>
      <g id="Grupo_46367" data-name="Grupo 46367" transform="translate(66.862)">
        <rect id="Rectángulo_28349" data-name="Rectángulo 28349" width="167.821" height="183.651" fill="url(#linear-gradient)"/>
        <rect id="Rectángulo_28350" data-name="Rectángulo 28350" width="145.254" height="157.657" transform="translate(11.283 12.997)" fill="#f6c343"/>
        <path id="Trazado_96684" data-name="Trazado 96684" d="M550.226,217.39a7.267,7.267,0,0,0-9.129-1.86s10.818-23.87,3.974-35.7a10.657,10.657,0,0,0-2.451-2.878c1.716-7.878-5.831-11.187-11.816-14.25a50.069,50.069,0,0,0-12.092-4.351c-7.821-1.627-16.619-1.276-23.724,2.649-7.945,4.387-15.925,13.339-24.184,11.3-1.709,4.014-1.462,7.307-.309,12.085a30.808,30.808,0,0,0,6.34,12.027,93.615,93.615,0,0,0,6.18,19.11,7.264,7.264,0,0,0-9.127,1.86c-4.149,4.771,6.845,16.8,9.334,18.257a52.226,52.226,0,0,0,9.174,17.774,40.351,40.351,0,0,0,9.405,8.263H501s-2.318,21.89-6.563,29.3h33.724c-3.92-6.84-6.191-25.986-6.516-28.891a40.45,40.45,0,0,0,10.069-8.672,52.275,52.275,0,0,0,9.174-17.774C543.381,234.193,554.375,222.161,550.226,217.39Z" transform="translate(-426.453 -120.33)" fill="#fff"/>
        <g id="Grupo_46366" data-name="Grupo 46366" transform="translate(72.31 68.974)">
          <path id="Trazado_96685" data-name="Trazado 96685" d="M489.447,207.921V200.17a30.717,30.717,0,0,0,8.327-7.807,13.275,13.275,0,0,0,2.789-7.754,9.456,9.456,0,0,0-.071-1.131,2.532,2.532,0,0,0-1.022-2.076,4.363,4.363,0,0,0-2.153-.478,2.657,2.657,0,0,0-1.836.7,2.292,2.292,0,0,0-.776,1.829,7.73,7.73,0,0,0,.071,1.131,4.354,4.354,0,0,0,.142.682c.047.147.144.4.3.756s.278.653.371.885l-11.607,2.265c-.073-.251-.2-.64-.373-1.176s-.287-.889-.333-1.073-.124-.469-.229-.856a5.737,5.737,0,0,1-.2-.944q-.033-.363-.087-.9c-.036-.358-.053-.731-.053-1.118v-.231a12.623,12.623,0,0,1,.633-4.094,9.792,9.792,0,0,1,6.723-6.1,23.181,23.181,0,0,1,6.9-.9q7.941,0,12.156,3.194a10.6,10.6,0,0,1,4.216,8.969,18.8,18.8,0,0,1-3.547,10.478,21.134,21.134,0,0,1-8.521,7.665v5.836Zm-.318,12.832v-9.987h12.527v9.987Z" transform="translate(-482.709 -171.779)" fill="#00223d"/>
        </g>
      </g>
      <g id="Grupo_46369" data-name="Grupo 46369" transform="translate(0 46.703)">
        <path id="Trazado_96686" data-name="Trazado 96686" d="M425.865,175.357s3.256,5.8,1.669,7.543c0,0,4.365,3.969,7.778,2.3s1.436-3.165,1.436-3.165-2.387-1.042-3.578-6.045S425.865,175.357,425.865,175.357Z" transform="translate(-413.021 -147.292)" fill="#f88667"/>
        <path id="Trazado_96687" data-name="Trazado 96687" d="M429.314,184.2a7.167,7.167,0,0,1,5.876-3.585,12.145,12.145,0,0,1-2.02-4.625c-1.191-5-7.3-.636-7.3-.636s3.256,5.8,1.669,7.543A13.511,13.511,0,0,0,429.314,184.2Z" transform="translate(-413.021 -147.292)" fill="#e45940"/>
        <path id="Trazado_96688" data-name="Trazado 96688" d="M424.628,174.188s1.911-5.163,5.08-5.254,5.238.238,5.769,1.416,1.549,4.465,2.469,5.629,2.809,2.629,2.825,3.194-1.771.927-1.849,1.165-.678,4.407-1.3,4.894-6.892-1.322-7.992-3.036S424.648,177.406,424.628,174.188Z" transform="translate(-414.533 -153.002)" fill="#f88667"/>
        <path id="Trazado_96689" data-name="Trazado 96689" d="M433.24,176.113c.847.573,2.931,1.142,6.127-.693s1.042-9.325-5.894-8.116-6.392,3.669-7.623,4.349a4.891,4.891,0,0,0-2.609,2.982c-.762,2.545-.558,5.463,3,8.054,3.594,2.618,5.751,1.907,5.751,1.907.049-.885-.169-2.342-.976-2.709a4.985,4.985,0,0,1-1.218-.489,1.365,1.365,0,0,1,1.085-2.4c.789.036,1.3,1.365,1.8,1.816.54.48.838.333,1.091.2.493-.249.7-1.845-.576-3.365C432.382,176.664,432.393,175.541,433.24,176.113Z" transform="translate(-416.669 -155.139)" fill="#110239"/>
        <path id="Trazado_96690" data-name="Trazado 96690" d="M422.4,220.62s-2.86,5.609-2.225,6.774,12.623,6.14,14.052,5.425,1.507-2.776-.789-4.429c-2.462-1.773-4.083-1.525-5.536-2.874s0-3.891,0-3.891Z" transform="translate(-420.086 -89.807)" fill="#12263f"/>
        <path id="Trazado_96691" data-name="Trazado 96691" d="M435.72,222.085s.382,6.618,1.42,7.445,14.016.758,15.054-.456.387-2.9-2.253-3.427c-2.376-.476-4.129.024-5.969-.718-1.613-.651-2.487-4.225-2.487-4.225Z" transform="translate(-400.975 -89.703)" fill="#12263f"/>
        <path id="Trazado_96692" data-name="Trazado 96692" d="M443.819,190.967l-16.912,1.04s12.725,30.351,14.472,34,4.474,33.746,4.474,33.746l7.8-1.256s-1.645-30.793-2.051-33.326A310.9,310.9,0,0,0,443.819,190.967Z" transform="translate(-411.747 -126.053)" fill="#167377"/>
        <path id="Trazado_96693" data-name="Trazado 96693" d="M438.088,203.351c.549-2.831.938-6.5,1.553-9.323.245-1.118,1.807-1.173,1.925-2.287a3.221,3.221,0,0,1-.676-.693l-13.983.86s12.725,30.351,14.472,34c.171.36.418.951.713,1.709-.007-.611-.031-1.225-.076-1.833C441.65,220.863,437.461,206.564,438.088,203.351Z" transform="translate(-411.747 -125.954)" fill="#0b5e62"/>
        <path id="Trazado_96694" data-name="Trazado 96694" d="M446.632,191.61H432.184a21.9,21.9,0,0,0-1.669,11.432c.873,6.194-1,18.194-1.111,19.781s-7.585,27.626-8.7,33.553l6.658,2.382s10.939-31.891,11.363-32.526S446.632,191.61,446.632,191.61Z" transform="translate(-419.325 -125.267)" fill="#167377"/>
        <g id="Grupo_46368" data-name="Grupo 46368" transform="translate(28.14 37.31)">
          <path id="Trazado_96695" data-name="Trazado 96695" d="M437.642,200.245s2.858,4.127,4.845,3.811,15.852-9.421,15.852-9.421l-2.911-1.933s-11.036,7.543-12.147,7.225c-.587-.167-3.525-7.727-5.909-13.392-2.94-6.98-4.622-7.989-4.622-7.989Z" transform="translate(-432.748 -178.546)" fill="#12263f"/>
          <path id="Trazado_96696" data-name="Trazado 96696" d="M437.642,200.245s2.858,4.127,4.845,3.811,15.852-9.421,15.852-9.421l-2.911-1.933s-11.036,7.543-12.147,7.225c-.54-.156-3.758-8.669-6.107-13.854-3.189-7.049-4.425-7.527-4.425-7.527Z" transform="translate(-432.748 -178.546)" fill="#12263f"/>
          <path id="Trazado_96697" data-name="Trazado 96697" d="M438.808,188.842c.024-.033-1.187-2.651-1.587-3.436-3.238-6.349-4.474-6.86-4.474-6.86l2.8,12.432C436.677,190.362,438.217,189.687,438.808,188.842Z" transform="translate(-432.748 -178.546)" fill="#12263f"/>
          <path id="Trazado_96698" data-name="Trazado 96698" d="M438.808,188.842c.024-.033-1.187-2.651-1.587-3.436-3.238-6.349-4.474-6.86-4.474-6.86l2.8,12.432C436.677,190.362,438.217,189.687,438.808,188.842Z" transform="translate(-432.748 -178.546)" fill="#12263f"/>
        </g>
        <path id="Trazado_96699" data-name="Trazado 96699" d="M427.16,214.184s12.97,3.256,24.084-.767c0,0-2.367-10.752-2.367-16.534,0-4.914-1.54-15.425-4.12-17.277a15.3,15.3,0,0,0-4.151-2.256,4.69,4.69,0,0,1-2.858,2.62c-1.985.476-5.818-2.053-5.818-2.053s-7.827,3.062-8.876,4.78c-2.149,3.518,3.556,13.456,4.827,18.617S427.16,214.184,427.16,214.184Z" transform="translate(-417.043 -142.697)" fill="#12263f"/>
        <path id="Trazado_96700" data-name="Trazado 96700" d="M437.792,211.38a62.812,62.812,0,0,1-.88-7.327,18.259,18.259,0,0,1,.107-6.123c-.153-.536-.311-1.076-.444-1.545-.676-2.36-.609-7.632-3.4-10.3-1.613-1.538-3.585-3.927-5.978-4.34-2.894-.5-1.484-.516-4.074-1.116.118.951-1.16,2.765-.753,4.062,1.669,4.136,5.038,9.252,5.865,12.61,1.271,5.16-.72,12.87-.72,12.87A52.711,52.711,0,0,0,437.792,211.38Z" transform="translate(-417.395 -138.686)" fill="#12263f"/>
        <path id="Trazado_96701" data-name="Trazado 96701" d="M515.808,223a32.16,32.16,0,1,0-44.429-19.6L424.807,225.9a4.489,4.489,0,0,0-2.142,5.976l.04.082a4.489,4.489,0,0,0,5.976,2.142l46.572-22.49A32.139,32.139,0,0,0,515.808,223Zm-36.14-18.5a24.779,24.779,0,1,1,32.989,11.823A24.78,24.78,0,0,1,479.668,204.508Z" transform="translate(-417.459 -161.758)" fill="#00223d"/>
        <path id="Trazado_96702" data-name="Trazado 96702" d="M429.319,184.885s4.129,8.5,5,8.576,15.916-1.113,17.01-1.747a13.088,13.088,0,0,0,1.68-1.4,8.5,8.5,0,0,1,.778-.613,9.048,9.048,0,0,0,.971-.547c.231-.2,1.053-1.418,1.518-1.3.367.091.338.371.271.667-.084.382-.607.742-.86,1.013-.144.158-.576.6-.5.844.1.336.849-.253,1.018-.36a3.011,3.011,0,0,0,.693-.6,9.311,9.311,0,0,0,.633-.844c.122-.176.238-.362.356-.538.2-.3.373-.562.547-.873.129-.233.336-.5.631-.342.329.178,0,.729-.124.967-.138.258-.258.5-.369.762-.073.176-.362.471-.26.676a4.176,4.176,0,0,0,.822-.94c.151-.2.922-1.469,1.273-1.222.56.391-.109,1.22-.369,1.569a3.681,3.681,0,0,1-.576.642c-.1.078-.509.522-.436.516.529-.051.913-.856,1.242-1.231.2-.233.849-.916.938-.236a1.056,1.056,0,0,1-.273.716,3.768,3.768,0,0,1-.831.9,2.933,2.933,0,0,0-.54.609c.4-.011,1.176-1.018,1.536-.749.233.176-.022.658-.151.8a12.685,12.685,0,0,1-3.493,2.349,36.3,36.3,0,0,1-4,1.858c-1.951.771-18.5,5.954-20.483,5.716s-7.225-10.381-8.732-13.327S429.319,184.885,429.319,184.885Z" transform="translate(-415.284 -133.559)" fill="#f88667"/>
        <path id="Trazado_96703" data-name="Trazado 96703" d="M425.985,196.373s5.238-1.94,8.256-4.663c0,0-4.965-15.541-9.956-11.987C418.591,183.775,425.985,196.373,425.985,196.373Z" transform="translate(-417.586 -140.443)" fill="#12263f"/>
        <path id="Trazado_96704" data-name="Trazado 96704" d="M443.012,186.71c.26-.169.618.016,1.067.407-.591-.736-1.3-1.5-.6-1.6.671-.1,1.133.94,1.62,1.262-.26-.362-1.8-1.431-1.2-2.233.356-.478,2,1.389,2.34,1.762-.32-.3-1.7-1.762-.969-2.062.662-.271,1.611.978,2.082,1.373.347.291.833.533.913,1.013.158.927-1.2,1.562-1.9,1.758a3.645,3.645,0,0,1-2.769-.462C443.119,187.648,442.752,186.881,443.012,186.71Z" transform="translate(-392.166 -134.313)" fill="#f88667"/>
      </g>
    </g>
    <g id="Grupo_46373" data-name="Grupo 46373" transform="translate(587.642 146.275)">
      <g id="Grupo_46371" data-name="Grupo 46371">
        <rect id="Rectángulo_28351" data-name="Rectángulo 28351" width="94.073" height="63.637" rx="1.924" fill="url(#linear-gradient)"/>
        <rect id="Rectángulo_28352" data-name="Rectángulo 28352" width="85.52" height="53.499" transform="translate(4.276 5.069)" fill="#110239"/>
      </g>
      <g id="Grupo_46372" data-name="Grupo 46372" transform="translate(9.948 13.405)">
        <path id="Trazado_96705" data-name="Trazado 96705" d="M495.362,147.291s34.693,43.763,74.175,0C530.055,103.526,495.362,147.291,495.362,147.291Z" transform="translate(-495.362 -127.84)" fill="#110239"/>
        <path id="Trazado_96706" data-name="Trazado 96706" d="M497.7,145.793s29.837,37.636,63.793,0C527.535,108.155,497.7,145.793,497.7,145.793Z" transform="translate(-492.507 -126.342)" fill="#fff"/>
      </g>
      <path id="Trazado_96707" data-name="Trazado 96707" d="M537.607,145.661a16.488,16.488,0,1,1-16.488-16.488A16.487,16.487,0,0,1,537.607,145.661Z" transform="translate(-474.083 -112.804)" fill="#dbdada"/>
      <path id="Trazado_96708" data-name="Trazado 96708" d="M528.148,142.3a10.385,10.385,0,1,1-10.385-10.385A10.386,10.386,0,0,1,528.148,142.3Z" transform="translate(-470.726 -109.448)" fill="#110239"/>
      <circle id="Elipse_3891" data-name="Elipse 3891" cx="4.224" cy="4.224" r="4.224" transform="translate(50.877 22.09)" fill="#fff"/>
    </g>
    <g id="Grupo_46374" data-name="Grupo 46374" transform="translate(516.456 138.611)">
      <rect id="Rectángulo_28353" data-name="Rectángulo 28353" width="7.609" height="5.768" fill="#f1f1f1"/>
      <rect id="Rectángulo_28354" data-name="Rectángulo 28354" width="7.609" height="5.768" transform="translate(10.729)" fill="#f1f1f1"/>
      <rect id="Rectángulo_28355" data-name="Rectángulo 28355" width="7.608" height="5.768" transform="translate(21.458)" fill="#167377"/>
      <rect id="Rectángulo_28356" data-name="Rectángulo 28356" width="7.609" height="5.768" transform="translate(32.186)" fill="#f1f1f1"/>
      <rect id="Rectángulo_28357" data-name="Rectángulo 28357" width="7.609" height="5.768" transform="translate(42.915)" fill="#f1f1f1"/>
      <rect id="Rectángulo_28358" data-name="Rectángulo 28358" width="7.609" height="5.768" transform="translate(53.643)" fill="#167377"/>
      <rect id="Rectángulo_28359" data-name="Rectángulo 28359" width="7.609" height="5.768" transform="translate(0 9.849)" fill="#f1f1f1"/>
      <rect id="Rectángulo_28360" data-name="Rectángulo 28360" width="7.609" height="5.768" transform="translate(10.729 9.849)" fill="#f1f1f1"/>
      <rect id="Rectángulo_28361" data-name="Rectángulo 28361" width="7.608" height="5.768" transform="translate(21.458 9.849)" fill="#f1f1f1"/>
      <rect id="Rectángulo_28362" data-name="Rectángulo 28362" width="7.609" height="5.768" transform="translate(32.186 9.849)" fill="#f1f1f1"/>
      <rect id="Rectángulo_28363" data-name="Rectángulo 28363" width="7.609" height="5.768" transform="translate(42.915 9.849)" fill="#167377"/>
      <rect id="Rectángulo_28364" data-name="Rectángulo 28364" width="7.609" height="5.768" transform="translate(53.643 9.849)" fill="#f1f1f1"/>
      <rect id="Rectángulo_28365" data-name="Rectángulo 28365" width="7.609" height="5.768" transform="translate(0 19.697)" fill="#f1f1f1"/>
      <rect id="Rectángulo_28366" data-name="Rectángulo 28366" width="7.609" height="5.768" transform="translate(10.729 19.697)" fill="#167377"/>
      <rect id="Rectángulo_28367" data-name="Rectángulo 28367" width="7.608" height="5.768" transform="translate(21.458 19.697)" fill="#f1f1f1"/>
      <rect id="Rectángulo_28368" data-name="Rectángulo 28368" width="7.609" height="5.768" transform="translate(32.186 19.697)" fill="#f1f1f1"/>
      <rect id="Rectángulo_28369" data-name="Rectángulo 28369" width="7.609" height="5.768" transform="translate(42.915 19.697)" fill="#f1f1f1"/>
      <rect id="Rectángulo_28370" data-name="Rectángulo 28370" width="7.609" height="5.768" transform="translate(53.643 19.697)" fill="#f1f1f1"/>
      <rect id="Rectángulo_28371" data-name="Rectángulo 28371" width="7.609" height="5.768" transform="translate(0 29.546)" fill="#f1f1f1"/>
      <rect id="Rectángulo_28372" data-name="Rectángulo 28372" width="7.609" height="5.768" transform="translate(10.729 29.546)" fill="#f1f1f1"/>
      <rect id="Rectángulo_28373" data-name="Rectángulo 28373" width="7.608" height="5.768" transform="translate(21.458 29.546)" fill="#167377"/>
      <rect id="Rectángulo_28374" data-name="Rectángulo 28374" width="7.609" height="5.768" transform="translate(32.186 29.546)" fill="#f1f1f1"/>
    </g>
  </g>
</svg>
