<svg xmlns="http://www.w3.org/2000/svg" width="255.084" height="239.082" viewBox="0 0 255.084 239.082">
  <g id="Grupo_12273" data-name="Grupo 12273" transform="translate(-853.317 -138.127)">
    <rect id="Rectángulo_2740" data-name="Rectángulo 2740" width="87.009" height="87.009" rx="10" transform="translate(1016.041 138.127)" fill="#b54273"/>
    <rect id="Rectángulo_2741" data-name="Rectángulo 2741" width="87.009" height="87.009" rx="10" transform="translate(919.706 138.127)" fill="#7d6eb2"/>
    <rect id="Rectángulo_2742" data-name="Rectángulo 2742" width="87.009" height="87.009" rx="10" transform="translate(919.706 233.801)" fill="#167377"/>
    <rect id="Rectángulo_2743" data-name="Rectángulo 2743" width="87.009" height="87.009" rx="10" transform="translate(1016.041 233.801)" fill="#ffd947"/>
    <path id="Trazado_131815" data-name="Trazado 131815" d="M-23.52-3.006V0h-1.758V-8.531h3.328a3.85,3.85,0,0,1,1.69.352,2.591,2.591,0,0,1,1.122,1,2.786,2.786,0,0,1,.393,1.474A2.45,2.45,0,0,1-19.6-3.729a3.575,3.575,0,0,1-2.376.724Zm0-1.424h1.57a1.544,1.544,0,0,0,1.063-.328A1.193,1.193,0,0,0-20.52-5.7a1.407,1.407,0,0,0-.369-1.014,1.379,1.379,0,0,0-1.02-.4H-23.52Zm9.434-.322A4.6,4.6,0,0,0-14.7-4.8a1.24,1.24,0,0,0-1.26.65V0h-1.693V-6.34h1.6l.047.756a1.569,1.569,0,0,1,1.412-.873,1.774,1.774,0,0,1,.527.076Zm.34,1.523a3.76,3.76,0,0,1,.363-1.682,2.659,2.659,0,0,1,1.046-1.143,3.051,3.051,0,0,1,1.585-.4,2.887,2.887,0,0,1,2.095.785,3.151,3.151,0,0,1,.905,2.133l.012.434A3.314,3.314,0,0,1-8.555-.765,2.831,2.831,0,0,1-10.74.117a2.845,2.845,0,0,1-2.188-.879,3.372,3.372,0,0,1-.817-2.391Zm1.693.12a2.37,2.37,0,0,0,.34,1.382,1.121,1.121,0,0,0,.973.478,1.124,1.124,0,0,0,.961-.472,2.593,2.593,0,0,0,.346-1.511A2.346,2.346,0,0,0-9.779-4.6a1.124,1.124,0,0,0-.973-.487,1.105,1.105,0,0,0-.961.484A2.637,2.637,0,0,0-12.053-3.108Zm5.092-.108A3.821,3.821,0,0,1-6.3-5.578a2.158,2.158,0,0,1,1.819-.879,1.942,1.942,0,0,1,1.529.691V-9h1.7V0H-2.777l-.082-.674A1.993,1.993,0,0,1-4.488.117a2.152,2.152,0,0,1-1.8-.882A3.944,3.944,0,0,1-6.961-3.217Zm1.693.12a2.516,2.516,0,0,0,.311,1.371,1.011,1.011,0,0,0,.9.477,1.133,1.133,0,0,0,1.107-.665V-4.427a1.116,1.116,0,0,0-1.1-.665Q-5.268-5.092-5.268-3.1ZM3.861-.645A2.124,2.124,0,0,1,2.127.117,2,2,0,0,1,.571-.469,2.5,2.5,0,0,1,.023-2.186V-6.34H1.717v4.1q0,.991.9.991a1.223,1.223,0,0,0,1.184-.6V-6.34H5.5V0H3.908Zm5.555-.6a1.111,1.111,0,0,0,.762-.258.9.9,0,0,0,.3-.686H12.07a2.172,2.172,0,0,1-.352,1.181,2.32,2.32,0,0,1-.946.832,2.962,2.962,0,0,1-1.327.3A2.752,2.752,0,0,1,7.3-.747a3.42,3.42,0,0,1-.785-2.388v-.111a3.381,3.381,0,0,1,.779-2.338,2.72,2.72,0,0,1,2.139-.873,2.667,2.667,0,0,1,1.907.677,2.4,2.4,0,0,1,.729,1.8H10.482a1.164,1.164,0,0,0-.3-.8A1.016,1.016,0,0,0,9.4-5.092a1.02,1.02,0,0,0-.894.431,2.5,2.5,0,0,0-.3,1.4v.176a2.531,2.531,0,0,0,.3,1.408A1.033,1.033,0,0,0,9.416-1.248ZM15.064-7.9V-6.34h1.084V-5.1H15.064v3.164a.756.756,0,0,0,.135.5.677.677,0,0,0,.516.152,2.7,2.7,0,0,0,.5-.041V-.035a3.486,3.486,0,0,1-1.025.152,1.617,1.617,0,0,1-1.816-1.8V-5.1h-.926V-6.34h.926V-7.9Zm1.588,4.67a3.76,3.76,0,0,1,.363-1.682,2.659,2.659,0,0,1,1.046-1.143,3.051,3.051,0,0,1,1.585-.4,2.887,2.887,0,0,1,2.095.785,3.151,3.151,0,0,1,.905,2.133l.012.434a3.314,3.314,0,0,1-.814,2.341,2.831,2.831,0,0,1-2.186.882A2.845,2.845,0,0,1,17.47-.762a3.372,3.372,0,0,1-.817-2.391Zm1.693.12a2.37,2.37,0,0,0,.34,1.382,1.121,1.121,0,0,0,.973.478,1.124,1.124,0,0,0,.961-.472,2.593,2.593,0,0,0,.346-1.511A2.346,2.346,0,0,0,20.619-4.6a1.124,1.124,0,0,0-.973-.487,1.105,1.105,0,0,0-.961.484A2.637,2.637,0,0,0,18.346-3.108ZM-16.562,10.117a3.112,3.112,0,0,1-2.271-.855,3.041,3.041,0,0,1-.876-2.279V6.818a3.83,3.83,0,0,1,.369-1.708,2.709,2.709,0,0,1,1.046-1.16,2.936,2.936,0,0,1,1.544-.407,2.631,2.631,0,0,1,2.048.82,3.333,3.333,0,0,1,.747,2.326v.691h-4.037a1.573,1.573,0,0,0,.5,1,1.5,1.5,0,0,0,1.046.375,1.828,1.828,0,0,0,1.529-.709l.832.932a2.542,2.542,0,0,1-1.031.841A3.383,3.383,0,0,1-16.562,10.117Zm-.193-5.209a1.058,1.058,0,0,0-.817.341,1.768,1.768,0,0,0-.4.977h2.355V6.091a1.261,1.261,0,0,0-.3-.874A1.092,1.092,0,0,0-16.755,4.908Zm7.2,3.34a.546.546,0,0,0-.308-.489,3.494,3.494,0,0,0-.987-.319q-2.262-.475-2.262-1.922a1.742,1.742,0,0,1,.7-1.409,2.825,2.825,0,0,1,1.831-.565,3.04,3.04,0,0,1,1.931.568,1.791,1.791,0,0,1,.724,1.477H-9.624a.819.819,0,0,0-.234-.6.992.992,0,0,0-.732-.237,1.013,1.013,0,0,0-.662.193.61.61,0,0,0-.234.492.522.522,0,0,0,.267.454,2.743,2.743,0,0,0,.9.3,7.346,7.346,0,0,1,1.066.284A1.752,1.752,0,0,1-7.913,8.178a1.654,1.654,0,0,1-.744,1.4,3.21,3.21,0,0,1-1.922.536,3.353,3.353,0,0,1-1.415-.284,2.374,2.374,0,0,1-.97-.779,1.811,1.811,0,0,1-.352-1.069h1.605a.884.884,0,0,0,.334.691,1.325,1.325,0,0,0,.832.24,1.226,1.226,0,0,0,.735-.185A.574.574,0,0,0-9.56,8.248ZM-4.8,2.1V3.66h1.084V4.9H-4.8V8.066a.756.756,0,0,0,.135.5.677.677,0,0,0,.516.152,2.7,2.7,0,0,0,.5-.041V9.965a3.486,3.486,0,0,1-1.025.152,1.617,1.617,0,0,1-1.816-1.8V4.9h-.926V3.66h.926V2.1ZM.794,5.248A4.6,4.6,0,0,0,.185,5.2a1.24,1.24,0,0,0-1.26.65V10H-2.769V3.66h1.6l.047.756A1.569,1.569,0,0,1,.29,3.543a1.774,1.774,0,0,1,.527.076Zm3.621,4.869a3.112,3.112,0,0,1-2.271-.855,3.041,3.041,0,0,1-.876-2.279V6.818A3.83,3.83,0,0,1,1.638,5.11,2.709,2.709,0,0,1,2.684,3.95a2.936,2.936,0,0,1,1.544-.407,2.631,2.631,0,0,1,2.048.82,3.333,3.333,0,0,1,.747,2.326v.691H2.985a1.573,1.573,0,0,0,.5,1,1.5,1.5,0,0,0,1.046.375,1.828,1.828,0,0,0,1.529-.709l.832.932a2.542,2.542,0,0,1-1.031.841A3.383,3.383,0,0,1,4.415,10.117ZM4.222,4.908A1.058,1.058,0,0,0,3.4,5.25a1.768,1.768,0,0,0-.4.977H5.358V6.091a1.261,1.261,0,0,0-.3-.874A1.092,1.092,0,0,0,4.222,4.908ZM9.771,10h-1.7V1h1.7Zm3.182,0h-1.7V1h1.7Zm5.068,0a1.88,1.88,0,0,1-.17-.568,2.049,2.049,0,0,1-1.6.686,2.251,2.251,0,0,1-1.544-.539,1.734,1.734,0,0,1-.612-1.359,1.792,1.792,0,0,1,.747-1.547A3.686,3.686,0,0,1,17,6.127h.779V5.764a1.045,1.045,0,0,0-.226-.7.887.887,0,0,0-.712-.264A1.009,1.009,0,0,0,16.172,5a.7.7,0,0,0-.243.563H14.235a1.7,1.7,0,0,1,.34-1.02,2.246,2.246,0,0,1,.961-.735,3.5,3.5,0,0,1,1.395-.267,2.767,2.767,0,0,1,1.86.589,2.06,2.06,0,0,1,.688,1.655V8.535A3.031,3.031,0,0,0,19.731,9.9V10Zm-1.4-1.178a1.458,1.458,0,0,0,.691-.167,1.1,1.1,0,0,0,.469-.448V7.117h-.633q-1.271,0-1.354.879l-.006.1a.678.678,0,0,0,.223.521A.865.865,0,0,0,16.62,8.822Z" transform="translate(962.819 153.901)" fill="#fff"/>
    <path id="Trazado_131819" data-name="Trazado 131819" d="M-12.3-4.082h-3.878V0H-17.4V-9.242h5.726v1h-4.507v3.167H-12.3Zm6,3.4A2.494,2.494,0,0,1-8.312.127,2.135,2.135,0,0,1-9.985-.511,2.761,2.761,0,0,1-10.566-2.4V-6.868h1.174v4.437q0,1.562,1.27,1.562a1.758,1.758,0,0,0,1.79-1v-5h1.174V0H-6.275ZM-.524.127A3,3,0,0,1-2.8-.79a3.4,3.4,0,0,1-.876-2.453v-.216a4.121,4.121,0,0,1,.39-1.825A3.045,3.045,0,0,1-2.19-6.541,2.745,2.745,0,0,1-.67-7a2.572,2.572,0,0,1,2.082.882,3.82,3.82,0,0,1,.743,2.526V-3.1H-2.5A2.441,2.441,0,0,0-1.9-1.457,1.866,1.866,0,0,0-.46-.832,2.045,2.045,0,0,0,.594-1.085a2.648,2.648,0,0,0,.755-.673l.717.559A2.884,2.884,0,0,1-.524.127ZM-.67-6.03a1.566,1.566,0,0,0-1.193.517,2.515,2.515,0,0,0-.6,1.45H.981v-.089A2.237,2.237,0,0,0,.5-5.538,1.475,1.475,0,0,0-.67-6.03Zm7.5.216a3.519,3.519,0,0,0-.578-.044,1.547,1.547,0,0,0-1.568.984V0H3.513V-6.868H4.656l.019.793A1.829,1.829,0,0,1,6.313-7a1.2,1.2,0,0,1,.521.089Zm2.99-2.717v1.663h1.282v.908H9.823V-1.7a.953.953,0,0,0,.171.62.721.721,0,0,0,.584.207,2.843,2.843,0,0,0,.559-.076V0a3.424,3.424,0,0,1-.9.126A1.462,1.462,0,0,1,9.049-.349a2.045,2.045,0,0,1-.4-1.352V-5.96H7.4v-.908h1.25V-8.531Zm5.5,8.658A3,3,0,0,1,13.054-.79a3.4,3.4,0,0,1-.876-2.453v-.216a4.121,4.121,0,0,1,.39-1.825A3.045,3.045,0,0,1,13.66-6.541,2.745,2.745,0,0,1,15.18-7a2.572,2.572,0,0,1,2.082.882,3.82,3.82,0,0,1,.743,2.526V-3.1H13.352a2.441,2.441,0,0,0,.594,1.641,1.866,1.866,0,0,0,1.444.625,2.045,2.045,0,0,0,1.054-.254,2.648,2.648,0,0,0,.755-.673l.717.559A2.884,2.884,0,0,1,15.326.127ZM15.18-6.03a1.566,1.566,0,0,0-1.193.517,2.515,2.515,0,0,0-.6,1.45h3.44v-.089a2.237,2.237,0,0,0-.482-1.387A1.475,1.475,0,0,0,15.18-6.03Z" transform="translate(963.222 341.133)" fill="#12263f"/>
    <path id="Trazado_131813" data-name="Trazado 131813" d="M-5.408-2.418H-9.28L-10.15,0h-1.257l3.529-9.242h1.066L-3.275,0h-1.25Zm-3.5-1H-5.77L-7.344-7.738ZM-.939,0H-2.114V-9.75H-.939ZM2.533-8.531v1.663H3.815v.908H2.533V-1.7a.953.953,0,0,0,.171.62.721.721,0,0,0,.584.207,2.843,2.843,0,0,0,.559-.076V0a3.424,3.424,0,0,1-.9.126A1.462,1.462,0,0,1,1.758-.349a2.045,2.045,0,0,1-.4-1.352V-5.96H.108v-.908h1.25V-8.531ZM4.748-3.5a4.057,4.057,0,0,1,.4-1.815,2.96,2.96,0,0,1,1.1-1.244A3.007,3.007,0,0,1,7.865-7a2.9,2.9,0,0,1,2.269.971A3.736,3.736,0,0,1,11-3.44v.083a4.092,4.092,0,0,1-.384,1.8,2.916,2.916,0,0,1-1.1,1.241A3.041,3.041,0,0,1,7.877.127,2.889,2.889,0,0,1,5.615-.844a3.718,3.718,0,0,1-.866-2.571Zm1.181.14a2.938,2.938,0,0,0,.53,1.834,1.7,1.7,0,0,0,1.419.692,1.686,1.686,0,0,0,1.422-.7A3.213,3.213,0,0,0,9.826-3.5,2.933,2.933,0,0,0,9.29-5.329a1.705,1.705,0,0,0-1.425-.7,1.686,1.686,0,0,0-1.4.692A3.189,3.189,0,0,0,5.929-3.358Z" transform="translate(905.672 183.82) rotate(-90)" fill="#12263f"/>
    <path id="Trazado_131820" data-name="Trazado 131820" d="M-13.435,0V-9.242h2.609a4.2,4.2,0,0,1,2.133.533A3.606,3.606,0,0,1-7.262-7.192a4.938,4.938,0,0,1,.511,2.26v.59a4.955,4.955,0,0,1-.5,2.292A3.55,3.55,0,0,1-8.7-.54a4.467,4.467,0,0,1-2.18.54Zm1.219-8.246V-1h1.282a2.79,2.79,0,0,0,2.193-.877,3.622,3.622,0,0,0,.784-2.5v-.54A3.68,3.68,0,0,0-8.7-7.359a2.632,2.632,0,0,0-2.1-.886ZM-2.244.127A3,3,0,0,1-4.516-.79a3.4,3.4,0,0,1-.876-2.453v-.216A4.121,4.121,0,0,1-5-5.284,3.045,3.045,0,0,1-3.91-6.541,2.745,2.745,0,0,1-2.39-7a2.572,2.572,0,0,1,2.082.882A3.82,3.82,0,0,1,.435-3.586V-3.1H-4.218a2.441,2.441,0,0,0,.594,1.641A1.866,1.866,0,0,0-2.18-.832a2.045,2.045,0,0,0,1.054-.254,2.648,2.648,0,0,0,.755-.673L.346-1.2A2.884,2.884,0,0,1-2.244.127ZM-2.39-6.03a1.566,1.566,0,0,0-1.193.517,2.515,2.515,0,0,0-.6,1.45H-.74v-.089a2.237,2.237,0,0,0-.482-1.387A1.475,1.475,0,0,0-2.39-6.03Zm.571-3.707H-.4L-2.1-7.871l-.946,0ZM7.608-3.358a4.084,4.084,0,0,1-.724,2.53A2.312,2.312,0,0,1,4.942.127a2.394,2.394,0,0,1-2.012-.92L2.872,0H1.793V-9.75H2.968v3.637A2.381,2.381,0,0,1,4.929-7a2.326,2.326,0,0,1,1.965.946,4.206,4.206,0,0,1,.714,2.59ZM6.433-3.491A3.173,3.173,0,0,0,5.97-5.345,1.534,1.534,0,0,0,4.637-6,1.724,1.724,0,0,0,2.968-4.919v2.971A1.772,1.772,0,0,0,4.65-.87a1.526,1.526,0,0,0,1.314-.654A3.375,3.375,0,0,0,6.433-3.491ZM10.363,0H9.188V-6.868h1.174ZM9.093-8.69a.7.7,0,0,1,.175-.482.655.655,0,0,1,.517-.2.666.666,0,0,1,.521.2.694.694,0,0,1,.178.482.671.671,0,0,1-.178.476.678.678,0,0,1-.521.19.667.667,0,0,1-.517-.19A.678.678,0,0,1,9.093-8.69ZM13.517,0H12.343V-9.75h1.174Z" transform="translate(1058.398 340.574)" fill="#12263f"/>
    <path id="Trazado_131814" data-name="Trazado 131814" d="M-11.769,0V-9.242h3.021a3.507,3.507,0,0,1,2.263.622,2.242,2.242,0,0,1,.759,1.841,1.877,1.877,0,0,1-.368,1.146,2.387,2.387,0,0,1-1,.771,2.143,2.143,0,0,1,1.184.8,2.286,2.286,0,0,1,.435,1.4A2.472,2.472,0,0,1-6.284-.711,3.334,3.334,0,0,1-8.563,0Zm1.219-4.323V-1h2.012A1.938,1.938,0,0,0-7.2-1.438,1.549,1.549,0,0,0-6.7-2.653q0-1.669-1.815-1.669Zm0-.978h1.841A1.93,1.93,0,0,0-7.43-5.7a1.344,1.344,0,0,0,.479-1.088A1.321,1.321,0,0,0-7.4-7.9a2.182,2.182,0,0,0-1.352-.347h-1.8ZM.381,0A2.467,2.467,0,0,1,.216-.724,2.62,2.62,0,0,1-1.739.127,2.424,2.424,0,0,1-3.406-.448,1.859,1.859,0,0,1-4.056-1.9,1.942,1.942,0,0,1-3.24-3.571,3.846,3.846,0,0,1-.946-4.164H.2V-4.7a1.319,1.319,0,0,0-.368-.981,1.48,1.48,0,0,0-1.085-.365,1.712,1.712,0,0,0-1.054.317.935.935,0,0,0-.425.768H-3.917a1.621,1.621,0,0,1,.365-.993,2.491,2.491,0,0,1,.99-.759A3.331,3.331,0,0,1-1.187-7,2.715,2.715,0,0,1,.673-6.4a2.141,2.141,0,0,1,.7,1.635v3.161A3.865,3.865,0,0,0,1.612-.1V0ZM-1.568-.9A2.064,2.064,0,0,0-.521-1.181,1.728,1.728,0,0,0,.2-1.923V-3.333h-.92q-2.158,0-2.158,1.263a1.069,1.069,0,0,0,.368.863A1.415,1.415,0,0,0-1.568-.9ZM4.424-6.868V.793q0,1.98-1.8,1.98a2.191,2.191,0,0,1-.717-.114V1.727a2.27,2.27,0,0,0,.533.051.8.8,0,0,0,.6-.213A1.052,1.052,0,0,0,3.25.825V-6.868ZM3.129-8.69A.7.7,0,0,1,3.3-9.169a.642.642,0,0,1,.511-.2.666.666,0,0,1,.521.2.694.694,0,0,1,.178.482.671.671,0,0,1-.178.476.678.678,0,0,1-.521.19.657.657,0,0,1-.514-.19A.685.685,0,0,1,3.129-8.69ZM6-3.5a4.057,4.057,0,0,1,.4-1.815,2.96,2.96,0,0,1,1.1-1.244A3.007,3.007,0,0,1,9.122-7a2.9,2.9,0,0,1,2.269.971,3.736,3.736,0,0,1,.866,2.583v.083a4.092,4.092,0,0,1-.384,1.8,2.916,2.916,0,0,1-1.1,1.241A3.041,3.041,0,0,1,9.134.127,2.889,2.889,0,0,1,6.871-.844,3.718,3.718,0,0,1,6-3.415Zm1.181.14a2.938,2.938,0,0,0,.53,1.834,1.7,1.7,0,0,0,1.419.692,1.686,1.686,0,0,0,1.422-.7A3.213,3.213,0,0,0,11.083-3.5a2.933,2.933,0,0,0-.536-1.831,1.705,1.705,0,0,0-1.425-.7,1.686,1.686,0,0,0-1.4.692A3.189,3.189,0,0,0,7.186-3.358Z" transform="translate(906.114 279.699) rotate(-90)" fill="#12263f"/>
    <path id="Trazado_131816" data-name="Trazado 131816" d="M-23.52-3.006V0h-1.758V-8.531h3.328a3.85,3.85,0,0,1,1.69.352,2.591,2.591,0,0,1,1.122,1,2.786,2.786,0,0,1,.393,1.474A2.45,2.45,0,0,1-19.6-3.729a3.575,3.575,0,0,1-2.376.724Zm0-1.424h1.57a1.544,1.544,0,0,0,1.063-.328A1.193,1.193,0,0,0-20.52-5.7a1.407,1.407,0,0,0-.369-1.014,1.379,1.379,0,0,0-1.02-.4H-23.52Zm9.434-.322A4.6,4.6,0,0,0-14.7-4.8a1.24,1.24,0,0,0-1.26.65V0h-1.693V-6.34h1.6l.047.756a1.569,1.569,0,0,1,1.412-.873,1.774,1.774,0,0,1,.527.076Zm.34,1.523a3.76,3.76,0,0,1,.363-1.682,2.659,2.659,0,0,1,1.046-1.143,3.051,3.051,0,0,1,1.585-.4,2.887,2.887,0,0,1,2.095.785,3.151,3.151,0,0,1,.905,2.133l.012.434A3.314,3.314,0,0,1-8.555-.765,2.831,2.831,0,0,1-10.74.117a2.845,2.845,0,0,1-2.188-.879,3.372,3.372,0,0,1-.817-2.391Zm1.693.12a2.37,2.37,0,0,0,.34,1.382,1.121,1.121,0,0,0,.973.478,1.124,1.124,0,0,0,.961-.472,2.593,2.593,0,0,0,.346-1.511A2.346,2.346,0,0,0-9.779-4.6a1.124,1.124,0,0,0-.973-.487,1.105,1.105,0,0,0-.961.484A2.637,2.637,0,0,0-12.053-3.108Zm5.092-.108A3.821,3.821,0,0,1-6.3-5.578a2.158,2.158,0,0,1,1.819-.879,1.942,1.942,0,0,1,1.529.691V-9h1.7V0H-2.777l-.082-.674A1.993,1.993,0,0,1-4.488.117a2.152,2.152,0,0,1-1.8-.882A3.944,3.944,0,0,1-6.961-3.217Zm1.693.12a2.516,2.516,0,0,0,.311,1.371,1.011,1.011,0,0,0,.9.477,1.133,1.133,0,0,0,1.107-.665V-4.427a1.116,1.116,0,0,0-1.1-.665Q-5.268-5.092-5.268-3.1ZM3.861-.645A2.124,2.124,0,0,1,2.127.117,2,2,0,0,1,.571-.469,2.5,2.5,0,0,1,.023-2.186V-6.34H1.717v4.1q0,.991.9.991a1.223,1.223,0,0,0,1.184-.6V-6.34H5.5V0H3.908Zm5.555-.6a1.111,1.111,0,0,0,.762-.258.9.9,0,0,0,.3-.686H12.07a2.172,2.172,0,0,1-.352,1.181,2.32,2.32,0,0,1-.946.832,2.962,2.962,0,0,1-1.327.3A2.752,2.752,0,0,1,7.3-.747a3.42,3.42,0,0,1-.785-2.388v-.111a3.381,3.381,0,0,1,.779-2.338,2.72,2.72,0,0,1,2.139-.873,2.667,2.667,0,0,1,1.907.677,2.4,2.4,0,0,1,.729,1.8H10.482a1.164,1.164,0,0,0-.3-.8A1.016,1.016,0,0,0,9.4-5.092a1.02,1.02,0,0,0-.894.431,2.5,2.5,0,0,0-.3,1.4v.176a2.531,2.531,0,0,0,.3,1.408A1.033,1.033,0,0,0,9.416-1.248ZM15.064-7.9V-6.34h1.084V-5.1H15.064v3.164a.756.756,0,0,0,.135.5.677.677,0,0,0,.516.152,2.7,2.7,0,0,0,.5-.041V-.035a3.486,3.486,0,0,1-1.025.152,1.617,1.617,0,0,1-1.816-1.8V-5.1h-.926V-6.34h.926V-7.9Zm1.588,4.67a3.76,3.76,0,0,1,.363-1.682,2.659,2.659,0,0,1,1.046-1.143,3.051,3.051,0,0,1,1.585-.4,2.887,2.887,0,0,1,2.095.785,3.151,3.151,0,0,1,.905,2.133l.012.434a3.314,3.314,0,0,1-.814,2.341,2.831,2.831,0,0,1-2.186.882A2.845,2.845,0,0,1,17.47-.762a3.372,3.372,0,0,1-.817-2.391Zm1.693.12a2.37,2.37,0,0,0,.34,1.382,1.121,1.121,0,0,0,.973.478,1.124,1.124,0,0,0,.961-.472,2.593,2.593,0,0,0,.346-1.511A2.346,2.346,0,0,0,20.619-4.6a1.124,1.124,0,0,0-.973-.487,1.105,1.105,0,0,0-.961.484A2.637,2.637,0,0,0,18.346-3.108ZM-22.655,10h-1.7V3.66h1.7Zm-1.8-7.98a.834.834,0,0,1,.255-.627.958.958,0,0,1,.694-.246.96.96,0,0,1,.691.246.829.829,0,0,1,.258.627.831.831,0,0,1-.261.633A.962.962,0,0,1-23.5,2.9a.962.962,0,0,1-.688-.246A.831.831,0,0,1-24.454,2.02ZM-19.7,3.66l.053.732a2.213,2.213,0,0,1,1.822-.85,1.84,1.84,0,0,1,1.5.592,2.761,2.761,0,0,1,.5,1.77V10h-1.693V5.936a1.1,1.1,0,0,0-.234-.784,1.048,1.048,0,0,0-.779-.244,1.164,1.164,0,0,0-1.072.611V10H-21.3V3.66Zm7.8,5.092a1.111,1.111,0,0,0,.762-.258.9.9,0,0,0,.3-.686h1.588A2.172,2.172,0,0,1-9.6,8.989a2.32,2.32,0,0,1-.946.832,2.962,2.962,0,0,1-1.327.3,2.752,2.752,0,0,1-2.145-.864A3.42,3.42,0,0,1-14.8,6.865V6.754a3.381,3.381,0,0,1,.779-2.338,2.72,2.72,0,0,1,2.139-.873,2.667,2.667,0,0,1,1.907.677,2.4,2.4,0,0,1,.729,1.8h-1.588a1.164,1.164,0,0,0-.3-.8,1.016,1.016,0,0,0-.773-.309,1.02,1.02,0,0,0-.894.431,2.5,2.5,0,0,0-.3,1.4v.176a2.531,2.531,0,0,0,.3,1.408A1.033,1.033,0,0,0-11.9,8.752Zm3.357-1.98A3.76,3.76,0,0,1-8.183,5.09,2.659,2.659,0,0,1-7.137,3.947a3.051,3.051,0,0,1,1.585-.4,2.887,2.887,0,0,1,2.095.785,3.151,3.151,0,0,1,.905,2.133l.012.434a3.314,3.314,0,0,1-.814,2.341,2.831,2.831,0,0,1-2.186.882,2.845,2.845,0,0,1-2.188-.879,3.372,3.372,0,0,1-.817-2.391Zm1.693.12a2.37,2.37,0,0,0,.34,1.382,1.121,1.121,0,0,0,.973.478,1.124,1.124,0,0,0,.961-.472,2.593,2.593,0,0,0,.346-1.511A2.346,2.346,0,0,0-4.579,5.4a1.124,1.124,0,0,0-.973-.487,1.105,1.105,0,0,0-.961.484A2.637,2.637,0,0,0-6.853,6.892ZM-5.218,1h1.846L-5,2.816H-6.372Zm3.475,5.783a3.716,3.716,0,0,1,.694-2.35A2.25,2.25,0,0,1,.823,3.543a1.973,1.973,0,0,1,1.623.715l.07-.6H4.052V9.789a2.71,2.71,0,0,1-.378,1.447,2.427,2.427,0,0,1-1.063.938A3.739,3.739,0,0,1,1,12.5a3.476,3.476,0,0,1-1.359-.278,2.413,2.413,0,0,1-1-.718l.75-1.031a1.984,1.984,0,0,0,1.535.709,1.452,1.452,0,0,0,1.049-.36,1.352,1.352,0,0,0,.375-1.022v-.34a1.959,1.959,0,0,1-1.541.662,2.244,2.244,0,0,1-1.849-.894,3.715,3.715,0,0,1-.706-2.37ZM-.05,6.9A2.326,2.326,0,0,0,.3,8.26a1.1,1.1,0,0,0,.949.492,1.175,1.175,0,0,0,1.107-.583V5.491a1.172,1.172,0,0,0-1.1-.583,1.106,1.106,0,0,0-.958.5A2.622,2.622,0,0,0-.05,6.9ZM6.911,3.66l.053.732a2.213,2.213,0,0,1,1.822-.85,1.84,1.84,0,0,1,1.5.592,2.761,2.761,0,0,1,.5,1.77V10H9.1V5.936a1.1,1.1,0,0,0-.234-.784,1.048,1.048,0,0,0-.779-.244,1.164,1.164,0,0,0-1.072.611V10H5.317V3.66ZM13.86,10h-1.7V3.66h1.7Zm-1.8-7.98a.834.834,0,0,1,.255-.627,1.1,1.1,0,0,1,1.386,0,.829.829,0,0,1,.258.627.831.831,0,0,1-.261.633,1.086,1.086,0,0,1-1.377,0A.831.831,0,0,1,12.062,2.02Zm5.221.082V3.66h1.084V4.9H17.282V8.066a.756.756,0,0,0,.135.5.677.677,0,0,0,.516.152,2.7,2.7,0,0,0,.5-.041V9.965a3.486,3.486,0,0,1-1.025.152,1.617,1.617,0,0,1-1.816-1.8V4.9h-.926V3.66h.926V2.1Zm5.7,7.9a1.88,1.88,0,0,1-.17-.568,2.049,2.049,0,0,1-1.6.686,2.251,2.251,0,0,1-1.544-.539,1.734,1.734,0,0,1-.612-1.359A1.792,1.792,0,0,1,19.8,6.672a3.686,3.686,0,0,1,2.159-.545h.779V5.764a1.045,1.045,0,0,0-.226-.7.887.887,0,0,0-.712-.264A1.009,1.009,0,0,0,21.135,5a.7.7,0,0,0-.243.563H19.2a1.7,1.7,0,0,1,.34-1.02A2.246,2.246,0,0,1,20.5,3.81a3.5,3.5,0,0,1,1.395-.267,2.767,2.767,0,0,1,1.86.589,2.06,2.06,0,0,1,.688,1.655V8.535A3.031,3.031,0,0,0,24.694,9.9V10Zm-1.4-1.178a1.458,1.458,0,0,0,.691-.167,1.1,1.1,0,0,0,.469-.448V7.117H22.11q-1.271,0-1.354.879l-.006.1a.678.678,0,0,0,.223.521A.865.865,0,0,0,21.583,8.822Z" transform="translate(1059.42 151.901)" fill="#fff"/>
    <path id="Trazado_131818" data-name="Trazado 131818" d="M-23.52-3.006V0h-1.758V-8.531h3.328a3.85,3.85,0,0,1,1.69.352,2.591,2.591,0,0,1,1.122,1,2.786,2.786,0,0,1,.393,1.474A2.45,2.45,0,0,1-19.6-3.729a3.575,3.575,0,0,1-2.376.724Zm0-1.424h1.57a1.544,1.544,0,0,0,1.063-.328A1.193,1.193,0,0,0-20.52-5.7a1.407,1.407,0,0,0-.369-1.014,1.379,1.379,0,0,0-1.02-.4H-23.52Zm9.434-.322A4.6,4.6,0,0,0-14.7-4.8a1.24,1.24,0,0,0-1.26.65V0h-1.693V-6.34h1.6l.047.756a1.569,1.569,0,0,1,1.412-.873,1.774,1.774,0,0,1,.527.076Zm.34,1.523a3.76,3.76,0,0,1,.363-1.682,2.659,2.659,0,0,1,1.046-1.143,3.051,3.051,0,0,1,1.585-.4,2.887,2.887,0,0,1,2.095.785,3.151,3.151,0,0,1,.905,2.133l.012.434A3.314,3.314,0,0,1-8.555-.765,2.831,2.831,0,0,1-10.74.117a2.845,2.845,0,0,1-2.188-.879,3.372,3.372,0,0,1-.817-2.391Zm1.693.12a2.37,2.37,0,0,0,.34,1.382,1.121,1.121,0,0,0,.973.478,1.124,1.124,0,0,0,.961-.472,2.593,2.593,0,0,0,.346-1.511A2.346,2.346,0,0,0-9.779-4.6a1.124,1.124,0,0,0-.973-.487,1.105,1.105,0,0,0-.961.484A2.637,2.637,0,0,0-12.053-3.108Zm5.092-.108A3.821,3.821,0,0,1-6.3-5.578a2.158,2.158,0,0,1,1.819-.879,1.942,1.942,0,0,1,1.529.691V-9h1.7V0H-2.777l-.082-.674A1.993,1.993,0,0,1-4.488.117a2.152,2.152,0,0,1-1.8-.882A3.944,3.944,0,0,1-6.961-3.217Zm1.693.12a2.516,2.516,0,0,0,.311,1.371,1.011,1.011,0,0,0,.9.477,1.133,1.133,0,0,0,1.107-.665V-4.427a1.116,1.116,0,0,0-1.1-.665Q-5.268-5.092-5.268-3.1ZM3.861-.645A2.124,2.124,0,0,1,2.127.117,2,2,0,0,1,.571-.469,2.5,2.5,0,0,1,.023-2.186V-6.34H1.717v4.1q0,.991.9.991a1.223,1.223,0,0,0,1.184-.6V-6.34H5.5V0H3.908Zm5.555-.6a1.111,1.111,0,0,0,.762-.258.9.9,0,0,0,.3-.686H12.07a2.172,2.172,0,0,1-.352,1.181,2.32,2.32,0,0,1-.946.832,2.962,2.962,0,0,1-1.327.3A2.752,2.752,0,0,1,7.3-.747a3.42,3.42,0,0,1-.785-2.388v-.111a3.381,3.381,0,0,1,.779-2.338,2.72,2.72,0,0,1,2.139-.873,2.667,2.667,0,0,1,1.907.677,2.4,2.4,0,0,1,.729,1.8H10.482a1.164,1.164,0,0,0-.3-.8A1.016,1.016,0,0,0,9.4-5.092a1.02,1.02,0,0,0-.894.431,2.5,2.5,0,0,0-.3,1.4v.176a2.531,2.531,0,0,0,.3,1.408A1.033,1.033,0,0,0,9.416-1.248ZM15.064-7.9V-6.34h1.084V-5.1H15.064v3.164a.756.756,0,0,0,.135.5.677.677,0,0,0,.516.152,2.7,2.7,0,0,0,.5-.041V-.035a3.486,3.486,0,0,1-1.025.152,1.617,1.617,0,0,1-1.816-1.8V-5.1h-.926V-6.34h.926V-7.9Zm1.588,4.67a3.76,3.76,0,0,1,.363-1.682,2.659,2.659,0,0,1,1.046-1.143,3.051,3.051,0,0,1,1.585-.4,2.887,2.887,0,0,1,2.095.785,3.151,3.151,0,0,1,.905,2.133l.012.434a3.314,3.314,0,0,1-.814,2.341,2.831,2.831,0,0,1-2.186.882A2.845,2.845,0,0,1,17.47-.762a3.372,3.372,0,0,1-.817-2.391Zm1.693.12a2.37,2.37,0,0,0,.34,1.382,1.121,1.121,0,0,0,.973.478,1.124,1.124,0,0,0,.961-.472,2.593,2.593,0,0,0,.346-1.511A2.346,2.346,0,0,0,20.619-4.6a1.124,1.124,0,0,0-.973-.487,1.105,1.105,0,0,0-.961.484A2.637,2.637,0,0,0,18.346-3.108ZM-9.527,7.932-8.35,3.66h1.77L-8.719,10h-1.617l-2.139-6.34h1.77ZM-2.25,10a1.88,1.88,0,0,1-.17-.568,2.049,2.049,0,0,1-1.6.686,2.251,2.251,0,0,1-1.544-.539,1.734,1.734,0,0,1-.612-1.359,1.792,1.792,0,0,1,.747-1.547A3.686,3.686,0,0,1-3.27,6.127h.779V5.764a1.045,1.045,0,0,0-.226-.7A.887.887,0,0,0-3.428,4.8,1.009,1.009,0,0,0-4.1,5a.7.7,0,0,0-.243.563H-6.035a1.7,1.7,0,0,1,.34-1.02,2.246,2.246,0,0,1,.961-.735A3.5,3.5,0,0,1-3.34,3.543a2.767,2.767,0,0,1,1.86.589A2.06,2.06,0,0,1-.791,5.787V8.535A3.031,3.031,0,0,0-.539,9.9V10Zm-1.4-1.178a1.458,1.458,0,0,0,.691-.167,1.1,1.1,0,0,0,.469-.448V7.117h-.633q-1.271,0-1.354.879l-.006.1a.678.678,0,0,0,.223.521A.865.865,0,0,0-3.65,8.822Zm6.8-.07a1.111,1.111,0,0,0,.762-.258.9.9,0,0,0,.3-.686H5.8a2.172,2.172,0,0,1-.352,1.181,2.32,2.32,0,0,1-.946.832,2.962,2.962,0,0,1-1.327.3,2.752,2.752,0,0,1-2.145-.864A3.42,3.42,0,0,1,.246,6.865V6.754a3.381,3.381,0,0,1,.779-2.338,2.72,2.72,0,0,1,2.139-.873,2.667,2.667,0,0,1,1.907.677,2.4,2.4,0,0,1,.729,1.8H4.213a1.164,1.164,0,0,0-.3-.8,1.016,1.016,0,0,0-.773-.309,1.02,1.02,0,0,0-.894.431,2.5,2.5,0,0,0-.3,1.4v.176a2.531,2.531,0,0,0,.3,1.408A1.033,1.033,0,0,0,3.146,8.752ZM10.441,10a1.88,1.88,0,0,1-.17-.568,2.049,2.049,0,0,1-1.6.686,2.251,2.251,0,0,1-1.544-.539,1.734,1.734,0,0,1-.612-1.359,1.792,1.792,0,0,1,.747-1.547,3.686,3.686,0,0,1,2.159-.545H10.2V5.764a1.045,1.045,0,0,0-.226-.7A.887.887,0,0,0,9.264,4.8,1.009,1.009,0,0,0,8.593,5a.7.7,0,0,0-.243.563H6.656A1.7,1.7,0,0,1,7,4.545a2.246,2.246,0,0,1,.961-.735,3.5,3.5,0,0,1,1.395-.267,2.767,2.767,0,0,1,1.86.589A2.06,2.06,0,0,1,11.9,5.787V8.535A3.031,3.031,0,0,0,12.152,9.9V10Zm-1.4-1.178a1.458,1.458,0,0,0,.691-.167,1.1,1.1,0,0,0,.469-.448V7.117H9.568Q8.3,7.117,8.215,8l-.006.1a.678.678,0,0,0,.223.521A.865.865,0,0,0,9.041,8.822Z" transform="translate(961.982 248.01)" fill="#fff"/>
    <path id="Trazado_131817" data-name="Trazado 131817" d="M-23.52-3.006V0h-1.758V-8.531h3.328a3.85,3.85,0,0,1,1.69.352,2.591,2.591,0,0,1,1.122,1,2.786,2.786,0,0,1,.393,1.474A2.45,2.45,0,0,1-19.6-3.729a3.575,3.575,0,0,1-2.376.724Zm0-1.424h1.57a1.544,1.544,0,0,0,1.063-.328A1.193,1.193,0,0,0-20.52-5.7a1.407,1.407,0,0,0-.369-1.014,1.379,1.379,0,0,0-1.02-.4H-23.52Zm9.434-.322A4.6,4.6,0,0,0-14.7-4.8a1.24,1.24,0,0,0-1.26.65V0h-1.693V-6.34h1.6l.047.756a1.569,1.569,0,0,1,1.412-.873,1.774,1.774,0,0,1,.527.076Zm.34,1.523a3.76,3.76,0,0,1,.363-1.682,2.659,2.659,0,0,1,1.046-1.143,3.051,3.051,0,0,1,1.585-.4,2.887,2.887,0,0,1,2.095.785,3.151,3.151,0,0,1,.905,2.133l.012.434A3.314,3.314,0,0,1-8.555-.765,2.831,2.831,0,0,1-10.74.117a2.845,2.845,0,0,1-2.188-.879,3.372,3.372,0,0,1-.817-2.391Zm1.693.12a2.37,2.37,0,0,0,.34,1.382,1.121,1.121,0,0,0,.973.478,1.124,1.124,0,0,0,.961-.472,2.593,2.593,0,0,0,.346-1.511A2.346,2.346,0,0,0-9.779-4.6a1.124,1.124,0,0,0-.973-.487,1.105,1.105,0,0,0-.961.484A2.637,2.637,0,0,0-12.053-3.108Zm5.092-.108A3.821,3.821,0,0,1-6.3-5.578a2.158,2.158,0,0,1,1.819-.879,1.942,1.942,0,0,1,1.529.691V-9h1.7V0H-2.777l-.082-.674A1.993,1.993,0,0,1-4.488.117a2.152,2.152,0,0,1-1.8-.882A3.944,3.944,0,0,1-6.961-3.217Zm1.693.12a2.516,2.516,0,0,0,.311,1.371,1.011,1.011,0,0,0,.9.477,1.133,1.133,0,0,0,1.107-.665V-4.427a1.116,1.116,0,0,0-1.1-.665Q-5.268-5.092-5.268-3.1ZM3.861-.645A2.124,2.124,0,0,1,2.127.117,2,2,0,0,1,.571-.469,2.5,2.5,0,0,1,.023-2.186V-6.34H1.717v4.1q0,.991.9.991a1.223,1.223,0,0,0,1.184-.6V-6.34H5.5V0H3.908Zm5.555-.6a1.111,1.111,0,0,0,.762-.258.9.9,0,0,0,.3-.686H12.07a2.172,2.172,0,0,1-.352,1.181,2.32,2.32,0,0,1-.946.832,2.962,2.962,0,0,1-1.327.3A2.752,2.752,0,0,1,7.3-.747a3.42,3.42,0,0,1-.785-2.388v-.111a3.381,3.381,0,0,1,.779-2.338,2.72,2.72,0,0,1,2.139-.873,2.667,2.667,0,0,1,1.907.677,2.4,2.4,0,0,1,.729,1.8H10.482a1.164,1.164,0,0,0-.3-.8A1.016,1.016,0,0,0,9.4-5.092a1.02,1.02,0,0,0-.894.431,2.5,2.5,0,0,0-.3,1.4v.176a2.531,2.531,0,0,0,.3,1.408A1.033,1.033,0,0,0,9.416-1.248ZM15.064-7.9V-6.34h1.084V-5.1H15.064v3.164a.756.756,0,0,0,.135.5.677.677,0,0,0,.516.152,2.7,2.7,0,0,0,.5-.041V-.035a3.486,3.486,0,0,1-1.025.152,1.617,1.617,0,0,1-1.816-1.8V-5.1h-.926V-6.34h.926V-7.9Zm1.588,4.67a3.76,3.76,0,0,1,.363-1.682,2.659,2.659,0,0,1,1.046-1.143,3.051,3.051,0,0,1,1.585-.4,2.887,2.887,0,0,1,2.095.785,3.151,3.151,0,0,1,.905,2.133l.012.434a3.314,3.314,0,0,1-.814,2.341,2.831,2.831,0,0,1-2.186.882A2.845,2.845,0,0,1,17.47-.762a3.372,3.372,0,0,1-.817-2.391Zm1.693.12a2.37,2.37,0,0,0,.34,1.382,1.121,1.121,0,0,0,.973.478,1.124,1.124,0,0,0,.961-.472,2.593,2.593,0,0,0,.346-1.511A2.346,2.346,0,0,0,20.619-4.6a1.124,1.124,0,0,0-.973-.487,1.105,1.105,0,0,0-.961.484A2.637,2.637,0,0,0,18.346-3.108Zm-26.273,10a3.8,3.8,0,0,1-.665,2.347,2.132,2.132,0,0,1-1.8.882,1.975,1.975,0,0,1-1.553-.668v2.988h-1.693V3.66h1.57l.059.621A1.99,1.99,0,0,1-10.4,3.543a2.147,2.147,0,0,1,1.822.867A3.905,3.905,0,0,1-7.928,6.8ZM-9.621,6.76A2.509,2.509,0,0,0-9.935,5.39a1.02,1.02,0,0,0-.911-.482,1.108,1.108,0,0,0-1.1.611v2.6a1.127,1.127,0,0,0,1.107.629Q-9.621,8.752-9.621,6.76Zm5.66,3.358a3.112,3.112,0,0,1-2.271-.855,3.041,3.041,0,0,1-.876-2.279V6.818A3.83,3.83,0,0,1-6.738,5.11,2.709,2.709,0,0,1-5.692,3.95a2.936,2.936,0,0,1,1.544-.407,2.631,2.631,0,0,1,2.048.82,3.333,3.333,0,0,1,.747,2.326v.691H-5.391a1.573,1.573,0,0,0,.5,1,1.5,1.5,0,0,0,1.046.375A1.828,1.828,0,0,0-2.32,8.043l.832.932a2.542,2.542,0,0,1-1.031.841A3.383,3.383,0,0,1-3.961,10.117Zm-.193-5.209a1.058,1.058,0,0,0-.817.341,1.768,1.768,0,0,0-.4.977h2.355V6.091a1.261,1.261,0,0,0-.3-.874A1.092,1.092,0,0,0-4.154,4.908Zm7.324.34A4.6,4.6,0,0,0,2.561,5.2a1.24,1.24,0,0,0-1.26.65V10H-.393V3.66h1.6l.047.756a1.569,1.569,0,0,1,1.412-.873,1.774,1.774,0,0,1,.527.076Zm4.377,0A4.6,4.6,0,0,0,6.938,5.2a1.24,1.24,0,0,0-1.26.65V10H3.984V3.66h1.6l.047.756a1.569,1.569,0,0,1,1.412-.873,1.774,1.774,0,0,1,.527.076Zm.34,1.523A3.76,3.76,0,0,1,8.25,5.09,2.659,2.659,0,0,1,9.3,3.947a3.051,3.051,0,0,1,1.585-.4,2.887,2.887,0,0,1,2.095.785,3.151,3.151,0,0,1,.905,2.133l.012.434a3.314,3.314,0,0,1-.814,2.341,2.831,2.831,0,0,1-2.186.882A2.845,2.845,0,0,1,8.7,9.238a3.372,3.372,0,0,1-.817-2.391Zm1.693.12a2.37,2.37,0,0,0,.34,1.382,1.221,1.221,0,0,0,1.934.006A2.593,2.593,0,0,0,12.2,6.768,2.346,2.346,0,0,0,11.854,5.4a1.124,1.124,0,0,0-.973-.487,1.105,1.105,0,0,0-.961.484A2.637,2.637,0,0,0,9.58,6.892Z" transform="translate(1058.554 249.867)" fill="#fff"/>
    <path id="Trazado_131821" data-name="Trazado 131821" d="M-93.905-5.291h.7a2.322,2.322,0,0,0,1.463-.386A1.352,1.352,0,0,0-91.26-6.8a1.386,1.386,0,0,0-.407-1.1,1.906,1.906,0,0,0-1.275-.355h-.964Zm4.785-1.586a3.055,3.055,0,0,1-1.008,2.468A4.312,4.312,0,0,1-93-3.555h-.909V0h-2.119V-9.994h3.192a4.246,4.246,0,0,1,2.765.783A2.854,2.854,0,0,1-89.12-6.877ZM-82.544,0l-.4-1.039H-83a3.079,3.079,0,0,1-1.083.919,3.5,3.5,0,0,1-1.453.256,2.349,2.349,0,0,1-1.733-.629A2.415,2.415,0,0,1-87.9-2.283a2.017,2.017,0,0,1,.851-1.794,4.931,4.931,0,0,1,2.567-.639l1.326-.041v-.335a1.039,1.039,0,0,0-1.189-1.162A5.42,5.42,0,0,0-86.5-5.7l-.69-1.408a6.213,6.213,0,0,1,2.926-.69,3.644,3.644,0,0,1,2.358.67,2.476,2.476,0,0,1,.82,2.037V0Zm-.615-3.541-.807.027a2.583,2.583,0,0,0-1.354.328,1.031,1.031,0,0,0-.444.916q0,.882,1.012.882A1.6,1.6,0,0,0-83.593-1.8a1.465,1.465,0,0,0,.434-1.107Zm8.483-4.245a3.362,3.362,0,0,1,.7.062l-.157,1.955a2.388,2.388,0,0,0-.615-.068,2.211,2.211,0,0,0-1.555.513,1.853,1.853,0,0,0-.557,1.436V0h-2.085V-7.643h1.579l.308,1.285h.1a2.873,2.873,0,0,1,.96-1.036A2.368,2.368,0,0,1-74.676-7.786Zm5.312,6.262a4.52,4.52,0,0,0,1.313-.239V-.212a4.68,4.68,0,0,1-1.914.349A2.343,2.343,0,0,1-71.788-.5a2.752,2.752,0,0,1-.571-1.9V-6.077h-1v-.882l1.148-.7.6-1.613h1.333v1.627h2.14v1.565h-2.14v3.685a.814.814,0,0,0,.25.656A.984.984,0,0,0-69.364-1.524ZM-66.6-9.618q0-1.019,1.135-1.019t1.135,1.019a.993.993,0,0,1-.284.755,1.192,1.192,0,0,1-.851.27Q-66.6-8.593-66.6-9.618ZM-64.422,0h-2.085V-7.643h2.085Zm5.291.137Q-62.7.137-62.7-3.78a4.178,4.178,0,0,1,.971-2.977,3.641,3.641,0,0,1,2.782-1.029,5.3,5.3,0,0,1,2.379.52l-.615,1.613q-.492-.2-.916-.325a2.951,2.951,0,0,0-.848-.126q-1.627,0-1.627,2.311,0,2.242,1.627,2.242a3.709,3.709,0,0,0,1.114-.161,4.023,4.023,0,0,0,1.025-.5V-.431a3.36,3.36,0,0,1-1.022.444A5.747,5.747,0,0,1-59.131.137Zm4.006-9.755q0-1.019,1.135-1.019t1.135,1.019a.993.993,0,0,1-.284.755,1.192,1.192,0,0,1-.851.27Q-55.125-8.593-55.125-9.618ZM-52.951,0h-2.085V-7.643h2.085Zm6.385.137a2.535,2.535,0,0,1-2.112-.978h-.109q.109.957.109,1.107v3.1h-2.085V-7.643h1.7l.294.991h.1a2.412,2.412,0,0,1,2.167-1.135A2.48,2.48,0,0,1-44.393-6.74a4.837,4.837,0,0,1,.766,2.905,5.737,5.737,0,0,1-.359,2.126A2.982,2.982,0,0,1-45.008-.335,2.619,2.619,0,0,1-46.566.137Zm-.615-6.255a1.316,1.316,0,0,0-1.128.475,2.728,2.728,0,0,0-.369,1.569v.226a3.22,3.22,0,0,0,.366,1.764,1.305,1.305,0,0,0,1.159.533q1.4,0,1.4-2.311A3.3,3.3,0,0,0-46.1-5.554,1.178,1.178,0,0,0-47.182-6.118ZM-37.051,0l-.4-1.039h-.055a3.079,3.079,0,0,1-1.083.919,3.5,3.5,0,0,1-1.453.256,2.349,2.349,0,0,1-1.733-.629,2.415,2.415,0,0,1-.632-1.791,2.017,2.017,0,0,1,.851-1.794,4.932,4.932,0,0,1,2.567-.639l1.326-.041v-.335a1.039,1.039,0,0,0-1.189-1.162,5.42,5.42,0,0,0-2.153.554l-.69-1.408a6.213,6.213,0,0,1,2.926-.69,3.644,3.644,0,0,1,2.358.67,2.476,2.476,0,0,1,.82,2.037V0Zm-.615-3.541-.807.027a2.583,2.583,0,0,0-1.354.328,1.031,1.031,0,0,0-.444.916q0,.882,1.012.882A1.6,1.6,0,0,0-38.1-1.8a1.465,1.465,0,0,0,.434-1.107ZM-30.345.137q-3.568,0-3.568-3.917a4.178,4.178,0,0,1,.971-2.977A3.641,3.641,0,0,1-30.16-7.786a5.3,5.3,0,0,1,2.379.52L-28.4-5.653q-.492-.2-.916-.325A2.951,2.951,0,0,0-30.16-6.1q-1.627,0-1.627,2.311,0,2.242,1.627,2.242a3.709,3.709,0,0,0,1.114-.161,4.023,4.023,0,0,0,1.025-.5V-.431a3.36,3.36,0,0,1-1.022.444A5.747,5.747,0,0,1-30.345.137Zm4.006-9.755q0-1.019,1.135-1.019t1.135,1.019a.993.993,0,0,1-.284.755,1.192,1.192,0,0,1-.851.27Q-26.339-8.593-26.339-9.618ZM-24.165,0H-26.25V-7.643h2.085Zm3.849-3.835a3.208,3.208,0,0,0,.373,1.716,1.332,1.332,0,0,0,1.213.581,1.311,1.311,0,0,0,1.2-.578,3.254,3.254,0,0,0,.366-1.719,3.157,3.157,0,0,0-.369-1.7,1.335,1.335,0,0,0-1.21-.567,1.33,1.33,0,0,0-1.2.564A3.154,3.154,0,0,0-20.316-3.835Zm5.284,0a4.107,4.107,0,0,1-.984,2.919A3.569,3.569,0,0,1-18.758.137,3.835,3.835,0,0,1-20.7-.345a3.207,3.207,0,0,1-1.292-1.384,4.652,4.652,0,0,1-.451-2.105,4.084,4.084,0,0,1,.978-2.912,3.59,3.59,0,0,1,2.748-1.039,3.856,3.856,0,0,1,1.941.479,3.194,3.194,0,0,1,1.292,1.374A4.608,4.608,0,0,1-15.032-3.835Zm-4.847-4.648v-.185a19.246,19.246,0,0,0,1.606-2.058h2.338v.144q-.355.355-1.213,1.056t-1.343,1.042ZM-6.255,0H-8.34V-4.464A2.144,2.144,0,0,0-8.634-5.7a1.069,1.069,0,0,0-.937-.414,1.408,1.408,0,0,0-1.265.584,3.625,3.625,0,0,0-.39,1.938V0H-13.31V-7.643h1.593l.28.978h.116a2.2,2.2,0,0,1,.96-.837,3.271,3.271,0,0,1,1.391-.284,2.673,2.673,0,0,1,2.023.721,2.894,2.894,0,0,1,.69,2.082ZM2.693-6.3a1.322,1.322,0,0,0-1.039.42,1.946,1.946,0,0,0-.431,1.193H4.149a1.738,1.738,0,0,0-.4-1.193A1.366,1.366,0,0,0,2.693-6.3ZM2.987.137A3.945,3.945,0,0,1,.1-.882,3.857,3.857,0,0,1-.937-3.767a4.242,4.242,0,0,1,.96-2.97A3.42,3.42,0,0,1,2.68-7.786,3.366,3.366,0,0,1,5.2-6.863a3.491,3.491,0,0,1,.9,2.55V-3.3H1.176A2.007,2.007,0,0,0,1.7-1.914a1.852,1.852,0,0,0,1.381.5,5.732,5.732,0,0,0,1.306-.144,6.533,6.533,0,0,0,1.285-.458V-.4A4.9,4.9,0,0,1,4.5,0,7.37,7.37,0,0,1,2.987.137ZM14.854,0H12.77V-4.464A2.144,2.144,0,0,0,12.476-5.7a1.069,1.069,0,0,0-.937-.414,1.408,1.408,0,0,0-1.265.584A3.625,3.625,0,0,0,9.885-3.6V0H7.8V-7.643H9.393l.28.978h.116a2.2,2.2,0,0,1,.96-.837,3.271,3.271,0,0,1,1.391-.284,2.673,2.673,0,0,1,2.023.721,2.894,2.894,0,0,1,.69,2.082ZM23.8-6.3a1.322,1.322,0,0,0-1.039.42,1.946,1.946,0,0,0-.431,1.193h2.926a1.738,1.738,0,0,0-.4-1.193A1.366,1.366,0,0,0,23.8-6.3ZM24.1.137A3.945,3.945,0,0,1,21.212-.882a3.857,3.857,0,0,1-1.039-2.885,4.242,4.242,0,0,1,.96-2.97,3.42,3.42,0,0,1,2.656-1.049,3.366,3.366,0,0,1,2.522.923,3.491,3.491,0,0,1,.9,2.55V-3.3H22.285a2.007,2.007,0,0,0,.526,1.388,1.852,1.852,0,0,0,1.381.5A5.732,5.732,0,0,0,25.5-1.559a6.533,6.533,0,0,0,1.285-.458V-.4A4.9,4.9,0,0,1,25.614,0,7.37,7.37,0,0,1,24.1.137ZM30.994,0H28.909V-10.637h2.085ZM43.661,0H41.576V-4.464A2.249,2.249,0,0,0,41.3-5.7a.974.974,0,0,0-.872-.414,1.262,1.262,0,0,0-1.162.588A3.856,3.856,0,0,0,38.9-3.6V0H36.818V-7.643h1.593l.28.978h.116a2.118,2.118,0,0,1,.889-.824,2.885,2.885,0,0,1,1.333-.3,2.4,2.4,0,0,1,2.324,1.121h.185a2.065,2.065,0,0,1,.906-.827,3.021,3.021,0,0,1,1.35-.294,2.665,2.665,0,0,1,1.965.667,2.927,2.927,0,0,1,.667,2.136V0H46.334V-4.464A2.249,2.249,0,0,0,46.057-5.7a.974.974,0,0,0-.872-.414,1.3,1.3,0,0,0-1.145.547,3.1,3.1,0,0,0-.379,1.736ZM53.73-6.3a1.322,1.322,0,0,0-1.039.42,1.946,1.946,0,0,0-.431,1.193h2.926a1.738,1.738,0,0,0-.4-1.193A1.366,1.366,0,0,0,53.73-6.3ZM54.024.137A3.945,3.945,0,0,1,51.14-.882,3.857,3.857,0,0,1,50.1-3.767a4.242,4.242,0,0,1,.96-2.97,3.42,3.42,0,0,1,2.656-1.049,3.366,3.366,0,0,1,2.522.923,3.491,3.491,0,0,1,.9,2.55V-3.3H52.213a2.007,2.007,0,0,0,.526,1.388,1.852,1.852,0,0,0,1.381.5,5.732,5.732,0,0,0,1.306-.144,6.533,6.533,0,0,0,1.285-.458V-.4A4.9,4.9,0,0,1,55.542,0,7.37,7.37,0,0,1,54.024.137ZM63.1-7.786a3.362,3.362,0,0,1,.7.062L63.649-5.77a2.389,2.389,0,0,0-.615-.068,2.211,2.211,0,0,0-1.555.513,1.853,1.853,0,0,0-.557,1.436V0H58.837V-7.643h1.579l.308,1.285h.1a2.873,2.873,0,0,1,.96-1.036A2.368,2.368,0,0,1,63.1-7.786ZM68.3.137q-3.568,0-3.568-3.917A4.178,4.178,0,0,1,65.7-6.757a3.641,3.641,0,0,1,2.782-1.029,5.3,5.3,0,0,1,2.379.52l-.615,1.613q-.492-.2-.916-.325a2.951,2.951,0,0,0-.848-.126q-1.627,0-1.627,2.311,0,2.242,1.627,2.242A3.709,3.709,0,0,0,69.6-1.712a4.023,4.023,0,0,0,1.025-.5V-.431A3.36,3.36,0,0,1,69.6.014,5.747,5.747,0,0,1,68.3.137ZM77.246,0l-.4-1.039h-.055A3.079,3.079,0,0,1,75.7-.12a3.5,3.5,0,0,1-1.453.256,2.349,2.349,0,0,1-1.733-.629,2.415,2.415,0,0,1-.632-1.791,2.017,2.017,0,0,1,.851-1.794A4.931,4.931,0,0,1,75.3-4.717l1.326-.041v-.335a1.039,1.039,0,0,0-1.189-1.162,5.42,5.42,0,0,0-2.153.554L72.6-7.109a6.213,6.213,0,0,1,2.926-.69,3.644,3.644,0,0,1,2.358.67,2.476,2.476,0,0,1,.82,2.037V0Zm-.615-3.541-.807.027a2.583,2.583,0,0,0-1.354.328,1.031,1.031,0,0,0-.444.916q0,.882,1.012.882A1.6,1.6,0,0,0,76.2-1.8a1.465,1.465,0,0,0,.434-1.107ZM83.269.137A2.482,2.482,0,0,1,81.153-.909a4.808,4.808,0,0,1-.769-2.9,4.813,4.813,0,0,1,.783-2.929,2.542,2.542,0,0,1,2.157-1.049,2.493,2.493,0,0,1,2.2,1.121h.068a8.523,8.523,0,0,1-.157-1.524v-2.447h2.092V0h-1.6l-.4-.991h-.089A2.386,2.386,0,0,1,83.269.137ZM84-1.524a1.413,1.413,0,0,0,1.172-.465,2.7,2.7,0,0,0,.407-1.579v-.226A3.125,3.125,0,0,0,85.2-5.558a1.409,1.409,0,0,0-1.234-.533,1.224,1.224,0,0,0-1.083.591A3.155,3.155,0,0,0,82.5-3.78a2.99,2.99,0,0,0,.39,1.692A1.273,1.273,0,0,0,84-1.524Zm7.369-2.311a3.208,3.208,0,0,0,.373,1.716,1.332,1.332,0,0,0,1.213.581,1.311,1.311,0,0,0,1.2-.578,3.254,3.254,0,0,0,.366-1.719,3.157,3.157,0,0,0-.369-1.7,1.335,1.335,0,0,0-1.21-.567,1.33,1.33,0,0,0-1.2.564A3.154,3.154,0,0,0,91.369-3.835Zm5.284,0a4.107,4.107,0,0,1-.984,2.919A3.569,3.569,0,0,1,92.928.137a3.835,3.835,0,0,1-1.941-.482,3.207,3.207,0,0,1-1.292-1.384,4.652,4.652,0,0,1-.451-2.105,4.084,4.084,0,0,1,.978-2.912,3.59,3.59,0,0,1,2.748-1.039,3.856,3.856,0,0,1,1.941.479A3.194,3.194,0,0,1,96.2-5.934,4.608,4.608,0,0,1,96.653-3.835Z" transform="translate(1011.748 373.845)" fill="#12263f"/>
    <path id="Trazado_131812" data-name="Trazado 131812" d="M-81.244-3.552a3.774,3.774,0,0,1-1.271,2.71,4.463,4.463,0,0,1-3.021.989,4.013,4.013,0,0,1-3.226-1.381,5.661,5.661,0,0,1-1.176-3.79v-.652a6.393,6.393,0,0,1,.542-2.71,4.062,4.062,0,0,1,1.549-1.8,4.339,4.339,0,0,1,2.34-.626,4.348,4.348,0,0,1,2.974.989,4.055,4.055,0,0,1,1.3,2.776h-2.2A2.227,2.227,0,0,0-84-8.544a2.129,2.129,0,0,0-1.505-.465,1.867,1.867,0,0,0-1.644.787,4.413,4.413,0,0,0-.56,2.443v.806a4.723,4.723,0,0,0,.524,2.527,1.832,1.832,0,0,0,1.652.8,2.169,2.169,0,0,0,1.52-.465,2.1,2.1,0,0,0,.575-1.439Zm5.757-2.388A5.751,5.751,0,0,0-76.249-6a1.55,1.55,0,0,0-1.575.813V0H-79.94V-7.925h2l.059.945a1.961,1.961,0,0,1,1.765-1.091,2.218,2.218,0,0,1,.659.1ZM-70.961.146A3.89,3.89,0,0,1-73.8-.923a3.8,3.8,0,0,1-1.095-2.849v-.205a4.787,4.787,0,0,1,.461-2.135,3.386,3.386,0,0,1,1.307-1.45,3.669,3.669,0,0,1,1.93-.509,3.289,3.289,0,0,1,2.56,1.025A4.167,4.167,0,0,1-67.7-4.138v.864h-5.046a1.966,1.966,0,0,0,.619,1.245,1.871,1.871,0,0,0,1.307.469,2.285,2.285,0,0,0,1.912-.886l1.04,1.165A3.178,3.178,0,0,1-69.159-.231,4.229,4.229,0,0,1-70.961.146ZM-71.2-6.365a1.323,1.323,0,0,0-1.022.427,2.209,2.209,0,0,0-.5,1.221h2.944v-.169a1.576,1.576,0,0,0-.381-1.092A1.365,1.365,0,0,0-71.2-6.365Zm8,4.8a1.388,1.388,0,0,0,.952-.322,1.129,1.129,0,0,0,.381-.857h1.985a2.715,2.715,0,0,1-.439,1.476,2.9,2.9,0,0,1-1.183,1.04,3.7,3.7,0,0,1-1.659.37,3.44,3.44,0,0,1-2.681-1.08,4.275,4.275,0,0,1-.981-2.985v-.139a4.226,4.226,0,0,1,.974-2.922,3.4,3.4,0,0,1,2.673-1.091,3.333,3.333,0,0,1,2.384.846,3,3,0,0,1,.912,2.252h-1.985a1.455,1.455,0,0,0-.381-1.005,1.27,1.27,0,0,0-.967-.387,1.275,1.275,0,0,0-1.117.539,3.125,3.125,0,0,0-.377,1.749v.22A3.164,3.164,0,0,0-64.34-2.1,1.291,1.291,0,0,0-63.2-1.56ZM-56.444,0h-2.124V-7.925h2.124Zm-2.249-9.976a1.042,1.042,0,0,1,.319-.784,1.2,1.2,0,0,1,.868-.308,1.2,1.2,0,0,1,.864.308,1.036,1.036,0,0,1,.322.784,1.039,1.039,0,0,1-.326.791,1.2,1.2,0,0,1-.861.308,1.2,1.2,0,0,1-.861-.308A1.039,1.039,0,0,1-58.693-9.976Zm5.977,2.051.066.886a2.785,2.785,0,0,1,2.278-1.033,2.114,2.114,0,0,1,2.1,1.208,2.721,2.721,0,0,1,2.38-1.208,2.364,2.364,0,0,1,1.919.751,3.451,3.451,0,0,1,.63,2.26V0h-2.124V-5.065a1.515,1.515,0,0,0-.264-.987,1.167,1.167,0,0,0-.93-.312,1.321,1.321,0,0,0-1.318.91L-47.97,0h-2.117V-5.058a1.5,1.5,0,0,0-.271-1,1.178,1.178,0,0,0-.923-.308,1.371,1.371,0,0,0-1.3.749V0H-54.7V-7.925ZM-39.481,0h-2.124V-7.925h2.124ZM-41.73-9.976a1.042,1.042,0,0,1,.319-.784,1.2,1.2,0,0,1,.868-.308,1.2,1.2,0,0,1,.864.308,1.036,1.036,0,0,1,.322.784,1.039,1.039,0,0,1-.326.791,1.2,1.2,0,0,1-.861.308,1.2,1.2,0,0,1-.861-.308A1.039,1.039,0,0,1-41.73-9.976ZM-34.091.146A3.89,3.89,0,0,1-36.929-.923a3.8,3.8,0,0,1-1.095-2.849v-.205a4.787,4.787,0,0,1,.461-2.135,3.386,3.386,0,0,1,1.307-1.45,3.669,3.669,0,0,1,1.93-.509,3.289,3.289,0,0,1,2.56,1.025,4.167,4.167,0,0,1,.934,2.908v.864h-5.046a1.966,1.966,0,0,0,.619,1.245,1.871,1.871,0,0,0,1.307.469,2.285,2.285,0,0,0,1.912-.886L-31-1.282A3.178,3.178,0,0,1-32.289-.231,4.229,4.229,0,0,1-34.091.146Zm-.242-6.511a1.323,1.323,0,0,0-1.022.427,2.209,2.209,0,0,0-.5,1.221h2.944v-.169a1.576,1.576,0,0,0-.381-1.092A1.365,1.365,0,0,0-34.332-6.365Zm6.65-1.56.066.916a2.767,2.767,0,0,1,2.278-1.062,2.3,2.3,0,0,1,1.875.74,3.451,3.451,0,0,1,.63,2.212V0H-24.95V-5.08a1.379,1.379,0,0,0-.293-.98,1.31,1.31,0,0,0-.974-.3,1.456,1.456,0,0,0-1.34.763V0h-2.117V-7.925ZM-18.7-9.873v1.948h1.355v1.553H-18.7v3.955a.944.944,0,0,0,.168.63.846.846,0,0,0,.645.19,3.376,3.376,0,0,0,.623-.051v1.6a4.358,4.358,0,0,1-1.282.19A2.021,2.021,0,0,1-20.812-2.1v-4.27h-1.157V-7.925h1.157V-9.873Zm1.985,5.837a4.7,4.7,0,0,1,.454-2.1,3.324,3.324,0,0,1,1.307-1.428,3.814,3.814,0,0,1,1.981-.505,3.609,3.609,0,0,1,2.618.981A3.939,3.939,0,0,1-9.218-4.424l.015.542A4.142,4.142,0,0,1-10.221-.956a3.539,3.539,0,0,1-2.732,1.1,3.556,3.556,0,0,1-2.736-1.1A4.215,4.215,0,0,1-16.71-3.94Zm2.117.15a2.962,2.962,0,0,0,.425,1.727,1.4,1.4,0,0,0,1.216.6,1.4,1.4,0,0,0,1.2-.591,3.241,3.241,0,0,0,.432-1.889,2.933,2.933,0,0,0-.432-1.716,1.4,1.4,0,0,0-1.216-.609,1.382,1.382,0,0,0-1.2.605A3.3,3.3,0,0,0-14.594-3.885Zm10.1-.136a4.776,4.776,0,0,1,.831-2.952,2.7,2.7,0,0,1,2.274-1.1,2.427,2.427,0,0,1,1.912.864V-11.25H2.648V0H.736l-.1-.842A2.491,2.491,0,0,1-1.4.146a2.69,2.69,0,0,1-2.245-1.1A4.93,4.93,0,0,1-4.493-4.021Zm2.117.151a3.146,3.146,0,0,0,.388,1.714,1.263,1.263,0,0,0,1.128.6A1.416,1.416,0,0,0,.524-2.391V-5.533a1.4,1.4,0,0,0-1.37-.831Q-2.377-6.365-2.377-3.87ZM7.936.146A3.89,3.89,0,0,1,5.1-.923,3.8,3.8,0,0,1,4-3.772v-.205a4.787,4.787,0,0,1,.461-2.135,3.386,3.386,0,0,1,1.307-1.45A3.669,3.669,0,0,1,7.7-8.071a3.289,3.289,0,0,1,2.56,1.025A4.167,4.167,0,0,1,11.2-4.138v.864H6.149a1.966,1.966,0,0,0,.619,1.245,1.871,1.871,0,0,0,1.307.469,2.285,2.285,0,0,0,1.912-.886l1.04,1.165A3.178,3.178,0,0,1,9.738-.231,4.229,4.229,0,0,1,7.936.146ZM7.694-6.365a1.323,1.323,0,0,0-1.022.427,2.209,2.209,0,0,0-.5,1.221H9.115v-.169a1.576,1.576,0,0,0-.381-1.092A1.365,1.365,0,0,0,7.694-6.365ZM18.365,0H16.241V-11.25h2.124ZM24.7,0a2.351,2.351,0,0,1-.212-.71,2.561,2.561,0,0,1-2,.857,2.814,2.814,0,0,1-1.93-.674,2.167,2.167,0,0,1-.765-1.7,2.24,2.24,0,0,1,.934-1.934,4.608,4.608,0,0,1,2.7-.681H24.4V-5.3a1.306,1.306,0,0,0-.282-.879,1.109,1.109,0,0,0-.89-.33,1.261,1.261,0,0,0-.839.256.871.871,0,0,0-.3.7H19.969a2.126,2.126,0,0,1,.425-1.274,2.808,2.808,0,0,1,1.2-.919,4.378,4.378,0,0,1,1.743-.333,3.459,3.459,0,0,1,2.325.736,2.575,2.575,0,0,1,.861,2.069v3.435A3.789,3.789,0,0,0,26.84-.125V0ZM22.95-1.472a1.823,1.823,0,0,0,.864-.209,1.371,1.371,0,0,0,.586-.56V-3.6H23.61q-1.589,0-1.692,1.1l-.007.125a.847.847,0,0,0,.278.652A1.081,1.081,0,0,0,22.95-1.472ZM34.12,0H32V-7.925H34.12ZM31.871-9.976a1.042,1.042,0,0,1,.319-.784,1.2,1.2,0,0,1,.868-.308,1.2,1.2,0,0,1,.864.308,1.036,1.036,0,0,1,.322.784,1.039,1.039,0,0,1-.326.791,1.2,1.2,0,0,1-.861.308,1.2,1.2,0,0,1-.861-.308A1.039,1.039,0,0,1,31.871-9.976Zm5.94,2.051.066.916a2.767,2.767,0,0,1,2.278-1.062,2.3,2.3,0,0,1,1.875.74,3.451,3.451,0,0,1,.63,2.212V0H40.543V-5.08a1.379,1.379,0,0,0-.293-.98,1.31,1.31,0,0,0-.974-.3,1.456,1.456,0,0,0-1.34.763V0H35.819V-7.925Zm6.123,3.9a4.776,4.776,0,0,1,.831-2.952,2.7,2.7,0,0,1,2.274-1.1,2.427,2.427,0,0,1,1.912.864V-11.25h2.124V0H49.164l-.1-.842a2.491,2.491,0,0,1-2.036.989,2.69,2.69,0,0,1-2.245-1.1A4.93,4.93,0,0,1,43.934-4.021Zm2.117.151a3.146,3.146,0,0,0,.388,1.714,1.263,1.263,0,0,0,1.128.6,1.416,1.416,0,0,0,1.384-.831V-5.533a1.4,1.4,0,0,0-1.37-.831Q46.051-6.365,46.051-3.87ZM57.462-.806a2.654,2.654,0,0,1-2.168.952A2.5,2.5,0,0,1,53.35-.586a3.127,3.127,0,0,1-.685-2.146V-7.925h2.117V-2.8q0,1.239,1.128,1.239a1.528,1.528,0,0,0,1.479-.748V-7.925h2.124V0H57.521ZM65.4-2.19a.682.682,0,0,0-.385-.612,4.368,4.368,0,0,0-1.234-.4q-2.827-.593-2.827-2.4a2.178,2.178,0,0,1,.875-1.761,3.531,3.531,0,0,1,2.289-.707,3.8,3.8,0,0,1,2.413.71,2.239,2.239,0,0,1,.9,1.846H65.321a1.024,1.024,0,0,0-.293-.751,1.24,1.24,0,0,0-.916-.3,1.267,1.267,0,0,0-.828.242.763.763,0,0,0-.293.615.652.652,0,0,0,.333.568,3.428,3.428,0,0,0,1.124.374,9.183,9.183,0,0,1,1.333.355A2.19,2.19,0,0,1,67.46-2.278a2.067,2.067,0,0,1-.93,1.754,4.013,4.013,0,0,1-2.4.67,4.191,4.191,0,0,1-1.769-.355,2.968,2.968,0,0,1-1.212-.974,2.263,2.263,0,0,1-.439-1.337h2.007a1.105,1.105,0,0,0,.417.864,1.656,1.656,0,0,0,1.04.3,1.533,1.533,0,0,0,.919-.231A.718.718,0,0,0,65.4-2.19Zm5.955-7.683v1.948h1.355v1.553H71.356v3.955a.944.944,0,0,0,.168.63.846.846,0,0,0,.645.19,3.376,3.376,0,0,0,.623-.051v1.6a4.358,4.358,0,0,1-1.282.19A2.021,2.021,0,0,1,69.24-2.1v-4.27H68.082V-7.925H69.24V-9.873ZM78.344-5.94A5.751,5.751,0,0,0,77.582-6a1.55,1.55,0,0,0-1.575.813V0H73.89V-7.925h2l.059.945a1.961,1.961,0,0,1,1.765-1.091,2.218,2.218,0,0,1,.659.1ZM81.6,0H79.471V-7.925H81.6ZM79.347-9.976a1.042,1.042,0,0,1,.319-.784,1.2,1.2,0,0,1,.868-.308,1.2,1.2,0,0,1,.864.308,1.036,1.036,0,0,1,.322.784,1.039,1.039,0,0,1-.326.791,1.2,1.2,0,0,1-.861.308,1.2,1.2,0,0,1-.861-.308A1.039,1.039,0,0,1,79.347-9.976ZM87.931,0a2.351,2.351,0,0,1-.212-.71,2.561,2.561,0,0,1-2,.857,2.814,2.814,0,0,1-1.93-.674,2.167,2.167,0,0,1-.765-1.7,2.24,2.24,0,0,1,.934-1.934,4.608,4.608,0,0,1,2.7-.681h.974V-5.3a1.306,1.306,0,0,0-.282-.879,1.109,1.109,0,0,0-.89-.33,1.261,1.261,0,0,0-.839.256.871.871,0,0,0-.3.7H83.2a2.126,2.126,0,0,1,.425-1.274,2.808,2.808,0,0,1,1.2-.919,4.378,4.378,0,0,1,1.743-.333,3.459,3.459,0,0,1,2.325.736,2.575,2.575,0,0,1,.861,2.069v3.435A3.789,3.789,0,0,0,90.07-.125V0ZM86.18-1.472a1.823,1.823,0,0,0,.864-.209,1.371,1.371,0,0,0,.586-.56V-3.6H86.84q-1.589,0-1.692,1.1l-.007.125a.847.847,0,0,0,.278.652A1.081,1.081,0,0,0,86.18-1.472ZM-50.651,11l1.465-4.929h2.271L-50.1,15.23l-.176.417A2.416,2.416,0,0,1-52.621,17.2a3.33,3.33,0,0,1-.937-.139v-1.6l.322.007a1.741,1.741,0,0,0,.9-.183,1.2,1.2,0,0,0,.465-.608l.249-.652L-54.4,6.075h2.278Zm5.237,3.911h-1.575l3.926-11.58h1.575Zm4.607-4.951a4.7,4.7,0,0,1,.454-2.1,3.324,3.324,0,0,1,1.307-1.428,3.814,3.814,0,0,1,1.981-.505,3.609,3.609,0,0,1,2.618.981,3.939,3.939,0,0,1,1.132,2.666l.015.542a4.142,4.142,0,0,1-1.018,2.926,3.539,3.539,0,0,1-2.732,1.1,3.556,3.556,0,0,1-2.736-1.1,4.215,4.215,0,0,1-1.022-2.988Zm2.117.15a2.962,2.962,0,0,0,.425,1.727,1.4,1.4,0,0,0,1.216.6,1.4,1.4,0,0,0,1.2-.591,3.241,3.241,0,0,0,.432-1.889,2.933,2.933,0,0,0-.432-1.716,1.4,1.4,0,0,0-1.216-.609,1.382,1.382,0,0,0-1.2.605A3.3,3.3,0,0,0-38.69,10.115Zm10.1-.136a4.776,4.776,0,0,1,.831-2.952,2.7,2.7,0,0,1,2.274-1.1,2.427,2.427,0,0,1,1.912.864V2.75h2.124V14h-1.912l-.1-.842a2.491,2.491,0,0,1-2.036.989,2.69,2.69,0,0,1-2.245-1.1A4.93,4.93,0,0,1-28.59,9.979Zm2.117.151a3.146,3.146,0,0,0,.388,1.714,1.263,1.263,0,0,0,1.128.6,1.416,1.416,0,0,0,1.384-.831V8.467a1.4,1.4,0,0,0-1.37-.831Q-26.473,7.635-26.473,10.13Zm10.313,4.017A3.89,3.89,0,0,1-19,13.077a3.8,3.8,0,0,1-1.095-2.849v-.205a4.787,4.787,0,0,1,.461-2.135,3.386,3.386,0,0,1,1.307-1.45,3.669,3.669,0,0,1,1.93-.509,3.289,3.289,0,0,1,2.56,1.025A4.167,4.167,0,0,1-12.9,9.862v.864h-5.046a1.966,1.966,0,0,0,.619,1.245,1.871,1.871,0,0,0,1.307.469,2.285,2.285,0,0,0,1.912-.886l1.04,1.165a3.178,3.178,0,0,1-1.289,1.051A4.229,4.229,0,0,1-16.161,14.146ZM-16.4,7.635a1.323,1.323,0,0,0-1.022.427,2.209,2.209,0,0,0-.5,1.221h2.944V9.114a1.576,1.576,0,0,0-.381-1.092A1.365,1.365,0,0,0-16.4,7.635ZM-9.467,14h-2.124V2.75h2.124ZM-2,6.075l.066.886A2.785,2.785,0,0,1,.341,5.929a2.114,2.114,0,0,1,2.1,1.208,2.721,2.721,0,0,1,2.38-1.208,2.364,2.364,0,0,1,1.919.751,3.451,3.451,0,0,1,.63,2.26V14H5.248V8.935a1.515,1.515,0,0,0-.264-.987,1.167,1.167,0,0,0-.93-.312,1.321,1.321,0,0,0-1.318.91L2.743,14H.626V8.942a1.5,1.5,0,0,0-.271-1,1.178,1.178,0,0,0-.923-.308,1.371,1.371,0,0,0-1.3.749V14H-3.988V6.075Zm14.648,8.071a3.89,3.89,0,0,1-2.838-1.069,3.8,3.8,0,0,1-1.095-2.849v-.205a4.787,4.787,0,0,1,.461-2.135,3.386,3.386,0,0,1,1.307-1.45,3.669,3.669,0,0,1,1.93-.509,3.289,3.289,0,0,1,2.56,1.025A4.167,4.167,0,0,1,15.9,9.862v.864H10.858a1.966,1.966,0,0,0,.619,1.245,1.871,1.871,0,0,0,1.307.469,2.285,2.285,0,0,0,1.912-.886l1.04,1.165a3.178,3.178,0,0,1-1.289,1.051A4.229,4.229,0,0,1,12.645,14.146ZM12.4,7.635a1.323,1.323,0,0,0-1.022.427,2.209,2.209,0,0,0-.5,1.221h2.944V9.114a1.576,1.576,0,0,0-.381-1.092A1.365,1.365,0,0,0,12.4,7.635Zm9.155.425A5.751,5.751,0,0,0,20.8,8a1.55,1.55,0,0,0-1.575.813V14H17.106V6.075h2l.059.945a1.961,1.961,0,0,1,1.765-1.091,2.218,2.218,0,0,1,.659.1Zm4.175,4.38a1.388,1.388,0,0,0,.952-.322,1.129,1.129,0,0,0,.381-.857h1.985a2.715,2.715,0,0,1-.439,1.476,2.9,2.9,0,0,1-1.183,1.04,3.7,3.7,0,0,1-1.659.37,3.44,3.44,0,0,1-2.681-1.08,4.275,4.275,0,0,1-.981-2.985V9.942a4.226,4.226,0,0,1,.974-2.922,3.4,3.4,0,0,1,2.673-1.091,3.333,3.333,0,0,1,2.384.846,3,3,0,0,1,.912,2.252H27.067a1.455,1.455,0,0,0-.381-1.005,1.416,1.416,0,0,0-2.084.153,3.125,3.125,0,0,0-.377,1.749v.22A3.164,3.164,0,0,0,24.6,11.9,1.291,1.291,0,0,0,25.734,12.44ZM34.852,14a2.351,2.351,0,0,1-.212-.71,2.561,2.561,0,0,1-2,.857,2.814,2.814,0,0,1-1.93-.674,2.167,2.167,0,0,1-.765-1.7,2.24,2.24,0,0,1,.934-1.934,4.608,4.608,0,0,1,2.7-.681h.974V8.7a1.306,1.306,0,0,0-.282-.879,1.109,1.109,0,0,0-.89-.33,1.261,1.261,0,0,0-.839.256.871.871,0,0,0-.3.7H30.121a2.126,2.126,0,0,1,.425-1.274,2.808,2.808,0,0,1,1.2-.919,4.378,4.378,0,0,1,1.743-.333,3.459,3.459,0,0,1,2.325.736,2.575,2.575,0,0,1,.861,2.069v3.435a3.789,3.789,0,0,0,.315,1.707V14ZM33.1,12.528a1.823,1.823,0,0,0,.864-.209,1.371,1.371,0,0,0,.586-.56V10.4h-.791q-1.589,0-1.692,1.1l-.007.125a.847.847,0,0,0,.278.652A1.081,1.081,0,0,0,33.1,12.528Zm4.871-2.549A4.776,4.776,0,0,1,38.8,7.027a2.7,2.7,0,0,1,2.274-1.1,2.427,2.427,0,0,1,1.912.864V2.75h2.124V14H43.2l-.1-.842a2.491,2.491,0,0,1-2.036.989,2.69,2.69,0,0,1-2.245-1.1A4.93,4.93,0,0,1,37.972,9.979Zm2.117.151a3.146,3.146,0,0,0,.388,1.714,1.263,1.263,0,0,0,1.128.6,1.416,1.416,0,0,0,1.384-.831V8.467a1.4,1.4,0,0,0-1.37-.831Q40.089,7.635,40.089,10.13Zm6.335-.165a4.7,4.7,0,0,1,.454-2.1,3.324,3.324,0,0,1,1.307-1.428,3.814,3.814,0,0,1,1.981-.505,3.609,3.609,0,0,1,2.618.981,3.939,3.939,0,0,1,1.132,2.666l.015.542a4.142,4.142,0,0,1-1.018,2.926,3.946,3.946,0,0,1-5.468,0,4.215,4.215,0,0,1-1.022-2.988Zm2.117.15a2.962,2.962,0,0,0,.425,1.727,1.526,1.526,0,0,0,2.417.007,3.241,3.241,0,0,0,.432-1.889,2.933,2.933,0,0,0-.432-1.716,1.4,1.4,0,0,0-1.216-.609,1.382,1.382,0,0,0-1.2.605A3.3,3.3,0,0,0,48.541,10.115Z" transform="translate(864.567 231.09) rotate(-90)" fill="#12263f"/>
    <line id="Línea_150" data-name="Línea 150" y1="182.683" transform="translate(892.272 138.127)" fill="none" stroke="#122637" stroke-miterlimit="10" stroke-width="2"/>
    <line id="Línea_151" data-name="Línea 151" x2="182.683" transform="translate(919.706 348.244)" fill="none" stroke="#122637" stroke-miterlimit="10" stroke-width="2"/>
    <g id="Grupo_12266" data-name="Grupo 12266" transform="translate(1044 168.348)">
      <path id="Trazado_16208" data-name="Trazado 16208" d="M1203.3,219.717v-2.681a9.968,9.968,0,0,1,1.246-5.161,13.084,13.084,0,0,1,4.428-4.1,16.638,16.638,0,0,0,3.633-2.869,4.35,4.35,0,0,0,1.107-2.932,2.356,2.356,0,0,0-1.185-2.073,5.609,5.609,0,0,0-3.087-.764q-4.71,0-11.008,3.337l-4.335-8.482a32.282,32.282,0,0,1,16.216-4.428q6.955,0,10.915,3.057a9.952,9.952,0,0,1,3.96,8.326,11.89,11.89,0,0,1-1.762,6.533,17.938,17.938,0,0,1-5.629,5.223,21.758,21.758,0,0,0-4.1,3.1,3.5,3.5,0,0,0-.827,2.323v1.591Zm-1.342,10.914a5.763,5.763,0,0,1,1.669-4.428,6.946,6.946,0,0,1,4.911-1.559,6.716,6.716,0,0,1,4.787,1.575,5.777,5.777,0,0,1,1.669,4.413,5.613,5.613,0,0,1-1.731,4.4,6.8,6.8,0,0,1-4.725,1.56,7.045,7.045,0,0,1-4.833-1.545A5.576,5.576,0,0,1,1201.956,230.632Z" transform="translate(-1194.098 -189.561)" fill="#12263f"/>
    </g>
    <g id="Grupo_12272" data-name="Grupo 12272" transform="translate(938.487 168.348)">
      <path id="Trazado_16209" data-name="Trazado 16209" d="M1026.519,189.561l7.64,15.481,17.084,2.482-12.362,12.05,2.918,17.015-15.28-8.033-15.28,8.033,2.918-17.015-12.362-12.05,17.084-2.482Z" transform="translate(-1001.795 -189.561)" fill="#12263f"/>
      <g id="Grupo_12268" data-name="Grupo 12268" transform="translate(93.069 101.054)">
        <g id="Grupo_12267" data-name="Grupo 12267">
          <path id="Trazado_16210" data-name="Trazado 16210" d="M1204.939,400.066a1.093,1.093,0,0,0-1.494.4c-.336.583-1.951.788-2.39.588a1.093,1.093,0,0,0-1.143,1.864,3.225,3.225,0,0,0,1.675.391,5.877,5.877,0,0,0,1.4-.173,3.657,3.657,0,0,0,2.356-1.576,1.094,1.094,0,0,0-.4-1.493Z" transform="translate(-1184.044 -385.553)" fill="#12263f"/>
          <path id="Trazado_16211" data-name="Trazado 16211" d="M1223.606,383.5c-5.469-5.42-10.22-10.128-15.606-7.6-1.806-1.243-4.3-2.163-8.593-2.163s-6.786.921-8.593,2.163c-5.387-2.528-10.137,2.179-15.606,7.6a12.556,12.556,0,0,0-3.759,10.03,18.062,18.062,0,0,0,2.607,7.987,11.375,11.375,0,0,0,3.489,3.39c1.359.954,2.432,1.708,2.862,3.532.422,1.794,1.432,2.059,1.991,2.059a1.605,1.605,0,0,0,.34-.035c1.779-.385,2.59-3.394,2.857-4.67a23.186,23.186,0,0,0,.235-7.164c2.192,1.406,2.458,2.767,2.487,2.99-.032.946-.165,2.029-.306,3.175-.348,2.829-.708,5.755.358,7.585,1.1,1.881,2.683,3,4.246,3a3.823,3.823,0,0,0,2.992-1.6,7.666,7.666,0,0,0,7.6,0,3.822,3.822,0,0,0,2.992,1.6c1.563,0,3.151-1.123,4.246-3,1.066-1.83.706-4.756.358-7.585-.141-1.146-.274-2.229-.306-3.175.03-.223.3-1.583,2.487-2.99a23.186,23.186,0,0,0,.234,7.155c.266,1.278,1.078,4.292,2.858,4.679a1.607,1.607,0,0,0,.341.035c.56,0,1.569-.266,1.992-2.059.429-1.825,1.5-2.578,2.862-3.532a11.374,11.374,0,0,0,3.488-3.391,18.043,18.043,0,0,0,2.607-7.986,12.553,12.553,0,0,0-3.758-10.03Zm-40.077,21.468a8.982,8.982,0,0,1-.992,2.973v0c-.62-2.635-2.2-3.746-3.734-4.821a9.315,9.315,0,0,1-2.888-2.754c-.57-.917-5.387-9.144.834-15.309,5.266-5.22,8.676-8.366,12.138-7.526-.265.259-.521.521-.777.782-.216.221-.433.443-.657.664-2.526,2.5-5.883,6.355-5.883,10.879,0,.23,0,.452,0,.666-.009,2.844-.015,4.69,1.8,6.4a22.332,22.332,0,0,1,.16,8.047Zm13.273,6.989a6.364,6.364,0,0,1,1.417-1.7,1.247,1.247,0,0,1,.91-.19c.183,0,.374,0,.557,0a1.248,1.248,0,0,1,.91.19,6.365,6.365,0,0,1,1.417,1.7,5.55,5.55,0,0,1-5.211,0Zm2.605-8.039c-.872,0-1-.154-1.326-.565a4.25,4.25,0,0,0-1-.96,4.568,4.568,0,0,0-1.4-.568,2.563,2.563,0,0,1-.61-.211.678.678,0,0,1-.04-.294c0-1.143,2.207-2.308,4.373-2.308s4.374,1.165,4.374,2.308a.783.783,0,0,1-.036.289,2.425,2.425,0,0,1-.613.216,4.567,4.567,0,0,0-1.4.568,4.252,4.252,0,0,0-1,.96c-.33.411-.454.565-1.327.565Zm9.148,7.362a3.384,3.384,0,0,1-2.356,1.919c-.75,0-1.38-.811-1.777-1.492a10,10,0,0,0-2.576-3.244,3.106,3.106,0,0,0-1.345-.545V406a3.144,3.144,0,0,0,1.937-1.277,2.253,2.253,0,0,1,.5-.511,2.8,2.8,0,0,1,.76-.277,2.533,2.533,0,0,0,2.267-2.615c0-2.688-3.392-4.494-6.561-4.494s-6.56,1.806-6.56,4.494a2.532,2.532,0,0,0,2.266,2.615,2.794,2.794,0,0,1,.76.277,2.262,2.262,0,0,1,.5.511,3.143,3.143,0,0,0,1.937,1.277v1.916a3.108,3.108,0,0,0-1.345.545,10.006,10.006,0,0,0-2.576,3.244c-.4.681-1.027,1.492-1.777,1.492a3.384,3.384,0,0,1-2.357-1.919c-.7-1.194-.367-3.863-.077-6.217.143-1.167.292-2.374.324-3.434.082-2.692,2-5.735,5.014-7.942,1.74-1.275,2.59-3.876,2.842-8.7a1.093,1.093,0,1,0-2.183-.114c-.075,1.445-.306,5.842-1.951,7.047a15.064,15.064,0,0,0-5.244,6.5,10.278,10.278,0,0,0-2.535-1.977c-2.708-1.549-2.705-2.389-2.694-5.922,0-.216,0-.44,0-.673,0-3.707,2.988-7.1,5.236-9.326.233-.232.46-.464.68-.688,2.056-2.1,3.832-3.915,9.735-3.915.327,0,.64.006.943.017.008.94.007,1.9.005,2.838-.009,6.553-.018,12.742,2.939,14.909,3.011,2.206,4.932,5.249,5.013,7.942.032,1.059.181,2.266.324,3.433.29,2.354.619,5.023-.077,6.217Zm1.276-12.853a15.064,15.064,0,0,0-5.244-6.5c-2.062-1.51-2.053-7.689-2.045-13.141,0-.871,0-1.763,0-2.644,3.506.538,4.967,2.028,6.6,3.7.219.224.447.457.68.688,2.248,2.228,5.235,5.619,5.235,9.326,0,.233,0,.457,0,.673.008,2.743.011,3.862-1.254,4.951a1.218,1.218,0,0,0-.133.11,10.048,10.048,0,0,1-1.307.861A10.26,10.26,0,0,0,1209.831,398.425Zm13.069,1.937a9.3,9.3,0,0,1-2.887,2.754c-1.531,1.075-3.114,2.186-3.734,4.821v0a8.976,8.976,0,0,1-.994-2.982,22.315,22.315,0,0,1,.161-8.039c1.815-1.712,1.81-3.558,1.8-6.4,0-.215,0-.436,0-.666,0-4.524-3.357-8.376-5.883-10.879-.224-.221-.441-.443-.657-.664-.256-.261-.513-.523-.776-.782,3.462-.838,6.873,2.309,12.138,7.527C1228.287,391.218,1223.47,399.445,1222.9,400.362Z" transform="translate(-1171.417 -373.736)" fill="#12263f"/>
          <path id="Trazado_16212" data-name="Trazado 16212" d="M1238.8,401.053c-.44.2-2.054,0-2.391-.587a1.093,1.093,0,1,0-1.893,1.094,3.656,3.656,0,0,0,2.356,1.576,5.875,5.875,0,0,0,1.4.173,3.225,3.225,0,0,0,1.675-.391,1.093,1.093,0,0,0-1.142-1.864Z" transform="translate(-1199.827 -385.553)" fill="#12263f"/>
          <path id="Trazado_16213" data-name="Trazado 16213" d="M1217.812,383.183h0a1.094,1.094,0,1,0,1.094,1.094A1.093,1.093,0,0,0,1217.811,383.183Z" transform="translate(-1191.862 -378)" fill="#12263f"/>
        </g>
      </g>
      <g id="Grupo_12271" data-name="Grupo 12271" transform="translate(1.396 96.047)">
        <g id="Grupo_12270" data-name="Grupo 12270">
          <g id="Grupo_12269" data-name="Grupo 12269">
            <path id="Trazado_16214" data-name="Trazado 16214" d="M1033.656,428.384a.972.972,0,1,0,0,1.944c.38,0,.844.756,1.021,1.275a.97.97,0,0,0,.922.669.96.96,0,0,0,.3-.049.971.971,0,0,0,.619-1.226C1036.435,430.729,1035.61,428.384,1033.656,428.384Z" transform="translate(-1017.132 -393.393)" fill="#12263f"/>
            <path id="Trazado_16215" data-name="Trazado 16215" d="M1056.857,428.384c-1.953,0-2.779,2.345-2.867,2.613a.971.971,0,1,0,1.845.606c.152-.458.621-1.275,1.021-1.275a.972.972,0,1,0,0-1.943Z" transform="translate(-1026.726 -393.393)" fill="#12263f"/>
            <path id="Trazado_16216" data-name="Trazado 16216" d="M1050.832,382.541a12.852,12.852,0,0,0-7.85-5.845c3.331-2.281,3.7-6.629,3.924-9.274a16.194,16.194,0,0,1,.184-1.65.973.973,0,0,0-1.853-.559c-2.032,4.886-6.982,6.715-9.833,7.076a12.116,12.116,0,0,0-6.765-1.844H1026.7a12.114,12.114,0,0,0-6.764,1.844c-2.852-.362-7.8-2.19-9.833-7.076a.973.973,0,0,0-1.853.559,16.339,16.339,0,0,1,.184,1.65c.224,2.645.593,7,3.926,9.275a12.854,12.854,0,0,0-7.852,5.844.97.97,0,0,0,.374,1.408,24.406,24.406,0,0,0,9.21,2.009c-.009.336-.027.663-.027,1.009a7.087,7.087,0,0,0,1.486,3.943,6.749,6.749,0,0,1,1.43,3.833v4a7.091,7.091,0,0,0-.972,3.778c0,1.526.639,3.917,4.362,4.64.247.259.491.522.724.787,1.375,1.556,2.931,3.32,6.578,3.32s5.2-1.765,6.578-3.32c.233-.266.476-.528.724-.787,3.723-.723,4.362-3.113,4.362-4.64a7.1,7.1,0,0,0-.972-3.778v-4a6.748,6.748,0,0,1,1.429-3.833,7.086,7.086,0,0,0,1.486-3.943c0-.346-.018-.673-.027-1.009a24.4,24.4,0,0,0,9.21-2.009.971.971,0,0,0,.374-1.408ZM1026.7,372.387h1.944c6.77,0,9.435,4.654,10.315,9.821-.247.039-.5.08-.747.144a9.082,9.082,0,0,0-6.652,8.953v4.409h-7.775v-4.409a9.082,9.082,0,0,0-6.652-8.953c-.251-.064-.5-.1-.747-.144C1017.261,377.042,1019.927,372.387,1026.7,372.387Zm-12.5,11.64a24.329,24.329,0,0,1-7.38-1.379,10.46,10.46,0,0,1,8.6-4.4A22.184,22.184,0,0,0,1014.2,384.027Zm-3.562-14.417a15.254,15.254,0,0,0,7.383,4.291,11.765,11.765,0,0,0-1.61,2.219C1012.425,375.56,1011.155,372.9,1010.636,369.611Zm6.547,20.251a5.451,5.451,0,0,1-1.179-2.895c0-.917.041-1.858.124-2.8.176.029.341.023.521.069a6.377,6.377,0,0,1,2.3,1.143,1.869,1.869,0,0,0-1,1.586.971.971,0,0,0,.972.972h2.124a7.641,7.641,0,0,1,.792,3.367v4.487a7.7,7.7,0,0,0-2.916,1.022v-2.072A8.525,8.525,0,0,0,1017.183,389.862Zm10.485,19.46a5.426,5.426,0,0,1-4.5-1.984,4.849,4.849,0,0,0,2.542-1.091,2.777,2.777,0,0,1,3.926,0,4.849,4.849,0,0,0,2.542,1.091A5.427,5.427,0,0,1,1027.668,409.322Zm4.86-3.888a2.752,2.752,0,0,1-1.745-.752,4.667,4.667,0,0,0-6.23,0,2.752,2.752,0,0,1-1.745.752c-3.225,0-4.86-.981-4.86-2.916a4.705,4.705,0,0,1,1.246-3.489,5.427,5.427,0,0,1,3.614-1.371h9.737a5.586,5.586,0,0,1,3.6,1.371,4.7,4.7,0,0,1,1.245,3.489C1037.387,404.453,1035.753,405.434,1032.528,405.434Zm5.625-15.572a8.521,8.521,0,0,0-1.737,4.881v2.071a7.612,7.612,0,0,0-2.916-1.021v-4.487a7.645,7.645,0,0,1,.792-3.367h2.124a.971.971,0,0,0,.972-.972,1.869,1.869,0,0,0-1-1.586,6.373,6.373,0,0,1,2.3-1.143c.181-.046.345-.041.521-.069.084.941.124,1.882.124,2.8A5.453,5.453,0,0,1,1038.153,389.862Zm.774-13.741a11.773,11.773,0,0,0-1.61-2.219,15.258,15.258,0,0,0,7.383-4.291C1044.181,372.9,1042.91,375.56,1038.927,376.12Zm2.211,7.908a22.17,22.17,0,0,0-1.221-5.782,10.454,10.454,0,0,1,8.6,4.4A24.216,24.216,0,0,1,1041.138,384.028Z" transform="translate(-1004.34 -364.611)" fill="#12263f"/>
          </g>
        </g>
      </g>
    </g>
  </g>
</svg>
