<svg xmlns="http://www.w3.org/2000/svg" xmlns:xlink="http://www.w3.org/1999/xlink" width="275.27" height="276.701" viewBox="0 0 275.27 276.701">
  <defs>
    <clipPath id="clip-path">
      <path id="Trazado_97723" data-name="Trazado 97723" d="M267.667,252.6c.041,4.271-1.132,11.857-3.512,13.39a6.936,6.936,0,0,1-4.705.868s-2.292,3.668-4.8,3.559a7.835,7.835,0,0,1-4.271-1.708s-.122.271-.346.664v36.555a11.257,11.257,0,0,1-6.563,10.447,9.644,9.644,0,0,1-3.824.786H137.113c-5.749,0-10.4-5.024-10.4-11.234V141.766l-32.752,5.891-.38.068a3.135,3.135,0,0,1-.942-.02c-2.915-.515-4.759-5.207-5.274-12.108-1.349.271-2.7.515-4.054.753-1.661.285-3.322.563-5,.793l-2.508.339c-.834.088-1.675.2-2.515.264.814-.217,1.641-.393,2.461-.6l2.475-.522c1.647-.353,3.308-.644,4.969-.942,1.376-.23,2.746-.468,4.129-.664a62.963,62.963,0,0,1-.007-6.983l-2.854.142c-2.475.115-4.949.176-7.424.244-2.481.041-4.956.088-7.437.081s-4.956-.007-7.437-.095c2.475-.19,4.949-.312,7.43-.42s4.949-.183,7.424-.244,4.956-.095,7.437-.088l2.881.007a83.51,83.51,0,0,1,1.173-10.013l.02-.1c-1.417-.224-2.834-.461-4.251-.7-2.861-.481-5.715-1.017-8.569-1.519-2.847-.563-5.7-1.092-8.542-1.681l-4.264-.888c-1.41-.325-2.834-.624-4.244-.969,1.437.2,2.875.427,4.305.637l4.3.712c2.861.475,5.715,1.017,8.569,1.519,2.847.563,5.7,1.092,8.542,1.681,1.4.292,2.807.583,4.21.888a82.755,82.755,0,0,1,2.82-11.213l-2.2-1.512c-2.075-1.424-4.115-2.888-6.156-4.352s-4.061-2.963-6.061-4.481-4-3.044-5.952-4.63c2.115,1.356,4.19,2.78,6.258,4.21s4.115,2.888,6.156,4.352,4.061,2.956,6.061,4.481l2.02,1.539a55.318,55.318,0,0,1,2.414-6.034c-.956-.847-1.892-1.729-2.82-2.61-1.078-1.037-2.149-2.075-3.186-3.152s-2.081-2.149-3.064-3.281c1.173.929,2.305,1.919,3.424,2.908s2.21,2.014,3.295,3.037c.875.841,1.749,1.688,2.61,2.556,2.691-5.491,5.763-8.7,8.461-8.23a3.042,3.042,0,0,1,.895.305v-.007l.041.027,23.112,13.451V86.228c0-12.651,4.651-13.268,10.4-13.268h20.542c1.193,0,2.169,1.356,2.169,3.037v.725c0,3.939,2.156,3.952,4.8,3.952h47.5c2.671,0,4.813-.014,4.813-3.952V76c0-1.681.963-3.037,2.176-3.037h20.535c5.736,0,10.386,1.681,10.386,13.268v97.341a41.326,41.326,0,0,1,4.068,7.064c3.593,8.752,10.217,41.138,10.217,41.138l-1.458.115c.149,1.058.264,2.027.346,2.9v.007C264.25,238.47,267.633,248.727,267.667,252.6Z" transform="translate(-58.66 -72.96)" fill="none"/>
    </clipPath>
  </defs>
  <g id="Grupo_47000" data-name="Grupo 47000" transform="translate(-46.985 -36.631)">
    <g id="Background_Complete" data-name="Background Complete" transform="translate(54.835 36.631)">
      <g id="Grupo_46908" data-name="Grupo 46908" transform="translate(0 103.236)">
        <path id="Trazado_97594" data-name="Trazado 97594" d="M59.8,215.414a19.654,19.654,0,1,1,25.271,11.575A19.654,19.654,0,0,1,59.8,215.414Z" transform="translate(-58.563 -188.906)" fill="#ebebeb"/>
        <path id="Trazado_97595" data-name="Trazado 97595" d="M92.352,214.453C90.1,220.746,83.493,225.1,83.493,225.1s-7.429-2.71-11.068-8.314c-3.037-4.674-2.107-10.218,1.633-11.843,5.361-2.331,7.919,7.181,7.919,7.181s.294-9.845,6.054-8.814C92.044,204.024,94.227,209.2,92.352,214.453Z" transform="translate(-62.443 -193.519)" fill="#fff"/>
      </g>
      <g id="Grupo_46910" data-name="Grupo 46910" transform="translate(215.407 146.852)">
        <path id="Trazado_97596" data-name="Trazado 97596" d="M404.813,290.439a19.65,19.65,0,0,1-20.593-1.778,19.653,19.653,0,1,1,20.593,1.778Z" transform="translate(-376.293 -253.241)" fill="#ebebeb"/>
        <g id="Grupo_46909" data-name="Grupo 46909" transform="translate(7.927 11.437)">
          <path id="Trazado_97597" data-name="Trazado 97597" d="M408.684,276.6a5.98,5.98,0,1,1-5.447-6.47A5.981,5.981,0,0,1,408.684,276.6Z" transform="translate(-390.807 -270.111)" fill="#fff"/>
          <path id="Trazado_97598" data-name="Trazado 97598" d="M408.79,299.153l-.212,2.458a19.65,19.65,0,0,1-20.593-1.778l.21-2.45a10.335,10.335,0,0,1,20.594,1.769Z" transform="translate(-387.986 -275.851)" fill="#fff"/>
        </g>
      </g>
      <g id="Grupo_46912" data-name="Grupo 46912" transform="translate(197.633 0)">
        <circle id="Elipse_3885" data-name="Elipse 3885" cx="21.591" cy="21.591" r="21.591" transform="translate(0 16.923) rotate(-23.073)" fill="#ebebeb"/>
        <g id="xsrjP0" transform="translate(14.538 13.812)">
          <g id="Grupo_46911" data-name="Grupo 46911">
            <path id="Trazado_97599" data-name="Trazado 97599" d="M386.532,80.106c-.571-.359-1.068-.88-1.833-.807-.294.029-.228-.214-.23-.374q-.006-4.316-.006-8.627c0-.209.013-.381.241-.5,2.2-1.107,3.148-3.287,4.494-5.149a8.593,8.593,0,0,0,1.593-6.525c-.092-.647.21-.938.793-1.07a1.442,1.442,0,0,1,1.641.516,11.585,11.585,0,0,1,1.254,3.769,13.507,13.507,0,0,1-.4,3.232c-.1.79-.284,1.57-.434,2.37.193.14.416.067.623.07q3.644.006,7.289,0c1.024,0,1.525.294,1.667.974a1.947,1.947,0,0,1-1.058,2.106c-.181.092-.51.009-.532.294s.317.26.485.377c.879.6.716,1.847-.3,2.567-.245.172-.719.092-.732.452-.005.286.439.283.64.485a1.645,1.645,0,0,1-.7,2.54,3.239,3.239,0,0,0-.427.165c-.121.081-.239.172,0,.338a1.432,1.432,0,0,1-.03,2.561l-.317.227a2.054,2.054,0,0,1-1.279.28q-5.715.011-11.429,0A1.355,1.355,0,0,1,386.532,80.106Z" transform="translate(-375.688 -57.004)" fill="#fff" fill-rule="evenodd"/>
            <path id="Trazado_97600" data-name="Trazado 97600" d="M371.531,80.734c0-1.826.009-3.656-.006-5.481,0-.372.035-.555.491-.549q3.345.041,6.685,0c.437,0,.505.146.5.534q-.018,5.516,0,11.031c0,.468-.125.6-.595.592-2.161-.024-4.323-.029-6.483,0-.538.008-.612-.18-.607-.651C371.548,84.389,371.531,82.563,371.531,80.734Z" transform="translate(-371.521 -62.704)" fill="#fff" fill-rule="evenodd"/>
          </g>
        </g>
      </g>
      <g id="Grupo_46913" data-name="Grupo 46913" transform="translate(13.315 201.626)">
        <path id="Trazado_97601" data-name="Trazado 97601" d="M102.018,373.425c1.116,7.237-2.97,14.875-2.97,14.875s-8.569,1.271-15-2.224c-5.365-2.915-7.366-8.739-4.614-12.256,3.945-5.045,11.375,2.778,11.375,2.778s-4.859-9.634,1.226-11.65C96.275,363.543,101.083,367.391,102.018,373.425Z" transform="translate(-78.203 -343.896)" fill="#ebebeb"/>
        <path id="Trazado_97602" data-name="Trazado 97602" d="M127.669,345.751c-3.239,4.307-9.363,6.079-9.363,6.079s-5.073-3.86-6.537-9.045c-1.221-4.325.818-8.371,4.086-8.729,4.685-.514,4.382,7.421,4.382,7.421s2.578-7.51,6.767-5.341C129.923,337.648,130.367,342.158,127.669,345.751Z" transform="translate(-88.897 -334.033)" fill="#ebebeb"/>
      </g>
    </g>
    <g id="Floor" transform="translate(46.985 305.122)">
      <path id="Trazado_97603" data-name="Trazado 97603" d="M46.985,433l34.409-.165,34.409-.06,68.818-.113,68.818.113,34.409.06,34.409.166-34.409.166-34.409.059-68.818.113-68.818-.114-34.409-.06Z" transform="translate(-46.985 -432.661)" fill="#263238"/>
    </g>
    <g id="Device" transform="translate(115.716 53.776)">
      <g id="Grupo_46938" data-name="Grupo 46938">
        <g id="Grupo_46937" data-name="Grupo 46937">
          <path id="Trazado_97604" data-name="Trazado 97604" d="M274.567,61.92H159.958a11.7,11.7,0,0,0-11.593,11.81V309.666a11.709,11.709,0,0,0,11.593,11.81H274.567a11.717,11.717,0,0,0,11.607-11.81V73.73A11.708,11.708,0,0,0,274.567,61.92Zm4.359,240.451c0,6.21-4.651,11.234-10.386,11.234H166.005c-5.749,0-10.4-5.024-10.4-11.234V82.672c0-12.651,4.651-13.268,10.4-13.268h20.535c1.193,0,2.169,1.356,2.169,3.037v.725c0,3.939,2.156,3.952,4.807,3.952h47.5c2.671,0,4.807-.014,4.807-3.952v-.725c0-1.681.963-3.037,2.176-3.037H268.54c5.735,0,10.386,1.681,10.386,13.268Z" transform="translate(-148.365 -61.92)" fill="#12263f"/>
          <path id="Trazado_97605" data-name="Trazado 97605" d="M253.016,76.323H240.061a.8.8,0,0,1-.8-.8h0a.8.8,0,0,1,.8-.8h12.956a.8.8,0,0,1,.8.8h0A.8.8,0,0,1,253.016,76.323Z" transform="translate(-177.637 -66.043)" fill="#fff"/>
          <line id="Línea_1518" data-name="Línea 1518" x1="0.386" transform="translate(6.854 226.526)" fill="none"/>
          <g id="Grupo_46936" data-name="Grupo 46936" transform="translate(7.237 7.485)">
            <path id="Trazado_97606" data-name="Trazado 97606" d="M282.365,86.228v219.7c0,6.21-4.651,11.234-10.386,11.234H169.445c-5.749,0-10.4-5.024-10.4-11.234V86.228c0-12.651,4.651-13.268,10.4-13.268H189.98c1.193,0,2.169,1.356,2.169,3.037v.725c0,3.939,2.156,3.952,4.807,3.952h47.5c2.671,0,4.807-.014,4.807-3.952V76c0-1.681.963-3.037,2.176-3.037h20.542C277.715,72.96,282.365,74.641,282.365,86.228Z" transform="translate(-159.042 -72.96)" fill="#fff"/>
            <path id="Trazado_97607" data-name="Trazado 97607" d="M282.36,86.228v16.393H159.04V86.228c0-12.651,4.651-13.268,10.4-13.268h20.542c1.193,0,2.169,1.356,2.169,3.037v.725c0,3.939,2.156,3.952,4.8,3.952h47.5c2.671,0,4.813-.014,4.813-3.952V76c0-1.681.963-3.037,2.176-3.037h20.535C277.71,72.96,282.36,74.641,282.36,86.228Z" transform="translate(-159.04 -72.96)" fill="#7d6eb2"/>
            <g id="Grupo_46915" data-name="Grupo 46915" transform="translate(8.044 14.592)">
              <path id="Trazado_97608" data-name="Trazado 97608" d="M174.548,101.662,170.9,98.248l3.643-3.413.565.6-3,2.811,3,2.812Z" transform="translate(-170.905 -94.597)" fill="#fff"/>
              <path id="Trazado_97609" data-name="Trazado 97609" d="M322.065,101.787h-2.438v-.845a.2.2,0,0,0-.115-.181,3.024,3.024,0,0,1-.272-.158.207.207,0,0,0-.214-.009l-.734.423L317.074,98.9l.734-.422a.2.2,0,0,0,.1-.191c0-.051,0-.1,0-.156s0-.1,0-.156a.207.207,0,0,0-.1-.192l-.733-.422,1.218-2.111.732.422a.2.2,0,0,0,.215-.009,2.723,2.723,0,0,1,.273-.158.2.2,0,0,0,.115-.181v-.845h2.438v.845a.2.2,0,0,0,.115.181,2.807,2.807,0,0,1,.274.158.2.2,0,0,0,.214.009l.732-.422,1.218,2.111-.734.423a.2.2,0,0,0-.1.192c0,.053,0,.1,0,.155s0,.1,0,.153a.2.2,0,0,0,.1.193l.735.425-1.218,2.111-.734-.423a.207.207,0,0,0-.214.009,2.931,2.931,0,0,1-.273.158.2.2,0,0,0-.115.181Zm-1.93-.508h1.421v-.336a.711.711,0,0,1,.392-.634,2.509,2.509,0,0,0,.226-.131.709.709,0,0,1,.746-.024l.293.168.711-1.23-.3-.17a.706.706,0,0,1-.349-.658l0-.128,0-.132a.707.707,0,0,1,.352-.656l.293-.169-.71-1.23-.292.168a.711.711,0,0,1-.746-.024,2.322,2.322,0,0,0-.226-.13.71.71,0,0,1-.393-.635v-.336h-1.421v.336a.711.711,0,0,1-.392.635,2.162,2.162,0,0,0-.226.13.713.713,0,0,1-.747.024l-.291-.168-.709,1.23.292.169a.714.714,0,0,1,.352.658c0,.044,0,.087,0,.129s0,.086,0,.129a.713.713,0,0,1-.351.659l-.292.169.709,1.23.293-.168a.707.707,0,0,1,.747.024,2.3,2.3,0,0,0,.225.129.713.713,0,0,1,.392.635Zm.71-1.31a1.834,1.834,0,1,1,1.835-1.833A1.835,1.835,0,0,1,320.846,99.969Zm0-3.16a1.326,1.326,0,1,0,1.327,1.327A1.327,1.327,0,0,0,320.846,96.809Z" transform="translate(-217.978 -94.484)" fill="#fff"/>
            </g>
            <g id="Grupo_46919" data-name="Grupo 46919" transform="translate(8.044 4.011)">
              <g id="u5Zjqx" transform="translate(14.906)">
                <g id="Grupo_46916" data-name="Grupo 46916">
                  <path id="Trazado_97610" data-name="Trazado 97610" d="M197.336,79.8l-.2.2-.112.113a2.7,2.7,0,0,0-3.826,0c-.035-.037-.07-.075-.107-.112l-.2-.2-.005,0v0l.014-.012c.083-.075.165-.151.251-.222a3.1,3.1,0,0,1,1.35-.628c.127-.023.256-.035.384-.051.043-.005.327-.006.336-.005.087.006.175.01.262.02a2.966,2.966,0,0,1,.706.168,3.089,3.089,0,0,1,.477.224,2.984,2.984,0,0,1,.456.319c.071.061.14.125.209.188Z" transform="translate(-192.891 -78.876)" fill="#fff"/>
                  <path id="Trazado_97611" data-name="Trazado 97611" d="M194.126,81.153l-.314-.311a2.212,2.212,0,0,1,1.276-.641,2.237,2.237,0,0,1,1.919.636l-.315.314a1.813,1.813,0,0,0-2.566,0Z" transform="translate(-193.188 -79.295)" fill="#fff"/>
                  <path id="Trazado_97612" data-name="Trazado 97612" d="M196.677,81.885l-.312.312a.927.927,0,0,0-1.315,0l-.312-.311A1.362,1.362,0,0,1,196.677,81.885Z" transform="translate(-193.486 -79.715)" fill="#fff"/>
                </g>
                <path id="Trazado_97613" data-name="Trazado 97613" d="M196.316,82.821a.282.282,0,1,1-.281-.282A.282.282,0,0,1,196.316,82.821Z" transform="translate(-193.813 -80.055)" fill="#fff"/>
              </g>
              <g id="Grupo_46917" data-name="Grupo 46917" transform="translate(0 0.707)">
                <path id="Trazado_97614" data-name="Trazado 97614" d="M170.905,80.735a.817.817,0,1,1,.817.817A.816.816,0,0,1,170.905,80.735Z" transform="translate(-170.905 -79.918)" fill="#fff"/>
                <path id="Trazado_97615" data-name="Trazado 97615" d="M174.7,80.735a.817.817,0,1,1,.817.817A.817.817,0,0,1,174.7,80.735Z" transform="translate(-172.128 -79.918)" fill="#fff"/>
                <path id="Trazado_97616" data-name="Trazado 97616" d="M178.5,80.735a.817.817,0,1,1,.817.817A.817.817,0,0,1,178.5,80.735Z" transform="translate(-173.351 -79.918)" fill="#fff"/>
                <path id="Trazado_97617" data-name="Trazado 97617" d="M182.3,80.735a.817.817,0,1,1,.817.817A.817.817,0,0,1,182.3,80.735Z" transform="translate(-174.573 -79.918)" fill="#fff"/>
                <path id="Trazado_97618" data-name="Trazado 97618" d="M186.093,80.735a.817.817,0,1,1,.817.817A.817.817,0,0,1,186.093,80.735Z" transform="translate(-175.796 -79.918)" fill="#fff"/>
              </g>
              <g id="Grupo_46918" data-name="Grupo 46918" transform="translate(99.374 0.225)">
                <path id="Trazado_97619" data-name="Trazado 97619" d="M324.137,82.29h-6.653V79.208h6.653Zm-6.314-.339H323.8v-2.4h-5.975Z" transform="translate(-317.484 -79.208)" fill="#fff"/>
                <rect id="Rectángulo_28296" data-name="Rectángulo 28296" width="4.289" height="2.035" transform="translate(0.552 0.524)" fill="#fff"/>
                <rect id="Rectángulo_28297" data-name="Rectángulo 28297" width="0.592" height="1.649" transform="translate(6.657 0.717)" fill="#fff"/>
              </g>
            </g>
            <path id="Trazado_97620" data-name="Trazado 97620" d="M182.654,411.268h-.938v4.306h-1.752v-2.194h-3.1v2.194h-1.752v-4.306h-.938l4.241-4.382Z" transform="translate(-163.913 -180.499)" fill="#ebebeb"/>
            <g id="Grupo_46920" data-name="Grupo 46920" transform="translate(102.853 226.387)">
              <rect id="Rectángulo_28298" data-name="Rectángulo 28298" width="10.222" height="1.461" fill="#ebebeb"/>
              <rect id="Rectángulo_28299" data-name="Rectángulo 28299" width="10.222" height="1.461" transform="translate(0 3.614)" fill="#ebebeb"/>
              <rect id="Rectángulo_28300" data-name="Rectángulo 28300" width="10.222" height="1.461" transform="translate(0 7.227)" fill="#ebebeb"/>
            </g>
            <g id="Grupo_46925" data-name="Grupo 46925" transform="translate(8.044 38.495)">
              <g id="Grupo_46923" data-name="Grupo 46923">
                <g id="Grupo_46922" data-name="Grupo 46922">
                  <path id="Trazado_97621" data-name="Trazado 97621" d="M181.4,142.474a6.77,6.77,0,0,1-1.984.83,6.879,6.879,0,1,1,1.984-.83Z" transform="translate(-170.905 -129.74)" fill="#dbdbdb"/>
                  <g id="Grupo_46921" data-name="Grupo 46921" transform="translate(3.263 4.002)">
                    <path id="Trazado_97622" data-name="Trazado 97622" d="M182.152,137.737a2.094,2.094,0,1,1-2.094-2.094A2.093,2.093,0,0,1,182.152,137.737Z" transform="translate(-176.441 -135.643)" fill="#fff"/>
                    <path id="Trazado_97623" data-name="Trazado 97623" d="M182.953,145.531v.864a6.77,6.77,0,0,1-1.984.83,6.841,6.841,0,0,1-5.251-.833v-.861a3.618,3.618,0,0,1,7.236,0Z" transform="translate(-175.717 -137.662)" fill="#fff"/>
                  </g>
                </g>
              </g>
              <g id="Grupo_46924" data-name="Grupo 46924" transform="translate(22.388 0.395)">
                <rect id="Rectángulo_28301" data-name="Rectángulo 28301" width="43.737" height="3.607" fill="#ebebeb"/>
                <rect id="Rectángulo_28302" data-name="Rectángulo 28302" width="38.176" height="2.389" transform="translate(0 6.013)" fill="#ebebeb"/>
                <rect id="Rectángulo_28303" data-name="Rectángulo 28303" width="63.126" height="2.389" transform="translate(0 10.613)" fill="#ebebeb"/>
              </g>
            </g>
            <g id="Grupo_46926" data-name="Grupo 46926" transform="translate(0.003 57.956)">
              <rect id="Rectángulo_28304" data-name="Rectángulo 28304" width="123.3" height="86.345" transform="translate(123.3 86.345) rotate(180)" fill="#ebebeb"/>
              <path id="Trazado_97624" data-name="Trazado 97624" d="M180.3,189.8a10.215,10.215,0,1,0,10.215-10.215A10.215,10.215,0,0,0,180.3,189.8Z" transform="translate(-165.89 -165.253)" fill="#dbdbdb"/>
              <path id="Trazado_97625" data-name="Trazado 97625" d="M239.8,236.025h68.568l-34.284-46.471Z" transform="translate(-185.052 -168.465)" fill="#c7c7c7"/>
              <path id="Trazado_97626" data-name="Trazado 97626" d="M200.155,244.054h56.61l-28.3-30.261Z" transform="translate(-172.284 -176.27)" fill="#dbdbdb"/>
              <rect id="Rectángulo_28305" data-name="Rectángulo 28305" width="123.3" height="18.603" transform="translate(0 67.742)" fill="#dbdbdb"/>
            </g>
            <g id="Grupo_46931" data-name="Grupo 46931" transform="translate(8.044 177.097)">
              <g id="Grupo_46929" data-name="Grupo 46929">
                <g id="Grupo_46928" data-name="Grupo 46928">
                  <path id="Trazado_97627" data-name="Trazado 97627" d="M181.4,346.916a6.769,6.769,0,0,1-1.984.831,6.879,6.879,0,1,1,1.984-.831Z" transform="translate(-170.905 -334.182)" fill="#dbdbdb"/>
                  <g id="Grupo_46927" data-name="Grupo 46927" transform="translate(3.263 4.002)">
                    <path id="Trazado_97628" data-name="Trazado 97628" d="M182.152,342.179a2.094,2.094,0,1,1-2.094-2.094A2.093,2.093,0,0,1,182.152,342.179Z" transform="translate(-176.441 -340.085)" fill="#fff"/>
                    <path id="Trazado_97629" data-name="Trazado 97629" d="M182.953,349.973v.864a6.769,6.769,0,0,1-1.984.831,6.839,6.839,0,0,1-5.251-.834v-.86a3.618,3.618,0,0,1,7.236,0Z" transform="translate(-175.717 -342.104)" fill="#fff"/>
                  </g>
                </g>
              </g>
              <g id="Grupo_46930" data-name="Grupo 46930" transform="translate(22.388 0.395)">
                <rect id="Rectángulo_28306" data-name="Rectángulo 28306" width="56.249" height="3.607" fill="#ebebeb"/>
                <rect id="Rectángulo_28307" data-name="Rectángulo 28307" width="71.805" height="2.389" transform="translate(0 6.013)" fill="#ebebeb"/>
                <rect id="Rectángulo_28308" data-name="Rectángulo 28308" width="24.461" height="2.389" transform="translate(0 10.613)" fill="#ebebeb"/>
              </g>
            </g>
            <g id="Grupo_46932" data-name="Grupo 46932" transform="translate(0.003 196.56)">
              <rect id="Rectángulo_28309" data-name="Rectángulo 28309" width="123.3" height="21.091" fill="#ebebeb"/>
              <path id="Trazado_97630" data-name="Trazado 97630" d="M200.412,390.789H181.185a10.216,10.216,0,0,1,19.227,0Z" transform="translate(-166.175 -369.698)" fill="#dbdbdb"/>
            </g>
            <g id="Grupo_46934" data-name="Grupo 46934" transform="translate(8.171 149.37)">
              <circle id="Elipse_3887" data-name="Elipse 3887" cx="4.082" cy="4.082" r="4.082" fill="#ebebeb"/>
              <g id="xsrjP0-2" data-name="xsrjP0" transform="translate(1.475 1.338)">
                <g id="Grupo_46933" data-name="Grupo 46933">
                  <path id="Trazado_97631" data-name="Trazado 97631" d="M176.106,299.625c-.108-.068-.2-.167-.346-.153-.056.005-.043-.041-.043-.071,0-.544,0-1.087,0-1.631,0-.039,0-.072.045-.094.415-.209.6-.622.85-.974a1.626,1.626,0,0,0,.3-1.234c-.018-.122.039-.177.15-.2a.272.272,0,0,1,.31.1,2.193,2.193,0,0,1,.237.713,2.568,2.568,0,0,1-.076.611c-.018.149-.054.3-.082.448.037.026.079.013.118.013.46,0,.919,0,1.378,0,.193,0,.288.056.315.184a.367.367,0,0,1-.2.4c-.034.017-.1,0-.1.056s.06.049.092.071c.166.114.136.349-.057.485-.046.032-.136.017-.138.085s.083.053.121.092a.311.311,0,0,1-.133.48.6.6,0,0,0-.081.031c-.022.016-.045.033,0,.064a.271.271,0,0,1-.005.484l-.06.043a.394.394,0,0,1-.242.053q-1.08,0-2.16,0A.258.258,0,0,1,176.106,299.625Z" transform="translate(-174.056 -295.258)" fill="#fff" fill-rule="evenodd"/>
                  <path id="Trazado_97632" data-name="Trazado 97632" d="M173.27,299.744c0-.345,0-.691,0-1.036,0-.07.006-.105.092-.1q.633.007,1.264,0c.083,0,.1.028.095.1q0,1.043,0,2.085c0,.089-.024.114-.113.112-.408,0-.817-.005-1.225,0-.1,0-.116-.035-.115-.123C173.273,300.435,173.27,300.089,173.27,299.744Z" transform="translate(-173.268 -296.335)" fill="#fff" fill-rule="evenodd"/>
                </g>
              </g>
            </g>
            <g id="Grupo_46935" data-name="Grupo 46935" transform="translate(16.743 149.369)">
              <path id="Trazado_97633" data-name="Trazado 97633" d="M183.853,298.334a4.082,4.082,0,1,1,4.934,3A4.082,4.082,0,0,1,183.853,298.334Z" transform="translate(-183.736 -293.283)" fill="#ffc727"/>
              <path id="Trazado_97634" data-name="Trazado 97634" d="M190.734,298.9a5.23,5.23,0,0,1-2.084,1.981,5.222,5.222,0,0,1-2.082-1.981,1.649,1.649,0,0,1,.622-2.4c1.162-.352,1.46,1.672,1.46,1.672s.3-2.024,1.462-1.672A1.65,1.65,0,0,1,190.734,298.9Z" transform="translate(-184.568 -294.303)" fill="#fff"/>
            </g>
            <rect id="Rectángulo_28310" data-name="Rectángulo 28310" width="57.928" height="2.358" transform="translate(31.108 152.918)" fill="#ebebeb"/>
            <path id="Trazado_97635" data-name="Trazado 97635" d="M159.045,319.151l15.412-.124,15.413-.045L220.7,318.9l30.825.085,15.412.045,15.413.124-15.413.124-15.412.045L220.7,319.4l-30.825-.085-15.413-.045Z" transform="translate(-159.042 -152.163)" fill="#ebebeb"/>
          </g>
        </g>
      </g>
    </g>
    <g id="Icons" transform="translate(57.349 79.346)">
      <g id="Grupo_46939" data-name="Grupo 46939" transform="translate(0 106.28)">
        <rect id="Rectángulo_28311" data-name="Rectángulo 28311" width="43.048" height="43.048" transform="translate(0 11.09) rotate(-14.929)" fill="#12263f"/>
        <path id="Trazado_97636" data-name="Trazado 97636" d="M93.7,292.313,88.127,293.8c-.581-2.18-1.129-4.235-1.708-6.4l5.47-1.458c-.105-.493-.178-.879-.271-1.261-.41-1.691-.929-3.365-1.217-5.077-.636-3.767.929-6.963,4.43-8.434a53.637,53.637,0,0,1,6.967-1.92c.529,1.986,1.013,3.8,1.554,5.828-.845.225-1.691.433-2.525.679a12.119,12.119,0,0,0-2.2.748,2.166,2.166,0,0,0-1.238,2.5c.372,1.653.857,3.28,1.329,5.054l6.36-1.7c.29,2.166.58,4.173.794,6.189.021.2-.4.562-.676.644-1.523.451-3.064.838-4.728,1.282l4.381,16.431-6.771,1.805C96.626,303.276,95.182,297.856,93.7,292.313Z" transform="translate(-70.048 -260.538)" fill="#fff"/>
      </g>
      <g id="Grupo_46941" data-name="Grupo 46941" transform="translate(199.839 151.248)">
        <rect id="Rectángulo_28312" data-name="Rectángulo 28312" width="43.166" height="43.166" transform="translate(4.255 0) rotate(5.657)" fill="#12263f"/>
        <g id="Grupo_46940" data-name="Grupo 46940" transform="translate(6.908 6.841)">
          <path id="Trazado_97637" data-name="Trazado 97637" d="M400.589,342.421c.407-4.3-2-7.349-6.262-7.812q-8.837-.964-17.7-1.753c-4.176-.369-7.152,2.125-7.628,6.283-.332,2.939-.591,5.889-.882,8.832-.285,2.881-.59,5.763-.853,8.645-.4,4.4,2,7.476,6.352,7.951q8.743.961,17.508,1.734c4.272.375,7.283-2.161,7.725-6.408Q399.77,351.164,400.589,342.421Zm-4.557,17.247c-.3,2.715-1.912,4.074-4.636,3.824q-8.757-.812-17.5-1.734c-2.731-.286-4.062-1.934-3.808-4.642q.836-8.833,1.749-17.659c.278-2.695,1.94-4.094,4.634-3.846q8.758.806,17.5,1.734c2.7.286,4.046,1.976,3.809,4.668-.258,2.946-.576,5.887-.867,8.83S396.357,356.727,396.032,359.667Z" transform="translate(-367.227 -332.82)" fill="#fff"/>
          <path id="Trazado_97638" data-name="Trazado 97638" d="M388.775,345.3a8.3,8.3,0,1,0,7.376,9.192A8.286,8.286,0,0,0,388.775,345.3Zm-1.466,13.746a5.6,5.6,0,0,1-4.875-5.972,5.531,5.531,0,0,1,11.009,1.087A5.606,5.606,0,0,1,387.309,359.043Z" transform="translate(-371.237 -336.824)" fill="#fff"/>
          <path id="Trazado_97639" data-name="Trazado 97639" d="M407.134,345.509A1.719,1.719,0,0,1,405,347.021a1.738,1.738,0,0,1-1.593-2.236,1.837,1.837,0,0,1,2.166-1.558A1.859,1.859,0,0,1,407.134,345.509Z" transform="translate(-378.863 -336.171)" fill="#fff"/>
        </g>
      </g>
      <g id="Grupo_46942" data-name="Grupo 46942" transform="translate(200.316 50.911)">
        <rect id="Rectángulo_28313" data-name="Rectángulo 28313" width="32.103" height="32.102" transform="translate(10.762 0) rotate(19.587)" fill="#26aab7"/>
        <path id="Trazado_97640" data-name="Trazado 97640" d="M367.065,202.6a11.049,11.049,0,0,0,7.458.32c-2.48-1.833-3.286-3.077-3.128-4.8l1.9.572a5.439,5.439,0,0,1-1.971-6.024l1.738,1.191c-1.112-3.249-.82-5.358,1.035-6.764a14.718,14.718,0,0,0,8.1,8.439c.094-.321.16-.563.235-.8a4.812,4.812,0,0,1,4.264-3.62,4.871,4.871,0,0,1,5.013,2.5,1.022,1.022,0,0,0,.98.593c.849-.015,1.7-.018,2.631-.026a5.078,5.078,0,0,1-2.665,1.7l0,.154,2.516.228c.02.041.039.083.06.124-.809.388-1.6.813-2.432,1.148a1.307,1.307,0,0,0-.867.849,14.316,14.316,0,0,1-17.087,9.152,14.532,14.532,0,0,1-7.424-4.483C367.3,202.9,367.185,202.75,367.065,202.6Z" transform="translate(-360.745 -178.713)" fill="#fff"/>
      </g>
      <g id="Grupo_46944" data-name="Grupo 46944" transform="translate(199.954 0)">
        <rect id="Rectángulo_28314" data-name="Rectángulo 28314" width="27.897" height="27.896" transform="matrix(0.949, -0.316, 0.316, 0.949, 0, 8.825)" fill="#ffc727"/>
        <g id="Grupo_46943" data-name="Grupo 46943" transform="translate(7.357 7.276)">
          <path id="Trazado_97641" data-name="Trazado 97641" d="M371.748,133.818c-.085-1.662-.181-3.2-.231-4.741a1.649,1.649,0,0,0-.535-1.214,10.321,10.321,0,1,1,17.28-10.262,10.4,10.4,0,0,1-6.122,12.52,11.068,11.068,0,0,1-5.159.7,1.632,1.632,0,0,0-.954.239C374.627,131.933,373.252,132.842,371.748,133.818Zm1.6-3.094c.884-.572,1.621-1.083,2.395-1.531a1.469,1.469,0,0,1,.9-.176,9.179,9.179,0,0,0,4.288-.288,8.587,8.587,0,0,0,4.971-12.215,8.047,8.047,0,0,0-8.251-4.352,8.59,8.59,0,0,0-4.908,15,1.593,1.593,0,0,1,.442.916C373.288,128.912,373.3,129.762,373.353,130.724Z" transform="translate(-368.06 -110.369)" fill="#fff"/>
          <path id="Trazado_97642" data-name="Trazado 97642" d="M374.9,121.379c.367-1.117,1.318-1.238,2.113-.4.311.326.4.442.724.824a1.26,1.26,0,0,1,.243,1.634c-.245.429-.12.694.242.973a7.237,7.237,0,0,0,3.8,1.517.689.689,0,0,0,.833-.5c.517-1.313.533-1.306,1.937-1.14l.485.06a1.2,1.2,0,0,1,.989,1.919,2.88,2.88,0,0,1-2.517,1.579,10.508,10.508,0,0,1-7.447-2.535,3.973,3.973,0,0,1-1.483-1.965A3.468,3.468,0,0,1,374.9,121.379Z" transform="translate(-370.203 -113.61)" fill="#fff"/>
        </g>
      </g>
    </g>
    <g id="Character" transform="translate(54.9 61.26)">
      <g id="Grupo_46999" data-name="Grupo 46999">
        <g id="Grupo_46998" data-name="Grupo 46998" clip-path="url(#clip-path)">
          <g id="Grupo_46997" data-name="Grupo 46997" transform="translate(-0.001 16.245)">
            <g id="Grupo_46996" data-name="Grupo 46996" transform="translate(0 0)">
              <g id="Grupo_46960" data-name="Grupo 46960" transform="translate(63.97 124.693)">
                <g id="Grupo_46952" data-name="Grupo 46952">
                  <g id="Grupo_46948" data-name="Grupo 46948" transform="translate(0 194.058)">
                    <path id="Trazado_97643" data-name="Trazado 97643" d="M154.077,635.087c2.363.763,69.73-.11,72.271-1.774.977-.616,1.422-10.439,1.619-22.324,0-.124,0-.248,0-.372.046-2.449.078-4.972.081-7.528,0-.352,0-.7.013-1.054l-3.269-34.949-45.064.451,4.447,34.62.052,1.371.272,7.167.026.737s-25.636,11.868-28.24,13.992C153.7,627.539,151.713,634.335,154.077,635.087Z" transform="translate(-153.018 -567.086)" fill="#ad6359"/>
                    <path id="Trazado_97644" data-name="Trazado 97644" d="M154.077,651.689c2.363.762,69.73-.111,72.271-1.774.977-.616,1.422-10.439,1.619-22.324,0-.124,0-.248,0-.372.046-2.449.078-4.972.081-7.528,0-.352,0-.7.013-1.054l-43.886.123.052,1.371.272,7.167.026.737s-25.636,11.868-28.24,13.992C153.7,644.141,151.713,650.937,154.077,651.689Z" transform="translate(-153.018 -583.687)" fill="#ebebeb"/>
                    <g id="Grupo_46947" data-name="Grupo 46947" transform="translate(0 43.422)">
                      <path id="Trazado_97645" data-name="Trazado 97645" d="M154.069,655.757c1.216.391,19.518.35,37.408-.011,3.6-.072,7.173-.155,10.584-.247,12.758-.35,23.3-.876,24.28-1.515.969-.608,1.411-10.161,1.607-21.827,0-.165.01-.33.01-.494,0-.124,0-.258.01-.382h-.051l-43.417.083.021.742s-25.64,11.861-28.237,13.984S151.709,655,154.069,655.757Z" transform="translate(-153.016 -631.182)" fill="#a6a6a6"/>
                      <g id="Grupo_46946" data-name="Grupo 46946" transform="translate(1.609)">
                        <g id="Grupo_46945" data-name="Grupo 46945">
                          <path id="Trazado_97646" data-name="Trazado 97646" d="M155.568,663.152c11.352-.426,57.18-1.073,68.434-.632.092,0,.092.066,0,.071-11.243.669-57.074.944-68.433.746C155.33,663.333,155.328,663.16,155.568,663.152Z" transform="translate(-155.389 -641.195)" fill="#263238"/>
                          <path id="Trazado_97647" data-name="Trazado 97647" d="M192.213,631.508c4.458-.892,9.932-.277,13.388,2.863.134.121-.041.31-.186.266a62.867,62.867,0,0,0-13.176-2.565A.286.286,0,0,1,192.213,631.508Z" transform="translate(-167.174 -631.135)" fill="#263238"/>
                          <path id="Trazado_97648" data-name="Trazado 97648" d="M187.492,634.437c4.458-.892,9.932-.277,13.388,2.862.134.122-.041.31-.186.266A62.874,62.874,0,0,0,187.517,635,.286.286,0,0,1,187.492,634.437Z" transform="translate(-165.654 -632.078)" fill="#263238"/>
                          <path id="Trazado_97649" data-name="Trazado 97649" d="M182.771,637.366c4.458-.892,9.933-.277,13.388,2.863.134.121-.041.31-.186.266A62.867,62.867,0,0,0,182.8,637.93.286.286,0,0,1,182.771,637.366Z" transform="translate(-164.133 -633.022)" fill="#263238"/>
                        </g>
                      </g>
                      <path id="Trazado_97650" data-name="Trazado 97650" d="M209.747,655.746c3.6-.072,7.173-.155,10.584-.247,12.758-.35,23.3-.876,24.28-1.515.969-.608,1.411-10.161,1.607-21.827,0-.165.01-.33.01-.494,0-.124,0-.258.01-.382h-.051C240.241,635.455,219.28,649.408,209.747,655.746Z" transform="translate(-171.286 -631.182)" fill="#263238"/>
                    </g>
                  </g>
                  <g id="Grupo_46951" data-name="Grupo 46951" transform="translate(22.409)">
                    <path id="Trazado_97651" data-name="Trazado 97651" d="M192.188,518.663h48.517s-9.769-113.317-9.388-115.3c.485-2.535,3.35-14.005,7.163-28.989,1.2-4.689,2.483-9.718,3.823-14.933,3.618-14.1,7.605-29.5,11.078-42.911,5.215-20.085,9.285-35.688,9.285-35.688H221.547s-4.792,15.19-10.83,34.956c-9.842,32.122-22.992,76.331-24.29,87.08C184.325,420.237,192.188,518.663,192.188,518.663Z" transform="translate(-186.07 -280.847)" fill="#26aab7"/>
                    <g id="Grupo_46950" data-name="Grupo 46950" transform="translate(8.163 10.299)">
                      <g id="Grupo_46949" data-name="Grupo 46949" transform="translate(0 218.887)">
                        <path id="Trazado_97652" data-name="Trazado 97652" d="M198.215,619.254c7.409-.155,5.281-.215,12.692-.286,3.626-.035,27.458-.243,30.846.319a.079.079,0,0,1,0,.151c-3.388.561-27.219.353-30.846.319-7.411-.072-5.283-.132-12.692-.287A.108.108,0,0,1,198.215,619.254Z" transform="translate(-198.11 -618.901)" fill="#263238"/>
                      </g>
                      <path id="Trazado_97653" data-name="Trazado 97653" d="M238.784,401.334c1.591-7.013,3.967-13.887,6.037-20.771q6.307-20.981,12.691-41.94,3.185-10.482,6.4-20.954,1.627-5.287,3.272-10.569c1.08-3.443,2.308-6.857,3.283-10.332.4-1.413.613-.637.105,1.158-1.023,3.618-2.033,7.241-3.088,10.851q-3.134,10.724-6.309,21.435-6.309,21.321-12.728,42.61-3.2,10.678-6.422,21.351A87.461,87.461,0,0,0,239.4,404.5a47.562,47.562,0,0,0-.428,11.049c.465,7.423,1.325,14.835,2.011,22.24l2.06,22.264q2.05,22.153,4.064,44.31c.168,1.872.332,3.744.477,5.619.048.627-.9.58-.966-.024-1.6-14.6-2.823-29.255-4.195-43.882q-2.047-21.832-4.089-43.664c-.341-3.654-.73-7.314-.733-10.988A45.325,45.325,0,0,1,238.784,401.334Z" transform="translate(-210.829 -296.038)" fill="#263238"/>
                    </g>
                  </g>
                  <path id="Trazado_97654" data-name="Trazado 97654" d="M245.286,280.847c2.855,22.085,8.3,63.491,12.264,93.532,9.274-36.4,24.187-93.532,24.187-93.532Z" transform="translate(-182.731 -280.847)" fill="#263238"/>
                </g>
                <g id="Grupo_46959" data-name="Grupo 46959" transform="translate(51.408)">
                  <g id="Grupo_46956" data-name="Grupo 46956" transform="translate(0 194.977)">
                    <path id="Trazado_97655" data-name="Trazado 97655" d="M229.892,636.173c2.361.772,69.73.144,72.277-1.511.98-.611,1.46-10.434,1.7-22.318q0-.186,0-.372c.055-2.449.1-4.971.109-7.527,0-.352,0-.7.016-1.054.157-17.152-1.08-34.949-1.08-34.949l-44.035.287,1.23,34.625.046,1.371.246,7.167.024.738s-25.68,11.774-28.291,13.889C229.547,628.624,227.53,635.413,229.892,636.173Z" transform="translate(-228.844 -568.442)" fill="#ad6359"/>
                    <path id="Trazado_97656" data-name="Trazado 97656" d="M229.892,652.757c2.361.771,69.73.144,72.277-1.511.98-.612,1.46-10.434,1.7-22.318q0-.186,0-.372c.055-2.449.1-4.971.109-7.527,0-.352,0-.7.016-1.054l-43.885-.037.046,1.371.246,7.167.024.738s-25.68,11.774-28.291,13.889C229.547,645.207,227.53,652,229.892,652.757Z" transform="translate(-228.844 -585.026)" fill="#ebebeb"/>
                    <g id="Grupo_46955" data-name="Grupo 46955" transform="translate(0 43.259)">
                      <path id="Trazado_97657" data-name="Trazado 97657" d="M229.892,656.813c2.361.772,69.73.144,72.277-1.511.98-.611,1.46-10.434,1.7-22.318q0-.186,0-.372l-43.468-.081.024.738s-25.68,11.774-28.291,13.889C229.547,649.263,227.53,656.052,229.892,656.813Z" transform="translate(-228.844 -632.341)" fill="#a6a6a6"/>
                      <g id="Grupo_46954" data-name="Grupo 46954" transform="translate(1.606)">
                        <g id="Grupo_46953" data-name="Grupo 46953">
                          <path id="Trazado_97658" data-name="Trazado 97658" d="M231.393,664.205c11.354-.384,57.184-.864,68.436-.382.092,0,.092.066,0,.071-11.245.627-57.077.735-68.435.5C231.155,664.386,231.153,664.214,231.393,664.205Z" transform="translate(-231.214 -642.353)" fill="#263238"/>
                          <path id="Trazado_97659" data-name="Trazado 97659" d="M268.153,632.61c4.461-.875,9.933-.24,13.377,2.912.134.122-.042.31-.187.266a62.8,62.8,0,0,0-13.167-2.613A.286.286,0,0,1,268.153,632.61Z" transform="translate(-243.036 -632.251)" fill="#263238"/>
                          <path id="Trazado_97660" data-name="Trazado 97660" d="M263.422,635.521c4.461-.876,9.933-.241,13.377,2.911.133.123-.043.311-.187.266a62.874,62.874,0,0,0-13.167-2.613A.286.286,0,0,1,263.422,635.521Z" transform="translate(-241.512 -633.188)" fill="#263238"/>
                          <path id="Trazado_97661" data-name="Trazado 97661" d="M258.691,638.433c4.462-.876,9.933-.241,13.378,2.911.134.123-.041.31-.187.266A62.86,62.86,0,0,0,258.714,639,.286.286,0,0,1,258.691,638.433Z" transform="translate(-239.988 -634.126)" fill="#263238"/>
                        </g>
                      </g>
                    </g>
                  </g>
                  <g id="Grupo_46957" data-name="Grupo 46957" transform="translate(7.808)">
                    <path id="Trazado_97662" data-name="Trazado 97662" d="M240.361,280.847s.948,19.673,5.451,35.255c.361,1.288.753,2.555,1.175,3.771a73.1,73.1,0,0,1,11.851,6.091s.474,15.829.948,33.482c.526,19.735,1.072,41.747.959,46.416-.412,17.468,2.184,113.513,2.184,113.513l48.508.2s-8.77-107.258-8.708-113.657c.093-10.285-2.35-55.742-4.235-88.894-1.155-20.425-2.1-36.172-2.1-36.172Z" transform="translate(-240.361 -280.847)" fill="#26aab7"/>
                    <path id="Trazado_97663" data-name="Trazado 97663" d="M276.052,619.832c7.41-.123,5.282-.192,12.693-.232,3.626-.02,27.459-.125,30.844.45a.079.079,0,0,1,0,.151c-3.391.547-27.221.238-30.847.187-7.411-.1-5.282-.154-12.691-.34A.108.108,0,0,1,276.052,619.832Z" transform="translate(-251.821 -389.934)" fill="#26aab7"/>
                    <path id="Trazado_97664" data-name="Trazado 97664" d="M316.834,291.134c.893,27.063,1.839,54.128,3.049,81.179,1.214,27.144,2.851,54.278,5.122,81.355,1.269,15.128,2.465,36.407,4.1,51.5.011.1-.144.138-.157.035-3.532-26.845-5.5-60.04-7.238-87.055s-2.913-54.068-3.835-81.119c-.521-15.3-.919-30.608-1.377-45.912C316.49,290.9,316.827,290.918,316.834,291.134Z" transform="translate(-264.88 -284.104)" fill="#26aab7"/>
                  </g>
                  <g id="Grupo_46958" data-name="Grupo 46958" transform="translate(11.966 37.828)">
                    <path id="Trazado_97665" data-name="Trazado 97665" d="M246.946,336.67a90.069,90.069,0,0,1,13.868,7.264.16.16,0,0,1-.146.285c-4.68-2.274-9.457-4.463-14.006-6.991A.313.313,0,0,1,246.946,336.67Z" transform="translate(-246.495 -336.644)" fill="#263238"/>
                  </g>
                  <path id="Trazado_97666" data-name="Trazado 97666" d="M242.777,304.544c.386,2.08.891,4.138,1.34,6.205.421,1.94.732,3.919,1.244,5.836a9.932,9.932,0,0,0,2.718,4.891c.761.707,1.6,1.333,2.411,1.981.437.349.91.685,1.364,1.038-.059-.275-.106-.554-.157-.837q-.207-1.183-.4-2.367-.441-2.628-.843-5.262c-.527-3.451-1.014-6.938-1.734-10.354a.111.111,0,0,1,.216-.054c.86,3.385,1.809,6.734,2.557,10.148.367,1.675,1.677,9.942,1.736,10.527.06.6.111,1.21.132,1.817a7.21,7.21,0,0,1,0,1.856c-.035.15-.218.126-.281.024l-.009.006a7.3,7.3,0,0,1-.525-1.8c-.152-.59-.285-1.188-.391-1.789-.039-.216-.069-.438-.1-.66-.814-.495-1.572-1.149-2.334-1.7-.821-.594-1.657-1.173-2.432-1.826a9.321,9.321,0,0,1-2.969-4.639,33.747,33.747,0,0,1-.974-5.941c-.263-2.349-.456-4.711-.783-7.051C242.542,304.459,242.751,304.4,242.777,304.544Z" transform="translate(-233.261 -288.452)" fill="#263238"/>
                </g>
              </g>
              <g id="Grupo_46995" data-name="Grupo 46995">
                <g id="Grupo_46974" data-name="Grupo 46974">
                  <g id="Grupo_46973" data-name="Grupo 46973">
                    <path id="Trazado_97667" data-name="Trazado 97667" d="M230.991,194.539c-2.78,22.155-7.637,59.314-15.491,62.32-1.361.521-7.146,1.668-11.1-2.784-6.668-7.506-18.192-32.8-21.413-40.936-1.428-3.608,22.094-15.381,24.108-11.754,2.821,5.079,5.782,12.725,6.344,12.47.938-.425,2.538-9.859,8.822-23.1C230.069,174.292,232.025,186.3,230.991,194.539Z" transform="translate(-98.678 -124.494)" fill="#ad6359"/>
                    <g id="Grupo_46971" data-name="Grupo 46971">
                      <path id="Trazado_97668" data-name="Trazado 97668" d="M172.814,203.449c2.316,4.974,11.032,13.295,13.906,14.493s17.513-13.148,17.14-16.322-9.467-19.318-14.485-21.8S170.415,198.3,172.814,203.449Z" transform="translate(-95.333 -123.552)" fill="#d08b73"/>
                      <g id="Grupo_46961" data-name="Grupo 46961" transform="translate(97.574 48.388)">
                        <path id="Trazado_97669" data-name="Trazado 97669" d="M212.471,194.953a45.5,45.5,0,0,1,1.21-13.177c1.424-5.092,4.113-12.492,1.4-13.36-5.563-1.782-12.263,16.674-12.263,16.674s-1.649,8.618,3.706,10.872A5.77,5.77,0,0,0,212.471,194.953Z" transform="translate(-202.583 -168.295)" fill="#d08b73"/>
                      </g>
                      <g id="Grupo_46968" data-name="Grupo 46968">
                        <g id="Grupo_46963" data-name="Grupo 46963" transform="translate(84.306 48.961)">
                          <g id="Grupo_46962" data-name="Grupo 46962" transform="translate(0 6.62)">
                            <path id="Trazado_97670" data-name="Trazado 97670" d="M191.269,204.258l-8.252-1.455,4.212-23.9,10.443,1.841Z" transform="translate(-183.014 -178.905)" fill="#ffc727"/>
                            <path id="Trazado_97671" data-name="Trazado 97671" d="M197.669,180.746l-2.439,8.97-3.964,14.546-8.253-1.455,4.213-23.9Z" transform="translate(-183.012 -178.905)" fill="#ffc727"/>
                            <path id="Trazado_97672" data-name="Trazado 97672" d="M198.907,180.746l-2.439,8.97-9.611-1.694,1.607-9.117Z" transform="translate(-184.25 -178.905)" opacity="0.1"/>
                          </g>
                          <rect id="Rectángulo_28315" data-name="Rectángulo 28315" width="13.194" height="10.022" transform="translate(3.754 0) rotate(9.996)" fill="#ffc727"/>
                        </g>
                        <g id="Grupo_46966" data-name="Grupo 46966" transform="translate(24.837)">
                          <g id="Grupo_46964" data-name="Grupo 46964" transform="translate(75.281 32.435)">
                            <path id="Trazado_97673" data-name="Trazado 97673" d="M216.607,161.508l-10.271-.77,2.815-15.972,9.915,2.787Z" transform="translate(-206.336 -144.765)" fill="#ffc727"/>
                          </g>
                          <path id="Trazado_97674" data-name="Trazado 97674" d="M173.547,126.188l-4.154,23.571L152.1,148.8l-41.93,7.546,9.977-56.606,36.822,21.432Z" transform="translate(-100.085 -97.83)" fill="#f5ca56"/>
                          <ellipse id="Elipse_3888" data-name="Elipse 3888" cx="28.882" cy="9.284" rx="28.882" ry="9.284" transform="matrix(0.174, -0.985, 0.985, 0.174, 0, 56.888)" fill="#ffc727"/>
                          <ellipse id="Elipse_3889" data-name="Elipse 3889" cx="25.64" cy="7.601" rx="25.64" ry="7.601" transform="matrix(0.174, -0.985, 0.985, 0.174, 1.833, 53.414)" opacity="0.2"/>
                          <path id="Trazado_97675" data-name="Trazado 97675" d="M120.26,138.218c-.327,1.858-.707,3.655-1.13,5.376a5.733,5.733,0,0,1-8.434-6.01l.471-2.67a5.73,5.73,0,0,1,9.943-2.8C120.914,134.081,120.629,136.129,120.26,138.218Z" transform="translate(-100.226 -107.629)" fill="#ffc727"/>
                          <g id="Grupo_46965" data-name="Grupo 46965" transform="translate(58.351 22.467)">
                            <path id="Trazado_97676" data-name="Trazado 97676" d="M201.226,162.439l-19.862-1.49,5.444-30.888,19.175,5.391Z" transform="translate(-181.364 -130.061)" fill="#ffc727"/>
                            <path id="Trazado_97677" data-name="Trazado 97677" d="M201.226,162.439l-19.862-1.49,5.444-30.888,19.175,5.391Z" transform="translate(-181.364 -130.061)" opacity="0.2"/>
                          </g>
                          <path id="Trazado_97678" data-name="Trazado 97678" d="M123.411,106.151a17.938,17.938,0,0,1,2,6.144,40.892,40.892,0,0,1,.51,6.479c.031,1.084-.038,2.167-.068,3.251-.089,1.079-.147,2.162-.263,3.239-.134,1.074-.228,2.155-.394,3.224s-.315,2.143-.506,3.209a71.2,71.2,0,0,1-3.367,12.537,37.032,37.032,0,0,1-2.82,5.858A15.382,15.382,0,0,1,114.2,154.9a15.885,15.885,0,0,0,4.043-4.963,36.983,36.983,0,0,0,2.635-5.869,75.456,75.456,0,0,0,3.205-12.481,77.425,77.425,0,0,0,1.366-12.815,41.1,41.1,0,0,0-.334-6.431A18.68,18.68,0,0,0,123.411,106.151Z" transform="translate(-101.383 -99.894)" opacity="0.2"/>
                        </g>
                        <g id="Grupo_46967" data-name="Grupo 46967" transform="translate(0 1.342)">
                          <path id="Trazado_97679" data-name="Trazado 97679" d="M97.327,98.9c1.178.93,2.3,1.915,3.422,2.907s2.211,2.012,3.3,3.037,2.151,2.075,3.19,3.151l1.557,1.616c.5.557,1.02,1.1,1.507,1.667-.594-.46-1.157-.952-1.737-1.427l-1.687-1.479c-1.124-.987-2.211-2.012-3.3-3.039s-2.15-2.075-3.189-3.152S98.311,100.034,97.327,98.9Z" transform="translate(-71.112 -98.901)" fill="#263238"/>
                          <path id="Trazado_97680" data-name="Trazado 97680" d="M100.165,163.421c-1.637.426-3.286.779-4.938,1.121s-3.308.645-4.967.942c-1.662.281-3.324.56-5,.788l-2.506.339c-.84.088-1.676.2-2.519.268.817-.22,1.641-.4,2.462-.6l2.475-.525c1.649-.349,3.308-.646,4.968-.942,1.662-.28,3.324-.559,5-.786S98.48,163.572,100.165,163.421Z" transform="translate(-65.609 -119.679)" fill="#263238"/>
                          <path id="Trazado_97681" data-name="Trazado 97681" d="M63.834,154.394c2.474-.2,4.95-.316,7.425-.425s4.952-.181,7.43-.245c2.477-.047,4.954-.094,7.432-.087l3.717.012c1.24.029,2.479.035,3.719.083-1.237.1-2.475.165-3.712.249l-3.713.178c-2.476.117-4.952.18-7.429.243-2.477.047-4.955.093-7.432.086S66.315,154.478,63.834,154.394Z" transform="translate(-60.326 -116.528)" fill="#263238"/>
                          <path id="Trazado_97682" data-name="Trazado 97682" d="M76.919,99.629c2.117,1.36,4.191,2.78,6.259,4.209s4.112,2.888,6.153,4.355,4.062,2.959,6.061,4.482l3,2.286c.984.782,1.983,1.545,2.956,2.344-1.063-.674-2.1-1.384-3.151-2.075L95.087,113.1c-2.072-1.423-4.113-2.889-6.153-4.356s-4.061-2.959-6.06-4.483S78.872,101.215,76.919,99.629Z" transform="translate(-64.54 -99.135)" fill="#263238"/>
                          <path id="Trazado_97683" data-name="Trazado 97683" d="M92.884,136.644c-2.878-.4-5.742-.865-8.6-1.345s-5.714-1.016-8.571-1.522c-2.847-.559-5.7-1.09-8.542-1.676l-4.261-.893c-1.416-.322-2.835-.621-4.247-.963,1.44.191,2.872.425,4.309.637l4.295.706c2.862.481,5.714,1.016,8.571,1.523,2.847.561,5.7,1.089,8.542,1.678S90.058,135.973,92.884,136.644Z" transform="translate(-58.659 -108.995)" fill="#263238"/>
                        </g>
                      </g>
                      <g id="Grupo_46970" data-name="Grupo 46970" transform="translate(74.201 49.846)">
                        <path id="Trazado_97684" data-name="Trazado 97684" d="M194.9,182.237c-.314,2.89-3.54.866-3.54.866s3.942,4.033,2.466,6.888c-1.43,2.748-5.241.165-5.517-.017.207.216,3.732,4.016,1.954,6.732-1.851,2.821-5.232-.429-5.449-.64.132.264,1.809,3.79-.011,5.546-3.129,3.016-7.668-5.881-11.058-6.826,0,0-2.256,5.563-2.356,5.71,0,0-4.491-8.377-2.962-12.878a3.034,3.034,0,0,1,3.176-2.09s-1.746-2.541-.414-4.723c.687-1.119,3.087-1.014,3.087-1.014a3.8,3.8,0,0,1-.007-3.96c1.038-1.494,3.285-1.157,3.285-1.157s-.329-2.595,1.227-3.776C181.913,168.509,195.565,176.048,194.9,182.237Z" transform="translate(-168.108 -170.445)" fill="#d08b73"/>
                        <g id="Grupo_46969" data-name="Grupo 46969" transform="translate(3.685 4.148)">
                          <path id="Trazado_97685" data-name="Trazado 97685" d="M182.563,176.643a.041.041,0,0,1,.025-.078,27.05,27.05,0,0,1,13.6,8.6c.11.136-.063.372-.212.246A55.4,55.4,0,0,0,182.563,176.643Z" transform="translate(-176.439 -176.563)" fill="#263238"/>
                          <path id="Trazado_97686" data-name="Trazado 97686" d="M177.116,184.087c-.056-.024-.015-.117.047-.1a25.338,25.338,0,0,1,14.256,10.3c.113.179.035.452-.111.256C188.862,191.242,181.72,186.137,177.116,184.087Z" transform="translate(-174.685 -178.953)" fill="#263238"/>
                          <path id="Trazado_97687" data-name="Trazado 97687" d="M186.666,203.642c-3.341-4.881-7.91-8.2-13.093-10.934-.067-.036-.01-.127.054-.113,2.9.647,6.022,2.734,8.314,4.563a15.6,15.6,0,0,1,4.9,6.367C186.878,203.625,186.737,203.745,186.666,203.642Z" transform="translate(-173.543 -181.726)" fill="#263238"/>
                        </g>
                        <path id="Trazado_97688" data-name="Trazado 97688" d="M194.134,189.107c.131.163-.252.176-.125.342.529.7,3.355,5.2,2.121,6.642-.993,1.15-3.226.616-4,.074L190.17,194.8l1.363,1.961a9.73,9.73,0,0,1,1.384,2.84,3.486,3.486,0,0,1-.212,2.844,1.993,1.993,0,0,1-2.325.94,6.032,6.032,0,0,1-2.544-1.629l-1.99-2,1.219,2.534a9.131,9.131,0,0,1,.74,2.218,3.77,3.77,0,0,1-.129,2.175,1.8,1.8,0,0,1-1.54,1.1,3.969,3.969,0,0,1-2.074-.8,31.218,31.218,0,0,1-3.7-3.2c-.6-.567-1.2-1.138-1.836-1.679a5.9,5.9,0,0,0-2.106-1.306,6.371,6.371,0,0,1,1.952,1.474c.581.582,1.136,1.193,1.692,1.8a26.642,26.642,0,0,0,3.612,3.47,4.634,4.634,0,0,0,2.456,1.033,2.545,2.545,0,0,0,2.334-1.534,4.618,4.618,0,0,0,.233-2.694,10.083,10.083,0,0,0-.788-2.483l-.77.529a6.921,6.921,0,0,0,2.985,1.955,2.887,2.887,0,0,0,1.952-.106,3.26,3.26,0,0,0,1.439-1.289,4.4,4.4,0,0,0,.269-3.6,10.583,10.583,0,0,0-1.572-3.1l-.593.6c1.012.656,3.444,1.526,5.207-.065C198.817,194.367,194.907,189.877,194.134,189.107Z" transform="translate(-170.785 -176.455)" fill="#263238"/>
                        <path id="Trazado_97689" data-name="Trazado 97689" d="M202.4,187.415a5.848,5.848,0,0,0,1.744.377,1.349,1.349,0,0,0,1.235-.59,2.751,2.751,0,0,0,.256-1.54c-.042-.584-.116-1.2-.218-1.825a4.638,4.638,0,0,1,.845,1.727,2.719,2.719,0,0,1-.2,2.072,1.934,1.934,0,0,1-.9.725,2.012,2.012,0,0,1-1.095.06A3.129,3.129,0,0,1,202.4,187.415Z" transform="translate(-179.152 -174.758)" fill="#263238"/>
                      </g>
                    </g>
                    <g id="Grupo_46972" data-name="Grupo 46972" transform="translate(82.467 56.714)">
                      <path id="Trazado_97690" data-name="Trazado 97690" d="M180.3,220.492l25.714-20.68s6.235,12.88,6.6,12.828,4.445-17.144,11.209-27.791,8.4.906,6.961,9.7-8.206,57.479-14.288,61.942-11.8-1.123-14.257-3.495C198.849,249.727,180.3,220.492,180.3,220.492Z" transform="translate(-180.299 -180.577)" fill="#00223d"/>
                      <path id="Trazado_97691" data-name="Trazado 97691" d="M187.589,235.022c.8-.826,8.888-7.127,10.673-8.458s3.575-2.66,5.365-3.986c1.849-1.37,3.668-2.857,5.622-4.076a.081.081,0,0,1,.1.126c-1.691,1.561-3.6,2.919-5.414,4.338q-2.679,2.1-5.363,4.2c-1.791,1.393-9.923,7.448-10.9,7.99C187.584,235.2,187.534,235.078,187.589,235.022Z" transform="translate(-182.639 -192.786)" fill="#fff"/>
                      <path id="Trazado_97692" data-name="Trazado 97692" d="M227.964,227.871c.712,1.518,1.331,3.075,1.925,4.639s1.136,3.149,1.645,4.744c.492,1.6.969,3.207,1.353,4.839a43.49,43.49,0,0,1,.932,4.94c-.25-.8-.455-1.61-.714-2.406-.224-.8-.475-1.6-.721-2.4l-1.5-4.774-1.49-4.78-.736-2.4C228.436,229.477,228.183,228.681,227.964,227.871Z" transform="translate(-195.649 -195.808)" fill="#fff"/>
                    </g>
                  </g>
                </g>
                <g id="Grupo_46975" data-name="Grupo 46975" transform="translate(114.781 52.506)">
                  <path id="Trazado_97693" data-name="Trazado 97693" d="M228.085,263.684c1.113,1.1,69.48-2.514,69.81-2.957.9-1.205-23.554-73.969-39.582-85.481-3.447-2.476-12.7.84-15.081,3.226-1.492,1.5-4.74,10.954-6.864,18.775C232.117,212.9,227.116,262.715,228.085,263.684Z" transform="translate(-227.963 -174.37)" fill="#fff"/>
                </g>
                <g id="Grupo_46989" data-name="Grupo 46989" transform="translate(115.437 7.574)">
                  <path id="Trazado_97694" data-name="Trazado 97694" d="M251.308,174.915c-2.708,2.011-4.791,12.412,1.409,13.821s11.949-8.384,12.794-11.547S257.169,170.563,251.308,174.915Z" transform="translate(-235.287 -128.954)" fill="#ffc727"/>
                  <g id="Grupo_46988" data-name="Grupo 46988">
                    <g id="Grupo_46977" data-name="Grupo 46977" transform="translate(11.224 32.038)">
                      <g id="Grupo_46976" data-name="Grupo 46976" transform="translate(0.004)">
                        <path id="Trazado_97695" data-name="Trazado 97695" d="M252.14,181.671c3.845.494,9.683-5.915,11.739-10.828.139-.338-.7-3.644-1.533-7.71-.495-2.469-.987-5.23-1.255-7.783l-15.6,5.568a40.9,40.9,0,0,1,2.574,9.636,5.813,5.813,0,0,1,0,1.059c0,.049-.008.108-.005.176C247.947,173.814,248.425,181.192,252.14,181.671Z" transform="translate(-245.493 -155.351)" fill="#d08b73"/>
                      </g>
                      <path id="Trazado_97696" data-name="Trazado 97696" d="M260.351,155.742c-.164,3.239-1.393,14.91-10.639,16.091a11.166,11.166,0,0,1-1.65.086.648.648,0,0,1,.007-.18,5.971,5.971,0,0,0,0-1.056,41.106,41.106,0,0,0-2.582-9.638Z" transform="translate(-245.487 -155.477)" fill="#263238"/>
                    </g>
                    <g id="Grupo_46987" data-name="Grupo 46987">
                      <g id="Grupo_46978" data-name="Grupo 46978" transform="translate(1.291 4.94)">
                        <path id="Trazado_97697" data-name="Trazado 97697" d="M256.632,123.354c2.275,5.515.839,22.212-2.854,26.256-5.352,5.862-14.894,7.283-20.072.671-5.019-6.409-2.761-28.135,1.435-31.89C241.323,112.86,253.272,115.206,256.632,123.354Z" transform="translate(-230.835 -115.381)" fill="#d08b73"/>
                      </g>
                      <path id="Trazado_97698" data-name="Trazado 97698" d="M265.254,165.573s0-.006,0-.006" transform="translate(-240.629 -126.603)" fill="none" stroke="#f4a69d" stroke-linecap="round" stroke-linejoin="round" stroke-width="0"/>
                      <g id="Grupo_46984" data-name="Grupo 46984" transform="translate(2.815 18.739)">
                        <g id="Grupo_46979" data-name="Grupo 46979" transform="translate(9.377 4.614)">
                          <path id="Trazado_97699" data-name="Trazado 97699" d="M247.07,144.148c.013-.042.084.06.079.106-.127,1.122-.083,2.428.9,2.885.031.014.022.071-.015.062C246.81,146.926,246.77,145.191,247.07,144.148Z" transform="translate(-246.915 -143.055)" fill="#263238"/>
                          <path id="Trazado_97700" data-name="Trazado 97700" d="M248.195,142.54c1.82.009,1.668,3.65-.019,3.641C246.516,146.172,246.669,142.532,248.195,142.54Z" transform="translate(-246.939 -142.54)" fill="#263238"/>
                        </g>
                        <g id="Grupo_46980" data-name="Grupo 46980" transform="translate(0.727 4.247)">
                          <path id="Trazado_97701" data-name="Trazado 97701" d="M237.183,143.807c-.007-.043-.09.049-.091.1-.012,1.129-.215,2.42-1.251,2.753-.032.01-.031.067.007.063C237.1,146.6,237.353,144.878,237.183,143.807Z" transform="translate(-234.691 -142.577)" fill="#263238"/>
                          <path id="Trazado_97702" data-name="Trazado 97702" d="M235.69,142.008c-1.808-.214-2.1,3.418-.428,3.616C236.911,145.819,237.206,142.187,235.69,142.008Z" transform="translate(-234.156 -141.999)" fill="#263238"/>
                        </g>
                        <path id="Trazado_97703" data-name="Trazado 97703" d="M249.664,138.92a14.293,14.293,0,0,1-1.389-.556,2.416,2.416,0,0,1-1.308-.837.772.772,0,0,1,.163-.927,1.913,1.913,0,0,1,1.933-.116,2.81,2.81,0,0,1,1.565,1.281A.822.822,0,0,1,249.664,138.92Z" transform="translate(-237.525 -135.91)" fill="#263238"/>
                        <path id="Trazado_97704" data-name="Trazado 97704" d="M234.013,138.1a14.108,14.108,0,0,0,1.463-.315,2.416,2.416,0,0,0,1.431-.605.77.77,0,0,0-.005-.941,1.91,1.91,0,0,0-1.885-.439,2.808,2.808,0,0,0-1.758,1A.822.822,0,0,0,234.013,138.1Z" transform="translate(-233.083 -135.734)" fill="#263238"/>
                        <path id="Trazado_97705" data-name="Trazado 97705" d="M248.212,159.718c-.281.253-.565.605-.976.622a2.986,2.986,0,0,1-1.2-.334.039.039,0,0,0-.051.056,1.519,1.519,0,0,0,1.405.673,1.2,1.2,0,0,0,.929-.961C248.339,159.709,248.253,159.682,248.212,159.718Z" transform="translate(-237.236 -143.453)" fill="#263238"/>
                        <g id="Grupo_46982" data-name="Grupo 46982" transform="translate(3.437 0.396)">
                          <g id="Grupo_46981" data-name="Grupo 46981">
                            <path id="Trazado_97706" data-name="Trazado 97706" d="M244.648,148.761a3.844,3.844,0,0,1-2.635,1.6,4.832,4.832,0,0,1-1.384.005,1.4,1.4,0,0,1-.262-.041c-.082-.014-.156-.026-.245-.049a.28.28,0,0,1-.216-.262v-.008a.511.511,0,0,1,.015-.115v-.008l.006-.1c.013-.869.153-2.186.153-2.186-.324.146-1.972.805-1.927.353a57.843,57.843,0,0,1,1.977-11.559.1.1,0,0,1,.2.037c-.224,3.615-1.083,7.166-1.366,10.793a6.751,6.751,0,0,1,1.835-.474c.122.041-.315,2.54-.289,2.931a.137.137,0,0,0,.005.042,5.326,5.326,0,0,0,4.026-1.068C244.633,148.6,244.72,148.674,244.648,148.761Z" transform="translate(-238.153 -136.318)" fill="#263238"/>
                          </g>
                        </g>
                        <g id="Grupo_46983" data-name="Grupo 46983" transform="translate(6.561 12.725)">
                          <path id="Trazado_97707" data-name="Trazado 97707" d="M242.76,156.008a4.524,4.524,0,0,0,1.872,1.319,2.035,2.035,0,0,0,1.237.02c.881-.275.866-1.1.671-1.788a4.877,4.877,0,0,0-.449-1.055A5.855,5.855,0,0,1,242.76,156.008Z" transform="translate(-242.76 -154.504)" fill="#263238"/>
                          <path id="Trazado_97708" data-name="Trazado 97708" d="M245.521,157.828a2.035,2.035,0,0,0,1.237.02c.881-.275.866-1.1.671-1.788A2.1,2.1,0,0,0,245.521,157.828Z" transform="translate(-243.649 -155.005)" fill="#f392b9"/>
                        </g>
                      </g>
                      <path id="Trazado_97709" data-name="Trazado 97709" d="M257.646,134.85c.408-1.458,4.173-17.173,3.758-18.886-.378-1.56-2.084-.922-2.11-1.011s-.077-1.511-.958-2.043a2.386,2.386,0,0,0-1.906.035s-.268-1.5-1.212-1.905a1.9,1.9,0,0,0-1.842.4,2.508,2.508,0,0,0-1.506-1.787,1.629,1.629,0,0,0-1.82.692s-.4-1.43-1.384-1.706-1.832.78-1.832.78A2.158,2.158,0,0,0,245.1,108.1a1.884,1.884,0,0,0-1.658,1.289,2.569,2.569,0,0,0-1.83-1.292c-1.122-.033-1.51,1.365-1.51,1.365s-.458-1.247-1.514-1.165-1.305,1.559-1.305,1.559-.593-1.372-1.834-.969c-1.906.618-2.146,9.731-2.581,13.69,0,0,.534-1.894,1.342-1.963s1.415,1.218,2.923,1.552c2.149.475,5.727-2.047,8.689-1.414,2.879.616,5.013,3.64,6.051,8.163C253.043,134.008,256.677,138.311,257.646,134.85Z" transform="translate(-230.199 -108.094)" fill="#263238"/>
                      <g id="Grupo_46985" data-name="Grupo 46985" transform="translate(0 20.252)">
                        <path id="Trazado_97710" data-name="Trazado 97710" d="M246.36,148a4.653,4.653,0,0,1-3.746-5.4h0a4.646,4.646,0,1,1,3.746,5.4Zm-3.136-5.289a4.025,4.025,0,1,0,3.678-3.3A4.032,4.032,0,0,0,243.225,142.708Z" transform="translate(-233.314 -138.227)" fill="#ffc727"/>
                        <path id="Trazado_97711" data-name="Trazado 97711" d="M232.177,147.252c-1.9-.089-3.358-2.243-3.239-4.8a5.551,5.551,0,0,1,1.13-3.2,2.895,2.895,0,0,1,4.95.23,5.539,5.539,0,0,1,.83,3.29c-.112,2.422-1.592,4.352-3.366,4.478A2.7,2.7,0,0,1,232.177,147.252Zm-1.623-7.613a4.929,4.929,0,0,0-1,2.841c-.1,2.217,1.086,4.08,2.649,4.152s2.919-1.672,3.022-3.889a4.935,4.935,0,0,0-.729-2.921,2.478,2.478,0,0,0-1.921-1.232,1.947,1.947,0,0,0-.236,0A2.559,2.559,0,0,0,230.554,139.639Z" transform="translate(-228.931 -137.966)" fill="#ffc727"/>
                        <path id="Trazado_97712" data-name="Trazado 97712" d="M241.4,144.57l.421-.457c-.677-.624-2.268-1.494-3.457-.334l.433.445C239.862,143.182,241.338,144.513,241.4,144.57Z" transform="translate(-231.969 -139.655)" fill="#ffc727"/>
                        <path id="Trazado_97713" data-name="Trazado 97713" d="M267.551,146.861l.565-.259c-.121-.263-1.222-2.58-2.6-2.869-1.285-.267-9.639.127-9.994.144l.03.62c2.395-.116,8.843-.366,9.836-.157C266.3,144.532,267.258,146.225,267.551,146.861Z" transform="translate(-237.495 -139.794)" fill="#ffc727"/>
                      </g>
                      <g id="Grupo_46986" data-name="Grupo 46986" transform="translate(23.145 21.576)">
                        <path id="Trazado_97714" data-name="Trazado 97714" d="M263.674,144.524s3.318-5.594,5.83-4.45.295,9.06-2.458,10.327a2.888,2.888,0,0,1-3.975-1.258Z" transform="translate(-263.071 -139.919)" fill="#d08b73"/>
                        <path id="Trazado_97715" data-name="Trazado 97715" d="M269.553,143.47c.045-.007.059.056.02.075-1.925.953-2.833,2.872-3.422,4.837a1.6,1.6,0,0,1,2.347-.613c.054.033.011.117-.046.11a1.777,1.777,0,0,0-1.9.765,8.6,8.6,0,0,0-.815,1.647c-.08.185-.407.114-.355-.1l.013-.047C265.151,147.62,266.853,143.929,269.553,143.47Z" transform="translate(-263.811 -141.063)" fill="#263238"/>
                      </g>
                    </g>
                  </g>
                </g>
                <g id="Grupo_46994" data-name="Grupo 46994" transform="translate(145.173 54.486)">
                  <g id="Grupo_46993" data-name="Grupo 46993">
                    <g id="Grupo_46992" data-name="Grupo 46992" transform="translate(2.431 1.482)">
                      <path id="Trazado_97716" data-name="Trazado 97716" d="M283.563,181.648c22.125,15.213,38.093,39.066,39.63,44.1,3.719,12.194,9.275,33.694,10.131,43.349.317,3.57-27.195,2.9-27.653-.9-1.435-11.914-6.559-37.838-6.69-38.284-.917-3.135-8.721-16.715-16.753-31.49S274.251,175.245,283.563,181.648Z" transform="translate(-276.379 -179.476)" fill="#ad6359"/>
                      <g id="Grupo_46991" data-name="Grupo 46991" transform="translate(24.709 88.702)">
                        <path id="Trazado_97717" data-name="Trazado 97717" d="M319.6,347.96a4.269,4.269,0,0,0,4.632-1.518,6.333,6.333,0,0,0,3.7,2.209c2.582.376,4.3-3.508,4.3-3.508a7.806,7.806,0,0,0,4.271,1.708c2.507.111,4.8-3.561,4.8-3.561a6.922,6.922,0,0,0,4.7-.864c2.378-1.535,3.552-9.119,3.512-13.389s-4.153-16.344-4.7-18.724l-27.406.022s-5.268,19.2-4.508,24.212C313.54,338.771,316.445,346.884,319.6,347.96Z" transform="translate(-312.825 -310.314)" fill="#d08b73"/>
                        <g id="Grupo_46990" data-name="Grupo 46990" transform="translate(8.18 20.688)">
                          <path id="Trazado_97718" data-name="Trazado 97718" d="M327.677,356.862c-1.758-4.327-2.141-8.939-2.785-13.521a.08.08,0,0,1,.159-.02c.588,4.564,2.073,8.952,2.841,13.482A.112.112,0,0,1,327.677,356.862Z" transform="translate(-324.891 -341.61)" fill="#263238"/>
                          <path id="Trazado_97719" data-name="Trazado 97719" d="M340.463,355.2a12.141,12.141,0,0,1-.5-3.144q-.153-1.686-.247-3.376c-.128-2.256-.2-4.515-.215-6.773,0-.1.153-.126.159-.021.132,2.248.3,4.493.523,6.734q.169,1.681.366,3.36a14.519,14.519,0,0,1,.222,3.18A.161.161,0,0,1,340.463,355.2Z" transform="translate(-329.595 -341.148)" fill="#263238"/>
                          <path id="Trazado_97720" data-name="Trazado 97720" d="M354.444,353.023a8.473,8.473,0,0,1-.3-2.855q-.056-1.543-.128-3.085c-.1-2.057-.195-4.113-.363-6.165-.008-.1.15-.124.159-.021.182,2.084.392,4.165.555,6.251q.121,1.536.224,3.073a7.947,7.947,0,0,1-.041,2.8A.057.057,0,0,1,354.444,353.023Z" transform="translate(-334.153 -340.83)" fill="#263238"/>
                        </g>
                      </g>
                    </g>
                    <path id="Trazado_97721" data-name="Trazado 97721" d="M303.207,267.8l30.068-2.426s-6.624-32.387-10.215-41.141-21.485-30.346-40.141-43.14c-12.691-8.7-11.912-1.26-6.047,10.27s19.668,37.9,20.318,39.987S303.207,267.8,303.207,267.8Z" transform="translate(-272.792 -177.29)" fill="#00223d"/>
                    <path id="Trazado_97722" data-name="Trazado 97722" d="M318.4,300.589c1.125-.261,11.329-1.2,13.55-1.357s4.445-.308,6.668-.459c2.3-.155,4.63-.424,6.932-.4a.08.08,0,0,1,.016.16c-2.266.4-4.609.511-6.9.729q-3.389.322-6.78.636c-2.26.206-12.373.913-13.493.839C318.3,300.734,318.324,300.606,318.4,300.589Z" transform="translate(-287.459 -216.284)" fill="#fff"/>
                  </g>
                </g>
              </g>
            </g>
          </g>
        </g>
      </g>
    </g>
  </g>
</svg>
