<svg xmlns="http://www.w3.org/2000/svg" xmlns:xlink="http://www.w3.org/1999/xlink" width="188.036" height="161.749" viewBox="0 0 188.036 161.749">
  <defs>
    <linearGradient id="linear-gradient" x1="0.5" x2="0.5" y2="1" gradientUnits="objectBoundingBox">
      <stop offset="0" stop-color="#fff"/>
      <stop offset="1" stop-color="#d2e6ee"/>
    </linearGradient>
  </defs>
  <g id="Grupo_46132" data-name="Grupo 46132" transform="translate(-103.362 -31.307)">
    <g id="Grupo_46099" data-name="Grupo 46099" transform="translate(122.005 87.414)">
      <path id="Trazado_96006" data-name="Trazado 96006" d="M114.488,56.079l2.446,3.3c-.659.991,4.438-5.251,4.438-5.251l1.792.787-3.324,5.637a2.16,2.16,0,0,1-3.58.14l-3.594-.113L110.945,57.1C111.427,57.48,114.19,55.523,114.488,56.079Z" transform="translate(-110.945 -54.129)" fill="#00223d" fill-rule="evenodd"/>
      <path id="Trazado_96007" data-name="Trazado 96007" d="M112.476,55.664l-.025,4.307A7.709,7.709,0,0,1,112.476,55.664Z" transform="translate(-109.204 -51.89)" fill="#191e7f" fill-rule="evenodd"/>
    </g>
    <path id="Trazado_96013" data-name="Trazado 96013" d="M153.849,33.871l.732,3.939,5.67-1.054L148.573,48.214l-6.348-6.467L126.837,57.74l2.887,2.778L142.254,47.5l6.266,6.384L163.9,38.79l.219,6.014,4-.146-.486-13.352Z" transform="translate(34.239 0)" fill="#f6c343"/>
    <g id="Grupo_46108" data-name="Grupo 46108" transform="translate(254.157 68.459)">
      <g id="Grupo_46103" data-name="Grupo 46103" transform="translate(0 16.147)">
        <g id="Grupo_46101" data-name="Grupo 46101">
          <path id="Trazado_96014" data-name="Trazado 96014" d="M186.643,63.863c.615-.29,1.158-.551,1.635-.784l-.428-1.539c-.152-.509-.3-1.023-.44-1.537-.534.059-1.128.123-1.807.2l-1.362.155a8.644,8.644,0,0,0-1.731-2.122l.447-1.325c.224-.639.416-1.21.595-1.716-.467-.258-.934-.516-1.4-.767s-.944-.514-1.411-.774c-.329.425-.7.892-1.119,1.431l-.88,1.119a8.725,8.725,0,0,0-2.385-.28l-.58-1.281c-.28-.617-.524-1.163-.75-1.655-.516.133-1.033.268-1.546.4s-1.033.268-1.546.4c.049.538.093,1.136.16,1.809l.123,1.4a8.994,8.994,0,0,0-1.952,1.416l-1.256-.524c-.629-.266-1.18-.494-1.684-.7-.283.452-.565.907-.848,1.35l-.848,1.36c.4.356.848.762,1.345,1.212l1,.89a8.937,8.937,0,0,0-.479,3.2l-1.158.551c-.615.29-1.158.551-1.64.774.143.514.288,1.028.44,1.537l.428,1.539c.536-.059,1.138-.125,1.812-.189l1.237-.133a8.867,8.867,0,0,0,1.819,2.309l-.393,1.114c-.224.637-.416,1.207-.595,1.714.467.258.932.509,1.4.767s.937.516,1.409.765c.332-.415.711-.885,1.124-1.411l.74-.932a8.609,8.609,0,0,0,2.6.315l.479,1.074c.27.622.521,1.165.738,1.65.516-.135,1.03-.268,1.546-.4s1.03-.268,1.546-.4c-.047-.529-.093-1.126-.148-1.8l-.1-1.2a9.113,9.113,0,0,0,2.095-1.564l1.119.46c.629.258,1.178.484,1.679.683.285-.443.568-.9.851-1.35s.565-.9.848-1.35c-.4-.356-.848-.762-1.355-1.21l-.956-.841a8.726,8.726,0,0,0,.411-3.228Zm-8.735,6.4a5.64,5.64,0,1,1,4.042-6.876A5.643,5.643,0,0,1,177.908,70.268Z" transform="translate(-164.698 -52.987)" fill="#f6c343"/>
        </g>
        <g id="Grupo_46102" data-name="Grupo 46102" transform="translate(4.886 4.896)">
          <path id="Trazado_96015" data-name="Trazado 96015" d="M172.587,68.733a6.914,6.914,0,1,1,7.852-5.827A6.924,6.924,0,0,1,172.587,68.733ZM174.446,56.2a5.759,5.759,0,1,0,4.851,6.54A5.766,5.766,0,0,0,174.446,56.2Z" transform="translate(-166.685 -54.978)" fill="#00223d"/>
        </g>
      </g>
      <g id="Grupo_46105" data-name="Grupo 46105" transform="translate(6.758)">
        <path id="Trazado_96016" data-name="Trazado 96016" d="M181.655,51.983c.347-.293.649-.553.92-.787-.182-.3-.361-.61-.541-.917s-.366-.607-.546-.915c-.334.13-.706.273-1.131.44l-.848.332a5.822,5.822,0,0,0-1.478-1.069l.059-.932c.034-.447.061-.848.089-1.2-.344-.086-.691-.172-1.033-.253s-.7-.17-1.04-.258c-.14.332-.3.7-.475,1.114l-.376.87a5.756,5.756,0,0,0-1.581.229l-.595-.725c-.285-.349-.536-.659-.767-.937l-.927.524-.924.524c.123.337.253.713.411,1.136l.32.88a6.062,6.062,0,0,0-1.015,1.246l-.9-.123c-.45-.064-.843-.116-1.2-.165-.1.342-.206.681-.315,1.015s-.209.681-.312,1.02q.479.24,1.072.551l.8.4a5.877,5.877,0,0,0,.238,2.139l-.651.553c-.347.293-.652.553-.922.782.18.3.359.61.546.912s.359.612.538.917c.334-.128.713-.275,1.133-.433l.774-.3a5.951,5.951,0,0,0,1.566,1.173l-.061.784c-.034.45-.061.848-.089,1.2.344.086.686.167,1.033.256s.688.172,1.037.251c.143-.327.3-.693.482-1.1l.315-.728a5.693,5.693,0,0,0,1.728-.243l.494.61c.28.354.536.661.757.937l.927-.524.927-.524c-.12-.332-.253-.708-.406-1.133l-.27-.757a6.165,6.165,0,0,0,1.079-1.367l.8.1c.447.059.841.111,1.2.155.108-.334.211-.676.317-1.015s.211-.676.315-1.015c-.32-.16-.676-.344-1.079-.546l-.76-.379A5.808,5.808,0,0,0,181,52.546ZM177.129,57.6a3.757,3.757,0,1,1,1.424-5.119A3.756,3.756,0,0,1,177.129,57.6Z" transform="translate(-167.447 -46.419)" fill="#00223d"/>
        <g id="Grupo_46104" data-name="Grupo 46104" transform="translate(3.231 3.294)">
          <path id="Trazado_96017" data-name="Trazado 96017" d="M173.887,56.944a4.607,4.607,0,1,1,4.059-5.1A4.614,4.614,0,0,1,173.887,56.944Zm-.951-8.391a3.838,3.838,0,1,0,4.246,3.38A3.844,3.844,0,0,0,172.936,48.553Z" transform="translate(-168.761 -47.759)" fill="#f6c343"/>
        </g>
      </g>
      <g id="Grupo_46107" data-name="Grupo 46107" transform="translate(21.234 9.153)">
        <path id="Trazado_96018" data-name="Trazado 96018" d="M188.054,56.224q.561-.42,1-.752c-.167-.327-.332-.654-.5-.981s-.339-.649-.506-.976c-.352.113-.745.236-1.192.381l-.9.29a5.977,5.977,0,0,0-1.458-1.195l.12-.956c.064-.46.116-.873.167-1.239-.352-.111-.7-.221-1.05-.325s-.708-.219-1.057-.329c-.165.332-.349.7-.561,1.119l-.44.875a6,6,0,0,0-1.647.135l-.568-.784c-.273-.379-.511-.713-.73-1.015l-.988.482c-.329.162-.659.322-.988.482.106.356.219.755.354,1.2l.273.927a6.215,6.215,0,0,0-1.124,1.222l-.919-.182c-.46-.093-.86-.172-1.229-.243-.13.344-.258.688-.391,1.028l-.383,1.033c.32.184.674.4,1.072.634l.8.462a6.17,6.17,0,0,0,.113,2.222l-.706.531c-.376.278-.706.529-1,.745.167.327.334.654.506.978s.332.652.5.978c.354-.113.752-.241,1.2-.376l.816-.258a6.131,6.131,0,0,0,1.542,1.31l-.111.8c-.064.46-.116.87-.167,1.237.349.113.7.216,1.047.327s.7.221,1.055.325c.167-.327.359-.7.565-1.106l.371-.73a5.938,5.938,0,0,0,1.8-.143l.47.659c.268.381.511.715.723,1.013q.494-.243.988-.482c.329-.162.659-.322.988-.482-.1-.352-.216-.747-.347-1.2l-.234-.8a6.327,6.327,0,0,0,1.2-1.342l.819.157c.457.089.86.167,1.227.234.13-.339.258-.683.388-1.028s.261-.683.388-1.028c-.32-.184-.676-.4-1.079-.632L187.5,59a5.937,5.937,0,0,0-.162-2.235Zm-5.018,5.514a3.883,3.883,0,1,1,1.787-5.192A3.884,3.884,0,0,1,183.036,61.739Z" transform="translate(-173.335 -50.142)" fill="#00223d"/>
        <g id="Grupo_46106" data-name="Grupo 46106" transform="translate(3.243 3.337)">
          <path id="Trazado_96019" data-name="Trazado 96019" d="M179.664,61.013a4.76,4.76,0,1,1,4.5-5A4.764,4.764,0,0,1,179.664,61.013ZM179.2,52.3a3.965,3.965,0,1,0,4.167,3.752A3.97,3.97,0,0,0,179.2,52.3Z" transform="translate(-174.654 -51.499)" fill="#f6c343"/>
        </g>
      </g>
    </g>
    <g id="Grupo_46109" data-name="Grupo 46109" transform="translate(126.627 55.522)">
      <path id="Trazado_96020" data-name="Trazado 96020" d="M135.222,42.319c26.635,18.731,59.892,38.161,91.872,42.1,0,0,4.192,5.355-.278,22.2C222.361,123.413,217,126.41,217,126.41c-30.274-11.034-68.728-8.848-100.968-4.275Z" transform="translate(-108.153 -39.461)" fill="#00223d" fill-rule="evenodd"/>
      <path id="Trazado_96021" data-name="Trazado 96021" d="M134.964,41.19l3.884.934c6.023,1.448,6.4,21.426.809,44.674-5.578,23.189-15.009,40.868-21.033,39.42l-3.882-.934c6.021,1.448,15.454-16.231,21.03-39.42,5.591-23.248,5.215-43.225-.809-44.674Z" transform="translate(-110.027 -41.108)" fill="#bfb9b9" fill-rule="evenodd"/>
      <path id="Trazado_96022" data-name="Trazado 96022" d="M116.788,80.673c5.591-23.248,15.007-40.87,20.974-39.434,6.023,1.448,6.4,21.426.809,44.674-5.576,23.189-15.009,40.868-21.03,39.42-5.967-1.436-6.331-21.468-.752-44.659Zm2.363.568c4.725-19.643,12.383-34.653,17.055-33.529,4.728,1.136,4.669,17.974-.054,37.618S123.825,120,119.1,118.859c-4.671-1.124-4.669-17.972.054-37.618Z" transform="translate(-112.825 -41.157)" fill="#bfb9b9" fill-rule="evenodd"/>
      <path id="Trazado_96023" data-name="Trazado 96023" d="M117.5,77.387c4.725-19.643,12.383-34.653,17.055-33.529,4.728,1.136,4.669,17.974-.054,37.618S122.178,116.143,117.45,115c-4.671-1.124-4.669-17.972.054-37.618Z" transform="translate(-111.178 -37.303)" fill="#dbdada" fill-rule="evenodd"/>
      <path id="Trazado_96024" data-name="Trazado 96024" d="M116.66,78.253q1.482-6.166,2.965-12.327c1-4.165,1.989-8.275,2.99-12.44,1.642-.14,3.452-.241,5.389-.371l5.458-.415a137.173,137.173,0,0,1-2.9,15.8,140.843,140.843,0,0,1-4.649,15.614l-4.7-2.977c-1.652-1.052-3.149-2.006-4.546-2.879Z" transform="translate(-107.231 -24.322)" fill="#00223d" fill-rule="evenodd"/>
      <path id="Trazado_96025" data-name="Trazado 96025" d="M117.4,64.7c1.637-6.81,4.27-12.071,5.959-11.666,1.632.393,1.645,6.289,0,13.1S119.035,78.19,117.4,77.8c-1.689-.406-1.645-6.291,0-13.1Z" transform="translate(-107.973 -23.868)" fill="#0c2c46" fill-rule="evenodd"/>
      <path id="Trazado_96026" data-name="Trazado 96026" d="M167.71,59.449a14.07,14.07,0,0,1,1.546.251C179.221,62.1,185,73.49,182.193,85.14s-13.126,19.171-23.088,16.777a16.988,16.988,0,0,1-2.323-.738c.28.066.492.177.774.246,0,0,5.364-3,9.819-19.789,4.278-16.3.548-21.839.334-22.188Z" transform="translate(-48.713 -14.477)" fill="#dbdada" fill-rule="evenodd"/>
      <path id="Trazado_96027" data-name="Trazado 96027" d="M139.045,69.129l46.943,11.289c1.239.3.565,5.077-.981,6.313l-48.174-7.417c1.792-2.25,2.98-7.439,2.213-10.186Z" transform="translate(-77.81 -0.359)" fill="#dbdada" fill-rule="evenodd"/>
      <path id="Trazado_96028" data-name="Trazado 96028" d="M150.161,74.492c1.131,10.156-6.387,36.214-9.163,43.048l21,3.8s9.738-32.074,5.615-44.142Z" transform="translate(-71.734 7.463)" fill="#bfb9b9" fill-rule="evenodd"/>
      <path id="Trazado_96029" data-name="Trazado 96029" d="M143.064,118.016l15.919,2.876s9.738-32.074,5.615-44.142l-12.57-1.95c1.364,9.677-6.124,35.86-8.964,43.216Z" transform="translate(-68.721 7.912)" fill="#dbdada" fill-rule="evenodd"/>
    </g>
    <g id="Grupo_46125" data-name="Grupo 46125" transform="translate(183.349 57.899)">
      <g id="Grupo_46121" data-name="Grupo 46121">
        <g id="Grupo_46110" data-name="Grupo 46110" transform="translate(24.489)">
          <rect id="Rectángulo_28267" data-name="Rectángulo 28267" width="0.84" height="9.25" fill="#f6c343"/>
        </g>
        <g id="Grupo_46115" data-name="Grupo 46115" transform="translate(29.422 1.535)">
          <g id="Grupo_46111" data-name="Grupo 46111" transform="translate(0 0)">
            <rect id="Rectángulo_28268" data-name="Rectángulo 28268" width="8.937" height="0.841" transform="translate(0 8.322) rotate(-68.628)" fill="#f6c343"/>
          </g>
          <g id="Grupo_46112" data-name="Grupo 46112" transform="translate(4.41 4.036)">
            <rect id="Rectángulo_28269" data-name="Rectángulo 28269" width="8.951" height="0.84" transform="translate(0 6.691) rotate(-48.371)" fill="#f6c343"/>
          </g>
          <g id="Grupo_46113" data-name="Grupo 46113" transform="translate(8.031 10.626)">
            <rect id="Rectángulo_28270" data-name="Rectángulo 28270" width="8.387" height="0.839" transform="translate(0 3.41) rotate(-23.99)" fill="#f6c343"/>
          </g>
          <g id="Grupo_46114" data-name="Grupo 46114" transform="translate(11.645 18.994)">
            <rect id="Rectángulo_28271" data-name="Rectángulo 28271" width="0.84" height="7.746" transform="matrix(0.066, -0.998, 0.998, 0.066, 0, 0.838)" fill="#f9c61e"/>
          </g>
        </g>
        <g id="Grupo_46120" data-name="Grupo 46120" transform="translate(0 0.987)">
          <g id="Grupo_46116" data-name="Grupo 46116" transform="translate(16.238 0)">
            <rect id="Rectángulo_28272" data-name="Rectángulo 28272" width="0.84" height="8.908" transform="translate(0 0.288) rotate(-20.06)" fill="#f6c343"/>
          </g>
          <g id="Grupo_46117" data-name="Grupo 46117" transform="translate(8.102 3.351)">
            <rect id="Rectángulo_28273" data-name="Rectángulo 28273" width="0.839" height="10.153" transform="translate(0 0.574) rotate(-43.167)" fill="#f6c343"/>
          </g>
          <g id="Grupo_46118" data-name="Grupo 46118" transform="translate(3.102 10.239)">
            <rect id="Rectángulo_28274" data-name="Rectángulo 28274" width="0.839" height="9.421" transform="translate(0 0.766) rotate(-65.975)" fill="#f6c343"/>
          </g>
          <g id="Grupo_46119" data-name="Grupo 46119" transform="translate(0 19.03)">
            <path id="Trazado_96030" data-name="Trazado 96030" d="M135.947,51.616l-.05-.839,8.383-.513.05.839Z" transform="translate(-135.897 -50.265)" fill="#f6c343"/>
          </g>
        </g>
      </g>
      <g id="Grupo_46124" data-name="Grupo 46124" transform="translate(9.001 10.855)">
        <path id="Trazado_96031" data-name="Trazado 96031" d="M154.221,65.892a5.9,5.9,0,0,1-5.345,2.8,5.807,5.807,0,0,1-5.286-2.9Z" transform="translate(-133.677 -18.469)" fill="url(#linear-gradient)"/>
        <path id="Trazado_96032" data-name="Trazado 96032" d="M162.953,86.249a24.537,24.537,0,0,1,.3-6.736c.661-4.538,11.026-12.406,6.068-24.511-4.585-11.218-23.034-11.253-28.231-.29-5.352,11.23,5,20.079,5.564,24.629a24.588,24.588,0,0,1,.162,6.744Z" transform="translate(-139.558 -46.539)" fill="#f6c343"/>
        <path id="Trazado_96033" data-name="Trazado 96033" d="M142.893,62.627l14.4.148-.066,6.24a1.5,1.5,0,0,1-1.517,1.487l-11.4-.118a1.477,1.477,0,0,1-1.485-1.517Z" transform="translate(-134.787 -23.073)" fill="url(#linear-gradient)"/>
        <path id="Trazado_96034" data-name="Trazado 96034" d="M143.375,63l14.326.148a.792.792,0,0,1,.8.819h0a.823.823,0,0,1-.819.838l-14.326-.148a.854.854,0,0,1-.838-.856h0a.825.825,0,0,1,.856-.8Z" transform="translate(-135.239 -22.525)" fill="#00223d"/>
        <path id="Trazado_96035" data-name="Trazado 96035" d="M143.364,64.006l14.328.148a.788.788,0,0,1,.8.816h0a.821.821,0,0,1-.816.838l-14.328-.145a.856.856,0,0,1-.838-.858h0a.821.821,0,0,1,.856-.8Z" transform="translate(-135.255 -21.062)" fill="#00223d"/>
        <path id="Trazado_96036" data-name="Trazado 96036" d="M143.355,64.946l14.326.148a.814.814,0,0,1,.8.816h0a.823.823,0,0,1-.819.838L143.337,66.6a.853.853,0,0,1-.838-.856h0a.848.848,0,0,1,.856-.8Z" transform="translate(-135.269 -19.691)" fill="#00223d"/>
        <path id="Trazado_96037" data-name="Trazado 96037" d="M156.024,57.318a2.791,2.791,0,0,0-3.2-1.864,2.333,2.333,0,0,0-2.264,1.94c-.022.391-.042,1.49-.061,2.943l-.46,0-.73-.007-.438,0c.012-1.451.02-2.549.015-2.94a2.4,2.4,0,0,0-2.3-2,2.792,2.792,0,0,0-3.2,1.807,3.275,3.275,0,0,0,1.859,4.069l2.6.069c-.047,4.718-.14,11.867-.14,11.968l1.018.012c.007-.411.1-7.341.14-11.97l.435,0,.733.007.457,0c-.052,4.629-.086,11.562-.088,11.973l1.018,0c0-.1.037-7.248.091-11.966l2.372.022.2-.039A3.279,3.279,0,0,0,156.024,57.318Zm-10.454,2.967a2.253,2.253,0,0,1-1.219-2.773,1.79,1.79,0,0,1,2.092-1.119c.779.111,1.4.561,1.421,1.01,0,.379,0,1.465-.012,2.906Zm8.2.084-2.257-.022c.017-1.438.039-2.525.062-2.906.015-.452.607-.873,1.379-.976a1.779,1.779,0,0,1,2.095,1.158A2.241,2.241,0,0,1,153.775,60.369Z" transform="translate(-134.252 -33.689)" fill="#00223d"/>
        <g id="Grupo_46122" data-name="Grupo 46122" transform="translate(27.28 12.667)">
          <path id="Trazado_96038" data-name="Trazado 96038" d="M151.952,55.207l-1.3-.4a11.408,11.408,0,0,0,.4-3.1l1.359-.01A12.649,12.649,0,0,1,151.952,55.207Z" transform="translate(-150.654 -51.691)" fill="#f9eff4"/>
        </g>
        <g id="Grupo_46123" data-name="Grupo 46123" transform="translate(20.9 2.499)">
          <path id="Trazado_96039" data-name="Trazado 96039" d="M154.365,54.741a7.891,7.891,0,0,0-.556-1.283,10.812,10.812,0,0,0-5.75-4.6l.393-1.3A12.076,12.076,0,0,1,155,52.806a9.141,9.141,0,0,1,.652,1.5Z" transform="translate(-148.059 -47.555)" fill="#f9eff4"/>
        </g>
      </g>
    </g>
    <g id="Grupo_46126" data-name="Grupo 46126" transform="translate(212.842 119.444)">
      <path id="Trazado_96040" data-name="Trazado 96040" d="M157.836,78.412l-.312,39.9-2.864.069s-1.812-10.161-1.812-14.758A21.425,21.425,0,0,1,154,96.192l-2.055-15.373s.661-.895,1.271-1.763c.074,0,.147-.007.219-.015a42.838,42.838,0,0,0,4.4-.629Z" transform="translate(-141.984 -50.741)" fill="#167377" fill-rule="evenodd"/>
      <path id="Trazado_96041" data-name="Trazado 96041" d="M161.318,78.757l-3.9,6.018-5.849,33.63-2.859.069c-.175-4.088-.735-19.744,3.056-22.382l-.025-2.488h0c-.187-3.693-.388-10.387.374-13.792l1.254-1.463a10.781,10.781,0,0,0,4.971.784c1.21-.12,2.227-.258,2.975-.376Z" transform="translate(-146.892 -50.833)" fill="#167377" fill-rule="evenodd"/>
      <path id="Trazado_96042" data-name="Trazado 96042" d="M157.642,97.941l-5.394,0-1.293-.546-.123.551H148.8l-.167-3.23,2.859-.069s3.907,2.124,5.325,2.058.824,1.242.824,1.242Z" transform="translate(-146.813 -27.07)" fill="#00223d" fill-rule="evenodd"/>
      <path id="Trazado_96043" data-name="Trazado 96043" d="M162.062,97.941l-5.391,0-1.3-.546-.118.551h-2.031l-.175-3.23,2.864-.069s3.909,2.124,5.325,2.058.824,1.242.824,1.242Z" transform="translate(-140.373 -27.07)" fill="#00223d" fill-rule="evenodd"/>
      <path id="Trazado_96044" data-name="Trazado 96044" d="M176.847,72.034,170,77.384a1.871,1.871,0,0,1-2.136.116l-3.931-2.431-.986-.283v0l-2.98-.856-.533-.546h-1.409l-.472.489-2.813.806a5,5,0,0,0-.639.708l1.374-3.872-1.5-1.623-5.95,12.978a1.378,1.378,0,0,0,1.4,1.945l3.6-2.345L152.908,93.3c3.5,2.252,8.912,1.357,10.817-.017q.313-6.586.634-13.165l3.988,1.7a1.872,1.872,0,0,0,2.033-.374l7.685-7.407Z" transform="translate(-147.893 -63.171)" fill-rule="evenodd" fill="url(#linear-gradient)"/>
      <path id="Trazado_96045" data-name="Trazado 96045" d="M151.282,69.387c.406-.143.919.256,1.148.9s.084,1.278-.325,1.423-.919-.256-1.146-.9-.086-1.278.322-1.423Z" transform="translate(-143.58 -63.946)" fill="#fc9" stroke="#ff0" stroke-miterlimit="10" stroke-width="0.198" fill-rule="evenodd"/>
      <path id="Trazado_96046" data-name="Trazado 96046" d="M150.368,69.213l.266-.157a.18.18,0,0,1,.241.066l2.073,3.523a.179.179,0,0,1-.061.243l-.266.152a.176.176,0,0,1-.241-.061l-2.072-3.523a.179.179,0,0,1,.061-.243Z" transform="translate(-144.409 -64.419)" fill-rule="evenodd"/>
      <path id="Trazado_96047" data-name="Trazado 96047" d="M154.242,69.268c.428.061.7.654.607,1.328s-.514,1.17-.944,1.114-.7-.652-.607-1.325.514-1.173.944-1.116Z" transform="translate(-140.035 -64.085)" fill="#ffb699" fill-rule="evenodd"/>
      <path id="Trazado_96048" data-name="Trazado 96048" d="M159.651,72.043A4.713,4.713,0,0,1,160.7,70.7a4.051,4.051,0,0,1,1.95-.718.475.475,0,0,1-.106.531,2.849,2.849,0,0,1-.875.526,2.147,2.147,0,0,0,1.111-.2c.831-.3,1.733-.988,2.043-.526s-.042,1.532-1.047,2.2a20.7,20.7,0,0,1-2.857,1.4Z" transform="translate(-130.744 -63.039)" fill="#ffb699" fill-rule="evenodd"/>
      <path id="Trazado_96049" data-name="Trazado 96049" d="M151.68,70.411h3.1v2.872a1.553,1.553,0,0,1-1.551,1.551h0a1.554,1.554,0,0,1-1.551-1.551Z" transform="translate(-142.37 -62.411)" fill="#f49e7f" fill-rule="evenodd"/>
      <path id="Trazado_96050" data-name="Trazado 96050" d="M154.409,76.5c1.881,0,3.415-2.058,3.415-4.575s-1.534-4.575-3.415-4.575-3.415,2.053-3.415,4.575,1.532,4.575,3.415,4.575Z" transform="translate(-143.371 -66.878)" fill="#ffb699" fill-rule="evenodd"/>
      <path id="Trazado_96051" data-name="Trazado 96051" d="M152.239,70.506a7.3,7.3,0,0,0,3.282.674,5.173,5.173,0,0,0,3.693-1.637,5.81,5.81,0,0,0-3.813-2.372c-2.333-.2-3.892,2.168-3.892,2.168a1.1,1.1,0,0,0-.728,1.133,10.076,10.076,0,0,0,.883,2.977l.184-1.573a1.954,1.954,0,0,0,.489-.659,1.5,1.5,0,0,0-.1-.711Z" transform="translate(-143.682 -67.157)" fill-rule="evenodd" fill="url(#linear-gradient)"/>
      <path id="Trazado_96052" data-name="Trazado 96052" d="M153.512,69.212s-.081.047-.238.116c.088-.238.238-.116.238-.116Zm.725-1.168a1.1,1.1,0,0,1,.73,1.133,10,10,0,0,1-.883,2.977l-.184-1.573a2.019,2.019,0,0,1-.492-.659,1.512,1.512,0,0,1,.1-.711Z" transform="translate(-140.045 -65.863)" fill-rule="evenodd" fill="url(#linear-gradient)"/>
      <path id="Trazado_96053" data-name="Trazado 96053" d="M150.209,73.008a3.93,3.93,0,0,0,.384-1.244c-.057-.612.032-2.24.811-2.5.8-.266,1.839,1.65,1.087,2.114-.01-.01-.216-.391-.251-.352-.027-.017-.049.034-.034.261a2.262,2.262,0,0,1-.295,1.492,4.207,4.207,0,0,1-.829.676Z" transform="translate(-144.516 -64.118)" fill="#ffb699" fill-rule="evenodd"/>
    </g>
    <path id="Trazado_96064" data-name="Trazado 96064" d="M139.942,68c-1.033,2.8-2.065,5.544-3.076,8.3-1.2-.907-2.407-1.778-3.592-2.648s-2.365-1.741-3.526-2.591c.988-2.724,1.979-5.451,2.99-8.211-.258-.172-.494-.361-.752-.531q-7.549,20.692-14.776,40.433-7.062,19.357-13.849,37.861c.236.209.452.415.666.624q1-2.725,2-5.45c1.052.966,2.107,1.95,3.181,2.916,1.055.983,2.129,1.986,3.206,2.97-.688,1.854-1.377,3.69-2.043,5.5.214.209.45.435.688.644q7-18.73,14.321-38.3,7.516-20.006,15.356-40.961c-.258-.189-.516-.379-.8-.568Zm-27.1,72.541c-1.077-.983-2.151-1.986-3.226-2.95-1.055-.986-2.129-1.969-3.184-2.933q.808-2.157,1.613-4.371c1.055.966,2.129,1.93,3.2,2.913,1.077.966,2.151,1.95,3.248,2.933-.558,1.475-1.1,2.953-1.655,4.408Zm2.085-5.544c-1.1-.983-2.171-1.967-3.267-2.95-1.055-.966-2.129-1.93-3.206-2.9.538-1.455,1.077-2.933,1.613-4.408,1.077.966,2.151,1.91,3.248,2.876,1.074.964,2.173,1.95,3.27,2.913-.561,1.495-1.119,2.97-1.657,4.465Zm2.087-5.618c-1.1-.986-2.2-1.95-3.27-2.916-1.1-.964-2.171-1.91-3.248-2.874.538-1.478,1.077-2.953,1.635-4.447,1.074.927,2.171,1.893,3.27,2.837,1.1.966,2.193,1.913,3.312,2.9-.583,1.495-1.141,3.009-1.7,4.5Zm2.129-5.677c-1.119-.966-2.215-1.93-3.314-2.876s-2.193-1.91-3.289-2.837c.561-1.495,1.1-3.009,1.657-4.5,1.1.927,2.193,1.873,3.289,2.82,1.119.947,2.237,1.91,3.356,2.857-.583,1.532-1.141,3.046-1.7,4.541Zm2.129-5.714c-1.119-.966-2.237-1.913-3.334-2.859-1.119-.944-2.215-1.891-3.312-2.817.558-1.495,1.119-3.026,1.655-4.541,1.119.927,2.215,1.854,3.334,2.781,1.119.947,2.237,1.893,3.376,2.84-.58,1.532-1.138,3.063-1.718,4.6Zm2.171-5.79c-1.141-.947-2.279-1.893-3.4-2.82s-2.215-1.854-3.334-2.8c.561-1.514,1.119-3.026,1.7-4.578,1.1.927,2.215,1.834,3.356,2.761,1.119.947,2.257,1.873,3.4,2.82-.58,1.551-1.163,3.083-1.721,4.617Zm2.171-5.829c-1.138-.944-2.279-1.873-3.417-2.8-1.119-.927-2.237-1.834-3.356-2.761.561-1.534,1.119-3.085,1.7-4.637,1.119.91,2.259,1.817,3.376,2.744,1.141.91,2.3,1.837,3.442,2.763-.58,1.571-1.16,3.14-1.743,4.691Zm2.2-5.9c-1.141-.927-2.3-1.834-3.442-2.761-1.138-.91-2.257-1.817-3.4-2.726.58-1.551,1.141-3.12,1.721-4.674,1.138.89,2.279,1.8,3.42,2.687,1.16.91,2.321,1.837,3.484,2.744-.6,1.591-1.183,3.179-1.785,4.73Zm2.235-5.94c-1.16-.927-2.321-1.837-3.484-2.744s-2.3-1.8-3.417-2.687c.558-1.571,1.138-3.142,1.719-4.73,1.141.89,2.3,1.777,3.464,2.667,1.16.91,2.321,1.817,3.5,2.724-.6,1.591-1.2,3.179-1.785,4.77Zm2.237-6.018c-1.16-.907-2.343-1.814-3.506-2.7s-2.321-1.78-3.462-2.667q.87-2.386,1.743-4.77c1.16.87,2.321,1.76,3.484,2.65l3.548,2.667-1.807,4.824Zm2.279-6.073-3.548-2.667c-1.183-.89-2.343-1.76-3.506-2.631.58-1.608,1.183-3.216,1.765-4.824,1.183.87,2.343,1.721,3.525,2.591,1.183.89,2.387,1.778,3.592,2.667-.624,1.628-1.227,3.255-1.829,4.863Z" transform="translate(0 45.234)" fill="#00223d" fill-rule="evenodd"/>
    <path id="Trazado_96065" data-name="Trazado 96065" d="M111.1,74.212l.856,1.426,1.308,1.254s2.616-.251,3.253.138a1.421,1.421,0,0,1,.5,1.323h-5.148l-.386-.671.034.671h-1.63l-.108-2.621Z" transform="translate(9.358 62.577)" fill="#00223d" fill-rule="evenodd"/>
    <path id="Trazado_96066" data-name="Trazado 96066" d="M113.783,78.88l-.5,15.6-2.316.064a100.329,100.329,0,0,1-1.128-10.572,11.35,11.35,0,0,1,1.264-5.155L109,61.479c.322,2.065,5.377,4.969,5.377,4.969Z" transform="translate(8.222 44.005)" fill="#9fbfed" fill-rule="evenodd"/>
    <path id="Trazado_96067" data-name="Trazado 96067" d="M116.293,57.276a4.072,4.072,0,0,1,.152-1.468,3.5,3.5,0,0,1,1.1-1.406.414.414,0,0,1,.172.428,2.7,2.7,0,0,1-.393.782s.241-.059.708-.654.821-1.514,1.264-1.325c.425.2.666,1.141.234,2.085a17.968,17.968,0,0,1-1.441,2.345Z" transform="translate(18.841 32.524)" fill="#ffb699" fill-rule="evenodd"/>
    <path id="Trazado_96068" data-name="Trazado 96068" d="M114.8,68.1l.858,1.426,1.3,1.254s2.616-.253,3.258.138a1.413,1.413,0,0,1,.5,1.323h-5.148l-.386-.671.034.671h-1.623l-.111-2.621Z" transform="translate(14.759 53.665)" fill="#00223d" fill-rule="evenodd"/>
    <path id="Trazado_96069" data-name="Trazado 96069" d="M110.371,56.262h2.916l-.079-2.935a6.6,6.6,0,0,1-1.635.664c-.359-.022-1.2-.848-1.2-.848Z" transform="translate(10.223 31.846)" fill="#f4a57d" fill-rule="evenodd"/>
    <path id="Trazado_96070" data-name="Trazado 96070" d="M112.738,54.088s.236.3,1.387.386,1.529-.347,1.529-.347l1.768.467a4.6,4.6,0,0,1,2.862,2.262l2.353,4.386a.445.445,0,0,0,.757.042l3.884-4.71,1.792.787L124.819,64.6a2.16,2.16,0,0,1-3.582.14l-2.043-2.788L119.14,72c-2.227,1.352-7.651,1.352-9.795,0l-.592-13a4.351,4.351,0,0,1,2.348-4.066Z" transform="translate(7.856 33.226)" fill="#00223d" fill-rule="evenodd"/>
    <path id="Trazado_96071" data-name="Trazado 96071" d="M118.786,61.373,129.06,64.7a1.726,1.726,0,0,1,.917,2.574L122.2,79.342l-2.173.3a45.584,45.584,0,0,1,2.508-7.825,11.534,11.534,0,0,1,3.526-4.288l-10.463,0a4.938,4.938,0,0,1-3.577-1.512c-1.337-1.4-3.058-3.439-3.031-4.651,2.144,1.352,7.567,1.352,9.795,0Z" transform="translate(8.21 43.851)" fill="#b9d2fc" fill-rule="evenodd"/>
    <path id="Trazado_96072" data-name="Trazado 96072" d="M112.745,58.433c1.62,0,2.938-1.711,2.938-3.811s-1.318-3.813-2.938-3.813-2.933,1.711-2.933,3.813,1.32,3.811,2.933,3.811Z" transform="translate(9.407 28.443)" fill="#ffbd99" fill-rule="evenodd"/>
    <path id="Trazado_96073" data-name="Trazado 96073" d="M112.048,50.562h5.069a.264.264,0,0,1,.266.266v1.106a1.381,1.381,0,0,1-1.377,1.377h-1.273l-.135.376a.742.742,0,0,0,.143.745l.256.283-.339.4a.911.911,0,0,0-.2.438l-.155.843s-.221-1.065-.7-.848-.1,1.451.248,1.554a.313.313,0,0,0,.428-.2,5.7,5.7,0,0,0-.447,1.478c-.044.858-2.468.745-2.468-.14a4.833,4.833,0,0,1-1.546-4.472,2.688,2.688,0,0,1,.865-1.578v-.258a1.376,1.376,0,0,1,1.372-1.372Z" transform="translate(9.236 28.083)" fill="#00223d" fill-rule="evenodd"/>
    <g id="Grupo_46128" data-name="Grupo 46128" transform="translate(129.188 131.641)">
      <path id="Trazado_96074" data-name="Trazado 96074" d="M138.623,94.2c7.951,0,14.709.777,17.126,1.876.57-.265.89-.529.961-.806h0v1.7c0,1.514-8.106,2.766-18.087,2.766s-18.087-1.251-18.087-2.766l.015-1.795c0,.32.332.612.944.89,2.434-1.084,9.175-1.861,17.128-1.861Z" transform="translate(-104.14 -39.913)" fill="#f9c61e" fill-rule="evenodd"/>
      <path id="Trazado_96075" data-name="Trazado 96075" d="M138.615,93.469c10,0,18.087,1.251,18.087,2.766S148.611,99,138.615,99s-18.072-1.239-18.072-2.768,8.091-2.766,18.072-2.766Z" transform="translate(-104.131 -40.978)" fill="#dba50e" fill-rule="evenodd"/>
      <path id="Trazado_96076" data-name="Trazado 96076" d="M130.82,97.805c-.069-.251-.123-.5-.179-.723a22.694,22.694,0,0,1-2.655-.194,5.544,5.544,0,0,1-1.586-.445c-.388-.194-.541-.4-.5-.654.624-.027,1.237-.054,1.849-.084a1.067,1.067,0,0,0,.708.558,7.189,7.189,0,0,0,2.043.3c-.069-.278-.138-.541-.194-.779-.054-.221-.111-.43-.167-.624-.666-.042-1.347-.1-2.016-.182a4.209,4.209,0,0,1-1.084-.236c-.221-.1-.3-.194-.263-.3.084-.182.472-.32,1.153-.43.224-.03.487-.057.806-.071s.669-.042,1.084-.042a.282.282,0,0,1-.027-.1h.708c.015.027.03.069.042.1.361,0,.7.015.988.042s.57.042.806.071a3.887,3.887,0,0,1,1.362.359c-.445.015-.9.03-1.362.042a1.722,1.722,0,0,0-.654-.236,9.075,9.075,0,0,0-1.057-.1c.057.111.1.236.155.361s.123.263.194.418c.777.039,1.305.069,1.571.1a12.76,12.76,0,0,1,1.32.167,6.815,6.815,0,0,1,1,.251,2.009,2.009,0,0,1,.654.361c.361.3.263.6-.349.86a4.779,4.779,0,0,1-1.291.32,15.324,15.324,0,0,1-1.962.155c.1.221.209.472.32.723-.472,0-.944.012-1.419.012Zm-.959-3.725a7.8,7.8,0,0,0-1.195.111c-.293.057-.46.14-.472.221,0,.1.125.182.4.251a9.368,9.368,0,0,0,1.458.155c-.042-.14-.069-.28-.111-.406l-.084-.332Zm1.849,2.488a5.087,5.087,0,0,0,1.738-.293c.376-.138.472-.32.307-.514a1.355,1.355,0,0,0-.752-.347,13.326,13.326,0,0,0-1.876-.209c.069.194.167.388.251.612s.207.472.332.75Z" transform="translate(-96.325 -40.491)" fill="#fdce2f"/>
      <path id="Trazado_96077" data-name="Trazado 96077" d="M138.367,92.536c7.953,0,14.709.779,17.128,1.876.556-.248.89-.526.947-.806h0l.012,1.7c0,1.529-8.106,2.768-18.087,2.768s-18.085-1.239-18.085-2.768V93.524c0,.3.332.61.959.888,2.419-1.1,9.175-1.876,17.126-1.876Z" transform="translate(-104.51 -42.339)" fill="#f9c61e" fill-rule="evenodd"/>
      <path id="Trazado_96078" data-name="Trazado 96078" d="M138.367,91.812c10,0,18.087,1.239,18.087,2.768s-8.091,2.766-18.087,2.766-18.085-1.237-18.085-2.766,8.1-2.768,18.085-2.768Z" transform="translate(-104.51 -43.395)" fill="#dba50e" fill-rule="evenodd"/>
      <path id="Trazado_96079" data-name="Trazado 96079" d="M130.568,96.145c-.069-.251-.125-.487-.194-.711-1.084-.042-1.974-.111-2.655-.207a4.961,4.961,0,0,1-1.586-.445c-.376-.182-.529-.4-.487-.642.612-.039,1.239-.069,1.837-.1a1.143,1.143,0,0,0,.723.556,6.9,6.9,0,0,0,2.043.32c-.069-.293-.14-.556-.209-.792s-.111-.433-.152-.627c-.669-.042-1.35-.1-2.031-.179a4.071,4.071,0,0,1-1.069-.224c-.236-.1-.32-.207-.266-.32.071-.179.46-.32,1.141-.415.224-.042.5-.057.806-.084s.681-.03,1.084-.042a.314.314,0,0,0-.027-.1h.723a.794.794,0,0,0,.042.1c.361.012.681.027.986.042s.558.042.794.069a4.021,4.021,0,0,1,1.377.361l-1.365.042a1.673,1.673,0,0,0-.666-.221,6.468,6.468,0,0,0-1.042-.1c.042.111.1.221.152.347s.111.278.182.418c.792.042,1.32.084,1.583.1a13.285,13.285,0,0,1,1.32.165,7.193,7.193,0,0,1,.988.251,2.106,2.106,0,0,1,.666.361c.361.32.266.612-.347.863a5.638,5.638,0,0,1-1.293.334,15.567,15.567,0,0,1-1.959.138c.1.236.194.472.3.723-.472.015-.932.015-1.4.015Zm-.959-3.727a7.687,7.687,0,0,0-1.195.113c-.307.069-.46.138-.474.236s.111.165.391.236a8.1,8.1,0,0,0,1.458.152c-.027-.14-.069-.263-.1-.388s-.057-.236-.084-.349Zm1.834,2.488a5.517,5.517,0,0,0,1.753-.278c.361-.152.457-.32.3-.514a1.344,1.344,0,0,0-.75-.361,11.9,11.9,0,0,0-1.891-.194c.084.179.167.388.263.6.1.236.209.487.32.75Z" transform="translate(-96.697 -42.916)" fill="#fdce2f"/>
      <path id="Trazado_96080" data-name="Trazado 96080" d="M135.954,91.315c7.951,0,14.707.777,17.126,1.876.558-.251.89-.529.947-.806h.015v1.7c0,1.529-8.106,2.766-18.087,2.766s-18.087-1.237-18.087-2.766V92.3c0,.307.347.612.959.89,2.434-1.1,9.175-1.876,17.128-1.876Z" transform="translate(-108.033 -44.12)" fill="#f9c61e" fill-rule="evenodd"/>
      <path id="Trazado_96081" data-name="Trazado 96081" d="M135.954,90.591c10,0,18.087,1.237,18.087,2.766s-8.091,2.766-18.087,2.766-18.087-1.237-18.087-2.766,8.106-2.766,18.087-2.766Z" transform="translate(-108.033 -45.176)" fill="#dba50e" fill-rule="evenodd"/>
      <path id="Trazado_96082" data-name="Trazado 96082" d="M128.151,94.921c-.069-.248-.123-.487-.179-.708A25.831,25.831,0,0,1,125.317,94a4.79,4.79,0,0,1-1.586-.445c-.388-.179-.541-.4-.5-.639.624-.042,1.237-.069,1.834-.1a1.138,1.138,0,0,0,.723.558,7.066,7.066,0,0,0,2.043.32c-.069-.293-.138-.556-.194-.794-.054-.221-.111-.43-.167-.624-.666-.042-1.347-.1-2.016-.182a4.151,4.151,0,0,1-1.084-.221c-.221-.1-.3-.209-.263-.32.069-.182.472-.32,1.153-.418.209-.042.487-.054.794-.084l1.084-.042c0-.027-.015-.054-.015-.1h.708a.994.994,0,0,0,.042.1l.988.042c.293.015.57.042.806.071a4.107,4.107,0,0,1,1.362.361c-.445.012-.9.027-1.362.042a1.69,1.69,0,0,0-.654-.224,6.684,6.684,0,0,0-1.057-.1c.042.111.1.221.152.347s.125.278.182.418c.792.039,1.32.081,1.586.1a12.756,12.756,0,0,1,1.32.167,6.152,6.152,0,0,1,.986.251,2.074,2.074,0,0,1,.669.361c.361.32.263.612-.349.86a5.322,5.322,0,0,1-1.293.334,15.491,15.491,0,0,1-1.959.14c.1.236.194.472.32.723-.472.012-.944.012-1.419.012Zm-.959-3.725a8.128,8.128,0,0,0-1.195.111c-.3.069-.46.14-.472.236s.125.167.388.236a8.422,8.422,0,0,0,1.473.155c-.042-.14-.069-.266-.111-.391s-.054-.236-.084-.347Zm1.849,2.488a5.548,5.548,0,0,0,1.738-.278c.376-.152.46-.32.307-.514a1.352,1.352,0,0,0-.752-.361,11.866,11.866,0,0,0-1.891-.194c.084.179.167.388.266.6.1.236.207.487.332.75Z" transform="translate(-100.217 -44.697)" fill="#fdce2f"/>
      <path id="Trazado_96083" data-name="Trazado 96083" d="M139.324,90.24c7.953,0,14.709.779,17.128,1.878.568-.265.89-.529.959-.806h0v1.694c0,1.529-8.106,2.768-18.087,2.768s-18.087-1.239-18.087-2.768V91.214c0,.32.349.612.959.89,2.434-1.084,9.175-1.864,17.128-1.864Z" transform="translate(-103.117 -45.688)" fill="#f9c61e" fill-rule="evenodd"/>
      <path id="Trazado_96084" data-name="Trazado 96084" d="M139.324,89.516c10,0,18.087,1.239,18.087,2.754s-8.091,2.766-18.087,2.766S121.237,93.8,121.237,92.27s8.106-2.754,18.087-2.754Z" transform="translate(-103.117 -46.743)" fill="#dba50e" fill-rule="evenodd"/>
      <path id="Trazado_96085" data-name="Trazado 96085" d="M131.524,93.849c-.071-.251-.125-.5-.182-.723a23.3,23.3,0,0,1-2.655-.194,5.625,5.625,0,0,1-1.586-.445c-.388-.194-.541-.4-.5-.654.624-.027,1.237-.057,1.849-.084a1.084,1.084,0,0,0,.708.556,7.114,7.114,0,0,0,2.046.307c-.071-.278-.14-.543-.2-.779s-.111-.43-.165-.624c-.669-.042-1.35-.1-2.016-.182a4.115,4.115,0,0,1-1.084-.236c-.224-.1-.307-.194-.266-.307.069-.179.472-.317,1.153-.43.224-.027.487-.054.806-.069s.669-.027,1.072-.042c0-.027-.015-.069-.015-.1h.711c.012.029.027.071.042.1.361,0,.693.015.986.042s.57.042.806.069a3.826,3.826,0,0,1,1.362.361c-.445.015-.9.027-1.362.042a1.721,1.721,0,0,0-.654-.236,8.566,8.566,0,0,0-1.057-.1c.042.111.1.236.155.359s.125.28.18.418c.794.042,1.32.069,1.586.1a12.118,12.118,0,0,1,1.32.167,6.56,6.56,0,0,1,.988.248,2.185,2.185,0,0,1,.666.361c.361.307.263.6-.347.863a4.8,4.8,0,0,1-1.293.32,14.889,14.889,0,0,1-1.962.152c.1.224.209.472.32.723-.472,0-.944.015-1.416.015Zm-.961-3.725a7.5,7.5,0,0,0-1.195.111c-.3.069-.457.138-.472.221s.125.182.388.251a10.306,10.306,0,0,0,1.475.152c-.042-.138-.071-.278-.113-.4l-.084-.332Zm1.851,2.488a5.132,5.132,0,0,0,1.736-.293c.376-.14.46-.32.307-.514a1.338,1.338,0,0,0-.752-.349,13.328,13.328,0,0,0-1.891-.209c.084.2.167.391.266.612s.209.475.334.752Z" transform="translate(-95.302 -46.265)" fill="#fdce2f"/>
      <path id="Trazado_96086" data-name="Trazado 96086" d="M138.309,88.928c7.953,0,14.709.779,17.128,1.878.57-.266.89-.529.959-.806h0v1.7c0,1.514-8.106,2.766-18.087,2.766s-18.087-1.251-18.087-2.766l.015-1.795c0,.32.334.612.944.89,2.434-1.084,9.178-1.864,17.128-1.864Z" transform="translate(-104.598 -47.601)" fill="#f9c61e" fill-rule="evenodd"/>
      <path id="Trazado_96087" data-name="Trazado 96087" d="M138.2,88.19c9.942,0,17.991,1.244,17.991,2.751s-8.049,2.754-17.991,2.754-17.974-1.232-17.974-2.754,8.047-2.751,17.974-2.751Z" transform="translate(-104.59 -48.677)" fill="#dba50e" fill-rule="evenodd"/>
      <path id="Trazado_96088" data-name="Trazado 96088" d="M130.509,92.537c-.071-.251-.125-.5-.182-.723a23.345,23.345,0,0,1-2.655-.194,5.605,5.605,0,0,1-1.583-.445c-.391-.194-.543-.4-.5-.654.624-.027,1.237-.057,1.849-.084a1.077,1.077,0,0,0,.708.556,7.114,7.114,0,0,0,2.045.307c-.071-.278-.14-.543-.194-.779s-.113-.43-.167-.624c-.669-.042-1.35-.1-2.016-.182a4.266,4.266,0,0,1-1.084-.236c-.224-.1-.307-.194-.265-.3.084-.182.472-.32,1.155-.433.221-.027.484-.054.806-.069.3-.027.666-.042,1.084-.042a.24.24,0,0,1-.03-.1h.711c.012.03.027.071.042.1.361,0,.693.015.986.042s.57.042.806.069a3.862,3.862,0,0,1,1.362.361c-.445.015-.9.03-1.362.042a1.723,1.723,0,0,0-.654-.236,8.566,8.566,0,0,0-1.055-.1c.054.111.1.236.152.361s.125.263.194.415c.779.042,1.308.069,1.571.1a12.121,12.121,0,0,1,1.32.167,6.739,6.739,0,0,1,1,.251,2.028,2.028,0,0,1,.654.359c.361.307.263.6-.347.863a4.8,4.8,0,0,1-1.293.32,14.887,14.887,0,0,1-1.962.152c.1.224.209.474.322.723-.475,0-.947.015-1.419.015Zm-.959-3.725a7.5,7.5,0,0,0-1.2.111c-.29.054-.457.138-.472.221s.125.182.4.251a9.786,9.786,0,0,0,1.46.152c-.042-.138-.071-.278-.111-.4l-.084-.332ZM131.4,91.3a5.072,5.072,0,0,0,1.736-.293c.376-.138.474-.32.307-.514a1.338,1.338,0,0,0-.75-.347,13,13,0,0,0-1.878-.209c.069.194.167.388.251.61s.209.474.334.752Z" transform="translate(-96.783 -48.179)" fill="#f9c61e"/>
      <path id="Trazado_96089" data-name="Trazado 96089" d="M138.055,87.266c7.951,0,14.707.779,17.126,1.876.556-.251.89-.529.946-.806h0l.012,1.7c0,1.529-8.1,2.766-18.085,2.766s-18.087-1.237-18.087-2.766v-1.78c0,.307.334.612.959.89,2.419-1.1,9.175-1.876,17.128-1.876Z" transform="translate(-104.968 -50.025)" fill="#f9c61e" fill-rule="evenodd"/>
      <path id="Trazado_96090" data-name="Trazado 96090" d="M137.957,86.542c9.942,0,17.991,1.232,17.991,2.751s-8.049,2.754-17.991,2.754-17.989-1.232-17.989-2.754,8.061-2.751,17.989-2.751Z" transform="translate(-104.968 -51.081)" fill="#dba50e" fill-rule="evenodd"/>
      <path id="Trazado_96091" data-name="Trazado 96091" d="M130.252,90.875c-.069-.251-.125-.487-.194-.711a26.543,26.543,0,0,1-2.655-.209,4.9,4.9,0,0,1-1.586-.445c-.374-.179-.526-.4-.484-.639.61-.042,1.237-.069,1.834-.1a1.143,1.143,0,0,0,.723.556,6.915,6.915,0,0,0,2.043.32c-.069-.293-.138-.556-.209-.792-.054-.224-.111-.433-.152-.627-.666-.042-1.347-.1-2.028-.179a4.119,4.119,0,0,1-1.072-.224c-.236-.1-.32-.209-.263-.32.069-.179.457-.32,1.138-.418.224-.042.5-.054.806-.081s.683-.03,1.084-.042a.314.314,0,0,0-.027-.1h.723c.015.042.029.069.042.1.361.012.681.027.988.042.29.012.556.039.792.069a4.021,4.021,0,0,1,1.377.361l-1.362.042a1.7,1.7,0,0,0-.669-.224,6.48,6.48,0,0,0-1.042-.1c.042.111.1.221.152.347s.113.278.182.418c.792.042,1.32.084,1.583.1a13.285,13.285,0,0,1,1.323.167,6.587,6.587,0,0,1,.986.251,2.15,2.15,0,0,1,.669.361c.361.32.263.612-.349.863a5.65,5.65,0,0,1-1.293.332,15.517,15.517,0,0,1-1.959.14c.1.236.194.472.3.723-.472.015-.929.015-1.4.015Zm-.959-3.727a8.123,8.123,0,0,0-1.195.111c-.307.071-.46.14-.472.236s.111.167.388.238a8.1,8.1,0,0,0,1.46.152c-.029-.14-.071-.266-.1-.391s-.057-.236-.084-.347Zm1.837,2.488a5.571,5.571,0,0,0,1.75-.278c.361-.152.46-.32.3-.514a1.344,1.344,0,0,0-.75-.361,11.864,11.864,0,0,0-1.891-.194c.084.179.167.388.263.6.1.236.209.487.322.75Z" transform="translate(-97.153 -50.603)" fill="#f9c61e"/>
      <path id="Trazado_96092" data-name="Trazado 96092" d="M135.64,86.044c7.953,0,14.709.779,17.128,1.878.556-.251.89-.529.944-.806h.015v1.7c0,1.529-8.106,2.766-18.087,2.766s-18.087-1.237-18.087-2.766v-1.78c0,.3.349.612.959.89,2.434-1.1,9.178-1.878,17.128-1.878Z" transform="translate(-108.491 -51.807)" fill="#f9c61e" fill-rule="evenodd"/>
      <path id="Trazado_96093" data-name="Trazado 96093" d="M135.64,85.321c10,0,18.087,1.237,18.087,2.766s-8.091,2.766-18.087,2.766-18.087-1.237-18.087-2.766,8.106-2.766,18.087-2.766Z" transform="translate(-108.491 -52.862)" fill="#dba50e" fill-rule="evenodd"/>
      <path id="Trazado_96094" data-name="Trazado 96094" d="M127.84,89.651c-.071-.251-.125-.487-.182-.708A26.6,26.6,0,0,1,125,88.734a4.775,4.775,0,0,1-1.583-.445c-.391-.182-.543-.4-.5-.639.624-.042,1.237-.069,1.834-.1a1.148,1.148,0,0,0,.723.556,7.009,7.009,0,0,0,2.045.322c-.071-.293-.14-.558-.2-.794s-.111-.43-.165-.624c-.669-.042-1.35-.1-2.016-.182a4.232,4.232,0,0,1-1.084-.221c-.224-.1-.307-.209-.266-.32.069-.182.472-.32,1.156-.418.206-.042.484-.057.792-.084l1.084-.042c0-.027-.015-.054-.015-.1h.71a.444.444,0,0,0,.042.1l.986.042c.293.015.57.042.806.069a4.149,4.149,0,0,1,1.362.361c-.445.015-.9.03-1.362.042a1.734,1.734,0,0,0-.654-.221,6.645,6.645,0,0,0-1.055-.1c.042.113.1.224.152.349s.125.278.179.416c.794.042,1.32.084,1.586.1a12.118,12.118,0,0,1,1.32.167,6.252,6.252,0,0,1,.988.251,2.085,2.085,0,0,1,.666.361c.361.32.263.61-.347.86a5.352,5.352,0,0,1-1.293.334,15.524,15.524,0,0,1-1.962.14c.1.236.2.472.322.723-.474.012-.947.012-1.419.012Zm-.959-3.725a7.5,7.5,0,0,0-1.2.111c-.3.069-.457.138-.472.236s.125.167.388.236a8.247,8.247,0,0,0,1.475.152c-.042-.138-.071-.263-.113-.388s-.054-.236-.081-.347Zm1.849,2.488a5.53,5.53,0,0,0,1.736-.278c.376-.152.46-.32.307-.514a1.321,1.321,0,0,0-.75-.361,11.86,11.86,0,0,0-1.893-.2c.084.182.167.391.266.6.1.236.209.484.334.75Z" transform="translate(-100.675 -52.383)" fill="#fdce2f"/>
      <path id="Trazado_96095" data-name="Trazado 96095" d="M139.01,84.97c7.953,0,14.709.779,17.128,1.876.57-.263.89-.526.959-.806h0v1.7c0,1.529-8.106,2.768-18.087,2.768s-18.087-1.239-18.087-2.768V85.944c0,.32.349.612.961.89,2.431-1.084,9.175-1.864,17.126-1.864Z" transform="translate(-103.575 -53.374)" fill="#f9c61e" fill-rule="evenodd"/>
      <path id="Trazado_96096" data-name="Trazado 96096" d="M139.01,84.246c10,0,18.087,1.237,18.087,2.754s-8.091,2.766-18.087,2.766S120.923,88.529,120.923,87s8.106-2.754,18.087-2.754Z" transform="translate(-103.575 -54.43)" fill="#dba50e" fill-rule="evenodd"/>
      <path id="Trazado_96097" data-name="Trazado 96097" d="M131.21,88.579c-.069-.251-.125-.5-.182-.723a23.257,23.257,0,0,1-2.655-.2,5.555,5.555,0,0,1-1.583-.443c-.391-.2-.543-.4-.5-.654.627-.03,1.237-.057,1.849-.084a1.083,1.083,0,0,0,.71.556,7.1,7.1,0,0,0,2.043.307c-.069-.28-.14-.543-.194-.779s-.113-.43-.167-.627c-.669-.042-1.35-.1-2.016-.179a4.218,4.218,0,0,1-1.084-.236c-.224-.1-.307-.2-.266-.307.071-.179.475-.32,1.156-.43.221-.027.487-.057.806-.069.3-.029.666-.029,1.069-.042,0-.027-.015-.071-.015-.1h.711c.015.027.027.071.042.1.361,0,.7.012.986.042.293.012.57.042.806.069a3.81,3.81,0,0,1,1.362.361c-.443.015-.9.027-1.362.042a1.669,1.669,0,0,0-.652-.236,9.113,9.113,0,0,0-1.057-.1c.042.113.1.236.152.361s.125.278.179.418c.794.042,1.323.069,1.586.1a12.759,12.759,0,0,1,1.32.167,6.682,6.682,0,0,1,.988.251,2.106,2.106,0,0,1,.666.361c.361.307.266.6-.347.863a4.867,4.867,0,0,1-1.293.32,15.316,15.316,0,0,1-1.959.152c.1.224.207.472.32.723-.475,0-.947.015-1.419.015Zm-.959-3.727a7.753,7.753,0,0,0-1.2.113c-.3.069-.457.138-.472.221s.125.182.391.251a10.218,10.218,0,0,0,1.473.152c-.042-.14-.069-.278-.111-.4l-.084-.334Zm1.849,2.49a5.161,5.161,0,0,0,1.738-.293c.374-.14.457-.32.3-.516a1.354,1.354,0,0,0-.75-.347,13.367,13.367,0,0,0-1.891-.209c.084.2.167.391.263.612s.209.472.334.752Z" transform="translate(-95.76 -53.951)" fill="#f9c61e"/>
      <path id="Trazado_96098" data-name="Trazado 96098" d="M121.772,91.1l-.433,1.286-.31.784s1.593.3,2.227.317.366-.6.366-.6l-.044-1.109Z" transform="translate(-103.419 -44.435)" fill="#ffbd99" fill-rule="evenodd"/>
      <path id="Trazado_96099" data-name="Trazado 96099" d="M118.307,91.243l-1.3,1.215-.824,1.114s1.48,1.1,2.124.787.669-1.7.669-1.7Z" transform="translate(-110.489 -44.225)" fill="#ffbd99" fill-rule="evenodd"/>
      <path id="Trazado_96100" data-name="Trazado 96100" d="M123.228,82.4a6.771,6.771,0,0,0-1.645.735c-.268.293-.165,1.109-.165,1.109l2.171-.482Z" transform="translate(-102.881 -57.116)" fill="#f4a082" fill-rule="evenodd"/>
      <path id="Trazado_96101" data-name="Trazado 96101" d="M123.96,78.767l.415,7.132-2.343,1.692.358.893,1.777-.185,2.112-1.743-1.258-7.663Z" transform="translate(-101.957 -62.421)" fill="#0b4884" fill-rule="evenodd"/>
      <path id="Trazado_96102" data-name="Trazado 96102" d="M127.678,84.6l-6.613,3.543-.2-1.775a1.715,1.715,0,0,1,1.173-1.822l5.839-1.9Zm-6.36,9.8c.981-1.925,1.662-3.462,1.662-3.462s.671-.081,1.687-.241l-.7,13.893-2.37.12-.28-10.311Zm7.444-11.656c-.253-.012-.462-.034-.622-.047.16.012.369.034.622.047Z" transform="translate(-103.678 -56.759)" fill="#00223d" fill-rule="evenodd"/>
      <path id="Trazado_96103" data-name="Trazado 96103" d="M123.515,82.443a6.565,6.565,0,0,0-1.716.551c-.3.263-.27,1.2-.27,1.2l2.2-.371Z" transform="translate(-102.693 -57.059)" fill="#ffb699" fill-rule="evenodd"/>
      <path id="Trazado_96104" data-name="Trazado 96104" d="M122.944,74.1l-.386-.642a1.832,1.832,0,0,1,2.424-1.2c1.824.644,2.436,10.643,6.2,12.961,0,0-.59.9-2.7-.334s-3.958-4.29-4.86-7.348-.676-3.435-.676-3.435Z" transform="translate(-101.191 -72.118)" fill="#00223d" fill-rule="evenodd"/>
      <path id="Trazado_96105" data-name="Trazado 96105" d="M125.706,76.543c-.521.912-1.687,2.758-2.827,2.884a6.151,6.151,0,0,1,.644-1.406L122.5,76.578l1.846-1.35Z" transform="translate(-101.278 -67.583)" fill="#f4a082" fill-rule="evenodd"/>
      <path id="Trazado_96106" data-name="Trazado 96106" d="M123.595,78l-.506.644-.644,2.542a2.882,2.882,0,0,0,.3,2.163,29.35,29.35,0,0,1,1.795,3.373c.128.578.924,5.923.924,5.923a9.593,9.593,0,0,0,4.1-.116,11.773,11.773,0,0,0,3.071-.865,43.463,43.463,0,0,1-.878-5.782,22.605,22.605,0,0,0-1.962-7.744c-.4-.62-3.877-2.377-3.877-2.377Z" transform="translate(-101.487 -66.802)" fill="#1363b2" fill-rule="evenodd"/>
      <path id="Trazado_96107" data-name="Trazado 96107" d="M141.065,82.265s1.974,4.027-1.419,6.242S129.4,91.5,129.4,91.5a73.26,73.26,0,0,1-3.439,6.717c-1.846,3.117-7.548,8.568-7.548,8.568l-1.957-1.337,10.5-16.991a4.015,4.015,0,0,1,2.387-1.905l4.757-1.387.2-1.952a10.661,10.661,0,0,0,3.877-.16,17.312,17.312,0,0,0,2.9-.784Z" transform="translate(-110.095 -57.319)" fill="#00223d" fill-rule="evenodd"/>
      <path id="Trazado_96108" data-name="Trazado 96108" d="M126.881,77.768c-.784,1.743,1.293,8.573,1.293,8.573l-6.031,4.428.688,1.384s8.393-3.56,8.521-5.119a81.751,81.751,0,0,0-1.082-8.747,1.794,1.794,0,0,0-3.285-.723A2.265,2.265,0,0,0,126.881,77.768Z" transform="translate(-101.796 -65.392)" fill="#0b4884" fill-rule="evenodd"/>
      <path id="Trazado_96109" data-name="Trazado 96109" d="M122.157,73.554l.986-.89a2.143,2.143,0,0,1,1.448,1.824l-.644.762Z" transform="translate(-101.776 -71.322)" fill="#1363b2" fill-rule="evenodd"/>
      <path id="Trazado_96110" data-name="Trazado 96110" d="M121.656,77.937s1.92,2.446,3.346,2.21a2.57,2.57,0,0,0,1.856-3.648c-.88-1.662-1.888-3.828-4.054-2.992s-2.382,1.92-2.1,2.992a2.376,2.376,0,0,0,.956,1.438Z" transform="translate(-104.043 -70.363)" fill="#ffb699" fill-rule="evenodd"/>
      <path id="Trazado_96111" data-name="Trazado 96111" d="M124.79,75.79a4.809,4.809,0,0,1-2.254,3.339c-1.994,1.136-2.884-2.4-1.9-4.465a3.484,3.484,0,0,1,5.546-.88,4.188,4.188,0,0,1,.966,4.669,3.855,3.855,0,0,1-1.7-1.16,4.061,4.061,0,0,1-.664-1.5Z" transform="translate(-104.581 -71.156)" fill="#00223d" fill-rule="evenodd"/>
      <path id="Trazado_96112" data-name="Trazado 96112" d="M132.1,85.76l-7.916,1.276-5.271-6.4-.15.128a.194.194,0,0,0-.022.273l5.006,6.07h0l.034.184a.184.184,0,0,0,.214.162l8.167-1.318Z" transform="translate(-106.823 -59.691)" fill="#b9d2fc" fill-rule="evenodd"/>
      <path id="Trazado_96113" data-name="Trazado 96113" d="M114.728,94.068c1.283.054,4.833-1.878,4.833-1.878l2.606.064a1.232,1.232,0,0,1,.187.647,1.508,1.508,0,0,1-.2.971l-.015,1.325h-.563l-.248-1.318-2.446,1.308-4.9.01S113.437,94,114.728,94.068Z" transform="translate(-113.867 -42.843)" fill="#0b4884" fill-rule="evenodd"/>
      <path id="Trazado_96114" data-name="Trazado 96114" d="M119.646,94.6c1.278-.113,4.543-2.5,4.543-2.5l2.594-.28a1.251,1.251,0,0,1,.268.617,1.529,1.529,0,0,1-.074.991l.16,1.315-.558.074-.42-1.274-2.252,1.618-4.856.654S118.357,94.708,119.646,94.6Z" transform="translate(-106.578 -43.373)" fill="#0b4884" fill-rule="evenodd"/>
    </g>
    <g id="Grupo_46131" data-name="Grupo 46131" transform="translate(172.417 136.398)">
      <g id="Grupo_46129" data-name="Grupo 46129" transform="translate(0 30.798)">
        <path id="Trazado_96115" data-name="Trazado 96115" d="M132.911,93.013h34.957v.966H133.8a1.063,1.063,0,0,0-1.055,1.065v3.845a1.063,1.063,0,0,0,1.055,1.065h34.07v.966H132.911a1.414,1.414,0,0,1-1.4-1.4v-5.1a1.415,1.415,0,0,1,1.4-1.4Z" transform="translate(-131.367 -77.197)" fill="#7d6eb2" fill-rule="evenodd"/>
        <path id="Trazado_96116" data-name="Trazado 96116" d="M133.065,93.406h34.07V99.38h-34.07a1.063,1.063,0,0,1-1.055-1.065V94.471a1.063,1.063,0,0,1,1.055-1.065Z" transform="translate(-130.633 -76.624)" fill="#eadce4" fill-rule="evenodd"/>
        <path id="Trazado_96117" data-name="Trazado 96117" d="M132.911,89.8h34.957v.966H133.8a1.063,1.063,0,0,0-1.055,1.065v3.845a1.063,1.063,0,0,0,1.055,1.065h34.07V97.7H132.911a1.415,1.415,0,0,1-1.4-1.4V91.2a1.415,1.415,0,0,1,1.4-1.4Z" transform="translate(-131.367 -81.888)" fill="#00223d" fill-rule="evenodd"/>
        <path id="Trazado_96118" data-name="Trazado 96118" d="M133.065,90.19h34.07v5.974h-34.07A1.063,1.063,0,0,1,132.01,95.1V91.255a1.063,1.063,0,0,1,1.055-1.065Z" transform="translate(-130.633 -81.315)" fill="#eadce4" fill-rule="evenodd"/>
        <path id="Trazado_96119" data-name="Trazado 96119" d="M132.854,86.58h34.958v.966h-34.07a1.067,1.067,0,0,0-1.057,1.067v3.843a1.067,1.067,0,0,0,1.057,1.067h34.07v.966H132.854a1.416,1.416,0,0,1-1.4-1.4v-5.1a1.416,1.416,0,0,1,1.4-1.4Z" transform="translate(-131.45 -86.58)" fill="#1363b2" fill-rule="evenodd"/>
        <path id="Trazado_96120" data-name="Trazado 96120" d="M133.009,86.973h34.07V92.95h-34.07a1.067,1.067,0,0,1-1.057-1.067V88.04a1.067,1.067,0,0,1,1.057-1.067Z" transform="translate(-130.718 -86.007)" fill="#eadce4" fill-rule="evenodd"/>
      </g>
      <g id="Grupo_46130" data-name="Grupo 46130" transform="translate(9.472)">
        <path id="Trazado_96121" data-name="Trazado 96121" d="M155.324,86.954c1.325,2.419-2.958,15.791-2.958,15.791l-2.257-.049.162-12.521c-5.687,2.141-8.988,0-8.988,0l.162,12.521-2.254.049s-4.283-13.372-2.96-15.791c1.146-2.06,7.749-2.958,9.546-2.778,1.8-.179,8.4.718,9.546,2.778Z" transform="translate(-134.318 -59.321)" fill="#00223d" fill-rule="evenodd"/>
        <path id="Trazado_96122" data-name="Trazado 96122" d="M148.738,94.671l-4.283-.1-1-.524-.13.524-1.586-.162-.017-2.714,2.257.049s3.007,1.945,4.118,1.945c1.128,0,.637.981.637.981Z" transform="translate(-125.934 -48.32)" fill="#cd4022" fill-rule="evenodd"/>
        <path id="Trazado_96123" data-name="Trazado 96123" d="M135.4,94.671l4.3-.1,1-.524.133.524,1.569-.162.032-2.714-2.254.049s-3.009,1.945-4.12,1.945c-1.128,0-.654.981-.654.981Z" transform="translate(-135.303 -48.32)" fill="#cd4022" fill-rule="evenodd"/>
        <path id="Trazado_96124" data-name="Trazado 96124" d="M140.149,92.815h3.759l-4.856-5.527,4.757-9.234c-3.749-.106-5.873,5.48-7.548,9.165a1.635,1.635,0,0,0,.3,1.795Z" transform="translate(-134.115 -68.22)" fill="#7d6eb2" fill-rule="evenodd"/>
        <path id="Trazado_96125" data-name="Trazado 96125" d="M145.371,92.372l-3.12,2.026,3.218-6.945-4.853-9.4c3.671-.1,5.8,4.961,7.457,8.583a2.309,2.309,0,0,1-.229,2.313Z" transform="translate(-127.553 -68.22)" fill="#7d6eb2" fill-rule="evenodd"/>
        <path id="Trazado_96126" data-name="Trazado 96126" d="M138.8,75.867c-.376.049-.622.556-.556,1.146s.425,1.028.8.978c.376-.032.637-.553.556-1.143s-.425-1.03-.8-.981Z" transform="translate(-131.022 -71.412)" fill="#ffb699" fill-rule="evenodd"/>
        <path id="Trazado_96127" data-name="Trazado 96127" d="M141.829,75.867c.376.049.622.556.556,1.146s-.425,1.028-.8.978c-.376-.032-.62-.553-.556-1.143s.425-1.03.8-.981Z" transform="translate(-126.969 -71.412)" fill="#ffb699" fill-rule="evenodd"/>
        <path id="Trazado_96128" data-name="Trazado 96128" d="M142.815,77.986h1.047a5.176,5.176,0,0,1,5.165,5.165v9.792a3.772,3.772,0,0,1-3.759,3.759h-3.857a3.772,3.772,0,0,1-3.762-3.759V83.151a5.176,5.176,0,0,1,5.165-5.165Z" transform="translate(-131.879 -68.317)" fill="#7d6eb2" fill-rule="evenodd"/>
        <path id="Trazado_96129" data-name="Trazado 96129" d="M139.3,77.421h3.14v1.372a1.387,1.387,0,0,1-1.374,1.392h-.376a1.39,1.39,0,0,1-1.389-1.392Z" transform="translate(-129.474 -69.141)" fill="#e58d6e" fill-rule="evenodd"/>
        <path id="Trazado_96130" data-name="Trazado 96130" d="M141.9,74.249c1.913-.032,3.5,1.947,3.548,4.43s-1.47,4.546-3.383,4.578-3.5-1.962-3.53-4.447c-.049-2.483,1.453-4.526,3.366-4.561Z" transform="translate(-130.589 -73.767)" fill="#ffb699" fill-rule="evenodd"/>
        <path id="Trazado_96131" data-name="Trazado 96131" d="M137.78,81.57h12.4a.566.566,0,0,1,.568.548v8.637a.566.566,0,0,1-.568.548h-12.4a.553.553,0,0,1-.568-.548V82.118a.553.553,0,0,1,.568-.548Z" transform="translate(-132.518 -63.089)" fill="#f9eff4" fill-rule="evenodd"/>
        <path id="Trazado_96132" data-name="Trazado 96132" d="M141.029,86.415a1.8,1.8,0,1,0-1.795-1.8,1.807,1.807,0,0,0,1.795,1.8Z" transform="translate(-129.569 -61.262)" fill="#c8c6cc" fill-rule="evenodd"/>
        <path id="Trazado_96133" data-name="Trazado 96133" d="M146.751,76.438a5.8,5.8,0,0,0-3.813-2.372c-2.333-.2-3.892,2.168-3.892,2.168a1.1,1.1,0,0,0-.73,1.133,10.076,10.076,0,0,0,.883,2.977l.184-1.573a1.957,1.957,0,0,0,.492-.659,1.522,1.522,0,0,0-.1-.711,7.322,7.322,0,0,0,3.285.676,4.416,4.416,0,0,0,1.517-.236.761.761,0,0,0,.007.27,2,2,0,0,0,.489.659l.184,1.573a9.985,9.985,0,0,0,.885-2.977,1.336,1.336,0,0,0-.074-.327A5.224,5.224,0,0,0,146.751,76.438Z" transform="translate(-130.91 -74.053)" fill="#00223d"/>
      </g>
    </g>
    <g id="Grupo_46282" data-name="Grupo 46282" transform="translate(236.268 157.518)">
      <rect id="Rectángulo_28228" data-name="Rectángulo 28228" width="29.28" height="33.86" rx="6.949" transform="translate(0 0)" fill="#00223d"/>
      <g id="Grupo_46036" data-name="Grupo 46036" transform="translate(2.708 3.544)">
        <g id="Grupo_46035" data-name="Grupo 46035">
          <rect id="Rectángulo_28229" data-name="Rectángulo 28229" width="24.763" height="6.955" rx="1.773" fill="url(#linear-gradient)"/>
          <rect id="Rectángulo_28230" data-name="Rectángulo 28230" width="6.367" height="4.415" rx="1.773" transform="translate(0 9.421)" fill="url(#linear-gradient)"/>
          <rect id="Rectángulo_28231" data-name="Rectángulo 28231" width="6.367" height="4.415" rx="1.773" transform="translate(9.198 9.421)" fill="url(#linear-gradient)"/>
          <rect id="Rectángulo_28232" data-name="Rectángulo 28232" width="6.367" height="4.415" rx="1.773" transform="translate(18.396 9.421)" fill="url(#linear-gradient)"/>
          <rect id="Rectángulo_28233" data-name="Rectángulo 28233" width="6.367" height="4.415" rx="1.773" transform="translate(0 16.518)" fill="url(#linear-gradient)"/>
          <rect id="Rectángulo_28234" data-name="Rectángulo 28234" width="6.367" height="4.415" rx="1.773" transform="translate(9.198 16.518)" fill="url(#linear-gradient)"/>
          <rect id="Rectángulo_28235" data-name="Rectángulo 28235" width="6.367" height="4.415" rx="1.773" transform="translate(0 23.616)" fill="url(#linear-gradient)"/>
          <rect id="Rectángulo_28236" data-name="Rectángulo 28236" width="6.367" height="4.415" rx="1.773" transform="translate(9.198 23.616)" fill="url(#linear-gradient)"/>
        </g>
        <rect id="Rectángulo_28237" data-name="Rectángulo 28237" width="6.367" height="11.512" rx="1.773" transform="translate(18.396 16.518)" fill="url(#linear-gradient)"/>
      </g>
      <g id="Grupo_46037" data-name="Grupo 46037" transform="translate(2.258 3.094)" opacity="0.45">
        <path id="Trazado_95891" data-name="Trazado 95891" d="M573.518,292.77a.769.769,0,0,1,.769-.769h23.225a.769.769,0,0,1,.769.769v5.417a.769.769,0,0,1-.769.769H574.287" transform="translate(-573.518 -292.001)" fill="url(#linear-gradient)"/>
        <rect id="Rectángulo_28238" data-name="Rectángulo 28238" width="6.367" height="4.415" rx="1.773" transform="translate(0 9.421)" fill="#e2deff"/>
        <rect id="Rectángulo_28239" data-name="Rectángulo 28239" width="6.367" height="4.415" rx="1.773" transform="translate(9.198 9.421)" fill="#e2deff"/>
        <rect id="Rectángulo_28240" data-name="Rectángulo 28240" width="6.367" height="4.415" rx="1.773" transform="translate(18.396 9.421)" fill="url(#linear-gradient)"/>
        <rect id="Rectángulo_28241" data-name="Rectángulo 28241" width="6.367" height="4.415" rx="1.773" transform="translate(0 16.518)" fill="#e2deff"/>
        <rect id="Rectángulo_28242" data-name="Rectángulo 28242" width="6.367" height="4.415" rx="1.773" transform="translate(9.198 16.518)" fill="#e2deff"/>
        <rect id="Rectángulo_28243" data-name="Rectángulo 28243" width="6.367" height="4.415" rx="1.773" transform="translate(0 23.615)" fill="#e2deff"/>
        <rect id="Rectángulo_28244" data-name="Rectángulo 28244" width="6.367" height="4.415" rx="1.773" transform="translate(9.198 23.615)" fill="#e2deff"/>
      </g>
      <rect id="Rectángulo_28245" data-name="Rectángulo 28245" width="6.367" height="11.512" rx="1.773" transform="translate(20.654 19.612)" fill="#f6c343"/>
      <path id="Trazado_95892" data-name="Trazado 95892" d="M616.382,341.279v-9.974a.769.769,0,0,1,.769-.769h4.829a.767.767,0,0,1,.268.051.767.767,0,0,0-.718-.5H616.7a.769.769,0,0,0-.769.769v9.974a.768.768,0,0,0,.5.718A.764.764,0,0,1,616.382,341.279Z" transform="translate(-595.278 -310.474)" fill="#f9c110"/>
    </g>
    <g id="Grupo_46283" data-name="Grupo 46283" transform="translate(230.787 47.141)">
      <path id="Trazado_95952" data-name="Trazado 95952" d="M614.618,206.7h-29.41l3.522-2.606v-12.72a1.922,1.922,0,0,1,1.922-1.922h23.966a1.922,1.922,0,0,1,1.922,1.922v13.4A1.922,1.922,0,0,1,614.618,206.7Z" transform="translate(-585.208 -189.453)" fill="#dbdada"/>
      <g id="Grupo_46065" data-name="Grupo 46065" transform="translate(5.837 2.481)">
        <rect id="Rectángulo_28246" data-name="Rectángulo 28246" width="13.441" height="1.286" transform="translate(9.499)" fill="#fff" opacity="0.45"/>
        <rect id="Rectángulo_28247" data-name="Rectángulo 28247" width="13.441" height="1.286" transform="translate(9.499 1.921)" fill="#fff" opacity="0.45"/>
        <rect id="Rectángulo_28248" data-name="Rectángulo 28248" width="13.441" height="1.286" transform="translate(9.499 3.842)" fill="#fff" opacity="0.45"/>
        <rect id="Rectángulo_28249" data-name="Rectángulo 28249" width="13.441" height="1.286" transform="translate(9.499 5.715)" fill="#fff" opacity="0.45"/>
        <rect id="Rectángulo_28250" data-name="Rectángulo 28250" width="9.373" height="1.286" transform="translate(9.499 7.954)" fill="#fff" opacity="0.45"/>
        <g id="Grupo_46064" data-name="Grupo 46064">
          <rect id="Rectángulo_28251" data-name="Rectángulo 28251" width="8.443" height="9.872" rx="3.385" fill="#00223d"/>
          <rect id="Rectángulo_28252" data-name="Rectángulo 28252" width="8.443" height="1.06" transform="translate(0 11.101)" fill="#fff" opacity="0.45"/>
          <g id="Grupo_46063" data-name="Grupo 46063" transform="translate(1.019 2.21)">
            <path id="Trazado_95953" data-name="Trazado 95953" d="M601.155,202.726h-3.064a.382.382,0,0,1-.369-.282l-.589-2.177a.382.382,0,0,1,.369-.482h4.243a.382.382,0,0,1,.369.482l-.589,2.177A.382.382,0,0,1,601.155,202.726Z" transform="translate(-597.12 -198.53)" fill="url(#linear-gradient)"/>
            <g id="Grupo_46061" data-name="Grupo 46061" transform="translate(0.809)">
              <path id="Trazado_95954" data-name="Trazado 95954" d="M602.292,202.29H598.6a.076.076,0,0,1,0-.153h3.632l1.284-4.478a.076.076,0,0,1,.073-.055h.8a.076.076,0,0,1,0,.153h-.745l-1.284,4.478A.076.076,0,0,1,602.292,202.29Z" transform="translate(-598.526 -197.604)" fill="url(#linear-gradient)"/>
            </g>
            <g id="Grupo_46062" data-name="Grupo 46062" transform="translate(0.558 4.839)">
              <path id="Trazado_95955" data-name="Trazado 95955" d="M598.982,206.458a.446.446,0,1,1-.447-.446A.447.447,0,0,1,598.982,206.458Z" transform="translate(-598.089 -206.012)" fill="url(#linear-gradient)"/>
              <circle id="Elipse_3864" data-name="Elipse 3864" cx="0.446" cy="0.446" r="0.446" transform="translate(3.244)" fill="url(#linear-gradient)"/>
            </g>
          </g>
        </g>
      </g>
    </g>
    <g id="Grupo_46127" data-name="Grupo 46127" transform="translate(241.748 118.087)">
      <path id="Trazado_96054" data-name="Trazado 96054" d="M164.893,75.082a4.7,4.7,0,0,0-1.038-1.333,4.02,4.02,0,0,0-1.94-.713.476.476,0,0,0,.108.526,2.82,2.82,0,0,0,.868.519,2.054,2.054,0,0,1-1.1-.2c-.826-.293-1.719-.978-2.031-.521s.044,1.519,1.04,2.186a20.251,20.251,0,0,0,2.835,1.392Z" transform="translate(-159.651 -57.224)" fill="#ffbd99" fill-rule="evenodd"/>
      <path id="Trazado_96055" data-name="Trazado 96055" d="M166.6,78.559l.31,39.619,2.842.069s1.293-10.744,1.293-15.312a19.908,19.908,0,0,0-.912-6.822l2.313-15.164s-.654-.888-1.261-1.746l-.216-.02a42.4,42.4,0,0,1-4.369-.624Z" transform="translate(-149.51 -49.17)" fill="#00223d" fill-rule="evenodd"/>
      <path id="Trazado_96056" data-name="Trazado 96056" d="M167.181,78.9l3.865,5.977,5.807,33.391,2.845.069s.546-12.966-.8-17.655-2.07-5.242-2.07-5.242.558-10.67-.519-15.489L175.065,78.5a10.7,10.7,0,0,1-4.934.777c-1.2-.118-2.208-.256-2.95-.374Z" transform="translate(-148.668 -49.26)" fill="#00223d" fill-rule="evenodd"/>
      <path id="Trazado_96057" data-name="Trazado 96057" d="M179.895,70.688,184,71.831a3.856,3.856,0,0,1,2.591,2.392l3.747,10.2a2.708,2.708,0,0,1-.538,2.754l-4.226,4.659L183.9,89.886s-3.12,3.412-5.787,3.154a7.585,7.585,0,0,1-3.516-.91L174,81.712l-1.183,2.23a2.539,2.539,0,0,1-3.494,1.023l-8.2-4.627,1.308-2.372,5.743,2.847a1.642,1.642,0,0,0,2.264-.895l1.817-4.873a3.864,3.864,0,0,1,1.753-2.033l3.336-1.844Zm4.784,8.374,2,4.846a2.7,2.7,0,0,1-.494,2.847l-1.443,1.6Z" transform="translate(-157.502 -60.65)" fill="#26aab7" fill-rule="evenodd"/>
      <path id="Trazado_96058" data-name="Trazado 96058" d="M171.025,78.536c-.192.128-.435.3-.583.406-.268.2-.435.329-.435.329a2.781,2.781,0,0,0,1.448,1.832,7.2,7.2,0,0,0,.912-1.006Z" transform="translate(-144.546 -49.204)" fill="#ffbd99" fill-rule="evenodd"/>
      <path id="Trazado_96059" data-name="Trazado 96059" d="M170.79,69.834h-3.068v2.579a1.54,1.54,0,0,0,1.537,1.534h0a1.539,1.539,0,0,0,1.532-1.534Z" transform="translate(-147.879 -61.895)" fill="#eda27c" fill-rule="evenodd"/>
      <path id="Trazado_96060" data-name="Trazado 96060" d="M169.769,66.952c-1.782.064-3.159,1.957-3.071,4.226s.529,4.391,3.194,4.565,3.339-2.537,3.255-4.806-1.6-4.054-3.378-3.985Z" transform="translate(-149.378 -66.102)" fill="#ffbd99" fill-rule="evenodd"/>
      <path id="Trazado_96061" data-name="Trazado 96061" d="M174.186,68.311a1.991,1.991,0,0,0-1.628-1.657c-1.455-.261-6.8.6-6.8.6s.809,2.881,2.773,3.25a12.536,12.536,0,0,0,4.428-.231,6.339,6.339,0,0,0,.231,2.252,6.4,6.4,0,0,0,.971,1.578s1.369-2.168,1.094-3.914-1.067-1.878-1.067-1.878Z" transform="translate(-150.746 -66.605)" fill="#00223d" fill-rule="evenodd"/>
      <path id="Trazado_96062" data-name="Trazado 96062" d="M168.679,98.162l5.392,0,1.293-.546.123.551h2.031l.172-3.228-2.862-.069s-3.907,2.122-5.323,2.055-.826,1.242-.826,1.242Z" transform="translate(-146.66 -25.388)" fill="#1363b2" fill-rule="evenodd"/>
      <path id="Trazado_96063" data-name="Trazado 96063" d="M164.32,97.946l5.35,0,1.288-.541.118.543h2.018l.17-3.2-2.842-.069s-3.88,2.107-5.283,2.043-.819,1.229-.819,1.229Z" transform="translate(-153.018 -25.666)" fill="#1363b2" fill-rule="evenodd"/>
    </g>
  </g>
</svg>
