<svg xmlns="http://www.w3.org/2000/svg" width="302.611" height="301.768" viewBox="0 0 302.611 301.768">
  <g id="Grupo_12256" data-name="Grupo 12256" transform="translate(-1166.545 -133.064)">
    <rect id="Rectángulo_2736" data-name="Rectángulo 2736" width="110.939" height="110.939" rx="10" transform="translate(1358.217 201.907)" fill="#b54273"/>
    <rect id="Rectángulo_2737" data-name="Rectángulo 2737" width="110.939" height="110.939" rx="10" transform="translate(1235.388 201.907)" fill="#7d6eb2"/>
    <rect id="Rectángulo_2738" data-name="Rectángulo 2738" width="110.939" height="110.939" rx="10" transform="translate(1235.388 323.893)" fill="#167377"/>
    <rect id="Rectángulo_2739" data-name="Rectángulo 2739" width="110.939" height="110.939" rx="10" transform="translate(1358.217 323.893)" fill="#ffd947"/>
    <path id="Trazado_131818" data-name="Trazado 131818" d="M-42.993-3.256V0h-1.9V-9.242h3.605a4.171,4.171,0,0,1,1.831.381,2.807,2.807,0,0,1,1.216,1.082,3.018,3.018,0,0,1,.425,1.6,2.654,2.654,0,0,1-.93,2.142,3.873,3.873,0,0,1-2.574.784Zm0-1.542h1.7a1.673,1.673,0,0,0,1.152-.355,1.293,1.293,0,0,0,.4-1.016,1.524,1.524,0,0,0-.4-1.1,1.494,1.494,0,0,0-1.1-.432h-1.746ZM-33.554.127A3.372,3.372,0,0,1-36.013-.8a3.294,3.294,0,0,1-.949-2.469v-.178a4.149,4.149,0,0,1,.4-1.85,2.935,2.935,0,0,1,1.133-1.257A3.18,3.18,0,0,1-33.757-7a2.85,2.85,0,0,1,2.219.889,3.611,3.611,0,0,1,.809,2.52v.749H-35.1a1.7,1.7,0,0,0,.536,1.079,1.621,1.621,0,0,0,1.133.406,1.98,1.98,0,0,0,1.657-.768l.9,1.009A2.754,2.754,0,0,1-31.992-.2,3.665,3.665,0,0,1-33.554.127Zm-.209-5.643a1.146,1.146,0,0,0-.885.37,1.915,1.915,0,0,0-.435,1.058h2.552v-.147a1.366,1.366,0,0,0-.33-.947A1.183,1.183,0,0,0-33.763-5.516ZM-28-6.868l.057.793A2.4,2.4,0,0,1-25.968-7a1.993,1.993,0,0,1,1.625.641A2.991,2.991,0,0,1-23.8-4.437V0h-1.834V-4.4a1.2,1.2,0,0,0-.254-.849,1.135,1.135,0,0,0-.844-.264,1.261,1.261,0,0,0-1.162.662V0h-1.834V-6.868Zm8.753,7A3.372,3.372,0,0,1-21.706-.8a3.294,3.294,0,0,1-.949-2.469v-.178a4.149,4.149,0,0,1,.4-1.85,2.935,2.935,0,0,1,1.133-1.257A3.18,3.18,0,0,1-19.449-7a2.85,2.85,0,0,1,2.219.889,3.611,3.611,0,0,1,.809,2.52v.749h-4.374a1.7,1.7,0,0,0,.536,1.079,1.621,1.621,0,0,0,1.133.406,1.98,1.98,0,0,0,1.657-.768l.9,1.009A2.754,2.754,0,0,1-17.685-.2,3.665,3.665,0,0,1-19.246.127Zm-.209-5.643a1.146,1.146,0,0,0-.885.37,1.915,1.915,0,0,0-.435,1.058h2.552v-.147a1.366,1.366,0,0,0-.33-.947A1.183,1.183,0,0,0-19.456-5.516Zm6.271-3.041v1.688h1.174v1.346h-1.174v3.428a.818.818,0,0,0,.146.546.733.733,0,0,0,.559.165,2.925,2.925,0,0,0,.54-.044v1.39a3.777,3.777,0,0,1-1.111.165,1.752,1.752,0,0,1-1.968-1.949v-3.7h-1V-6.868h1V-8.557Zm6.056,3.409a4.984,4.984,0,0,0-.66-.051,1.344,1.344,0,0,0-1.365.7V0h-1.834V-6.868h1.733l.051.819A1.7,1.7,0,0,1-7.674-7a1.922,1.922,0,0,1,.571.083ZM-2.457,0a2.037,2.037,0,0,1-.184-.616A2.22,2.22,0,0,1-4.374.127,2.439,2.439,0,0,1-6.046-.457,1.878,1.878,0,0,1-6.709-1.93,1.941,1.941,0,0,1-5.9-3.605,3.994,3.994,0,0,1-3.561-4.2h.844v-.394a1.132,1.132,0,0,0-.244-.762.961.961,0,0,0-.771-.286,1.093,1.093,0,0,0-.727.222.755.755,0,0,0-.263.609H-6.557a1.843,1.843,0,0,1,.368-1.1,2.434,2.434,0,0,1,1.041-.8A3.794,3.794,0,0,1-3.637-7a3,3,0,0,1,2.015.638A2.232,2.232,0,0,1-.876-4.564v2.977A3.284,3.284,0,0,0-.6-.108V0ZM-3.974-1.276a1.58,1.58,0,0,0,.749-.181,1.188,1.188,0,0,0,.508-.486V-3.123H-3.4q-1.377,0-1.466.952l-.006.108a.734.734,0,0,0,.241.565A.937.937,0,0,0-3.974-1.276ZM3.39-1.352a1.2,1.2,0,0,0,.825-.279.979.979,0,0,0,.33-.743h1.72a2.353,2.353,0,0,1-.381,1.279,2.513,2.513,0,0,1-1.025.9A3.208,3.208,0,0,1,3.421.127,2.982,2.982,0,0,1,1.1-.809,3.705,3.705,0,0,1,.248-3.4v-.121a3.663,3.663,0,0,1,.844-2.533A2.947,2.947,0,0,1,3.409-7a2.889,2.889,0,0,1,2.066.733,2.6,2.6,0,0,1,.79,1.952H4.545a1.261,1.261,0,0,0-.33-.871,1.1,1.1,0,0,0-.838-.335,1.1,1.1,0,0,0-.968.467,2.708,2.708,0,0,0-.327,1.516v.191a2.742,2.742,0,0,0,.324,1.526A1.119,1.119,0,0,0,3.39-1.352ZM9.249,0H7.408V-6.868H9.249ZM7.3-8.646a.9.9,0,0,1,.276-.679,1.037,1.037,0,0,1,.752-.267,1.04,1.04,0,0,1,.749.267.9.9,0,0,1,.279.679.9.9,0,0,1-.282.686,1.042,1.042,0,0,1-.746.267,1.042,1.042,0,0,1-.746-.267A.9.9,0,0,1,7.3-8.646ZM10.474-3.5a4.073,4.073,0,0,1,.394-1.822A2.881,2.881,0,0,1,12-6.557,3.306,3.306,0,0,1,13.717-7a3.128,3.128,0,0,1,2.269.851,3.414,3.414,0,0,1,.981,2.311l.013.47A3.59,3.59,0,0,1,16.1-.828,3.067,3.067,0,0,1,13.73.127a3.082,3.082,0,0,1-2.371-.952,3.653,3.653,0,0,1-.885-2.59Zm1.834.13a2.567,2.567,0,0,0,.368,1.5,1.215,1.215,0,0,0,1.054.518,1.217,1.217,0,0,0,1.041-.512A2.809,2.809,0,0,0,15.146-3.5a2.542,2.542,0,0,0-.375-1.488,1.217,1.217,0,0,0-1.054-.528,1.2,1.2,0,0,0-1.041.524A2.857,2.857,0,0,0,12.308-3.367ZM14.079-9.75h2L14.32-7.782H12.829ZM19.8-6.868l.057.793A2.4,2.4,0,0,1,21.83-7a1.993,1.993,0,0,1,1.625.641A2.991,2.991,0,0,1,24-4.437V0H22.166V-4.4a1.2,1.2,0,0,0-.254-.849,1.135,1.135,0,0,0-.844-.264,1.261,1.261,0,0,0-1.162.662V0H18.072V-6.868Zm8.544,3.383a4.139,4.139,0,0,1,.72-2.558A2.338,2.338,0,0,1,31.034-7a2.1,2.1,0,0,1,1.657.749v-3.5h1.841V0H32.875l-.089-.73a2.159,2.159,0,0,1-1.765.857,2.331,2.331,0,0,1-1.946-.955A4.272,4.272,0,0,1,28.342-3.485Zm1.834.131a2.726,2.726,0,0,0,.336,1.486,1.1,1.1,0,0,0,.978.517,1.227,1.227,0,0,0,1.2-.721V-4.8A1.21,1.21,0,0,0,31.5-5.516Q30.177-5.516,30.177-3.354ZM39.114.127A3.372,3.372,0,0,1,36.655-.8a3.294,3.294,0,0,1-.949-2.469v-.178a4.149,4.149,0,0,1,.4-1.85,2.935,2.935,0,0,1,1.133-1.257A3.18,3.18,0,0,1,38.911-7a2.85,2.85,0,0,1,2.219.889,3.611,3.611,0,0,1,.809,2.52v.749H37.565A1.7,1.7,0,0,0,38.1-1.758a1.621,1.621,0,0,0,1.133.406,1.98,1.98,0,0,0,1.657-.768l.9,1.009A2.754,2.754,0,0,1,40.676-.2,3.665,3.665,0,0,1,39.114.127ZM38.9-5.516a1.146,1.146,0,0,0-.885.37,1.915,1.915,0,0,0-.435,1.058h2.552v-.147a1.366,1.366,0,0,0-.33-.947A1.183,1.183,0,0,0,38.9-5.516ZM44.916,0H43.075V-9.75h1.841ZM-23.239,4.132l.057.768A2.414,2.414,0,0,1-21.208,4a1.832,1.832,0,0,1,1.822,1.047A2.358,2.358,0,0,1-17.323,4a2.049,2.049,0,0,1,1.663.651,2.991,2.991,0,0,1,.546,1.958V11h-1.841V6.61a1.313,1.313,0,0,0-.229-.856,1.011,1.011,0,0,0-.806-.27,1.145,1.145,0,0,0-1.143.789L-19.125,11H-20.96V6.616a1.3,1.3,0,0,0-.235-.865,1.021,1.021,0,0,0-.8-.267,1.188,1.188,0,0,0-1.13.649V11h-1.834V4.132Zm12.7,7A3.372,3.372,0,0,1-13,10.2a3.294,3.294,0,0,1-.949-2.469V7.553a4.149,4.149,0,0,1,.4-1.85,2.935,2.935,0,0,1,1.133-1.257A3.18,3.18,0,0,1-10.747,4a2.85,2.85,0,0,1,2.219.889,3.611,3.611,0,0,1,.809,2.52v.749h-4.374a1.7,1.7,0,0,0,.536,1.079,1.621,1.621,0,0,0,1.133.406A1.98,1.98,0,0,0-8.766,8.88l.9,1.009a2.754,2.754,0,0,1-1.117.911A3.665,3.665,0,0,1-10.543,11.127Zm-.209-5.643a1.146,1.146,0,0,0-.885.37,1.915,1.915,0,0,0-.435,1.058h2.552V6.765a1.366,1.366,0,0,0-.33-.947A1.183,1.183,0,0,0-10.753,5.484Zm7.935.368a4.984,4.984,0,0,0-.66-.051,1.344,1.344,0,0,0-1.365.7V11H-6.678V4.132h1.733l.051.819A1.7,1.7,0,0,1-3.364,4a1.922,1.922,0,0,1,.571.083ZM.8,9.648a1.2,1.2,0,0,0,.825-.279.979.979,0,0,0,.33-.743h1.72a2.353,2.353,0,0,1-.381,1.279,2.513,2.513,0,0,1-1.025.9,3.208,3.208,0,0,1-1.438.321,2.982,2.982,0,0,1-2.323-.936A3.705,3.705,0,0,1-2.342,7.6V7.483A3.663,3.663,0,0,1-1.5,4.951,2.947,2.947,0,0,1,.819,4a2.889,2.889,0,0,1,2.066.733,2.6,2.6,0,0,1,.79,1.952H1.955a1.261,1.261,0,0,0-.33-.871,1.1,1.1,0,0,0-.838-.335,1.1,1.1,0,0,0-.968.467A2.708,2.708,0,0,0-.508,7.467v.191A2.742,2.742,0,0,0-.184,9.184,1.119,1.119,0,0,0,.8,9.648ZM8.7,11a2.037,2.037,0,0,1-.184-.616,2.22,2.22,0,0,1-1.733.743,2.439,2.439,0,0,1-1.673-.584A1.878,1.878,0,0,1,4.45,9.07a1.941,1.941,0,0,1,.809-1.676A3.994,3.994,0,0,1,7.6,6.8h.844V6.411A1.132,1.132,0,0,0,8.2,5.649a.961.961,0,0,0-.771-.286,1.093,1.093,0,0,0-.727.222.755.755,0,0,0-.263.609H4.6a1.843,1.843,0,0,1,.368-1.1,2.434,2.434,0,0,1,1.041-.8A3.794,3.794,0,0,1,7.522,4a3,3,0,0,1,2.015.638,2.232,2.232,0,0,1,.746,1.793V9.413a3.284,3.284,0,0,0,.273,1.479V11ZM7.186,9.724a1.58,1.58,0,0,0,.749-.181,1.188,1.188,0,0,0,.508-.486V7.877H7.757q-1.377,0-1.466.952l-.006.108a.734.734,0,0,0,.241.565A.937.937,0,0,0,7.186,9.724Zm4.221-2.209a4.139,4.139,0,0,1,.72-2.558A2.338,2.338,0,0,1,14.1,4a2.1,2.1,0,0,1,1.657.749V1.25H17.6V11H15.939l-.089-.73a2.159,2.159,0,0,1-1.765.857,2.331,2.331,0,0,1-1.946-.955A4.272,4.272,0,0,1,11.407,7.515Zm1.834.131a2.726,2.726,0,0,0,.336,1.486,1.1,1.1,0,0,0,.978.517,1.227,1.227,0,0,0,1.2-.721V6.2a1.21,1.21,0,0,0-1.187-.721Q13.241,5.484,13.241,7.646ZM18.732,7.5a4.073,4.073,0,0,1,.394-1.822,2.881,2.881,0,0,1,1.133-1.238A3.306,3.306,0,0,1,21.976,4a3.127,3.127,0,0,1,2.269.851,3.414,3.414,0,0,1,.981,2.311l.013.47a3.59,3.59,0,0,1-.882,2.536,3.067,3.067,0,0,1-2.368.955,3.082,3.082,0,0,1-2.371-.952,3.653,3.653,0,0,1-.885-2.59Zm1.834.13a2.567,2.567,0,0,0,.368,1.5,1.323,1.323,0,0,0,2.095.006A2.809,2.809,0,0,0,23.4,7.5a2.542,2.542,0,0,0-.375-1.488,1.217,1.217,0,0,0-1.054-.528,1.2,1.2,0,0,0-1.041.524A2.857,2.857,0,0,0,20.566,7.633Z" transform="translate(1289.483 257.523)" fill="#fff"/>
    <path id="Trazado_131813" data-name="Trazado 131813" d="M-22.017-2.791h-4.468l-1,2.791h-1.45l4.072-10.664h1.23L-19.556,0H-21ZM-26.06-3.94h3.625L-24.25-8.928ZM-15.154-.959A1.952,1.952,0,0,0-13.887-1.4a1.546,1.546,0,0,0,.6-1.1H-12a2.457,2.457,0,0,1-.469,1.3,3.087,3.087,0,0,1-1.154.981,3.329,3.329,0,0,1-1.527.366,3.265,3.265,0,0,1-2.574-1.08,4.3,4.3,0,0,1-.956-2.955v-.227a4.771,4.771,0,0,1,.425-2.058,3.236,3.236,0,0,1,1.219-1.4,3.464,3.464,0,0,1,1.879-.5,3.178,3.178,0,0,1,2.216.8A2.853,2.853,0,0,1-12-5.2h-1.282a1.867,1.867,0,0,0-.582-1.263,1.811,1.811,0,0,0-1.293-.494,1.9,1.9,0,0,0-1.6.743,3.491,3.491,0,0,0-.568,2.15v.256A3.422,3.422,0,0,0-16.765-1.7,1.906,1.906,0,0,0-15.154-.959Zm6.511-8.884v1.919h1.479v1.047H-8.643v4.921a1.1,1.1,0,0,0,.2.715A.832.832,0,0,0-7.771-1a3.281,3.281,0,0,0,.645-.088V0a3.951,3.951,0,0,1-1.04.146A1.687,1.687,0,0,1-9.536-.4,2.36,2.36,0,0,1-10-1.963V-6.877H-11.44V-7.925H-10V-9.844ZM-.688-.784A2.878,2.878,0,0,1-3.01.146,2.464,2.464,0,0,1-4.94-.59a3.186,3.186,0,0,1-.67-2.179V-7.925h1.355v5.12q0,1.8,1.465,1.8A2.028,2.028,0,0,0-.725-2.161V-7.925H.63V0H-.659ZM7.581,0a2.846,2.846,0,0,1-.19-.835A3.023,3.023,0,0,1,5.134.146,2.8,2.8,0,0,1,3.212-.516,2.145,2.145,0,0,1,2.461-2.2,2.24,2.24,0,0,1,3.4-4.12,4.437,4.437,0,0,1,6.05-4.8H7.368v-.623a1.522,1.522,0,0,0-.425-1.132A1.707,1.707,0,0,0,5.691-6.98a1.976,1.976,0,0,0-1.216.366,1.079,1.079,0,0,0-.491.886H2.622a1.87,1.87,0,0,1,.421-1.146,2.874,2.874,0,0,1,1.143-.875,3.844,3.844,0,0,1,1.586-.322,3.133,3.133,0,0,1,2.146.685A2.47,2.47,0,0,1,8.723-5.5v3.647A4.459,4.459,0,0,0,9-.117V0ZM5.332-1.033a2.381,2.381,0,0,0,1.208-.33,1.994,1.994,0,0,0,.828-.857V-3.845H6.306q-2.49,0-2.49,1.458a1.234,1.234,0,0,0,.425,1A1.633,1.633,0,0,0,5.332-1.033ZM12.319,0H10.964V-11.25h1.355Zm5.457.146A3.463,3.463,0,0,1,15.154-.912a3.928,3.928,0,0,1-1.011-2.831v-.249a4.756,4.756,0,0,1,.45-2.106,3.514,3.514,0,0,1,1.26-1.45,3.167,3.167,0,0,1,1.754-.524,2.968,2.968,0,0,1,2.4,1.018,4.408,4.408,0,0,1,.857,2.915v.564H15.5a2.817,2.817,0,0,0,.685,1.893,2.153,2.153,0,0,0,1.666.721,2.36,2.36,0,0,0,1.216-.293,3.055,3.055,0,0,0,.872-.776l.828.645A3.328,3.328,0,0,1,17.776.146Zm-.168-7.1a1.807,1.807,0,0,0-1.377.6,2.9,2.9,0,0,0-.688,1.674h3.97v-.1a2.581,2.581,0,0,0-.557-1.6A1.7,1.7,0,0,0,17.607-6.958ZM27.048-2.1a1,1,0,0,0-.414-.853,3.983,3.983,0,0,0-1.443-.524,6.822,6.822,0,0,1-1.633-.527,2.324,2.324,0,0,1-.894-.732,1.752,1.752,0,0,1-.289-1.011A2.056,2.056,0,0,1,23.2-7.4a3.218,3.218,0,0,1,2.106-.674,3.311,3.311,0,0,1,2.186.7A2.21,2.21,0,0,1,28.33-5.6H26.968a1.223,1.223,0,0,0-.472-.959,1.77,1.77,0,0,0-1.19-.4,1.852,1.852,0,0,0-1.157.322,1.014,1.014,0,0,0-.417.842.822.822,0,0,0,.388.74,4.776,4.776,0,0,0,1.4.476,7.308,7.308,0,0,1,1.644.542,2.4,2.4,0,0,1,.934.758,1.864,1.864,0,0,1,.3,1.08,2.028,2.028,0,0,1-.85,1.7,3.564,3.564,0,0,1-2.2.641A3.991,3.991,0,0,1,23.665-.19a2.74,2.74,0,0,1-1.146-.941A2.268,2.268,0,0,1,22.1-2.439h1.355a1.4,1.4,0,0,0,.546,1.08,2.117,2.117,0,0,0,1.344.4,2.185,2.185,0,0,0,1.234-.311A.956.956,0,0,0,27.048-2.1Z" transform="translate(1287.976 188.581)" fill="#12263f"/>
    <path id="Trazado_131815" data-name="Trazado 131815" d="M-22.017-2.791h-4.468l-1,2.791h-1.45l4.072-10.664h1.23L-19.556,0H-21ZM-26.06-3.94h3.625L-24.25-8.928ZM-15.154-.959A1.952,1.952,0,0,0-13.887-1.4a1.546,1.546,0,0,0,.6-1.1H-12a2.457,2.457,0,0,1-.469,1.3,3.087,3.087,0,0,1-1.154.981,3.329,3.329,0,0,1-1.527.366,3.265,3.265,0,0,1-2.574-1.08,4.3,4.3,0,0,1-.956-2.955v-.227a4.771,4.771,0,0,1,.425-2.058,3.236,3.236,0,0,1,1.219-1.4,3.464,3.464,0,0,1,1.879-.5,3.178,3.178,0,0,1,2.216.8A2.853,2.853,0,0,1-12-5.2h-1.282a1.867,1.867,0,0,0-.582-1.263,1.811,1.811,0,0,0-1.293-.494,1.9,1.9,0,0,0-1.6.743,3.491,3.491,0,0,0-.568,2.15v.256A3.422,3.422,0,0,0-16.765-1.7,1.906,1.906,0,0,0-15.154-.959Zm6.511-8.884v1.919h1.479v1.047H-8.643v4.921a1.1,1.1,0,0,0,.2.715A.832.832,0,0,0-7.771-1a3.281,3.281,0,0,0,.645-.088V0a3.951,3.951,0,0,1-1.04.146A1.687,1.687,0,0,1-9.536-.4,2.36,2.36,0,0,1-10-1.963V-6.877H-11.44V-7.925H-10V-9.844ZM-.688-.784A2.878,2.878,0,0,1-3.01.146,2.464,2.464,0,0,1-4.94-.59a3.186,3.186,0,0,1-.67-2.179V-7.925h1.355v5.12q0,1.8,1.465,1.8A2.028,2.028,0,0,0-.725-2.161V-7.925H.63V0H-.659ZM7.581,0a2.846,2.846,0,0,1-.19-.835A3.023,3.023,0,0,1,5.134.146,2.8,2.8,0,0,1,3.212-.516,2.145,2.145,0,0,1,2.461-2.2,2.24,2.24,0,0,1,3.4-4.12,4.437,4.437,0,0,1,6.05-4.8H7.368v-.623a1.522,1.522,0,0,0-.425-1.132A1.707,1.707,0,0,0,5.691-6.98a1.976,1.976,0,0,0-1.216.366,1.079,1.079,0,0,0-.491.886H2.622a1.87,1.87,0,0,1,.421-1.146,2.874,2.874,0,0,1,1.143-.875,3.844,3.844,0,0,1,1.586-.322,3.133,3.133,0,0,1,2.146.685A2.47,2.47,0,0,1,8.723-5.5v3.647A4.459,4.459,0,0,0,9-.117V0ZM5.332-1.033a2.381,2.381,0,0,0,1.208-.33,1.994,1.994,0,0,0,.828-.857V-3.845H6.306q-2.49,0-2.49,1.458a1.234,1.234,0,0,0,.425,1A1.633,1.633,0,0,0,5.332-1.033ZM12.319,0H10.964V-11.25h1.355Zm5.457.146A3.463,3.463,0,0,1,15.154-.912a3.928,3.928,0,0,1-1.011-2.831v-.249a4.756,4.756,0,0,1,.45-2.106,3.514,3.514,0,0,1,1.26-1.45,3.167,3.167,0,0,1,1.754-.524,2.968,2.968,0,0,1,2.4,1.018,4.408,4.408,0,0,1,.857,2.915v.564H15.5a2.817,2.817,0,0,0,.685,1.893,2.153,2.153,0,0,0,1.666.721,2.36,2.36,0,0,0,1.216-.293,3.055,3.055,0,0,0,.872-.776l.828.645A3.328,3.328,0,0,1,17.776.146Zm-.168-7.1a1.807,1.807,0,0,0-1.377.6,2.9,2.9,0,0,0-.688,1.674h3.97v-.1a2.581,2.581,0,0,0-.557-1.6A1.7,1.7,0,0,0,17.607-6.958ZM27.048-2.1a1,1,0,0,0-.414-.853,3.983,3.983,0,0,0-1.443-.524,6.822,6.822,0,0,1-1.633-.527,2.324,2.324,0,0,1-.894-.732,1.752,1.752,0,0,1-.289-1.011A2.056,2.056,0,0,1,23.2-7.4a3.218,3.218,0,0,1,2.106-.674,3.311,3.311,0,0,1,2.186.7A2.21,2.21,0,0,1,28.33-5.6H26.968a1.223,1.223,0,0,0-.472-.959,1.77,1.77,0,0,0-1.19-.4,1.852,1.852,0,0,0-1.157.322,1.014,1.014,0,0,0-.417.842.822.822,0,0,0,.388.74,4.776,4.776,0,0,0,1.4.476,7.308,7.308,0,0,1,1.644.542,2.4,2.4,0,0,1,.934.758,1.864,1.864,0,0,1,.3,1.08,2.028,2.028,0,0,1-.85,1.7,3.564,3.564,0,0,1-2.2.641A3.991,3.991,0,0,1,23.665-.19a2.74,2.74,0,0,1-1.146-.941A2.268,2.268,0,0,1,22.1-2.439h1.355a1.4,1.4,0,0,0,.546,1.08,2.117,2.117,0,0,0,1.344.4,2.185,2.185,0,0,0,1.234-.311A.956.956,0,0,0,27.048-2.1Z" transform="translate(1221.062 264.257) rotate(-90)" fill="#12263f"/>
    <path id="Trazado_131814" data-name="Trazado 131814" d="M-15.7,0h-1.414l-5.369-8.218V0h-1.414V-10.664h1.414l5.383,8.254v-8.254h1.4Zm7.178-.784a2.878,2.878,0,0,1-2.322.93A2.464,2.464,0,0,1-12.77-.59a3.186,3.186,0,0,1-.67-2.179V-7.925h1.355v5.12q0,1.8,1.465,1.8A2.028,2.028,0,0,0-8.555-2.161V-7.925H-7.2V0H-8.489Zm6.665.93A3.463,3.463,0,0,1-4.475-.912,3.928,3.928,0,0,1-5.486-3.743v-.249A4.756,4.756,0,0,1-5.035-6.1a3.514,3.514,0,0,1,1.26-1.45,3.167,3.167,0,0,1,1.754-.524,2.968,2.968,0,0,1,2.4,1.018,4.408,4.408,0,0,1,.857,2.915v.564H-4.131a2.817,2.817,0,0,0,.685,1.893A2.153,2.153,0,0,0-1.78-.959,2.36,2.36,0,0,0-.564-1.252a3.055,3.055,0,0,0,.872-.776l.828.645A3.328,3.328,0,0,1-1.853.146Zm-.168-7.1a1.807,1.807,0,0,0-1.377.6,2.9,2.9,0,0,0-.688,1.674h3.97v-.1a2.581,2.581,0,0,0-.557-1.6A1.7,1.7,0,0,0-2.021-6.958Zm7.346,5.12L7.288-7.925H8.672L5.83,0H4.8L1.926-7.925H3.311Zm4.182-2.2A4.681,4.681,0,0,1,9.965-6.13a3.415,3.415,0,0,1,1.274-1.436A3.469,3.469,0,0,1,13.1-8.071a3.342,3.342,0,0,1,2.618,1.121,4.311,4.311,0,0,1,1,2.981v.1A4.722,4.722,0,0,1,16.278-1.8,3.365,3.365,0,0,1,15.011-.366a3.509,3.509,0,0,1-1.893.513A3.334,3.334,0,0,1,10.507-.974a4.29,4.29,0,0,1-1-2.966Zm1.362.161a3.39,3.39,0,0,0,.612,2.117,1.957,1.957,0,0,0,1.637.8,1.945,1.945,0,0,0,1.641-.809,3.707,3.707,0,0,0,.608-2.267,3.384,3.384,0,0,0-.619-2.113A1.968,1.968,0,0,0,13.1-6.958a1.946,1.946,0,0,0-1.619.8A3.68,3.68,0,0,0,10.869-3.875ZM23.035-2.1a1,1,0,0,0-.414-.853,3.983,3.983,0,0,0-1.443-.524,6.822,6.822,0,0,1-1.633-.527,2.324,2.324,0,0,1-.894-.732,1.752,1.752,0,0,1-.289-1.011A2.056,2.056,0,0,1,19.186-7.4a3.218,3.218,0,0,1,2.106-.674,3.311,3.311,0,0,1,2.186.7,2.21,2.21,0,0,1,.839,1.78H22.954a1.223,1.223,0,0,0-.472-.959,1.77,1.77,0,0,0-1.19-.4,1.852,1.852,0,0,0-1.157.322,1.014,1.014,0,0,0-.417.842.822.822,0,0,0,.388.74,4.776,4.776,0,0,0,1.4.476,7.308,7.308,0,0,1,1.644.542,2.4,2.4,0,0,1,.934.758,1.864,1.864,0,0,1,.3,1.08,2.028,2.028,0,0,1-.85,1.7,3.564,3.564,0,0,1-2.2.641A3.991,3.991,0,0,1,19.651-.19,2.74,2.74,0,0,1,18.5-1.132a2.268,2.268,0,0,1-.414-1.307h1.355a1.4,1.4,0,0,0,.546,1.08,2.117,2.117,0,0,0,1.344.4,2.185,2.185,0,0,0,1.234-.311A.956.956,0,0,0,23.035-2.1Z" transform="translate(1412.231 188.581)" fill="#12263f"/>
    <path id="Trazado_131817" data-name="Trazado 131817" d="M-15.7,0h-1.414l-5.369-8.218V0h-1.414V-10.664h1.414l5.383,8.254v-8.254h1.4Zm7.178-.784a2.878,2.878,0,0,1-2.322.93A2.464,2.464,0,0,1-12.77-.59a3.186,3.186,0,0,1-.67-2.179V-7.925h1.355v5.12q0,1.8,1.465,1.8A2.028,2.028,0,0,0-8.555-2.161V-7.925H-7.2V0H-8.489Zm6.665.93A3.463,3.463,0,0,1-4.475-.912,3.928,3.928,0,0,1-5.486-3.743v-.249A4.756,4.756,0,0,1-5.035-6.1a3.514,3.514,0,0,1,1.26-1.45,3.167,3.167,0,0,1,1.754-.524,2.968,2.968,0,0,1,2.4,1.018,4.408,4.408,0,0,1,.857,2.915v.564H-4.131a2.817,2.817,0,0,0,.685,1.893A2.153,2.153,0,0,0-1.78-.959,2.36,2.36,0,0,0-.564-1.252a3.055,3.055,0,0,0,.872-.776l.828.645A3.328,3.328,0,0,1-1.853.146Zm-.168-7.1a1.807,1.807,0,0,0-1.377.6,2.9,2.9,0,0,0-.688,1.674h3.97v-.1a2.581,2.581,0,0,0-.557-1.6A1.7,1.7,0,0,0-2.021-6.958Zm7.346,5.12L7.288-7.925H8.672L5.83,0H4.8L1.926-7.925H3.311Zm4.182-2.2A4.681,4.681,0,0,1,9.965-6.13a3.415,3.415,0,0,1,1.274-1.436A3.469,3.469,0,0,1,13.1-8.071a3.342,3.342,0,0,1,2.618,1.121,4.311,4.311,0,0,1,1,2.981v.1A4.722,4.722,0,0,1,16.278-1.8,3.365,3.365,0,0,1,15.011-.366a3.509,3.509,0,0,1-1.893.513A3.334,3.334,0,0,1,10.507-.974a4.29,4.29,0,0,1-1-2.966Zm1.362.161a3.39,3.39,0,0,0,.612,2.117,1.957,1.957,0,0,0,1.637.8,1.945,1.945,0,0,0,1.641-.809,3.707,3.707,0,0,0,.608-2.267,3.384,3.384,0,0,0-.619-2.113A1.968,1.968,0,0,0,13.1-6.958a1.946,1.946,0,0,0-1.619.8A3.68,3.68,0,0,0,10.869-3.875ZM23.035-2.1a1,1,0,0,0-.414-.853,3.983,3.983,0,0,0-1.443-.524,6.822,6.822,0,0,1-1.633-.527,2.324,2.324,0,0,1-.894-.732,1.752,1.752,0,0,1-.289-1.011A2.056,2.056,0,0,1,19.186-7.4a3.218,3.218,0,0,1,2.106-.674,3.311,3.311,0,0,1,2.186.7,2.21,2.21,0,0,1,.839,1.78H22.954a1.223,1.223,0,0,0-.472-.959,1.77,1.77,0,0,0-1.19-.4,1.852,1.852,0,0,0-1.157.322,1.014,1.014,0,0,0-.417.842.822.822,0,0,0,.388.74,4.776,4.776,0,0,0,1.4.476,7.308,7.308,0,0,1,1.644.542,2.4,2.4,0,0,1,.934.758,1.864,1.864,0,0,1,.3,1.08,2.028,2.028,0,0,1-.85,1.7,3.564,3.564,0,0,1-2.2.641A3.991,3.991,0,0,1,19.651-.19,2.74,2.74,0,0,1,18.5-1.132a2.268,2.268,0,0,1-.414-1.307h1.355a1.4,1.4,0,0,0,.546,1.08,2.117,2.117,0,0,0,1.344.4,2.185,2.185,0,0,0,1.234-.311A.956.956,0,0,0,23.035-2.1Z" transform="translate(1221.062 384.817) rotate(-90)" fill="#12263f"/>
    <path id="Trazado_131820" data-name="Trazado 131820" d="M-37.959,0V-9.242h2.844a4.319,4.319,0,0,1,2.18.549,3.829,3.829,0,0,1,1.5,1.562,4.816,4.816,0,0,1,.54,2.3v.425a4.83,4.83,0,0,1-.53,2.292A3.8,3.8,0,0,1-32.919-.559,4.351,4.351,0,0,1-35.1,0Zm1.9-7.7v6.17h.92a2.068,2.068,0,0,0,1.708-.73,3.3,3.3,0,0,0,.6-2.088v-.489a3.351,3.351,0,0,0-.584-2.136A2.061,2.061,0,0,0-35.115-7.7ZM-26.47.127A3.372,3.372,0,0,1-28.929-.8a3.294,3.294,0,0,1-.949-2.469v-.178a4.149,4.149,0,0,1,.4-1.85,2.935,2.935,0,0,1,1.133-1.257A3.18,3.18,0,0,1-26.673-7a2.85,2.85,0,0,1,2.219.889,3.611,3.611,0,0,1,.809,2.52v.749h-4.374a1.7,1.7,0,0,0,.536,1.079,1.621,1.621,0,0,0,1.133.406,1.98,1.98,0,0,0,1.657-.768l.9,1.009A2.754,2.754,0,0,1-24.908-.2,3.665,3.665,0,0,1-26.47.127Zm-.209-5.643a1.146,1.146,0,0,0-.885.37A1.915,1.915,0,0,0-28-4.088h2.552v-.147a1.366,1.366,0,0,0-.33-.947A1.183,1.183,0,0,0-26.679-5.516ZM-18.884-1.9a.591.591,0,0,0-.333-.53,3.785,3.785,0,0,0-1.07-.346q-2.45-.514-2.45-2.082a1.887,1.887,0,0,1,.759-1.527A3.06,3.06,0,0,1-20-7a3.293,3.293,0,0,1,2.092.616,1.94,1.94,0,0,1,.784,1.6h-1.834a.888.888,0,0,0-.254-.651A1.075,1.075,0,0,0-20-5.687a1.1,1.1,0,0,0-.717.209.661.661,0,0,0-.254.533.565.565,0,0,0,.289.492,2.971,2.971,0,0,0,.974.324,7.958,7.958,0,0,1,1.155.308A1.9,1.9,0,0,1-17.1-1.974a1.792,1.792,0,0,1-.806,1.52,3.478,3.478,0,0,1-2.082.581,3.632,3.632,0,0,1-1.533-.308,2.572,2.572,0,0,1-1.051-.844,1.962,1.962,0,0,1-.381-1.158h1.739a.958.958,0,0,0,.362.749,1.435,1.435,0,0,0,.9.26,1.328,1.328,0,0,0,.8-.2A.622.622,0,0,0-18.884-1.9ZM-11.94,0a2.037,2.037,0,0,1-.184-.616,2.22,2.22,0,0,1-1.733.743A2.439,2.439,0,0,1-15.53-.457a1.878,1.878,0,0,1-.663-1.473,1.941,1.941,0,0,1,.809-1.676,3.994,3.994,0,0,1,2.339-.59h.844v-.394a1.132,1.132,0,0,0-.244-.762.961.961,0,0,0-.771-.286,1.093,1.093,0,0,0-.727.222.755.755,0,0,0-.263.609h-1.834a1.843,1.843,0,0,1,.368-1.1,2.434,2.434,0,0,1,1.041-.8A3.794,3.794,0,0,1-13.121-7a3,3,0,0,1,2.015.638,2.232,2.232,0,0,1,.746,1.793v2.977a3.284,3.284,0,0,0,.273,1.479V0Zm-1.517-1.276a1.58,1.58,0,0,0,.749-.181,1.188,1.188,0,0,0,.508-.486V-3.123h-.686q-1.377,0-1.466.952l-.006.108a.734.734,0,0,0,.241.565A.937.937,0,0,0-13.457-1.276Zm8.366-3.872a4.984,4.984,0,0,0-.66-.051,1.344,1.344,0,0,0-1.365.7V0H-8.95V-6.868h1.733l.051.819A1.7,1.7,0,0,1-5.637-7a1.922,1.922,0,0,1,.571.083Zm4.742,0a4.984,4.984,0,0,0-.66-.051,1.344,1.344,0,0,0-1.365.7V0H-4.208V-6.868h1.733l.051.819A1.7,1.7,0,0,1-.9-7a1.922,1.922,0,0,1,.571.083ZM.019-3.5A4.073,4.073,0,0,1,.413-5.319,2.881,2.881,0,0,1,1.546-6.557,3.306,3.306,0,0,1,3.263-7a3.127,3.127,0,0,1,2.269.851,3.414,3.414,0,0,1,.981,2.311l.013.47A3.59,3.59,0,0,1,5.643-.828,3.067,3.067,0,0,1,3.275.127,3.082,3.082,0,0,1,.9-.825a3.653,3.653,0,0,1-.885-2.59Zm1.834.13a2.567,2.567,0,0,0,.368,1.5,1.215,1.215,0,0,0,1.054.518,1.217,1.217,0,0,0,1.041-.512A2.809,2.809,0,0,0,4.691-3.5a2.542,2.542,0,0,0-.375-1.488,1.217,1.217,0,0,0-1.054-.528,1.2,1.2,0,0,0-1.041.524A2.857,2.857,0,0,0,1.854-3.367ZM9.591,0H7.75V-9.75H9.591Zm3.447,0H11.2V-9.75h1.841Zm1.225-3.5a4.073,4.073,0,0,1,.394-1.822A2.881,2.881,0,0,1,15.79-6.557,3.306,3.306,0,0,1,17.507-7a3.127,3.127,0,0,1,2.269.851,3.414,3.414,0,0,1,.981,2.311l.013.47a3.59,3.59,0,0,1-.882,2.536A3.067,3.067,0,0,1,17.52.127a3.082,3.082,0,0,1-2.371-.952,3.653,3.653,0,0,1-.885-2.59Zm1.834.13a2.567,2.567,0,0,0,.368,1.5,1.215,1.215,0,0,0,1.054.518,1.217,1.217,0,0,0,1.041-.512A2.809,2.809,0,0,0,18.935-3.5a2.542,2.542,0,0,0-.375-1.488,1.217,1.217,0,0,0-1.054-.528,1.2,1.2,0,0,0-1.041.524A2.857,2.857,0,0,0,16.1-3.367Zm8.753-.118a4.139,4.139,0,0,1,.72-2.558A2.338,2.338,0,0,1,27.542-7a2.1,2.1,0,0,1,1.657.749v-3.5H31.04V0H29.383l-.089-.73A2.159,2.159,0,0,1,27.53.127a2.331,2.331,0,0,1-1.946-.955A4.272,4.272,0,0,1,24.851-3.485Zm1.834.131a2.726,2.726,0,0,0,.336,1.486A1.1,1.1,0,0,0,28-1.352a1.227,1.227,0,0,0,1.2-.721V-4.8a1.21,1.21,0,0,0-1.187-.721Q26.686-5.516,26.686-3.354ZM35.623.127A3.372,3.372,0,0,1,33.163-.8a3.294,3.294,0,0,1-.949-2.469v-.178a4.149,4.149,0,0,1,.4-1.85,2.935,2.935,0,0,1,1.133-1.257A3.18,3.18,0,0,1,35.42-7a2.85,2.85,0,0,1,2.219.889,3.611,3.611,0,0,1,.809,2.52v.749H34.074a1.7,1.7,0,0,0,.536,1.079,1.621,1.621,0,0,0,1.133.406A1.98,1.98,0,0,0,37.4-2.12l.9,1.009A2.754,2.754,0,0,1,37.185-.2,3.665,3.665,0,0,1,35.623.127Zm-.209-5.643a1.146,1.146,0,0,0-.885.37,1.915,1.915,0,0,0-.435,1.058h2.552v-.147a1.366,1.366,0,0,0-.33-.947A1.183,1.183,0,0,0,35.414-5.516ZM-22.512,7.629a4.119,4.119,0,0,1-.72,2.542,2.31,2.31,0,0,1-1.946.955A2.14,2.14,0,0,1-26.86,10.4v3.237h-1.834V4.132h1.7l.063.673A2.156,2.156,0,0,1-25.191,4a2.326,2.326,0,0,1,1.974.939,4.231,4.231,0,0,1,.7,2.59Zm-1.834-.14a2.718,2.718,0,0,0-.34-1.484,1.105,1.105,0,0,0-.987-.522,1.2,1.2,0,0,0-1.187.662V8.967a1.221,1.221,0,0,0,1.2.681Q-24.346,9.648-24.346,7.49Zm6.83-1.637a4.984,4.984,0,0,0-.66-.051,1.344,1.344,0,0,0-1.365.7V11h-1.834V4.132h1.733l.051.819A1.7,1.7,0,0,1-18.062,4a1.922,1.922,0,0,1,.571.083Zm.368,1.65a4.073,4.073,0,0,1,.394-1.822,2.881,2.881,0,0,1,1.133-1.238A3.306,3.306,0,0,1-13.9,4a3.128,3.128,0,0,1,2.269.851,3.414,3.414,0,0,1,.981,2.311l.013.47a3.59,3.59,0,0,1-.882,2.536,3.067,3.067,0,0,1-2.368.955,3.082,3.082,0,0,1-2.371-.952,3.653,3.653,0,0,1-.885-2.59Zm1.834.13a2.567,2.567,0,0,0,.368,1.5,1.215,1.215,0,0,0,1.054.518,1.217,1.217,0,0,0,1.041-.512A2.809,2.809,0,0,0-12.476,7.5a2.542,2.542,0,0,0-.375-1.488A1.217,1.217,0,0,0-13.9,5.484a1.2,1.2,0,0,0-1.041.524A2.857,2.857,0,0,0-15.314,7.633ZM-9.8,7.515a4.139,4.139,0,0,1,.72-2.558A2.338,2.338,0,0,1-7.106,4a2.1,2.1,0,0,1,1.657.749V1.25h1.841V11H-5.265l-.089-.73a2.159,2.159,0,0,1-1.765.857,2.331,2.331,0,0,1-1.946-.955A4.272,4.272,0,0,1-9.8,7.515Zm1.834.131a2.726,2.726,0,0,0,.336,1.486,1.1,1.1,0,0,0,.978.517,1.227,1.227,0,0,0,1.2-.721V6.2a1.21,1.21,0,0,0-1.187-.721Q-7.963,5.484-7.963,7.646ZM1.927,10.3a2.3,2.3,0,0,1-1.879.825,2.17,2.17,0,0,1-1.685-.635,2.71,2.71,0,0,1-.594-1.86v-4.5H-.4V8.574q0,1.074.978,1.074A1.325,1.325,0,0,0,1.863,9V4.132H3.7V11H1.977Zm6.018-.654a1.2,1.2,0,0,0,.825-.279.979.979,0,0,0,.33-.743h1.72a2.353,2.353,0,0,1-.381,1.279,2.513,2.513,0,0,1-1.025.9,3.208,3.208,0,0,1-1.438.321,2.982,2.982,0,0,1-2.323-.936A3.705,3.705,0,0,1,4.8,7.6V7.483a3.663,3.663,0,0,1,.844-2.533A2.947,2.947,0,0,1,7.963,4a2.889,2.889,0,0,1,2.066.733,2.6,2.6,0,0,1,.79,1.952H9.1a1.261,1.261,0,0,0-.33-.871,1.1,1.1,0,0,0-.838-.335,1.1,1.1,0,0,0-.968.467,2.708,2.708,0,0,0-.327,1.516v.191A2.742,2.742,0,0,0,6.96,9.184,1.119,1.119,0,0,0,7.944,9.648Zm6.119-7.2V4.132h1.174V5.478H14.063V8.905a.818.818,0,0,0,.146.546.733.733,0,0,0,.559.165,2.925,2.925,0,0,0,.54-.044v1.39a3.777,3.777,0,0,1-1.111.165,1.752,1.752,0,0,1-1.968-1.949v-3.7h-1V4.132h1V2.443ZM15.783,7.5a4.073,4.073,0,0,1,.394-1.822A2.881,2.881,0,0,1,17.31,4.443,3.306,3.306,0,0,1,19.027,4a3.127,3.127,0,0,1,2.269.851,3.414,3.414,0,0,1,.981,2.311l.013.47a3.59,3.59,0,0,1-.882,2.536,3.067,3.067,0,0,1-2.368.955,3.082,3.082,0,0,1-2.371-.952,3.653,3.653,0,0,1-.885-2.59Zm1.834.13a2.567,2.567,0,0,0,.368,1.5,1.323,1.323,0,0,0,2.095.006A2.809,2.809,0,0,0,20.455,7.5a2.542,2.542,0,0,0-.375-1.488,1.217,1.217,0,0,0-1.054-.528,1.2,1.2,0,0,0-1.041.524A2.857,2.857,0,0,0,17.618,7.633ZM27.139,9.1a.591.591,0,0,0-.333-.53,3.785,3.785,0,0,0-1.07-.346q-2.45-.514-2.45-2.082a1.887,1.887,0,0,1,.759-1.527A3.06,3.06,0,0,1,26.029,4a3.293,3.293,0,0,1,2.092.616,1.94,1.94,0,0,1,.784,1.6H27.07a.888.888,0,0,0-.254-.651,1.075,1.075,0,0,0-.793-.257,1.1,1.1,0,0,0-.717.209.661.661,0,0,0-.254.533.565.565,0,0,0,.289.492,2.971,2.971,0,0,0,.974.324,7.959,7.959,0,0,1,1.155.308,1.9,1.9,0,0,1,1.454,1.847,1.792,1.792,0,0,1-.806,1.52,3.478,3.478,0,0,1-2.082.581,3.632,3.632,0,0,1-1.533-.308,2.572,2.572,0,0,1-1.051-.844,1.962,1.962,0,0,1-.381-1.158H24.81a.958.958,0,0,0,.362.749,1.435,1.435,0,0,0,.9.26,1.328,1.328,0,0,0,.8-.2A.622.622,0,0,0,27.139,9.1Z" transform="translate(1414.064 257.523)" fill="#fff"/>
    <path id="Trazado_131819" data-name="Trazado 131819" d="M-37.959,0V-9.242h2.844a4.319,4.319,0,0,1,2.18.549,3.829,3.829,0,0,1,1.5,1.562,4.816,4.816,0,0,1,.54,2.3v.425a4.83,4.83,0,0,1-.53,2.292A3.8,3.8,0,0,1-32.919-.559,4.351,4.351,0,0,1-35.1,0Zm1.9-7.7v6.17h.92a2.068,2.068,0,0,0,1.708-.73,3.3,3.3,0,0,0,.6-2.088v-.489a3.351,3.351,0,0,0-.584-2.136A2.061,2.061,0,0,0-35.115-7.7ZM-26.47.127A3.372,3.372,0,0,1-28.929-.8a3.294,3.294,0,0,1-.949-2.469v-.178a4.149,4.149,0,0,1,.4-1.85,2.935,2.935,0,0,1,1.133-1.257A3.18,3.18,0,0,1-26.673-7a2.85,2.85,0,0,1,2.219.889,3.611,3.611,0,0,1,.809,2.52v.749h-4.374a1.7,1.7,0,0,0,.536,1.079,1.621,1.621,0,0,0,1.133.406,1.98,1.98,0,0,0,1.657-.768l.9,1.009A2.754,2.754,0,0,1-24.908-.2,3.665,3.665,0,0,1-26.47.127Zm-.209-5.643a1.146,1.146,0,0,0-.885.37A1.915,1.915,0,0,0-28-4.088h2.552v-.147a1.366,1.366,0,0,0-.33-.947A1.183,1.183,0,0,0-26.679-5.516ZM-18.884-1.9a.591.591,0,0,0-.333-.53,3.785,3.785,0,0,0-1.07-.346q-2.45-.514-2.45-2.082a1.887,1.887,0,0,1,.759-1.527A3.06,3.06,0,0,1-20-7a3.293,3.293,0,0,1,2.092.616,1.94,1.94,0,0,1,.784,1.6h-1.834a.888.888,0,0,0-.254-.651A1.075,1.075,0,0,0-20-5.687a1.1,1.1,0,0,0-.717.209.661.661,0,0,0-.254.533.565.565,0,0,0,.289.492,2.971,2.971,0,0,0,.974.324,7.958,7.958,0,0,1,1.155.308A1.9,1.9,0,0,1-17.1-1.974a1.792,1.792,0,0,1-.806,1.52,3.478,3.478,0,0,1-2.082.581,3.632,3.632,0,0,1-1.533-.308,2.572,2.572,0,0,1-1.051-.844,1.962,1.962,0,0,1-.381-1.158h1.739a.958.958,0,0,0,.362.749,1.435,1.435,0,0,0,.9.26,1.328,1.328,0,0,0,.8-.2A.622.622,0,0,0-18.884-1.9ZM-11.94,0a2.037,2.037,0,0,1-.184-.616,2.22,2.22,0,0,1-1.733.743A2.439,2.439,0,0,1-15.53-.457a1.878,1.878,0,0,1-.663-1.473,1.941,1.941,0,0,1,.809-1.676,3.994,3.994,0,0,1,2.339-.59h.844v-.394a1.132,1.132,0,0,0-.244-.762.961.961,0,0,0-.771-.286,1.093,1.093,0,0,0-.727.222.755.755,0,0,0-.263.609h-1.834a1.843,1.843,0,0,1,.368-1.1,2.434,2.434,0,0,1,1.041-.8A3.794,3.794,0,0,1-13.121-7a3,3,0,0,1,2.015.638,2.232,2.232,0,0,1,.746,1.793v2.977a3.284,3.284,0,0,0,.273,1.479V0Zm-1.517-1.276a1.58,1.58,0,0,0,.749-.181,1.188,1.188,0,0,0,.508-.486V-3.123h-.686q-1.377,0-1.466.952l-.006.108a.734.734,0,0,0,.241.565A.937.937,0,0,0-13.457-1.276Zm8.366-3.872a4.984,4.984,0,0,0-.66-.051,1.344,1.344,0,0,0-1.365.7V0H-8.95V-6.868h1.733l.051.819A1.7,1.7,0,0,1-5.637-7a1.922,1.922,0,0,1,.571.083Zm4.742,0a4.984,4.984,0,0,0-.66-.051,1.344,1.344,0,0,0-1.365.7V0H-4.208V-6.868h1.733l.051.819A1.7,1.7,0,0,1-.9-7a1.922,1.922,0,0,1,.571.083ZM.019-3.5A4.073,4.073,0,0,1,.413-5.319,2.881,2.881,0,0,1,1.546-6.557,3.306,3.306,0,0,1,3.263-7a3.127,3.127,0,0,1,2.269.851,3.414,3.414,0,0,1,.981,2.311l.013.47A3.59,3.59,0,0,1,5.643-.828,3.067,3.067,0,0,1,3.275.127,3.082,3.082,0,0,1,.9-.825a3.653,3.653,0,0,1-.885-2.59Zm1.834.13a2.567,2.567,0,0,0,.368,1.5,1.215,1.215,0,0,0,1.054.518,1.217,1.217,0,0,0,1.041-.512A2.809,2.809,0,0,0,4.691-3.5a2.542,2.542,0,0,0-.375-1.488,1.217,1.217,0,0,0-1.054-.528,1.2,1.2,0,0,0-1.041.524A2.857,2.857,0,0,0,1.854-3.367ZM9.591,0H7.75V-9.75H9.591Zm3.447,0H11.2V-9.75h1.841Zm1.225-3.5a4.073,4.073,0,0,1,.394-1.822A2.881,2.881,0,0,1,15.79-6.557,3.306,3.306,0,0,1,17.507-7a3.127,3.127,0,0,1,2.269.851,3.414,3.414,0,0,1,.981,2.311l.013.47a3.59,3.59,0,0,1-.882,2.536A3.067,3.067,0,0,1,17.52.127a3.082,3.082,0,0,1-2.371-.952,3.653,3.653,0,0,1-.885-2.59Zm1.834.13a2.567,2.567,0,0,0,.368,1.5,1.215,1.215,0,0,0,1.054.518,1.217,1.217,0,0,0,1.041-.512A2.809,2.809,0,0,0,18.935-3.5a2.542,2.542,0,0,0-.375-1.488,1.217,1.217,0,0,0-1.054-.528,1.2,1.2,0,0,0-1.041.524A2.857,2.857,0,0,0,16.1-3.367Zm8.753-.118a4.139,4.139,0,0,1,.72-2.558A2.338,2.338,0,0,1,27.542-7a2.1,2.1,0,0,1,1.657.749v-3.5H31.04V0H29.383l-.089-.73A2.159,2.159,0,0,1,27.53.127a2.331,2.331,0,0,1-1.946-.955A4.272,4.272,0,0,1,24.851-3.485Zm1.834.131a2.726,2.726,0,0,0,.336,1.486A1.1,1.1,0,0,0,28-1.352a1.227,1.227,0,0,0,1.2-.721V-4.8a1.21,1.21,0,0,0-1.187-.721Q26.686-5.516,26.686-3.354ZM35.623.127A3.372,3.372,0,0,1,33.163-.8a3.294,3.294,0,0,1-.949-2.469v-.178a4.149,4.149,0,0,1,.4-1.85,2.935,2.935,0,0,1,1.133-1.257A3.18,3.18,0,0,1,35.42-7a2.85,2.85,0,0,1,2.219.889,3.611,3.611,0,0,1,.809,2.52v.749H34.074a1.7,1.7,0,0,0,.536,1.079,1.621,1.621,0,0,0,1.133.406A1.98,1.98,0,0,0,37.4-2.12l.9,1.009A2.754,2.754,0,0,1,37.185-.2,3.665,3.665,0,0,1,35.623.127Zm-.209-5.643a1.146,1.146,0,0,0-.885.37,1.915,1.915,0,0,0-.435,1.058h2.552v-.147a1.366,1.366,0,0,0-.33-.947A1.183,1.183,0,0,0,35.414-5.516ZM-26.581,4.132l.057.768A2.414,2.414,0,0,1-24.55,4a1.832,1.832,0,0,1,1.822,1.047A2.358,2.358,0,0,1-20.665,4,2.049,2.049,0,0,1-19,4.656a2.991,2.991,0,0,1,.546,1.958V11H-20.3V6.61a1.313,1.313,0,0,0-.229-.856,1.011,1.011,0,0,0-.806-.27,1.145,1.145,0,0,0-1.143.789L-22.468,11H-24.3V6.616a1.3,1.3,0,0,0-.235-.865,1.021,1.021,0,0,0-.8-.267,1.188,1.188,0,0,0-1.13.649V11H-28.3V4.132Zm12.7,7a3.372,3.372,0,0,1-2.46-.927,3.294,3.294,0,0,1-.949-2.469V7.553a4.149,4.149,0,0,1,.4-1.85,2.935,2.935,0,0,1,1.133-1.257A3.18,3.18,0,0,1-14.089,4a2.85,2.85,0,0,1,2.219.889,3.611,3.611,0,0,1,.809,2.52v.749h-4.374A1.7,1.7,0,0,0-14.9,9.242a1.621,1.621,0,0,0,1.133.406,1.98,1.98,0,0,0,1.657-.768l.9,1.009a2.754,2.754,0,0,1-1.117.911A3.665,3.665,0,0,1-13.885,11.127Zm-.209-5.643a1.146,1.146,0,0,0-.885.37,1.915,1.915,0,0,0-.435,1.058h2.552V6.765a1.366,1.366,0,0,0-.33-.947A1.183,1.183,0,0,0-14.095,5.484Zm7.935.368a4.984,4.984,0,0,0-.66-.051,1.344,1.344,0,0,0-1.365.7V11H-10.02V4.132h1.733l.051.819A1.7,1.7,0,0,1-6.706,4a1.922,1.922,0,0,1,.571.083Zm3.618,3.8a1.2,1.2,0,0,0,.825-.279.979.979,0,0,0,.33-.743H.333A2.353,2.353,0,0,1-.048,9.905a2.513,2.513,0,0,1-1.025.9,3.208,3.208,0,0,1-1.438.321,2.982,2.982,0,0,1-2.323-.936A3.705,3.705,0,0,1-5.684,7.6V7.483A3.663,3.663,0,0,1-4.84,4.951,2.947,2.947,0,0,1-2.523,4a2.889,2.889,0,0,1,2.066.733A2.6,2.6,0,0,1,.333,6.69h-1.72a1.261,1.261,0,0,0-.33-.871,1.1,1.1,0,0,0-.838-.335,1.1,1.1,0,0,0-.968.467A2.708,2.708,0,0,0-3.85,7.467v.191a2.742,2.742,0,0,0,.324,1.526A1.119,1.119,0,0,0-2.542,9.648ZM5.361,11a2.037,2.037,0,0,1-.184-.616,2.22,2.22,0,0,1-1.733.743,2.439,2.439,0,0,1-1.673-.584A1.878,1.878,0,0,1,1.108,9.07a1.941,1.941,0,0,1,.809-1.676A3.994,3.994,0,0,1,4.256,6.8H5.1V6.411a1.132,1.132,0,0,0-.244-.762.961.961,0,0,0-.771-.286,1.093,1.093,0,0,0-.727.222.755.755,0,0,0-.263.609H1.26a1.843,1.843,0,0,1,.368-1.1,2.434,2.434,0,0,1,1.041-.8A3.794,3.794,0,0,1,4.18,4,3,3,0,0,1,6.2,4.643a2.232,2.232,0,0,1,.746,1.793V9.413a3.284,3.284,0,0,0,.273,1.479V11ZM3.844,9.724a1.58,1.58,0,0,0,.749-.181A1.188,1.188,0,0,0,5.1,9.058V7.877H4.415q-1.377,0-1.466.952l-.006.108a.734.734,0,0,0,.241.565A.937.937,0,0,0,3.844,9.724ZM8.065,7.515a4.139,4.139,0,0,1,.72-2.558A2.338,2.338,0,0,1,10.756,4a2.1,2.1,0,0,1,1.657.749V1.25h1.841V11H12.6l-.089-.73a2.159,2.159,0,0,1-1.765.857A2.331,2.331,0,0,1,8.8,10.172,4.272,4.272,0,0,1,8.065,7.515ZM9.9,7.646a2.726,2.726,0,0,0,.336,1.486,1.1,1.1,0,0,0,.978.517,1.227,1.227,0,0,0,1.2-.721V6.2a1.21,1.21,0,0,0-1.187-.721Q9.9,5.484,9.9,7.646ZM15.39,7.5a4.073,4.073,0,0,1,.394-1.822,2.881,2.881,0,0,1,1.133-1.238A3.306,3.306,0,0,1,18.634,4a3.127,3.127,0,0,1,2.269.851,3.414,3.414,0,0,1,.981,2.311l.013.47a3.59,3.59,0,0,1-.882,2.536,3.067,3.067,0,0,1-2.368.955,3.082,3.082,0,0,1-2.371-.952,3.653,3.653,0,0,1-.885-2.59Zm1.834.13a2.567,2.567,0,0,0,.368,1.5,1.323,1.323,0,0,0,2.095.006A2.809,2.809,0,0,0,20.062,7.5a2.542,2.542,0,0,0-.375-1.488,1.217,1.217,0,0,0-1.054-.528,1.2,1.2,0,0,0-1.041.524A2.857,2.857,0,0,0,17.224,7.633ZM26.746,9.1a.591.591,0,0,0-.333-.53,3.785,3.785,0,0,0-1.07-.346q-2.45-.514-2.45-2.082a1.887,1.887,0,0,1,.759-1.527A3.06,3.06,0,0,1,25.635,4a3.293,3.293,0,0,1,2.092.616,1.94,1.94,0,0,1,.784,1.6H26.676a.888.888,0,0,0-.254-.651,1.075,1.075,0,0,0-.793-.257,1.1,1.1,0,0,0-.717.209.661.661,0,0,0-.254.533.565.565,0,0,0,.289.492,2.971,2.971,0,0,0,.974.324,7.959,7.959,0,0,1,1.155.308A1.9,1.9,0,0,1,28.53,9.026a1.792,1.792,0,0,1-.806,1.52,3.478,3.478,0,0,1-2.082.581,3.632,3.632,0,0,1-1.533-.308,2.572,2.572,0,0,1-1.051-.844,1.962,1.962,0,0,1-.381-1.158h1.739a.958.958,0,0,0,.362.749,1.435,1.435,0,0,0,.9.26,1.328,1.328,0,0,0,.8-.2A.622.622,0,0,0,26.746,9.1Z" transform="translate(1290.308 380.413)" fill="#fff"/>
    <path id="Trazado_131821" data-name="Trazado 131821" d="M-42.574,0V-9.242h2.844a4.319,4.319,0,0,1,2.18.549,3.829,3.829,0,0,1,1.5,1.562,4.816,4.816,0,0,1,.54,2.3v.425a4.83,4.83,0,0,1-.53,2.292A3.8,3.8,0,0,1-37.534-.559,4.351,4.351,0,0,1-39.711,0Zm1.9-7.7v6.17h.92a2.068,2.068,0,0,0,1.708-.73,3.3,3.3,0,0,0,.6-2.088v-.489a3.351,3.351,0,0,0-.584-2.136A2.061,2.061,0,0,0-39.73-7.7ZM-32.31,0H-34.15V-6.868h1.841Zm-1.949-8.646a.9.9,0,0,1,.276-.679,1.037,1.037,0,0,1,.752-.267,1.04,1.04,0,0,1,.749.267.9.9,0,0,1,.279.679.9.9,0,0,1-.282.686,1.042,1.042,0,0,1-.746.267,1.042,1.042,0,0,1-.746-.267A.9.9,0,0,1-34.258-8.646Zm6.03,6.4,1.276-4.627h1.917L-27.352,0H-29.1l-2.317-6.868H-29.5ZM-21.15.127A3.372,3.372,0,0,1-23.61-.8a3.294,3.294,0,0,1-.949-2.469v-.178a4.149,4.149,0,0,1,.4-1.85,2.935,2.935,0,0,1,1.133-1.257A3.18,3.18,0,0,1-21.354-7a2.85,2.85,0,0,1,2.219.889,3.611,3.611,0,0,1,.809,2.52v.749H-22.7a1.7,1.7,0,0,0,.536,1.079,1.621,1.621,0,0,0,1.133.406,1.98,1.98,0,0,0,1.657-.768l.9,1.009A2.754,2.754,0,0,1-19.589-.2,3.665,3.665,0,0,1-21.15.127Zm-.209-5.643a1.146,1.146,0,0,0-.885.37,1.915,1.915,0,0,0-.435,1.058h2.552v-.147a1.366,1.366,0,0,0-.33-.947A1.183,1.183,0,0,0-21.36-5.516Zm7.935.368a4.984,4.984,0,0,0-.66-.051,1.344,1.344,0,0,0-1.365.7V0h-1.834V-6.868h1.733l.051.819A1.7,1.7,0,0,1-13.971-7a1.922,1.922,0,0,1,.571.083Zm4.6,3.25a.591.591,0,0,0-.333-.53,3.785,3.785,0,0,0-1.07-.346q-2.45-.514-2.45-2.082a1.887,1.887,0,0,1,.759-1.527A3.06,3.06,0,0,1-9.934-7a3.293,3.293,0,0,1,2.092.616,1.94,1.94,0,0,1,.784,1.6H-8.893a.888.888,0,0,0-.254-.651,1.075,1.075,0,0,0-.793-.257,1.1,1.1,0,0,0-.717.209.661.661,0,0,0-.254.533.565.565,0,0,0,.289.492,2.971,2.971,0,0,0,.974.324,7.959,7.959,0,0,1,1.155.308A1.9,1.9,0,0,1-7.04-1.974a1.792,1.792,0,0,1-.806,1.52A3.478,3.478,0,0,1-9.928.127a3.632,3.632,0,0,1-1.533-.308,2.572,2.572,0,0,1-1.051-.844,1.962,1.962,0,0,1-.381-1.158h1.739a.958.958,0,0,0,.362.749,1.435,1.435,0,0,0,.9.26,1.328,1.328,0,0,0,.8-.2A.622.622,0,0,0-8.823-1.9Zm4.9,1.9H-5.764V-6.868h1.841ZM-5.872-8.646A.9.9,0,0,1-5.6-9.325a1.037,1.037,0,0,1,.752-.267,1.04,1.04,0,0,1,.749.267.9.9,0,0,1,.279.679A.9.9,0,0,1-4.1-7.96a1.042,1.042,0,0,1-.746.267,1.042,1.042,0,0,1-.746-.267A.9.9,0,0,1-5.872-8.646ZM-1.968,0V-5.522H-2.99V-6.868h1.022v-.317a2.576,2.576,0,0,1,.8-2,3.205,3.205,0,0,1,2.212-.7,7.338,7.338,0,0,1,2.082.375L2.856-7.992a8.123,8.123,0,0,0-.965-.238,4.741,4.741,0,0,0-.736-.054q-1.282,0-1.282,1.136v.279H1.225v1.346H-.127V0ZM3.98,0H2.139V-6.868H3.98ZM8.354-1.352a1.2,1.2,0,0,0,.825-.279.979.979,0,0,0,.33-.743h1.72a2.353,2.353,0,0,1-.381,1.279,2.513,2.513,0,0,1-1.025.9A3.208,3.208,0,0,1,8.385.127,2.982,2.982,0,0,1,6.062-.809,3.705,3.705,0,0,1,5.211-3.4v-.121a3.663,3.663,0,0,1,.844-2.533A2.947,2.947,0,0,1,8.373-7a2.889,2.889,0,0,1,2.066.733,2.6,2.6,0,0,1,.79,1.952H9.509a1.261,1.261,0,0,0-.33-.871,1.1,1.1,0,0,0-.838-.335,1.1,1.1,0,0,0-.968.467,2.708,2.708,0,0,0-.327,1.516v.191A2.742,2.742,0,0,0,7.37-1.816,1.119,1.119,0,0,0,8.354-1.352ZM16.256,0a2.037,2.037,0,0,1-.184-.616,2.22,2.22,0,0,1-1.733.743,2.439,2.439,0,0,1-1.673-.584A1.878,1.878,0,0,1,12-1.93a1.941,1.941,0,0,1,.809-1.676,3.994,3.994,0,0,1,2.339-.59H16v-.394a1.132,1.132,0,0,0-.244-.762.961.961,0,0,0-.771-.286,1.093,1.093,0,0,0-.727.222.755.755,0,0,0-.263.609H12.156a1.843,1.843,0,0,1,.368-1.1,2.434,2.434,0,0,1,1.041-.8A3.794,3.794,0,0,1,15.076-7a3,3,0,0,1,2.015.638,2.232,2.232,0,0,1,.746,1.793v2.977A3.284,3.284,0,0,0,18.11-.108V0ZM14.739-1.276a1.58,1.58,0,0,0,.749-.181A1.188,1.188,0,0,0,16-1.942V-3.123h-.686q-1.377,0-1.466.952l-.006.108a.734.734,0,0,0,.241.565A.937.937,0,0,0,14.739-1.276ZM22.1-1.352a1.2,1.2,0,0,0,.825-.279.979.979,0,0,0,.33-.743h1.72A2.353,2.353,0,0,1,24.6-1.095a2.513,2.513,0,0,1-1.025.9,3.208,3.208,0,0,1-1.438.321,2.982,2.982,0,0,1-2.323-.936A3.705,3.705,0,0,1,18.96-3.4v-.121A3.663,3.663,0,0,1,19.8-6.049,2.947,2.947,0,0,1,22.122-7a2.889,2.889,0,0,1,2.066.733,2.6,2.6,0,0,1,.79,1.952h-1.72a1.261,1.261,0,0,0-.33-.871,1.1,1.1,0,0,0-.838-.335,1.1,1.1,0,0,0-.968.467,2.708,2.708,0,0,0-.327,1.516v.191a2.742,2.742,0,0,0,.324,1.526A1.119,1.119,0,0,0,22.1-1.352ZM27.961,0H26.121V-6.868h1.841ZM26.013-8.646a.9.9,0,0,1,.276-.679,1.037,1.037,0,0,1,.752-.267,1.04,1.04,0,0,1,.749.267.9.9,0,0,1,.279.679.9.9,0,0,1-.282.686,1.042,1.042,0,0,1-.746.267A1.042,1.042,0,0,1,26.3-7.96.9.9,0,0,1,26.013-8.646ZM29.187-3.5a4.073,4.073,0,0,1,.394-1.822,2.881,2.881,0,0,1,1.133-1.238A3.306,3.306,0,0,1,32.43-7a3.128,3.128,0,0,1,2.269.851,3.414,3.414,0,0,1,.981,2.311l.013.47a3.59,3.59,0,0,1-.882,2.536,3.067,3.067,0,0,1-2.368.955,3.082,3.082,0,0,1-2.371-.952,3.653,3.653,0,0,1-.885-2.59Zm1.834.13a2.567,2.567,0,0,0,.368,1.5,1.215,1.215,0,0,0,1.054.518,1.217,1.217,0,0,0,1.041-.512A2.809,2.809,0,0,0,33.858-3.5a2.542,2.542,0,0,0-.375-1.488,1.217,1.217,0,0,0-1.054-.528,1.2,1.2,0,0,0-1.041.524A2.857,2.857,0,0,0,31.021-3.367ZM32.792-9.75h2L33.033-7.782H31.542Zm5.719,2.882.057.793A2.4,2.4,0,0,1,40.542-7a1.993,1.993,0,0,1,1.625.641,2.991,2.991,0,0,1,.546,1.917V0H40.879V-4.4a1.2,1.2,0,0,0-.254-.849,1.135,1.135,0,0,0-.844-.264,1.261,1.261,0,0,0-1.162.662V0H36.785V-6.868Z" transform="translate(1416.122 384.635)" fill="#fff"/>
    <path id="Trazado_131812" data-name="Trazado 131812" d="M-37.666-4.509V0H-40.3V-12.8h4.992a5.776,5.776,0,0,1,2.536.527,3.886,3.886,0,0,1,1.683,1.5,4.178,4.178,0,0,1,.589,2.21A3.674,3.674,0,0,1-31.79-5.594a5.363,5.363,0,0,1-3.564,1.085Zm0-2.136h2.355a2.316,2.316,0,0,0,1.6-.492,1.79,1.79,0,0,0,.549-1.406,2.111,2.111,0,0,0-.554-1.521,2.068,2.068,0,0,0-1.529-.6h-2.417Zm14.15-.483a6.9,6.9,0,0,0-.914-.07,1.86,1.86,0,0,0-1.89.976V0h-2.54V-9.51h2.4l.07,1.134a2.354,2.354,0,0,1,2.118-1.31,2.662,2.662,0,0,1,.791.114Zm.51,2.285a5.64,5.64,0,0,1,.545-2.522,3.989,3.989,0,0,1,1.569-1.714,4.577,4.577,0,0,1,2.377-.606,4.33,4.33,0,0,1,3.142,1.178,4.727,4.727,0,0,1,1.358,3.2l.018.65a4.97,4.97,0,0,1-1.222,3.511A4.247,4.247,0,0,1-18.5.176a4.268,4.268,0,0,1-3.283-1.318,5.058,5.058,0,0,1-1.226-3.586Zm2.54.18a3.555,3.555,0,0,0,.51,2.073,1.682,1.682,0,0,0,1.459.717,1.686,1.686,0,0,0,1.441-.709,3.89,3.89,0,0,0,.519-2.267,3.519,3.519,0,0,0-.519-2.06,1.686,1.686,0,0,0-1.459-.731,1.658,1.658,0,0,0-1.441.726A3.955,3.955,0,0,0-20.465-4.662Zm7.638-.163a5.731,5.731,0,0,1,1-3.542A3.237,3.237,0,0,1-9.1-9.686,2.913,2.913,0,0,1-6.807-8.648V-13.5h2.549V0H-6.552l-.123-1.011A2.989,2.989,0,0,1-9.119.176a3.228,3.228,0,0,1-2.694-1.323A5.916,5.916,0,0,1-12.828-4.825Zm2.54.181a3.775,3.775,0,0,0,.466,2.057,1.516,1.516,0,0,0,1.354.715,1.7,1.7,0,0,0,1.661-1V-6.64a1.675,1.675,0,0,0-1.644-1Q-10.288-7.638-10.288-4.644ZM3.406-.967A3.185,3.185,0,0,1,.8.176,3,3,0,0,1-1.529-.7a3.752,3.752,0,0,1-.822-2.575V-9.51H.189v6.151q0,1.487,1.354,1.487a1.834,1.834,0,0,0,1.775-.9V-9.51H5.867V0H3.476Zm8.332-.905a1.666,1.666,0,0,0,1.143-.387,1.355,1.355,0,0,0,.457-1.028h2.382a3.258,3.258,0,0,1-.527,1.771A3.48,3.48,0,0,1,13.772-.268a4.442,4.442,0,0,1-1.991.444,4.129,4.129,0,0,1-3.217-1.3A5.13,5.13,0,0,1,7.387-4.7v-.167A5.071,5.071,0,0,1,8.556-8.376a4.08,4.08,0,0,1,3.208-1.31A4,4,0,0,1,14.625-8.67a3.594,3.594,0,0,1,1.094,2.7H13.337a1.745,1.745,0,0,0-.457-1.206,1.524,1.524,0,0,0-1.16-.464,1.53,1.53,0,0,0-1.34.647,3.749,3.749,0,0,0-.453,2.1v.264a3.8,3.8,0,0,0,.448,2.113A1.549,1.549,0,0,0,11.738-1.872Zm8.473-9.976V-9.51h1.626v1.863H20.21V-2.9a1.133,1.133,0,0,0,.2.756,1.015,1.015,0,0,0,.773.229,4.051,4.051,0,0,0,.747-.062V-.053A5.229,5.229,0,0,1,20.4.176a2.425,2.425,0,0,1-2.725-2.7V-7.646H16.282V-9.51H17.67v-2.338Zm2.382,7a5.64,5.64,0,0,1,.545-2.522,3.989,3.989,0,0,1,1.569-1.714,4.577,4.577,0,0,1,2.377-.606,4.33,4.33,0,0,1,3.142,1.178,4.727,4.727,0,0,1,1.358,3.2l.018.65a4.97,4.97,0,0,1-1.222,3.511A4.247,4.247,0,0,1,27.1.176a4.268,4.268,0,0,1-3.283-1.318,5.058,5.058,0,0,1-1.226-3.586Zm2.54.18a3.555,3.555,0,0,0,.51,2.073,1.682,1.682,0,0,0,1.459.717,1.686,1.686,0,0,0,1.441-.709,3.89,3.89,0,0,0,.519-2.267,3.519,3.519,0,0,0-.519-2.06,1.686,1.686,0,0,0-1.459-.731,1.658,1.658,0,0,0-1.441.726A3.955,3.955,0,0,0,25.132-4.662ZM38.316-2.628a.818.818,0,0,0-.461-.734,5.241,5.241,0,0,0-1.481-.479q-3.393-.712-3.393-2.883a2.613,2.613,0,0,1,1.05-2.114,4.237,4.237,0,0,1,2.747-.848,4.56,4.56,0,0,1,2.9.853,2.687,2.687,0,0,1,1.085,2.215h-2.54a1.229,1.229,0,0,0-.352-.9,1.488,1.488,0,0,0-1.1-.356,1.52,1.52,0,0,0-.993.29.916.916,0,0,0-.352.738.783.783,0,0,0,.4.681,4.114,4.114,0,0,0,1.349.448,11.019,11.019,0,0,1,1.6.426,2.628,2.628,0,0,1,2.013,2.558,2.481,2.481,0,0,1-1.116,2.1,4.815,4.815,0,0,1-2.883.8A5.029,5.029,0,0,1,34.664-.25a3.561,3.561,0,0,1-1.455-1.169,2.716,2.716,0,0,1-.527-1.6H35.09a1.326,1.326,0,0,0,.5,1.037,1.987,1.987,0,0,0,1.248.36,1.839,1.839,0,0,0,1.1-.277A.861.861,0,0,0,38.316-2.628Z" transform="translate(1344.247 146.564)" fill="#12263f"/>
    <path id="Trazado_131816" data-name="Trazado 131816" d="M-35.666-12.8l3.287,9.281,3.27-9.281h3.463V0h-2.646V-3.5l.264-6.038L-31.482,0h-1.811l-3.445-9.527.264,6.029V0h-2.637V-12.8ZM-19.134.176A4.668,4.668,0,0,1-22.54-1.107a4.561,4.561,0,0,1-1.314-3.419v-.246A5.745,5.745,0,0,1-23.3-7.334a4.064,4.064,0,0,1,1.569-1.74,4.4,4.4,0,0,1,2.316-.611,3.947,3.947,0,0,1,3.072,1.23,5,5,0,0,1,1.121,3.489v1.037h-6.056a2.36,2.36,0,0,0,.743,1.494,2.245,2.245,0,0,0,1.569.563,2.742,2.742,0,0,0,2.294-1.063l1.248,1.4A3.813,3.813,0,0,1-16.972-.277,5.075,5.075,0,0,1-19.134.176Zm-.29-7.813a1.587,1.587,0,0,0-1.226.512,2.651,2.651,0,0,0-.6,1.466h3.533v-.2a1.891,1.891,0,0,0-.457-1.311A1.638,1.638,0,0,0-19.424-7.638Zm10.986.51a6.9,6.9,0,0,0-.914-.07,1.86,1.86,0,0,0-1.89.976V0h-2.54V-9.51h2.4l.07,1.134a2.354,2.354,0,0,1,2.118-1.31,2.662,2.662,0,0,1,.791.114Zm5.01,5.256a1.666,1.666,0,0,0,1.143-.387,1.355,1.355,0,0,0,.457-1.028H.554A3.258,3.258,0,0,1,.026-1.516,3.48,3.48,0,0,1-1.393-.268,4.442,4.442,0,0,1-3.384.176,4.129,4.129,0,0,1-6.6-1.121,5.13,5.13,0,0,1-7.778-4.7v-.167A5.071,5.071,0,0,1-6.609-8.376,4.08,4.08,0,0,1-3.4-9.686,4,4,0,0,1-.541-8.67a3.594,3.594,0,0,1,1.094,2.7H-1.828a1.745,1.745,0,0,0-.457-1.206,1.524,1.524,0,0,0-1.16-.464,1.53,1.53,0,0,0-1.34.647,3.749,3.749,0,0,0-.453,2.1v.264A3.8,3.8,0,0,0-4.79-2.515,1.549,1.549,0,0,0-3.428-1.872ZM7.515,0A2.821,2.821,0,0,1,7.26-.853,3.073,3.073,0,0,1,4.86.176,3.376,3.376,0,0,1,2.544-.633a2.6,2.6,0,0,1-.918-2.039,2.687,2.687,0,0,1,1.121-2.32A5.529,5.529,0,0,1,5.985-5.81H7.154v-.545a1.567,1.567,0,0,0-.338-1.055,1.331,1.331,0,0,0-1.068-.4A1.513,1.513,0,0,0,4.742-7.5a1.045,1.045,0,0,0-.365.844H1.837a2.551,2.551,0,0,1,.51-1.529,3.37,3.37,0,0,1,1.441-1.1,5.253,5.253,0,0,1,2.092-.4A4.15,4.15,0,0,1,8.67-8.8,3.09,3.09,0,0,1,9.7-6.319V-2.2a4.546,4.546,0,0,0,.378,2.048V0Zm-2.1-1.767a2.188,2.188,0,0,0,1.037-.25,1.645,1.645,0,0,0,.7-.672V-4.324H6.205q-1.907,0-2.03,1.318l-.009.149a1.017,1.017,0,0,0,.334.782A1.3,1.3,0,0,0,5.414-1.767Zm5.845-3.059a5.731,5.731,0,0,1,1-3.542,3.237,3.237,0,0,1,2.729-1.318,2.913,2.913,0,0,1,2.294,1.037V-13.5h2.549V0H17.534l-.123-1.011A2.989,2.989,0,0,1,14.968.176a3.228,3.228,0,0,1-2.694-1.323A5.916,5.916,0,0,1,11.259-4.825Zm2.54.181a3.775,3.775,0,0,0,.466,2.057,1.516,1.516,0,0,0,1.354.715,1.7,1.7,0,0,0,1.661-1V-6.64a1.675,1.675,0,0,0-1.644-1Q13.8-7.638,13.8-4.644Zm7.6-.2a5.64,5.64,0,0,1,.545-2.522,3.989,3.989,0,0,1,1.569-1.714,4.577,4.577,0,0,1,2.377-.606,4.33,4.33,0,0,1,3.142,1.178,4.727,4.727,0,0,1,1.358,3.2l.018.65a4.97,4.97,0,0,1-1.222,3.511A4.247,4.247,0,0,1,25.91.176a4.268,4.268,0,0,1-3.283-1.318A5.058,5.058,0,0,1,21.4-4.729Zm2.54.18a3.555,3.555,0,0,0,.51,2.073,1.682,1.682,0,0,0,1.459.717,1.686,1.686,0,0,0,1.441-.709,3.89,3.89,0,0,0,.519-2.267,3.519,3.519,0,0,0-.519-2.06,1.686,1.686,0,0,0-1.459-.731,1.658,1.658,0,0,0-1.441.726A3.955,3.955,0,0,0,23.941-4.662ZM37.125-2.628a.818.818,0,0,0-.461-.734,5.241,5.241,0,0,0-1.481-.479Q31.79-4.553,31.79-6.724a2.613,2.613,0,0,1,1.05-2.114,4.237,4.237,0,0,1,2.747-.848,4.56,4.56,0,0,1,2.9.853,2.687,2.687,0,0,1,1.085,2.215h-2.54a1.229,1.229,0,0,0-.352-.9,1.488,1.488,0,0,0-1.1-.356,1.52,1.52,0,0,0-.993.29.916.916,0,0,0-.352.738.783.783,0,0,0,.4.681,4.114,4.114,0,0,0,1.349.448,11.019,11.019,0,0,1,1.6.426,2.628,2.628,0,0,1,2.013,2.558,2.481,2.481,0,0,1-1.116,2.1,4.815,4.815,0,0,1-2.883.8A5.029,5.029,0,0,1,33.473-.25a3.561,3.561,0,0,1-1.455-1.169,2.716,2.716,0,0,1-.527-1.6H33.9a1.326,1.326,0,0,0,.5,1.037,1.987,1.987,0,0,0,1.248.36,1.839,1.839,0,0,0,1.1-.277A.861.861,0,0,0,37.125-2.628Z" transform="translate(1180.045 325.594) rotate(-90)" fill="#12263f"/>
    <line id="Línea_148" data-name="Línea 148" y1="232.925" transform="translate(1200.408 201.907)" fill="none" stroke="#12263f" stroke-miterlimit="10" stroke-width="2"/>
    <line id="Línea_149" data-name="Línea 149" x2="232.925" transform="translate(1235.388 166.927)" fill="none" stroke="#12263f" stroke-miterlimit="10" stroke-width="2"/>
  </g>
</svg>
