<svg xmlns="http://www.w3.org/2000/svg" xmlns:xlink="http://www.w3.org/1999/xlink" width="299.348" height="208.179" viewBox="0 0 299.348 208.179">
  <defs>
    <linearGradient id="linear-gradient" x1="0.5" x2="0.5" y2="1" gradientUnits="objectBoundingBox">
      <stop offset="0" stop-color="#fff"/>
      <stop offset="1" stop-color="#d2e6ee"/>
    </linearGradient>
    <linearGradient id="linear-gradient-5" y1="0.5" x2="1" y2="0.5" gradientUnits="objectBoundingBox">
      <stop offset="0" stop-color="#ff928e"/>
      <stop offset="1" stop-color="#feb3b1"/>
    </linearGradient>
    <linearGradient id="linear-gradient-8" x1="294.087" y1="1.605" x2="296.088" y2="4.278" xlink:href="#linear-gradient-5"/>
    <linearGradient id="linear-gradient-9" x1="0.439" y1="-3.503" x2="0.505" y2="0.689" xlink:href="#linear-gradient-5"/>
    <linearGradient id="linear-gradient-10" x1="0.511" y1="0.146" x2="0.456" y2="1.705" xlink:href="#linear-gradient-5"/>
    <linearGradient id="linear-gradient-11" x1="-47.545" y1="17.427" x2="-48.867" y2="15.942" xlink:href="#linear-gradient-5"/>
    <linearGradient id="linear-gradient-12" x1="-155.484" y1="82.575" x2="-159.791" y2="75.375" xlink:href="#linear-gradient-5"/>
    <linearGradient id="linear-gradient-13" x1="0.5" x2="0.5" y2="1" gradientUnits="objectBoundingBox">
      <stop offset="0" stop-color="#fff"/>
      <stop offset="1" stop-color="#d3d3d3"/>
    </linearGradient>
    <linearGradient id="linear-gradient-25" x1="1.66" y1="1.186" x2="0.085" y2="0.256" xlink:href="#linear-gradient-5"/>
    <linearGradient id="linear-gradient-26" x1="0.892" y1="0.928" x2="-0.916" y2="-1.638" xlink:href="#linear-gradient-5"/>
    <linearGradient id="linear-gradient-27" y1="0.5" x2="1" y2="0.5" gradientUnits="objectBoundingBox">
      <stop offset="0" stop-color="#dae3fe"/>
      <stop offset="1" stop-color="#e9effd"/>
    </linearGradient>
    <linearGradient id="linear-gradient-28" x1="0" y1="0.5" x2="1" y2="0.5" xlink:href="#linear-gradient-27"/>
    <linearGradient id="linear-gradient-40" x1="0" y1="0.5" x2="1" y2="0.5" xlink:href="#linear-gradient-27"/>
    <linearGradient id="linear-gradient-41" x1="0" y1="0.5" x2="1" y2="0.5" xlink:href="#linear-gradient-27"/>
    <linearGradient id="linear-gradient-45" x1="0" y1="0.5" x2="1" y2="0.5" xlink:href="#linear-gradient-27"/>
    <linearGradient id="linear-gradient-49" x1="0" y1="0.5" x2="1" y2="0.5" xlink:href="#linear-gradient-27"/>
    <linearGradient id="linear-gradient-126" x1="0" y1="0.5" x2="1" y2="0.5" xlink:href="#linear-gradient-27"/>
  </defs>
  <g id="Grupo_46190" data-name="Grupo 46190" transform="translate(-323.582 -253.746)">
    <g id="Grupo_46161" data-name="Grupo 46161" transform="translate(323.582 278.465)">
      <path id="Trazado_96199" data-name="Trazado 96199" d="M323.582,420.953V558.678c0,11.33,8.7,20.595,19.622,20.887,48.494,1.3,218.1,4.442,264.264,3.737a15.1,15.1,0,0,0,14.59-14.935c.89-32,2.336-108.933-3.014-144.653a15.456,15.456,0,0,0-14.582-13.39c-40.632-1.348-220.427-5.63-266.568-4.555A14.936,14.936,0,0,0,323.582,420.953Z" transform="translate(-323.582 -405.597)" fill="#00223d"/>
      <path id="Trazado_96200" data-name="Trazado 96200" d="M374.757,447.8V578.649a11.9,11.9,0,0,0,11.5,12.1l257.419,3.3A11.565,11.565,0,0,0,655.2,582.316l.431-129.679a8.476,8.476,0,0,0-8.1-8.646l-263.549-5.523A9.162,9.162,0,0,0,374.757,447.8Z" transform="translate(-366.426 -433.115)" fill="#f1f1f1"/>
      <path id="Trazado_96201" data-name="Trazado 96201" d="M655.54,1397.931h-.006l-282.378-4.991a.31.31,0,0,1-.3-.316.319.319,0,0,1,.316-.3l282.378,4.991a.31.31,0,0,1-.005.62Z" transform="translate(-364.83 -1231.691)" fill="#fff" opacity="0.65"/>
    </g>
    <g id="Grupo_46178" data-name="Grupo 46178" transform="translate(340.63 296.748)">
      <path id="Trazado_96202" data-name="Trazado 96202" d="M509.408,930.908H434.952a4.065,4.065,0,0,1-4.065-4.065v-7.387a3,3,0,0,1,2.995-2.995h76.6a3,3,0,0,1,3,2.995v7.387A4.065,4.065,0,0,1,509.408,930.908Z" transform="translate(-430.467 -851.58)" fill="#707070" opacity="0.37"/>
      <path id="Trazado_96203" data-name="Trazado 96203" d="M509.408,1092.636H434.952a4.065,4.065,0,0,1-4.065-4.065v-40.2a3,3,0,0,1,2.995-3h76.6a3,3,0,0,1,3,3v40.2A4.065,4.065,0,0,1,509.408,1092.636Z" transform="translate(-430.467 -959.513)" fill="#707070" opacity="0.37"/>
      <path id="Trazado_96204" data-name="Trazado 96204" d="M1072.156,930.908H997.7a4.065,4.065,0,0,1-4.065-4.065v-7.387a3,3,0,0,1,2.995-2.995h76.6a3,3,0,0,1,2.995,2.995v7.387A4.065,4.065,0,0,1,1072.156,930.908Z" transform="translate(-901.606 -851.58)" fill="#707070" opacity="0.37"/>
      <path id="Trazado_96205" data-name="Trazado 96205" d="M1072.156,1092.636H997.7a4.065,4.065,0,0,1-4.065-4.065v-40.2a3,3,0,0,1,2.995-3h76.6a3,3,0,0,1,2.995,3v40.2A4.065,4.065,0,0,1,1072.156,1092.636Z" transform="translate(-901.606 -959.513)" fill="#707070" opacity="0.37"/>
      <path id="Trazado_96206" data-name="Trazado 96206" d="M1634.9,930.908h-74.456a4.065,4.065,0,0,1-4.065-4.065v-7.387a3,3,0,0,1,3-2.995h76.6a3,3,0,0,1,3,2.995v7.387A4.065,4.065,0,0,1,1634.9,930.908Z" transform="translate(-1372.744 -851.58)" fill="#707070" opacity="0.37"/>
      <path id="Trazado_96207" data-name="Trazado 96207" d="M1634.9,1092.636h-74.456a4.065,4.065,0,0,1-4.065-4.065v-40.2a3,3,0,0,1,3-3h76.6a3,3,0,0,1,3,3v40.2A4.065,4.065,0,0,1,1634.9,1092.636Z" transform="translate(-1372.744 -959.513)" fill="#707070" opacity="0.37"/>
      <g id="Grupo_46162" data-name="Grupo 46162" transform="translate(0)">
        <path id="Trazado_96208" data-name="Trazado 96208" d="M428.823,527.481c-.214,9.184-1.964,38.6,2.507,44.895,6.33,8.909,59.547,4.689,72.558,1.172s6.682-36.572,5.275-46.067-27.708-9.846-47.085-9.495S429.012,519.393,428.823,527.481Z" transform="translate(-428.308 -517.903)" fill="#f6c343"/>
        <path id="Trazado_96209" data-name="Trazado 96209" d="M902.578,607.092a.546.546,0,0,1-.542-.484c-.448-3.97-1.022-7.611-1.442-10.27l-.171-1.084a.546.546,0,0,1,1.078-.168l.17,1.082c.421,2.668,1,6.323,1.448,10.317a.546.546,0,0,1-.481.6A.53.53,0,0,1,902.578,607.092Z" transform="translate(-823.563 -582.135)" fill="#fff"/>
        <path id="Trazado_96210" data-name="Trazado 96210" d="M811.552,733.871a.546.546,0,0,1-.072-1.087A81.285,81.285,0,0,0,821,731.07c5.146-1.391,7.431-8.571,6.792-21.341a.545.545,0,0,1,.518-.572.558.558,0,0,1,.572.518c.668,13.353-1.888,20.906-7.6,22.449a82.314,82.314,0,0,1-9.655,1.742A.56.56,0,0,1,811.552,733.871Z" transform="translate(-748.708 -678.022)" fill="#fff"/>
        <path id="Trazado_96211" data-name="Trazado 96211" d="M449.981,729.813a.546.546,0,0,1-.543-.5c-.244-2.7-.389-5.96-.43-9.7a.546.546,0,0,1,1.091-.012c.041,3.709.184,6.943.426,9.612a.546.546,0,0,1-.494.593Z" transform="translate(-445.638 -686.319)" opacity="0.56" fill="url(#linear-gradient)"/>
        <path id="Trazado_96212" data-name="Trazado 96212" d="M450.524,554.294h-.016a.546.546,0,0,1-.529-.562c.053-1.772.111-3.426.163-4.9.058-1.65.108-3.07.134-4.169.152-6.537,8.883-8.279,21.944-8.884a.546.546,0,1,1,.051,1.09c-14.734.681-20.79,2.947-20.9,7.819-.026,1.1-.076,2.527-.134,4.182-.052,1.47-.11,3.122-.163,4.892A.545.545,0,0,1,450.524,554.294Z" transform="translate(-446.451 -532.87)" fill="#fff"/>
        <path id="Trazado_96213" data-name="Trazado 96213" d="M599,622.35a1.166,1.166,0,0,1-.992-1.778l20.321-32.979a1.166,1.166,0,0,1,1.985,1.223L599.994,621.8A1.166,1.166,0,0,1,599,622.35Z" transform="translate(-570.238 -575.784)" fill="#fff"/>
        <path id="Trazado_96214" data-name="Trazado 96214" d="M536.332,645.813a1.163,1.163,0,0,1-.865-.384l-7.926-8.76a5.33,5.33,0,0,1-1.315-3.932A5.18,5.18,0,0,1,528,629.122l8.352-7.02a1.166,1.166,0,0,1,1.5,1.785l-8.352,7.02a2.839,2.839,0,0,0-.948,1.989,2.989,2.989,0,0,0,.718,2.209l7.926,8.76a1.166,1.166,0,0,1-.864,1.948Z" transform="translate(-510.276 -604.91)" fill="#fff"/>
        <path id="Trazado_96215" data-name="Trazado 96215" d="M743.655,645.813a1.166,1.166,0,0,1-.864-1.948l7.926-8.76a2.99,2.99,0,0,0,.718-2.209,2.84,2.84,0,0,0-.948-1.989l-8.352-7.02a1.166,1.166,0,1,1,1.5-1.785l8.352,7.02a5.179,5.179,0,0,1,1.774,3.615,5.331,5.331,0,0,1-1.315,3.932l-7.926,8.76A1.163,1.163,0,0,1,743.655,645.813Z" transform="translate(-690.699 -604.91)" fill="#fff"/>
      </g>
      <g id="Grupo_46164" data-name="Grupo 46164" transform="translate(92.157 0.333)">
        <path id="Trazado_96216" data-name="Trazado 96216" d="M994.935,529.527c-.214,9.184-1.964,38.6,2.508,44.895,6.33,8.909,59.547,4.689,72.558,1.172s6.681-36.572,5.275-46.067-27.708-9.846-47.085-9.495S995.124,521.439,994.935,529.527Z" transform="translate(-994.42 -519.949)" fill="#00223d"/>
        <path id="Trazado_96217" data-name="Trazado 96217" d="M1468.691,607.092a.546.546,0,0,1-.542-.484c-.448-3.97-1.022-7.611-1.442-10.27l-.17-1.084a.546.546,0,1,1,1.078-.168l.17,1.082c.421,2.668,1,6.323,1.448,10.317a.545.545,0,0,1-.481.6A.531.531,0,0,1,1468.691,607.092Z" transform="translate(-1389.676 -582.468)" fill="#fff"/>
        <path id="Trazado_96218" data-name="Trazado 96218" d="M1377.664,733.871a.546.546,0,0,1-.072-1.087,81.287,81.287,0,0,0,9.515-1.714c5.145-1.391,7.431-8.571,6.792-21.341a.545.545,0,0,1,.518-.572.558.558,0,0,1,.572.518c.668,13.353-1.888,20.906-7.6,22.449a82.31,82.31,0,0,1-9.655,1.742A.555.555,0,0,1,1377.664,733.871Z" transform="translate(-1314.82 -678.356)" fill="#fff"/>
        <path id="Trazado_96219" data-name="Trazado 96219" d="M1016.093,729.813a.546.546,0,0,1-.543-.5c-.244-2.7-.389-5.96-.43-9.7a.546.546,0,0,1,1.091-.012c.041,3.709.184,6.943.426,9.612a.546.546,0,0,1-.494.593Z" transform="translate(-1011.75 -686.652)" fill="#fff"/>
        <path id="Trazado_96220" data-name="Trazado 96220" d="M1016.637,554.294h-.017a.546.546,0,0,1-.529-.562c.053-1.772.112-3.426.163-4.9.058-1.65.108-3.07.134-4.169.152-6.537,8.883-8.279,21.944-8.884a.546.546,0,1,1,.05,1.09c-14.734.681-20.79,2.947-20.9,7.819-.026,1.1-.076,2.527-.134,4.182-.052,1.47-.11,3.122-.163,4.892A.545.545,0,0,1,1016.637,554.294Z" transform="translate(-1012.563 -533.204)" fill="#fff"/>
        <g id="Grupo_46163" data-name="Grupo 46163" transform="translate(20.554 6.702)">
          <path id="Trazado_96221" data-name="Trazado 96221" d="M1252.812,582.94a1.165,1.165,0,0,1-1.147-1.373l3.519-19.488a1.166,1.166,0,0,1,1.363-.939,21.2,21.2,0,0,1,17.027,17.616,1.166,1.166,0,0,1-.985,1.33l-19.609,2.842A1.151,1.151,0,0,1,1252.812,582.94Zm4.451-19.255-3.016,16.7,16.807-2.436A18.878,18.878,0,0,0,1257.263,563.685Z" transform="translate(-1230.326 -561.121)" fill="#fff"/>
          <path id="Trazado_96222" data-name="Trazado 96222" d="M1138,649.993a17.322,17.322,0,1,1,3.218-34.342,1.166,1.166,0,0,1,.932,1.353l-2.548,14.113,14.2-2.058a1.168,1.168,0,0,1,1.32.978A17.336,17.336,0,0,1,1138,649.993Zm0-32.313a14.991,14.991,0,1,0,14.991,14.99c0-.377-.014-.755-.042-1.131l-14.615,2.118a1.166,1.166,0,0,1-1.315-1.361l2.623-14.525A14.871,14.871,0,0,0,1138,617.68Z" transform="translate(-1120.68 -606.52)" fill="#fff"/>
        </g>
      </g>
      <g id="Grupo_46165" data-name="Grupo 46165" transform="translate(184.314 0.333)">
        <path id="Trazado_96223" data-name="Trazado 96223" d="M1561.048,529.527c-.214,9.184-1.964,38.6,2.507,44.895,6.33,8.909,59.547,4.689,72.558,1.172s6.681-36.572,5.275-46.067-27.708-9.846-47.085-9.495S1561.237,521.439,1561.048,529.527Z" transform="translate(-1560.533 -519.949)" fill="#26aab7"/>
        <path id="Trazado_96224" data-name="Trazado 96224" d="M2034.8,607.092a.546.546,0,0,1-.541-.484c-.448-3.97-1.022-7.611-1.442-10.27l-.17-1.084a.546.546,0,0,1,1.078-.168l.17,1.082c.421,2.668,1,6.323,1.448,10.317a.546.546,0,0,1-.481.6A.532.532,0,0,1,2034.8,607.092Z" transform="translate(-1955.788 -582.468)" fill="#fff"/>
        <path id="Trazado_96225" data-name="Trazado 96225" d="M1943.777,733.871a.546.546,0,0,1-.072-1.087,81.268,81.268,0,0,0,9.515-1.714c5.146-1.391,7.431-8.571,6.792-21.341a.546.546,0,0,1,.518-.572.558.558,0,0,1,.572.518c.668,13.353-1.888,20.906-7.6,22.449a82.3,82.3,0,0,1-9.655,1.742A.56.56,0,0,1,1943.777,733.871Z" transform="translate(-1880.933 -678.356)" fill="#fff"/>
        <path id="Trazado_96226" data-name="Trazado 96226" d="M1582.206,729.813a.546.546,0,0,1-.543-.5c-.244-2.7-.389-5.96-.43-9.7a.546.546,0,0,1,1.092-.012c.04,3.709.184,6.943.426,9.612a.546.546,0,0,1-.494.593Z" transform="translate(-1577.863 -686.652)" fill="#fff"/>
        <path id="Trazado_96227" data-name="Trazado 96227" d="M1582.75,554.294h-.017a.546.546,0,0,1-.529-.562c.053-1.772.111-3.426.163-4.9.058-1.65.108-3.07.134-4.169.152-6.537,8.883-8.279,21.944-8.884a.546.546,0,0,1,.051,1.09c-14.734.681-20.791,2.947-20.9,7.819-.025,1.1-.076,2.527-.134,4.182-.052,1.47-.11,3.122-.163,4.892A.545.545,0,0,1,1582.75,554.294Z" transform="translate(-1578.676 -533.204)" fill="#fff"/>
        <path id="Trazado_96228" data-name="Trazado 96228" d="M1753.954,637.009a1.4,1.4,0,0,1-1.4-1.365l-.641-23.932a2.26,2.26,0,0,1,3.216-2.108l23.641,11.057a2.26,2.26,0,0,1,.106,4.041l-20.868,11.125a1.4,1.4,0,0,1-1.32-2.476l19.9-10.611-21.848-10.219.617,23.047a1.4,1.4,0,0,1-1.365,1.441Z" transform="translate(-1720.756 -594.829)" fill="#fff"/>
      </g>
      <g id="Grupo_46169" data-name="Grupo 46169" transform="translate(24.527 47.706)">
        <g id="Grupo_46166" data-name="Grupo 46166" transform="translate(0 17.311)">
          <path id="Trazado_96229" data-name="Trazado 96229" d="M603,922.266l-4.12-4.019a3.356,3.356,0,0,0-2.343-.954H587.6a3.356,3.356,0,0,0-2.315.926l-4.216,4.015a3.356,3.356,0,0,0-1.04,2.342l-1.052,39.693a3.356,3.356,0,0,0,3.355,3.445h20.165a3.357,3.357,0,0,0,3.353-3.512l-1.84-39.69A3.357,3.357,0,0,0,603,922.266Zm-10.864,2.069a2.508,2.508,0,1,1,2.047-2.047A2.51,2.51,0,0,1,592.133,924.336Z" transform="translate(-578.972 -917.294)" fill="url(#linear-gradient)"/>
        </g>
        <path id="Trazado_96230" data-name="Trazado 96230" d="M608.426,994.777l14.881-2.527a.969.969,0,0,1,1.132.956v.842a.969.969,0,0,1-.86.963L608.7,996.7a.969.969,0,0,1-1.078-.963h0A.969.969,0,0,1,608.426,994.777Z" transform="translate(-602.956 -962.726)" fill="#00223d"/>
        <path id="Trazado_96231" data-name="Trazado 96231" d="M608.426,1022.07l14.881-2.527a.97.97,0,0,1,1.132.956v.842a.969.969,0,0,1-.86.963l-14.881,1.685a.969.969,0,0,1-1.078-.963h0A.969.969,0,0,1,608.426,1022.07Z" transform="translate(-602.956 -985.575)" fill="#00223d"/>
        <g id="Grupo_46168" data-name="Grupo 46168" transform="translate(3.264 44.16)">
          <circle id="Elipse_3872" data-name="Elipse 3872" cx="8.251" cy="8.251" r="8.251" transform="translate(0 16.061) rotate(-76.717)" fill="#00223d"/>
          <circle id="Elipse_3873" data-name="Elipse 3873" cx="7.977" cy="7.977" r="7.977" transform="translate(1.035 2.984) rotate(-7.018)" fill="#f6c343"/>
          <path id="Trazado_96232" data-name="Trazado 96232" d="M618,1100.732a.31.31,0,0,1-.277-.45,7.641,7.641,0,0,1,6.855-4.22,7.725,7.725,0,0,1,1.384.125.31.31,0,1,1-.112.61,7.1,7.1,0,0,0-1.273-.115,7.024,7.024,0,0,0-6.3,3.879A.31.31,0,0,1,618,1100.732Z" transform="translate(-614.647 -1093.809)" fill="#fff" opacity="0.61"/>
          <circle id="Elipse_3874" data-name="Elipse 3874" cx="6.751" cy="6.751" r="6.751" transform="translate(0.552 10.1) rotate(-45)" fill="#fff" opacity="0.61"/>
          <g id="Grupo_46167" data-name="Grupo 46167" transform="translate(7.126 5.322)">
            <path id="Trazado_96233" data-name="Trazado 96233" d="M645.11,1124.713v-.734a6,6,0,0,1-2.061-.447.425.425,0,0,1-.235-.5l.187-.684a.428.428,0,0,1,.581-.28,4.974,4.974,0,0,0,1.9.4c.738,0,1.287-.25,1.287-.763,0-.462-.425-.737-1.45-1.012-1.462-.4-2.513-1.037-2.513-2.325,0-1.163.85-2.05,2.325-2.288v-.735a.428.428,0,0,1,.428-.428h.432a.428.428,0,0,1,.428.428V1116a5.463,5.463,0,0,1,1.634.293.426.426,0,0,1,.266.514l-.172.633a.426.426,0,0,1-.563.288,4.461,4.461,0,0,0-1.6-.291c-.875,0-1.125.362-1.125.687,0,.4.525.675,1.663,1.025,1.625.488,2.3,1.162,2.3,2.375a2.5,2.5,0,0,1-2.425,2.363v.822a.428.428,0,0,1-.428.428h-.432A.428.428,0,0,1,645.11,1124.713Z" transform="translate(-642.799 -1114.916)" fill="#f6c343"/>
          </g>
        </g>
        <path id="Trazado_96234" data-name="Trazado 96234" d="M627.688,834.442a.635.635,0,0,1-.587-.392c-1.089-2.635.156-5.48,1.392-7.4.377-.586.786-1.16,1.183-1.716a15.78,15.78,0,0,0,2.451-4.305,7.717,7.717,0,0,0-1.478-7.192,4.912,4.912,0,0,0-5.176-.773c-1.652.871-4,3.927-1.149,14.609a.635.635,0,0,1-1.227.327c-2.921-10.956-.642-14.78,1.784-16.059a6.081,6.081,0,0,1,6.731,1.069,9.013,9.013,0,0,1,1.726,8.4,16.963,16.963,0,0,1-2.629,4.662c-.388.543-.788,1.1-1.148,1.665-.878,1.365-2.212,3.99-1.286,6.23a.635.635,0,0,1-.586.877Z" transform="translate(-614.763 -810.956)" fill="#00223d"/>
      </g>
      <g id="Grupo_46173" data-name="Grupo 46173" transform="translate(119.122 47.706)">
        <g id="Grupo_46170" data-name="Grupo 46170" transform="translate(0 17.311)">
          <path id="Trazado_96235" data-name="Trazado 96235" d="M1184.088,922.266l-4.12-4.019a3.356,3.356,0,0,0-2.344-.954h-8.938a3.356,3.356,0,0,0-2.315.926l-4.216,4.015a3.357,3.357,0,0,0-1.041,2.342l-1.052,39.693a3.356,3.356,0,0,0,3.355,3.445h20.165a3.356,3.356,0,0,0,3.353-3.512l-1.84-39.69A3.357,3.357,0,0,0,1184.088,922.266Zm-10.865,2.069a2.508,2.508,0,1,1,2.047-2.047A2.509,2.509,0,0,1,1173.224,924.336Z" transform="translate(-1160.063 -917.294)" fill="url(#linear-gradient)"/>
        </g>
        <path id="Trazado_96236" data-name="Trazado 96236" d="M1189.517,994.777l14.881-2.527a.97.97,0,0,1,1.132.956v.842a.97.97,0,0,1-.861.963l-14.881,1.685a.969.969,0,0,1-1.078-.963h0A.969.969,0,0,1,1189.517,994.777Z" transform="translate(-1184.047 -962.726)" fill="#00223d"/>
        <path id="Trazado_96237" data-name="Trazado 96237" d="M1189.517,1022.07l14.881-2.527a.97.97,0,0,1,1.132.956v.842a.969.969,0,0,1-.861.963l-14.881,1.685a.969.969,0,0,1-1.078-.963h0A.969.969,0,0,1,1189.517,1022.07Z" transform="translate(-1184.047 -985.575)" fill="#00223d"/>
        <g id="Grupo_46172" data-name="Grupo 46172" transform="translate(2.409 43.305)">
          <circle id="Elipse_3875" data-name="Elipse 3875" cx="8.251" cy="8.251" r="8.251" transform="translate(0 15.246) rotate(-67.5)" fill="#00223d"/>
          <circle id="Elipse_3876" data-name="Elipse 3876" cx="7.977" cy="7.977" r="7.977" transform="matrix(0.973, -0.23, 0.23, 0.973, 1.185, 4.85)" fill="#f6c343"/>
          <path id="Trazado_96238" data-name="Trazado 96238" d="M1199.086,1100.732a.31.31,0,0,1-.277-.45,7.641,7.641,0,0,1,6.854-4.22,7.724,7.724,0,0,1,1.384.125.31.31,0,1,1-.112.61,7.1,7.1,0,0,0-1.273-.115,7.024,7.024,0,0,0-6.3,3.879A.31.31,0,0,1,1199.086,1100.732Z" transform="translate(-1194.883 -1092.954)" fill="#fff" opacity="0.61"/>
          <circle id="Elipse_3877" data-name="Elipse 3877" cx="6.751" cy="6.751" r="6.751" transform="translate(2.133 7.301) rotate(-22.5)" fill="#fff" opacity="0.61"/>
          <g id="Grupo_46171" data-name="Grupo 46171" transform="translate(7.981 6.176)">
            <path id="Trazado_96239" data-name="Trazado 96239" d="M1226.2,1124.713v-.734a6,6,0,0,1-2.061-.447.425.425,0,0,1-.235-.5l.186-.684a.428.428,0,0,1,.582-.28,4.975,4.975,0,0,0,1.9.4c.737,0,1.287-.25,1.287-.763,0-.462-.425-.737-1.45-1.012-1.462-.4-2.513-1.037-2.513-2.325,0-1.163.85-2.05,2.325-2.288v-.735a.428.428,0,0,1,.428-.428h.432a.428.428,0,0,1,.428.428V1116a5.464,5.464,0,0,1,1.634.293.426.426,0,0,1,.266.514l-.172.633a.427.427,0,0,1-.563.288,4.46,4.46,0,0,0-1.6-.291c-.875,0-1.125.362-1.125.687,0,.4.525.675,1.663,1.025,1.625.488,2.3,1.162,2.3,2.375a2.5,2.5,0,0,1-2.425,2.363v.822a.428.428,0,0,1-.428.428h-.432A.428.428,0,0,1,1226.2,1124.713Z" transform="translate(-1223.889 -1114.916)" fill="#f6c343"/>
          </g>
        </g>
        <path id="Trazado_96240" data-name="Trazado 96240" d="M1208.779,834.442a.635.635,0,0,1-.587-.392c-1.089-2.635.156-5.48,1.392-7.4.377-.586.786-1.16,1.183-1.716a15.771,15.771,0,0,0,2.451-4.305,7.716,7.716,0,0,0-1.478-7.192,4.912,4.912,0,0,0-5.176-.773c-1.652.871-4,3.927-1.15,14.609a.635.635,0,0,1-1.227.327c-2.921-10.956-.642-14.78,1.784-16.059a6.081,6.081,0,0,1,6.731,1.069,9.012,9.012,0,0,1,1.726,8.4,16.961,16.961,0,0,1-2.629,4.662c-.387.543-.788,1.1-1.148,1.665-.878,1.365-2.212,3.99-1.286,6.23a.635.635,0,0,1-.586.877Z" transform="translate(-1195.854 -810.956)" fill="#00223d"/>
      </g>
      <g id="Grupo_46177" data-name="Grupo 46177" transform="translate(213.717 47.706)">
        <g id="Grupo_46174" data-name="Grupo 46174" transform="translate(0 17.311)">
          <path id="Trazado_96241" data-name="Trazado 96241" d="M1765.179,922.266l-4.12-4.019a3.356,3.356,0,0,0-2.344-.954h-8.938a3.356,3.356,0,0,0-2.315.926l-4.216,4.015a3.357,3.357,0,0,0-1.04,2.342l-1.052,39.693a3.356,3.356,0,0,0,3.355,3.445h20.165a3.356,3.356,0,0,0,3.353-3.512l-1.84-39.69A3.357,3.357,0,0,0,1765.179,922.266Zm-10.864,2.069a2.508,2.508,0,1,1,2.047-2.047A2.51,2.51,0,0,1,1754.314,924.336Z" transform="translate(-1741.153 -917.294)" fill="url(#linear-gradient)"/>
        </g>
        <path id="Trazado_96242" data-name="Trazado 96242" d="M1770.607,994.777l14.881-2.527a.969.969,0,0,1,1.132.956v.842a.969.969,0,0,1-.86.963l-14.881,1.685a.969.969,0,0,1-1.078-.963h0A.969.969,0,0,1,1770.607,994.777Z" transform="translate(-1765.137 -962.726)" fill="#00223d"/>
        <path id="Trazado_96243" data-name="Trazado 96243" d="M1770.607,1022.07l14.881-2.527a.969.969,0,0,1,1.132.956v.842a.969.969,0,0,1-.86.963l-14.881,1.685a.969.969,0,0,1-1.078-.963h0A.97.97,0,0,1,1770.607,1022.07Z" transform="translate(-1765.137 -985.575)" fill="#00223d"/>
        <g id="Grupo_46176" data-name="Grupo 46176" transform="translate(3.882 44.778)">
          <circle id="Elipse_3878" data-name="Elipse 3878" cx="8.251" cy="8.251" r="8.251" transform="matrix(0.138, -0.99, 0.99, 0.138, 0, 16.346)" fill="#00223d"/>
          <circle id="Elipse_3879" data-name="Elipse 3879" cx="7.977" cy="7.977" r="7.977" transform="translate(0.437 2.339) rotate(-6.845)" fill="#f6c343"/>
          <path id="Trazado_96244" data-name="Trazado 96244" d="M1780.177,1100.732a.31.31,0,0,1-.277-.45,7.641,7.641,0,0,1,6.854-4.22,7.72,7.72,0,0,1,1.384.125.31.31,0,1,1-.112.61,7.1,7.1,0,0,0-1.273-.115,7.024,7.024,0,0,0-6.3,3.879A.31.31,0,0,1,1780.177,1100.732Z" transform="translate(-1777.447 -1094.427)" fill="#fff" opacity="0.61"/>
          <circle id="Elipse_3880" data-name="Elipse 3880" cx="6.751" cy="6.751" r="6.751" transform="translate(1.594 4.101) rotate(-10.699)" fill="#fff" opacity="0.61"/>
          <g id="Grupo_46175" data-name="Grupo 46175" transform="translate(6.508 4.703)">
            <path id="Trazado_96245" data-name="Trazado 96245" d="M1807.29,1124.713v-.734a5.994,5.994,0,0,1-2.061-.447.425.425,0,0,1-.235-.5l.187-.684a.428.428,0,0,1,.581-.28,4.975,4.975,0,0,0,1.9.4c.738,0,1.287-.25,1.287-.763,0-.462-.425-.737-1.45-1.012-1.462-.4-2.512-1.037-2.512-2.325,0-1.163.85-2.05,2.325-2.288v-.735a.428.428,0,0,1,.428-.428h.432a.428.428,0,0,1,.428.428V1116a5.463,5.463,0,0,1,1.634.293.426.426,0,0,1,.266.514l-.172.633a.426.426,0,0,1-.563.288,4.462,4.462,0,0,0-1.6-.291c-.875,0-1.125.362-1.125.687,0,.4.525.675,1.663,1.025,1.625.488,2.3,1.162,2.3,2.375a2.5,2.5,0,0,1-2.425,2.363v.822a.428.428,0,0,1-.428.428h-.432A.428.428,0,0,1,1807.29,1124.713Z" transform="translate(-1804.979 -1114.916)" fill="#f6c343"/>
          </g>
        </g>
        <path id="Trazado_96246" data-name="Trazado 96246" d="M1789.87,834.442a.635.635,0,0,1-.587-.392c-1.089-2.635.156-5.48,1.392-7.4.377-.586.786-1.16,1.183-1.716a15.776,15.776,0,0,0,2.451-4.305,7.718,7.718,0,0,0-1.478-7.192,4.912,4.912,0,0,0-5.176-.773c-1.652.871-4,3.927-1.149,14.609a.635.635,0,0,1-1.227.327c-2.921-10.956-.642-14.78,1.784-16.059a6.081,6.081,0,0,1,6.731,1.069,9.013,9.013,0,0,1,1.726,8.4,16.968,16.968,0,0,1-2.629,4.662c-.387.543-.788,1.1-1.148,1.665-.878,1.365-2.212,3.99-1.286,6.23a.635.635,0,0,1-.586.877Z" transform="translate(-1776.944 -810.956)" fill="#00223d"/>
      </g>
    </g>
    <g id="Grupo_46186" data-name="Grupo 46186" transform="translate(399.366 344.072)">
      <path id="Trazado_96247" data-name="Trazado 96247" d="M944.942,1485.612s-.406,2.3-.605,4.576a1.568,1.568,0,0,0,1.5,1.7c3.031.126,9.516.372,11.842.268a.51.51,0,0,0,.449-.7h0a1.142,1.142,0,0,0-.584-.615l-10.711-4.923Z" transform="translate(-919.064 -1375.404)" fill="#d5f2e8"/>
      <path id="Trazado_96248" data-name="Trazado 96248" d="M946.042,1475.128l.326,2.75s1.876.874,3.158-.11l-.777-3.065Z" transform="translate(-920.497 -1366.27)" fill="url(#linear-gradient-5)"/>
      <path id="Trazado_96249" data-name="Trazado 96249" d="M903.8,1159.646c-.141.718-.757,35.844,3,51.586a.534.534,0,0,1-.313.621,9.3,9.3,0,0,1-3.058.622.92.92,0,0,1-.913-.661c-1.073-3.652-6.216-21.951-6.887-39.431-.75-19.532,0-.665,0-.665l.44-12.074Z" transform="translate(-878.01 -1102.5)" fill="#7d6eb2"/>
      <path id="Trazado_96250" data-name="Trazado 96250" d="M865.755,1492.981a16.547,16.547,0,0,0-1.272,4.246.957.957,0,0,0,.842,1.146c1,.1,2.542.225,3.776.217a.954.954,0,0,0,.945-1.064,8.048,8.048,0,0,0-1.879-4.413Z" transform="translate(-852.198 -1381.573)" fill="#d5f2e8"/>
      <path id="Trazado_96251" data-name="Trazado 96251" d="M868.912,1470.417l.763,4.16a2.689,2.689,0,0,0,2.245.154l-.364-4.475Z" transform="translate(-855.923 -1362.547)" fill="url(#linear-gradient-5)"/>
      <path id="Trazado_96252" data-name="Trazado 96252" d="M850.177,1156.276c-3.071,18.533.666,45.806,1.926,51.144a.832.832,0,0,0,.672.632,5.586,5.586,0,0,0,2.4-.1.763.763,0,0,0,.548-.7c.169-4.316-.135-30.809,2.726-41.279a2.378,2.378,0,0,1,.917-1.312l5.554-3.948.426-6.382Z" transform="translate(-839.248 -1098.052)" fill="#7d6eb2"/>
      <g id="Grupo_46179" data-name="Grupo 46179" transform="translate(9.783 8.855)">
        <path id="Trazado_96253" data-name="Trazado 96253" d="M869.928,942.821a86.518,86.518,0,0,0-19.357,2.416c-2.743,16.006-.48,34.469-.48,34.469,7.125,1.868,15.162-1.142,15.162-1.142,1.184-6.69,6.709-25.519,6.709-25.519a30.314,30.314,0,0,0,11.251-3.57,19.733,19.733,0,0,1-3.9-8.158A30.879,30.879,0,0,1,869.928,942.821Z" transform="translate(-849.213 -928.569)" fill="#d5f2e8"/>
        <path id="Trazado_96254" data-name="Trazado 96254" d="M1051.908,863.7a1.761,1.761,0,0,0-2.048-.575c-1.354,5.721-8.455,10.359-15.75,12.626a19.735,19.735,0,0,0,3.9,8.158C1050.116,877.1,1051.908,863.7,1051.908,863.7Z" transform="translate(-1004.01 -863.005)" fill="url(#linear-gradient-5)"/>
      </g>
      <g id="Grupo_46180" data-name="Grupo 46180" transform="translate(55.632)">
        <path id="Trazado_96255" data-name="Trazado 96255" d="M1132.692,818.441c.095.3-1,.759-1.646-.471-.022-.589-.381-3.115-.029-3.6a47.041,47.041,0,0,1,5.513-5.763.866.866,0,0,1,.108,1.2l-1.764,1.838a8.547,8.547,0,0,1,1.03,2.036,2.473,2.473,0,0,1-.247,1.82c-.31.558-.732,1.283-1.132,1.851A2.441,2.441,0,0,1,1132.692,818.441Z" transform="translate(-1130.864 -808.611)" fill="url(#linear-gradient-8)"/>
        <path id="Trazado_96256" data-name="Trazado 96256" d="M1139.9,834.614l-1.608,1.363-.5,1.357,1.433,1.59a18.5,18.5,0,0,1,.84-3.276C1140.417,835.066,1140.231,834.784,1139.9,834.614Z" transform="translate(-1136.658 -830.381)" fill="url(#linear-gradient-9)"/>
      </g>
      <path id="Trazado_96257" data-name="Trazado 96257" d="M809.6,974.312l-3.53-8.911s-8.6,5.841-10.01,13.246a19.555,19.555,0,0,1,7.24,2.03C804.609,977.739,809.6,974.312,809.6,974.312Z" transform="translate(-794.933 -939.877)" fill="#d5f2e8"/>
      <path id="Trazado_96258" data-name="Trazado 96258" d="M904.05,904.663l-2.928,8.468a.305.305,0,0,0,.139.367,6.883,6.883,0,0,0,7.139-.48,1.436,1.436,0,0,0,.662-1.026l.948-7.329Z" transform="translate(-882.875 -889.027)" fill="url(#linear-gradient-10)"/>
      <g id="Grupo_46181" data-name="Grupo 46181" transform="translate(15.618 3.394)">
        <path id="Trazado_96259" data-name="Trazado 96259" d="M919.736,856.492s3.215,6.053,2.8,8.5-4.4,2.269-7.877.284l-2.432-6.535Z" transform="translate(-907.807 -852.091)" fill="url(#linear-gradient-11)"/>
        <path id="Trazado_96260" data-name="Trazado 96260" d="M892.067,839.43a.249.249,0,0,0,.109-.365,6.515,6.515,0,0,1-.895-1.9s-.578-.37,1.471-.861,5.105-1.252,5.748-3c.626-1.7-1.019-5.977-3.645-2.57a.249.249,0,0,1-.4,0,2.572,2.572,0,0,0-3.133-1.018,2.359,2.359,0,0,0-1.615,2.28.248.248,0,0,1-.294.254,2.877,2.877,0,0,0-3.359,1.566c-.686,1.507-.24,2.36.166,2.777a.249.249,0,0,1-.106.413,1.5,1.5,0,0,0-1.056,1.708c.087,1.582,1.856,1.443,2.36,1.371a.25.25,0,0,1,.221.078c.432.478,2.377,2.507,4.483,2.751a.251.251,0,0,0,.264-.332l-.911-2.649a.251.251,0,0,1,.135-.311Z" transform="translate(-885.058 -829.457)" fill="#00223d"/>
        <path id="Trazado_96261" data-name="Trazado 96261" d="M917.682,889.028s-2.289-1.571-2.457-.248,2.062,1.916,3.166,1.423Z" transform="translate(-910.307 -878.679)" fill="url(#linear-gradient-12)"/>
      </g>
      <g id="Grupo_46185" data-name="Grupo 46185" transform="translate(11.308 54.508)">
        <path id="Trazado_96262" data-name="Trazado 96262" d="M1015.883,1230.95a.642.642,0,0,1-.63-.524l-4.174-22.4a.641.641,0,0,1,1.261-.235l4.174,22.4a.643.643,0,0,1-.631.759Z" transform="translate(-986.246 -1196.882)" fill="url(#linear-gradient-13)"/>
        <path id="Trazado_96263" data-name="Trazado 96263" d="M1001.681,1228.416h-34.3a1.282,1.282,0,1,1,0-2.564h33.458l8.668-20.036h-49.5a1.282,1.282,0,0,1,0-2.565h51.451a1.282,1.282,0,0,1,1.177,1.792l-9.777,22.6A1.282,1.282,0,0,1,1001.681,1228.416Z" transform="translate(-942.423 -1193.516)" fill="url(#linear-gradient-13)"/>
        <g id="Grupo_46182" data-name="Grupo 46182">
          <path id="Trazado_96264" data-name="Trazado 96264" d="M915.566,1200.779H888.537a1.335,1.335,0,0,1-1.279-.954l-16.1-53.706H859.918a1.335,1.335,0,1,1,0-2.669h12.238a1.335,1.335,0,0,1,1.279.954l16.1,53.706h26.034a1.335,1.335,0,1,1,0,2.669Z" transform="translate(-858.583 -1143.45)" fill="url(#linear-gradient-13)"/>
        </g>
        <g id="Grupo_46183" data-name="Grupo 46183" transform="translate(25.996 55.317)">
          <circle id="Elipse_3881" data-name="Elipse 3881" cx="3.337" cy="3.337" r="3.337" transform="translate(0 6.495) rotate(-76.718)" fill="#00223d"/>
          <circle id="Elipse_3882" data-name="Elipse 3882" cx="2.41" cy="2.41" r="2.41" transform="translate(1.512 1.604)" fill="url(#linear-gradient-13)"/>
        </g>
        <g id="Grupo_46184" data-name="Grupo 46184" transform="translate(51.431 55.503)">
          <circle id="Elipse_3883" data-name="Elipse 3883" cx="3.337" cy="3.337" r="3.337" transform="translate(0 6.588) rotate(-80.783)" fill="#00223d"/>
          <circle id="Elipse_3884" data-name="Elipse 3884" cx="2.41" cy="2.41" r="2.41" transform="translate(1.326 1.418)" fill="url(#linear-gradient-13)"/>
        </g>
        <path id="Trazado_96265" data-name="Trazado 96265" d="M1070.086,1232.63a.641.641,0,0,1-.641-.628l-.444-22.191a.641.641,0,0,1,.628-.654.632.632,0,0,1,.654.628l.444,22.191a.641.641,0,0,1-.628.654Z" transform="translate(-1034.748 -1198.461)" fill="url(#linear-gradient-13)"/>
        <path id="Trazado_96266" data-name="Trazado 96266" d="M1112.392,1232.522a.641.641,0,0,1-.641-.641v-22.09a.641.641,0,1,1,1.282,0v22.09A.641.641,0,0,1,1112.392,1232.522Z" transform="translate(-1070.538 -1198.454)" fill="url(#linear-gradient-13)"/>
        <path id="Trazado_96267" data-name="Trazado 96267" d="M1159.294,1232.429h0a.641.641,0,0,1-.637-.646l.152-21.987a.641.641,0,0,1,.641-.636h0a.641.641,0,0,1,.637.645l-.152,21.987A.641.641,0,0,1,1159.294,1232.429Z" transform="translate(-1109.805 -1198.462)" fill="url(#linear-gradient-13)"/>
        <path id="Trazado_96268" data-name="Trazado 96268" d="M1189.765,1233.889a.65.65,0,0,1-.123-.012.641.641,0,0,1-.507-.751l4.167-21.478a.641.641,0,1,1,1.259.244l-4.167,21.478A.642.642,0,0,1,1189.765,1233.889Z" transform="translate(-1135.315 -1200.111)" fill="url(#linear-gradient-13)"/>
        <path id="Trazado_96269" data-name="Trazado 96269" d="M1021.528,1242.324H974.191a.641.641,0,0,1,0-1.282h47.337a.641.641,0,0,1,0,1.282Z" transform="translate(-954.835 -1225.155)" fill="url(#linear-gradient-13)"/>
        <path id="Trazado_96270" data-name="Trazado 96270" d="M1029.671,1282.346H987.322a.641.641,0,1,1,0-1.282h42.349a.641.641,0,1,1,0,1.282Z" transform="translate(-965.828 -1258.662)" fill="url(#linear-gradient-13)"/>
        <path id="Trazado_96271" data-name="Trazado 96271" d="M1035.2,1319.242h-37.87a.641.641,0,1,1,0-1.282h37.87a.641.641,0,1,1,0,1.282Z" transform="translate(-974.205 -1289.552)" fill="url(#linear-gradient-13)"/>
      </g>
      <path id="Trazado_96272" data-name="Trazado 96272" d="M790.309,1045.021s-5.875,13.382,8.486,15.341l1.958-1.632s-7.181-3.917-3.264-11.75C797.49,1046.98,793.247,1043.389,790.309,1045.021Z" transform="translate(-789.119 -1006.18)" fill="url(#linear-gradient-25)"/>
      <path id="Trazado_96273" data-name="Trazado 96273" d="M850.516,1131.42h5.222s3.264,4.243,2.938,5.222-3.552.2-3.552.2l-1.67-2.812s-4.9.327-4.9-.979S850.516,1131.42,850.516,1131.42Z" transform="translate(-838.882 -1078.87)" fill="url(#linear-gradient-26)"/>
    </g>
    <g id="Grupo_46187" data-name="Grupo 46187" transform="translate(495.244 405.057)">
      <path id="Trazado_96274" data-name="Trazado 96274" d="M1479.153,1201.411a.961.961,0,0,1-.96-.931c-.019-.609-.349-14.947,9.545-16.478a6.784,6.784,0,0,1,5.57,1.486c4.883,4.025,5.343,14.482,5.36,14.925a.961.961,0,0,1-1.92.075c0-.1-.443-10.042-4.664-13.518a4.874,4.874,0,0,0-4.052-1.069c-8.233,1.274-7.922,14.387-7.918,14.519a.961.961,0,0,1-.93.99Z" transform="translate(-1461.893 -1183.796)" fill="#00223d"/>
      <path id="Trazado_96275" data-name="Trazado 96275" d="M1378.111,1303.621l7.031-40.108,26.412-.437,8.513,43.194H1380.4A2.312,2.312,0,0,1,1378.111,1303.621Z" transform="translate(-1378.086 -1250.079)" fill="#7d6eb2"/>
      <path id="Trazado_96276" data-name="Trazado 96276" d="M1588.811,1263.512l-5.13-.437,8.513,43.194h5.093a1.628,1.628,0,0,0,1.594-1.96Z" transform="translate(-1550.212 -1250.079)" fill="#5d4b9d"/>
      <path id="Trazado_96277" data-name="Trazado 96277" d="M1444.289,1200.74a.961.961,0,0,1-.96-.931c-.019-.609-.349-14.946,9.545-16.478a6.782,6.782,0,0,1,5.57,1.486c4.884,4.025,5.343,14.481,5.36,14.925a.961.961,0,0,1-1.92.074c0-.1-.443-10.042-4.663-13.518a4.874,4.874,0,0,0-4.052-1.068c-8.233,1.274-7.922,14.387-7.918,14.519a.961.961,0,0,1-.931.99Z" transform="translate(-1432.704 -1183.234)" fill="#00223d"/>
    </g>
    <g id="Grupo_46188" data-name="Grupo 46188" transform="translate(529.276 422.372)">
      <path id="Trazado_96278" data-name="Trazado 96278" d="M1676.656,1304.489a.416.416,0,0,1-.416-.4,23.515,23.515,0,0,1,.817-6.365c1.22-4.351,3.67-6.931,7.084-7.459a5.466,5.466,0,0,1,4.489,1.2c4.081,3.363,4.469,12.224,4.484,12.6a.416.416,0,1,1-.832.032c0-.088-.389-8.865-4.182-11.99a4.666,4.666,0,0,0-3.831-1.014c-7.476,1.157-7.2,12.857-7.2,12.975a.416.416,0,0,1-.4.429Z" transform="translate(-1661.733 -1290.09)" fill="#00223d"/>
      <path id="Trazado_96279" data-name="Trazado 96279" d="M1587.163,1381.725l6.079-25.264,22.836-.377,7.36,27.931h-34.3A2,2,0,0,1,1587.163,1381.725Z" transform="translate(-1587.141 -1345.262)" fill="#26aab7"/>
      <path id="Trazado_96280" data-name="Trazado 96280" d="M1769.33,1356.461l-4.435-.377,7.36,27.931h4.4a1.407,1.407,0,0,0,1.378-1.694Z" transform="translate(-1735.959 -1345.262)" fill="#167377"/>
      <path id="Trazado_96281" data-name="Trazado 96281" d="M1646.513,1303.91a.417.417,0,0,1-.416-.4,23.529,23.529,0,0,1,.818-6.365c1.22-4.351,3.67-6.93,7.084-7.459a5.465,5.465,0,0,1,4.489,1.2c4.081,3.363,4.469,12.224,4.484,12.6a.416.416,0,0,1-.832.032c0-.088-.389-8.865-4.182-11.99a4.662,4.662,0,0,0-3.831-1.014c-7.476,1.157-7.2,12.857-7.2,12.975a.416.416,0,0,1-.4.429Z" transform="translate(-1636.497 -1289.605)" fill="#00223d"/>
    </g>
    <g id="Grupo_46189" data-name="Grupo 46189" transform="translate(465.371 253.746)">
      <path id="Trazado_96282" data-name="Trazado 96282" d="M1372.307,1292.879l-.922-.165a.159.159,0,1,1,.056-.314h.006l.911.171h0a.155.155,0,0,1-.056.305Z" transform="translate(-1342.493 -1123.316)" fill="url(#linear-gradient-27)"/>
      <path id="Trazado_96283" data-name="Trazado 96283" d="M1353.723,1288.226l-.9-.259a.173.173,0,1,1,.1-.332h.006l.887.263h.005a.169.169,0,0,1-.095.324Z" transform="translate(-1326.958 -1119.324)" fill="url(#linear-gradient-28)"/>
      <path id="Trazado_96284" data-name="Trazado 96284" d="M1335.7,1281.733l-.87-.347a.186.186,0,0,1,.138-.346h0l.005,0,.857.35,0,0a.182.182,0,0,1-.136.338Z" transform="translate(-1311.897 -1113.797)" fill="url(#linear-gradient-28)"/>
      <path id="Trazado_96285" data-name="Trazado 96285" d="M1318.375,1273.529l-.833-.428a.2.2,0,0,1,.182-.355h0l.005,0,.819.43,0,0a.2.2,0,0,1-.18.347Z" transform="translate(-1297.434 -1106.845)" fill="url(#linear-gradient-28)"/>
      <path id="Trazado_96286" data-name="Trazado 96286" d="M1301.884,1263.756l-.791-.5a.213.213,0,0,1,.229-.36h0l0,0,.776.5,0,0a.209.209,0,0,1-.225.352Z" transform="translate(-1283.671 -1098.588)" fill="url(#linear-gradient-28)"/>
      <path id="Trazado_96287" data-name="Trazado 96287" d="M1286.32,1252.56l-.744-.57a.227.227,0,0,1,.276-.36h0l0,0,.729.569,0,0a.222.222,0,0,1-.272.352Z" transform="translate(-1270.689 -1089.147)" fill="url(#linear-gradient-28)"/>
      <path id="Trazado_96288" data-name="Trazado 96288" d="M1271.763,1240.079l-.693-.63a.24.24,0,1,1,.323-.355h0l0,0,.679.628,0,0a.236.236,0,0,1-.319.347Z" transform="translate(-1258.552 -1078.638)" fill="url(#linear-gradient-28)"/>
      <path id="Trazado_96289" data-name="Trazado 96289" d="M1258.278,1226.445l-.64-.685a.253.253,0,0,1,.37-.346v0l0,0,.625.681,0,0a.249.249,0,0,1-.366.339Z" transform="translate(-1247.316 -1067.17)" fill="url(#linear-gradient-28)"/>
      <path id="Trazado_96290" data-name="Trazado 96290" d="M1245.925,1211.779l-.583-.733a.267.267,0,1,1,.418-.332v0l0,.005.569.729,0,0a.263.263,0,0,1-.413.325Z" transform="translate(-1237.03 -1054.845)" fill="url(#linear-gradient-28)"/>
      <path id="Trazado_96291" data-name="Trazado 96291" d="M1234.755,1196.179l-.525-.778a.28.28,0,0,1,.465-.313v0l0,.005.51.772,0,.005a.276.276,0,0,1-.459.307Z" transform="translate(-1227.735 -1041.744)" fill="url(#linear-gradient-28)"/>
      <path id="Trazado_96292" data-name="Trazado 96292" d="M1224.837,1179.765l-.462-.816a.294.294,0,1,1,.511-.289v0l0,.006.448.808,0,.006a.29.29,0,0,1-.506.283Z" transform="translate(-1219.493 -1027.968)" fill="url(#linear-gradient-28)"/>
      <path id="Trazado_96293" data-name="Trazado 96293" d="M1216.231,1162.628l-.4-.85a.307.307,0,0,1,.557-.259v0l0,.007.383.841,0,.006a.3.3,0,0,1-.551.254Z" transform="translate(-1212.351 -1013.594)" fill="url(#linear-gradient-28)"/>
      <path id="Trazado_96294" data-name="Trazado 96294" d="M1209.017,1144.871l-.326-.882a.319.319,0,1,1,.6-.221h0l0,.007.316.869,0,.007a.316.316,0,0,1-.594.218Z" transform="translate(-1206.377 -998.708)" fill="url(#linear-gradient-28)"/>
      <path id="Trazado_96295" data-name="Trazado 96295" d="M1203.287,1126.6l-.252-.9a.326.326,0,0,1,.629-.175v0l0,.008.243.891,0,.008a.324.324,0,0,1-.625.172Z" transform="translate(-1201.648 -983.408)" fill="url(#linear-gradient-40)"/>
      <path id="Trazado_96296" data-name="Trazado 96296" d="M1199.063,1107.952l-.18-.921a.334.334,0,1,1,.656-.128h0v.007l.173.907v.007a.332.332,0,0,1-.651.125Z" transform="translate(-1198.177 -967.792)" fill="url(#linear-gradient-41)"/>
      <path id="Trazado_96297" data-name="Trazado 96297" d="M1196.244,1089.033l-.112-.932a.342.342,0,1,1,.678-.081v.009l.105.917v.007a.339.339,0,0,1-.674.079Z" transform="translate(-1195.877 -951.957)" fill="url(#linear-gradient-28)"/>
      <path id="Trazado_96298" data-name="Trazado 96298" d="M1194.8,1069.963l-.045-.937a.349.349,0,1,1,.7-.033V1069l.04.923v.007a.347.347,0,0,1-.693.031Z" transform="translate(-1194.723 -936.001)" fill="url(#linear-gradient-28)"/>
      <path id="Trazado_96299" data-name="Trazado 96299" d="M1194.578,1050.843l.02-.938a.357.357,0,0,1,.713.015v.009l-.024.924v.007a.354.354,0,0,1-.708-.017Z" transform="translate(-1194.578 -920.006)" fill="url(#linear-gradient-41)"/>
      <path id="Trazado_96300" data-name="Trazado 96300" d="M1195.424,1031.759l.082-.934a.364.364,0,1,1,.726.064v.009l-.085.92v.007a.362.362,0,0,1-.721-.065Z" transform="translate(-1195.285 -904.046)" fill="url(#linear-gradient-45)"/>
      <path id="Trazado_96301" data-name="Trazado 96301" d="M1197.511,1012.793l.141-.927a.372.372,0,0,1,.735.112v.009l-.143.913v.007a.37.37,0,0,1-.73-.113Z" transform="translate(-1197.03 -888.187)" fill="url(#linear-gradient-28)"/>
      <path id="Trazado_96302" data-name="Trazado 96302" d="M1200.784,994.014l.2-.917a.379.379,0,1,1,.742.16v.009l-.2.9v.007a.377.377,0,0,1-.737-.161Z" transform="translate(-1199.767 -872.488)" fill="url(#linear-gradient-28)"/>
      <path id="Trazado_96303" data-name="Trazado 96303" d="M1205.189,975.485l.251-.9a.387.387,0,1,1,.746.208v0l0,.006-.252.889,0,.007a.385.385,0,0,1-.74-.208Z" transform="translate(-1203.449 -857)" fill="url(#linear-gradient-28)"/>
      <path id="Trazado_96304" data-name="Trazado 96304" d="M1210.67,957.263l.3-.887a.395.395,0,0,1,.747.255v0l0,.006-.3.873,0,.006a.392.392,0,0,1-.742-.255Z" transform="translate(-1208.033 -841.772)" fill="url(#linear-gradient-49)"/>
      <path id="Trazado_96305" data-name="Trazado 96305" d="M1217.185,939.384l.352-.87a.4.4,0,1,1,.745.3v0l0,.006-.352.856,0,.006a.4.4,0,0,1-.74-.3Z" transform="translate(-1213.48 -826.831)" fill="url(#linear-gradient-28)"/>
      <path id="Trazado_96306" data-name="Trazado 96306" d="M1224.684,921.918l.4-.848a.41.41,0,0,1,.742.349v0l0,.006-.4.834,0,.006a.407.407,0,0,1-.737-.349Z" transform="translate(-1219.75 -812.24)" fill="url(#linear-gradient-28)"/>
      <path id="Trazado_96307" data-name="Trazado 96307" d="M1233.126,904.9l.444-.826a.417.417,0,1,1,.735.4v0l0,.006-.442.812,0,.006a.415.415,0,0,1-.73-.4Z" transform="translate(-1226.808 -798.025)" fill="url(#linear-gradient-28)"/>
      <path id="Trazado_96308" data-name="Trazado 96308" d="M1242.477,888.374l.489-.8a.425.425,0,0,1,.726.442v0l0,.006-.485.788,0,.006a.423.423,0,0,1-.72-.442Z" transform="translate(-1234.627 -784.221)" fill="url(#linear-gradient-28)"/>
      <path id="Trazado_96309" data-name="Trazado 96309" d="M1252.726,872.409l.531-.772a.429.429,0,1,1,.707.487h0l0,.005-.525.761,0,.005a.428.428,0,0,1-.705-.486Z" transform="translate(-1243.197 -770.895)" fill="url(#linear-gradient-28)"/>
      <path id="Trazado_96310" data-name="Trazado 96310" d="M1263.812,857.012l.568-.745a.432.432,0,1,1,.686.524h0l0,0-.562.734,0,0a.431.431,0,0,1-.685-.523Z" transform="translate(-1252.467 -758.041)" fill="url(#linear-gradient-28)"/>
      <path id="Trazado_96311" data-name="Trazado 96311" d="M1275.634,842.173l.6-.717a.434.434,0,1,1,.665.559h0l0,0-.6.707,0,0a.433.433,0,0,1-.663-.558Z" transform="translate(-1262.354 -745.653)" fill="url(#linear-gradient-28)"/>
      <path id="Trazado_96312" data-name="Trazado 96312" d="M1288.138,827.9l.634-.689a.437.437,0,1,1,.642.591h0l0,0-.628.68,0,0a.436.436,0,0,1-.641-.591Z" transform="translate(-1272.811 -733.741)" fill="url(#linear-gradient-28)"/>
      <path id="Trazado_96313" data-name="Trazado 96313" d="M1301.271,814.2l.663-.661a.439.439,0,1,1,.62.622h0l0,0-.657.652,0,0a.438.438,0,0,1-.618-.622Z" transform="translate(-1283.794 -722.308)" fill="url(#linear-gradient-28)"/>
      <path id="Trazado_96314" data-name="Trazado 96314" d="M1314.98,801.078l.69-.633a.442.442,0,1,1,.6.651h0l0,0-.683.625,0,0a.441.441,0,0,1-.6-.65Z" transform="translate(-1295.26 -711.351)" fill="url(#linear-gradient-28)"/>
      <path id="Trazado_96315" data-name="Trazado 96315" d="M1329.215,788.518l.714-.605a.444.444,0,1,1,.574.678h0l0,0-.707.6,0,0a.443.443,0,0,1-.573-.677Z" transform="translate(-1307.166 -700.868)" fill="url(#linear-gradient-28)"/>
      <path id="Trazado_96316" data-name="Trazado 96316" d="M1343.927,776.514l.736-.578a.447.447,0,0,1,.552.7h0l0,0-.729.571,0,0a.446.446,0,0,1-.55-.7Z" transform="translate(-1319.472 -690.849)" fill="url(#linear-gradient-28)"/>
      <path id="Trazado_96317" data-name="Trazado 96317" d="M1359.075,765.057l.755-.551a.449.449,0,1,1,.529.726h0l0,0-.749.544,0,0a.448.448,0,0,1-.528-.725Z" transform="translate(-1332.142 -681.288)" fill="url(#linear-gradient-28)"/>
      <path id="Trazado_96318" data-name="Trazado 96318" d="M1374.609,754.132l.774-.526a.452.452,0,1,1,.507.747h0l0,0-.767.519,0,0a.451.451,0,0,1-.506-.746Z" transform="translate(-1345.136 -672.169)" fill="url(#linear-gradient-28)"/>
      <path id="Trazado_96319" data-name="Trazado 96319" d="M1390.512,743.715l.791-.5a.454.454,0,1,1,.486.767h0l0,0-.785.5,0,0a.453.453,0,0,1-.484-.766Z" transform="translate(-1358.439 -663.475)" fill="url(#linear-gradient-28)"/>
      <path id="Trazado_96320" data-name="Trazado 96320" d="M1406.736,733.8l.806-.477a.457.457,0,1,1,.465.786h0l0,0-.8.471,0,0a.456.456,0,0,1-.464-.785Z" transform="translate(-1372.011 -655.201)" fill="url(#linear-gradient-28)"/>
      <path id="Trazado_96321" data-name="Trazado 96321" d="M1423.253,724.375l.819-.453a.459.459,0,0,1,.444.8h0l0,0-.813.448,0,0a.458.458,0,0,1-.443-.8Z" transform="translate(-1385.829 -647.334)" fill="url(#linear-gradient-28)"/>
      <path id="Trazado_96322" data-name="Trazado 96322" d="M1440.035,715.42l.831-.43a.462.462,0,0,1,.424.82h0l0,0-.824.425,0,0a.461.461,0,0,1-.423-.819Z" transform="translate(-1399.868 -639.861)" fill="url(#linear-gradient-28)"/>
      <path id="Trazado_96323" data-name="Trazado 96323" d="M1457.051,706.919l.84-.408a.464.464,0,0,1,.405.835h0l-.835.4h0a.463.463,0,0,1-.4-.834Z" transform="translate(-1414.104 -632.767)" fill="url(#linear-gradient-28)"/>
      <path id="Trazado_96324" data-name="Trazado 96324" d="M1474.27,698.838l.849-.388a.467.467,0,1,1,.388.849h0l-.844.384h0a.466.466,0,0,1-.386-.848Z" transform="translate(-1428.511 -626.022)" fill="url(#linear-gradient-28)"/>
      <path id="Trazado_96325" data-name="Trazado 96325" d="M1491.665,691.145l.856-.369a.469.469,0,0,1,.371.862h0l-.852.365h0a.468.468,0,0,1-.37-.861Z" transform="translate(-1443.066 -619.6)" fill="url(#linear-gradient-28)"/>
      <path id="Trazado_96326" data-name="Trazado 96326" d="M1509.218,683.81l.865-.352a.472.472,0,0,1,.356.874h0l-.86.349h0a.471.471,0,0,1-.355-.872Z" transform="translate(-1457.752 -613.476)" fill="url(#linear-gradient-28)"/>
      <path id="Trazado_96327" data-name="Trazado 96327" d="M1526.917,676.808l.869-.336a.474.474,0,0,1,.342.884h0l-.865.333h0a.473.473,0,0,1-.341-.883Z" transform="translate(-1472.562 -607.63)" fill="url(#linear-gradient-28)"/>
      <path id="Trazado_96328" data-name="Trazado 96328" d="M1544.727,670.108l.875-.322a.477.477,0,0,1,.33.895h0l-.871.319h0a.476.476,0,0,1-.328-.893Z" transform="translate(-1487.466 -602.035)" fill="url(#linear-gradient-28)"/>
      <path id="Trazado_96329" data-name="Trazado 96329" d="M1562.644,663.692l.88-.308a.477.477,0,1,1,.315.9h0l-.876.308h0a.477.477,0,1,1-.317-.9Z" transform="translate(-1502.459 -596.677)" fill="url(#linear-gradient-28)"/>
      <path id="Trazado_96330" data-name="Trazado 96330" d="M1580.665,657.531l.883-.3a.475.475,0,1,1,.3.9h0l-.88.3h0a.475.475,0,0,1-.3-.9Z" transform="translate(-1517.543 -591.53)" fill="url(#linear-gradient-28)"/>
      <path id="Trazado_96331" data-name="Trazado 96331" d="M1598.765,651.575l.887-.288a.472.472,0,1,1,.291.9l-.884.288a.473.473,0,0,1-.3-.9Z" transform="translate(-1532.694 -586.553)" fill="url(#linear-gradient-28)"/>
      <path id="Trazado_96332" data-name="Trazado 96332" d="M1616.93,645.793l.889-.28a.47.47,0,1,1,.282.9l-.887.28a.471.471,0,0,1-.286-.9Z" transform="translate(-1547.9 -581.72)" fill="url(#linear-gradient-28)"/>
      <path id="Trazado_96333" data-name="Trazado 96333" d="M1635.147,640.155l.891-.273a.468.468,0,1,1,.274.9l-.889.274a.469.469,0,1,1-.278-.9Z" transform="translate(-1563.15 -577.006)" fill="url(#linear-gradient-28)"/>
      <path id="Trazado_96334" data-name="Trazado 96334" d="M1653.4,634.628l.893-.268a.466.466,0,0,1,.268.892l-.891.269a.467.467,0,0,1-.271-.893Z" transform="translate(-1578.434 -572.383)" fill="url(#linear-gradient-28)"/>
      <path id="Trazado_96335" data-name="Trazado 96335" d="M1671.685,629.182l.893-.265a.464.464,0,1,1,.264.889l-.892.266a.464.464,0,1,1-.266-.89Z" transform="translate(-1593.738 -567.827)" fill="url(#linear-gradient-28)"/>
      <path id="Trazado_96336" data-name="Trazado 96336" d="M1689.977,623.784l.893-.263a.462.462,0,0,1,.261.886l-.892.264a.462.462,0,1,1-.263-.886Z" transform="translate(-1609.054 -563.31)" fill="url(#linear-gradient-28)"/>
      <path id="Trazado_96337" data-name="Trazado 96337" d="M1708.276,618.4l.893-.263a.46.46,0,0,1,.261.881l-.893.264a.46.46,0,0,1-.261-.882Z" transform="translate(-1624.375 -558.802)" fill="url(#linear-gradient-28)"/>
      <path id="Trazado_96338" data-name="Trazado 96338" d="M1726.569,613l.893-.265a.457.457,0,1,1,.261.877l-.893.266a.458.458,0,0,1-.262-.878Z" transform="translate(-1639.692 -554.276)" fill="url(#linear-gradient-28)"/>
      <path id="Trazado_96339" data-name="Trazado 96339" d="M1744.851,607.539l.892-.268a.455.455,0,0,1,.263.872l-.893.27a.456.456,0,0,1-.264-.873Z" transform="translate(-1655 -549.704)" fill="url(#linear-gradient-28)"/>
      <path id="Trazado_96340" data-name="Trazado 96340" d="M1763.111,602l.891-.273a.453.453,0,1,1,.267.866l-.892.274a.454.454,0,0,1-.267-.867Z" transform="translate(-1670.291 -545.06)" fill="url(#linear-gradient-28)"/>
      <path id="Trazado_96341" data-name="Trazado 96341" d="M1781.338,596.339l.888-.279a.451.451,0,1,1,.272.86l-.89.281a.451.451,0,0,1-.272-.861Z" transform="translate(-1685.554 -540.317)" fill="url(#linear-gradient-28)"/>
      <path id="Trazado_96342" data-name="Trazado 96342" d="M1799.52,590.532l.885-.287a.449.449,0,1,1,.278.853l-.887.289a.449.449,0,1,1-.278-.855Z" transform="translate(-1700.78 -535.448)" fill="url(#linear-gradient-28)"/>
      <path id="Trazado_96343" data-name="Trazado 96343" d="M1817.644,584.546l.882-.3h0a.447.447,0,0,1,.285.846l-.885.3a.447.447,0,1,1-.286-.847Z" transform="translate(-1715.959 -530.427)" fill="url(#linear-gradient-28)"/>
      <path id="Trazado_96344" data-name="Trazado 96344" d="M1835.7,578.346l.878-.307h0a.445.445,0,0,1,.294.839l-.881.309a.445.445,0,1,1-.295-.84h0Z" transform="translate(-1731.078 -525.226)" fill="url(#linear-gradient-28)"/>
      <path id="Trazado_96345" data-name="Trazado 96345" d="M1853.669,571.9l.873-.319h0a.442.442,0,0,1,.3.83l-.876.322a.443.443,0,1,1-.306-.831h0Z" transform="translate(-1746.131 -519.819)" fill="url(#linear-gradient-28)"/>
      <path id="Trazado_96346" data-name="Trazado 96346" d="M1871.538,565.184l.867-.333h0a.44.44,0,0,1,.316.821l-.871.336a.441.441,0,1,1-.317-.822h0Z" transform="translate(-1761.098 -514.181)" fill="url(#linear-gradient-28)"/>
      <path id="Trazado_96347" data-name="Trazado 96347" d="M1889.287,558.162l.86-.348h0a.438.438,0,0,1,.329.812l-.865.352a.439.439,0,0,1-.33-.813h0Z" transform="translate(-1775.964 -508.287)" fill="url(#linear-gradient-28)"/>
      <path id="Trazado_96348" data-name="Trazado 96348" d="M1906.9,550.806l.853-.365h0a.436.436,0,0,1,.344.8l-.858.369a.436.436,0,0,1-.345-.8h0Z" transform="translate(-1790.717 -502.111)" fill="url(#linear-gradient-28)"/>
      <path id="Trazado_96349" data-name="Trazado 96349" d="M1924.359,543.085l.845-.384h0a.434.434,0,0,1,.359.789l-.85.387a.434.434,0,0,1-.36-.79h0Z" transform="translate(-1805.343 -495.629)" fill="url(#linear-gradient-28)"/>
      <path id="Trazado_96350" data-name="Trazado 96350" d="M1941.647,534.96l.834-.4,0,0a.431.431,0,0,1,.377.776l-.841.409a.432.432,0,1,1-.378-.777h0Z" transform="translate(-1819.825 -488.805)" fill="url(#linear-gradient-28)"/>
      <path id="Trazado_96351" data-name="Trazado 96351" d="M1958.681,526.27l.817-.435,0,0a.429.429,0,0,1,.4.758l-.826.442a.43.43,0,1,1-.406-.758h0Z" transform="translate(-1834.098 -481.497)" fill="url(#linear-gradient-28)"/>
      <path id="Trazado_96352" data-name="Trazado 96352" d="M1975.345,516.858l.794-.472.006,0a.427.427,0,0,1,.437.733l-.8.481a.428.428,0,1,1-.439-.734h0Z" transform="translate(-1848.065 -473.577)" fill="url(#linear-gradient-28)"/>
      <path id="Trazado_96353" data-name="Trazado 96353" d="M1991.539,506.608l.766-.515.006,0a.42.42,0,0,1,.471.7l-.777.527a.422.422,0,1,1-.474-.7h0Z" transform="translate(-1861.641 -464.95)" fill="url(#linear-gradient-28)"/>
      <path id="Trazado_96354" data-name="Trazado 96354" d="M2007.093,495.355l.727-.566.008-.006a.414.414,0,0,1,.51.652l-.74.58a.416.416,0,1,1-.513-.654h0Z" transform="translate(-1874.683 -455.472)" fill="url(#linear-gradient-28)"/>
      <path id="Trazado_96355" data-name="Trazado 96355" d="M2021.787,482.956l.677-.623.008-.008a.407.407,0,0,1,.553.6l-.69.641a.409.409,0,1,1-.557-.6h0Z" transform="translate(-1887.009 -445.025)" fill="url(#linear-gradient-28)"/>
      <path id="Trazado_96356" data-name="Trazado 96356" d="M2035.35,469.28l.611-.686.009-.01a.4.4,0,0,1,.6.532l-.626.708a.4.4,0,1,1-.6-.533h0Z" transform="translate(-1898.389 -433.498)" fill="url(#linear-gradient-28)"/>
      <path id="Trazado_96357" data-name="Trazado 96357" d="M2047.443,454.263l.526-.75.008-.012a.394.394,0,0,1,.646.452l-.54.776a.4.4,0,0,1-.65-.453h0Z" transform="translate(-1908.539 -420.843)" fill="url(#linear-gradient-40)"/>
      <path id="Trazado_96358" data-name="Trazado 96358" d="M2057.664,437.924l.423-.811.008-.014a.388.388,0,0,1,.688.358l-.435.841a.389.389,0,1,1-.692-.358h0Z" transform="translate(-1917.12 -407.076)" fill="url(#linear-gradient-28)"/>
      <path id="Trazado_96359" data-name="Trazado 96359" d="M2065.641,420.449q.16-.429.3-.862v0a.381.381,0,0,1,.724.238q-.148.452-.312.9a.383.383,0,1,1-.719-.265h0Z" transform="translate(-1923.82 -392.368)" fill="url(#linear-gradient-40)"/>
      <path id="Trazado_96360" data-name="Trazado 96360" d="M2070.952,402.011l.165-.9,0-.017a.375.375,0,0,1,.737.133l-.167.933a.376.376,0,1,1-.741-.133v0Z" transform="translate(-1928.28 -376.852)" fill="url(#linear-gradient-41)"/>
      <path id="Trazado_96361" data-name="Trazado 96361" d="M2073.382,383.141l.028-.914v-.016a.368.368,0,0,1,.736.021l-.025.947a.37.37,0,1,1-.74-.02v-.018Z" transform="translate(-1930.321 -360.999)" fill="url(#linear-gradient-28)"/>
      <path id="Trazado_96362" data-name="Trazado 96362" d="M2072.455,364.2l-.1-.911,0-.015a.362.362,0,0,1,.719-.083l.111.941a.364.364,0,0,1-.722.085h0Z" transform="translate(-1929.455 -345.105)" fill="url(#linear-gradient-28)"/>
      <path id="Trazado_96363" data-name="Trazado 96363" d="M2068.7,345.616l-.231-.886,0-.015a.355.355,0,0,1,.687-.18l.242.915a.357.357,0,0,1-.691.183h0Z" transform="translate(-1926.2 -329.534)" fill="url(#linear-gradient-41)"/>
      <path id="Trazado_96364" data-name="Trazado 96364" d="M2062.37,327.744l-.354-.846-.006-.014a.349.349,0,0,1,.643-.271l.369.873a.35.35,0,1,1-.646.273h0Z" transform="translate(-1920.779 -314.573)" fill="url(#linear-gradient-28)"/>
      <path id="Trazado_96365" data-name="Trazado 96365" d="M2053.532,310.972l-.472-.784-.008-.013a.342.342,0,0,1,.585-.354l.492.808a.344.344,0,1,1-.588.358h0Z" transform="translate(-1913.261 -300.555)" fill="url(#linear-gradient-28)"/>
      <path id="Trazado_96366" data-name="Trazado 96366" d="M2042.292,295.729l-.585-.7-.01-.012a.336.336,0,0,1,.514-.431l.609.724a.338.338,0,0,1-.517.435h0Z" transform="translate(-1903.729 -287.836)" fill="url(#linear-gradient-28)"/>
      <path id="Trazado_96367" data-name="Trazado 96367" d="M2028.812,282.481c-.228-.2-.457-.405-.692-.6a.329.329,0,0,1,.417-.509c.245.2.483.408.72.618a.331.331,0,0,1-.439.5h0Z" transform="translate(-1892.328 -276.813)" fill="url(#linear-gradient-28)"/>
      <path id="Trazado_96368" data-name="Trazado 96368" d="M2013.275,271.574l-.78-.478-.013-.008a.323.323,0,0,1,.336-.551l.808.491a.325.325,0,0,1-.337.555h0Z" transform="translate(-1879.207 -267.764)" fill="url(#linear-gradient-28)"/>
      <path id="Trazado_96369" data-name="Trazado 96369" d="M1996.251,263.287l-.846-.353-.013-.006a.316.316,0,0,1,.242-.583l.874.36a.318.318,0,0,1-.242.588h0Z" transform="translate(-1864.866 -260.925)" fill="url(#linear-gradient-28)"/>
      <path id="Trazado_96370" data-name="Trazado 96370" d="M1978.177,257.671l-.889-.225-.013,0a.3.3,0,0,1,.147-.59l.917.225a.308.308,0,1,1-.147.6h0Z" transform="translate(-1849.668 -256.339)" fill="url(#linear-gradient-28)"/>
      <path id="Trazado_96371" data-name="Trazado 96371" d="M1959.472,254.744l-.913-.1h-.013a.293.293,0,0,1,.059-.582l.939.091a.3.3,0,1,1-.057.589h-.015Z" transform="translate(-1833.961 -254.012)" fill="url(#linear-gradient-28)"/>
      <path id="Trazado_96372" data-name="Trazado 96372" d="M1940.523,254.315l-.919.038h-.013a.281.281,0,0,1-.025-.562l.944-.046a.285.285,0,1,1,.028.568h-.015Z" transform="translate(-1818.066 -253.746)" fill="url(#linear-gradient-28)"/>
      <path id="Trazado_96373" data-name="Trazado 96373" d="M1921.743,256.2l-.9.174-.012,0a.269.269,0,0,1-.1-.529l.925-.186a.273.273,0,0,1,.108.535h0Z" transform="translate(-1802.335 -255.347)" fill="url(#linear-gradient-28)"/>
      <path id="Trazado_96374" data-name="Trazado 96374" d="M1903.594,260.935l-.862.313-.012,0a.258.258,0,0,1-.178-.484l.883-.328a.262.262,0,0,1,.182.49h0Z" transform="translate(-1787.153 -259.337)" fill="url(#linear-gradient-28)"/>
      <path id="Trazado_96375" data-name="Trazado 96375" d="M1886.592,268.556c-.268.148-.537.3-.8.453a.246.246,0,0,1-.256-.421c.269-.164.544-.318.819-.472a.25.25,0,0,1,.245.436h0Z" transform="translate(-1772.957 -265.749)" fill="url(#linear-gradient-28)"/>
      <path id="Trazado_96376" data-name="Trazado 96376" d="M1871.174,279l-.712.581-.009.007a.235.235,0,0,1-.3-.363l.725-.6a.238.238,0,1,1,.3.367h0Z" transform="translate(-1760.108 -274.53)" fill="url(#linear-gradient-28)"/>
      <path id="Trazado_96377" data-name="Trazado 96377" d="M1857.788,291.932l-.611.688-.007.008a.223.223,0,0,1-.335-.3l.62-.708a.227.227,0,1,1,.341.3h0Z" transform="translate(-1748.98 -285.393)" fill="url(#linear-gradient-28)"/>
      <path id="Trazado_96378" data-name="Trazado 96378" d="M1846.619,306.9l-.5.775-.005.008a.212.212,0,0,1-.356-.229l.506-.795a.215.215,0,0,1,.363.231h0Z" transform="translate(-1739.723 -297.963)" fill="url(#linear-gradient-41)"/>
      <path id="Trazado_96379" data-name="Trazado 96379" d="M1837.864,323.476l-.382.84,0,.008a.2.2,0,0,1-.365-.164l.382-.859a.2.2,0,0,1,.372.166h0Z" transform="translate(-1732.502 -311.877)" fill="url(#linear-gradient-40)"/>
      <path id="Trazado_96380" data-name="Trazado 96380" d="M1831.692,341.257l-.253.887,0,.008a.189.189,0,0,1-.363-.1l.251-.905a.192.192,0,0,1,.37.1h0Z" transform="translate(-1727.453 -326.799)" fill="url(#linear-gradient-28)"/>
      <path id="Trazado_96381" data-name="Trazado 96381" d="M1828.3,359.879l-.114.915v.008a.177.177,0,0,1-.351-.043l.11-.933a.18.18,0,1,1,.358.042h0Z" transform="translate(-1724.742 -342.424)" fill="url(#linear-gradient-126)"/>
      <path id="Trazado_96382" data-name="Trazado 96382" d="M1827.676,378.914l.035.922v.008a.165.165,0,0,1-.33.014l-.042-.938a.169.169,0,0,1,.338-.015h0Z" transform="translate(-1724.331 -358.395)" fill="url(#linear-gradient-49)"/>
      <path id="Trazado_96383" data-name="Trazado 96383" d="M1829.634,397.9l.115.568v.005a.155.155,0,0,1-.3.063l-.121-.577a.157.157,0,1,1,.308-.065h0Z" transform="translate(-1725.992 -374.326)" fill="url(#linear-gradient-41)"/>
    </g>
  </g>
</svg>
