<svg xmlns="http://www.w3.org/2000/svg" width="1228" height="380.957" viewBox="0 0 1228 380.957">
  <g id="Grupo_12289" data-name="Grupo 12289" transform="translate(-1385.719 -355.591)">
    <rect id="Rectángulo_2744" data-name="Rectángulo 2744" width="174.2" height="108.273" transform="translate(1386.719 356.591)" fill="#f0f0f0" stroke="#000" stroke-miterlimit="10" stroke-width="2"/>
    <rect id="Rectángulo_2745" data-name="Rectángulo 2745" width="150.257" height="108.273" transform="translate(1560.919 356.591)" fill="#f0f0f0" stroke="#000" stroke-miterlimit="10" stroke-width="2"/>
    <rect id="Rectángulo_2746" data-name="Rectángulo 2746" width="150.257" height="108.273" transform="translate(1711.176 356.591)" fill="#f0f0f0" stroke="#000" stroke-miterlimit="10" stroke-width="2"/>
    <rect id="Rectángulo_2747" data-name="Rectángulo 2747" width="150.257" height="108.273" transform="translate(1861.434 356.591)" fill="#f0f0f0" stroke="#000" stroke-miterlimit="10" stroke-width="2"/>
    <rect id="Rectángulo_2748" data-name="Rectángulo 2748" width="150.257" height="108.273" transform="translate(2011.691 356.591)" fill="#f0f0f0" stroke="#000" stroke-miterlimit="10" stroke-width="2"/>
    <rect id="Rectángulo_2749" data-name="Rectángulo 2749" width="150.257" height="108.273" transform="translate(2161.948 356.591)" fill="#f0f0f0" stroke="#000" stroke-miterlimit="10" stroke-width="2"/>
    <rect id="Rectángulo_2750" data-name="Rectángulo 2750" width="150.257" height="108.273" transform="translate(2312.205 356.591)" fill="#f0f0f0" stroke="#000" stroke-miterlimit="10" stroke-width="2"/>
    <rect id="Rectángulo_2751" data-name="Rectángulo 2751" width="150.257" height="108.273" transform="translate(2462.462 356.591)" fill="#f0f0f0" stroke="#000" stroke-miterlimit="10" stroke-width="2"/>
    <rect id="Rectángulo_2752" data-name="Rectángulo 2752" width="174.2" height="54.137" transform="translate(1386.719 464.865)" fill="#ffd947" stroke="#000" stroke-miterlimit="10" stroke-width="2"/>
    <rect id="Rectángulo_2753" data-name="Rectángulo 2753" width="150.257" height="54.137" transform="translate(1560.919 464.865)" fill="#167377" stroke="#000" stroke-miterlimit="10" stroke-width="2"/>
    <rect id="Rectángulo_2754" data-name="Rectángulo 2754" width="150.257" height="54.137" transform="translate(1711.176 464.865)" fill="#167377" stroke="#000" stroke-miterlimit="10" stroke-width="2"/>
    <rect id="Rectángulo_2755" data-name="Rectángulo 2755" width="150.257" height="54.137" transform="translate(1861.434 464.865)" fill="#167377" stroke="#000" stroke-miterlimit="10" stroke-width="2"/>
    <rect id="Rectángulo_2756" data-name="Rectángulo 2756" width="150.257" height="54.137" transform="translate(2011.691 464.865)" fill="#167377" stroke="#000" stroke-miterlimit="10" stroke-width="2"/>
    <rect id="Rectángulo_2757" data-name="Rectángulo 2757" width="150.257" height="54.137" transform="translate(2161.948 464.865)" fill="#167377" stroke="#000" stroke-miterlimit="10" stroke-width="2"/>
    <rect id="Rectángulo_2758" data-name="Rectángulo 2758" width="150.257" height="54.137" transform="translate(2312.205 464.865)" fill="#7d6eb2" stroke="#000" stroke-miterlimit="10" stroke-width="2"/>
    <rect id="Rectángulo_2759" data-name="Rectángulo 2759" width="150.257" height="54.137" transform="translate(2462.462 464.865)" fill="#b54273" stroke="#000" stroke-miterlimit="10" stroke-width="2"/>
    <rect id="Rectángulo_2760" data-name="Rectángulo 2760" width="174.2" height="54.137" transform="translate(1386.719 519.001)" fill="#ffd947" stroke="#000" stroke-miterlimit="10" stroke-width="2"/>
    <rect id="Rectángulo_2761" data-name="Rectángulo 2761" width="150.257" height="54.137" transform="translate(1560.919 519.001)" fill="#167377" stroke="#000" stroke-miterlimit="10" stroke-width="2"/>
    <rect id="Rectángulo_2762" data-name="Rectángulo 2762" width="150.257" height="54.137" transform="translate(1711.176 519.001)" fill="#167377" stroke="#000" stroke-miterlimit="10" stroke-width="2"/>
    <rect id="Rectángulo_2763" data-name="Rectángulo 2763" width="150.257" height="54.137" transform="translate(1861.434 519.001)" fill="#167377" stroke="#000" stroke-miterlimit="10" stroke-width="2"/>
    <rect id="Rectángulo_2764" data-name="Rectángulo 2764" width="150.257" height="54.137" transform="translate(2011.691 519.001)" fill="#167377" stroke="#000" stroke-miterlimit="10" stroke-width="2"/>
    <rect id="Rectángulo_2765" data-name="Rectángulo 2765" width="150.257" height="54.137" transform="translate(2161.948 519.001)" fill="#167377" stroke="#000" stroke-miterlimit="10" stroke-width="2"/>
    <rect id="Rectángulo_2766" data-name="Rectángulo 2766" width="150.257" height="54.137" transform="translate(2312.205 519.001)" fill="#7d6eb2" stroke="#000" stroke-miterlimit="10" stroke-width="2"/>
    <rect id="Rectángulo_2767" data-name="Rectángulo 2767" width="150.257" height="54.137" transform="translate(2462.462 519.001)" fill="#b54273" stroke="#000" stroke-miterlimit="10" stroke-width="2"/>
    <rect id="Rectángulo_2768" data-name="Rectángulo 2768" width="174.2" height="54.137" transform="translate(1386.719 573.138)" fill="#ffd947" stroke="#000" stroke-miterlimit="10" stroke-width="2"/>
    <rect id="Rectángulo_2769" data-name="Rectángulo 2769" width="150.257" height="54.137" transform="translate(1560.919 573.138)" fill="#167377" stroke="#000" stroke-miterlimit="10" stroke-width="2"/>
    <rect id="Rectángulo_2770" data-name="Rectángulo 2770" width="150.257" height="54.137" transform="translate(1711.176 573.138)" fill="#167377" stroke="#000" stroke-miterlimit="10" stroke-width="2"/>
    <rect id="Rectángulo_2771" data-name="Rectángulo 2771" width="150.257" height="54.137" transform="translate(1861.434 573.138)" fill="#167377" stroke="#000" stroke-miterlimit="10" stroke-width="2"/>
    <rect id="Rectángulo_2772" data-name="Rectángulo 2772" width="150.257" height="54.137" transform="translate(2011.691 573.138)" fill="#167377" stroke="#000" stroke-miterlimit="10" stroke-width="2"/>
    <rect id="Rectángulo_2773" data-name="Rectángulo 2773" width="150.257" height="54.137" transform="translate(2161.948 573.138)" fill="#167377" stroke="#000" stroke-miterlimit="10" stroke-width="2"/>
    <rect id="Rectángulo_2774" data-name="Rectángulo 2774" width="150.257" height="54.137" transform="translate(2312.205 573.138)" fill="#7d6eb2" stroke="#000" stroke-miterlimit="10" stroke-width="2"/>
    <rect id="Rectángulo_2775" data-name="Rectángulo 2775" width="150.257" height="54.137" transform="translate(2462.462 573.138)" fill="#b54273" stroke="#000" stroke-miterlimit="10" stroke-width="2"/>
    <rect id="Rectángulo_2776" data-name="Rectángulo 2776" width="174.2" height="54.137" transform="translate(1386.719 627.274)" fill="#ffd947" stroke="#000" stroke-miterlimit="10" stroke-width="2"/>
    <rect id="Rectángulo_2777" data-name="Rectángulo 2777" width="150.257" height="54.137" transform="translate(1560.919 627.274)" fill="#167377" stroke="#000" stroke-miterlimit="10" stroke-width="2"/>
    <rect id="Rectángulo_2778" data-name="Rectángulo 2778" width="150.257" height="54.137" transform="translate(1711.176 627.274)" fill="#167377" stroke="#000" stroke-miterlimit="10" stroke-width="2"/>
    <rect id="Rectángulo_2779" data-name="Rectángulo 2779" width="150.257" height="54.137" transform="translate(1861.434 627.274)" fill="#167377" stroke="#000" stroke-miterlimit="10" stroke-width="2"/>
    <rect id="Rectángulo_2780" data-name="Rectángulo 2780" width="150.257" height="54.137" transform="translate(2011.691 627.274)" fill="#167377" stroke="#000" stroke-miterlimit="10" stroke-width="2"/>
    <rect id="Rectángulo_2781" data-name="Rectángulo 2781" width="150.257" height="54.137" transform="translate(2161.948 627.274)" fill="#167377" stroke="#000" stroke-miterlimit="10" stroke-width="2"/>
    <rect id="Rectángulo_2782" data-name="Rectángulo 2782" width="150.257" height="54.137" transform="translate(2312.205 627.274)" fill="#7d6eb2" stroke="#000" stroke-miterlimit="10" stroke-width="2"/>
    <rect id="Rectángulo_2783" data-name="Rectángulo 2783" width="150.257" height="54.137" transform="translate(2462.462 627.274)" fill="#b54273" stroke="#000" stroke-miterlimit="10" stroke-width="2"/>
    <rect id="Rectángulo_2784" data-name="Rectángulo 2784" width="174.2" height="54.137" transform="translate(1386.719 681.411)" fill="#ffd947" stroke="#000" stroke-miterlimit="10" stroke-width="2"/>
    <rect id="Rectángulo_2785" data-name="Rectángulo 2785" width="150.257" height="54.137" transform="translate(1560.919 681.411)" fill="#167377" stroke="#000" stroke-miterlimit="10" stroke-width="2"/>
    <rect id="Rectángulo_2786" data-name="Rectángulo 2786" width="150.257" height="54.137" transform="translate(1711.176 681.411)" fill="#167377" stroke="#000" stroke-miterlimit="10" stroke-width="2"/>
    <rect id="Rectángulo_2787" data-name="Rectángulo 2787" width="150.257" height="54.137" transform="translate(1861.434 681.411)" fill="#167377" stroke="#000" stroke-miterlimit="10" stroke-width="2"/>
    <rect id="Rectángulo_2788" data-name="Rectángulo 2788" width="150.257" height="54.137" transform="translate(2011.691 681.411)" fill="#167377" stroke="#000" stroke-miterlimit="10" stroke-width="2"/>
    <rect id="Rectángulo_2789" data-name="Rectángulo 2789" width="150.257" height="54.137" transform="translate(2161.948 681.411)" fill="#167377" stroke="#000" stroke-miterlimit="10" stroke-width="2"/>
    <rect id="Rectángulo_2790" data-name="Rectángulo 2790" width="150.257" height="54.137" transform="translate(2312.205 681.411)" fill="#7d6eb2" stroke="#000" stroke-miterlimit="10" stroke-width="2"/>
    <rect id="Rectángulo_2791" data-name="Rectángulo 2791" width="150.257" height="54.137" transform="translate(2462.462 681.411)" fill="#b54273" stroke="#000" stroke-miterlimit="10" stroke-width="2"/>
    <path id="Trazado_131836" data-name="Trazado 131836" d="M-33.983-7.109h-6.469v4.4h7.592V0H-43.821V-16.352h10.938v2.729h-7.569v3.9h6.469Zm5.93-5.042.1,1.359a4.27,4.27,0,0,1,3.493-1.583,3.241,3.241,0,0,1,3.223,1.853,4.172,4.172,0,0,1,3.65-1.853,3.624,3.624,0,0,1,2.942,1.151,5.291,5.291,0,0,1,.966,3.465V0h-3.257V-7.767a2.323,2.323,0,0,0-.4-1.514,1.789,1.789,0,0,0-1.426-.478,2.026,2.026,0,0,0-2.021,1.4L-20.776,0h-3.246V-7.756a2.3,2.3,0,0,0-.416-1.531,1.807,1.807,0,0,0-1.415-.473,2.1,2.1,0,0,0-2,1.148V0H-31.1V-12.151ZM-.247-5.963a7.288,7.288,0,0,1-1.275,4.5A4.087,4.087,0,0,1-4.964.225,3.786,3.786,0,0,1-7.94-1.056V4.672h-3.246V-12.151h3.01l.112,1.19a3.815,3.815,0,0,1,3.077-1.415,4.115,4.115,0,0,1,3.493,1.662A7.485,7.485,0,0,1-.247-6.132Zm-3.246-.247a4.809,4.809,0,0,0-.6-2.625A1.955,1.955,0,0,0-5.84-9.759a2.124,2.124,0,0,0-2.1,1.171V-3.6A2.16,2.16,0,0,0-5.817-2.392Q-3.493-2.392-3.493-6.211Zm12.084-2.9A8.818,8.818,0,0,0,7.423-9.2,2.377,2.377,0,0,0,5.009-7.951V0H1.763V-12.151H4.829l.09,1.449a3.007,3.007,0,0,1,2.707-1.673,3.4,3.4,0,0,1,1.011.146ZM15.532.225a5.965,5.965,0,0,1-4.352-1.64A5.828,5.828,0,0,1,9.5-5.784V-6.1a7.341,7.341,0,0,1,.708-3.274,5.192,5.192,0,0,1,2-2.224,5.627,5.627,0,0,1,2.959-.781A5.043,5.043,0,0,1,19.1-10.8a6.389,6.389,0,0,1,1.432,4.458V-5.02H12.792a3.015,3.015,0,0,0,.949,1.909,2.869,2.869,0,0,0,2,.719,3.5,3.5,0,0,0,2.931-1.359l1.595,1.786A4.872,4.872,0,0,1,18.294-.354,6.485,6.485,0,0,1,15.532.225Zm-.371-9.984a2.028,2.028,0,0,0-1.567.654,3.388,3.388,0,0,0-.769,1.873H17.34v-.26a2.416,2.416,0,0,0-.584-1.675A2.092,2.092,0,0,0,15.161-9.759Zm13.791,6.4a1.046,1.046,0,0,0-.59-.938,6.7,6.7,0,0,0-1.892-.612q-4.335-.91-4.335-3.684a3.339,3.339,0,0,1,1.342-2.7,5.414,5.414,0,0,1,3.51-1.084,5.827,5.827,0,0,1,3.7,1.089,3.433,3.433,0,0,1,1.387,2.83H28.829a1.57,1.57,0,0,0-.449-1.151,1.9,1.9,0,0,0-1.4-.455,1.943,1.943,0,0,0-1.269.371,1.17,1.17,0,0,0-.449.943,1,1,0,0,0,.511.87,5.257,5.257,0,0,0,1.724.573,14.08,14.08,0,0,1,2.044.545,3.358,3.358,0,0,1,2.572,3.268A3.17,3.17,0,0,1,30.682-.8,6.153,6.153,0,0,1,27,.225,6.426,6.426,0,0,1,24.286-.32a4.551,4.551,0,0,1-1.859-1.494,3.471,3.471,0,0,1-.674-2.05h3.077a1.694,1.694,0,0,0,.64,1.325,2.539,2.539,0,0,0,1.595.46,2.35,2.35,0,0,0,1.409-.354A1.1,1.1,0,0,0,28.952-3.358ZM41.238,0a3.6,3.6,0,0,1-.326-1.089A3.927,3.927,0,0,1,37.847.225,4.314,4.314,0,0,1,34.887-.809a3.323,3.323,0,0,1-1.174-2.605,3.434,3.434,0,0,1,1.432-2.965,7.065,7.065,0,0,1,4.138-1.044h1.494v-.7a2,2,0,0,0-.432-1.348,1.7,1.7,0,0,0-1.365-.505A1.934,1.934,0,0,0,37.7-9.58,1.335,1.335,0,0,0,37.229-8.5H33.983a3.26,3.26,0,0,1,.651-1.954,4.306,4.306,0,0,1,1.842-1.409,6.712,6.712,0,0,1,2.673-.511,5.3,5.3,0,0,1,3.566,1.129,3.948,3.948,0,0,1,1.32,3.173v5.267a5.809,5.809,0,0,0,.483,2.617V0ZM38.554-2.257a2.8,2.8,0,0,0,1.325-.32,2.1,2.1,0,0,0,.9-.859V-5.525H39.565q-2.437,0-2.594,1.685l-.011.191a1.3,1.3,0,0,0,.427,1A1.658,1.658,0,0,0,38.554-2.257Z" transform="translate(1464.113 414.51)"/>
    <path id="Trazado_131846" data-name="Trazado 131846" d="M-47.959-14.219l3.652,10.313,3.633-10.312h3.848V0h-2.939V-3.887l.293-6.709L-43.311,0h-2.012L-49.15-10.586l.293,6.7V0h-2.93V-14.219ZM-31.475,0h-2.832V-10.566h2.832Zm-3-13.3a1.39,1.39,0,0,1,.425-1.045,1.6,1.6,0,0,1,1.157-.41,1.6,1.6,0,0,1,1.152.41,1.382,1.382,0,0,1,.43,1.045,1.386,1.386,0,0,1-.435,1.055,1.6,1.6,0,0,1-1.147.41,1.6,1.6,0,0,1-1.147-.41A1.386,1.386,0,0,1-34.473-13.3ZM-19.307.2A5.187,5.187,0,0,1-23.091-1.23a5.068,5.068,0,0,1-1.46-3.8V-5.3a6.383,6.383,0,0,1,.615-2.847,4.515,4.515,0,0,1,1.743-1.934,4.893,4.893,0,0,1,2.573-.679,4.385,4.385,0,0,1,3.413,1.367,5.555,5.555,0,0,1,1.245,3.877v1.152h-6.729a2.622,2.622,0,0,0,.825,1.66,2.5,2.5,0,0,0,1.743.625,3.046,3.046,0,0,0,2.549-1.182l1.387,1.553A4.237,4.237,0,0,1-16.9-.308,5.639,5.639,0,0,1-19.307.2Zm-.322-8.682a1.764,1.764,0,0,0-1.362.569,2.946,2.946,0,0,0-.669,1.628h3.926v-.226a2.1,2.1,0,0,0-.508-1.457A1.819,1.819,0,0,0-19.629-8.486Zm8.916-2.08.088,1.182a3.713,3.713,0,0,1,3.037-1.377,2.818,2.818,0,0,1,2.8,1.611,3.628,3.628,0,0,1,3.174-1.611,3.152,3.152,0,0,1,2.559,1,4.6,4.6,0,0,1,.84,3.013V0H-1.045V-6.754A2.02,2.02,0,0,0-1.4-8.07a1.556,1.556,0,0,0-1.24-.416A1.762,1.762,0,0,0-4.395-7.273L-4.385,0H-7.207V-6.744a2,2,0,0,0-.361-1.331A1.571,1.571,0,0,0-8.8-8.486a1.828,1.828,0,0,0-1.738,1V0h-2.822V-10.566Zm24.18,5.381a6.337,6.337,0,0,1-1.108,3.911A3.554,3.554,0,0,1,9.365.2,3.292,3.292,0,0,1,6.777-.918v4.98H3.955V-10.566H6.572l.1,1.035a3.317,3.317,0,0,1,2.676-1.23,3.578,3.578,0,0,1,3.037,1.445,6.509,6.509,0,0,1,1.084,3.984ZM10.645-5.4a4.182,4.182,0,0,0-.522-2.282,1.7,1.7,0,0,0-1.519-.8A1.847,1.847,0,0,0,6.777-7.468v4.339A1.879,1.879,0,0,0,8.623-2.08Q10.645-2.08,10.645-5.4ZM21.152-7.92A7.667,7.667,0,0,0,20.137-8a2.067,2.067,0,0,0-2.1,1.084V0H15.215V-10.566h2.666l.078,1.26a2.615,2.615,0,0,1,2.354-1.455,2.957,2.957,0,0,1,.879.127ZM27.188.2A5.187,5.187,0,0,1,23.4-1.23a5.068,5.068,0,0,1-1.46-3.8V-5.3a6.383,6.383,0,0,1,.615-2.847A4.515,4.515,0,0,1,24.3-10.083a4.893,4.893,0,0,1,2.573-.679,4.385,4.385,0,0,1,3.413,1.367,5.555,5.555,0,0,1,1.245,3.877v1.152H24.8a2.622,2.622,0,0,0,.825,1.66,2.5,2.5,0,0,0,1.743.625,3.046,3.046,0,0,0,2.549-1.182l1.387,1.553a4.237,4.237,0,0,1-1.719,1.4A5.639,5.639,0,0,1,27.188.2Zm-.322-8.682a1.764,1.764,0,0,0-1.362.569,2.946,2.946,0,0,0-.669,1.628H28.76v-.226a2.1,2.1,0,0,0-.508-1.457A1.819,1.819,0,0,0,26.865-8.486ZM38.857-2.92a.909.909,0,0,0-.513-.815A5.824,5.824,0,0,0,36.7-4.268q-3.77-.791-3.77-3.2A2.9,2.9,0,0,1,34.1-9.819a4.708,4.708,0,0,1,3.052-.942,5.067,5.067,0,0,1,3.218.947,2.985,2.985,0,0,1,1.206,2.461H38.75a1.366,1.366,0,0,0-.391-1,1.653,1.653,0,0,0-1.221-.4,1.689,1.689,0,0,0-1.1.322,1.017,1.017,0,0,0-.391.82.87.87,0,0,0,.444.757,4.571,4.571,0,0,0,1.5.5,12.244,12.244,0,0,1,1.777.474A2.92,2.92,0,0,1,41.6-3.037,2.756,2.756,0,0,1,40.361-.7a5.35,5.35,0,0,1-3.2.894A5.588,5.588,0,0,1,34.8-.278a3.957,3.957,0,0,1-1.616-1.3A3.018,3.018,0,0,1,32.6-3.359h2.676a1.473,1.473,0,0,0,.557,1.152,2.208,2.208,0,0,0,1.387.4,2.044,2.044,0,0,0,1.226-.308A.957.957,0,0,0,38.857-2.92ZM49.541,0a3.134,3.134,0,0,1-.283-.947A3.415,3.415,0,0,1,46.592.2a3.752,3.752,0,0,1-2.573-.9A2.89,2.89,0,0,1,43-2.969a2.986,2.986,0,0,1,1.245-2.578,6.144,6.144,0,0,1,3.6-.908h1.3v-.605a1.741,1.741,0,0,0-.376-1.172,1.479,1.479,0,0,0-1.187-.439,1.682,1.682,0,0,0-1.118.342,1.161,1.161,0,0,0-.405.938H43.232a2.835,2.835,0,0,1,.566-1.7,3.744,3.744,0,0,1,1.6-1.226,5.837,5.837,0,0,1,2.324-.444,4.611,4.611,0,0,1,3.1.981,3.433,3.433,0,0,1,1.147,2.759v4.58a5.052,5.052,0,0,0,.42,2.275V0ZM47.207-1.963a2.431,2.431,0,0,0,1.152-.278,1.828,1.828,0,0,0,.781-.747V-4.8H48.086q-2.119,0-2.256,1.465l-.01.166a1.13,1.13,0,0,0,.371.869A1.441,1.441,0,0,0,47.207-1.963Z" transform="translate(1464.875 494.557)"/>
    <path id="Trazado_131847" data-name="Trazado 131847" d="M-16.65-4.736a5.031,5.031,0,0,1-1.694,3.613A5.951,5.951,0,0,1-22.373.2a5.351,5.351,0,0,1-4.3-1.841A7.548,7.548,0,0,1-28.242-6.7v-.869a8.523,8.523,0,0,1,.723-3.613,5.416,5.416,0,0,1,2.065-2.4,5.786,5.786,0,0,1,3.12-.835A5.8,5.8,0,0,1-18.369-13.1a5.407,5.407,0,0,1,1.738,3.7h-2.93a2.97,2.97,0,0,0-.767-2,2.839,2.839,0,0,0-2.007-.62,2.489,2.489,0,0,0-2.192,1.05,5.883,5.883,0,0,0-.747,3.257v1.074a6.3,6.3,0,0,0,.7,3.369,2.443,2.443,0,0,0,2.2,1.064,2.892,2.892,0,0,0,2.026-.62,2.8,2.8,0,0,0,.767-1.919Zm1.3-.645a6.267,6.267,0,0,1,.605-2.8A4.432,4.432,0,0,1-13-10.088a5.086,5.086,0,0,1,2.642-.674A4.812,4.812,0,0,1-6.87-9.453,5.252,5.252,0,0,1-5.361-5.9l.02.723A5.523,5.523,0,0,1-6.7-1.274,4.718,4.718,0,0,1-10.342.2,4.742,4.742,0,0,1-13.989-1.27a5.62,5.62,0,0,1-1.362-3.984Zm2.822.2a3.95,3.95,0,0,0,.566,2.3,1.868,1.868,0,0,0,1.621.8,1.873,1.873,0,0,0,1.6-.787,4.322,4.322,0,0,0,.576-2.518A3.91,3.91,0,0,0-8.74-7.675a1.873,1.873,0,0,0-1.621-.812,1.842,1.842,0,0,0-1.6.807A4.395,4.395,0,0,0-12.529-5.181ZM-.957-10.566l.088,1.182a3.713,3.713,0,0,1,3.037-1.377,2.818,2.818,0,0,1,2.8,1.611,3.628,3.628,0,0,1,3.174-1.611,3.152,3.152,0,0,1,2.559,1,4.6,4.6,0,0,1,.84,3.013V0H8.711V-6.754A2.02,2.02,0,0,0,8.359-8.07a1.556,1.556,0,0,0-1.24-.416A1.762,1.762,0,0,0,5.361-7.273L5.371,0H2.549V-6.744a2,2,0,0,0-.361-1.331,1.571,1.571,0,0,0-1.23-.411,1.828,1.828,0,0,0-1.738,1V0H-3.6V-10.566ZM25.43,0H22.607V-10.894l-3.369,1.04v-2.275l5.889-2.109h.3Z" transform="translate(1467.868 548.694)"/>
    <path id="Trazado_131848" data-name="Trazado 131848" d="M-16.65-4.736a5.031,5.031,0,0,1-1.694,3.613A5.951,5.951,0,0,1-22.373.2a5.351,5.351,0,0,1-4.3-1.841A7.548,7.548,0,0,1-28.242-6.7v-.869a8.523,8.523,0,0,1,.723-3.613,5.416,5.416,0,0,1,2.065-2.4,5.786,5.786,0,0,1,3.12-.835A5.8,5.8,0,0,1-18.369-13.1a5.407,5.407,0,0,1,1.738,3.7h-2.93a2.97,2.97,0,0,0-.767-2,2.839,2.839,0,0,0-2.007-.62,2.489,2.489,0,0,0-2.192,1.05,5.883,5.883,0,0,0-.747,3.257v1.074a6.3,6.3,0,0,0,.7,3.369,2.443,2.443,0,0,0,2.2,1.064,2.892,2.892,0,0,0,2.026-.62,2.8,2.8,0,0,0,.767-1.919Zm1.3-.645a6.267,6.267,0,0,1,.605-2.8A4.432,4.432,0,0,1-13-10.088a5.086,5.086,0,0,1,2.642-.674A4.812,4.812,0,0,1-6.87-9.453,5.252,5.252,0,0,1-5.361-5.9l.02.723A5.523,5.523,0,0,1-6.7-1.274,4.718,4.718,0,0,1-10.342.2,4.742,4.742,0,0,1-13.989-1.27a5.62,5.62,0,0,1-1.362-3.984Zm2.822.2a3.95,3.95,0,0,0,.566,2.3,1.868,1.868,0,0,0,1.621.8,1.873,1.873,0,0,0,1.6-.787,4.322,4.322,0,0,0,.576-2.518A3.91,3.91,0,0,0-8.74-7.675a1.873,1.873,0,0,0-1.621-.812,1.842,1.842,0,0,0-1.6.807A4.395,4.395,0,0,0-12.529-5.181ZM-.957-10.566l.088,1.182a3.713,3.713,0,0,1,3.037-1.377,2.818,2.818,0,0,1,2.8,1.611,3.628,3.628,0,0,1,3.174-1.611,3.152,3.152,0,0,1,2.559,1,4.6,4.6,0,0,1,.84,3.013V0H8.711V-6.754A2.02,2.02,0,0,0,8.359-8.07a1.556,1.556,0,0,0-1.24-.416A1.762,1.762,0,0,0,5.361-7.273L5.371,0H2.549V-6.744a2,2,0,0,0-.361-1.331,1.571,1.571,0,0,0-1.23-.411,1.828,1.828,0,0,0-1.738,1V0H-3.6V-10.566ZM28.32,0H18.574V-1.934l4.6-4.9a11.347,11.347,0,0,0,1.4-1.807,2.9,2.9,0,0,0,.454-1.465,2.172,2.172,0,0,0-.479-1.489,1.727,1.727,0,0,0-1.367-.542,1.863,1.863,0,0,0-1.509.659,2.611,2.611,0,0,0-.552,1.733H18.291a4.661,4.661,0,0,1,.62-2.373A4.371,4.371,0,0,1,20.664-13.8a5.328,5.328,0,0,1,2.568-.61,5.045,5.045,0,0,1,3.413,1.055,3.731,3.731,0,0,1,1.216,2.979,4.781,4.781,0,0,1-.547,2.148,11.939,11.939,0,0,1-1.875,2.549L22.207-2.275H28.32Z" transform="translate(1467.868 602.83)"/>
    <path id="Trazado_131849" data-name="Trazado 131849" d="M-16.65-4.736a5.031,5.031,0,0,1-1.694,3.613A5.951,5.951,0,0,1-22.373.2a5.351,5.351,0,0,1-4.3-1.841A7.548,7.548,0,0,1-28.242-6.7v-.869a8.523,8.523,0,0,1,.723-3.613,5.416,5.416,0,0,1,2.065-2.4,5.786,5.786,0,0,1,3.12-.835A5.8,5.8,0,0,1-18.369-13.1a5.407,5.407,0,0,1,1.738,3.7h-2.93a2.97,2.97,0,0,0-.767-2,2.839,2.839,0,0,0-2.007-.62,2.489,2.489,0,0,0-2.192,1.05,5.883,5.883,0,0,0-.747,3.257v1.074a6.3,6.3,0,0,0,.7,3.369,2.443,2.443,0,0,0,2.2,1.064,2.892,2.892,0,0,0,2.026-.62,2.8,2.8,0,0,0,.767-1.919Zm1.3-.645a6.267,6.267,0,0,1,.605-2.8A4.432,4.432,0,0,1-13-10.088a5.086,5.086,0,0,1,2.642-.674A4.812,4.812,0,0,1-6.87-9.453,5.252,5.252,0,0,1-5.361-5.9l.02.723A5.523,5.523,0,0,1-6.7-1.274,4.718,4.718,0,0,1-10.342.2,4.742,4.742,0,0,1-13.989-1.27a5.62,5.62,0,0,1-1.362-3.984Zm2.822.2a3.95,3.95,0,0,0,.566,2.3,1.868,1.868,0,0,0,1.621.8,1.873,1.873,0,0,0,1.6-.787,4.322,4.322,0,0,0,.576-2.518A3.91,3.91,0,0,0-8.74-7.675a1.873,1.873,0,0,0-1.621-.812,1.842,1.842,0,0,0-1.6.807A4.395,4.395,0,0,0-12.529-5.181ZM-.957-10.566l.088,1.182a3.713,3.713,0,0,1,3.037-1.377,2.818,2.818,0,0,1,2.8,1.611,3.628,3.628,0,0,1,3.174-1.611,3.152,3.152,0,0,1,2.559,1,4.6,4.6,0,0,1,.84,3.013V0H8.711V-6.754A2.02,2.02,0,0,0,8.359-8.07a1.556,1.556,0,0,0-1.24-.416A1.762,1.762,0,0,0,5.361-7.273L5.371,0H2.549V-6.744a2,2,0,0,0-.361-1.331,1.571,1.571,0,0,0-1.23-.411,1.828,1.828,0,0,0-1.738,1V0H-3.6V-10.566Zm22.4,2.207h1.5A2.119,2.119,0,0,0,24.541-8.9a1.968,1.968,0,0,0,.518-1.426,1.74,1.74,0,0,0-.513-1.338,1.987,1.987,0,0,0-1.411-.479,2.083,2.083,0,0,0-1.357.444,1.421,1.421,0,0,0-.547,1.157H18.408a3.471,3.471,0,0,1,.6-2,4,4,0,0,1,1.68-1.382,5.606,5.606,0,0,1,2.378-.5A5.316,5.316,0,0,1,26.6-13.335a3.682,3.682,0,0,1,1.279,2.974,2.992,2.992,0,0,1-.6,1.8A3.87,3.87,0,0,1,25.723-7.3a3.533,3.533,0,0,1,1.792,1.289,3.5,3.5,0,0,1,.591,2.031A3.743,3.743,0,0,1,26.724-.947,5.556,5.556,0,0,1,23.066.2,5.268,5.268,0,0,1,19.585-.928,3.668,3.668,0,0,1,18.232-3.9h2.822a1.635,1.635,0,0,0,.6,1.309,2.213,2.213,0,0,0,1.479.508,2.224,2.224,0,0,0,1.577-.532,1.837,1.837,0,0,0,.571-1.411q0-2.129-2.344-2.129H21.445Z" transform="translate(1467.868 656.967)"/>
    <path id="Trazado_131850" data-name="Trazado 131850" d="M-16.65-4.736a5.031,5.031,0,0,1-1.694,3.613A5.951,5.951,0,0,1-22.373.2a5.351,5.351,0,0,1-4.3-1.841A7.548,7.548,0,0,1-28.242-6.7v-.869a8.523,8.523,0,0,1,.723-3.613,5.416,5.416,0,0,1,2.065-2.4,5.786,5.786,0,0,1,3.12-.835A5.8,5.8,0,0,1-18.369-13.1a5.407,5.407,0,0,1,1.738,3.7h-2.93a2.97,2.97,0,0,0-.767-2,2.839,2.839,0,0,0-2.007-.62,2.489,2.489,0,0,0-2.192,1.05,5.883,5.883,0,0,0-.747,3.257v1.074a6.3,6.3,0,0,0,.7,3.369,2.443,2.443,0,0,0,2.2,1.064,2.892,2.892,0,0,0,2.026-.62,2.8,2.8,0,0,0,.767-1.919Zm1.3-.645a6.267,6.267,0,0,1,.605-2.8A4.432,4.432,0,0,1-13-10.088a5.086,5.086,0,0,1,2.642-.674A4.812,4.812,0,0,1-6.87-9.453,5.252,5.252,0,0,1-5.361-5.9l.02.723A5.523,5.523,0,0,1-6.7-1.274,4.718,4.718,0,0,1-10.342.2,4.742,4.742,0,0,1-13.989-1.27a5.62,5.62,0,0,1-1.362-3.984Zm2.822.2a3.95,3.95,0,0,0,.566,2.3,1.868,1.868,0,0,0,1.621.8,1.873,1.873,0,0,0,1.6-.787,4.322,4.322,0,0,0,.576-2.518A3.91,3.91,0,0,0-8.74-7.675a1.873,1.873,0,0,0-1.621-.812,1.842,1.842,0,0,0-1.6.807A4.395,4.395,0,0,0-12.529-5.181ZM-.957-10.566l.088,1.182a3.713,3.713,0,0,1,3.037-1.377,2.818,2.818,0,0,1,2.8,1.611,3.628,3.628,0,0,1,3.174-1.611,3.152,3.152,0,0,1,2.559,1,4.6,4.6,0,0,1,.84,3.013V0H8.711V-6.754A2.02,2.02,0,0,0,8.359-8.07a1.556,1.556,0,0,0-1.24-.416A1.762,1.762,0,0,0,5.361-7.273L5.371,0H2.549V-6.744a2,2,0,0,0-.361-1.331,1.571,1.571,0,0,0-1.23-.411,1.828,1.828,0,0,0-1.738,1V0H-3.6V-10.566ZM26.924-5.352h1.611v2.275H26.924V0H24.1V-3.076h-5.83l-.127-1.777,5.928-9.365h2.852Zm-5.967,0H24.1v-5.02l-.186.322Z" transform="translate(1467.868 711.104)"/>
    <path id="Trazado_131837" data-name="Trazado 131837" d="M-30.85-6.682h-6.469V0h-3.369V-16.352h10.646v2.729h-7.277V-9.4h6.469ZM-21.641,0a3.6,3.6,0,0,1-.326-1.089A3.927,3.927,0,0,1-25.033.225,4.314,4.314,0,0,1-27.992-.809a3.323,3.323,0,0,1-1.174-2.605,3.434,3.434,0,0,1,1.432-2.965A7.065,7.065,0,0,1-23.6-7.423H-22.1v-.7a2,2,0,0,0-.432-1.348A1.7,1.7,0,0,0-23.9-9.973a1.934,1.934,0,0,0-1.286.393A1.335,1.335,0,0,0-25.65-8.5H-28.9a3.26,3.26,0,0,1,.651-1.954A4.306,4.306,0,0,1-26.4-11.865a6.712,6.712,0,0,1,2.673-.511,5.3,5.3,0,0,1,3.566,1.129,3.948,3.948,0,0,1,1.32,3.173v5.267a5.809,5.809,0,0,0,.483,2.617V0Zm-2.684-2.257A2.8,2.8,0,0,0-23-2.577a2.1,2.1,0,0,0,.9-.859V-5.525h-1.213q-2.437,0-2.594,1.685l-.011.191a1.3,1.3,0,0,0,.427,1A1.658,1.658,0,0,0-24.325-2.257ZM-11.3-2.392a2.129,2.129,0,0,0,1.46-.494A1.731,1.731,0,0,0-9.254-4.2H-6.21a4.163,4.163,0,0,1-.674,2.263A4.446,4.446,0,0,1-8.7-.343a5.676,5.676,0,0,1-2.544.567,5.275,5.275,0,0,1-4.11-1.656,6.555,6.555,0,0,1-1.5-4.576v-.213A6.48,6.48,0,0,1-15.363-10.7a5.214,5.214,0,0,1,4.1-1.673,5.111,5.111,0,0,1,3.656,1.3,4.593,4.593,0,0,1,1.4,3.453H-9.254a2.23,2.23,0,0,0-.584-1.541,1.947,1.947,0,0,0-1.482-.593,1.955,1.955,0,0,0-1.713.827,4.791,4.791,0,0,0-.578,2.683v.337a4.852,4.852,0,0,0,.573,2.7A1.979,1.979,0,0,0-11.3-2.392ZM-.472-15.139v2.987H1.606v2.381H-.472v6.064a1.448,1.448,0,0,0,.258.966,1.3,1.3,0,0,0,.988.292,5.176,5.176,0,0,0,.955-.079V-.067A6.682,6.682,0,0,1-.236.225q-3.414,0-3.481-3.448V-9.771H-5.492v-2.381h1.774v-2.987ZM2.572-6.188a7.206,7.206,0,0,1,.7-3.223,5.1,5.1,0,0,1,2-2.19,5.849,5.849,0,0,1,3.038-.775,5.533,5.533,0,0,1,4.015,1.5,6.04,6.04,0,0,1,1.735,4.088l.022.831a6.351,6.351,0,0,1-1.561,4.487A5.426,5.426,0,0,1,8.333.225,5.453,5.453,0,0,1,4.138-1.46,6.463,6.463,0,0,1,2.572-6.042Zm3.246.23a4.542,4.542,0,0,0,.651,2.649,2.149,2.149,0,0,0,1.864.917A2.154,2.154,0,0,0,10.175-3.3a4.97,4.97,0,0,0,.663-2.9,4.5,4.5,0,0,0-.663-2.632,2.154,2.154,0,0,0-1.864-.934,2.119,2.119,0,0,0-1.842.928A5.054,5.054,0,0,0,5.817-5.958ZM22.91-9.108a8.818,8.818,0,0,0-1.168-.09,2.377,2.377,0,0,0-2.415,1.247V0H16.082V-12.151h3.066l.09,1.449a3.007,3.007,0,0,1,2.707-1.673,3.4,3.4,0,0,1,1.011.146ZM37.948,0H34.7V-12.528l-3.875,1.2v-2.617L37.6-16.374h.348Z" transform="translate(1626.301 414.51)"/>
    <path id="Trazado_131838" data-name="Trazado 131838" d="M-30.85-6.682h-6.469V0h-3.369V-16.352h10.646v2.729h-7.277V-9.4h6.469ZM-21.641,0a3.6,3.6,0,0,1-.326-1.089A3.927,3.927,0,0,1-25.033.225,4.314,4.314,0,0,1-27.992-.809a3.323,3.323,0,0,1-1.174-2.605,3.434,3.434,0,0,1,1.432-2.965A7.065,7.065,0,0,1-23.6-7.423H-22.1v-.7a2,2,0,0,0-.432-1.348A1.7,1.7,0,0,0-23.9-9.973a1.934,1.934,0,0,0-1.286.393A1.335,1.335,0,0,0-25.65-8.5H-28.9a3.26,3.26,0,0,1,.651-1.954A4.306,4.306,0,0,1-26.4-11.865a6.712,6.712,0,0,1,2.673-.511,5.3,5.3,0,0,1,3.566,1.129,3.948,3.948,0,0,1,1.32,3.173v5.267a5.809,5.809,0,0,0,.483,2.617V0Zm-2.684-2.257A2.8,2.8,0,0,0-23-2.577a2.1,2.1,0,0,0,.9-.859V-5.525h-1.213q-2.437,0-2.594,1.685l-.011.191a1.3,1.3,0,0,0,.427,1A1.658,1.658,0,0,0-24.325-2.257ZM-11.3-2.392a2.129,2.129,0,0,0,1.46-.494A1.731,1.731,0,0,0-9.254-4.2H-6.21a4.163,4.163,0,0,1-.674,2.263A4.446,4.446,0,0,1-8.7-.343a5.676,5.676,0,0,1-2.544.567,5.275,5.275,0,0,1-4.11-1.656,6.555,6.555,0,0,1-1.5-4.576v-.213A6.48,6.48,0,0,1-15.363-10.7a5.214,5.214,0,0,1,4.1-1.673,5.111,5.111,0,0,1,3.656,1.3,4.593,4.593,0,0,1,1.4,3.453H-9.254a2.23,2.23,0,0,0-.584-1.541,1.947,1.947,0,0,0-1.482-.593,1.955,1.955,0,0,0-1.713.827,4.791,4.791,0,0,0-.578,2.683v.337a4.852,4.852,0,0,0,.573,2.7A1.979,1.979,0,0,0-11.3-2.392ZM-.472-15.139v2.987H1.606v2.381H-.472v6.064a1.448,1.448,0,0,0,.258.966,1.3,1.3,0,0,0,.988.292,5.176,5.176,0,0,0,.955-.079V-.067A6.682,6.682,0,0,1-.236.225q-3.414,0-3.481-3.448V-9.771H-5.492v-2.381h1.774v-2.987ZM2.572-6.188a7.206,7.206,0,0,1,.7-3.223,5.1,5.1,0,0,1,2-2.19,5.849,5.849,0,0,1,3.038-.775,5.533,5.533,0,0,1,4.015,1.5,6.04,6.04,0,0,1,1.735,4.088l.022.831a6.351,6.351,0,0,1-1.561,4.487A5.426,5.426,0,0,1,8.333.225,5.453,5.453,0,0,1,4.138-1.46,6.463,6.463,0,0,1,2.572-6.042Zm3.246.23a4.542,4.542,0,0,0,.651,2.649,2.149,2.149,0,0,0,1.864.917A2.154,2.154,0,0,0,10.175-3.3a4.97,4.97,0,0,0,.663-2.9,4.5,4.5,0,0,0-.663-2.632,2.154,2.154,0,0,0-1.864-.934,2.119,2.119,0,0,0-1.842.928A5.054,5.054,0,0,0,5.817-5.958ZM22.91-9.108a8.818,8.818,0,0,0-1.168-.09,2.377,2.377,0,0,0-2.415,1.247V0H16.082V-12.151h3.066l.09,1.449a3.007,3.007,0,0,1,2.707-1.673,3.4,3.4,0,0,1,1.011.146ZM41.272,0H30.064V-2.224l5.29-5.638a13.049,13.049,0,0,0,1.612-2.078,3.338,3.338,0,0,0,.522-1.685,2.5,2.5,0,0,0-.55-1.713,1.986,1.986,0,0,0-1.572-.623,2.142,2.142,0,0,0-1.735.758A3,3,0,0,0,33-11.208H29.738a5.361,5.361,0,0,1,.713-2.729,5.026,5.026,0,0,1,2.016-1.937,6.127,6.127,0,0,1,2.954-.7,5.8,5.8,0,0,1,3.925,1.213,4.291,4.291,0,0,1,1.4,3.425,5.5,5.5,0,0,1-.629,2.471,13.73,13.73,0,0,1-2.156,2.931L34.242-2.617h7.03Z" transform="translate(1776.557 414.51)"/>
    <path id="Trazado_131839" data-name="Trazado 131839" d="M-30.85-6.682h-6.469V0h-3.369V-16.352h10.646v2.729h-7.277V-9.4h6.469ZM-21.641,0a3.6,3.6,0,0,1-.326-1.089A3.927,3.927,0,0,1-25.033.225,4.314,4.314,0,0,1-27.992-.809a3.323,3.323,0,0,1-1.174-2.605,3.434,3.434,0,0,1,1.432-2.965A7.065,7.065,0,0,1-23.6-7.423H-22.1v-.7a2,2,0,0,0-.432-1.348A1.7,1.7,0,0,0-23.9-9.973a1.934,1.934,0,0,0-1.286.393A1.335,1.335,0,0,0-25.65-8.5H-28.9a3.26,3.26,0,0,1,.651-1.954A4.306,4.306,0,0,1-26.4-11.865a6.712,6.712,0,0,1,2.673-.511,5.3,5.3,0,0,1,3.566,1.129,3.948,3.948,0,0,1,1.32,3.173v5.267a5.809,5.809,0,0,0,.483,2.617V0Zm-2.684-2.257A2.8,2.8,0,0,0-23-2.577a2.1,2.1,0,0,0,.9-.859V-5.525h-1.213q-2.437,0-2.594,1.685l-.011.191a1.3,1.3,0,0,0,.427,1A1.658,1.658,0,0,0-24.325-2.257ZM-11.3-2.392a2.129,2.129,0,0,0,1.46-.494A1.731,1.731,0,0,0-9.254-4.2H-6.21a4.163,4.163,0,0,1-.674,2.263A4.446,4.446,0,0,1-8.7-.343a5.676,5.676,0,0,1-2.544.567,5.275,5.275,0,0,1-4.11-1.656,6.555,6.555,0,0,1-1.5-4.576v-.213A6.48,6.48,0,0,1-15.363-10.7a5.214,5.214,0,0,1,4.1-1.673,5.111,5.111,0,0,1,3.656,1.3,4.593,4.593,0,0,1,1.4,3.453H-9.254a2.23,2.23,0,0,0-.584-1.541,1.947,1.947,0,0,0-1.482-.593,1.955,1.955,0,0,0-1.713.827,4.791,4.791,0,0,0-.578,2.683v.337a4.852,4.852,0,0,0,.573,2.7A1.979,1.979,0,0,0-11.3-2.392ZM-.472-15.139v2.987H1.606v2.381H-.472v6.064a1.448,1.448,0,0,0,.258.966,1.3,1.3,0,0,0,.988.292,5.176,5.176,0,0,0,.955-.079V-.067A6.682,6.682,0,0,1-.236.225q-3.414,0-3.481-3.448V-9.771H-5.492v-2.381h1.774v-2.987ZM2.572-6.188a7.206,7.206,0,0,1,.7-3.223,5.1,5.1,0,0,1,2-2.19,5.849,5.849,0,0,1,3.038-.775,5.533,5.533,0,0,1,4.015,1.5,6.04,6.04,0,0,1,1.735,4.088l.022.831a6.351,6.351,0,0,1-1.561,4.487A5.426,5.426,0,0,1,8.333.225,5.453,5.453,0,0,1,4.138-1.46,6.463,6.463,0,0,1,2.572-6.042Zm3.246.23a4.542,4.542,0,0,0,.651,2.649,2.149,2.149,0,0,0,1.864.917A2.154,2.154,0,0,0,10.175-3.3a4.97,4.97,0,0,0,.663-2.9,4.5,4.5,0,0,0-.663-2.632,2.154,2.154,0,0,0-1.864-.934,2.119,2.119,0,0,0-1.842.928A5.054,5.054,0,0,0,5.817-5.958ZM22.91-9.108a8.818,8.818,0,0,0-1.168-.09,2.377,2.377,0,0,0-2.415,1.247V0H16.082V-12.151h3.066l.09,1.449a3.007,3.007,0,0,1,2.707-1.673,3.4,3.4,0,0,1,1.011.146Zm10.456-.505H35.1a2.437,2.437,0,0,0,1.831-.618,2.263,2.263,0,0,0,.6-1.64,2,2,0,0,0-.59-1.539,2.285,2.285,0,0,0-1.623-.55,2.4,2.4,0,0,0-1.561.511,1.634,1.634,0,0,0-.629,1.331H29.873a3.991,3.991,0,0,1,.691-2.3A4.6,4.6,0,0,1,32.5-16a6.447,6.447,0,0,1,2.735-.573A6.114,6.114,0,0,1,39.3-15.335a4.234,4.234,0,0,1,1.471,3.42,3.441,3.441,0,0,1-.685,2.066,4.451,4.451,0,0,1-1.8,1.449,4.063,4.063,0,0,1,2.061,1.482,4.021,4.021,0,0,1,.679,2.336,4.3,4.3,0,0,1-1.589,3.493A6.389,6.389,0,0,1,35.23.225a6.058,6.058,0,0,1-4-1.292,4.218,4.218,0,0,1-1.555-3.414h3.246a1.88,1.88,0,0,0,.691,1.5,2.545,2.545,0,0,0,1.7.584A2.557,2.557,0,0,0,37.122-3a2.113,2.113,0,0,0,.657-1.623q0-2.448-2.7-2.448H33.366Z" transform="translate(1926.813 414.51)"/>
    <path id="Trazado_131840" data-name="Trazado 131840" d="M-30.85-6.682h-6.469V0h-3.369V-16.352h10.646v2.729h-7.277V-9.4h6.469ZM-21.641,0a3.6,3.6,0,0,1-.326-1.089A3.927,3.927,0,0,1-25.033.225,4.314,4.314,0,0,1-27.992-.809a3.323,3.323,0,0,1-1.174-2.605,3.434,3.434,0,0,1,1.432-2.965A7.065,7.065,0,0,1-23.6-7.423H-22.1v-.7a2,2,0,0,0-.432-1.348A1.7,1.7,0,0,0-23.9-9.973a1.934,1.934,0,0,0-1.286.393A1.335,1.335,0,0,0-25.65-8.5H-28.9a3.26,3.26,0,0,1,.651-1.954A4.306,4.306,0,0,1-26.4-11.865a6.712,6.712,0,0,1,2.673-.511,5.3,5.3,0,0,1,3.566,1.129,3.948,3.948,0,0,1,1.32,3.173v5.267a5.809,5.809,0,0,0,.483,2.617V0Zm-2.684-2.257A2.8,2.8,0,0,0-23-2.577a2.1,2.1,0,0,0,.9-.859V-5.525h-1.213q-2.437,0-2.594,1.685l-.011.191a1.3,1.3,0,0,0,.427,1A1.658,1.658,0,0,0-24.325-2.257ZM-11.3-2.392a2.129,2.129,0,0,0,1.46-.494A1.731,1.731,0,0,0-9.254-4.2H-6.21a4.163,4.163,0,0,1-.674,2.263A4.446,4.446,0,0,1-8.7-.343a5.676,5.676,0,0,1-2.544.567,5.275,5.275,0,0,1-4.11-1.656,6.555,6.555,0,0,1-1.5-4.576v-.213A6.48,6.48,0,0,1-15.363-10.7a5.214,5.214,0,0,1,4.1-1.673,5.111,5.111,0,0,1,3.656,1.3,4.593,4.593,0,0,1,1.4,3.453H-9.254a2.23,2.23,0,0,0-.584-1.541,1.947,1.947,0,0,0-1.482-.593,1.955,1.955,0,0,0-1.713.827,4.791,4.791,0,0,0-.578,2.683v.337a4.852,4.852,0,0,0,.573,2.7A1.979,1.979,0,0,0-11.3-2.392ZM-.472-15.139v2.987H1.606v2.381H-.472v6.064a1.448,1.448,0,0,0,.258.966,1.3,1.3,0,0,0,.988.292,5.176,5.176,0,0,0,.955-.079V-.067A6.682,6.682,0,0,1-.236.225q-3.414,0-3.481-3.448V-9.771H-5.492v-2.381h1.774v-2.987ZM2.572-6.188a7.206,7.206,0,0,1,.7-3.223,5.1,5.1,0,0,1,2-2.19,5.849,5.849,0,0,1,3.038-.775,5.533,5.533,0,0,1,4.015,1.5,6.04,6.04,0,0,1,1.735,4.088l.022.831a6.351,6.351,0,0,1-1.561,4.487A5.426,5.426,0,0,1,8.333.225,5.453,5.453,0,0,1,4.138-1.46,6.463,6.463,0,0,1,2.572-6.042Zm3.246.23a4.542,4.542,0,0,0,.651,2.649,2.149,2.149,0,0,0,1.864.917A2.154,2.154,0,0,0,10.175-3.3a4.97,4.97,0,0,0,.663-2.9,4.5,4.5,0,0,0-.663-2.632,2.154,2.154,0,0,0-1.864-.934,2.119,2.119,0,0,0-1.842.928A5.054,5.054,0,0,0,5.817-5.958ZM22.91-9.108a8.818,8.818,0,0,0-1.168-.09,2.377,2.377,0,0,0-2.415,1.247V0H16.082V-12.151h3.066l.09,1.449a3.007,3.007,0,0,1,2.707-1.673,3.4,3.4,0,0,1,1.011.146ZM39.666-6.154h1.853v2.617H39.666V0H36.42V-3.538h-6.7L29.57-5.582l6.817-10.77h3.279Zm-6.862,0H36.42v-5.772l-.213.371Z" transform="translate(2077.07 414.51)"/>
    <path id="Trazado_131841" data-name="Trazado 131841" d="M-30.85-6.682h-6.469V0h-3.369V-16.352h10.646v2.729h-7.277V-9.4h6.469ZM-21.641,0a3.6,3.6,0,0,1-.326-1.089A3.927,3.927,0,0,1-25.033.225,4.314,4.314,0,0,1-27.992-.809a3.323,3.323,0,0,1-1.174-2.605,3.434,3.434,0,0,1,1.432-2.965A7.065,7.065,0,0,1-23.6-7.423H-22.1v-.7a2,2,0,0,0-.432-1.348A1.7,1.7,0,0,0-23.9-9.973a1.934,1.934,0,0,0-1.286.393A1.335,1.335,0,0,0-25.65-8.5H-28.9a3.26,3.26,0,0,1,.651-1.954A4.306,4.306,0,0,1-26.4-11.865a6.712,6.712,0,0,1,2.673-.511,5.3,5.3,0,0,1,3.566,1.129,3.948,3.948,0,0,1,1.32,3.173v5.267a5.809,5.809,0,0,0,.483,2.617V0Zm-2.684-2.257A2.8,2.8,0,0,0-23-2.577a2.1,2.1,0,0,0,.9-.859V-5.525h-1.213q-2.437,0-2.594,1.685l-.011.191a1.3,1.3,0,0,0,.427,1A1.658,1.658,0,0,0-24.325-2.257ZM-11.3-2.392a2.129,2.129,0,0,0,1.46-.494A1.731,1.731,0,0,0-9.254-4.2H-6.21a4.163,4.163,0,0,1-.674,2.263A4.446,4.446,0,0,1-8.7-.343a5.676,5.676,0,0,1-2.544.567,5.275,5.275,0,0,1-4.11-1.656,6.555,6.555,0,0,1-1.5-4.576v-.213A6.48,6.48,0,0,1-15.363-10.7a5.214,5.214,0,0,1,4.1-1.673,5.111,5.111,0,0,1,3.656,1.3,4.593,4.593,0,0,1,1.4,3.453H-9.254a2.23,2.23,0,0,0-.584-1.541,1.947,1.947,0,0,0-1.482-.593,1.955,1.955,0,0,0-1.713.827,4.791,4.791,0,0,0-.578,2.683v.337a4.852,4.852,0,0,0,.573,2.7A1.979,1.979,0,0,0-11.3-2.392ZM-.472-15.139v2.987H1.606v2.381H-.472v6.064a1.448,1.448,0,0,0,.258.966,1.3,1.3,0,0,0,.988.292,5.176,5.176,0,0,0,.955-.079V-.067A6.682,6.682,0,0,1-.236.225q-3.414,0-3.481-3.448V-9.771H-5.492v-2.381h1.774v-2.987ZM2.572-6.188a7.206,7.206,0,0,1,.7-3.223,5.1,5.1,0,0,1,2-2.19,5.849,5.849,0,0,1,3.038-.775,5.533,5.533,0,0,1,4.015,1.5,6.04,6.04,0,0,1,1.735,4.088l.022.831a6.351,6.351,0,0,1-1.561,4.487A5.426,5.426,0,0,1,8.333.225,5.453,5.453,0,0,1,4.138-1.46,6.463,6.463,0,0,1,2.572-6.042Zm3.246.23a4.542,4.542,0,0,0,.651,2.649,2.149,2.149,0,0,0,1.864.917A2.154,2.154,0,0,0,10.175-3.3a4.97,4.97,0,0,0,.663-2.9,4.5,4.5,0,0,0-.663-2.632,2.154,2.154,0,0,0-1.864-.934,2.119,2.119,0,0,0-1.842.928A5.054,5.054,0,0,0,5.817-5.958ZM22.91-9.108a8.818,8.818,0,0,0-1.168-.09,2.377,2.377,0,0,0-2.415,1.247V0H16.082V-12.151h3.066l.09,1.449a3.007,3.007,0,0,1,2.707-1.673,3.4,3.4,0,0,1,1.011.146Zm7.637,1.067.943-8.311h9.164v2.707h-6.5l-.4,3.515a5.146,5.146,0,0,1,2.459-.618A4.713,4.713,0,0,1,39.868-9.3a5.787,5.787,0,0,1,1.325,4.054,5.928,5.928,0,0,1-.668,2.836A4.716,4.716,0,0,1,38.61-.466a5.978,5.978,0,0,1-2.942.691,6.348,6.348,0,0,1-2.751-.6,4.88,4.88,0,0,1-2-1.69,4.606,4.606,0,0,1-.781-2.482h3.212a2.4,2.4,0,0,0,.713,1.589,2.261,2.261,0,0,0,1.6.567,2,2,0,0,0,1.7-.792,3.668,3.668,0,0,0,.6-2.24,3.033,3.033,0,0,0-.685-2.134A2.514,2.514,0,0,0,35.32-8.3a2.809,2.809,0,0,0-1.875.606L33.13-7.4Z" transform="translate(2227.326 414.51)"/>
    <path id="Trazado_131842" data-name="Trazado 131842" d="M-11.781-13.623H-16.79V0h-3.369V-13.623H-25.1v-2.729h13.319Zm-1.134,7.435a7.206,7.206,0,0,1,.7-3.223,5.1,5.1,0,0,1,2-2.19,5.849,5.849,0,0,1,3.038-.775,5.533,5.533,0,0,1,4.015,1.5A6.04,6.04,0,0,1-1.426-6.783l.022.831A6.351,6.351,0,0,1-2.965-1.466,5.426,5.426,0,0,1-7.154.225,5.453,5.453,0,0,1-11.348-1.46a6.463,6.463,0,0,1-1.567-4.582Zm3.246.23a4.542,4.542,0,0,0,.651,2.649,2.149,2.149,0,0,0,1.864.917A2.154,2.154,0,0,0-5.312-3.3a4.97,4.97,0,0,0,.663-2.9,4.5,4.5,0,0,0-.663-2.632,2.154,2.154,0,0,0-1.864-.934,2.119,2.119,0,0,0-1.842.928A5.054,5.054,0,0,0-9.669-5.958Zm14.15-9.181v2.987H6.559v2.381H4.481v6.064a1.448,1.448,0,0,0,.258.966,1.3,1.3,0,0,0,.988.292,5.176,5.176,0,0,0,.955-.079V-.067A6.682,6.682,0,0,1,4.717.225Q1.3.225,1.235-3.223V-9.771H-.539v-2.381H1.235v-2.987ZM15.408,0a3.6,3.6,0,0,1-.326-1.089A3.927,3.927,0,0,1,12.017.225,4.314,4.314,0,0,1,9.057-.809,3.323,3.323,0,0,1,7.884-3.414,3.434,3.434,0,0,1,9.316-6.379a7.065,7.065,0,0,1,4.138-1.044h1.494v-.7a2,2,0,0,0-.432-1.348,1.7,1.7,0,0,0-1.365-.505,1.934,1.934,0,0,0-1.286.393A1.335,1.335,0,0,0,11.4-8.5H8.153A3.26,3.26,0,0,1,8.8-10.456a4.306,4.306,0,0,1,1.842-1.409,6.712,6.712,0,0,1,2.673-.511,5.3,5.3,0,0,1,3.566,1.129A3.948,3.948,0,0,1,18.2-8.075v5.267a5.809,5.809,0,0,0,.483,2.617V0ZM12.724-2.257a2.8,2.8,0,0,0,1.325-.32,2.1,2.1,0,0,0,.9-.859V-5.525H13.735q-2.437,0-2.594,1.685l-.011.191a1.3,1.3,0,0,0,.427,1A1.658,1.658,0,0,0,12.724-2.257ZM24.123,0H20.866V-17.25h3.257Z" transform="translate(2380.697 414.51)"/>
    <path id="Trazado_131845" data-name="Trazado 131845" d="M-22.987-2.8a1.128,1.128,0,0,0-.439-.956,5.764,5.764,0,0,0-1.582-.7,11.215,11.215,0,0,1-1.809-.729A2.956,2.956,0,0,1-28.634-7.83a2.575,2.575,0,0,1,.487-1.542,3.177,3.177,0,0,1,1.4-1.058,5.265,5.265,0,0,1,2.047-.381,4.793,4.793,0,0,1,2.036.414,3.242,3.242,0,0,1,1.388,1.168,3.057,3.057,0,0,1,.494,1.714h-2.2a1.438,1.438,0,0,0-.461-1.139,1.9,1.9,0,0,0-1.3-.406,2.026,2.026,0,0,0-1.252.341,1.074,1.074,0,0,0-.447.9,1.029,1.029,0,0,0,.524.872,5.916,5.916,0,0,0,1.542.659,6.661,6.661,0,0,1,2.732,1.4,2.786,2.786,0,0,1,.857,2.08A2.566,2.566,0,0,1-21.83-.641a4.585,4.585,0,0,1-2.82.787A5.445,5.445,0,0,1-26.891-.3a3.546,3.546,0,0,1-1.542-1.234,3.161,3.161,0,0,1-.531-1.816h2.2q0,1.765,2.109,1.765a2.052,2.052,0,0,0,1.223-.319A1.037,1.037,0,0,0-22.987-2.8Zm8.3,1.992a2.654,2.654,0,0,1-2.168.952A2.5,2.5,0,0,1-18.8-.586a3.127,3.127,0,0,1-.685-2.146V-7.925h2.117V-2.8q0,1.239,1.128,1.239a1.528,1.528,0,0,0,1.479-.748V-7.925h2.124V0H-14.63Zm5.632-7.119.066.886A2.785,2.785,0,0,1-6.713-8.071a2.114,2.114,0,0,1,2.1,1.208A2.721,2.721,0,0,1-2.23-8.071a2.364,2.364,0,0,1,1.919.751,3.451,3.451,0,0,1,.63,2.26V0H-1.805V-5.065a1.515,1.515,0,0,0-.264-.987A1.167,1.167,0,0,0-3-6.365a1.321,1.321,0,0,0-1.318.91L-4.31,0H-6.427V-5.058a1.5,1.5,0,0,0-.271-1,1.178,1.178,0,0,0-.923-.308,1.371,1.371,0,0,0-1.3.749V0h-2.117V-7.925ZM6.537,0a2.351,2.351,0,0,1-.212-.71,2.561,2.561,0,0,1-2,.857A2.814,2.814,0,0,1,2.4-.527a2.167,2.167,0,0,1-.765-1.7A2.24,2.24,0,0,1,2.563-4.16a4.608,4.608,0,0,1,2.7-.681h.974V-5.3a1.306,1.306,0,0,0-.282-.879,1.109,1.109,0,0,0-.89-.33,1.261,1.261,0,0,0-.839.256.871.871,0,0,0-.3.7H1.805A2.126,2.126,0,0,1,2.23-6.819a2.808,2.808,0,0,1,1.2-.919,4.378,4.378,0,0,1,1.743-.333A3.459,3.459,0,0,1,7.5-7.335a2.575,2.575,0,0,1,.861,2.069v3.435A3.789,3.789,0,0,0,8.676-.125V0ZM4.786-1.472a1.823,1.823,0,0,0,.864-.209,1.371,1.371,0,0,0,.586-.56V-3.6H5.446q-1.589,0-1.692,1.1l-.007.125a.847.847,0,0,0,.278.652A1.081,1.081,0,0,0,4.786-1.472Zm8.606-2.549a4.776,4.776,0,0,1,.831-2.952,2.7,2.7,0,0,1,2.274-1.1,2.427,2.427,0,0,1,1.912.864V-11.25h2.124V0H18.622l-.1-.842a2.491,2.491,0,0,1-2.036.989,2.69,2.69,0,0,1-2.245-1.1A4.93,4.93,0,0,1,13.392-4.021Zm2.117.151A3.146,3.146,0,0,0,15.9-2.156a1.263,1.263,0,0,0,1.128.6,1.416,1.416,0,0,0,1.384-.831V-5.533a1.4,1.4,0,0,0-1.37-.831Q15.509-6.365,15.509-3.87ZM25.822.146A3.89,3.89,0,0,1,22.983-.923a3.8,3.8,0,0,1-1.095-2.849v-.205a4.787,4.787,0,0,1,.461-2.135,3.386,3.386,0,0,1,1.307-1.45,3.669,3.669,0,0,1,1.93-.509,3.289,3.289,0,0,1,2.56,1.025,4.167,4.167,0,0,1,.934,2.908v.864H24.034a1.966,1.966,0,0,0,.619,1.245,1.871,1.871,0,0,0,1.307.469,2.285,2.285,0,0,0,1.912-.886l1.04,1.165A3.178,3.178,0,0,1,27.623-.231,4.229,4.229,0,0,1,25.822.146ZM25.58-6.365a1.323,1.323,0,0,0-1.022.427,2.209,2.209,0,0,0-.5,1.221H27v-.169a1.576,1.576,0,0,0-.381-1.092A1.365,1.365,0,0,0,25.58-6.365ZM-36.768,14h-2.124V2.75h2.124Zm1.414-4.036a4.7,4.7,0,0,1,.454-2.1,3.324,3.324,0,0,1,1.307-1.428,3.814,3.814,0,0,1,1.981-.505,3.609,3.609,0,0,1,2.618.981,3.939,3.939,0,0,1,1.132,2.666l.015.542a4.142,4.142,0,0,1-1.018,2.926,3.539,3.539,0,0,1-2.732,1.1,3.556,3.556,0,0,1-2.736-1.1,4.215,4.215,0,0,1-1.022-2.988Zm2.117.15a2.962,2.962,0,0,0,.425,1.727,1.4,1.4,0,0,0,1.216.6,1.4,1.4,0,0,0,1.2-.591,3.241,3.241,0,0,0,.432-1.889A2.933,2.933,0,0,0-30.4,8.244a1.4,1.4,0,0,0-1.216-.609,1.382,1.382,0,0,0-1.2.605A3.3,3.3,0,0,0-33.237,10.115Zm10.986,1.7a.682.682,0,0,0-.385-.612,4.368,4.368,0,0,0-1.234-.4Q-26.7,10.206-26.7,8.4a2.178,2.178,0,0,1,.875-1.761,3.531,3.531,0,0,1,2.289-.707,3.8,3.8,0,0,1,2.413.71,2.239,2.239,0,0,1,.9,1.846h-2.117a1.024,1.024,0,0,0-.293-.751,1.24,1.24,0,0,0-.916-.3,1.267,1.267,0,0,0-.828.242.763.763,0,0,0-.293.615.652.652,0,0,0,.333.568,3.428,3.428,0,0,0,1.124.374,9.183,9.183,0,0,1,1.333.355,2.19,2.19,0,0,1,1.677,2.131,2.067,2.067,0,0,1-.93,1.754,4.013,4.013,0,0,1-2.4.67,4.191,4.191,0,0,1-1.769-.355,2.968,2.968,0,0,1-1.212-.974,2.263,2.263,0,0,1-.439-1.337h2.007a1.105,1.105,0,0,0,.417.864,1.656,1.656,0,0,0,1.04.3,1.533,1.533,0,0,0,.919-.231A.718.718,0,0,0-22.251,11.81ZM-14.517,14V7.628H-15.7V6.075h1.179V5.4a2.736,2.736,0,0,1,.765-2.069A2.964,2.964,0,0,1-11.609,2.6a4.989,4.989,0,0,1,1.077.145l-.022,1.627A2.7,2.7,0,0,0-11.2,4.3q-1.194,0-1.194,1.13v.642h1.575V7.628h-1.575V14Zm9.39,0a2.351,2.351,0,0,1-.212-.71,2.561,2.561,0,0,1-2,.857,2.814,2.814,0,0,1-1.93-.674,2.167,2.167,0,0,1-.765-1.7A2.24,2.24,0,0,1-9.1,9.84a4.608,4.608,0,0,1,2.7-.681h.974V8.7a1.306,1.306,0,0,0-.282-.879A1.109,1.109,0,0,0-6.6,7.5a1.261,1.261,0,0,0-.839.256.871.871,0,0,0-.3.7H-9.858a2.126,2.126,0,0,1,.425-1.274,2.808,2.808,0,0,1,1.2-.919,4.378,4.378,0,0,1,1.743-.333,3.459,3.459,0,0,1,2.325.736A2.575,2.575,0,0,1-3.3,8.734v3.435a3.789,3.789,0,0,0,.315,1.707V14Zm-1.75-1.472a1.823,1.823,0,0,0,.864-.209,1.371,1.371,0,0,0,.586-.56V10.4h-.791q-1.589,0-1.692,1.1l-.007.125a.847.847,0,0,0,.278.652A1.081,1.081,0,0,0-6.877,12.528Zm8.5-.088a1.388,1.388,0,0,0,.952-.322,1.129,1.129,0,0,0,.381-.857H4.937A2.715,2.715,0,0,1,4.5,12.737a2.9,2.9,0,0,1-1.183,1.04,3.7,3.7,0,0,1-1.659.37,3.44,3.44,0,0,1-2.681-1.08,4.275,4.275,0,0,1-.981-2.985V9.942A4.226,4.226,0,0,1-1.033,7.02,3.4,3.4,0,0,1,1.641,5.929a3.333,3.333,0,0,1,2.384.846,3,3,0,0,1,.912,2.252H2.952a1.455,1.455,0,0,0-.381-1.005A1.27,1.27,0,0,0,1.6,7.635a1.275,1.275,0,0,0-1.117.539A3.125,3.125,0,0,0,.11,9.924v.22A3.164,3.164,0,0,0,.483,11.9,1.291,1.291,0,0,0,1.619,12.44ZM8.679,4.127V6.075h1.355V7.628H8.679v3.955a.944.944,0,0,0,.168.63.846.846,0,0,0,.645.19,3.376,3.376,0,0,0,.623-.051v1.6a4.358,4.358,0,0,1-1.282.19A2.021,2.021,0,0,1,6.563,11.9V7.628H5.405V6.075H6.563V4.127Zm1.985,5.837a4.7,4.7,0,0,1,.454-2.1,3.324,3.324,0,0,1,1.307-1.428,3.814,3.814,0,0,1,1.981-.505,3.609,3.609,0,0,1,2.618.981,3.939,3.939,0,0,1,1.132,2.666l.015.542a4.142,4.142,0,0,1-1.018,2.926,3.539,3.539,0,0,1-2.732,1.1,3.556,3.556,0,0,1-2.736-1.1,4.215,4.215,0,0,1-1.022-2.988Zm2.117.15a2.962,2.962,0,0,0,.425,1.727,1.526,1.526,0,0,0,2.417.007,3.241,3.241,0,0,0,.432-1.889,2.933,2.933,0,0,0-.432-1.716,1.4,1.4,0,0,0-1.216-.609,1.382,1.382,0,0,0-1.2.605A3.3,3.3,0,0,0,12.781,10.115ZM23.928,8.06A5.751,5.751,0,0,0,23.167,8a1.55,1.55,0,0,0-1.575.813V14H19.475V6.075h2l.059.945A1.961,1.961,0,0,1,23.3,5.929a2.218,2.218,0,0,1,.659.1Zm4.526,6.086a3.89,3.89,0,0,1-2.838-1.069,3.8,3.8,0,0,1-1.095-2.849v-.205a4.787,4.787,0,0,1,.461-2.135,3.386,3.386,0,0,1,1.307-1.45,3.669,3.669,0,0,1,1.93-.509,3.289,3.289,0,0,1,2.56,1.025,4.167,4.167,0,0,1,.934,2.908v.864H26.667a1.966,1.966,0,0,0,.619,1.245,1.871,1.871,0,0,0,1.307.469,2.285,2.285,0,0,0,1.912-.886l1.04,1.165a3.178,3.178,0,0,1-1.289,1.051A4.229,4.229,0,0,1,28.455,14.146Zm-.242-6.511a1.323,1.323,0,0,0-1.022.427,2.209,2.209,0,0,0-.5,1.221h2.944V9.114a1.576,1.576,0,0,0-.381-1.092A1.365,1.365,0,0,0,28.213,7.635Zm8.994,4.175a.682.682,0,0,0-.385-.612,4.368,4.368,0,0,0-1.234-.4q-2.827-.593-2.827-2.4a2.178,2.178,0,0,1,.875-1.761,3.531,3.531,0,0,1,2.289-.707,3.8,3.8,0,0,1,2.413.71,2.239,2.239,0,0,1,.9,1.846H37.126a1.024,1.024,0,0,0-.293-.751,1.24,1.24,0,0,0-.916-.3,1.267,1.267,0,0,0-.828.242.763.763,0,0,0-.293.615.652.652,0,0,0,.333.568,3.428,3.428,0,0,0,1.124.374,9.183,9.183,0,0,1,1.333.355,2.19,2.19,0,0,1,1.677,2.131,2.067,2.067,0,0,1-.93,1.754,4.013,4.013,0,0,1-2.4.67,4.191,4.191,0,0,1-1.769-.355,2.968,2.968,0,0,1-1.212-.974,2.263,2.263,0,0,1-.439-1.337h2.007a1.105,1.105,0,0,0,.417.864,1.656,1.656,0,0,0,1.04.3,1.533,1.533,0,0,0,.919-.231A.718.718,0,0,0,37.207,11.81Z" transform="translate(2382.143 490.324)"/>
    <path id="Trazado_131844" data-name="Trazado 131844" d="M-34.816-3.757V0h-2.2V-10.664h4.16a4.813,4.813,0,0,1,2.113.439,3.238,3.238,0,0,1,1.4,1.249,3.482,3.482,0,0,1,.491,1.842,3.062,3.062,0,0,1-1.073,2.472,4.469,4.469,0,0,1-2.97.9Zm0-1.78h1.963a1.93,1.93,0,0,0,1.329-.41,1.492,1.492,0,0,0,.458-1.172,1.759,1.759,0,0,0-.461-1.267,1.724,1.724,0,0,0-1.274-.5h-2.014ZM-22.731-.806A2.654,2.654,0,0,1-24.9.146a2.5,2.5,0,0,1-1.945-.732,3.127,3.127,0,0,1-.685-2.146V-7.925h2.117V-2.8q0,1.239,1.128,1.239A1.528,1.528,0,0,0-22.8-2.308V-7.925h2.124V0h-1.992Zm7.295.952A3.89,3.89,0,0,1-18.274-.923a3.8,3.8,0,0,1-1.095-2.849v-.205a4.787,4.787,0,0,1,.461-2.135A3.386,3.386,0,0,1-17.6-7.562a3.669,3.669,0,0,1,1.93-.509,3.289,3.289,0,0,1,2.56,1.025,4.167,4.167,0,0,1,.934,2.908v.864h-5.046A1.966,1.966,0,0,0-16.6-2.029,1.871,1.871,0,0,0-15.3-1.56a2.285,2.285,0,0,0,1.912-.886l1.04,1.165A3.178,3.178,0,0,1-13.634-.231,4.229,4.229,0,0,1-15.436.146Zm-.242-6.511a1.323,1.323,0,0,0-1.022.427,2.209,2.209,0,0,0-.5,1.221h2.944v-.169a1.576,1.576,0,0,0-.381-1.092A1.365,1.365,0,0,0-15.677-6.365ZM-6.683-2.19A.682.682,0,0,0-7.068-2.8,4.368,4.368,0,0,0-8.3-3.2q-2.827-.593-2.827-2.4a2.178,2.178,0,0,1,.875-1.761,3.531,3.531,0,0,1,2.289-.707,3.8,3.8,0,0,1,2.413.71,2.239,2.239,0,0,1,.9,1.846H-6.764a1.024,1.024,0,0,0-.293-.751,1.24,1.24,0,0,0-.916-.3,1.267,1.267,0,0,0-.828.242.763.763,0,0,0-.293.615.652.652,0,0,0,.333.568,3.428,3.428,0,0,0,1.124.374A9.183,9.183,0,0,1-6.3-4.409,2.19,2.19,0,0,1-4.625-2.278a2.067,2.067,0,0,1-.93,1.754,4.013,4.013,0,0,1-2.4.67A4.191,4.191,0,0,1-9.727-.209a2.968,2.968,0,0,1-1.212-.974,2.263,2.263,0,0,1-.439-1.337h2.007a1.105,1.105,0,0,0,.417.864,1.656,1.656,0,0,0,1.04.3,1.533,1.533,0,0,0,.919-.231A.718.718,0,0,0-6.683-2.19ZM-.729-9.873v1.948H.626v1.553H-.729v3.955a.944.944,0,0,0,.168.63.846.846,0,0,0,.645.19,3.376,3.376,0,0,0,.623-.051v1.6A4.358,4.358,0,0,1-.575.146,2.021,2.021,0,0,1-2.845-2.1v-4.27H-4V-7.925h1.157V-9.873ZM1.256-4.036a4.7,4.7,0,0,1,.454-2.1A3.324,3.324,0,0,1,3.018-7.566,3.814,3.814,0,0,1,5-8.071a3.609,3.609,0,0,1,2.618.981A3.939,3.939,0,0,1,8.749-4.424l.015.542A4.142,4.142,0,0,1,7.745-.956,3.539,3.539,0,0,1,5.013.146a3.556,3.556,0,0,1-2.736-1.1A4.215,4.215,0,0,1,1.256-3.94Zm2.117.15A2.962,2.962,0,0,0,3.8-2.158a1.4,1.4,0,0,0,1.216.6,1.4,1.4,0,0,0,1.2-.591,3.241,3.241,0,0,0,.432-1.889,2.933,2.933,0,0,0-.432-1.716A1.4,1.4,0,0,0,5-6.365a1.382,1.382,0,0,0-1.2.605A3.3,3.3,0,0,0,3.373-3.885Zm10.1-.15A4.737,4.737,0,0,1,14.3-6.987a2.718,2.718,0,0,1,2.281-1.084,2.433,2.433,0,0,1,2.029.974l.139-.828h1.86V3.047H18.49V-.681a2.44,2.44,0,0,1-1.919.828,2.7,2.7,0,0,1-2.256-1.1A4.969,4.969,0,0,1,13.473-4.036Zm2.117.15a3.107,3.107,0,0,0,.4,1.731,1.278,1.278,0,0,0,1.124.594,1.423,1.423,0,0,0,1.377-.778V-5.617a1.412,1.412,0,0,0-1.362-.748,1.293,1.293,0,0,0-1.135.594A3.432,3.432,0,0,0,15.59-3.885ZM27.023-.806a2.654,2.654,0,0,1-2.168.952A2.5,2.5,0,0,1,22.91-.586a3.127,3.127,0,0,1-.685-2.146V-7.925h2.117V-2.8q0,1.239,1.128,1.239a1.528,1.528,0,0,0,1.479-.748V-7.925h2.124V0H27.081Zm7.295.952A3.89,3.89,0,0,1,31.479-.923a3.8,3.8,0,0,1-1.095-2.849v-.205a4.787,4.787,0,0,1,.461-2.135,3.386,3.386,0,0,1,1.307-1.45,3.669,3.669,0,0,1,1.93-.509,3.289,3.289,0,0,1,2.56,1.025,4.167,4.167,0,0,1,.934,2.908v.864H32.531a1.966,1.966,0,0,0,.619,1.245,1.871,1.871,0,0,0,1.307.469,2.285,2.285,0,0,0,1.912-.886l1.04,1.165A3.178,3.178,0,0,1,36.119-.231,4.229,4.229,0,0,1,34.318.146Zm-.242-6.511a1.323,1.323,0,0,0-1.022.427,2.209,2.209,0,0,0-.5,1.221H35.5v-.169a1.576,1.576,0,0,0-.381-1.092A1.365,1.365,0,0,0,34.076-6.365ZM-20.109,8.964a4.7,4.7,0,0,1,.454-2.1,3.324,3.324,0,0,1,1.307-1.428,3.814,3.814,0,0,1,1.981-.505,3.609,3.609,0,0,1,2.618.981,3.939,3.939,0,0,1,1.132,2.666l.015.542a4.142,4.142,0,0,1-1.018,2.926,3.539,3.539,0,0,1-2.732,1.1,3.556,3.556,0,0,1-2.736-1.1A4.215,4.215,0,0,1-20.109,9.06Zm2.117.15a2.962,2.962,0,0,0,.425,1.727,1.4,1.4,0,0,0,1.216.6,1.4,1.4,0,0,0,1.2-.591,3.241,3.241,0,0,0,.432-1.889,2.933,2.933,0,0,0-.432-1.716,1.4,1.4,0,0,0-1.216-.609,1.382,1.382,0,0,0-1.2.605A3.3,3.3,0,0,0-17.992,9.115ZM-8,11.44a1.388,1.388,0,0,0,.952-.322,1.129,1.129,0,0,0,.381-.857h1.985a2.715,2.715,0,0,1-.439,1.476,2.9,2.9,0,0,1-1.183,1.04,3.7,3.7,0,0,1-1.659.37,3.44,3.44,0,0,1-2.681-1.08,4.275,4.275,0,0,1-.981-2.985V8.942a4.226,4.226,0,0,1,.974-2.922A3.4,3.4,0,0,1-7.98,4.929,3.333,3.333,0,0,1-5.6,5.775a3,3,0,0,1,.912,2.252H-6.669A1.455,1.455,0,0,0-7.05,7.022a1.27,1.27,0,0,0-.967-.387,1.275,1.275,0,0,0-1.117.539A3.125,3.125,0,0,0-9.51,8.924v.22A3.164,3.164,0,0,0-9.137,10.9,1.291,1.291,0,0,0-8,11.44Zm9.272.754A2.654,2.654,0,0,1-.9,13.146a2.5,2.5,0,0,1-1.945-.732,3.127,3.127,0,0,1-.685-2.146V5.075H-1.41V10.2q0,1.239,1.128,1.239A1.528,1.528,0,0,0,1.2,10.692V5.075H3.322V13H1.329ZM12.052,9.111a4.753,4.753,0,0,1-.831,2.933,2.665,2.665,0,0,1-2.245,1.1,2.469,2.469,0,0,1-1.941-.835v3.735H4.918V5.075H6.881l.073.776a2.488,2.488,0,0,1,2.007-.923,2.683,2.683,0,0,1,2.278,1.084A4.882,4.882,0,0,1,12.052,9ZM9.935,8.949a3.136,3.136,0,0,0-.392-1.712,1.275,1.275,0,0,0-1.139-.6,1.385,1.385,0,0,0-1.37.764v3.255a1.409,1.409,0,0,0,1.384.786Q9.935,11.44,9.935,8.949ZM17.955,13a2.351,2.351,0,0,1-.212-.71,2.561,2.561,0,0,1-2,.857,2.814,2.814,0,0,1-1.93-.674,2.167,2.167,0,0,1-.765-1.7,2.24,2.24,0,0,1,.934-1.934,4.608,4.608,0,0,1,2.7-.681h.974V7.7a1.306,1.306,0,0,0-.282-.879,1.109,1.109,0,0,0-.89-.33,1.261,1.261,0,0,0-.839.256.871.871,0,0,0-.3.7H13.224a2.126,2.126,0,0,1,.425-1.274,2.808,2.808,0,0,1,1.2-.919,4.378,4.378,0,0,1,1.743-.333,3.459,3.459,0,0,1,2.325.736,2.575,2.575,0,0,1,.861,2.069v3.435a3.789,3.789,0,0,0,.315,1.707V13ZM16.2,11.528a1.823,1.823,0,0,0,.864-.209,1.371,1.371,0,0,0,.586-.56V9.4h-.791q-1.589,0-1.692,1.1l-.007.125a.847.847,0,0,0,.278.652A1.081,1.081,0,0,0,16.2,11.528Z" transform="translate(2531.035 489.324)"/>
    <path id="Trazado_131843" data-name="Trazado 131843" d="M-37.409-16.352v10.77a5.514,5.514,0,0,1-1.679,4.245A6.473,6.473,0,0,1-43.675.225a6.546,6.546,0,0,1-4.548-1.516,5.42,5.42,0,0,1-1.718-4.167V-16.352h3.369V-5.559A3.116,3.116,0,0,0-45.8-3.218a2.953,2.953,0,0,0,2.128.736q2.841,0,2.886-2.987V-16.352Zm13.5,10.388a7.358,7.358,0,0,1-1.247,4.554A4.129,4.129,0,0,1-28.638.225a3.794,3.794,0,0,1-3.156-1.516L-31.939,0h-2.92V-17.25h3.246v6.188a3.7,3.7,0,0,1,2.954-1.314,4.163,4.163,0,0,1,3.487,1.634,7.369,7.369,0,0,1,1.263,4.6Zm-3.246-.247a4.861,4.861,0,0,0-.584-2.7,1.973,1.973,0,0,0-1.741-.851,2.14,2.14,0,0,0-2.134,1.273v4.81a2.169,2.169,0,0,0,2.156,1.284,2,2,0,0,0,2.066-1.555A8.042,8.042,0,0,0-27.155-6.211ZM-18.485,0h-3.257V-12.151h3.257Zm-3.448-15.3a1.6,1.6,0,0,1,.489-1.2,1.835,1.835,0,0,1,1.331-.472,1.839,1.839,0,0,1,1.325.472,1.589,1.589,0,0,1,.494,1.2,1.593,1.593,0,0,1-.5,1.213,1.844,1.844,0,0,1-1.32.472,1.844,1.844,0,0,1-1.32-.472A1.593,1.593,0,0,1-21.933-15.3Zm11.174,12.9A2.129,2.129,0,0,0-9.3-2.886,1.731,1.731,0,0,0-8.715-4.2h3.043a4.163,4.163,0,0,1-.674,2.263A4.446,4.446,0,0,1-8.159-.343,5.676,5.676,0,0,1-10.7.225a5.275,5.275,0,0,1-4.11-1.656,6.555,6.555,0,0,1-1.5-4.576v-.213A6.48,6.48,0,0,1-14.824-10.7a5.214,5.214,0,0,1,4.1-1.673,5.111,5.111,0,0,1,3.656,1.3,4.593,4.593,0,0,1,1.4,3.453H-8.715A2.23,2.23,0,0,0-9.3-9.167a1.947,1.947,0,0,0-1.482-.593,1.955,1.955,0,0,0-1.713.827,4.791,4.791,0,0,0-.578,2.683v.337a4.852,4.852,0,0,0,.573,2.7A1.979,1.979,0,0,0-10.759-2.392ZM3.223,0A3.6,3.6,0,0,1,2.9-1.089,3.927,3.927,0,0,1-.168.225,4.314,4.314,0,0,1-3.128-.809,3.323,3.323,0,0,1-4.3-3.414,3.434,3.434,0,0,1-2.869-6.379,7.065,7.065,0,0,1,1.269-7.423H2.763v-.7A2,2,0,0,0,2.33-9.467,1.7,1.7,0,0,0,.966-9.973,1.934,1.934,0,0,0-.32-9.58,1.335,1.335,0,0,0-.786-8.5H-4.032a3.26,3.26,0,0,1,.651-1.954,4.306,4.306,0,0,1,1.842-1.409,6.712,6.712,0,0,1,2.673-.511A5.3,5.3,0,0,1,4.7-11.247,3.948,3.948,0,0,1,6.02-8.075v5.267A5.809,5.809,0,0,0,6.5-.191V0ZM.539-2.257a2.8,2.8,0,0,0,1.325-.32,2.1,2.1,0,0,0,.9-.859V-5.525H1.55q-2.437,0-2.594,1.685l-.011.191a1.3,1.3,0,0,0,.427,1A1.658,1.658,0,0,0,.539-2.257Zm13.027-.135a2.129,2.129,0,0,0,1.46-.494A1.731,1.731,0,0,0,15.61-4.2h3.043a4.163,4.163,0,0,1-.674,2.263A4.446,4.446,0,0,1,16.166-.343a5.676,5.676,0,0,1-2.544.567,5.275,5.275,0,0,1-4.11-1.656,6.555,6.555,0,0,1-1.5-4.576v-.213A6.48,6.48,0,0,1,9.5-10.7a5.214,5.214,0,0,1,4.1-1.673,5.111,5.111,0,0,1,3.656,1.3,4.593,4.593,0,0,1,1.4,3.453H15.61a2.23,2.23,0,0,0-.584-1.541,1.947,1.947,0,0,0-1.482-.593,1.955,1.955,0,0,0-1.713.827,4.791,4.791,0,0,0-.578,2.683v.337a4.852,4.852,0,0,0,.573,2.7A1.979,1.979,0,0,0,13.566-2.392ZM23.932,0H20.675V-12.151h3.257ZM20.484-15.3a1.6,1.6,0,0,1,.489-1.2,1.835,1.835,0,0,1,1.331-.472,1.839,1.839,0,0,1,1.325.472,1.589,1.589,0,0,1,.494,1.2,1.593,1.593,0,0,1-.5,1.213,1.844,1.844,0,0,1-1.32.472,1.844,1.844,0,0,1-1.32-.472A1.593,1.593,0,0,1,20.484-15.3ZM26.1-6.188a7.206,7.206,0,0,1,.7-3.223,5.1,5.1,0,0,1,2-2.19,5.849,5.849,0,0,1,3.038-.775,5.533,5.533,0,0,1,4.015,1.5,6.04,6.04,0,0,1,1.735,4.088l.022.831A6.351,6.351,0,0,1,36.05-1.466,5.426,5.426,0,0,1,31.861.225,5.453,5.453,0,0,1,27.666-1.46,6.463,6.463,0,0,1,26.1-6.042Zm3.246.23A4.542,4.542,0,0,0,30-3.309a2.149,2.149,0,0,0,1.864.917A2.154,2.154,0,0,0,33.7-3.3a4.97,4.97,0,0,0,.663-2.9A4.5,4.5,0,0,0,33.7-8.826a2.154,2.154,0,0,0-1.864-.934A2.119,2.119,0,0,0,30-8.831,5.054,5.054,0,0,0,29.345-5.958ZM32.479-17.25h3.538l-3.111,3.481H30.266Zm10.119,5.1.1,1.4a4.242,4.242,0,0,1,3.493-1.628,3.526,3.526,0,0,1,2.875,1.134,5.292,5.292,0,0,1,.966,3.392V0H46.786V-7.789a2.114,2.114,0,0,0-.449-1.5,2.008,2.008,0,0,0-1.494-.467,2.232,2.232,0,0,0-2.055,1.171V0H39.542V-12.151Z" transform="translate(2525.641 414.51)"/>
  </g>
</svg>
