<svg id="Grupo_49869" data-name="Grupo 49869" xmlns="http://www.w3.org/2000/svg" xmlns:xlink="http://www.w3.org/1999/xlink" width="158.299" height="158.299" viewBox="0 0 158.299 158.299">
  <defs>
    <radialGradient id="radial-gradient" cx="0.076" cy="0.019" r="1.465" gradientTransform="translate(0.001)" gradientUnits="objectBoundingBox">
      <stop offset="0" stop-color="#f6f6f7"/>
      <stop offset="0.477" stop-color="#f9f9fa"/>
      <stop offset="0.715" stop-color="#fff"/>
    </radialGradient>
  </defs>
  <g id="Grupo_18531" data-name="Grupo 18531" transform="translate(0)">
    <g id="Grupo_18423" data-name="Grupo 18423" transform="translate(0 0)">
      <g id="Grupo_18421" data-name="Grupo 18421">
        <g id="Grupo_18420" data-name="Grupo 18420">
          <g id="Grupo_18419" data-name="Grupo 18419">
            <path id="Trazado_40936" data-name="Trazado 40936" d="M352.922,2224.868a79.149,79.149,0,1,1-79.148-79.147A79.148,79.148,0,0,1,352.922,2224.868Z" transform="translate(-194.623 -2145.721)" fill="#fff"/>
          </g>
        </g>
      </g>
      <path id="Trazado_40937" data-name="Trazado 40937" d="M351.754,2223.6a79.148,79.148,0,1,0-79.148,79.151A78.837,78.837,0,0,0,351.754,2223.6Z" transform="translate(-193.455 -2144.448)" fill="url(#radial-gradient)"/>
      <path id="Trazado_40938" data-name="Trazado 40938" d="M322.575,2213.187a60.414,60.414,0,1,0-60.414,60.414A60.189,60.189,0,0,0,322.575,2213.187Z" transform="translate(-182.771 -2133.776)" fill="none" stroke="#00223d" stroke-miterlimit="10" stroke-width="4"/>
      <g id="Grupo_18422" data-name="Grupo 18422" transform="translate(14.022 44.437)">
        <path id="Trazado_40939" data-name="Trazado 40939" d="M336.819,2164.488a79.159,79.159,0,0,1-136.274,78.821,78.907,78.907,0,0,0,136.274-78.821Z" transform="translate(-200.545 -2164.488)" fill="#eceef0"/>
      </g>
    </g>
  </g>
  <g id="Grupo_50705" data-name="Grupo 50705" transform="translate(45.697 44.067)">
    <g id="Grupo_50690" data-name="Grupo 50690" transform="translate(39.877)">
      <g id="Grupo_50689" data-name="Grupo 50689">
        <g id="Grupo_50688" data-name="Grupo 50688">
          <path id="Trazado_112694" data-name="Trazado 112694" d="M333.252,2253.4a5.66,5.66,0,0,1-4.329-2.02,5.822,5.822,0,0,1-1.367-4.209h-8.987a1.411,1.411,0,0,1-1.412-1.411v-9.518a1.412,1.412,0,0,1,1.667-1.389l.084.016a2.9,2.9,0,1,0,0-5.707l-.085.016a1.412,1.412,0,0,1-1.665-1.388V2217.36a1.411,1.411,0,0,1,1.411-1.411h23.413a6.4,6.4,0,0,1,6.4,6.4v23.414a1.411,1.411,0,0,1-1.411,1.411H338.95a5.724,5.724,0,0,1-5.615,6.229Zm-13.271-9.052h9.236a1.412,1.412,0,0,1,1.388,1.665l-.192,1.052a3.006,3.006,0,0,0,.665,2.491,2.814,2.814,0,0,0,2.216,1.021,2.9,2.9,0,0,0,2.809-3.423l-.209-1.141a1.412,1.412,0,0,1,1.388-1.665h8.273v-22a3.577,3.577,0,0,0-3.573-3.573h-22v7.544a5.725,5.725,0,0,1,0,11.4Z" transform="translate(-317.157 -2215.948)" fill="#12263f"/>
        </g>
      </g>
    </g>
    <g id="Grupo_50704" data-name="Grupo 50704" transform="translate(0)">
      <g id="Grupo_50698" data-name="Grupo 50698" transform="translate(1.164 12.644)">
        <path id="Trazado_112698" data-name="Trazado 112698" d="M310.836,2273.354a1.411,1.411,0,0,0,1.412-1.411v-5.111a1.411,1.411,0,0,0-1.412-1.411h-9.684a1.411,1.411,0,0,0-1.388,1.666l.209,1.14a2.9,2.9,0,0,1-2.809,3.423,2.819,2.819,0,0,1-2.216-1.021,3.008,3.008,0,0,1-.665-2.491l.192-1.052a1.411,1.411,0,0,0-1.388-1.666h-9.236v-6.635a5.725,5.725,0,0,0,0-11.4v-8.955a1.412,1.412,0,0,0-1.412-1.412H259.025a6.4,6.4,0,0,0-6.4,6.4v46.827a6.4,6.4,0,0,0,6.4,6.4h46.827a6.4,6.4,0,0,0,6.4-6.4v-4.1a1.411,1.411,0,1,0-2.823,0v4.1a3.577,3.577,0,0,1-3.573,3.573h-22v-9.1a1.412,1.412,0,0,0-1.665-1.389l-.086.016a2.9,2.9,0,1,1,0-5.707l.085.015a1.412,1.412,0,0,0,1.665-1.388v-8.019h7.576a5.817,5.817,0,0,0,1.367,4.208,5.705,5.705,0,0,0,10.027-4.208h6.6v3.7a1.411,1.411,0,0,0,1.411,1.411Zm-55.383-29.935a3.577,3.577,0,0,1,3.573-3.573h22v9.016a1.41,1.41,0,0,0,1.665,1.388l.085-.015h0a2.9,2.9,0,1,1,0,5.706l-.085-.015a1.411,1.411,0,0,0-1.665,1.389v8.106h-6.056a5.731,5.731,0,0,0-11,0h-8.522Zm22.461,32.674a5.725,5.725,0,0,0,3.114,10.095v7.632h-22a3.577,3.577,0,0,1-3.573-3.573v-22h9.711a1.411,1.411,0,0,0,1.41-1.35,2.9,2.9,0,0,1,5.8,0,1.411,1.411,0,0,0,1.41,1.35h7.246v6.547a5.712,5.712,0,0,0-3.114,1.3Z" transform="translate(-252.63 -2237.023)" fill="#12263f"/>
      </g>
      <g id="Grupo_50703" data-name="Grupo 50703">
        <g id="Grupo_50700" data-name="Grupo 50700">
          <g id="Grupo_50699" data-name="Grupo 50699">
            <path id="Trazado_112699" data-name="Trazado 112699" d="M250.689,2215.948" transform="translate(-250.689 -2215.948)" fill="#12263f"/>
          </g>
        </g>
        <g id="Grupo_50702" data-name="Grupo 50702" transform="translate(57.962 53.186)">
          <g id="Grupo_50701" data-name="Grupo 50701">
            <path id="Trazado_112700" data-name="Trazado 112700" d="M348.71,2307.418a1.411,1.411,0,1,1,1.385-1.134,1.422,1.422,0,0,1-1.385,1.134Z" transform="translate(-347.301 -2304.6)" fill="#12263f"/>
          </g>
        </g>
      </g>
    </g>
  </g>
</svg>
