<svg id="Grupo_49868" data-name="Grupo 49868" xmlns="http://www.w3.org/2000/svg" xmlns:xlink="http://www.w3.org/1999/xlink" width="158.299" height="158.299" viewBox="0 0 158.299 158.299">
  <defs>
    <radialGradient id="radial-gradient" cx="0.076" cy="0.019" r="1.465" gradientTransform="translate(0.001)" gradientUnits="objectBoundingBox">
      <stop offset="0" stop-color="#f6f6f7"/>
      <stop offset="0.477" stop-color="#f9f9fa"/>
      <stop offset="0.715" stop-color="#fff"/>
    </radialGradient>
  </defs>
  <g id="Grupo_18531" data-name="Grupo 18531" transform="translate(0)">
    <g id="Grupo_18423" data-name="Grupo 18423" transform="translate(0 0)">
      <g id="Grupo_18421" data-name="Grupo 18421">
        <g id="Grupo_18420" data-name="Grupo 18420">
          <g id="Grupo_18419" data-name="Grupo 18419">
            <path id="Trazado_40936" data-name="Trazado 40936" d="M352.922,2224.868a79.149,79.149,0,1,1-79.148-79.147A79.148,79.148,0,0,1,352.922,2224.868Z" transform="translate(-194.623 -2145.721)" fill="#fff"/>
          </g>
        </g>
      </g>
      <path id="Trazado_40937" data-name="Trazado 40937" d="M351.754,2223.6a79.148,79.148,0,1,0-79.148,79.151A78.837,78.837,0,0,0,351.754,2223.6Z" transform="translate(-193.455 -2144.448)" fill="url(#radial-gradient)"/>
      <path id="Trazado_40938" data-name="Trazado 40938" d="M322.575,2213.187a60.414,60.414,0,1,0-60.414,60.414A60.189,60.189,0,0,0,322.575,2213.187Z" transform="translate(-182.771 -2133.776)" fill="none" stroke="#00223d" stroke-miterlimit="10" stroke-width="4"/>
      <g id="Grupo_18422" data-name="Grupo 18422" transform="translate(14.022 44.437)">
        <path id="Trazado_40939" data-name="Trazado 40939" d="M336.819,2164.488a79.159,79.159,0,0,1-136.274,78.821,78.907,78.907,0,0,0,136.274-78.821Z" transform="translate(-200.545 -2164.488)" fill="#eceef0"/>
      </g>
    </g>
  </g>
  <g id="Grupo_52998" data-name="Grupo 52998" transform="translate(47.227 41.079)">
    <path id="Trazado_114962" data-name="Trazado 114962" d="M-1026.505,1404.527a17.715,17.715,0,0,1-1.9.217q-22.877.019-45.754.013c-.265,0-.53,0-.793-.019a1.263,1.263,0,0,1-1.341-1.408c-.022-1.293-.039-2.587.006-3.878.026-.71-.242-.927-.923-.9-1.086.04-2.174.02-3.261,0-1.048-.022-1.5-.474-1.511-1.519-.017-1.293-.006-2.586-.006-3.879q0-29.445,0-58.89c0-1.835.322-2.156,2.143-2.156h45.667c1.744,0,2.088.35,2.088,2.123,0,1.116.015,2.234-.008,3.35-.011.517.15.736.7.718,1.057-.036,2.115-.01,3.173,0,1.361.01,1.8.444,1.8,1.789,0,4.378.009,8.757-.011,13.135a1.453,1.453,0,0,0,.606,1.259,34.2,34.2,0,0,1,10.64,14.226,23.01,23.01,0,0,1,1.017,11.368c-.312,2.442-.662,4.89-.757,7.345a15.335,15.335,0,0,0,1.637,7.413,24.786,24.786,0,0,0,1.653,2.591c1,1.519,2.023,3.027,3.021,4.549.745,1.136.611,1.749-.532,2.484q-5.261,3.383-10.529,6.755c-1.349.863-1.877.756-2.746-.551-1.187-1.785-2.362-3.577-3.546-5.364C-1026.156,1405-1026.366,1404.724-1026.505,1404.527Zm-10.049-21.7a4.628,4.628,0,0,0-.605-.74c-.528-.43-1.075-.819-.517-1.447l-.863-.214a3.759,3.759,0,0,1,.7-.614,4.591,4.591,0,0,1,.964-.269l-.069-.3-2.1.458a2.715,2.715,0,0,1-.323-.62c-.255-1.126-1.014-1.235-2.026-1.23-7.523.039-15.046.022-22.569.022-1.52,0-2.135-.391-2.131-1.348,0-.907.627-1.29,2.085-1.289q11.461,0,22.922.011c.659,0,1.062-.12,1.3-.833a2.772,2.772,0,0,1,2.394-1.949,21.5,21.5,0,0,1,2.534-.019v-37.582h-44.469v1.289q0,29.314,0,58.628c0,1.139,0,1.137,1.162,1.137q20.895,0,41.789,0c1.894,0,1.565.172,1.588-1.585a39.671,39.671,0,0,1,.081-5.192c.341-2.328.24-4.406-1.64-6.074a3.442,3.442,0,0,1-.237-.256c.425-.463.877-.951.482-1.616a4.349,4.349,0,0,0-.843-.812l-.279.192C-1035.97,1381.083-1036.41,1381.992-1036.554,1382.832Zm10.5-25.213-.309.175c-.016.222-.046.443-.047.665-.006,1.822-.051,3.645.019,5.464a2.667,2.667,0,0,0,.594,1.549,10.479,10.479,0,0,1,2.425,4.632,27.5,27.5,0,0,1,.733,4.506c.2,3.542-.238,6.979-2.292,10.022a2.025,2.025,0,0,1-1.839.983,2.893,2.893,0,0,1-2.336-1.381c-1.038-1.523-1.968-3.121-2.913-4.706-.541-.906-.972-1.881-1.552-2.76a3.5,3.5,0,0,0-2.9-1.743c-.631-.019-.961.276-.978.865-.053,1.764,1.01,3.041,2,4.316s2.067,2.443,3.064,3.693c.093.116-.115.473-.2.766l.862.141c0,1.88-.073,3.754.018,5.62.116,2.389.323,4.873,1.992,6.711a67.384,67.384,0,0,0,5.45,4.876c2.481-1.585,5.425-3.457,8.348-5.361a.759.759,0,0,0,.137-.707c-2.093-4.658-2.167-9.484-1.312-14.414a24.973,24.973,0,0,0,.34-8.323,23.85,23.85,0,0,0-5.113-10.88C-1023.149,1360.676-1024.646,1359.183-1026.051,1357.619Zm-6.251,40.731c-.71.075-1.339.2-1.969.2q-18.464.018-36.927.01c-2.5,0-2.462,0-2.486,2.5-.008.866.29,1.061,1.108,1.06q21.24-.034,42.48-.018h.922l.146-.273Zm2.989-19.485.181-.059v-37.76h-2.95v1.177c0,10.014.019,20.027-.023,30.041a5.256,5.256,0,0,0,1.041,3.488A23.352,23.352,0,0,1-1029.314,1378.865Zm17.965,23.823-2.607-3.918-9.289,5.774,2.69,4.05Zm-15.029-21.293c1.608-2.448,1.292-9.973,0-11.273Z" transform="translate(1081.988 -1332.103)" fill="#12263f"/>
    <path id="Trazado_114965" data-name="Trazado 114965" d="M-993.525,1707.767l3.274,3.481-.146.273h-.922q-21.24,0-42.48.017c-.818,0-1.116-.194-1.108-1.06.024-2.5-.012-2.5,2.486-2.5q18.464,0,36.927-.01C-994.865,1707.965-994.235,1707.842-993.525,1707.767Z" transform="translate(1043.21 -1641.52)" fill="#fff"/>
    <path id="Trazado_114968" data-name="Trazado 114968" d="M-766.642,1558.971V1547.7C-765.35,1549-765.034,1556.523-766.642,1558.971Z" transform="translate(822.252 -1509.68)" fill="#fff"/>
    <path id="Trazado_114969" data-name="Trazado 114969" d="M-827.495,1608.294l.027.023c.144-.839.584-1.749-.668-2.26l.279-.192a4.346,4.346,0,0,1,.844.812C-826.618,1607.343-827.069,1607.831-827.495,1608.294Z" transform="translate(872.901 -1557.588)" fill="#fff"/>
    <path id="Trazado_114970" data-name="Trazado 114970" d="M-1027.513,1384.172a13.97,13.97,0,0,0,1.449.936,4.777,4.777,0,0,1,2.631,3.815c.13.781.3,1.555.411,2.338a1.314,1.314,0,0,1-1.066,1.563,1.358,1.358,0,0,1-1.539-1.127,23.529,23.529,0,0,0-.566-2.659,4.65,4.65,0,0,0-1.064-1.5,4.973,4.973,0,0,0-1.03-.668c-1.006-.638-1.971-1.4-3.3-.9a1.083,1.083,0,0,1-.611,0c-2.145-.552-3.439,1.056-4.834,2.108-.6.452-.6,1.705-.854,2.6-.1.366-.114.755-.2,1.125a1.23,1.23,0,0,1-1.426,1.023,1.129,1.129,0,0,1-1.135-1.308,25.129,25.129,0,0,1,1.2-4.741c.287-.719,1.238-1.188,1.922-1.726a16.184,16.184,0,0,1,1.432-.9,5.9,5.9,0,0,1-1.131-5.542,5.4,5.4,0,0,1,2.155-2.915,5.741,5.741,0,0,1,7.013.433C-1025.838,1378.136-1025.653,1380.678-1027.513,1384.172Zm-4.327-6.829a3.032,3.032,0,0,0-3,2.965,3.038,3.038,0,0,0,3.041,3.016,3.041,3.041,0,0,0,2.956-3.008A3.055,3.055,0,0,0-1031.84,1377.343Z" transform="translate(1047.955 -1367.186)" fill="#00223d"/>
    <path id="Trazado_114971" data-name="Trazado 114971" d="M-1018.543,1501.8q-7.887,0-15.774,0a5.2,5.2,0,0,1-.878-.033,1.374,1.374,0,0,1-1.2-1.4,1.4,1.4,0,0,1,1.359-1.251c.2-.016.411-.006.617-.006h31.547c1.438,0,2.063.406,2.066,1.334s-.667,1.363-2.052,1.362Z" transform="translate(1044.437 -1469.652)" fill="#00223d"/>
    <path id="Trazado_114973" data-name="Trazado 114973" d="M-1018.6,1656.64h-15.865c-1.28-.01-1.9-.442-1.888-1.322s.63-1.327,1.922-1.325c5.665.008,11.331.038,17,.04q7.484,0,14.968-.041c.767,0,1.423.149,1.642.99.258.989-.408,1.7-1.56,1.7q-6.169-.018-12.338-.042C-1016.012,1656.637-1017.3,1656.64-1018.6,1656.64Z" transform="translate(1044.398 -1597.228)" fill="#00223d"/>
    <path id="Trazado_114981" data-name="Trazado 114981" d="M-1018.6,1656.64h-15.865c-1.28-.01-1.9-.442-1.888-1.322s.63-1.327,1.922-1.325c5.665.008,11.331.038,17,.04q7.484,0,14.968-.041c.767,0,1.423.149,1.642.99.258.989-.408,1.7-1.56,1.7q-6.169-.018-12.338-.042C-1016.012,1656.637-1017.3,1656.64-1018.6,1656.64Z" transform="translate(1044.398 -1602.702)" fill="#00223d"/>
    <path id="Trazado_114974" data-name="Trazado 114974" d="M-978.069,1540.547H-989.7c-.323,0-.648.012-.969-.016a1.285,1.285,0,0,1-1.253-1.325,1.275,1.275,0,0,1,1.217-1.278,6.99,6.99,0,0,1,.968-.015l23.8,0a5.145,5.145,0,0,1,.528.012,1.263,1.263,0,0,1,1.231,1.335,1.208,1.208,0,0,1-1.282,1.269c-1.733.032-3.466.02-5.2.021Q-974.367,1540.55-978.069,1540.547Z" transform="translate(1007.809 -1501.611)" fill="#00223d"/>
    <path id="Trazado_114975" data-name="Trazado 114975" d="M-914.772,1383.073q3.038,0,6.075,0c1.1,0,1.727.485,1.728,1.316,0,.848-.585,1.363-1.7,1.364q-6.206.009-12.412-.039c-.978-.007-1.505-.522-1.493-1.352.012-.8.568-1.279,1.557-1.284C-918.939,1383.066-916.855,1383.074-914.772,1383.073Z" transform="translate(950.69 -1374.083)" fill="#00223d"/>
    <path id="Trazado_114976" data-name="Trazado 114976" d="M-914.795,1463.166c-2.054,0-4.108.005-6.162,0-1.039,0-1.588-.484-1.58-1.348.007-.823.532-1.3,1.536-1.3q6.25-.02,12.5,0a1.4,1.4,0,0,1,1.571,1.3c0,.808-.623,1.347-1.615,1.352C-910.628,1463.174-912.711,1463.167-914.795,1463.166Z" transform="translate(950.655 -1437.859)" fill="#00223d"/>
    <path id="Trazado_114977" data-name="Trazado 114977" d="M-914.811,1424.492c-2.053,0-4.107,0-6.16,0-1.056,0-1.615-.465-1.622-1.306s.573-1.316,1.614-1.318q6.16-.007,12.32,0c1.057,0,1.66.469,1.68,1.265.021.857-.581,1.355-1.672,1.359C-910.7,1424.5-912.758,1424.493-914.811,1424.492Z" transform="translate(950.702 -1406.033)" fill="#00223d"/>
    <path id="Trazado_114978" data-name="Trazado 114978" d="M-1025.661,1540.976a1.356,1.356,0,0,1-1.417-1.365,1.379,1.379,0,0,1,1.465-1.324,1.335,1.335,0,0,1,1.4,1.37A1.339,1.339,0,0,1-1025.661,1540.976Z" transform="translate(1036.761 -1501.927)" fill="#00223d"/>
    <path id="Trazado_114979" data-name="Trazado 114979" d="M-1024.314,1577.628A1.322,1.322,0,0,1-1025.7,1579a1.406,1.406,0,0,1-1.5-1.3,1.453,1.453,0,0,1,1.425-1.395A1.362,1.362,0,0,1-1024.314,1577.628Z" transform="translate(1036.862 -1533.24)" fill="#00223d"/>
    <path id="Trazado_114980" data-name="Trazado 114980" d="M-925.661,1628.5l1.629-.075.01.222c-.871.257-1.361.2-1.615-.173Z" transform="translate(953.229 -1576.169)"/>
  </g>
</svg>
