<svg xmlns="http://www.w3.org/2000/svg" xmlns:xlink="http://www.w3.org/1999/xlink" width="222.95" height="184.87" viewBox="0 0 222.95 184.87">
  <defs>
    <linearGradient id="linear-gradient" x1="0.5" x2="0.5" y2="1" gradientUnits="objectBoundingBox">
      <stop offset="0" stop-color="#fff"/>
      <stop offset="1" stop-color="#d3d3d3"/>
    </linearGradient>
    <linearGradient id="linear-gradient-9" y1="0.5" x2="1" y2="0.5" gradientUnits="objectBoundingBox">
      <stop offset="0" stop-color="#ff928e"/>
      <stop offset="1" stop-color="#feb3b1"/>
    </linearGradient>
    <linearGradient id="linear-gradient-12" x1="294.087" y1="1.605" x2="296.088" y2="4.278" xlink:href="#linear-gradient-9"/>
    <linearGradient id="linear-gradient-13" x1="0.439" y1="-3.503" x2="0.505" y2="0.689" xlink:href="#linear-gradient-9"/>
    <linearGradient id="linear-gradient-14" x1="0.511" y1="0.146" x2="0.456" y2="1.705" xlink:href="#linear-gradient-9"/>
    <linearGradient id="linear-gradient-15" x1="-47.545" y1="17.427" x2="-48.867" y2="15.942" xlink:href="#linear-gradient-9"/>
    <linearGradient id="linear-gradient-16" x1="-155.484" y1="82.575" x2="-159.791" y2="75.375" xlink:href="#linear-gradient-9"/>
    <linearGradient id="linear-gradient-29" x1="1.66" y1="1.186" x2="0.085" y2="0.256" xlink:href="#linear-gradient-9"/>
    <linearGradient id="linear-gradient-30" x1="0.892" y1="0.928" x2="-0.916" y2="-1.638" xlink:href="#linear-gradient-9"/>
  </defs>
  <g id="Grupo_47029" data-name="Grupo 47029" transform="translate(-756.929 -275.695)">
    <g id="Grupo_47036" data-name="Grupo 47036" transform="translate(785.288 311.862)">
      <path id="Trazado_97779" data-name="Trazado 97779" d="M1514.644,554.285s12.092-8.921,33.935,3.237c0,0,11.3,4.3,13.892,15.3a19.911,19.911,0,0,0,3.863,7.979,24.914,24.914,0,0,1,5.508,13.655,23.314,23.314,0,0,0,2.87,9.426c1.891,3.4,3.858,8.969,3.136,16.847,0,0,6.99,7.539,3.058,24.339a23.875,23.875,0,0,1-4.022,20.031s1.8,12.119-8.647,16.183c0,0-5.513,12.6-21.929,13.37a21.246,21.246,0,0,0-6.919,1.536c-3.125,1.255-8.738,2.478-16.8.357-13.105-3.446-11.79-11.4-11.79-11.4V556.218Z" transform="translate(-1440.133 -551.129)" fill="#d6f2f2"/>
      <path id="Trazado_97780" data-name="Trazado 97780" d="M1040.363,554.285s-12.092-8.921-33.934,3.237c0,0-11.84,4.5-14.06,16.086a14.348,14.348,0,0,1-3.223,6.623,24.942,24.942,0,0,0-6.05,15.407,14.859,14.859,0,0,1-2.253,7.313,26.973,26.973,0,0,0-3.833,14.04,14.8,14.8,0,0,1-1.582,6.442c-1.768,3.523-3.915,10.57-1.326,21.632a24.07,24.07,0,0,0,1.869,16.626,19.517,19.517,0,0,1,2.113,7.224c.289,3.272,1.514,7.91,5.805,10.855a20.591,20.591,0,0,1,4.847,4.709,25.423,25.423,0,0,0,19.028,10.113,31.323,31.323,0,0,1,8.391,1.8c3.212,1.173,8.644,2.156,16.267.152,13.105-3.446,11.79-11.4,11.79-11.4V556.218Z" transform="translate(-972.902 -551.129)" fill="#d6f2f2"/>
      <path id="Trazado_97781" data-name="Trazado 97781" d="M1227.716,1051.787c-5.836-.71-10.521-4.042-13.926-9.9l-.04-.07a5.984,5.984,0,0,1,2.036-8.038,5.153,5.153,0,0,0,1.332-1.148,27.2,27.2,0,0,1-13-2.071,19.523,19.523,0,0,1-6.995-5.285,12.346,12.346,0,0,0,3.863,7.071,13.491,13.491,0,0,0,5.07,2.476c1.759.386,2.5,2.13,3.153,3.787a33.648,33.648,0,0,0,2.174,4.54,25.221,25.221,0,0,0,5.4,6.627,15.629,15.629,0,0,0-7.355,6.6,14.493,14.493,0,0,0-1.783,5.045,21.8,21.8,0,0,1,4.559-5.581,14.143,14.143,0,0,1,10.03-3.5A24.006,24.006,0,0,0,1227.716,1051.787Z" transform="translate(-1167.684 -963.012)" fill="#12263f"/>
      <g id="Grupo_47029-2" data-name="Grupo 47029" transform="translate(21.314 86.995)">
        <path id="Trazado_97782" data-name="Trazado 97782" d="M1149.082,1232.745q-.453,0-.908-.026a13.34,13.34,0,0,1-10.129-5.515c-3.943-5.243-3.045-10.013-1.6-13.092l.051-.107c.6-1.249.936,1.088.864,2.469-.154,2.96,2.178,7.531,5.082,10.007,3.361,2.866,8.8,2.8,12.952,2.94,1.554.052,2.864.155,1.478,1.083A14.953,14.953,0,0,1,1149.082,1232.745Z" transform="translate(-1135.217 -1213.651)" fill="#12263f"/>
      </g>
      <g id="Grupo_47030" data-name="Grupo 47030" transform="translate(11.047 106.91)">
        <path id="Trazado_97783" data-name="Trazado 97783" d="M1072.753,1380.162a3.063,3.063,0,0,1-4.024-1.07,66.338,66.338,0,0,0-11.7-13.781h0a37.337,37.337,0,0,1,15.72,14.851Z" transform="translate(-1057.033 -1365.311)" fill="#12263f"/>
      </g>
      <path id="Trazado_97784" data-name="Trazado 97784" d="M1030.92,1101.98c1.179-2.246,4.277-3.082,6.679-3.387a33.773,33.773,0,0,1,6.862.14c-.376-.043-6.293-5.509-13-1.253-.421-4.035-5.385-5.8-5.385-5.8a15.007,15.007,0,0,1,1.512,2.7,9.712,9.712,0,0,1,.844,5.668,7.373,7.373,0,0,1-3.966,4.813S1029.17,1105.78,1030.92,1101.98Z" transform="translate(-1017.693 -1020.703)" fill="#12263f"/>
      <path id="Trazado_97785" data-name="Trazado 97785" d="M1293.7,929.4c2.433-.72,5.192.918,7.084,2.427a33.779,33.779,0,0,1,4.684,5.017c-.231-.3-.438-8.352-8.166-10.195,2.6-3.115.4-7.9.4-7.9a15.021,15.021,0,0,1-.878,2.963,9.711,9.711,0,0,1-3.475,4.557,7.372,7.372,0,0,1-6.215.512S1289.755,930.791,1293.7,929.4Z" transform="translate(-1245.873 -870.473)" fill="#12263f"/>
      <g id="Grupo_47034" data-name="Grupo 47034" transform="translate(81.317 29.053)">
        <path id="Trazado_97786" data-name="Trazado 97786" d="M1611.1,995.781c6.322-.77,11.4-4.379,15.085-10.726l.044-.076a6.482,6.482,0,0,0-2.205-8.708,5.587,5.587,0,0,1-1.443-1.244,29.468,29.468,0,0,0,14.078-2.244,21.149,21.149,0,0,0,7.578-5.725,13.375,13.375,0,0,1-4.185,7.66,14.618,14.618,0,0,1-5.492,2.682c-1.9.419-2.713,2.308-3.416,4.1a36.457,36.457,0,0,1-2.355,4.919,27.322,27.322,0,0,1-5.848,7.179,16.932,16.932,0,0,1,7.968,7.153,15.7,15.7,0,0,1,1.932,5.466,23.613,23.613,0,0,0-4.939-6.046,15.32,15.32,0,0,0-10.865-3.787A26,26,0,0,1,1611.1,995.781Z" transform="translate(-1608.616 -941.496)" fill="#12263f"/>
        <g id="Grupo_47031" data-name="Grupo 47031" transform="translate(16.99 57.942)">
          <path id="Trazado_97787" data-name="Trazado 97787" d="M1729.943,1232.745q.453,0,.908-.026a13.341,13.341,0,0,0,10.129-5.515c3.942-5.243,3.045-10.013,1.6-13.092l-.051-.107c-.6-1.249-.936,1.088-.864,2.469.154,2.96-2.178,7.531-5.081,10.007-3.36,2.866-8.8,2.8-12.952,2.94-1.554.052-2.864.155-1.478,1.083A14.954,14.954,0,0,0,1729.943,1232.745Z" transform="translate(-1721.564 -1213.651)" fill="#12263f"/>
        </g>
        <g id="Grupo_47032" data-name="Grupo 47032" transform="translate(0 10.546)">
          <path id="Trazado_97788" data-name="Trazado 97788" d="M1599.057,869.787q.331-.116.656-.251a10.208,10.208,0,0,0,5.946-6.618,9.4,9.4,0,0,0-2.278-9.969l-.065-.065c-.767-.759-.4,1.034.018,2.024.892,2.122.391,6.057-1.078,8.607-1.7,2.953-5.692,4.3-8.684,5.461-1.121.435-2.051.846-.794,1.169A11.626,11.626,0,0,0,1599.057,869.787Z" transform="translate(-1592.176 -852.701)" fill="#12263f"/>
        </g>
        <g id="Grupo_47033" data-name="Grupo 47033" transform="translate(27.531 82.928)">
          <path id="Trazado_97789" data-name="Trazado 97789" d="M1801.839,1413.049a3.07,3.07,0,0,0,4.16.255,67.212,67.212,0,0,1,15.55-9.37h0a37.778,37.778,0,0,0-19.71,9.115Z" transform="translate(-1801.839 -1403.934)" fill="#12263f"/>
        </g>
        <path id="Trazado_97790" data-name="Trazado 97790" d="M1735.105,782.686c-1.179-2.246-4.277-3.082-6.679-3.387a33.78,33.78,0,0,0-6.862.14c.376-.044,6.292-5.509,13-1.253.421-4.035,5.385-5.8,5.385-5.8a15.033,15.033,0,0,0-1.512,2.7,9.714,9.714,0,0,0-.844,5.668,7.373,7.373,0,0,0,3.966,4.813S1736.856,786.485,1735.105,782.686Z" transform="translate(-1704.575 -772.388)" fill="#12263f"/>
        <path id="Trazado_97791" data-name="Trazado 97791" d="M1862.962,1101.98c-1.179-2.246-4.277-3.082-6.679-3.387a33.773,33.773,0,0,0-6.862.14c.376-.043,6.293-5.509,13-1.253.421-4.035,5.385-5.8,5.385-5.8a15.011,15.011,0,0,0-1.512,2.7,9.712,9.712,0,0,0-.844,5.668,7.374,7.374,0,0,0,3.966,4.813S1864.713,1105.78,1862.962,1101.98Z" transform="translate(-1815.643 -1049.756)" fill="#12263f"/>
      </g>
      <g id="Grupo_47035" data-name="Grupo 47035" transform="translate(69.518 5.085)">
        <rect id="Rectángulo_28323" data-name="Rectángulo 28323" width="131.783" height="2.949" transform="translate(0 131.783) rotate(-89.865)" fill="url(#linear-gradient)"/>
      </g>
    </g>
    <g id="Grupo_47040" data-name="Grupo 47040" transform="translate(898.663 352.655)">
      <path id="Trazado_97792" data-name="Trazado 97792" d="M2097.445,1198.806s-.371-.835-.612-1.23-1.267-1.553-1.442-1.291-.874,2.027-.5,2.521-.024,1.354,1.823,1.874Z" transform="translate(-2053.767 -1173.555)" fill="#ffb27d"/>
      <path id="Trazado_97793" data-name="Trazado 97793" d="M2130.245,1175.6s-9.456,7.893-13.143,7.163a72.688,72.688,0,0,1-7.308-2.089l-.885,2.264s3.969,5.383,8.106,5.418a23.567,23.567,0,0,0,11.245-2.8Z" transform="translate(-2066.039 -1155.619)" fill="#7d6eb2"/>
      <path id="Trazado_97794" data-name="Trazado 97794" d="M2325.73,1800.235s-.274,4.428-1.131,4.492c-.114.009-4.345.009-4.345.009l-5.4-.032a1.752,1.752,0,0,1,1.614-1.576c1.579-.275,4.221-1.385,5.178-3.472C2322.651,1797.46,2325.73,1800.235,2325.73,1800.235Z" transform="translate(-2244.941 -1696.996)" fill="#b54273"/>
      <path id="Trazado_97795" data-name="Trazado 97795" d="M2278.836,1450.332a11.26,11.26,0,0,1-2.924.549,10.735,10.735,0,0,1-2.73-.39,74.772,74.772,0,0,0-2.01-9.577c-.892-3.453-2.166-7.892-3.978-13.408-5.01-15.245-6.534-24.163-6.673-25.008-.008-.044-.01-.066-.01-.066l.016-.008,15.4-6.763s-1.9,21.011.525,29.076a34.016,34.016,0,0,1,.882,3.864C2278.872,1437.362,2278.836,1450.332,2278.836,1450.332Z" transform="translate(-2197.735 -1346.786)" fill="#00223d"/>
      <path id="Trazado_97796" data-name="Trazado 97796" d="M2271.241,1440.915c-.892-3.453-2.166-7.892-3.978-13.408-5.01-15.245-6.534-24.163-6.673-25.008,0-.025,0-.049.006-.074l15.4-6.763s-1.9,21.011.525,29.076C2276.865,1425.866,2271.241,1440.915,2271.241,1440.915Z" transform="translate(-2197.804 -1346.786)" fill="#073458"/>
      <path id="Trazado_97797" data-name="Trazado 97797" d="M2234.11,1800.235s-.275,4.428-1.131,4.492c-.114.009-4.345.009-4.345.009l-5.4-.032a1.752,1.752,0,0,1,1.614-1.576c1.579-.275,4.222-1.385,5.178-3.472C2231.03,1797.46,2234.11,1800.235,2234.11,1800.235Z" transform="translate(-2165.35 -1696.996)" fill="#b54273"/>
      <path id="Trazado_97798" data-name="Trazado 97798" d="M2239.538,1399.434a219.272,219.272,0,0,0,2.156,30.332c2.356,16.717,1.557,23.813,1.557,23.813a16.057,16.057,0,0,0,2.271.578,10.308,10.308,0,0,0,3.371-.39s3.372-16.724,2.4-25.091,4.617-28.712,4.617-28.712Z" transform="translate(-2179.512 -1350.062)" fill="#00223d"/>
      <path id="Trazado_97799" data-name="Trazado 97799" d="M2278.974,1107.416l-2.1,2.711-4.413.24c-.024-.355-.089-1.835-.146-3.176,0-.079-.006-.158-.01-.235-.047-1.141-.067-2.393-.067-2.393l3.5-2.428,1.313-1.006c0,.024.206,1.234.206,1.412C2277.269,1106.023,2278.974,1107.416,2278.974,1107.416Z" transform="translate(-2207.92 -1090.926)" fill="#ffb27d"/>
      <path id="Trazado_97800" data-name="Trazado 97800" d="M2232.689,1181.681c.062,7.186.541,24,.893,24.34,3.743,3.613,20.207-.99,21.08-4.971s-3.317-51.039-9.71-52.918c-1.326-.389-8.419,1.9-8.419,1.9a45,45,0,0,0-1.842,6.618c-.27,1.374-1.153,11.175-1.668,17.725-.136,1.746-.247,3.26-.313,4.322C2232.683,1179.139,2232.677,1180.209,2232.689,1181.681Z" transform="translate(-2173.56 -1131.719)" fill="#7d6eb2"/>
      <path id="Trazado_97801" data-name="Trazado 97801" d="M2276.835,1108.562c-.509,1.677-3.427,3.73-4.659,4.524,0-.079-.006-.158-.01-.236-.047-1.141-.087-3.447-.087-3.447l3.52-1.373C2276.467,1107.805,2277.045,1107.871,2276.835,1108.562Z" transform="translate(-2207.783 -1096.821)" fill="#fca56b"/>
      <path id="Trazado_97802" data-name="Trazado 97802" d="M2257.872,1051.2s6.536,2.039,7.743-2.051,2.864-6.581-1.258-8.056-5.4-.154-6.132,1.113S2256.2,1050.563,2257.872,1051.2Z" transform="translate(-2194.732 -1038.208)" fill="#ffb27d"/>
      <path id="Trazado_97803" data-name="Trazado 97803" d="M2263.851,1027.037s.417,4.759,1.4,4.553,2.283-.24,2.139,1.194,1.212,3.869,2.117,3.863c3.044-.019,6.4-8.207,5.563-9.688C2272.666,1022.686,2260.376,1021.823,2263.851,1027.037Z" transform="translate(-2200.102 -1023.434)" fill="#00223d"/>
      <path id="Trazado_97804" data-name="Trazado 97804" d="M2263.74,1135.939c.084-.036,4.866-2.18,5.425-2s1.256,1.892,1.256,1.892l-8.419,1.9A4.181,4.181,0,0,1,2263.74,1135.939Z" transform="translate(-2199.03 -1119.423)" fill="#635986"/>
      <g id="Grupo_47038" data-name="Grupo 47038" transform="translate(0 3.014)">
        <path id="Trazado_97805" data-name="Trazado 97805" d="M2037.943,1308.391l24.582,26.106a1.291,1.291,0,0,0,1.819.019l1.672-1.573a1.291,1.291,0,0,0,.092-1.817l-24.631-26.154c-.475-.5-.888-.108-1.414.387l-1.672,1.573C2037.867,1307.426,2037.468,1307.886,2037.943,1308.391Z" transform="translate(-2004.208 -1270.814)" fill="#00223d"/>
        <path id="Trazado_97806" data-name="Trazado 97806" d="M2141.984,1419.181l11.069,11.766a1.316,1.316,0,0,0,1.854.057l1.672-1.573a1.316,1.316,0,0,0,.056-1.854l-11.069-11.766Z" transform="translate(-2094.771 -1367.302)" fill="#d5f2e8"/>
        <path id="Trazado_97807" data-name="Trazado 97807" d="M1788.137,1081.792a21.008,21.008,0,1,0,.906-29.694c-.11.105-.221.21-.329.318A21,21,0,0,0,1788.137,1081.792Zm1.8-28.743a19.7,19.7,0,1,1-.848,27.846A19.61,19.61,0,0,1,1789.939,1053.05Z" transform="translate(-1782.43 -1046.391)" fill="#00223d"/>
        <g id="Grupo_47037" data-name="Grupo 47037" transform="translate(1.309 1.308)" opacity="0.3">
          <path id="Trazado_97808" data-name="Trazado 97808" d="M1797.747,1089.551a19.709,19.709,0,1,0,.849-27.846A19.6,19.6,0,0,0,1797.747,1089.551Z" transform="translate(-1792.396 -1056.355)" fill="#b3cff9"/>
        </g>
      </g>
      <path id="Trazado_97809" data-name="Trazado 97809" d="M2232.689,1237.682c15.621-10.579,14.348-25.128,14.348-25.128-6.1,3.438-12.137,11.578-14.015,17.826-.136,1.746-.247,3.26-.313,4.322C2232.683,1235.141,2232.677,1236.21,2232.689,1237.682Z" transform="translate(-2173.56 -1187.721)" fill="#635986"/>
      <g id="Grupo_47039" data-name="Grupo 47039" transform="translate(41.118 18.317)">
        <path id="Trazado_97810" data-name="Trazado 97810" d="M2099.81,1355.437a4.031,4.031,0,0,1-1.886-1.165s-.444.03.073.978c.043.079.139.283.212.427a.092.092,0,0,1-.077.132,9.835,9.835,0,0,0-2.363.049c-.16.033-.207.416-.2.579a1.477,1.477,0,0,0,.311,1.009,5.161,5.161,0,0,0,1.866.978,5.642,5.642,0,0,0,2.888-.363l.945-.438-.293-1.757-.237.05C2100.671,1355.994,2100.2,1355.534,2099.81,1355.437Z" transform="translate(-2095.568 -1329.146)" fill="#ffb27d"/>
        <path id="Trazado_97811" data-name="Trazado 97811" d="M2158.573,1162.926s13.27,2.526-3.9,21.743c-2.747,3.073-17.586,7.075-17.586,7.075s-1.5-1.281-.746-2.318c0,0,10.218-7.419,12.466-8.6,1.011-.531,3.925-11.843,5.574-14.567A7.431,7.431,0,0,1,2158.573,1162.926Z" transform="translate(-2130.797 -1162.926)" fill="#7d6eb2"/>
      </g>
      <path id="Trazado_97812" data-name="Trazado 97812" d="M2100.419,1196.116a6.765,6.765,0,0,1-.519-1.267,7.006,7.006,0,0,0-.856-1.938c-.09-.09-.387.027-.422.413a2.254,2.254,0,0,0,.213.839,9.485,9.485,0,0,1,.281,1.668C2099.321,1196.5,2100.419,1196.116,2100.419,1196.116Z" transform="translate(-2057.102 -1170.632)" fill="#ffb27d"/>
    </g>
    <g id="Grupo_47043" data-name="Grupo 47043" transform="translate(849.199 275.695)">
      <g id="Grupo_47041" data-name="Grupo 47041" transform="translate(0)">
        <path id="Trazado_97813" data-name="Trazado 97813" d="M1649.1,691.437a.771.771,0,0,1,.138.825.007.007,0,0,1,0,0,5.127,5.127,0,0,1-1.62,1.777c-.1.079-.184.15-.26.217-.02.017-.04.035-.058.052l-.045.04c-.712.656-.444.807-1.723,2.138-1.458,1.517-2.462,1.545-2.748,1.406-.242-.118.249-.923.793-1.827l.079-.132c.072-.12.144-.242.216-.363.638-1.089.474-1.6.323-3.219-.123-1.317-2.048-7.355-2.048-7.355l2.795-.481s.842,4.808,1.769,5.549c.5.395,1.051.4,1.528.692.034.02.067.041.1.063A3.668,3.668,0,0,1,1649.1,691.437Z" transform="translate(-1618.18 -630.836)" fill="#ffb27d"/>
        <path id="Trazado_97814" data-name="Trazado 97814" d="M1652.894,733.14a.771.771,0,0,1,.137.825.007.007,0,0,1,0,0,5.938,5.938,0,0,1-1.622,1.771c-.1.08-.182.154-.257.222-.02.017-.04.035-.058.052l-.045.04c-.712.656-.444.807-1.723,2.138-1.458,1.517-2.462,1.545-2.748,1.406-.242-.118.25-.923.793-1.827a6.217,6.217,0,0,0,2.6-1.915c.846-1.08,1.421-2.456,2-3.3l.164-.031A3.665,3.665,0,0,1,1652.894,733.14Z" transform="translate(-1621.972 -672.539)" fill="#233862"/>
        <path id="Trazado_97815" data-name="Trazado 97815" d="M1468.009,684.065c-.173.863-1.4.719-2.776.383s-1.047.063-3-.153-2.548-.946-2.607-1.236c-.053-.258.913-.349,1.949-.468l.392-.047a8.461,8.461,0,0,0,3.09-1.522,12.413,12.413,0,0,0,2.509-2.98l2.682.212s-1.407,2.137-1.951,3.067a3.241,3.241,0,0,0-.263,1.827A3.438,3.438,0,0,1,1468.009,684.065Z" transform="translate(-1459.621 -625.21)" fill="#ffb27d"/>
        <path id="Trazado_97816" data-name="Trazado 97816" d="M1465.233,714.541c-1.374-.336-1.047.063-3-.153s-2.548-.946-2.607-1.236c-.053-.258.913-.349,1.949-.468l.01.02a5.511,5.511,0,0,0,2.8.87c1.326.032,2.732-.348,3.648-.333a3.438,3.438,0,0,1-.021.917C1467.836,715.02,1466.606,714.876,1465.233,714.541Z" transform="translate(-1459.621 -655.302)" fill="#233862"/>
        <path id="Trazado_97817" data-name="Trazado 97817" d="M1601.755,564.9l2.507,6.745,3.272,8.807a5.3,5.3,0,0,0,1.739-.159,7.535,7.535,0,0,0,1.681-.818s-.909-9.456-2.6-14.885a9.665,9.665,0,0,0-1.458-3.155C1604.264,558.334,1601.755,564.9,1601.755,564.9Z" transform="translate(-1583.091 -523.194)" fill="#dbdada"/>
        <path id="Trazado_97818" data-name="Trazado 97818" d="M1523.1,502.85c1.427-.46,5.15-.007,9.188.724a2.739,2.739,0,0,0,2.828-1.277h0l10.162-.794s4.049,8.047,1.03,12.135c-1.764,2.388-7.709,2.046-9.51,1.677-4.951-1.015-10.579-3.956-11.309-4.1-1.194-.239-1.672,2.15-2.867,4.659s-11.229,11.11-11.229,11.11a8.84,8.84,0,0,1-2.179-.224,2.147,2.147,0,0,1-.936-.591S1519.4,504.045,1523.1,502.85Z" transform="translate(-1501.891 -471.852)" fill="#eff4ef"/>
        <path id="Trazado_97819" data-name="Trazado 97819" d="M1693.552,456.289c-.044,5.839-1.551,8.522-1.551,8.522-13.083-1.755-15.978-13.787-15.978-13.787a4.715,4.715,0,0,0,3.829-1.731l11.013-7.026.669-.427.689-.439s.206,1.113.457,2.907a91.713,91.713,0,0,1,.848,9.759C1693.549,454.8,1693.558,455.546,1693.552,456.289Z" transform="translate(-1647.607 -419.642)" fill="#00223d"/>
        <path id="Trazado_97820" data-name="Trazado 97820" d="M1695.655,292.144c3.619,1.993,10.96,6.123,11,6.1,0,0,2.7,1.017,4.229,0,2.551-1.694,3.92-6.255-.746-10.179-2.327-1.957-3.98-2.434-4.232-5.559-.137-1.7-2.472-7.336-6.351-6.767a5.394,5.394,0,0,1-.937.057,3.6,3.6,0,0,0-1.941.505C1694.5,277.595,1690.229,291.373,1695.655,292.144Z" transform="translate(-1662.367 -275.695)" fill="#00223d"/>
        <path id="Trazado_97821" data-name="Trazado 97821" d="M1733.174,350.405a4.784,4.784,0,0,0,2.982.092,5.317,5.317,0,0,0,1.969-2.36c-.514-.024-1.1-.846-1.513-3.422l-.219.079-3.68,1.324s.267,1.181.439,2.305C1733.3,349.367,1733.375,350.272,1733.174,350.405Z" transform="translate(-1696.853 -335.652)" fill="#ffb27d"/>
        <path id="Trazado_97822" data-name="Trazado 97822" d="M1732.713,346.637s.147.637.361,1.828a4.156,4.156,0,0,0,3.319-3.152Z" transform="translate(-1696.853 -336.172)" fill="#ed975d"/>
        <path id="Trazado_97823" data-name="Trazado 97823" d="M1711.435,305.726s5.036-.676,4.567-3.805-.135-5.324-3.371-5.025-3.679,1.587-3.776,2.669S1710.113,305.821,1711.435,305.726Z" transform="translate(-1676.123 -294.088)" fill="#ffb27d"/>
        <path id="Trazado_97824" data-name="Trazado 97824" d="M1710.284,296.019s3.224,2.778,5.416,3,3.023-.48,3.023-.48a8.562,8.562,0,0,1-2.07-2.8,1.543,1.543,0,0,0-1.271-.909C1713.816,294.693,1710.848,294.631,1710.284,296.019Z" transform="translate(-1677.37 -292.258)" fill="#00223d"/>
        <path id="Trazado_97825" data-name="Trazado 97825" d="M1708.406,298.462a7.939,7.939,0,0,0-1.418,1.816,6.1,6.1,0,0,0-.165,3.24s-1.68-3.267-.729-4.854A1.343,1.343,0,0,1,1708.406,298.462Z" transform="translate(-1673.476 -294.949)" fill="#00223d"/>
        <path id="Trazado_97826" data-name="Trazado 97826" d="M1703.927,379.539c.152,10.193.042,8.063,1.157,9.031a4.282,4.282,0,0,0,2.018.437c3.126.207,8.62-.307,8.829-.885.721-2,.212-2.62.813-5.68.063-.325.14-.678.231-1.061.5-2.1.99-2.817-.79-6.193-1.614-3.059-3.258-5.562-3.409-5.472-4.257,2.527-4.632.424-4.632.424S1703.853,374.567,1703.927,379.539Z" transform="translate(-1671.847 -357.368)" fill="#00223d"/>
        <path id="Trazado_97827" data-name="Trazado 97827" d="M1620.844,598.036l3.272,8.807a5.3,5.3,0,0,0,1.739-.159,7.536,7.536,0,0,0,1.681-.818s-.909-9.456-2.6-14.884Z" transform="translate(-1599.674 -549.581)" fill="#eff4ef"/>
        <path id="Trazado_97828" data-name="Trazado 97828" d="M1692.02,372.955s-3.862.565-4.413,2.7c-.49,1.893-2.243,12.618-2.243,12.618s.789,1.855,1.818.826,3.238-10.711,3.238-10.711Z" transform="translate(-1655.721 -360.184)" fill="#00223d"/>
        <path id="Trazado_97829" data-name="Trazado 97829" d="M1718.993,504.895a5.965,5.965,0,0,1-.858.933.632.632,0,0,1-.349.075l.436-.784Z" transform="translate(-1683.887 -474.799)" fill="#ffb27d"/>
        <path id="Trazado_97830" data-name="Trazado 97830" d="M1715.685,498.359l-1.878.912a.334.334,0,0,0,.311.12,4.468,4.468,0,0,0,.815-.224Z" transform="translate(-1680.43 -469.121)" fill="#ffb27d"/>
        <path id="Trazado_97831" data-name="Trazado 97831" d="M1748.965,453.973c-2.906-.23-10.235-2.7-8.983-4.444.58-.807,4.462-1.165,6.467-3.722.54-.689-.068-2.569-.147-3.633-.033-.459-.01-.791.147-.866s.331.123.522.439a15.88,15.88,0,0,1,1.05,2.49l.1-.023A91.774,91.774,0,0,1,1748.965,453.973Z" transform="translate(-1703.045 -419.549)" fill="#344966"/>
        <path id="Trazado_97832" data-name="Trazado 97832" d="M1719.266,498.346s-3.084-.686-3.581-.413a7.247,7.247,0,0,0-1.866,1.617c-.152.347,1.108-.263,1.518-.373a3.648,3.648,0,0,1,1.31.287,4.352,4.352,0,0,0,2.347.236Z" transform="translate(-1680.429 -468.695)" fill="#ffb27d"/>
        <path id="Trazado_97833" data-name="Trazado 97833" d="M1753.08,369.731s4.112.274,5.545,2.273c2.018,2.814,4.184,14.848,1.89,16.448-2.583,1.8-9.92.431-9.92.431s-.687-2.04.119-2.117c2.186-.208,6.458-1.118,6.417-2.072-.061-1.451-2.754-6.264-2.754-7.22S1753.08,369.731,1753.08,369.731Z" transform="translate(-1712.15 -357.383)" fill="#00223d"/>
      </g>
      <g id="Grupo_47042" data-name="Grupo 47042" transform="translate(14.919 20.7)">
        <path id="Trazado_97834" data-name="Trazado 97834" d="M1605.951,514.69h19.622v.433h-19.448Z" transform="translate(-1601.655 -504.008)" fill="#00223d"/>
        <path id="Trazado_97835" data-name="Trazado 97835" d="M1592.565,444.451h-14.86l-4.47-11.116h14.837Z" transform="translate(-1573.235 -433.335)" fill="#00223d"/>
        <path id="Trazado_97836" data-name="Trazado 97836" d="M1635.654,470.981a.515.515,0,0,1,.5-.707,1.014,1.014,0,0,1,.91.707.515.515,0,0,1-.5.708A1.014,1.014,0,0,1,1635.654,470.981Z" transform="translate(-1627.433 -465.424)" fill="#fff"/>
      </g>
    </g>
    <g id="Grupo_47063" data-name="Grupo 47063" transform="translate(756.929 303.478)">
      <rect id="Rectángulo_28324" data-name="Rectángulo 28324" width="83.266" height="55.755" rx="2" fill="#12263f" opacity="0.8"/>
      <g id="Grupo_47053" data-name="Grupo 47053" transform="translate(7.187 5.413)">
        <path id="Trazado_97837" data-name="Trazado 97837" d="M920.036,529.145s2.419-1.81,6.788.657a4.826,4.826,0,0,1,2.779,3.1,4.063,4.063,0,0,0,.773,1.619,5.091,5.091,0,0,1,1.1,2.77,4.778,4.778,0,0,0,.574,1.912,5.891,5.891,0,0,1,.627,3.418s1.4,1.529.612,4.937a4.9,4.9,0,0,1-.8,4.063s.36,2.459-1.73,3.283a5,5,0,0,1-4.387,2.712,4.2,4.2,0,0,0-1.384.312,5.23,5.23,0,0,1-3.361.073c-2.622-.7-2.359-2.312-2.359-2.312V529.537Z" transform="translate(-905.131 -528.505)" fill="url(#linear-gradient)"/>
        <path id="Trazado_97838" data-name="Trazado 97838" d="M825.161,529.145s-2.419-1.81-6.788.657a4.782,4.782,0,0,0-2.812,3.263,2.928,2.928,0,0,1-.645,1.344,5.1,5.1,0,0,0-1.21,3.125,3.045,3.045,0,0,1-.451,1.484,5.53,5.53,0,0,0-.767,2.848,3.037,3.037,0,0,1-.316,1.307,6.476,6.476,0,0,0-.265,4.388,4.947,4.947,0,0,0,.374,3.373,4,4,0,0,1,.423,1.465,2.911,2.911,0,0,0,1.161,2.2,4.145,4.145,0,0,1,.97.955,5.07,5.07,0,0,0,3.806,2.051,6.2,6.2,0,0,1,1.679.365,5.317,5.317,0,0,0,3.254.031c2.622-.7,2.359-2.312,2.359-2.312V529.537Z" transform="translate(-811.666 -528.505)" fill="url(#linear-gradient)"/>
        <g id="Grupo_47052" data-name="Grupo 47052" transform="translate(1.354 1.032)">
          <path id="Trazado_97839" data-name="Trazado 97839" d="M856.266,618.707a3.985,3.985,0,0,1-3.018-2.176l-.009-.015a1.326,1.326,0,0,1,.441-1.766,1.124,1.124,0,0,0,.289-.252,5.818,5.818,0,0,1-2.816-.455,4.242,4.242,0,0,1-1.516-1.162,2.727,2.727,0,0,0,.837,1.554,2.908,2.908,0,0,0,1.1.544c.381.085.542.468.683.832a7.434,7.434,0,0,0,.471,1,5.53,5.53,0,0,0,1.17,1.456,3.407,3.407,0,0,0-1.594,1.451,3.214,3.214,0,0,0-.386,1.109,4.783,4.783,0,0,1,.988-1.227,3.039,3.039,0,0,1,2.173-.768A5.135,5.135,0,0,0,856.266,618.707Z" transform="translate(-846.005 -602.832)" fill="#00223d" opacity="0.8"/>
          <g id="Grupo_47044" data-name="Grupo 47044" transform="translate(2.909 16.617)">
            <path id="Trazado_97840" data-name="Trazado 97840" d="M846.909,666.778q-.091,0-.182-.005a2.659,2.659,0,0,1-2.026-1.119,2.484,2.484,0,0,1-.319-2.656l.01-.022c.12-.253.187.221.173.5a3.009,3.009,0,0,0,1.016,2.03,4.209,4.209,0,0,0,2.591.6c.311.011.573.031.3.22A2.96,2.96,0,0,1,846.909,666.778Z" transform="translate(-844.136 -662.905)" fill="#00223d" opacity="0.8"/>
          </g>
          <g id="Grupo_47045" data-name="Grupo 47045" transform="translate(7.952 7.002)">
            <path id="Trazado_97841" data-name="Trazado 97841" d="M883.971,593.148q-.066-.024-.131-.051a2.061,2.061,0,0,1-1.189-1.343,1.925,1.925,0,0,1,.456-2.022l.013-.013c.153-.154.079.21,0,.411a2.332,2.332,0,0,0,.216,1.746,3.262,3.262,0,0,0,1.737,1.108c.224.088.41.172.159.237A2.3,2.3,0,0,1,883.971,593.148Z" transform="translate(-882.543 -589.682)" fill="#00223d" opacity="0.8"/>
          </g>
          <g id="Grupo_47046" data-name="Grupo 47046" transform="translate(0.856 20.656)">
            <path id="Trazado_97842" data-name="Trazado 97842" d="M831.641,696.684a.608.608,0,0,1-.805-.217,13.4,13.4,0,0,0-2.34-2.8h0a7.5,7.5,0,0,1,3.145,3.013Z" transform="translate(-828.496 -693.671)" fill="#00223d" opacity="0.8"/>
          </g>
          <path id="Trazado_97843" data-name="Trazado 97843" d="M889,688.526a1.714,1.714,0,0,1-.515-1.411,6.657,6.657,0,0,1,.2-1.358,2.264,2.264,0,0,0-.578,2.549c-.823-.019-1.3.922-1.3.922a3.057,3.057,0,0,1,.58-.232,2,2,0,0,1,1.162-.024,1.492,1.492,0,0,1,.869.909A1.192,1.192,0,0,0,889,688.526Z" transform="translate(-878.295 -666.139)" fill="#00223d" opacity="0.8"/>
          <path id="Trazado_97844" data-name="Trazado 97844" d="M848.849,575.479a1.714,1.714,0,0,1,1.336-.687,6.658,6.658,0,0,1,1.373.028,2.264,2.264,0,0,0-2.6-.254c-.084-.818-1.077-1.176-1.077-1.176a3.055,3.055,0,0,1,.3.547,2,2,0,0,1,.169,1.15,1.492,1.492,0,0,1-.794.976A1.193,1.193,0,0,0,848.849,575.479Z" transform="translate(-844.198 -568.528)" fill="#00223d" opacity="0.8"/>
          <path id="Trazado_97845" data-name="Trazado 97845" d="M823.271,640.251a1.715,1.715,0,0,1,1.336-.687,6.667,6.667,0,0,1,1.373.028,2.264,2.264,0,0,0-2.6-.254c-.084-.818-1.077-1.176-1.077-1.176a3.077,3.077,0,0,1,.3.547,2,2,0,0,1,.169,1.15,1.492,1.492,0,0,1-.793.976A1.193,1.193,0,0,0,823.271,640.251Z" transform="translate(-821.98 -624.794)" fill="#00223d" opacity="0.8"/>
          <path id="Trazado_97846" data-name="Trazado 97846" d="M884.874,539.825a2.14,2.14,0,0,0,.643-1.762,8.321,8.321,0,0,0-.249-1.7,2.827,2.827,0,0,1,.721,3.182c1.027-.023,1.625,1.151,1.625,1.151a3.824,3.824,0,0,0-.725-.289,2.49,2.49,0,0,0-1.451-.03,1.862,1.862,0,0,0-1.086,1.135A1.489,1.489,0,0,1,884.874,539.825Z" transform="translate(-876.094 -536.365)" fill="#00223d" opacity="0.8"/>
          <path id="Trazado_97847" data-name="Trazado 97847" d="M859.934,707.092a2,2,0,0,0,.6-1.645,7.771,7.771,0,0,0-.233-1.583,2.639,2.639,0,0,1,.673,2.971c.959-.022,1.517,1.075,1.517,1.075a3.584,3.584,0,0,0-.677-.27,2.325,2.325,0,0,0-1.355-.028,1.739,1.739,0,0,0-1.014,1.06A1.39,1.39,0,0,1,859.934,707.092Z" transform="translate(-854.463 -681.868)" fill="#00223d" opacity="0.8"/>
          <g id="Grupo_47050" data-name="Grupo 47050" transform="translate(14.15 0.001)">
            <path id="Trazado_97848" data-name="Trazado 97848" d="M939.332,618.707a3.985,3.985,0,0,0,3.018-2.176l.009-.015a1.325,1.325,0,0,0-.441-1.766,1.124,1.124,0,0,1-.288-.252,5.818,5.818,0,0,0,2.816-.455,4.243,4.243,0,0,0,1.516-1.162,2.728,2.728,0,0,1-.837,1.554,2.908,2.908,0,0,1-1.1.544c-.381.085-.543.468-.683.832a7.442,7.442,0,0,1-.471,1,5.532,5.532,0,0,1-1.17,1.456,3.405,3.405,0,0,1,1.594,1.451,3.219,3.219,0,0,1,.386,1.109,4.782,4.782,0,0,0-.988-1.227,3.039,3.039,0,0,0-2.173-.768A5.134,5.134,0,0,1,939.332,618.707Z" transform="translate(-938.072 -602.833)" fill="#00223d" opacity="0.8"/>
            <g id="Grupo_47047" data-name="Grupo 47047" transform="translate(4.161 16.616)">
              <path id="Trazado_97849" data-name="Trazado 97849" d="M963.105,666.778q.091,0,.182-.005a2.659,2.659,0,0,0,2.026-1.119,2.484,2.484,0,0,0,.319-2.656l-.01-.022c-.12-.253-.187.221-.173.5a3.009,3.009,0,0,1-1.017,2.03,4.208,4.208,0,0,1-2.591.6c-.311.011-.573.031-.3.22A2.96,2.96,0,0,0,963.105,666.778Z" transform="translate(-961.429 -662.905)" fill="#00223d" opacity="0.8"/>
            </g>
            <g id="Grupo_47048" data-name="Grupo 47048" transform="translate(0.762 7.001)">
              <path id="Trazado_97850" data-name="Trazado 97850" d="M936.923,593.148q.066-.024.131-.051a2.061,2.061,0,0,0,1.189-1.343,1.925,1.925,0,0,0-.456-2.022l-.013-.013c-.153-.154-.079.21,0,.411a2.331,2.331,0,0,1-.216,1.746,3.262,3.262,0,0,1-1.737,1.108c-.224.088-.41.172-.159.237A2.3,2.3,0,0,0,936.923,593.148Z" transform="translate(-935.546 -589.682)" fill="#00223d" opacity="0.8"/>
            </g>
            <g id="Grupo_47049" data-name="Grupo 47049" transform="translate(7.165 20.837)">
              <path id="Trazado_97851" data-name="Trazado 97851" d="M984.3,696.9a.608.608,0,0,0,.832.052,13.4,13.4,0,0,1,3.111-1.9h0A7.5,7.5,0,0,0,984.3,696.9Z" transform="translate(-984.305 -695.054)" fill="#00223d" opacity="0.8"/>
            </g>
            <path id="Trazado_97852" data-name="Trazado 97852" d="M932.754,688.526a1.714,1.714,0,0,0,.515-1.411,6.661,6.661,0,0,0-.2-1.358,2.264,2.264,0,0,1,.578,2.549c.823-.019,1.3.922,1.3.922a3.061,3.061,0,0,0-.58-.232,2,2,0,0,0-1.162-.024,1.492,1.492,0,0,0-.869.909A1.193,1.193,0,0,1,932.754,688.526Z" transform="translate(-931.94 -666.14)" fill="#00223d" opacity="0.8"/>
            <path id="Trazado_97853" data-name="Trazado 97853" d="M964.138,575.479a1.714,1.714,0,0,0-1.336-.687,6.66,6.66,0,0,0-1.373.028,2.264,2.264,0,0,1,2.6-.254c.084-.818,1.077-1.176,1.077-1.176a3.049,3.049,0,0,0-.3.547,2,2,0,0,0-.169,1.15,1.492,1.492,0,0,0,.794.976A1.193,1.193,0,0,1,964.138,575.479Z" transform="translate(-957.268 -568.528)" fill="#00223d" opacity="0.8"/>
            <path id="Trazado_97854" data-name="Trazado 97854" d="M989.715,640.251a1.715,1.715,0,0,0-1.336-.687,6.666,6.666,0,0,0-1.373.028,2.264,2.264,0,0,1,2.6-.254c.084-.818,1.077-1.176,1.077-1.176a3.064,3.064,0,0,0-.3.547,1.994,1.994,0,0,0-.169,1.15,1.492,1.492,0,0,0,.793.976A1.193,1.193,0,0,1,989.715,640.251Z" transform="translate(-979.486 -624.795)" fill="#00223d" opacity="0.8"/>
            <path id="Trazado_97855" data-name="Trazado 97855" d="M932.479,539.825a2.14,2.14,0,0,1-.643-1.762,8.319,8.319,0,0,1,.249-1.7,2.827,2.827,0,0,0-.721,3.182c-1.027-.023-1.625,1.151-1.625,1.151a3.814,3.814,0,0,1,.725-.289,2.49,2.49,0,0,1,1.451-.03A1.862,1.862,0,0,1,933,541.516,1.489,1.489,0,0,0,932.479,539.825Z" transform="translate(-929.74 -536.366)" fill="#00223d" opacity="0.8"/>
            <path id="Trazado_97856" data-name="Trazado 97856" d="M958.885,707.092a2,2,0,0,1-.6-1.645,7.777,7.777,0,0,1,.233-1.583,2.64,2.64,0,0,0-.673,2.971c-.959-.022-1.517,1.075-1.517,1.075a3.577,3.577,0,0,1,.677-.27,2.324,2.324,0,0,1,1.354-.028,1.739,1.739,0,0,1,1.014,1.06A1.391,1.391,0,0,0,958.885,707.092Z" transform="translate(-952.837 -681.869)" fill="#00223d" opacity="0.8"/>
          </g>
          <g id="Grupo_47051" data-name="Grupo 47051" transform="translate(12.551 0)">
            <rect id="Rectángulo_28325" data-name="Rectángulo 28325" width="26.734" height="0.59" transform="translate(0 26.734) rotate(-89.862)" fill="#00223d" opacity="0.8"/>
          </g>
        </g>
      </g>
      <g id="Grupo_47054" data-name="Grupo 47054" transform="translate(38.089 4.196)">
        <rect id="Rectángulo_28326" data-name="Rectángulo 28326" width="22.084" height="2.249" fill="#7d6eb2"/>
        <rect id="Rectángulo_28327" data-name="Rectángulo 28327" width="17.676" height="1.124" transform="translate(0 5.429)" fill="url(#linear-gradient)"/>
        <rect id="Rectángulo_28328" data-name="Rectángulo 28328" width="11.54" height="1.124" transform="translate(0 8.458)" fill="#8ec8c8"/>
        <rect id="Rectángulo_28329" data-name="Rectángulo 28329" width="11.54" height="1.124" transform="translate(13.268 8.458)" fill="url(#linear-gradient)"/>
        <rect id="Rectángulo_28330" data-name="Rectángulo 28330" width="10.661" height="1.124" transform="translate(19.478 5.429)" fill="#8ec8c8"/>
        <rect id="Rectángulo_28331" data-name="Rectángulo 28331" width="10.249" height="2.249" transform="translate(23.405)" fill="#f5ca56"/>
      </g>
      <g id="Grupo_47055" data-name="Grupo 47055" transform="translate(6.706 40.638)">
        <rect id="Rectángulo_28332" data-name="Rectángulo 28332" width="17.638" height="1.796" fill="#7d6eb2"/>
        <rect id="Rectángulo_28333" data-name="Rectángulo 28333" width="14.118" height="0.898" transform="translate(0 4.336)" fill="url(#linear-gradient)"/>
        <rect id="Rectángulo_28334" data-name="Rectángulo 28334" width="9.217" height="0.898" transform="translate(0 6.755)" fill="url(#linear-gradient)"/>
        <rect id="Rectángulo_28335" data-name="Rectángulo 28335" width="9.217" height="0.898" transform="translate(10.597 6.755)" fill="#8ec8c8"/>
        <rect id="Rectángulo_28336" data-name="Rectángulo 28336" width="8.515" height="0.898" transform="translate(15.557 4.336)" fill="url(#linear-gradient)"/>
        <rect id="Rectángulo_28337" data-name="Rectángulo 28337" width="8.186" height="1.796" transform="translate(18.694)" fill="#f5ca56"/>
      </g>
      <g id="Grupo_47057" data-name="Grupo 47057" transform="translate(40.237 19.715)">
        <path id="Trazado_97857" data-name="Trazado 97857" d="M1201.062,637.8a1.332,1.332,0,1,1-1.883.011A1.332,1.332,0,0,1,1201.062,637.8Z" transform="translate(-1181.01 -637.417)" fill="#8ec8c8"/>
        <path id="Trazado_97858" data-name="Trazado 97858" d="M1158.772,680.233a1.482,1.482,0,1,1-2.1.013A1.482,1.482,0,0,1,1158.772,680.233Z" transform="translate(-1144.051 -674.239)" fill="#8ec8c8"/>
        <path id="Trazado_97859" data-name="Trazado 97859" d="M1111.082,658.194a1.265,1.265,0,1,1-1.789.011A1.265,1.265,0,0,1,1111.082,658.194Z" transform="translate(-1102.944 -655.149)" fill="#8ec8c8"/>
        <path id="Trazado_97860" data-name="Trazado 97860" d="M1065.51,684.315a1.265,1.265,0,1,1-1.789.011A1.265,1.265,0,0,1,1065.51,684.315Z" transform="translate(-1063.357 -677.84)" fill="#8ec8c8"/>
        <g id="Grupo_47056" data-name="Grupo 47056" transform="translate(1.209 1.254)">
          <path id="Trazado_97861" data-name="Trazado 97861" d="M1072.563,652.993l6.035-3.459,6.41,3.093,5.38-5.656.163.155-5.493,5.775-6.451-3.112-5.933,3.4Z" transform="translate(-1072.563 -646.97)" fill="#8ec8c8"/>
        </g>
      </g>
      <g id="Grupo_47059" data-name="Grupo 47059" transform="translate(62.993 19.597)">
        <path id="Trazado_97862" data-name="Trazado 97862" d="M1237.125,694.316a1.1,1.1,0,1,1,1.538-.267A1.1,1.1,0,0,1,1237.125,694.316Z" transform="translate(-1236.657 -684.983)" fill="#8ec8c8"/>
        <path id="Trazado_97863" data-name="Trazado 97863" d="M1264.13,652.347a1.228,1.228,0,1,1,1.712-.3A1.228,1.228,0,0,1,1264.13,652.347Z" transform="translate(-1260.07 -648.329)" fill="#8ec8c8"/>
        <path id="Trazado_97864" data-name="Trazado 97864" d="M1308.691,666.011a1.048,1.048,0,1,1,1.461-.253A1.048,1.048,0,0,1,1308.691,666.011Z" transform="translate(-1298.846 -660.482)" fill="#8ec8c8"/>
        <path id="Trazado_97865" data-name="Trazado 97865" d="M1342.377,638.424a1.048,1.048,0,1,1,1.461-.253A1.048,1.048,0,0,1,1342.377,638.424Z" transform="translate(-1328.108 -636.518)" fill="#8ec8c8"/>
        <g id="Grupo_47058" data-name="Grupo 47058" transform="translate(1.027 0.976)">
          <path id="Trazado_97866" data-name="Trazado 97866" d="M1258.382,644.1l-4.461,3.653-5.663-1.652-3.625,5.36-.154-.1,3.7-5.473,5.7,1.662,4.385-3.591Z" transform="translate(-1244.478 -643.954)" fill="#8ec8c8"/>
        </g>
      </g>
      <g id="Grupo_47061" data-name="Grupo 47061" transform="translate(42.387 37.806)">
        <g id="Grupo_47060" data-name="Grupo 47060">
          <path id="Trazado_97867" data-name="Trazado 97867" d="M1089.162,784.451l-1.287-6.757-.562,2.886h-7.583v-.456h7.207l.942-4.845,1.346,7.066.605-2.385h1.309l.893-4.159,1.144,6.342.6-2.429h2.7l1-3.264.871,5.715.7-2.451h2.238l.657-3.584,1.413,5.638.512-2.054h2.894l.151,1.712,1.594-6.232,1.047,4.537h4.707v.456h-5.07l-.707-3.062-1.79,7-.35-3.955h-2.12l-.867,3.481-1.345-5.367-.346,1.886h-2.274l-1.18,4.133-.884-5.8-.509,1.668h-2.685l-1.028,4.155-1.113-6.17-.485,2.26h-1.323Z" transform="translate(-1079.73 -775.194)" fill="#fff"/>
        </g>
      </g>
      <g id="Grupo_47062" data-name="Grupo 47062" transform="translate(40.111 35.02)">
        <path id="Trazado_97868" data-name="Trazado 97868" d="M1101.326,770.463H1062.4V753.977h38.928Zm-38.677-.252h38.425V754.229H1062.65Z" transform="translate(-1062.398 -753.977)" fill="#fff"/>
      </g>
    </g>
    <g id="Grupo_47064" data-name="Grupo 47064" transform="translate(756.929 354.529)">
      <path id="Trazado_96247" data-name="Trazado 96247" d="M944.88,1485.612s-.365,2.066-.544,4.11a1.409,1.409,0,0,0,1.348,1.526c2.723.114,8.548.334,10.638.241a.458.458,0,0,0,.4-.628h0a1.027,1.027,0,0,0-.525-.553l-9.621-4.422Z" transform="translate(-921.634 -1386.614)" fill="#d5f2e8"/>
      <path id="Trazado_96248" data-name="Trazado 96248" d="M946.042,1475.084l.293,2.471a3.066,3.066,0,0,0,2.836-.1l-.7-2.753Z" transform="translate(-923.095 -1377.3)" fill="url(#linear-gradient-9)"/>
      <path id="Trazado_96249" data-name="Trazado 96249" d="M902.936,1159.645c-.127.645-.68,32.2,2.693,46.339a.48.48,0,0,1-.281.558,8.362,8.362,0,0,1-2.747.558.827.827,0,0,1-.82-.593c-.964-3.281-5.584-19.718-6.187-35.42-.673-17.545,0-.6,0-.6l.4-10.846Z" transform="translate(-879.768 -1108.312)" fill="#7d6eb2"/>
      <path id="Trazado_96250" data-name="Trazado 96250" d="M865.624,1492.981a14.864,14.864,0,0,0-1.143,3.814.86.86,0,0,0,.756,1.029c.9.089,2.283.2,3.392.195a.857.857,0,0,0,.848-.956,7.229,7.229,0,0,0-1.687-3.964Z" transform="translate(-853.445 -1392.905)" fill="#d5f2e8"/>
      <path id="Trazado_96251" data-name="Trazado 96251" d="M868.912,1470.4l.685,3.737a2.416,2.416,0,0,0,2.017.138l-.327-4.02Z" transform="translate(-857.244 -1373.503)" fill="url(#linear-gradient-9)"/>
      <path id="Trazado_96252" data-name="Trazado 96252" d="M850.057,1156.078c-2.759,16.648.6,41.146,1.73,45.941a.747.747,0,0,0,.6.568,5.021,5.021,0,0,0,2.158-.086.685.685,0,0,0,.493-.631c.152-3.876-.122-27.675,2.449-37.08a2.136,2.136,0,0,1,.824-1.178l4.989-3.547.382-5.733Z" transform="translate(-840.24 -1103.777)" fill="#7d6eb2"/>
      <g id="Grupo_46179" data-name="Grupo 46179" transform="translate(8.788 7.954)">
        <path id="Trazado_96253" data-name="Trazado 96253" d="M867.821,942.668a77.721,77.721,0,0,0-17.388,2.171C847.968,959.217,850,975.8,850,975.8c6.4,1.678,13.619-1.026,13.619-1.026,1.064-6.01,6.027-22.923,6.027-22.923a27.232,27.232,0,0,0,10.107-3.207,17.725,17.725,0,0,1-3.5-7.328A27.737,27.737,0,0,1,867.821,942.668Z" transform="translate(-849.213 -929.865)" fill="#00223d"/>
        <path id="Trazado_96254" data-name="Trazado 96254" d="M1050.1,863.631a1.582,1.582,0,0,0-1.84-.517c-1.216,5.139-7.6,9.305-14.148,11.342a17.729,17.729,0,0,0,3.5,7.328C1048.488,875.669,1050.1,863.631,1050.1,863.631Z" transform="translate(-1007.072 -863.005)" fill="url(#linear-gradient-9)"/>
      </g>
      <g id="Grupo_46180" data-name="Grupo 46180" transform="translate(49.973)">
        <path id="Trazado_96255" data-name="Trazado 96255" d="M1132.506,817.441c.085.27-.9.681-1.478-.423-.02-.53-.342-2.8-.026-3.229a42.26,42.26,0,0,1,4.952-5.177.777.777,0,0,1,.1,1.08l-1.585,1.651a7.674,7.674,0,0,1,.925,1.829,2.22,2.22,0,0,1-.222,1.634c-.278.5-.658,1.153-1.017,1.663A2.192,2.192,0,0,1,1132.506,817.441Z" transform="translate(-1130.863 -808.611)" fill="url(#linear-gradient-12)"/>
        <path id="Trazado_96256" data-name="Trazado 96256" d="M1139.683,834.614l-1.444,1.224-.453,1.219,1.288,1.429a16.615,16.615,0,0,1,.755-2.942C1140.149,835.02,1139.983,834.767,1139.683,834.614Z" transform="translate(-1136.773 -830.812)" fill="url(#linear-gradient-13)"/>
      </g>
      <path id="Trazado_96257" data-name="Trazado 96257" d="M808.225,973.406l-3.171-8s-7.722,5.247-8.991,11.9a17.566,17.566,0,0,1,6.5,1.823C803.739,976.484,808.225,973.406,808.225,973.406Z" transform="translate(-795.048 -942.474)" fill="#00223d"/>
      <path id="Trazado_96258" data-name="Trazado 96258" d="M903.75,904.663l-2.63,7.607a.274.274,0,0,0,.125.33,6.183,6.183,0,0,0,6.413-.431,1.29,1.29,0,0,0,.594-.922l.852-6.584Z" transform="translate(-884.729 -890.617)" fill="url(#linear-gradient-14)"/>
      <g id="Grupo_46181" data-name="Grupo 46181" transform="translate(14.029 3.048)">
        <path id="Trazado_96259" data-name="Trazado 96259" d="M918.972,856.492s2.888,5.437,2.518,7.633-3.95,2.038-7.076.255l-2.184-5.871Z" transform="translate(-908.257 -852.539)" fill="url(#linear-gradient-15)"/>
        <path id="Trazado_96260" data-name="Trazado 96260" d="M891.354,838.416a.224.224,0,0,0,.1-.328,5.849,5.849,0,0,1-.8-1.706s-.519-.332,1.322-.773,4.586-1.124,5.163-2.691c.563-1.528-.916-5.369-3.274-2.308a.224.224,0,0,1-.355,0,2.31,2.31,0,0,0-2.814-.914,2.119,2.119,0,0,0-1.451,2.048.223.223,0,0,1-.264.228,2.584,2.584,0,0,0-3.017,1.407,2.078,2.078,0,0,0,.149,2.495.223.223,0,0,1-.1.371,1.345,1.345,0,0,0-.949,1.534c.078,1.421,1.667,1.3,2.12,1.231a.224.224,0,0,1,.2.07c.388.429,2.136,2.252,4.027,2.472a.226.226,0,0,0,.237-.3l-.819-2.379a.225.225,0,0,1,.122-.279Z" transform="translate(-885.058 -829.457)" fill="#00223d"/>
        <path id="Trazado_96261" data-name="Trazado 96261" d="M917.431,888.949s-2.057-1.411-2.207-.223,1.852,1.721,2.844,1.278Z" transform="translate(-910.806 -879.653)" fill="url(#linear-gradient-16)"/>
      </g>
      <g id="Grupo_46185" data-name="Grupo 46185" transform="translate(10.158 48.964)">
        <path id="Trazado_96262" data-name="Trazado 96262" d="M1015.393,1228.542a.576.576,0,0,1-.566-.471l-3.749-20.118a.576.576,0,0,1,1.133-.211l3.749,20.118a.577.577,0,0,1-.567.682Z" transform="translate(-988.771 -1197.939)" fill="url(#linear-gradient)"/>
        <path id="Trazado_96263" data-name="Trazado 96263" d="M997.312,1225.856H966.5a1.152,1.152,0,1,1,0-2.3h30.055l7.786-18H959.877a1.152,1.152,0,0,1,0-2.3h46.218a1.152,1.152,0,0,1,1.057,1.609l-8.783,20.3A1.152,1.152,0,0,1,997.312,1225.856Z" transform="translate(-944.081 -1194.506)" fill="url(#linear-gradient)"/>
        <g id="Grupo_46182" data-name="Grupo 46182">
          <path id="Trazado_96264" data-name="Trazado 96264" d="M909.77,1194.948H885.491a1.2,1.2,0,0,1-1.149-.857l-14.46-48.243h-10.1a1.2,1.2,0,1,1,0-2.4h10.994a1.2,1.2,0,0,1,1.149.857l14.46,48.243H909.77a1.2,1.2,0,1,1,0,2.4Z" transform="translate(-858.583 -1143.45)" fill="url(#linear-gradient)"/>
        </g>
        <g id="Grupo_46183" data-name="Grupo 46183" transform="translate(23.352 49.69)">
          <circle id="Elipse_3881" data-name="Elipse 3881" cx="2.997" cy="2.997" r="2.997" transform="translate(0 5.834) rotate(-76.718)" fill="#00223d"/>
          <circle id="Elipse_3882" data-name="Elipse 3882" cx="2.165" cy="2.165" r="2.165" transform="translate(1.358 1.441)" fill="url(#linear-gradient)"/>
        </g>
        <g id="Grupo_46184" data-name="Grupo 46184" transform="translate(46.199 49.857)">
          <circle id="Elipse_3883" data-name="Elipse 3883" cx="2.997" cy="2.997" r="2.997" transform="translate(0 5.917) rotate(-80.783)" fill="#00223d"/>
          <circle id="Elipse_3884" data-name="Elipse 3884" cx="2.165" cy="2.165" r="2.165" transform="translate(1.191 1.274)" fill="url(#linear-gradient)"/>
        </g>
        <path id="Trazado_96265" data-name="Trazado 96265" d="M1069.976,1230.243a.576.576,0,0,1-.576-.565l-.4-19.934a.576.576,0,0,1,.564-.587.568.568,0,0,1,.587.564l.4,19.934a.576.576,0,0,1-.564.587Z" transform="translate(-1038.232 -1199.549)" fill="url(#linear-gradient)"/>
        <path id="Trazado_96266" data-name="Trazado 96266" d="M1112.327,1230.145a.576.576,0,0,1-.576-.576v-19.844a.576.576,0,1,1,1.152,0v19.844A.576.576,0,0,1,1112.327,1230.145Z" transform="translate(-1074.73 -1199.542)" fill="url(#linear-gradient)"/>
        <path id="Trazado_96267" data-name="Trazado 96267" d="M1159.229,1230.062h0a.576.576,0,0,1-.572-.58l.136-19.751a.576.576,0,0,1,.576-.572h0a.576.576,0,0,1,.572.58l-.136,19.751A.576.576,0,0,1,1159.229,1230.062Z" transform="translate(-1114.773 -1199.551)" fill="url(#linear-gradient)"/>
        <path id="Trazado_96268" data-name="Trazado 96268" d="M1189.7,1231.574a.586.586,0,0,1-.11-.011.576.576,0,0,1-.456-.675l3.743-19.293a.576.576,0,1,1,1.131.219l-3.744,19.293A.576.576,0,0,1,1189.7,1231.574Z" transform="translate(-1140.788 -1201.232)" fill="url(#linear-gradient)"/>
        <path id="Trazado_96269" data-name="Trazado 96269" d="M1016.648,1242.194H974.126a.576.576,0,0,1,0-1.152h42.522a.576.576,0,1,1,0,1.152Z" transform="translate(-956.738 -1226.771)" fill="url(#linear-gradient)"/>
        <path id="Trazado_96270" data-name="Trazado 96270" d="M1025.3,1282.216H987.257a.576.576,0,1,1,0-1.152H1025.3a.576.576,0,1,1,0,1.152Z" transform="translate(-967.949 -1260.941)" fill="url(#linear-gradient)"/>
        <path id="Trazado_96271" data-name="Trazado 96271" d="M1031.281,1319.112H997.263a.576.576,0,1,1,0-1.152h34.018a.576.576,0,1,1,0,1.152Z" transform="translate(-976.492 -1292.441)" fill="url(#linear-gradient)"/>
      </g>
      <path id="Trazado_96272" data-name="Trazado 96272" d="M790.188,1044.978s-5.278,12.021,7.623,13.78l1.759-1.466a7.681,7.681,0,0,1-2.932-10.555S792.827,1043.512,790.188,1044.978Z" transform="translate(-789.12 -1010.088)" fill="url(#linear-gradient-29)"/>
      <path id="Trazado_96273" data-name="Trazado 96273" d="M850.317,1131.42h4.691s2.932,3.811,2.639,4.691-3.191.18-3.191.18l-1.5-2.526s-4.4.293-4.4-.88S850.317,1131.42,850.317,1131.42Z" transform="translate(-839.866 -1084.216)" fill="url(#linear-gradient-30)"/>
    </g>
    <g id="Grupo_47065" data-name="Grupo 47065" transform="translate(914.943 286.566)">
      <g id="Grupo_47066" data-name="Grupo 47066" transform="translate(0 0)">
        <g id="Grupo_47020" data-name="Grupo 47020" transform="translate(2.747 2.758)">
          <path id="Trazado_97743" data-name="Trazado 97743" d="M1376.154,210.02a21.11,21.11,0,0,1-27.572,31.83l-7.479,3.221,3.221-7.479a21.11,21.11,0,0,1,31.83-27.572Z" transform="translate(-1339.766 -203.495)" fill="#fdfdfd" fill-rule="evenodd"/>
          <path id="Trazado_97744" data-name="Trazado 97744" d="M1358.584,243.836a21.439,21.439,0,0,1-12.7-4.153l-7.292,3.141a.353.353,0,0,1-.464-.464l3.14-7.292a21.465,21.465,0,1,1,18.752,8.72Q1359.3,243.836,1358.584,243.836Zm-12.649-4.911a.353.353,0,0,1,.212.071,20.756,20.756,0,1,0-2.243-31.3,20.843,20.843,0,0,0-1.944,27.11.354.354,0,0,1,.042.352l-2.87,6.663,6.664-2.87A.352.352,0,0,1,1345.935,238.925Z" transform="translate(-1337.12 -200.923)" fill="#00223d"/>
        </g>
        <circle id="Elipse_3890" data-name="Elipse 3890" cx="17.942" cy="17.942" r="17.942" transform="translate(6.267 6.268)" fill="#12263f"/>
        <path id="Trazado_97745" data-name="Trazado 97745" d="M1337.983,225.919a24.126,24.126,0,0,1-13.145-3.883.353.353,0,0,1,.385-.593,23.511,23.511,0,0,0,25.495.027.353.353,0,0,1,.383.594A24.2,24.2,0,0,1,1337.983,225.919Zm17.209-7.327a.353.353,0,0,1-.255-.6,23.442,23.442,0,0,0,2.953-28.8.353.353,0,0,1,.6-.377,24.321,24.321,0,0,1,3.6,15.236,23.948,23.948,0,0,1-6.641,14.434A.352.352,0,0,1,1355.193,218.591Zm-37.231-3.567a.353.353,0,0,1-.3-.161,24.233,24.233,0,0,1-3.75-15.666.353.353,0,1,1,.7.073,23.525,23.525,0,0,0,3.64,15.208.353.353,0,0,1-.3.546Zm-2.462-20.911a.353.353,0,0,1-.333-.471,24.212,24.212,0,0,1,29.623-15.173.353.353,0,0,1-.2.678,23.507,23.507,0,0,0-28.759,14.73A.353.353,0,0,1,1315.5,194.113Zm39.235-9.045a.352.352,0,0,1-.248-.1,23.547,23.547,0,0,0-4.89-3.7.353.353,0,0,1,.349-.614,24.255,24.255,0,0,1,5.037,3.811.353.353,0,0,1-.248.6Z" transform="translate(-1313.784 -177.498)" fill="#00223d"/>
      </g>
      <path id="Trazado_97869" data-name="Trazado 97869" d="M1430.831,282.747a11.81,11.81,0,1,0,11.127,7.826l-1.78,1.78a9.608,9.608,0,1,1-3.2-5.161l1.573-1.572a11.773,11.773,0,0,0-7.723-2.872Zm-6.215,10.648a1.477,1.477,0,0,1,2.089-2.089l4.126,4.126,9.3-9.3a1.477,1.477,0,0,1,2.089,2.089l-10.342,10.342a1.477,1.477,0,0,1-2.089,0Z" transform="translate(-1406.623 -270.356)" fill="#fff" fill-rule="evenodd"/>
    </g>
    <g id="Grupo_47066-2" data-name="Grupo 47066" transform="translate(863.876 390.604)">
      <g id="Grupo_46129" data-name="Grupo 46129" transform="translate(0 39.52)">
        <path id="Trazado_96115" data-name="Trazado 96115" d="M133.308,93.013h44.858v1.24H134.447a1.364,1.364,0,0,0-1.353,1.366v4.934a1.364,1.364,0,0,0,1.353,1.366h43.719v1.24H133.308a1.815,1.815,0,0,1-1.8-1.8V94.814a1.815,1.815,0,0,1,1.8-1.8Z" transform="translate(-131.327 -72.718)" fill="#00223d" fill-rule="evenodd"/>
        <path id="Trazado_96116" data-name="Trazado 96116" d="M133.363,93.406h43.719v7.666H133.363a1.364,1.364,0,0,1-1.353-1.366V94.772a1.364,1.364,0,0,1,1.353-1.366Z" transform="translate(-130.243 -71.871)" fill="#eadce4" fill-rule="evenodd"/>
        <path id="Trazado_96117" data-name="Trazado 96117" d="M133.308,89.8h44.858v1.24H134.447a1.364,1.364,0,0,0-1.353,1.366v4.934a1.364,1.364,0,0,0,1.353,1.366h43.719v1.24H133.308a1.815,1.815,0,0,1-1.8-1.8V91.6a1.815,1.815,0,0,1,1.8-1.8Z" transform="translate(-131.327 -79.648)" fill="#f5ca56" fill-rule="evenodd"/>
        <path id="Trazado_96118" data-name="Trazado 96118" d="M133.363,90.19h43.719v7.666H133.363a1.364,1.364,0,0,1-1.353-1.366V91.556a1.364,1.364,0,0,1,1.353-1.366Z" transform="translate(-130.243 -78.801)" fill="#eadce4" fill-rule="evenodd"/>
        <path id="Trazado_96119" data-name="Trazado 96119" d="M133.251,86.58H178.11v1.24H134.39a1.369,1.369,0,0,0-1.357,1.369V94.12a1.369,1.369,0,0,0,1.357,1.369H178.11v1.24H133.251a1.817,1.817,0,0,1-1.8-1.8V88.381a1.817,1.817,0,0,1,1.8-1.8Z" transform="translate(-131.45 -86.58)" fill="#26aab7" fill-rule="evenodd"/>
        <path id="Trazado_96120" data-name="Trazado 96120" d="M133.309,86.973h43.719v7.669H133.309a1.369,1.369,0,0,1-1.357-1.369V88.342a1.369,1.369,0,0,1,1.357-1.369Z" transform="translate(-130.368 -85.733)" fill="#eadce4" fill-rule="evenodd"/>
      </g>
      <g id="Grupo_46130" data-name="Grupo 46130" transform="translate(12.155)">
        <path id="Trazado_96121" data-name="Trazado 96121" d="M160.8,87.748c1.7,3.1-3.8,20.263-3.8,20.263l-2.9-.063.208-16.067c-7.3,2.748-11.534,0-11.534,0l.208,16.067-2.893.063s-5.5-17.159-3.8-20.263c1.47-2.644,9.944-3.8,12.25-3.565,2.306-.23,10.783.921,12.25,3.565Z" transform="translate(-133.848 -52.287)" fill="#00223d" fill-rule="evenodd"/>
        <path id="Trazado_96122" data-name="Trazado 96122" d="M150.724,95.513l-5.5-.126-1.278-.672-.167.672-2.035-.208-.022-3.483,2.9.063s3.858,2.5,5.284,2.5c1.448,0,.817,1.259.817,1.259Z" transform="translate(-121.462 -36.036)" fill="#167377" fill-rule="evenodd"/>
        <path id="Trazado_96123" data-name="Trazado 96123" d="M135.43,95.513l5.518-.126,1.278-.672.17.672,2.013-.208.041-3.483-2.893.063s-3.861,2.5-5.287,2.5c-1.448,0-.839,1.259-.839,1.259Z" transform="translate(-135.303 -36.036)" fill="#167377" fill-rule="evenodd"/>
        <path id="Trazado_96124" data-name="Trazado 96124" d="M141.29,97h4.824L139.883,89.9l6.1-11.849c-4.811-.136-7.537,7.032-9.685,11.761a2.1,2.1,0,0,0,.388,2.3Z" transform="translate(-133.548 -65.435)" fill="#167377" fill-rule="evenodd"/>
        <path id="Trazado_96125" data-name="Trazado 96125" d="M146.717,96.428l-4,2.6,4.13-8.912-6.228-12.061c4.71-.133,7.439,6.366,9.568,11.013a2.963,2.963,0,0,1-.293,2.969Z" transform="translate(-123.854 -65.435)" fill="#167377" fill-rule="evenodd"/>
        <path id="Trazado_96126" data-name="Trazado 96126" d="M138.965,75.868c-.483.063-.8.713-.713,1.47s.546,1.319,1.028,1.256c.483-.041.817-.71.713-1.467-.085-.754-.546-1.322-1.028-1.259Z" transform="translate(-128.979 -70.152)" fill="#ffb699" fill-rule="evenodd"/>
        <path id="Trazado_96127" data-name="Trazado 96127" d="M142.058,75.868c.483.063.8.713.713,1.47s-.546,1.319-1.028,1.256c-.483-.041-.8-.71-.713-1.467s.546-1.322,1.028-1.259Z" transform="translate(-122.99 -70.152)" fill="#ffb699" fill-rule="evenodd"/>
        <path id="Trazado_96128" data-name="Trazado 96128" d="M144.278,77.986h1.344a6.642,6.642,0,0,1,6.628,6.628V97.18A4.84,4.84,0,0,1,147.427,102h-4.95a4.84,4.84,0,0,1-4.827-4.824V84.614a6.642,6.642,0,0,1,6.628-6.628Z" transform="translate(-130.245 -65.578)" fill="#167377" fill-rule="evenodd"/>
        <path id="Trazado_96129" data-name="Trazado 96129" d="M139.3,77.421h4.029v1.76a1.779,1.779,0,0,1-1.764,1.786h-.483a1.783,1.783,0,0,1-1.782-1.786Z" transform="translate(-126.692 -66.795)" fill="#e58d6e" fill-rule="evenodd"/>
        <path id="Trazado_96130" data-name="Trazado 96130" d="M142.855,74.249c2.454-.041,4.489,2.5,4.552,5.685s-1.887,5.833-4.341,5.874c-2.435.041-4.489-2.518-4.53-5.707-.063-3.186,1.865-5.808,4.319-5.852Z" transform="translate(-128.339 -73.631)" fill="#ffb699" fill-rule="evenodd"/>
        <path id="Trazado_96131" data-name="Trazado 96131" d="M137.941,81.57h15.907a.726.726,0,0,1,.729.7V93.356a.726.726,0,0,1-.729.7H137.941a.71.71,0,0,1-.729-.7V82.274a.71.71,0,0,1,.729-.7Z" transform="translate(-131.189 -57.855)" fill="#f9eff4" fill-rule="evenodd"/>
        <path id="Trazado_96132" data-name="Trazado 96132" d="M141.537,87.432a2.3,2.3,0,1,0-2.3-2.306,2.319,2.319,0,0,0,2.3,2.306Z" transform="translate(-126.832 -55.155)" fill="#c8c6cc" fill-rule="evenodd"/>
        <path id="Trazado_96133" data-name="Trazado 96133" d="M149.14,77.113a7.443,7.443,0,0,0-4.893-3.044c-2.994-.262-4.994,2.783-4.994,2.783a1.418,1.418,0,0,0-.937,1.454,12.93,12.93,0,0,0,1.133,3.82l.237-2.019a2.512,2.512,0,0,0,.631-.845,1.954,1.954,0,0,0-.129-.912,9.4,9.4,0,0,0,4.215.868,5.666,5.666,0,0,0,1.946-.3.978.978,0,0,0,.009.347,2.56,2.56,0,0,0,.628.845l.237,2.019a12.812,12.812,0,0,0,1.136-3.82,1.714,1.714,0,0,0-.095-.42A6.7,6.7,0,0,0,149.14,77.113Z" transform="translate(-128.813 -74.053)" fill="#00223d"/>
      </g>
    </g>
  </g>
</svg>
