<svg id="Grupo_57027" data-name="Grupo 57027" xmlns="http://www.w3.org/2000/svg" xmlns:xlink="http://www.w3.org/1999/xlink" width="124.767" height="124.767" viewBox="0 0 124.767 124.767">
  <defs>
    <radialGradient id="radial-gradient" cx="0.076" cy="0.019" r="1.465" gradientTransform="translate(0.001)" gradientUnits="objectBoundingBox">
      <stop offset="0" stop-color="#f6f6f7"/>
      <stop offset="0.477" stop-color="#f9f9fa"/>
      <stop offset="0.715" stop-color="#fff"/>
    </radialGradient>
  </defs>
  <g id="Grupo_18531" data-name="Grupo 18531">
    <g id="Grupo_18423" data-name="Grupo 18423" transform="translate(0 0)">
      <g id="Grupo_18421" data-name="Grupo 18421">
        <g id="Grupo_18420" data-name="Grupo 18420">
          <g id="Grupo_18419" data-name="Grupo 18419">
            <path id="Trazado_40936" data-name="Trazado 40936" d="M319.39,2208.1a62.384,62.384,0,1,1-62.383-62.382A62.383,62.383,0,0,1,319.39,2208.1Z" transform="translate(-194.623 -2145.721)" fill="#fff"/>
          </g>
        </g>
      </g>
      <path id="Trazado_40937" data-name="Trazado 40937" d="M318.65,2207.3a62.382,62.382,0,1,0-62.383,62.385A62.136,62.136,0,0,0,318.65,2207.3Z" transform="translate(-193.883 -2144.915)" fill="url(#radial-gradient)"/>
      <path id="Trazado_40938" data-name="Trazado 40938" d="M297.307,2200.746a47.617,47.617,0,1,0-47.617,47.617A47.44,47.44,0,0,0,297.307,2200.746Z" transform="translate(-187.117 -2138.156)" fill="none" stroke="#7d6eb2" stroke-miterlimit="10" stroke-width="4"/>
      <g id="Grupo_18422" data-name="Grupo 18422" transform="translate(11.052 35.024)">
        <path id="Trazado_40939" data-name="Trazado 40939" d="M307.953,2164.488a62.391,62.391,0,0,1-107.408,62.125,62.193,62.193,0,0,0,107.408-62.125Z" transform="translate(-200.545 -2164.488)" fill="#eceef0"/>
      </g>
    </g>
  </g>
  <g id="Grupo_50705" data-name="Grupo 50705" transform="translate(34.251 33.791)">
    <g id="Grupo_50690" data-name="Grupo 50690" transform="translate(31.558)">
      <g id="Grupo_50689" data-name="Grupo 50689">
        <g id="Grupo_50688" data-name="Grupo 50688">
          <path id="Trazado_112694" data-name="Trazado 112694" d="M329.894,2245.584a4.48,4.48,0,0,1-3.426-1.6,4.609,4.609,0,0,1-1.082-3.331h-7.112a1.117,1.117,0,0,1-1.117-1.116v-7.532a1.117,1.117,0,0,1,1.319-1.1l.066.012a2.3,2.3,0,1,0,0-4.516l-.067.013a1.118,1.118,0,0,1-1.318-1.1v-8.252a1.116,1.116,0,0,1,1.117-1.116H336.8a5.066,5.066,0,0,1,5.061,5.061v18.529a1.116,1.116,0,0,1-1.117,1.116H334.4a4.529,4.529,0,0,1-4.444,4.929Zm-10.5-7.163H326.7a1.117,1.117,0,0,1,1.1,1.318l-.152.833a2.379,2.379,0,0,0,.526,1.971,2.226,2.226,0,0,0,1.753.807,2.295,2.295,0,0,0,2.223-2.708l-.165-.9a1.118,1.118,0,0,1,1.1-1.318h6.547v-17.412a2.83,2.83,0,0,0-2.827-2.827H319.391v5.97a4.531,4.531,0,0,1,0,9.019Z" transform="translate(-317.157 -2215.948)" fill="#12263f"/>
        </g>
      </g>
    </g>
    <g id="Grupo_50704" data-name="Grupo 50704">
      <g id="Grupo_50698" data-name="Grupo 50698" transform="translate(0.922 10.006)">
        <path id="Trazado_112698" data-name="Trazado 112698" d="M298.693,2265.774a1.117,1.117,0,0,0,1.117-1.117v-4.044a1.117,1.117,0,0,0-1.117-1.117h-7.664a1.116,1.116,0,0,0-1.1,1.318l.165.9a2.3,2.3,0,0,1-2.223,2.709,2.231,2.231,0,0,1-1.753-.808,2.381,2.381,0,0,1-.526-1.972l.152-.832a1.116,1.116,0,0,0-1.1-1.318h-7.309v-5.25a4.531,4.531,0,0,0,0-9.019v-7.087a1.117,1.117,0,0,0-1.117-1.117H257.691a5.066,5.066,0,0,0-5.061,5.061v37.058a5.067,5.067,0,0,0,5.061,5.061h37.057a5.067,5.067,0,0,0,5.061-5.061V2275.9a1.117,1.117,0,1,0-2.234,0v3.241a2.831,2.831,0,0,1-2.827,2.827H277.337v-7.2a1.117,1.117,0,0,0-1.317-1.1l-.068.013a2.3,2.3,0,1,1,0-4.516l.067.012a1.118,1.118,0,0,0,1.317-1.1v-6.346h6a4.6,4.6,0,0,0,1.082,3.33,4.515,4.515,0,0,0,7.935-3.33h5.227v2.927a1.117,1.117,0,0,0,1.117,1.117Zm-43.829-23.69a2.831,2.831,0,0,1,2.827-2.827H275.1v7.135a1.116,1.116,0,0,0,1.318,1.1l.067-.012h0a2.3,2.3,0,1,1,0,4.515l-.067-.011a1.117,1.117,0,0,0-1.318,1.1v6.416H270.31a4.535,4.535,0,0,0-8.7,0h-6.744Zm17.775,25.857a4.53,4.53,0,0,0,2.465,7.989v6.04H257.691a2.831,2.831,0,0,1-2.827-2.827V2261.73h7.685a1.117,1.117,0,0,0,1.116-1.069,2.3,2.3,0,0,1,4.588,0,1.116,1.116,0,0,0,1.116,1.069H275.1v5.181a4.52,4.52,0,0,0-2.465,1.03Z" transform="translate(-252.63 -2237.023)" fill="#12263f"/>
      </g>
      <g id="Grupo_50703" data-name="Grupo 50703">
        <g id="Grupo_50700" data-name="Grupo 50700">
          <g id="Grupo_50699" data-name="Grupo 50699">
            <path id="Trazado_112699" data-name="Trazado 112699" d="M250.689,2215.948" transform="translate(-250.689 -2215.948)" fill="#12263f"/>
          </g>
        </g>
        <g id="Grupo_50702" data-name="Grupo 50702" transform="translate(45.869 42.09)">
          <g id="Grupo_50701" data-name="Grupo 50701">
            <path id="Trazado_112700" data-name="Trazado 112700" d="M348.416,2306.83a1.116,1.116,0,1,1,1.1-.9,1.124,1.124,0,0,1-1.1.9Z" transform="translate(-347.301 -2304.6)" fill="#12263f"/>
          </g>
        </g>
      </g>
    </g>
  </g>
</svg>
