<svg xmlns="http://www.w3.org/2000/svg" width="1073.37" height="602" viewBox="0 0 1073.37 602">
  <g id="Grupo_64235" data-name="Grupo 64235" transform="translate(-243.63 -7368)">
    <g id="Grupo_12327" data-name="Grupo 12327" transform="translate(243.63 7368)">
      <rect id="Rectángulo_2792" data-name="Rectángulo 2792" width="168.624" height="168.624" rx="20" transform="translate(185.309 0)" fill="#3c4973"/>
      <path id="Trazado_131851" data-name="Trazado 131851" d="M-43.687,0V-12.086h3.719a5.647,5.647,0,0,1,2.851.718,5.007,5.007,0,0,1,1.963,2.042,6.3,6.3,0,0,1,.706,3.009v.556a6.316,6.316,0,0,1-.693,3A4.964,4.964,0,0,1-37.1-.73,5.69,5.69,0,0,1-39.943,0Zm2.49-10.069V-2h1.2a2.7,2.7,0,0,0,2.233-.955,4.314,4.314,0,0,0,.789-2.731v-.639a4.382,4.382,0,0,0-.764-2.793,2.7,2.7,0,0,0-2.233-.95ZM-28.663.166a4.409,4.409,0,0,1-3.217-1.212A4.308,4.308,0,0,1-33.12-4.275v-.232a5.426,5.426,0,0,1,.523-2.42,3.838,3.838,0,0,1,1.482-1.644,4.159,4.159,0,0,1,2.187-.577,3.727,3.727,0,0,1,2.9,1.162,4.722,4.722,0,0,1,1.058,3.3v.979h-5.719a2.229,2.229,0,0,0,.7,1.411,2.12,2.12,0,0,0,1.482.531,2.589,2.589,0,0,0,2.167-1l1.179,1.32A3.6,3.6,0,0,1-26.621-.261,4.793,4.793,0,0,1-28.663.166Zm-.274-7.379a1.5,1.5,0,0,0-1.158.484,2.5,2.5,0,0,0-.569,1.384h3.337v-.192a1.786,1.786,0,0,0-.432-1.238A1.547,1.547,0,0,0-28.937-7.213Zm13.422,2.806a5.439,5.439,0,0,1-.921,3.366A3.052,3.052,0,0,1-19.009.166,2.8,2.8,0,0,1-21.341-.955L-21.449,0h-2.158V-12.75h2.4v4.574a2.732,2.732,0,0,1,2.183-.971A3.077,3.077,0,0,1-16.448-7.94a5.446,5.446,0,0,1,.934,3.4Zm-2.4-.183a3.593,3.593,0,0,0-.432-1.994,1.458,1.458,0,0,0-1.287-.629,1.582,1.582,0,0,0-1.577.941v3.555a1.6,1.6,0,0,0,1.594.949,1.482,1.482,0,0,0,1.527-1.149A5.944,5.944,0,0,0-17.913-4.591ZM-11.5,0h-2.407V-8.981H-11.5Zm-2.548-11.306a1.181,1.181,0,0,1,.361-.888,1.356,1.356,0,0,1,.984-.349,1.36,1.36,0,0,1,.979.349,1.175,1.175,0,0,1,.365.888,1.178,1.178,0,0,1-.369.9,1.363,1.363,0,0,1-.975.349,1.363,1.363,0,0,1-.975-.349A1.178,1.178,0,0,1-14.053-11.306ZM-7,0H-9.4V-12.75H-7ZM-2.49,0H-4.9V-8.981H-2.49ZM-5.039-11.306a1.181,1.181,0,0,1,.361-.888,1.356,1.356,0,0,1,.984-.349,1.36,1.36,0,0,1,.979.349,1.175,1.175,0,0,1,.365.888,1.178,1.178,0,0,1-.369.9,1.363,1.363,0,0,1-.975.349,1.363,1.363,0,0,1-.975-.349A1.178,1.178,0,0,1-5.039-11.306Zm4.15,6.749A5.413,5.413,0,0,1,.054-7.9,3.057,3.057,0,0,1,2.631-9.147,2.751,2.751,0,0,1,4.8-8.168V-12.75H7.205V0H5.039L4.922-.955A2.823,2.823,0,0,1,2.615.166,3.049,3.049,0,0,1,.071-1.083,5.587,5.587,0,0,1-.888-4.557Zm2.4.171a3.565,3.565,0,0,0,.44,1.943,1.432,1.432,0,0,0,1.278.675A1.6,1.6,0,0,0,4.8-2.71V-6.271a1.582,1.582,0,0,0-1.552-.942Q1.511-7.213,1.511-4.386ZM14.269,0a2.664,2.664,0,0,1-.241-.805,2.9,2.9,0,0,1-2.266.971A3.189,3.189,0,0,1,9.575-.6a2.456,2.456,0,0,1-.867-1.926A2.538,2.538,0,0,1,9.766-4.715a5.222,5.222,0,0,1,3.059-.772h1.1V-6a1.48,1.48,0,0,0-.32-1A1.257,1.257,0,0,0,12.6-7.371a1.429,1.429,0,0,0-.95.291.987.987,0,0,0-.344.8h-2.4a2.41,2.41,0,0,1,.481-1.444A3.182,3.182,0,0,1,10.75-8.77a4.961,4.961,0,0,1,1.976-.378,3.92,3.92,0,0,1,2.635.834,2.918,2.918,0,0,1,.975,2.345v3.893a4.294,4.294,0,0,0,.357,1.934V0ZM12.285-1.668a2.066,2.066,0,0,0,.979-.237,1.554,1.554,0,0,0,.664-.635V-4.084h-.9q-1.8,0-1.917,1.245l-.008.141a.96.96,0,0,0,.315.739A1.225,1.225,0,0,0,12.285-1.668Zm5.52-2.889A5.413,5.413,0,0,1,18.747-7.9a3.057,3.057,0,0,1,2.577-1.245,2.751,2.751,0,0,1,2.167.979V-12.75H25.9V0H23.732l-.116-.955A2.823,2.823,0,0,1,21.308.166a3.049,3.049,0,0,1-2.544-1.249A5.587,5.587,0,0,1,17.805-4.557Zm2.4.171a3.565,3.565,0,0,0,.44,1.943,1.432,1.432,0,0,0,1.278.675,1.6,1.6,0,0,0,1.569-.942V-6.271a1.582,1.582,0,0,0-1.552-.942Q20.2-7.213,20.2-4.386ZM31.892.166a4.409,4.409,0,0,1-3.217-1.212,4.308,4.308,0,0,1-1.241-3.229v-.232a5.426,5.426,0,0,1,.523-2.42,3.838,3.838,0,0,1,1.482-1.644,4.159,4.159,0,0,1,2.187-.577,3.727,3.727,0,0,1,2.9,1.162,4.722,4.722,0,0,1,1.058,3.3v.979H29.866a2.229,2.229,0,0,0,.7,1.411,2.12,2.12,0,0,0,1.482.531,2.589,2.589,0,0,0,2.167-1l1.179,1.32A3.6,3.6,0,0,1,33.934-.261,4.793,4.793,0,0,1,31.892.166Zm-.274-7.379a1.5,1.5,0,0,0-1.158.484,2.5,2.5,0,0,0-.569,1.384h3.337v-.192A1.786,1.786,0,0,0,32.8-6.776,1.547,1.547,0,0,0,31.618-7.213ZM41.811-2.482a.773.773,0,0,0-.436-.693,4.95,4.95,0,0,0-1.4-.452q-3.2-.672-3.2-2.723a2.468,2.468,0,0,1,.992-2,4,4,0,0,1,2.594-.8,4.307,4.307,0,0,1,2.735.805A2.538,2.538,0,0,1,44.119-6.25h-2.4a1.161,1.161,0,0,0-.332-.851,1.405,1.405,0,0,0-1.038-.336,1.436,1.436,0,0,0-.938.274.865.865,0,0,0-.332.7.739.739,0,0,0,.378.643,3.885,3.885,0,0,0,1.274.423,10.407,10.407,0,0,1,1.511.4,2.482,2.482,0,0,1,1.9,2.416A2.343,2.343,0,0,1,43.089-.594a4.548,4.548,0,0,1-2.723.76,4.75,4.75,0,0,1-2-.4,3.363,3.363,0,0,1-1.374-1.1,2.565,2.565,0,0,1-.5-1.515h2.274a1.252,1.252,0,0,0,.473.979,1.877,1.877,0,0,0,1.179.34A1.737,1.737,0,0,0,41.458-1.8.814.814,0,0,0,41.811-2.482Z" transform="translate(265.77 89.367)" fill="#fff"/>
      <rect id="Rectángulo_2793" data-name="Rectángulo 2793" width="168.624" height="168.624" rx="20" transform="translate(370.618 0)" fill="#b54273"/>
      <path id="Trazado_131852" data-name="Trazado 131852" d="M-31.863-4.939h-4.781V0h-2.49V-12.086h7.869v2.017h-5.379v3.121h4.781Zm1.336.365a5.327,5.327,0,0,1,.515-2.382A3.768,3.768,0,0,1-28.53-8.575a4.323,4.323,0,0,1,2.245-.573,4.09,4.09,0,0,1,2.968,1.112,4.464,4.464,0,0,1,1.282,3.021l.017.614a4.694,4.694,0,0,1-1.154,3.316,4.011,4.011,0,0,1-3.1,1.249,4.031,4.031,0,0,1-3.1-1.245,4.777,4.777,0,0,1-1.158-3.387Zm2.4.17a3.357,3.357,0,0,0,.481,1.958,1.588,1.588,0,0,0,1.378.678,1.592,1.592,0,0,0,1.361-.669,3.674,3.674,0,0,0,.49-2.141,3.324,3.324,0,0,0-.49-1.945,1.592,1.592,0,0,0-1.378-.69,1.566,1.566,0,0,0-1.361.686A3.735,3.735,0,0,0-28.127-4.4Zm12.634-2.328a6.517,6.517,0,0,0-.863-.066,1.757,1.757,0,0,0-1.785.921V0h-2.4V-8.981h2.266l.066,1.071a2.223,2.223,0,0,1,2-1.237,2.514,2.514,0,0,1,.747.108Zm4.441-4.458v2.208h1.536v1.76h-1.536v4.482a1.07,1.07,0,0,0,.191.714.959.959,0,0,0,.73.216,3.826,3.826,0,0,0,.706-.058V-.05a4.939,4.939,0,0,1-1.453.216,2.29,2.29,0,0,1-2.573-2.548V-7.222h-1.312v-1.76h1.312v-2.208ZM-2.976,0a2.664,2.664,0,0,1-.241-.805A2.9,2.9,0,0,1-5.483.166,3.189,3.189,0,0,1-7.67-.6a2.456,2.456,0,0,1-.867-1.926A2.538,2.538,0,0,1-7.479-4.715,5.222,5.222,0,0,1-4.42-5.487h1.1V-6a1.48,1.48,0,0,0-.32-1,1.257,1.257,0,0,0-1.009-.374,1.429,1.429,0,0,0-.95.291.987.987,0,0,0-.344.8h-2.4a2.41,2.41,0,0,1,.481-1.444A3.182,3.182,0,0,1-6.5-8.77,4.961,4.961,0,0,1-4.52-9.147a3.92,3.92,0,0,1,2.635.834A2.918,2.918,0,0,1-.909-5.968v3.893A4.294,4.294,0,0,0-.552-.141V0ZM-4.96-1.668a2.066,2.066,0,0,0,.979-.237,1.554,1.554,0,0,0,.664-.635V-4.084h-.9q-1.8,0-1.917,1.245l-.008.141a.96.96,0,0,0,.315.739A1.225,1.225,0,0,0-4.96-1.668ZM3.466,0H1.058V-12.75H3.466ZM9.575.166A4.409,4.409,0,0,1,6.358-1.046,4.308,4.308,0,0,1,5.117-4.275v-.232a5.426,5.426,0,0,1,.523-2.42A3.838,3.838,0,0,1,7.122-8.571a4.159,4.159,0,0,1,2.187-.577,3.727,3.727,0,0,1,2.9,1.162,4.722,4.722,0,0,1,1.058,3.3v.979H7.55a2.229,2.229,0,0,0,.7,1.411,2.12,2.12,0,0,0,1.482.531,2.589,2.589,0,0,0,2.167-1l1.179,1.32A3.6,3.6,0,0,1,11.617-.261,4.793,4.793,0,0,1,9.575.166ZM9.3-7.213a1.5,1.5,0,0,0-1.158.484,2.5,2.5,0,0,0-.569,1.384h3.337v-.192a1.786,1.786,0,0,0-.432-1.238A1.547,1.547,0,0,0,9.3-7.213Zm8.085,5.279h4.391V0H14.323V-1.461l4.225-5.586h-4.1V-8.981h7.2v1.413ZM28.484,0a2.664,2.664,0,0,1-.241-.805,2.9,2.9,0,0,1-2.266.971A3.189,3.189,0,0,1,23.79-.6a2.456,2.456,0,0,1-.867-1.926,2.538,2.538,0,0,1,1.058-2.191,5.222,5.222,0,0,1,3.059-.772h1.1V-6a1.48,1.48,0,0,0-.32-1,1.257,1.257,0,0,0-1.009-.374,1.429,1.429,0,0,0-.95.291.987.987,0,0,0-.344.8h-2.4A2.41,2.41,0,0,1,23.6-7.728,3.182,3.182,0,0,1,24.965-8.77a4.961,4.961,0,0,1,1.976-.378,3.92,3.92,0,0,1,2.635.834,2.918,2.918,0,0,1,.975,2.345v3.893a4.294,4.294,0,0,0,.357,1.934V0ZM26.5-1.668a2.066,2.066,0,0,0,.979-.237,1.554,1.554,0,0,0,.664-.635V-4.084h-.9q-1.8,0-1.917,1.245l-.008.141a.96.96,0,0,0,.315.739A1.225,1.225,0,0,0,26.5-1.668Zm10.758-.813a.773.773,0,0,0-.436-.693,4.95,4.95,0,0,0-1.4-.452q-3.2-.672-3.2-2.723a2.468,2.468,0,0,1,.992-2,4,4,0,0,1,2.594-.8,4.307,4.307,0,0,1,2.735.805A2.538,2.538,0,0,1,39.566-6.25h-2.4a1.161,1.161,0,0,0-.332-.851A1.405,1.405,0,0,0,35.8-7.437a1.436,1.436,0,0,0-.938.274.865.865,0,0,0-.332.7.739.739,0,0,0,.378.643,3.885,3.885,0,0,0,1.274.423A10.407,10.407,0,0,1,37.69-5a2.482,2.482,0,0,1,1.9,2.416A2.343,2.343,0,0,1,38.536-.594a4.548,4.548,0,0,1-2.723.76,4.75,4.75,0,0,1-2-.4,3.363,3.363,0,0,1-1.374-1.1,2.565,2.565,0,0,1-.5-1.515h2.274a1.252,1.252,0,0,0,.473.979,1.877,1.877,0,0,0,1.179.34A1.737,1.737,0,0,0,36.905-1.8.814.814,0,0,0,37.258-2.482Z" transform="translate(453.307 89.367)" fill="#fff"/>
      <rect id="Rectángulo_2794" data-name="Rectángulo 2794" width="168.624" height="168.624" rx="20" transform="translate(185.309 186.151)" fill="#5ca09a"/>
      <path id="Trazado_131854" data-name="Trazado 131854" d="M-48.215-5.254H-53V-2h5.611V0h-8.1V-12.086H-47.4v2.017H-53v2.88h4.781Zm7,2.772a.773.773,0,0,0-.436-.693,4.95,4.95,0,0,0-1.4-.452q-3.2-.672-3.2-2.723a2.468,2.468,0,0,1,.992-2,4,4,0,0,1,2.594-.8,4.307,4.307,0,0,1,2.735.805A2.538,2.538,0,0,1-38.91-6.25h-2.4a1.161,1.161,0,0,0-.332-.851,1.405,1.405,0,0,0-1.038-.336,1.436,1.436,0,0,0-.938.274.865.865,0,0,0-.332.7.739.739,0,0,0,.378.643A3.885,3.885,0,0,0-42.3-5.4a10.407,10.407,0,0,1,1.511.4,2.482,2.482,0,0,1,1.9,2.416A2.343,2.343,0,0,1-39.939-.594a4.548,4.548,0,0,1-2.723.76,4.75,4.75,0,0,1-2-.4,3.363,3.363,0,0,1-1.374-1.1,2.565,2.565,0,0,1-.5-1.515h2.274a1.252,1.252,0,0,0,.473.979,1.877,1.877,0,0,0,1.179.34A1.737,1.737,0,0,0-41.57-1.8.814.814,0,0,0-41.218-2.482Zm6.749-8.708v2.208h1.536v1.76h-1.536v4.482a1.07,1.07,0,0,0,.191.714.959.959,0,0,0,.73.216,3.826,3.826,0,0,0,.706-.058V-.05a4.939,4.939,0,0,1-1.453.216,2.29,2.29,0,0,1-2.573-2.548V-7.222h-1.312v-1.76h1.312v-2.208Zm7.919,4.458a6.517,6.517,0,0,0-.863-.066,1.757,1.757,0,0,0-1.785.921V0h-2.4V-8.981h2.266l.066,1.071a2.223,2.223,0,0,1,2-1.237,2.514,2.514,0,0,1,.747.108ZM-20.441,0a2.664,2.664,0,0,1-.241-.805,2.9,2.9,0,0,1-2.266.971A3.189,3.189,0,0,1-25.135-.6,2.456,2.456,0,0,1-26-2.523a2.538,2.538,0,0,1,1.058-2.191,5.222,5.222,0,0,1,3.059-.772h1.1V-6a1.48,1.48,0,0,0-.32-1,1.257,1.257,0,0,0-1.009-.374,1.429,1.429,0,0,0-.95.291.987.987,0,0,0-.344.8h-2.4a2.41,2.41,0,0,1,.481-1.444A3.182,3.182,0,0,1-23.96-8.77a4.961,4.961,0,0,1,1.976-.378,3.92,3.92,0,0,1,2.635.834,2.918,2.918,0,0,1,.975,2.345v3.893a4.294,4.294,0,0,0,.357,1.934V0Zm-1.984-1.668a2.066,2.066,0,0,0,.979-.237,1.554,1.554,0,0,0,.664-.635V-4.084h-.9q-1.8,0-1.917,1.245L-23.6-2.7a.96.96,0,0,0,.315.739A1.225,1.225,0,0,0-22.425-1.668Zm8.766-9.521v2.208h1.536v1.76h-1.536v4.482a1.07,1.07,0,0,0,.191.714.959.959,0,0,0,.73.216,3.826,3.826,0,0,0,.706-.058V-.05a4.939,4.939,0,0,1-1.453.216,2.29,2.29,0,0,1-2.573-2.548V-7.222h-1.312v-1.76h1.312v-2.208ZM-6.653.166A4.409,4.409,0,0,1-9.87-1.046a4.308,4.308,0,0,1-1.241-3.229v-.232a5.426,5.426,0,0,1,.523-2.42A3.838,3.838,0,0,1-9.106-8.571a4.159,4.159,0,0,1,2.187-.577,3.727,3.727,0,0,1,2.9,1.162,4.722,4.722,0,0,1,1.058,3.3v.979H-8.678a2.229,2.229,0,0,0,.7,1.411A2.12,2.12,0,0,0-6.5-1.768a2.589,2.589,0,0,0,2.167-1l1.179,1.32A3.6,3.6,0,0,1-4.611-.261,4.793,4.793,0,0,1-6.653.166Zm-.274-7.379a1.5,1.5,0,0,0-1.158.484,2.5,2.5,0,0,0-.569,1.384h3.337v-.192a1.786,1.786,0,0,0-.432-1.238A1.547,1.547,0,0,0-6.927-7.213Zm4.98,2.656A5.264,5.264,0,0,1-.963-7.886,3.187,3.187,0,0,1,1.689-9.147a2.8,2.8,0,0,1,2.3,1.013l.1-.847H6.263V-.3a3.839,3.839,0,0,1-.535,2.05A3.439,3.439,0,0,1,4.221,3.08a5.3,5.3,0,0,1-2.274.457A4.925,4.925,0,0,1,.021,3.142,3.418,3.418,0,0,1-1.4,2.125L-.336.664a2.81,2.81,0,0,0,2.175,1,2.057,2.057,0,0,0,1.486-.51A1.915,1.915,0,0,0,3.856-.291V-.772A2.775,2.775,0,0,1,1.673.166,3.179,3.179,0,0,1-.946-1.1a5.262,5.262,0,0,1-1-3.358Zm2.4.171a3.3,3.3,0,0,0,.49,1.922,1.557,1.557,0,0,0,1.345.7,1.665,1.665,0,0,0,1.569-.826V-6.388A1.661,1.661,0,0,0,2.3-7.213,1.566,1.566,0,0,0,.946-6.5,3.715,3.715,0,0,0,.452-4.386ZM10.637,0H8.23V-8.981h2.407ZM8.089-11.306a1.181,1.181,0,0,1,.361-.888,1.356,1.356,0,0,1,.984-.349,1.36,1.36,0,0,1,.979.349,1.175,1.175,0,0,1,.365.888,1.178,1.178,0,0,1-.369.9,1.363,1.363,0,0,1-.975.349,1.363,1.363,0,0,1-.975-.349A1.178,1.178,0,0,1,8.089-11.306ZM17.818,0a2.664,2.664,0,0,1-.241-.805,2.9,2.9,0,0,1-2.266.971A3.189,3.189,0,0,1,13.124-.6a2.456,2.456,0,0,1-.867-1.926,2.538,2.538,0,0,1,1.058-2.191,5.222,5.222,0,0,1,3.059-.772h1.1V-6a1.48,1.48,0,0,0-.32-1,1.257,1.257,0,0,0-1.009-.374,1.429,1.429,0,0,0-.95.291.987.987,0,0,0-.344.8h-2.4a2.41,2.41,0,0,1,.481-1.444A3.182,3.182,0,0,1,14.3-8.77a4.961,4.961,0,0,1,1.976-.378,3.92,3.92,0,0,1,2.635.834,2.918,2.918,0,0,1,.975,2.345v3.893a4.294,4.294,0,0,0,.357,1.934V0ZM15.834-1.668a2.066,2.066,0,0,0,.979-.237,1.554,1.554,0,0,0,.664-.635V-4.084h-.9q-1.8,0-1.917,1.245l-.008.141a.96.96,0,0,0,.315.739A1.225,1.225,0,0,0,15.834-1.668Zm10.758-.813a.773.773,0,0,0-.436-.693,4.95,4.95,0,0,0-1.4-.452q-3.2-.672-3.2-2.723a2.468,2.468,0,0,1,.992-2,4,4,0,0,1,2.594-.8,4.307,4.307,0,0,1,2.735.805A2.538,2.538,0,0,1,28.9-6.25H26.5a1.161,1.161,0,0,0-.332-.851,1.405,1.405,0,0,0-1.038-.336,1.436,1.436,0,0,0-.938.274.865.865,0,0,0-.332.7.739.739,0,0,0,.378.643,3.885,3.885,0,0,0,1.274.423,10.407,10.407,0,0,1,1.511.4,2.482,2.482,0,0,1,1.9,2.416A2.343,2.343,0,0,1,27.87-.594a4.548,4.548,0,0,1-2.723.76,4.75,4.75,0,0,1-2-.4,3.363,3.363,0,0,1-1.374-1.1,2.565,2.565,0,0,1-.5-1.515h2.274a1.252,1.252,0,0,0,.473.979,1.877,1.877,0,0,0,1.179.34A1.737,1.737,0,0,0,26.239-1.8.814.814,0,0,0,26.592-2.482ZM34.859,0V-12.086h3.719a5.647,5.647,0,0,1,2.851.718,5.007,5.007,0,0,1,1.963,2.042A6.3,6.3,0,0,1,44.1-6.317v.556a6.316,6.316,0,0,1-.693,3A4.964,4.964,0,0,1,41.45-.73,5.69,5.69,0,0,1,38.6,0Zm2.49-10.069V-2h1.2a2.7,2.7,0,0,0,2.233-.955,4.314,4.314,0,0,0,.789-2.731v-.639a4.382,4.382,0,0,0-.764-2.793,2.7,2.7,0,0,0-2.233-.95Zm18.486,4.3A7.3,7.3,0,0,1,55.2-2.64,4.751,4.751,0,0,1,53.4-.564a4.994,4.994,0,0,1-2.694.73,5.028,5.028,0,0,1-2.681-.722A4.8,4.8,0,0,1,46.2-2.619,7.087,7.087,0,0,1,45.542-5.7v-.6a7.258,7.258,0,0,1,.643-3.142A4.79,4.79,0,0,1,48-11.526a5,5,0,0,1,2.685-.726,5,5,0,0,1,2.685.726,4.79,4.79,0,0,1,1.818,2.083,7.237,7.237,0,0,1,.643,3.134Zm-2.523-.548a5.086,5.086,0,0,0-.681-2.889,2.218,2.218,0,0,0-1.942-.988,2.219,2.219,0,0,0-1.934.975,5.028,5.028,0,0,0-.689,2.86v.589A5.15,5.15,0,0,0,48.746-2.9a2.212,2.212,0,0,0,1.959,1.021,2.192,2.192,0,0,0,1.926-.984,5.12,5.12,0,0,0,.681-2.868Z" transform="translate(262.946 275.517)" fill="#fff"/>
      <rect id="Rectángulo_2795" data-name="Rectángulo 2795" width="168.624" height="168.624" rx="20" transform="translate(370.618 186.151)" fill="#7d6eb2"/>
      <path id="Trazado_131853" data-name="Trazado 131853" d="M-47.348-5.254h-4.781V-2h5.611V0h-8.1V-12.086h8.085v2.017h-5.595v2.88h4.781Zm7,2.772a.773.773,0,0,0-.436-.693,4.95,4.95,0,0,0-1.4-.452q-3.2-.672-3.2-2.723a2.468,2.468,0,0,1,.992-2,4,4,0,0,1,2.594-.8,4.307,4.307,0,0,1,2.735.805A2.538,2.538,0,0,1-38.042-6.25h-2.4a1.161,1.161,0,0,0-.332-.851,1.405,1.405,0,0,0-1.038-.336,1.436,1.436,0,0,0-.938.274.865.865,0,0,0-.332.7.739.739,0,0,0,.378.643,3.885,3.885,0,0,0,1.274.423,10.407,10.407,0,0,1,1.511.4,2.482,2.482,0,0,1,1.9,2.416A2.343,2.343,0,0,1-39.072-.594a4.548,4.548,0,0,1-2.723.76,4.75,4.75,0,0,1-2-.4,3.363,3.363,0,0,1-1.374-1.1,2.565,2.565,0,0,1-.5-1.515H-43.4a1.252,1.252,0,0,0,.473.979,1.877,1.877,0,0,0,1.179.34A1.737,1.737,0,0,0-40.7-1.8.814.814,0,0,0-40.35-2.482Zm6.749-8.708v2.208h1.536v1.76H-33.6v4.482a1.07,1.07,0,0,0,.191.714.959.959,0,0,0,.73.216,3.826,3.826,0,0,0,.706-.058V-.05a4.939,4.939,0,0,1-1.453.216A2.29,2.29,0,0,1-36-2.382V-7.222h-1.312v-1.76H-36v-2.208Zm7.919,4.458a6.517,6.517,0,0,0-.863-.066,1.757,1.757,0,0,0-1.785.921V0h-2.4V-8.981h2.266l.066,1.071a2.223,2.223,0,0,1,2-1.237,2.514,2.514,0,0,1,.747.108ZM-19.573,0a2.664,2.664,0,0,1-.241-.805A2.9,2.9,0,0,1-22.08.166,3.189,3.189,0,0,1-24.267-.6a2.456,2.456,0,0,1-.867-1.926,2.538,2.538,0,0,1,1.058-2.191,5.222,5.222,0,0,1,3.059-.772h1.1V-6a1.48,1.48,0,0,0-.32-1,1.257,1.257,0,0,0-1.009-.374,1.429,1.429,0,0,0-.95.291.987.987,0,0,0-.344.8h-2.4a2.41,2.41,0,0,1,.481-1.444A3.182,3.182,0,0,1-23.093-8.77a4.961,4.961,0,0,1,1.976-.378,3.92,3.92,0,0,1,2.635.834,2.918,2.918,0,0,1,.975,2.345v3.893a4.294,4.294,0,0,0,.357,1.934V0Zm-1.984-1.668a2.066,2.066,0,0,0,.979-.237,1.554,1.554,0,0,0,.664-.635V-4.084h-.9q-1.8,0-1.917,1.245l-.008.141a.96.96,0,0,0,.315.739A1.225,1.225,0,0,0-21.557-1.668Zm8.766-9.521v2.208h1.536v1.76h-1.536v4.482a1.07,1.07,0,0,0,.191.714.959.959,0,0,0,.73.216,3.826,3.826,0,0,0,.706-.058V-.05a4.939,4.939,0,0,1-1.453.216A2.29,2.29,0,0,1-15.19-2.382V-7.222H-16.5v-1.76h1.312v-2.208ZM-5.786.166A4.409,4.409,0,0,1-9-1.046a4.308,4.308,0,0,1-1.241-3.229v-.232a5.426,5.426,0,0,1,.523-2.42A3.838,3.838,0,0,1-8.239-8.571a4.159,4.159,0,0,1,2.187-.577,3.727,3.727,0,0,1,2.9,1.162,4.722,4.722,0,0,1,1.058,3.3v.979H-7.811A2.229,2.229,0,0,0-7.11-2.3a2.12,2.12,0,0,0,1.482.531,2.589,2.589,0,0,0,2.167-1l1.179,1.32A3.6,3.6,0,0,1-3.744-.261,4.793,4.793,0,0,1-5.786.166ZM-6.06-7.213a1.5,1.5,0,0,0-1.158.484,2.5,2.5,0,0,0-.569,1.384h3.337v-.192a1.786,1.786,0,0,0-.432-1.238A1.547,1.547,0,0,0-6.06-7.213Zm4.98,2.656A5.264,5.264,0,0,1-.1-7.886,3.187,3.187,0,0,1,2.557-9.147a2.8,2.8,0,0,1,2.3,1.013l.1-.847H7.13V-.3a3.839,3.839,0,0,1-.535,2.05A3.439,3.439,0,0,1,5.088,3.08a5.3,5.3,0,0,1-2.274.457A4.925,4.925,0,0,1,.888,3.142,3.418,3.418,0,0,1-.531,2.125L.531.664a2.81,2.81,0,0,0,2.175,1,2.057,2.057,0,0,0,1.486-.51A1.915,1.915,0,0,0,4.723-.291V-.772A2.775,2.775,0,0,1,2.54.166,3.179,3.179,0,0,1-.079-1.1a5.262,5.262,0,0,1-1-3.358Zm2.4.171a3.3,3.3,0,0,0,.49,1.922,1.557,1.557,0,0,0,1.345.7,1.665,1.665,0,0,0,1.569-.826V-6.388a1.661,1.661,0,0,0-1.552-.826A1.566,1.566,0,0,0,1.814-6.5,3.715,3.715,0,0,0,1.32-4.386ZM11.5,0H9.1V-8.981H11.5ZM8.957-11.306a1.181,1.181,0,0,1,.361-.888,1.356,1.356,0,0,1,.984-.349,1.36,1.36,0,0,1,.979.349,1.175,1.175,0,0,1,.365.888,1.178,1.178,0,0,1-.369.9,1.363,1.363,0,0,1-.975.349,1.363,1.363,0,0,1-.975-.349A1.178,1.178,0,0,1,8.957-11.306ZM18.685,0a2.664,2.664,0,0,1-.241-.805,2.9,2.9,0,0,1-2.266.971A3.189,3.189,0,0,1,13.991-.6a2.456,2.456,0,0,1-.867-1.926,2.538,2.538,0,0,1,1.058-2.191,5.222,5.222,0,0,1,3.059-.772h1.1V-6a1.48,1.48,0,0,0-.32-1,1.257,1.257,0,0,0-1.009-.374,1.429,1.429,0,0,0-.95.291.987.987,0,0,0-.344.8h-2.4A2.41,2.41,0,0,1,13.8-7.728,3.182,3.182,0,0,1,15.166-8.77a4.961,4.961,0,0,1,1.976-.378,3.92,3.92,0,0,1,2.635.834,2.918,2.918,0,0,1,.975,2.345v3.893a4.294,4.294,0,0,0,.357,1.934V0ZM16.7-1.668a2.066,2.066,0,0,0,.979-.237,1.554,1.554,0,0,0,.664-.635V-4.084h-.9q-1.8,0-1.917,1.245l-.008.141a.96.96,0,0,0,.315.739A1.225,1.225,0,0,0,16.7-1.668Zm10.758-.813a.773.773,0,0,0-.436-.693,4.95,4.95,0,0,0-1.4-.452q-3.2-.672-3.2-2.723a2.468,2.468,0,0,1,.992-2,4,4,0,0,1,2.594-.8,4.307,4.307,0,0,1,2.735.805A2.538,2.538,0,0,1,29.767-6.25h-2.4a1.161,1.161,0,0,0-.332-.851A1.405,1.405,0,0,0,26-7.437a1.436,1.436,0,0,0-.938.274.865.865,0,0,0-.332.7.739.739,0,0,0,.378.643A3.885,3.885,0,0,0,26.38-5.4a10.407,10.407,0,0,1,1.511.4,2.482,2.482,0,0,1,1.9,2.416A2.343,2.343,0,0,1,28.737-.594a4.548,4.548,0,0,1-2.723.76,4.75,4.75,0,0,1-2-.4,3.363,3.363,0,0,1-1.374-1.1,2.565,2.565,0,0,1-.5-1.515h2.274a1.252,1.252,0,0,0,.473.979,1.877,1.877,0,0,0,1.179.34A1.737,1.737,0,0,0,27.106-1.8.814.814,0,0,0,27.459-2.482ZM43-4.939H38.217V0h-2.49V-12.086H43.6v2.017H38.217v3.121H43Zm11.97-.83a7.3,7.3,0,0,1-.631,3.129A4.751,4.751,0,0,1,52.531-.564a4.994,4.994,0,0,1-2.694.73,5.028,5.028,0,0,1-2.681-.722,4.8,4.8,0,0,1-1.826-2.063A7.087,7.087,0,0,1,44.675-5.7v-.6a7.258,7.258,0,0,1,.643-3.142,4.79,4.79,0,0,1,1.818-2.083,5,5,0,0,1,2.685-.726,5,5,0,0,1,2.685.726,4.79,4.79,0,0,1,1.818,2.083,7.237,7.237,0,0,1,.643,3.134Zm-2.523-.548a5.086,5.086,0,0,0-.681-2.889,2.218,2.218,0,0,0-1.942-.988,2.219,2.219,0,0,0-1.934.975,5.028,5.028,0,0,0-.689,2.86v.589A5.15,5.15,0,0,0,47.879-2.9a2.212,2.212,0,0,0,1.959,1.021,2.192,2.192,0,0,0,1.926-.984,5.12,5.12,0,0,0,.681-2.868Z" transform="translate(449.381 275.517)" fill="#fff"/>
      <rect id="Rectángulo_2796" data-name="Rectángulo 2796" width="168.624" height="168.624" rx="20" transform="translate(185.309 372.301)" fill="#26aab7"/>
      <path id="Trazado_131857" data-name="Trazado 131857" d="M-47.979-5.254H-52.76V-2h5.611V0h-8.1V-12.086h8.085v2.017H-52.76v2.88h4.781Zm7,2.772a.773.773,0,0,0-.436-.693,4.95,4.95,0,0,0-1.4-.452q-3.2-.672-3.2-2.723a2.468,2.468,0,0,1,.992-2,4,4,0,0,1,2.594-.8,4.307,4.307,0,0,1,2.735.805A2.538,2.538,0,0,1-38.673-6.25h-2.4A1.161,1.161,0,0,0-41.4-7.1a1.405,1.405,0,0,0-1.038-.336,1.436,1.436,0,0,0-.938.274.865.865,0,0,0-.332.7.739.739,0,0,0,.378.643A3.885,3.885,0,0,0-42.06-5.4a10.407,10.407,0,0,1,1.511.4,2.482,2.482,0,0,1,1.9,2.416A2.343,2.343,0,0,1-39.7-.594a4.548,4.548,0,0,1-2.723.76,4.75,4.75,0,0,1-2-.4,3.363,3.363,0,0,1-1.374-1.1,2.565,2.565,0,0,1-.5-1.515h2.274a1.252,1.252,0,0,0,.473.979,1.877,1.877,0,0,0,1.179.34A1.737,1.737,0,0,0-41.334-1.8.814.814,0,0,0-40.981-2.482Zm6.749-8.708v2.208H-32.7v1.76h-1.536v4.482a1.07,1.07,0,0,0,.191.714.959.959,0,0,0,.73.216,3.826,3.826,0,0,0,.706-.058V-.05a4.939,4.939,0,0,1-1.453.216,2.29,2.29,0,0,1-2.573-2.548V-7.222h-1.312v-1.76h1.312v-2.208Zm7.919,4.458a6.517,6.517,0,0,0-.863-.066,1.757,1.757,0,0,0-1.785.921V0h-2.4V-8.981h2.266l.066,1.071a2.223,2.223,0,0,1,2-1.237,2.514,2.514,0,0,1,.747.108ZM-20.2,0a2.664,2.664,0,0,1-.241-.805,2.9,2.9,0,0,1-2.266.971A3.189,3.189,0,0,1-24.9-.6a2.456,2.456,0,0,1-.867-1.926,2.538,2.538,0,0,1,1.058-2.191,5.222,5.222,0,0,1,3.059-.772h1.1V-6a1.48,1.48,0,0,0-.32-1,1.257,1.257,0,0,0-1.009-.374,1.429,1.429,0,0,0-.95.291.987.987,0,0,0-.344.8h-2.4a2.41,2.41,0,0,1,.481-1.444A3.182,3.182,0,0,1-23.724-8.77a4.961,4.961,0,0,1,1.976-.378,3.92,3.92,0,0,1,2.635.834,2.918,2.918,0,0,1,.975,2.345v3.893A4.294,4.294,0,0,0-17.78-.141V0Zm-1.984-1.668a2.066,2.066,0,0,0,.979-.237,1.554,1.554,0,0,0,.664-.635V-4.084h-.9q-1.8,0-1.917,1.245l-.008.141a.96.96,0,0,0,.315.739A1.225,1.225,0,0,0-22.188-1.668Zm8.766-9.521v2.208h1.536v1.76h-1.536v4.482a1.07,1.07,0,0,0,.191.714.959.959,0,0,0,.73.216,3.826,3.826,0,0,0,.706-.058V-.05a4.939,4.939,0,0,1-1.453.216,2.29,2.29,0,0,1-2.573-2.548V-7.222h-1.312v-1.76h1.312v-2.208ZM-6.417.166A4.409,4.409,0,0,1-9.633-1.046a4.308,4.308,0,0,1-1.241-3.229v-.232a5.426,5.426,0,0,1,.523-2.42A3.838,3.838,0,0,1-8.869-8.571a4.159,4.159,0,0,1,2.187-.577,3.727,3.727,0,0,1,2.9,1.162,4.722,4.722,0,0,1,1.058,3.3v.979H-8.442A2.229,2.229,0,0,0-7.74-2.3a2.12,2.12,0,0,0,1.482.531,2.589,2.589,0,0,0,2.167-1l1.179,1.32A3.6,3.6,0,0,1-4.375-.261,4.793,4.793,0,0,1-6.417.166ZM-6.69-7.213a1.5,1.5,0,0,0-1.158.484,2.5,2.5,0,0,0-.569,1.384H-5.08v-.192a1.786,1.786,0,0,0-.432-1.238A1.547,1.547,0,0,0-6.69-7.213Zm4.98,2.656A5.264,5.264,0,0,1-.726-7.886,3.187,3.187,0,0,1,1.926-9.147a2.8,2.8,0,0,1,2.3,1.013l.1-.847H6.5V-.3a3.839,3.839,0,0,1-.535,2.05A3.439,3.439,0,0,1,4.458,3.08a5.3,5.3,0,0,1-2.274.457A4.925,4.925,0,0,1,.257,3.142,3.418,3.418,0,0,1-1.162,2.125L-.1.664a2.81,2.81,0,0,0,2.175,1,2.057,2.057,0,0,0,1.486-.51A1.915,1.915,0,0,0,4.092-.291V-.772A2.775,2.775,0,0,1,1.909.166,3.179,3.179,0,0,1-.71-1.1a5.262,5.262,0,0,1-1-3.358Zm2.4.171a3.3,3.3,0,0,0,.49,1.922,1.557,1.557,0,0,0,1.345.7,1.665,1.665,0,0,0,1.569-.826V-6.388A1.661,1.661,0,0,0,2.54-7.213,1.566,1.566,0,0,0,1.183-6.5,3.715,3.715,0,0,0,.689-4.386ZM10.874,0H8.467V-8.981h2.407ZM8.326-11.306a1.181,1.181,0,0,1,.361-.888,1.356,1.356,0,0,1,.984-.349,1.36,1.36,0,0,1,.979.349,1.175,1.175,0,0,1,.365.888,1.178,1.178,0,0,1-.369.9,1.363,1.363,0,0,1-.975.349,1.363,1.363,0,0,1-.975-.349A1.178,1.178,0,0,1,8.326-11.306ZM18.054,0a2.664,2.664,0,0,1-.241-.805,2.9,2.9,0,0,1-2.266.971A3.189,3.189,0,0,1,13.36-.6a2.456,2.456,0,0,1-.867-1.926,2.538,2.538,0,0,1,1.058-2.191,5.222,5.222,0,0,1,3.059-.772h1.1V-6a1.48,1.48,0,0,0-.32-1,1.257,1.257,0,0,0-1.009-.374,1.429,1.429,0,0,0-.95.291.987.987,0,0,0-.344.8h-2.4a2.41,2.41,0,0,1,.481-1.444A3.182,3.182,0,0,1,14.535-8.77a4.961,4.961,0,0,1,1.976-.378,3.92,3.92,0,0,1,2.635.834,2.918,2.918,0,0,1,.975,2.345v3.893a4.294,4.294,0,0,0,.357,1.934V0ZM16.07-1.668a2.066,2.066,0,0,0,.979-.237,1.554,1.554,0,0,0,.664-.635V-4.084h-.9q-1.8,0-1.917,1.245l-.008.141a.96.96,0,0,0,.315.739A1.225,1.225,0,0,0,16.07-1.668Zm10.758-.813a.773.773,0,0,0-.436-.693,4.95,4.95,0,0,0-1.4-.452q-3.2-.672-3.2-2.723a2.468,2.468,0,0,1,.992-2,4,4,0,0,1,2.594-.8,4.307,4.307,0,0,1,2.735.805A2.538,2.538,0,0,1,29.136-6.25h-2.4A1.161,1.161,0,0,0,26.4-7.1a1.405,1.405,0,0,0-1.038-.336,1.436,1.436,0,0,0-.938.274.865.865,0,0,0-.332.7.739.739,0,0,0,.378.643,3.885,3.885,0,0,0,1.274.423A10.407,10.407,0,0,1,27.26-5a2.482,2.482,0,0,1,1.9,2.416A2.343,2.343,0,0,1,28.106-.594a4.548,4.548,0,0,1-2.723.76,4.75,4.75,0,0,1-2-.4,3.363,3.363,0,0,1-1.374-1.1,2.565,2.565,0,0,1-.5-1.515h2.274a1.252,1.252,0,0,0,.473.979,1.877,1.877,0,0,0,1.179.34A1.737,1.737,0,0,0,26.475-1.8.814.814,0,0,0,26.828-2.482ZM35.1,0V-12.086h3.719a5.647,5.647,0,0,1,2.851.718,5.007,5.007,0,0,1,1.963,2.042,6.3,6.3,0,0,1,.706,3.009v.556a6.316,6.316,0,0,1-.693,3A4.964,4.964,0,0,1,41.687-.73,5.69,5.69,0,0,1,38.839,0Zm2.49-10.069V-2h1.2a2.7,2.7,0,0,0,2.233-.955,4.314,4.314,0,0,0,.789-2.731v-.639a4.382,4.382,0,0,0-.764-2.793,2.7,2.7,0,0,0-2.233-.95ZM52.793-2.49H48.427L47.6,0H44.949l4.5-12.086h2.308L56.279,0H53.631ZM49.1-4.507h3.021L50.6-9.031Z" transform="translate(267.655 461.668)" fill="#fff"/>
      <rect id="Rectángulo_2797" data-name="Rectángulo 2797" width="168.624" height="168.624" rx="20" transform="translate(0 186.151)" fill="#167377"/>
      <path id="Trazado_131855" data-name="Trazado 131855" d="M-45.5-5.769a7.3,7.3,0,0,1-.631,3.129A4.751,4.751,0,0,1-47.941-.564a4.994,4.994,0,0,1-2.694.73,5.028,5.028,0,0,1-2.681-.722,4.8,4.8,0,0,1-1.826-2.063A7.087,7.087,0,0,1-55.8-5.7v-.6a7.258,7.258,0,0,1,.643-3.142,4.79,4.79,0,0,1,1.818-2.083,5,5,0,0,1,2.685-.726,5,5,0,0,1,2.685.726,4.79,4.79,0,0,1,1.818,2.083A7.237,7.237,0,0,1-45.5-6.309Zm-2.523-.548a5.086,5.086,0,0,0-.681-2.889,2.218,2.218,0,0,0-1.942-.988,2.219,2.219,0,0,0-1.934.975,5.028,5.028,0,0,0-.689,2.86v.589A5.15,5.15,0,0,0-52.594-2.9a2.212,2.212,0,0,0,1.959,1.021,2.192,2.192,0,0,0,1.926-.984,5.12,5.12,0,0,0,.681-2.868Zm12.26,1.909a5.387,5.387,0,0,1-.942,3.324A3.021,3.021,0,0,1-39.254.166a2.8,2.8,0,0,1-2.2-.946V3.453h-2.4V-8.981h2.225l.083.88a2.819,2.819,0,0,1,2.274-1.046,3.041,3.041,0,0,1,2.582,1.229,5.532,5.532,0,0,1,.921,3.387Zm-2.4-.183a3.554,3.554,0,0,0-.444-1.94A1.445,1.445,0,0,0-39.9-7.213a1.57,1.57,0,0,0-1.552.866v3.689a1.6,1.6,0,0,0,1.569.891Q-38.167-1.768-38.167-4.591Zm3.511.017a5.327,5.327,0,0,1,.515-2.382,3.767,3.767,0,0,1,1.482-1.619,4.323,4.323,0,0,1,2.245-.573,4.09,4.09,0,0,1,2.968,1.112,4.464,4.464,0,0,1,1.282,3.021l.017.614A4.694,4.694,0,0,1-27.3-1.083,4.011,4.011,0,0,1-30.4.166a4.031,4.031,0,0,1-3.1-1.245,4.777,4.777,0,0,1-1.158-3.387Zm2.4.17a3.357,3.357,0,0,0,.481,1.958,1.588,1.588,0,0,0,1.378.678,1.592,1.592,0,0,0,1.361-.669,3.674,3.674,0,0,0,.49-2.141,3.324,3.324,0,0,0-.49-1.945,1.592,1.592,0,0,0-1.378-.69,1.566,1.566,0,0,0-1.361.686A3.735,3.735,0,0,0-32.257-4.4Zm12.634-2.328a6.517,6.517,0,0,0-.863-.066,1.757,1.757,0,0,0-1.785.921V0h-2.4V-8.981H-22.4l.066,1.071a2.223,2.223,0,0,1,2-1.237,2.514,2.514,0,0,1,.747.108Zm4.441-4.458v2.208h1.536v1.76h-1.536v4.482a1.07,1.07,0,0,0,.191.714.959.959,0,0,0,.73.216,3.826,3.826,0,0,0,.706-.058V-.05a4.939,4.939,0,0,1-1.453.216,2.29,2.29,0,0,1-2.573-2.548V-7.222h-1.312v-1.76h1.312v-2.208ZM-6.931-.913A3.008,3.008,0,0,1-9.388.166a2.837,2.837,0,0,1-2.2-.83A3.543,3.543,0,0,1-12.368-3.1V-8.981h2.4v5.809q0,1.4,1.278,1.4a1.732,1.732,0,0,0,1.677-.848V-8.981h2.407V0H-6.865ZM-.589-8.981l.075,1.038a3.136,3.136,0,0,1,2.582-1.2,2.606,2.606,0,0,1,2.125.838A3.912,3.912,0,0,1,4.906-5.8V0h-2.4V-5.757a1.562,1.562,0,0,0-.332-1.111,1.484,1.484,0,0,0-1.1-.345,1.65,1.65,0,0,0-1.519.865V0h-2.4V-8.981ZM9.255,0H6.848V-8.981H9.255ZM6.707-11.306a1.181,1.181,0,0,1,.361-.888,1.356,1.356,0,0,1,.984-.349,1.36,1.36,0,0,1,.979.349,1.175,1.175,0,0,1,.365.888,1.178,1.178,0,0,1-.369.9,1.363,1.363,0,0,1-.975.349,1.363,1.363,0,0,1-.975-.349A1.178,1.178,0,0,1,6.707-11.306Zm4.15,6.749A5.413,5.413,0,0,1,11.8-7.9a3.057,3.057,0,0,1,2.577-1.245,2.751,2.751,0,0,1,2.167.979V-12.75h2.407V0H16.784l-.116-.955A2.823,2.823,0,0,1,14.36.166a3.049,3.049,0,0,1-2.544-1.249A5.587,5.587,0,0,1,10.857-4.557Zm2.4.171a3.565,3.565,0,0,0,.44,1.943,1.432,1.432,0,0,0,1.278.675,1.6,1.6,0,0,0,1.569-.942V-6.271a1.582,1.582,0,0,0-1.552-.942Q13.256-7.213,13.256-4.386ZM26.015,0a2.664,2.664,0,0,1-.241-.805,2.9,2.9,0,0,1-2.266.971A3.189,3.189,0,0,1,21.321-.6a2.456,2.456,0,0,1-.867-1.926,2.538,2.538,0,0,1,1.058-2.191,5.222,5.222,0,0,1,3.059-.772h1.1V-6a1.48,1.48,0,0,0-.32-1,1.257,1.257,0,0,0-1.009-.374,1.429,1.429,0,0,0-.95.291.987.987,0,0,0-.344.8h-2.4a2.41,2.41,0,0,1,.481-1.444A3.182,3.182,0,0,1,22.5-8.77a4.961,4.961,0,0,1,1.976-.378,3.92,3.92,0,0,1,2.635.834,2.918,2.918,0,0,1,.975,2.345v3.893a4.294,4.294,0,0,0,.357,1.934V0ZM24.031-1.668a2.066,2.066,0,0,0,.979-.237,1.554,1.554,0,0,0,.664-.635V-4.084h-.9q-1.8,0-1.917,1.245l-.008.141a.96.96,0,0,0,.315.739A1.225,1.225,0,0,0,24.031-1.668Zm5.52-2.889A5.413,5.413,0,0,1,30.493-7.9,3.057,3.057,0,0,1,33.07-9.147a2.751,2.751,0,0,1,2.167.979V-12.75h2.407V0H35.478l-.116-.955A2.823,2.823,0,0,1,33.054.166,3.049,3.049,0,0,1,30.51-1.083,5.587,5.587,0,0,1,29.551-4.557Zm2.4.171a3.565,3.565,0,0,0,.44,1.943,1.432,1.432,0,0,0,1.278.675,1.6,1.6,0,0,0,1.569-.942V-6.271a1.582,1.582,0,0,0-1.552-.942Q31.95-7.213,31.95-4.386ZM43.637.166a4.409,4.409,0,0,1-3.217-1.212A4.308,4.308,0,0,1,39.18-4.275v-.232a5.426,5.426,0,0,1,.523-2.42,3.838,3.838,0,0,1,1.482-1.644,4.159,4.159,0,0,1,2.187-.577,3.727,3.727,0,0,1,2.9,1.162,4.722,4.722,0,0,1,1.058,3.3v.979H41.612a2.229,2.229,0,0,0,.7,1.411,2.12,2.12,0,0,0,1.482.531,2.589,2.589,0,0,0,2.167-1l1.179,1.32A3.6,3.6,0,0,1,45.679-.261,4.793,4.793,0,0,1,43.637.166Zm-.274-7.379a1.5,1.5,0,0,0-1.158.484,2.5,2.5,0,0,0-.569,1.384h3.337v-.192a1.786,1.786,0,0,0-.432-1.238A1.547,1.547,0,0,0,43.363-7.213ZM53.557-2.482a.773.773,0,0,0-.436-.693,4.95,4.95,0,0,0-1.4-.452q-3.2-.672-3.2-2.723a2.468,2.468,0,0,1,.992-2,4,4,0,0,1,2.594-.8,4.307,4.307,0,0,1,2.735.805A2.538,2.538,0,0,1,55.864-6.25h-2.4a1.161,1.161,0,0,0-.332-.851A1.405,1.405,0,0,0,52.1-7.437a1.436,1.436,0,0,0-.938.274.865.865,0,0,0-.332.7.739.739,0,0,0,.378.643,3.885,3.885,0,0,0,1.274.423,10.407,10.407,0,0,1,1.511.4,2.482,2.482,0,0,1,1.9,2.416A2.343,2.343,0,0,1,54.835-.594a4.548,4.548,0,0,1-2.723.76,4.75,4.75,0,0,1-2-.4,3.363,3.363,0,0,1-1.374-1.1,2.565,2.565,0,0,1-.5-1.515H50.51a1.252,1.252,0,0,0,.473.979,1.877,1.877,0,0,0,1.179.34A1.737,1.737,0,0,0,53.2-1.8.814.814,0,0,0,53.557-2.482Z" transform="translate(79.156 275.517)" fill="#fff"/>
      <rect id="Rectángulo_2798" data-name="Rectángulo 2798" width="168.624" height="168.624" rx="20" transform="translate(0 372.301)" fill="#ffd947"/>
      <path id="Trazado_131856" data-name="Trazado 131856" d="M-32.141-2.49h-4.366L-37.337,0h-2.648l4.5-12.086h2.308L-28.654,0H-31.3Zm-3.694-2.017h3.021l-1.519-4.524Zm10-4.474.075,1a3.156,3.156,0,0,1,2.582-1.17,2.4,2.4,0,0,1,2.382,1.37,3.084,3.084,0,0,1,2.7-1.37,2.679,2.679,0,0,1,2.175.851,3.911,3.911,0,0,1,.714,2.561V0h-2.407V-5.741a1.717,1.717,0,0,0-.3-1.119,1.322,1.322,0,0,0-1.054-.354,1.5,1.5,0,0,0-1.494,1.032L-20.453,0h-2.4V-5.732a1.7,1.7,0,0,0-.307-1.132,1.335,1.335,0,0,0-1.046-.349,1.554,1.554,0,0,0-1.478.849V0h-2.4V-8.981ZM-9.23.166a4.409,4.409,0,0,1-3.217-1.212,4.308,4.308,0,0,1-1.241-3.229v-.232a5.426,5.426,0,0,1,.523-2.42,3.838,3.838,0,0,1,1.482-1.644A4.159,4.159,0,0,1-9.5-9.147a3.727,3.727,0,0,1,2.9,1.162,4.722,4.722,0,0,1,1.058,3.3v.979h-5.719a2.229,2.229,0,0,0,.7,1.411,2.12,2.12,0,0,0,1.482.531,2.589,2.589,0,0,0,2.167-1l1.179,1.32A3.6,3.6,0,0,1-7.188-.261,4.793,4.793,0,0,1-9.23.166ZM-9.5-7.213a1.5,1.5,0,0,0-1.158.484,2.5,2.5,0,0,0-.569,1.384h3.337v-.192a1.786,1.786,0,0,0-.432-1.238A1.547,1.547,0,0,0-9.5-7.213Zm7.537-1.768.075,1.038a3.136,3.136,0,0,1,2.582-1.2,2.606,2.606,0,0,1,2.125.838A3.912,3.912,0,0,1,3.528-5.8V0h-2.4V-5.757A1.562,1.562,0,0,0,.8-6.868a1.484,1.484,0,0,0-1.1-.345,1.65,1.65,0,0,0-1.519.865V0h-2.4V-8.981ZM10.55,0a2.664,2.664,0,0,1-.241-.805A2.9,2.9,0,0,1,8.043.166,3.189,3.189,0,0,1,5.856-.6a2.456,2.456,0,0,1-.867-1.926A2.538,2.538,0,0,1,6.047-4.715a5.222,5.222,0,0,1,3.059-.772h1.1V-6a1.48,1.48,0,0,0-.32-1,1.257,1.257,0,0,0-1.009-.374,1.429,1.429,0,0,0-.95.291.987.987,0,0,0-.344.8h-2.4a2.41,2.41,0,0,1,.481-1.444A3.182,3.182,0,0,1,7.031-8.77a4.961,4.961,0,0,1,1.976-.378,3.92,3.92,0,0,1,2.635.834,2.918,2.918,0,0,1,.975,2.345v3.893a4.294,4.294,0,0,0,.357,1.934V0ZM8.566-1.668a2.066,2.066,0,0,0,.979-.237,1.554,1.554,0,0,0,.664-.635V-4.084h-.9q-1.8,0-1.917,1.245L7.388-2.7a.96.96,0,0,0,.315.739A1.225,1.225,0,0,0,8.566-1.668Zm8.649-.266h4.391V0H14.153V-1.461l4.225-5.586h-4.1V-8.981h7.2v1.413ZM28.314,0a2.664,2.664,0,0,1-.241-.805,2.9,2.9,0,0,1-2.266.971A3.189,3.189,0,0,1,23.62-.6a2.456,2.456,0,0,1-.867-1.926,2.538,2.538,0,0,1,1.058-2.191,5.222,5.222,0,0,1,3.059-.772h1.1V-6a1.48,1.48,0,0,0-.32-1,1.257,1.257,0,0,0-1.009-.374,1.429,1.429,0,0,0-.95.291.987.987,0,0,0-.344.8h-2.4a2.41,2.41,0,0,1,.481-1.444A3.182,3.182,0,0,1,24.794-8.77a4.961,4.961,0,0,1,1.976-.378,3.92,3.92,0,0,1,2.635.834,2.918,2.918,0,0,1,.975,2.345v3.893a4.294,4.294,0,0,0,.357,1.934V0ZM26.33-1.668a2.066,2.066,0,0,0,.979-.237,1.554,1.554,0,0,0,.664-.635V-4.084h-.9q-1.8,0-1.917,1.245l-.008.141a.96.96,0,0,0,.315.739A1.225,1.225,0,0,0,26.33-1.668Zm10.758-.813a.773.773,0,0,0-.436-.693,4.95,4.95,0,0,0-1.4-.452q-3.2-.672-3.2-2.723a2.468,2.468,0,0,1,.992-2,4,4,0,0,1,2.594-.8,4.307,4.307,0,0,1,2.735.805A2.538,2.538,0,0,1,39.4-6.25H37a1.161,1.161,0,0,0-.332-.851,1.405,1.405,0,0,0-1.038-.336,1.436,1.436,0,0,0-.938.274.865.865,0,0,0-.332.7.739.739,0,0,0,.378.643,3.885,3.885,0,0,0,1.274.423A10.407,10.407,0,0,1,37.52-5a2.482,2.482,0,0,1,1.9,2.416A2.343,2.343,0,0,1,38.366-.594a4.548,4.548,0,0,1-2.723.76,4.75,4.75,0,0,1-2-.4,3.363,3.363,0,0,1-1.374-1.1,2.565,2.565,0,0,1-.5-1.515h2.274a1.252,1.252,0,0,0,.473.979,1.877,1.877,0,0,0,1.179.34A1.737,1.737,0,0,0,36.735-1.8.814.814,0,0,0,37.088-2.482Z" transform="translate(81.689 461.668)" fill="#fff"/>
      <rect id="Rectángulo_2799" data-name="Rectángulo 2799" width="168.624" height="168.624" rx="20" transform="translate(370.618 372.301)" fill="#f9c869"/>
      <path id="Trazado_131858" data-name="Trazado 131858" d="M-46.4-5.254h-4.781V-2h5.611V0h-8.1V-12.086h8.085v2.017h-5.595v2.88H-46.4Zm7,2.772a.773.773,0,0,0-.436-.693,4.95,4.95,0,0,0-1.4-.452q-3.2-.672-3.2-2.723a2.468,2.468,0,0,1,.992-2,4,4,0,0,1,2.594-.8,4.307,4.307,0,0,1,2.735.805A2.538,2.538,0,0,1-37.1-6.25h-2.4a1.161,1.161,0,0,0-.332-.851,1.405,1.405,0,0,0-1.038-.336,1.436,1.436,0,0,0-.938.274.865.865,0,0,0-.332.7.739.739,0,0,0,.378.643,3.885,3.885,0,0,0,1.274.423,10.407,10.407,0,0,1,1.511.4,2.482,2.482,0,0,1,1.9,2.416A2.343,2.343,0,0,1-38.125-.594a4.548,4.548,0,0,1-2.723.76,4.75,4.75,0,0,1-2-.4,3.363,3.363,0,0,1-1.374-1.1,2.565,2.565,0,0,1-.5-1.515h2.274a1.252,1.252,0,0,0,.473.979,1.877,1.877,0,0,0,1.179.34A1.737,1.737,0,0,0-39.757-1.8.814.814,0,0,0-39.4-2.482Zm6.749-8.708v2.208h1.536v1.76h-1.536v4.482a1.07,1.07,0,0,0,.191.714.959.959,0,0,0,.73.216,3.826,3.826,0,0,0,.706-.058V-.05a4.939,4.939,0,0,1-1.453.216,2.29,2.29,0,0,1-2.573-2.548V-7.222h-1.312v-1.76h1.312v-2.208Zm7.919,4.458A6.517,6.517,0,0,0-25.6-6.8a1.757,1.757,0,0,0-1.785.921V0h-2.4V-8.981h2.266l.066,1.071a2.223,2.223,0,0,1,2-1.237,2.514,2.514,0,0,1,.747.108ZM-18.627,0a2.664,2.664,0,0,1-.241-.805,2.9,2.9,0,0,1-2.266.971A3.189,3.189,0,0,1-23.321-.6a2.456,2.456,0,0,1-.867-1.926A2.538,2.538,0,0,1-23.13-4.715a5.222,5.222,0,0,1,3.059-.772h1.1V-6a1.48,1.48,0,0,0-.32-1A1.257,1.257,0,0,0-20.3-7.371a1.429,1.429,0,0,0-.95.291.987.987,0,0,0-.344.8h-2.4a2.41,2.41,0,0,1,.481-1.444A3.182,3.182,0,0,1-22.146-8.77a4.961,4.961,0,0,1,1.976-.378,3.92,3.92,0,0,1,2.635.834,2.918,2.918,0,0,1,.975,2.345v3.893A4.294,4.294,0,0,0-16.2-.141V0Zm-1.984-1.668a2.066,2.066,0,0,0,.979-.237,1.554,1.554,0,0,0,.664-.635V-4.084h-.9q-1.8,0-1.917,1.245l-.008.141a.96.96,0,0,0,.315.739A1.225,1.225,0,0,0-20.611-1.668Zm8.766-9.521v2.208h1.536v1.76h-1.536v4.482a1.07,1.07,0,0,0,.191.714.959.959,0,0,0,.73.216,3.826,3.826,0,0,0,.706-.058V-.05a4.939,4.939,0,0,1-1.453.216,2.29,2.29,0,0,1-2.573-2.548V-7.222h-1.312v-1.76h1.312v-2.208ZM-4.839.166A4.409,4.409,0,0,1-8.056-1.046,4.308,4.308,0,0,1-9.3-4.275v-.232a5.426,5.426,0,0,1,.523-2.42A3.838,3.838,0,0,1-7.292-8.571,4.159,4.159,0,0,1-5.1-9.147,3.727,3.727,0,0,1-2.2-7.985a4.722,4.722,0,0,1,1.058,3.3v.979H-6.865a2.229,2.229,0,0,0,.7,1.411,2.12,2.12,0,0,0,1.482.531,2.589,2.589,0,0,0,2.167-1l1.179,1.32A3.6,3.6,0,0,1-2.8-.261,4.793,4.793,0,0,1-4.839.166Zm-.274-7.379a1.5,1.5,0,0,0-1.158.484A2.5,2.5,0,0,0-6.84-5.346H-3.5v-.192a1.786,1.786,0,0,0-.432-1.238A1.547,1.547,0,0,0-5.113-7.213Zm4.98,2.656A5.264,5.264,0,0,1,.851-7.886,3.187,3.187,0,0,1,3.5-9.147,2.8,2.8,0,0,1,5.8-8.135l.1-.847H8.077V-.3a3.839,3.839,0,0,1-.535,2.05A3.439,3.439,0,0,1,6.035,3.08a5.3,5.3,0,0,1-2.274.457,4.925,4.925,0,0,1-1.926-.394A3.418,3.418,0,0,1,.415,2.125L1.478.664a2.81,2.81,0,0,0,2.175,1,2.057,2.057,0,0,0,1.486-.51A1.915,1.915,0,0,0,5.669-.291V-.772A2.775,2.775,0,0,1,3.486.166,3.179,3.179,0,0,1,.867-1.1a5.262,5.262,0,0,1-1-3.358Zm2.4.171a3.3,3.3,0,0,0,.49,1.922,1.557,1.557,0,0,0,1.345.7,1.665,1.665,0,0,0,1.569-.826V-6.388a1.661,1.661,0,0,0-1.552-.826A1.566,1.566,0,0,0,2.76-6.5,3.715,3.715,0,0,0,2.266-4.386ZM12.451,0H10.044V-8.981h2.407ZM9.9-11.306a1.181,1.181,0,0,1,.361-.888,1.356,1.356,0,0,1,.984-.349,1.36,1.36,0,0,1,.979.349,1.175,1.175,0,0,1,.365.888,1.178,1.178,0,0,1-.369.9,1.363,1.363,0,0,1-.975.349,1.363,1.363,0,0,1-.975-.349A1.178,1.178,0,0,1,9.9-11.306ZM19.631,0a2.664,2.664,0,0,1-.241-.805,2.9,2.9,0,0,1-2.266.971A3.189,3.189,0,0,1,14.937-.6a2.456,2.456,0,0,1-.867-1.926,2.538,2.538,0,0,1,1.058-2.191,5.222,5.222,0,0,1,3.059-.772h1.1V-6a1.48,1.48,0,0,0-.32-1,1.257,1.257,0,0,0-1.009-.374,1.429,1.429,0,0,0-.95.291.987.987,0,0,0-.344.8h-2.4a2.41,2.41,0,0,1,.481-1.444A3.182,3.182,0,0,1,16.112-8.77a4.961,4.961,0,0,1,1.976-.378,3.92,3.92,0,0,1,2.635.834A2.918,2.918,0,0,1,21.7-5.968v3.893a4.294,4.294,0,0,0,.357,1.934V0ZM17.647-1.668a2.066,2.066,0,0,0,.979-.237,1.554,1.554,0,0,0,.664-.635V-4.084h-.9q-1.8,0-1.917,1.245l-.008.141a.96.96,0,0,0,.315.739A1.225,1.225,0,0,0,17.647-1.668Zm10.758-.813a.773.773,0,0,0-.436-.693,4.95,4.95,0,0,0-1.4-.452q-3.2-.672-3.2-2.723a2.468,2.468,0,0,1,.992-2,4,4,0,0,1,2.594-.8,4.307,4.307,0,0,1,2.735.805A2.538,2.538,0,0,1,30.713-6.25h-2.4a1.161,1.161,0,0,0-.332-.851,1.405,1.405,0,0,0-1.038-.336,1.436,1.436,0,0,0-.938.274.865.865,0,0,0-.332.7.739.739,0,0,0,.378.643,3.885,3.885,0,0,0,1.274.423,10.407,10.407,0,0,1,1.511.4,2.482,2.482,0,0,1,1.9,2.416A2.343,2.343,0,0,1,29.684-.594a4.548,4.548,0,0,1-2.723.76,4.75,4.75,0,0,1-2-.4,3.363,3.363,0,0,1-1.374-1.1,2.565,2.565,0,0,1-.5-1.515h2.274a1.252,1.252,0,0,0,.473.979,1.877,1.877,0,0,0,1.179.34A1.737,1.737,0,0,0,28.052-1.8.814.814,0,0,0,28.405-2.482ZM43.944-4.939H39.163V0h-2.49V-12.086h7.869v2.017H39.163v3.121h4.781ZM51.216-2.49H46.85L46.02,0H43.372l4.5-12.086h2.308L54.7,0H52.054ZM47.522-4.507h3.021L49.024-9.031Z" transform="translate(450.445 461.668)" fill="#fff"/>
    </g>
    <rect id="Rectángulo_30016" data-name="Rectángulo 30016" width="538" height="39" transform="translate(244 7931)" fill="#f6f6f6"/>
    <path id="Trazado_131859" data-name="Trazado 131859" d="M6.645,8.6H2.468V13H1.155V3.047H7.321V4.12H2.468V7.531H6.645Zm6.467,3.664a2.686,2.686,0,0,1-2.167.868,2.3,2.3,0,0,1-1.8-.687,2.974,2.974,0,0,1-.625-2.034V5.6H9.782v4.778q0,1.682,1.367,1.682a1.893,1.893,0,0,0,1.928-1.08V5.6h1.265V13h-1.2Zm6.221.868a3.232,3.232,0,0,1-2.447-.988,3.666,3.666,0,0,1-.943-2.642V9.274a4.438,4.438,0,0,1,.42-1.965,3.28,3.28,0,0,1,1.176-1.354,2.956,2.956,0,0,1,1.637-.489,2.77,2.77,0,0,1,2.242.95,4.114,4.114,0,0,1,.8,2.721v.526H17.206a2.629,2.629,0,0,0,.639,1.767A2.009,2.009,0,0,0,19.4,12.1a2.2,2.2,0,0,0,1.135-.273,2.851,2.851,0,0,0,.813-.725l.772.6A3.106,3.106,0,0,1,19.332,13.137Zm-.157-6.631a1.687,1.687,0,0,0-1.285.557,2.708,2.708,0,0,0-.643,1.562h3.705v-.1a2.409,2.409,0,0,0-.52-1.494A1.588,1.588,0,0,0,19.175,6.506Zm5.7-.9.041.93a2.7,2.7,0,0,1,2.215-1.066q2.345,0,2.365,2.646V13H28.232V8.105a1.7,1.7,0,0,0-.366-1.183,1.466,1.466,0,0,0-1.118-.383,1.825,1.825,0,0,0-1.08.328,2.228,2.228,0,0,0-.725.861V13H23.68V5.6ZM33.12,3.813V5.6H34.5v.978H33.12v4.593a1.027,1.027,0,0,0,.185.667.777.777,0,0,0,.629.222,3.062,3.062,0,0,0,.6-.082V13a3.688,3.688,0,0,1-.971.136,1.575,1.575,0,0,1-1.278-.513,2.2,2.2,0,0,1-.431-1.456V6.581H30.509V5.6h1.347V3.813Zm5.927,9.324a3.232,3.232,0,0,1-2.447-.988,3.666,3.666,0,0,1-.943-2.642V9.274a4.438,4.438,0,0,1,.42-1.965,3.28,3.28,0,0,1,1.176-1.354,2.956,2.956,0,0,1,1.637-.489,2.77,2.77,0,0,1,2.242.95,4.114,4.114,0,0,1,.8,2.721v.526H36.921a2.629,2.629,0,0,0,.639,1.767,2.009,2.009,0,0,0,1.555.673,2.2,2.2,0,0,0,1.135-.273,2.851,2.851,0,0,0,.813-.725l.772.6A3.106,3.106,0,0,1,39.047,13.137ZM38.89,6.506a1.687,1.687,0,0,0-1.285.557,2.708,2.708,0,0,0-.643,1.562h3.705v-.1a2.409,2.409,0,0,0-.52-1.494A1.588,1.588,0,0,0,38.89,6.506Zm4.464,5.831a.792.792,0,0,1,.195-.547.742.742,0,0,1,.584-.219.765.765,0,0,1,.591.219.776.776,0,0,1,.2.547.734.734,0,0,1-.2.526.778.778,0,0,1-.591.212.7.7,0,0,1-.779-.738ZM43.36,6.3a.792.792,0,0,1,.195-.547.742.742,0,0,1,.584-.219.765.765,0,0,1,.591.219.776.776,0,0,1,.2.547.734.734,0,0,1-.2.526.778.778,0,0,1-.591.212A.7.7,0,0,1,43.36,6.3ZM53.382,8.563a6.172,6.172,0,0,1-2.458-1.193,2.279,2.279,0,0,1-.769-1.747,2.408,2.408,0,0,1,.94-1.945,3.736,3.736,0,0,1,2.444-.769,4.078,4.078,0,0,1,1.829.4A3.007,3.007,0,0,1,56.612,4.4a2.8,2.8,0,0,1,.441,1.524H55.733A1.82,1.82,0,0,0,55.159,4.5a2.335,2.335,0,0,0-1.62-.518,2.391,2.391,0,0,0-1.514.428A1.428,1.428,0,0,0,51.481,5.6,1.285,1.285,0,0,0,52,6.63a5.062,5.062,0,0,0,1.757.77,8.151,8.151,0,0,1,1.941.77,2.946,2.946,0,0,1,1.039.981,2.5,2.5,0,0,1,.338,1.319,2.326,2.326,0,0,1-.943,1.938,4.022,4.022,0,0,1-2.522.728,4.678,4.678,0,0,1-1.914-.393,3.221,3.221,0,0,1-1.371-1.077,2.627,2.627,0,0,1-.482-1.552H51.16a1.714,1.714,0,0,0,.667,1.425,2.806,2.806,0,0,0,1.781.523A2.58,2.58,0,0,0,55.2,11.64a1.377,1.377,0,0,0,.554-1.155,1.351,1.351,0,0,0-.513-1.131A5.911,5.911,0,0,0,53.382,8.563Zm11-.164H60.067v3.527h5.011V13H58.755V3.047H65.01V4.12H60.067V7.326h4.313Zm9.98,4.6H73.042L68.031,5.33V13H66.712V3.047h1.319l5.024,7.7v-7.7h1.306Zm7.95-2.6h-4.17L77.205,13H75.852l3.8-9.953H80.8L84.608,13H83.262ZM78.538,9.322h3.384l-1.7-4.655Zm10.63-.362a10.569,10.569,0,0,1,.414-2.967,8.618,8.618,0,0,1,1.234-2.584,5.249,5.249,0,0,1,1.7-1.641l.26.834A5.444,5.444,0,0,0,91.14,4.94a10.135,10.135,0,0,0-.7,3.521l-.007.581a10.188,10.188,0,0,0,.964,4.58,5.47,5.47,0,0,0,1.381,1.818l-.26.772a5.418,5.418,0,0,1-1.736-1.7A9.5,9.5,0,0,1,89.168,8.96ZM100.393,13H93.871v-.909l3.445-3.828a8.185,8.185,0,0,0,1.056-1.412,2.356,2.356,0,0,0,.291-1.125,1.786,1.786,0,0,0-.472-1.278,1.649,1.649,0,0,0-1.258-.5,1.953,1.953,0,0,0-1.466.537,2.05,2.05,0,0,0-.523,1.494H93.68a2.936,2.936,0,0,1,.885-2.222,3.282,3.282,0,0,1,2.369-.848,3.153,3.153,0,0,1,2.194.728,2.483,2.483,0,0,1,.807,1.938q0,1.47-1.873,3.5L95.4,11.968h5Zm7.581-4.245a5.784,5.784,0,0,1-.759,3.3,3.153,3.153,0,0,1-4.73.024,5.49,5.49,0,0,1-.793-3.155V7.237a5.655,5.655,0,0,1,.759-3.261,3.21,3.21,0,0,1,4.744-.038,5.458,5.458,0,0,1,.779,3.175Zm-1.265-1.729a4.634,4.634,0,0,0-.451-2.341,1.553,1.553,0,0,0-1.429-.735,1.532,1.532,0,0,0-1.415.731,4.525,4.525,0,0,0-.458,2.249V8.953a4.708,4.708,0,0,0,.468,2.382,1.55,1.55,0,0,0,1.418.769,1.529,1.529,0,0,0,1.391-.725,4.538,4.538,0,0,0,.475-2.283ZM116.115,13h-6.521v-.909l3.445-3.828A8.185,8.185,0,0,0,114.1,6.851a2.356,2.356,0,0,0,.291-1.125,1.786,1.786,0,0,0-.472-1.278,1.649,1.649,0,0,0-1.258-.5,1.953,1.953,0,0,0-1.466.537,2.05,2.05,0,0,0-.523,1.494H109.4a2.936,2.936,0,0,1,.885-2.222,3.282,3.282,0,0,1,2.369-.848,3.153,3.153,0,0,1,2.194.728,2.483,2.483,0,0,1,.807,1.938q0,1.47-1.873,3.5l-2.666,2.892h5ZM123.7,8.755a5.784,5.784,0,0,1-.759,3.3,3.153,3.153,0,0,1-4.73.024,5.49,5.49,0,0,1-.793-3.155V7.237a5.655,5.655,0,0,1,.759-3.261,3.21,3.21,0,0,1,4.744-.038,5.458,5.458,0,0,1,.779,3.175Zm-1.265-1.729a4.634,4.634,0,0,0-.451-2.341,1.553,1.553,0,0,0-1.429-.735,1.532,1.532,0,0,0-1.415.731,4.525,4.525,0,0,0-.458,2.249V8.953a4.708,4.708,0,0,0,.468,2.382,1.55,1.55,0,0,0,1.418.769,1.529,1.529,0,0,0,1.391-.725,4.538,4.538,0,0,0,.475-2.283Zm5.934,2a10.574,10.574,0,0,1-.4,2.922,8.641,8.641,0,0,1-1.224,2.581,5.361,5.361,0,0,1-1.726,1.682l-.267-.772a5.5,5.5,0,0,0,1.692-2.505,10.839,10.839,0,0,0,.653-3.77V8.946a11.253,11.253,0,0,0-.3-2.669,9.009,9.009,0,0,0-.837-2.211,5.108,5.108,0,0,0-1.207-1.524l.267-.772a5.34,5.34,0,0,1,1.719,1.668,8.66,8.66,0,0,1,1.224,2.577A10.818,10.818,0,0,1,128.365,9.028Z" transform="translate(256 7940)" fill="#636363"/>
    <g id="Grupo_28812" data-name="Grupo 28812" transform="translate(844.599 7417.781)">
      <g id="Grupo_28795" data-name="Grupo 28795" transform="translate(221.691 480.902)">
        <path id="Trazado_68612" data-name="Trazado 68612" d="M1777.653,1699.586s-8.314,8.731-16.753,10.56-14.343,4.16-14.408,9.171,24.29,8.311,33.948,3.262c14.415-7.54,15.881-5.266,17.478-9.034S1796,1699.7,1796.1,1698.5C1796.231,1697.022,1777.653,1699.586,1777.653,1699.586Z" transform="translate(-1746.491 -1698.043)" fill="#61a3a3"/>
      </g>
      <g id="Grupo_28796" data-name="Grupo 28796" transform="translate(252.837 475.808)">
        <path id="Trazado_68613" data-name="Trazado 68613" d="M1782.788,1694.723a34.34,34.34,0,0,0-.936,4.178c.164.085,19.019,2.2,18.45-1.085-.464-2.661-1.124-5.553-1.124-5.553Z" transform="translate(-1781.836 -1692.264)" fill="#2f6b8c"/>
      </g>
      <g id="Grupo_28797" data-name="Grupo 28797" transform="translate(318.777 484.11)">
        <path id="Trazado_68614" data-name="Trazado 68614" d="M1884.659,1702.3s-6.115,8.5-14.3,10.465c-8.065,1.933-13.293,5.615-13.688,10.482s19.018,11.246,32.656,2.694c8.961-5.62,12.3-5.3,14.11-8.87s-.946-13.58-.765-14.739C1902.9,1700.9,1884.659,1702.3,1884.659,1702.3Z" transform="translate(-1856.67 -1701.685)" fill="#61a3a3"/>
      </g>
      <g id="Grupo_28798" data-name="Grupo 28798" transform="translate(346.733 478.981)">
        <path id="Trazado_68615" data-name="Trazado 68615" d="M1888.68,1697.4a37.505,37.505,0,0,0-.251,4.205c.154.091,18.126,3.274,18.018.033a25.064,25.064,0,0,0-1.139-5.775Z" transform="translate(-1888.395 -1695.863)" fill="#2f6b8c"/>
      </g>
      <g id="Grupo_28799" data-name="Grupo 28799" transform="translate(252.052 214.497)">
        <path id="Trazado_68616" data-name="Trazado 68616" d="M1801.7,1413.86s-8.731,63.43-12.3,84.872c-4.169,25.072-5.583,45.788-6.746,58.764-1.462,16.322-.651,99.849-1.675,104.62s20.649,2.293,20.649,2.293,15.893-108.891,20.25-126.272c4.057-16.186,15.214-82.912,18.916-78.493s15.687,80.43,18.429,93.2,13.81,113.252,13.81,113.252,18.421,4,23.447,0c0,0-1.123-89.6-2.87-113.536-.665-9.122,5.771-109.189-9.652-149.542C1875.808,1381.689,1801.7,1413.86,1801.7,1413.86Z" transform="translate(-1780.946 -1395.712)" fill="#00223d"/>
      </g>
      <path id="Trazado_68617" data-name="Trazado 68617" d="M1803.509,1419.745l-.986,9.524s26.6,10.778,91.371,10.784v-10.9Z" transform="translate(-1531.459 -1184.071)" fill="#61a3a3"/>
      <g id="Grupo_28802" data-name="Grupo 28802" transform="translate(165.576 115.817)">
        <g id="Grupo_28801" data-name="Grupo 28801">
          <g id="Grupo_28800" data-name="Grupo 28800">
            <path id="Trazado_68618" data-name="Trazado 68618" d="M1714.674,1283.724s-3.876,8.554-6.173,9.088-5.031,3.39-7,4.267-8.167,1.36-9.831,2.984c-.679.664-3.28,6.369-4.806,7.568s-4.9,3.254-3.857,4.537,4.562.268,4.562.268a2.513,2.513,0,0,0-.753,2.6c1.108,2.76,2.961,2.88,2.961,2.88s-.589,2.075.161,3.1a4.985,4.985,0,0,0,3.452,2.33,4.744,4.744,0,0,0,1.6,2.853,4.235,4.235,0,0,0,4.119.678s1.843,2.542,3.542,2.046,2.688-1.77,3.9-2.515,9.686-10.517,12.8-19.657a70,70,0,0,1,8.542-16.564Z" transform="translate(-1682.808 -1283.724)" fill="#eea886"/>
          </g>
        </g>
      </g>
      <g id="Grupo_28803" data-name="Grupo 28803" transform="translate(199.2 85.931)">
        <path id="Trazado_68619" data-name="Trazado 68619" d="M1720.966,1322.949s30.1,13.7,40.8,11.063c4.945-1.216,11.458-8.043,17.647-16.067,2.04-2.643,4.043-5.417,5.945-8.163a.017.017,0,0,0,.006-.012c7.594-10.963,13.544-21.474,13.544-21.474s22.447-26.3,4.433-38.03c0,0-6.535-2.45-12.538,3.985s-13.056,19.894-14.631,23.325-23.621,35.229-24.763,35.946-10.779-1.818-18.5-2.462c-12.6-1.049-10.1-1.582-10.1-1.582Z" transform="translate(-1720.966 -1249.807)" fill="#8ec8c8"/>
      </g>
      <path id="Trazado_68620" data-name="Trazado 68620" d="M1828.936,1243.564s-23.108,4.778-25.848,7.206c-2.977,2.583-8.225,27.892-8.54,34.941s2.787,36.5,5.762,47.464-3.919,57.646,1.6,65.34c0,0,47.625,15.277,93.37,9.324,0,0-9.82-44.054-7.99-59.079,2.345-19.251,7.99-63.6,7.99-63.6s-6.113-29.865-10.184-33.311-32.387-9.053-32.387-9.053Z" transform="translate(-1530.507 -1163.043)" fill="#8ec8c8"/>
      <path id="Trazado_68621" data-name="Trazado 68621" d="M1891.97,1312.064s4.364,28.4,4.057,30.22S1915.783,1336.58,1891.97,1312.064Z" transform="translate(-1542.088 -1171.275)" fill="#61a3a3"/>
      <g id="Grupo_28804" data-name="Grupo 28804" transform="translate(0 2.992)">
        <path id="Trazado_68622" data-name="Trazado 68622" d="M1996.517,1478.543l20.072-33.316a11.932,11.932,0,0,0-4.063-16.38l-50.3-30.3a11.934,11.934,0,0,0-16.38,4.063l-20.073,33.315a11.933,11.933,0,0,0,4.062,16.379l50.3,30.305A11.935,11.935,0,0,0,1996.517,1478.543Z" transform="translate(-1545.901 -1184.339)" fill="#c4b4af"/>
        <rect id="Rectángulo_26449" data-name="Rectángulo 26449" width="67.259" height="400.929" transform="translate(441.378 226.672) rotate(121.07)" fill="#7acff7"/>
        <rect id="Rectángulo_26450" data-name="Rectángulo 26450" width="22.42" height="400.929" transform="translate(86.395 38.966) rotate(-58.931)" fill="#f6c343"/>
        <rect id="Rectángulo_26451" data-name="Rectángulo 26451" width="22.42" height="400.928" transform="translate(429.809 245.873) rotate(121.069)" fill="#f6c343"/>
        <rect id="Rectángulo_26452" data-name="Rectángulo 26452" width="22.42" height="400.928" transform="matrix(-0.516, 0.857, -0.857, -0.516, 418.236, 265.08)" fill="#f6c343"/>
        <path id="Trazado_68623" data-name="Trazado 68623" d="M1558.156,1233.055l34.712-57.609-77.926-15.718-20.04-4.044,12.94,15.826Z" transform="translate(-1494.902 -1155.684)" fill="#eddad3"/>
        <path id="Trazado_68624" data-name="Trazado 68624" d="M1592.948,1197.315a11.216,11.216,0,0,0,11.57-19.2Z" transform="translate(-1506.553 -1158.349)" fill="#deccc6"/>
        <path id="Trazado_68625" data-name="Trazado 68625" d="M1579.816,1219.107a11.216,11.216,0,0,0,11.571-19.205Z" transform="translate(-1504.993 -1160.938)" fill="#e3d1ca"/>
        <path id="Trazado_68626" data-name="Trazado 68626" d="M1566.688,1240.9a11.216,11.216,0,0,0,11.57-19.2Z" transform="translate(-1503.434 -1163.528)" fill="#eddad3"/>
        <rect id="Rectángulo_26453" data-name="Rectángulo 26453" width="22.421" height="24.637" transform="matrix(0.516, -0.857, 0.857, 0.516, 420.515, 240.276)" fill="#b39696"/>
        <rect id="Rectángulo_26454" data-name="Rectángulo 26454" width="22.42" height="24.636" transform="translate(441.618 252.99) rotate(121.07)" fill="#dbb8b8"/>
        <rect id="Rectángulo_26455" data-name="Rectángulo 26455" width="22.42" height="24.636" transform="translate(430.048 272.193) rotate(121.067)" fill="#f2cbcb"/>
        <path id="Trazado_68627" data-name="Trazado 68627" d="M1581.3,1194.647l-86.4-38.964,97.967,19.761Z" transform="translate(-1494.902 -1155.684)" fill="#deccc6"/>
        <path id="Trazado_68628" data-name="Trazado 68628" d="M1569.727,1213.852l-74.825-58.168,86.4,38.964Z" transform="translate(-1494.902 -1155.684)" fill="#e3d1ca"/>
        <path id="Trazado_68629" data-name="Trazado 68629" d="M1569.727,1213.852l-74.825-58.168,63.255,77.373Z" transform="translate(-1494.902 -1155.684)" fill="#eddad3"/>
        <path id="Trazado_68630" data-name="Trazado 68630" d="M1507.842,1171.51l7.1-11.782-20.04-4.044Z" transform="translate(-1494.902 -1155.684)" fill="#00223d"/>
      </g>
      <g id="Grupo_28809" data-name="Grupo 28809" transform="translate(292.329 209.596)">
        <g id="Grupo_28808" data-name="Grupo 28808">
          <g id="Grupo_28807" data-name="Grupo 28807">
            <g id="Grupo_28806" data-name="Grupo 28806">
              <g id="Grupo_28805" data-name="Grupo 28805">
                <path id="Trazado_68631" data-name="Trazado 68631" d="M1836.87,1416.8a9.754,9.754,0,0,0,3.029-.716s1.553-1.1,2.706-1.81a9.077,9.077,0,0,1,.913-.513,17.806,17.806,0,0,0,5.032-2.679c1.946-1.622,8.535-10.786,8.535-10.786l-3.943-4.966-3.027-5.176s-15.338,2.374-17.326,3.677a6.448,6.448,0,0,0-.544.4c-1.575,1.267-2.217,2.873-2.965,3.63-.276.281-2.813,3.252-2.614,4.4a3.823,3.823,0,0,0,2.134,3.035s.678,3.1,2.357,4.429a5.673,5.673,0,0,0,3.091,3.938S1835.118,1416.526,1836.87,1416.8Z" transform="translate(-1826.654 -1390.149)" fill="#eea886"/>
              </g>
            </g>
          </g>
        </g>
      </g>
      <path id="Trazado_68632" data-name="Trazado 68632" d="M1879.156,1252.189c-3.03,1.173-6.24,8.5-3.855,22.881,2.562,15.425,7.656,22.015,9.7,25.62s13.306,25.831,11.282,28.755-21.138,21.782-22.245,23.318-22.447,20.855-22.447,20.855l10.866,15.183s46.086-36,49.68-39.59,14.343-11.144,10.367-23.7c-4.041-12.761-11.3-42.633-12.59-44.969S1899.19,1244.431,1879.156,1252.189Z" transform="translate(-1537.29 -1164.022)" fill="#8ec8c8"/>
      <g id="Grupo_28811" data-name="Grupo 28811" transform="translate(169.21 135.316)">
        <g id="Grupo_28810" data-name="Grupo 28810">
          <path id="Trazado_68633" data-name="Trazado 68633" d="M1688.528,1313.935s7.388-8.232,11.073-8.08,1.178,3.266,1.178,3.266,2.428-3.123,5.054-1.475-.5,5.144-.5,5.144a3.046,3.046,0,0,1,4.4.714c1.944,2.594-1.287,4.909-1.287,4.909s4.88-.726,3.841,3.26c-1.755,6.73-9.02,9.943-9.02,9.943s-2.076.811-3.773-1.82c0,0-4.591,1.722-5.856-3.562,0,0-5.505-1.274-3.818-5.537C1689.826,1320.7,1684.291,1318.566,1688.528,1313.935Z" transform="translate(-1686.931 -1305.853)" fill="#eea886"/>
        </g>
      </g>
      <path id="Trazado_68634" data-name="Trazado 68634" d="M1821.706,1245.24s-1.389-6.32,18.4-7.786,33.172,2.981,33.547,8.658-50.129,19.851-50.129,19.851Z" transform="translate(-1533.737 -1162.375)" fill="#61a3a3"/>
      <path id="Trazado_68635" data-name="Trazado 68635" d="M1840.892,1162.406s-27.8-10.285-26.057,26.652,8.248,40.692,26.535,35.532,19.815-28.47,22.2-39.685S1849.98,1164.018,1840.892,1162.406Z" transform="translate(-1532.912 -1153.334)" fill="#eea886"/>
      <path id="Trazado_68636" data-name="Trazado 68636" d="M1828.383,1245.067s6.661,2.935,28.35-6.619c0,0-.613-14.87,3.643-28.758s-29.106,18.517-29.106,18.517c.35.247.418,1.635.217,3.572a39.438,39.438,0,0,1-1.07,5.737C1829.2,1242.162,1829.482,1241.337,1828.383,1245.067Z" transform="translate(-1534.531 -1158.698)" fill="#eea886"/>
      <path id="Trazado_68637" data-name="Trazado 68637" d="M1859.6,1202.179s.08-9.868-4.023-10.775-6.217,4.8-6.217,4.8l-3.3-.177s2.952-10-.96-12.291-27.314-.281-30.25-3.646,1.32-23.361,7.708-25.322,23.824-5.944,34.9,3.92c0,0,9.513,4.109,9.9,11.954S1862.943,1196.828,1859.6,1202.179Z" transform="translate(-1532.81 -1152.288)" fill="#163342"/>
      <path id="Trazado_68638" data-name="Trazado 68638" d="M1830.69,1239.571c21.544-3.621,24.763-15.873,24.813-16.064-8.376,10.8-23.744,10.325-23.744,10.325A39.274,39.274,0,0,1,1830.69,1239.571Z" transform="translate(-1534.804 -1160.75)" fill="#b07c63"/>
      <path id="Trazado_68639" data-name="Trazado 68639" d="M1855.611,1191.643c1.227-3.254,8.161-2.845,7.45,2.316s-6.441,13.107-8.74,11.616S1853.916,1196.131,1855.611,1191.643Z" transform="translate(-1537.486 -1156.717)" fill="#eea886"/>
    </g>
  </g>
</svg>
