<svg id="Grupo_47940" data-name="Grupo 47940" xmlns="http://www.w3.org/2000/svg" xmlns:xlink="http://www.w3.org/1999/xlink" width="509.746" height="652.082" viewBox="0 0 509.746 652.082">
  <defs>
    <linearGradient id="linear-gradient" x1="-61.417" y1="-0.221" x2="-60.908" y2="-1.488" gradientUnits="objectBoundingBox">
      <stop offset="0" stop-color="#fff"/>
      <stop offset="0.153" stop-color="#fef8f5"/>
      <stop offset="0.413" stop-color="#fde5da"/>
      <stop offset="0.745" stop-color="#fac8af"/>
      <stop offset="1" stop-color="#f9ae8a"/>
    </linearGradient>
  </defs>
  <g id="Grupo_47877" data-name="Grupo 47877" transform="translate(0 67.236)">
    <g id="Grupo_47862" data-name="Grupo 47862" transform="translate(0 0)">
      <g id="Grupo_47859" data-name="Grupo 47859" transform="translate(0 306.27)">
        <g id="Grupo_47856" data-name="Grupo 47856" transform="translate(118.122)">
          <path id="Trazado_97889" data-name="Trazado 97889" d="M2403.766,1902.8l4.573,197.526a2.024,2.024,0,0,0,2.013,1.979h0a2.024,2.024,0,0,0,2.034-1.986l3.847-201.648Z" transform="translate(-2403.766 -1898.666)" fill="#00223d"/>
          <path id="Trazado_97890" data-name="Trazado 97890" d="M2412.722,2294.852l.586,25.281a2.025,2.025,0,0,0,4.049-.009l.481-25.247Z" transform="translate(-2408.734 -2118.475)" fill="#3b3b55"/>
        </g>
        <path id="Trazado_97891" data-name="Trazado 97891" d="M2242.44,1906.915l-.168,30.98,158.535.794.156-31.2Z" transform="translate(-2196.045 -1903.242)" fill="#00223d"/>
        <path id="Trazado_97892" data-name="Trazado 97892" d="M2242.313,1963.277l-.042,5.889,158.535.794.03-5.93Z" transform="translate(-2196.045 -1934.514)" fill="#70777d"/>
        <g id="Grupo_47857" data-name="Grupo 47857" transform="translate(0 3.585)">
          <path id="Trazado_97893" data-name="Trazado 97893" d="M2166.371,1912.392l-27.922,232.692a2.1,2.1,0,0,0,2.547,2.3h0a2.1,2.1,0,0,0,1.616-1.73l37-238.938Z" transform="translate(-2138.434 -1906.719)" fill="#898999"/>
          <path id="Trazado_97894" data-name="Trazado 97894" d="M2166.371,1912.392l-27.922,232.692a2.1,2.1,0,0,0,2.547,2.3h0a2.1,2.1,0,0,0,1.616-1.73l37-238.938Z" transform="translate(-2138.434 -1906.719)" fill="#00223d"/>
          <path id="Trazado_97895" data-name="Trazado 97895" d="M2140.645,2401.03l-2.2,18.306a2.1,2.1,0,0,0,4.164.573l2.778-17.932Z" transform="translate(-2138.434 -2180.969)" fill="#3b3b55"/>
        </g>
        <g id="Grupo_47858" data-name="Grupo 47858" transform="translate(210.37 4.433)">
          <path id="Trazado_97896" data-name="Trazado 97896" d="M2624.171,1914.43l25.589,232.96a2.1,2.1,0,0,1-2.572,2.276h0a2.1,2.1,0,0,1-1.6-1.746l-34.608-239.3Z" transform="translate(-2610.981 -1908.623)" fill="#00223d"/>
          <path id="Trazado_97897" data-name="Trazado 97897" d="M2685.294,2419.326a2.1,2.1,0,0,0,4.172-.531l-2.307-20.99-4.615,2.51Z" transform="translate(-2650.686 -2180.03)" fill="#3b3b55"/>
        </g>
      </g>
      <g id="Grupo_47861" data-name="Grupo 47861" transform="translate(1.661 0)">
        <g id="Grupo_47860" data-name="Grupo 47860" transform="translate(5.011 9.196)">
          <path id="Trazado_97898" data-name="Trazado 97898" d="M2153.421,1231.359l224.039,1.122,3.392,312.257-223.047-1.118Z" transform="translate(-2153.421 -1231.359)" fill="#00223d"/>
          <path id="Trazado_97899" data-name="Trazado 97899" d="M2169.028,1547.549l-4.34-298.318,215.049,1.077,3.365,298.313Z" transform="translate(-2159.671 -1241.274)" fill="#fff"/>
        </g>
        <rect id="Rectángulo_28782" data-name="Rectángulo 28782" width="233.955" height="20.094" transform="translate(0.101 0) rotate(0.287)" fill="#00223d"/>
      </g>
    </g>
    <g id="Grupo_47876" data-name="Grupo 47876" transform="translate(24.768 27.319)">
      <g id="Grupo_47865" data-name="Grupo 47865" transform="translate(11.135 185.197)">
        <rect id="Rectángulo_28783" data-name="Rectángulo 28783" width="21.809" height="76.71" transform="translate(172.079 94.996) rotate(-179.981)" fill="#7d6eb2"/>
        <rect id="Rectángulo_28784" data-name="Rectángulo 28784" width="21.809" height="40.944" transform="translate(143.496 94.986) rotate(-179.981)" fill="#7d6eb2"/>
        <rect id="Rectángulo_28785" data-name="Rectángulo 28785" width="21.809" height="56.531" transform="translate(114.251 94.977) rotate(-179.981)" fill="#7d6eb2"/>
        <rect id="Rectángulo_28786" data-name="Rectángulo 28786" width="21.809" height="29.027" transform="translate(83.437 94.967) rotate(-179.981)" fill="#7d6eb2"/>
        <rect id="Rectángulo_28787" data-name="Rectángulo 28787" width="21.809" height="46.948" transform="translate(52.623 94.957) rotate(-179.981)" fill="#7d6eb2"/>
        <rect id="Rectángulo_28788" data-name="Rectángulo 28788" width="21.809" height="76.71" transform="matrix(-1, 0, 0, -1, 21.809, 94.947)" fill="#7d6eb2"/>
        <g id="Grupo_47864" data-name="Grupo 47864" transform="translate(12.187)">
          <path id="Trazado_97900" data-name="Trazado 97900" d="M2311.658,1738.776a.454.454,0,0,1-.141-.021l-33.372-9.925a.494.494,0,0,1-.259-.182l-22.611-31.07a.5.5,0,0,1,.8-.582l22.513,30.934,32.954,9.8,28.4-23.94a.493.493,0,0,1,.4-.11l31.178,5.261,28.488-21.834a.5.5,0,0,1,.6.787l-28.66,21.965a.5.5,0,0,1-.383.1l-31.164-5.259-28.43,23.966A.494.494,0,0,1,2311.658,1738.776Z" transform="translate(-2251.297 -1692.909)" fill="#b1b1bb"/>
          <g id="Grupo_47863" data-name="Grupo 47863">
            <path id="Trazado_97901" data-name="Trazado 97901" d="M2571.383,1695.708a4.379,4.379,0,1,0,4.381-4.377A4.379,4.379,0,0,0,2571.383,1695.708Z" transform="translate(-2426.731 -1689.879)" fill="#898999"/>
            <path id="Trazado_97902" data-name="Trazado 97902" d="M2507.006,1745.047a4.378,4.378,0,1,0,4.379-4.376A4.38,4.38,0,0,0,2507.006,1745.047Z" transform="translate(-2391.013 -1717.253)" fill="#898999"/>
            <path id="Trazado_97903" data-name="Trazado 97903" d="M2437.239,1729.437a4.379,4.379,0,1,0,4.38-4.377A4.378,4.378,0,0,0,2437.239,1729.437Z" transform="translate(-2352.307 -1708.593)" fill="#898999"/>
            <path id="Trazado_97904" data-name="Trazado 97904" d="M2372.209,1784.528a4.378,4.378,0,1,0,4.379-4.376A4.378,4.378,0,0,0,2372.209,1784.528Z" transform="translate(-2316.226 -1739.159)" fill="#898999"/>
            <path id="Trazado_97905" data-name="Trazado 97905" d="M2297.248,1764.649a4.379,4.379,0,1,0,4.38-4.377A4.376,4.376,0,0,0,2297.248,1764.649Z" transform="translate(-2274.637 -1728.129)" fill="#898999"/>
            <path id="Trazado_97906" data-name="Trazado 97906" d="M2246.457,1692.447a4.379,4.379,0,1,0,4.379-4.378A4.379,4.379,0,0,0,2246.457,1692.447Z" transform="translate(-2246.457 -1688.069)" fill="#898999"/>
          </g>
        </g>
      </g>
      <g id="Grupo_47866" data-name="Grupo 47866">
        <path id="Trazado_97907" data-name="Trazado 97907" d="M2240.833,1294.609a6.939,6.939,0,1,0,6.942-6.937A6.94,6.94,0,0,0,2240.833,1294.609Z" transform="translate(-2220.014 -1280.725)" fill="#26aab7"/>
        <path id="Trazado_97908" data-name="Trazado 97908" d="M2194.069,1279.006a6.94,6.94,0,1,0,6.941-6.937A6.94,6.94,0,0,0,2194.069,1279.006Z" transform="translate(-2194.069 -1272.068)" fill="#7d6eb2"/>
        <circle id="Elipse_3901" data-name="Elipse 3901" cx="6.939" cy="6.939" r="6.939" transform="translate(3.734 34.224) rotate(-86.207)" fill="#f6c343"/>
      </g>
      <g id="Grupo_47875" data-name="Grupo 47875" transform="translate(1.141 17.182)">
        <g id="Grupo_47867" data-name="Grupo 47867" transform="translate(36.726 34.719)">
          <path id="Trazado_97909" data-name="Trazado 97909" d="M2281.921,1416.122a.5.5,0,0,1-.375-.821c7.5-8.66,14.952-17.565,22.148-26.465a.5.5,0,0,1,.771.623c-7.2,8.909-14.664,17.822-22.169,26.492A.489.489,0,0,1,2281.921,1416.122Z" transform="translate(-2280.403 -1388.652)" fill="#b1b1bb"/>
          <path id="Trazado_97910" data-name="Trazado 97910" d="M2279.129,1444.765l1.52-6.194,4.925,3.842Z" transform="translate(-2279.129 -1416.348)" fill="#b1b1bb"/>
        </g>
        <g id="Grupo_47868" data-name="Grupo 47868" transform="translate(91.271 37.009)">
          <path id="Trazado_97911" data-name="Trazado 97911" d="M2407.9,1485.144h0a.5.5,0,0,1-.5-.5l.031-90.356a.5.5,0,0,1,.5-.5h0a.5.5,0,0,1,.5.5l-.031,90.356A.5.5,0,0,1,2407.9,1485.144Z" transform="translate(-2404.841 -1393.797)" fill="#b1b1bb"/>
          <path id="Trazado_97912" data-name="Trazado 97912" d="M2404.7,1597.064l-3.054-6.94,6.692,0Z" transform="translate(-2401.651 -1502.722)" fill="#b1b1bb"/>
        </g>
        <g id="Grupo_47869" data-name="Grupo 47869" transform="translate(123.6 37.019)">
          <path id="Trazado_97913" data-name="Trazado 97913" d="M2502.52,1405.783a.494.494,0,0,1-.181-.034l-27.754-10.973a.5.5,0,0,1,.364-.923l27.754,10.973a.5.5,0,0,1-.182.957Z" transform="translate(-2474.271 -1393.818)" fill="#b1b1bb"/>
          <path id="Trazado_97914" data-name="Trazado 97914" d="M2527.7,1416.568l5.454-4.542,6.69,6.281Z" transform="translate(-2503.916 -1403.92)" fill="#b1b1bb"/>
        </g>
        <g id="Grupo_47870" data-name="Grupo 47870" transform="translate(46.283)">
          <rect id="Rectángulo_28789" data-name="Rectángulo 28789" width="101.116" height="33.705" fill="#f1f1f1"/>
          <path id="Trazado_97915" data-name="Trazado 97915" d="M2320.673,1336.619a12.54,12.54,0,0,0-3.451,2.5,4.07,4.07,0,0,0-.949,1.814,3.621,3.621,0,0,0,.172,2,2.285,2.285,0,0,0,1.281,1.383,2.767,2.767,0,0,0,1.92-.117c1.3-.515,2.635-1.13,3.941-1.712,2.626-1.179,5.24-2.384,7.821-3.657s5.128-2.608,7.677-3.94l.4.775a21.719,21.719,0,0,0-4.445,2.93,22.489,22.489,0,0,0-3.642,3.9l-.128-.51a6.883,6.883,0,0,0,4.568.5,23,23,0,0,0,4.566-1.581c1.5-.648,2.977-1.354,4.539-1.875a11.4,11.4,0,0,1,4.882-.662.153.153,0,0,1,.134.167.23.23,0,0,1-.014.045,23.838,23.838,0,0,0-1.726,5.72l-.232-.2c2.705-.946,5.382-1.97,8.053-3.006s5.322-2.123,7.961-3.235,5.275-2.235,7.892-3.4a22.434,22.434,0,0,0,3.728-1.949,6.463,6.463,0,0,0,2.537-3.012l.69.6a61.448,61.448,0,0,0-7.072,4.522c-.563.415-1.121.837-1.67,1.272a5.566,5.566,0,0,0-1.329,1.39,1.285,1.285,0,0,0-.114,1.443,1.581,1.581,0,0,0,1.437.537,6.747,6.747,0,0,0,1.93-.384l2.025-.629,4.046-1.246,8.109-2.46h.006a.4.4,0,0,1,.5.268.4.4,0,0,1,.012.189,18.64,18.64,0,0,1-2.629,6.7l-.23-.488c2.466.384,4.938.727,7.412,1.054s4.952.636,7.435.907a.049.049,0,0,1,.045.055.049.049,0,0,1-.053.043q-3.739-.247-7.474-.592c-2.489-.236-4.972-.522-7.453-.83a.32.32,0,0,1-.278-.355.315.315,0,0,1,.041-.122l.007-.01a18.812,18.812,0,0,0,2.381-6.5l.518.456-8.063,2.6-4.037,1.285-2.02.637a7.743,7.743,0,0,1-2.209.438,3.552,3.552,0,0,1-1.223-.165,2.068,2.068,0,0,1-1.431-2.157,2.813,2.813,0,0,1,.424-1.209,6.491,6.491,0,0,1,1.565-1.672c.558-.445,1.121-.876,1.695-1.3a59.151,59.151,0,0,1,7.232-4.538l0,0a.49.49,0,0,1,.689.6,7.407,7.407,0,0,1-2.93,3.445,23.09,23.09,0,0,1-3.9,2q-3.961,1.684-7.967,3.27t-8.058,3.033c-2.693.989-5.41,1.91-8.119,2.854a.177.177,0,0,1-.232-.2,24.125,24.125,0,0,1,1.8-5.783l.12.212a10.848,10.848,0,0,0-4.736.692c-1.529.533-3,1.236-4.481,1.923a23.488,23.488,0,0,1-4.621,1.745,8.768,8.768,0,0,1-2.513.224,6.787,6.787,0,0,1-2.475-.64.346.346,0,0,1-.164-.457c.011-.015.018-.031.029-.045l.006-.008a21.841,21.841,0,0,1,3.668-4.127,22.557,22.557,0,0,1,4.592-3.085.436.436,0,0,1,.406.772l0,0c-2.537,1.385-5.13,2.662-7.733,3.913s-5.234,2.446-7.9,3.568c-1.341.555-2.641,1.116-4.035,1.623a3.306,3.306,0,0,1-2.306.055,2.806,2.806,0,0,1-1.538-1.718,3.991,3.991,0,0,1-.106-2.254,4.4,4.4,0,0,1,1.108-1.934,11.993,11.993,0,0,1,3.632-2.382.05.05,0,0,1,.066.023A.049.049,0,0,1,2320.673,1336.619Z" transform="translate(-2309.018 -1320.934)" fill="#fff"/>
        </g>
        <g id="Grupo_47872" data-name="Grupo 47872" transform="translate(114.999 53.549)">
          <rect id="Rectángulo_28790" data-name="Rectángulo 28790" width="67.411" height="24.938" fill="#f1f1f1"/>
          <g id="Grupo_47871" data-name="Grupo 47871" transform="translate(9.916 6.584)">
            <path id="Trazado_97916" data-name="Trazado 97916" d="M2509.062,1458.612a.505.505,0,0,1-.267-.077.493.493,0,0,1-.221-.5,33.58,33.58,0,0,1,2.743-8.631,27.366,27.366,0,0,0-10.814,3.863c-1.481.921-5.419,3.364-7.589.925a.5.5,0,0,1-.054-.583c.049-.083.1-.165.149-.248-1.368.753-2.752,1.448-4.121,2.112a14.429,14.429,0,0,1-6.029,1.842c-2.016.046-4.587-.979-5.428-3.254a3.936,3.936,0,0,1,.647-3.671,3.028,3.028,0,0,1,2.714-1.278.5.5,0,0,1-.1.986,2.089,2.089,0,0,0-1.831.9,2.916,2.916,0,0,0-.5,2.72c.662,1.8,2.737,2.607,4.414,2.607h.07a13.623,13.623,0,0,0,5.611-1.742c1.965-.953,3.964-1.974,5.9-3.134a19.527,19.527,0,0,1,7.335-5.662.5.5,0,0,1,.555.8,35.1,35.1,0,0,1-7.227,5.62,18.243,18.243,0,0,0-1.1,1.578c1.508,1.215,4.156-.171,6.064-1.356a28.362,28.362,0,0,1,12.131-4.11.5.5,0,0,1,.49.717,32.775,32.775,0,0,0-2.825,8,46.284,46.284,0,0,1,11.486-5.524.5.5,0,0,1,.648.488l-.108,3.158c3.346-.075,6.732-.2,10.078-.363a.5.5,0,0,1,.519.47.494.494,0,0,1-.471.519c-3.529.175-7.1.3-10.626.376a.552.552,0,0,1-.365-.148.508.508,0,0,1-.144-.364l.1-2.972a45.279,45.279,0,0,0-11.55,5.854A.491.491,0,0,1,2509.062,1458.612Z" transform="translate(-2477.226 -1445.739)" fill="#fff"/>
          </g>
        </g>
        <g id="Grupo_47873" data-name="Grupo 47873" transform="translate(60.448 134.822)">
          <rect id="Rectángulo_28791" data-name="Rectángulo 28791" width="76.994" height="30.458" fill="#f1f1f1"/>
          <path id="Trazado_97917" data-name="Trazado 97917" d="M2377.306,1647.32q-.338,0-.686-.032a.5.5,0,0,1-.447-.525,19.214,19.214,0,0,1,2.5-8.267q-2.57,2.184-5.228,4.241c-1.844,1.429-3.535,1.661-4.518.624a2.855,2.855,0,0,1-.612-2.336,16.264,16.264,0,0,1,.748-3.132c.544-1.758,1.059-3.427.379-4.8l-19.594,9.3a3.291,3.291,0,0,1-2.1.443c-1.388-.305-1.9-1.9-1.789-3.253a7.425,7.425,0,0,1,6.467-6.6.5.5,0,0,1,.1.986,6.491,6.491,0,0,0-5.58,5.7c-.077.943.251,2.037,1.013,2.2a2.448,2.448,0,0,0,1.463-.37l20-9.495a.494.494,0,0,1,.62.167c1.259,1.827.6,3.954-.036,6.012a15.4,15.4,0,0,0-.708,2.934,2.033,2.033,0,0,0,.345,1.558c.907.958,2.817-.436,3.192-.725,2.957-2.29,5.854-4.717,8.634-7.236a18.234,18.234,0,0,1,1.8-1.659.5.5,0,0,1,.648.748q-.874.819-1.762,1.625a18.484,18.484,0,0,0-4.966,10.9h.107c2.846,0,5.172-2,7.626-4.115,2.236-1.923,4.549-3.911,7.4-4.462a.5.5,0,0,1,.489.188,3.364,3.364,0,0,1,.3,2.664c-.147.928-.208,1.518.165,1.9a2.277,2.277,0,0,0,1.841.27l17.22-2.114a.5.5,0,0,1,.121.983l-17.22,2.114a3.116,3.116,0,0,1-2.671-.561,3,3,0,0,1-.435-2.749,3.584,3.584,0,0,0,.029-1.648c-2.449.594-4.556,2.408-6.6,4.164C2383.092,1645.108,2380.521,1647.32,2377.306,1647.32Z" transform="translate(-2339.924 -1623.746)" fill="#fff"/>
        </g>
        <g id="Grupo_47874" data-name="Grupo 47874" transform="translate(0 68.711)">
          <rect id="Rectángulo_28792" data-name="Rectángulo 28792" width="63.445" height="20.886" fill="#f1f1f1"/>
          <path id="Trazado_97918" data-name="Trazado 97918" d="M2217.761,1491.5a3.062,3.062,0,0,1-2.167-.839.5.5,0,0,1-.149-.446,8.109,8.109,0,0,1,5.015-6.093.5.5,0,0,1,.354.927,7.112,7.112,0,0,0-4.339,5.055c1.612,1.166,4.24-.558,5.328-1.382l6.659-5.035a.5.5,0,0,1,.782.285l.792,3.471a34.153,34.153,0,0,1,9.231-5.194.493.493,0,0,1,.667.487l-.176,3.635a3.171,3.171,0,0,1,1.716-.394,8.549,8.549,0,0,1,1.465.243,6.936,6.936,0,0,0,1.4.224,7.086,7.086,0,0,0,3.367-1.177c.371-.2.755-.409,1.142-.594,1.567-.751,3.55-.977,4.814.009a7.69,7.69,0,0,1,6.02-3.232,17.644,17.644,0,0,1,7.256,1.493.5.5,0,1,1-.353.926,16.782,16.782,0,0,0-6.845-1.429,6.462,6.462,0,0,0-5.518,3.268.5.5,0,0,1-.843.087c-.84-1.105-2.715-.891-4.1-.229-.364.174-.735.377-1.1.572a7.949,7.949,0,0,1-3.859,1.3,7.784,7.784,0,0,1-1.6-.248,7.687,7.687,0,0,0-1.3-.221c-.757-.038-1.648.326-1.744.986a.5.5,0,0,1-.987-.094l.215-4.409a33.187,33.187,0,0,0-8.861,5.261.494.494,0,0,1-.8-.272l-.8-3.5-6.049,4.574A8.612,8.612,0,0,1,2217.761,1491.5Z" transform="translate(-2207.065 -1474.121)" fill="#fff"/>
        </g>
      </g>
    </g>
  </g>
  <g id="Grupo_47936" data-name="Grupo 47936" transform="translate(128.218 29.88)">
    <g id="Grupo_47896" data-name="Grupo 47896" transform="translate(250.19)">
      <path id="Trazado_97919" data-name="Trazado 97919" d="M2989.731,1152.654a15.332,15.332,0,0,0-1.29,6.122c.066,2.264.853,4.461.941,6.725a19.991,19.991,0,0,0,.163,3.746,3.086,3.086,0,0,0,2.426,2.543c.566-3.325,1.181-6.769,3.1-9.543.783-1.132,1.764-2.122,2.46-3.307,2.307-3.926,1.053-9.084,2.894-13.249.692-1.57,4.2-5.107,3.794-6.832-.444-1.876-4.353,1.294-5.39,2.07A27.644,27.644,0,0,0,2989.731,1152.654Z" transform="translate(-2988.436 -1133.164)" fill="#292931"/>
      <path id="Trazado_97920" data-name="Trazado 97920" d="M3064.51,1242.571s.041,23.389,2.327,30.892c.206,5.469-17.8,21.431-25.822,1.818-.089.242-2.781-23.269-3.578-26.235C3037.369,1249.59,3064.51,1242.571,3064.51,1242.571Z" transform="translate(-3015.622 -1191.027)" fill="#fabea1"/>
      <g id="Grupo_47878" data-name="Grupo 47878" transform="translate(48.276)">
        <path id="Trazado_97921" data-name="Trazado 97921" d="M3102.838,1129.531a9.442,9.442,0,0,1,6.835-2.73,9.194,9.194,0,0,1,7.875,6.139,11.914,11.914,0,0,1-1.357,10.143,27.771,27.771,0,0,1-3.09,3.826l-4.875,5.356a2.236,2.236,0,0,1-.707.588c-.865.383-1.776-.412-2.338-1.174-2.328-3.162-3.673-7.166-6.812-9.526-.649-.487-1.436-1.012-1.489-1.823-.106-1.623,1.8-3.7,2.486-5.168A17.374,17.374,0,0,1,3102.838,1129.531Z" transform="translate(-3096.877 -1126.792)" fill="#292931"/>
        <path id="Trazado_97922" data-name="Trazado 97922" d="M3112.561,1145.541a.182.182,0,0,1-.041,0,.251.251,0,0,1-.208-.288,21.969,21.969,0,0,1,1.185-4.81,8.144,8.144,0,0,1,3.1-3.9,8.5,8.5,0,0,1,3.7-1.109,7.316,7.316,0,0,1,3.709.452,3.835,3.835,0,0,1,2.343,2.914.249.249,0,0,1-.218.28.246.246,0,0,1-.28-.219,3.379,3.379,0,0,0-2.049-2.517,6.82,6.82,0,0,0-3.458-.41,7.994,7.994,0,0,0-3.488,1.037,7.65,7.65,0,0,0-2.9,3.663,21.355,21.355,0,0,0-1.154,4.7A.251.251,0,0,1,3112.561,1145.541Z" transform="translate(-3105.44 -1131.554)" fill="#656569"/>
        <path id="Trazado_97923" data-name="Trazado 97923" d="M3117.717,1156.66a.25.25,0,0,1-.162-.442,9.47,9.47,0,0,0,3.087-5.089,7.644,7.644,0,0,0-.374-4.083,3.063,3.063,0,0,0-1.987-2.156,3.212,3.212,0,0,0-2.931.78.251.251,0,0,1-.323-.385,3.693,3.693,0,0,1,3.395-.876,3.542,3.542,0,0,1,2.323,2.484,8.131,8.131,0,0,1,.388,4.349,10,10,0,0,1-3.256,5.361A.25.25,0,0,1,3117.717,1156.66Z" transform="translate(-3106.898 -1136.498)" fill="#656569"/>
      </g>
      <g id="Grupo_47884" data-name="Grupo 47884" transform="translate(0.676 19.627)">
        <path id="Trazado_97924" data-name="Trazado 97924" d="M2989.955,1225.432l7.785,2.393.25,2.13-7.965-1.37Z" transform="translate(-2989.955 -1201.145)" fill="#51517b"/>
        <g id="Grupo_47883" data-name="Grupo 47883" transform="translate(1.825)">
          <g id="Grupo_47880" data-name="Grupo 47880">
            <g id="Grupo_47879" data-name="Grupo 47879">
              <path id="Trazado_97925" data-name="Trazado 97925" d="M3039.413,1198.394c-1.374,8.7-6.819,20.95-14.508,26.753a16.269,16.269,0,0,1-10.517,3.309c-1.548-.047-3.121.431-4.141-.963-7.916-10.8-17.688-30.137-16-40.841,1.932-12.232,8.94-17.347,24.73-15.357C3031.265,1172.845,3041.345,1186.162,3039.413,1198.394Z" transform="translate(-2994.056 -1170.878)" fill="#fabea1"/>
            </g>
          </g>
          <g id="Grupo_47882" data-name="Grupo 47882" transform="translate(20.894 41.198)">
            <g id="Grupo_47881" data-name="Grupo 47881">
              <path id="Trazado_97926" data-name="Trazado 97926" d="M3041.214,1280.034a.227.227,0,0,1,0-.453,15.942,15.942,0,0,0,9.593-3.27c4.623-3.489,7.9-8.869,9.838-12.766a.227.227,0,0,1,.407.2c-1.958,3.942-5.278,9.384-9.969,12.927a16.385,16.385,0,0,1-9.862,3.361Z" transform="translate(-3040.988 -1263.419)" fill="#ac6f51"/>
            </g>
          </g>
        </g>
      </g>
      <g id="Grupo_47887" data-name="Grupo 47887" transform="translate(2.831 35.994)">
        <path id="Trazado_97927" data-name="Trazado 97927" d="M3062.014,1239.448c.223,1.143-.844,2.315-2.384,2.619s-2.976-.376-3.2-1.519.844-2.314,2.384-2.617S3061.788,1238.306,3062.014,1239.448Z" transform="translate(-3028.974 -1224.407)" fill="#f9ae8a" opacity="0.58" style="mix-blend-mode: multiply;isolation: isolate"/>
        <path id="Trazado_97928" data-name="Trazado 97928" d="M3002.83,1243.929a3.059,3.059,0,0,0-1.246.546q.581,1.518,1.235,3.048a3.183,3.183,0,0,0,.71-.052c1.322-.26,2.237-1.265,2.043-2.243S3004.152,1243.668,3002.83,1243.929Z" transform="translate(-2998.561 -1227.741)" fill="#f9ae8a" opacity="0.58" style="mix-blend-mode: multiply;isolation: isolate"/>
        <path id="Trazado_97929" data-name="Trazado 97929" d="M3037.415,1262.5s-6.272,3.815-10.13,3.667C3027.449,1266.273,3034.649,1276.156,3037.415,1262.5Z" transform="translate(-3012.821 -1238.081)" fill="#fff"/>
        <g id="Grupo_47885" data-name="Grupo 47885" transform="translate(22.56 8.156)">
          <path id="Trazado_97930" data-name="Trazado 97930" d="M3049.491,1227.908a.242.242,0,0,0,.145-.046.253.253,0,0,0,.063-.355c-.75-1.067-1.506-1.594-2.325-1.538a2.66,2.66,0,0,0-1.872,1.381.255.255,0,1,0,.45.242c.005-.009.584-1.063,1.456-1.114.583-.02,1.232.41,1.873,1.323A.26.26,0,0,0,3049.491,1227.908Z" transform="translate(-3045.472 -1225.965)" fill="#292931"/>
          <path id="Trazado_97931" data-name="Trazado 97931" d="M3049.694,1228.668c.206,1.346-.276,2.537-1.081,2.661s-1.624-.867-1.831-2.212.277-2.537,1.08-2.66S3049.487,1227.322,3049.694,1228.668Z" transform="translate(-3046.172 -1226.231)" fill="#292931"/>
        </g>
        <g id="Grupo_47886" data-name="Grupo 47886" transform="translate(3.493 9.341)">
          <path id="Trazado_97932" data-name="Trazado 97932" d="M3006.662,1230.569a.27.27,0,0,0,.145-.046.253.253,0,0,0,.061-.356c-.749-1.067-1.5-1.594-2.323-1.537a2.654,2.654,0,0,0-1.872,1.382.255.255,0,0,0,.449.241c.007-.01.583-1.062,1.457-1.114.583-.022,1.231.409,1.873,1.321A.26.26,0,0,0,3006.662,1230.569Z" transform="translate(-3002.642 -1228.626)" fill="#292931"/>
          <path id="Trazado_97933" data-name="Trazado 97933" d="M3006.864,1231.329c.208,1.346-.275,2.537-1.079,2.661s-1.626-.867-1.833-2.212.277-2.537,1.081-2.66S3006.657,1229.984,3006.864,1231.329Z" transform="translate(-3003.342 -1228.893)" fill="#292931"/>
        </g>
        <path id="Trazado_97934" data-name="Trazado 97934" d="M3020.193,1243.126a.241.241,0,0,1-.078-.013,10.565,10.565,0,0,1-1.5-.687,1.84,1.84,0,0,1-.7-.581,2.1,2.1,0,0,1,.1-1.862,27.362,27.362,0,0,0,1.756-12.149.227.227,0,1,1,.453-.038,27.83,27.83,0,0,1-1.786,12.353c-.2.524-.383,1.069-.137,1.452a1.478,1.478,0,0,0,.535.43,10.017,10.017,0,0,0,1.434.657.227.227,0,0,1-.079.44Z" transform="translate(-3007.519 -1218.708)" fill="#ac6f51"/>
        <path id="Trazado_97935" data-name="Trazado 97935" d="M3051.142,1208.434c-.642-.965-5.689-.818-6.762-.717a9.419,9.419,0,0,0-4.681,1.5c-1.973,1.5-.911,3.434,1.328,3.725,2.6.339,5.333-1,7.778-1.71a4.926,4.926,0,0,0,1.919-.85A1.6,1.6,0,0,0,3051.142,1208.434Z" transform="translate(-3019.133 -1207.643)" fill="#292931"/>
        <path id="Trazado_97936" data-name="Trazado 97936" d="M3002.972,1215a13.088,13.088,0,0,0-4.543-1.334c-1.224-.045-3.656-.021-3.634,1.579.02,1.574,2.309,1.958,3.447,2a16.06,16.06,0,0,1,2.816.168c.861.187,1.906.55,2.506-.093C3004.462,1216.356,3003.957,1215.583,3002.972,1215Z" transform="translate(-2994.794 -1210.978)" fill="#292931"/>
      </g>
      <g id="Grupo_47890" data-name="Grupo 47890" transform="translate(0.128 0.095)">
        <path id="Trazado_97937" data-name="Trazado 97937" d="M3032.756,1127.811a22.532,22.532,0,0,1,11.746,7.378,10.809,10.809,0,0,1,2.01,3.243c3.262,9.1-9.151,11.134-15,12.005a30.21,30.21,0,0,0-13.149,5.344c-2.146,1.545-4.131,3.4-6.593,4.367a5.152,5.152,0,0,1-2.738.405,5.961,5.961,0,0,1-3.044-1.9c-3.581-3.628-7.521-10.139-5.771-15.314a21.368,21.368,0,0,1,7.76-10.239C3015.1,1127.9,3024.5,1125.676,3032.756,1127.811Z" transform="translate(-2994.859 -1127.006)" fill="#292931"/>
        <path id="Trazado_97938" data-name="Trazado 97938" d="M3091.4,1169.549a30.687,30.687,0,0,0-6.062-17.238,15.511,15.511,0,0,0-4.963-4.557,11.019,11.019,0,0,0-10.122.275c-2.873,1.5-6.353,4.608-7.493,7.672-1.361,3.657.327,3.433,2.469,5.891a20.751,20.751,0,0,1,4.512,17.552,8.836,8.836,0,0,0-.362,3.427,2.375,2.375,0,0,0,2.358,2.079c1.682-.227,2.044-2.591,3.432-3.564,1.684-1.178,4.175.341,4.722,2.322s-.217,4.062-.991,5.963-1.6,3.943-1.16,5.952a1.026,1.026,0,0,0,.246.537c.418.4,1.085-.02,1.491-.43,5.667-5.726,10.513-12.534,11.659-20.69A29.807,29.807,0,0,0,3091.4,1169.549Z" transform="translate(-3029.531 -1137.905)" fill="#292931"/>
        <g id="Grupo_47889" data-name="Grupo 47889" transform="translate(0 1.513)">
          <g id="Grupo_47888" data-name="Grupo 47888" transform="translate(6.107)">
            <path id="Trazado_97939" data-name="Trazado 97939" d="M3068.09,1165.961a.251.251,0,0,1-.207-.393,25.186,25.186,0,0,1,18.433-10.7.251.251,0,0,1,.042.5,24.685,24.685,0,0,0-18.061,10.484A.248.248,0,0,1,3068.09,1165.961Z" transform="translate(-3038.726 -1143.977)" fill="#656569"/>
            <path id="Trazado_97940" data-name="Trazado 97940" d="M3002.693,1156.723h-.018a.251.251,0,0,1-.231-.269,30.736,30.736,0,0,1,10.339-20.76.251.251,0,1,1,.33.378,30.234,30.234,0,0,0-10.17,20.417A.251.251,0,0,1,3002.693,1156.723Z" transform="translate(-3002.443 -1133.305)" fill="#656569"/>
            <path id="Trazado_97941" data-name="Trazado 97941" d="M3015.917,1160.921a.251.251,0,0,1-.248-.233c-.552-7.687,2.951-15.9,9.609-22.524a28.312,28.312,0,0,1,8.648-6.134,20.173,20.173,0,0,1,11.314-1.306.251.251,0,0,1-.106.491,19.616,19.616,0,0,0-11.008,1.277,27.862,27.862,0,0,0-8.5,6.029c-6.553,6.524-10,14.591-9.46,22.132a.252.252,0,0,1-.232.269Z" transform="translate(-3009.749 -1130.405)" fill="#656569"/>
            <path id="Trazado_97942" data-name="Trazado 97942" d="M3031.951,1168.025a.293.293,0,0,1-.057-.006.251.251,0,0,1-.188-.3,32.925,32.925,0,0,1,15.629-20.8c3.032-1.708,9-4.292,14.93-2.4a.251.251,0,1,1-.152.478c-5.746-1.836-11.57.689-14.53,2.357a32.4,32.4,0,0,0-15.388,20.479A.25.25,0,0,1,3031.951,1168.025Z" transform="translate(-3018.674 -1137.866)" fill="#656569"/>
          </g>
          <path id="Trazado_97943" data-name="Trazado 97943" d="M3080.1,1183.027a.252.252,0,0,1-.109-.478c8.55-4.07,13.845-8.9,17.167-15.647a.251.251,0,1,1,.451.223c-3.375,6.859-8.742,11.756-17.4,15.878A.235.235,0,0,1,3080.1,1183.027Z" transform="translate(-3039.281 -1150.576)" fill="#656569"/>
          <path id="Trazado_97944" data-name="Trazado 97944" d="M3109.592,1194.877a.25.25,0,0,1-.2-.4,32.361,32.361,0,0,0,6.267-16.413.248.248,0,0,1,.273-.229.251.251,0,0,1,.228.27,32.836,32.836,0,0,1-6.359,16.664A.25.25,0,0,1,3109.592,1194.877Z" transform="translate(-3055.643 -1156.72)" fill="#656569"/>
          <path id="Trazado_97945" data-name="Trazado 97945" d="M2992.549,1183.784a.247.247,0,0,1-.123-.033,6.816,6.816,0,0,1-2.84-3.472,12.147,12.147,0,0,1-.86-3.677.25.25,0,0,1,.219-.278.246.246,0,0,1,.278.22,11.772,11.772,0,0,0,.829,3.548,6.327,6.327,0,0,0,2.619,3.22.251.251,0,0,1-.123.471Z" transform="translate(-2988.725 -1155.881)" fill="#656569"/>
        </g>
      </g>
      <g id="Grupo_47892" data-name="Grupo 47892" transform="translate(0.676 42.464)">
        <path id="Trazado_97946" data-name="Trazado 97946" d="M3025.41,1222.6l-5.5-.151.028.017c-.087,0-.173-.013-.26-.011l-8.073.216c-.1,0-.2.01-.3.021a8.235,8.235,0,0,0-3.386.637c-.021-.016-3.2-.388-4.625.258a5.258,5.258,0,0,0-2.6-.419,2.27,2.27,0,0,0-.228,0l-6.15.2a.957.957,0,0,1-.175.006l-4.182.41.07,3.153s.938-.175,1.072,2.347a3.488,3.488,0,0,0,1.2,2.63l.224.181a2.329,2.329,0,0,0,1.554.543l5.948-.192a2.542,2.542,0,0,0,2.02-1.22l.666-1.009a3.694,3.694,0,0,0,.584-1.892c.017-.437,0-.877.037-1.313a1.778,1.778,0,0,1,.319-1.064,2.8,2.8,0,0,1,1.875-.74,2.666,2.666,0,0,1,2.063.7,4.45,4.45,0,0,1,.6,2.565,3.523,3.523,0,0,0,.878,2.011l.931,1.047a3.5,3.5,0,0,0,2.717,1.182l7.81-.209a3.485,3.485,0,0,0,2.007-.7l.283-.211a3.551,3.551,0,0,0,1.416-2.937c.031-2.744,1.271-2.62,1.271-2.62Zm-22.763,5.678a2.732,2.732,0,0,1-.435,1.4l-.665,1.009a1.945,1.945,0,0,1-1.545.928l-5.948.193a1.806,1.806,0,0,1-1.194-.416l-.222-.181a2.581,2.581,0,0,1-.9-1.957,23,23,0,0,1-.118-3.274,1.986,1.986,0,0,1,.593-1.242,2.2,2.2,0,0,1,1.142-.473,61.51,61.51,0,0,1,7.119-.282,1.8,1.8,0,0,1,1.192.415l.14.113a2.614,2.614,0,0,1,.9,2.132Zm19.677,2.575-.281.211a2.693,2.693,0,0,1-1.54.535l-7.81.209a2.679,2.679,0,0,1-2.079-.9l-.932-1.047a2.641,2.641,0,0,1-.65-1.491l-.176-1.765a2.643,2.643,0,0,1,1.051-2.375l.179-.134a2.684,2.684,0,0,1,1.538-.534l8.074-.216a2.689,2.689,0,0,1,1.421.361l.885.513a2.648,2.648,0,0,1,1.323,2.216l.059,2.229A2.643,2.643,0,0,1,3022.325,1230.849Z" transform="translate(-2989.955 -1222.326)" fill="#6c6ca4"/>
        <g id="Grupo_47891" data-name="Grupo 47891" transform="translate(1.627 1.018)">
          <path id="Trazado_97947" data-name="Trazado 97947" d="M3004.676,1230.19a2.754,2.754,0,0,1-.435,1.4l-.665,1.009a1.945,1.945,0,0,1-1.546.927l-5.948.193a1.8,1.8,0,0,1-1.193-.416l-.222-.181a2.588,2.588,0,0,1-.9-1.957,22.719,22.719,0,0,1-.116-3.274,1.975,1.975,0,0,1,.593-1.242,2.189,2.189,0,0,1,1.141-.472,61.408,61.408,0,0,1,7.119-.282,1.8,1.8,0,0,1,1.192.415l.141.113a2.62,2.62,0,0,1,.9,2.132Z" transform="translate(-2993.611 -1225.259)" fill="#fff" opacity="0.23"/>
          <path id="Trazado_97948" data-name="Trazado 97948" d="M3045.865,1231.969l-.283.211a2.7,2.7,0,0,1-1.54.535l-7.811.209a2.681,2.681,0,0,1-2.079-.9l-.93-1.047a2.651,2.651,0,0,1-.653-1.491l-.175-1.764a2.635,2.635,0,0,1,1.052-2.375l.178-.134a2.694,2.694,0,0,1,1.538-.534l8.074-.216a2.7,2.7,0,0,1,1.422.361l.885.513a2.644,2.644,0,0,1,1.323,2.216l.059,2.229A2.645,2.645,0,0,1,3045.865,1231.969Z" transform="translate(-3015.122 -1224.463)" fill="#fff" opacity="0.23"/>
        </g>
        <path id="Trazado_97949" data-name="Trazado 97949" d="M3069.6,1222.447l12.462-.269.557,2.87-12.926.825Z" transform="translate(-3034.141 -1222.178)" fill="#8989b6"/>
      </g>
      <g id="Grupo_47895" data-name="Grupo 47895" transform="translate(41.675 36.594)">
        <g id="Grupo_47894" data-name="Grupo 47894">
          <g id="Grupo_47893" data-name="Grupo 47893">
            <path id="Trazado_97950" data-name="Trazado 97950" d="M3094.114,1220.134c-1.256,4.5-4.8,7.435-7.906,6.567s-5.025-7.211-3.77-11.707,5.709-6.684,8.819-5.816S3095.371,1215.638,3094.114,1220.134Z" transform="translate(-3082.049 -1208.991)" fill="#fabea1"/>
            <path id="Trazado_97951" data-name="Trazado 97951" d="M3093.7,1226.349a.255.255,0,0,1-.054-.006.279.279,0,0,1-.22-.329,3.708,3.708,0,0,0-.428-3.16,2.278,2.278,0,0,0-1.66-.745.29.29,0,0,1-.289-.271.28.28,0,0,1,.271-.289,2.842,2.842,0,0,1,2.1.935,4.218,4.218,0,0,1,.554,3.639A.283.283,0,0,1,3093.7,1226.349Z" transform="translate(-3087.041 -1215.958)" fill="#ac6f51"/>
            <path id="Trazado_97952" data-name="Trazado 97952" d="M3088.344,1224.241a.231.231,0,0,1-.221-.17,9.633,9.633,0,0,1,.756-6.021,6.883,6.883,0,0,1,1.568-2.546,5.034,5.034,0,0,1,1.823-1.044,3.5,3.5,0,0,1,2.588-.019,2.865,2.865,0,0,1,1.525,1.948,4.444,4.444,0,0,1-.169,2.444.228.228,0,0,1-.432-.145,3.976,3.976,0,0,0,.16-2.191,2.409,2.409,0,0,0-1.273-1.642,3.155,3.155,0,0,0-2.255.036,4.6,4.6,0,0,0-1.659.948,6.493,6.493,0,0,0-1.455,2.383,9.187,9.187,0,0,0-.737,5.737.228.228,0,0,1-.163.277A.217.217,0,0,1,3088.344,1224.241Z" transform="translate(-3085.302 -1211.883)" fill="#ac6f51"/>
            <path id="Trazado_97953" data-name="Trazado 97953" d="M3088.959,1225.666a2.754,2.754,0,0,0,2.983,1.562,3.46,3.46,0,0,0,1.495-1.078,12.121,12.121,0,0,0,3.115-7.7,4.274,4.274,0,0,0-.432-2.283,3.034,3.034,0,0,0-2.822-1.383,5.3,5.3,0,0,0-3.079,1.809A8.649,8.649,0,0,0,3088.959,1225.666Z" transform="translate(-3085.455 -1212.203)" opacity="0.63" fill="url(#linear-gradient)" style="mix-blend-mode: multiply;isolation: isolate"/>
          </g>
        </g>
        <path id="Trazado_97954" data-name="Trazado 97954" d="M3089.554,1247.009c-.05,0-.1,0-.152,0a5.28,5.28,0,0,1-3.752-1.817.227.227,0,1,1,.344-.3,4.826,4.826,0,0,0,3.426,1.659,1.774,1.774,0,0,0,1.307-.359.227.227,0,0,1,.311.331A2.091,2.091,0,0,1,3089.554,1247.009Z" transform="translate(-3084.017 -1228.867)" fill="#ac6f51"/>
      </g>
    </g>
    <g id="Grupo_47910" data-name="Grupo 47910" transform="translate(0 114.529)">
      <g id="Grupo_47907" data-name="Grupo 47907" transform="translate(0 60.076)">
        <g id="Grupo_47897" data-name="Grupo 47897" transform="translate(53.782 14.074)">
          <path id="Trazado_97955" data-name="Trazado 97955" d="M2561.427,1557.566c1.1-.769-.751-.843.086-2.172a8.836,8.836,0,0,0,.7-1.481c.013-.063.053-.234.085-.384,0,.01-.009-.012-.015-.074-.021-.043-.048-.108-.087-.2-.1-.213,1.327-2.416,1.286-2.641-1.6.381-3.388,1.194-5.2,1.671a53.092,53.092,0,0,1-6.236,1.559c-.206.027-.6.424-.794.54-.36.219-.744.4-1.111.614q-1.1.629-2.164,1.323a1.407,1.407,0,0,0-.714.814c-.092.483.33.911.762,1.144,1.8.977,3.727.43,5.593-.085a11.01,11.01,0,0,1,3.02-.512C2557.03,1557.686,2560.142,1557.48,2561.427,1557.566Z" transform="translate(-2547.251 -1550.615)" fill="#fabea1"/>
        </g>
        <path id="Trazado_97956" data-name="Trazado 97956" d="M2655.208,1557.784c.477,3.909.477,7.922-4.059,9a12.1,12.1,0,0,1-3.177.178c-3.749-.122-7.894.241-11.588-.379-2.807-.472-3.274-3.114-4.566-5.344-1.34-2.316-2.819-4.565-3.959-6.992-.3-.641-1.2-3.666-1.2-3.666s4.163.057,5.044.155a90.968,90.968,0,0,0,17.915.229,4.522,4.522,0,0,1,1.844.106,3.684,3.684,0,0,1,1.576,1.263A10.962,10.962,0,0,1,2655.208,1557.784Z" transform="translate(-2537.524 -1536.52)" fill="#fabea1"/>
        <g id="Grupo_47899" data-name="Grupo 47899" transform="translate(60.656 13.982)">
          <path id="Trazado_97957" data-name="Trazado 97957" d="M2573.376,1581.017a3.227,3.227,0,0,0,.89.453,6.255,6.255,0,0,0,2.307.219,21.361,21.361,0,0,0,6.567-1.678c2.23-.841,4.5-1.584,6.722-2.435,4.015-1.537,8-3.5,10.887-6.685a3.441,3.441,0,0,0,.777-1.175c.351-1.043-.238-2.146-.806-3.089a13.305,13.305,0,0,0-2.793-3.625c-1.825-1.484-4.274-1.887-6.6-2.221-5.8-.83-11.769-1.538-17.468-.174-1.469.351-2.9.836-4.332,1.321a8.473,8.473,0,0,0-6.266,5.376c-.415.8-.828,1.782-.354,2.544.539.865,1.829.818,2.654,1.418,1.133.825,1.071,2.578,1.974,3.648.451.532,1.121.867,1.488,1.461s.46,1.139,1.1,1.5c.546.3,1.273.219,1.756.644.41.364.448.978.661,1.485A2.458,2.458,0,0,0,2573.376,1581.017Z" transform="translate(-2562.695 -1555.642)" fill="#fabea1"/>
          <g id="Grupo_47898" data-name="Grupo 47898" transform="translate(19.034)">
            <path id="Trazado_97958" data-name="Trazado 97958" d="M2605.57,1589.47h-.01a.12.12,0,0,1-.11-.131,14.711,14.711,0,0,1,.58-3.257,6.479,6.479,0,0,1,1.739-2.821.121.121,0,0,1,.161.18,6.23,6.23,0,0,0-1.669,2.716,14.467,14.467,0,0,0-.571,3.2A.121.121,0,0,1,2605.57,1589.47Z" transform="translate(-2605.45 -1568.619)" fill="#ac6f51"/>
            <path id="Trazado_97959" data-name="Trazado 97959" d="M2643.675,1578.685a.121.121,0,0,1-.118-.093,5.133,5.133,0,0,0-2.563-3.288.121.121,0,0,1,.115-.214,5.383,5.383,0,0,1,2.683,3.444.121.121,0,0,1-.087.147A.165.165,0,0,1,2643.675,1578.685Z" transform="translate(-2625.136 -1564.095)" fill="#ac6f51"/>
            <path id="Trazado_97960" data-name="Trazado 97960" d="M2633.923,1554.675l-.012,0a.118.118,0,0,1-.107-.132,4.147,4.147,0,0,0-2.011-3.911.121.121,0,0,1,.132-.2,4.38,4.38,0,0,1,2.12,4.138A.122.122,0,0,1,2633.923,1554.675Z" transform="translate(-2620.036 -1550.409)" fill="#ac6f51"/>
          </g>
        </g>
        <path id="Trazado_97961" data-name="Trazado 97961" d="M2427.866,1519.174l3.216,1.251,7.733,3.01,18.982,7.387q10.215,3.973,20.423,7.948l17.976,6.994,11.627,4.525c.054.021.561.213,1.085.415a1.4,1.4,0,0,1,.825,1.743h0a1.361,1.361,0,0,1-1.818.857c-10.455-4.325-77.615-32.112-78.526-32.568l-2.767-1.385C2426.045,1519.064,2426.97,1518.825,2427.866,1519.174Z" transform="translate(-2426.443 -1519)" fill="#6c6ca4"/>
        <g id="Grupo_47901" data-name="Grupo 47901" transform="translate(70.186 31.709)">
          <path id="Trazado_97962" data-name="Trazado 97962" d="M2590.345,1595.8a2.135,2.135,0,0,0,.158.435,2.478,2.478,0,0,0,.74,1.009c1.34.95,3.612-1.812,4.487-2.721.822-.855,2.553-2.767,1.028-3.827-.664-.463-1.544-.01-2.207.438-.871.587-1.851,1.122-2.66,1.79a5.14,5.14,0,0,0-1.231,1.676C2590.4,1595.113,2590.252,1595.387,2590.345,1595.8Z" transform="translate(-2587.55 -1590.379)" fill="#fabea1"/>
          <g id="Grupo_47900" data-name="Grupo 47900">
            <path id="Trazado_97963" data-name="Trazado 97963" d="M2589.51,1597.045a.118.118,0,0,1-.1-.059.12.12,0,0,1,.04-.166,12.261,12.261,0,0,0,2.4-2.163c.129-.142.247-.269.345-.37.729-.758,1.687-1.871,1.6-2.786a1.155,1.155,0,0,0-.548-.858c-.477-.331-1.135-.192-2.072.439-1.71,1.153-3.711,2.485-5.8,3.71a2.676,2.676,0,0,0-1.042.882.121.121,0,0,1-.211-.118,2.9,2.9,0,0,1,1.13-.971c2.085-1.222,4.081-2.552,5.79-3.7.647-.437,1.6-.957,2.343-.437a1.411,1.411,0,0,1,.653,1.033c.1,1.015-.9,2.186-1.663,2.979-.1.1-.214.226-.344.366a12.414,12.414,0,0,1-2.451,2.208A.127.127,0,0,1,2589.51,1597.045Z" transform="translate(-2584.099 -1590.226)" fill="#ac6f51"/>
            <path id="Trazado_97964" data-name="Trazado 97964" d="M2598.5,1603.9a.164.164,0,0,1-.037,0,.122.122,0,0,1-.079-.152l.222-.712a.668.668,0,0,0,.038-.159.131.131,0,0,1,.129-.114.12.12,0,0,1,.112.127.874.874,0,0,1-.048.219l-.224.713A.119.119,0,0,1,2598.5,1603.9Z" transform="translate(-2592.021 -1597.18)" fill="#ac6f51"/>
          </g>
        </g>
        <g id="Grupo_47905" data-name="Grupo 47905" transform="translate(60.482 22.589)">
          <g id="Grupo_47902" data-name="Grupo 47902">
            <path id="Trazado_97965" data-name="Trazado 97965" d="M2563.663,1576.286c-.135-.079-.264-.164-.392-.253a2.478,2.478,0,0,1-.866-.9c-.707-1.483,2.4-3.248,3.449-3.954.983-.663,3.163-2.042,3.947-.359.341.735-.253,1.523-.81,2.1-.784.818-1.574,1.632-2.355,2.452-.553.581-.935,1.368-1.883,1.294A2.589,2.589,0,0,1,2563.663,1576.286Z" transform="translate(-2562.302 -1569.892)" fill="#fabea1"/>
            <path id="Trazado_97966" data-name="Trazado 97966" d="M2571.191,1573.451a.12.12,0,0,1-.085-.034.121.121,0,0,1,0-.171c.779-.81,1.593-1.959,1.329-2.528a1.154,1.154,0,0,0-.752-.689c-.881-.245-2.146.508-3.018,1.1-.054.037-1.167.77-1.233.812a.121.121,0,0,1-.166-.036.118.118,0,0,1,.033-.167c.066-.042,1.176-.772,1.232-.81.909-.615,2.23-1.4,3.216-1.128a1.4,1.4,0,0,1,.907.819c.4.854-.951,2.358-1.374,2.8A.118.118,0,0,1,2571.191,1573.451Z" transform="translate(-2565.042 -1569.74)" fill="#ac6f51"/>
          </g>
          <g id="Grupo_47903" data-name="Grupo 47903" transform="translate(2.319 0.327)">
            <path id="Trazado_97967" data-name="Trazado 97967" d="M2570.631,1580.99a1.736,1.736,0,0,1-.488-.023,3.345,3.345,0,0,1-2.261-1.212,2.5,2.5,0,0,1-.024-2.586,4.844,4.844,0,0,1,.927-.991c.951-.84,2.391-1.245,3.458-1.971,1.095-.743,5.571-5.253,6.726-2.667.329.729-.26,1.519-.807,2.1q-2.989,3.182-5.977,6.362A2.567,2.567,0,0,1,2570.631,1580.99Z" transform="translate(-2567.51 -1570.625)" fill="#fabea1"/>
            <path id="Trazado_97968" data-name="Trazado 97968" d="M2573.154,1579.246a.117.117,0,0,1-.083-.032.119.119,0,0,1-.005-.171l5.293-5.636c.77-.82,1.019-1.447.787-1.969a1.1,1.1,0,0,0-.765-.689c-1.311-.3-3.553,1.577-4.9,2.7-.384.319-.686.572-.888.708a11.772,11.772,0,0,1-1.517.822,8.391,8.391,0,0,0-1.929,1.141,4.674,4.674,0,0,0-.9.965.121.121,0,0,1-.167.037.123.123,0,0,1-.037-.166,4.932,4.932,0,0,1,.949-1.017,8.584,8.584,0,0,1,1.983-1.177,11.472,11.472,0,0,0,1.486-.8c.192-.13.49-.379.869-.694,1.379-1.15,3.688-3.081,5.107-2.748a1.34,1.34,0,0,1,.93.826c.366.819-.3,1.666-.831,2.234l-5.294,5.635A.118.118,0,0,1,2573.154,1579.246Z" transform="translate(-2567.796 -1570.475)" fill="#ac6f51"/>
          </g>
          <g id="Grupo_47904" data-name="Grupo 47904" transform="translate(4.61 7.01)">
            <path id="Trazado_97969" data-name="Trazado 97969" d="M2574.711,1592.575a2.1,2.1,0,0,1-2.021-1.719c-.191-1.04.458-1.623,1.285-2.078,1.494-.821,2.984-1.516,4.424-2.423a3.111,3.111,0,0,1,.8-.076c.352-.051.695-.136,1.041-.2q1.047-.183,2.1-.3a1.181,1.181,0,0,1,.9.142,1.011,1.011,0,0,1,.121,1.142c-.642,1.59-2.169,2.261-3.645,2.925a18.488,18.488,0,0,0-2.458,1.573A4.675,4.675,0,0,1,2574.711,1592.575Z" transform="translate(-2572.656 -1585.637)" fill="#fabea1"/>
            <path id="Trazado_97970" data-name="Trazado 97970" d="M2576.616,1592.261a.125.125,0,0,1-.091-.039.122.122,0,0,1,.008-.171,12.439,12.439,0,0,1,3.232-2.152c.122-.058.246-.115.37-.17l.051-.022c1.434-.644,2.918-1.311,3.532-2.838.128-.322.186-.779-.086-1a1.094,1.094,0,0,0-.8-.115c-.7.081-1.406.182-2.088.3-.145.025-.29.055-.436.086-.2.04-.4.082-.61.112a2.426,2.426,0,0,1-.282.014,1.522,1.522,0,0,0-.469.045c-.952.6-1.949,1.121-2.911,1.623-.5.263-1.011.526-1.517.8a5.837,5.837,0,0,0-.795.493.124.124,0,0,1-.172-.02.122.122,0,0,1,.023-.17,6.1,6.1,0,0,1,.827-.515c.508-.279,1.016-.544,1.522-.807.958-.5,1.948-1.016,2.894-1.613a1.281,1.281,0,0,1,.594-.083,2.417,2.417,0,0,0,.249-.009c.2-.03.4-.071.6-.111.148-.031.294-.06.441-.086.689-.12,1.4-.222,2.1-.3a1.267,1.267,0,0,1,.986.17,1.113,1.113,0,0,1,.154,1.279c-.651,1.617-2.178,2.3-3.656,2.968l-.052.023c-.122.055-.245.11-.366.167a12.212,12.212,0,0,0-3.17,2.112A.121.121,0,0,1,2576.616,1592.261Z" transform="translate(-2573.138 -1585.486)" fill="#ac6f51"/>
          </g>
        </g>
        <g id="Grupo_47906" data-name="Grupo 47906" transform="translate(64.982 13.603)">
          <path id="Trazado_97971" data-name="Trazado 97971" d="M2599.276,1551.807a4.272,4.272,0,0,0-3.349-2.053l-.07-.005c-3.288-.221-6.581-.231-9.875-.134-1.743.052-3.507.027-5.253.133a19.829,19.829,0,0,0-2.557.113,21.9,21.9,0,0,0-2.871.931c-.428.144-.842.285-1.247.43a4.125,4.125,0,0,1,.021,1.647,21.034,21.034,0,0,1-1.665,4.813,36.33,36.33,0,0,1,4.631-.73c2.83-.1,4.983,1.981,7.679,2.85,10.067,3.249,16.156-1.4,15.968-1.381C2602.024,1556.995,2600.509,1553.832,2599.276,1551.807Z" transform="translate(-2572.41 -1549.557)" fill="#fabea1"/>
          <path id="Trazado_97972" data-name="Trazado 97972" d="M2591.274,1570.014a30.516,30.516,0,0,1-4.456-.364,39.6,39.6,0,0,1-4.448-1.8c-3.14-1.42-6.107-2.764-9.472-1.821a.121.121,0,1,1-.063-.234c3.446-.965,6.454.394,9.635,1.835a39.662,39.662,0,0,0,4.4,1.78c3.9.573,9.023.839,13.938-2.265a.12.12,0,0,1,.128.2A17.667,17.667,0,0,1,2591.274,1570.014Z" transform="translate(-2572.596 -1558.389)" fill="#ac6f51"/>
        </g>
      </g>
      <g id="Grupo_47909" data-name="Grupo 47909" transform="translate(102.704)">
        <path id="Trazado_97973" data-name="Trazado 97973" d="M2657.248,1459.847c1.3,3.327,4,10.884,3.5,14.841a.453.453,0,0,0,.4.524c6.086.616,70.288-1.916,70.288-1.916l12.393-4.389,8.426-8s51.37-35.688,67.321-45.6c-.9,0-30.27-31.248-30.27-31.248l-55.39,56.032c-2.094-.8-5.248.355-5.566,2.572-7.375.765-14.547,2.812-21.677,4.848-17.488,5-27.095,5.7-48.326,10.313A1.514,1.514,0,0,0,2657.248,1459.847Z" transform="translate(-2657.144 -1384.054)" fill="#167377"/>
        <g id="Grupo_47908" data-name="Grupo 47908" transform="translate(66.797 56.211)">
          <path id="Trazado_97974" data-name="Trazado 97974" d="M2819.872,1526.607a.494.494,0,0,1-.494-.495,18.938,18.938,0,0,0-3.281-10.537.5.5,0,1,1,.818-.559,19.935,19.935,0,0,1,3.454,11.094.5.5,0,0,1-.5.5Z" transform="translate(-2812.083 -1512.805)" fill="#fff"/>
          <path id="Trazado_97975" data-name="Trazado 97975" d="M2832.719,1519.216a1.572,1.572,0,0,1-1.062-.411.5.5,0,0,1,.671-.729.568.568,0,0,0,.95-.351,1.538,1.538,0,0,0-.1-.6,11.977,11.977,0,0,0-1.806-3.56c-.388-.527-.832-1.035-1.259-1.526l-.782-.894a.5.5,0,0,1,.748-.652l.782.895c.439.506.9,1.028,1.309,1.588a12.985,12.985,0,0,1,1.956,3.856,2.419,2.419,0,0,1,.141,1.013,1.554,1.554,0,0,1-1.544,1.375Z" transform="translate(-2819.405 -1510.319)" fill="#fff"/>
          <path id="Trazado_97976" data-name="Trazado 97976" d="M2807.686,1523.628a.5.5,0,0,1-.484-.612,20.161,20.161,0,0,1,2.2-5.461.5.5,0,1,1,.855.5,19.076,19.076,0,0,0-2.091,5.191A.5.5,0,0,1,2807.686,1523.628Z" transform="translate(-2807.188 -1514.197)" fill="#fff"/>
        </g>
      </g>
    </g>
    <g id="Grupo_47921" data-name="Grupo 47921" transform="translate(188.991 237.846)">
      <g id="Grupo_47915" data-name="Grupo 47915" transform="translate(0 0.971)">
        <g id="Grupo_47912" data-name="Grupo 47912" transform="translate(0 325.692)">
          <g id="Grupo_47911" data-name="Grupo 47911">
            <path id="Trazado_97977" data-name="Trazado 97977" d="M2851.394,2460c.1-1.476.306-3.086,1.374-4.1l.665-.091c.024-.014.043-.028.065-.04a9.473,9.473,0,0,1,5.594-.731l22-3c2.5-1.155,4.919-2.5,7.451-3.588a36.057,36.057,0,0,1,15.285-2.735,42.593,42.593,0,0,1,7.8.967c1.847.4,3.519,1.068,5.2.036a21.238,21.238,0,0,1,.444,8.442,3.755,3.755,0,0,1-.5,1.425,3.923,3.923,0,0,1-1.618,1.206c-5.942,2.915-12.529,4.222-18.7,6.625-1.774.69-14.68,6.314-19.754,7.094a36.61,36.61,0,0,1-20.2-2.337,8.939,8.939,0,0,1-4.352-3.46C2851.2,2464.01,2851.257,2461.946,2851.394,2460Z" transform="translate(-2851.162 -2423.051)" fill="#00223d"/>
            <path id="Trazado_97978" data-name="Trazado 97978" d="M2908.325,2399.083c-.577-.409-1.162-.811-1.746-1.225a15.281,15.281,0,0,0-5.6-2.9,11.568,11.568,0,0,0-7.945,1.859,17.08,17.08,0,0,0-2.057,1.808,110.948,110.948,0,0,1-8.494,7.8c-3.388,2.685-6.195,6.021-9.735,8.6a58.235,58.235,0,0,1-11.315,6.471c-3.366,1.44-8.868,1.971-10.223,6-2.174,6.455,10.684,9.191,15.1,9.85a34.336,34.336,0,0,0,21.031-3.48c5.988-3.182,11.231-8.224,17.877-9.452,4.177-.772,9.635-.639,11.19-4.659a8.825,8.825,0,0,0,.406-3.369,24.107,24.107,0,0,0-3.258-12.311A18.131,18.131,0,0,0,2908.325,2399.083Z" transform="translate(-2850.967 -2394.826)" fill="#fabea1"/>
          </g>
          <path id="Trazado_97979" data-name="Trazado 97979" d="M2861.208,2429.7c7.2-3.721,15.788-11.562,18.761-14.272a1.062,1.062,0,0,1,1.383-.044c2.208,1.768,5.463,3.435,6.777,5.99a2.113,2.113,0,0,1,.3,1.232c-.093.654-.68,1.1-1.105,1.606a3.8,3.8,0,0,0-.886,2.167,2.044,2.044,0,0,0,.552,1.7c.721.633,1.833.353,2.733.023a22.316,22.316,0,0,0,5.394-2.61c3.714-2.65,3.238-6.722,5.617-10.25,1.964-2.917,4.851-3.59,8.105-3.9a28.159,28.159,0,0,0,3.064-.553,14.264,14.264,0,0,1,1.65,2.141,24.1,24.1,0,0,1,3.258,12.312,8.823,8.823,0,0,1-.406,3.369c-1.555,4.021-7.014,3.884-11.19,4.658-6.646,1.229-11.889,6.271-17.877,9.453a34.32,34.32,0,0,1-21.031,3.479c-4.416-.658-17.274-3.394-15.1-9.848C2852.568,2432.329,2857.956,2431.38,2861.208,2429.7Z" transform="translate(-2850.967 -2403.683)" fill="#167377"/>
          <path id="Trazado_97980" data-name="Trazado 97980" d="M2863.937,2460.414a.428.428,0,0,0,.284-.108,10.824,10.824,0,0,1,8.54-2.568.436.436,0,0,0,.117-.864,11.724,11.724,0,0,0-9.235,2.78.436.436,0,0,0-.04.615A.445.445,0,0,0,2863.937,2460.414Z" transform="translate(-2857.918 -2429.193)" fill="#fff"/>
          <path id="Trazado_97981" data-name="Trazado 97981" d="M2858.258,2472.335a.461.461,0,0,0,.1-.013.435.435,0,0,0,.319-.526,8.4,8.4,0,0,1-.191-2.9.435.435,0,0,0-.385-.48.441.441,0,0,0-.48.386,9.259,9.259,0,0,0,.209,3.2A.44.44,0,0,0,2858.258,2472.335Z" transform="translate(-2854.629 -2435.653)" fill="#fff"/>
        </g>
        <g id="Grupo_47914" data-name="Grupo 47914" transform="translate(38.442)">
          <path id="Trazado_97982" data-name="Trazado 97982" d="M2978.17,1663.237l-17.573,58s-22.966,249.127-23.279,270.4a1.69,1.69,0,0,0,.312,1.05c3.909,5.17,19.969,5.263,24.378,5.188a1.387,1.387,0,0,0,1.339-1.127l51.015-259.241-.649-70.923Z" transform="translate(-2937.317 -1663.237)" fill="#00223d"/>
          <g id="Grupo_47913" data-name="Grupo 47913" transform="translate(0.536 0.372)">
            <path id="Trazado_97983" data-name="Trazado 97983" d="M3015.268,1735.552l-7.337.067c.036,3.784.069,7.558.106,11.448l5.2-.048c.006.1.014.2.019.293l-5.226.048c.036,3.953.07,7.729.106,11.633l2.807-.025c0,.093.006.186.009.28l-2.882.026c.049,5.308.095,10.47.143,15.631l-.421,0c-.01-1.176-.02-2.35-.033-3.588l-11.411.1c.033,3.779.068,7.527.1,11.432l9.752-.089q0,.167.007.334l-9.761.089c.036,3.922.069,7.669.106,11.587l7.351-.066c0,.1,0,.208,0,.313-2.415.022-4.833.043-7.34.067.037,3.916.071,7.69.107,11.574l4.75-.043c.005.094.01.188.016.283l-4.763.043c.037,3.95.072,7.725.107,11.611.808-.008,1.583-.016,2.36-.022.006.106.016.212.022.318-.765.041-1.527.082-2.5.136q.066,6.9.126,13.754h-.326c-.006-.589-.011-1.179-.016-1.837l-11.444.1c.033,3.784.069,7.558.1,11.442l9.266-.085c0,.1.007.189.01.283l-9.27.086c.037,3.946.071,7.72.106,11.609l6.873-.063c0,.1.009.194.014.29l-6.889.063c.037,3.952.07,7.727.106,11.616l4.5-.042c.007.1.011.2.015.3l-4.526.042c.037,3.958.071,7.734.106,11.572l2.042.072c.01.08.017.16.026.241l-2.186.151c.037,3.975.072,7.948.109,11.891l-11.776.107c.035,3.8.069,7.544.1,11.453l9.04-.083.006.337-9.051.083c.037,3.922.07,7.669.1,11.559l6.592-.061c0,.1.006.207.01.313l-6.581.059c.035,3.915.07,7.662.106,11.563l4.045-.037c.005.11.01.22.015.33l-4.06.038c.037,3.953.071,7.73.107,11.558l1.662.1.029.216c-.54.053-1.08.106-1.838.179q.047,5,.092,10l-.31-.008c-.031-3.3-.06-6.607-.091-9.989l-11.427.1c.036,3.775.069,7.55.106,11.458l11.111-.1c0,.1,0,.2.007.294l-11.123.1c.036,3.906.07,7.654.106,11.553l8.568-.079c0,.11,0,.219.008.33l-8.573.078c.034,3.921.07,7.667.1,11.573l6.18-.057.013.335-6.2.058c.037,3.923.071,7.67.107,11.593l3.767-.033c0,.108,0,.218,0,.325l-3.767.034c.037,3.93.073,7.71.106,11.517.434.043.821.079,1.347.13l-1.509.663a6.278,6.278,0,0,0-1.41-.341c-3.762.008-7.526.061-11.29.08a2.885,2.885,0,0,1-1.225-.306l1.691-.092c-.036-3.813-.069-7.563-.1-11.4l-11.412.1c.023,2.387.045,4.817.068,7.247h-.284q-.041-4.192-.077-8.384l.163-.015c.038.173.025.4.128.5a.76.76,0,0,0,.512.19c3.6-.023,7.2-.058,10.882-.092-.036-3.85-.07-7.6-.106-11.5l-10.469.1c0-.113-.005-.224-.007-.335l10.479-.1c-.036-3.922-.07-7.669-.107-11.581l-9.519.088c0-.1,0-.2,0-.3l9.487-.087c-.036-3.905-.07-7.68-.107-11.62l-8.309.076,0-.288,8.311-.077c-.037-3.9-.069-7.673-.106-11.573l-7.311.067c0-.094-.005-.189-.008-.285,2.4-.02,4.806-.043,7.313-.066-.037-3.932-.07-7.707-.106-11.649l-6.164.055c0-.1,0-.195,0-.293l6.169-.056c-.036-3.9-.07-7.675-.106-11.618l-4.989.046v-.289l4.989-.045c-.037-3.9-.071-7.67-.108-11.608-1.287.011-2.552.022-3.817.034,0-.093,0-.188,0-.281l3.807-.035c-.035-3.893-.07-7.667-.107-11.571l-2.782.025c0-.1-.008-.193-.012-.291l2.8-.025c-.035-3.938-.07-7.717-.1-11.562l-1.644-.1c-.011-.068-.023-.136-.032-.2l1.765-.2c-.008-.84-.014-1.7-.023-2.557-.026-2.617-.032-5.234-.09-7.85a5.049,5.049,0,0,0-.363-1.252,4.147,4.147,0,0,0,.34-1.167c.005-2.924-.036-5.849-.062-8.772.118,0,.236,0,.355,0,.029,3.2.058,6.4.088,9.7l11.472-.106c-.033-3.788-.069-7.535-.1-11.447-3.751.034-7.474.067-11.2.1,0-.1,0-.2,0-.294l11.16-.1c-.034-3.9-.07-7.676-.107-11.619l-9.974.091v-.292c3.294-.029,6.59-.06,9.979-.09-.036-3.9-.071-7.673-.106-11.56l-8.783.08-.01-.289,8.792-.08c-.036-3.952-.069-7.727-.106-11.612l-7.6.069c0-.1-.008-.192-.011-.289l7.616-.07c-.036-3.923-.071-7.67-.106-11.57l-6.42.058-.013-.331,6.433-.059c-.037-3.922-.071-7.67-.107-11.571l-5.234.049c0-.111-.009-.221-.013-.331l5.247-.048c-.036-3.923-.07-7.669-.106-11.571l-4.047.037c-.007-.111-.011-.221-.014-.331l4.061-.038c-.036-3.921-.069-7.667-.106-11.571l-2.863.027c-.005-.11-.012-.219-.016-.328l2.877-.027c-.035-3.951-.07-7.73-.106-11.549l-1.677-.1c-.008-.073-.017-.146-.026-.219l1.779-.167q-.016-1.837-.033-3.66c-.021-2.261-.021-4.521-.08-6.78a4.741,4.741,0,0,0-.384-1.248,3.206,3.206,0,0,0,.361-1.039c.023-1.983-.034-3.965-.028-5.948a17.279,17.279,0,0,1,.314-3.419c.03,3.359.062,6.719.093,10.173l11.473-.106c-.032-3.781-.068-7.528-.1-11.435l-11.2.1c0-.109,0-.219-.005-.328l11.205-.1c-.035-3.915-.07-7.662-.106-11.571l-10.011.091c0-.1,0-.192,0-.289l9.973-.091c-.036-3.9-.072-7.676-.108-11.614l-6.645.062c0-.1,0-.192,0-.287l6.646-.061c-.036-3.9-.07-7.673-.107-11.578l-3.016.028q-.005-.146-.01-.291l3.176-.029c-.035-3.749-.068-7.341-.1-10.934l.322.009c.032,3.551.066,7.1.1,10.741l11.425-.105c-.034-3.745-.069-7.521-.107-11.463l-11.159.1c0-.1,0-.2,0-.292l11.165-.1c-.037-3.9-.07-7.673-.106-11.613l-7.373.068v-.285l7.369-.068c-.035-3.9-.07-7.671-.1-11.563l-3.75.034c.005-.133.008-.266.013-.4l4.165.269c.037,3.87.071,7.654.106,11.522l11.517-.105c-.03-3.317-.059-6.656-.092-9.995l.331-.008c.031,3.308.062,6.617.092,10l11.573-.106q-.039-4.39-.08-8.805l.332-.007c.027,2.914.054,5.828.082,8.828l7.494-.069q0,.237,0,.477l-7.337.067c.035,3.867.07,7.64.1,11.42l7.339-.067c0,.159,0,.317,0,.475l-7.336.067c.035,3.867.069,7.64.1,11.42l7.337-.067c0,.158,0,.316,0,.475l-7.336.068c.034,3.866.069,7.639.1,11.419l7.338-.067c0,.158,0,.317,0,.476l-7.337.067c.035,3.866.07,7.638.1,11.42l7.337-.068c0,.159,0,.318.005.476l-7.338.068c.035,3.865.07,7.639.1,11.42l7.338-.068C3015.266,1735.234,3015.267,1735.393,3015.268,1735.552Zm-20.285-59.282-11.388.106c.035,3.85.069,7.623.1,11.388l11.388-.1C2995.053,1683.838,2995.018,1680.094,2994.983,1676.27Zm.57,11.385,11.39-.1c-.038-3.851-.071-7.623-.106-11.388l-11.389.1C2995.484,1680.088,2995.517,1683.833,2995.553,1687.654Zm-45.262,250.735c.037,3.891.069,7.635.1,11.375l11.376-.1c-.035-3.849-.069-7.594-.1-11.376Zm44.792-250.213-11.409.105c.035,3.833.069,7.577.1,11.368,3.841-.035,7.612-.07,11.409-.1C2995.152,1695.712,2995.117,1691.968,2995.083,1688.176Zm.588,11.365,11.371-.1c-.034-3.861-.07-7.633-.1-11.372l-11.37.1C2995.6,1692,2995.637,1695.746,2995.67,1699.541ZM2961.89,1961.6c-.036-3.875-.07-7.619-.1-11.388l-11.4.1c.034,3.841.07,7.585.1,11.389Zm10.006-261.345c.037,3.885.071,7.63.1,11.387,3.851-.035,7.623-.068,11.389-.1-.037-3.844-.07-7.588-.1-11.388Zm23.388,11.216c-.036-3.887-.069-7.63-.1-11.387l-11.389.1c.036,3.844.071,7.589.1,11.387Zm11.9-.108c-.036-3.885-.07-7.63-.1-11.388l-11.389.1c.037,3.843.071,7.588.107,11.387ZM2950.5,1962.173c.035,3.885.071,7.63.1,11.388l11.389-.1c-.037-3.844-.07-7.589-.1-11.388Zm33-238.7c-.037-3.885-.071-7.63-.1-11.389-3.852.036-7.623.071-11.39.1.036,3.843.071,7.588.106,11.388Zm.487-.025,11.387-.1c-.036-3.85-.07-7.623-.1-11.388l-11.388.1C2983.915,1715.884,2983.949,1719.627,2983.986,1723.45Zm11.81-11.519c.036,3.887.071,7.631.106,11.388l11.389-.1c-.037-3.845-.071-7.589-.1-11.39C3003.363,1711.862,2999.619,1711.9,2995.8,1711.932Zm-33.722,273.475c-.036-3.806-.07-7.606-.106-11.431l-11.346.1c.034,3.84.07,7.613.107,11.431Zm10.13-249.956,11.378-.1c-.035-3.856-.069-7.629-.1-11.38l-11.378.1C2972.133,1727.9,2972.168,1731.643,2972.2,1735.45Zm23.215-11.6-11.388.1c.036,3.852.071,7.624.1,11.39l11.388-.1C2995.489,1731.42,2995.454,1727.676,2995.418,1723.852Zm.488-.024c.035,3.886.069,7.63.1,11.388l11.387-.1c-.034-3.844-.069-7.589-.1-11.387Zm-45.186,262.136c.034,3.886.07,7.63.1,11.389,3.851-.037,7.623-.07,11.389-.105-.037-3.844-.07-7.588-.106-11.388Zm21.587-238.614c3.887-.037,7.631-.07,11.387-.1-.034-3.853-.068-7.624-.1-11.39l-11.388.105C2972.238,1739.785,2972.271,1743.528,2972.307,1747.351Zm11.9-.113,11.378-.105c-.036-3.855-.07-7.628-.1-11.379l-11.379.1C2984.137,1739.684,2984.173,1743.429,2984.208,1747.237Zm23.215-11.6-11.387.1c.036,3.85.07,7.623.1,11.388,3.844-.036,7.589-.069,11.388-.105C3007.492,1743.206,3007.458,1739.462,3007.423,1735.64Zm-46.987,12.306c.037,3.884.07,7.628.1,11.388l11.39-.1c-.036-3.843-.069-7.588-.1-11.388Zm23.389,11.216c-.037-3.888-.07-7.631-.1-11.387l-11.388.1c.035,3.844.07,7.589.1,11.387Zm11.812-11.517-11.388.1c.036,3.852.07,7.624.1,11.387l11.388-.1C2995.706,1755.209,2995.672,1751.465,2995.637,1747.645Zm.571,11.384,11.388-.1c-.034-3.85-.069-7.623-.1-11.39l-11.387.1C2996.138,1751.461,2996.172,1755.2,2996.208,1759.029Zm-24.258.723-11.389.1c.034,3.845.069,7.617.1,11.4l11.389-.1C2972.019,1767.335,2971.984,1763.592,2971.95,1759.752Zm11.985,11.306c-.036-3.884-.07-7.63-.1-11.389l-11.39.105c.037,3.843.07,7.587.1,11.387Zm.4-11.434c.036,3.883.069,7.629.1,11.388l11.39-.1c-.035-3.843-.07-7.588-.1-11.389Zm11.9-.109c.034,3.885.068,7.63.1,11.387,3.853-.035,7.625-.068,11.389-.1-.036-3.843-.07-7.589-.1-11.387C3003.8,1759.446,3000.054,1759.479,2996.234,1759.515Zm-35.495,23.632c3.884-.036,7.63-.07,11.389-.106-.036-3.85-.07-7.622-.106-11.387l-11.388.1C2960.67,1775.579,2960.7,1779.323,2960.739,1783.146Zm11.812-11.519c.034,3.884.068,7.628.1,11.39l11.39-.1c-.034-3.843-.069-7.587-.1-11.39C2980.119,1771.559,2976.375,1771.593,2972.551,1771.627Zm23.3-.182-11.412.1c.034,3.832.07,7.577.1,11.368l11.411-.1C2995.915,1778.981,2995.88,1775.237,2995.846,1771.445Zm-23.6,23.506c-.037-3.892-.07-7.636-.1-11.376l-11.377.1c.036,3.85.07,7.594.1,11.375Zm.41-11.429c.035,3.886.069,7.631.1,11.388l11.387-.1c-.035-3.844-.069-7.588-.1-11.387Zm23.3-.192-11.388.105c.035,3.852.069,7.624.1,11.387l11.388-.1C2996.033,1790.9,2996,1787.151,2995.964,1783.33Zm-23.6,23.523c-.036-3.885-.07-7.63-.1-11.388l-11.389.1c.035,3.844.07,7.588.1,11.388C2964.8,1806.922,2968.543,1806.887,2972.366,1806.853Zm.492-.019,11.389-.1c-.034-3.843-.069-7.616-.1-11.4l-11.388.1C2972.789,1799.247,2972.824,1802.991,2972.858,1806.834Zm11.806-11.526c.034,3.887.07,7.63.1,11.389l11.39-.105c-.036-3.843-.07-7.588-.1-11.388C2992.229,1795.241,2988.486,1795.274,2984.665,1795.309Zm-23.59,23.514,11.412-.1c-.036-3.833-.07-7.577-.1-11.367l-11.411.1C2961.005,1811.287,2961.041,1815.031,2961.074,1818.822Zm23.3-.183c-.034-3.884-.07-7.628-.106-11.388l-11.388.105c.034,3.842.069,7.586.1,11.388Zm11.893-.111c-.034-3.887-.07-7.631-.1-11.384l-11.384.1c.034,3.847.069,7.59.1,11.384Zm-35.173.79c.036,3.885.07,7.629.1,11.388l11.389-.1c-.036-3.844-.069-7.588-.1-11.39Zm11.989,11.29,11.409-.1c-.035-3.833-.068-7.577-.1-11.368l-11.41.105C2973.01,1823.073,2973.045,1826.817,2973.079,1830.609Zm11.885-.1,11.389-.105c-.034-3.851-.07-7.623-.1-11.389l-11.389.1C2984.9,1822.942,2984.929,1826.686,2984.964,1830.511Zm-12.356.618-11.388.105c.036,3.85.069,7.622.1,11.39l11.389-.1C2972.678,1838.7,2972.644,1834.955,2972.608,1831.128Zm.5-.017c.034,3.894.069,7.638.1,11.374l11.374-.1c-.036-3.851-.07-7.6-.1-11.374Zm-11.709,23.406,11.385-.1c-.033-3.853-.069-7.625-.1-11.386l-11.386.1C2961.323,1846.955,2961.358,1850.7,2961.394,1854.517Zm23.219-11.6-11.388.1c.036,3.85.07,7.624.1,11.389l11.389-.1C2984.683,1850.484,2984.648,1846.739,2984.613,1842.916Zm-23.111,23.5,11.388-.1c-.034-3.85-.07-7.623-.1-11.39l-11.389.1C2961.431,1858.848,2961.465,1862.591,2961.5,1866.414Zm11.9-.1,11.388-.1c-.036-3.845-.07-7.618-.1-11.4l-11.387.1C2973.333,1858.726,2973.366,1862.471,2973.4,1866.311Zm-23.776.7c.035,3.871.068,7.616.1,11.388l11.4-.105c-.035-3.839-.07-7.583-.1-11.387C2957.206,1866.945,2953.463,1866.978,2949.627,1867.014Zm11.93-.125c.035,3.806.069,7.6.106,11.43l11.346-.1c-.036-3.84-.07-7.612-.1-11.43Zm23.273-.181-11.387.1c.036,3.853.07,7.624.1,11.388,3.843-.034,7.589-.068,11.387-.1C2984.9,1874.274,2984.865,1870.529,2984.831,1866.708Zm-35.091,12.2c.036,3.886.07,7.631.1,11.388l11.388-.1c-.034-3.844-.069-7.588-.1-11.387Zm23.305-.194-11.389.1c.036,3.852.07,7.624.1,11.389l11.389-.1C2973.114,1886.278,2973.079,1882.535,2973.045,1878.712Zm.487-.024c.036,3.887.07,7.631.1,11.387,3.852-.036,7.624-.071,11.387-.1-.036-3.844-.07-7.59-.1-11.387Zm-12.274,12.029-11.386.105c.034,3.852.069,7.624.1,11.387l11.386-.1C2961.328,1898.282,2961.292,1894.538,2961.257,1890.716Zm.576,11.378c3.893-.034,7.638-.07,11.378-.1-.037-3.857-.071-7.63-.1-11.376l-11.378.1C2961.765,1894.546,2961.8,1898.291,2961.833,1902.094Zm-11.783,12.02,11.389-.1c-.034-3.843-.07-7.614-.1-11.406-3.835.035-7.58.07-11.389.1C2949.981,1906.521,2950.014,1910.265,2950.05,1914.114Zm23.213-11.611-11.388.1c.033,3.849.069,7.622.1,11.389,3.841-.036,7.585-.069,11.387-.1C2973.331,1910.071,2973.3,1906.327,2973.263,1902.5ZM2950.15,1926l11.388-.106c-.035-3.851-.07-7.623-.1-11.387l-11.388.105C2950.081,1918.436,2950.116,1922.179,2950.15,1926Zm23.221-11.6-11.388.1c.034,3.852.07,7.624.1,11.388,3.844-.035,7.589-.07,11.388-.1C2973.439,1921.964,2973.406,1918.221,2973.372,1914.4Zm-11.786,12-11.389.1c.034,3.852.069,7.624.1,11.39l11.389-.106C2961.655,1933.97,2961.62,1930.225,2961.586,1926.4Zm11.976,11.3c-.035-3.888-.07-7.633-.1-11.383l-11.382.1c.034,3.847.069,7.591.1,11.383C2966,1937.771,2969.746,1937.736,2973.562,1937.7Z" transform="translate(-2938.521 -1664.072)" fill="#fff"/>
          </g>
          <path id="Trazado_97984" data-name="Trazado 97984" d="M2989.981,1761.723a.5.5,0,0,1-.057-.988,11,11,0,0,0,6.844-3.867,21.882,21.882,0,0,0,3.946-7.159,44.042,44.042,0,0,0,2.619-16.113.5.5,0,0,1,.483-.509h.014a.5.5,0,0,1,.494.482,45.062,45.062,0,0,1-2.678,16.479,22.794,22.794,0,0,1-4.135,7.473,11.965,11.965,0,0,1-7.472,4.2C2990.018,1761.721,2990,1761.723,2989.981,1761.723Z" transform="translate(-2966.26 -1701.991)" fill="#fff"/>
        </g>
      </g>
      <g id="Grupo_47920" data-name="Grupo 47920" transform="translate(95.374)">
        <g id="Grupo_47916" data-name="Grupo 47916" transform="translate(33.258 332.645)">
          <path id="Trazado_97985" data-name="Trazado 97985" d="M3140.716,2484.009q11.244-.141,22.48-.588c3.14-.126,7.785-1.256,10.8-.461,1.982.522,2.034,2.285,1.915,4.06.352,1.353-.065,3.155,0,4.542a8.51,8.51,0,0,1-.638,2.965,8.275,8.275,0,0,1-3.934,3.486,30.042,30.042,0,0,1-26.442.357,9.406,9.406,0,0,1-3.7-2.771,7.431,7.431,0,0,1-1.162-4.889A16.733,16.733,0,0,1,3140.716,2484.009Z" transform="translate(-3139.908 -2449.551)" fill="#00223d"/>
          <path id="Trazado_97986" data-name="Trazado 97986" d="M3164.1,2410.549q4.061,9.4,7.539,19.038c1.8,5,7.142,13.755,3.326,18.792-3.307,4.369-10.375,5.28-15.443,5.567a26.353,26.353,0,0,1-9.445-1.279c-2.3-.732-6.589-1.967-8.242-3.8-3.3-3.661.527-13.455,1.139-17.635a179.523,179.523,0,0,1,3.58-19.014,2.806,2.806,0,0,1,2.988-2.7l9.59-1.122C3161.73,2408.09,3163.055,2408.144,3164.1,2410.549Z" transform="translate(-3140.239 -2408.265)" fill="#fabea1"/>
          <path id="Trazado_97987" data-name="Trazado 97987" d="M3147.5,2412.861c1.977-1.708,1.559,2.539,1.535,3.339-.071,2.372-.261,4.741-.566,7.094a18.556,18.556,0,0,0-.269,4.4c.1.9,1.584,5.255,2.788,3.281.918-1.5-.29-3.976,1.11-5.069a2.655,2.655,0,0,1,1.559-.4,58.31,58.31,0,0,1,7.457.2,2.8,2.8,0,0,1,1.524.455c.932.754,1.327,2.844,1.691,3.92.276.81.825,1.8,1.67,1.647a1.247,1.247,0,0,0,.911-1.037c.458-2.527-2.065-7.219-2.66-9.791-.663-2.872-1.584-6.4-.712-9.321a6.784,6.784,0,0,1,.413.807q4.061,9.4,7.538,19.038c1.8,5,7.143,13.755,3.327,18.792-3.309,4.369-10.376,5.28-15.443,5.566a26.323,26.323,0,0,1-9.445-1.279c-2.3-.733-6.589-1.964-8.244-3.8-3.3-3.662.015-13.7.682-17.877C3143.858,2423.518,3146.193,2413.993,3147.5,2412.861Z" transform="translate(-3140.096 -2410.106)" fill="#167377"/>
          <path id="Trazado_97988" data-name="Trazado 97988" d="M3197.721,2474.234a.415.415,0,0,0,.217-.07.433.433,0,0,0,.128-.6,14.45,14.45,0,0,0-14.082-6.207.436.436,0,1,0,.141.86,13.567,13.567,0,0,1,13.21,5.822A.43.43,0,0,0,3197.721,2474.234Z" transform="translate(-3164.16 -2440.952)" fill="#fff"/>
          <path id="Trazado_97989" data-name="Trazado 97989" d="M3159.8,2471.374a.438.438,0,0,0,.285-.123,6.978,6.978,0,0,1,4.239-1.942.435.435,0,1,0-.071-.867,7.749,7.749,0,0,0-4.776,2.187.436.436,0,0,0-.008.617A.431.431,0,0,0,3159.8,2471.374Z" transform="translate(-3150.693 -2441.651)" fill="#fff"/>
        </g>
        <g id="Grupo_47919" data-name="Grupo 47919">
          <path id="Trazado_97990" data-name="Trazado 97990" d="M3065.2,1668.248l46.366-7.191,20.81,57.773s1.119,248.905-6.626,277.232c-.848,4.18-14.862,3.267-21.362,2.612a4.039,4.039,0,0,1-3.61-3.584Z" transform="translate(-3065.202 -1661.057)" fill="#00223d"/>
          <g id="Grupo_47917" data-name="Grupo 47917" transform="translate(1.211 1.508)">
            <path id="Trazado_97991" data-name="Trazado 97991" d="M3108.466,1949.71l-10.715.5c-.005-.094-.012-.188-.018-.28l10.711-.5c-.181-3.913-.356-7.655-.534-11.5-3.75.176-7.521.351-11.388.53.043.943.086,1.876.131,2.812l-.41.021c-.212-4.555-.418-9.113-.647-13.668a7.082,7.082,0,0,0-.312-1.284l-.278.07c.167-.258.489-.521.48-.773-.136-3.638-.315-7.274-.485-10.94l-1.27-.086-.041-.181c.373-.081.746-.16,1.209-.261-.176-3.761-.352-7.536-.53-11.378l-1.905-.018-.035-.237,1.917-.208c-.177-3.8-.353-7.574-.533-11.462-.9.043-1.755.083-2.613.121l-.023-.288c.845-.038,1.694-.078,2.622-.121-.182-3.919-.357-7.664-.536-11.565l-3.328.154c-.007-.111-.015-.222-.023-.333,1.087-.052,2.175-.1,3.339-.156-.181-3.918-.356-7.662-.537-11.562l-4.049.188c-.008-.109-.014-.219-.023-.329l4.059-.189c-.182-3.915-.356-7.658-.538-11.56l-4.766.223c-.006-.11-.014-.22-.021-.331l4.773-.222c-.181-3.914-.355-7.656-.537-11.557l-5.486.256-.021-.328c1.808-.084,3.615-.167,5.491-.255-.182-3.91-.356-7.653-.538-11.55l-6.2.288c-.007-.107-.014-.214-.022-.322l6.2-.288c-.18-3.91-.355-7.653-.536-11.548l-6.91.322c-.007-.107-.015-.214-.022-.323l6.911-.321c-.182-3.912-.356-7.655-.537-11.558l-7.836.364c-.005-.112-.013-.224-.019-.338l7.849-.365c-.182-3.919-.357-7.663-.538-11.57l-8.559.4c-.006-.1-.011-.2-.015-.3l8.527-.4c-.181-3.9-.356-7.672-.539-11.612l-9.243.43c0-.1-.008-.2-.011-.294l9.249-.429c-.181-3.9-.356-7.667-.536-11.553l-9.953.463c-.008-.1-.015-.194-.021-.292l9.965-.463c-.181-3.948-.357-7.719-.539-11.6l-10.682.5-.018-.292,10.7-.5c-.182-3.921-.356-7.664-.535-11.509l-11.378.53q-.021.693-.043,1.385l-.331.017q-.586-12.55-1.169-25.146l-1.057-.128-.03-.172,1.008-.259c-.176-3.765-.352-7.543-.53-11.365l-1.7-.032-.038-.206,1.7-.246c-.175-3.767-.351-7.544-.531-11.4l-2.41-.012-.005-.231,2.384-.111c-.179-3.885-.355-7.658-.539-11.6l-3.313.155c0-.1-.005-.2-.008-.3l3.315-.154c-.181-3.9-.358-7.667-.537-11.552l-4.024.187c-.01-.1-.018-.2-.028-.3l4.123-.193c-.119-2.551-.229-4.926-.339-7.3l.327-.017c.108,2.365.218,4.729.331,7.158l11.562-.538c-.132-2.873-.265-5.72-.4-8.567l.3-.012c.13,2.812.261,5.624.4,8.534l11.608-.54q-.228-4.878-.453-9.731l.289-.011c.15,3.213.3,6.427.454,9.734l11.595-.539c-.17-3.665-.338-7.3-.507-10.936l.28-.011c.167,3.61.334,7.22.51,10.987l9.4-.438c.008.111.014.222.019.335l-9.277.43c.184,3.918.357,7.66.535,11.5l11.434-.532c-.073-1.54-.141-3.051-.213-4.563.1-.006.2-.014.293-.021.07,1.509.14,3.017.21,4.547l1.267.144.011.184-1.119.22c.177,3.775.352,7.524.533,11.439l4.78-.222.014.294-4.731.22c.181,3.9.356,7.669.539,11.6l8.309-.387c0,.094.01.189.013.284l-8.308.387c.18,3.891.357,7.662.537,11.515l11.4-.531c-.027-.611-.054-1.157-.079-1.7l.247-.012q.217,4.644.434,9.286l-.2.011c-.108-2.315-.216-4.629-.329-7.05l-11.466.534c.173,3.744.347,7.487.529,11.391l11.167-.519.021.335-11.181.519c.183,3.918.357,7.66.537,11.53l10.648-.5.021.293-10.621.494c.183,3.937.359,7.708.542,11.643l9.964-.464c0,.1.008.193.013.288l-9.966.463c.181,3.894.357,7.665.539,11.6l9.485-.441c.005.1.01.2.013.293l-9.49.442c.181,3.894.356,7.665.538,11.6l8.8-.41.011.28-8.788.408c.181,3.889.356,7.66.539,11.6l8.3-.387c.005.1.008.2.012.293l-8.3.386c.181,3.894.355,7.666.539,11.6l7.61-.354c0,.094.009.188.011.281l-7.6.352c.18,3.887.356,7.659.536,11.546,2.373-.11,4.733-.221,7.094-.329.008.1.015.2.022.3l-7.112.33c.182,3.921.357,7.664.538,11.562l6.412-.3c.008.11.016.221.025.331-2.113.1-4.229.2-6.424.3.181,3.92.355,7.664.536,11.557l5.713-.266c.009.108.017.216.025.323-1.878.089-3.755.175-5.719.266.183,3.917.357,7.659.537,11.551l4.994-.232.027.323-5,.232c.182,3.943.358,7.714.54,11.613l4.461-.208c.005.094.012.189.019.283l-4.465.209c.182,3.925.359,7.7.539,11.616l3.711-.173c0,.1.009.209.014.312l-3.736.174c.182,3.9.355,7.647.536,11.544l2.883-.134c.009.107.015.213.025.321-.938.042-1.875.087-2.887.134.182,3.908.356,7.651.536,11.517l2.155.024.029.241c-.7.066-1.394.131-2.164.2.178,3.834.353,7.612.532,11.422l1.444.053c.011.063.021.127.031.191l-1.531.268c.072,1.523.142,3.058.215,4.592.092,1.98.163,3.961.294,5.94a3.365,3.365,0,0,0,.419,1.025,4.716,4.716,0,0,0-.313,1.259c.082,2.535.218,5.07.334,7.606q.112,2.363.22,4.726l-.319.02c-.043-.428-.085-.856-.138-1.38l-11.412.531c.176,3.759.35,7.5.532,11.4l10.465-.485.021.329-10.473.487c.183,3.916.355,7.658.539,11.565l9.507-.442c.007.1.011.2.015.295l-9.478.441c.181,3.9.356,7.672.541,11.6l8.194-.381c.005.107.011.215.017.323l-8.235.384c.181,3.909.356,7.652.536,11.552l6.684-.311c.005.109.012.216.017.324l-6.68.31c.181,3.91.355,7.653.535,11.538l4.682-.217.026.311-4.747.221c.066,1.432.126,2.7.186,3.97l-.332.022c-.058-1.257-.116-2.512-.178-3.83l-11.559.537c.056,1.213.112,2.4.166,3.588l-.329.021c-.055-1.178-.11-2.359-.171-3.643l-7.952.369c-.005-.1-.013-.194-.02-.292l7.844-.364c-.181-3.921-.355-7.663-.537-11.563l-8.557.4-.019-.33,8.566-.4c-.183-3.917-.357-7.659-.538-11.56q-4.627.217-9.276.432l-.021-.33,9.283-.431c-.182-3.916-.357-7.659-.537-11.559l-9.993.464-.021-.327,10-.465C3108.822,1957.386,3108.648,1953.646,3108.466,1949.71Zm-12.177-261.84c-.181-3.884-.355-7.623-.53-11.375l-11.375.53c.18,3.84.353,7.581.529,11.375Zm11.882-.553c-.18-3.883-.355-7.623-.529-11.374l-11.375.529c.179,3.84.354,7.582.529,11.373Zm-23.213,12.99c-.18-3.882-.355-7.622-.529-11.377l-11.376.529c.178,3.841.352,7.581.53,11.377Zm11.365-11.941-11.4.531c.18,3.828.353,7.569.53,11.356l11.4-.53C3096.672,1695.894,3096.5,1692.155,3096.323,1688.366Zm11.887-.567-11.376.529c.18,3.842.354,7.611.529,11.386,3.836-.18,7.576-.353,11.377-.529C3108.562,1695.371,3108.39,1691.631,3108.21,1687.8Zm12.4,10.85c-.181-3.881-.355-7.621-.53-11.377l-11.378.53c.179,3.839.353,7.579.53,11.376Zm-35.1,13.54c-.181-3.882-.355-7.621-.53-11.376l-11.377.529c.179,3.84.353,7.58.53,11.376Zm.008-11.454c.176,3.8.351,7.6.531,11.419l11.334-.527c-.179-3.836-.354-7.6-.532-11.418Zm11.882-.552c.176,3.8.354,7.6.532,11.419l11.333-.527c-.178-3.836-.353-7.6-.531-11.419Zm23.247-1.053-11.377.529c.179,3.844.355,7.612.53,11.384l11.375-.529C3121,1706.7,3120.825,1702.96,3120.647,1699.131Zm-46.492,14.053c.179,3.882.354,7.622.53,11.378l11.375-.53c-.177-3.84-.351-7.579-.528-11.376Zm23.281-1.063-11.377.529c.179,3.845.355,7.614.53,11.381l11.376-.53C3097.787,1719.686,3097.614,1715.945,3097.436,1712.121Zm1,11.349,11.363-.529c-.179-3.854-.354-7.623-.529-11.362l-11.363.529C3098.087,1715.933,3098.262,1719.674,3098.437,1723.47Zm11.877-.545,11.377-.529c-.18-3.846-.355-7.614-.53-11.377l-11.377.529C3109.964,1715.365,3110.136,1719.106,3110.314,1722.925Zm-35.595,2.152c.177,3.836.353,7.6.53,11.4l11.355-.529c-.178-3.835-.354-7.6-.53-11.4Zm11.873-.561c.181,3.884.355,7.625.53,11.373l11.372-.529c-.178-3.841-.352-7.582-.529-11.373Zm23.789,10.335c-.179-3.882-.354-7.623-.527-11.376l-11.377.53c.179,3.84.353,7.581.529,11.376Zm-.025-11.441c.181,3.882.356,7.621.53,11.376l11.377-.529c-.178-3.839-.352-7.58-.528-11.377Zm-23.218,24.442c-.177-3.8-.355-7.6-.533-11.418l-11.333.526c.177,3.836.353,7.6.53,11.419Zm11.912-.564c-.18-3.883-.354-7.623-.529-11.377l-11.376.529c.178,3.84.353,7.581.53,11.376C3091.494,1747.638,3095.233,1747.465,3099.051,1747.288Zm11.853-.541c-.176-3.8-.353-7.6-.532-11.418-3.808.176-7.549.35-11.333.527.178,3.836.353,7.6.532,11.419Zm11.883-.553c-.177-3.8-.353-7.6-.532-11.418l-11.333.526c.179,3.838.354,7.6.532,11.419Zm-34.573,13.492,11.376-.529c-.178-3.841-.353-7.608-.53-11.392l-11.376.53C3087.86,1752.107,3088.034,1755.847,3088.213,1759.686Zm11.864-.59,11.419-.531c-.179-3.809-.353-7.549-.529-11.335l-11.418.532C3099.727,1751.562,3099.9,1755.275,3100.077,1759.1Zm23.292-1.032c-.18-3.883-.354-7.624-.529-11.374l-11.374.529c.179,3.842.352,7.582.528,11.375Zm-23.211,12.989c-.18-3.881-.355-7.622-.53-11.376l-11.377.53c.178,3.84.353,7.58.53,11.376Zm11.852-.539c-.177-3.8-.355-7.6-.531-11.419l-11.335.527c.178,3.836.353,7.6.532,11.419Zm11.883-.552c-.177-3.8-.353-7.6-.531-11.419l-11.336.526c.18,3.836.356,7.6.532,11.42Zm-23.182,12.976c-.18-3.881-.354-7.62-.53-11.378l-11.377.53c.179,3.838.354,7.578.529,11.376Zm11.368-11.956-11.375.53c.177,3.842.353,7.611.527,11.385l11.377-.529C3112.431,1778.553,3112.256,1774.814,3112.078,1770.981Zm.49-.039c.18,3.882.354,7.621.529,11.377,3.847-.178,7.615-.353,11.377-.529-.178-3.839-.352-7.579-.528-11.377C3120.129,1770.592,3116.388,1770.765,3112.568,1770.942Zm-23.214,12.989c.181,3.883.356,7.623.53,11.375l11.376-.529c-.18-3.841-.354-7.581-.53-11.375Zm11.913-.565c.178,3.8.355,7.6.533,11.419l11.333-.527c-.177-3.837-.354-7.6-.531-11.419C3108.8,1783.016,3105.09,1783.187,3101.268,1783.366Zm23.758,10.347c-.18-3.884-.354-7.625-.529-11.373l-11.372.529c.177,3.842.351,7.582.527,11.373Zm-35.12,2.1c.182,3.88.355,7.62.531,11.375l11.377-.529c-.179-3.84-.353-7.58-.531-11.377Zm12.394,10.845,11.377-.53c-.179-3.847-.355-7.615-.53-11.377l-11.376.53C3101.947,1799.1,3102.121,1802.841,3102.3,1806.66Zm11.374-11.951c.181,3.882.355,7.623.53,11.375l11.374-.529c-.178-3.841-.352-7.581-.528-11.375Zm-11.306,23.877c-.18-3.881-.354-7.621-.529-11.376l-11.378.529c.178,3.839.353,7.579.53,11.376Zm11.373-11.951-11.376.529c.179,3.849.354,7.617.529,11.377l11.376-.53C3114.093,1814.194,3113.918,1810.453,3113.74,1806.635Zm.995,11.355,11.377-.529c-.179-3.846-.354-7.616-.53-11.377l-11.376.529C3114.383,1810.431,3114.558,1814.172,3114.735,1817.99Zm-12.334,1.092c-3.837.178-7.6.353-11.4.531.179,3.828.353,7.567.529,11.355l11.4-.53C3102.751,1826.61,3102.577,1822.869,3102.4,1819.082Zm1,11.344,11.377-.529c-.179-3.848-.355-7.615-.531-11.376-3.839.177-7.58.352-11.376.529C3103.054,1822.868,3103.228,1826.609,3103.4,1830.426Zm11.375-11.95c.18,3.881.353,7.62.529,11.376l11.377-.53c-.179-3.84-.354-7.579-.529-11.376Zm-23.216,12.988c.182,3.882.355,7.621.531,11.376l11.377-.529c-.179-3.84-.353-7.579-.531-11.377Zm11.885-.552c.18,3.881.354,7.623.529,11.376l11.376-.53c-.178-3.839-.353-7.581-.529-11.376Zm11.883-.552c.181,3.882.354,7.623.529,11.374l11.375-.53c-.178-3.841-.352-7.581-.528-11.374Zm-23.215,12.987c.181,3.882.355,7.622.53,11.376l11.376-.529c-.178-3.841-.352-7.581-.529-11.378Zm23.281-1.062-11.376.529c.178,3.848.353,7.616.529,11.378l11.377-.53C3115.75,1849.843,3115.575,1846.1,3115.4,1842.285Zm1,11.357c3.877-.18,7.617-.353,11.377-.53-.179-3.844-.354-7.613-.529-11.38-3.84.18-7.579.354-11.377.53C3116.043,1846.078,3116.217,1849.817,3116.394,1853.642Zm-11.816,12.477c-.181-3.883-.354-7.622-.53-11.377l-11.376.529c.177,3.84.352,7.581.529,11.377Zm11.886-.558c-.179-3.868-.354-7.608-.529-11.376l-11.385.53c.179,3.834.353,7.575.529,11.376Zm.481-.039,11.376-.53c-.179-3.848-.354-7.615-.529-11.375l-11.375.529C3116.595,1857.966,3116.768,1861.706,3116.945,1865.523Zm-23.693,1.578c.177,3.8.354,7.6.531,11.419l11.335-.527c-.179-3.836-.354-7.6-.531-11.418Zm11.884-.552c.178,3.8.354,7.6.532,11.419l11.334-.528c-.179-3.836-.355-7.6-.531-11.418Zm11.883-.553c.177,3.8.353,7.6.531,11.419l11.334-.528c-.179-3.835-.354-7.6-.532-11.418Zm-11.846,12.492-11.376.529c.179,3.848.354,7.616.529,11.376l11.375-.529C3105.524,1886.045,3105.352,1882.3,3105.174,1878.488Zm12.4,10.841c-.181-3.868-.355-7.608-.53-11.376l-11.387.53c.179,3.835.354,7.574.531,11.376Zm-33.683-212.311-11.377.53c.178,3.838.353,7.606.529,11.393,3.832-.177,7.571-.351,11.377-.529C3084.239,1684.6,3084.065,1680.861,3083.888,1677.017Zm21.83,213.348c-3.86.178-7.6.352-11.376.529.179,3.84.353,7.608.53,11.391,3.832-.18,7.573-.353,11.376-.53C3106.071,1897.944,3105.9,1894.2,3105.718,1890.365Zm11.887-.55-11.376.529c.178,3.843.353,7.612.529,11.384l11.376-.529C3117.957,1897.384,3117.783,1893.643,3117.605,1889.814Zm1,11.351,11.362-.528c-.179-3.855-.355-7.624-.529-11.363l-11.361.529C3118.26,1893.629,3118.433,1897.369,3118.61,1901.165Zm-23.731,1.6c.18,3.875.354,7.617.53,11.376l11.379-.53c-.178-3.837-.352-7.578-.529-11.376Zm11.886-.553c.18,3.882.355,7.623.529,11.374,3.849-.178,7.615-.354,11.374-.529-.178-3.841-.352-7.582-.528-11.373C3114.321,1901.86,3110.58,1902.033,3106.765,1902.211Zm23.279-1.064-11.376.53c.18,3.847.354,7.615.53,11.377l11.376-.53C3130.4,1908.707,3130.223,1904.968,3130.044,1901.148Zm-23.214,12.988-11.377.529c.179,3.848.355,7.615.531,11.377l11.375-.529C3107.183,1921.7,3107.008,1917.957,3106.83,1914.136Zm.487-.043c.18,3.882.353,7.621.527,11.377l11.377-.529c-.178-3.84-.352-7.579-.529-11.377Zm21.621-36.711-11.375.53c.179,3.847.354,7.615.529,11.377l11.377-.529C3129.291,1884.942,3129.116,1881.2,3128.938,1877.381Zm-21.045,60.037c-.181-3.883-.355-7.622-.53-11.376l-11.376.529c.179,3.841.354,7.581.53,11.377Zm.471-.074,11.42-.531c-.178-3.809-.352-7.549-.526-11.334l-11.419.53C3108.015,1929.81,3108.187,1933.522,3108.364,1937.344Zm11.388-11.92c.179,3.881.354,7.622.527,11.376l11.378-.529c-.179-3.84-.354-7.581-.529-11.376Zm-10.821,23.834c3.881-.181,7.622-.354,11.374-.53-.178-3.846-.352-7.615-.529-11.375-3.84.179-7.58.353-11.375.529C3108.579,1941.7,3108.754,1945.441,3108.932,1949.258Zm11.95,11.374c-.181-3.883-.356-7.622-.53-11.376l-11.376.529c.178,3.84.352,7.581.529,11.378Zm-11.354.994c.18,3.883.354,7.624.529,11.376l11.375-.53c-.177-3.84-.352-7.581-.529-11.375Zm12.458,22.771c-.18-3.882-.354-7.623-.529-11.374l-11.375.529c.179,3.841.352,7.582.53,11.375C3114.431,1984.749,3118.171,1984.576,3121.985,1984.4Zm.038.479-11.376.53c.178,3.84.354,7.608.529,11.39l11.377-.529C3122.375,1992.457,3122.2,1988.717,3122.023,1984.876Zm-2.793-71.348c.177,3.8.354,7.6.53,11.418l11.335-.527c-.178-3.836-.354-7.6-.532-11.418Z" transform="translate(-3067.923 -1664.445)" fill="#fff"/>
          </g>
          <g id="Grupo_47918" data-name="Grupo 47918" transform="translate(3.465 24.56)">
            <path id="Trazado_97992" data-name="Trazado 97992" d="M3081.452,1825.29a.5.5,0,0,1-.492-.446l-7.973-78.664a.5.5,0,0,1,.443-.542.487.487,0,0,1,.542.442l7.972,78.664a.494.494,0,0,1-.442.544Z" transform="translate(-3072.985 -1732.542)" fill="#fff"/>
            <path id="Trazado_97993" data-name="Trazado 97993" d="M3184.5,1750.7a15.879,15.879,0,0,1-10.949-4.893c-3.555-3.527-5.678-8.25-7.127-11.972a91.064,91.064,0,0,1-4.79-17.022.5.5,0,0,1,.976-.174,90.02,90.02,0,0,0,4.739,16.836c1.414,3.63,3.479,8.233,6.9,11.628,3.5,3.472,8.01,5.136,12.067,4.456a.5.5,0,0,1,.163.977A11.874,11.874,0,0,1,3184.5,1750.7Z" transform="translate(-3122.163 -1716.225)" fill="#fff"/>
          </g>
        </g>
      </g>
    </g>
    <g id="Grupo_47925" data-name="Grupo 47925" transform="translate(234.169 75.232)">
      <g id="Grupo_47923" data-name="Grupo 47923">
        <path id="Trazado_97994" data-name="Trazado 97994" d="M3054.021,1435.716a228.362,228.362,0,0,1-1.711-24.952,143.044,143.044,0,0,1,2.918-29.5c3.841-19.493,10.79-38.277,18.758-56.426-6.908-4.3-51.983-23.132-51.983-23.132s-2.65-5.939-2.648-5.922c-8.006,4.652-25.452,4.312-25.452,4.312l.413,4.625L2954,1335.079c-.115.087,8.994,24.82,9.667,27.308a239.015,239.015,0,0,1,5.949,29.959c1.716,12.535,2.669,25.156,3.583,37.769.7,9.655,1.731,19.242,2.278,28.916a64.123,64.123,0,0,1-.1,12.327,6.593,6.593,0,0,0-.036,3c.215.642.662,1.28.48,1.932a2.72,2.72,0,0,1-.585.905c-1.462,1.849-1.4,4.552-.468,6.716,2.517,5.821,8.417,7.778,14.05,9.48a54.712,54.712,0,0,0,25.4,1.077c13.327-2.409,25.642-8.558,37.747-14.637,5-2.511,9.545-7.895,5.766-13.592a8.161,8.161,0,0,1-1.005-1.661c-.469-1.3.028-2.3.17-3.535a37.258,37.258,0,0,0-.052-5.573C3056.572,1448.673,3054.852,1442.415,3054.021,1435.716Z" transform="translate(-2953.309 -1295.781)" fill="#167377"/>
        <g id="Grupo_47922" data-name="Grupo 47922" transform="translate(0 2.463)">
          <path id="Trazado_97995" data-name="Trazado 97995" d="M2960.566,1425.118a.5.5,0,0,1-.491-.423,193.457,193.457,0,0,0-7.6-32.049.5.5,0,0,1,.943-.31,194.483,194.483,0,0,1,7.642,32.212.5.5,0,0,1-.418.564A.447.447,0,0,1,2960.566,1425.118Z" transform="translate(-2952.449 -1351.626)" fill="#fff"/>
          <path id="Trazado_97996" data-name="Trazado 97996" d="M3052.864,1313.158a24.707,24.707,0,0,1-8.186-1.13.5.5,0,1,1,.352-.927c.1.039,10.28,3.72,26.919-3.093a.5.5,0,0,1,.376.918A51.507,51.507,0,0,1,3052.864,1313.158Z" transform="translate(-3003.442 -1305.008)" fill="#fff"/>
          <path id="Trazado_97997" data-name="Trazado 97997" d="M3050.747,1305.994a57.228,57.228,0,0,1-7.427-.442.5.5,0,0,1,.146-.982c.15.022,15,2.147,26.324-3.208a.5.5,0,1,1,.423.9C3063.76,1305.313,3056.205,1305.994,3050.747,1305.994Z" transform="translate(-3002.632 -1301.315)" fill="#fff"/>
        </g>
      </g>
      <g id="Grupo_47924" data-name="Grupo 47924" transform="translate(60.603 50.698)">
        <path id="Trazado_97998" data-name="Trazado 97998" d="M3088.58,1429.2l1.49,18.075,26.046-2.036v-18.186Z" transform="translate(-3088.58 -1419.312)" fill="#fff"/>
        <path id="Trazado_97999" data-name="Trazado 97999" d="M3115.855,1425.461a.5.5,0,0,1-.494-.5v-4.87a.5.5,0,1,1,.99,0v4.87A.5.5,0,0,1,3115.855,1425.461Z" transform="translate(-3103.438 -1415.175)" fill="#fff"/>
        <path id="Trazado_98000" data-name="Trazado 98000" d="M3096.425,1410.9v4.09l19.084-.874v-4.454Z" transform="translate(-3092.933 -1409.662)" fill="#afafb5"/>
      </g>
    </g>
    <g id="Grupo_47935" data-name="Grupo 47935" transform="translate(222.046 103.789)">
      <g id="Grupo_47932" data-name="Grupo 47932" transform="translate(0 48.644)">
        <g id="Grupo_47928" data-name="Grupo 47928">
          <path id="Trazado_98001" data-name="Trazado 98001" d="M2931.626,1513.134l-4.661-43.015a.837.837,0,0,1,.837-.922l67.212.2a.817.817,0,0,1,.813.717l5.163,42.679a.836.836,0,0,1-.832.932l-67.713.135A.817.817,0,0,1,2931.626,1513.134Z" transform="translate(-2926.184 -1469.197)" fill="#a7a7c8"/>
          <path id="Trazado_98002" data-name="Trazado 98002" d="M2932.967,1475.867l4.635,38.531,60.022-2.407-4.53-35.728Z" transform="translate(-2929.516 -1472.898)" fill="#fff"/>
          <g id="Grupo_47927" data-name="Grupo 47927" transform="translate(0 5.223)">
            <path id="Trazado_98003" data-name="Trazado 98003" d="M2926.063,1495.474l4.229-.21a.867.867,0,0,1,.909.765l1.93,16.75a.886.886,0,0,1-.821.98l-4.488.313a.866.866,0,0,1-.927-.777l-1.672-16.851A.887.887,0,0,1,2926.063,1495.474Z" transform="translate(-2925.219 -1488.882)" fill="#6c6ca4"/>
            <g id="Grupo_47926" data-name="Grupo 47926" transform="translate(7.834 0)">
              <rect id="Rectángulo_28793" data-name="Rectángulo 28793" width="0.972" height="33.561" transform="translate(0 0.4) rotate(-7.589)" fill="#bfbfbf"/>
              <rect id="Rectángulo_28794" data-name="Rectángulo 28794" width="0.972" height="33.561" transform="translate(3.274 0.384) rotate(-7.589)" fill="#bfbfbf"/>
              <rect id="Rectángulo_28795" data-name="Rectángulo 28795" width="0.972" height="33.561" transform="translate(6.547 0.367) rotate(-7.59)" fill="#bfbfbf"/>
              <rect id="Rectángulo_28796" data-name="Rectángulo 28796" width="0.972" height="33.561" transform="translate(9.821 0.349) rotate(-7.59)" fill="#bfbfbf"/>
              <rect id="Rectángulo_28797" data-name="Rectángulo 28797" width="0.972" height="33.561" transform="translate(13.094 0.333) rotate(-7.59)" fill="#bfbfbf"/>
              <rect id="Rectángulo_28798" data-name="Rectángulo 28798" width="0.972" height="33.561" transform="translate(16.368 0.316) rotate(-7.59)" fill="#bfbfbf"/>
              <rect id="Rectángulo_28799" data-name="Rectángulo 28799" width="0.972" height="33.561" transform="translate(19.642 0.298) rotate(-7.589)" fill="#bfbfbf"/>
              <rect id="Rectángulo_28800" data-name="Rectángulo 28800" width="0.972" height="33.561" transform="translate(22.915 0.281) rotate(-7.589)" fill="#bfbfbf"/>
              <rect id="Rectángulo_28801" data-name="Rectángulo 28801" width="0.972" height="33.561" transform="translate(26.188 0.265) rotate(-7.59)" fill="#bfbfbf"/>
              <rect id="Rectángulo_28802" data-name="Rectángulo 28802" width="0.972" height="33.561" transform="translate(29.462 0.247) rotate(-7.59)" fill="#bfbfbf"/>
              <rect id="Rectángulo_28803" data-name="Rectángulo 28803" width="0.972" height="33.561" transform="translate(32.736 0.23) rotate(-7.59)" fill="#bfbfbf"/>
              <rect id="Rectángulo_28804" data-name="Rectángulo 28804" width="0.972" height="33.561" transform="translate(36.009 0.214) rotate(-7.59)" fill="#bfbfbf"/>
              <rect id="Rectángulo_28805" data-name="Rectángulo 28805" width="0.972" height="33.561" transform="translate(39.283 0.196) rotate(-7.589)" fill="#bfbfbf"/>
              <rect id="Rectángulo_28806" data-name="Rectángulo 28806" width="0.972" height="33.561" transform="translate(42.557 0.179) rotate(-7.589)" fill="#bfbfbf"/>
              <rect id="Rectángulo_28807" data-name="Rectángulo 28807" width="0.972" height="33.561" transform="translate(45.83 0.163) rotate(-7.59)" fill="#bfbfbf"/>
              <rect id="Rectángulo_28808" data-name="Rectángulo 28808" width="0.972" height="33.561" transform="translate(49.104 0.145) rotate(-7.59)" fill="#bfbfbf"/>
              <rect id="Rectángulo_28809" data-name="Rectángulo 28809" width="0.972" height="33.561" transform="translate(52.377 0.128) rotate(-7.59)" fill="#bfbfbf"/>
            </g>
          </g>
        </g>
        <g id="Grupo_47931" data-name="Grupo 47931" transform="translate(26.529 28.874)">
          <path id="Trazado_98004" data-name="Trazado 98004" d="M3040.394,1561.76a2.14,2.14,0,0,1-.512.646,6.431,6.431,0,0,1-1.448.84,9.609,9.609,0,0,1-2.631.9,45.1,45.1,0,0,1-4.548,1.164,25.434,25.434,0,0,1-4.508,0l-21.928-1.324a9.018,9.018,0,0,1-4.279-.98c-1.423-.883-2.309-2.532-3.849-3.187a6.217,6.217,0,0,0-1.879-.4,27.749,27.749,0,0,1-6.021-.76c-1.93-.622-3.718-1.886-3.983-3.9l9.356-.38,14.262-5.173c2.173-1.246,3-3.542,3.916-5.871a1.255,1.255,0,0,1,.578-.786,1.188,1.188,0,0,1,.877.116,42.317,42.317,0,0,1,8.3,4.579c2.117,1.5,4.216,3.249,6.771,3.7,1.222.216,2.481.117,3.715.256a8.963,8.963,0,0,1,6.455,4.047C3039.976,1556.691,3041.333,1559.951,3040.394,1561.76Z" transform="translate(-2984.808 -1538.742)" fill="#fabea1"/>
          <g id="Grupo_47930" data-name="Grupo 47930" transform="translate(7.747)">
            <g id="Grupo_47929" data-name="Grupo 47929">
              <path id="Trazado_98005" data-name="Trazado 98005" d="M3009.094,1540.875c-2.416-.771-7.684-2.28-6.782-5.762.128-.494.467-1.007.975-1.055a1.679,1.679,0,0,1,.964.332,22.119,22.119,0,0,0,9.809,2.691c3.186.217,6.9-.436,9.869,1.1.692.358.9.874,1.3,1.546,1.085,1.844-.365,4.365-2.375,5.094-2.2.8-4.214.126-6.1-.98A36.4,36.4,0,0,0,3009.094,1540.875Z" transform="translate(-3002.21 -1534.054)" fill="#fabea1"/>
              <path id="Trazado_98006" data-name="Trazado 98006" d="M3039.193,1559.443a.112.112,0,0,1-.1-.056,5.354,5.354,0,0,0-2.266-2.031.116.116,0,0,1,.1-.21,5.6,5.6,0,0,1,2.365,2.12.116.116,0,0,1-.039.16A.119.119,0,0,1,3039.193,1559.443Z" transform="translate(-3021.381 -1546.86)" fill="#ac6f51"/>
              <path id="Trazado_98007" data-name="Trazado 98007" d="M3084.451,1563.565a.123.123,0,0,1-.085-.037,13.142,13.142,0,0,0-3.729-2.487l-1.2-.617a.115.115,0,0,1-.051-.156.117.117,0,0,1,.157-.05l1.2.616a13.62,13.62,0,0,1,3.794,2.537.116.116,0,0,1-.005.164A.121.121,0,0,1,3084.451,1563.565Z" transform="translate(-3045.023 -1548.563)" fill="#ac6f51"/>
            </g>
            <path id="Trazado_98008" data-name="Trazado 98008" d="M3013.432,1581.956h0a5.8,5.8,0,0,1-2.187-.5.117.117,0,0,1-.057-.154.116.116,0,0,1,.153-.059,5.579,5.579,0,0,0,2.1.478.116.116,0,0,1,0,.232Z" transform="translate(-3007.184 -1560.232)" fill="#ac6f51"/>
            <path id="Trazado_98009" data-name="Trazado 98009" d="M3025.305,1585.235a5.552,5.552,0,0,1-1.451-.193.117.117,0,0,1,.062-.225,5.273,5.273,0,0,0,2.457.078.113.113,0,0,1,.137.09.116.116,0,0,1-.091.137A5.436,5.436,0,0,1,3025.305,1585.235Z" transform="translate(-3014.172 -1562.217)" fill="#ac6f51"/>
          </g>
        </g>
      </g>
      <g id="Grupo_47934" data-name="Grupo 47934" transform="translate(75.139)">
        <path id="Trazado_98010" data-name="Trazado 98010" d="M3177.766,1447.919l-.027-.126c-1.4-6.423-2.911-12.628-4.814-18.864q-6.657-21.83-13.116-43.718c-1.191-4.067-2.391-8.131-3.55-12.208-.734-2.578-4.069-11.961-4.069-11.961s-13.714,11.475-15.839,14.69a34.862,34.862,0,0,0-5.485,12.706c-.98,5.323-.247,10.81.813,16.117,1.235,6.17,2.674,12.386,5.782,17.918,1.383,2.465,1.955,5.24,3.39,7.715a23.139,23.139,0,0,0,5.741,6.61c-.757-.591-2.162,1.821-2.513,2.118a3.606,3.606,0,0,1-1.914.633c-8.122,1.057-16.243,2.163-24.263,3.815a115.212,115.212,0,0,0-19.59,5.4c-1.148.461-2.255.881-2.868,1.112a.646.646,0,0,0-.411.7,68.057,68.057,0,0,1,.858,8.44,17.142,17.142,0,0,1-.432,2.991c-.21.843-1.018,2,0,2.618a4.453,4.453,0,0,0,1.478.23c.943.115,1.885.22,2.83.322,2.722.292,5.448.553,8.176.8q11.333,1.031,22.695,1.74c8.018.5,16.052.893,24.084.958,3.021.024,6.046.09,9.066-.036,1.5-.062,2.994-.172,4.484-.359,1.418-.179,2.793-.526,4.2-.754l.613-.1a3.927,3.927,0,0,0,.548-.115c1.354-.425,2.133-2.083,2.791-3.214a18.932,18.932,0,0,0,1.939-4.328C3179.439,1455.92,3178.612,1451.829,3177.766,1447.919Z" transform="translate(-3094.531 -1360.548)" fill="#167377"/>
        <g id="Grupo_47933" data-name="Grupo 47933">
          <path id="Trazado_98011" data-name="Trazado 98011" d="M3177.278,1413.12a.5.5,0,0,1-.476-.358c-.854-2.95-1.488-5.936-2.045-8.725-.985-4.915-1.851-10.7-.815-16.305a41.227,41.227,0,0,1,4.705-13.347c5.443-9.307,16.442-14.209,16.908-14.413a.5.5,0,0,1,.4.908c-.111.048-11.173,4.982-16.45,14.005a40.225,40.225,0,0,0-4.585,13.027c-1,5.444-.153,11.108.811,15.93.554,2.768,1.182,5.731,2.028,8.644a.5.5,0,0,1-.34.614A.455.455,0,0,1,3177.278,1413.12Z" transform="translate(-3138.092 -1359.93)" fill="#fff"/>
          <path id="Trazado_98012" data-name="Trazado 98012" d="M3130.653,1596.68h-.031c-7.5-.467-15.138-1.052-22.71-1.743-3.2-.291-5.8-.546-8.183-.8q-1.422-.152-2.837-.321c-.106-.012-.231-.019-.365-.027a2.94,2.94,0,0,1-1.31-.272.5.5,0,0,1,.511-.848,2.675,2.675,0,0,0,.855.13c.158.01.3.018.427.032.939.115,1.881.219,2.823.322,2.38.256,4.974.509,8.166.8,7.564.688,15.2,1.273,22.684,1.739a.5.5,0,0,1-.031.991Z" transform="translate(-3094.543 -1489.015)" fill="#fff"/>
          <path id="Trazado_98013" data-name="Trazado 98013" d="M3094.5,1550.28a.5.5,0,0,1-.49-.424,1.134,1.134,0,0,1,.726-1.233c.567-.213,1.691-.64,2.858-1.108a116.658,116.658,0,0,1,19.675-5.421c3.81-.784,7.968-1.511,12.707-2.223a.5.5,0,1,1,.148.979c-4.722.709-8.86,1.434-12.655,2.215a115.663,115.663,0,0,0-19.505,5.371c-1.178.471-2.308.9-2.877,1.115a.148.148,0,0,0-.095.162.5.5,0,0,1-.418.563A.605.605,0,0,1,3094.5,1550.28Z" transform="translate(-3093.999 -1459.76)" fill="#fff"/>
          <path id="Trazado_98014" data-name="Trazado 98014" d="M3219.456,1535.388a.5.5,0,0,1-.011-.991c.532-.012.626-.113.633-.124a.692.692,0,0,0-.01-.1c-.352-2.2-4.107-2.652-6.125-2.9l-4.624-.571a.5.5,0,1,1,.122-.983l4.622.57c2.277.275,6.515.788,6.985,3.725a1.22,1.22,0,0,1-.008.491c-.206.845-1.234.87-1.573.878Z" transform="translate(-3157.74 -1454.133)" fill="#fff"/>
          <path id="Trazado_98015" data-name="Trazado 98015" d="M3211.809,1543.044a.491.491,0,0,1-.314-.112,22.353,22.353,0,0,1-5.246-6.225,7.845,7.845,0,0,1-.66-3.269.5.5,0,0,1,.955.267,8.262,8.262,0,0,0,.567,2.511,21.386,21.386,0,0,0,5.013,5.949.5.5,0,0,1-.315.879Z" transform="translate(-3155.89 -1455.995)" fill="#fff"/>
          <path id="Trazado_98016" data-name="Trazado 98016" d="M3201.479,1543.852h-.017a.493.493,0,0,1-.477-.511c.017-.563-.024-1.368-.069-2.22a16.9,16.9,0,0,1,.139-4.712.5.5,0,1,1,.946.294,17.067,17.067,0,0,0-.095,4.367c.046.874.088,1.7.068,2.3A.5.5,0,0,1,3201.479,1543.852Z" transform="translate(-3153.271 -1457.649)" fill="#fff"/>
        </g>
      </g>
    </g>
  </g>
  <g id="Grupo_47939" data-name="Grupo 47939" transform="translate(235.489)">
    <g id="Grupo_47937" data-name="Grupo 47937">
      <path id="Trazado_98017" data-name="Trazado 98017" d="M2774.448,1079.039a38.136,38.136,0,0,1,5.628,7.79c14.382,26.524-10.2,41.873-31.919,47.421-17.981,4.594-37.649,5.84-54.285-2.4-20.032-9.921-35.735-37.333-20.134-57.819,11.037-14.489,30.747-15.289,46.752-13.858,11.255,1.007,22.637,2.041,33.313,5.818A51.668,51.668,0,0,1,2774.448,1079.039Z" transform="translate(-2667.403 -1059.674)" fill="#8ec8c8"/>
      <path id="Trazado_98018" data-name="Trazado 98018" d="M2814.141,1195.081l40.057,23.578-20.029-34.792Z" transform="translate(-2748.815 -1128.578)" fill="#8ec8c8"/>
    </g>
    <g id="Grupo_47938" data-name="Grupo 47938" transform="translate(21.076 33.597)">
      <circle id="Elipse_3902" data-name="Elipse 3902" cx="5.457" cy="5.457" r="5.457" transform="translate(0 7.718) rotate(-45)" fill="#fbfffe"/>
      <circle id="Elipse_3903" data-name="Elipse 3903" cx="5.457" cy="5.457" r="5.457" transform="translate(30.46 11.775) rotate(-76.717)" fill="#fbfffe"/>
      <circle id="Elipse_3904" data-name="Elipse 3904" cx="5.457" cy="5.457" r="5.457" transform="translate(60.836 12.23) rotate(-80.783)" fill="#fbfffe"/>
    </g>
  </g>
</svg>
