<svg xmlns="http://www.w3.org/2000/svg" xmlns:xlink="http://www.w3.org/1999/xlink" width="260.457" height="363.611" viewBox="0 0 260.457 363.611">
  <defs>
    <linearGradient id="linear-gradient" x1="0.5" x2="0.5" y2="1" gradientUnits="objectBoundingBox">
      <stop offset="0" stop-color="#fff"/>
      <stop offset="1" stop-color="#d3d3d3"/>
    </linearGradient>
    <linearGradient id="linear-gradient-3" y1="0.5" x2="1" y2="0.5" gradientUnits="objectBoundingBox">
      <stop offset="0" stop-color="#ff928e"/>
      <stop offset="1" stop-color="#feb3b1"/>
    </linearGradient>
    <linearGradient id="linear-gradient-6" x1="294.087" y1="1.605" x2="296.088" y2="4.278" xlink:href="#linear-gradient-3"/>
    <linearGradient id="linear-gradient-7" x1="0.439" y1="-3.503" x2="0.505" y2="0.689" xlink:href="#linear-gradient-3"/>
    <linearGradient id="linear-gradient-8" x1="0.511" y1="0.146" x2="0.456" y2="1.705" xlink:href="#linear-gradient-3"/>
    <linearGradient id="linear-gradient-9" x1="-47.545" y1="17.427" x2="-48.867" y2="15.942" xlink:href="#linear-gradient-3"/>
    <linearGradient id="linear-gradient-10" x1="-155.484" y1="82.575" x2="-159.791" y2="75.375" xlink:href="#linear-gradient-3"/>
    <linearGradient id="linear-gradient-11" x1="1.66" y1="1.186" x2="0.085" y2="0.256" xlink:href="#linear-gradient-3"/>
    <linearGradient id="linear-gradient-12" x1="0.892" y1="0.928" x2="-0.916" y2="-1.638" xlink:href="#linear-gradient-3"/>
  </defs>
  <g id="Grupo_64235" data-name="Grupo 64235" transform="translate(-1298.469 -210.368)">
    <g id="Grupo_47019" data-name="Grupo 47019" transform="translate(1371.574 243.366)">
      <path id="Trazado_97725" data-name="Trazado 97725" d="M1960.26,550.706l-6.894,11.942h58.472l-6.895-11.942a12.011,12.011,0,0,0-10.651-6.149h-23.382A12.012,12.012,0,0,0,1960.26,550.706Z" transform="translate(-1888.927 -544.557)" fill-rule="evenodd" fill="url(#linear-gradient)"/>
      <rect id="Rectángulo_28316" data-name="Rectángulo 28316" width="186.223" height="261.786" rx="8" transform="translate(0.564 13.618)" fill="#00223d"/>
      <rect id="Rectángulo_28317" data-name="Rectángulo 28317" width="155.477" height="231.04" transform="translate(15.937 28.991)" fill="#fdfdfd"/>
      <path id="Trazado_97726" data-name="Trazado 97726" d="M1983.076,603.095v15.484a10.758,10.758,0,0,1-10.727,10.727h-54.364a10.758,10.758,0,0,1-10.727-10.727V603.095a3.081,3.081,0,0,1,3.075-3.075H1980A3.081,3.081,0,0,1,1983.076,603.095Z" transform="translate(-1851.492 -589.588)" fill-rule="evenodd" fill="url(#linear-gradient)"/>
      <path id="Trazado_97727" data-name="Trazado 97727" d="M1967.253,634.558a2.083,2.083,0,0,1,0-4.166h49.866a2.083,2.083,0,0,1,0,4.166Z" transform="translate(-1898.51 -614.247)" fill="#dbdada" fill-rule="evenodd"/>
      <path id="Trazado_97728" data-name="Trazado 97728" d="M1967.253,686.891a2.083,2.083,0,1,1,0-4.165h49.866a2.083,2.083,0,0,1,0,4.165Z" transform="translate(-1898.51 -656.738)" fill="#dbdada" fill-rule="evenodd"/>
      <g id="Grupo_47018" data-name="Grupo 47018" transform="translate(45.958 61.66)">
        <g id="Grupo_47014" data-name="Grupo 47014" transform="translate(0 144.421)">
          <path id="Trazado_97729" data-name="Trazado 97729" d="M1857.06,1640.216h91.525a1.956,1.956,0,0,1,0,3.911H1857.06a1.956,1.956,0,0,1,0-3.911Z" transform="translate(-1855.105 -1640.216)" fill="#dbdada" fill-rule="evenodd"/>
          <path id="Trazado_97730" data-name="Trazado 97730" d="M1857.06,1689.286h91.525a1.955,1.955,0,0,1,0,3.911H1857.06a1.955,1.955,0,0,1,0-3.911Z" transform="translate(-1855.105 -1680.057)" fill="#dbdada" fill-rule="evenodd"/>
          <path id="Trazado_97731" data-name="Trazado 97731" d="M1857.06,1738.353h55.13a1.956,1.956,0,0,1,0,3.911h-55.13a1.956,1.956,0,0,1,0-3.911Z" transform="translate(-1855.105 -1719.894)" fill="#dbdada" fill-rule="evenodd"/>
        </g>
        <g id="Grupo_47015" data-name="Grupo 47015" transform="translate(0 87.856)">
          <path id="Trazado_97732" data-name="Trazado 97732" d="M1860.227,1350.338l1.79-1.79a.6.6,0,0,1,.843,0l2.983,2.983,5.368-5.368a.6.6,0,0,1,.844,0l1.789,1.789a.6.6,0,0,1,0,.843l-7.579,7.58a.6.6,0,0,1-.844,0l-5.193-5.194a.6.6,0,0,1,0-.844Zm-2.735-10.855a2.393,2.393,0,0,0-2.386,2.385v19.087a2.393,2.393,0,0,0,2.386,2.386h19.086a2.393,2.393,0,0,0,2.386-2.386v-19.087a2.392,2.392,0,0,0-2.386-2.385Z" transform="translate(-1855.106 -1339.482)" fill="#26aab7" fill-rule="evenodd"/>
          <rect id="Rectángulo_28318" data-name="Rectángulo 28318" width="62.033" height="6.291" rx="3.145" transform="translate(33.402)" fill="#dbdada"/>
          <path id="Trazado_97733" data-name="Trazado 97733" d="M2034.649,1398.833h58.122a1.956,1.956,0,1,1,0,3.911h-58.122a1.956,1.956,0,0,1,0-3.911Z" transform="translate(-1999.292 -1387.669)" fill="#dbdada" fill-rule="evenodd"/>
          <path id="Trazado_97734" data-name="Trazado 97734" d="M2034.649,1445.535h42.259a1.955,1.955,0,0,1,0,3.911h-42.259a1.955,1.955,0,1,1,0-3.911Z" transform="translate(-1999.292 -1425.588)" fill="#dbdada" fill-rule="evenodd"/>
        </g>
        <g id="Grupo_47016" data-name="Grupo 47016" transform="translate(0 43.928)">
          <path id="Trazado_97735" data-name="Trazado 97735" d="M1860.227,1116.788l1.79-1.789a.6.6,0,0,1,.843,0l2.983,2.982,5.368-5.368a.6.6,0,0,1,.844,0l1.789,1.789a.6.6,0,0,1,0,.843l-7.579,7.58a.6.6,0,0,1-.844,0l-5.193-5.194a.6.6,0,0,1,0-.843Zm-2.735-10.856a2.393,2.393,0,0,0-2.386,2.386V1127.4a2.393,2.393,0,0,0,2.386,2.386h19.086a2.393,2.393,0,0,0,2.386-2.386v-19.087a2.392,2.392,0,0,0-2.386-2.386Z" transform="translate(-1855.106 -1105.932)" fill="#26aab7" fill-rule="evenodd"/>
          <rect id="Rectángulo_28319" data-name="Rectángulo 28319" width="62.033" height="6.291" rx="3.145" transform="translate(33.402)" fill="#dbdada"/>
          <path id="Trazado_97736" data-name="Trazado 97736" d="M2034.649,1165.284h58.122a1.955,1.955,0,1,1,0,3.911h-58.122a1.955,1.955,0,1,1,0-3.911Z" transform="translate(-1999.292 -1154.121)" fill="#dbdada" fill-rule="evenodd"/>
          <path id="Trazado_97737" data-name="Trazado 97737" d="M2034.649,1211.985h42.259a1.956,1.956,0,0,1,0,3.911h-42.259a1.956,1.956,0,0,1,0-3.911Z" transform="translate(-1999.292 -1192.037)" fill="#dbdada" fill-rule="evenodd"/>
        </g>
        <g id="Grupo_47017" data-name="Grupo 47017" transform="translate(0)">
          <path id="Trazado_97738" data-name="Trazado 97738" d="M1860.227,883.239l1.79-1.789a.6.6,0,0,1,.843,0l2.983,2.982,5.368-5.368a.6.6,0,0,1,.844,0l1.789,1.789a.6.6,0,0,1,0,.844l-7.579,7.579a.6.6,0,0,1-.844,0l-5.193-5.194a.6.6,0,0,1,0-.843Zm-2.735-10.856a2.393,2.393,0,0,0-2.386,2.386v19.087a2.393,2.393,0,0,0,2.386,2.386h19.086a2.393,2.393,0,0,0,2.386-2.386V874.769a2.393,2.393,0,0,0-2.386-2.386Z" transform="translate(-1855.106 -872.383)" fill="#26aab7" fill-rule="evenodd"/>
          <rect id="Rectángulo_28320" data-name="Rectángulo 28320" width="62.033" height="6.291" rx="3.145" transform="translate(33.402)" fill="#dbdada"/>
          <path id="Trazado_97739" data-name="Trazado 97739" d="M2034.649,931.734h58.122a1.955,1.955,0,1,1,0,3.911h-58.122a1.955,1.955,0,1,1,0-3.911Z" transform="translate(-1999.292 -920.571)" fill="#dbdada" fill-rule="evenodd"/>
          <path id="Trazado_97740" data-name="Trazado 97740" d="M2034.649,978.436h42.259a1.956,1.956,0,0,1,0,3.911h-42.259a1.956,1.956,0,0,1,0-3.911Z" transform="translate(-1999.292 -958.488)" fill="#dbdada" fill-rule="evenodd"/>
        </g>
      </g>
      <path id="Trazado_97741" data-name="Trazado 97741" d="M1872.633,1925.176H1731.686a.564.564,0,1,1,0-1.129h140.947a.564.564,0,1,1,0,1.129Z" transform="translate(-1708.483 -1664.58)" fill="#8673c6"/>
      <path id="Trazado_97742" data-name="Trazado 97742" d="M1793.942,873.265a.564.564,0,0,1-.4-.963,11.653,11.653,0,0,0,3.443-8.29v-69.3a.564.564,0,0,1,1.129,0v69.3a12.772,12.772,0,0,1-3.775,9.088A.562.562,0,0,1,1793.942,873.265Zm-179.005,0a.563.563,0,0,1-.4-.165,12.774,12.774,0,0,1-3.774-9.088v-69.3a.564.564,0,0,1,1.129,0v69.3a11.653,11.653,0,0,0,3.444,8.29.564.564,0,0,1-.4.963Zm182.614-85.846a.564.564,0,0,1-.564-.564v-6.9a.564.564,0,1,1,1.129,0v6.9A.564.564,0,0,1,1797.55,787.419Zm-186.223,0a.564.564,0,0,1-.564-.564v-6.9a.564.564,0,1,1,1.129,0v6.9A.564.564,0,0,1,1611.327,787.419Zm186.223-75.97a.564.564,0,0,1-.564-.564v-6.9a.564.564,0,0,1,1.129,0v6.9A.564.564,0,0,1,1797.55,711.448Zm-186.223,0a.564.564,0,0,1-.564-.564v-6.9a.564.564,0,1,1,1.129,0v6.9A.564.564,0,0,1,1611.327,711.448Zm186.223-14.764a.564.564,0,0,1-.564-.564v-69.3a11.747,11.747,0,0,0-11.734-11.734h-28.563a.564.564,0,0,1,0-1.128h28.563a12.878,12.878,0,0,1,12.863,12.862v69.3A.564.564,0,0,1,1797.55,696.685Zm-186.223,0a.564.564,0,0,1-.564-.564v-69.3a12.877,12.877,0,0,1,12.863-12.862h28.563a.564.564,0,0,1,0,1.128h-28.563a11.748,11.748,0,0,0-11.734,11.734v69.3A.564.564,0,0,1,1611.327,696.685Z" transform="translate(-1610.763 -600.906)" fill="#8673c6"/>
    </g>
    <g id="Grupo_47021" data-name="Grupo 47021" transform="translate(1332.9 250.089)">
      <g id="Grupo_47020" data-name="Grupo 47020" transform="translate(4.389 4.406)">
        <path id="Trazado_97743" data-name="Trazado 97743" d="M1397.687,213.715a33.724,33.724,0,0,1-44.048,50.85l-11.948,5.146,5.146-11.948a33.724,33.724,0,0,1,50.85-44.048Z" transform="translate(-1339.555 -203.29)" fill="#fdfdfd" fill-rule="evenodd"/>
        <path id="Trazado_97744" data-name="Trazado 97744" d="M1371.411,269.481a34.252,34.252,0,0,1-20.283-6.635l-11.649,5.017a.564.564,0,0,1-.741-.742l5.017-11.649a34.292,34.292,0,1,1,29.959,13.931Q1372.56,269.481,1371.411,269.481Zm-20.208-7.846a.565.565,0,0,1,.339.113,33.16,33.16,0,1,0-3.583-50,33.3,33.3,0,0,0-3.106,43.311.564.564,0,0,1,.067.562l-4.585,10.645,10.646-4.585A.562.562,0,0,1,1351.2,261.635Z" transform="translate(-1337.12 -200.923)" fill="#00223d"/>
      </g>
      <circle id="Elipse_3890" data-name="Elipse 3890" cx="28.663" cy="28.663" r="28.663" transform="translate(10.012 10.014)" fill="#00223d"/>
      <path id="Trazado_97745" data-name="Trazado 97745" d="M1352.444,254.854a38.543,38.543,0,0,1-21-6.2.564.564,0,0,1,.615-.947,37.561,37.561,0,0,0,40.73.043.564.564,0,1,1,.611.949A38.67,38.67,0,0,1,1352.444,254.854Zm27.494-11.706a.564.564,0,0,1-.407-.956,37.452,37.452,0,0,0,4.718-46.016.564.564,0,1,1,.955-.6,38.854,38.854,0,0,1,5.751,24.341,38.257,38.257,0,0,1-10.61,23.059A.562.562,0,0,1,1379.938,243.148Zm-59.48-5.7a.564.564,0,0,1-.474-.257,38.713,38.713,0,0,1-5.991-25.027.564.564,0,1,1,1.122.117,37.58,37.58,0,0,0,5.816,24.3.564.564,0,0,1-.473.872Zm-3.933-33.407a.565.565,0,0,1-.532-.752,38.682,38.682,0,0,1,47.325-24.24.564.564,0,0,1-.316,1.083,37.554,37.554,0,0,0-45.945,23.532A.564.564,0,0,1,1316.525,204.041Zm62.681-14.45a.563.563,0,0,1-.4-.163,37.609,37.609,0,0,0-7.812-5.911.564.564,0,1,1,.558-.981,38.747,38.747,0,0,1,8.046,6.089.564.564,0,0,1-.4.966Z" transform="translate(-1313.784 -177.498)" fill="#00223d"/>
    </g>
    <circle id="Elipse_3891" data-name="Elipse 3891" cx="6.489" cy="6.489" r="6.489" transform="translate(1410.248 230.388)" fill="#eff4ef"/>
    <path id="Trazado_97751" data-name="Trazado 97751" d="M2584.324,1001.534a1.174,1.174,0,1,0,1.6-.43A1.175,1.175,0,0,0,2584.324,1001.534Z" transform="translate(-1029.507 -671.739)" fill="#00223d" fill-rule="evenodd"/>
    <path id="Trazado_97752" data-name="Trazado 97752" d="M2563.257,1080.164a1.175,1.175,0,1,0,1.174-1.174A1.174,1.174,0,0,0,2563.257,1080.164Z" transform="translate(-1012.53 -735.103)" fill="#00223d" fill-rule="evenodd"/>
    <path id="Trazado_97753" data-name="Trazado 97753" d="M2584.324,1158.794a1.174,1.174,0,1,0,.43-1.6A1.175,1.175,0,0,0,2584.324,1158.794Z" transform="translate(-1029.507 -798.467)" fill="#00223d" fill-rule="evenodd"/>
    <path id="Trazado_97762" data-name="Trazado 97762" d="M1903.711,295.711a7.114,7.114,0,1,0,7.114,7.114,7.114,7.114,0,0,0-7.114-7.114Zm-1.926-9.06h3.853a.792.792,0,0,1,.723.447l1.274,2.548a13.684,13.684,0,0,1,2.621,1.085l2.7-.9a.792.792,0,0,1,.828.2l1.362,1.362,1.362,1.362a.792.792,0,0,1,.2.827l-.9,2.7a13.616,13.616,0,0,1,1.085,2.621l2.548,1.274a.791.791,0,0,1,.447.723v3.852a.792.792,0,0,1-.447.723l-2.548,1.274a13.617,13.617,0,0,1-1.085,2.621l.9,2.7a.792.792,0,0,1-.2.828l-1.362,1.362-1.362,1.362a.793.793,0,0,1-.828.2l-2.7-.9a13.669,13.669,0,0,1-2.621,1.086l-1.274,2.548a.792.792,0,0,1-.723.447h-3.852a.792.792,0,0,1-.723-.447L1899.787,316a13.667,13.667,0,0,1-2.621-1.086l-2.7.9a.792.792,0,0,1-.827-.2l-1.362-1.362-1.362-1.362a.792.792,0,0,1-.2-.828l.9-2.7a13.653,13.653,0,0,1-1.086-2.62l-2.548-1.274a.792.792,0,0,1-.447-.723V300.9a.791.791,0,0,1,.447-.723l2.548-1.274a13.651,13.651,0,0,1,1.086-2.62l-.9-2.7a.793.793,0,0,1,.2-.827l1.362-1.362,1.362-1.362a.791.791,0,0,1,.827-.2l2.7.9a13.674,13.674,0,0,1,2.621-1.085l1.274-2.548A.792.792,0,0,1,1901.785,286.651Z" transform="translate(-588.569 32.986)" fill="#eff4ef" stroke="#00223d" stroke-width="1" fill-rule="evenodd"/>
    <path id="Trazado_97777" data-name="Trazado 97777" d="M1437.894,282.747a18.868,18.868,0,1,0,17.776,12.5l-2.844,2.844a15.35,15.35,0,1,1-5.105-8.246l2.512-2.512a18.807,18.807,0,0,0-12.338-4.589Zm-9.93,17.01a2.36,2.36,0,0,1,3.338-3.337l6.593,6.592,14.853-14.853a2.36,2.36,0,1,1,3.338,3.338l-16.522,16.522a2.36,2.36,0,0,1-3.338,0Z" transform="translate(-66.32 -12.861)" fill="#fff" fill-rule="evenodd"/>
    <path id="Trazado_97778" data-name="Trazado 97778" d="M2222.984,239.957a.563.563,0,0,1-.4-.165l-2.328-2.328a.564.564,0,0,1,.8-.8l2.328,2.328a.564.564,0,0,1-.4.963Zm-9.31,0a.564.564,0,0,1-.4-.963l2.328-2.328a.564.564,0,1,1,.8.8l-2.328,2.328A.561.561,0,0,1,2213.674,239.957Zm2.327-6.983a.56.56,0,0,1-.4-.165l-2.328-2.328a.564.564,0,1,1,.8-.8l2.328,2.328a.564.564,0,0,1-.4.963Zm4.656,0a.564.564,0,0,1-.4-.963l2.328-2.328a.564.564,0,1,1,.8.8l-2.328,2.328A.563.563,0,0,1,2220.657,232.974Z" transform="translate(-744.066 -19.15)" fill="#eff4ef"/>
    <g id="Grupo_47028" data-name="Grupo 47028" transform="translate(1310.64 372.448)">
      <path id="Trazado_96247" data-name="Trazado 96247" d="M945.384,1485.612s-.7,3.961-1.043,7.881a2.7,2.7,0,0,0,2.584,2.926c5.221.218,16.388.641,20.4.462a.879.879,0,0,0,.774-1.2h0a1.966,1.966,0,0,0-1.007-1.06l-18.446-8.478Z" transform="translate(-900.815 -1295.806)" fill="#12263f"/>
      <path id="Trazado_96248" data-name="Trazado 96248" d="M946.042,1475.434l.562,4.737s3.231,1.5,5.438-.19L950.7,1474.7Z" transform="translate(-902.047 -1287.956)" fill="url(#linear-gradient-3)"/>
      <path id="Trazado_96249" data-name="Trazado 96249" d="M909.945,1159.647c-.243,1.237-1.3,61.733,5.163,88.844a.92.92,0,0,1-.54,1.07,16.012,16.012,0,0,1-5.266,1.071,1.586,1.586,0,0,1-1.572-1.137c-1.848-6.29-10.706-37.805-11.861-67.91-1.291-33.639,0-1.145,0-1.145l.757-20.794Z" transform="translate(-865.527 -1061.228)" fill="#5b7393"/>
      <path id="Trazado_96250" data-name="Trazado 96250" d="M866.688,1492.981s-1.113,2-2.191,7.312a1.648,1.648,0,0,0,1.45,1.974c1.724.17,4.378.388,6.5.373a1.643,1.643,0,0,0,1.627-1.833,13.861,13.861,0,0,0-3.235-7.6Z" transform="translate(-843.339 -1301.109)" fill="#12263f"/>
      <path id="Trazado_96251" data-name="Trazado 96251" d="M868.912,1470.534l1.313,7.164s1.3.966,3.867.266l-.627-7.708Z" transform="translate(-846.541 -1284.756)" fill="url(#linear-gradient-3)"/>
      <path id="Trazado_96252" data-name="Trazado 96252" d="M851.031,1157.68c-5.289,31.918,1.147,78.888,3.318,88.082a1.433,1.433,0,0,0,1.158,1.089,9.619,9.619,0,0,0,4.137-.165,1.313,1.313,0,0,0,.944-1.21c.291-7.432-.233-53.06,4.7-71.093a4.1,4.1,0,0,1,1.58-2.26l9.565-6.8.733-10.991Z" transform="translate(-832.208 -1057.405)" fill="#5b7393"/>
      <g id="Grupo_46179" data-name="Grupo 46179" transform="translate(16.848 15.25)">
        <path id="Trazado_96253" data-name="Trazado 96253" d="M884.888,943.908c-15.85-.262-33.338,4.161-33.338,4.161-4.724,27.567-.826,59.363-.826,59.363,12.27,3.218,26.112-1.967,26.112-1.967,2.04-11.522,11.555-43.95,11.555-43.95a52.21,52.21,0,0,0,19.377-6.149c-4.007-4.645-5.9-10.555-6.717-14.049A53.176,53.176,0,0,1,884.888,943.908Z" transform="translate(-849.213 -919.361)" fill="#12263f"/>
        <path id="Trazado_96254" data-name="Trazado 96254" d="M1064.763,864.206a3.033,3.033,0,0,0-3.528-.991c-2.332,9.853-14.562,17.841-27.126,21.746.821,3.494,2.71,9.4,6.717,14.049C1061.678,887.286,1064.763,864.206,1064.763,864.206Z" transform="translate(-982.271 -863.005)" fill="url(#linear-gradient-3)"/>
      </g>
      <g id="Grupo_46180" data-name="Grupo 46180" transform="translate(95.812)">
        <path id="Trazado_96255" data-name="Trazado 96255" d="M1134.013,825.54c.163.518-1.724,1.307-2.835-.811-.039-1.015-.656-5.365-.05-6.192,3.231-4.4,9.495-9.926,9.495-9.926a1.491,1.491,0,0,1,.186,2.071l-3.038,3.166a14.726,14.726,0,0,1,1.774,3.507,4.259,4.259,0,0,1-.425,3.134c-.534.961-1.261,2.21-1.949,3.188A4.2,4.2,0,0,1,1134.013,825.54Z" transform="translate(-1130.863 -808.611)" fill="url(#linear-gradient-6)"/>
        <path id="Trazado_96256" data-name="Trazado 96256" d="M1141.423,834.614l-2.769,2.347-.869,2.337,2.469,2.739s.83-4.637,1.447-5.641S1142,834.908,1141.423,834.614Z" transform="translate(-1135.844 -827.324)" fill="url(#linear-gradient-7)"/>
      </g>
      <path id="Trazado_96257" data-name="Trazado 96257" d="M819.381,980.748,813.3,965.4s-14.8,10.059-17.239,22.812a33.683,33.683,0,0,1,12.469,3.5C810.781,986.65,819.381,980.748,819.381,980.748Z" transform="translate(-794.116 -921.443)" fill="#12263f"/>
      <path id="Trazado_96258" data-name="Trazado 96258" d="M906.177,904.663l-5.043,14.585a.526.526,0,0,0,.24.633c1.374.76,6.327,2.957,12.3-.827a2.475,2.475,0,0,0,1.139-1.768l1.633-12.623Z" transform="translate(-869.708 -877.733)" fill="url(#linear-gradient-8)"/>
      <g id="Grupo_46181" data-name="Grupo 46181" transform="translate(26.898 5.845)">
        <path id="Trazado_96259" data-name="Trazado 96259" d="M925.156,856.492s5.538,10.424,4.828,14.635-7.573,3.908-13.566.488L912.23,860.36Z" transform="translate(-904.612 -848.912)" fill="url(#linear-gradient-9)"/>
        <path id="Trazado_96260" data-name="Trazado 96260" d="M897.129,846.633a.429.429,0,0,0,.188-.629,11.214,11.214,0,0,1-1.541-3.271s-1-.637,2.534-1.482,8.793-2.156,9.9-5.16c1.079-2.929-1.756-10.295-6.277-4.426a.429.429,0,0,1-.681,0c-.741-.965-2.69-2.967-5.4-1.753-2.532,1.136-2.817,2.991-2.782,3.926a.427.427,0,0,1-.506.437,4.954,4.954,0,0,0-5.785,2.7c-1.181,2.6-.413,4.065.285,4.783a.428.428,0,0,1-.183.711,2.579,2.579,0,0,0-1.819,2.942c.151,2.725,3.2,2.485,4.064,2.36a.43.43,0,0,1,.381.135c.744.823,4.095,4.318,7.721,4.739a.433.433,0,0,0,.455-.573l-1.569-4.562a.432.432,0,0,1,.234-.535Z" transform="translate(-885.058 -829.457)" fill="#00223d"/>
        <path id="Trazado_96261" data-name="Trazado 96261" d="M919.463,889.59s-3.943-2.706-4.231-.427,3.551,3.3,5.452,2.451Z" transform="translate(-906.761 -871.767)" fill="url(#linear-gradient-10)"/>
      </g>
      <path id="Trazado_96272" data-name="Trazado 96272" d="M791.169,1045.328s-10.119,23.047,14.615,26.421l3.373-2.811s-12.367-6.746-5.621-20.237C803.535,1048.7,796.228,1042.518,791.169,1045.328Z" transform="translate(-789.119 -978.435)" fill="url(#linear-gradient-11)"/>
      <path id="Trazado_96273" data-name="Trazado 96273" d="M851.931,1131.42h8.994s5.622,7.308,5.059,8.994-6.118.346-6.118.346l-2.876-4.843s-8.432.562-8.432-1.686S851.931,1131.42,851.931,1131.42Z" transform="translate(-831.894 -1040.916)" fill="url(#linear-gradient-12)"/>
    </g>
  </g>
</svg>
