<svg xmlns="http://www.w3.org/2000/svg" xmlns:xlink="http://www.w3.org/1999/xlink" width="199.282" height="180.47" viewBox="0 0 199.282 180.47">
  <defs>
    <linearGradient id="linear-gradient" x1="0.5" x2="0.5" y2="1" gradientUnits="objectBoundingBox">
      <stop offset="0" stop-color="#fff"/>
      <stop offset="1" stop-color="#d3d3d3"/>
    </linearGradient>
    <linearGradient id="linear-gradient-3" x1="0.5" x2="0.5" y2="1" gradientUnits="objectBoundingBox">
      <stop offset="0" stop-color="#fff"/>
      <stop offset="1" stop-color="#d2e6ee"/>
    </linearGradient>
  </defs>
  <g id="Grupo_64226" data-name="Grupo 64226" transform="translate(-1978.182 267.656)">
    <g id="Grupo_12572" data-name="Grupo 12572" transform="translate(2139.855 -245.961)">
      <path id="Trazado_17367" data-name="Trazado 17367" d="M2205.951-211.17a13.909,13.909,0,0,1-13.893-13.893,13.909,13.909,0,0,1,13.893-13.893,13.908,13.908,0,0,1,13.892,13.893A13.908,13.908,0,0,1,2205.951-211.17Zm0-27.088a13.209,13.209,0,0,0-13.195,13.195,13.209,13.209,0,0,0,13.195,13.195,13.209,13.209,0,0,0,13.195-13.195A13.209,13.209,0,0,0,2205.951-238.258Z" transform="translate(-2192.058 238.956)" fill="#282233"/>
      <path id="Trazado_17368" data-name="Trazado 17368" d="M2213.85-216.747a.261.261,0,0,1-.177-.069l-4.821-4.438a.262.262,0,0,1-.066-.288.262.262,0,0,1,.244-.167h9.259a.262.262,0,0,1,.261.262.262.262,0,0,1-.261.262H2209.7l4.328,3.984a.262.262,0,0,1,.015.37A.259.259,0,0,1,2213.85-216.747Z" transform="translate(-2196.136 234.746)" fill="#c7d8e5"/>
    </g>
    <path id="Trazado_17369" data-name="Trazado 17369" d="M2085.037-203.766v-7.951h-6.778a14.951,14.951,0,0,0-1.434-2.924l4.488-5.413-6.121-5.074-4.262,5.14a14.826,14.826,0,0,0-2.755-1.063v-6.431h-7.951v6.431a14.806,14.806,0,0,0-2.755,1.063l-4.262-5.14-6.121,5.074,4.488,5.413a14.936,14.936,0,0,0-1.434,2.924h-6.778v7.951h6.172a14.844,14.844,0,0,0,1.751,4.642l-4.2,5.065,6.121,5.074,3.788-4.568a14.812,14.812,0,0,0,3.229,1.313v5.608h7.951v-5.608a14.807,14.807,0,0,0,3.229-1.313l3.788,4.568,6.121-5.074-4.2-5.065a14.851,14.851,0,0,0,1.751-4.642Zm-20.836,4.935a7.814,7.814,0,0,1-7.814-7.813,7.814,7.814,0,0,1,7.814-7.814,7.814,7.814,0,0,1,7.814,7.814A7.814,7.814,0,0,1,2064.2-198.831Z" transform="translate(-15.91 -9.806)" fill="#12263f"/>
    <g id="Grupo_12573" data-name="Grupo 12573" transform="translate(2083.19 -220.182)">
      <path id="Trazado_17370" data-name="Trazado 17370" d="M2158.879-192.909a30.227,30.227,0,0,0-30.228,30.227,30.228,30.228,0,0,0,30.228,30.228,30.228,30.228,0,0,0,30.227-30.228A30.227,30.227,0,0,0,2158.879-192.909Zm.687,52.6a22.376,22.376,0,0,1-22.377-22.376,22.376,22.376,0,0,1,22.377-22.376,22.376,22.376,0,0,1,22.376,22.376A22.376,22.376,0,0,1,2159.566-140.306Z" transform="translate(-2119.917 201.938)" fill="#ffd947"/>
      <rect id="Rectángulo_3015" data-name="Rectángulo 3015" width="8.244" height="11.777" transform="translate(34.84)" fill="#ffd947"/>
      <rect id="Rectángulo_3016" data-name="Rectángulo 3016" width="8.244" height="11.777" transform="translate(51.163 0.772) rotate(25.024)" fill="#ffd947"/>
      <rect id="Rectángulo_3017" data-name="Rectángulo 3017" width="8.244" height="11.777" transform="matrix(0.665, 0.747, -0.747, 0.665, 65.06, 8.317)" fill="#ffd947"/>
      <rect id="Rectángulo_3018" data-name="Rectángulo 3018" width="8.244" height="11.777" transform="translate(73.818 19.774) rotate(66.395)" fill="#ffd947"/>
      <rect id="Rectángulo_3019" data-name="Rectángulo 3019" width="8.244" height="11.777" transform="translate(11.777 35.331) rotate(90)" fill="#ffd947"/>
      <rect id="Rectángulo_3020" data-name="Rectángulo 3020" width="8.244" height="11.777" transform="translate(77.728 35.331) rotate(90)" fill="#c7d8e5"/>
      <rect id="Rectángulo_3021" data-name="Rectángulo 3021" width="8.244" height="11.777" transform="translate(31.546 11.443) rotate(154.976)" fill="#ffd947"/>
      <rect id="Rectángulo_3022" data-name="Rectángulo 3022" width="8.244" height="11.777" transform="matrix(-0.665, 0.747, -0.747, -0.665, 21.468, 16.143)" fill="#ffd947"/>
      <rect id="Rectángulo_3023" data-name="Rectángulo 3023" width="8.244" height="11.777" transform="translate(14.701 24.49) rotate(113.605)" fill="#ffd947"/>
      <rect id="Rectángulo_3024" data-name="Rectángulo 3024" width="8.244" height="11.777" transform="translate(34.938 67.128)" fill="#ffd947"/>
      <rect id="Rectángulo_3025" data-name="Rectángulo 3025" width="8.244" height="11.777" transform="translate(46.279 67.462) rotate(-25.025)" fill="#ffd947"/>
      <rect id="Rectángulo_3026" data-name="Rectángulo 3026" width="8.244" height="11.777" transform="matrix(0.665, -0.747, 0.747, 0.665, 56.358, 62.762)" fill="#ffd947"/>
      <rect id="Rectángulo_3027" data-name="Rectángulo 3027" width="8.244" height="11.777" transform="translate(63.124 54.415) rotate(-66.395)" fill="#ffd947"/>
      <rect id="Rectángulo_3028" data-name="Rectángulo 3028" width="8.244" height="11.777" transform="translate(26.662 78.133) rotate(-154.975)" fill="#ffd947"/>
      <rect id="Rectángulo_3029" data-name="Rectángulo 3029" width="8.244" height="11.777" transform="matrix(-0.665, -0.747, 0.747, -0.665, 12.766, 70.588)" fill="#c7d8e5"/>
      <rect id="Rectángulo_3030" data-name="Rectángulo 3030" width="8.244" height="11.777" transform="matrix(-0.4, -0.916, 0.916, -0.4, 4.008, 59.131)" fill="#c7d8e5"/>
    </g>
    <g id="Grupo_12574" data-name="Grupo 12574" transform="translate(2004.878 -190.86)">
      <path id="Trazado_17371" data-name="Trazado 17371" d="M2041.247-158.131a20.075,20.075,0,0,0-20.075,20.075,20.075,20.075,0,0,0,20.075,20.075,20.075,20.075,0,0,0,20.075-20.075A20.075,20.075,0,0,0,2041.247-158.131Zm.457,34.936a14.861,14.861,0,0,1-14.861-14.861,14.861,14.861,0,0,1,14.861-14.861,14.861,14.861,0,0,1,14.86,14.861A14.861,14.861,0,0,1,2041.7-123.2Z" transform="translate(-2015.371 164.127)" fill="#7d6eb2"/>
      <rect id="Rectángulo_3031" data-name="Rectángulo 3031" width="5.475" height="7.821" transform="translate(23.138)" fill="#7d6eb2"/>
      <rect id="Rectángulo_3032" data-name="Rectángulo 3032" width="5.475" height="7.821" transform="translate(33.979 0.513) rotate(25.024)" fill="#7d6eb2"/>
      <rect id="Rectángulo_3033" data-name="Rectángulo 3033" width="5.475" height="7.821" transform="matrix(0.665, 0.747, -0.747, 0.665, 43.209, 5.524)" fill="#7d6eb2"/>
      <rect id="Rectángulo_3034" data-name="Rectángulo 3034" width="5.475" height="7.821" transform="matrix(0.4, 0.916, -0.916, 0.4, 49.025, 13.133)" fill="#7d6eb2"/>
      <rect id="Rectángulo_3035" data-name="Rectángulo 3035" width="5.475" height="7.821" transform="translate(7.821 23.464) rotate(90)" fill="#7d6eb2"/>
      <rect id="Rectángulo_3036" data-name="Rectángulo 3036" width="5.475" height="7.821" transform="translate(51.622 23.464) rotate(90)" fill="#7d6eb2"/>
      <rect id="Rectángulo_3037" data-name="Rectángulo 3037" width="5.475" height="7.821" transform="matrix(-0.906, 0.423, -0.423, -0.906, 20.951, 7.6)" fill="#7d6eb2"/>
      <rect id="Rectángulo_3038" data-name="Rectángulo 3038" width="5.475" height="7.821" transform="matrix(-0.665, 0.747, -0.747, -0.665, 14.257, 10.721)" fill="#7d6eb2"/>
      <rect id="Rectángulo_3039" data-name="Rectángulo 3039" width="5.475" height="7.821" transform="translate(9.764 16.265) rotate(113.605)" fill="#7d6eb2"/>
      <rect id="Rectángulo_3040" data-name="Rectángulo 3040" width="5.475" height="7.821" transform="translate(23.204 44.582)" fill="#7d6eb2"/>
      <rect id="Rectángulo_3041" data-name="Rectángulo 3041" width="5.475" height="7.822" transform="translate(30.736 44.804) rotate(-25.023)" fill="#7d6eb2"/>
      <rect id="Rectángulo_3042" data-name="Rectángulo 3042" width="5.475" height="7.821" transform="translate(37.429 41.683) rotate(-48.353)" fill="#7d6eb2"/>
      <rect id="Rectángulo_3043" data-name="Rectángulo 3043" width="5.475" height="7.821" transform="translate(41.923 36.139) rotate(-66.395)" fill="#7d6eb2"/>
      <rect id="Rectángulo_3044" data-name="Rectángulo 3044" width="5.475" height="7.821" transform="translate(17.708 51.891) rotate(-154.976)" fill="#7d6eb2"/>
      <rect id="Rectángulo_3045" data-name="Rectángulo 3045" width="5.475" height="7.821" transform="matrix(-0.665, -0.747, 0.747, -0.665, 8.478, 46.88)" fill="#7d6eb2"/>
      <rect id="Rectángulo_3046" data-name="Rectángulo 3046" width="5.475" height="7.821" transform="translate(2.662 39.271) rotate(-113.605)" fill="#7d6eb2"/>
    </g>
    <g id="Grupo_12575" data-name="Grupo 12575" transform="translate(2064.834 -267.656)">
      <path id="Trazado_17372" data-name="Trazado 17372" d="M2120.555-254.847c0-7.074-6.21-12.809-13.871-12.809s-13.871,5.735-13.871,12.809a12.269,12.269,0,0,0,3.84,8.847,11.044,11.044,0,0,1,3.394,7.934h0a4.391,4.391,0,0,0,4.391,4.391h4.492a4.392,4.392,0,0,0,4.391-4.391h0a11.043,11.043,0,0,1,3.394-7.934A12.269,12.269,0,0,0,2120.555-254.847Z" transform="translate(-2092.813 267.656)" fill="#ffd947"/>
      <path id="Trazado_17373" data-name="Trazado 17373" d="M2114.324-228.653a.176.176,0,0,1-.174-.166c-.076-1.428,2.088-23.738,2.18-24.687a.173.173,0,0,1,.191-.156.175.175,0,0,1,.156.19c-.023.232-2.255,23.232-2.179,24.634a.174.174,0,0,1-.165.184Z" transform="translate(-2098.021 264.241)" fill="#12263f"/>
      <path id="Trazado_17374" data-name="Trazado 17374" d="M2107.021-228.653h-.01a.174.174,0,0,1-.165-.184c.075-1.4-2.157-24.4-2.179-24.634a.175.175,0,0,1,.156-.19.173.173,0,0,1,.191.156c.092.949,2.257,23.259,2.18,24.687A.175.175,0,0,1,2107.021-228.653Z" transform="translate(-2095.706 264.241)" fill="#12263f"/>
      <path id="Trazado_17375" data-name="Trazado 17375" d="M2109.207-247.536a2.03,2.03,0,0,1-1.224-.431,1.374,1.374,0,0,1-.921.273,1.618,1.618,0,0,1-1.2-.852,13.024,13.024,0,0,1-.739-2.358.088.088,0,0,1,.067-.1.09.09,0,0,1,.1.067,12.966,12.966,0,0,0,.719,2.306,1.442,1.442,0,0,0,1.064.766,1.189,1.189,0,0,0,.767-.215,3.147,3.147,0,0,1-.9-1.861,2.5,2.5,0,0,1,.259-1.7.993.993,0,0,1,.45-.413.961.961,0,0,1,1.146.534,2.419,2.419,0,0,1,.141,1.284,4.026,4.026,0,0,1-.417,1.672,1.912,1.912,0,0,1-.4.487,1.709,1.709,0,0,0,1.648.257,1.55,1.55,0,0,0,.567-.425,1.21,1.21,0,0,1-.471-.507,1.984,1.984,0,0,1-.157-.763,6.948,6.948,0,0,1,.244-2.239.089.089,0,0,1,.057-.06.62.62,0,0,1,.655.251,1.5,1.5,0,0,1,.233.632,4.492,4.492,0,0,1,.048,1.828,2.336,2.336,0,0,1-.345.8,1.352,1.352,0,0,0,.909.047,1.58,1.58,0,0,0,.464-.237,2.446,2.446,0,0,1-.24-.494,4.971,4.971,0,0,1,.1-3.591.086.086,0,0,1,.051-.048.814.814,0,0,1,.906.376,1.967,1.967,0,0,1,.251.943,4.526,4.526,0,0,1-.179,1.873,2.357,2.357,0,0,1-.648.972.818.818,0,0,0,.56.334.846.846,0,0,0,.483-.125,1.181,1.181,0,0,0,.551-1.169.088.088,0,0,1,.073-.1.087.087,0,0,1,.1.073,1.344,1.344,0,0,1-.636,1.348,1,1,0,0,1-.586.147.985.985,0,0,1-.683-.4,1.756,1.756,0,0,1-.516.262,1.526,1.526,0,0,1-1.067-.071,1.727,1.727,0,0,1-.656.5A1.612,1.612,0,0,1,2109.207-247.536Zm-1.279-4.4a.546.546,0,0,0-.206.04.825.825,0,0,0-.369.345,2.327,2.327,0,0,0-.234,1.581,2.963,2.963,0,0,0,.848,1.761l.021.019a1.74,1.74,0,0,0,.386-.463,3.885,3.885,0,0,0,.394-1.6,2.278,2.278,0,0,0-.124-1.192A.864.864,0,0,0,2107.928-251.936Zm2.183.276a6.772,6.772,0,0,0-.225,2.134,1.831,1.831,0,0,0,.141.7,1.052,1.052,0,0,0,.419.445,2.146,2.146,0,0,0,.332-.759,4.32,4.32,0,0,0-.049-1.756,1.361,1.361,0,0,0-.2-.561A.471.471,0,0,0,2110.111-251.66Zm1.87-.814a4.8,4.8,0,0,0-.08,3.427,2.333,2.333,0,0,0,.214.441,2.187,2.187,0,0,0,.587-.889,4.37,4.37,0,0,0,.169-1.8,1.832,1.832,0,0,0-.223-.86A.662.662,0,0,0,2111.98-252.474Z" transform="translate(-2095.817 263.997)" fill="#12263f"/>
      <path id="Rectángulo_3047" data-name="Rectángulo 3047" d="M0,0H11.15a0,0,0,0,1,0,0V.7A2.485,2.485,0,0,1,8.665,3.186H2.485A2.485,2.485,0,0,1,0,.7V0A0,0,0,0,1,0,0Z" transform="translate(8.296 37.83)" fill="#afaeae"/>
      <path id="Trazado_17376" data-name="Trazado 17376" d="M2109.771-216.563a22.858,22.858,0,0,1-6.392-1,1.062,1.062,0,0,1-.679-1.339,1.062,1.062,0,0,1,1.339-.68c.1.032,6.158,1.954,9.947.06a1.062,1.062,0,0,1,1.425.475,1.062,1.062,0,0,1-.475,1.425A11.616,11.616,0,0,1,2109.771-216.563Z" transform="translate(-2095.213 255.934)" fill="#8c8888"/>
      <path id="Trazado_17377" data-name="Trazado 17377" d="M2109.771-218.846a22.858,22.858,0,0,1-6.392-1,1.062,1.062,0,0,1-.679-1.339,1.06,1.06,0,0,1,1.339-.68c.1.031,6.158,1.954,9.947.059a1.062,1.062,0,0,1,1.425.475,1.062,1.062,0,0,1-.475,1.425A11.616,11.616,0,0,1,2109.771-218.846Z" transform="translate(-2095.213 256.491)" fill="#afaeae"/>
      <path id="Trazado_17378" data-name="Trazado 17378" d="M2109.771-221.128a22.86,22.86,0,0,1-6.392-1,1.061,1.061,0,0,1-.679-1.339,1.061,1.061,0,0,1,1.339-.68c.1.031,6.158,1.954,9.947.06a1.062,1.062,0,0,1,1.425.475,1.062,1.062,0,0,1-.475,1.425A11.626,11.626,0,0,1,2109.771-221.128Z" transform="translate(-2095.213 257.048)" fill="#8c8888"/>
    </g>
    <g id="Grupo_12583" data-name="Grupo 12583" transform="translate(2023.421 -215.045)">
      <path id="Trazado_17379" data-name="Trazado 17379" d="M2077.668-50.5s-2.444,3.839-2.967,6.806.523,5.76,1.571,6.458,4.014-1.047,7.33-2.443a17.222,17.222,0,0,0,5.76-4.363Z" transform="translate(-2046.945 162.042)" fill="#12263f"/>
      <path id="Trazado_17380" data-name="Trazado 17380" d="M2078.264-37.1c-.014-.119-.1-.437-.209-.876-.41-1.593-1.176-4.56-.9-6.336a30.654,30.654,0,0,1,1.05-4.378l.166.055a30.3,30.3,0,0,0-1.044,4.35c-.268,1.74.52,4.8.9,6.265.119.463.2.769.213.9Z" transform="translate(-2047.563 161.6)"/>
      <path id="Trazado_17381" data-name="Trazado 17381" d="M2116.94-114.288s-.175,5.062.349,6.109a10.55,10.55,0,0,1,.873,5.062c-.175,1.92.175,2.618,0,3.316s-.873,1.047,0,2.618-.523,3.491-.523,3.491l-15.185,1.92-15.359-.873h-11.519l-1.135-2.53a4.315,4.315,0,0,1,1.047-2.269c1.048-1.4.7-3.316,1.048-4.014a26.132,26.132,0,0,0,.523-7.68s-.262,1.309-.611,2.705-.872,2.269-.7,3.142-.7,2.095-.873,3.316-.7,1.571-1.047,3.142a5.772,5.772,0,0,1-1.4,2.967c-1.048,1.571-13.963-5.934-13.963-5.934l-.348-5.759s2.967.348,3.316.348.174-1.919.7-3.142-.175-3.491.349-4.887,1.571-13.265,2.095-16.406.523-6.632,2.269-8.552,12.741-9.949,19.9-11.694l1.92-1.047H2103.5a18.973,18.973,0,0,0,2.444.872c.349,0,15.533,7.156,18.675,9.774s3.665,8.727,3.84,9.076a3.845,3.845,0,0,1,.873,1.919,22.734,22.734,0,0,0,.524,2.269c.175.872,1.92,10.123,1.92,11.519s-.349,3.142,0,3.491a12.328,12.328,0,0,1,.872,2.792,1.266,1.266,0,0,1,1.4.872,1.877,1.877,0,0,1,0,1.571l.174.7,6.982.175-.7,5.759s-11,6.283-13.439,6.458A7.593,7.593,0,0,1,2122-95.263a10.381,10.381,0,0,1-1.047-2.792c0-.7-.873-1.222-1.048-2.269a6.231,6.231,0,0,0-.348-1.745c-.349-1.047-2.269-10.123-2.444-11.17s0-2.443-.175-1.047Z" transform="translate(-2042.932 186.557)" fill="#12263f"/>
      <path id="Trazado_17382" data-name="Trazado 17382" d="M2135.989-108.558a.088.088,0,0,1-.066-.03c-.326-.367.29-4.979,1.306-6.673a12.822,12.822,0,0,1,1.9-2.184c1.1-1.1,2.247-2.247,2.452-3.372.345-1.9.694-4.508.7-4.534a.087.087,0,0,1,.1-.075.088.088,0,0,1,.075.1c0,.026-.354,2.642-.7,4.542-.214,1.178-1.376,2.34-2.5,3.464a12.669,12.669,0,0,0-1.875,2.151,15.157,15.157,0,0,0-1.325,6.468.087.087,0,0,1-.007.123A.088.088,0,0,1,2135.989-108.558Z" transform="translate(-2061.9 180.33)" fill="#3b3348"/>
      <path id="Trazado_17383" data-name="Trazado 17383" d="M2138.675-118.531a.074.074,0,0,1-.028,0,.087.087,0,0,1-.055-.11c1.374-4.12.356-10.541.346-10.6a.086.086,0,0,1,.072-.1.088.088,0,0,1,.1.072c.01.065,1.034,6.527-.353,10.689A.087.087,0,0,1,2138.675-118.531Z" transform="translate(-2062.572 181.288)" fill="#3b3348"/>
      <path id="Trazado_17384" data-name="Trazado 17384" d="M2135-112.365a.087.087,0,0,1-.087-.082,8.926,8.926,0,0,0-1.187-3.718,53.815,53.815,0,0,1-3.677-8.227.087.087,0,0,1,.06-.108.087.087,0,0,1,.108.06,53.588,53.588,0,0,0,3.654,8.179,9.093,9.093,0,0,1,1.216,3.8.086.086,0,0,1-.081.093Z" transform="translate(-2060.487 180.104)" fill="#3b3348"/>
      <path id="Trazado_17385" data-name="Trazado 17385" d="M2152.885-102.247a.085.085,0,0,1-.046-.013,10.013,10.013,0,0,1-3.526-4.4c-.8-1.939-.278-6.963.1-10.631a21.15,21.15,0,0,0,.246-3.861.088.088,0,0,1,.055-.11.088.088,0,0,1,.11.055,19.3,19.3,0,0,1-.237,3.935c-.378,3.65-.9,8.649-.114,10.547a9.826,9.826,0,0,0,3.456,4.322.087.087,0,0,1,.029.119A.087.087,0,0,1,2152.885-102.247Z" transform="translate(-2065.088 179.315)" fill="#3b3348"/>
      <path id="Trazado_17386" data-name="Trazado 17386" d="M2143.293-83.395a.1.1,0,0,1-.027,0,.087.087,0,0,1-.057-.11,17.536,17.536,0,0,1,4.036-6.319c2.966-2.966,7.712-1.954,7.76-1.943a.087.087,0,0,1,.067.1.088.088,0,0,1-.1.067c-.046-.011-4.7-1-7.6,1.9a17.361,17.361,0,0,0-3.993,6.248A.087.087,0,0,1,2143.293-83.395Z" transform="translate(-2063.699 172.158)" fill="#3b3348"/>
      <path id="Trazado_17387" data-name="Trazado 17387" d="M2141.215-88.6a.087.087,0,0,1-.073-.039.087.087,0,0,1,.026-.121c.051-.033,5.137-3.291,9.826-3.049a.087.087,0,0,1,.083.091.08.08,0,0,1-.092.082c-4.636-.238-9.672,2.99-9.723,3.022A.089.089,0,0,1,2141.215-88.6Z" transform="translate(-2063.192 172.128)" fill="#3b3348"/>
      <path id="Trazado_17388" data-name="Trazado 17388" d="M2140.753-85.841a.086.086,0,0,1-.06-.023.088.088,0,0,1,0-.124c.151-.161,3.745-3.95,6.536-3.82a.087.087,0,0,1,.083.091.083.083,0,0,1-.091.083c-2.708-.119-6.364,3.727-6.4,3.766A.087.087,0,0,1,2140.753-85.841Z" transform="translate(-2063.079 171.637)" fill="#3b3348"/>
      <path id="Trazado_17389" data-name="Trazado 17389" d="M2152.066-84.982a.073.073,0,0,1-.025,0,.087.087,0,0,1-.058-.109c.7-2.276,4.923-4.663,5.1-4.763a.088.088,0,0,1,.119.034.087.087,0,0,1-.034.119c-.043.024-4.341,2.452-5.021,4.662A.088.088,0,0,1,2152.066-84.982Z" transform="translate(-2065.841 171.651)" fill="#3b3348"/>
      <path id="Trazado_17390" data-name="Trazado 17390" d="M2145.14-93.209a.086.086,0,0,1-.078-.048.087.087,0,0,1,.039-.117,1.274,1.274,0,0,1,1.089-.194,13.375,13.375,0,0,0,2.615.185,15.345,15.345,0,0,0,5.377-.866.089.089,0,0,1,.114.048.088.088,0,0,1-.048.114,15.565,15.565,0,0,1-5.443.879,13.481,13.481,0,0,1-2.646-.188,1.117,1.117,0,0,0-.98.179A.088.088,0,0,1,2145.14-93.209Z" transform="translate(-2064.15 172.722)" fill="#3b3348"/>
      <path id="Trazado_17391" data-name="Trazado 17391" d="M2137.381-100.031h-.008a.087.087,0,0,1-.079-.094,23.558,23.558,0,0,1,1.334-5.657c1.035-2.588,3.984-10.048,4.014-10.123a.087.087,0,0,1,.114-.049.087.087,0,0,1,.048.113c-.03.075-2.979,7.535-4.014,10.123a23.331,23.331,0,0,0-1.322,5.607A.088.088,0,0,1,2137.381-100.031Z" transform="translate(-2062.256 178.019)" fill="#3b3348"/>
      <path id="Trazado_17392" data-name="Trazado 17392" d="M2130.377-84.91l-.02,0c-.311-.073-3.034-.736-3.034-1.481,0-.342.76-.54,2.1-.861,1.166-.279,2.617-.625,2.821-1.1a.289.289,0,0,0-.026-.269c-.326-.57-2.2-.878-4.36-1.236a27.288,27.288,0,0,1-6.772-1.7.087.087,0,0,1-.041-.116.087.087,0,0,1,.116-.041,27.14,27.14,0,0,0,6.726,1.68c2.3.379,4.116.68,4.482,1.322a.453.453,0,0,1,.035.425c-.238.551-1.611.879-2.94,1.2-.877.21-1.969.471-1.969.692,0,.458,1.779,1.047,2.9,1.311a.088.088,0,0,1,.065.105A.088.088,0,0,1,2130.377-84.91Z" transform="translate(-2058.289 172.102)" fill="#3b3348"/>
      <path id="Trazado_17393" data-name="Trazado 17393" d="M2132.917-79.893h-.01c-.031,0-3.173-.355-5.594-.874a6.6,6.6,0,0,0-3.613-.005.087.087,0,0,1-.114-.046.088.088,0,0,1,.045-.115,6.629,6.629,0,0,1,3.719,0c2.411.516,5.545.868,5.576.872a.087.087,0,0,1,.077.1A.088.088,0,0,1,2132.917-79.893Z" transform="translate(-2058.909 169.529)" fill="#3b3348"/>
      <path id="Trazado_17394" data-name="Trazado 17394" d="M2082.568-82.422a.087.087,0,0,1-.081-.055.087.087,0,0,1,.048-.113,5.951,5.951,0,0,1,1.283-.2c1.675-.162,4.478-.432,6.014-2.224,2.064-2.408,7.094-12.1,7.145-12.2a.086.086,0,0,1,.117-.038.087.087,0,0,1,.038.117c-.051.1-5.09,9.811-7.167,12.235-1.582,1.845-4.428,2.12-6.13,2.284a6.129,6.129,0,0,0-1.234.183A.084.084,0,0,1,2082.568-82.422Z" transform="translate(-2048.878 173.454)" fill="#3b3348"/>
      <path id="Trazado_17395" data-name="Trazado 17395" d="M2082.568-85.211a.088.088,0,0,1-.079-.05.088.088,0,0,1,.042-.116,29.339,29.339,0,0,0,5.393-3.479c2.68-2.177,7.76-15.522,7.822-16.167a.1.1,0,0,1,.091-.082.085.085,0,0,1,.083.085c0,.208-1.311,3.789-2.887,7.431-1.463,3.382-3.519,7.667-5,8.869a29.527,29.527,0,0,1-5.429,3.5A.081.081,0,0,1,2082.568-85.211Z" transform="translate(-2048.877 175.37)" fill="#3b3348"/>
      <path id="Trazado_17396" data-name="Trazado 17396" d="M2081.458-104.9a.086.086,0,0,1-.087-.082c0-.031-.178-3.17-.523-5.928-.372-2.973-.726-5.2-1.221-7.673a26.644,26.644,0,0,0-1.251-4.028,34.677,34.677,0,0,1-1.192-3.648c-.69-2.761-1.389-5.731-1.4-5.761a.086.086,0,0,1,.065-.1.086.086,0,0,1,.1.064c.007.03.706,3,1.4,5.759a34.564,34.564,0,0,0,1.187,3.63,26.775,26.775,0,0,1,1.258,4.054c.5,2.482.85,4.708,1.223,7.685.345,2.764.522,5.909.524,5.941a.087.087,0,0,1-.083.091Z" transform="translate(-2047.243 181.964)" fill="#3b3348"/>
      <path id="Trazado_17397" data-name="Trazado 17397" d="M2078.01-117.816a.088.088,0,0,1-.086-.073c-.234-1.4-1.774-3.078-3.263-4.7-.688-.748-1.4-1.522-1.955-2.245a15.711,15.711,0,0,1-2.462-6.512.088.088,0,0,1,.088-.087.087.087,0,0,1,.087.087,15.654,15.654,0,0,0,2.426,6.4c.552.717,1.261,1.488,1.946,2.233,1.507,1.638,3.064,3.332,3.307,4.787a.087.087,0,0,1-.072.1Z" transform="translate(-2045.891 181.795)" fill="#3b3348"/>
      <path id="Trazado_17398" data-name="Trazado 17398" d="M2068.715-102.336a.088.088,0,0,1-.079-.048.088.088,0,0,1,.039-.117,13.17,13.17,0,0,0,3.613-3.292,20.508,20.508,0,0,1,3.181-3.157c2.077-1.524,2.887-1.794,3.155-1.835-.126-1.051-1.3-2.207-2.645-3.541a24.941,24.941,0,0,1-2.623-2.879.087.087,0,0,1,.018-.122.087.087,0,0,1,.122.019,24.862,24.862,0,0,0,2.606,2.858c1.411,1.4,2.63,2.6,2.7,3.741a.089.089,0,0,1-.029.07.085.085,0,0,1-.073.021c-.023,0-.632-.025-3.133,1.809a20.354,20.354,0,0,0-3.153,3.131,13.276,13.276,0,0,1-3.667,3.334A.087.087,0,0,1,2068.715-102.336Z" transform="translate(-2045.496 178.357)" fill="#3b3348"/>
      <path id="Trazado_17399" data-name="Trazado 17399" d="M2065.251-101.274a.086.086,0,0,1-.033-.007.086.086,0,0,1-.047-.113c.036-.088.947-2.149,5.824-3.02a.088.088,0,0,1,.1.071.086.086,0,0,1-.07.1c-4.771.852-5.686,2.9-5.694,2.916A.088.088,0,0,1,2065.251-101.274Z" transform="translate(-2044.651 175.201)" fill="#3b3348"/>
      <path id="Trazado_17400" data-name="Trazado 17400" d="M2074.174-84.628a.087.087,0,0,1-.073-.04,12.216,12.216,0,0,0-3.808-3.635c-2.23-1.2-7.771-2.077-7.826-2.086a.087.087,0,0,1-.073-.1.087.087,0,0,1,.1-.073c.057.009,5.626.889,7.882,2.1a12.417,12.417,0,0,1,3.873,3.695.088.088,0,0,1-.026.121A.091.091,0,0,1,2074.174-84.628Z" transform="translate(-2043.975 171.82)" fill="#3b3348"/>
      <path id="Trazado_17401" data-name="Trazado 17401" d="M2075.833-86.715a.088.088,0,0,1-.055-.02,15.729,15.729,0,0,0-9.361-2.9.09.09,0,0,1-.089-.085.088.088,0,0,1,.085-.089,15.919,15.919,0,0,1,9.474,2.943.087.087,0,0,1,.014.122A.086.086,0,0,1,2075.833-86.715Z" transform="translate(-2044.935 171.638)" fill="#3b3348"/>
      <path id="Trazado_17402" data-name="Trazado 17402" d="M2077.24-89.448a.086.086,0,0,1-.062-.026.967.967,0,0,1-.088-.118c-.9-1.294-2.553-1.951-4.911-1.951a.086.086,0,0,1-.087-.087.087.087,0,0,1,.087-.088c2.419,0,4.12.682,5.054,2.027.029.042.057.081.069.094a.086.086,0,0,1,0,.123A.085.085,0,0,1,2077.24-89.448Z" transform="translate(-2046.342 172.102)" fill="#3b3348"/>
      <path id="Trazado_17403" data-name="Trazado 17403" d="M2066.035-93.647a18.663,18.663,0,0,1-1.948-.086.087.087,0,0,1-.076-.1.086.086,0,0,1,.1-.076,24.329,24.329,0,0,0,6.606-.348.087.087,0,0,1,.1.069.087.087,0,0,1-.069.1A25.48,25.48,0,0,1,2066.035-93.647Z" transform="translate(-2044.369 172.722)" fill="#3b3348"/>
      <path id="Trazado_17404" data-name="Trazado 17404" d="M2130.659-133.8a.087.087,0,0,1-.085-.072c-.687-3.776-8.286-14.171-8.362-14.276a.088.088,0,0,1,.008-.113.089.089,0,0,1,.114-.01c.1.073,10.3,7.334,10.819,7.679a.088.088,0,0,1,.024.121.088.088,0,0,1-.121.024c-.457-.3-8.424-5.973-10.388-7.372,1.469,2.036,7.458,10.5,8.079,13.916a.087.087,0,0,1-.07.1Z" transform="translate(-2058.571 185.909)" fill="#3b3348"/>
      <path id="Trazado_17405" data-name="Trazado 17405" d="M2161.559-88.481s-.175-4.712,1.4-5.236a17.29,17.29,0,0,1,2.967-.7s2.619-4.363,3.491-5.585a22.482,22.482,0,0,1,4.015-3.316s-.175-1.745.523-1.571c0,0-.349-1.4,1.048-1.047s3.665.872,4.188,1.4,2.095,2.094,2.095,3.142.175,6.807-1.571,6.283c0,0-.524,2.269-1.221,2.618a6.971,6.971,0,0,1-2.269.349s-.349.175-1.221.7-1.4.174-2.095.348-3.84.524-3.84.524Z" transform="translate(-2068.177 175.586)" fill="#ffa08b"/>
      <g id="Grupo_12576" data-name="Grupo 12576" transform="translate(99.403 70.785)">
        <path id="Trazado_17406" data-name="Trazado 17406" d="M2183.742-96.736a.087.087,0,0,1-.087-.08,9.724,9.724,0,0,0-.509-2.577,18.463,18.463,0,0,0-3.108-3.984c-.687-.344-1.9-.866-1.915-.871a.087.087,0,0,1-.046-.115.087.087,0,0,1,.115-.045c.012.005,1.232.528,1.925.875.625.313,2.258,2.668,3.175,4.044a9.516,9.516,0,0,1,.538,2.659.087.087,0,0,1-.079.094Z" transform="translate(-2171.612 104.416)" fill="#c77968"/>
        <path id="Trazado_17407" data-name="Trazado 17407" d="M2181.422-93.143a.079.079,0,0,1-.039-.01.086.086,0,0,1-.04-.116,10.684,10.684,0,0,0,.188-3.045c-.065-.065-.32-.5-.8-1.336a30.737,30.737,0,0,0-1.986-3.2l-1.571-1.571a.088.088,0,0,1,0-.124.087.087,0,0,1,.123,0l1.571,1.571a30.289,30.289,0,0,1,2.015,3.234c.37.64.72,1.244.778,1.3a8.987,8.987,0,0,1-.159,3.242A.087.087,0,0,1,2181.422-93.143Z" transform="translate(-2171.386 103.965)" fill="#c77968"/>
        <path id="Trazado_17408" data-name="Trazado 17408" d="M2178.63-94.023a.087.087,0,0,1-.088-.087v-1.048a10.792,10.792,0,0,0-.74-2.165c-.134-.33-.25-.615-.3-.774a15.662,15.662,0,0,0-1.039-1.9.1.1,0,0,1-.012-.033c-.182-1.094,1.034-1.808,1.086-1.838a.088.088,0,0,1,.12.032.087.087,0,0,1-.033.119c-.011.007-1.15.677-1,1.642a15.011,15.011,0,0,1,1.047,1.924c.052.153.167.436.3.763a10.125,10.125,0,0,1,.752,2.231v1.048A.086.086,0,0,1,2178.63-94.023Z" transform="translate(-2171.212 103.797)" fill="#c77968"/>
        <path id="Trazado_17409" data-name="Trazado 17409" d="M2169.614-92.722a.087.087,0,0,1-.084-.067.087.087,0,0,1,.065-.105,36.52,36.52,0,0,1,3.631-.7,7.991,7.991,0,0,0,.665-1.659,4.632,4.632,0,0,0-.119-.58c-.3-1.275-.551-2.543-.007-2.814.333-.167.752.091,1.244.769a8.161,8.161,0,0,1,.618,1.015.087.087,0,0,1-.04.117.088.088,0,0,1-.117-.039c-.28-.561-1.119-1.961-1.628-1.707-.465.233-.084,1.844.1,2.619a4.051,4.051,0,0,1,.124.62,8.375,8.375,0,0,1-.708,1.785.086.086,0,0,1-.078.048,35.073,35.073,0,0,0-3.645.7Z" transform="translate(-2169.527 103.02)" fill="#c77968"/>
      </g>
      <path id="Trazado_17410" data-name="Trazado 17410" d="M2057.755-88.366s.175-4.712-1.4-5.236a17.289,17.289,0,0,0-2.967-.7s-2.618-4.363-3.491-5.585a22.483,22.483,0,0,0-4.015-3.316s.175-1.745-.524-1.571c0,0,.349-1.4-1.047-1.047s-3.665.873-4.188,1.4-2.095,2.095-2.095,3.142-.175,6.807,1.571,6.283c0,0,.524,2.269,1.222,2.618a6.97,6.97,0,0,0,2.269.349s.349.175,1.222.7,1.4.175,2.095.349,3.839.524,3.839.524Z" transform="translate(-2038.028 175.558)" fill="#ffa08b"/>
      <g id="Grupo_12577" data-name="Grupo 12577" transform="translate(1.488 70.873)">
        <path id="Trazado_17411" data-name="Trazado 17411" d="M2040.084-96.621h-.008a.088.088,0,0,1-.079-.094,9.531,9.531,0,0,1,.538-2.659c.917-1.376,2.55-3.731,3.175-4.044.692-.346,1.912-.869,1.925-.875a.088.088,0,0,1,.115.046.087.087,0,0,1-.046.114c-.012.005-1.228.527-1.916.871a18.5,18.5,0,0,0-3.108,3.984,9.73,9.73,0,0,0-.509,2.577A.087.087,0,0,1,2040.084-96.621Z" transform="translate(-2039.997 104.3)" fill="#c77968"/>
        <path id="Trazado_17412" data-name="Trazado 17412" d="M2042.774-93.028a.086.086,0,0,1-.078-.048,8.993,8.993,0,0,1-.159-3.242c.059-.06.408-.664.779-1.3a30.389,30.389,0,0,1,2.014-3.233l1.572-1.571a.087.087,0,0,1,.123,0,.087.087,0,0,1,0,.123l-1.571,1.571a30.645,30.645,0,0,0-1.986,3.2c-.482.834-.737,1.271-.806,1.34a10.8,10.8,0,0,0,.191,3.041.087.087,0,0,1-.039.117A.088.088,0,0,1,2042.774-93.028Z" transform="translate(-2040.592 103.849)" fill="#c77968"/>
        <path id="Trazado_17413" data-name="Trazado 17413" d="M2046.318-93.907a.087.087,0,0,1-.087-.088v-1.047a10.128,10.128,0,0,1,.752-2.231c.133-.327.248-.609.3-.763a15.037,15.037,0,0,1,1.047-1.923c.147-.968-.993-1.636-1-1.642a.088.088,0,0,1-.032-.119.088.088,0,0,1,.119-.033c.052.03,1.269.745,1.086,1.839a.093.093,0,0,1-.012.032,15.866,15.866,0,0,0-1.039,1.9c-.053.16-.169.444-.3.774a10.8,10.8,0,0,0-.739,2.166v1.047A.088.088,0,0,1,2046.318-93.907Zm2.095-6.022h0Z" transform="translate(-2041.518 103.681)" fill="#c77968"/>
        <path id="Trazado_17414" data-name="Trazado 17414" d="M2054.1-92.607l-.02,0a35.112,35.112,0,0,0-3.645-.7.087.087,0,0,1-.078-.048,8.383,8.383,0,0,1-.708-1.784,4.052,4.052,0,0,1,.124-.62c.183-.775.564-2.386.1-2.619-.24-.119-.6.135-1.025.715a8.013,8.013,0,0,0-.6.991.087.087,0,0,1-.117.039.088.088,0,0,1-.039-.117,8.047,8.047,0,0,1,.618-1.016c.492-.677.911-.935,1.244-.769.544.272.294,1.54-.008,2.815a4.725,4.725,0,0,0-.119.58,8.024,8.024,0,0,0,.665,1.659,36.514,36.514,0,0,1,3.631.7.087.087,0,0,1,.065.1A.086.086,0,0,1,2054.1-92.607Z" transform="translate(-2041.969 102.904)" fill="#c77968"/>
      </g>
      <path id="Trazado_17415" data-name="Trazado 17415" d="M2066.115-80.875a14.072,14.072,0,0,0,4.538,2.269c2.269.523,15.01-.175,16.755,0s4.713.174,8.553.174S2108.352-80.177,2110.1-80a39,39,0,0,1,5.76,1.571s19.2-8.726,24.958-8.552,8.029,7.156,7.68,7.854,1.222,5.062,0,6.458-3.84,3.491-4.887,5.236a7.8,7.8,0,0,1-5.586,4.014,7.174,7.174,0,0,0-2.618,1.4c-1.221,1.048-7.331,4.887-9.774,4.887l-4.887,3.491-32.115,2.792-2.968,4.887s-9.25-5.759-12.741-7.33-11.693-5.935-15.359-8.2-4.538-2.443-7.156-5.062-4.712-3.665-5.062-6.458-1.4-13.788,6.807-13.44,6.283,3.665,9.425,4.015A8.675,8.675,0,0,1,2066.115-80.875Z" transform="translate(-2039.755 170.947)" fill="url(#linear-gradient)"/>
      <path id="Trazado_17416" data-name="Trazado 17416" d="M2102.684-42.627l9.425,2.444s4.538,2.618,7.155,3.142,11,1.469,14.138,1.745c5.934.523,11.339,1.5,11.693-4.887.175-3.142-2.618-5.935-7.33-6.458s-17.628-.175-19.2-.7l-4.363-5.934-4.364,2.443Z" transform="translate(-2053.809 162.718)" fill="#12263f"/>
      <path id="Trazado_17417" data-name="Trazado 17417" d="M2120.831-46.491c-.052-.02-5.239-1.92-6.1-2.091a10.8,10.8,0,0,1-2.651-1.411l.1-.143a10.916,10.916,0,0,0,2.584,1.382c.869.174,5.908,2.02,6.122,2.1Z" transform="translate(-2056.103 161.953)"/>
      <path id="Trazado_17418" data-name="Trazado 17418" d="M2115.164-38.345l-.036-.171c.024-.005,2.412-.526,2.91-1.356l.137-.226c.7-1.138,2.549-4.164,2.014-5.947l.167-.05c.558,1.857-1.323,4.931-2.032,6.088l-.137.225C2117.651-38.887,2115.266-38.367,2115.164-38.345Z" transform="translate(-2056.846 160.966)"/>
      <path id="Trazado_17419" data-name="Trazado 17419" d="M2144.693-33.09c-.778,0-1.3-.032-1.38-.036l.011-.174c.072,0,7.232.428,9.531-2.047a2.593,2.593,0,0,0,.675-2.218c-.683-4.947-6.929-6.988-6.993-7.009l.053-.166c.064.02,6.416,2.094,7.113,7.152a2.761,2.761,0,0,1-.72,2.36C2151.236-33.348,2146.926-33.09,2144.693-33.09Z" transform="translate(-2063.726 160.636)"/>
      <path id="Trazado_17420" data-name="Trazado 17420" d="M2136.941-35.8l-1.156-3.258c-1.322,2.938-1.479,2.906-1.548,2.892-.033-.007-.088-.034-.088-.141a23.809,23.809,0,0,0-.435-2.476l-1.074,2.4-.6-2.473c-.862,2.666-.995,2.668-1.094,2.671a.114.114,0,0,1-.112-.09c-.073-.218-.261-1.273-.458-2.448l-1.074,2.776-.043-.344c-.069-.547-.292-2.371-.432-3.866a24.34,24.34,0,0,1-2.248,3.944l-.044.008-.044-.036a22.377,22.377,0,0,1-.094-3.668c-1.112,1.06-2.407,2.309-3.448,3.321l-.406.395,4.106-7.627-.009.365c-.023.946-.046,2.065-.061,3.132,2.184-2.079,2.221-2.053,2.3-2l.059.044-.035.08a6.768,6.768,0,0,0,.048,1.416c.3-.589.591-1.163.844-1.668l.122-.244.042.27c0,.029.24,1.532.488,3.043l1.015-2.623.6,2.5c.312-.983.63-2.032.88-2.88l.1-.323.074.328c.026.114.352,1.569.659,3.035l1.168-2.606.859,2.419c.345-.771.69-1.561.971-2.219l.168-.391Zm-6.438-3.247c.191,1.148.38,2.237.472,2.612a23.839,23.839,0,0,0,.989-2.752l-.541-2.239Zm3.333-.008c.23,1.11.437,2.175.479,2.615.238-.369.8-1.567,1.383-2.862l-.774-2.181Zm-7.257-1.03c-.021,1.683-.021,3.19.029,3.621.307-.415,1.279-2.248,2.192-4.028a15.331,15.331,0,0,1-.084-1.578C2128.392-41.8,2127.57-41.027,2126.579-40.084Zm2.4-.37c.1,1.135.269,2.614.413,3.792l.93-2.4c-.2-1.231-.408-2.516-.494-3.067C2129.571-41.618,2129.28-41.041,2128.979-40.454Zm6.908,1.166.878,2.474v-4.48C2136.43-40.512,2136.14-39.849,2135.888-39.287Zm-3.742.108.544,2.255.964-2.149c-.243-1.167-.509-2.376-.635-2.941-.157.528-.489,1.63-.836,2.721Zm-5.685-3.92-3.225,5.989c.537-.521,1.534-1.484,2.526-2.435l.641-.612C2126.416-41.163,2126.438-42.21,2126.46-43.1Z" transform="translate(-2058.657 160.412)"/>
      <g id="Grupo_12578" data-name="Grupo 12578" transform="translate(8.295 86.494)">
        <path id="Trazado_17421" data-name="Trazado 17421" d="M2091.175-51.964a.088.088,0,0,1-.054-.02c-.108-.087-10.868-8.762-15.007-11.866a48.036,48.036,0,0,0-12.881-6.442c-1.751-.351-9.49-8.241-9.819-8.577a.088.088,0,0,1,0-.124.088.088,0,0,1,.123,0c.08.082,8.03,8.188,9.729,8.528a48.327,48.327,0,0,1,12.951,6.474c4.142,3.107,14.9,11.783,15.012,11.87a.088.088,0,0,1,.013.123A.088.088,0,0,1,2091.175-51.964Z" transform="translate(-2050.072 82.508)" fill="#a18bbc"/>
        <path id="Trazado_17422" data-name="Trazado 17422" d="M2067.522-53.857a.14.14,0,0,1-.037-.006c-.53-.177-7.922-8.344-8.763-9.275a.087.087,0,0,1,.006-.123.087.087,0,0,1,.123.007c3.028,3.349,7.536,8.249,8.519,9.1-.472-.945-2.992-4.832-4.878-7.742-2.627-4.052-3.444-5.338-3.444-5.49a.087.087,0,0,1,.087-.087.088.088,0,0,1,.087.079c.064.231,1.768,2.86,3.417,5.4,4.446,6.86,5.082,7.941,4.962,8.1A.1.1,0,0,1,2067.522-53.857Zm-8.3-13.529h0Z" transform="translate(-2051.368 79.69)" fill="#a18bbc"/>
        <path id="Trazado_17423" data-name="Trazado 17423" d="M2056.419-59.078a.089.089,0,0,1-.054-.019,20.732,20.732,0,0,1-4.7-6.2,34.447,34.447,0,0,0-2.648-4.117.088.088,0,0,1,.014-.122.088.088,0,0,1,.124.014,34.519,34.519,0,0,1,2.661,4.138,20.606,20.606,0,0,0,4.655,6.145.089.089,0,0,1,.014.123A.091.091,0,0,1,2056.419-59.078Z" transform="translate(-2049.001 80.198)" fill="#a18bbc"/>
        <path id="Trazado_17424" data-name="Trazado 17424" d="M2099.953-56.178a.085.085,0,0,1-.045-.013.087.087,0,0,1-.029-.12l.776-1.271c-.991-.557-10.993-6.17-15.272-7.979a25.129,25.129,0,0,1-4.292-2.521,26.221,26.221,0,0,0-11.746-4.978l-8.727-1.4a.087.087,0,0,1-.073-.1.087.087,0,0,1,.1-.073l8.726,1.4a26.379,26.379,0,0,1,11.816,5.006,24.994,24.994,0,0,0,4.261,2.505c4.491,1.9,15.26,7.972,15.368,8.033a.084.084,0,0,1,.042.054.088.088,0,0,1-.01.068l-.823,1.348A.089.089,0,0,1,2099.953-56.178Z" transform="translate(-2051.819 81.437)" fill="#a18bbc"/>
        <path id="Trazado_17425" data-name="Trazado 17425" d="M2075.89-72.275a.088.088,0,0,1-.07-.035c-1.043-1.4-6.545-3.4-10.562-4.864a32.328,32.328,0,0,1-4.214-1.685.087.087,0,0,1-.021-.122.087.087,0,0,1,.122-.02,33.849,33.849,0,0,0,4.173,1.663c4.037,1.47,9.568,3.484,10.642,4.924a.087.087,0,0,1-.017.122A.085.085,0,0,1,2075.89-72.275Z" transform="translate(-2051.932 82.508)" fill="#a18bbc"/>
        <path id="Trazado_17426" data-name="Trazado 17426" d="M2075.895-73.628a.087.087,0,0,1-.05-.016l-9.489-6.6a.086.086,0,0,1-.022-.121.087.087,0,0,1,.122-.022l9.489,6.6a.089.089,0,0,1,.022.122A.088.088,0,0,1,2075.895-73.628Z" transform="translate(-2053.228 82.846)" fill="#a18bbc"/>
        <path id="Trazado_17427" data-name="Trazado 17427" d="M2091.739-65.549a.082.082,0,0,1-.03-.005c-2.357-.869-7.972-5.188-11.328-7.769-1.243-.957-2.318-1.783-2.458-1.829a.088.088,0,0,1-.055-.11.087.087,0,0,1,.11-.055,29.139,29.139,0,0,1,2.509,1.857c3.347,2.575,8.95,6.884,11.282,7.744a.086.086,0,0,1,.051.112A.086.086,0,0,1,2091.739-65.549Z" transform="translate(-2056.046 81.606)" fill="#a18bbc"/>
        <path id="Trazado_17428" data-name="Trazado 17428" d="M2117.895-59.188a.087.087,0,0,1-.088-.087V-60.5a.09.09,0,0,1,.037-.072c.053-.036,5.266-3.681,7.342-4.719.329-.164.71-.35,1.141-.562,2.3-1.124,6.153-3.006,11.594-6.242,6.487-3.857,9.136-4.557,14.512-5.77a.086.086,0,0,1,.1.066.087.087,0,0,1-.066.1c-5.357,1.209-8,1.906-14.462,5.75-5.448,3.239-9.3,5.124-11.606,6.249-.432.211-.812.4-1.14.561-1.973.986-6.808,4.349-7.283,4.68v1.176A.087.087,0,0,1,2117.895-59.188Z" transform="translate(-2065.795 82.226)" fill="#a18bbc"/>
        <path id="Trazado_17429" data-name="Trazado 17429" d="M2152.067-76.419a.087.087,0,0,1-.05-.016.087.087,0,0,1-.023-.121c1.395-2.032,12.482-6.868,12.953-7.072a.089.089,0,0,1,.115.045.088.088,0,0,1-.045.115c-.115.05-11.513,5.02-12.879,7.011A.089.089,0,0,1,2152.067-76.419Z" transform="translate(-2074.136 83.635)" fill="#a18bbc"/>
        <path id="Trazado_17430" data-name="Trazado 17430" d="M2147.392-74.621a.084.084,0,0,1-.035-.008.087.087,0,0,1-.044-.115c1.521-3.364,9.677-8.653,10.023-8.877a.089.089,0,0,1,.121.026.088.088,0,0,1-.027.121c-.085.054-8.459,5.485-9.959,8.8A.086.086,0,0,1,2147.392-74.621Z" transform="translate(-2072.995 83.635)" fill="#a18bbc"/>
        <path id="Trazado_17431" data-name="Trazado 17431" d="M2122.512-64.767a.087.087,0,0,1-.08-.052.087.087,0,0,1,.044-.115c.016-.007,1.609-.75,5.382-4.867,3.808-4.154,14.063-8.7,14.167-8.748a.087.087,0,0,1,.115.045.088.088,0,0,1-.045.115c-.1.045-10.325,4.579-14.109,8.706-3.808,4.155-5.375,4.879-5.439,4.908A.083.083,0,0,1,2122.512-64.767Z" transform="translate(-2066.923 82.395)" fill="#a18bbc"/>
        <path id="Trazado_17432" data-name="Trazado 17432" d="M2118.356-63.219a.083.083,0,0,1-.054-.02.086.086,0,0,1-.013-.122c3.8-4.669,15.263-12.333,15.378-12.41a.088.088,0,0,1,.121.024.087.087,0,0,1-.024.121c-.115.077-11.553,7.726-15.34,12.375A.087.087,0,0,1,2118.356-63.219Z" transform="translate(-2065.908 81.719)" fill="#a18bbc"/>
        <path id="Trazado_17433" data-name="Trazado 17433" d="M2099.763-62.784a.086.086,0,0,1-.081-.054c-1.023-2.557-13.791-8.793-13.92-8.856a.087.087,0,0,1-.04-.116.087.087,0,0,1,.116-.04c.529.257,12.958,6.328,14.006,8.947a.087.087,0,0,1-.048.113A.082.082,0,0,1,2099.763-62.784Z" transform="translate(-2057.962 80.761)" fill="#a18bbc"/>
        <path id="Trazado_17434" data-name="Trazado 17434" d="M2104.965-67.993c-6.281,0-16.1-5.035-16.2-5.087a.087.087,0,0,1-.037-.118.087.087,0,0,1,.117-.037c.105.054,10.522,5.4,16.711,5.052s14.889-4.659,14.976-4.7a.088.088,0,0,1,.117.039.088.088,0,0,1-.039.117c-.088.044-8.815,4.376-15.044,4.721Q2105.269-67.992,2104.965-67.993Z" transform="translate(-2058.694 81.099)" fill="#a18bbc"/>
        <path id="Trazado_17435" data-name="Trazado 17435" d="M2118.356-66.055a.088.088,0,0,1-.061-.026.087.087,0,0,1,0-.123c1.739-1.739,7.467-3.941,7.71-4.034a.087.087,0,0,1,.113.051.087.087,0,0,1-.05.113c-.059.023-5.937,2.282-7.649,3.994A.089.089,0,0,1,2118.356-66.055Z" transform="translate(-2065.908 80.367)" fill="#a18bbc"/>
        <path id="Trazado_17436" data-name="Trazado 17436" d="M2110.235-58.994h-.008a.087.087,0,0,1-.079-.1c.018-.2.457-4.827.8-6.042.338-1.181-1.031-4.969-1.045-5.008a.085.085,0,0,1,0-.067l2.224-4.619-3.477-.993a46.845,46.845,0,0,0-.85,4.612,2.878,2.878,0,0,0,.113,1.616,5.53,5.53,0,0,1,.312,1.242c.25,1.65-.406,7.636-.434,7.89a.088.088,0,0,1-.1.077.087.087,0,0,1-.077-.1c.007-.062.681-6.217.435-7.845a5.35,5.35,0,0,0-.3-1.208,3.019,3.019,0,0,1-.123-1.694c.172-1.731.867-4.694.874-4.724a.09.09,0,0,1,.041-.055.091.091,0,0,1,.069-.009l3.665,1.048a.088.088,0,0,1,.056.048.087.087,0,0,1,0,.073l-2.253,4.679c.148.412,1.376,3.895,1.036,5.081s-.794,5.962-.8,6.01A.087.087,0,0,1,2110.235-58.994Z" transform="translate(-2063.301 81.775)" fill="#a18bbc"/>
        <path id="Trazado_17437" data-name="Trazado 17437" d="M2143.73-51.045a.081.081,0,0,1-.061-.029c-.1-.1-.215-.21,5.6-6.6,8.826-9.691,11.644-9.8,11.759-9.8a.087.087,0,0,1,.087.087.087.087,0,0,1-.087.088c-.027,0-2.9.154-11.63,9.745-3.7,4.065-5,5.595-5.412,6.144.2-.171.49-.432.749-.68a.087.087,0,0,1,.123,0,.087.087,0,0,1,0,.123C2144.055-51.194,2143.823-51.045,2143.73-51.045Z" transform="translate(-2072.101 79.69)" fill="#a18bbc"/>
        <path id="Trazado_17438" data-name="Trazado 17438" d="M2126.207-54.21a.087.087,0,0,1-.083-.06.087.087,0,0,1,.056-.11c.106-.034,10.685-3.507,14.3-5.059,3.505-1.5,12.221-6.662,15-8.372,2.237-1.377,8.652-6.745,8.716-6.8a.088.088,0,0,1,.123.011.087.087,0,0,1-.011.122c-.064.054-6.489,5.431-8.737,6.815-2.781,1.711-11.507,6.877-15.022,8.384-3.627,1.554-14.213,5.029-14.319,5.064A.085.085,0,0,1,2126.207-54.21Z" transform="translate(-2067.824 81.437)" fill="#a18bbc"/>
        <path id="Trazado_17439" data-name="Trazado 17439" d="M2171.39-60.151l-.015,0a.086.086,0,0,1-.072-.086l.054-5.031a.087.087,0,0,1,.087-.087h0a.088.088,0,0,1,.086.088l-.048,4.512c.657-1.807,3-7.956,4.969-9.469a.088.088,0,0,1,.123.016.088.088,0,0,1-.016.122c-2.222,1.71-5.058,9.8-5.086,9.878A.086.086,0,0,1,2171.39-60.151Z" transform="translate(-2078.853 80.367)" fill="#a18bbc"/>
        <path id="Trazado_17440" data-name="Trazado 17440" d="M2154.145-52.337a.092.092,0,0,1-.042-.011.087.087,0,0,1-.035-.118c1.586-3,9.19-8.628,9.463-8.764a.088.088,0,0,1,.117.039.087.087,0,0,1-.04.117c-.269.135-7.814,5.719-9.386,8.689A.088.088,0,0,1,2154.145-52.337Z" transform="translate(-2074.643 78.169)" fill="#a18bbc"/>
      </g>
      <path id="Trazado_17441" data-name="Trazado 17441" d="M2097.722-152.453c-1.8.624,6.657,7.8,9.1,7.8s6.633-6.283,6.633-6.283a37.2,37.2,0,0,1-1.222-8.552l-13.265.523S2099.093-152.928,2097.722-152.453Z" transform="translate(-2052.537 188.642)" fill="#ffa08b"/>
      <path id="Trazado_17442" data-name="Trazado 17442" d="M2111.588-137.666a26.985,26.985,0,0,0-2.036,3.5,4.235,4.235,0,0,0,0,1.571s2.443,8.029,3.142,11,.873,13.788,1.222,15.883-1.745,9.6-1.745,10.473,1.745,7.854,1.745,7.854l-4.363,4.887-6.807-2.967s-.7-6.109-.873-10.3,2.269-7.156,2.443-12.043.175-12.741.175-16.406,2.792-7.68,2.618-8.2a5.559,5.559,0,0,1,0-1.745l-2.318-3.963a8.83,8.83,0,0,1,3.366-.924A7.226,7.226,0,0,1,2111.588-137.666Z" transform="translate(-2053.609 183.655)" fill="#167377"/>
      <path id="Trazado_17443" data-name="Trazado 17443" d="M2105.819-83.22a.168.168,0,0,1-.11-.032c-.125-.1-.079-.317.151-.722,1.385-2.423,7.8-10.059,7.863-10.136a.088.088,0,0,1,.124-.011.087.087,0,0,1,.01.123c-.064.076-6.468,7.7-7.845,10.11-.24.418-.193.5-.192.5.259.169,2.681-1.726,4.771-3.576a.086.086,0,0,1,.123.008.087.087,0,0,1-.007.122C2109.712-85.952,2106.567-83.22,2105.819-83.22Z" transform="translate(-2054.531 172.694)" fill="#3b3348"/>
      <path id="Trazado_17444" data-name="Trazado 17444" d="M2112.765-120.735a.608.608,0,0,1-.265-.074c-1.061-.531-1.565-7.641-1.618-8.45a.087.087,0,0,1,.081-.093.086.086,0,0,1,.093.082c.145,2.17.7,7.894,1.522,8.305.087.044.2.084.263.03.226-.2-.088-1.4-.383-2.191a.086.086,0,0,1,.051-.112.088.088,0,0,1,.113.051c.125.336.732,2.025.337,2.381A.277.277,0,0,1,2112.765-120.735Z" transform="translate(-2055.81 181.288)" fill="#3b3348"/>
      <path id="Trazado_17445" data-name="Trazado 17445" d="M2097.5-136.356l-.024,0c-.307-.058-.81-1.912-1.925-7.083-.078-.361-.142-.658-.188-.866a25.723,25.723,0,0,1-.02-5.343.089.089,0,0,1,.094-.079.087.087,0,0,1,.079.094,26.219,26.219,0,0,0,.017,5.29c.046.207.11.506.188.866.387,1.8,1.4,6.5,1.77,6.928a4.149,4.149,0,0,1,.979-.72,13.412,13.412,0,0,0,3.022-2.4,6.817,6.817,0,0,1,4.6-2.123,1.751,1.751,0,0,0,.283-.04,2.636,2.636,0,0,1,1.85.224c.334.167,1.062.649,1.983,1.259,1.786,1.184,4.45,2.948,5.377,3.086-.212-1.207-1.017-5.881-.845-6.227a26.228,26.228,0,0,0-.649-6.441c-.07-.172-.117-.194-.123-.2a.087.087,0,0,1-.051-.113.087.087,0,0,1,.113-.05c.087.033.161.136.234.322a25.462,25.462,0,0,1,.631,6.557,54.854,54.854,0,0,0,.881,6.229.087.087,0,0,1-.019.071.085.085,0,0,1-.067.032c-.863,0-3.588-1.805-5.578-3.123-.881-.584-1.641-1.087-1.965-1.25a2.487,2.487,0,0,0-1.74-.208,1.868,1.868,0,0,1-.316.043,6.756,6.756,0,0,0-4.473,2.065,13.8,13.8,0,0,1-3.059,2.433,3.817,3.817,0,0,0-.948.7A.137.137,0,0,1,2097.5-136.356Zm.017-.171h0Z" transform="translate(-2051.981 186.4)" fill="#3b3348"/>
      <g id="Grupo_12582" data-name="Grupo 12582" transform="translate(39.307)">
        <g id="Grupo_12580" data-name="Grupo 12580" transform="translate(22.389 18.831)">
          <g id="Grupo_12579" data-name="Grupo 12579">
            <path id="Trazado_17446" data-name="Trazado 17446" d="M2122.176-173.139a2.009,2.009,0,0,1,2.021,1.094,2.049,2.049,0,0,1-.167,1.77,4.08,4.08,0,0,1-1.281,1.3,2.347,2.347,0,0,1-2.069.5,1.831,1.831,0,0,1-1.035-1.74A2.748,2.748,0,0,1,2122.176-173.139Z" transform="translate(-2119.645 173.146)" fill="#c77968"/>
          </g>
        </g>
        <path id="Trazado_17447" data-name="Trazado 17447" d="M2116.482-185.766c-.133-3.527-2.063-7.32-5.291-8.967a15.391,15.391,0,0,0-8.256-1.455c-5.658.49-10.564,4.074-10.734,10.107-.143,5.031,1.753,9.843,3.5,14.469a13.583,13.583,0,0,0,1.378,2.78,8.686,8.686,0,0,0,2.509,2.256c1.931,1.32,3.942,2.674,6.249,3.061a5.3,5.3,0,0,0,2.643-.154,7.832,7.832,0,0,0,2.451-1.669,12.03,12.03,0,0,0,3.629-4.455,10.986,10.986,0,0,0,.529-2.452q.174-1.337.3-2.679a13.438,13.438,0,0,0,.255-2.453q.339-2.567.637-5.14A21.348,21.348,0,0,0,2116.482-185.766Z" transform="translate(-2090.555 197.617)" fill="#ffa08b"/>
        <path id="Trazado_17448" data-name="Trazado 17448" d="M2107.236-176.593a.529.529,0,0,1-.281-.08,4.149,4.149,0,0,0-4.095-.015.537.537,0,0,1-.739-.178.538.538,0,0,1,.178-.739,5.2,5.2,0,0,1,5.221.019.537.537,0,0,1,.173.74A.535.535,0,0,1,2107.236-176.593Z" transform="translate(-2092.96 193.239)" fill="#4e3933"/>
        <path id="Trazado_17449" data-name="Trazado 17449" d="M2120.544-176.539a.539.539,0,0,1-.281-.081,4.15,4.15,0,0,0-4.094-.015.536.536,0,0,1-.738-.178.536.536,0,0,1,.178-.739,5.191,5.191,0,0,1,5.221.019.538.538,0,0,1,.173.74A.536.536,0,0,1,2120.544-176.539Z" transform="translate(-2096.208 193.226)" fill="#4e3933"/>
        <path id="Trazado_17450" data-name="Trazado 17450" d="M2105.576-162.951a.09.09,0,0,1-.086-.067.892.892,0,0,1,.463-1.014.09.09,0,0,1,.12.042.09.09,0,0,1-.042.119.717.717,0,0,0-.368.805.088.088,0,0,1-.063.11A.084.084,0,0,1,2105.576-162.951Z" transform="translate(-2093.794 189.754)" fill="#c77968"/>
        <path id="Trazado_17451" data-name="Trazado 17451" d="M2115.67-173.217a.161.161,0,0,1,.088.028,5.438,5.438,0,0,0,2.093.876,4.37,4.37,0,0,0,1.922-.856.161.161,0,0,1,.234.043.187.187,0,0,1-.04.249,4.594,4.594,0,0,1-2.117.921,5.6,5.6,0,0,1-2.271-.931.187.187,0,0,1-.052-.247A.167.167,0,0,1,2115.67-173.217Z" transform="translate(-2096.244 191.994)" fill="#333"/>
        <path id="Trazado_17452" data-name="Trazado 17452" d="M2103.2-173.219a.156.156,0,0,1,.088.028,5.431,5.431,0,0,0,2.093.875,4.379,4.379,0,0,0,1.921-.855.161.161,0,0,1,.234.042.186.186,0,0,1-.04.249,4.588,4.588,0,0,1-2.117.921,5.6,5.6,0,0,1-2.271-.931.185.185,0,0,1-.052-.246A.166.166,0,0,1,2103.2-173.219Z" transform="translate(-2093.201 191.995)" fill="#333"/>
        <path id="Trazado_17453" data-name="Trazado 17453" d="M2111.644-159.222c-.213,0-.445-.01-.7-.029a.089.089,0,0,1-.082-.1.089.089,0,0,1,.1-.082,5.336,5.336,0,0,0,2.547-.259.091.091,0,0,1,.121.04.09.09,0,0,1-.04.12A4.609,4.609,0,0,1,2111.644-159.222Z" transform="translate(-2095.113 188.694)" fill="#6b4640"/>
        <path id="Trazado_17454" data-name="Trazado 17454" d="M2116.145-167.337a13.761,13.761,0,0,1-.711,4.431,13.79,13.79,0,0,1-4.006,4.869,6.283,6.283,0,0,1-1.36,1.008,5.652,5.652,0,0,1-1.841.455,7.646,7.646,0,0,1-2.637-.033,8.85,8.85,0,0,1-3.015-1.6c-.122.408-.742.214-1.066-.064a21.91,21.91,0,0,1-5.9-8.052,2.43,2.43,0,0,1-.2-1.989c.141-.28.391-.6.224-.865a.873.873,0,0,0-.336-.249,1.542,1.542,0,0,1-.579-1.971c.792-.046,1.517-.163,2.31-.209a13.126,13.126,0,0,0,1.5,6.145,9.829,9.829,0,0,0,4.035,3.313,7.067,7.067,0,0,0,3.166.915c1.267-.01,2.572-.582,3.761-.142a3.791,3.791,0,0,0,.691.247,3.366,3.366,0,0,0,1.847-.54c1.6-1.212,2.565-1.481,3.24-4.108.353-1.374.347-3.5.931-4.785C2116.144-169.486,2116.2-168.413,2116.145-167.337Z" transform="translate(-2091.136 191.602)" fill="#4e3933"/>
        <path id="Trazado_17455" data-name="Trazado 17455" d="M2107.959-163.111a3.362,3.362,0,0,0-1.317.2c-.909.192-1.533-.1-2.287.443-.679.489-.756,2.028-.727,2.864-.122.056-.785-.54-.9-.612l-1.281-.816a2.709,2.709,0,0,1-.967-.865,2.189,2.189,0,0,0,1.9-1.116,6.86,6.86,0,0,1,.735-.67,1.883,1.883,0,0,1,.685-.389,5.533,5.533,0,0,1,1.188-.292,11.059,11.059,0,0,1,1.727-.045l6.384.169a2.753,2.753,0,0,1,.908.127,2.752,2.752,0,0,1,.914.689l1.39,1.4a.413.413,0,0,1,.122.174.409.409,0,0,1-.118.333c-.225.3-1.5,1.51-1.764,1.777a3.01,3.01,0,0,0-.709-2.769c.068.159.088.41-.082.437a.3.3,0,0,1-.228-.115,4.466,4.466,0,0,0-1.993-1.085c.113.122-.141.246-.3.215-.507-.1-1.11-.492-1.625-.406C2108.944-163.357,2108.7-162.964,2107.959-163.111Z" transform="translate(-2092.579 189.848)" fill="#4e3933"/>
        <path id="Trazado_17456" data-name="Trazado 17456" d="M2113.375-167.722a.179.179,0,0,1-.171-.133.179.179,0,0,1,.126-.219c.516-.138,1.372-.459,1.3-1.054a1.8,1.8,0,0,0-.172-.5l-.025-.055a9.783,9.783,0,0,1-.675-6.26.178.178,0,0,1,.219-.128.179.179,0,0,1,.128.218,9.419,9.419,0,0,0,.655,6.022l.025.054a2.063,2.063,0,0,1,.2.608c.079.649-.463,1.147-1.563,1.442A.174.174,0,0,1,2113.375-167.722Z" transform="translate(-2095.682 192.693)" fill="#c77968"/>
        <path id="Trazado_17457" data-name="Trazado 17457" d="M2110.68-165.368h-.011a.707.707,0,0,1-.5-.241.77.77,0,0,1-.2-.572.759.759,0,0,1,.289-.531.7.7,0,0,1,.535-.152.179.179,0,0,1,.15.2.18.18,0,0,1-.2.15.338.338,0,0,0-.258.079.406.406,0,0,0-.156.277.416.416,0,0,0,.111.3.347.347,0,0,0,.243.123,1.055,1.055,0,0,0,.261-.053l.783-.237a.179.179,0,0,1,.223.119.179.179,0,0,1-.119.224l-.783.237A1.2,1.2,0,0,1,2110.68-165.368Z" transform="translate(-2094.893 190.445)" fill="#c77968"/>
        <path id="Trazado_17458" data-name="Trazado 17458" d="M2092.9-178.455a1.518,1.518,0,0,0,.361.6,1.414,1.414,0,0,0,.615.271,7.105,7.105,0,0,0,1.813.2.648.648,0,0,0,.395-.1.683.683,0,0,0,.159-.606c-.172-2.5-.494-5.063.187-7.475s2.691-4.669,5.2-4.707a22.051,22.051,0,0,1,3.814.752,7.119,7.119,0,0,0,3.766-.412,6.949,6.949,0,0,1,2.093-.708,3.124,3.124,0,0,1,2.3.985,8.886,8.886,0,0,1,1.456,2.114,7.356,7.356,0,0,1,1.129,3.509,16.241,16.241,0,0,0,.486-3.157,6.769,6.769,0,0,0-.3-2.467,8.533,8.533,0,0,0-1.441-2.3c-1.58-2.011-3.26-4.1-5.612-5.1a13.744,13.744,0,0,0-4.1-.866c-2.869-.274-6.055-.263-8.256,1.6-1.091.922-1.813,2.207-2.834,3.205a11.768,11.768,0,0,0-1.954,1.971c-1.011,1.613-.856,4.287-.741,6.11A21.492,21.492,0,0,0,2092.9-178.455Z" transform="translate(-2090.348 198.057)" fill="#4e3933"/>
        <g id="Grupo_12581" data-name="Grupo 12581" transform="translate(0 18.925)">
          <path id="Trazado_17459" data-name="Trazado 17459" d="M2092.193-173.012a2.012,2.012,0,0,0-2.03,1.079,2.05,2.05,0,0,0,.155,1.771,4.069,4.069,0,0,0,1.271,1.31,2.347,2.347,0,0,0,2.065.519,1.83,1.83,0,0,0,1.048-1.733A2.748,2.748,0,0,0,2092.193-173.012Z" transform="translate(-2090.027 173.021)" fill="#ffa08b"/>
          <path id="Trazado_17460" data-name="Trazado 17460" d="M2093.586-169.04a.089.089,0,0,1-.055-.02.755.755,0,0,1-.266-.723.754.754,0,0,1,.523-.565.211.211,0,0,0,.065-.023.09.09,0,0,0,0-.042,1.117,1.117,0,0,0-.273-.571,2.481,2.481,0,0,0-.956-.822,1.2,1.2,0,0,0-1.168.073.478.478,0,0,0-.223.4.089.089,0,0,1-.079.1.089.089,0,0,1-.1-.08.637.637,0,0,1,.295-.557,1.381,1.381,0,0,1,1.346-.094,2.653,2.653,0,0,1,1.027.877,1.294,1.294,0,0,1,.31.667.241.241,0,0,1-.036.161.259.259,0,0,1-.151.087.573.573,0,0,0-.406.431.572.572,0,0,0,.2.547.09.09,0,0,1,.015.125A.091.091,0,0,1,2093.586-169.04Z" transform="translate(-2090.277 172.796)" fill="#c77968"/>
        </g>
        <path id="Trazado_17461" data-name="Trazado 17461" d="M2110.414-161a14.656,14.656,0,0,1-3.508-.388.087.087,0,0,1-.063-.106.086.086,0,0,1,.105-.063,19.139,19.139,0,0,0,7.466,0,.087.087,0,0,1,.1.067.087.087,0,0,1-.067.1A21.382,21.382,0,0,1,2110.414-161Z" transform="translate(-2094.13 189.149)" fill="#6b4640"/>
      </g>
    </g>
    <g id="Grupo_12584" data-name="Grupo 12584" transform="translate(2110.669 -224.549)">
      <path id="Trazado_17462" data-name="Trazado 17462" d="M2192.7-210.63l-39.256,7.8,6.7,3.461,1.391,9.362,7.64-4.695,2.4,1.241Z" transform="translate(-2153.447 210.63)" fill="url(#linear-gradient)"/>
      <path id="Trazado_17463" data-name="Trazado 17463" d="M2163.612-189.939l-.328-.119,2.569-7.1-4.226-2.161,30.979-10.991.135.321-26.28,12.749,4.825,2.467-.159.311-4.96-2.536Zm-1.106-9.325,3.565,1.823,23.684-11.49Z" transform="translate(-2155.444 210.553)" fill="#12263f"/>
    </g>
    <g id="Grupo_12586" data-name="Grupo 12586" transform="translate(2120.729 -197.493)">
      <rect id="Rectángulo_3048" data-name="Rectángulo 3048" width="56.735" height="29.516" rx="2.477" transform="translate(0)" fill="#12263f"/>
      <path id="Trazado_17464" data-name="Trazado 17464" d="M2194.138-136.98s-5.49,13.978-4.607,13.271,18.559-13.256,18.559-13.256Z" transform="translate(-2172.292 165.597)" fill="#12263f"/>
      <g id="Grupo_12585" data-name="Grupo 12585" transform="translate(17.091 3.483)">
        <path id="Trazado_17465" data-name="Trazado 17465" d="M2189.974-163.155l.283-2.133h-.893v-.643h.99l.207-1.578h-.936v-.642h1.034l.282-2.079h.631l-.272,2.079h1.133l.283-2.079h.642l-.273,2.079h.893v.642h-.99l-.2,1.578h.936v.643H2192.7l-.283,2.133h-.653l.283-2.133h-1.132l-.283,2.133Zm2.167-2.776.206-1.578h-1.132l-.207,1.578Z" transform="translate(-2189.365 170.23)" fill="#fff"/>
      </g>
      <path id="Trazado_17466" data-name="Trazado 17466" d="M2182.608-167.38a4.419,4.419,0,0,0-4.418-4.418,4.418,4.418,0,0,0-4.418,4.418,4.419,4.419,0,0,0,4.418,4.419A4.419,4.419,0,0,0,2182.608-167.38Z" transform="translate(-2168.468 174.096)" fill="#fff"/>
      <path id="Trazado_17467" data-name="Trazado 17467" d="M2225.239-166.418h-25.628a.349.349,0,0,1-.349-.349.349.349,0,0,1,.349-.349h25.628a.349.349,0,0,1,.349.349A.349.349,0,0,1,2225.239-166.418Z" transform="translate(-2174.69 172.953)" fill="#fff"/>
      <path id="Trazado_17468" data-name="Trazado 17468" d="M2225.239-161.508h-25.628a.349.349,0,0,1-.349-.349.349.349,0,0,1,.349-.349h25.628a.349.349,0,0,1,.349.349A.349.349,0,0,1,2225.239-161.508Z" transform="translate(-2174.69 171.754)" fill="#fff"/>
      <path id="Trazado_17469" data-name="Trazado 17469" d="M2219.622-153.792h-47.367a.349.349,0,0,1-.349-.348.35.35,0,0,1,.349-.349h47.367a.35.35,0,0,1,.349.349A.349.349,0,0,1,2219.622-153.792Z" transform="translate(-2168.013 169.871)" fill="#fff"/>
      <path id="Trazado_17470" data-name="Trazado 17470" d="M2219.622-147.713h-47.367a.35.35,0,0,1-.349-.349.35.35,0,0,1,.349-.349h47.367a.35.35,0,0,1,.349.349A.35.35,0,0,1,2219.622-147.713Z" transform="translate(-2168.013 168.387)" fill="#fff"/>
    </g>
    <g id="Grupo_12588" data-name="Grupo 12588" transform="translate(2001.832 -246.288)">
      <path id="Trazado_17471" data-name="Trazado 17471" d="M2063.029-223.386l-32.056-15.961a.4.4,0,0,0-.537.18l-20.925,42.028a.4.4,0,0,0,.18.537l31.935,15.9a.4.4,0,0,0,.537-.181l20.986-42.149A.265.265,0,0,0,2063.029-223.386Z" transform="translate(-2009.468 239.389)" fill="#333"/>
      <rect id="Rectángulo_3049" data-name="Rectángulo 3049" width="34.067" height="45.093" transform="translate(21.529 1.442) rotate(26.068)" fill="#fff"/>
      <path id="Trazado_17472" data-name="Trazado 17472" d="M2062.852-227.447l-4.863-2.421c.039-.063.075-.126.109-.193a2.433,2.433,0,0,0-1.093-3.261,2.432,2.432,0,0,0-3.261,1.093c-.033.067-.062.135-.089.2l-4.863-2.42a1.874,1.874,0,0,0-2.514.842l-1.139,2.288a.432.432,0,0,0,.195.581l16.639,8.285a.433.433,0,0,0,.581-.2l1.139-2.287A1.874,1.874,0,0,0,2062.852-227.447Zm-7.621-2.313a1.547,1.547,0,0,1-.7-2.075,1.547,1.547,0,0,1,2.075-.7,1.548,1.548,0,0,1,.7,2.075A1.548,1.548,0,0,1,2055.231-229.76Z" transform="translate(-2018.164 238.231)" fill="#b3b3b3"/>
      <g id="Grupo_12587" data-name="Grupo 12587" transform="translate(3.933 6.602)">
        <path id="Trazado_17473" data-name="Trazado 17473" d="M2050.111-223.971l-12.962-6.341a.1.1,0,0,1-.043-.126l.08-.165a.1.1,0,0,1,.126-.043l12.962,6.341a.094.094,0,0,1,.043.126l-.08.165A.1.1,0,0,1,2050.111-223.971Z" transform="translate(-2020.145 230.656)" fill="#a2acc2"/>
        <path id="Trazado_17474" data-name="Trazado 17474" d="M2048.527-220.733l-12.962-6.341a.094.094,0,0,1-.043-.126l.08-.164a.094.094,0,0,1,.126-.043l12.962,6.341a.1.1,0,0,1,.043.126l-.08.164A.094.094,0,0,1,2048.527-220.733Z" transform="translate(-2019.758 229.865)" fill="#a2acc2"/>
        <path id="Trazado_17475" data-name="Trazado 17475" d="M2049.108-204.393l-12.961-6.341a.1.1,0,0,1-.044-.126l.081-.165a.094.094,0,0,1,.126-.043l12.961,6.341a.094.094,0,0,1,.043.126l-.08.164A.1.1,0,0,1,2049.108-204.393Z" transform="translate(-2019.9 225.877)" fill="#a2acc2"/>
        <path id="Trazado_17476" data-name="Trazado 17476" d="M2047.38-200.86l-12.962-6.341a.1.1,0,0,1-.043-.126l.08-.165a.1.1,0,0,1,.126-.043l12.962,6.341a.1.1,0,0,1,.043.126l-.08.165A.1.1,0,0,1,2047.38-200.86Z" transform="translate(-2019.478 225.015)" fill="#a2acc2"/>
        <path id="Trazado_17477" data-name="Trazado 17477" d="M2053.252-200.177l-17.97-8.791a.1.1,0,0,1-.043-.126l.08-.164a.094.094,0,0,1,.126-.043l17.969,8.79a.1.1,0,0,1,.044.126l-.081.165A.1.1,0,0,1,2053.252-200.177Z" transform="translate(-2019.689 225.446)" fill="#a2acc2"/>
        <path id="Trazado_17478" data-name="Trazado 17478" d="M2061.019-198.566,2054.4-201.8a.1.1,0,0,1-.044-.126l.081-.164a.094.094,0,0,1,.126-.043l6.618,3.238a.1.1,0,0,1,.044.126l-.081.164A.1.1,0,0,1,2061.019-198.566Z" transform="translate(-2024.355 223.697)" fill="#a2acc2"/>
        <path id="Trazado_17479" data-name="Trazado 17479" d="M2044.206-211.9l-12.962-6.341a.094.094,0,0,1-.043-.126l.08-.164a.1.1,0,0,1,.126-.044l12.962,6.341a.1.1,0,0,1,.043.126l-.08.165A.1.1,0,0,1,2044.206-211.9Z" transform="translate(-2018.703 227.709)" fill="#a2acc2"/>
        <path id="Trazado_17480" data-name="Trazado 17480" d="M2066.633-211.875l-12.961-6.341a.094.094,0,0,1-.043-.126l.08-.164a.094.094,0,0,1,.126-.043l12.961,6.341a.1.1,0,0,1,.044.126l-.08.164A.1.1,0,0,1,2066.633-211.875Z" transform="translate(-2024.177 227.703)" fill="#a2acc2"/>
        <path id="Trazado_17481" data-name="Trazado 17481" d="M2061.133-211.829l-26.648-13.037a.094.094,0,0,1-.044-.125l.081-.165a.094.094,0,0,1,.126-.043l26.648,13.037a.1.1,0,0,1,.044.126l-.081.164A.094.094,0,0,1,2061.133-211.829Z" transform="translate(-2019.494 229.326)" fill="#a2acc2"/>
        <path id="Trazado_17482" data-name="Trazado 17482" d="M2059.909-209.326l-26.649-13.037a.1.1,0,0,1-.043-.126l.08-.164a.1.1,0,0,1,.126-.044l26.649,13.037a.094.094,0,0,1,.043.126l-.08.165A.1.1,0,0,1,2059.909-209.326Z" transform="translate(-2019.195 228.715)" fill="#a2acc2"/>
        <path id="Trazado_17483" data-name="Trazado 17483" d="M2058.9-207.265,2032.252-220.3a.094.094,0,0,1-.043-.126l.08-.164a.1.1,0,0,1,.126-.044l26.649,13.037a.1.1,0,0,1,.043.126l-.08.165A.1.1,0,0,1,2058.9-207.265Z" transform="translate(-2018.949 228.212)" fill="#a2acc2"/>
        <path id="Trazado_17484" data-name="Trazado 17484" d="M2030.959-209.429a.257.257,0,0,1-.115-.026l-3.783-1.85a.263.263,0,0,1-.133-.15.26.26,0,0,1,.013-.2l1.851-3.783a.261.261,0,0,1,.35-.12l3.783,1.851a.261.261,0,0,1,.12.35l-1.851,3.783a.261.261,0,0,1-.151.133A.268.268,0,0,1,2030.959-209.429Zm-3.433-2.232,3.313,1.621,1.621-3.313-3.312-1.621Z" transform="translate(-2017.659 226.978)" fill="#a2acc2"/>
        <path id="Trazado_17485" data-name="Trazado 17485" d="M2029.685-210.586a.35.35,0,0,1-.172-.045.35.35,0,0,1-.175-.346,7.179,7.179,0,0,0-.107-2.375.35.35,0,0,1,.269-.414.349.349,0,0,1,.414.269,7.956,7.956,0,0,1,.172,1.838,11.847,11.847,0,0,1,4.212-1.779.348.348,0,0,1,.413.271.349.349,0,0,1-.271.413,11.09,11.09,0,0,0-4.542,2.095A.349.349,0,0,1,2029.685-210.586Z" transform="translate(-2018.223 226.535)" fill="#167377"/>
        <path id="Trazado_17486" data-name="Trazado 17486" d="M2043.635-193.205l-12.962-6.341a.1.1,0,0,1-.043-.126l.08-.165a.1.1,0,0,1,.126-.043l12.962,6.341a.1.1,0,0,1,.043.126l-.08.164A.1.1,0,0,1,2043.635-193.205Z" transform="translate(-2018.564 223.146)" fill="#a2acc2"/>
        <path id="Trazado_17487" data-name="Trazado 17487" d="M2049.507-192.522l-17.969-8.791a.1.1,0,0,1-.044-.126l.081-.164a.1.1,0,0,1,.126-.044l17.969,8.791a.1.1,0,0,1,.043.126l-.08.165A.1.1,0,0,1,2049.507-192.522Z" transform="translate(-2018.775 223.577)" fill="#a2acc2"/>
        <path id="Trazado_17488" data-name="Trazado 17488" d="M2026.638-200.6a.26.26,0,0,1-.115-.026l-3.783-1.851a.261.261,0,0,1-.12-.35l1.85-3.783a.263.263,0,0,1,.351-.12l3.783,1.85a.262.262,0,0,1,.12.351l-1.851,3.783A.261.261,0,0,1,2026.638-200.6Zm-3.433-2.233,3.313,1.621,1.621-3.312-3.313-1.621Z" transform="translate(-2016.605 224.822)" fill="#a2acc2"/>
        <path id="Trazado_17489" data-name="Trazado 17489" d="M2025.364-201.752a.349.349,0,0,1-.172-.045.351.351,0,0,1-.175-.347,7.2,7.2,0,0,0-.106-2.374.349.349,0,0,1,.269-.414.349.349,0,0,1,.413.269,7.96,7.96,0,0,1,.172,1.838,11.846,11.846,0,0,1,4.212-1.778.349.349,0,0,1,.413.27.349.349,0,0,1-.27.413,11.088,11.088,0,0,0-4.542,2.095A.352.352,0,0,1,2025.364-201.752Z" transform="translate(-2017.169 224.379)" fill="#167377"/>
        <path id="Trazado_17490" data-name="Trazado 17490" d="M2040.754-187.317l-12.961-6.341a.094.094,0,0,1-.043-.126l.08-.164a.1.1,0,0,1,.126-.044l12.961,6.341a.094.094,0,0,1,.044.125l-.081.165A.094.094,0,0,1,2040.754-187.317Z" transform="translate(-2017.861 221.709)" fill="#a2acc2"/>
        <path id="Trazado_17491" data-name="Trazado 17491" d="M2044.9-183.1l-17.97-8.79a.1.1,0,0,1-.043-.126l.081-.165a.094.094,0,0,1,.125-.043l17.97,8.791a.1.1,0,0,1,.043.126l-.08.164A.094.094,0,0,1,2044.9-183.1Z" transform="translate(-2017.65 221.278)" fill="#a2acc2"/>
        <path id="Trazado_17492" data-name="Trazado 17492" d="M2022.6-192.352a.26.26,0,0,1-.115-.026l-3.783-1.851a.261.261,0,0,1-.12-.35l1.851-3.783a.261.261,0,0,1,.35-.12l3.783,1.85a.262.262,0,0,1,.12.35l-1.85,3.784A.263.263,0,0,1,2022.6-192.352Zm-3.433-2.233,3.313,1.621,1.621-3.313-3.313-1.621Z" transform="translate(-2015.62 222.81)" fill="#a2acc2"/>
        <path id="Trazado_17493" data-name="Trazado 17493" d="M2021.331-193.509a.347.347,0,0,1-.172-.045.349.349,0,0,1-.175-.347,7.22,7.22,0,0,0-.107-2.375.349.349,0,0,1,.269-.413.348.348,0,0,1,.414.269,7.956,7.956,0,0,1,.172,1.838,11.861,11.861,0,0,1,4.212-1.779.349.349,0,0,1,.413.271.349.349,0,0,1-.27.413,11.074,11.074,0,0,0-4.542,2.095A.352.352,0,0,1,2021.331-193.509Z" transform="translate(-2016.184 222.367)" fill="#167377"/>
        <path id="Trazado_17494" data-name="Trazado 17494" d="M2036.866-179.367l-12.962-6.341a.093.093,0,0,1-.043-.125l.08-.165a.094.094,0,0,1,.126-.043l12.962,6.341a.1.1,0,0,1,.043.126l-.08.164A.1.1,0,0,1,2036.866-179.367Z" transform="translate(-2016.912 219.769)" fill="#a2acc2"/>
        <path id="Trazado_17495" data-name="Trazado 17495" d="M2035.137-175.834l-12.961-6.341a.094.094,0,0,1-.044-.125l.081-.165a.094.094,0,0,1,.125-.043l12.962,6.341a.1.1,0,0,1,.044.126l-.081.164A.1.1,0,0,1,2035.137-175.834Z" transform="translate(-2016.49 218.906)" fill="#a2acc2"/>
        <path id="Trazado_17496" data-name="Trazado 17496" d="M2041.009-175.151l-17.969-8.791a.1.1,0,0,1-.044-.126l.081-.164a.1.1,0,0,1,.126-.044l17.969,8.791a.1.1,0,0,1,.043.126l-.08.165A.1.1,0,0,1,2041.009-175.151Z" transform="translate(-2016.701 219.338)" fill="#a2acc2"/>
        <path id="Trazado_17497" data-name="Trazado 17497" d="M2018.716-184.4a.254.254,0,0,1-.114-.026l-3.784-1.851a.261.261,0,0,1-.132-.15.263.263,0,0,1,.012-.2l1.851-3.783a.262.262,0,0,1,.35-.12l3.783,1.851a.259.259,0,0,1,.133.15.26.26,0,0,1-.013.2l-1.851,3.783A.261.261,0,0,1,2018.716-184.4Zm-3.433-2.233,3.313,1.621,1.621-3.312-3.313-1.621Z" transform="translate(-2014.671 220.869)" fill="#a2acc2"/>
        <path id="Trazado_17498" data-name="Trazado 17498" d="M2017.442-185.559a.349.349,0,0,1-.172-.045.348.348,0,0,1-.175-.346,7.2,7.2,0,0,0-.107-2.375.349.349,0,0,1,.269-.414.35.35,0,0,1,.414.269,8,8,0,0,1,.172,1.838,11.824,11.824,0,0,1,4.211-1.779.349.349,0,0,1,.413.271.349.349,0,0,1-.271.413,11.088,11.088,0,0,0-4.542,2.095A.346.346,0,0,1,2017.442-185.559Z" transform="translate(-2015.235 220.427)" fill="#167377"/>
      </g>
      <path id="Trazado_17499" data-name="Trazado 17499" d="M2064.448-221.38a.262.262,0,0,1-.115-.027l-8.235-4.028a.262.262,0,0,1-.12-.35.262.262,0,0,1,.351-.12l8.234,4.028a.262.262,0,0,1,.12.35A.262.262,0,0,1,2064.448-221.38Z" transform="translate(-2020.813 236.104)" fill="#fff"/>
    </g>
    <g id="Grupo_12590" data-name="Grupo 12590" transform="translate(1978.182 -187.66)">
      <g id="Grupo_12589" data-name="Grupo 12589">
        <path id="Trazado_17500" data-name="Trazado 17500" d="M1978.812-148.42c1.594-8.392,4.65-13.6,8.311-13.369.093.005,9.587,8.927,34.144,14.931l1.319.3.018,0c1.931.367,3.024,3.145,2.443,6.2s-2.618,5.243-4.548,4.876c-.153-.029-20.377-1.884-35.356,3.621a4.4,4.4,0,0,1-1.231.467h0a3.221,3.221,0,0,1-1.261.022C1978.876-132.081,1977.158-139.718,1978.812-148.42Z" transform="translate(-1978.182 161.822)" fill="url(#linear-gradient-3)"/>
        <path id="Trazado_17501" data-name="Trazado 17501" d="M1985.737-131.254a.044.044,0,0,1-.043-.036.044.044,0,0,1,.035-.051c.009,0,.949-.2,2.136-1.915,1.1-1.581,2.633-4.809,3.721-11.207s.346-10.769-.47-13.3a11.241,11.241,0,0,0-2.052-3.994.044.044,0,0,1,0-.062.044.044,0,0,1,.062,0,11.329,11.329,0,0,1,2.069,4.021c.82,2.541,1.568,6.918.475,13.348s-2.641,9.67-3.746,11.257c-1.206,1.73-2.141,1.928-2.181,1.935Z" transform="translate(-1980.016 161.83)" fill="#282233"/>
        <path id="Trazado_17502" data-name="Trazado 17502" d="M1990.607-135.949a.044.044,0,0,1-.023-.006c-.047-.029-4.7-2.977-3.874-7.833a7.975,7.975,0,0,1,5.6-6.109.043.043,0,0,1,.053.032.044.044,0,0,1-.032.053,7.886,7.886,0,0,0-5.537,6.039c-.816,4.8,3.788,7.715,3.834,7.744a.044.044,0,0,1,.014.06A.043.043,0,0,1,1990.607-135.949Z" transform="translate(-1980.24 158.918)" fill="#282233"/>
        <path id="Trazado_17503" data-name="Trazado 17503" d="M2030.025-143.269c1.165.317,2.357.629,3.6.933l1.319.3.017,0c1.931.367,3.024,3.145,2.443,6.2s-2.618,5.243-4.548,4.876c-.042-.008-1.558-.15-4.043-.243A19.748,19.748,0,0,0,2030.025-143.269Z" transform="translate(-1990.54 157.3)" fill="#12263f"/>
      </g>
      <path id="Trazado_17504" data-name="Trazado 17504" d="M2011.263-127.526a32.4,32.4,0,0,1-4.348,13.839,2.3,2.3,0,0,0,1.089,3.336l2.569,1.045a3.689,3.689,0,0,0,4.628-1.66c1.67-3.055,3.86-8.665,3.839-17.042Z" transform="translate(-1985.111 153.575)" fill="url(#linear-gradient-3)"/>
    </g>
    <g id="Grupo_12593" data-name="Grupo 12593" transform="translate(2157.183 -156.593)">
      <path id="Trazado_17505" data-name="Trazado 17505" d="M2228.783-110.581a7.213,7.213,0,0,0-3.652-9.524,7.213,7.213,0,0,0-9.525,3.652,7.213,7.213,0,0,0,3.653,9.525A7.212,7.212,0,0,0,2228.783-110.581Z" transform="translate(-2214.98 120.732)" fill="#167377"/>
      <path id="Trazado_17506" data-name="Trazado 17506" d="M2222.463-106.886a6.325,6.325,0,0,1-2.576-.55,6.31,6.31,0,0,1-3.346-3.529,6.314,6.314,0,0,1,.128-4.861,6.361,6.361,0,0,1,8.389-3.216,6.312,6.312,0,0,1,3.346,3.528,6.313,6.313,0,0,1-.129,4.861A6.362,6.362,0,0,1,2222.463-106.886Zm.018-12.531a6.187,6.187,0,0,0-5.652,3.663,6.141,6.141,0,0,0-.125,4.727,6.137,6.137,0,0,0,3.254,3.431,6.135,6.135,0,0,0,4.727.125,6.137,6.137,0,0,0,3.431-3.253,6.136,6.136,0,0,0,.125-4.727,6.135,6.135,0,0,0-3.253-3.431A6.152,6.152,0,0,0,2222.481-119.417Z" transform="translate(-2215.258 120.453)" fill="#282233"/>
      <g id="Grupo_12592" data-name="Grupo 12592" transform="translate(3.552 1.893)">
        <g id="Grupo_12591" data-name="Grupo 12591">
          <path id="Trazado_17507" data-name="Trazado 17507" d="M2221.534-108.178a.1.1,0,0,1-.036-.007l-.735-.328a.087.087,0,0,1-.044-.115l.491-1.1a3.759,3.759,0,0,1-1.518-1.308.087.087,0,0,1,.012-.1l.629-.657a.082.082,0,0,1,.071-.026.087.087,0,0,1,.066.04,3.3,3.3,0,0,0,1.419,1.218,1.262,1.262,0,0,0,1.784-.481c.253-.568.055-1.113-.683-1.881-.847-.859-1.559-1.816-1.043-2.975a2.169,2.169,0,0,1,2.63-1.16l.5-1.112a.09.09,0,0,1,.048-.046.087.087,0,0,1,.067,0l.724.323a.085.085,0,0,1,.046.048.088.088,0,0,1,0,.067l-.471,1.056a3.473,3.473,0,0,1,1.293,1.075.088.088,0,0,1-.008.113l-.636.64a.085.085,0,0,1-.068.026.09.09,0,0,1-.064-.036,2.987,2.987,0,0,0-1.259-1.024c-.854-.382-1.38-.018-1.569.408-.232.52-.036.959.838,1.881,1.066,1.111,1.327,2.021.873,3.038a2.306,2.306,0,0,1-2.758,1.23l-.511,1.147A.087.087,0,0,1,2221.534-108.178Zm-.62-.459.576.257.506-1.135a.087.087,0,0,1,.1-.049,2.145,2.145,0,0,0,2.627-1.113c.426-.955.183-1.78-.841-2.847-.827-.872-1.169-1.4-.871-2.072a1.253,1.253,0,0,1,1.8-.5,3.142,3.142,0,0,1,1.269,1l.511-.516a3.372,3.372,0,0,0-1.26-1,.088.088,0,0,1-.042-.114l.47-1.052-.565-.252-.49,1.1a.086.086,0,0,1-.1.049,2.017,2.017,0,0,0-2.5,1.045c-.447,1,.08,1.838,1.009,2.782.787.817,1,1.437.718,2.073a1.427,1.427,0,0,1-2.014.569,3.5,3.5,0,0,1-1.435-1.191l-.507.53a3.691,3.691,0,0,0,1.485,1.219.088.088,0,0,1,.043.115Z" transform="translate(-2219.68 118.228)" fill="#282233"/>
        </g>
      </g>
      <path id="Trazado_17508" data-name="Trazado 17508" d="M2228.12-118.841a.083.083,0,0,1-.035-.008.088.088,0,0,1-.044-.116l.349-.781a.087.087,0,0,1,.115-.044.087.087,0,0,1,.045.115l-.35.782A.088.088,0,0,1,2228.12-118.841Z" transform="translate(-2218.166 120.503)" fill="#282233"/>
      <path id="Trazado_17509" data-name="Trazado 17509" d="M2228.715-118.517a.089.089,0,0,1-.044-.011.088.088,0,0,1-.032-.119l.447-.782a.089.089,0,0,1,.12-.033.088.088,0,0,1,.032.119l-.447.782A.087.087,0,0,1,2228.715-118.517Z" transform="translate(-2218.311 120.425)" fill="#282233"/>
      <path id="Trazado_17510" data-name="Trazado 17510" d="M2230.885-116.6a.085.085,0,0,1-.068-.033.088.088,0,0,1,.014-.123l.746-.585a.088.088,0,0,1,.122.015.087.087,0,0,1-.015.122l-.745.585A.089.089,0,0,1,2230.885-116.6Z" transform="translate(-2218.841 119.909)" fill="#282233"/>
      <path id="Trazado_17511" data-name="Trazado 17511" d="M2231.445-115.8a.088.088,0,0,1-.075-.043.087.087,0,0,1,.03-.119l.816-.483a.088.088,0,0,1,.12.03.087.087,0,0,1-.031.119l-.816.484A.086.086,0,0,1,2231.445-115.8Z" transform="translate(-2218.978 119.69)" fill="#282233"/>
      <path id="Trazado_17512" data-name="Trazado 17512" d="M2231.893-114.931a.087.087,0,0,1-.083-.06.087.087,0,0,1,.055-.11l.566-.187a.086.086,0,0,1,.11.055.086.086,0,0,1-.055.11l-.565.187A.085.085,0,0,1,2231.893-114.931Z" transform="translate(-2219.087 119.404)" fill="#282233"/>
      <path id="Trazado_17513" data-name="Trazado 17513" d="M2222.859-119.482a.087.087,0,0,1-.083-.061l-.206-.664a.087.087,0,0,1,.057-.109.086.086,0,0,1,.109.057l.206.664a.087.087,0,0,1-.057.109A.077.077,0,0,1,2222.859-119.482Z" transform="translate(-2216.832 120.631)" fill="#282233"/>
      <path id="Trazado_17514" data-name="Trazado 17514" d="M2222.071-119.366a.087.087,0,0,1-.081-.054l-.344-.862a.089.089,0,0,1,.049-.114.088.088,0,0,1,.114.049l.343.862a.087.087,0,0,1-.048.113A.1.1,0,0,1,2222.071-119.366Z" transform="translate(-2216.606 120.651)" fill="#282233"/>
      <path id="Trazado_17515" data-name="Trazado 17515" d="M2218.653-117.434a.089.089,0,0,1-.064-.028l-.641-.7a.087.087,0,0,1,.005-.123.087.087,0,0,1,.123.005l.641.7a.088.088,0,0,1-.005.124A.088.088,0,0,1,2218.653-117.434Z" transform="translate(-2215.699 120.139)" fill="#282233"/>
      <path id="Trazado_17516" data-name="Trazado 17516" d="M2218.112-116.885a.087.087,0,0,1-.054-.019l-.741-.593a.087.087,0,0,1-.014-.122.088.088,0,0,1,.123-.014l.741.593a.087.087,0,0,1,.014.122A.087.087,0,0,1,2218.112-116.885Z" transform="translate(-2215.542 119.98)" fill="#282233"/>
      <path id="Trazado_17517" data-name="Trazado 17517" d="M2232.781-110.866a.087.087,0,0,1-.086-.076.087.087,0,0,1,.075-.1l.951-.122a.088.088,0,0,1,.1.076.088.088,0,0,1-.076.1l-.951.122Z" transform="translate(-2219.304 118.396)" fill="#282233"/>
      <path id="Trazado_17518" data-name="Trazado 17518" d="M2233.312-109.58l-.021,0-.642-.163a.086.086,0,0,1-.063-.106.086.086,0,0,1,.106-.063l.641.163a.088.088,0,0,1,.064.107A.087.087,0,0,1,2233.312-109.58Z" transform="translate(-2219.277 118.092)" fill="#282233"/>
      <path id="Trazado_17519" data-name="Trazado 17519" d="M2233.405-108.657a.094.094,0,0,1-.024,0l-.884-.254a.087.087,0,0,1-.06-.108.087.087,0,0,1,.107-.06l.885.254a.087.087,0,0,1,.06.108A.087.087,0,0,1,2233.405-108.657Z" transform="translate(-2219.24 117.889)" fill="#282233"/>
      <path id="Trazado_17520" data-name="Trazado 17520" d="M2228.774-102.943a.087.087,0,0,1-.076-.044l-.475-.822a.087.087,0,0,1,.032-.119.087.087,0,0,1,.119.032l.475.821a.087.087,0,0,1-.032.119A.087.087,0,0,1,2228.774-102.943Z" transform="translate(-2218.21 116.633)" fill="#282233"/>
      <path id="Trazado_17521" data-name="Trazado 17521" d="M2227.664-102.453a.086.086,0,0,1-.084-.063l-.26-.913a.088.088,0,0,1,.06-.108.087.087,0,0,1,.108.06l.26.913a.088.088,0,0,1-.061.108A.081.081,0,0,1,2227.664-102.453Z" transform="translate(-2217.991 116.536)" fill="#282233"/>
      <path id="Trazado_17522" data-name="Trazado 17522" d="M2218.887-104.057a.086.086,0,0,1-.064-.029.087.087,0,0,1,.006-.123l.483-.436a.087.087,0,0,1,.123.006.087.087,0,0,1-.006.123l-.483.436A.087.087,0,0,1,2218.887-104.057Z" transform="translate(-2215.913 116.811)" fill="#282233"/>
      <path id="Trazado_17523" data-name="Trazado 17523" d="M2217.049-105.573a.086.086,0,0,1-.069-.034.088.088,0,0,1,.016-.122l.659-.506a.087.087,0,0,1,.122.016.088.088,0,0,1-.016.122l-.659.506A.088.088,0,0,1,2217.049-105.573Z" transform="translate(-2215.464 117.198)" fill="#282233"/>
    </g>
    <g id="Grupo_12596" data-name="Grupo 12596" transform="translate(1984.53 -135.686)">
      <circle id="Elipse_655" data-name="Elipse 655" cx="7.213" cy="7.213" r="7.213" transform="translate(0 1.173) rotate(-4.663)" fill="#167377"/>
      <path id="Trazado_17524" data-name="Trazado 17524" d="M1994.81-78.49A6.329,6.329,0,0,1,1990.7-80a6.361,6.361,0,0,1-.73-8.955,6.311,6.311,0,0,1,4.326-2.219,6.307,6.307,0,0,1,4.629,1.489,6.313,6.313,0,0,1,2.22,4.326,6.314,6.314,0,0,1-1.49,4.629A6.34,6.34,0,0,1,1994.81-78.49Zm.015-12.529q-.255,0-.512.021a6.14,6.14,0,0,0-4.208,2.158,6.142,6.142,0,0,0-1.448,4.5,6.14,6.14,0,0,0,2.159,4.207,6.184,6.184,0,0,0,8.708-.711,6.139,6.139,0,0,0,1.449-4.5,6.14,6.14,0,0,0-2.159-4.207h0A6.132,6.132,0,0,0,1994.825-91.018Z" transform="translate(-1987.039 92.615)" fill="#282233"/>
      <g id="Grupo_12595" data-name="Grupo 12595" transform="translate(3.173 3.702)">
        <g id="Grupo_12594" data-name="Grupo 12594">
          <path id="Trazado_17525" data-name="Trazado 17525" d="M1996.126-80.073a.088.088,0,0,1-.076-.043l-.454-.788a.09.09,0,0,1-.005-.076.09.09,0,0,1,.057-.051,3.312,3.312,0,0,0,1.568-1.02,1.61,1.61,0,0,0,.423-1.011,1.052,1.052,0,0,0-.383-.835c-.475-.4-1.053-.367-2,.127-1.063.571-2.18.986-3.148.166a2.171,2.171,0,0,1-.375-2.851l-.928-.788a.087.087,0,0,1-.03-.059.085.085,0,0,1,.02-.063l.513-.6a.086.086,0,0,1,.122-.01l.881.748a3.475,3.475,0,0,1,1.395-.938.086.086,0,0,1,.105.04l.437.789a.092.092,0,0,1,.005.073.087.087,0,0,1-.052.051,3,3,0,0,0-1.337.921c-.606.713-.4,1.319-.049,1.621.434.369.911.3,2.04-.276,1.367-.711,2.312-.706,3.162.015a2.3,2.3,0,0,1,.4,2.993l.958.813a.087.087,0,0,1,.01.122l-.521.615a.087.087,0,0,1-.123.01l-.919-.781a3.768,3.768,0,0,1-1.682,1.09Zm-.324-.824.366.635a3.683,3.683,0,0,0,1.587-1.082.087.087,0,0,1,.122-.008l.918.779.408-.481-.946-.8a.087.087,0,0,1-.018-.111,2.146,2.146,0,0,0-.331-2.834c-.8-.677-1.657-.675-2.969.007-1.069.549-1.676.727-2.233.254a1.253,1.253,0,0,1,.029-1.867,3.153,3.153,0,0,1,1.314-.937l-.351-.635a3.373,3.373,0,0,0-1.312.928.087.087,0,0,1-.121.008l-.878-.746-.4.471.917.779a.086.086,0,0,1,.019.111,2.017,2.017,0,0,0,.3,2.692c.838.711,1.786.44,2.953-.187,1.005-.525,1.661-.557,2.192-.106a1.237,1.237,0,0,1,.444.97,1.778,1.778,0,0,1-.464,1.123A3.5,3.5,0,0,1,1995.8-80.9Z" transform="translate(-1990.776 88.177)" fill="#282233"/>
        </g>
      </g>
      <path id="Trazado_17526" data-name="Trazado 17526" d="M1990.485-88.482a.09.09,0,0,1-.057-.02l-.652-.555a.088.088,0,0,1-.01-.123.087.087,0,0,1,.123-.01l.651.555a.087.087,0,0,1,.01.123A.089.089,0,0,1,1990.485-88.482Z" transform="translate(-1987.352 92.131)" fill="#282233"/>
      <path id="Trazado_17527" data-name="Trazado 17527" d="M1990.972-88.992a.086.086,0,0,1-.063-.026l-.626-.648a.088.088,0,0,1,0-.124.089.089,0,0,1,.124,0l.625.649a.087.087,0,0,1,0,.123A.085.085,0,0,1,1990.972-88.992Z" transform="translate(-1987.477 92.278)" fill="#282233"/>
      <path id="Trazado_17528" data-name="Trazado 17528" d="M1993.448-90.629a.087.087,0,0,1-.081-.055l-.353-.88a.088.088,0,0,1,.049-.113.087.087,0,0,1,.113.048l.352.88a.087.087,0,0,1-.048.113A.084.084,0,0,1,1993.448-90.629Z" transform="translate(-1988.148 92.735)" fill="#282233"/>
      <path id="Trazado_17529" data-name="Trazado 17529" d="M1994.376-90.964a.087.087,0,0,1-.085-.066l-.235-.919a.088.088,0,0,1,.063-.106.087.087,0,0,1,.106.063l.234.919a.087.087,0,0,1-.063.106A.069.069,0,0,1,1994.376-90.964Z" transform="translate(-1988.404 92.826)" fill="#282233"/>
      <path id="Trazado_17530" data-name="Trazado 17530" d="M1995.317-91.07a.087.087,0,0,1-.087-.085l-.02-.595a.087.087,0,0,1,.084-.09.088.088,0,0,1,.091.085l.02.595a.086.086,0,0,1-.084.09Z" transform="translate(-1988.686 92.773)" fill="#282233"/>
      <path id="Trazado_17531" data-name="Trazado 17531" d="M1987.666-83.5a.088.088,0,0,1-.088-.086.087.087,0,0,1,.086-.088l.695-.011a.09.09,0,0,1,.089.086.087.087,0,0,1-.086.088l-.695.011Z" transform="translate(-1986.823 90.782)" fill="#282233"/>
      <path id="Trazado_17532" data-name="Trazado 17532" d="M1987.327-82.656a.088.088,0,0,1-.087-.079.088.088,0,0,1,.079-.1l.924-.088a.087.087,0,0,1,.1.079.087.087,0,0,1-.079.1l-.924.088Z" transform="translate(-1986.74 90.595)" fill="#282233"/>
      <path id="Trazado_17533" data-name="Trazado 17533" d="M1988.295-78.608a.087.087,0,0,1-.078-.049.086.086,0,0,1,.039-.116l.85-.42a.087.087,0,0,1,.116.039.087.087,0,0,1-.039.117l-.85.42A.087.087,0,0,1,1988.295-78.608Z" transform="translate(-1986.977 89.688)" fill="#282233"/>
      <path id="Trazado_17534" data-name="Trazado 17534" d="M1988.742-77.85a.088.088,0,0,1-.072-.037.088.088,0,0,1,.022-.122l.777-.544a.087.087,0,0,1,.122.021.087.087,0,0,1-.021.122l-.778.544A.082.082,0,0,1,1988.742-77.85Z" transform="translate(-1987.086 89.534)" fill="#282233"/>
      <path id="Trazado_17535" data-name="Trazado 17535" d="M1999.455-90.9h-.014a.087.087,0,0,1-.073-.1l.15-.946a.088.088,0,0,1,.1-.073.087.087,0,0,1,.073.1l-.15.947A.087.087,0,0,1,1999.455-90.9Z" transform="translate(-1989.701 92.817)" fill="#282233"/>
      <path id="Trazado_17536" data-name="Trazado 17536" d="M2000.464-90.368a.088.088,0,0,1-.044-.012.087.087,0,0,1-.03-.119l.336-.57a.088.088,0,0,1,.119-.031.088.088,0,0,1,.031.119l-.336.57A.087.087,0,0,1,2000.464-90.368Z" transform="translate(-1989.947 92.595)" fill="#282233"/>
      <path id="Trazado_17537" data-name="Trazado 17537" d="M2001.22-90.058a.089.089,0,0,1-.047-.014.087.087,0,0,1-.027-.12l.493-.779a.088.088,0,0,1,.121-.026.087.087,0,0,1,.026.12l-.492.778A.088.088,0,0,1,2001.22-90.058Z" transform="translate(-1990.131 92.57)" fill="#282233"/>
      <path id="Trazado_17538" data-name="Trazado 17538" d="M2004.973-84.382a.088.088,0,0,1-.085-.067.088.088,0,0,1,.064-.106l.922-.225a.088.088,0,0,1,.106.064.088.088,0,0,1-.064.106l-.922.225Z" transform="translate(-1991.048 91.05)" fill="#282233"/>
      <path id="Trazado_17539" data-name="Trazado 17539" d="M2006.053-83.332h0l-.949-.007a.088.088,0,0,1-.087-.088.087.087,0,0,1,.088-.086h0l.95.008a.087.087,0,0,1,.086.088A.087.087,0,0,1,2006.053-83.332Z" transform="translate(-1991.079 90.74)" fill="#282233"/>
      <path id="Trazado_17540" data-name="Trazado 17540" d="M2002.092-75.509a.087.087,0,0,1-.079-.049l-.283-.587a.087.087,0,0,1,.041-.116.087.087,0,0,1,.116.041l.282.586a.088.088,0,0,1-.04.117A.1.1,0,0,1,2002.092-75.509Z" transform="translate(-1990.275 88.972)" fill="#282233"/>
      <path id="Trazado_17541" data-name="Trazado 17541" d="M2000.136-74.225a.087.087,0,0,1-.081-.056l-.3-.775a.087.087,0,0,1,.05-.113.087.087,0,0,1,.113.05l.3.775a.087.087,0,0,1-.05.113A.09.09,0,0,1,2000.136-74.225Z" transform="translate(-1989.793 88.705)" fill="#282233"/>
    </g>
    <g id="Grupo_12599" data-name="Grupo 12599" transform="translate(1994.88 -237.033)">
      <path id="Trazado_17542" data-name="Trazado 17542" d="M2009.526-221.374a4.69,4.69,0,0,0-3.484-5.644,4.69,4.69,0,0,0-5.644,3.484,4.69,4.69,0,0,0,3.484,5.644A4.69,4.69,0,0,0,2009.526-221.374Z" transform="translate(-2000.271 227.145)" fill="#167377"/>
      <path id="Trazado_17543" data-name="Trazado 17543" d="M2005.141-218.12a4.215,4.215,0,0,1-.966-.113,4.168,4.168,0,0,1-3.092-5.008,4.167,4.167,0,0,1,5.008-3.092,4.167,4.167,0,0,1,3.092,5.008h0a4.137,4.137,0,0,1-1.863,2.583A4.141,4.141,0,0,1,2005.141-218.12Zm-.008-8.15a3.993,3.993,0,0,0-3.879,3.07,3.991,3.991,0,0,0,2.962,4.8,3.957,3.957,0,0,0,3.012-.488,3.96,3.96,0,0,0,1.786-2.474h0a3.992,3.992,0,0,0-2.963-4.8A3.985,3.985,0,0,0,2005.132-226.271Zm3.965,4.925h0Z" transform="translate(-2000.442 226.974)" fill="#282233"/>
      <g id="Grupo_12598" data-name="Grupo 12598" transform="translate(2.54 1.04)">
        <g id="Grupo_12597" data-name="Grupo 12597">
          <path id="Trazado_17544" data-name="Trazado 17544" d="M2005.188-218.847l-.021,0-.51-.121a.087.087,0,0,1-.064-.105l.173-.734a2.473,2.473,0,0,1-1.114-.654.087.087,0,0,1-.008-.105l.322-.5a.09.09,0,0,1,.066-.039.087.087,0,0,1,.071.028,2.125,2.125,0,0,0,1.039.6.793.793,0,0,0,1.045-.5c.09-.38-.1-.695-.652-1.088-.653-.453-1.231-.985-1.038-1.806a1.438,1.438,0,0,1,1.547-1.084l.176-.746a.083.083,0,0,1,.039-.054.081.081,0,0,1,.066-.011l.5.118a.088.088,0,0,1,.065.105l-.166.7a2.266,2.266,0,0,1,.94.53.086.086,0,0,1,.012.112l-.328.485a.088.088,0,0,1-.063.039.089.089,0,0,1-.07-.023,1.925,1.925,0,0,0-.915-.5.867.867,0,0,0-.65.06.582.582,0,0,0-.267.369c-.082.349.086.589.751,1.068.827.59,1.107,1.148.937,1.867a1.522,1.522,0,0,1-1.62,1.144l-.182.77a.085.085,0,0,1-.039.054A.087.087,0,0,1,2005.188-218.847Zm-.4-.273.339.08.179-.756a.086.086,0,0,1,.091-.067,1.353,1.353,0,0,0,1.512-1.005c.153-.648-.1-1.136-.869-1.685-.631-.456-.931-.774-.819-1.25a.752.752,0,0,1,.346-.478,1.031,1.031,0,0,1,.78-.08,2.065,2.065,0,0,1,.918.469l.23-.34a2.17,2.17,0,0,0-.893-.461.088.088,0,0,1-.062-.1l.166-.7-.332-.079-.173.732a.085.085,0,0,1-.091.067,1.281,1.281,0,0,0-1.438.946c-.139.589.132,1.044.968,1.623.614.436.829.816.721,1.271a.956.956,0,0,1-1.255.63,2.306,2.306,0,0,1-1.048-.57l-.226.348a2.434,2.434,0,0,0,1.064.574.087.087,0,0,1,.064.1Z" transform="translate(-2003.631 225.769)" fill="#282233"/>
        </g>
      </g>
      <path id="Trazado_17545" data-name="Trazado 17545" d="M2007.862-226.259l-.02,0a.087.087,0,0,1-.064-.105l.129-.541a.087.087,0,0,1,.105-.065.087.087,0,0,1,.065.105l-.129.541A.087.087,0,0,1,2007.862-226.259Z" transform="translate(-2002.102 227.104)" fill="#282233"/>
      <path id="Trazado_17546" data-name="Trazado 17546" d="M2008.281-226.128a.1.1,0,0,1-.029,0,.088.088,0,0,1-.054-.111l.191-.554a.087.087,0,0,1,.111-.054.086.086,0,0,1,.054.11l-.191.554A.086.086,0,0,1,2008.281-226.128Z" transform="translate(-2002.204 227.075)" fill="#282233"/>
      <path id="Trazado_17547" data-name="Trazado 17547" d="M2009.892-225.178a.087.087,0,0,1-.057-.021.087.087,0,0,1-.008-.123l.406-.464a.088.088,0,0,1,.123-.008.087.087,0,0,1,.008.123l-.406.464A.087.087,0,0,1,2009.892-225.178Z" transform="translate(-2002.598 226.821)" fill="#282233"/>
      <path id="Trazado_17548" data-name="Trazado 17548" d="M2010.342-224.74a.087.087,0,0,1-.066-.029.087.087,0,0,1,.008-.123l.463-.407a.086.086,0,0,1,.122.008.086.086,0,0,1-.008.123l-.462.407A.088.088,0,0,1,2010.342-224.74Z" transform="translate(-2002.708 226.7)" fill="#282233"/>
      <path id="Trazado_17549" data-name="Trazado 17549" d="M2010.722-224.226a.086.086,0,0,1-.076-.045.087.087,0,0,1,.034-.119l.339-.187a.087.087,0,0,1,.119.034.087.087,0,0,1-.035.119l-.339.187A.081.081,0,0,1,2010.722-224.226Z" transform="translate(-2002.8 226.521)" fill="#282233"/>
      <path id="Trazado_17550" data-name="Trazado 17550" d="M2004.392-226.019a.088.088,0,0,1-.077-.046l-.212-.4a.087.087,0,0,1,.036-.118.088.088,0,0,1,.118.036l.212.4a.088.088,0,0,1-.036.119A.09.09,0,0,1,2004.392-226.019Z" transform="translate(-2001.204 227.01)" fill="#282233"/>
      <path id="Trazado_17551" data-name="Trazado 17551" d="M2003.9-225.85a.088.088,0,0,1-.073-.04l-.324-.509a.087.087,0,0,1,.026-.12.088.088,0,0,1,.121.026l.324.509a.086.086,0,0,1-.026.12A.089.089,0,0,1,2003.9-225.85Z" transform="translate(-2001.057 226.996)" fill="#282233"/>
      <path id="Trazado_17552" data-name="Trazado 17552" d="M2001.952-224.2a.086.086,0,0,1-.051-.017l-.494-.368a.087.087,0,0,1-.018-.122.087.087,0,0,1,.123-.018l.494.368a.087.087,0,0,1,.017.122A.086.086,0,0,1,2001.952-224.2Z" transform="translate(-2000.539 226.559)" fill="#282233"/>
      <path id="Trazado_17553" data-name="Trazado 17553" d="M2001.674-223.786a.092.092,0,0,1-.042-.011l-.545-.29a.087.087,0,0,1-.036-.118.087.087,0,0,1,.118-.036l.545.289a.087.087,0,0,1,.036.118A.087.087,0,0,1,2001.674-223.786Z" transform="translate(-2000.459 226.439)" fill="#282233"/>
      <path id="Trazado_17554" data-name="Trazado 17554" d="M2011.778-221.751a.088.088,0,0,1-.083-.06.088.088,0,0,1,.056-.11l.593-.193a.088.088,0,0,1,.109.056.087.087,0,0,1-.056.11l-.593.193A.086.086,0,0,1,2011.778-221.751Z" transform="translate(-2003.058 225.918)" fill="#282233"/>
      <path id="Trazado_17555" data-name="Trazado 17555" d="M2012.268-220.956h-.006l-.429-.026a.088.088,0,0,1-.082-.093.086.086,0,0,1,.093-.082l.429.026a.088.088,0,0,1,.082.093A.088.088,0,0,1,2012.268-220.956Z" transform="translate(-2003.073 225.684)" fill="#282233"/>
      <path id="Trazado_17556" data-name="Trazado 17556" d="M2012.439-220.378h-.008l-.6-.055a.087.087,0,0,1-.079-.1.088.088,0,0,1,.1-.079l.6.055a.087.087,0,0,1,.079.1A.087.087,0,0,1,2012.439-220.378Z" transform="translate(-2003.074 225.549)" fill="#282233"/>
      <path id="Trazado_17557" data-name="Trazado 17557" d="M2010.171-216.167a.089.089,0,0,1-.067-.03l-.4-.468a.086.086,0,0,1,.009-.122.088.088,0,0,1,.123.009l.4.467a.087.087,0,0,1-.009.123A.09.09,0,0,1,2010.171-216.167Z" transform="translate(-2002.568 224.622)" fill="#282233"/>
      <path id="Trazado_17558" data-name="Trazado 17558" d="M2009.521-215.721a.086.086,0,0,1-.078-.048l-.277-.552a.088.088,0,0,1,.039-.117.088.088,0,0,1,.117.039l.276.552a.087.087,0,0,1-.039.117A.093.093,0,0,1,2009.521-215.721Z" transform="translate(-2002.44 224.534)" fill="#282233"/>
      <path id="Trazado_17559" data-name="Trazado 17559" d="M2003.736-215.7a.094.094,0,0,1-.053-.017.089.089,0,0,1-.017-.122l.256-.337a.087.087,0,0,1,.122-.017.086.086,0,0,1,.017.122l-.256.337A.086.086,0,0,1,2003.736-215.7Z" transform="translate(-2001.095 224.477)" fill="#282233"/>
      <path id="Trazado_17560" data-name="Trazado 17560" d="M2002.382-216.457a.085.085,0,0,1-.058-.022.087.087,0,0,1-.007-.123l.36-.4a.087.087,0,0,1,.123-.007.088.088,0,0,1,.007.123l-.36.4A.088.088,0,0,1,2002.382-216.457Z" transform="translate(-2000.765 224.677)" fill="#282233"/>
    </g>
    <g id="Grupo_12602" data-name="Grupo 12602" transform="translate(2111.469 -237.557)">
      <path id="Trazado_17561" data-name="Trazado 17561" d="M2163.761-222.067a4.69,4.69,0,0,0-3.485-5.644,4.69,4.69,0,0,0-5.644,3.485,4.691,4.691,0,0,0,3.485,5.644A4.69,4.69,0,0,0,2163.761-222.067Z" transform="translate(-2154.506 227.838)" fill="#167377"/>
      <path id="Trazado_17562" data-name="Trazado 17562" d="M2159.376-218.813a4.2,4.2,0,0,1-.966-.113,4.166,4.166,0,0,1-3.092-5.007,4.166,4.166,0,0,1,5.007-3.092,4.165,4.165,0,0,1,3.092,5.007h0a4.134,4.134,0,0,1-1.864,2.583A4.129,4.129,0,0,1,2159.376-218.813Zm-.008-8.15a3.993,3.993,0,0,0-3.879,3.07,3.99,3.99,0,0,0,2.962,4.8,3.958,3.958,0,0,0,3.012-.487,3.965,3.965,0,0,0,1.785-2.475h0a3.992,3.992,0,0,0-2.962-4.8A3.985,3.985,0,0,0,2159.368-226.963Zm3.965,4.925h0Z" transform="translate(-2154.677 227.667)" fill="#282233"/>
      <g id="Grupo_12601" data-name="Grupo 12601" transform="translate(2.54 1.041)">
        <g id="Grupo_12600" data-name="Grupo 12600">
          <path id="Trazado_17563" data-name="Trazado 17563" d="M2159.423-219.54l-.02,0-.509-.12a.088.088,0,0,1-.065-.105l.174-.735a2.474,2.474,0,0,1-1.115-.653.086.086,0,0,1-.007-.105l.322-.5a.086.086,0,0,1,.065-.039.085.085,0,0,1,.072.027,2.119,2.119,0,0,0,1.039.6.793.793,0,0,0,1.045-.5c.089-.379-.1-.695-.652-1.087-.653-.453-1.232-.986-1.038-1.806a1.438,1.438,0,0,1,1.546-1.085l.177-.745a.085.085,0,0,1,.039-.054.085.085,0,0,1,.066-.011l.5.119a.088.088,0,0,1,.065.105l-.167.7a2.276,2.276,0,0,1,.941.53.088.088,0,0,1,.012.112l-.329.486a.087.087,0,0,1-.062.038.085.085,0,0,1-.069-.023,1.927,1.927,0,0,0-.915-.494.866.866,0,0,0-.651.06.581.581,0,0,0-.266.368c-.082.349.086.589.75,1.068.828.59,1.108,1.148.938,1.868a1.523,1.523,0,0,1-1.619,1.143l-.182.77a.088.088,0,0,1-.039.054A.089.089,0,0,1,2159.423-219.54Zm-.4-.273.34.081.178-.757a.086.086,0,0,1,.092-.067,1.356,1.356,0,0,0,1.512-1.005c.154-.648-.1-1.136-.869-1.686-.632-.455-.932-.773-.819-1.25a.756.756,0,0,1,.346-.478,1.032,1.032,0,0,1,.781-.08,2.086,2.086,0,0,1,.918.469l.23-.34a2.186,2.186,0,0,0-.893-.461.087.087,0,0,1-.062-.1l.165-.7-.331-.079-.173.732a.088.088,0,0,1-.091.067,1.279,1.279,0,0,0-1.438.946c-.139.588.132,1.043.968,1.623.613.435.828.815.721,1.27a.956.956,0,0,1-1.255.63,2.314,2.314,0,0,1-1.048-.569l-.226.348a2.431,2.431,0,0,0,1.064.574.087.087,0,0,1,.064.1Z" transform="translate(-2157.866 226.462)" fill="#282233"/>
        </g>
      </g>
      <path id="Trazado_17564" data-name="Trazado 17564" d="M2162.1-226.952l-.02,0a.088.088,0,0,1-.065-.105l.129-.541a.087.087,0,0,1,.105-.065.088.088,0,0,1,.065.105l-.129.542A.087.087,0,0,1,2162.1-226.952Z" transform="translate(-2156.338 227.797)" fill="#282233"/>
      <path id="Trazado_17565" data-name="Trazado 17565" d="M2162.517-226.821a.1.1,0,0,1-.029,0,.087.087,0,0,1-.054-.111l.191-.553a.087.087,0,0,1,.111-.054.087.087,0,0,1,.054.111l-.19.554A.089.089,0,0,1,2162.517-226.821Z" transform="translate(-2156.44 227.768)" fill="#282233"/>
      <path id="Trazado_17566" data-name="Trazado 17566" d="M2164.128-225.87a.083.083,0,0,1-.057-.022.087.087,0,0,1-.008-.123l.406-.463a.086.086,0,0,1,.123-.008.087.087,0,0,1,.008.123l-.406.463A.085.085,0,0,1,2164.128-225.87Z" transform="translate(-2156.833 227.514)" fill="#282233"/>
      <path id="Trazado_17567" data-name="Trazado 17567" d="M2164.577-225.432a.086.086,0,0,1-.065-.029.087.087,0,0,1,.008-.123l.463-.407a.086.086,0,0,1,.123.008.087.087,0,0,1-.008.123l-.463.407A.087.087,0,0,1,2164.577-225.432Z" transform="translate(-2156.943 227.393)" fill="#282233"/>
      <path id="Trazado_17568" data-name="Trazado 17568" d="M2164.957-224.918a.089.089,0,0,1-.077-.045.088.088,0,0,1,.034-.119l.338-.187a.087.087,0,0,1,.119.034.087.087,0,0,1-.034.119l-.339.187A.086.086,0,0,1,2164.957-224.918Z" transform="translate(-2157.036 227.214)" fill="#282233"/>
      <path id="Trazado_17569" data-name="Trazado 17569" d="M2158.628-226.712a.088.088,0,0,1-.077-.046l-.212-.4a.086.086,0,0,1,.036-.118.087.087,0,0,1,.118.036l.211.4a.087.087,0,0,1-.036.118A.088.088,0,0,1,2158.628-226.712Z" transform="translate(-2155.439 227.703)" fill="#282233"/>
      <path id="Trazado_17570" data-name="Trazado 17570" d="M2158.139-226.543a.088.088,0,0,1-.074-.04l-.323-.509a.087.087,0,0,1,.026-.121.088.088,0,0,1,.121.026l.324.51a.088.088,0,0,1-.026.12A.091.091,0,0,1,2158.139-226.543Z" transform="translate(-2155.292 227.689)" fill="#282233"/>
      <path id="Trazado_17571" data-name="Trazado 17571" d="M2156.188-224.9a.085.085,0,0,1-.052-.017l-.494-.368a.087.087,0,0,1-.018-.122.088.088,0,0,1,.123-.018l.494.368a.088.088,0,0,1,.018.122A.089.089,0,0,1,2156.188-224.9Z" transform="translate(-2154.775 227.252)" fill="#282233"/>
      <path id="Trazado_17572" data-name="Trazado 17572" d="M2155.909-224.479a.086.086,0,0,1-.041-.01l-.545-.29a.088.088,0,0,1-.036-.118.087.087,0,0,1,.118-.036l.545.29a.086.086,0,0,1,.036.118A.086.086,0,0,1,2155.909-224.479Z" transform="translate(-2154.694 227.131)" fill="#282233"/>
      <path id="Trazado_17573" data-name="Trazado 17573" d="M2166.014-222.444a.087.087,0,0,1-.083-.06.087.087,0,0,1,.056-.11l.593-.194a.088.088,0,0,1,.11.056.088.088,0,0,1-.056.11l-.593.193A.088.088,0,0,1,2166.014-222.444Z" transform="translate(-2157.294 226.611)" fill="#282233"/>
      <path id="Trazado_17574" data-name="Trazado 17574" d="M2166.5-221.649h-.005l-.43-.026a.087.087,0,0,1-.082-.092.086.086,0,0,1,.092-.082l.429.027a.087.087,0,0,1,.082.092A.088.088,0,0,1,2166.5-221.649Z" transform="translate(-2157.308 226.377)" fill="#282233"/>
      <path id="Trazado_17575" data-name="Trazado 17575" d="M2166.675-221.07h-.008l-.6-.055a.088.088,0,0,1-.079-.1.089.089,0,0,1,.095-.079l.6.055a.087.087,0,0,1,.079.1A.087.087,0,0,1,2166.675-221.07Z" transform="translate(-2157.309 226.242)" fill="#282233"/>
      <path id="Trazado_17576" data-name="Trazado 17576" d="M2164.407-216.86a.089.089,0,0,1-.067-.03l-.4-.467a.087.087,0,0,1,.009-.123.088.088,0,0,1,.123.009l.4.467a.088.088,0,0,1-.009.123A.087.087,0,0,1,2164.407-216.86Z" transform="translate(-2156.803 225.315)" fill="#282233"/>
      <path id="Trazado_17577" data-name="Trazado 17577" d="M2163.756-216.413a.087.087,0,0,1-.078-.048l-.277-.553a.087.087,0,0,1,.039-.117.088.088,0,0,1,.117.039l.277.553a.087.087,0,0,1-.039.116A.079.079,0,0,1,2163.756-216.413Z" transform="translate(-2156.675 225.227)" fill="#282233"/>
      <path id="Trazado_17578" data-name="Trazado 17578" d="M2157.972-216.4a.087.087,0,0,1-.053-.017.088.088,0,0,1-.017-.122l.256-.337a.088.088,0,0,1,.123-.017.088.088,0,0,1,.017.122l-.256.337A.086.086,0,0,1,2157.972-216.4Z" transform="translate(-2155.331 225.17)" fill="#282233"/>
      <path id="Trazado_17579" data-name="Trazado 17579" d="M2156.617-217.149a.083.083,0,0,1-.057-.023.087.087,0,0,1-.008-.123l.36-.4a.087.087,0,0,1,.123-.008.087.087,0,0,1,.008.123l-.36.4A.087.087,0,0,1,2156.617-217.149Z" transform="translate(-2155 225.37)" fill="#282233"/>
    </g>
    <g id="Grupo_12604" data-name="Grupo 12604" transform="translate(1988.613 -116.609)">
      <g id="Grupo_12603" data-name="Grupo 12603">
        <path id="Trazado_17580" data-name="Trazado 17580" d="M2031.405-67.838h-38.553a.872.872,0,0,0-.841,1.1l7.175,26.154a2.947,2.947,0,0,0,2.842,2.167h38.112l-7.9-28.782A.872.872,0,0,0,2031.405-67.838Z" transform="translate(-1991.98 67.838)" fill="#12263f"/>
        <rect id="Rectángulo_3050" data-name="Rectángulo 3050" width="48.432" height="1.562" transform="translate(15.092 27.861)" fill="#12263f"/>
        <path id="Trazado_17581" data-name="Trazado 17581" d="M2019.917-48.747c0-1.222-1.4-2.213-3.125-2.213s-3.124.991-3.124,2.213,1.4,2.213,3.124,2.213S2019.917-47.524,2019.917-48.747Z" transform="translate(-1997.274 63.718)" fill="#dfe8f4"/>
      </g>
    </g>
    <g id="Grupo_12605" data-name="Grupo 12605" transform="translate(2147.306 -141.045)">
      <path id="Trazado_17582" data-name="Trazado 17582" d="M2202.771-99.76l-.856-.4.7.619Z" transform="translate(-2201.914 100.164)" fill="#b3b3b3"/>
      <rect id="Rectángulo_3051" data-name="Rectángulo 3051" width="2.222" height="20.025" transform="matrix(0.588, -0.809, 0.809, 0.588, 2.556, 3.178)" fill="#7d6eb2"/>
      <path id="Trazado_17583" data-name="Trazado 17583" d="M2202.8-99.894l-.261.359.676,1.211a3.235,3.235,0,0,0,.92,1.049l.939.683,1.308-1.8-.94-.684a3.237,3.237,0,0,0-1.281-.553Z" transform="translate(-2202.066 100.098)" fill="#b3b3b3"/>
      <rect id="Rectángulo_3052" data-name="Rectángulo 3052" width="2.4" height="0.496" transform="translate(18.397 14.811) rotate(-53.971)" fill="#b3b3b3"/>
      <path id="Rectángulo_3053" data-name="Rectángulo 3053" d="M0,0H1.244a0,0,0,0,1,0,0V.786A.516.516,0,0,1,.728,1.3H.516A.516.516,0,0,1,0,.786V0A0,0,0,0,1,0,0Z" transform="translate(18.914 14.417) rotate(-53.963)" fill="#b3b3b3"/>
      <path id="Trazado_17584" data-name="Trazado 17584" d="M2224.4-81.036a3.8,3.8,0,0,1-2.235-.745,4.477,4.477,0,0,1-1.391-1.7,1.776,1.776,0,0,0-.395-.586l-.029-.02a.122.122,0,0,0-.009.023.437.437,0,0,1-.531.315.436.436,0,0,1-.315-.531.971.971,0,0,1,.557-.664.877.877,0,0,1,.84.17,2.4,2.4,0,0,1,.654.885,3.614,3.614,0,0,0,1.131,1.4,2.777,2.777,0,0,0,2.032.556.437.437,0,0,1,.516.339.435.435,0,0,1-.338.516A2.5,2.5,0,0,1,2224.4-81.036Z" transform="translate(-2206.202 96.46)" fill="#b3b3b3"/>
      <path id="Trazado_17585" data-name="Trazado 17585" d="M2227.252-81.146a.044.044,0,0,1-.026-.008.044.044,0,0,1-.009-.061l.732-1.006a.044.044,0,0,1,.061-.009.043.043,0,0,1,.009.06l-.732,1.007A.044.044,0,0,1,2227.252-81.146Z" transform="translate(-2208.088 95.789)"/>
      <path id="Trazado_17586" data-name="Trazado 17586" d="M2205.028-96.694a.041.041,0,0,1-.034-.017.043.043,0,0,1,.007-.061,4.821,4.821,0,0,0,1.293-1.779.044.044,0,0,1,.057-.023.044.044,0,0,1,.023.057,4.909,4.909,0,0,1-1.321,1.815A.046.046,0,0,1,2205.028-96.694Z" transform="translate(-2202.664 99.777)"/>
    </g>
  </g>
</svg>
