<svg xmlns="http://www.w3.org/2000/svg" width="287.51" height="168.371" viewBox="0 0 287.51 168.371">
  <g id="Grupo_50302" data-name="Grupo 50302" transform="translate(-2320.862 -761.138)">
    <g id="Grupo_50301" data-name="Grupo 50301" transform="translate(2320.862 761.138)">
      <g id="Grupo_50275" data-name="Grupo 50275" transform="translate(10.568 91.108)">
        <path id="Trazado_100403" data-name="Trazado 100403" d="M2685.932,1778.553v62.979a5.632,5.632,0,0,1-.054.778,5.545,5.545,0,0,1-5.5,4.776h-91.365a5.548,5.548,0,0,1-1.838-.311,5.491,5.491,0,0,1-1.177-.577,5.553,5.553,0,0,1-2.539-4.666v-62.979a5.553,5.553,0,0,1,5.553-5.553h91.365A5.554,5.554,0,0,1,2685.932,1778.553Z" transform="translate(-2570.384 -1773)" fill="#12263f"/>
        <path id="Trazado_100500" data-name="Trazado 100500" d="M8.086-.02h68.67A18.455,18.455,0,0,1,95.211,18.435V52.99A18.455,18.455,0,0,1,76.756,71.444H7.341c-10.192,0-7.4,1.078-7.4-9.114V8.437C-.061-1.755-2.106-.02,8.086-.02Z" transform="translate(16.737 3.619)" fill="#fff"/>
        <path id="Trazado_100404" data-name="Trazado 100404" d="M2690.682,1896.736c-.944,0-1.712-.541-1.712-1.207v-32.193c0-.665.768-1.207,1.712-1.207h80.047c.944,0,1.712.541,1.712,1.207v32.193c0,.665-.768,1.207-1.712,1.207Z" transform="translate(-2666.392 -1854.105)" fill="#edf4f9"/>
        <path id="Trazado_100405" data-name="Trazado 100405" d="M2685.932,2514.3v2.674a5.546,5.546,0,0,1-2.539,4.664H2586a5.549,5.549,0,0,1-2.539-4.664V2514.3Z" transform="translate(-2570.384 -2447.558)" opacity="0.2" style="mix-blend-mode: multiply;isolation: isolate"/>
        <rect id="Rectángulo_29036" data-name="Rectángulo 29036" width="19.976" height="3.051" transform="translate(54.324 69.31)" fill="#172735"/>
        <path id="Trazado_100406" data-name="Trazado 100406" d="M2566.852,2543.99v1.518a5.035,5.035,0,0,1-5.035,5.035H2443.262a5.036,5.036,0,0,1-5.035-5.035v-1.518a1.222,1.222,0,0,1,1.222-1.222h53.982l1.028,1.782a2.211,2.211,0,0,0,1.915,1.106h12.331a2.209,2.209,0,0,0,1.914-1.106l1.029-1.782h53.982A1.222,1.222,0,0,1,2566.852,2543.99Z" transform="translate(-2438.227 -2473.458)" fill="#12263f"/>
        <g id="Grupo_50274" data-name="Grupo 50274" transform="translate(22.577 47.282)">
          <rect id="Rectángulo_29037" data-name="Rectángulo 29037" width="11.658" height="11.658" rx="2" fill="#edf4f9"/>
          <rect id="Rectángulo_29038" data-name="Rectángulo 29038" width="21.833" height="0.965" transform="translate(14.339 0.375)" fill="#edf4f9"/>
          <rect id="Rectángulo_29039" data-name="Rectángulo 29039" width="21.833" height="0.965" transform="translate(14.339 2.519)" fill="#edf4f9"/>
          <rect id="Rectángulo_29040" data-name="Rectángulo 29040" width="9.997" height="0.965" transform="translate(14.339 4.663)" fill="#edf4f9"/>
          <rect id="Rectángulo_29041" data-name="Rectángulo 29041" width="19.618" height="0.965" transform="translate(14.339 7.772)" fill="#edf4f9"/>
        </g>
        <rect id="Rectángulo_29042" data-name="Rectángulo 29042" width="11.658" height="11.658" rx="2" transform="translate(67.14 47.282)" fill="#edf4f9"/>
        <rect id="Rectángulo_29043" data-name="Rectángulo 29043" width="21.833" height="0.965" transform="translate(81.478 47.598)" fill="#edf4f9"/>
        <rect id="Rectángulo_29044" data-name="Rectángulo 29044" width="21.833" height="0.965" transform="translate(81.478 49.742)" fill="#edf4f9"/>
        <rect id="Rectángulo_29045" data-name="Rectángulo 29045" width="9.997" height="0.965" transform="translate(81.478 51.886)" fill="#edf4f9"/>
        <rect id="Rectángulo_29046" data-name="Rectángulo 29046" width="19.618" height="0.965" transform="translate(81.478 54.995)" fill="#edf4f9"/>
      </g>
      <g id="Grupo_50282" data-name="Grupo 50282" transform="translate(0 92.922)">
        <path id="Trazado_100407" data-name="Trazado 100407" d="M2484.2,2540.423s-4.01,2.322-10.856-.8a11.259,11.259,0,0,1,6.705-1.844C2483.771,2538.064,2484.2,2540.423,2484.2,2540.423Z" transform="translate(-2459.61 -2470.71)"/>
        <path id="Trazado_100408" data-name="Trazado 100408" d="M2332.037,2514.149s-4.9,2.076-11.175-2.553c0,0,3.3-3.3,6.439-3.3S2332.037,2514.149,2332.037,2514.149Z" transform="translate(-2320.862 -2443.905)"/>
        <g id="Grupo_50277" data-name="Grupo 50277" transform="translate(4.529 66.343)">
          <g id="Grupo_50276" data-name="Grupo 50276" transform="translate(0.135)">
            <path id="Trazado_100409" data-name="Trazado 100409" d="M2379.722,2535.8s1.17-3.672,1.348-4.187-3.867-1.65-3.867-1.65a20.329,20.329,0,0,1,.443,5.251c-.3,1.6-.088,2-.088,2Z" transform="translate(-2376.795 -2529.967)" fill="#ebc4a1"/>
            <path id="Trazado_100410" data-name="Trazado 100410" d="M2372.844,2588.717a1.042,1.042,0,0,0,.505.337,58.57,58.57,0,0,0,7.051-.4c.027-.025.162.012.191-.019a1.906,1.906,0,0,0,.536-.89c-.017-.213-4.948-1.668-5.286-2.11a2.051,2.051,0,0,0-2.324-.213,11.141,11.141,0,0,1-.787,2.452c-.039.079.041.34,0,.412C2372.6,2588.487,2372.677,2588.545,2372.844,2588.717Z" transform="translate(-2372.666 -2580.167)" fill="#12263f"/>
          </g>
          <path id="Trazado_100411" data-name="Trazado 100411" d="M2371.315,2616.383a2.416,2.416,0,0,0,.644.534,61.033,61.033,0,0,0,7.183-.55c.027-.025.056-.054.085-.085-1.728-.122-5.863-.441-7.86-.762-.039.079-.081.153-.124.226A.522.522,0,0,0,2371.315,2616.383Z" transform="translate(-2371.166 -2607.817)" fill="#e1f0ff"/>
        </g>
        <g id="Grupo_50279" data-name="Grupo 50279" transform="translate(18.088 65.691)">
          <g id="Grupo_50278" data-name="Grupo 50278" transform="translate(0.061)">
            <path id="Trazado_100412" data-name="Trazado 100412" d="M2534.9,2528.807s1.573-3.518,1.808-4.01-3.658-2.071-3.658-2.071a20.316,20.316,0,0,1-.146,5.268c-.478,1.552-.312,1.981-.312,1.981Z" transform="translate(-2531.651 -2522.726)" fill="#ebc4a1"/>
            <path id="Trazado_100413" data-name="Trazado 100413" d="M2522.686,2582.542a1.6,1.6,0,0,0,.541.488,54.873,54.873,0,0,0,6.82.284c.03-.022.265.059.3.032.271-.228.627-.634.631-.824.008-.214-4.73-2.211-5.016-2.689a2.052,2.052,0,0,0-2.285-.472,11.134,11.134,0,0,1-1.056,2.35c-.047.074-.1.143-.148.209C2522.325,2582.112,2522.539,2582.353,2522.686,2582.542Z" transform="translate(-2522.422 -2574.094)" fill="#12263f"/>
          </g>
          <path id="Trazado_100414" data-name="Trazado 100414" d="M2521.858,2608.17a2.4,2.4,0,0,0,.58.6,61.219,61.219,0,0,0,7.2.256c.03-.022.061-.047.094-.075-1.7-.314-5.777-1.093-7.726-1.635-.047.074-.1.143-.148.21A.521.521,0,0,0,2521.858,2608.17Z" transform="translate(-2521.747 -2599.702)" fill="#e1f0ff"/>
        </g>
        <path id="Trazado_100415" data-name="Trazado 100415" d="M2737.91,1997.847s2.236,4.258-.567,7.912c0,0-1.811-2.732-1.137-4.825S2737.095,1998.237,2737.91,1997.847Z" transform="translate(-2698.672 -1979.416)" fill="#002c3d"/>
        <path id="Trazado_100416" data-name="Trazado 100416" d="M2320.862,2156.939c7.663-.8,11.175,2.554,11.175,2.554.882-1.455,1.9-5.793,2.761-10.14.767-3.887,1.405-7.78,1.7-9.621.112-.7.172-1.1.172-1.1l1.334,1.78,1.54,2.052c-.107,4.257-4.95,15.7-4.95,15.7,7.876-1.968,10.856.8,10.856.8.875-.9,2.22-4.009,3.413-7.183a62.951,62.951,0,0,0,2.582-7.982c-.195-2.263-9.046-14.9-10-17.384a27.045,27.045,0,0,1-1.314-4.47c-.076-.1-.156-.194-.232-.288-5.095-6.095-12.185-1.345-12.185-1.345s-.283,12.984-.851,18.024S2320.862,2156.939,2320.862,2156.939Z" transform="translate(-2320.862 -2089.247)" fill="#12263f"/>
        <path id="Trazado_100417" data-name="Trazado 100417" d="M2457.5,1842.578a3.064,3.064,0,0,1-.629,2.127c-.768.88-.315,1.571-.2,1.664s3.593.172,3.593.172l.176-.416.236-.555-.439-.493a1.025,1.025,0,0,1-.169-.437,4.419,4.419,0,0,1-.065-1.19.006.006,0,0,0,0,0c.021.017.371.323.89.778.468.41,1.24-1.355,1.2-2.187a10.948,10.948,0,0,0-.089-1.155.984.984,0,0,0,.712-.093.235.235,0,0,0,.117-.3,2.851,2.851,0,0,1-.428-1.976,2.226,2.226,0,0,1,.114-.335c.315-.731-2.539-1.533-4.487-1.244-1.02.153-1.79.6-1.726,1.523A8.744,8.744,0,0,0,2457.5,1842.578Z" transform="translate(-2444.117 -1832.945)" fill="#ebc4a1"/>
        <path id="Trazado_100418" data-name="Trazado 100418" d="M2320.862,2156.939c7.663-.8,11.175,2.554,11.175,2.554.882-1.455,1.9-5.793,2.761-10.14a1.791,1.791,0,0,0-.5.436,23.242,23.242,0,0,0-1.111,2.277,3.309,3.309,0,0,1-5.717-.106c-1.072-1.92-.043-4.269.777-6.307a31.357,31.357,0,0,0,2.247-11.538,33.162,33.162,0,0,1,.219-6.5c.433-2.13,1.672-4.253,3.7-5.025,1.442-.55,3.019-.339,4.509-.644a6.078,6.078,0,0,0,.971-.293c-5.095-6.095-12.185-1.345-12.185-1.345s-.283,12.984-.851,18.024S2320.862,2156.939,2320.862,2156.939Z" transform="translate(-2320.862 -2089.247)" fill="#12263f" opacity="0.3" style="mix-blend-mode: multiply;isolation: isolate"/>
        <path id="Trazado_100419" data-name="Trazado 100419" d="M2390.855,2185.421a8.8,8.8,0,0,1-7.636,3.7,5.486,5.486,0,0,1,3.964-3.7C2390.615,2184.331,2390.855,2185.421,2390.855,2185.421Z" transform="translate(-2377.604 -2149.661)" fill="#002c3d"/>
        <path id="Trazado_100420" data-name="Trazado 100420" d="M2733.124,2015.386c.015.445.112.9.17,1.339a1.4,1.4,0,0,0,.184.621,1.028,1.028,0,0,0,.789.376c.3.019.6-.033.9-.031a3.773,3.773,0,0,1,1.842.6c.1.06.2.122.3.186.45.29.878.609,1.335.882a7.794,7.794,0,0,0,2.4.936.216.216,0,0,0,.234-.315.186.186,0,0,0-.057-.064,5.961,5.961,0,0,0-1.29-.724c.035.012.068.025.1.035q1.106.385,2.212.768c.158.056.369.1.466-.041a.27.27,0,0,0-.04-.317.773.773,0,0,0-.283-.184q-.954-.438-1.909-.877l2.314.826c.2.073.489.116.586-.077a.3.3,0,0,0-.075-.339.89.89,0,0,0-.317-.186l-2.226-.925,1.962.667c.209.072.482.128.621-.046a.376.376,0,0,0-.068-.48,1.1,1.1,0,0,0-.471-.232l-3.249-.989a7.639,7.639,0,0,0,1.246.157.775.775,0,0,0,.324-.035.273.273,0,0,0,.18-.252c-.009-.151-.172-.238-.311-.3a4.243,4.243,0,0,0-2.46-.466c-.36.079-.693.251-1.051.34a3.428,3.428,0,0,1-2.247-.515c-.1-.052-.194-.1-.284-.135a3.181,3.181,0,0,1-.695-.383,1.143,1.143,0,0,0-.762-.3C2733.218,2014.925,2733.116,2015.121,2733.124,2015.386Z" transform="translate(-2696.004 -1994.931)" fill="#ebc4a1"/>
        <path id="Trazado_100421" data-name="Trazado 100421" d="M2733.124,2015.386c.015.445.112.9.17,1.339a1.4,1.4,0,0,0,.184.621,1.028,1.028,0,0,0,.789.376c.3.019.6-.033.9-.031a3.773,3.773,0,0,1,1.842.6c.1.06.2.122.3.186a3.539,3.539,0,0,0-1.229-1.041,2.179,2.179,0,0,1-1.117-1.31,2.353,2.353,0,0,1-.011-.536,3.181,3.181,0,0,1-.695-.383,1.143,1.143,0,0,0-.762-.3C2733.218,2014.925,2733.116,2015.121,2733.124,2015.386Z" transform="translate(-2696.004 -1994.931)" fill="#1a1a1a" opacity="0.3" style="mix-blend-mode: multiply;isolation: isolate"/>
        <g id="Grupo_50281" data-name="Grupo 50281" transform="translate(8.274 34.619)">
          <g id="Grupo_50280" data-name="Grupo 50280">
            <path id="Trazado_100422" data-name="Trazado 100422" d="M2455.432,2258.589a1.5,1.5,0,0,0,1.321-.331.234.234,0,0,0-.24-.249c-.257-.018-.966.266-1.49,0v.417Z" transform="translate(-2451.218 -2250.771)" fill="#ebc4a1"/>
            <path id="Trazado_100423" data-name="Trazado 100423" d="M2456.941,2257.521s.92,1.28,1.385,1.414.759.2.852.359a1.218,1.218,0,0,1,.1.381.151.151,0,0,1-.169.17,3.161,3.161,0,0,1-1.026-.285s-1.016-.58-1.142-.867A3.526,3.526,0,0,1,2456.941,2257.521Z" transform="translate(-2452.911 -2250.327)" fill="#ebc4a1"/>
            <path id="Trazado_100424" data-name="Trazado 100424" d="M2462.423,2264.578a1.5,1.5,0,0,0,1.321-.331.234.234,0,0,0-.24-.248c-.257-.018-.967.266-1.49,0v.417Z" transform="translate(-2457.58 -2256.221)" fill="#ebc4a1"/>
            <path id="Trazado_100425" data-name="Trazado 100425" d="M2412.753,2179.092s1.531,2.442,2,3.531a2.1,2.1,0,0,1,.126.356,35.628,35.628,0,0,0,2.647,5.345c.186.054.2-.519.2-.772a8.794,8.794,0,0,0-.366-1.041c-.126-.329-.263-.7-.387-1.064-.056-.168-.108-.333-.156-.491-.012-.044-.025-.087-.037-.128v0c-.145-.519-.209-.944-.079-1.078.4-.414,1.052.611,1.1.665a1.461,1.461,0,0,0,.733.186,7.58,7.58,0,0,0-1.132-1.863,12.331,12.331,0,0,1-1.356-.985,12.975,12.975,0,0,1-.633-2.672c-.141-.792-.246-1.451-.246-1.451Z" transform="translate(-2412.753 -2177.629)" fill="#ebc4a1"/>
          </g>
          <path id="Trazado_100426" data-name="Trazado 100426" d="M2412.753,2179.092s1.531,2.442,2,3.531a1.351,1.351,0,0,0,.037-.281,5.218,5.218,0,0,0-.191-1.219,2,2,0,0,1,.048-1.217,2.326,2.326,0,0,1,.77-.826c-.141-.792-.246-1.451-.246-1.451Z" transform="translate(-2412.753 -2177.629)" fill="#1a1a1a" opacity="0.3" style="mix-blend-mode: multiply;isolation: isolate"/>
        </g>
        <path id="Trazado_100427" data-name="Trazado 100427" d="M2356.309,1940.631c.267,1.382,2.688,5.72,2.316,10.829,0,0,3.194-4.019,7.637-3.7l-1.176-2.935-.652-1.622a13.82,13.82,0,0,1,7.839,1.49,4.3,4.3,0,0,1-.4-2.285,7.9,7.9,0,0,1,.116-1.016c.165-.933.389-2.471.59-3.994.269-2.063.5-4.1.476-4.59v-.008c0-.246.565-.027,1.355.4,1.825.989,4.853,3.088,4.853,3.088s12.452,2.163,12.417,2.057-.993-6.138.567-7.912c0,0-1.442-.195-3.439-.4a76.238,76.238,0,0,0-7.63-.453s-7.556-3.62-9.224-4.187-2.27-1.26-2.821-1.26c0,0-.125.729-.548.656s-2.521-1.01-2.821-1.028a.2.2,0,0,0-.157.037,2.1,2.1,0,0,1-.747.637c-.834.478-1.614.426-2.484,1.171s-3.335,4.683-6.068,14.261C2356.309,1939.867,2356.045,1939.246,2356.309,1940.631Z" transform="translate(-2353.01 -1911.999)" fill="#dee7f3"/>
        <path id="Trazado_100428" data-name="Trazado 100428" d="M2433.16,2003.188a32.044,32.044,0,0,0,1.312,3.584,13.817,13.817,0,0,1,7.839,1.49,4.31,4.31,0,0,1-.4-2.285,21.432,21.432,0,0,0-4.956-1.111c-2.306-.307-1.871.025-2.058-2.032-.184-2.018,1.084-8.957,1.132-9.215C2435.932,1993.921,2433.122,2002.664,2433.16,2003.188Z" transform="translate(-2423.048 -1975.568)" fill="#1a1a1a" opacity="0.3" style="mix-blend-mode: multiply;isolation: isolate"/>
        <path id="Trazado_100429" data-name="Trazado 100429" d="M2489.368,1904.359a4.437,4.437,0,0,1-.064-1.19l-.795-.66A4.5,4.5,0,0,0,2489.368,1904.359Z" transform="translate(-2473.414 -1892.662)" fill="#1a1a1a" opacity="0.3" style="mix-blend-mode: multiply;isolation: isolate"/>
        <path id="Trazado_100430" data-name="Trazado 100430" d="M2454.368,1838.939a1.509,1.509,0,0,1,.967.1c-.179-.249-.318-.435-.318-.435s.8-1.355,1.035-1.658c1.948-.289,4.8.513,4.487,1.244a2.179,2.179,0,0,0-.114.335,2.491,2.491,0,0,1-1.4.184c-2.01-.213-2.554-.559-2.608.28a4.293,4.293,0,0,0,.491,1.953l.029.056a3.209,3.209,0,0,1-.688-.571c-.367-.277-.771-.53-.914-.427-.284.2.186,1.064.372,1.162s-.079,1.419-.079,1.419-.772-.967-.79-1.011S2453.626,1839.176,2454.368,1838.939Z" transform="translate(-2442.126 -1832.945)" fill="#1a1a1a" opacity="0.3" style="mix-blend-mode: multiply;isolation: isolate"/>
        <path id="Trazado_100431" data-name="Trazado 100431" d="M2443,1798.473c-.035,2.7,2.5,4.311,2.5,4.311l-.187-1.022-.027-.149c-.6-.23-.923-1.509-.356-1.773.507-.238.95.414,1.039.559-.1-.191-.656-1.32.008-2.067.729-.815,1.65.267,4.226.25s1.008-4.17,1.008-4.17c-.585.923-1.881.443-1.881.443a2.522,2.522,0,0,0,.532-1.7,2.639,2.639,0,0,1-.156.232,3.849,3.849,0,0,1-3,1.684C2444.629,1795.085,2443.031,1795.776,2443,1798.473Z" transform="translate(-2431.999 -1793.15)" fill="#1a1a1a"/>
        <path id="Trazado_100432" data-name="Trazado 100432" d="M2356.309,1941.017c.267,1.382,2.688,5.72,2.316,10.83,0,0,3.194-4.019,7.637-3.7l-1.176-2.935a.341.341,0,0,0-.209.167c-.745,1.385-4.735,1.252-4.869.159s-1.463-3.7-1.728-5.321,1.49-5.269,1.968-7.318,1.916-5.639,3.7-6.811,1.661-1.906,1.661-1.906a2.105,2.105,0,0,1-.747.637c-.834.478-1.614.426-2.484,1.171s-3.335,4.683-6.068,14.261C2356.309,1940.253,2356.045,1939.632,2356.309,1941.017Z" transform="translate(-2353.01 -1912.385)" fill="#1a1a1a" opacity="0.3" style="mix-blend-mode: multiply;isolation: isolate"/>
        <path id="Trazado_100433" data-name="Trazado 100433" d="M2533.653,1961.394c1.271,1.5,3.816,4.352,5.563,5.406a8.4,8.4,0,0,0,5.192,1.561c1.937.1,6.182-.689,5.17-4.938,2,.2,3.439.4,3.439.4-1.56,1.774-.6,7.806-.567,7.912s-12.417-2.057-12.417-2.057-3.028-2.1-4.853-3.088c-.791-.424-1.355-.643-1.355-.4a19.147,19.147,0,0,0-.954-5.732.006.006,0,0,1,0,0A3.384,3.384,0,0,1,2533.653,1961.394Z" transform="translate(-2513.779 -1945.388)" fill="#1a1a1a" opacity="0.3" style="mix-blend-mode: multiply;isolation: isolate"/>
        <path id="Trazado_100434" data-name="Trazado 100434" d="M2460.767,1923.8s3.581,2.535,3.864,1.8a1.622,1.622,0,0,0-.337-1.463s-.124.729-.549.656-2.521-1.01-2.82-1.028A.2.2,0,0,0,2460.767,1923.8Z" transform="translate(-2448.17 -1911.999)" fill="#1a1a1a" opacity="0.3" style="mix-blend-mode: multiply;isolation: isolate"/>
        <path id="Trazado_100435" data-name="Trazado 100435" d="M2473.34,2258.5c7.876-1.968,10.856.8,10.856.8.875-.9,2.221-4.01,3.413-7.183a.638.638,0,0,0-.074-.042,2.724,2.724,0,0,0-2.685.658,4.639,4.639,0,0,1-2.547,1.3,6.2,6.2,0,0,1-1.855-.5,1.871,1.871,0,0,0-1.827.195,33.69,33.69,0,0,0,2.5-5.093,11.243,11.243,0,0,0,.661-5.582,17.956,17.956,0,0,0-2.734-7.117,21.613,21.613,0,0,1-3.477-7.125c-.126,3.152.47,6.287-.155,9.4a9.421,9.421,0,0,0-.176,1.854c.112-.7.171-1.1.171-1.1l1.335,1.78,1.54,2.053C2478.182,2247.062,2473.34,2258.5,2473.34,2258.5Z" transform="translate(-2459.61 -2189.588)" fill="#1a1a1a" opacity="0.3" style="mix-blend-mode: multiply;isolation: isolate"/>
        <path id="Trazado_100436" data-name="Trazado 100436" d="M2443,1800.815c-.035,2.7,2.5,4.311,2.5,4.311l-.187-1.023c-.1-.054-.193-.112-.283-.172a3.012,3.012,0,0,1-1.165-3.055,3.871,3.871,0,0,1,2.1-2.61,24.782,24.782,0,0,0,2.489-1.047,3.41,3.41,0,0,0,1.02-1.041,3.294,3.294,0,0,0,.232-.455,3.849,3.849,0,0,1-3,1.684C2444.629,1797.427,2443.031,1798.119,2443,1800.815Z" transform="translate(-2431.999 -1795.492)" fill="#1a1a1a" opacity="0.3" style="mix-blend-mode: multiply;isolation: isolate"/>
      </g>
      <g id="Grupo_50284" data-name="Grupo 50284" transform="translate(12.979 33.012)">
        <path id="Trazado_100437" data-name="Trazado 100437" d="M2509.763,1127.775h-41.222c-1.949,0-3.53,1.9-3.53,4.245v30.68c0,2.344,1.581,4.245,3.53,4.245h41.222c1.95,0,3.531-1.9,3.531-4.245v-30.68C2513.293,1129.676,2511.712,1127.775,2509.763,1127.775Z" transform="translate(-2465.01 -1127.775)" fill="#d7e9f9"/>
        <path id="Trazado_100438" data-name="Trazado 100438" d="M2513.289,1132.022v1.682h-48.283v-1.682c0-2.344,1.581-4.244,3.53-4.244h41.222C2511.708,1127.778,2513.289,1129.678,2513.289,1132.022Z" transform="translate(-2465.006 -1127.778)" fill="#26aab7"/>
        <g id="Grupo_50283" data-name="Grupo 50283" transform="translate(7.302 13.166)">
          <rect id="Rectángulo_29047" data-name="Rectángulo 29047" width="5.934" height="11.561" rx="2" transform="translate(0 8.766)" fill="#f5ca56"/>
          <rect id="Rectángulo_29048" data-name="Rectángulo 29048" width="5.934" height="14.392" rx="2" transform="translate(9.248 5.934)" fill="#f5ca56"/>
          <rect id="Rectángulo_29049" data-name="Rectángulo 29049" width="5.934" height="17.244" rx="2" transform="translate(18.497 3.083)" fill="#dbdada"/>
          <rect id="Rectángulo_29050" data-name="Rectángulo 29050" width="5.934" height="20.327" rx="2" transform="translate(27.745)" fill="#dbdada"/>
        </g>
        <circle id="Elipse_4018" data-name="Elipse 4018" cx="1.155" cy="1.155" r="1.155" transform="translate(2.374 2.068)" fill="#d8e5ed"/>
        <circle id="Elipse_4019" data-name="Elipse 4019" cx="1.155" cy="1.155" r="1.155" transform="translate(5.52 2.068)" fill="#d8e5ed"/>
        <circle id="Elipse_4020" data-name="Elipse 4020" cx="1.155" cy="1.155" r="1.155" transform="translate(8.665 2.068)" fill="#d8e5ed"/>
      </g>
      <path id="Trazado_100439" data-name="Trazado 100439" d="M3350.47,1843.532v1.518a5.036,5.036,0,0,1-5.035,5.036h-43.449a14.154,14.154,0,0,1-1.2-2.022q-.232-.479-.428-.978a14.029,14.029,0,0,1-.972-4.776c0-.129-.005-.259-.005-.389V1773h32.456a5.554,5.554,0,0,1,5.554,5.553v63.757h11.854A1.222,1.222,0,0,1,3350.47,1843.532Z" transform="translate(-3211.278 -1681.892)" opacity="0.05" style="mix-blend-mode: multiply;isolation: isolate"/>
      <g id="Grupo_50287" data-name="Grupo 50287" transform="translate(94.08 12.41)">
        <g id="Grupo_50285" data-name="Grupo 50285">
          <path id="Trazado_100440" data-name="Trazado 100440" d="M3815.686,931.783q-.163-.419-.311-.843a25.632,25.632,0,0,1,.412-17.966,9.668,9.668,0,1,0-17.273,0,25.626,25.626,0,0,1,.411,17.966q-.146.423-.311.843-.251.647-.54,1.284l-.588,1.3h19.331l-.59-1.3Q3815.938,932.43,3815.686,931.783Zm-8.537-27.311a4.3,4.3,0,1,1-4.3,4.3A4.3,4.3,0,0,1,3807.15,904.472Z" transform="translate(-3758.61 -898.965)" fill="#12263f"/>
          <path id="Trazado_100441" data-name="Trazado 100441" d="M3816.814,1177.694h-19.33l.589-1.3a25.587,25.587,0,0,0,2.273-10.024h13.606a25.583,25.583,0,0,0,2.273,10.024Z" transform="translate(-3758.609 -1142.291)" fill="#1a1a1a" opacity="0.2" style="mix-blend-mode: multiply;isolation: isolate"/>
          <path id="Trazado_100442" data-name="Trazado 100442" d="M3462.812,1223.071v111.008a8.173,8.173,0,0,1-8.164,8.164H3373.9a8.174,8.174,0,0,1-8.164-8.164V1223.071a8.173,8.173,0,0,1,8.164-8.164h80.753A8.173,8.173,0,0,1,3462.812,1223.071Z" transform="translate(-3365.732 -1186.46)" fill="#12263f"/>
          <rect id="Rectángulo_29051" data-name="Rectángulo 29051" width="88.339" height="118.595" rx="2" transform="translate(4.371 32.818)" fill="#fff"/>
          <path id="Trazado_100443" data-name="Trazado 100443" d="M3695.233,1260.445l-3.026-5.079a2.636,2.636,0,0,0-2.26-1.284h-34.63a2.626,2.626,0,0,0-1.929.843,2.517,2.517,0,0,0-.33.441l-3.027,5.079a2.63,2.63,0,0,0,2.259,3.976h40.684A2.63,2.63,0,0,0,3695.233,1260.445Zm-11.376.717h-22.45a.955.955,0,0,1,0-1.911h22.45a.955.955,0,1,1,0,1.911Z" transform="translate(-3624.092 -1222.107)" fill="#12263f"/>
        </g>
        <g id="Grupo_50286" data-name="Grupo 50286" transform="translate(12.941 50.916)">
          <rect id="Rectángulo_29052" data-name="Rectángulo 29052" width="15.776" height="15.776" rx="2" fill="#dee7f3"/>
          <rect id="Rectángulo_29053" data-name="Rectángulo 29053" width="15.776" height="15.776" rx="2" transform="translate(0 31.262)" fill="#dee7f3"/>
          <rect id="Rectángulo_29054" data-name="Rectángulo 29054" width="15.776" height="15.776" rx="2" transform="translate(0 62.525)" fill="#dee7f3"/>
        </g>
        <rect id="Rectángulo_29055" data-name="Rectángulo 29055" width="49.148" height="1.278" transform="translate(34.284 53.684)" fill="#edf4f9"/>
        <rect id="Rectángulo_29056" data-name="Rectángulo 29056" width="49.148" height="1.278" transform="translate(34.284 58.165)" fill="#edf4f9"/>
        <rect id="Rectángulo_29057" data-name="Rectángulo 29057" width="49.148" height="1.278" transform="translate(34.284 62.646)" fill="#edf4f9"/>
        <rect id="Rectángulo_29058" data-name="Rectángulo 29058" width="49.148" height="1.278" transform="translate(34.284 84.947)" fill="#edf4f9"/>
        <rect id="Rectángulo_29059" data-name="Rectángulo 29059" width="49.148" height="1.278" transform="translate(34.284 89.428)" fill="#edf4f9"/>
        <rect id="Rectángulo_29060" data-name="Rectángulo 29060" width="49.148" height="1.278" transform="translate(34.284 93.909)" fill="#edf4f9"/>
        <rect id="Rectángulo_29061" data-name="Rectángulo 29061" width="49.148" height="1.278" transform="translate(34.284 116.209)" fill="#edf4f9"/>
        <rect id="Rectángulo_29062" data-name="Rectángulo 29062" width="49.148" height="1.278" transform="translate(34.284 120.69)" fill="#edf4f9"/>
        <rect id="Rectángulo_29063" data-name="Rectángulo 29063" width="49.148" height="1.278" transform="translate(34.284 125.171)" fill="#edf4f9"/>
      </g>
      <g id="Grupo_50292" data-name="Grupo 50292" transform="translate(79.207 0)">
        <g id="Grupo_50288" data-name="Grupo 50288" transform="translate(25.1)">
          <path id="Trazado_100444" data-name="Trazado 100444" d="M3508.538,811.486c-.115.131-4.016,1.018-4.016,1.018l-.293-.429-.394-.572.383-.657a1.2,1.2,0,0,0,.091-.531,3.507,3.507,0,0,0-.017-.382,6.173,6.173,0,0,0-.184-.974s0,0,0,0c-.02.024-.344.45-.825,1.083-.435.569-1.711-1.246-1.862-2.193a12.456,12.456,0,0,1-.165-1.324,1.133,1.133,0,0,1-.825.059.273.273,0,0,1-.2-.312,3.283,3.283,0,0,0,.03-2.329,2.543,2.543,0,0,0-.205-.352c-.523-.752,2.514-2.313,4.778-2.434,1.187-.062,2.16.271,2.3,1.323a10.061,10.061,0,0,1-.393,4.914,3.528,3.528,0,0,0,1.2,2.256C3509,810.468,3508.65,811.353,3508.538,811.486Z" transform="translate(-3498.13 -797.549)" fill="#ebc4a1"/>
          <path id="Trazado_100445" data-name="Trazado 100445" d="M3507.186,803.092a1.737,1.737,0,0,0-1.07.331c.146-.322.26-.564.26-.564s-1.22-1.345-1.549-1.634c-2.265.12-5.3,1.682-4.779,2.434a2.539,2.539,0,0,1,.205.352,2.871,2.871,0,0,0,1.626-.114c2.22-.7,2.755-1.217,3.008-.283a4.934,4.934,0,0,1-.105,2.318l-.02.07a3.7,3.7,0,0,0,.646-.8c.35-.4.748-.775.933-.692.367.165.034,1.244-.154,1.4s.416,1.584.416,1.584.649-1.268.659-1.323S3508.078,803.189,3507.186,803.092Z" transform="translate(-3498.127 -797.617)" fill="#1a1a1a" opacity="0.3" style="mix-blend-mode: multiply;isolation: isolate"/>
          <path id="Trazado_100446" data-name="Trazado 100446" d="M3489.622,765.57c.658,3.036-1.835,5.44-1.835,5.44l-.024-1.2,0-.174c.629-.4.7-1.915-.006-2.084-.626-.152-.977.685-1.044.869.069-.238.437-1.641-.484-2.332-1.01-.753-1.8.68-4.712,1.253s-2.095-4.476-2.095-4.476c.873.907,2.225.068,2.225.068a2.9,2.9,0,0,1-.991-1.8,3.056,3.056,0,0,0,.228.226,4.435,4.435,0,0,0,3.774,1.213C3487,762.121,3488.963,762.535,3489.622,765.57Z" transform="translate(-3479.312 -761.138)" fill="#1a1a1a"/>
          <path id="Trazado_100447" data-name="Trazado 100447" d="M3505.464,767.854c.659,3.036-1.835,5.44-1.835,5.44l-.024-1.2c.1-.083.191-.17.281-.259a3.471,3.471,0,0,0,.614-3.715,4.466,4.466,0,0,0-2.97-2.464,28.46,28.46,0,0,1-3.051-.61,3.917,3.917,0,0,1-1.39-.941,3.812,3.812,0,0,1-.367-.461,4.437,4.437,0,0,0,3.774,1.213C3502.844,764.4,3504.806,764.818,3505.464,767.854Z" transform="translate(-3495.155 -763.421)" fill="#1a1a1a" opacity="0.3" style="mix-blend-mode: multiply;isolation: isolate"/>
          <path id="Trazado_100448" data-name="Trazado 100448" d="M3546.465,874.079a5.431,5.431,0,0,1-.587,2.214,6.233,6.233,0,0,0-.185-.974v0Z" transform="translate(-3539.716 -863.91)" fill="#1a1a1a" opacity="0.3" style="mix-blend-mode: multiply;isolation: isolate"/>
        </g>
        <path id="Trazado_100449" data-name="Trazado 100449" d="M3355.516,1069.076s-.707,1.644-.271,1.644,1.312-1.927,1.728-2.087l.125-.055-.052-.489-.7-.083Z" transform="translate(-3341.187 -1040.375)" fill="#ebc4a1"/>
        <path id="Trazado_100450" data-name="Trazado 100450" d="M3332.024,1029.366l-1.061.7s-.262.049-.6.131a4.124,4.124,0,0,0-1.49.555,2.8,2.8,0,0,1-1.795.859c-.592-.063-.172-.813-.031-.777s1.234-.784,1.125-1.362-1.95-.219-1.936,1.077c.125,1.925-.562,1.575-.562,1.575-.469-.046-.266-2.639-.266-2.841s1.311-1.109,1.389-1.155a7.039,7.039,0,0,1,1.937.271,4.029,4.029,0,0,0,1.331.071c.369-.026.655-.07.655-.07l.588-.019Z" transform="translate(-3314.124 -1004.081)" fill="#ebc4a1"/>
        <path id="Trazado_100451" data-name="Trazado 100451" d="M3379.529,1032.02l-1.062.7s-.262.048-.6.131a2.25,2.25,0,0,0-.3-1.727c.368-.026.656-.07.656-.07l.588-.019Z" transform="translate(-3361.629 -1006.734)" fill="#1a1a1a" opacity="0.2"/>
        <path id="Trazado_100452" data-name="Trazado 100452" d="M3399.329,924.366l-1.5,4.588a38.98,38.98,0,0,1-6.835.339c-2.743-.21-6.256-.678-6.564-.719l-.021,0a1.7,1.7,0,0,0-.312-1.748,22.65,22.65,0,0,1,4.941-.321h0c2.42.006,4.766.107,4.766.107a40.045,40.045,0,0,1,1.277-5.015,41.532,41.532,0,0,1,1.952-5.012h.959Z" transform="translate(-3367.567 -902.585)" fill="#5b7393"/>
        <path id="Trazado_100453" data-name="Trazado 100453" d="M3386.157,1369.035l.645,3.016,2.391-.1-.407-3.78Z" transform="translate(-3369.445 -1313.512)" fill="#ebc4a1"/>
        <g id="Grupo_50289" data-name="Grupo 50289" transform="translate(10.354 57.612)">
          <path id="Trazado_100454" data-name="Trazado 100454" d="M3325.946,1427.51a1.3,1.3,0,0,1-.42,1.044c-1.02.81-10.008.192-9.979-.369a.9.9,0,0,1,.426-.747C3318.359,1427.9,3322.5,1428.434,3325.946,1427.51Z" transform="translate(-3315.548 -1425.057)" fill="#e1e1e1"/>
          <path id="Trazado_100455" data-name="Trazado 100455" d="M3330.245,1403.443c-3.448.924-7.587.39-9.973-.072l.024-.012a23.969,23.969,0,0,1,5.99-2.369s.961.979,3.416.229A6.04,6.04,0,0,1,3330.245,1403.443Z" transform="translate(-3319.846 -1400.989)" fill="#5b7393"/>
        </g>
        <path id="Trazado_100456" data-name="Trazado 100456" d="M3350.964,1214.457a2.236,2.236,0,0,0-.58-.3,3.1,3.1,0,0,0-.781-.18,4.309,4.309,0,0,0-1.787.2,6.531,6.531,0,0,0-.723.279s-.715-2.156-1.493-4.861a54.266,54.266,0,0,1-1.912-8.542,7.5,7.5,0,0,1,2.366-3.065,7.776,7.776,0,0,1,4.168-1.572s.208,2.241.421,5.208A97.228,97.228,0,0,1,3350.964,1214.457Z" transform="translate(-3330.799 -1157.223)" fill="#12263f"/>
        <path id="Trazado_100457" data-name="Trazado 100457" d="M3374.876,1214.457a2.231,2.231,0,0,0-.58-.3,3.1,3.1,0,0,0-.782-.18c-.088-3.945-2.182-11.465-3.549-15.993a7.778,7.778,0,0,1,4.169-1.572s.208,2.241.42,5.208A97.265,97.265,0,0,1,3374.876,1214.457Z" transform="translate(-3354.71 -1157.223)" fill="#12263f" opacity="0.2" style="mix-blend-mode: multiply;isolation: isolate"/>
        <g id="Grupo_50290" data-name="Grupo 50290" transform="translate(0 32.145)">
          <path id="Trazado_100458" data-name="Trazado 100458" d="M3263.631,1360.952l-1.7,2.571,1.748,1.636,2.414-2.937Z" transform="translate(-3256.401 -1339.09)" fill="#ebc4a1"/>
          <path id="Trazado_100459" data-name="Trazado 100459" d="M3207.51,1362.548a1.118,1.118,0,0,1-.88.41c-1.119-.09-6.412-5.773-6.063-6.109a.78.78,0,0,1,.708-.22A20.607,20.607,0,0,0,3207.51,1362.548Z" transform="translate(-3200.55 -1335.142)" fill="#e1e1e1"/>
          <path id="Trazado_100460" data-name="Trazado 100460" d="M3214.83,1362.7a20.606,20.606,0,0,1-6.235-5.92l.022.007a20.668,20.668,0,0,1,5.166,2.036s.028,1.182,2.015,2.157A5.221,5.221,0,0,1,3214.83,1362.7Z" transform="translate(-3207.871 -1335.296)" fill="#5b7393"/>
          <path id="Trazado_100461" data-name="Trazado 100461" d="M3296.543,1127.2c-9.615,1.8-14.8,1.3-14.8,1.3a45.74,45.74,0,0,1-9.123,14.291,1.4,1.4,0,0,0-.039-.16,1.968,1.968,0,0,0-2.107-1.475,1.726,1.726,0,0,0-.189.012s2.531-13.359,7.027-17.477c0,0,9.739-3.118,15.484-3.926,2.8-.4,5.051-.792,6.621-1.09,1.653-.317,2.557-.531,2.557-.531S3306.158,1125.393,3296.543,1127.2Z" transform="translate(-3264.011 -1118.149)" fill="#12263f"/>
        </g>
        <path id="Trazado_100462" data-name="Trazado 100462" d="M3402.486,924.366l-1.5,4.588a38.973,38.973,0,0,1-6.834.339c-2.872-.22-6.586-.722-6.586-.722,2.113-1.167,9.677-1.166,9.677-1.166s.125-.775.438-2.028a25.813,25.813,0,0,0,.559-3.784,41.637,41.637,0,0,1,1.952-5.012h.958Z" transform="translate(-3370.724 -902.585)" fill="#1a1a1a" opacity="0.2"/>
        <path id="Trazado_100463" data-name="Trazado 100463" d="M3320.14,1127.2c-9.615,1.8-14.8,1.3-14.8,1.3a45.746,45.746,0,0,1-9.123,14.291q.357-.524.692-1.051c.107-.167.211-.332.313-.5a48.866,48.866,0,0,0,5.942-14.406s16.43-.117,19.426-2.614c1.809-1.507,1.194-3.891.423-5.545,1.653-.317,2.556-.531,2.556-.531S3329.755,1125.393,3320.14,1127.2Z" transform="translate(-3287.607 -1086.004)" fill="#1a1a1a" opacity="0.2" style="mix-blend-mode: multiply;isolation: isolate"/>
        <path id="Trazado_100464" data-name="Trazado 100464" d="M3513.57,907.726a11.9,11.9,0,0,1-7.325,1.349c-.779.051-1.466.165-2.095.259a5.949,5.949,0,0,1-2.4.03c-1.247-.333-1.33-.209-1.082-2,.156-1.107.519-3.7.813-6.273.181-1.583.334-3.158.4-4.38.167-3.2.751-7.618,1.125-8.074s1.3-1.665,1.775-1.665c0,0,.793,2.087,2.95-1.1,0,0,1.652.678,1.984,1.467s1.282,2.508,1.281,3.506S3510.2,901.107,3513.57,907.726Z" transform="translate(-3473.542 -874.643)" fill="#5b7393"/>
        <path id="Trazado_100465" data-name="Trazado 100465" d="M3333.182,1109.628l-9.516-3.1a.652.652,0,0,0-.83.8l1.477,5.248a.651.651,0,0,0,.795.453l8.04-2.146A.652.652,0,0,0,3333.182,1109.628Z" transform="translate(-3311.803 -1075.397)" fill="#1a1a1a"/>
        <path id="Trazado_100466" data-name="Trazado 100466" d="M3333.15,1110.88l-8.039,2.146a.652.652,0,0,1-.8-.453l-1.476-5.248a.651.651,0,0,1,.741-.818,4.994,4.994,0,0,0,8.6,2.8l1,.326A.651.651,0,0,1,3333.15,1110.88Z" transform="translate(-3311.805 -1075.4)" fill="#1a1a1a" opacity="0.2"/>
        <g id="Grupo_50291" data-name="Grupo 50291" transform="translate(7.065 18.247)">
          <path id="Trazado_100467" data-name="Trazado 100467" d="M3280.065,963.923a.175.175,0,0,0-.211-.123l-.709.179a.173.173,0,0,0-.125.214l3.232,11.915,1.046-.265Z" transform="translate(-3279.015 -963.795)" fill="#1a1a1a"/>
          <path id="Trazado_100468" data-name="Trazado 100468" d="M3320.313,1093.686l-14.367-4.672a.156.156,0,0,1-.1-.2l.251-.772a.156.156,0,0,1,.2-.1l14.368,4.672a.156.156,0,0,1,.1.2l-.251.772A.156.156,0,0,1,3320.313,1093.686Z" transform="translate(-3303.422 -1076.759)" fill="#1a1a1a"/>
          <rect id="Rectángulo_29064" data-name="Rectángulo 29064" width="7.637" height="0.275" transform="translate(3.764 11.936) rotate(18.013)" fill="#e1e1e1"/>
          <rect id="Rectángulo_29065" data-name="Rectángulo 29065" width="0.77" height="0.275" transform="translate(11.918 14.587) rotate(18.013)" fill="#e1e1e1"/>
          <rect id="Rectángulo_29066" data-name="Rectángulo 29066" width="0.77" height="0.275" transform="matrix(0.951, 0.309, -0.309, 0.951, 12.967, 14.928)" fill="#e1e1e1"/>
          <path id="Trazado_100469" data-name="Trazado 100469" d="M3312.338,1094.351a.125.125,0,1,1-.08-.157A.125.125,0,0,1,3312.338,1094.351Z" transform="translate(-3309.116 -1082.447)" fill="#e1e1e1"/>
        </g>
        <path id="Trazado_100470" data-name="Trazado 100470" d="M3334.009,1052.19s-1.051.7-1.107.789a1.9,1.9,0,0,1-.469.184c-.293.092-.687.2-1.078.288-.022,0-.041.012-.058.015l-.054.012-.017,0a8.065,8.065,0,0,1-.806.143c-.843.094-1.516.922-1.826,1.085a1,1,0,0,1-.875.058c-.167-.063.629-.716,1.3-1.237a7.2,7.2,0,0,1-2.057,1.14.563.563,0,0,1-.265,0c-.684-.224.895-1.262,1.924-2.056a17.265,17.265,0,0,1,3.5-1.652c.265-.1.43-.158.43-.158l1.282.406Z" transform="translate(-3315.19 -1024.72)" fill="#ebc4a1"/>
        <path id="Trazado_100471" data-name="Trazado 100471" d="M3382.735,1052.19s-1.051.7-1.107.789a1.893,1.893,0,0,1-.469.184c-.293.092-.687.2-1.078.288a1.668,1.668,0,0,0,1.027-1.184,1.336,1.336,0,0,0-.254-1.308c.265-.1.43-.158.43-.158l1.282.406Z" transform="translate(-3363.916 -1024.72)" fill="#1a1a1a" opacity="0.2"/>
        <path id="Trazado_100472" data-name="Trazado 100472" d="M3509.516,929.973c-1.729,6.076-4.67,8.223-5.156,10.146a13.8,13.8,0,0,0-.21,3.222,5.947,5.947,0,0,1-2.4.031c-1.247-.333-1.33-.209-1.082-2,.156-1.107.519-3.7.813-6.273a3.28,3.28,0,0,0,.313-.388,61.058,61.058,0,0,0,3.511-7.53c.073-.706.572-2.663.572-2.663l3.443-1.273S3511.247,923.9,3509.516,929.973Z" transform="translate(-3473.542 -908.649)" fill="#1a1a1a" opacity="0.2"/>
        <path id="Trazado_100473" data-name="Trazado 100473" d="M3412.321,918.117a13.384,13.384,0,0,1-.494,1.571c-1.726,4.619-6.181,11.112-6.181,11.112-3.965.09-11.862-1.792-11.862-1.792a1.547,1.547,0,0,0-.223-2.071,1.429,1.429,0,0,0-.122-.107,5.023,5.023,0,0,1,1.452-.39,52.6,52.6,0,0,1,8.2-.125s3.028-7.617,3.809-10.03S3413.4,913.583,3412.321,918.117Z" transform="translate(-3376.073 -900.748)" fill="#5b7393"/>
      </g>
      <path id="Trazado_100474" data-name="Trazado 100474" d="M4067.3,1666.587v78.5a8.174,8.174,0,0,1-8.164,8.165h-27.509a11.9,11.9,0,0,1-1.594-5.95v-68.793a11.938,11.938,0,0,1,11.924-11.924Z" transform="translate(-3876.135 -1585.061)" opacity="0.05" style="mix-blend-mode: multiply;isolation: isolate"/>
      <g id="Grupo_50293" data-name="Grupo 50293" transform="translate(172.929 30.75)">
        <path id="Trazado_100475" data-name="Trazado 100475" d="M5050.811,1904.575l27.513,27.512c3.131,3.13,2.69,8.646-.983,12.319h0c-3.674,3.673-9.188,4.115-12.319.984l-27.512-27.512Z" transform="translate(-4965.83 -1832.37)" fill="#00223d"/>
        <rect id="Rectángulo_29067" data-name="Rectángulo 29067" width="13.42" height="14.621" transform="translate(60.874 70.891) rotate(-45)" fill="#12263f"/>
        <path id="Trazado_100476" data-name="Trazado 100476" d="M4927.009,1784.588l4.773,4.772a44.5,44.5,0,0,1-9.571,9.408l-4.69-4.691Z" transform="translate(-4856.646 -1723.186)" fill="#1a1a1a" opacity="0.2" style="mix-blend-mode: multiply;isolation: isolate"/>
        <circle id="Elipse_4021" data-name="Elipse 4021" cx="39.887" cy="39.887" r="39.887" fill="#12263f"/>
        <circle id="Elipse_4022" data-name="Elipse 4022" cx="32.958" cy="32.958" r="32.958" transform="translate(6.93 6.93)" fill="#fff" style="mix-blend-mode: screen;isolation: isolate"/>
        <path id="Trazado_100477" data-name="Trazado 100477" d="M4414.515,1242.771a32.963,32.963,0,0,1-62.927,13.731,32.973,32.973,0,0,0,43.7-43.7A32.961,32.961,0,0,1,4414.515,1242.771Z" transform="translate(-4341.67 -1202.883)" fill="#1a1a1a" opacity="0.2" style="mix-blend-mode: multiply;isolation: isolate"/>
        <rect id="Rectángulo_29068" data-name="Rectángulo 29068" width="18.814" height="4.986" transform="translate(71.678 85.509) rotate(-45)" fill="#1a1a1a" opacity="0.2" style="mix-blend-mode: multiply;isolation: isolate"/>
        <path id="Trazado_100478" data-name="Trazado 100478" d="M5003.622,1856.444l-14.244,14.245a1.578,1.578,0,0,1-2.23,0l-2.712-2.712a1.579,1.579,0,0,1,0-2.231l14.244-14.244a1.577,1.577,0,0,1,2.231,0l2.712,2.712A1.577,1.577,0,0,1,5003.622,1856.444Z" transform="translate(-4917.116 -1783.654)" fill="#d8e5ed"/>
      </g>
      <g id="Grupo_50294" data-name="Grupo 50294" transform="translate(159.867 87.501)">
        <rect id="Rectángulo_29069" data-name="Rectángulo 29069" width="48.155" height="80.693" rx="2" fill="#12263f"/>
        <rect id="Rectángulo_29070" data-name="Rectángulo 29070" width="43.986" height="76.523" rx="2" transform="translate(2.085 2.085)" fill="#fff"/>
        <path id="Trazado_100479" data-name="Trazado 100479" d="M4224.839,1745.256h-13.75l3.724,3.723a1.7,1.7,0,0,0,1.2.5h17.646a1.7,1.7,0,0,0,1.2-.5l3.723-3.723Z" transform="translate(-4200.761 -1744.147)" fill="#12263f"/>
        <rect id="Rectángulo_29071" data-name="Rectángulo 29071" width="40.607" height="27.418" rx="2" transform="translate(3.774 9.069)" fill="#edf4f9"/>
        <rect id="Rectángulo_29072" data-name="Rectángulo 29072" width="11.658" height="11.658" rx="2" transform="translate(4.985 46.35)" fill="#edf4f9"/>
        <rect id="Rectángulo_29073" data-name="Rectángulo 29073" width="11.658" height="11.658" rx="2" transform="translate(4.985 61.203)" fill="#edf4f9"/>
        <rect id="Rectángulo_29074" data-name="Rectángulo 29074" width="21.833" height="0.965" transform="translate(19.324 46.725)" fill="#edf4f9"/>
        <rect id="Rectángulo_29075" data-name="Rectángulo 29075" width="21.833" height="0.965" transform="translate(19.324 48.869)" fill="#edf4f9"/>
        <rect id="Rectángulo_29076" data-name="Rectángulo 29076" width="40.607" height="0.965" transform="translate(3.774 38.507)" fill="#edf4f9"/>
        <rect id="Rectángulo_29077" data-name="Rectángulo 29077" width="21.833" height="0.965" transform="translate(3.774 40.651)" fill="#edf4f9"/>
        <rect id="Rectángulo_29078" data-name="Rectángulo 29078" width="9.997" height="0.965" transform="translate(19.324 51.013)" fill="#edf4f9"/>
        <rect id="Rectángulo_29079" data-name="Rectángulo 29079" width="19.618" height="0.965" transform="translate(19.324 54.122)" fill="#edf4f9"/>
        <rect id="Rectángulo_29080" data-name="Rectángulo 29080" width="21.833" height="0.965" transform="translate(19.324 61.519)" fill="#edf4f9"/>
        <rect id="Rectángulo_29081" data-name="Rectángulo 29081" width="21.833" height="0.965" transform="translate(19.324 63.663)" fill="#edf4f9"/>
        <rect id="Rectángulo_29082" data-name="Rectángulo 29082" width="9.997" height="0.965" transform="translate(19.324 65.807)" fill="#edf4f9"/>
        <rect id="Rectángulo_29083" data-name="Rectángulo 29083" width="19.618" height="0.965" transform="translate(19.324 68.916)" fill="#edf4f9"/>
      </g>
      <g id="Grupo_50300" data-name="Grupo 50300" transform="translate(56.334 78.543)">
        <rect id="Rectángulo_29086" data-name="Rectángulo 29086" width="39.193" height="10.147" rx="2" fill="#26aab7"/>
        <g id="Grupo_50298" data-name="Grupo 50298" transform="translate(2.681 2.653)">
          <path id="Trazado_100490" data-name="Trazado 100490" d="M2978.837,1662.916l.6,1.849h1.944l-1.573,1.143.6,1.849-1.573-1.143-1.573,1.143.6-1.849-1.573-1.143h1.944Z" transform="translate(-2976.292 -1662.916)" fill="#f5ca56"/>
          <path id="Trazado_100491" data-name="Trazado 100491" d="M3058.636,1662.916l.6,1.849h1.944l-1.573,1.143.6,1.849-1.573-1.143-1.573,1.143.6-1.849-1.573-1.143h1.944Z" transform="translate(-3048.906 -1662.916)" fill="#f5ca56"/>
          <path id="Trazado_100492" data-name="Trazado 100492" d="M3138.435,1662.916l.6,1.849h1.945l-1.573,1.143.6,1.849-1.573-1.143-1.573,1.143.6-1.849-1.573-1.143h1.945Z" transform="translate(-3121.52 -1662.916)" fill="#f5ca56"/>
          <path id="Trazado_100493" data-name="Trazado 100493" d="M3218.233,1662.916l.6,1.849h1.944l-1.573,1.143.6,1.849-1.573-1.143-1.573,1.143.6-1.849-1.573-1.143h1.944Z" transform="translate(-3194.133 -1662.916)" fill="#f5ca56"/>
          <path id="Trazado_100494" data-name="Trazado 100494" d="M3298.033,1662.916l.6,1.849h1.945l-1.573,1.143.6,1.849-1.573-1.143-1.573,1.143.6-1.849-1.573-1.143h1.945Z" transform="translate(-3266.747 -1662.916)" fill="#d8e5ed"/>
        </g>
        <rect id="Rectángulo_29087" data-name="Rectángulo 29087" width="39.193" height="10.147" rx="2" transform="translate(7.043 12.483)" fill="#26aab7"/>
        <g id="Grupo_50299" data-name="Grupo 50299" transform="translate(9.725 15.136)">
          <path id="Trazado_100495" data-name="Trazado 100495" d="M3057.063,1801.556l.6,1.849h1.945l-1.573,1.143.6,1.849-1.573-1.143-1.573,1.143.6-1.849-1.573-1.143h1.944Z" transform="translate(-3054.518 -1801.556)" fill="#f5ca56"/>
          <path id="Trazado_100496" data-name="Trazado 100496" d="M3136.862,1801.556l.6,1.849h1.944l-1.573,1.143.6,1.849-1.573-1.143-1.573,1.143.6-1.849-1.573-1.143h1.945Z" transform="translate(-3127.132 -1801.556)" fill="#f5ca56"/>
          <path id="Trazado_100497" data-name="Trazado 100497" d="M3216.661,1801.556l.6,1.849h1.945l-1.573,1.143.6,1.849-1.573-1.143-1.573,1.143.6-1.849-1.573-1.143h1.945Z" transform="translate(-3199.746 -1801.556)" fill="#f5ca56"/>
          <path id="Trazado_100498" data-name="Trazado 100498" d="M3296.459,1801.556l.6,1.849H3299l-1.573,1.143.6,1.849-1.573-1.143-1.573,1.143.6-1.849-1.573-1.143h1.944Z" transform="translate(-3272.359 -1801.556)" fill="#f5ca56"/>
          <path id="Trazado_100499" data-name="Trazado 100499" d="M3376.258,1801.556l.6,1.849h1.944l-1.573,1.143.6,1.849-1.573-1.143-1.573,1.143.6-1.849-1.573-1.143h1.944Z" transform="translate(-3344.972 -1801.556)" fill="#f5ca56"/>
        </g>
      </g>
      <g id="Grupo_50457" data-name="Grupo 50457" transform="translate(191.633 115.352)">
        <rect id="Rectángulo_29086-2" data-name="Rectángulo 29086" width="39.193" height="10.147" rx="2" fill="#7d6eb2"/>
        <g id="Grupo_50298-2" data-name="Grupo 50298" transform="translate(2.681 2.653)">
          <path id="Trazado_100490-2" data-name="Trazado 100490" d="M2978.837,1662.916l.6,1.849h1.944l-1.573,1.143.6,1.849-1.573-1.143-1.573,1.143.6-1.849-1.573-1.143h1.944Z" transform="translate(-2976.292 -1662.916)" fill="#f5ca56"/>
          <path id="Trazado_100491-2" data-name="Trazado 100491" d="M3058.636,1662.916l.6,1.849h1.944l-1.573,1.143.6,1.849-1.573-1.143-1.573,1.143.6-1.849-1.573-1.143h1.944Z" transform="translate(-3048.906 -1662.916)" fill="#f5ca56"/>
          <path id="Trazado_100492-2" data-name="Trazado 100492" d="M3138.435,1662.916l.6,1.849h1.945l-1.573,1.143.6,1.849-1.573-1.143-1.573,1.143.6-1.849-1.573-1.143h1.945Z" transform="translate(-3121.52 -1662.916)" fill="#f5ca56"/>
          <path id="Trazado_100493-2" data-name="Trazado 100493" d="M3218.233,1662.916l.6,1.849h1.944l-1.573,1.143.6,1.849-1.573-1.143-1.573,1.143.6-1.849-1.573-1.143h1.944Z" transform="translate(-3194.133 -1662.916)" fill="#f5ca56"/>
          <path id="Trazado_100494-2" data-name="Trazado 100494" d="M3298.033,1662.916l.6,1.849h1.945l-1.573,1.143.6,1.849-1.573-1.143-1.573,1.143.6-1.849-1.573-1.143h1.945Z" transform="translate(-3266.747 -1662.916)" fill="#d8e5ed"/>
        </g>
        <rect id="Rectángulo_29087-2" data-name="Rectángulo 29087" width="39.193" height="10.147" rx="2" transform="translate(7.043 12.483)" fill="#7d6eb2"/>
        <g id="Grupo_50299-2" data-name="Grupo 50299" transform="translate(9.725 15.136)">
          <path id="Trazado_100495-2" data-name="Trazado 100495" d="M3057.063,1801.556l.6,1.849h1.945l-1.573,1.143.6,1.849-1.573-1.143-1.573,1.143.6-1.849-1.573-1.143h1.944Z" transform="translate(-3054.518 -1801.556)" fill="#f5ca56"/>
          <path id="Trazado_100496-2" data-name="Trazado 100496" d="M3136.862,1801.556l.6,1.849h1.944l-1.573,1.143.6,1.849-1.573-1.143-1.573,1.143.6-1.849-1.573-1.143h1.945Z" transform="translate(-3127.132 -1801.556)" fill="#f5ca56"/>
          <path id="Trazado_100497-2" data-name="Trazado 100497" d="M3216.661,1801.556l.6,1.849h1.945l-1.573,1.143.6,1.849-1.573-1.143-1.573,1.143.6-1.849-1.573-1.143h1.945Z" transform="translate(-3199.746 -1801.556)" fill="#f5ca56"/>
          <path id="Trazado_100498-2" data-name="Trazado 100498" d="M3296.459,1801.556l.6,1.849H3299l-1.573,1.143.6,1.849-1.573-1.143-1.573,1.143.6-1.849-1.573-1.143h1.944Z" transform="translate(-3272.359 -1801.556)" fill="#f5ca56"/>
          <path id="Trazado_100499-2" data-name="Trazado 100499" d="M3376.258,1801.556l.6,1.849h1.944l-1.573,1.143.6,1.849-1.573-1.143-1.573,1.143.6-1.849-1.573-1.143h1.944Z" transform="translate(-3344.972 -1801.556)" fill="#f5ca56"/>
        </g>
      </g>
    </g>
  </g>
</svg>
