<svg xmlns="http://www.w3.org/2000/svg" xmlns:xlink="http://www.w3.org/1999/xlink" width="246.836" height="169.135" viewBox="0 0 246.836 169.135">
  <defs>
    <linearGradient id="linear-gradient" x1="0.5" x2="0.5" y2="1" gradientUnits="objectBoundingBox">
      <stop offset="0" stop-color="#fff"/>
      <stop offset="1" stop-color="#d3d3d3"/>
    </linearGradient>
    <linearGradient id="linear-gradient-2" x1="0.5" x2="0.5" y2="1" gradientUnits="objectBoundingBox">
      <stop offset="0" stop-color="#fff"/>
      <stop offset="1" stop-color="#f1f1f1"/>
    </linearGradient>
  </defs>
  <g id="Grupo_50455" data-name="Grupo 50455" transform="translate(-359.158 -798.339)">
    <g id="Grupo_46739" data-name="Grupo 46739" transform="translate(346.953 793.14)">
      <g id="Grupo_46726" data-name="Grupo 46726" transform="translate(33.244 52.981)">
        <path id="Trazado_97178" data-name="Trazado 97178" d="M725.459,1473.615h26.833a6.014,6.014,0,0,1,6.014,6.014v12.509a6.014,6.014,0,0,1-6.014,6.014h-.2l2.154,7.215a.342.342,0,0,1-.535.37l-9.942-7.585h-18.31a6.014,6.014,0,0,1-6.014-6.014v-12.509A6.014,6.014,0,0,1,725.459,1473.615Z" transform="translate(-719.445 -1473.615)" fill="#f1f1f1"/>
        <path id="Trazado_97179" data-name="Trazado 97179" d="M784.388,1519.788H758.626a2.977,2.977,0,0,1-2.977-2.977h0a2.977,2.977,0,0,1,2.977-2.977h25.762a2.977,2.977,0,0,1,2.977,2.977h0A2.977,2.977,0,0,1,784.388,1519.788Z" transform="translate(-751.553 -1509.285)" fill="#00223d" opacity="0.25"/>
        <path id="Trazado_97180" data-name="Trazado 97180" d="M784.388,1600.148H758.626a2.977,2.977,0,0,1-2.977-2.977h0a2.977,2.977,0,0,1,2.977-2.977h25.762a2.977,2.977,0,0,1,2.977,2.977h0A2.976,2.976,0,0,1,784.388,1600.148Z" transform="translate(-751.553 -1580.553)" fill="#00223d" opacity="0.25"/>
      </g>
      <g id="Grupo_46727" data-name="Grupo 46727" transform="translate(167.65 19.216)">
        <path id="Trazado_97181" data-name="Trazado 97181" d="M1943.338,1175.156h-29.263a6.558,6.558,0,0,0-6.559,6.558v13.641a6.559,6.559,0,0,0,6.559,6.558h.217l-2.349,7.868a.373.373,0,0,0,.584.4l10.842-8.272h19.968a6.558,6.558,0,0,0,6.559-6.558v-13.641A6.558,6.558,0,0,0,1943.338,1175.156Z" transform="translate(-1907.517 -1175.156)" fill="#f1f1f1"/>
        <rect id="Rectángulo_28254" data-name="Rectángulo 28254" width="34.756" height="5.954" rx="2.977" transform="translate(3.465 5.576)" fill="#00223d" opacity="0.25"/>
        <path id="Rectángulo_28255" data-name="Rectángulo 28255" d="M2.977,0h13.8A2.977,2.977,0,0,1,19.75,2.977v0a2.977,2.977,0,0,1-2.977,2.977H2.977A2.977,2.977,0,0,1,0,2.977v0A2.977,2.977,0,0,1,2.977,0Z" transform="translate(4.419 14.577)" fill="#00223d" opacity="0.25"/>
      </g>
      <g id="Grupo_46729" data-name="Grupo 46729" transform="translate(208.985 64.15)">
        <path id="Trazado_97183" data-name="Trazado 97183" d="M2273.483,1573.175a4.231,4.231,0,0,1,2.626-.827c2.2,0,3.372,1.2,3.372,2.885a4.315,4.315,0,0,1-1.427,2.95c-1.216,1.281-2.091,1.913-2.643,1.913a.913.913,0,0,1-.923-.924c0-.454.421-.908,1.151-1.573a.741.741,0,0,1,.129-.114c.827-.762,1.086-1.183,1.086-1.7a.963.963,0,0,0-1.07-1.005,3.474,3.474,0,0,0-1.037.194,3.333,3.333,0,0,1-.876.195,1.01,1.01,0,0,1-.972-1.037A1.226,1.226,0,0,1,2273.483,1573.175Zm2.221,10.813a1.61,1.61,0,0,1-1.654-1.654,1.586,1.586,0,0,1,1.654-1.524,1.554,1.554,0,0,1,1.523,1.524A1.574,1.574,0,0,1,2275.7,1583.987Z" transform="translate(-2272.9 -1572.348)" fill="url(#linear-gradient)"/>
      </g>
      <g id="Grupo_46735" data-name="Grupo 46735" transform="translate(226.294 96.423)">
        <g id="Grupo_46730" data-name="Grupo 46730">
          <path id="Trazado_97184" data-name="Trazado 97184" d="M2457.664,1886.086h-30.777a.985.985,0,0,1-.985-.985v-26.493a.985.985,0,0,1,1.971,0v25.507h29.792a.985.985,0,1,1,0,1.971Z" transform="translate(-2425.901 -1857.623)" fill="#12263f"/>
        </g>
        <g id="Grupo_46734" data-name="Grupo 46734" transform="translate(2.33 4.25)">
          <g id="Grupo_46731" data-name="Grupo 46731" transform="translate(0 2.581)">
            <path id="Trazado_97185" data-name="Trazado 97185" d="M2447.481,1933.161a.985.985,0,0,1-.708-1.67l9.947-10.29a.985.985,0,0,1,1.244-.142l4.7,3.051,4.96-5.763a.985.985,0,1,1,1.493,1.285l-5.521,6.416a.985.985,0,0,1-1.283.184l-4.745-3.078-9.383,9.707A.983.983,0,0,1,2447.481,1933.161Z" transform="translate(-2446.496 -1918.005)" fill="#5b7393"/>
          </g>
          <g id="Grupo_46733" data-name="Grupo 46733" transform="translate(18.223)">
            <g id="Grupo_46732" data-name="Grupo 46732">
              <path id="Trazado_97186" data-name="Trazado 97186" d="M2612,1902.336l-1.4-2.844-3.021-.964,6.725-3.34Z" transform="translate(-2607.578 -1895.188)" fill="#5b7393"/>
            </g>
          </g>
        </g>
      </g>
      <g id="Grupo_46736" data-name="Grupo 46736" transform="translate(45.325 16.89)">
        <path id="Trazado_97187" data-name="Trazado 97187" d="M832.194,1166.517a5.962,5.962,0,1,1,5.962-5.962A5.969,5.969,0,0,1,832.194,1166.517Zm0-10.282a4.32,4.32,0,1,0,4.32,4.32A4.324,4.324,0,0,0,832.194,1156.235Z" transform="translate(-826.232 -1154.593)" fill="#00223d"/>
      </g>
      <circle id="Elipse_3865" data-name="Elipse 3865" cx="3.404" cy="3.404" r="3.404" transform="translate(56.802 11.522) rotate(-22.5)" fill="#00223d"/>
    </g>
    <path id="Trazado_97194" data-name="Trazado 97194" d="M831.161,2527.653H629.684a1.191,1.191,0,0,1-1.19-1.191h0a1.19,1.19,0,0,1,1.19-1.19H831.161a1.19,1.19,0,0,1,1.19,1.19h0A1.191,1.191,0,0,1,831.161,2527.653Z" transform="translate(-258.586 -1560.179)" fill="#201d40"/>
    <g id="Grupo_46788" data-name="Grupo 46788" transform="translate(359.158 840.543)">
      <g id="Grupo_46746" data-name="Grupo 46746" transform="translate(67.103 5.72)">
        <path id="v-2" d="M1199.419,1625.026h0l3.092.011.7,7.3-3.61,1.906-3.85-1.884.622-7.326Z" transform="translate(-1187.935 -1608.04)" fill="#e49963"/>
        <g id="Grupo_46745" data-name="Grupo 46745">
          <path id="Trazado_97195" data-name="Trazado 97195" d="M1146.534,1504.524c1.9,4.756,6.475,7.4,10.21,5.905s5.221-6.562,3.317-11.318-6.474-7.4-10.21-5.905S1144.631,1499.768,1146.534,1504.524Z" transform="translate(-1143.547 -1490.762)" fill="#e49963"/>
          <path id="Trazado_97196" data-name="Trazado 97196" d="M1257.268,1553.858a.7.7,0,1,0,.175-.974A.7.7,0,0,0,1257.268,1553.858Z" transform="translate(-1242.378 -1543.948)"/>
          <path id="Trazado_97197" data-name="Trazado 97197" d="M1210.859,1572.055a.757.757,0,1,0,.189-1.054A.757.757,0,0,0,1210.859,1572.055Z" transform="translate(-1201.21 -1560.007)"/>
          <path id="Trazado_97198" data-name="Trazado 97198" d="M1248.857,1572.347c.946.746,2.129,1.646,2.129,1.646a1.837,1.837,0,0,1-1.321,1.635c.482-.437.905-1.019.4-1.692S1248.857,1572.347,1248.857,1572.347Z" transform="translate(-1235.03 -1561.321)" fill="#d68d5d"/>
          <g id="Grupo_46740" data-name="Grupo 46740" transform="translate(7.921 9.676)">
            <path id="Trazado_97199" data-name="Trazado 97199" d="M1196.994,1562.327a.352.352,0,0,1-.081-.01.349.349,0,0,1-.258-.42,1.863,1.863,0,0,1,1.7-1.487.349.349,0,1,1,0,.7c-.789,0-1.021.941-1.024.951A.349.349,0,0,1,1196.994,1562.327Z" transform="translate(-1196.645 -1560.41)" fill="#201d40"/>
          </g>
          <g id="Grupo_46741" data-name="Grupo 46741" transform="translate(13.867 7.331)">
            <path id="Trazado_97200" data-name="Trazado 97200" d="M1249.494,1540.782a.291.291,0,0,1-.25-.438,1.435,1.435,0,0,1,.9-.641,1.492,1.492,0,0,1,1.213.384.291.291,0,0,1-.364.455.946.946,0,0,0-.743-.267.842.842,0,0,0-.5.363A.292.292,0,0,1,1249.494,1540.782Z" transform="translate(-1249.203 -1539.683)" fill="#201d40"/>
          </g>
          <path id="Trazado_97201" data-name="Trazado 97201" d="M1127.017,1485.09a6.293,6.293,0,0,1,2.312-7.218s-1.052-.094-1.178-1.572a3.885,3.885,0,0,0,2.446-.053c5.227-1.892,8.826-1.867,8.826.37,0,.8,3.452.25,3.163,5.605.02-.378-1.213-2.579-2.379-2.8s-.113,1.338-2.549,1.673c-2.458.338-4.265-.259-5.767,1.126-1.175,1.209-1.466,7.361-1.287,7.731C1130.194,1489.1,1127.724,1487.1,1127.017,1485.09Z" transform="translate(-1126.629 -1474.88)" fill="#dbdada"/>
          <path id="Trazado_97202" data-name="Trazado 97202" d="M1175,1572.347a12.078,12.078,0,0,1-.18,3.654c-.419-1.119-1.318.067-2.163.178-2.041.27-5.722-.41-6.087,2.651-2.494.789-4.83-4.549-4.83-4.549-.143,5.964,4.221,9.351,10.5,8.358C1176.374,1581.986,1176.758,1576.224,1175,1572.347Z" transform="translate(-1157.76 -1561.321)" fill="#dbdada"/>
          <g id="Grupo_46742" data-name="Grupo 46742" transform="translate(11.55 15.093)">
            <path id="Trazado_97203" data-name="Trazado 97203" d="M1230.108,1609.943a5.3,5.3,0,0,1-1.26-.494.233.233,0,0,1,.22-.411,3.37,3.37,0,0,0,2.574.437,2.43,2.43,0,0,0,1.34-1.061.233.233,0,0,1,.412.216,2.863,2.863,0,0,1-1.608,1.287A3.147,3.147,0,0,1,1230.108,1609.943Z" transform="translate(-1228.725 -1608.291)" fill="#d68d5d"/>
          </g>
          <g id="Grupo_46744" data-name="Grupo 46744" transform="translate(0.948 12.668)">
            <path id="Trazado_97204" data-name="Trazado 97204" d="M1137.976,1587.19a1.821,1.821,0,1,1-2.776.488A2.014,2.014,0,0,1,1137.976,1587.19Z" transform="translate(-1135.008 -1586.858)" fill="#e49963"/>
            <g id="Grupo_46743" data-name="Grupo 46743" transform="translate(1.171 0.972)">
              <path id="Trazado_97205" data-name="Trazado 97205" d="M1147,1597.387a.268.268,0,0,0,.08-.091,1.19,1.19,0,0,0-.127-1.457,1.269,1.269,0,0,0-1.446-.265.263.263,0,1,0,.238.47.752.752,0,0,1,.831.162.674.674,0,0,1,.041.839.264.264,0,0,0,.383.341Z" transform="translate(-1145.361 -1595.453)" fill="#d68d5d"/>
            </g>
          </g>
        </g>
      </g>
      <path id="Trazado_97206" data-name="Trazado 97206" d="M1234.968,2471.712a2.857,2.857,0,0,1,2.065-1.986c2.735,3.772,9.45,1.458,9.227,6.561-10.212-.066-14.456,0-14.456,0a37.4,37.4,0,0,1,.451-5.043l.532.1Z" transform="translate(-1152.802 -2351.46)"/>
      <path id="Trazado_97207" data-name="Trazado 97207" d="M1099.914,2472.587a2.855,2.855,0,0,1,2.065-1.986c2.734,3.773,9.449,1.458,9.227,6.56-10.212-.066-14.456,0-14.456,0a37.452,37.452,0,0,1,.451-5.042l.532.1Z" transform="translate(-1033.028 -2352.237)"/>
      <path id="Trazado_97208" data-name="Trazado 97208" d="M1216.526,1960.59s1.658,24.181.984,29.557-3.059,12.268-2.788,30.05c-3.329.833-8.152,0-8.152,0s-.715-20.106,2.8-29.087c-1.431-8.723-6.023-28.7-6.023-28.7Z" transform="translate(-1127.569 -1899.922)" fill="#213755"/>
      <path id="Trazado_97209" data-name="Trazado 97209" d="M1112.064,1966.432s-3.348,27.147-4.986,32.3-4.835,9.5-7.8,27.02c-3.421.171-6.606,0-6.606,0s.462-22.22,5.79-27.273c.18-8.846-.862-31.869-.862-31.869Z" transform="translate(-1029.408 -1905.103)" fill="#344966"/>
      <g id="v" transform="translate(66.456 29.172)">
        <path id="h-5" d="M1121.672,1683.53s5.815-2.036,7.754-1.1c6.024,2.9,7.406,0,7.406,0,1.925.166,7.737,1.1,7.737,1.1,0,6.49.433,13,.315,17.914-.083,4.277.732,15.916.732,15.916a58.743,58.743,0,0,1-12.475,1.724,57.072,57.072,0,0,1-12.236-1.656s.324-11.789.593-16.17C1121.411,1696.347,1121.672,1690,1121.672,1683.53Z" transform="translate(-1120.905 -1682.183)" fill="#26aab7"/>
      </g>
      <g id="c" transform="translate(88.468 30.519)">
        <path id="c-2" data-name="c" d="M1327.47,1703.736c-2.4-5.726-9.522-9.368-10.336-9.646l-1.652,7.351a43,43,0,0,1,5.9,4.212c-.421,2.047-.35,4.054-1.536,6.643,0,0,1.029-1.42,2.3-.58,1.234.817,3.5-.85,3.5-.85A6.081,6.081,0,0,0,1327.47,1703.736Z" transform="translate(-1315.482 -1694.09)" fill="#8ec8c8"/>
      </g>
      <g id="c-3" data-name="c" transform="translate(58.697 30.519)">
        <g id="c-4" data-name="c" transform="translate(23.771 2.218)">
          <g id="c-5" data-name="c">
            <path id="c-6" data-name="c" d="M1283.906,1735.6a.661.661,0,0,0,.125.025h.136a.65.65,0,0,0,.552-.453l6.4-20.628a.658.658,0,0,0,.026-.125.671.671,0,0,0,0-.081c0-.016,0-.033,0-.049s-.006-.028-.008-.042a.648.648,0,0,0-.445-.516.673.673,0,0,0-.121-.026.685.685,0,0,0-.139,0h-16.107l-6.454,21.92h16.048Z" transform="translate(-1267.256 -1713.698)" fill="#dee7f3"/>
            <path id="c-7" data-name="c" d="M1269.656,1713.727a.65.65,0,0,0-.814.428l-6.358,20.577-.014.048a.65.65,0,0,0,.425.811h0a.65.65,0,0,0,.813-.427l6.374-20.624A.649.649,0,0,0,1269.656,1713.727Z" transform="translate(-1262.441 -1713.698)" fill="#00223d"/>
          </g>
        </g>
        <path id="c-8" data-name="c" d="M1431.258,1796.031a.669.669,0,0,1,.192-.084l-.021-.03a1.174,1.174,0,0,1,.06-1.614.7.7,0,0,1,.232-.1.971.971,0,0,1,.3-1.08.73.73,0,0,1,.416-.116.97.97,0,0,1,.317-1.131,1.138,1.138,0,0,1,1.239,1.868.811.811,0,0,1-.359.129,1.106,1.106,0,0,1-.162,1.438.7.7,0,0,1-.231.1.97.97,0,0,1-.3,1.08.72.72,0,0,1-.384.116.83.83,0,0,1-.253,1,.961.961,0,0,1-1.046-1.578Z" transform="translate(-1388.104 -1780.696)" fill="#e49963"/>
        <path id="Trazado_97210" data-name="Trazado 97210" d="M1258.746,1794.727l1.468-.851a2.775,2.775,0,0,1,2.764-2.133l-.659,2.133s1.161.9,3.913-.641c2.691-.6,1.541,1.357,2.433,1.5,1.316.208-.959,2.794-3.646,3.189-3.476.512-3.889-.2-3.889-.2l-1.967.688Z" transform="translate(-1235.393 -1780.696)" fill="#e49963"/>
        <path id="c-9" data-name="c" d="M1062.085,1710.346c4.907-.343,13.279-2.767,13.279-2.767a7.912,7.912,0,0,1,.969,4.784c-7.621,6.681-19.09,8.842-22.61,7.233-3.213-1.468-.945-21.026,7.122-25.506h0C1063.611,1698.769,1062.085,1710.346,1062.085,1710.346Z" transform="translate(-1052.319 -1694.09)" fill="#8ec8c8"/>
      </g>
      <g id="Grupo_46755" data-name="Grupo 46755" transform="translate(120.362 0)">
        <path id="Trazado_97211" data-name="Trazado 97211" d="M1765.4,2471.244c-2.735,3.647-9.449,1.409-9.228,6.343,10.212-.063,14.456,0,14.456,0a35.013,35.013,0,0,0-.451-4.875Z" transform="translate(-1738.207 -2352.807)" fill="#f5ca56"/>
        <path id="Trazado_97212" data-name="Trazado 97212" d="M1900.453,2472.088c-2.734,3.647-9.449,1.409-9.227,6.342,10.212-.063,14.456,0,14.456,0a34.987,34.987,0,0,0-.451-4.875Z" transform="translate(-1857.982 -2353.555)" fill="#f5ca56"/>
        <path id="Trazado_97213" data-name="Trazado 97213" d="M1787.013,1979.039s-1.658,23.377-.984,28.574,3.059,11.86,2.788,29.05c3.329.806,8.152,0,8.152,0s.715-19.437-2.8-28.119c1.431-8.433,6.023-27.749,6.023-27.749Z" transform="translate(-1764.548 -1916.284)" fill="#00223d"/>
        <path id="Trazado_97214" data-name="Trazado 97214" d="M1851.69,1984.686s3.348,26.244,4.987,31.222,4.835,9.187,7.8,26.122a35.532,35.532,0,0,0,7.5-.677s-1.353-20.8-6.68-25.688c-.18-8.553.861-30.81.861-30.81Z" transform="translate(-1822.924 -1921.292)" fill="#00223d"/>
        <g id="Grupo_46752" data-name="Grupo 46752" transform="translate(27.423 6.03)">
          <g id="Grupo_46751" data-name="Grupo 46751">
            <g id="Grupo_46750" data-name="Grupo 46750">
              <path id="Trazado_97215" data-name="Trazado 97215" d="M1864.914,1517.435c-1.815,4.534-6.173,7.055-9.734,5.63s-4.978-6.256-3.163-10.791,6.173-7.055,9.734-5.63S1866.729,1512.9,1864.914,1517.435Z" transform="translate(-1849.936 -1503.008)" fill="#e49963"/>
              <path id="Trazado_97216" data-name="Trazado 97216" d="M1862.379,1564.469a.667.667,0,1,1-.167-.928A.667.667,0,0,1,1862.379,1564.469Z" transform="translate(-1858.749 -1553.715)"/>
              <path id="Trazado_97217" data-name="Trazado 97217" d="M1905.761,1581.818a.722.722,0,1,1-.181-1.005A.723.723,0,0,1,1905.761,1581.818Z" transform="translate(-1897.134 -1569.024)"/>
              <path id="Trazado_97218" data-name="Trazado 97218" d="M1864.947,1582.1c-.9.711-2.029,1.569-2.029,1.569a1.75,1.75,0,0,0,1.259,1.558c-.46-.417-.863-.972-.385-1.613S1864.947,1582.1,1864.947,1582.1Z" transform="translate(-1860.304 -1570.278)" fill="#d68d5d"/>
              <g id="Grupo_46747" data-name="Grupo 46747" transform="translate(8.31 10.532)">
                <path id="Trazado_97219" data-name="Trazado 97219" d="M1914.908,1572.543a.334.334,0,0,1-.324-.256c-.009-.035-.232-.9-.976-.906a.333.333,0,1,1,0-.666,1.775,1.775,0,0,1,1.62,1.418.332.332,0,0,1-.246.4A.327.327,0,0,1,1914.908,1572.543Z" transform="translate(-1913.277 -1570.715)"/>
              </g>
              <g id="Grupo_46748" data-name="Grupo 46748" transform="translate(2.453 8.296)">
                <path id="Trazado_97220" data-name="Trazado 97220" d="M1863.373,1552a.276.276,0,0,1-.239-.135.81.81,0,0,0-.482-.348.906.906,0,0,0-.7.255.277.277,0,1,1-.347-.433,1.421,1.421,0,0,1,1.156-.366,1.367,1.367,0,0,1,.855.611.277.277,0,0,1-.239.418Z" transform="translate(-1861.497 -1550.955)"/>
              </g>
              <path id="Trazado_97221" data-name="Trazado 97221" d="M1853.529,1492.521c-1.312-4.219.347-6.461.347-6.461-1.127-.226-1.565.164-1.565.164a2.5,2.5,0,0,1-.138-2.166c-2.329-.908-3.488.6-5.59,1.108-2.877.7-6.431-.452-6.763-3.964a.6.6,0,0,1,.935-.553,2.645,2.645,0,0,0,1.568.458,2.823,2.823,0,0,1-.634-1.62.6.6,0,0,1,.99-.467,4.277,4.277,0,0,0,3.686.6c1.317-.246,4.332-2.356,6.209-1.944a4.628,4.628,0,0,1,3.277,3.513,4.823,4.823,0,0,1,4.152,4.544c.372,4.08-4.354,7.21-4.354,7.21Z" transform="translate(-1839.818 -1477.62)" fill="#3c4973"/>
              <path id="Trazado_97222" data-name="Trazado 97222" d="M1947.415,1600.6a1.736,1.736,0,1,0,2.648.456A1.92,1.92,0,0,0,1947.415,1600.6Z" transform="translate(-1934.217 -1586.405)" fill="#e49963"/>
              <g id="Grupo_46749" data-name="Grupo 46749" transform="translate(13.101 14.804)">
                <path id="Trazado_97223" data-name="Trazado 97223" d="M1955.881,1610.325a.25.25,0,0,1-.077-.086,1.135,1.135,0,0,1,.115-1.39,1.21,1.21,0,0,1,1.378-.258.251.251,0,1,1-.225.449.716.716,0,0,0-.791.158.642.642,0,0,0-.036.8.251.251,0,0,1-.364.326Z" transform="translate(-1955.623 -1608.478)" fill="#d68d5d"/>
              </g>
              <path id="Trazado_97224" data-name="Trazado 97224" d="M1864.489,1620.008a.213.213,0,0,1,.225-.32,15.087,15.087,0,0,0,3.988.356.212.212,0,0,1,.164.354,2.654,2.654,0,0,1-4.377-.391Z" transform="translate(-1861.67 -1603.611)" fill="#fff"/>
            </g>
          </g>
        </g>
        <path id="Trazado_97225" data-name="Trazado 97225" d="M1677.624,1672.227s.17-.462-14.525-.343l-3.94,4.657c4.078,3.269,17.734,3.85,17.734,3.85Z" transform="translate(-1652.174 -1643.86)" fill="#00223d"/>
        <path id="Trazado_97226" data-name="Trazado 97226" d="M1869.579,1668.33l4.635-.433,4.484,1.251-5.052,5.2Z" transform="translate(-1838.789 -1640.342)" fill="#f9c869"/>
        <path id="Trazado_97227" data-name="Trazado 97227" d="M1883.782,1644.722c1.889,1.551,2.275,2.623,6.287.55l.6-6.169-6.532-.515Z" transform="translate(-1851.385 -1614.348)" fill="#e49963"/>
        <path id="Trazado_97228" data-name="Trazado 97228" d="M1817.237,1675.023h0l-1.374-.544.184-1.94-3.81,3.06-1.076.171-1.029-.36-3.2-3.689-.164,1.942-1.212.243h0l-4.37.708-.521,24.259-1.724,8.254a41.6,41.6,0,0,0,18.661,1.531l-.214-8.286,4.529-23.709Z" transform="translate(-1776.138 -1643.734)" fill="#f5ca56"/>
        <path id="Trazado_97229" data-name="Trazado 97229" d="M1878.127,1729.174l-2.738,18.523,1.516,2.106,1.977-1.519.672-18.957Z" transform="translate(-1843.942 -1694.686)" fill="#00223d"/>
        <path id="Trazado_97230" data-name="Trazado 97230" d="M1898.15,1707.776l1-.264,1.02.445-.431,2.2-1.435-.129Z" transform="translate(-1864.128 -1675.474)" fill="#00223d"/>
        <g id="Grupo_46753" data-name="Grupo 46753" transform="translate(19.517 28.144)">
          <path id="Trazado_97231" data-name="Trazado 97231" d="M1781.142,1673.094l-.687,22.374-2.961,14.408s-4.683-.472-7.561-3.211l3.688-10.846,1.261-22.666Z" transform="translate(-1769.933 -1673.094)" fill="#00223d"/>
          <path id="Trazado_97232" data-name="Trazado 97232" d="M1836.939,1673.094l-.683,22.074-3.409-16.917Z" transform="translate(-1825.73 -1673.094)" fill="#00223d"/>
        </g>
        <g id="Grupo_46754" data-name="Grupo 46754" transform="translate(34.178 29.575)">
          <path id="Trazado_97233" data-name="Trazado 97233" d="M1905.607,1685.745l-6.082,36.273s8.071.991,11.389-1.191l-1.8-11.924,2.2-20.243Z" transform="translate(-1899.525 -1685.745)" fill="#00223d"/>
          <path id="Trazado_97234" data-name="Trazado 97234" d="M1925.421,1685.745l-3.554,21.26,6.365-16.04Z" transform="translate(-1919.339 -1685.745)" fill="#00223d"/>
        </g>
        <path id="Trazado_97235" data-name="Trazado 97235" d="M1597.485,1432.561c.324,1.132.42,2.352,1.855,2.962,0,0-.212,3.755-.054,6.837,0,0,3.474-3.917,3.473-3.92a20.649,20.649,0,0,1-.169-4.924c.05-.346.118-.691.172-1.038a3.888,3.888,0,0,0-.116-2.72c-1.982-3.927-1.315-5.22-1.588-5.411-.444-.2-1.487.594-.9,2.524a7.062,7.062,0,0,1,.43,2.784s-1.5-.283-2.03.241C1598.32,1430.135,1597.107,1431.238,1597.485,1432.561Z" transform="translate(-1597.412 -1424.318)" fill="#e49963"/>
        <path id="Trazado_97236" data-name="Trazado 97236" d="M1605.179,1536.3a13.329,13.329,0,0,1,4.665-.979c3.722,11.092,6.375,15.271,5.269,18.456-.922,2.655-3.842,2.443-5.269.453C1607.961,1551.61,1606.294,1541.64,1605.179,1536.3Z" transform="translate(-1604.301 -1522.767)" fill="#00223d"/>
        <path id="Trazado_97237" data-name="Trazado 97237" d="M1986.48,1711.508l11.726,18.346,13.927,7.864-4.292,4.274-13.973-6.125-9.589-13.531Z" transform="translate(-1940.513 -1679.019)" fill="#00223d"/>
        <path id="Trazado_97238" data-name="Trazado 97238" d="M1866.336,1675.771a9.639,9.639,0,0,1-3.311,2.187l-1.875-4.959.954-1.277Z" transform="translate(-1831.313 -1643.734)" fill="#fff"/>
        <path id="Trazado_97239" data-name="Trazado 97239" d="M1907,1682.182a8.31,8.31,0,0,0,2.869,2.741l2.729-4.532-.712-1.441Z" transform="translate(-1871.974 -1650.145)" fill="#fff"/>
      </g>
      <g id="с" transform="translate(61.403 78.401)">
        <g id="Grupo_46756" data-name="Grupo 46756" transform="translate(41.348 3.615)">
          <path id="Trazado_97240" data-name="Trazado 97240" d="M1443.117,2192.862h0a1.382,1.382,0,0,1-1.157-2.136l27.034-41.429,2.314,1.51-27.034,41.429A1.381,1.381,0,0,1,1443.117,2192.862Z" transform="translate(-1441.733 -2149.296)" fill="#201d40"/>
        </g>
        <g id="Grupo_46757" data-name="Grupo 46757" transform="translate(40.18 3.615)">
          <path id="Trazado_97241" data-name="Trazado 97241" d="M1459.6,2192.862h0a1.381,1.381,0,0,0,1.157-2.136l-27.034-41.429-2.314,1.51,27.034,41.429A1.381,1.381,0,0,0,1459.6,2192.862Z" transform="translate(-1431.413 -2149.296)" fill="#201d40"/>
        </g>
        <path id="с-2" data-name="с" d="M1182.986,2123.206H1080.6c-2.406,0-4.357-1.313-4.357-2.932h0c0-1.619,1.951-2.932,4.357-2.932h102.39c2.406,0,4.357,1.313,4.357,2.932h0C1187.343,2121.894,1185.392,2123.206,1182.986,2123.206Z" transform="translate(-1076.239 -2117.342)" fill="#201d40"/>
      </g>
      <g id="с-3" data-name="с" transform="translate(167.304 62.188)">
        <path id="с-4" data-name="с" d="M2045.476,2334.378h0a1.324,1.324,0,0,1-1.323-1.323V2309.6h2.647v23.45A1.324,1.324,0,0,1,2045.476,2334.378Z" transform="translate(-2040.554 -2271.642)" fill="#201d40"/>
        <path id="с-5" data-name="с" d="M2127.569,2334.378h0a1.323,1.323,0,0,1-1.323-1.323V2309.6h2.647v23.45A1.324,1.324,0,0,1,2127.569,2334.378Z" transform="translate(-2113.36 -2271.642)" fill="#201d40"/>
        <path id="с-6" data-name="с" d="M2235.291,2334.378h0a1.324,1.324,0,0,1-1.324-1.323V2309.6h2.647v23.45A1.324,1.324,0,0,1,2235.291,2334.378Z" transform="translate(-2208.896 -2271.642)" fill="#201d40"/>
        <path id="с-7" data-name="с" d="M2317.385,2334.378h0a1.324,1.324,0,0,1-1.323-1.323V2309.6h2.647v23.45A1.324,1.324,0,0,1,2317.385,2334.378Z" transform="translate(-2281.703 -2271.642)" fill="#201d40"/>
        <path id="с-8" data-name="с" d="M2033.387,1977.193V2005.1a.575.575,0,0,1-.575.575h-17.3a3.161,3.161,0,0,0-3.161,3.16h0a3.161,3.161,0,0,0,3.161,3.161h21.038a3.161,3.161,0,0,0,3.161-3.161v-31.641a3.161,3.161,0,0,0-3.161-3.161h0A3.161,3.161,0,0,0,2033.387,1977.193Z" transform="translate(-2012.349 -1974.032)" fill="#344966"/>
        <rect id="с-9" data-name="с" width="13.68" height="32.154" transform="translate(24.199 0)" fill="#344966"/>
        <path id="с-10" data-name="с" d="M2154.308,1977.193V2005.1a.575.575,0,0,1-.575.575h-17.3a3.161,3.161,0,0,0-3.16,3.16h0a3.161,3.161,0,0,0,3.16,3.161h21.038a3.161,3.161,0,0,0,3.161-3.161v-31.641a3.16,3.16,0,0,0-3.161-3.161h0A3.16,3.16,0,0,0,2154.308,1977.193Z" transform="translate(-2119.591 -1974.032)" fill="#201d40"/>
      </g>
      <g id="Grupo_46762" data-name="Grupo 46762" transform="translate(128.089 31.367)">
        <path id="Trazado_97242" data-name="Trazado 97242" d="M2093.594,1724.9c-2.919-1.053-7.428-3.356-4.431-7.563s2.92-2.371,1.842-7.482,2.555-9.131,6.02-8.114,4.348,3.821,8.595,3.111,7.777,3.262,6.178,6.707-2.281,5.1-.787,7.009,8.229,3.96,5.42,8.527-4.1,4.287-3.121,6.628-1.274,5.007-5.179,4.643-7.439-1.84-8.871-6.2S2093.594,1724.9,2093.594,1724.9Z" transform="translate(-2040.382 -1701.588)" fill="#3c4973"/>
        <path id="Trazado_97243" data-name="Trazado 97243" d="M2011.005,2460.177l-2.307.689-1.737-1.776a8.585,8.585,0,0,0-.265-2.581l4.309-.715A37.339,37.339,0,0,1,2011.005,2460.177Z" transform="translate(-1968.121 -2370.471)" fill="#e49963"/>
        <path id="Trazado_97244" data-name="Trazado 97244" d="M1950.737,2484.413a2.361,2.361,0,0,0-1.721-1.6c-2.279,3.04-7.875,1.174-7.69,5.286,8.51-.053,12.047,0,12.047,0a29.1,29.1,0,0,0-.376-4.063l-.443.078Z" transform="translate(-1910.141 -2394.434)" fill="#36c"/>
        <path id="Trazado_97245" data-name="Trazado 97245" d="M1879.516,2462.844l-2.4.164-1.381-1.471a13.992,13.992,0,0,0,.386-3.22l4.049.18A37.43,37.43,0,0,1,1879.516,2462.844Z" transform="translate(-1851.973 -2372.71)" fill="#e49963"/>
        <path id="Trazado_97246" data-name="Trazado 97246" d="M1816.438,2484.413a2.361,2.361,0,0,0-1.721-1.6c-2.279,3.04-7.875,1.174-7.69,5.286,8.51-.053,12.047,0,12.047,0a29.187,29.187,0,0,0-.376-4.063l-.443.078Z" transform="translate(-1791.036 -2394.434)" fill="#36c"/>
        <path id="Trazado_97247" data-name="Trazado 97247" d="M1903.805,2141.893c-6.557.883-25.027,7.727-26.057,8.966-2.126,2.558-1.005,16.476-2.016,27.961l5.368.317c2.572-9.353,2.367-13.389,3.53-24.117,0,0,21.1,1.58,28.727-3.566C1921.22,2146.146,1909.107,2140.636,1903.805,2141.893Z" transform="translate(-1851.973 -2091.921)" fill="#5b7393"/>
        <path id="Trazado_97248" data-name="Trazado 97248" d="M1931.159,2022.791c1.549.264,2.146,1.507,2.52,3.8-5.9,3.478-14.673,3.726-14.673,3.726l-2.8-1.383S1923.243,2026.4,1931.159,2022.791Z" transform="translate(-1887.872 -1986.454)" fill="#d68d5d"/>
        <path id="Trazado_97249" data-name="Trazado 97249" d="M2064.791,1909.222c-2.583,3.754-12.48,11.827-14.118,12.081l-1.984-5.554s9.662-10.458,11.422-12.307C2063.148,1900.234,2069.02,1903.1,2064.791,1909.222Z" transform="translate(-2005.362 -1879.429)" fill="#d68d5d"/>
        <path id="Trazado_97250" data-name="Trazado 97250" d="M2094.825,1905.3c2.071-2.232,4.769-7.271,8.281-6.913s3.764,4.084,2.706,6.091-4.713,6.95-4.713,6.95Z" transform="translate(-2046.28 -1876.109)" fill="#36c"/>
        <path id="Trazado_97251" data-name="Trazado 97251" d="M1955.892,2043.109c1.488.512,2.338,5.2,1.92,5.559-6.38,2.527-19.655-.206-19.655-.206l-.7-2.4A104.587,104.587,0,0,0,1955.892,2043.109Z" transform="translate(-1906.71 -2004.473)" fill="#e49963"/>
        <path id="Trazado_97252" data-name="Trazado 97252" d="M2126.992,1920.69c-1.459-7.527-2.088-10.195-2.694-13.737-1.5-8.755,2.906-14.908-4.643-19.1l-5.5.887c-4.449,4.681-7.188,8.93-7.423,11.865-.323,3.786,3.434,5.841,3.434,5.841l-1.512,10.308s-.355.842,5.85,2.014S2126.992,1920.69,2126.992,1920.69Z" transform="translate(-2056.819 -1866.778)" fill="#36c"/>
        <path id="Trazado_97253" data-name="Trazado 97253" d="M2116.917,1918.017c-2.583,3.8-13.622,13.448-15.281,13.533l-1.188-5.759s10.028-11.752,11.787-13.622C2115.274,1908.926,2121.146,1911.825,2116.917,1918.017Z" transform="translate(-2051.266 -1887.156)" fill="#e49963"/>
        <path id="Trazado_97254" data-name="Trazado 97254" d="M2152.735,1914.728c1.927-2.805,5.816-7.98,9.327-7.622s3.765,4.084,2.707,6.09-4.713,6.95-4.713,6.95Z" transform="translate(-2097.638 -1883.84)" fill="#36c"/>
        <path id="Trazado_97255" data-name="Trazado 97255" d="M1873.02,2064.286c-2.029-.5-6.442-1.981-8.219,2.666.446.853,2.079-1.253,2.781-1.448a3.034,3.034,0,0,1,2.913,1.082c1.209,1.156,3.23.1,3.23.1Z" transform="translate(-1842.278 -2022.702)" fill="#e49963"/>
        <g id="Grupo_46758" data-name="Grupo 46758" transform="translate(0 27.446)">
          <path id="Trazado_97256" data-name="Trazado 97256" d="M1774.033,2096.84h-19.065v-2.56h21.625A2.56,2.56,0,0,1,1774.033,2096.84Z" transform="translate(-1744.87 -2077.301)" fill="#3c4973"/>
          <path id="Trazado_97257" data-name="Trazado 97257" d="M1666,1947.652l9.8,16.082,2.266-1.191-10.994-18.348h0A2.56,2.56,0,0,0,1666,1947.652Z" transform="translate(-1665.708 -1944.195)" fill="#3c4973"/>
        </g>
        <path id="Trazado_97258" data-name="Trazado 97258" d="M2155.1,1758.187c-.927,3.872-4.144,6.421-7.185,5.693s-4.755-4.457-3.828-8.329,4.144-6.42,7.185-5.692S2156.029,1754.316,2155.1,1758.187Z" transform="translate(-2089.747 -1744.287)" fill="#e49963"/>
        <path id="Trazado_97259" data-name="Trazado 97259" d="M2184.911,1842.481l-5.054,3.133s-.448,2.233-.672,2.958c-.462,1.5,1.308,2.149,2.8,1.218a4.377,4.377,0,0,0,1.876-2.176Z" transform="translate(-2121.03 -1826.542)" fill="#e49963"/>
        <path id="Trazado_97260" data-name="Trazado 97260" d="M2142.988,1746.591c1.436.124,4.547-.126,5.682-1.471.809,2.732,4.248,5.332,7.091,6.551.115-2.8.094-7.959-4.931-10.1C2146.883,1739.887,2142.988,1746.591,2142.988,1746.591Z" transform="translate(-2088.994 -1736.807)" fill="#3c4973"/>
        <path id="Trazado_97261" data-name="Trazado 97261" d="M2150.58,1803.973a.544.544,0,1,1-.244-.729A.544.544,0,0,1,2150.58,1803.973Z" transform="translate(-2094.813 -1791.693)"/>
        <path id="Trazado_97262" data-name="Trazado 97262" d="M2187.667,1812.779a.589.589,0,1,1-.264-.789A.588.588,0,0,1,2187.667,1812.779Z" transform="translate(-2127.629 -1799.445)"/>
        <g id="Grupo_46759" data-name="Grupo 46759" transform="translate(59.319 11.58)">
          <path id="Trazado_97263" data-name="Trazado 97263" d="M2191.43,1805.217a.2.2,0,0,1-.094-.1,1.56,1.56,0,0,0-1.1-.761.2.2,0,0,1,.058-.405,1.95,1.95,0,0,1,1.414.995.2.2,0,0,1-.1.272A.2.2,0,0,1,2191.43,1805.217Z" transform="translate(-2190.06 -1803.951)" fill="#2e2d57"/>
        </g>
        <g id="Grupo_46760" data-name="Grupo 46760" transform="translate(54.468 10.751)">
          <path id="Trazado_97264" data-name="Trazado 97264" d="M2147.287,1797.364a.205.205,0,0,1-.053-.329,1.438,1.438,0,0,1,1.427-.35.2.2,0,0,1-.133.387,1.028,1.028,0,0,0-1.007.254A.2.2,0,0,1,2147.287,1797.364Z" transform="translate(-2147.174 -1796.623)" fill="#2e2d57"/>
        </g>
        <path id="Trazado_97265" data-name="Trazado 97265" d="M2154.353,1820.356a5.441,5.441,0,0,1-.845.8.216.216,0,0,0-.071.287,2.961,2.961,0,0,0,1.314.919.057.057,0,0,0,.06-.1,2.793,2.793,0,0,1-.669-.781.254.254,0,0,1,0-.233c.085-.168.255-.512.37-.8A.1.1,0,0,0,2154.353,1820.356Z" transform="translate(-2098.236 -1806.893)" fill="#d68d5d"/>
        <path id="Trazado_97266" data-name="Trazado 97266" d="M2224.712,1821.413a1.415,1.415,0,1,0,2.189.054A1.565,1.565,0,0,0,2224.712,1821.413Z" transform="translate(-2160.821 -1807.489)" fill="#e49963"/>
        <g id="Grupo_46761" data-name="Grupo 46761" transform="translate(64.006 14.276)">
          <path id="Trazado_97267" data-name="Trazado 97267" d="M2231.792,1829.387a.2.2,0,0,1-.072-.06.926.926,0,0,1-.071-1.135.987.987,0,0,1,1.081-.371.2.2,0,1,1-.128.389.584.584,0,0,0-.62.221.524.524,0,0,0,.067.65.2.2,0,0,1-.255.306Z" transform="translate(-2231.486 -1827.777)" fill="#d68d5d"/>
        </g>
        <path id="Trazado_97268" data-name="Trazado 97268" d="M1980,2150.33c-6.557.883-25.055,6.878-26.084,8.116-2.127,2.558,2.607,13.512,4.122,27.615h6.329c-.066-10.049.737-19.292-2.355-22.567,0,0,17.731-1.184,26.57-1.184C1993.087,2162.31,1995.58,2147.085,1980,2150.33Z" transform="translate(-1920.832 -2099.162)" fill="#5b7393"/>
        <path id="Trazado_97269" data-name="Trazado 97269" d="M2159.043,1847.3a.166.166,0,0,1,.153-.265,11.839,11.839,0,0,0,3.14,0,.167.167,0,0,1,.152.266,2.08,2.08,0,0,1-3.445,0Z" transform="translate(-2103.203 -1830.579)" fill="#fff"/>
      </g>
      <g id="с-11" data-name="с" transform="translate(24.27 62.188)">
        <path id="с-12" data-name="с" d="M1056.9,2334.378h0a1.324,1.324,0,0,0,1.324-1.323V2309.6h-2.647v23.45A1.324,1.324,0,0,0,1056.9,2334.378Z" transform="translate(-1020.779 -2271.642)" fill="#201d40"/>
        <path id="с-13" data-name="с" d="M974.8,2334.378h0a1.324,1.324,0,0,0,1.323-1.323V2309.6h-2.647v23.45A1.324,1.324,0,0,0,974.8,2334.378Z" transform="translate(-947.971 -2271.642)" fill="#201d40"/>
        <path id="с-14" data-name="с" d="M867.081,2334.378h0a1.324,1.324,0,0,0,1.323-1.323V2309.6h-2.647v23.45A1.324,1.324,0,0,0,867.081,2334.378Z" transform="translate(-852.436 -2271.642)" fill="#201d40"/>
        <path id="с-15" data-name="с" d="M784.987,2334.378h0a1.324,1.324,0,0,0,1.323-1.323V2309.6h-2.647v23.45A1.324,1.324,0,0,0,784.987,2334.378Z" transform="translate(-779.63 -2271.642)" fill="#201d40"/>
        <path id="с-16" data-name="с" d="M875.252,1977.193V2005.1a.575.575,0,0,0,.575.575h17.3a3.161,3.161,0,0,1,3.161,3.16h0a3.161,3.161,0,0,1-3.161,3.161H872.091a3.161,3.161,0,0,1-3.161-3.161v-31.641a3.161,3.161,0,0,1,3.161-3.161h0A3.161,3.161,0,0,1,875.252,1977.193Z" transform="translate(-855.25 -1974.032)" fill="#344966"/>
        <rect id="с-17" data-name="с" width="13.68" height="32.154" transform="translate(16.84 32.154) rotate(180)" fill="#344966"/>
        <path id="с-18" data-name="с" d="M754.331,1977.193V2005.1a.575.575,0,0,0,.575.575h17.3a3.161,3.161,0,0,1,3.161,3.16h0a3.161,3.161,0,0,1-3.161,3.161H751.17a3.161,3.161,0,0,1-3.161-3.161v-31.641a3.161,3.161,0,0,1,3.161-3.161h0A3.161,3.161,0,0,1,754.331,1977.193Z" transform="translate(-748.009 -1974.032)" fill="#201d40"/>
      </g>
      <g id="Grupo_46787" data-name="Grupo 46787" transform="translate(0 34.274)">
        <g id="Grupo_46763" data-name="Grupo 46763" transform="translate(42.446 22.754)">
          <path id="Trazado_97270" data-name="Trazado 97270" d="M1039.589,2047.152c-1.252.834-.905,5.374-.433,5.6,6.51.8,17.507-4.6,17.507-4.6l.431-2.413A112.908,112.908,0,0,1,1039.589,2047.152Z" transform="translate(-1024.013 -2032.473)" fill="#e49963"/>
          <path id="Trazado_97271" data-name="Trazado 97271" d="M909.947,1935.23c2.328,3.722,12.515,13.346,14.1,13.489l1.346-5.456s-9.145-11.594-10.756-13.445C911.851,1926.607,906.136,1929.161,909.947,1935.23Z" transform="translate(-908.677 -1928.424)" fill="#e49963"/>
        </g>
        <path id="Trazado_97272" data-name="Trazado 97272" d="M792.5,1736.959c.28-3.811-.822-7.177-3.861-8.892-3.08-1.738-6.938-.033-6.938-.033h0s-3.266-1.162-6.225,2.1-.721,6.129-1.932,8.506c-.717,1.408-4.363,1.7-3.421,6.285.272,1.323,1.862,2.213,3.21,2.3,2.367.155,4.572-.76,5.531.155,3.162,3.016,10.17,1.925,11.15-.834.3-.855,6.608.8,5.979-5.026C795.671,1738.569,792.246,1740.365,792.5,1736.959Z" transform="translate(-743.211 -1727.286)" fill="#3c4973"/>
        <g id="Grupo_46766" data-name="Grupo 46766" transform="translate(36.627 21.068)">
          <g id="Grupo_46765" data-name="Grupo 46765">
            <g id="Grupo_46764" data-name="Grupo 46764">
              <path id="Trazado_97273" data-name="Trazado 97273" d="M864.117,1914.437l-5-.924-1.877,2.5,3.988,8.177,5.866-4.979Z" transform="translate(-857.235 -1913.513)" fill="#e49963"/>
            </g>
          </g>
        </g>
        <g id="Grupo_46769" data-name="Grupo 46769" transform="translate(30.604 21.061)">
          <g id="Grupo_46768" data-name="Grupo 46768">
            <g id="Grupo_46767" data-name="Grupo 46767">
              <path id="Trazado_97274" data-name="Trazado 97274" d="M823.387,1934.105c-.086-1.556,2.429-7.945,1.105-11.161-.964-2.587-2.574-6.93-4.546-7.654-.93-.342-1.887-.58-3.046-.9,0,0,.654,3.26-.709,3.369-2.624.21-4.3-4.293-4.3-4.293-1.415-.135-7.9,2-7.9,2.53.015,4.173,3.406,10.261,4.514,14.773.436,4.873-1.264,10.7-1.27,11.258,0,0,10.438,2.934,16.625-.472C823.994,1941.08,823.5,1936.253,823.387,1934.105Z" transform="translate(-803.995 -1913.459)" fill="#5b7393"/>
            </g>
          </g>
        </g>
        <path id="Trazado_97275" data-name="Trazado 97275" d="M823.562,2121.723a57.82,57.82,0,0,0-2.866,9.473c-.562,3.66,2.609,6.008,2.609,6.008h26.372s2.823-4.579,2.01-7.74S849,2125.8,849,2125.8Z" transform="translate(-788.143 -2077.102)" fill="#5b7393"/>
        <path id="Trazado_97276" data-name="Trazado 97276" d="M944.853,2156.01c-3.367-.475-13.139,3.321-17.305,11.567H939.2Z" transform="translate(-882.967 -2107.473)" fill="#d68d5d"/>
        <g id="Grupo_46770" data-name="Grupo 46770" transform="translate(58.194 48.398)">
          <path id="Trazado_97277" data-name="Trazado 97277" d="M1047.879,2158.271a9.383,9.383,0,0,0,1.178-1.676,2.907,2.907,0,0,1,4.688-.549c4.86,5.358,15.221,17.574,17.531,19.094.653.43,4.461,2.622,8.081,2.188,0,0,1.787.68.6,2.1-.613.73-9.812,1.485-9.812,1.485l-.717-2.7c-5.355-3.963-12.022-3.678-17.675-10.925A21.777,21.777,0,0,1,1047.879,2158.271Z" transform="translate(-1047.879 -2155.098)" fill="#d68d5d"/>
          <path id="Trazado_97278" data-name="Trazado 97278" d="M1237.371,2346.036l3.7,2.4.509-.606-3-2.8c1.706-1.346,5.656-.223,5.656-.223,1.294-.836,3.817-3.547,4.077-5-.829-1.032-3.588,1.092-3.588,1.092a3.387,3.387,0,0,1-1.464,2.326,12.9,12.9,0,0,1-8.47-1.451S1232.742,2344.881,1237.371,2346.036Z" transform="translate(-1213.245 -2318.662)" fill="#f1a34f"/>
        </g>
        <g id="Grupo_46771" data-name="Grupo 46771" transform="translate(56.134 52.243)">
          <path id="Trazado_97279" data-name="Trazado 97279" d="M1031.672,2189.146a1.743,1.743,0,0,0-1.275,1.437c-.264,1.87-1.625,5.658.217,9.625,4.523,9.737,7.193,16.154,7.667,18.666-1.181,2.213,3.529,8.256,3.6,8.652l3.39-1.061s-1.945-2.894-2.646-4.027c-1.668-2.7-1.941-6.01-2.212-8.576-1.157-10.958.833-17.876-7.1-24.3A1.85,1.85,0,0,0,1031.672,2189.146Z" transform="translate(-1029.666 -2189.091)" fill="#e49963"/>
          <path id="Trazado_97280" data-name="Trazado 97280" d="M1086.584,2457l.334,4.4.791.037.406-4.086c2.1.541,3.608,4.363,3.608,4.363,1.449.522,5.135.885,6.448.21.319-1.285-3.044-2.191-3.044-2.191a3.39,3.39,0,0,1-2.737.246,13.108,13.108,0,0,1-4.116-7.615S1084.7,2452.618,1086.584,2457Z" transform="translate(-1079.657 -2422.58)" fill="#f1a34f"/>
        </g>
        <g id="Grupo_46774" data-name="Grupo 46774" transform="translate(38.18 17.296)">
          <g id="Grupo_46773" data-name="Grupo 46773">
            <g id="Grupo_46772" data-name="Grupo 46772">
              <path id="Trazado_97281" data-name="Trazado 97281" d="M875.027,1880.778l-4.064-.608.324,3.772s.778,1.709,1.68,1.824l3.325-.9Z" transform="translate(-870.963 -1880.17)" fill="#e49963"/>
            </g>
          </g>
        </g>
        <g id="Grupo_46778" data-name="Grupo 46778" transform="translate(33.317 2.885)">
          <path id="Trazado_97282" data-name="Trazado 97282" d="M835.493,1762.351c1.049,4.381,4.689,7.265,8.13,6.441s5.38-5.044,4.331-9.425-4.689-7.265-8.13-6.441S834.445,1757.969,835.493,1762.351Z" transform="translate(-834.39 -1752.785)" fill="#e49963"/>
          <path id="Trazado_97283" data-name="Trazado 97283" d="M933.117,1814.163a.615.615,0,1,0,.276-.825A.616.616,0,0,0,933.117,1814.163Z" transform="translate(-921.165 -1806.43)"/>
          <path id="Trazado_97284" data-name="Trazado 97284" d="M890.352,1824.127a.666.666,0,1,0,.3-.893A.666.666,0,0,0,890.352,1824.127Z" transform="translate(-883.233 -1815.202)"/>
          <g id="Grupo_46775" data-name="Grupo 46775" transform="translate(6.047 6.941)">
            <path id="Trazado_97285" data-name="Trazado 97285" d="M881.763,1815.57a.23.23,0,0,0,.107-.11,1.766,1.766,0,0,1,1.245-.862.232.232,0,0,0-.065-.459,2.2,2.2,0,0,0-1.6,1.126.232.232,0,0,0,.314.3Z" transform="translate(-881.428 -1814.137)" fill="#2e2d57"/>
          </g>
          <g id="Grupo_46776" data-name="Grupo 46776" transform="translate(11.583 6.003)">
            <path id="Trazado_97286" data-name="Trazado 97286" d="M932.075,1806.683a.234.234,0,0,0,.062-.045.231.231,0,0,0,0-.327,1.626,1.626,0,0,0-1.614-.4.232.232,0,0,0,.15.438,1.162,1.162,0,0,1,1.139.287A.231.231,0,0,0,932.075,1806.683Z" transform="translate(-930.364 -1805.844)" fill="#2e2d57"/>
          </g>
          <path id="Trazado_97287" data-name="Trazado 97287" d="M925.882,1832.7a6.182,6.182,0,0,0,.956.908.244.244,0,0,1,.08.325,3.347,3.347,0,0,1-1.487,1.04.065.065,0,0,1-.068-.109,3.159,3.159,0,0,0,.758-.883.291.291,0,0,0,0-.264c-.1-.191-.289-.579-.419-.9A.109.109,0,0,1,925.882,1832.7Z" transform="translate(-914.326 -1823.63)" fill="#d68d5d"/>
          <path id="Trazado_97288" data-name="Trazado 97288" d="M830.735,1833.9a1.6,1.6,0,1,1-2.478.061A1.77,1.77,0,0,1,830.735,1833.9Z" transform="translate(-827.976 -1824.304)" fill="#e49963"/>
          <g id="Grupo_46777" data-name="Grupo 46777" transform="translate(1.063 9.991)">
            <path id="Trazado_97289" data-name="Trazado 97289" d="M838.6,1842.92a.234.234,0,0,0,.082-.068,1.048,1.048,0,0,0,.081-1.284,1.117,1.117,0,0,0-1.223-.42.232.232,0,0,0,.145.441.66.66,0,0,1,.7.25.593.593,0,0,1-.075.735.231.231,0,0,0,.289.346Z" transform="translate(-837.376 -1841.099)" fill="#d68d5d"/>
          </g>
          <path id="Trazado_97290" data-name="Trazado 97290" d="M896.209,1861.53a.185.185,0,0,1,.169-.294,13.1,13.1,0,0,0,3.478,0,.185.185,0,0,1,.17.294,2.3,2.3,0,0,1-3.817,0Z" transform="translate(-888.457 -1848.966)" fill="#fff"/>
        </g>
        <path id="Trazado_97291" data-name="Trazado 97291" d="M832.149,1755.43c4.107-.55,9.854-4.735,10.326-6.882-.795-2.58-5.027-3.876-7.418-2.681S830.409,1752.183,832.149,1755.43Z" transform="translate(-797.814 -1743.367)" fill="#3c4973"/>
        <path id="Trazado_97292" data-name="Trazado 97292" d="M1170.992,1940.287h0a1.042,1.042,0,0,1-.667-1.313l6.34-19.421a1.041,1.041,0,0,1,1.313-.667h0a1.041,1.041,0,0,1,.667,1.313l-6.34,19.421A1.041,1.041,0,0,1,1170.992,1940.287Z" transform="translate(-1098.233 -1897.165)" fill="#fff"/>
        <path id="Trazado_97293" data-name="Trazado 97293" d="M1199.386,2015.92l1.292-3.957a5.351,5.351,0,0,1,0,4.437c-1.12,2.161-2.185,2.257-2.185,2.257Z" transform="translate(-1123.259 -1979.758)" fill="#e49963"/>
        <path id="Trazado_97294" data-name="Trazado 97294" d="M1184.928,2016.56c-.327-.768-1.1-2.69-.327-2.681s.895.942.895.942Z" transform="translate(-1110.646 -1981.457)" fill="#e49963"/>
        <g id="Grupo_46786" data-name="Grupo 46786" transform="translate(0 17.628)">
          <g id="Grupo_46781" data-name="Grupo 46781" transform="translate(10.771 2.343)">
            <g id="Grupo_46780" data-name="Grupo 46780">
              <g id="Grupo_46779" data-name="Grupo 46779">
                <path id="Trazado_97295" data-name="Trazado 97295" d="M628.678,1907.388a2.88,2.88,0,0,0,.6-3.563c.957-.205,6,7.441,8.181,12.3,3.8-3.826,10.486-8.993,12.295-9.294,0,0,2.44-.656,3.317,2.294.783,2.634-2.27,4.5-2.27,4.5s-13.057,9.218-14.988,8.4C632.808,1920.749,630.088,1909.777,628.678,1907.388Z" transform="translate(-628.678 -1903.821)" fill="#e49963"/>
              </g>
            </g>
          </g>
          <g id="Grupo_46785" data-name="Grupo 46785">
            <g id="Grupo_46784" data-name="Grupo 46784">
              <g id="Grupo_46783" data-name="Grupo 46783">
                <g id="Grupo_46782" data-name="Grupo 46782">
                  <path id="Trazado_97296" data-name="Trazado 97296" d="M541.516,1888.8c1.065.065,2.383-.462,2.794.493l2.1-1.025.127-1.268c-1.807-2.9-6.211-3.717-6.647-3.755-1.133-.1-1.659-.216-1.748-.065s-.366,1.16,1.278,1.358c2.063.247.693,1.9-3.492.327-1.048-.393-3.02.117-2.307.883C534.41,1886.592,536.668,1888.5,541.516,1888.8Z" transform="translate(-533.472 -1883.108)" fill="#e49963"/>
                </g>
              </g>
            </g>
          </g>
        </g>
      </g>
    </g>
    <g id="Grupo_46790" data-name="Grupo 46790" transform="translate(429.153 798.339)">
      <path id="Trazado_97297" data-name="Trazado 97297" d="M1394.916,1412.273a5.764,5.764,0,0,1-.326,1.909c-1.063,3.052-4.612,5.294-8.827,5.294s-7.764-2.242-8.826-5.294a5.764,5.764,0,0,1-.326-1.909Z" transform="translate(-1351.587 -1362.231)" fill="url(#linear-gradient-2)"/>
      <path id="Trazado_97298" data-name="Trazado 97298" d="M1394.916,1412.273a5.764,5.764,0,0,1-.326,1.909h-17.653a5.764,5.764,0,0,1-.326-1.909Z" transform="translate(-1351.587 -1362.231)" fill="#00223d"/>
      <path id="Trazado_97299" data-name="Trazado 97299" d="M1286.386,789.031a19.166,19.166,0,1,0-34.315,11.742,23.992,23.992,0,0,1,5.086,14.705v.094h20.125v-.094a24.061,24.061,0,0,1,5.1-14.723A19.08,19.08,0,0,0,1286.386,789.031Z" transform="translate(-1233.044 -769.865)" fill="url(#linear-gradient)"/>
      <g id="Grupo_46789" data-name="Grupo 46789" transform="translate(25.296 14.063)">
        <path id="Trazado_97300" data-name="Trazado 97300" d="M1391.887,979.868a.49.49,0,0,1-.463-.651c.023-.065,2.282-6.577,3.925-13.207,2.911-11.753,1.413-13.663.634-13.939a4.9,4.9,0,0,0-5.242,1.538,9.791,9.791,0,0,0-.947,1.135,18.569,18.569,0,0,1,1.3,2.769c1.015,2.712,1.285,5.244.722,6.775a2.4,2.4,0,0,1-2.6,1.686,2.777,2.777,0,0,1-2.48-1.962,9.2,9.2,0,0,1,.183-5.532,14.773,14.773,0,0,1,1.721-3.779,9.5,9.5,0,0,0-2.308-2.608,2.684,2.684,0,0,0-3.521-.119c-2.22,1.735-2.3,6.954-.245,15.091a107.8,107.8,0,0,0,3.94,12.132.49.49,0,0,1-.909.367,108.824,108.824,0,0,1-3.979-12.249c-2.195-8.67-2-14.091.59-16.112a3.656,3.656,0,0,1,4.7.1,10.147,10.147,0,0,1,2.329,2.55,10.41,10.41,0,0,1,.8-.927c1.875-1.912,4.1-2.543,6.268-1.776,1.349.478,1.9,2.294,1.692,5.552a57.529,57.529,0,0,1-1.7,9.552c-1.653,6.674-3.926,13.223-3.949,13.289A.49.49,0,0,1,1391.887,979.868Zm-2.69-24.209a13.9,13.9,0,0,0-1.338,3.1,8.37,8.37,0,0,0-.206,4.909,1.813,1.813,0,0,0,1.636,1.33,1.426,1.426,0,0,0,1.607-1.047C1391.545,962.182,1390.757,958.577,1389.2,955.659Z" transform="translate(-1380.108 -950.391)" fill="#5b7393"/>
      </g>
      <path id="Rectángulo_28256" data-name="Rectángulo 28256" d="M3.687,0H20.267a3.687,3.687,0,0,1,3.687,3.687v0a3.687,3.687,0,0,1-3.687,3.687H3.687A3.687,3.687,0,0,1,0,3.687v0A3.687,3.687,0,0,1,3.687,0Z" transform="translate(22.199 43.295)" fill="url(#linear-gradient-2)"/>
      <path id="Trazado_97301" data-name="Trazado 97301" d="M1818.8,987.79h-6.267a1.615,1.615,0,0,1-1.615-1.615h0a1.615,1.615,0,0,1,1.615-1.615h6.267a1.615,1.615,0,0,1,1.615,1.615h0A1.615,1.615,0,0,1,1818.8,987.79Z" transform="translate(-1752.061 -967.836)" fill="#5b7393"/>
      <path id="Trazado_97302" data-name="Trazado 97302" d="M1063.253,987.79h-6.267a1.615,1.615,0,0,1-1.615-1.615h0a1.615,1.615,0,0,1,1.615-1.615h6.267a1.615,1.615,0,0,1,1.615,1.615h0A1.615,1.615,0,0,1,1063.253,987.79Z" transform="translate(-1055.371 -967.836)" fill="#5b7393"/>
      <path id="Trazado_97303" data-name="Trazado 97303" d="M1141.1,776.559l-4.987-3.795a1.615,1.615,0,0,1-.307-2.263h0a1.615,1.615,0,0,1,2.263-.307l4.987,3.795a1.615,1.615,0,0,1,.307,2.263h0A1.615,1.615,0,0,1,1141.1,776.559Z" transform="translate(-1129.238 -769.864)" fill="#5b7393"/>
      <path id="Trazado_97304" data-name="Trazado 97304" d="M1745.725,776.559l4.987-3.795a1.615,1.615,0,0,0,.307-2.263h0a1.615,1.615,0,0,0-2.263-.307l-4.987,3.795a1.615,1.615,0,0,0-.307,2.263h0A1.615,1.615,0,0,0,1745.725,776.559Z" transform="translate(-1689.557 -769.864)" fill="#5b7393"/>
      <path id="Trazado_97305" data-name="Trazado 97305" d="M1141.1,1176.577l-4.987,3.795a1.615,1.615,0,0,0-.307,2.263h0a1.615,1.615,0,0,0,2.263.307l4.987-3.795a1.615,1.615,0,0,0,.307-2.263h0A1.615,1.615,0,0,0,1141.1,1176.577Z" transform="translate(-1129.238 -1144.591)" fill="#5b7393"/>
      <path id="Trazado_97306" data-name="Trazado 97306" d="M1745.725,1176.577l4.987,3.795a1.615,1.615,0,0,1,.307,2.263h0a1.615,1.615,0,0,1-2.263.307l-4.987-3.795a1.615,1.615,0,0,1-.307-2.263h0A1.615,1.615,0,0,1,1745.725,1176.577Z" transform="translate(-1689.557 -1144.591)" fill="#5b7393"/>
    </g>
    <g id="Grupo_46794" data-name="Grupo 46794" transform="translate(450.325 908.254)">
      <g id="Grupo_46792" data-name="Grupo 46792" transform="translate(2.34 7.653)">
        <path id="Trazado_97307" data-name="Trazado 97307" d="M1377.686,2091.222v1.522h.414a.364.364,0,0,1,.364.365v.06a.364.364,0,0,1-.364.365h-17.656a.424.424,0,0,1-.424-.424v-2.192a.423.423,0,0,1,.424-.423H1378.1a.364.364,0,0,1,.364.364h0a.364.364,0,0,1-.364.364Z" transform="translate(-1360.02 -2090.494)" fill="#f5ca56"/>
        <path id="Rectángulo_28257" data-name="Rectángulo 28257" d="M.761,0H15.752a0,0,0,0,1,0,0V1.521a0,0,0,0,1,0,0H.761A.761.761,0,0,1,0,.761v0A.761.761,0,0,1,.761,0Z" transform="translate(1.966 0.728)" fill="#fff"/>
      </g>
      <g id="Grupo_46793" data-name="Grupo 46793" transform="translate(0 4.29)">
        <path id="Trazado_97308" data-name="Trazado 97308" d="M1340.118,2061.576v1.683h-.415a.385.385,0,0,0-.364.4v.068a.385.385,0,0,0,.364.4h17.656a.448.448,0,0,0,.424-.469v-2.425a.448.448,0,0,0-.424-.469H1339.7a.385.385,0,0,0-.364.4h0a.385.385,0,0,0,.364.4Z" transform="translate(-1339.34 -2060.77)" fill="#d5f2e8"/>
        <path id="Rectángulo_28258" data-name="Rectángulo 28258" d="M.842,0h14.91a0,0,0,0,1,0,0V1.683a0,0,0,0,1,0,0H.842A.842.842,0,0,1,0,.842v0A.842.842,0,0,1,.842,0Z" transform="translate(16.478 2.489) rotate(180)" fill="#fff"/>
      </g>
      <path id="Rectángulo_28259" data-name="Rectángulo 28259" d="M1.364,0H16.023a1.365,1.365,0,0,1,1.365,1.365v0A1.365,1.365,0,0,1,16.023,2.73H1.365A1.365,1.365,0,0,1,0,1.365v0A1.364,1.364,0,0,1,1.364,0Z" transform="translate(1.439 0)" fill="#f5ca56"/>
      <rect id="Rectángulo_28260" data-name="Rectángulo 28260" width="17.388" height="1.56" rx="0.78" transform="translate(2.575 2.73)" fill="#7d6eb2"/>
    </g>
  </g>
</svg>
