<svg id="Grupo_57027" data-name="Grupo 57027" xmlns="http://www.w3.org/2000/svg" xmlns:xlink="http://www.w3.org/1999/xlink" width="124.767" height="124.767" viewBox="0 0 124.767 124.767">
  <defs>
    <radialGradient id="radial-gradient" cx="0.076" cy="0.019" r="1.465" gradientTransform="translate(0.001)" gradientUnits="objectBoundingBox">
      <stop offset="0" stop-color="#f6f6f7"/>
      <stop offset="0.477" stop-color="#f9f9fa"/>
      <stop offset="0.715" stop-color="#fff"/>
    </radialGradient>
  </defs>
  <g id="Grupo_18531" data-name="Grupo 18531" transform="translate(0 0)">
    <g id="Grupo_18423" data-name="Grupo 18423">
      <g id="Grupo_18421" data-name="Grupo 18421">
        <g id="Grupo_18420" data-name="Grupo 18420">
          <g id="Grupo_18419" data-name="Grupo 18419">
            <path id="Trazado_40936" data-name="Trazado 40936" d="M319.39,2208.1a62.384,62.384,0,1,1-62.383-62.382A62.383,62.383,0,0,1,319.39,2208.1Z" transform="translate(-194.623 -2145.721)" fill="#fff"/>
          </g>
        </g>
      </g>
      <path id="Trazado_40937" data-name="Trazado 40937" d="M318.65,2207.3a62.382,62.382,0,1,0-62.383,62.385A62.136,62.136,0,0,0,318.65,2207.3Z" transform="translate(-193.883 -2144.915)" fill="url(#radial-gradient)"/>
      <path id="Trazado_40938" data-name="Trazado 40938" d="M297.307,2200.746a47.617,47.617,0,1,0-47.617,47.617A47.44,47.44,0,0,0,297.307,2200.746Z" transform="translate(-187.117 -2138.156)" fill="none" stroke="#7d6eb2" stroke-miterlimit="10" stroke-width="4"/>
      <g id="Grupo_18422" data-name="Grupo 18422" transform="translate(11.052 35.024)">
        <path id="Trazado_40939" data-name="Trazado 40939" d="M307.953,2164.488a62.391,62.391,0,0,1-107.408,62.125,62.193,62.193,0,0,0,107.408-62.125Z" transform="translate(-200.545 -2164.488)" fill="#eceef0"/>
      </g>
    </g>
  </g>
  <g id="Grupo_42968" data-name="Grupo 42968" transform="translate(43.064 30.761)">
    <g id="Grupo_26578" data-name="Grupo 26578">
      <g id="Grupo_26577" data-name="Grupo 26577">
        <path id="Trazado_67421" data-name="Trazado 67421" d="M3145.232,1909.207a.661.661,0,0,1-.073,0,.591.591,0,0,1-.515-.658c.012-.1,1.243-10.312,1.31-17.636a13.94,13.94,0,0,0-2.3-7.487,14.963,14.963,0,0,1-2-4.957c-2.583-16.062,6.174-25.017,16-26.766,10.418-1.855,23.039,4.1,25.908,18.8l.052.256a7.887,7.887,0,0,1-.817,5.953,2.366,2.366,0,0,0-.292,1.16,1.11,1.11,0,0,0,.222.652l4.382,5.5a.609.609,0,0,1,.067.106,2.5,2.5,0,0,1-.026,2.232,2.546,2.546,0,0,1-1.646,1.419c-.322.058-.684.134-1.066.215-.565.119-1.2.253-1.748.337.051.312.167.974.229,1.2l.682.833a1.268,1.268,0,0,1,.206,1.254,3.027,3.027,0,0,1-1.177,1.31,2.451,2.451,0,0,1,.8,1.379,1.058,1.058,0,0,1-.4.924l-.875.708a.764.764,0,0,0-.22.884,4.033,4.033,0,0,1-2.844,5.219c-2.869.8-8.4-.427-10.393-.921l-.223,7.507a.591.591,0,0,1-1.181-.035l.246-8.246a.591.591,0,0,1,.747-.552c.073.02,7.338,1.991,10.487,1.109a2.855,2.855,0,0,0,2.066-3.642,1.941,1.941,0,0,1,.573-2.242l.824-.666a3.483,3.483,0,0,0-.791-.927c-.078-.073-.151-.14-.214-.2a.591.591,0,0,1,.175-.961,2.772,2.772,0,0,0,1.3-1.069.088.088,0,0,0-.017-.083l-.742-.907a6.162,6.162,0,0,1-.41-1.711.566.566,0,0,1-.029-.1,1.052,1.052,0,0,1,.185-.8,1.03,1.03,0,0,1,.7-.417c.537-.075,1.184-.212,1.808-.343.4-.084.77-.163,1.082-.219a1.44,1.44,0,0,0,.811-.774,1.369,1.369,0,0,0,.053-1.143l-4.348-5.462a2.286,2.286,0,0,1-.468-1.34,3.552,3.552,0,0,1,.432-1.752,6.76,6.76,0,0,0,.7-5.158l-.053-.266c-2.726-13.956-14.679-19.621-24.542-17.865-8.579,1.527-17.667,9.1-15.042,25.415a13.864,13.864,0,0,0,1.87,4.57,15.12,15.12,0,0,1,2.452,8.072c-.067,7.391-1.306,17.666-1.318,17.768A.591.591,0,0,1,3145.232,1909.207Z" transform="translate(-3141.189 -1851.371)" fill="#00223d"/>
      </g>
    </g>
    <g id="Grupo_26583" data-name="Grupo 26583" transform="translate(6.406 5.191)">
      <g id="Grupo_26580" data-name="Grupo 26580" transform="translate(11.408)">
        <g id="Grupo_26579" data-name="Grupo 26579">
          <path id="Trazado_67422" data-name="Trazado 67422" d="M3207.127,1877.64l-.4,1.6a.977.977,0,0,0,.712,1.185l.882.22a.329.329,0,0,1,.247.3,6.744,6.744,0,0,0,.168,1.125.329.329,0,0,1-.148.362l-.781.468a.978.978,0,0,0-.335,1.342l.849,1.414a.978.978,0,0,0,1.342.335l.78-.469a.328.328,0,0,1,.388.039,6.728,6.728,0,0,0,.915.677.331.331,0,0,1,.151.36l-.22.883a.978.978,0,0,0,.712,1.185l1.6.4a.977.977,0,0,0,1.185-.712l.221-.883a.329.329,0,0,1,.3-.247,6.707,6.707,0,0,0,1.126-.168.329.329,0,0,1,.361.148l.468.78a.978.978,0,0,0,1.342.335l1.415-.849a.977.977,0,0,0,.334-1.341l-.468-.781a.33.33,0,0,1,.039-.389,6.643,6.643,0,0,0,.677-.914.329.329,0,0,1,.36-.15l.882.22a.978.978,0,0,0,1.186-.711l.4-1.6a.978.978,0,0,0-.711-1.186l-.883-.22a.33.33,0,0,1-.247-.3,6.706,6.706,0,0,0-.168-1.125.328.328,0,0,1,.148-.361l.78-.469a.977.977,0,0,0,.335-1.341l-.849-1.414a.978.978,0,0,0-1.341-.335l-.781.469a.33.33,0,0,1-.389-.039,6.677,6.677,0,0,0-.914-.677.33.33,0,0,1-.151-.361l.22-.883a.976.976,0,0,0-.711-1.185l-1.6-.4a.978.978,0,0,0-1.186.712l-.22.882a.33.33,0,0,1-.3.248,6.691,6.691,0,0,0-1.125.168.328.328,0,0,1-.361-.148l-.469-.78a.977.977,0,0,0-1.341-.335l-1.415.849a.978.978,0,0,0-.335,1.342l.468.78a.328.328,0,0,1-.039.388,6.61,6.61,0,0,0-.677.914.331.331,0,0,1-.361.151l-.883-.221A.977.977,0,0,0,3207.127,1877.64Zm8.4-.467a3.361,3.361,0,1,1-3.326,2A3.363,3.363,0,0,1,3215.524,1877.173Z" transform="translate(-3206.107 -1871.358)" fill="none"/>
          <path id="Trazado_67423" data-name="Trazado 67423" d="M3212.713,1888.179a1.537,1.537,0,0,1-.38-.048l-1.6-.4a1.568,1.568,0,0,1-1.142-1.9l.174-.7a7.277,7.277,0,0,1-.694-.514l-.616.37a1.571,1.571,0,0,1-2.152-.537l-.849-1.414a1.567,1.567,0,0,1,.538-2.152l.616-.37a7.305,7.305,0,0,1-.127-.854l-.7-.175a1.567,1.567,0,0,1-1.141-1.9l.4-1.6a1.57,1.57,0,0,1,1.9-1.142l.7.175a7.251,7.251,0,0,1,.514-.694l-.37-.617a1.568,1.568,0,0,1,.538-2.152l1.415-.849a1.568,1.568,0,0,1,2.151.537l.371.617a7.276,7.276,0,0,1,.854-.128l.173-.7a1.571,1.571,0,0,1,1.9-1.141l1.6.4a1.567,1.567,0,0,1,1.142,1.9l-.174.7a7.289,7.289,0,0,1,.694.514l.616-.37a1.57,1.57,0,0,1,2.152.537l.849,1.414a1.569,1.569,0,0,1-.537,2.152l-.616.37a7.23,7.23,0,0,1,.127.854l.7.175a1.569,1.569,0,0,1,1.141,1.9l-.4,1.6a1.57,1.57,0,0,1-1.9,1.142l-.7-.174a7.383,7.383,0,0,1-.513.694l.37.617a1.566,1.566,0,0,1-.538,2.151l-1.414.849a1.571,1.571,0,0,1-2.152-.537l-.37-.617a7.315,7.315,0,0,1-.854.128l-.175.7A1.57,1.57,0,0,1,3212.713,1888.179Zm-3.616-4.8a.924.924,0,0,1,.613.233,6.081,6.081,0,0,0,.834.618.917.917,0,0,1,.413,1.006l-.22.883a.387.387,0,0,0,.281.469l1.6.4a.389.389,0,0,0,.47-.282l.219-.883a.919.919,0,0,1,.838-.693,6.062,6.062,0,0,0,1.026-.153.918.918,0,0,1,1,.419l.468.781a.388.388,0,0,0,.531.132l1.415-.849a.386.386,0,0,0,.133-.531l-.468-.78a.918.918,0,0,1,.1-1.083,6.28,6.28,0,0,0,.617-.833.915.915,0,0,1,1.005-.414l.883.22a.387.387,0,0,0,.469-.282l.4-1.6a.387.387,0,0,0-.282-.469l-.883-.221a.92.92,0,0,1-.693-.838,6.16,6.16,0,0,0-.153-1.026.918.918,0,0,1,.419-1l.78-.468a.387.387,0,0,0,.133-.531l-.849-1.414a.388.388,0,0,0-.531-.133l-.78.469a.918.918,0,0,1-1.083-.1,6.139,6.139,0,0,0-.833-.618.917.917,0,0,1-.414-1.006l.221-.883a.389.389,0,0,0-.282-.469l-1.6-.4a.387.387,0,0,0-.469.281l-.221.883a.918.918,0,0,1-.838.693,6.084,6.084,0,0,0-1.026.153.918.918,0,0,1-1-.419l-.468-.78a.386.386,0,0,0-.531-.133l-1.415.849a.387.387,0,0,0-.133.531l.47.781a.92.92,0,0,1-.1,1.083,6.1,6.1,0,0,0-.618.833.917.917,0,0,1-1.006.414l-.883-.221a.388.388,0,0,0-.469.282l-.4,1.6a.388.388,0,0,0,.281.469l.883.22a.917.917,0,0,1,.693.838,6.115,6.115,0,0,0,.153,1.026.918.918,0,0,1-.419,1l-.78.468a.388.388,0,0,0-.133.531l.849,1.414a.387.387,0,0,0,.531.132l.781-.469A.915.915,0,0,1,3209.1,1883.377Zm4.673-.412c-.1,0-.206,0-.308-.013a3.949,3.949,0,1,1,3.917-2.351A3.971,3.971,0,0,1,3213.77,1882.966Zm-.023-6.725a2.806,2.806,0,1,0,.215.009C3213.89,1876.245,3213.818,1876.241,3213.747,1876.241Z" transform="translate(-3204.594 -1869.847)" fill="#00223d"/>
        </g>
      </g>
      <g id="Grupo_26582" data-name="Grupo 26582" transform="translate(0 13.869)">
        <g id="Grupo_26581" data-name="Grupo 26581">
          <path id="Trazado_67424" data-name="Trazado 67424" d="M3166.546,1928.167a.738.738,0,0,0,.321.993l1.356.693a.4.4,0,0,1,.207.419,7.99,7.99,0,0,0-.109,1.359.394.394,0,0,1-.271.381l-1.448.469a.739.739,0,0,0-.475.929l.876,2.7a.738.738,0,0,0,.929.474l1.448-.469a.4.4,0,0,1,.443.151,7.967,7.967,0,0,0,.885,1.037.4.4,0,0,1,.078.461l-.693,1.356a.738.738,0,0,0,.321.993l2.531,1.293a.737.737,0,0,0,.992-.321l.693-1.357a.4.4,0,0,1,.421-.207,7.924,7.924,0,0,0,1.358.109.4.4,0,0,1,.382.271l.469,1.449a.738.738,0,0,0,.929.475l2.7-.875a.738.738,0,0,0,.475-.929l-.469-1.449a.393.393,0,0,1,.15-.443,8.013,8.013,0,0,0,1.037-.884.4.4,0,0,1,.461-.079l1.357.693a.738.738,0,0,0,.992-.322l1.292-2.531a.736.736,0,0,0-.321-.992l-1.356-.693a.394.394,0,0,1-.207-.419,8.066,8.066,0,0,0,.109-1.359.394.394,0,0,1,.27-.381l1.449-.469a.737.737,0,0,0,.475-.928l-.875-2.7a.738.738,0,0,0-.928-.475l-1.449.469a.394.394,0,0,1-.442-.15,7.992,7.992,0,0,0-.885-1.037.4.4,0,0,1-.078-.461l.693-1.356a.737.737,0,0,0-.321-.992l-2.531-1.293a.737.737,0,0,0-.992.321l-.693,1.356a.394.394,0,0,1-.42.207,7.979,7.979,0,0,0-1.358-.109.394.394,0,0,1-.382-.27l-.47-1.449a.736.736,0,0,0-.929-.474l-2.7.875a.737.737,0,0,0-.475.929l.469,1.449a.4.4,0,0,1-.15.443,7.979,7.979,0,0,0-1.038.884.4.4,0,0,1-.461.078l-1.356-.693a.737.737,0,0,0-.992.321Zm8.337-.91a4.822,4.822,0,1,1-3.1,6.073A4.82,4.82,0,0,1,3174.883,1927.257Z" transform="translate(-3165.5 -1920.722)" fill="none"/>
          <path id="Trazado_67425" data-name="Trazado 67425" d="M3176.449,1940.946a1.331,1.331,0,0,1-1.262-.92l-.424-1.311a8.556,8.556,0,0,1-1.183-.094l-.627,1.228a1.326,1.326,0,0,1-1.786.578l-2.532-1.293a1.328,1.328,0,0,1-.579-1.787l.627-1.227a8.706,8.706,0,0,1-.769-.9l-1.311.424a1.33,1.33,0,0,1-1.673-.854l-.875-2.7a1.33,1.33,0,0,1,.855-1.673l1.311-.424a8.565,8.565,0,0,1,.094-1.183l-1.228-.627a1.329,1.329,0,0,1-.579-1.787l1.293-2.531a1.327,1.327,0,0,1,1.786-.579l1.229.627a8.591,8.591,0,0,1,.9-.77l-.423-1.311a1.329,1.329,0,0,1,.854-1.673l2.7-.875a1.329,1.329,0,0,1,1.673.855l.425,1.311a8.662,8.662,0,0,1,1.182.095l.627-1.228a1.33,1.33,0,0,1,1.787-.578l2.532,1.293a1.327,1.327,0,0,1,.578,1.787l-.627,1.228a8.532,8.532,0,0,1,.771.9l1.311-.425a1.329,1.329,0,0,1,1.673.855l.875,2.7a1.33,1.33,0,0,1-.855,1.673l-1.311.424a8.712,8.712,0,0,1-.095,1.182l1.228.627a1.328,1.328,0,0,1,.579,1.787l-1.294,2.531a1.329,1.329,0,0,1-1.787.579l-1.228-.628a8.586,8.586,0,0,1-.9.77l.424,1.311a1.329,1.329,0,0,1-.855,1.673l-2.7.875A1.347,1.347,0,0,1,3176.449,1940.946Zm-1.548-3.412a.982.982,0,0,1,.94.679l.469,1.448a.148.148,0,0,0,.186.1l2.7-.875a.147.147,0,0,0,.086-.073.144.144,0,0,0,.009-.112l-.469-1.449a.983.983,0,0,1,.369-1.105,7.458,7.458,0,0,0,.96-.819.983.983,0,0,1,1.15-.189l1.356.693a.148.148,0,0,0,.2-.064l1.294-2.531a.149.149,0,0,0-.064-.2l-1.357-.693a.982.982,0,0,1-.52-1.043,7.44,7.44,0,0,0,.1-1.258.982.982,0,0,1,.679-.947l1.449-.47a.146.146,0,0,0,.086-.073.145.145,0,0,0,.009-.112l-.875-2.7a.143.143,0,0,0-.073-.086.147.147,0,0,0-.113-.009l-1.449.469a.985.985,0,0,1-1.105-.369,7.311,7.311,0,0,0-.819-.96.985.985,0,0,1-.189-1.15l.693-1.356a.14.14,0,0,0,.009-.113.143.143,0,0,0-.072-.085l-2.532-1.293a.148.148,0,0,0-.2.064l-.693,1.357a.981.981,0,0,1-1.042.52,7.471,7.471,0,0,0-1.259-.1.983.983,0,0,1-.947-.679l-.469-1.449a.148.148,0,0,0-.186-.094l-2.7.875a.147.147,0,0,0-.094.185l.469,1.45a.984.984,0,0,1-.369,1.1,7.377,7.377,0,0,0-.96.819.984.984,0,0,1-1.15.189l-1.356-.693a.144.144,0,0,0-.112-.009.141.141,0,0,0-.085.073l-1.293,2.531a.147.147,0,0,0,.063.2l1.356.693a.981.981,0,0,1,.521,1.042,7.5,7.5,0,0,0-.1,1.259.982.982,0,0,1-.679.947l-1.449.469a.147.147,0,0,0-.094.185l.875,2.7a.147.147,0,0,0,.186.094l1.449-.469a.982.982,0,0,1,1.1.369,7.386,7.386,0,0,0,.82.96.982.982,0,0,1,.188,1.15l-.693,1.357a.146.146,0,0,0,.064.2l2.531,1.293a.147.147,0,0,0,.2-.064l.693-1.357a.985.985,0,0,1,1.044-.52,7.381,7.381,0,0,0,1.258.1Zm-.041-1.788a5.413,5.413,0,1,1,1.664-.263A5.421,5.421,0,0,1,3174.86,1935.746Zm-1.306-9.439a4.231,4.231,0,1,0,5.329,2.722,4.236,4.236,0,0,0-5.329-2.722Z" transform="translate(-3163.99 -1919.211)" fill="#00223d"/>
        </g>
      </g>
    </g>
  </g>
</svg>
