<svg xmlns="http://www.w3.org/2000/svg" xmlns:xlink="http://www.w3.org/1999/xlink" width="262.708" height="227.256" viewBox="0 0 262.708 227.256">
  <defs>
    <linearGradient id="linear-gradient" x1="0.5" x2="0.5" y2="1" gradientUnits="objectBoundingBox">
      <stop offset="0" stop-color="#fff"/>
      <stop offset="1" stop-color="#d3d3d3"/>
    </linearGradient>
  </defs>
  <g id="Grupo_46872" data-name="Grupo 46872" transform="translate(-475.526 -769)">
    <g id="Grupo_46851" data-name="Grupo 46851" transform="translate(646.646 802.376)">
      <path id="Trazado_97330" data-name="Trazado 97330" d="M700.731,1338.768c0,3.149-4.121,5.7-9.206,5.7s-9.206-2.553-9.206-5.7,4.121-5.7,9.206-5.7S700.731,1335.62,700.731,1338.768Z" transform="translate(-650.018 -1217.621)" fill="#344966"/>
      <path id="Trazado_97331" data-name="Trazado 97331" d="M601.4,895.5a41.508,41.508,0,0,0-27.187,72.873c.031.033,6.484,7.008,7.548,14.312l.193,4.471a6.273,6.273,0,0,0,1.625,3.949c.087.1.178.188.271.278h35.1c.093-.09.184-.182.271-.278a6.275,6.275,0,0,0,1.625-3.949l.193-4.471c1.064-7.3,7.517-14.279,7.548-14.312A41.508,41.508,0,0,0,601.4,895.5Z" transform="translate(-559.891 -895.504)" fill="url(#linear-gradient)"/>
      <path id="Rectángulo_28272" data-name="Rectángulo 28272" d="M0,0H35.274a0,0,0,0,1,0,0V.979A24.921,24.921,0,0,1,10.353,25.9h0A10.353,10.353,0,0,1,0,15.547V0A0,0,0,0,1,0,0Z" transform="translate(23.871 95.884)" fill="url(#linear-gradient)"/>
      <g id="Grupo_46849" data-name="Grupo 46849" transform="translate(23.607 17.526)">
        <path id="Trazado_97333" data-name="Trazado 97333" d="M670.7,1006.045l-8.247-35.973-7.238,20.923-2.123-.734,9.8-28.328,8.415,36.706,8.619-21.041,7.983,13.478-1.932,1.145-5.683-9.595Z" transform="translate(-653.094 -961.933)" fill="#f5ca56"/>
      </g>
      <g id="Grupo_46850" data-name="Grupo 46850" transform="translate(22.762 41.81)">
        <path id="Trazado_97334" data-name="Trazado 97334" d="M759.329,1113.456l-.2.021a1.9,1.9,0,0,1-2.083-1.692l-5.768-55.7a1.9,1.9,0,0,1,1.692-2.083l.2-.021a1.9,1.9,0,0,1,2.082,1.692l5.768,55.7A1.9,1.9,0,0,1,759.329,1113.456Z" transform="translate(-751.27 -1053.973)" fill="#f5ca56"/>
        <path id="Trazado_97335" data-name="Trazado 97335" d="M647.9,1113.493h0a2,2,0,0,0,2.192-1.781l5.748-55.5a2,2,0,0,0-1.781-2.192h0a2,2,0,0,0-2.192,1.781l-5.747,55.5A2,2,0,0,0,647.9,1113.493Z" transform="translate(-618.351 -1054)" fill="#f5ca56"/>
      </g>
      <path id="Trazado_97336" data-name="Trazado 97336" d="M680.963,1262.83H646.6a1.952,1.952,0,0,1-1.952-1.952h0a1.952,1.952,0,0,1,1.952-1.952h34.364a1.952,1.952,0,0,1,1.952,1.952h0A1.953,1.953,0,0,1,680.963,1262.83Z" transform="translate(-622.263 -1163.042)" fill="#344966"/>
      <path id="Trazado_97337" data-name="Trazado 97337" d="M680.963,1292.5H646.6a1.952,1.952,0,0,1-1.952-1.952h0a1.952,1.952,0,0,1,1.952-1.952h34.364a1.953,1.953,0,0,1,1.952,1.952h0A1.952,1.952,0,0,1,680.963,1292.5Z" transform="translate(-622.263 -1184.885)" fill="#344966"/>
      <path id="Trazado_97338" data-name="Trazado 97338" d="M680.963,1325.7H646.6a1.953,1.953,0,0,1-1.952-1.953h0a1.952,1.952,0,0,1,1.952-1.953h34.364a1.953,1.953,0,0,1,1.952,1.953h0A1.953,1.953,0,0,1,680.963,1325.7Z" transform="translate(-622.263 -1209.327)" fill="#344966"/>
    </g>
    <g id="Grupo_46852" data-name="Grupo 46852" transform="translate(475.526 840.559)">
      <path id="Trazado_97339" data-name="Trazado 97339" d="M1295.08,1156.205a26.585,26.585,0,1,1,5.69-37.164A26.615,26.615,0,0,1,1295.08,1156.205Zm-3.177-5.8h0a20.05,20.05,0,0,0,3.07-28.188h0a20.051,20.051,0,0,0-28.189-3.07h0a20.05,20.05,0,0,0-3.07,28.188h0A20.05,20.05,0,0,0,1291.9,1150.407Z" transform="translate(-1234.59 -1090.268)" fill="url(#linear-gradient)"/>
      <path id="Trazado_97340" data-name="Trazado 97340" d="M1250.664,1123.253c-.636.123-1.057-.327-2.11-1.43-1.885-1.974-3.77-3.949-5.722-5.855a1.763,1.763,0,0,0-1.455-.313c-2.57.729-5.1,1.613-7.673,2.316-.8.218-1.173.456-1.326,1.314-.612,3.433-1.32,6.847-1.984,10.232-3.141.492-10.956-.268-13.489-1.34.046-3.321.04-6.716.168-10.105a1.679,1.679,0,0,0-1.234-1.936,69.952,69.952,0,0,1-6.827-3.647,1.925,1.925,0,0,0-2.483-.078c-2.482,1.757-5.069,3.363-7.582,5.079-.675.461-1.2.508-1.718-.132q-3.685-4.513-7.365-9.029c-.6-.74.039-1.152.451-1.565,2.088-2.089,4.165-4.19,6.321-6.207a1.909,1.909,0,0,0,.535-2.434c-1.029-2.792-1.877-5.65-2.867-8.7l-10.924-2.19a39.833,39.833,0,0,1,1.471-13.4l10.919.107c1.759-3.087,3.325-5.983,5.054-8.778a1.5,1.5,0,0,0-.036-1.978c-1.695-2.473-3.312-5-4.989-7.482-.363-.537-.56-.96-.04-1.52a38.053,38.053,0,0,1,8.837-7.352,1.2,1.2,0,0,1,1.72.272c2.163,2.2,4.368,4.364,6.521,6.574a1.39,1.39,0,0,0,1.709.436c2.8-.9,5.636-1.674,8.488-2.378a1.182,1.182,0,0,0,1.031-1.12c.685-3.42,1.4-6.835,2.115-10.339a42.735,42.735,0,0,1,13.265,1.318c-.038,3.865-.076,7.7-.111,11.379l9.825,5.288c2.23-1.469,4.787-3.179,7.372-4.847,2.122-1.369,1.686-1.576,3.591.341a4.172,4.172,0,0,0,.647.448l4.373,5.442a8.32,8.32,0,0,0,.763,1.372c.854,1.031.854,1.805-.221,2.789-2.241,2.05-4.356,4.242-6.47,6.426a1.614,1.614,0,0,0-.327,1.309c.673,2.541,1.568,5.031,2.1,7.6a1.975,1.975,0,0,0,1.928,1.827c3.251.59,6.477,1.315,10.038,2.053-.446,4.493-.881,8.876-1.32,13.308-.845.008-1.331.02-1.817.015-3-.03-6.331.323-9.326.24a1.506,1.506,0,0,0-1.579,1.034c-1.332,2.518-2.488,4.593-3.838,7.1a1.782,1.782,0,0,0,.068,1.506c1.3,2.087,2.713,4.1,4.053,6.164,1.085,1.668,1.482,2.291,1.123,3.1Zm-6.316-16.332a27.527,27.527,0,1,0-20.46,5.024A27.347,27.347,0,0,0,1244.348,1106.921Z" transform="translate(-1183.3 -1040.225)" fill="url(#linear-gradient)"/>
    </g>
    <path id="Trazado_97341" data-name="Trazado 97341" d="M1329.806,1432.361l-2.745,4.954c-.248.163-.5.045-1.14-.24-1.139-.51-2.278-1.019-3.434-1.488a.8.8,0,0,0-.669.12c-.962.753-1.879,1.564-2.847,2.307a.662.662,0,0,0-.334.786c.334,1.559.626,3.126.93,4.673a17.444,17.444,0,0,1-5.94,1.767c-.555-1.413-1.144-2.849-1.677-4.306a.768.768,0,0,0-.857-.606,32.041,32.041,0,0,1-3.52-.362c-.473-.07-.776-.056-1.064.4-.747,1.173-1.563,2.3-2.33,3.461-.206.312-.418.422-.75.241q-2.341-1.272-4.679-2.547c-.384-.208-.183-.495-.08-.74.522-1.244,1.038-2.493,1.6-3.72a.873.873,0,0,0-.194-1.123c-.918-1-1.772-2.066-2.719-3.186l-5,.963a18.216,18.216,0,0,1-1.7-5.925l4.639-1.844c.21-1.611.372-3.107.62-4.589a.686.686,0,0,0-.357-.83c-1.146-.753-2.267-1.542-3.406-2.3-.246-.164-.4-.309-.28-.636a17.4,17.4,0,0,1,2.468-4.641.547.547,0,0,1,.775-.182c1.3.558,2.6,1.091,3.9,1.654a.634.634,0,0,0,.8-.111c1.028-.863,2.095-1.683,3.181-2.474a.541.541,0,0,0,.242-.652c-.3-1.566-.592-3.134-.893-4.741a19.5,19.5,0,0,1,5.841-1.737l1.921,4.834,5.073.539c.69-1.008,1.476-2.174,2.282-3.327.661-.946.44-.958,1.578-.477a1.916,1.916,0,0,0,.351.077l2.792,1.547a3.9,3.9,0,0,0,.56.449.783.783,0,0,1,.389,1.218c-.594,1.256-1.11,2.549-1.626,3.839a.735.735,0,0,0,.088.61c.724.959,1.533,1.858,2.2,2.851a.9.9,0,0,0,1.132.439c1.478-.312,2.968-.564,4.6-.867.589,1.978,1.164,3.908,1.744,5.86-.356.149-.56.239-.766.32-1.274.506-2.542,1.024-3.824,1.506-.364.138-.452.333-.49.711-.128,1.3-.34,2.583-.477,3.878a.815.815,0,0,0,.29.626c.91.658,1.857,1.266,2.781,1.907C1329.542,1431.76,1329.817,1431.955,1329.806,1432.361Zm-10.958-2.993a9.167,9.167,0,0,0-3.577-12.46h0a9.166,9.166,0,0,0-12.46,3.578h0a9.166,9.166,0,0,0,3.577,12.46h0a9.167,9.167,0,0,0,12.46-3.578Z" transform="translate(-794.423 -467.98)" fill="#fcfcfc"/>
    <rect id="Rectángulo_28273" data-name="Rectángulo 28273" width="162.149" height="103.915" rx="1" transform="translate(522.396 887.674)" fill="#00223d"/>
    <rect id="Rectángulo_28274" data-name="Rectángulo 28274" width="154.188" height="85.904" transform="translate(526.377 893.545)" fill="url(#linear-gradient)"/>
    <path id="Trazado_97342" data-name="Trazado 97342" d="M698.727,1591.618h172.54a3.017,3.017,0,0,0,3.017-3.017v-4.525h-183.1A7.542,7.542,0,0,0,698.727,1591.618Z" transform="translate(-179.264 -600.029)" fill="#00223d"/>
    <path id="Trazado_97343" data-name="Trazado 97343" d="M691.5,1586.171a7.175,7.175,0,0,1-.314-2.1h183.1a7.159,7.159,0,0,1-.315,2.1Z" transform="translate(-179.264 -600.029)" fill="#00223d" opacity="0.6"/>
    <path id="Trazado_97344" data-name="Trazado 97344" d="M1151.434,1326.959h-21.324l-42.81-77.8v-8.1h16.865Z" transform="translate(-560.924 -347.509)" fill="#fff" opacity="0.5" style="mix-blend-mode: soft-light;isolation: isolate"/>
    <path id="Trazado_97345" data-name="Trazado 97345" d="M902.571,1326.959H873.492l-47.268-85.9H855.3Z" transform="translate(-243.179 -347.509)" fill="#fff" opacity="0.5" style="mix-blend-mode: soft-light;isolation: isolate"/>
    <path id="Trazado_97346" data-name="Trazado 97346" d="M745.974,1241.055h13.383l44.554,80.97v4.934H793.242Z" transform="translate(-123.345 -347.509)" fill="#fff" opacity="0.5" style="mix-blend-mode: soft-light;isolation: isolate"/>
    <path id="Trazado_97347" data-name="Trazado 97347" d="M1447.029,1359.449l-1.276,2.925c-.13.1-.28.052-.652-.074-.666-.225-1.332-.45-2.006-.651a.453.453,0,0,0-.369.1c-.5.474-.97.977-1.473,1.446a.372.372,0,0,0-.146.458c.271.857.518,1.72.771,2.572a9.851,9.851,0,0,1-3.237,1.307c-.387-.763-.794-1.537-1.171-2.325a.433.433,0,0,0-.513-.294,17.987,17.987,0,0,1-1.994-.015c-.269-.014-.438.01-.576.279-.356.7-.754,1.374-1.122,2.065-.1.186-.212.259-.408.175l-2.76-1.178c-.226-.1-.129-.267-.084-.411.226-.727.449-1.455.7-2.172a.493.493,0,0,0-.169-.619c-.569-.514-1.1-1.065-1.695-1.642l-2.754.807a10.271,10.271,0,0,1-1.267-3.232l2.5-1.281c.032-.915.043-1.763.1-2.607a.388.388,0,0,0-.245-.447c-.682-.361-1.353-.744-2.033-1.11-.147-.08-.243-.152-.191-.343a9.817,9.817,0,0,1,1.136-2.734.309.309,0,0,1,.425-.143c.757.244,1.518.473,2.274.72a.358.358,0,0,0,.442-.105c.531-.539,1.085-1.056,1.652-1.557a.306.306,0,0,0,.1-.379c-.253-.862-.5-1.726-.754-2.612a11.005,11.005,0,0,1,3.184-1.286l1.336,2.609,2.874.031c.333-.6.712-1.3,1.1-1.988.321-.566.2-.561.86-.352a1.119,1.119,0,0,0,.2.025l1.648.718a2.12,2.12,0,0,0,.339.221c.318.133.411.309.283.663-.266.736-.487,1.489-.707,2.24a.414.414,0,0,0,.082.338c.457.5.959.96,1.389,1.482a.508.508,0,0,0,.658.186c.812-.254,1.635-.475,2.536-.732l1.291,3.194c-.192.1-.3.164-.413.221-.687.352-1.371.709-2.064,1.048a.389.389,0,0,0-.236.426c0,.733-.053,1.466-.06,2.2a.458.458,0,0,0,.2.335c.546.321,1.11.612,1.662.921C1446.849,1359.126,1447.013,1359.22,1447.029,1359.449Zm-6.305-1.094a5.165,5.165,0,0,0-2.671-6.8h0a5.165,5.165,0,0,0-6.8,2.671h0a5.164,5.164,0,0,0,2.671,6.8h0a5.164,5.164,0,0,0,6.8-2.671Z" transform="translate(-945.86 -424.095)" fill="#fec55e"/>
    <path id="Trazado_97348" data-name="Trazado 97348" d="M961.241,1125.507s3.312,94.438,16.045,114.482H955.462V1122.915Z" transform="translate(-351.991 -260.539)" fill="#00223d"/>
    <path id="Trazado_97349" data-name="Trazado 97349" d="M762.371,1466.055a17.079,17.079,0,0,1,7.214,1.581v24.96H750.818a15.08,15.08,0,0,1-4.844-11.016C745.974,1473.005,753.315,1466.055,762.371,1466.055Z" transform="translate(-89.02 -513.146)" fill="#00223d"/>
    <path id="Trazado_97350" data-name="Trazado 97350" d="M813.834,1487.658c7.927,0,14.352,6.084,14.352,13.589a13.006,13.006,0,0,1-2.213,7.252H801.7a13,13,0,0,1-2.214-7.252C799.482,1493.742,805.907,1487.658,813.834,1487.658Z" transform="translate(-161.738 -529.049)" fill="#00223d"/>
    <path id="Trazado_97351" data-name="Trazado 97351" d="M883.837,1426.878c12.1,0,21.9,9.285,21.9,20.738a20.306,20.306,0,0,1-8.151,16.14h-27.5a20.3,20.3,0,0,1-8.151-16.14C861.935,1436.162,871.741,1426.878,883.837,1426.878Z" transform="translate(-255.769 -484.305)" fill="#00223d"/>
    <path id="Trazado_97352" data-name="Trazado 97352" d="M1054.516,1125.507s-3.606,94.438-16.338,114.482H1060.3V1122.915Z" transform="translate(-456.824 -260.539)" fill="#00223d"/>
    <path id="Trazado_97353" data-name="Trazado 97353" d="M1248.106,1466.055a17.083,17.083,0,0,0-7.214,1.581v24.96h18.768a15.08,15.08,0,0,0,4.843-11.016C1264.5,1473.005,1257.162,1466.055,1248.106,1466.055Z" transform="translate(-714.515 -513.146)" fill="#00223d"/>
    <path id="Trazado_97354" data-name="Trazado 97354" d="M1182.43,1487.658c-7.926,0-14.352,6.084-14.352,13.589a13.005,13.005,0,0,0,2.214,7.252h24.277a13,13,0,0,0,2.214-7.252C1196.782,1493.742,1190.357,1487.658,1182.43,1487.658Z" transform="translate(-627.584 -529.049)" fill="#00223d"/>
    <path id="Trazado_97355" data-name="Trazado 97355" d="M1070.3,1426.878c-12.1,0-21.9,9.285-21.9,20.738a20.305,20.305,0,0,0,8.151,16.14h27.5a20.306,20.306,0,0,0,8.151-16.14C1092.2,1436.162,1082.392,1426.878,1070.3,1426.878Z" transform="translate(-491.423 -484.305)" fill="#00223d"/>
    <g id="Grupo_46853" data-name="Grupo 46853" transform="translate(568.608 769)">
      <path id="Trazado_97356" data-name="Trazado 97356" d="M987.843,1155.88l10.657-4.352,10.657,4.352s13,17.292-10.657,39.9C974.845,1173.173,987.843,1155.88,987.843,1155.88Z" transform="translate(-963.637 -1050.604)" fill="#f4b34a"/>
      <path id="Trazado_97357" data-name="Trazado 97357" d="M1004.3,1167.327l7.172-2.928,7.173,2.928s8.748,11.639-7.173,26.855C995.554,1178.966,1004.3,1167.327,1004.3,1167.327Z" transform="translate(-976.611 -1060.078)" fill="#fec55e"/>
      <path id="Trazado_97358" data-name="Trazado 97358" d="M1023.669,1153.783l3.072-2.254,3.073,2.254s3.746,8.957-3.073,20.667C1019.922,1162.74,1023.669,1153.783,1023.669,1153.783Z" transform="translate(-991.878 -1050.604)" fill="#00223d"/>
      <path id="Trazado_97359" data-name="Trazado 97359" d="M1112.44,1075.235s-14.086-1.992-19.368,13.329h0a30.489,30.489,0,0,1,.083-15.771c1.732-6.292,4.984-14.809,10.934-22.043C1115.08,1037.383,1112.44,1075.235,1112.44,1075.235Z" transform="translate(-1092.075 -974.31)" fill="#8ec8c8"/>
      <path id="Trazado_97360" data-name="Trazado 97360" d="M906.318,1075.235s14.086-1.992,19.368,13.329h0a30.485,30.485,0,0,0-.083-15.771c-1.732-6.292-4.985-14.809-10.935-22.043C903.676,1037.383,906.318,1075.235,906.318,1075.235Z" transform="translate(-856.956 -974.31)" fill="#8ec8c8"/>
      <path id="Trazado_97361" data-name="Trazado 97361" d="M951.665,828.835C952.8,796.176,965.328,780.8,974.432,769c9.1,11.8,21.612,27.176,22.75,59.835s-8.847,48.25-8.847,48.25H960.512S950.527,861.493,951.665,828.835Z" transform="translate(-939.561 -769)" fill="#8ec8c8"/>
      <path id="Trazado_97362" data-name="Trazado 97362" d="M1024.537,1096.538v-37.815S1032.635,1080.891,1024.537,1096.538Z" transform="translate(-989.674 -982.284)" fill="#8ec8c8"/>
      <path id="Trazado_97363" data-name="Trazado 97363" d="M1038.477,829.064c1.135-32.583,13.605-47.964,22.7-59.753v108h-13.856S1037.34,861.722,1038.477,829.064Z" transform="translate(-1026.373 -769.229)" fill="#8ec8c8"/>
      <path id="Trazado_97364" data-name="Trazado 97364" d="M967.472,802.719C972.159,786.857,980,777.087,986.245,769c6.19,8.023,13.953,17.7,18.646,33.339A55.568,55.568,0,0,1,967.472,802.719Z" transform="translate(-951.374 -769)" fill="#584795"/>
      <path id="Trazado_97365" data-name="Trazado 97365" d="M1057.1,769.311v36.681a57.263,57.263,0,0,1-18.71-3.044C1043.057,787.139,1050.867,777.383,1057.1,769.311Z" transform="translate(-1022.289 -769.229)" fill="#584795"/>
      <path id="Trazado_97366" data-name="Trazado 97366" d="M1041.777,1058.723v37.815C1033.679,1080.89,1041.777,1058.723,1041.777,1058.723Z" transform="translate(-1006.914 -982.283)" fill="#26aab7"/>
      <path id="Trazado_97367" data-name="Trazado 97367" d="M997.521,959.45a13.159,13.159,0,0,0,5.217,1.07,12.987,12.987,0,1,0-5.217-1.07Z" transform="translate(-968.126 -891.062)" fill="url(#linear-gradient)"/>
      <path id="Trazado_97368" data-name="Trazado 97368" d="M996.686,953.414a11,11,0,1,0,11-10.845A10.925,10.925,0,0,0,996.686,953.414Z" transform="translate(-972.88 -896.775)" fill="#584795"/>
    </g>
    <path id="Trazado_97369" data-name="Trazado 97369" d="M826.473,1503.594h-80.5a16.156,16.156,0,0,1,12.641-6.078c.113,0,.226,0,.338,0,0-.112,0-.225,0-.338a16.19,16.19,0,0,1,31.325-5.749,14.407,14.407,0,0,1,18.222,2.289,10.734,10.734,0,0,1,17.976-2.117Z" transform="translate(-145.908 -524.144)" fill="#fcfcfc" opacity="0.6"/>
    <path id="Trazado_97370" data-name="Trazado 97370" d="M1072.768,1497.515v-13.539a10.731,10.731,0,0,1,16.54,3.935,14.41,14.41,0,0,1,19.3-4.3,14.36,14.36,0,0,1,27.948,6.6,5.093,5.093,0,0,1,3.631,7.3Z" transform="translate(-546.391 -518.065)" fill="#fcfcfc" opacity="0.6"/>
    <g id="Grupo_46855" data-name="Grupo 46855" transform="translate(645.175 850.994)">
      <path id="Trazado_97371" data-name="Trazado 97371" d="M810.672,1126.226c.187.008.7.18,1.449,1.6a53.171,53.171,0,0,1,2.355,7.271l-4.175,1.555-.536-1.14-.883-8.779S810.62,1126.224,810.672,1126.226Z" transform="translate(-795.684 -1113.97)" fill="#26aab7"/>
      <path id="Trazado_97372" data-name="Trazado 97372" d="M829.7,1123.241a25.5,25.5,0,0,1,5.518.788s1.007,8.656-.906,15.234c-.429,1.472.354,6.1.354,6.1l-12.37-.163s1.466-11.2.914-13-.565-8.111-.565-8.111.085-.013,2.779-.479A27.98,27.98,0,0,1,829.7,1123.241Z" transform="translate(-820.233 -1111.773)" fill="#8ec8c8"/>
      <path id="Trazado_97373" data-name="Trazado 97373" d="M849.434,1268a16.659,16.659,0,0,0,.777,4.033c.5.875-.026,2.362-.053,2.565s-1.059.5-2.7.321-1.615-.554-1.483-1.166,1.006-1.4,1.059-1.983a15.258,15.258,0,0,0-.5-2.682Z" transform="translate(-841.406 -1218.337)" fill="#ffc3b5"/>
      <path id="Trazado_97374" data-name="Trazado 97374" d="M800.011,1196.679s8.539-.474,10.446.681-1.355,6.823-1.355,6.823-5.941-.274-17.58.4c-2.756.159-2.994-7.186-2.479-7.794S800.011,1196.679,800.011,1196.679Z" transform="translate(-786.971 -1165.693)" fill="#03192b"/>
      <path id="Trazado_97375" data-name="Trazado 97375" d="M846.678,1286.945c-1.691-.18-1.482-1.011-1.346-1.641a5.587,5.587,0,0,1,.86-1.3,2.822,2.822,0,0,0,1.131.55,4.227,4.227,0,0,0,2.474-.5,8.188,8.188,0,0,1,.226,2.181A4.918,4.918,0,0,1,846.678,1286.945Z" transform="translate(-840.832 -1230.12)" fill="#293241"/>
      <path id="Trazado_97376" data-name="Trazado 97376" d="M853.191,1203.025c.341,2.582,2.03,15.433,2.03,15.433l-3.919.486s-4.82-16.775-4.573-19.34,2.051-2.782,2.051-2.782S852.288,1196.191,853.191,1203.025Z" transform="translate(-846.412 -1165.93)" fill="#00223d"/>
      <path id="Trazado_97377" data-name="Trazado 97377" d="M818.934,1130.058c1.157-.434,1.723,9.987,1.879,14.277a50.483,50.483,0,0,0,6.507-.066c.418-.031,1.382-.385,1.8-.439a4.171,4.171,0,0,1,1.022-.049,19.279,19.279,0,0,1,2.395,1.078c.226.238.839.836.735,1.1s-1.178-.722-1.178-.722l-.525-.294c.654.638,1.9,1.479,1.721,1.785s-1.3-.554-2.1-1.137c.687.621,1.541,1.732,1.344,1.905-.177.156-1.148-1.13-2.186-1.5-.384-.137-.768.243-1.071.289a2.18,2.18,0,0,1-.784.043l-1.124-.319c-.383.034-.392.261-.779.343-.449.1-1.186.2-1.757.336-3.292.805-4.39,1.179-5.4,1.178C816.377,1147.861,816.2,1131.083,818.934,1130.058Z" transform="translate(-816.655 -1116.782)" fill="#ffc3b5"/>
      <path id="Trazado_97378" data-name="Trazado 97378" d="M862.093,1137.124c-.217-4.393-.185-9.809,2.278-10.732.972-.365,2.685,1.827,2.377,10.822A18.478,18.478,0,0,1,862.093,1137.124Z" transform="translate(-862.009 -1114.065)" fill="#26aab7"/>
      <path id="Trazado_97379" data-name="Trazado 97379" d="M796.933,1279.329a2.136,2.136,0,0,0-.12,1.838c.445.838,2.782,2.071,3.026,2.526a1.1,1.1,0,0,1,.148.776l-6.939-1.7.532-2.091.649-1.446Z" transform="translate(-777.034 -1226.607)" fill="#ffc3b5"/>
      <path id="Trazado_97380" data-name="Trazado 97380" d="M793.178,1285.648s-1.95.337-2.724-.279-.722-.73-1.007-.624c-.183.068-.463.9-.639,1.488a.57.57,0,0,0,.411.717l7.225,1.786c.549.1.913-.238.543-.678a6.5,6.5,0,0,0-.746-.693A25.084,25.084,0,0,0,793.178,1285.648Z" transform="translate(-773.043 -1230.641)" fill="#293241"/>
      <path id="Trazado_97381" data-name="Trazado 97381" d="M786.1,1199.193c.552-1.162,1.807-2.675,4.017-1.764,2.107.869,2.672,3,2.008,5.191s-5.041,15.04-5.193,16.807l-3.494.023s.635-10.177.791-12.638A23.828,23.828,0,0,1,786.1,1199.193Z" transform="translate(-766.88 -1166.183)" fill="#00223d"/>
      <path id="Trazado_97382" data-name="Trazado 97382" d="M805.624,1160.022H793.945a.761.761,0,0,0-.7.474l-3.6,8.8H783.2a.326.326,0,0,0-.326.327h0a.326.326,0,0,0,.326.327h18.326a1.28,1.28,0,0,0,1.167-.758l3.621-8.094A.764.764,0,0,0,805.624,1160.022Z" transform="translate(-780.733 -1138.85)" fill="#fec55e"/>
      <path id="Trazado_97383" data-name="Trazado 97383" d="M810.806,1177.069a.643.643,0,1,1-.482-.841A.687.687,0,0,1,810.806,1177.069Z" transform="translate(-792.204 -1150.772)" fill="#fff"/>
      <g id="Grupo_46854" data-name="Grupo 46854" transform="translate(5.744)">
        <path id="Trazado_97384" data-name="Trazado 97384" d="M833.114,1080.671a8.932,8.932,0,0,1-1.033-.413,5.192,5.192,0,0,0-1.178-.444,2.842,2.842,0,0,0-2.39.638c-.77.836-2.139.151-1.863,4.528.312,4.954,3.067,4.41,3.133,4.327s2.457-3.17,2.457-3.17.836,1.829.836,1.761S837.342,1082.095,833.114,1080.671Z" transform="translate(-826.613 -1079.776)"/>
        <path id="Trazado_97385" data-name="Trazado 97385" d="M842.8,1109.5l.238,1.771s.532,2.55-.153,3.042-2.914-3.115-2.914-3.115l.235-4.485Z" transform="translate(-838.395 -1099.607)" fill="#ffc3b5"/>
        <path id="Trazado_97386" data-name="Trazado 97386" d="M840.86,1108.168a5.078,5.078,0,0,0,2.872,2.835l-.2-1.5-2.594-2.788Z" transform="translate(-839.12 -1099.607)" fill="#fc8899"/>
        <path id="Trazado_97387" data-name="Trazado 97387" d="M834.845,1088.128a2.361,2.361,0,0,1,2.719,2.387,17.971,17.971,0,0,1-.2,2.271c-.316,2.043-1.71,3.843-2.632,3.682a4.43,4.43,0,0,1-2.833-4.832A3.909,3.909,0,0,1,834.845,1088.128Z" transform="translate(-830.576 -1085.902)" fill="#ffc3b5"/>
        <path id="Trazado_97388" data-name="Trazado 97388" d="M852.181,1100.21a.687.687,0,1,1-.522-.929A.761.761,0,0,1,852.181,1100.21Z" transform="translate(-850.218 -1094.129)" fill="#ffc3b5"/>
        <path id="Trazado_97389" data-name="Trazado 97389" d="M831.052,1089.163s1.115.277,1.528-.44,1.893-2.264,3.773-1.622-1.655-1.56-1.8-1.56l-1.956-.012s-1.391,1.145-1.441,1.27-.451,1.5-.451,1.5Z" transform="translate(-829.611 -1084.01)"/>
      </g>
      <path id="Trazado_97390" data-name="Trazado 97390" d="M837.468,1110.641l2.028.387a.9.9,0,0,1-1.091.62C837.312,1111.472,837.468,1110.641,837.468,1110.641Z" transform="translate(-828.243 -1102.497)" fill="#fff"/>
    </g>
    <g id="Grupo_46857" data-name="Grupo 46857" transform="translate(673.846 983.921)">
      <path id="Trazado_97391" data-name="Trazado 97391" d="M605.943,1592.063v7.362c0,1.19-13.278,2.155-29.657,2.155s-29.657-.965-29.657-2.155v-7.362Z" transform="translate(-546.629 -1589.83)" fill="#f4b34a"/>
      <g id="Grupo_46856" data-name="Grupo 46856" transform="translate(0 2.233)">
        <path id="Trazado_97392" data-name="Trazado 97392" d="M546.629,1601.5v-9.434h21.463v7.362C568.092,1600.409,559.022,1601.239,546.629,1601.5Z" transform="translate(-508.778 -1592.063)" fill="#fec55e"/>
        <path id="Trazado_97393" data-name="Trazado 97393" d="M649.46,1601.517c-2.3.041-4.714.064-7.2.064-3.7,0-7.238-.049-10.5-.14v-9.378h17.7Z" transform="translate(-612.607 -1592.063)" fill="#fec55e"/>
        <path id="Trazado_97394" data-name="Trazado 97394" d="M721.311,1601.407c-10.566-.33-17.967-1.093-17.967-1.981v-7.362h17.967Z" transform="translate(-703.344 -1592.063)" fill="#eab054"/>
      </g>
      <path id="Trazado_97395" data-name="Trazado 97395" d="M546.629,1585.753c0,1.19,13.278,2.155,29.657,2.155s29.657-.965,29.657-2.155-13.278-2.155-29.657-2.155S546.629,1584.563,546.629,1585.753Z" transform="translate(-546.629 -1583.598)" fill="#f4b34a"/>
      <path id="Trazado_97396" data-name="Trazado 97396" d="M566.471,1587.6c0,.826,10.934,1.494,24.422,1.494s24.422-.669,24.422-1.494-10.934-1.494-24.422-1.494S566.471,1586.772,566.471,1587.6Z" transform="translate(-561.236 -1585.442)" fill="#f7cc7f"/>
    </g>
    <g id="Grupo_46859" data-name="Grupo 46859" transform="translate(678.92 976.13)">
      <path id="Trazado_97397" data-name="Trazado 97397" d="M586.711,1562.534v7.362c0,1.19-13.278,2.155-29.657,2.155s-29.657-.965-29.657-2.155v-7.362Z" transform="translate(-527.398 -1560.301)" fill="#f4b34a"/>
      <g id="Grupo_46858" data-name="Grupo 46858" transform="translate(0 2.233)">
        <path id="Trazado_97398" data-name="Trazado 97398" d="M527.4,1571.968v-9.434H548.86v7.362C548.86,1570.88,539.792,1571.71,527.4,1571.968Z" transform="translate(-489.547 -1562.534)" fill="#fec55e"/>
        <path id="Trazado_97399" data-name="Trazado 97399" d="M630.228,1571.987c-2.3.042-4.714.064-7.2.064-3.7,0-7.237-.049-10.5-.138v-9.379h17.7Z" transform="translate(-593.375 -1562.534)" fill="#fec55e"/>
        <path id="Trazado_97400" data-name="Trazado 97400" d="M702.079,1571.877c-10.567-.329-17.967-1.093-17.967-1.981v-7.362h17.967Z" transform="translate(-684.112 -1562.534)" fill="#eab054"/>
      </g>
      <ellipse id="Elipse_3874" data-name="Elipse 3874" cx="29.657" cy="2.155" rx="29.657" ry="2.155" transform="translate(0 0)" fill="#f4b34a"/>
      <ellipse id="Elipse_3875" data-name="Elipse 3875" cx="24.422" cy="1.494" rx="24.422" ry="1.494" transform="translate(5.235 0.661)" fill="#f7cc7f"/>
    </g>
    <g id="Grupo_46861" data-name="Grupo 46861" transform="translate(675.539 968.132)">
      <path id="Trazado_97401" data-name="Trazado 97401" d="M599.524,1532.221v7.362c0,1.19-13.278,2.155-29.657,2.155s-29.657-.965-29.657-2.155v-7.362Z" transform="translate(-540.211 -1529.988)" fill="#f4b34a"/>
      <g id="Grupo_46860" data-name="Grupo 46860" transform="translate(0 2.233)">
        <path id="Trazado_97402" data-name="Trazado 97402" d="M540.211,1541.655v-9.434h21.462v7.362C561.673,1540.567,552.6,1541.4,540.211,1541.655Z" transform="translate(-502.359 -1532.221)" fill="#fec55e"/>
        <path id="Trazado_97403" data-name="Trazado 97403" d="M643.042,1541.674c-2.3.042-4.714.064-7.2.064-3.7,0-7.238-.049-10.5-.139v-9.378h17.7Z" transform="translate(-606.189 -1532.221)" fill="#fec55e"/>
        <path id="Trazado_97404" data-name="Trazado 97404" d="M714.892,1541.564c-10.566-.33-17.966-1.093-17.966-1.981v-7.362h17.966Z" transform="translate(-696.926 -1532.221)" fill="#fec55e"/>
      </g>
      <ellipse id="Elipse_3876" data-name="Elipse 3876" cx="29.657" cy="2.155" rx="29.657" ry="2.155" transform="translate(0 0)" fill="#f4b34a"/>
      <ellipse id="Elipse_3877" data-name="Elipse 3877" cx="24.422" cy="1.494" rx="24.422" ry="1.494" transform="translate(5.235 0.661)" fill="#f7cc7f"/>
    </g>
    <g id="Grupo_46863" data-name="Grupo 46863" transform="translate(678.92 960.244)">
      <path id="Trazado_97405" data-name="Trazado 97405" d="M586.711,1502.322v7.362c0,1.191-13.278,2.155-29.657,2.155s-29.657-.965-29.657-2.155v-7.362Z" transform="translate(-527.398 -1500.089)" fill="#f4b34a"/>
      <g id="Grupo_46862" data-name="Grupo 46862" transform="translate(0 2.233)">
        <path id="Trazado_97406" data-name="Trazado 97406" d="M527.4,1511.756v-9.434H548.86v7.362C548.86,1510.668,539.792,1511.5,527.4,1511.756Z" transform="translate(-489.547 -1502.322)" fill="#fec55e"/>
        <path id="Trazado_97407" data-name="Trazado 97407" d="M630.228,1511.775c-2.3.041-4.714.064-7.2.064-3.7,0-7.237-.05-10.5-.139v-9.378h17.7Z" transform="translate(-593.375 -1502.322)" fill="#fec55e"/>
        <path id="Trazado_97408" data-name="Trazado 97408" d="M702.079,1511.666c-10.567-.33-17.967-1.093-17.967-1.981v-7.362h17.967Z" transform="translate(-684.112 -1502.322)" fill="#fec55e"/>
      </g>
      <path id="Trazado_97409" data-name="Trazado 97409" d="M527.4,1496.013c0,1.19,13.278,2.155,29.657,2.155s29.657-.965,29.657-2.155-13.278-2.155-29.657-2.155S527.4,1494.823,527.4,1496.013Z" transform="translate(-527.398 -1493.858)" fill="#f4b34a"/>
      <path id="Trazado_97410" data-name="Trazado 97410" d="M547.24,1497.857c0,.826,10.934,1.494,24.422,1.494s24.422-.669,24.422-1.494-10.934-1.494-24.422-1.494S547.24,1497.032,547.24,1497.857Z" transform="translate(-542.005 -1495.702)" fill="#f7cc7f"/>
    </g>
    <g id="Grupo_46865" data-name="Grupo 46865" transform="translate(640.315 976.427)">
      <rect id="Rectángulo_28275" data-name="Rectángulo 28275" width="51.955" height="18.909" transform="translate(0)" fill="#fcfcfc"/>
      <g id="Grupo_46864" data-name="Grupo 46864" transform="translate(0)">
        <rect id="Rectángulo_28276" data-name="Rectángulo 28276" width="51.955" height="2.432" transform="translate(0 2.756)" fill="#eff4ef"/>
        <rect id="Rectángulo_28277" data-name="Rectángulo 28277" width="51.955" height="2.432" transform="translate(0 7.507)" fill="#eff4ef"/>
        <rect id="Rectángulo_28278" data-name="Rectángulo 28278" width="51.955" height="2.433" transform="translate(0 12.259)" fill="#eff4ef"/>
        <rect id="Rectángulo_28279" data-name="Rectángulo 28279" width="51.955" height="2.432" transform="translate(0 16.477)" fill="#eff4ef"/>
        <rect id="Rectángulo_28280" data-name="Rectángulo 28280" width="10.805" height="18.909" transform="translate(19.341)" fill="#f5ca56"/>
      </g>
      <rect id="Rectángulo_28281" data-name="Rectángulo 28281" width="7.846" height="18.909" transform="translate(51.324)" fill="#26aab7"/>
    </g>
    <g id="Grupo_46866" data-name="Grupo 46866" transform="translate(675.831 925.733)">
      <path id="Trazado_97411" data-name="Trazado 97411" d="M598.023,1367.478c.671-1.616,1.354-3.234,3.1-4.053a3.9,3.9,0,0,1,4.135.529c3.549,2.668.456,5.609,4.5,10.67,1.255,1.573,2.775,2.842,3.527,4.685,1.053,2.579-.2,3.818-2.211,5.053-9.616,5.91-14.657-6.225-14.476-9A44.69,44.69,0,0,1,598.023,1367.478Z" transform="translate(-569.51 -1363.053)"/>
      <path id="Trazado_97412" data-name="Trazado 97412" d="M655.778,1441.5c.406-.064,1.391-.769,1.738-.834.27-.05.852-.138,1.1-.174.3-1.135,1.848-7.327,2.021-9.142.187-1.966,1.578-10.472,1.578-10.472l3.6.654s-1.495,6.543-1.909,9.716c-.355,2.725-3.345,8.853-3.725,9.5,0,.016,0,.031,0,.047-.058.962-.521.641-.521.641l-.753.192s-2.664.257-2.838.32S655.373,1441.566,655.778,1441.5Z" transform="translate(-637.245 -1405.623)" fill="#ffc3b5"/>
      <path id="Trazado_97413" data-name="Trazado 97413" d="M651.508,1402.034c-2.545.864-3.992,7.782-3.992,7.782s3.993,1.115,5.016.53c0,0,1.161-5.147,1.578-4.968Z" transform="translate(-623.398 -1391.749)" fill="#8ec8c8"/>
      <path id="Trazado_97414" data-name="Trazado 97414" d="M738.818,1544.352a27.233,27.233,0,0,0-1.219,4.272c-.017.115.145.673.13.792a7.217,7.217,0,0,1-5.735,2.735,32.476,32.476,0,0,0,2.492-2.17,37.781,37.781,0,0,0,.994-5.615C736.677,1544.921,737.49,1544.481,738.818,1544.352Z" transform="translate(-730.395 -1496.519)" fill="#ffc3b5"/>
      <path id="Trazado_97415" data-name="Trazado 97415" d="M661.108,1457.265l3.439,9.687s-5.527,1.041-7.594,1.419-13.611.884-13.9,1.088c-.217.153-2.6,7.866-3.667,12.12a10,10,0,0,1-4.378-.433c.594-6.085,2.742-15.727,3.43-16.777C639.554,1462.659,661.108,1457.265,661.108,1457.265Z" transform="translate(-630.535 -1432.408)" fill="#d1d1d1"/>
      <path id="Trazado_97416" data-name="Trazado 97416" d="M704.21,1560.446a27.194,27.194,0,0,0-.4,4.424c0,.117.268.635.276.755a7.217,7.217,0,0,1-5.121,3.76,32.214,32.214,0,0,0,2.041-2.6,37.631,37.631,0,0,0-.075-5.7C702.214,1561.406,702.931,1560.822,704.21,1560.446Z" transform="translate(-687.074 -1508.366)" fill="#ffc3b5"/>
      <path id="Trazado_97417" data-name="Trazado 97417" d="M645.832,1459.17l1.334,2.279a6.529,6.529,0,0,1-3.273,9.386l-.06.023c-1.959.759-13.205,3.418-13.454,3.674-.185.19-1.082,8.214-1.331,12.592a10.005,10.005,0,0,1-4.382.4c-.556-6.089-.253-15.963.226-17.122C625.671,1468.508,645.832,1459.17,645.832,1459.17Z" transform="translate(-611.244 -1433.811)" fill="#fcfcfc"/>
      <path id="Trazado_97418" data-name="Trazado 97418" d="M699.884,1577.359c.3-.331,1.4,1.489,1.674,1.878a.871.871,0,0,1,.184.835c-.1.18-5.895,3.59-7.308,3.833a.709.709,0,0,1-.423-.113c-.553-.49,1.991-4.1,3.132-4.575A5.479,5.479,0,0,0,699.884,1577.359Z" transform="translate(-683.318 -1520.788)" fill="#8ec8c8"/>
      <path id="Trazado_97419" data-name="Trazado 97419" d="M738.988,1560.719c.356-.269,1.095,1.726,1.292,2.158a.869.869,0,0,1,.024.854c-.13.159-6.463,2.423-7.9,2.4a.711.711,0,0,1-.394-.191c-.451-.584,2.724-3.655,3.934-3.907A5.476,5.476,0,0,0,738.988,1560.719Z" transform="translate(-731.969 -1508.55)" fill="#8ec8c8"/>
      <path id="Trazado_97420" data-name="Trazado 97420" d="M628.79,1401.55h0a.954.954,0,0,1-.257-.053,4.432,4.432,0,0,0-2.31.131c-.978.412-2.494,4.268-2.4,8.225.036.6.073,1.146.1,1.524.247,2.989,1.1,8.6,1.15,8.628,1.167.751,8.206-2.16,8.689-2.8s.769-8.409,1-8.8l.462-6.757A53.092,53.092,0,0,0,628.79,1401.55Z" transform="translate(-598.267 -1391.285)" fill="#8ec8c8"/>
      <path id="Trazado_97421" data-name="Trazado 97421" d="M641.048,1389.115a18,18,0,0,0-.363,3.269c.091.925-.345,3.9-2.3,3.914s-.372-3.789-.187-4.695a34.662,34.662,0,0,0,.228-3.711Z" transform="translate(-607.672 -1381.339)" fill="#ffc3b5"/>
      <path id="Trazado_97422" data-name="Trazado 97422" d="M637.415,1389.3c.031-.767.04-1.407.04-1.407l2.625,1.223s-.093.48-.186,1.09A2.291,2.291,0,0,1,637.415,1389.3Z" transform="translate(-606.704 -1381.339)" fill="#fc8899"/>
      <path id="Trazado_97423" data-name="Trazado 97423" d="M632.726,1367.143a3.249,3.249,0,0,1,1.381,1.777c.37,1.216-.051,4.354-2.664,5.112s-3.744-1.728-3.206-3.67S629.946,1365.958,632.726,1367.143Z" transform="translate(-598.391 -1365.836)" fill="#ffc3b5"/>
      <path id="Trazado_97424" data-name="Trazado 97424" d="M647.837,1374.559c.052.522.339.921.643.891s.509-.477.458-1-.339-.92-.643-.89S647.786,1374.037,647.837,1374.559Z" transform="translate(-618.317 -1370.787)" fill="#ffc3b5"/>
      <path id="Trazado_97425" data-name="Trazado 97425" d="M624.474,1367.406s.474,3.5,1.605,4.132.658,2.184.658,2.184,1.026-3.605.131-4.763A4.98,4.98,0,0,0,624.474,1367.406Z" transform="translate(-590.446 -1366.258)"/>
      <path id="Trazado_97426" data-name="Trazado 97426" d="M626.524,1383.488c-.307.456-.306.994,0,1.2s.807.006,1.114-.45.306-.994,0-1.2S626.832,1383.032,626.524,1383.488Z" transform="translate(-591.56 -1377.705)" fill="#ffc3b5"/>
      <path id="Trazado_97427" data-name="Trazado 97427" d="M638.859,1385.71l1.841.463a.837.837,0,0,1-1.037.52C638.668,1386.473,638.859,1385.71,638.859,1385.71Z" transform="translate(-607.701 -1379.732)" fill="#fff"/>
      <path id="Trazado_97428" data-name="Trazado 97428" d="M593.215,1440.074c-.033-.084-.106-.086-.181-.088a18.47,18.47,0,0,1-2.179-.163,1.548,1.548,0,0,1-.35-.089.912.912,0,0,0-.6-.022,1.212,1.212,0,0,1-.335.036c-.366,0-1.411-.357-1.948-.451a.314.314,0,0,1-.25-.235c-.528-2.088-1.661-6.775-1.808-8.316-.188-1.971-1.549-10.856-1.549-10.856l-3.641,1.015s1.5,6.559,1.913,9.74c.32,2.456,2.774,7.667,3.544,9.166a1.535,1.535,0,0,0,1.415,1.169.456.456,0,0,1,.288.155,2.017,2.017,0,0,0,.46.4,1.076,1.076,0,0,1,.314.312c.155.226.293.462.43.7.091.157.186.207.32.169a.286.286,0,0,0,.211-.322,1.44,1.44,0,0,0-.218-.717.39.39,0,0,1,.029-.52,1.649,1.649,0,0,1,.273-.3.47.47,0,0,1,.372-.135,6.076,6.076,0,0,0,.794.148l.22.045.12.026c.018,0,.406.047.538.047.107,0,.279.008.426.015a2.331,2.331,0,0,0,.424-.063.519.519,0,0,0,.34-.136c.04-.036.078-.076.057-.136a.134.134,0,0,0-.118-.089,5.09,5.09,0,0,1-.535-.09c.135,0,.555-.01.689-.013a.632.632,0,0,0,.462-.2C593.191,1440.211,593.248,1440.158,593.215,1440.074Z" transform="translate(-544.798 -1404.894)" fill="#ffc3b5"/>
      <path id="Trazado_97429" data-name="Trazado 97429" d="M614.532,1402.264c1.8-.327,3.28,7.714,3.28,7.714s-3.993,1.115-5.016.53c0,0-1.161-5.147-1.578-4.968Z" transform="translate(-577.524 -1391.911)" fill="#8ec8c8"/>
    </g>
    <g id="Grupo_46870" data-name="Grupo 46870" transform="translate(524.332 795.954)">
      <g id="Grupo_46869" data-name="Grupo 46869" transform="translate(0 0)">
        <path id="Trazado_97430" data-name="Trazado 97430" d="M1309.949,1191.183s-.8.787-.823,1.077-.071,3.388.257,3.677,1.433.8.984.82c-.321.015-2.1.081-3.293.015-.349-.02-.73-2.7-.869-3.112-.2-.6-.689-1.94-.507-2.356a3.484,3.484,0,0,1,1.115-1.007,5.5,5.5,0,0,0,1.234-1.319Z" transform="translate(-1301.904 -1105.125)" fill="#f48c7f"/>
        <path id="Trazado_97431" data-name="Trazado 97431" d="M1265.115,1204.171s-.721,2.042-.722,2.047c-.053.323-.265,1.123-.265,1.416,0,1.1,4.968-.938,3.855-1.427a1.179,1.179,0,0,1-.451-.774,2.6,2.6,0,0,1,.418-1.306Z" transform="translate(-1248.62 -1116.278)" fill="#f7a491"/>
        <g id="Grupo_46867" data-name="Grupo 46867" transform="translate(5.292 49.874)">
          <path id="Trazado_97432" data-name="Trazado 97432" d="M1249.243,1060.193s.361,3.66.361,3.715c0,5.921,1.171,17.486.948,18.6-.543,2.715-6.386,16.565-6.386,16.565l-3.159-.378,4.116-16.582-1.515-6.675-2.142-13.194Z" transform="translate(-1230.247 -1060.193)" fill="#0f8a96"/>
          <path id="Trazado_97433" data-name="Trazado 97433" d="M1257.934,1064.888l-.6,3.47-1.621,14.277-6.175,13.953s.869,2.031,2.15,2.316l9.828-14.326,6.1-18.332-.215-4.073Z" transform="translate(-1249.539 -1061.65)" fill="#26aab7"/>
        </g>
        <path id="Trazado_97434" data-name="Trazado 97434" d="M1306.167,1193.9s1.856,5.241,2.582,5.494c.193.067,1.119.237,1.293.648a1.265,1.265,0,0,1,.024.428H1306.2s-.512-2.2-.706-3.215a15.143,15.143,0,0,1-.911-2.7C1304.695,1194.327,1306.167,1193.9,1306.167,1193.9Z" transform="translate(-1301.219 -1108.75)"/>
        <path id="Trazado_97435" data-name="Trazado 97435" d="M1249.538,1213.773l.569-1.8a4.922,4.922,0,0,0,1.792.422,17.982,17.982,0,0,0,1.764-.422c2.384.787,4.337,1.169,3.982,1.8h-8.107Z" transform="translate(-1234.313 -1122.052)"/>
        <path id="Trazado_97436" data-name="Trazado 97436" d="M1142.613,892.195s4.2,2.717,14.542,2.347c0,0-11.088,4.187-15.423,4.835l-1.785-7.047Z" transform="translate(-1104.866 -886.645)" fill="#b54273"/>
        <path id="Trazado_97437" data-name="Trazado 97437" d="M1191.356,900.579a10.688,10.688,0,0,1-2.859,3.634l-.93-3.672.06-1.776Z" transform="translate(-1151.632 -891.481)" fill="#e36099"/>
        <path id="Trazado_97438" data-name="Trazado 97438" d="M1187.567,875.829s12.121-.819,14.006-.127l1.948,7.7a38.236,38.236,0,0,0-13.62,1.649Z" transform="translate(-1163.796 -874.299)" fill="#c1507f"/>
        <path id="Trazado_97439" data-name="Trazado 97439" d="M1210.322,1001.882l1.656,1.271c.319-.246,1.017-1.282,1.469-1.6l-1.514-1.651h0a.438.438,0,0,1-.177-.4,1.3,1.3,0,0,1,.042-.254c.047-.13.089-.286.136-.417s-.265-.393-.429-.439-.219.582-.289.77a20.473,20.473,0,0,0-.523,2.365Z" transform="translate(-1179.727 -964.821)" fill="#fc8899"/>
        <path id="Trazado_97440" data-name="Trazado 97440" d="M1232.942,1012.233c-.466-.5-1.122-.775-1.609-1.29l-7.351,5.062s-5.683-6.721-8.769-4.34a51.259,51.259,0,0,0,3.817,5.492c1.887,2.337,4.769,3.452,5.332,3.194C1225,1020.06,1232.777,1012.433,1232.942,1012.233Z" transform="translate(-1200.511 -974.063)" fill="#d1d1d1"/>
        <path id="Trazado_97441" data-name="Trazado 97441" d="M1323.884,939.577c.243.648.664,1.667.664,1.667.011.292.072,1.51.149,3l2.069-1.133a23.615,23.615,0,0,1-.238-2.566c.066-.135.223,0,.774-1.03a1.88,1.88,0,0,0,.136-.794s-.034-.61-.176-.65a.285.285,0,0,0-.325.18c-.036.11.006.352-.031.463a.76.76,0,0,1-.469.284,8.142,8.142,0,0,1-.2-1.792s.013-.515.03-.685c.015-.145.094-.574.094-.574s.078-.619-.115-.642c-.113-.014-.334.508-.464,1.048a10.338,10.338,0,0,1-.245,1.187c-.141,0-.186-.989-.186-.989a3.157,3.157,0,0,0,.055-.676c.1-.275.128-.766-.107-.778a4,4,0,0,0-.272.645s-.067.445-.113.654a11.783,11.783,0,0,0-.064,1.185c-.029.212-.087.134-.107.144a5.169,5.169,0,0,1-.034-.671,3.97,3.97,0,0,1-.029-.651,4.715,4.715,0,0,0,.011-.693c-.024-.51-.336-.42-.391.056-.02.181-.041.379-.062.579-.079.779.014,1.509-.067,1.525a5.549,5.549,0,0,1-.2-1.318s-.252-.717-.331-.014a6.008,6.008,0,0,0,.012,1.488A5.8,5.8,0,0,0,1323.884,939.577Z" transform="translate(-1323.604 -918.23)" fill="#ffc3b5"/>
        <path id="Trazado_97442" data-name="Trazado 97442" d="M1274.533,974.581a1.2,1.2,0,0,0-1.966.494.892.892,0,0,0-1.13.442s-1.283-.223-1.36,1.666c0,0-.652-.043-.644.724a1.888,1.888,0,0,0,.454,1.226.914.914,0,0,0-.079.989.868.868,0,0,0,.711.606s.253.982.722,1.23a1.42,1.42,0,0,0,1.041.033.673.673,0,0,0,.721.413c.5-.109,1.067-.666,1.658-.518a6.085,6.085,0,0,0,2.031-.258,2.064,2.064,0,0,0,.862-2.557,1.24,1.24,0,0,0-.1-1.733,2.159,2.159,0,0,0-.823-2.267A2.876,2.876,0,0,0,1274.533,974.581Z" transform="translate(-1259.743 -947.044)"/>
        <path id="Trazado_97443" data-name="Trazado 97443" d="M1250.2,1012.114l-2.539-1.306s-2.255.329-2.535.363-.807,10.541-.851,14.477.436,4.574.436,4.574a25,25,0,0,0,6.293-.183,20.433,20.433,0,0,0,5.639-2.437s-3.253-7.159-4-9.427S1250.2,1012.114,1250.2,1012.114Z" transform="translate(-1231.876 -973.964)" fill="#fcfcfc"/>
        <path id="Trazado_97444" data-name="Trazado 97444" d="M1285.6,972.642l-8.338-6.665s-1.9-7.027-2.005-7.287-1.965-.176-2.717-.158c-.241.006,1.047,7.6,1.557,8.84.6,1.462,7.047,7.677,7.047,7.677a23.087,23.087,0,0,1,1.547,6.38c.148,4.6-.179,10.986.039,11.159,1.3.614,5.938.135,6.174-.373C1291.505,986.612,1285.6,972.642,1285.6,972.642Z" transform="translate(-1272.25 -935.461)" fill="#d1d1d1"/>
        <path id="Trazado_97445" data-name="Trazado 97445" d="M1278.754,999.843l.38,1.461s.707,2.086.18,2.569-2.771-2.317-2.771-2.317l-.258-3.789Z" transform="translate(-1263.192 -964.364)" fill="#ffc3b5"/>
        <path id="Trazado_97446" data-name="Trazado 97446" d="M1278.014,998.995a4.3,4.3,0,0,0,2.705,2.087l-.322-1.239-2.468-2.076Z" transform="translate(-1264.836 -964.364)" fill="#fc8899"/>
        <path id="Trazado_97447" data-name="Trazado 97447" d="M1274.605,981.61a2,2,0,0,1,2.79,1.267,15.1,15.1,0,0,1,.391,1.887c.242,1.732-.453,3.529-1.24,3.624a3.745,3.745,0,0,1-3.479-3.219A3.308,3.308,0,0,1,1274.605,981.61Z" transform="translate(-1260.656 -952.323)" fill="#ffc3b5"/>
        <path id="Trazado_97448" data-name="Trazado 97448" d="M1289.915,994.379a.582.582,0,1,1-.651-.624A.644.644,0,0,1,1289.915,994.379Z" transform="translate(-1276.899 -961.407)" fill="#ffc3b5"/>
        <path id="Trazado_97449" data-name="Trazado 97449" d="M1271.208,976.282c.892.547,1.3,1.492.9,2.112a1.722,1.722,0,0,1-2.328.133c-.892-.547-1.3-1.492-.9-2.112A1.722,1.722,0,0,1,1271.208,976.282Z" transform="translate(-1253.949 -948.272)"/>
        <path id="Trazado_97450" data-name="Trazado 97450" d="M1282.047,979.123c.034.28-.277.548-.695.6s-.783-.136-.817-.416.277-.548.694-.6S1282.012,978.842,1282.047,979.123Z" transform="translate(-1266.852 -950.326)"/>
        <path id="Trazado_97451" data-name="Trazado 97451" d="M1272.306,985.832a.65.65,0,1,1-.724-.574A.653.653,0,0,1,1272.306,985.832Z" transform="translate(-1254.602 -955.151)"/>
        <path id="Trazado_97452" data-name="Trazado 97452" d="M1243.86,1013.946s3.525,8.331,4.778,11.267c.136.318.818,2.394.842,2.6.056.46-1.876,1.286-2.117,1.28-.216-.005-3.054-8.8-4.7-13.077a12.7,12.7,0,0,0-2.418-3.934l-.8-.661-.077-.247S1242.944,1011.492,1243.86,1013.946Z" transform="translate(-1223.424 -974.233)" fill="#d1d1d1"/>
        <rect id="Rectángulo_28282" data-name="Rectángulo 28282" width="0.652" height="58.528" transform="translate(23.085 0.16) rotate(-14.213)"/>
        <g id="Grupo_46868" data-name="Grupo 46868" transform="translate(31.827 34.197)">
          <path id="Trazado_97453" data-name="Trazado 97453" d="M1211.262,1002.565a1.97,1.97,0,0,0-.115-.382,1.084,1.084,0,0,0-.219-.35.668.668,0,0,1-.111-.231.413.413,0,0,0-.049-.092v0a.939.939,0,0,0-.217-.209.986.986,0,0,1-.234-.253.7.7,0,0,0-.262-.231c-.1-.051-.185-.052-.222.012-.173.3-1.04,1.248-.689,1.707a11.032,11.032,0,0,1,.756.966c.108.25.489.232.717.145A.868.868,0,0,0,1211.262,1002.565Z" transform="translate(-1209.059 -1000.777)" fill="#ffc3b5"/>
        </g>
      </g>
      <path id="Trazado_97454" data-name="Trazado 97454" d="M1277.443,999.9l-1.684.185a.749.749,0,0,0,.855.586C1277.521,1000.593,1277.443,999.9,1277.443,999.9Z" transform="translate(-1260.989 -965.93)" fill="#fff"/>
    </g>
    <g id="Grupo_46871" data-name="Grupo 46871" transform="translate(566.211 918.72)">
      <path id="Trazado_97455" data-name="Trazado 97455" d="M948.589,1340.45a8,8,0,0,0,1-.164,4.71,4.71,0,0,1,1.132-.162,2.581,2.581,0,0,1,2,1.034c.519.892,1.868.554.764,4.382-1.249,4.334-3.586,3.311-3.629,3.223s-1.557-3.294-1.557-3.294-1.1,1.458-1.087,1.4S944.559,1340.884,948.589,1340.45Z" transform="translate(-892.416 -1339.158)"/>
      <path id="Trazado_97456" data-name="Trazado 97456" d="M975.345,1376.194c.016-.285,1.312.014,1.48-.212s-1.419-.9-1.385-1.149c.063-.451,1.784.636,1.826.43s-1.677-1.413-1.337-1.657,1.652,1.439,1.8,1.238-1.361-1.454-1.129-1.928c.124-.253,2.3,2.468,2.685,2.461s.212-1.511.547-1.585-.019,2.9.124,3.066a43.754,43.754,0,0,0,4.267,4.811c.352-.386,2.527-2.3,2.849-2.674.537.854,1.37,1.336,1.952,2.153-1.156,1.19-4.556,3.893-5.026,3.908-1.43.047-4.5-5.744-5.157-6.79s-1.28-1.052-1.824-1.521S975.329,1376.479,975.345,1376.194Z" transform="translate(-935.182 -1363.288)" fill="#edaea2"/>
      <path id="Trazado_97457" data-name="Trazado 97457" d="M961.133,1389.812s4.829-3.716,5.736-5.389-1.235-2.861-2.919-2.879-5.247,4.992-5.247,4.992Z" transform="translate(-908.856 -1369.652)" fill="#c1507f"/>
      <path id="Trazado_97458" data-name="Trazado 97458" d="M986.143,1609.707s.144,2.593.145,2.6c.053.33.261,1.143.261,1.442,0,1.124-4.911-.954-3.81-1.453.1-.044.622-.386.654-.768.051-.59.179-1.783.179-1.783Z" transform="translate(-934.62 -1537.617)" fill="#ffc3b5"/>
      <path id="Trazado_97459" data-name="Trazado 97459" d="M986.1,1619.345a17.466,17.466,0,0,0,1.743.43c.591.086,1.369-.639,1.787-.443.46.215.413,2.335.413,2.335s-6.155.369-7.894-.2C981.457,1621.24,983.739,1620.147,986.1,1619.345Z" transform="translate(-937.965 -1544.678)" fill="#fcfcfc"/>
      <path id="Trazado_97460" data-name="Trazado 97460" d="M945.131,1610.649s.144,2.593.145,2.6c.053.329.262,1.142.262,1.442,0,1.125-4.911-.955-3.811-1.453.1-.045.777-.641.809-1.023.05-.59.024-1.528.024-1.528Z" transform="translate(-882.788 -1538.311)" fill="#ffc3b5"/>
      <path id="Trazado_97461" data-name="Trazado 97461" d="M945.007,1620.289a17.482,17.482,0,0,0,1.744.43c.59.086,1.369-.638,1.787-.443.46.216.478,2.153.478,2.153s-6.58.486-8.127.03C940.194,1622.253,942.65,1621.089,945.007,1620.289Z" transform="translate(-886.056 -1545.373)" fill="#fcfcfc"/>
      <path id="Trazado_97462" data-name="Trazado 97462" d="M954.769,1468.77l-2.076.912-4.368,21.247.177,15.927,3.5.083s1.629-13.933,1.629-15.012,7.543-18.9,7.543-18.9Z" transform="translate(-900.209 -1433.865)" fill="#03192b"/>
      <path id="Trazado_97463" data-name="Trazado 97463" d="M936.756,1468.652s1.53,16.369,1.53,19.129,1.24,18.2,1.24,18.2l3.51-.021s.253-4.707.629-11.633c.059-1.084-.076-3.273,0-4.4.546-8.076,1.171-21.675.867-21.995C942.233,1465.518,936.756,1468.652,936.756,1468.652Z" transform="translate(-880.593 -1432.577)" fill="#00223d"/>
      <path id="Trazado_97464" data-name="Trazado 97464" d="M943.979,1380.053a14.552,14.552,0,0,1,3.426.712c.762.474,1.158,2.448,1.158,2.448s-.435,10.269-.234,12.669c.155,1.857.234,9.454.234,9.454s-8.9,1.344-12.411.272c0,0,.605-5.515.483-6.939s.047-14.483.261-15.412a3.425,3.425,0,0,1,2.155-2.863A19.566,19.566,0,0,1,943.979,1380.053Z" transform="translate(-884.386 -1368.537)" fill="#fcfcfc"/>
      <path id="Trazado_97465" data-name="Trazado 97465" d="M955.975,1369.328l.892,3.386s-1.627,2.037-2.96,1.794c-1.118-.2-.959-1.641-.959-1.641a8.778,8.778,0,0,0,.166-2.954C952.852,1368.955,955.975,1369.328,955.975,1369.328Z" transform="translate(-897.118 -1360.606)" fill="#ffc3b5"/>
      <path id="Trazado_97466" data-name="Trazado 97466" d="M956.057,1369.913c-.262-.958,2.861-.586,2.861-.586l.074.28a1.58,1.58,0,0,1-.292.508,4.343,4.343,0,0,1-2.592,1.29A4.676,4.676,0,0,0,956.057,1369.913Z" transform="translate(-900.06 -1360.606)" fill="#fc8899"/>
      <path id="Trazado_97467" data-name="Trazado 97467" d="M1162.33,1599.175s-.9.877-.919,1.2-.08,3.768.287,4.089,1.444.55,1.1.912c-.262.273-2.275.215-3.609.141-.389-.021-.878-3.129-1.032-3.586-.224-.664-.769-2.158-.565-2.62a3.888,3.888,0,0,1,1.243-1.121,6.1,6.1,0,0,0,1.378-1.467Z" transform="translate(-1157.097 -1528.058)" fill="#ffc3b5"/>
      <path id="Trazado_97468" data-name="Trazado 97468" d="M1112.59,1613.619s-.8,2.271-.8,2.277c-.06.36-.3,1.249-.3,1.575,0,1.229,5.541-1.042,4.3-1.587a1.308,1.308,0,0,1-.5-.861,2.881,2.881,0,0,1,.467-1.453Z" transform="translate(-1098.053 -1540.461)" fill="#ffc3b5"/>
      <path id="Trazado_97469" data-name="Trazado 97469" d="M1094.886,1453.5s.4,4.071.4,4.131c0,6.585,1.3,19.447,1.057,20.686-.605,3.019-7.124,18.422-7.124,18.422l-3.523-.421,4.591-18.442-1.689-7.423-2.39-14.673Z" transform="translate(-1071.657 -1422.62)" fill="#03192b"/>
      <path id="Trazado_97470" data-name="Trazado 97470" d="M1104.581,1458.718l-.669,3.858-1.808,15.878-6.887,15.518s.969,2.258,2.4,2.575l10.961-15.933,6.809-20.387-.239-4.529Z" transform="translate(-1093.175 -1424.241)" fill="#00223d"/>
      <path id="Trazado_97471" data-name="Trazado 97471" d="M1157.955,1602.2s2.07,5.829,2.88,6.11c.215.075,1.248.264,1.443.721a1.98,1.98,0,0,1,0,.6h-4.315s-.546-2.568-.761-3.7a16.726,16.726,0,0,1-1.015-3.008C1156.313,1602.67,1157.955,1602.2,1157.955,1602.2Z" transform="translate(-1156.176 -1532.088)"/>
      <path id="Trazado_97472" data-name="Trazado 97472" d="M1095.218,1624.3l.634-2a5.5,5.5,0,0,0,2,.47,20.061,20.061,0,0,0,1.967-.47c2.659.875,4.837,1.3,4.441,2h-9.041Z" transform="translate(-1082.096 -1546.883)"/>
      <path id="Trazado_97473" data-name="Trazado 97473" d="M1019.333,1412.846l-.364.219a2.777,2.777,0,0,1-.444.315c-.091.021-2.575-.034-2.575-.034s-.008.826.007.826,1.306,1.052,1.306,1.052l.275.125,1.692-.505,1.545-.194s1.1-.127,1.1-.153a7.2,7.2,0,0,0-.075-.936c-.043-.043-.663-.679-.663-.679s-.475-.107-.491-.107-.476-.091-.492-.1-.737.107-.737.107Z" transform="translate(-978.748 -1392.573)" fill="#edaea2"/>
      <path id="Trazado_97474" data-name="Trazado 97474" d="M1016.6,1414.554a4.168,4.168,0,0,0-.77.171c-.267.107-2.384,1.711-2.384,1.711s-.284.155-.433.032a.341.341,0,0,1-.139-.268s-.252.14-.423.043a.287.287,0,0,1-.144-.337.483.483,0,0,1-.391-.053c-.144-.123-.069-.438-.069-.438s-.455.278-.631.091-.1-.385.075-.534,1.224-.845,1.347-.925.471-.449.578-.5.369-.192.369-.192.438.048.465.064.149.321.369.4a.561.561,0,0,0,.487-.064.421.421,0,0,0,.005-.166,3.763,3.763,0,0,1-.209-.486c-.037-.187-.085-.24-.155-.283s-.449-.155-.636-.23a3.149,3.149,0,0,0-.973.144l-.375.161s.069-.277.3-.32.529-.107.694-.124.551.1.727.112a2.85,2.85,0,0,1,.705.113,8.377,8.377,0,0,0,1.47-.011S1016.984,1414.073,1016.6,1414.554Z" transform="translate(-972.341 -1392.405)" fill="#ffc3b5"/>
      <path id="Trazado_97475" data-name="Trazado 97475" d="M945.829,1400.988c.5-.011,6.32-.06,8.5-.078a2.411,2.411,0,0,0,1.47-.516l4.86-3.824,2.95,3.093-5.936,4.1a9.779,9.779,0,0,1-3.164.494c-2.295-.232-8.129-1.4-8.714-1.321Z" transform="translate(-901.98 -1380.714)" fill="#ffc3b5"/>
      <path id="Trazado_97476" data-name="Trazado 97476" d="M1047.132,1402.9c-.5-.011-6.63-.1-8.816-.118a2.408,2.408,0,0,1-1.469-.516l-4.86-3.825-2.128,2.453,6.034,4.358a2.033,2.033,0,0,0,1.395.375c2.294-.232,8.581-.847,9.164-.767Z" transform="translate(-1007.676 -1382.091)" fill="#edaea2"/>
      <path id="Trazado_97477" data-name="Trazado 97477" d="M936.026,1387.84s4.068-4.28,5.54-5.36a2.113,2.113,0,0,1,3.432,1.7c.137,2.721-5.257,7.59-5.257,7.59Z" transform="translate(-880.79 -1370.001)" fill="#c1507f"/>
      <path id="Trazado_97478" data-name="Trazado 97478" d="M1087.86,1387.843s-4.068-4.279-5.541-5.36-4.431-.162-4.2,1.693c.239,1.892,6.886,6.683,6.886,6.683Z" transform="translate(-1061.136 -1370.004)" fill="#167377"/>
      <path id="Trazado_97479" data-name="Trazado 97479" d="M1100.146,1385.317c.095.655,1.837,18.474,1.837,18.474-8.25,3.985-12.8.71-12.8.71s.27-12.512-.054-14.215c-.214-1.127-.015-8.721.716-8.931a13.326,13.326,0,0,1,2.716-.569,30.5,30.5,0,0,1,5.577.069A8.851,8.851,0,0,1,1100.146,1385.317Z" transform="translate(-1078.143 -1369.026)" fill="#167377"/>
      <path id="Trazado_97480" data-name="Trazado 97480" d="M1107.648,1366.537l-.607,3.711s2.222,4.722,3.55,4.324c1.113-.333.428-4.389.428-4.389a10.682,10.682,0,0,1-.425-3.268C1110.776,1365.826,1107.648,1366.537,1107.648,1366.537Z" transform="translate(-1092.136 -1358.437)" fill="#ffc3b5"/>
      <path id="Trazado_97481" data-name="Trazado 97481" d="M1112.144,1366.916c.182-1.09-2.946-.378-2.946-.378l-.051.319a1.759,1.759,0,0,0,.339.536,4.2,4.2,0,0,0,2.735,1.188A5.674,5.674,0,0,1,1112.144,1366.916Z" transform="translate(-1093.686 -1358.437)" fill="#fc8899"/>
      <path id="Trazado_97482" data-name="Trazado 97482" d="M1102.55,1343.178c-.089-.031-.708,4.384.468,5.6s3.471,1.612,4.293.656c.91-1.059.864-5.8-.966-7.053S1102.55,1343.178,1102.55,1343.178Z" transform="translate(-1087.552 -1340.524)" fill="#ffc3b5"/>
      <path id="Trazado_97483" data-name="Trazado 97483" d="M1108.648,1337.425a3.317,3.317,0,0,0-2.417,1.844,3.488,3.488,0,0,0,1,4.667,2.725,2.725,0,0,1,1.267,2.052l.21-.562a3.081,3.081,0,0,0,.162-1.346,2.554,2.554,0,0,0-.209-.81c-.311-.639.666-1.063.94-1.6.211-.409.221-1.345.553-2.022l.4-.517a2.6,2.6,0,0,1,1.812-.49C1113.259,1338.839,1112.158,1334.647,1108.648,1337.425Z" transform="translate(-1093.218 -1336.471)"/>
      <path id="Trazado_97484" data-name="Trazado 97484" d="M1118.707,1356.48c.009.538-.246.979-.571.985s-.594-.427-.6-.966.246-.98.57-.985S1118.7,1355.941,1118.707,1356.48Z" transform="translate(-1102.384 -1350.49)" fill="#ffc3b5"/>
      <path id="Trazado_97485" data-name="Trazado 97485" d="M1106.359,1363.024l-1.945.2a.854.854,0,0,0,.978.672C1106.437,1363.817,1106.359,1363.024,1106.359,1363.024Z" transform="translate(-1086.575 -1356.018)" fill="#fff"/>
      <path id="Trazado_97486" data-name="Trazado 97486" d="M1135.332,1416.936a.539.539,0,0,1,0-.121c.129-1.3,1.212-12.255,1.394-12.721.164-.42,5.021-7.366,5.021-7.366l2.387,3.252-4.67,6.23c-.1.4-1.79,7.788-1.79,7.788s-.346,1.348-.5,2.155c.071.194.14.378.2.528a4.835,4.835,0,0,0,.5.809,5.541,5.541,0,0,1,.6,1.055c.049.19.139.585.189.824s.119.517.131.646a1.239,1.239,0,0,0,.151.347.208.208,0,0,1-.246.3c-.17-.056-.3-.276-.384-.413-.229-.386-.352-1.091-.409-1.054s-.258,1.234-.291,1.369a14.718,14.718,0,0,1-.41,1.779c-.136.254-.316.212-.365.053-.041-.137.151-2.082.151-2.082s.024-.248-.084-.171-.286,1.842-.362,2.1-.248.4-.394.188a7.825,7.825,0,0,1,.128-2.125s.034-.235-.066-.213-.227,1.526-.305,1.656a.2.2,0,0,1-.37-.04,9.276,9.276,0,0,1,.177-1.924s-.014-.133-.077-.089-.262,1.318-.392,1.437a.137.137,0,0,1-.2,0c-.238-.162.127-1.375.123-1.978a14.936,14.936,0,0,0,.192-2C1135.357,1417.117,1135.342,1417.006,1135.332,1416.936Z" transform="translate(-1132.408 -1380.83)" fill="#ffc3b5"/>
      <path id="Trazado_97487" data-name="Trazado 97487" d="M1126.935,1391.136l4.149,2.785a44.985,44.985,0,0,1,3.593-4.718c1.572-1.552-.573-6.3-1.586-6.036C1130.825,1383.769,1126.935,1391.136,1126.935,1391.136Z" transform="translate(-1121.392 -1370.839)" fill="#167377"/>
      <path id="Trazado_97488" data-name="Trazado 97488" d="M955.787,1347.087a2.145,2.145,0,0,0-2.88,1.584,16.327,16.327,0,0,0-.269,2.053c-.121,1.874.763,3.744,1.612,3.783a4.026,4.026,0,0,0,3.461-3.73A3.551,3.551,0,0,0,955.787,1347.087Z" transform="translate(-897.895 -1344.176)" fill="#ffc3b5"/>
      <path id="Trazado_97489" data-name="Trazado 97489" d="M950.456,1360.165a.624.624,0,1,0,.646-.722A.691.691,0,0,0,950.456,1360.165Z" transform="translate(-891.275 -1353.382)" fill="#ffc3b5"/>
      <path id="Trazado_97490" data-name="Trazado 97490" d="M955.616,1348.564s-1.043.027-1.269-.69a3.058,3.058,0,0,0-3.029-2.179c-1.794.2,1.774-1.059,1.907-1.029l1.737.372s1.01,1.288,1.03,1.409.107,1.417.107,1.417Z" transform="translate(-895.789 -1342.503)"/>
      <path id="Trazado_97491" data-name="Trazado 97491" d="M963.6,1367.834l-1.875-.054a.82.82,0,0,0,.845.763C963.574,1368.6,963.6,1367.834,963.6,1367.834Z" transform="translate(-906.168 -1359.52)" fill="#fff"/>
    </g>
  </g>
</svg>
