<svg xmlns="http://www.w3.org/2000/svg" xmlns:xlink="http://www.w3.org/1999/xlink" width="199.258" height="163.895" viewBox="0 0 199.258 163.895">
  <defs>
    <linearGradient id="linear-gradient" x1="0.5" x2="0.5" y2="1" gradientUnits="objectBoundingBox">
      <stop offset="0" stop-color="#fff"/>
      <stop offset="1" stop-color="#d3d3d3"/>
    </linearGradient>
  </defs>
  <g id="Grupo_56359" data-name="Grupo 56359" transform="translate(-946.944 248.163)">
    <g id="Grupo_12489" data-name="Grupo 12489" transform="translate(938.758 -248.163)">
      <g id="Grupo_12463" data-name="Grupo 12463" transform="translate(50.638)">
        <path id="Trazado_16592" data-name="Trazado 16592" d="M1119.877-233.865l-110.322-.771a.462.462,0,0,0-.465.459l-1.011,144.5a.462.462,0,0,0,.459.465l110.167.771a.463.463,0,0,0,.466-.459l1.011-144.659A.307.307,0,0,0,1119.877-233.865Z" transform="translate(-1008.079 244.517)" fill="#333"/>
        <rect id="Rectángulo_2872" data-name="Rectángulo 2872" width="103.756" height="137.335" transform="translate(4.175 13.686)" fill="#fff"/>
        <path id="Trazado_16593" data-name="Trazado 16593" d="M1097.854-239.917l-16.543-.115c.022-.222.037-.446.039-.674a7.406,7.406,0,0,0-7.355-7.458,7.406,7.406,0,0,0-7.458,7.355c0,.227.01.451.029.674l-16.543-.116a5.71,5.71,0,0,0-5.75,5.67l-.054,7.783a1.319,1.319,0,0,0,1.31,1.329l56.609.4a1.319,1.319,0,0,0,1.329-1.311l.055-7.783A5.71,5.71,0,0,0,1097.854-239.917Zm-23.943,3.872a4.712,4.712,0,0,1-4.68-4.746,4.713,4.713,0,0,1,4.746-4.68,4.712,4.712,0,0,1,4.679,4.746A4.712,4.712,0,0,1,1073.911-236.044Z" transform="translate(-1017.82 248.163)" fill="#b3b3b3"/>
        <g id="Grupo_12462" data-name="Grupo 12462" transform="translate(9.383 28.4)">
          <rect id="Rectángulo_2873" data-name="Rectángulo 2873" width="44.521" height="1.132" rx="0.264" transform="translate(0.251)" fill="#a2acc2"/>
          <rect id="Rectángulo_2874" data-name="Rectángulo 2874" width="44.521" height="1.132" rx="0.264" transform="translate(0.251 8.301)" fill="#a2acc2"/>
          <rect id="Rectángulo_2875" data-name="Rectángulo 2875" width="44.521" height="1.132" rx="0.264" transform="translate(17.984 41.502)" fill="#a2acc2"/>
          <rect id="Rectángulo_2876" data-name="Rectángulo 2876" width="44.521" height="1.132" rx="0.264" transform="translate(17.984 50.557)" fill="#a2acc2"/>
          <rect id="Rectángulo_2877" data-name="Rectángulo 2877" width="61.499" height="1.132" rx="0.264" transform="translate(17.984 46.03)" fill="#a2acc2"/>
          <rect id="Rectángulo_2878" data-name="Rectángulo 2878" width="23.015" height="1.132" rx="0.264" transform="translate(64.768 41.502)" fill="#a2acc2"/>
          <rect id="Rectángulo_2879" data-name="Rectángulo 2879" width="44.521" height="1.132" rx="0.264" transform="translate(0.251 30.938)" fill="#a2acc2"/>
          <rect id="Rectángulo_2880" data-name="Rectángulo 2880" width="44.521" height="1.132" rx="0.264" transform="translate(46.658 8.301)" fill="#a2acc2"/>
          <rect id="Rectángulo_2881" data-name="Rectángulo 2881" width="90.928" height="1.132" rx="0.264" transform="translate(0.251 13.96)" fill="#a2acc2"/>
          <rect id="Rectángulo_2882" data-name="Rectángulo 2882" width="90.928" height="1.132" rx="0.264" transform="translate(0.251 20.374)" fill="#a2acc2"/>
          <rect id="Rectángulo_2883" data-name="Rectángulo 2883" width="90.928" height="1.132" rx="0.264" transform="translate(0.251 25.656)" fill="#a2acc2"/>
          <path id="Trazado_16594" data-name="Trazado 16594" d="M1034-142.066h-12.827a.251.251,0,0,1-.251-.251v-12.828a.251.251,0,0,1,.251-.251H1034a.251.251,0,0,1,.251.251v12.828A.251.251,0,0,1,1034-142.066Zm-12.577-.5h12.326v-12.326h-12.326Z" transform="translate(-1020.924 194.762)" fill="#a2acc2"/>
          <path id="Trazado_16595" data-name="Trazado 16595" d="M1027.389-144.724h-.02a.334.334,0,0,1-.3-.225,22.658,22.658,0,0,0-3.585-6.566.335.335,0,0,1,.057-.47.335.335,0,0,1,.47.057,23.393,23.393,0,0,1,3.422,6.026,35.232,35.232,0,0,1,9.673-11.6.335.335,0,0,1,.47.059.335.335,0,0,1-.059.47,34.485,34.485,0,0,0-9.831,12.066A.334.334,0,0,1,1027.389-144.724Z" transform="translate(-1021.596 195.349)" fill="#12263f"/>
          <rect id="Rectángulo_2884" data-name="Rectángulo 2884" width="44.521" height="1.132" rx="0.264" transform="translate(17.984 70.177)" fill="#a2acc2"/>
          <rect id="Rectángulo_2885" data-name="Rectángulo 2885" width="61.499" height="1.132" rx="0.264" transform="translate(17.984 65.649)" fill="#a2acc2"/>
          <path id="Trazado_16596" data-name="Trazado 16596" d="M1034-111.077h-12.827a.251.251,0,0,1-.251-.251v-12.828a.251.251,0,0,1,.251-.251H1034a.251.251,0,0,1,.251.251v12.828A.251.251,0,0,1,1034-111.077Zm-12.577-.5h12.326v-12.326h-12.326Z" transform="translate(-1020.924 186.409)" fill="#a2acc2"/>
          <path id="Trazado_16597" data-name="Trazado 16597" d="M1027.389-113.734h-.02a.333.333,0,0,1-.3-.225,22.667,22.667,0,0,0-3.585-6.566.335.335,0,0,1,.057-.47.335.335,0,0,1,.47.057,23.369,23.369,0,0,1,3.422,6.026,35.225,35.225,0,0,1,9.673-11.6.334.334,0,0,1,.47.059.335.335,0,0,1-.059.47,34.49,34.49,0,0,0-9.831,12.065A.335.335,0,0,1,1027.389-113.734Z" transform="translate(-1021.596 186.997)" fill="#12263f"/>
          <rect id="Rectángulo_2886" data-name="Rectángulo 2886" width="44.521" height="1.132" rx="0.264" transform="translate(17.984 85.268)" fill="#a2acc2"/>
          <rect id="Rectángulo_2887" data-name="Rectángulo 2887" width="61.499" height="1.132" rx="0.264" transform="translate(17.984 89.796)" fill="#a2acc2"/>
          <path id="Trazado_16598" data-name="Trazado 16598" d="M1034-82.153h-12.827a.251.251,0,0,1-.251-.251V-95.232a.251.251,0,0,1,.251-.251H1034a.251.251,0,0,1,.251.251V-82.4A.251.251,0,0,1,1034-82.153Zm-12.577-.5h12.326V-94.981h-12.326Z" transform="translate(-1020.924 178.614)" fill="#a2acc2"/>
          <path id="Trazado_16599" data-name="Trazado 16599" d="M1027.389-84.81h-.02a.334.334,0,0,1-.3-.225,22.657,22.657,0,0,0-3.585-6.566.335.335,0,0,1,.057-.47.335.335,0,0,1,.47.057,23.376,23.376,0,0,1,3.422,6.025,35.24,35.24,0,0,1,9.673-11.6.335.335,0,0,1,.47.059.335.335,0,0,1-.059.47A34.491,34.491,0,0,0,1027.69-85,.335.335,0,0,1,1027.389-84.81Z" transform="translate(-1021.596 179.202)" fill="#12263f"/>
          <rect id="Rectángulo_2888" data-name="Rectángulo 2888" width="44.521" height="1.132" rx="0.264" transform="translate(17.984 105.642)" fill="#a2acc2"/>
          <rect id="Rectángulo_2889" data-name="Rectángulo 2889" width="44.521" height="1.132" rx="0.264" transform="translate(17.984 114.697)" fill="#a2acc2"/>
          <rect id="Rectángulo_2890" data-name="Rectángulo 2890" width="61.499" height="1.132" rx="0.264" transform="translate(17.984 110.17)" fill="#a2acc2"/>
          <path id="Trazado_16600" data-name="Trazado 16600" d="M1034-54.262h-12.827a.251.251,0,0,1-.251-.251V-67.342a.251.251,0,0,1,.251-.251H1034a.251.251,0,0,1,.251.251v12.828A.251.251,0,0,1,1034-54.262Zm-12.577-.5h12.326V-67.09h-12.326Z" transform="translate(-1020.924 171.097)" fill="#a2acc2"/>
          <path id="Trazado_16601" data-name="Trazado 16601" d="M1027.389-56.919h-.02a.334.334,0,0,1-.3-.225,22.658,22.658,0,0,0-3.585-6.566.335.335,0,0,1,.057-.47.336.336,0,0,1,.47.058,23.364,23.364,0,0,1,3.422,6.025,35.232,35.232,0,0,1,9.673-11.6.335.335,0,0,1,.47.059.335.335,0,0,1-.059.47,34.493,34.493,0,0,0-9.831,12.066A.335.335,0,0,1,1027.389-56.919Z" transform="translate(-1021.596 171.685)" fill="#12263f"/>
        </g>
        <path id="Trazado_16602" data-name="Trazado 16602" d="M1110.041-221.006h-27.92a.251.251,0,0,1-.251-.251.251.251,0,0,1,.251-.251h27.92a.251.251,0,0,1,.251.251A.251.251,0,0,1,1110.041-221.006Z" transform="translate(-1027.966 240.979)" fill="#fff"/>
      </g>
      <g id="Grupo_12473" data-name="Grupo 12473" transform="translate(156.445 26.999)">
        <path id="Trazado_16603" data-name="Trazado 16603" d="M1205.326-165.221s10.028.757,11.542-.378a3.2,3.2,0,0,0,1.135-3.027,23.68,23.68,0,0,0-1.514-5.108c-1.135-2.649-4.541-7.19-4.731-7.758s-1.135-4.919-1.135-4.919l-3.973.568v1.514h-1.324a13.42,13.42,0,0,0,2.649,3.784c1.514,1.324,3.406,8.325,3.406,8.325l-6.055.378Z" transform="translate(-1167.046 204.521)" fill="#ffa08b"/>
        <path id="Trazado_16604" data-name="Trazado 16604" d="M1214.718-163.339a.083.083,0,0,1-.071-.039,9.641,9.641,0,0,1-1.148-3.631.084.084,0,0,1,.076-.091.087.087,0,0,1,.091.076,9.443,9.443,0,0,0,1.123,3.558.084.084,0,0,1-.027.115A.082.082,0,0,1,1214.718-163.339Z" transform="translate(-1169.249 199.317)" fill="#c77968"/>
        <path id="Trazado_16605" data-name="Trazado 16605" d="M1219.282-159.134a.083.083,0,0,1-.084-.083.084.084,0,0,1,.084-.084c.429,0,1.189-.931,1.445-1.289a.085.085,0,0,1,.117-.02.085.085,0,0,1,.019.118C1220.764-160.354,1219.875-159.134,1219.282-159.134Z" transform="translate(-1170.785 197.572)" fill="#c77968"/>
        <path id="Trazado_16606" data-name="Trazado 16606" d="M1163.517-148.375s-2.081,10.784-2.649,11.541a119.076,119.076,0,0,0-4.729,12.865c-.568,2.27-3.216,5.487-3.216,6.243s1.513,6.243,1.891,6.054.189-1.892.189-1.892,1.324,1.135,1.893.946-.379-1.324-.379-1.324.946.757,1.324.757-.756-1.892-.756-1.892l-.379-2.27a32.957,32.957,0,0,0,1.325-4.352s8.135-12.108,8.324-13.621,1.892-11.541,1.892-11.541Z" transform="translate(-1152.923 194.27)" fill="#ffa08b"/>
        <path id="Trazado_16607" data-name="Trazado 16607" d="M1167.274-131.144a4.763,4.763,0,0,1-.931-.086.084.084,0,0,1-.066-.1.085.085,0,0,1,.1-.066,5.42,5.42,0,0,0,1.859,0,.085.085,0,0,1,.1.066.084.084,0,0,1-.066.1A5.556,5.556,0,0,1,1167.274-131.144Z" transform="translate(-1156.521 189.694)" fill="#c77968"/>
        <path id="Trazado_16608" data-name="Trazado 16608" d="M1155.363-104.131a.2.2,0,0,1-.1-.026c-.319-.178-.321-1.383-.275-2.658.005-.126.008-.221.008-.272,0-.379.183-1.841.19-1.9a.083.083,0,0,1,.094-.072.084.084,0,0,1,.073.093c0,.015-.189,1.513-.189,1.882,0,.052,0,.149-.008.278-.056,1.561.007,2.4.189,2.506.006,0,.024.013.067-.016.284-.188.365-.918.436-1.563a2.581,2.581,0,0,1,.308-1.264,17.159,17.159,0,0,0,1.311-2.063.084.084,0,0,1,.114-.033.084.084,0,0,1,.032.114,16.718,16.718,0,0,1-1.338,2.1,2.767,2.767,0,0,0-.261,1.164c-.079.714-.161,1.452-.508,1.684A.264.264,0,0,1,1155.363-104.131Z" transform="translate(-1153.474 183.726)" fill="#c77968"/>
        <g id="Grupo_12464" data-name="Grupo 12464" transform="translate(10.357 120.863)">
          <path id="Trazado_16609" data-name="Trazado 16609" d="M1174.2-45.748s-1.543,3.087-3.7,4.322-3.4,2.161-3.4,3.087,2.934,2.779,6.33,1.7,7.1-1.7,7.255-2.007,0-5.094,0-5.094Z" transform="translate(-1167.101 45.748)" fill="#3b3348"/>
          <path id="Trazado_16610" data-name="Trazado 16610" d="M1167.1-36.362a1.079,1.079,0,0,1,.026-.22c.023-.018.32-.231,1.209.066.926.308,2.47,1.7,4.476,1.235s5.23-2.712,7.941-3.131a9.844,9.844,0,0,1-.068,1.741c-.155.309-3.859.926-7.255,2.007S1167.1-35.435,1167.1-36.362Z" transform="translate(-1167.101 43.771)" fill="#f6ebe3"/>
          <path id="Trazado_16611" data-name="Trazado 16611" d="M1172.694-39.246a.048.048,0,0,1-.023-.006,6.515,6.515,0,0,0-2.532-.995.039.039,0,0,1-.045-.038.042.042,0,0,1,.038-.045,6.29,6.29,0,0,1,2.565,1,14.816,14.816,0,0,0,2.6-1.376,11.036,11.036,0,0,0,2.452-3.363.046.046,0,0,1,.044-.039.04.04,0,0,1,.039.04,11.078,11.078,0,0,1-2.487,3.43,15,15,0,0,1-2.633,1.394A.038.038,0,0,1,1172.694-39.246Z" transform="translate(-1167.907 45.307)" fill="#f6ebe3"/>
          <path id="Trazado_16612" data-name="Trazado 16612" d="M1178.146-37.482l-.013,0a.041.041,0,0,1-.026-.053,14.142,14.142,0,0,1,3.355-5.722.042.042,0,0,1,.059,0,.042.042,0,0,1,0,.059,14.071,14.071,0,0,0-3.332,5.686A.042.042,0,0,1,1178.146-37.482Z" transform="translate(-1170.067 45.08)" fill="#f6ebe3"/>
          <path id="Trazado_16613" data-name="Trazado 16613" d="M1180.61-38.065h-.012a.041.041,0,0,1-.028-.052,10.938,10.938,0,0,1,2.79-4.084.042.042,0,0,1,.059,0,.041.041,0,0,1,0,.059,10.831,10.831,0,0,0-2.766,4.045A.041.041,0,0,1,1180.61-38.065Z" transform="translate(-1170.73 44.795)" fill="#f6ebe3"/>
          <path id="Trazado_16614" data-name="Trazado 16614" d="M1173.946-38.149a.163.163,0,0,1-.116-.047,6.583,6.583,0,0,0-2.4-1.413.167.167,0,0,1-.115-.207.168.168,0,0,1,.208-.115,6.8,6.8,0,0,1,2.542,1.495.167.167,0,0,1,0,.237A.166.166,0,0,1,1173.946-38.149Z" transform="translate(-1168.234 44.182)" fill="#f6ebe3"/>
          <path id="Trazado_16615" data-name="Trazado 16615" d="M1175.421-39.039a.169.169,0,0,1-.114-.045c-.463-.43-1.774-1.532-2.346-1.532h-.018a.169.169,0,0,1-.174-.16.168.168,0,0,1,.16-.175c.806-.036,2.424,1.451,2.607,1.621a.168.168,0,0,1,.009.237A.17.17,0,0,1,1175.421-39.039Z" transform="translate(-1168.628 44.455)" fill="#f6ebe3"/>
          <path id="Trazado_16616" data-name="Trazado 16616" d="M1176.781-39.929a.168.168,0,0,1-.125-.055,4.78,4.78,0,0,0-2.7-1.64.168.168,0,0,1-.148-.185.165.165,0,0,1,.183-.148,5.01,5.01,0,0,1,2.915,1.749.168.168,0,0,1-.013.237A.168.168,0,0,1,1176.781-39.929Z" transform="translate(-1168.908 44.726)" fill="#f6ebe3"/>
          <path id="Trazado_16617" data-name="Trazado 16617" d="M1178.033-41.409a.166.166,0,0,1-.145-.084c-.576-1.008-2.728-1.614-2.75-1.62a.167.167,0,0,1-.117-.206.168.168,0,0,1,.206-.116c.094.026,2.308.649,2.952,1.776a.167.167,0,0,1-.063.229A.158.158,0,0,1,1178.033-41.409Z" transform="translate(-1169.234 45.126)" fill="#f6ebe3"/>
        </g>
        <g id="Grupo_12465" data-name="Grupo 12465" transform="translate(30.233 121.554)">
          <path id="Trazado_16618" data-name="Trazado 16618" d="M1200.491-44.8s-1.19,3.179-3.175,4.611-3.1,2.465-3,3.371,3.156,2.413,6.365,1,6.767-2.4,6.886-2.714-.528-4.982-.528-4.982Z" transform="translate(-1194.31 44.802)" fill="#3b3348"/>
          <path id="Trazado_16619" data-name="Trazado 16619" d="M1194.316-35.137a1.039,1.039,0,0,1,0-.218c.02-.02.289-.259,1.189-.061.938.206,2.591,1.4,4.506.744s4.833-3.194,7.44-3.885a9.664,9.664,0,0,1,.114,1.71c-.119.318-3.677,1.305-6.886,2.714S1194.412-34.232,1194.316-35.137Z" transform="translate(-1194.31 43.119)" fill="#f6ebe3"/>
          <path id="Trazado_16620" data-name="Trazado 16620" d="M1199.549-38.309a.042.042,0,0,1-.018,0,6.369,6.369,0,0,0-2.578-.71.042.042,0,0,1-.049-.033.041.041,0,0,1,.033-.049,6.151,6.151,0,0,1,2.612.708,14.57,14.57,0,0,0,2.4-1.615,10.882,10.882,0,0,0,2.049-3.542.043.043,0,0,1,.039-.044.043.043,0,0,1,.044.036A10.892,10.892,0,0,1,1202-39.95a14.709,14.709,0,0,1-2.43,1.636A.036.036,0,0,1,1199.549-38.309Z" transform="translate(-1195.009 44.478)" fill="#f6ebe3"/>
          <path id="Trazado_16621" data-name="Trazado 16621" d="M1205.138-36.985h-.009a.042.042,0,0,1-.032-.05,13.909,13.909,0,0,1,2.688-5.943.042.042,0,0,1,.059,0,.043.043,0,0,1,0,.059,13.823,13.823,0,0,0-2.669,5.905A.042.042,0,0,1,1205.138-36.985Z" transform="translate(-1197.217 44.314)" fill="#f6ebe3"/>
          <path id="Trazado_16622" data-name="Trazado 16622" d="M1207.425-37.789h-.007a.041.041,0,0,1-.034-.048,10.755,10.755,0,0,1,2.305-4.283.042.042,0,0,1,.059,0,.042.042,0,0,1,0,.059,10.655,10.655,0,0,0-2.286,4.241A.042.042,0,0,1,1207.425-37.789Z" transform="translate(-1197.833 44.083)" fill="#f6ebe3"/>
          <path id="Trazado_16623" data-name="Trazado 16623" d="M1200.735-37.077a.166.166,0,0,1-.1-.036,6.475,6.475,0,0,0-2.494-1.132.167.167,0,0,1-.136-.194.166.166,0,0,1,.194-.136,6.685,6.685,0,0,1,2.642,1.2.166.166,0,0,1,.028.234A.166.166,0,0,1,1200.735-37.077Z" transform="translate(-1195.304 43.124)" fill="#f6ebe3"/>
          <path id="Trazado_16624" data-name="Trazado 16624" d="M1202.084-38.1a.166.166,0,0,1-.1-.034c-.5-.375-1.92-1.335-2.469-1.252a.168.168,0,0,1-.191-.14.168.168,0,0,1,.141-.191c.779-.116,2.523,1.168,2.72,1.316a.167.167,0,0,1,.034.234A.166.166,0,0,1,1202.084-38.1Z" transform="translate(-1195.661 43.434)" fill="#f6ebe3"/>
          <path id="Trazado_16625" data-name="Trazado 16625" d="M1203.322-39.11a.165.165,0,0,1-.112-.043,4.7,4.7,0,0,0-2.809-1.322.168.168,0,0,1-.167-.168.168.168,0,0,1,.167-.167,4.928,4.928,0,0,1,3.033,1.409.167.167,0,0,1,.012.236A.164.164,0,0,1,1203.322-39.11Z" transform="translate(-1195.906 43.726)" fill="#f6ebe3"/>
          <path id="Trazado_16626" data-name="Trazado 16626" d="M1204.393-40.688a.165.165,0,0,1-.136-.069c-.668-.926-2.834-1.294-2.856-1.3a.168.168,0,0,1-.138-.193.167.167,0,0,1,.193-.138c.094.016,2.324.4,3.072,1.432a.168.168,0,0,1-.038.234A.17.17,0,0,1,1204.393-40.688Z" transform="translate(-1196.183 44.152)" fill="#f6ebe3"/>
        </g>
        <path id="Trazado_16627" data-name="Trazado 16627" d="M1194.614-117.516a48.441,48.441,0,0,0,.828,5.17,18.993,18.993,0,0,1,0,4.964,1.21,1.21,0,0,1,1.447,1.241c0,1.447.414,15.1,1.034,16.958s2.275,9.72,1.861,11.788,1.758,13.545,1.965,14.373-4.447.31-7.135.724-1.033-2.482-1.033-2.482-1.448-.207-1.448-.62-2.481-14.063-2.9-17.165-4.446-20.37-4.446-20.37-1.137,21.4-1.137,22.645,1.24,6.825,1.447,7.859-1.447,5.584-1.447,6.618.1,4.446-.931,4.653-3.93-2.068-8.066-2.068c0,0-2.481-1.448-1.034-2.069s.516-1.551.31-1.964a4.235,4.235,0,0,1-.827-3.516c.414-2.068-.62-15.51-.62-17.372s.827-26.678.827-26.678Z" transform="translate(-1158.195 185.953)" fill="url(#linear-gradient)"/>
        <path id="Trazado_16628" data-name="Trazado 16628" d="M1206.145-57.24a.092.092,0,0,1-.031-.006.084.084,0,0,1-.047-.109c.408-1.021,2.051-5.536,2.067-5.582a.084.084,0,0,1,.107-.05.083.083,0,0,1,.05.107c-.016.045-1.66,4.563-2.069,5.586A.083.083,0,0,1,1206.145-57.24Z" transform="translate(-1167.244 171.258)" fill="#627695"/>
        <path id="Trazado_16629" data-name="Trazado 16629" d="M1203.264-45.415a1.626,1.626,0,0,1-1.142-.339.083.083,0,0,1,0-.118.084.084,0,0,1,.118,0c.015.015,1.257,1.149,4.858-1.251a.084.084,0,0,1,.116.023.084.084,0,0,1-.024.116A7.471,7.471,0,0,1,1203.264-45.415Z" transform="translate(-1166.176 166.985)" fill="#627695"/>
        <path id="Trazado_16630" data-name="Trazado 16630" d="M1178.91-59.418a.086.086,0,0,1-.047-.015c-1.86-1.24-4.668-7.424-4.786-7.687a.085.085,0,0,1,.042-.111.085.085,0,0,1,.111.042c.029.064,2.907,6.4,4.726,7.617a.084.084,0,0,1,.023.116A.083.083,0,0,1,1178.91-59.418Z" transform="translate(-1158.622 172.402)" fill="#627695"/>
        <path id="Trazado_16631" data-name="Trazado 16631" d="M1183.45-44.074a.088.088,0,0,1-.052-.018,15.153,15.153,0,0,0-6.988-2.877.084.084,0,0,1-.075-.092.083.083,0,0,1,.092-.075,15.336,15.336,0,0,1,7.075,2.913.083.083,0,0,1,.013.118A.083.083,0,0,1,1183.45-44.074Z" transform="translate(-1159.233 166.985)" fill="#627695"/>
        <path id="Trazado_16632" data-name="Trazado 16632" d="M1185.008-70.046a.083.083,0,0,1-.077-.051c-.611-1.427-4.3-7.992-4.339-8.057a.084.084,0,0,1,.032-.114.083.083,0,0,1,.113.032c.038.066,3.732,6.638,4.347,8.073a.084.084,0,0,1-.044.11A.077.077,0,0,1,1185.008-70.046Z" transform="translate(-1160.377 175.378)" fill="#627695"/>
        <path id="Trazado_16633" data-name="Trazado 16633" d="M1187.708-103.106a.084.084,0,0,1-.063-.028c-.031-.035-3.1-3.517-3.306-3.719a72.323,72.323,0,0,1-.644-7.292.083.083,0,0,1,.078-.088.081.081,0,0,1,.088.078c.162,2.753.456,6.94.6,7.191.2.2,3.181,3.576,3.307,3.72a.084.084,0,0,1-.007.118A.084.084,0,0,1,1187.708-103.106Z" transform="translate(-1161.216 185.068)" fill="#627695"/>
        <path id="Trazado_16634" data-name="Trazado 16634" d="M1188.1-103.611a.084.084,0,0,1-.083-.072l-.587-4.044-.621-6.415a.084.084,0,0,1,.075-.091.086.086,0,0,1,.091.075l.621,6.411.587,4.04a.084.084,0,0,1-.071.095Z" transform="translate(-1162.056 185.068)" fill="#627695"/>
        <path id="Trazado_16635" data-name="Trazado 16635" d="M1201.7-107.093a.083.083,0,0,1-.062-.028c-.052-.058-5.209-5.811-5.921-9.534a.084.084,0,0,1,.066-.1.084.084,0,0,1,.1.066c.7,3.677,5.829,9.4,5.881,9.453a.084.084,0,0,1-.006.118A.084.084,0,0,1,1201.7-107.093Z" transform="translate(-1164.457 185.748)" fill="#627695"/>
        <path id="Trazado_16636" data-name="Trazado 16636" d="M1173.294-107.355a.083.083,0,0,1-.053-.019.085.085,0,0,1-.013-.118,17.875,17.875,0,0,0,2.99-6.677.085.085,0,0,1,.1-.064.084.084,0,0,1,.063.1,18.072,18.072,0,0,1-3.023,6.745A.084.084,0,0,1,1173.294-107.355Z" transform="translate(-1158.39 185.068)" fill="#627695"/>
        <path id="Trazado_16637" data-name="Trazado 16637" d="M1186.187-100.765l-5.807-.094a.085.085,0,0,1-.083-.085.084.084,0,0,1,.084-.083h0l5.79.1,8.67-1.542a.085.085,0,0,1,.1.068.083.083,0,0,1-.068.1Z" transform="translate(-1160.301 181.899)" fill="#627695"/>
        <path id="Trazado_16638" data-name="Trazado 16638" d="M1194.848-98.323h-.009c-.072-.008-7.247-.791-8.464-.707s-3.7.087-3.728.087a.083.083,0,0,1-.084-.083.083.083,0,0,1,.084-.084c.024,0,2.492,0,3.717-.087s8.2.676,8.493.708a.084.084,0,0,1,.075.092A.084.084,0,0,1,1194.848-98.323Z" transform="translate(-1160.911 181.018)" fill="#627695"/>
        <g id="Grupo_12470" data-name="Grupo 12470" transform="translate(11.421 15.585)">
          <path id="Trazado_16639" data-name="Trazado 16639" d="M1181.424-169.924a27.454,27.454,0,0,0,2.757,5.042,7.583,7.583,0,0,1-6.828,1.774,16.821,16.821,0,0,0-1.758-6.509Z" transform="translate(-1170.455 184.493)" fill="#ffa08b"/>
          <path id="Trazado_16640" data-name="Trazado 16640" d="M1182.5-167.721c-.44-.863-.794-1.644-.939-1.973l-5.685.7A5.246,5.246,0,0,0,1182.5-167.721Z" transform="translate(-1170.531 184.431)" fill="#c77968"/>
          <g id="Grupo_12469" data-name="Grupo 12469">
            <path id="Trazado_16641" data-name="Trazado 16641" d="M1169.643-186.917a5.5,5.5,0,0,1,2.63-1.12,13.7,13.7,0,0,0,2.8-.7c1.107-.484,2.208-1.395,3.37-1.064a14.361,14.361,0,0,1,1.671.932c.65.284,1.467.287,1.929.825a1.951,1.951,0,0,1,.067,2,6.469,6.469,0,0,0-.725,1.965,5.261,5.261,0,0,1-.042.76,3.444,3.444,0,0,1-.443.9c-.606,1.091-.595,2.453-1.246,3.519a4.532,4.532,0,0,1-2.021,1.658,6.888,6.888,0,0,1-4.416.489,5.877,5.877,0,0,1-3.615-2.529,8.048,8.048,0,0,1-.845-1.961,7.275,7.275,0,0,1-.044-3.155A3.385,3.385,0,0,1,1169.643-186.917Z" transform="translate(-1168.558 189.868)" fill="#88554b"/>
            <g id="Grupo_12467" data-name="Grupo 12467" transform="translate(11.134 8.568)">
              <g id="Grupo_12466" data-name="Grupo 12466">
                <path id="Trazado_16642" data-name="Trazado 16642" d="M1184.553-178.064a.9.9,0,0,1,1.009.191.915.915,0,0,1,.17.775,1.821,1.821,0,0,1-.368.728,1.048,1.048,0,0,1-.812.5.819.819,0,0,1-.677-.6A1.228,1.228,0,0,1,1184.553-178.064Z" transform="translate(-1183.8 178.139)" fill="#c77968"/>
              </g>
            </g>
            <path id="Trazado_16643" data-name="Trazado 16643" d="M1180.22-183.46a4.76,4.76,0,0,0-3.471-3.094,6.87,6.87,0,0,0-3.709.5c-2.34.979-3.939,3.171-3.19,5.76a17.222,17.222,0,0,0,3.46,5.677,6,6,0,0,0,.964.994,3.861,3.861,0,0,0,1.374.618,7.261,7.261,0,0,0,3.075.451,2.363,2.363,0,0,0,1.1-.426,3.5,3.5,0,0,0,.815-1.043,5.371,5.371,0,0,0,.937-2.389,4.96,4.96,0,0,0-.109-1.115q-.107-.592-.239-1.179a5.89,5.89,0,0,0-.226-1.078q-.205-1.138-.428-2.273A9.51,9.51,0,0,0,1180.22-183.46Z" transform="translate(-1168.856 188.995)" fill="#ffa08b"/>
            <path id="Trazado_16644" data-name="Trazado 16644" d="M1181.413-174.459a.08.08,0,0,1-.091-.034.08.08,0,0,1,.024-.11c.2-.129.521-.382.409-.625a.784.784,0,0,0-.141-.19l-.018-.02a4.365,4.365,0,0,1-1.139-2.571.079.079,0,0,1,.075-.084.08.08,0,0,1,.084.076,4.206,4.206,0,0,0,1.1,2.472l.018.02a.958.958,0,0,1,.168.231c.121.265-.041.551-.469.826A.066.066,0,0,1,1181.413-174.459Z" transform="translate(-1171.765 186.694)" fill="#c77968"/>
            <path id="Trazado_16645" data-name="Trazado 16645" d="M1180.52-172.942h0a.317.317,0,0,1-.247-.034.342.342,0,0,1-.164-.215.339.339,0,0,1,.051-.265.311.311,0,0,1,.207-.137.079.079,0,0,1,.091.066.08.08,0,0,1-.067.091.146.146,0,0,0-.1.069.179.179,0,0,0-.028.14.188.188,0,0,0,.088.114.158.158,0,0,0,.12.019.42.42,0,0,0,.1-.058l.3-.207a.079.079,0,0,1,.111.02.079.079,0,0,1-.02.111l-.3.207A.554.554,0,0,1,1180.52-172.942Z" transform="translate(-1171.667 185.482)" fill="#c77968"/>
            <path id="Trazado_16646" data-name="Trazado 16646" d="M1177.227-175.961a.559.559,0,0,0-.7-.365.559.559,0,0,0-.365.7.559.559,0,0,0,.7.365A.559.559,0,0,0,1177.227-175.961Z" transform="translate(-1170.599 186.225)" fill="#333"/>
            <path id="Trazado_16647" data-name="Trazado 16647" d="M1176.769-177.328a.233.233,0,0,1-.131,0,1.851,1.851,0,0,0-1.743.552.24.24,0,0,1-.339.024.24.24,0,0,1-.025-.338,2.321,2.321,0,0,1,2.224-.7.24.24,0,0,1,.174.291A.241.241,0,0,1,1176.769-177.328Z" transform="translate(-1170.152 186.631)" fill="#4e3933"/>
            <path id="Trazado_16648" data-name="Trazado 16648" d="M1183.243-179.374a.247.247,0,0,1-.131,0,1.851,1.851,0,0,0-1.743.551.24.24,0,0,1-.339.025.239.239,0,0,1-.024-.338,2.317,2.317,0,0,1,2.223-.7.24.24,0,0,1,.175.291A.24.24,0,0,1,1183.243-179.374Z" transform="translate(-1171.897 187.182)" fill="#4e3933"/>
            <path id="Trazado_16649" data-name="Trazado 16649" d="M1178.627-171.142a.04.04,0,0,1-.046-.016.4.4,0,0,1,.059-.494.039.039,0,0,1,.056,0,.039.039,0,0,1,0,.056.321.321,0,0,0-.047.392.039.039,0,0,1-.012.056Z" transform="translate(-1171.243 184.961)" fill="#c77968"/>
            <path id="Trazado_16650" data-name="Trazado 16650" d="M1175.444-175.522a.079.079,0,0,1-.076-.016.079.079,0,0,1-.009-.112,2.769,2.769,0,0,1,.907-.72,2.26,2.26,0,0,1,1.085.093.08.08,0,0,1,.052.1.08.08,0,0,1-.1.051,2.15,2.15,0,0,0-.988-.092,2.686,2.686,0,0,0-.834.671A.078.078,0,0,1,1175.444-175.522Z" transform="translate(-1170.386 186.241)" fill="#333"/>
            <path id="Trazado_16651" data-name="Trazado 16651" d="M1182.046-177.715a.559.559,0,0,1,.365-.7.559.559,0,0,1,.7.365.559.559,0,0,1-.365.7A.559.559,0,0,1,1182.046-177.715Z" transform="translate(-1172.186 186.789)" fill="#333"/>
            <path id="Trazado_16652" data-name="Trazado 16652" d="M1183.429-178.268a.074.074,0,0,1-.044,0,2.675,2.675,0,0,0-1.068-.069,2.151,2.151,0,0,0-.755.642.08.08,0,0,1-.112.016.08.08,0,0,1-.016-.112,2.253,2.253,0,0,1,.835-.7,2.755,2.755,0,0,1,1.156.066.081.081,0,0,1,.058.1A.081.081,0,0,1,1183.429-178.268Z" transform="translate(-1172.024 186.813)" fill="#333"/>
            <path id="Trazado_16653" data-name="Trazado 16653" d="M1181.929-170.045c-.091.028-.19.057-.3.083a.04.04,0,0,1-.048-.029.04.04,0,0,1,.03-.048,2.387,2.387,0,0,0,1.048-.457.039.039,0,0,1,.056,0,.04.04,0,0,1,0,.056A2.049,2.049,0,0,1,1181.929-170.045Z" transform="translate(-1172.067 184.65)" fill="#6b4640"/>
            <path id="Trazado_16654" data-name="Trazado 16654" d="M1182.549-172.372a2.377,2.377,0,0,1-1.378,1.35,3.647,3.647,0,0,1-1.858-.251c-.157-.056-.264-.234-.082-.31C1179.389-171.65,1182.875-173.067,1182.549-172.372Z" transform="translate(-1171.408 185.204)" fill="#fff"/>
            <path id="Trazado_16655" data-name="Trazado 16655" d="M1171.835-176.906a13.87,13.87,0,0,0,.183-6.211c.006.052,1.752-.715,1.853-.758a7.5,7.5,0,0,1,6.105-.193,2.938,2.938,0,0,0-.658-2.16,3.4,3.4,0,0,0-2.363-1.163,6.737,6.737,0,0,0-2.336.435l-2.594.809a5.642,5.642,0,0,0-1.6.687c-1.237.871-1.142,2.726-.956,4.06A7.422,7.422,0,0,0,1171.835-176.906Z" transform="translate(-1168.774 189.202)" fill="#88554b"/>
            <g id="Grupo_12468" data-name="Grupo 12468" transform="translate(1.479 11.673)">
              <path id="Trazado_16656" data-name="Trazado 16656" d="M1171.3-173.855a.9.9,0,0,0-.716.735.916.916,0,0,0,.307.733,1.814,1.814,0,0,0,.719.383,1.048,1.048,0,0,0,.949-.06.818.818,0,0,0,.21-.879A1.227,1.227,0,0,0,1171.3-173.855Z" transform="translate(-1170.582 173.887)" fill="#ffa08b"/>
              <path id="Trazado_16657" data-name="Trazado 16657" d="M1172.413-172.291a.034.034,0,0,1-.026,0,.337.337,0,0,1-.212-.271.337.337,0,0,1,.146-.312.091.091,0,0,0,.025-.018.039.039,0,0,0,0-.018.5.5,0,0,0-.194-.206,1.112,1.112,0,0,0-.518-.219.539.539,0,0,0-.487.19.215.215,0,0,0-.041.2.039.039,0,0,1-.021.053.039.039,0,0,1-.053-.02.284.284,0,0,1,.05-.278.618.618,0,0,1,.56-.223,1.186,1.186,0,0,1,.556.233.58.58,0,0,1,.223.242.107.107,0,0,1,.007.073.114.114,0,0,1-.053.058.258.258,0,0,0-.114.239.255.255,0,0,0,.16.205.039.039,0,0,1,.023.051A.038.038,0,0,1,1172.413-172.291Z" transform="translate(-1170.697 173.761)" fill="#c77968"/>
            </g>
            <path id="Trazado_16658" data-name="Trazado 16658" d="M1171.615-183.332c-.066,0-.132,0-.2-.008a.084.084,0,0,1-.078-.09.084.084,0,0,1,.091-.077,4.67,4.67,0,0,0,2.7-.969,6.3,6.3,0,0,1,2.329-1.005,6.017,6.017,0,0,1,2.115.226c.34.078.69.158,1.035.206,1.007.14,2.259-.135,2.625-1.069a.084.084,0,0,1,.109-.047.084.084,0,0,1,.047.109c-.4,1.023-1.7,1.327-2.8,1.173-.352-.049-.707-.13-1.049-.208a5.861,5.861,0,0,0-2.056-.223,6.134,6.134,0,0,0-2.264.982A5.247,5.247,0,0,1,1171.615-183.332Z" transform="translate(-1169.307 188.871)" fill="#a36b64"/>
            <path id="Trazado_16659" data-name="Trazado 16659" d="M1170.8-184.33c-.068,0-.135,0-.2-.01a.084.084,0,0,1-.075-.092.083.083,0,0,1,.092-.074,3.1,3.1,0,0,0,2.325-1.06c.118-.108.235-.22.352-.332a5.492,5.492,0,0,1,1.813-1.311,3.93,3.93,0,0,1,1.98-.121c.111.018.222.037.333.058a4.569,4.569,0,0,0,.988.106,3.65,3.65,0,0,0,.955-.194,2.907,2.907,0,0,0,.981-.481.083.083,0,0,1,.118.011.083.083,0,0,1-.01.118,3.046,3.046,0,0,1-1.038.512,3.814,3.814,0,0,1-1,.2,4.836,4.836,0,0,1-1.025-.109c-.11-.02-.219-.039-.329-.056a3.772,3.772,0,0,0-1.9.112,5.357,5.357,0,0,0-1.755,1.275c-.117.112-.235.224-.354.334A3.462,3.462,0,0,1,1170.8-184.33Z" transform="translate(-1169.088 189.327)" fill="#a36b64"/>
          </g>
        </g>
        <path id="Trazado_16660" data-name="Trazado 16660" d="M1174.283-163.9s6-1.448,7.859-4.343,7.239,0,7.239,0,.828-.413,1.034-.207l.62.62h4.343s.517,6.515-.1,9.2c0,0-3.309-.414-3.929.62s0,14.063,0,15.3,2.068,12.822,2.068,12.822a5.746,5.746,0,0,1-3.516.62c-2.275-.207-1.861-1.034-5.791,0s-8.893,3.309-15.1,2.895c0,0,1.241-10.34,1.448-13.029a99.234,99.234,0,0,0-.413-9.927,17.615,17.615,0,0,1-6.618-.62s.207-.62.62-1.655a26.66,26.66,0,0,0,1.448-4.343c.207-1.241,1.035-1.861,1.035-2.275a6.233,6.233,0,0,1,3.929-4.757C1173.56-164,1174.283-163.9,1174.283-163.9Z" transform="translate(-1155.754 199.971)" fill="#167377"/>
        <path id="Trazado_16661" data-name="Trazado 16661" d="M1189.724-138.8a.084.084,0,0,1-.045-.013.084.084,0,0,1-.026-.116c.882-1.386,2.55-6.365,3.891-10.366.844-2.521,1.573-4.7,1.9-5.344a2.878,2.878,0,0,1,2.772-1.493.084.084,0,0,1,.074.092.084.084,0,0,1-.093.075,2.709,2.709,0,0,0-2.6,1.4c-.318.635-1.045,2.807-1.888,5.322-1.343,4.01-3.015,9-3.907,10.4A.084.084,0,0,1,1189.724-138.8Z" transform="translate(-1162.819 196.364)" fill="#282233"/>
        <path id="Trazado_16662" data-name="Trazado 16662" d="M1182.93-125.266a.083.083,0,0,1-.071-.04.084.084,0,0,1,.028-.115c4.675-2.845,8.815-16.361,8.856-16.5a.082.082,0,0,1,.1-.056.083.083,0,0,1,.056.1c-.042.137-4.2,13.713-8.93,16.592A.084.084,0,0,1,1182.93-125.266Z" transform="translate(-1160.988 192.546)" fill="#282233"/>
        <path id="Trazado_16663" data-name="Trazado 16663" d="M1172.073-143.947a.084.084,0,0,1-.082-.069l-1.034-5.791a.085.085,0,0,1,.068-.1.085.085,0,0,1,.1.068l1.034,5.791a.083.083,0,0,1-.067.1Z" transform="translate(-1157.783 194.682)" fill="#282233"/>
        <path id="Trazado_16664" data-name="Trazado 16664" d="M1171.547-144.65a.081.081,0,0,1-.053-.019,6.022,6.022,0,0,1-1.67-3.156.083.083,0,0,1,.066-.1.083.083,0,0,1,.1.066,5.97,5.97,0,0,0,1.611,3.057.083.083,0,0,1,.012.118A.082.082,0,0,1,1171.547-144.65Z" transform="translate(-1157.478 194.148)" fill="#282233"/>
        <path id="Trazado_16665" data-name="Trazado 16665" d="M1180.948-159.855a.084.084,0,0,1-.076-.048.084.084,0,0,1,.04-.112c3.051-1.424,6.351-5.113,6.384-5.15a.084.084,0,0,1,.118-.007.084.084,0,0,1,.007.118c-.034.037-3.357,3.752-6.439,5.19A.085.085,0,0,1,1180.948-159.855Z" transform="translate(-1160.453 198.803)" fill="#282233"/>
        <g id="Grupo_12472" data-name="Grupo 12472" transform="translate(28.011)">
          <g id="Grupo_12471" data-name="Grupo 12471">
            <path id="Trazado_16666" data-name="Trazado 16666" d="M1209.708-207c-2.27-3.2-4.541-4.791-6.025-4-.038.02-2.3,5.56-11.407,12.759l-.493.378-.007,0c-.736.522-.662,1.891.165,3.059s2.095,1.689,2.831,1.167c.059-.042,8.15-4.68,15.458-5.244a2.005,2.005,0,0,0,.6-.039h0a1.482,1.482,0,0,0,.531-.232C1212.8-200.168,1212.061-203.685,1209.708-207Z" transform="translate(-1191.268 211.203)" fill="#f6ded3"/>
            <path id="Trazado_16667" data-name="Trazado 16667" d="M1215.222-198.753c-.465,0-2.118-.332-4.885-4.4-3.232-4.749-2.269-7.729-2.259-7.758a.041.041,0,0,1,.053-.026.042.042,0,0,1,.026.053c-.01.029-.958,2.973,2.249,7.685,3.194,4.694,4.913,4.356,4.93,4.352a.041.041,0,0,1,.05.031.041.041,0,0,1-.031.05A.6.6,0,0,1,1215.222-198.753Z" transform="translate(-1195.761 211.132)" fill="#282233"/>
            <path id="Trazado_16668" data-name="Trazado 16668" d="M1212.178-199.465a.041.041,0,0,1-.023-.007.041.041,0,0,1-.012-.058c.014-.021,1.371-2.107.121-3.942a3.6,3.6,0,0,0-3.443-1.455.041.041,0,0,1-.049-.034.041.041,0,0,1,.033-.049,3.686,3.686,0,0,1,3.528,1.491c1.281,1.882-.107,4.014-.121,4.035A.042.042,0,0,1,1212.178-199.465Z" transform="translate(-1195.986 209.543)" fill="#282233"/>
            <path id="Trazado_16669" data-name="Trazado 16669" d="M1193.6-194.932c-.427.354-.864.713-1.325,1.077l-.493.378-.007,0c-.736.522-.662,1.891.165,3.059s2.095,1.689,2.831,1.167c.016-.012.622-.36,1.641-.874A9.07,9.07,0,0,1,1193.6-194.932Z" transform="translate(-1191.268 206.818)" fill="#a2acc2"/>
          </g>
          <path id="Trazado_16670" data-name="Trazado 16670" d="M1204-191.549a14.884,14.884,0,0,0,4.46,4.949,1.054,1.054,0,0,1,.183,1.6l-.873.928a1.7,1.7,0,0,1-2.25.191,16.127,16.127,0,0,1-4.86-6.384Z" transform="translate(-1193.798 205.906)" fill="#f6ded3"/>
        </g>
        <path id="Trazado_16671" data-name="Trazado 16671" d="M1210.379-185.115a8.991,8.991,0,0,0,.19-1.943.482.482,0,0,0-.116-.373.846.846,0,0,0-.278-.112c-.261-.094-.419-.351-.612-.549a3.02,3.02,0,0,0-2.154-.674,7.183,7.183,0,0,0-2.853.435c-.267.11-.573.356-.462.624l1.378.234a1.056,1.056,0,0,0-.882.427,1.144,1.144,0,0,0,.906.294,11.5,11.5,0,0,1,2.091.121q-.8.359-1.6.74c-.073.035-.154.082-.165.161-.017.128.149.191.277.205a10.465,10.465,0,0,0,2.8-.071.893.893,0,0,1,.717.079,1.022,1.022,0,0,1,.232.363.559.559,0,0,0,.289.309C1210.276-184.8,1210.349-184.973,1210.379-185.115Z" transform="translate(-1166.708 205.156)" fill="#ffa08b"/>
        <path id="Trazado_16672" data-name="Trazado 16672" d="M1206.355-181.783s-1.522-1.111-1.522-1.318-.414-1.655,0-1.655.827.621,1.034,1.448a6.3,6.3,0,0,0,1.034,1.861Z" transform="translate(-1166.864 204.075)" fill="#ffa08b"/>
      </g>
      <g id="Grupo_12482" data-name="Grupo 12482" transform="translate(93.864 40.073)">
        <g id="Grupo_12474" data-name="Grupo 12474" transform="translate(49.622 107.357)">
          <path id="Trazado_16673" data-name="Trazado 16673" d="M1145.143-44.578s.438,4.112,0,4.308,3.07,1.763,4.823-.392V-46.34Z" transform="translate(-1137.857 46.34)" fill="#ffa08b"/>
          <path id="Trazado_16674" data-name="Trazado 16674" d="M1142.662-39.907l-.231.294c-.824,1.047-3.6,4.583-4.347,5.58-.877,1.175-4.385,4.308-2.192,5.483s7.673-2.937,11.4-6.266c0,0,1.1-3.525,0-5.091C1147.291-39.907,1143.514-37.949,1142.662-39.907Z" transform="translate(-1135.183 44.606)" fill="#4d3932"/>
          <path id="Trazado_16675" data-name="Trazado 16675" d="M1147.5-33.987c-.1.465-.2.766-.2.766-3.726,3.329-9.207,7.441-11.4,6.266a1.215,1.215,0,0,1-.688-.85C1137.742-26.964,1143.467-30.785,1147.5-33.987Z" transform="translate(-1135.191 43.011)" fill="#333"/>
          <path id="Trazado_16676" data-name="Trazado 16676" d="M1142.995-33.329l.131-.194-1.709-1.149,2.051.575a.117.117,0,0,0,.136-.06.117.117,0,0,0-.033-.145l-1.614-1.254,2.388.676a.116.116,0,0,0,.137-.061.117.117,0,0,0-.036-.145l-1.8-1.318,2.8.742a.117.117,0,0,0,.137-.065.117.117,0,0,0-.042-.145l-2.065-1.384,2.41.615.058-.227-3.069-.783a.116.116,0,0,0-.135.066.116.116,0,0,0,.042.145l2.049,1.373-2.725-.722a.117.117,0,0,0-.135.063.117.117,0,0,0,.036.145l1.779,1.3-2.339-.662a.118.118,0,0,0-.136.06.117.117,0,0,0,.033.145l1.617,1.256-2.177-.61a.117.117,0,0,0-.138.064.117.117,0,0,0,.041.146Z" transform="translate(-1136.651 43.999)" fill="#333"/>
        </g>
        <g id="Grupo_12475" data-name="Grupo 12475" transform="translate(28.583 107.239)">
          <path id="Trazado_16677" data-name="Trazado 16677" d="M1123.21-44.76a14.472,14.472,0,0,1-.728,4.791h4.852V-46.5l-4.105.435Z" transform="translate(-1110.721 46.502)" fill="#ffa08b"/>
          <path id="Trazado_16678" data-name="Trazado 16678" d="M1122.995-39.063s-3.286.74-4.442-.573a22.061,22.061,0,0,1-3.023,2.606c-2.053,1.525-8.958,3.049-9.145,4.791s8.025,2.178,13.624,0c0,0,4.105-.218,4.105-1.307A47.879,47.879,0,0,0,1122.995-39.063Z" transform="translate(-1106.382 44.652)" fill="#4d3932"/>
          <path id="Trazado_16679" data-name="Trazado 16679" d="M1119.79-31.5s3.573-.18,4.223-1.031a6.373,6.373,0,0,1,.1.9c0,1.089-4.105,1.307-4.105,1.307-5.6,2.178-13.811,1.742-13.624,0a.812.812,0,0,1,.072-.239C1108.89-29.7,1115.181-29.8,1119.79-31.5Z" transform="translate(-1106.382 42.737)" fill="#333"/>
          <path id="Trazado_16680" data-name="Trazado 16680" d="M1118.476-34.187l.22-.085-.587-1.525.962.787a.118.118,0,0,0,.143.005.118.118,0,0,0,.042-.137l-.438-1.193,1.383.9a.118.118,0,0,0,.139-.008.119.119,0,0,0,.034-.136l-.586-1.449,1.342.937a.119.119,0,0,0,.144-.007.118.118,0,0,0,.03-.141l-.671-1.409,1.243.9.139-.191-1.618-1.175a.118.118,0,0,0-.145.005.118.118,0,0,0-.031.141l.679,1.425-1.3-.909a.117.117,0,0,0-.141,0,.119.119,0,0,0-.037.137l.595,1.472-1.366-.885a.119.119,0,0,0-.138.007.118.118,0,0,0-.036.133l.411,1.12-.973-.8a.118.118,0,0,0-.144,0,.118.118,0,0,0-.041.138Z" transform="translate(-1109.437 44.247)" fill="#333"/>
        </g>
        <path id="Trazado_16681" data-name="Trazado 16681" d="M1136.446-115.5s2.194,7.669,1.974,8.331,2.428,20.751,2.428,21.193,1.546,2.208,1.1,3.311a4.041,4.041,0,0,0,0,2.428s1.766,17.44,1.766,18.1v3.973c0,.663-2.208-1.324-4.194-.883s-4.857,1.325-4.857,1.325-.883-2.87-.662-3.312,0-1.1.441-1.986-1.545-13.908-1.545-14.57-2.208-5.3-2.208-6.623-2.87-13.908-2.87-13.908-1.545,14.35-1.1,15.674,1.546,6.181,1.325,6.843-.883,2.649-.883,2.649v13.025s1.1,3.973,0,3.973-4.636-2.428-8.83-2.649a13.835,13.835,0,0,1-.442-3.532c.221-.663,0-6.4,0-7.065V-80.68a68.536,68.536,0,0,1-.883-9.051c0-3.753.442-10.817,0-12.8s0-12.141,0-12.141Z" transform="translate(-1080.609 172.337)" fill="#12263f"/>
        <path id="Trazado_16682" data-name="Trazado 16682" d="M1143.156-59.313a.041.041,0,0,1-.041-.034c0-.011-.223-1.109-.44-1.761s-4.147-5.457-4.187-5.506a.041.041,0,0,1,.007-.058.042.042,0,0,1,.058.006,68.614,68.614,0,0,1,4.2,5.532c.219.657.44,1.76.443,1.771a.041.041,0,0,1-.033.049Z" transform="translate(-1086.449 159.179)"/>
        <path id="Trazado_16683" data-name="Trazado 16683" d="M1123.511-59.115a.041.041,0,0,1-.036-.02c-.5-.815-4.862-7.98-4.638-8.429a.042.042,0,0,1,.056-.019.042.042,0,0,1,.019.056c-.155.309,2.687,5.162,4.634,8.349a.042.042,0,0,1-.014.057A.043.043,0,0,1,1123.511-59.115Z" transform="translate(-1081.153 159.423)"/>
        <path id="Trazado_16684" data-name="Trazado 16684" d="M1128.976-68.508a.041.041,0,0,1-.04-.031c-.078-.308-.584-1.426-1.171-2.72-1.091-2.4-2.584-5.7-2.584-6.561a.042.042,0,0,1,.042-.042.042.042,0,0,1,.042.042c0,.847,1.489,4.129,2.576,6.527.613,1.351,1.1,2.419,1.176,2.734a.042.042,0,0,1-.031.051Z" transform="translate(-1082.865 162.193)"/>
        <path id="Trazado_16685" data-name="Trazado 16685" d="M1126.4-38.164a3.379,3.379,0,0,1-1.7-.462,39.171,39.171,0,0,0-4.629-1.983.042.042,0,0,1-.025-.054.041.041,0,0,1,.053-.025,39.132,39.132,0,0,1,4.642,1.99,3.175,3.175,0,0,0,2.831.219.043.043,0,0,1,.056.019.042.042,0,0,1-.019.056A2.993,2.993,0,0,1,1126.4-38.164Z" transform="translate(-1081.48 152.175)"/>
        <path id="Trazado_16686" data-name="Trazado 16686" d="M1142.448-39.456a.04.04,0,0,1-.027-.01.041.041,0,0,1,0-.058,5.737,5.737,0,0,1,3.338-1.781,6.049,6.049,0,0,1,3.782,1.112.042.042,0,0,1,.009.059.042.042,0,0,1-.058.008,5.976,5.976,0,0,0-3.723-1.1,5.651,5.651,0,0,0-3.284,1.752A.043.043,0,0,1,1142.448-39.456Z" transform="translate(-1087.507 152.347)"/>
        <path id="Trazado_16687" data-name="Trazado 16687" d="M1130.487-96.567a.042.042,0,0,1-.032-.015l-1.1-1.324-1.323-1.545a.041.041,0,0,1-.01-.022l-1.324-10.375a.042.042,0,0,1,.036-.047.042.042,0,0,1,.047.037L1128.1-99.5l1.316,1.535,1.1,1.325a.042.042,0,0,1-.005.059A.043.043,0,0,1,1130.487-96.567Z" transform="translate(-1083.272 170.826)"/>
        <path id="Trazado_16688" data-name="Trazado 16688" d="M1127.274-99.846a.039.039,0,0,1-.018,0l-2.376-1.137a.042.042,0,0,1-.023-.034l-.883-8.83a.042.042,0,0,1,.037-.046.041.041,0,0,1,.046.038l.88,8.807,2.355,1.126a.042.042,0,0,1,.02.056A.042.042,0,0,1,1127.274-99.846Z" transform="translate(-1082.539 170.826)"/>
        <path id="Trazado_16689" data-name="Trazado 16689" d="M1142.654-103.718c-2.751,0-4.841-1.882-6.135-3.511a17.269,17.269,0,0,1-2.269-3.818.042.042,0,0,1,.023-.055.042.042,0,0,1,.054.023,17.206,17.206,0,0,0,2.258,3.8c1.353,1.7,3.582,3.685,6.531,3.46h0a.042.042,0,0,1,.042.039.041.041,0,0,1-.038.045Q1142.885-103.718,1142.654-103.718Z" transform="translate(-1085.308 171.152)"/>
        <path id="Trazado_16690" data-name="Trazado 16690" d="M1116.92-102.354a.043.043,0,0,1-.027-.009.043.043,0,0,1-.005-.059,16.087,16.087,0,0,0,2.966-9.547.042.042,0,0,1,.041-.042.042.042,0,0,1,.042.042,16.169,16.169,0,0,1-2.985,9.6A.04.04,0,0,1,1116.92-102.354Z" transform="translate(-1080.627 171.396)"/>
        <g id="Grupo_12480" data-name="Grupo 12480" transform="translate(37.827)">
          <path id="Trazado_16691" data-name="Trazado 16691" d="M1123.53-173.017a27.713,27.713,0,0,1-1.25,5.677,7.987,7.987,0,0,0,7.1-.4s0-.3.15-6.884Z" transform="translate(-1119.909 188.272)" fill="#ffa08b"/>
          <path id="Trazado_16692" data-name="Trazado 16692" d="M1123.489-170.336c.183-.962.306-1.822.354-2.182l5.719-.932A5.308,5.308,0,0,1,1123.489-170.336Z" transform="translate(-1120.235 187.955)" fill="#c77968"/>
          <g id="Grupo_12479" data-name="Grupo 12479">
            <path id="Trazado_16693" data-name="Trazado 16693" d="M1128.994-192.063a2.811,2.811,0,0,1-.693-.211c-.469-.262-.71-.895-1.237-.992-.454-.083-.861.281-1.313.374-.8.164-1.576-.531-2.378-.4-.386.065-.722.318-1.107.389-.748.136-1.674-.388-2.2.163l1.31.666c-.278.348-.844.234-1.226.463-.47.281-.583,1.031-1.115,1.159a1.641,1.641,0,0,0,1.194.492,3.6,3.6,0,0,1-.535,1.128l.636.054a4.756,4.756,0,0,0,.252,2.6,1.959,1.959,0,0,1,.848-1.863,3.752,3.752,0,0,1,2.042-.608,7.164,7.164,0,0,1,4.707,1.507,7.166,7.166,0,0,1,2.582,4.214,8.709,8.709,0,0,0,1.078-2.235,4.278,4.278,0,0,1,.359,1.2c-.272-.563.467-1.1.571-1.717a1.774,1.774,0,0,0-.092-.754l-.641-2.346a4.191,4.191,0,0,1,.972.307c-.048-.022-.244-.364-.335-.436a3.026,3.026,0,0,0-.591-.259,1.332,1.332,0,0,1-.788-.747A3.555,3.555,0,0,0,1128.994-192.063Z" transform="translate(-1119.035 193.306)" fill="#4e3933"/>
            <g id="Grupo_12477" data-name="Grupo 12477" transform="translate(0.204 8.607)">
              <g id="Grupo_12476" data-name="Grupo 12476">
                <path id="Trazado_16694" data-name="Trazado 16694" d="M1120.516-181.473a.946.946,0,0,0-1.043.283.966.966,0,0,0-.114.829,1.922,1.922,0,0,0,.446.733,1.107,1.107,0,0,0,.893.454.862.862,0,0,0,.662-.685A1.293,1.293,0,0,0,1120.516-181.473Z" transform="translate(-1119.314 181.524)" fill="#c77968"/>
              </g>
            </g>
            <path id="Trazado_16695" data-name="Trazado 16695" d="M1121.039-187.352a5.011,5.011,0,0,1,3.388-3.536,7.239,7.239,0,0,1,3.937.223c2.538.833,4.4,3,3.826,5.783a18.153,18.153,0,0,1-3.162,6.248,6.355,6.355,0,0,1-.93,1.124,4.089,4.089,0,0,1-1.392.763,7.645,7.645,0,0,1-3.191.728,2.487,2.487,0,0,1-1.194-.356,3.677,3.677,0,0,1-.942-1.028,5.656,5.656,0,0,1-1.182-2.43,5.136,5.136,0,0,1,.022-1.18q.064-.631.153-1.259a6.305,6.305,0,0,1,.147-1.151q.121-1.212.261-2.422A10,10,0,0,1,1121.039-187.352Z" transform="translate(-1119.341 192.702)" fill="#ffa08b"/>
            <path id="Trazado_16696" data-name="Trazado 16696" d="M1124.36-177.98a.085.085,0,0,0,.093-.042.084.084,0,0,0-.035-.114c-.221-.119-.579-.358-.481-.622a.829.829,0,0,1,.132-.212l.017-.023a4.6,4.6,0,0,0,.983-2.793.085.085,0,0,0-.086-.082.085.085,0,0,0-.083.086,4.426,4.426,0,0,1-.948,2.687l-.017.023a.955.955,0,0,0-.158.256c-.106.289.088.575.56.828A.083.083,0,0,0,1124.36-177.98Z" transform="translate(-1120.306 190.223)" fill="#c77968"/>
            <path id="Trazado_16697" data-name="Trazado 16697" d="M1125.567-176.454h.005a.331.331,0,0,0,.256-.056.364.364,0,0,0,.154-.24.358.358,0,0,0-.075-.275.332.332,0,0,0-.229-.127.084.084,0,0,0-.091.077.084.084,0,0,0,.077.091.162.162,0,0,1,.11.064.192.192,0,0,1,.041.145.2.2,0,0,1-.083.126.165.165,0,0,1-.125.031.424.424,0,0,1-.114-.053l-.333-.193a.084.084,0,0,0-.115.031.084.084,0,0,0,.031.115l.333.193A.594.594,0,0,0,1125.567-176.454Z" transform="translate(-1120.652 188.952)" fill="#c77968"/>
            <path id="Trazado_16698" data-name="Trazado 16698" d="M1128.324-181.378a.252.252,0,0,0,.137-.007,1.955,1.955,0,0,1,1.877.434.252.252,0,0,0,.357,0,.253.253,0,0,0,0-.357,2.44,2.44,0,0,0-2.392-.554.253.253,0,0,0-.159.32A.252.252,0,0,0,1128.324-181.378Z" transform="translate(-1121.486 190.255)" fill="#4e3933"/>
            <path id="Trazado_16699" data-name="Trazado 16699" d="M1121.57-182.94a.243.243,0,0,0,.137-.007,1.952,1.952,0,0,1,1.877.435.253.253,0,0,0,.357,0,.253.253,0,0,0,0-.358,2.442,2.442,0,0,0-2.392-.554.253.253,0,0,0-.159.321A.255.255,0,0,0,1121.57-182.94Z" transform="translate(-1119.665 190.676)" fill="#4e3933"/>
            <path id="Trazado_16700" data-name="Trazado 16700" d="M1124.363-174.764a8.257,8.257,0,0,0,1.663.2.042.042,0,0,0,.042-.042.042.042,0,0,0-.042-.042c-.023,0-2.349-.016-3.3-1a.041.041,0,0,0-.059,0,.042.042,0,0,0,0,.059A3.5,3.5,0,0,0,1124.363-174.764Z" transform="translate(-1120.009 188.55)" fill="#6b4640"/>
            <path id="Trazado_16701" data-name="Trazado 16701" d="M1127.76-174.227a.042.042,0,0,0,.044-.017.265.265,0,0,0-.027-.329.043.043,0,0,0-.06,0,.042.042,0,0,0,0,.06.18.18,0,0,1,.019.222.041.041,0,0,0,.01.058A.052.052,0,0,0,1127.76-174.227Z" transform="translate(-1121.371 188.261)" fill="#c77968"/>
            <path id="Trazado_16702" data-name="Trazado 16702" d="M1123.4-181.213a.506.506,0,0,0-.38-.608.507.507,0,0,0-.608.379.507.507,0,0,0,.38.608A.507.507,0,0,0,1123.4-181.213Z" transform="translate(-1119.942 190.214)" fill="#333"/>
            <path id="Trazado_16703" data-name="Trazado 16703" d="M1121.788-181.6a.074.074,0,0,0,.04,0,2.421,2.421,0,0,1,.96-.139,1.958,1.958,0,0,1,.728.527.072.072,0,0,0,.1.006.072.072,0,0,0,.006-.1,2.041,2.041,0,0,0-.8-.571,2.5,2.5,0,0,0-1.039.142.073.073,0,0,0-.045.092A.075.075,0,0,0,1121.788-181.6Z" transform="translate(-1119.762 190.232)" fill="#333"/>
            <path id="Trazado_16704" data-name="Trazado 16704" d="M1128.858-179.95a.506.506,0,0,1,.609-.38.507.507,0,0,1,.38.608.507.507,0,0,1-.608.379A.507.507,0,0,1,1128.858-179.95Z" transform="translate(-1121.679 189.812)" fill="#333"/>
            <path id="Trazado_16705" data-name="Trazado 16705" d="M1130.175-179.664a.075.075,0,0,1-.035-.019,2.41,2.41,0,0,0-.8-.546,1.952,1.952,0,0,0-.885.153.072.072,0,0,1-.094-.039.072.072,0,0,1,.039-.094,2.04,2.04,0,0,1,.973-.161,2.506,2.506,0,0,1,.871.584.074.074,0,0,1,0,.1A.072.072,0,0,1,1130.175-179.664Z" transform="translate(-1121.547 189.825)" fill="#333"/>
            <path id="Trazado_16706" data-name="Trazado 16706" d="M1124.579-173.78c.1.023.2.043.321.062a.042.042,0,0,0,.047-.036.043.043,0,0,0-.035-.048,2.517,2.517,0,0,1-1.138-.392.043.043,0,0,0-.06.005.043.043,0,0,0,.005.059A2.186,2.186,0,0,0,1124.579-173.78Z" transform="translate(-1120.294 188.158)" fill="#6b4640"/>
            <path id="Trazado_16707" data-name="Trazado 16707" d="M1134.907-180.72a3.1,3.1,0,0,1-.706.882,1.154,1.154,0,0,1-1.065.227,11.506,11.506,0,0,1-.043-2.785,13.953,13.953,0,0,0-.145-2.517.322.322,0,0,1,.017-.215.315.315,0,0,1,.238-.115,6.735,6.735,0,0,1,1.92-.017c.437.059.941.226,1.064.649.131.448-.276,1.156-.37,1.625A6.845,6.845,0,0,1,1134.907-180.72Z" transform="translate(-1122.782 191.153)" fill="#4e3933"/>
            <path id="Trazado_16708" data-name="Trazado 16708" d="M1129.444-185.072a2.7,2.7,0,0,1,.015-1.232q.889.742,1.837,1.406c-.037-.234.169-.44.385-.538a3.408,3.408,0,0,0,.652-.282c.47-.349.37-1.075.177-1.629a6.379,6.379,0,0,0-3.507-4.08,7.98,7.98,0,0,0-2.932-.332,7.519,7.519,0,0,0-2.349.322,2.834,2.834,0,0,0-1.735,1.524c-.107.271-.158.561-.258.835a2.526,2.526,0,0,1-.73,1.056,6.977,6.977,0,0,0,2.305-.358c-.444.587-1.594.548-1.7,1.276a1.488,1.488,0,0,1,1.249-.3,5.332,5.332,0,0,0,1.321.124c1.156-.15,2.423-1.893,3.692-1.082a4.842,4.842,0,0,1,1.005,1.471C1129.16-186.354,1128.979-185.49,1129.444-185.072Z" transform="translate(-1119.565 192.891)" fill="#4e3933"/>
            <g id="Grupo_12478" data-name="Grupo 12478" transform="translate(10.34 11.056)">
              <path id="Trazado_16709" data-name="Trazado 16709" d="M1134.682-178.156a.946.946,0,0,1,.813.712.964.964,0,0,1-.261.795,1.92,1.92,0,0,1-.723.462,1.1,1.1,0,0,1-1,.015.858.858,0,0,1-.293-.906A1.293,1.293,0,0,1,1134.682-178.156Z" transform="translate(-1133.19 178.17)" fill="#ffa08b"/>
              <path id="Trazado_16710" data-name="Trazado 16710" d="M1133.941-176.435a.049.049,0,0,0,.027,0,.355.355,0,0,0,.2-.3.356.356,0,0,0-.179-.316.112.112,0,0,1-.027-.018.044.044,0,0,1,0-.019.523.523,0,0,1,.186-.232,1.159,1.159,0,0,1,.526-.273.565.565,0,0,1,.527.159.224.224,0,0,1,.059.2.043.043,0,0,0,.026.054.042.042,0,0,0,.053-.026.3.3,0,0,0-.074-.287.651.651,0,0,0-.606-.188,1.253,1.253,0,0,0-.565.291.609.609,0,0,0-.214.272.109.109,0,0,0,0,.077.119.119,0,0,0,.059.056.27.27,0,0,1,.14.241.27.27,0,0,1-.151.229.042.042,0,0,0-.02.056A.041.041,0,0,0,1133.941-176.435Z" transform="translate(-1133.376 178.042)" fill="#c77968"/>
            </g>
          </g>
        </g>
        <path id="Trazado_16711" data-name="Trazado 16711" d="M1108.8-136.333s-.883,3.974-2.208,4.194-10.154-10.6-11.038-11.48-3.175-3.538-3.464-3.866,5.672,1.217,5.672,1.438,7.726,5.74,7.726,5.74Z" transform="translate(-1073.942 180.969)" fill="#ffa08b"/>
        <path id="Trazado_16712" data-name="Trazado 16712" d="M1129.211-165.293a11.979,11.979,0,0,1-6.843.441l.883,17.219s4.635-.662,4.635-1.1S1129.211-165.293,1129.211-165.293Z" transform="translate(-1082.107 185.756)" fill="#f6ebe3"/>
        <path id="Trazado_16713" data-name="Trazado 16713" d="M1125.552-168.809l1.655,1.655s7.726,1.766,8.389,2.428.883,2.649,1.324,3.091,1.1.442,1.1,1.325-.442,1.766,0,2.207.441.221.441.883a38.989,38.989,0,0,0,.883,4.415c.221.883,1.987,5.3,2.428,5.519s-.11,3.864-.11,3.864-6.292,1.214-8.278-.552c0,0,.882,9.934.882,10.155s.663,3.532.663,3.532a12.308,12.308,0,0,0-3.753,2.208c-1.766,1.546-5.74,4.636-9.934,3.753s-6.181-3.533-7.948-4.194a35.3,35.3,0,0,0,0-4.857,8.582,8.582,0,0,1,0-2.428l-.441-5.519-5.3-5.961,1.1-6.623a4.908,4.908,0,0,1-.441-3.311c.441-1.766,1.766-4.636,1.766-5.077s7.726-5.078,7.726-5.078l1.324-1.546s1.325,19.869,1.766,18.1S1125.552-168.809,1125.552-168.809Z" transform="translate(-1078.116 186.734)" fill="#ffd947"/>
        <path id="Trazado_16714" data-name="Trazado 16714" d="M1142.589-135.831a.043.043,0,0,1-.039-.026,6.37,6.37,0,0,1-.444-1.782v-.883a.087.087,0,0,1,.037-.066,12.208,12.208,0,0,1,4.647-.637c1.311.218,3.076.659,3.094.663a.041.041,0,0,1,.031.05.041.041,0,0,1-.051.031c-.017,0-1.779-.444-3.087-.662a12.284,12.284,0,0,0-4.588.628v.877a6.414,6.414,0,0,0,.439,1.75.043.043,0,0,1-.023.055A.038.038,0,0,1,1142.589-135.831Z" transform="translate(-1087.426 178.742)"/>
        <path id="Trazado_16715" data-name="Trazado 16715" d="M1142.063-141.906a.043.043,0,0,1-.04-.03,38.27,38.27,0,0,1-1.127-9.623.042.042,0,0,1,.042-.042.042.042,0,0,1,.042.042,38.128,38.128,0,0,0,1.124,9.6.043.043,0,0,1-.029.052Z" transform="translate(-1087.1 182.066)"/>
        <path id="Trazado_16716" data-name="Trazado 16716" d="M1140.532-144.364a.042.042,0,0,1-.034-.018c-1.045-1.432-2.9-4.705-2.92-4.738a.042.042,0,0,1,.016-.057.042.042,0,0,1,.057.016c.019.033,1.873,3.3,2.915,4.73a.041.041,0,0,1-.009.058A.041.041,0,0,1,1140.532-144.364Z" transform="translate(-1086.204 181.414)"/>
        <path id="Trazado_16717" data-name="Trazado 16717" d="M1146.075-148.939h-.01a.042.042,0,0,1-.031-.051c.218-.874,1.533-5.256,1.546-5.3a.043.043,0,0,1,.053-.028.042.042,0,0,1,.028.053c-.013.044-1.327,4.425-1.545,5.3A.041.041,0,0,1,1146.075-148.939Z" transform="translate(-1088.485 182.799)"/>
        <path id="Trazado_16718" data-name="Trazado 16718" d="M1127.641-155.615h-.012a.042.042,0,0,1-.027-.053l2.428-7.506a.042.042,0,0,1,.01-.017,13.3,13.3,0,0,1,1.552-1.329,10.95,10.95,0,0,1,2.574-.869l-1.807-1.339a.042.042,0,0,1-.009-.058.042.042,0,0,1,.059-.009l1.88,1.393a.042.042,0,0,1,.015.042.041.041,0,0,1-.031.032,11.933,11.933,0,0,0-2.635.877,13.1,13.1,0,0,0-1.532,1.312l-2.425,7.5A.042.042,0,0,1,1127.641-155.615Z" transform="translate(-1083.516 186.164)"/>
        <path id="Trazado_16719" data-name="Trazado 16719" d="M1122.791-156.671a.043.043,0,0,1-.041-.034l-.766-3.553c-.01-.037-1.106-3.95-1.955-4.162a4.081,4.081,0,0,0-1.746,0,.041.041,0,0,1-.047-.02.042.042,0,0,1,.007-.05l2.208-2.208a.042.042,0,0,1,.059,0,.042.042,0,0,1,0,.059l-2.109,2.11a4.113,4.113,0,0,1,1.648.029c.9.224,1.972,4.06,2.017,4.224l.766,3.555a.041.041,0,0,1-.032.05Z" transform="translate(-1080.992 186.138)"/>
        <path id="Trazado_16720" data-name="Trazado 16720" d="M1115.39-141.419h0a.042.042,0,0,1-.041-.043c0-.08.213-7.956-.438-9.475a.042.042,0,0,1,.022-.055.043.043,0,0,1,.055.022c.658,1.536.454,9.185.445,9.51A.042.042,0,0,1,1115.39-141.419Z" transform="translate(-1080.096 181.903)"/>
        <path id="Trazado_16721" data-name="Trazado 16721" d="M1114.919-145.677a.042.042,0,0,1-.037-.023l-1.784-3.422a.041.041,0,0,1,.018-.056.041.041,0,0,1,.056.018l1.785,3.422a.043.043,0,0,1-.018.057A.049.049,0,0,1,1114.919-145.677Z" transform="translate(-1079.607 181.414)"/>
        <path id="Trazado_16722" data-name="Trazado 16722" d="M1113.448-153.924a.041.041,0,0,1-.033-.015,22.954,22.954,0,0,0-2.423-2.423.042.042,0,0,1,0-.059.043.043,0,0,1,.059,0,23.178,23.178,0,0,1,2.433,2.434.042.042,0,0,1-.007.059A.042.042,0,0,1,1113.448-153.924Z" transform="translate(-1079.037 183.369)"/>
        <path id="Trazado_16723" data-name="Trazado 16723" d="M1140.333-156.516h-.008a.043.043,0,0,1-.034-.049c1.1-5.924,3.682-6.206,3.791-6.215a.04.04,0,0,1,.044.038.042.042,0,0,1-.038.045c-.026,0-2.631.294-3.715,6.147A.042.042,0,0,1,1140.333-156.516Z" transform="translate(-1086.937 185.079)"/>
        <path id="Trazado_16724" data-name="Trazado 16724" d="M1127.236-117.507a.042.042,0,0,1-.042-.039l-1.407-26.757a.041.041,0,0,1,.039-.044.043.043,0,0,1,.044.039l1.408,26.757a.042.042,0,0,1-.04.044Z" transform="translate(-1083.028 180.111)"/>
        <path id="Trazado_16725" data-name="Trazado 16725" d="M1149.4-67.167a.047.047,0,0,1-.017,0,.042.042,0,0,1-.022-.055l.663-1.546a.042.042,0,0,1,.055-.022.042.042,0,0,1,.022.056l-.663,1.545A.041.041,0,0,1,1149.4-67.167Z" transform="translate(-1089.381 159.749)"/>
        <g id="Grupo_12481" data-name="Grupo 12481" transform="translate(0 16.634)">
          <path id="Trazado_16726" data-name="Trazado 16726" d="M1070.17-168.907l-2.918-1.627,2.521,2.158Z" transform="translate(-1067.252 170.535)" fill="#b3b3b3"/>
          <rect id="Rectángulo_2891" data-name="Rectángulo 2891" width="5.519" height="71.304" transform="matrix(0.598, -0.801, 0.801, 0.598, 9.648, 10.509)" fill="#7d6eb2"/>
          <path id="Trazado_16727" data-name="Trazado 16727" d="M1070.336-169.182l-.66.885,2.725,3.838a15.792,15.792,0,0,0,3.428,3.511l3.316,2.476,3.3-4.422-3.317-2.476a15.809,15.809,0,0,0-4.34-2.289Z" transform="translate(-1067.906 170.17)" fill="#b3b3b3"/>
          <rect id="Rectángulo_2892" data-name="Rectángulo 2892" width="5.96" height="1.766" transform="translate(65.594 52.548) rotate(-53.258)" fill="#b3b3b3"/>
          <path id="Trazado_16728" data-name="Trazado 16728" d="M1164.333-100.009l-1.311,1.757a.449.449,0,0,1-.628.091l-3.355-2.5,1.849-2.476,3.354,2.5A.449.449,0,0,1,1164.333-100.009Z" transform="translate(-1091.99 152.371)" fill="#b3b3b3"/>
          <path id="Trazado_16729" data-name="Trazado 16729" d="M1151.645-101.753a14.514,14.514,0,0,1-8.1-3.2,19.723,19.723,0,0,1-4.848-5.24,9.191,9.191,0,0,0-1.925-2.3c-.747-.557-1.087-.509-1.2-.463-.2.084-.285.394-.3.5a.421.421,0,0,1-.469.359.417.417,0,0,1-.361-.465,1.5,1.5,0,0,1,.8-1.159,2.107,2.107,0,0,1,2.03.561,9.9,9.9,0,0,1,2.115,2.493,19.01,19.01,0,0,0,4.657,5.042,13.909,13.909,0,0,0,7.608,3.034h.007a.419.419,0,0,1,.419.413.418.418,0,0,1-.412.424Z" transform="translate(-1085.361 155.248)" fill="#b3b3b3"/>
          <path id="Trazado_16730" data-name="Trazado 16730" d="M1160.234-99.736a.047.047,0,0,1-.026-.008.042.042,0,0,1-.008-.058l1.849-2.477a.042.042,0,0,1,.058-.008.041.041,0,0,1,.008.058l-1.849,2.476A.041.041,0,0,1,1160.234-99.736Z" transform="translate(-1092.301 152.143)"/>
          <path id="Trazado_16731" data-name="Trazado 16731" d="M1079.52-158.445a.04.04,0,0,1-.036-.02.041.041,0,0,1,.014-.057,8.519,8.519,0,0,0,3.283-4.4.042.042,0,0,1,.053-.027.042.042,0,0,1,.027.053,8.6,8.6,0,0,1-3.32,4.445A.037.037,0,0,1,1079.52-158.445Z" transform="translate(-1070.547 168.491)"/>
        </g>
        <path id="Trazado_16732" data-name="Trazado 16732" d="M1105.422-134.445s-3.932-1.6-4.816-2.482-7.328-11.118-8.079-11.409a18.394,18.394,0,0,1-2.418-1.516,1.32,1.32,0,0,1-.519-1.438c.4-1.458,1.2-4.181,1.523-4.181.442,0,.221,2.649.221,2.649s1.1-2.428,1.325-1.987a1.725,1.725,0,0,1,0,1.1s.441-.441.662-.441-.221,2.428-.221,2.428.663-1.766.883-1.324-.221,1.766-.221,1.766a16.871,16.871,0,0,1,2.208,3.311c.221.883,9.463,7,10.029,9.238a7.746,7.746,0,0,1-.345,4.4Z" transform="translate(-1073.26 183.109)" fill="#ffa08b"/>
        <path id="Trazado_16733" data-name="Trazado 16733" d="M1135.86-134.886s4.856-1.766,7.726.221c0,0,.441,4.856-.662,5.3s-1.1,1.324-16.115.883c0,0-5.519,1.986-6.181,1.545a2.375,2.375,0,0,1-.883-1.1s-.883-.221-1.1-.663a2.721,2.721,0,0,0-.442-.662l-.662-.442-.4-.8s1.722-.081,2.163-.081a11.506,11.506,0,0,0,3.311-1.324c0-.221-2.208-1.766-1.986-2.428s1.324.442,2.428.883,2.869,1.324,2.869,1.324l.662.441s8.168-1.766,9.272-1.987Z" transform="translate(-1080.698 177.756)" fill="#ffa08b"/>
        <path id="Trazado_16734" data-name="Trazado 16734" d="M1142.736-133.187a.083.083,0,0,1-.08-.06.083.083,0,0,1,.056-.1,19.623,19.623,0,0,1,6.056-.282.084.084,0,0,1,.078.089.085.085,0,0,1-.089.078,19.483,19.483,0,0,0-6,.275A.088.088,0,0,1,1142.736-133.187Z" transform="translate(-1087.574 177.244)" fill="#c77968"/>
        <path id="Trazado_16735" data-name="Trazado 16735" d="M1150.593-127.419a.083.083,0,0,1-.084-.083.083.083,0,0,1,.084-.084c.286,0,.785-.652,1.032-1.063a.083.083,0,0,1,.115-.029.084.084,0,0,1,.029.115C1151.7-128.446,1151.068-127.419,1150.593-127.419Z" transform="translate(-1089.691 175.891)" fill="#c77968"/>
      </g>
      <g id="Grupo_12488" data-name="Grupo 12488" transform="translate(8.186 47.188)">
        <path id="Trazado_16736" data-name="Trazado 16736" d="M979.207-182.9a4.736,4.736,0,0,1,3.595-.533,14.05,14.05,0,0,1,3.45,1.4c1.418.726,3.018,1.709,3.161,3.3.094,1.033-.489,2.015-.537,3.051-.078,1.69,1.262,3.328.775,4.948-.289.959-1.162,1.643-1.511,2.581-.387,1.039-.072,2.213-.3,3.3a3.423,3.423,0,0,1-2.62,2.591c-.825.164-1.779.047-2.4.609-.829.745-.516,2.173-1.163,3.081a2.642,2.642,0,0,1-2.763.728c-.985-.226-1.9-.723-2.895-.888a4.511,4.511,0,0,0-3.5.906c-1.139.9-3.1-.235-4.05-1.335a3.752,3.752,0,0,1-.482-4.078c.994-1.919,3.518-2.709,4.392-4.686a27.65,27.65,0,0,1,.91-2.878c.4-.695,1.1-1.186,1.492-1.888.816-1.458.106-3.283.318-4.94C975.363-179.851,977.361-181.664,979.207-182.9Z" transform="translate(-954.71 183.565)" fill="#fed190"/>
        <path id="Trazado_16737" data-name="Trazado 16737" d="M1011.989-124.014h3.349s2.847,1.674,3.349,1.507.67-.5,1.34-.5,2.344-.335,2.344-.67a21.847,21.847,0,0,1,.59-2.28h-12.518Z" transform="translate(-966.264 168.04)" fill="#ffa08b"/>
        <path id="Trazado_16738" data-name="Trazado 16738" d="M1000.643-147.158s1.658,11.35,1.474,11.9,2.026,2.579,2.026,2.579l4.726,1.275a3.185,3.185,0,0,1-.335,2.009s-14.064,1.507-12.681-5.126c.528-2.531,1.289-11.421,1.289-11.421Z" transform="translate(-962.306 173.753)" fill="#a2acc2"/>
        <path id="Trazado_16739" data-name="Trazado 16739" d="M962.326-121.215s-3.684,5.342-4.605,6.079-3.5,2.211-3.5,2.211-.737,2.026-.368,2.026-.553.552-.737.552-.368-2.026-.368-2.026-.737,2.763-.369,2.763c0,0-.736.368-.921-.184s.185.552-.184.368-1.842-3.5-1.105-4.421,6.079-2.763,6.448-3.685,1.657-5.158,2.395-6.079S962.326-121.215,962.326-121.215Z" transform="translate(-949.964 167.45)" fill="#ffa08b"/>
        <g id="Grupo_12483" data-name="Grupo 12483" transform="translate(10.21 89.79)">
          <path id="Trazado_16740" data-name="Trazado 16740" d="M973.343-60.647s-3.184,4.381-3.927,4.82-4.379,1.075-5.014,1.7-.481.033-.316,2.442-.171,7.368,1.068,9.9,2.87,2.319,2.87,2.319,1.412-.581,1.641-1.468-.451-3.744-.145-4.926,1.529-5.913,2.35-6.647S977.1-58.1,977.1-58.1Z" transform="translate(-963.941 60.647)" fill="#ffa08b"/>
          <path id="Trazado_16741" data-name="Trazado 16741" d="M968.024-37.618s1.412-.581,1.641-1.468-.451-3.744-.145-4.926a37.374,37.374,0,0,1,2.029-6.205c-1.839-1.64-2.443-2.821-2.608-3.56-1.24.421-4,.966-4.54,1.5-.634.625-.481.033-.316,2.442s-.171,7.368,1.068,9.9S968.024-37.618,968.024-37.618Z" transform="translate(-963.941 58.796)" fill="#12263f"/>
          <path id="Trazado_16742" data-name="Trazado 16742" d="M969.56-41.045a3.635,3.635,0,0,0-3.378-1.817s-1.432-5.7-1.221-9.3a1.876,1.876,0,0,0-.558.319c-.634.625-.481.033-.316,2.442s-.171,7.368,1.068,9.9,2.87,2.319,2.87,2.319,1.412-.581,1.641-1.468A9.491,9.491,0,0,0,969.56-41.045Z" transform="translate(-963.941 58.359)" fill="#f6ded3"/>
          <path id="Trazado_16743" data-name="Trazado 16743" d="M969.548-38.058h-.005c-.028,0-2.77-.383-3.105-4.9-.015-.06-1.54-6.612-1.227-9.032a.044.044,0,0,1,.048-.037.042.042,0,0,1,.036.047c-.311,2.406,1.211,8.943,1.226,9.008.331,4.452,3.006,4.827,3.033,4.83a.042.042,0,0,1,.036.047A.042.042,0,0,1,969.548-38.058Z" transform="translate(-964.272 58.324)" fill="#282233"/>
          <path id="Trazado_16744" data-name="Trazado 16744" d="M970.848-43.252a.083.083,0,0,1-.059-.025,6.711,6.711,0,0,0-2.048-1.394.085.085,0,0,1-.047-.1.083.083,0,0,1,.094-.058,7.386,7.386,0,0,1,1.929.6c-.581-.554-1.208-1.068-1.818-1.568a.083.083,0,0,1-.02-.106.083.083,0,0,1,.1-.038,12.162,12.162,0,0,1,2.221,1.052,1.819,1.819,0,0,0-.274-.328,2.707,2.707,0,0,0-.468-.321c-.071-.042-.142-.083-.21-.128-.137-.087-.268-.185-.394-.279a3.685,3.685,0,0,0-.686-.438.084.084,0,0,1-.046-.1.084.084,0,0,1,.094-.058,9.752,9.752,0,0,1,2,.557,11.2,11.2,0,0,0-1.659-1.046.084.084,0,0,1-.042-.1.085.085,0,0,1,.091-.058,9.483,9.483,0,0,1,2.077.533,5.178,5.178,0,0,0-.654-.467c-.47-.3-.956-.586-1.445-.858a.083.083,0,0,1-.039-.1.085.085,0,0,1,.094-.056,9.534,9.534,0,0,1,2.221.563,3.407,3.407,0,0,0-.477-.384c-.186-.124-.39-.232-.587-.337a5.24,5.24,0,0,1-.791-.483.085.085,0,0,1-.028-.093.085.085,0,0,1,.079-.057,5.143,5.143,0,0,1,1.982.379A12.652,12.652,0,0,0,970.5-49.73a.085.085,0,0,1-.036-.091.084.084,0,0,1,.074-.063,3.759,3.759,0,0,1,2.206.779.084.084,0,0,1,.027.115.084.084,0,0,1-.115.026,4.055,4.055,0,0,0-1.841-.759,12.7,12.7,0,0,1,1.73,1.415.084.084,0,0,1,.009.11.085.085,0,0,1-.107.024,4.969,4.969,0,0,0-2.116-.581c.177.115.365.215.549.313.2.107.408.217.6.346a3.562,3.562,0,0,1,.809.744.084.084,0,0,1,0,.107.083.083,0,0,1-.105.018,6.53,6.53,0,0,0-2.094-.662c.35.2.7.411,1.036.625a3.728,3.728,0,0,1,.963.782.083.083,0,0,1,0,.1.085.085,0,0,1-.1.026,9.274,9.274,0,0,0-1.91-.589,11.281,11.281,0,0,1,1.73,1.216.084.084,0,0,1,.016.109.086.086,0,0,1-.107.031,9.591,9.591,0,0,0-2.044-.7c.1.066.19.136.282.2.124.093.254.188.384.272.067.043.136.084.206.125a2.848,2.848,0,0,1,.5.342,2.855,2.855,0,0,1,.494.671.084.084,0,0,1-.014.1.084.084,0,0,1-.1.01A11.9,11.9,0,0,0,969.4-45.6a22.346,22.346,0,0,1,1.826,1.639.084.084,0,0,1,.007.11.084.084,0,0,1-.107.022,7.233,7.233,0,0,0-1.716-.695,6.878,6.878,0,0,1,1.5,1.131.083.083,0,0,1,0,.118A.081.081,0,0,1,970.848-43.252Z" transform="translate(-965.221 57.748)" fill="#f6ded3"/>
          <path id="Trazado_16745" data-name="Trazado 16745" d="M971.586-45.679a.5.5,0,0,1-.4-.275,1.716,1.716,0,0,1,.115-1.594c.085-.166.184-.327.28-.483a4,4,0,0,0,.453-.9.468.468,0,0,0,.01-.278l-.416.876a6.049,6.049,0,0,1-.8,1.365,2.081,2.081,0,0,1-1.382.785.085.085,0,0,1-.091-.076.084.084,0,0,1,.077-.091,1.924,1.924,0,0,0,1.269-.726,5.955,5.955,0,0,0,.779-1.329l.429-.9-.01-.005a.18.18,0,0,1-.056-.056,8.429,8.429,0,0,1-2.158.988,1.468,1.468,0,0,1-.545.083.62.62,0,0,1-.5-.3.615.615,0,0,1,.134-.695,1.4,1.4,0,0,1,.6-.329,10.477,10.477,0,0,1,1.92-.356.951.951,0,0,1,.591.06.431.431,0,0,1,.179.205.417.417,0,0,1,.258.116,1.3,1.3,0,0,1,.257,1.153,13.761,13.761,0,0,1-.326,1.739,2.155,2.155,0,0,1-.371.856.451.451,0,0,1-.21.158A.293.293,0,0,1,971.586-45.679Zm.489-3.745c.182.1.181.351.124.539a4.172,4.172,0,0,1-.471.941c-.094.153-.191.313-.273.473a1.594,1.594,0,0,0-.118,1.434c.064.112.183.218.291.185a.294.294,0,0,0,.129-.1,2.023,2.023,0,0,0,.338-.792,13.7,13.7,0,0,0,.322-1.717,1.167,1.167,0,0,0-.2-1.009.314.314,0,0,0-.112-.066A.32.32,0,0,1,972.075-49.424Zm-.527-.407a1.88,1.88,0,0,0-.23.018,10.279,10.279,0,0,0-1.89.35,1.236,1.236,0,0,0-.532.285.456.456,0,0,0-.107.5.46.46,0,0,0,.367.21,1.338,1.338,0,0,0,.483-.077,8.225,8.225,0,0,0,2.2-1.021.244.244,0,0,1,.072-.1.268.268,0,0,0-.1-.11A.516.516,0,0,0,971.548-49.831Z" transform="translate(-965.192 57.777)" fill="#f6ded3"/>
        </g>
        <g id="Grupo_12484" data-name="Grupo 12484" transform="translate(19.661 96.527)">
          <path id="Trazado_16746" data-name="Trazado 16746" d="M977.133-49.4s.622,6.889.655,7.752-1.124,4.366-.874,5.221-.2.44,2,1.434,6.411,3.636,9.224,3.742,3.4-1.431,3.4-1.431.156-1.519-.516-2.14-3.512-1.374-4.409-2.2-4.486-4.146-4.744-5.216.052-9.184.052-9.184Z" transform="translate(-976.879 51.425)" fill="#ffa08b"/>
          <path id="Trazado_16747" data-name="Trazado 16747" d="M991.541-29.111s.156-1.519-.516-2.14-3.512-1.374-4.409-2.2a37.374,37.374,0,0,1-4.506-4.724c-2.315.844-3.642.817-4.371.613-.216,1.291-1.039,3.976-.825,4.71.25.855-.2.44,2,1.434s6.411,3.636,9.224,3.742S991.541-29.111,991.541-29.111Z" transform="translate(-976.879 47.855)" fill="#12263f"/>
          <path id="Trazado_16748" data-name="Trazado 16748" d="M988.864-30.565a3.633,3.633,0,0,0-3.2,2.116s-5.7-1.434-8.767-3.323a1.886,1.886,0,0,0,.017.643c.25.855-.2.44,2,1.434s6.411,3.636,9.224,3.742,3.4-1.431,3.4-1.431.156-1.519-.516-2.14A9.469,9.469,0,0,0,988.864-30.565Z" transform="translate(-976.879 46.128)" fill="#f6ded3"/>
          <path id="Trazado_16749" data-name="Trazado 16749" d="M988.544-27.7a7.405,7.405,0,0,1-3-.727c-.059-.015-6.553-1.771-8.537-3.194a.042.042,0,0,1-.01-.058.042.042,0,0,1,.058-.009c1.973,1.413,8.452,3.165,8.517,3.183,4.083,1.817,5.674-.364,5.69-.386a.043.043,0,0,1,.058-.01.042.042,0,0,1,.01.058A3.429,3.429,0,0,1,988.544-27.7Z" transform="translate(-976.908 46.107)" fill="#282233"/>
          <path id="Trazado_16750" data-name="Trazado 16750" d="M985.382-32.395a.083.083,0,0,1-.059-.024.085.085,0,0,1-.007-.111,7.446,7.446,0,0,1,1.442-1.414c-.762.25-1.511.56-2.24.86a.084.084,0,0,1-.1-.032.083.083,0,0,1,.014-.107,12.157,12.157,0,0,1,1.979-1.46,1.843,1.843,0,0,0-.419.086,2.627,2.627,0,0,0-.5.259c-.071.042-.142.085-.214.126-.141.079-.289.148-.433.215a3.679,3.679,0,0,0-.71.4.083.083,0,0,1-.11-.007.084.084,0,0,1-.007-.11,9.776,9.776,0,0,1,1.438-1.5,11.117,11.117,0,0,0-1.706.966.083.083,0,0,1-.107-.01.084.084,0,0,1-.008-.108,9.507,9.507,0,0,1,1.452-1.577,5.141,5.141,0,0,0-.72.355c-.485.274-.969.566-1.439.867a.083.083,0,0,1-.107-.014.083.083,0,0,1,0-.107,9.474,9.474,0,0,1,1.546-1.69,3.406,3.406,0,0,0-.564.238c-.2.106-.389.234-.575.357a5.234,5.234,0,0,1-.8.468.082.082,0,0,1-.094-.02.082.082,0,0,1-.013-.1,5.139,5.139,0,0,1,1.272-1.567,12.6,12.6,0,0,0-1.771.8.084.084,0,0,1-.1-.011.084.084,0,0,1-.02-.095,3.77,3.77,0,0,1,1.73-1.575.083.083,0,0,1,.114.031.084.084,0,0,1-.031.115,4.041,4.041,0,0,0-1.54,1.262,12.663,12.663,0,0,1,2.065-.855.084.084,0,0,1,.1.045.082.082,0,0,1-.029.105,4.961,4.961,0,0,0-1.513,1.59c.184-.1.362-.22.535-.335a6.93,6.93,0,0,1,.589-.366,3.528,3.528,0,0,1,1.038-.361.085.085,0,0,1,.093.052.083.083,0,0,1-.034.1,6.53,6.53,0,0,0-1.574,1.533c.343-.213.692-.419,1.042-.617a3.736,3.736,0,0,1,1.145-.478.084.084,0,0,1,.091.048.084.084,0,0,1-.025.1,9.3,9.3,0,0,0-1.422,1.4,11.207,11.207,0,0,1,1.89-.949.084.084,0,0,1,.1.037.084.084,0,0,1-.024.108A9.64,9.64,0,0,0,984.454-34c.1-.053.21-.1.313-.151.141-.066.286-.134.423-.21.07-.039.139-.081.208-.123a2.839,2.839,0,0,1,.535-.275,2.826,2.826,0,0,1,.824-.117.081.081,0,0,1,.084.061.082.082,0,0,1-.04.1,11.934,11.934,0,0,0-1.877,1.283,22.454,22.454,0,0,1,2.309-.833.084.084,0,0,1,.1.047.083.083,0,0,1-.031.1,7.22,7.22,0,0,0-1.424,1.183,6.93,6.93,0,0,1,1.706-.786.085.085,0,0,1,.105.056.084.084,0,0,1-.056.1,6.724,6.724,0,0,0-2.2,1.145A.081.081,0,0,1,985.382-32.395Z" transform="translate(-978.174 47.82)" fill="#f6ded3"/>
          <path id="Trazado_16751" data-name="Trazado 16751" d="M984.282-33.679a.08.08,0,0,1-.034-.007.083.083,0,0,1-.043-.11,1.922,1.922,0,0,0-.039-1.462,5.971,5.971,0,0,0-.8-1.315l-.593-.806-.009.007a.179.179,0,0,1-.077.023,8.373,8.373,0,0,1-.15,2.368,1.494,1.494,0,0,1-.185.519.622.622,0,0,1-.5.3h0a.615.615,0,0,1-.549-.447,1.4,1.4,0,0,1-.005-.686,10.386,10.386,0,0,1,.594-1.861.956.956,0,0,1,.332-.492.43.43,0,0,1,.266-.06.415.415,0,0,1,.224-.173,1.3,1.3,0,0,1,1.137.319,13.858,13.858,0,0,1,1.377,1.11,2.163,2.163,0,0,1,.579.732.463.463,0,0,1,.039.261.452.452,0,0,1-.459.3,1.714,1.714,0,0,1-1.351-.855c-.105-.154-.2-.317-.294-.476a3.97,3.97,0,0,0-.58-.825.471.471,0,0,0-.24-.14l.575.782a6.03,6.03,0,0,1,.823,1.352,2.085,2.085,0,0,1,.037,1.59A.084.084,0,0,1,984.282-33.679Zm-1.834-3.862a.263.263,0,0,0-.136.036.794.794,0,0,0-.265.411,10.343,10.343,0,0,0-.586,1.831,1.239,1.239,0,0,0,0,.6.456.456,0,0,0,.39.332h0a.458.458,0,0,0,.358-.223,1.358,1.358,0,0,0,.162-.462,8.244,8.244,0,0,0,.139-2.418.239.239,0,0,1-.053-.11Zm.454-.08a.584.584,0,0,1,.38.191,4.174,4.174,0,0,1,.606.86c.091.155.185.316.287.465a1.6,1.6,0,0,0,1.208.783c.128,0,.278-.059.3-.169a.283.283,0,0,0-.03-.163,2.017,2.017,0,0,0-.538-.673,13.642,13.642,0,0,0-1.36-1.1,1.165,1.165,0,0,0-.985-.3.3.3,0,0,0-.112.067.311.311,0,0,1,.09.079A.28.28,0,0,1,982.9-37.622Z" transform="translate(-978.058 47.786)" fill="#f6ded3"/>
        </g>
        <path id="Trazado_16752" data-name="Trazado 16752" d="M995.642-93.807c-.553-2.395-3.869-15.474-3.685-15.843a12.075,12.075,0,0,0,0-2.579c0-.369-1.29-.553-1.29-1.105v-2.026c0-.369-.552-.369-.552-.369v-.921c0-.368-.553-.552-.553-.552s-.368-5.527-.552-7.184a8.957,8.957,0,0,0-.737-2.763l-11.79-2.579c-3.5,4.237-6.263,7.737-6.447,12.9s2.026,18.79,2.026,21.186.552,11.789.552,11.789v5.711c-.921.921-.921.553-.921,1.658s2.948,4.79,2.948,4.79l.184,1.473a7.548,7.548,0,0,0-.552,2.579v1.473s.921.737,4.421.921,2.763-.736,2.579-1.473a6.942,6.942,0,0,1,.737-2.948c.184-.369-.921-1.105-.921-1.105v-4.606s9.027-6.079,9.764-7.184,4.79-4.422,5.342-6.079S996.195-91.411,995.642-93.807Zm-9.027,3.132c-.736.184-5.9,5.158-5.9,5.158v-3.5a12.414,12.414,0,0,0,.369-3.869c-.184-1.842.552-10.869.552-10.869,0,.737,4.974,11.606,4.974,11.606C985.694-91.227,987.352-90.859,986.615-90.674Z" transform="translate(-955.371 169.056)" fill="#7d6eb2"/>
        <path id="Trazado_16753" data-name="Trazado 16753" d="M987.021-164.376s0,3.685.737,3.869,2.947,1.105,2.947,1.105l-4.422,1.473-5.525-1.937s2.026-.274,2.026-1.563v-4.237Z" transform="translate(-958.264 178.741)" fill="#ffa08b"/>
        <path id="Trazado_16754" data-name="Trazado 16754" d="M987.848-162.642c-.08-.9-.08-1.734-.08-1.734l-4.237-1.289v.453A3.788,3.788,0,0,0,987.848-162.642Z" transform="translate(-959.011 178.741)" fill="#c77968"/>
        <path id="Trazado_16755" data-name="Trazado 16755" d="M976.883-52.108c-.791,0-1.363-.983-1.39-1.031a.084.084,0,0,1,.031-.115.085.085,0,0,1,.115.031c.007.012.711,1.221,1.555.885.436-.175.518-.3.605-.429a1.183,1.183,0,0,1,.684-.492l.267-.106c.782-.307,1.668-.655,1.527-1.08-.071-.213-.234-.3-.482-.43a2.828,2.828,0,0,1-1.166-1.024c-.161-.243-.381-.55-.635-.907-.9-1.266-2.142-3-2.142-3.745,0-.224-.1-.264-.129-.278-.365-.15-1.393.528-2.123,1.258a.083.083,0,0,1-.118,0,.083.083,0,0,1,0-.118c.615-.615,1.784-1.511,2.306-1.294a.413.413,0,0,1,.232.432c0,.692,1.27,2.471,2.11,3.648.256.358.476.667.639.911a2.645,2.645,0,0,0,1.1.969c.254.133.471.248.564.524.191.576-.732.938-1.625,1.289l-.266.105c-.437.175-.519.3-.606.43a1.183,1.183,0,0,1-.683.492A1,1,0,0,1,976.883-52.108Z" transform="translate(-956.295 150.537)" fill="#a2acc2"/>
        <path id="Trazado_16756" data-name="Trazado 16756" d="M976.775-62.9a.085.085,0,0,1-.063-.028.084.084,0,0,1,.006-.118,3.853,3.853,0,0,0,.75-1.069,66.77,66.77,0,0,1,4.991-5.181.084.084,0,0,1,.118,0,.083.083,0,0,1,0,.118,70.031,70.031,0,0,0-4.957,5.135,3.956,3.956,0,0,1-.787,1.119A.082.082,0,0,1,976.775-62.9Z" transform="translate(-957.167 152.775)" fill="#a2acc2"/>
        <path id="Trazado_16757" data-name="Trazado 16757" d="M982.113-53.379a.085.085,0,0,1-.064-.029.083.083,0,0,1,.009-.118l2.211-1.9a.084.084,0,0,1,.118.009.085.085,0,0,1-.009.118l-2.211,1.9A.084.084,0,0,1,982.113-53.379Z" transform="translate(-958.606 149.036)" fill="#a2acc2"/>
        <path id="Trazado_16758" data-name="Trazado 16758" d="M996.093-73.475a.083.083,0,0,1-.064-.03,27.867,27.867,0,0,0-3.109-2.821.084.084,0,0,1-.014-.118.084.084,0,0,1,.118-.014,28.037,28.037,0,0,1,3.134,2.845.084.084,0,0,1-.011.118A.082.082,0,0,1,996.093-73.475Z" transform="translate(-961.533 154.703)" fill="#a2acc2"/>
        <path id="Trazado_16759" data-name="Trazado 16759" d="M998.416-76.757a.087.087,0,0,1-.042-.011,13.058,13.058,0,0,0-5.669-1.462.084.084,0,0,1-.083-.084.084.084,0,0,1,.083-.084,13.243,13.243,0,0,1,5.753,1.485.085.085,0,0,1,.031.115A.085.085,0,0,1,998.416-76.757Z" transform="translate(-961.461 155.222)" fill="#a2acc2"/>
        <path id="Trazado_16760" data-name="Trazado 16760" d="M998.136-75.515a.086.086,0,0,1-.072-.04c-.53-.885-4.338-2.162-4.376-2.175a.084.084,0,0,1-.053-.106.084.084,0,0,1,.106-.053c.159.053,3.9,1.31,4.467,2.247a.083.083,0,0,1-.028.115A.085.085,0,0,1,998.136-75.515Z" transform="translate(-961.733 155.085)" fill="#a2acc2"/>
        <path id="Trazado_16761" data-name="Trazado 16761" d="M982.113-70.627a.086.086,0,0,1-.04-.01.085.085,0,0,1-.033-.114l1.842-3.316A.084.084,0,0,1,984-74.1a.085.085,0,0,1,.033.114l-1.842,3.316A.083.083,0,0,1,982.113-70.627Z" transform="translate(-958.606 154.066)" fill="#a2acc2"/>
        <path id="Trazado_16762" data-name="Trazado 16762" d="M973.287-79.756l-.02,0a.084.084,0,0,1-.061-.1c.012-.053,1.293-5.365,1.657-7.547a.083.083,0,0,1,.1-.069.084.084,0,0,1,.069.1c-.365,2.189-1.646,7.506-1.659,7.559A.084.084,0,0,1,973.287-79.756Z" transform="translate(-956.228 157.668)" fill="#a2acc2"/>
        <path id="Trazado_16763" data-name="Trazado 16763" d="M979.136-47.305a3.973,3.973,0,0,1-2.378-1.148.083.083,0,0,1,0-.118.083.083,0,0,1,.118,0,3.625,3.625,0,0,0,2.508,1.082,8.084,8.084,0,0,0,2.481-1.167c.719-.438.972-.584,1.09-.467a.083.083,0,0,1,0,.118.085.085,0,0,1-.107.009h0a4.415,4.415,0,0,0-.9.482,8.192,8.192,0,0,1-2.544,1.19A2.017,2.017,0,0,1,979.136-47.305Zm3.7-1.7Z" transform="translate(-957.179 147.342)" fill="#a2acc2"/>
        <path id="Trazado_16764" data-name="Trazado 16764" d="M984.741-97.516h-.007a.084.084,0,0,1-.077-.09c.213-2.845.49-7.165.385-7.5a15.56,15.56,0,0,0-3.462-1.63.084.084,0,0,1-.05-.107.084.084,0,0,1,.107-.05,14.915,14.915,0,0,1,3.531,1.678,66.058,66.058,0,0,1-.344,7.618A.084.084,0,0,1,984.741-97.516Z" transform="translate(-958.47 162.902)" fill="#a2acc2"/>
        <path id="Trazado_16765" data-name="Trazado 16765" d="M986.142-110.306h-.009a.083.083,0,0,1-.074-.092c.013-.115,1.3-11.507,1.479-15.329a.083.083,0,0,1,.087-.08.083.083,0,0,1,.08.088c-.182,3.827-1.466,15.225-1.478,15.34A.084.084,0,0,1,986.142-110.306Z" transform="translate(-959.692 167.999)" fill="#a2acc2"/>
        <path id="Trazado_16766" data-name="Trazado 16766" d="M986.452-112.288a.087.087,0,0,1-.052-.018.084.084,0,0,1-.014-.118l.869-1.107,1.1-11.949a.084.084,0,0,1,.091-.076.084.084,0,0,1,.076.091l-1.105,11.974a.079.079,0,0,1-.018.044l-.884,1.126A.082.082,0,0,1,986.452-112.288Z" transform="translate(-959.776 167.931)" fill="#a2acc2"/>
        <path id="Trazado_16767" data-name="Trazado 16767" d="M991.192-109.764a.082.082,0,0,1-.066-.032.084.084,0,0,1,.015-.118c1.643-1.278,4.036-2.754,4.06-2.769a.084.084,0,0,1,.115.028.083.083,0,0,1-.028.115c-.023.015-2.41,1.487-4.045,2.758A.086.086,0,0,1,991.192-109.764Z" transform="translate(-961.053 164.465)" fill="#a2acc2"/>
        <path id="Trazado_16768" data-name="Trazado 16768" d="M994.219-108.3a.08.08,0,0,1-.05-.017.083.083,0,0,1-.017-.117,20.1,20.1,0,0,1,2.409-2.226.085.085,0,0,1,.118.013.084.084,0,0,1-.013.118,20.423,20.423,0,0,0-2.381,2.2A.083.083,0,0,1,994.219-108.3Z" transform="translate(-961.869 163.921)" fill="#a2acc2"/>
        <path id="Trazado_16769" data-name="Trazado 16769" d="M987.157-105.117a.084.084,0,0,1-.077-.05.084.084,0,0,1,.044-.11c.013-.005,1.3-.558,2.39-1.1a.084.084,0,0,1,.112.037.084.084,0,0,1-.037.113c-1.1.547-2.387,1.1-2.4,1.107A.092.092,0,0,1,987.157-105.117Z" transform="translate(-959.966 162.766)" fill="#a2acc2"/>
        <path id="Trazado_16770" data-name="Trazado 16770" d="M991.949-119.494a.1.1,0,0,1-.031-.006.084.084,0,0,1-.047-.109,41.309,41.309,0,0,0,.547-5.867.084.084,0,0,1,.071-.08.085.085,0,0,1,.091.054,29.12,29.12,0,0,1,1.11,5.924.083.083,0,0,1-.083.084.083.083,0,0,1-.084-.084,32.06,32.06,0,0,0-.957-5.436,33.581,33.581,0,0,1-.54,5.468A.084.084,0,0,1,991.949-119.494Z" transform="translate(-961.257 167.931)" fill="#a2acc2"/>
        <path id="Trazado_16771" data-name="Trazado 16771" d="M979.116-120.891a.082.082,0,0,1-.029-.005.083.083,0,0,1-.05-.107c.017-.047,1.685-4.639,2.313-6.009a29.612,29.612,0,0,0-3.444,4.959.084.084,0,0,1-.106.053.084.084,0,0,1-.053-.106c.288-.864,3.357-5.154,3.732-5.216a.1.1,0,0,1,.1.038c.04.052.028.123-.052.294-.606,1.3-2.313,6-2.33,6.045A.083.083,0,0,1,979.116-120.891Z" transform="translate(-957.451 168.408)" fill="#a2acc2"/>
        <path id="Trazado_16772" data-name="Trazado 16772" d="M993.973-85.751a.087.087,0,0,1-.037-.009c-1.845-.923-6.649-9.79-6.853-10.168a.084.084,0,0,1,.034-.113.084.084,0,0,1,.113.034c.05.092,4.982,9.2,6.78,10.1a.084.084,0,0,1,.037.112A.084.084,0,0,1,993.973-85.751Z" transform="translate(-959.966 159.979)" fill="#a2acc2"/>
        <path id="Trazado_16773" data-name="Trazado 16773" d="M974.084-136.846s6.263,4.237,11.974,2.948l1.842-1.29a44.28,44.28,0,0,1,0-4.974c.184-.736,1.658-5.342,1.658-5.342a16.158,16.158,0,0,0-.369-3.132l2.211-.553s-.185-5.711-1.106-6.632-5.71-2.026-5.71-2.026-3.316,2.4-8.474,0c0,0-4.329.645-4.882,1.382a45.014,45.014,0,0,0-2.763,6.447c-.552,1.658-.921,1.658-1.657,3.869a23.312,23.312,0,0,1-2.4,5.9c-1.289,2.026-1.657.921-1.657,2.763a21.979,21.979,0,0,1-1.29,5.342s2.948.921,3.685,2.211c0,0,2.579-1.29,3.132-2.763a6.935,6.935,0,0,0,.369-2.948,3.143,3.143,0,0,0,1.105-2.026c0-1.105,3.316-7.553,3.316-7.553a21.846,21.846,0,0,1,.921,4.238c0,1.289-.737,2.763-.553,3.316A1.66,1.66,0,0,0,974.084-136.846Z" transform="translate(-953.064 176.634)" fill="#12263f"/>
        <path id="Trazado_16774" data-name="Trazado 16774" d="M987.85-151.15a5.271,5.271,0,0,0-4.688-2.859,5.276,5.276,0,0,0-4.94,3.423,5.275,5.275,0,0,0-4.939-3.423,5.317,5.317,0,0,0-.79.059c-.707,1.548-1.612,3.825-1.992,4.966-.505,1.519-.857,1.647-1.479,3.355a5.265,5.265,0,0,0,4.262,2.168,5.276,5.276,0,0,0,1.573-.24c.156-.308.251-.493.251-.493s.043.137.11.365a5.291,5.291,0,0,0,3.005-3.055,5.276,5.276,0,0,0,4.94,3.423,5.271,5.271,0,0,0,4.688-2.859,5.282,5.282,0,0,0,3.469,2.715l.276-.865a16.163,16.163,0,0,0-.369-3.132l2.211-.553a30.657,30.657,0,0,0-.714-5.849c-.061,0-.123-.005-.185-.005A5.273,5.273,0,0,0,987.85-151.15Z" transform="translate(-955.101 175.6)" fill="#167377"/>
        <path id="Trazado_16775" data-name="Trazado 16775" d="M988.885-134.517a.042.042,0,0,1-.029-.011.042.042,0,0,1,0-.059c1.521-1.612,2.995-3.3,4.382-5.031a.042.042,0,0,1,.059-.007.041.041,0,0,1,.006.058c-1.389,1.728-2.865,3.422-4.387,5.036A.043.043,0,0,1,988.885-134.517Z" transform="translate(-960.443 171.725)" fill="#282233"/>
        <path id="Trazado_16776" data-name="Trazado 16776" d="M988.3-139.109a.041.041,0,0,1-.031-.015.042.042,0,0,1,0-.059c1.614-1.385,3.442-2.955,4.364-5.044a.042.042,0,0,1,.055-.022.042.042,0,0,1,.021.056c-.928,2.107-2.765,3.683-4.385,5.074A.041.041,0,0,1,988.3-139.109Z" transform="translate(-960.285 172.97)" fill="#282233"/>
        <path id="Trazado_16777" data-name="Trazado 16777" d="M997.186-132.478a.043.043,0,0,1-.037-.02.043.043,0,0,1,.015-.058,2.358,2.358,0,0,0,.414-.316,36.258,36.258,0,0,0-.2-4.757.04.04,0,0,1,0-.016c.016-.046,1.476-4.612,1.658-5.34a16.414,16.414,0,0,0-.274-3.448l-.395-2.321a.041.041,0,0,1,.034-.048.041.041,0,0,1,.048.034l.4,2.321a16.018,16.018,0,0,1,.273,3.482c-.179.715-1.587,5.121-1.656,5.337a33.44,33.44,0,0,1,.172,4.815,2.471,2.471,0,0,1-.431.33A.043.043,0,0,1,997.186-132.478Z" transform="translate(-962.68 174.197)" fill="#282233"/>
        <path id="Trazado_16778" data-name="Trazado 16778" d="M971.17-131.878h-.007a.042.042,0,0,1-.034-.048,59.065,59.065,0,0,0,.795-11.663.042.042,0,0,1,.04-.043.041.041,0,0,1,.043.04,59.175,59.175,0,0,1-.8,11.68A.042.042,0,0,1,971.17-131.878Z" transform="translate(-955.668 172.803)" fill="#282233"/>
        <path id="Trazado_16779" data-name="Trazado 16779" d="M969.709-127a.554.554,0,0,1-.255-.06,1.31,1.31,0,0,1-.5-.576,32.622,32.622,0,0,1-2.042-4.434.041.041,0,0,1,.025-.053.042.042,0,0,1,.054.025,32.575,32.575,0,0,0,2.036,4.422,1.246,1.246,0,0,0,.46.543.491.491,0,0,0,.393.018.3.3,0,0,0,.179-.179.043.043,0,0,1,.053-.027.043.043,0,0,1,.026.053.382.382,0,0,1-.227.23A.558.558,0,0,1,969.709-127Z" transform="translate(-954.532 169.702)" fill="#282233"/>
        <path id="Trazado_16780" data-name="Trazado 16780" d="M977.143-141.213a.041.041,0,0,1-.039-.028c-.268-.764-.522-1.544-.755-2.317a.042.042,0,0,1,.029-.052.041.041,0,0,1,.052.028c.232.772.485,1.551.753,2.313a.042.042,0,0,1-.026.053Z" transform="translate(-957.075 172.797)" fill="#282233"/>
        <path id="Trazado_16781" data-name="Trazado 16781" d="M1002.594-131.866a.043.043,0,0,1-.019,0c-.026-.013-2.6-1.318-3.336-3.154a.042.042,0,0,1,.023-.055.041.041,0,0,1,.054.023c.723,1.807,3.27,3.1,3.3,3.11a.042.042,0,0,1,.019.056A.042.042,0,0,1,1002.594-131.866Z" transform="translate(-963.244 170.499)" fill="#282233"/>
        <path id="Trazado_16782" data-name="Trazado 16782" d="M1003.563-128.923a.039.039,0,0,1-.018,0c-.031-.015-3.141-1.464-4.767-1.286a.041.041,0,0,1-.046-.037.041.041,0,0,1,.037-.046c1.65-.187,4.78,1.278,4.812,1.293a.043.043,0,0,1,.02.056A.043.043,0,0,1,1003.563-128.923Z" transform="translate(-963.107 169.213)" fill="#282233"/>
        <g id="Grupo_12485" data-name="Grupo 12485" transform="translate(30.155 26.881)">
          <path id="Rectángulo_2893" data-name="Rectángulo 2893" d="M.492,0H21.357a.492.492,0,0,1,.492.492V15.833a0,0,0,0,1,0,0H0a0,0,0,0,1,0,0V.492A.492.492,0,0,1,.492,0Z" transform="translate(7.283)" fill="#8c8888"/>
          <path id="Rectángulo_2894" data-name="Rectángulo 2894" d="M.126,0H29.006a.127.127,0,0,1,.127.127V.982a.127.127,0,0,1-.127.127H.464A.464.464,0,0,1,0,.644V.126A.126.126,0,0,1,.126,0Z" transform="translate(0 15.2)" fill="#8c8888"/>
          <path id="Trazado_16783" data-name="Trazado 16783" d="M1015.9-136.32a.614.614,0,0,1-.245-.559,1.814,1.814,0,0,1,.185-.609l.5-1.146c.17-.389.4-.826.814-.913a1.238,1.238,0,0,1,.844.228,2.174,2.174,0,0,1,.871.8.935.935,0,0,1-.12,1.106,1.617,1.617,0,0,1-.565.276C1017.621-136.936,1016.513-135.931,1015.9-136.32Z" transform="translate(-997.822 144.825)" fill="#e5dbce"/>
        </g>
        <path id="Trazado_16784" data-name="Trazado 16784" d="M1020.582-125.819s.924-2.511,1.294-2.344,0,1.172,0,1.172a11.994,11.994,0,0,0,.883-1.507c0-.167.41-1.34.595-1.34s.37.168.37.67c0,0,.185-1,.554-1s.369.837.369.837v1.842c0,.335.555-1.507.555-1.507s.185-1,.37-1,.37.5.37,1.507a12.726,12.726,0,0,1-.185,2.009l-.554,1.34Z" transform="translate(-968.997 169.175)" fill="#ffa08b"/>
        <g id="Grupo_12487" data-name="Grupo 12487" transform="translate(21.32 0.417)">
          <path id="Trazado_16785" data-name="Trazado 16785" d="M991.355-177.283a9.671,9.671,0,0,1-.135,1.472q-.3,2.1-.671,4.184a5.794,5.794,0,0,1-1.245,2.149,6.785,6.785,0,0,1-1.17,1.023,4.246,4.246,0,0,1-.818.657,1.832,1.832,0,0,1-1.543-.1c-.483-.226-.906-.561-1.378-.808-.348-.183-.72-.316-1.062-.508a3.544,3.544,0,0,1-1.453-1.552,6.967,6.967,0,0,1-.327-.883,17.29,17.29,0,0,1-1.222-6.1c.157-2.737,2.432-4.3,5.008-4.449a7,7,0,0,1,3.731.77A4.843,4.843,0,0,1,991.355-177.283Z" transform="translate(-979.465 182.783)" fill="#ffa08b"/>
          <path id="Trazado_16786" data-name="Trazado 16786" d="M990.03-169.084a.083.083,0,0,1-.077-.064.082.082,0,0,1,.062-.1c.254-.057.512-.243.489-.475a.672.672,0,0,0-.067-.2l-.01-.023a3.6,3.6,0,0,1-.142-2.475.082.082,0,0,1,.1-.054.082.082,0,0,1,.054.1,3.432,3.432,0,0,0,.135,2.361l.01.022a.8.8,0,0,1,.08.253c.033.329-.285.576-.616.649Z" transform="translate(-982.061 180.16)" fill="#c77968"/>
          <path id="Trazado_16787" data-name="Trazado 16787" d="M988.831-168.037h-.005a.311.311,0,0,1-.221-.113.315.315,0,0,1-.076-.235.316.316,0,0,1,.126-.213.314.314,0,0,1,.24-.061.081.081,0,0,1,.067.094.082.082,0,0,1-.095.066.152.152,0,0,0-.113.031.151.151,0,0,0-.062.1.15.15,0,0,0,.038.112.154.154,0,0,0,.1.055.4.4,0,0,0,.112-.018l.338-.086a.081.081,0,0,1,.1.058.081.081,0,0,1-.058.1l-.338.086A.565.565,0,0,1,988.831-168.037Z" transform="translate(-981.677 179.132)" fill="#c77968"/>
          <path id="Trazado_16788" data-name="Trazado 16788" d="M986.656-171.493a.57.57,0,0,0-.551-.588.57.57,0,0,0-.587.551.569.569,0,0,0,.55.588A.569.569,0,0,0,986.656-171.493Z" transform="translate(-980.866 180.054)" fill="#333"/>
          <path id="Trazado_16789" data-name="Trazado 16789" d="M993.224-171.278a.57.57,0,0,0-.551-.588.57.57,0,0,0-.587.551.569.569,0,0,0,.55.588A.57.57,0,0,0,993.224-171.278Z" transform="translate(-982.636 179.996)" fill="#333"/>
          <path id="Trazado_16790" data-name="Trazado 16790" d="M986.692-173.032a.121.121,0,0,1-.064-.02,2.017,2.017,0,0,0-1.987-.065.122.122,0,0,1-.167-.045.123.123,0,0,1,.046-.167,2.233,2.233,0,0,1,2.243.074.122.122,0,0,1,.035.169A.121.121,0,0,1,986.692-173.032Z" transform="translate(-980.581 180.464)" fill="#4e3933"/>
          <path id="Trazado_16791" data-name="Trazado 16791" d="M993.589-172.583a.117.117,0,0,1-.063-.02,2.016,2.016,0,0,0-1.988-.065.122.122,0,0,1-.167-.045.122.122,0,0,1,.045-.167,2.232,2.232,0,0,1,2.243.074.121.121,0,0,1,.034.169A.122.122,0,0,1,993.589-172.583Z" transform="translate(-982.44 180.343)" fill="#4e3933"/>
          <path id="Trazado_16792" data-name="Trazado 16792" d="M986.422-166.385a.039.039,0,0,1-.037-.026.24.24,0,0,1,.1-.283.041.041,0,0,1,.056.015.04.04,0,0,1-.014.056.158.158,0,0,0-.066.184.042.042,0,0,1-.025.053A.035.035,0,0,1,986.422-166.385Z" transform="translate(-981.096 178.603)" fill="#c77968"/>
          <path id="Trazado_16793" data-name="Trazado 16793" d="M986.633-171.484a1.964,1.964,0,0,0-.5-.356,1.739,1.739,0,0,0-.272-.1,1.563,1.563,0,0,0-.282-.045,1.448,1.448,0,0,0-.568.1c-.05.016-.1.035-.16.048a.352.352,0,0,1-.1.009.23.23,0,0,1-.1-.034.527.527,0,0,1-.207-.266.674.674,0,0,0,.256.156.122.122,0,0,0,.1-.017l.132-.072a1.435,1.435,0,0,1,.31-.13,1.125,1.125,0,0,1,.347-.039,1.3,1.3,0,0,1,.34.069,1.261,1.261,0,0,1,.3.16A1.1,1.1,0,0,1,986.633-171.484Z" transform="translate(-980.576 180.095)" fill="#333"/>
          <path id="Trazado_16794" data-name="Trazado 16794" d="M991.606-171.316a1.111,1.111,0,0,1,.432-.495,1.247,1.247,0,0,1,.311-.141,1.321,1.321,0,0,1,.343-.048,1.123,1.123,0,0,1,.344.061,1.412,1.412,0,0,1,.3.148c.045.029.088.057.128.08s.053.032.1.023a.653.653,0,0,0,.264-.14.523.523,0,0,1-.223.253.229.229,0,0,1-.1.028.328.328,0,0,1-.1-.015,1.634,1.634,0,0,1-.156-.058,1.46,1.46,0,0,0-.561-.136,1.507,1.507,0,0,0-.284.029,1.607,1.607,0,0,0-.278.086A1.976,1.976,0,0,0,991.606-171.316Z" transform="translate(-982.507 180.032)" fill="#333"/>
          <path id="Trazado_16795" data-name="Trazado 16795" d="M987.906-165.475a1.888,1.888,0,0,0,.911.276,1.643,1.643,0,0,0,.987-.285,1.962,1.962,0,0,0,.506-.887.315.315,0,0,0,.034-.151.265.265,0,0,0-.065-.13.931.931,0,0,0-.888-.322,1.149,1.149,0,0,1-.327.054,1.271,1.271,0,0,1-.259-.077,1.259,1.259,0,0,0-.771.064,4.588,4.588,0,0,1-.749.242c-.428.07-.212.418-.038.638A2.435,2.435,0,0,0,987.906-165.475Z" transform="translate(-981.275 178.693)" fill="#ef7575"/>
          <path id="Trazado_16796" data-name="Trazado 16796" d="M990.258-166.166a2.136,2.136,0,0,1-1.508.627,3.317,3.317,0,0,1-1.443-.667c-.112-.081-.148-.24.022-.248C987.477-166.463,990.722-166.589,990.258-166.166Z" transform="translate(-981.323 178.544)" fill="#fff"/>
          <path id="Trazado_16797" data-name="Trazado 16797" d="M987.586-179.681a18.77,18.77,0,0,1,3.766,4.207,6.379,6.379,0,0,0-.211-4.1,4.029,4.029,0,0,0-.447-1.062,3.52,3.52,0,0,0-.772-.794,6.2,6.2,0,0,0-5.44-1.375,8.042,8.042,0,0,0-2.224,1.164,7.014,7.014,0,0,0-1.476,1.25,4.636,4.636,0,0,0-1,3.042,6.875,6.875,0,0,0,.886,3.118c.07.13.187.279.331.243.032-.008.446-.848.525-.947.166-.208.348-.4.533-.592a11.062,11.062,0,0,1,1.769-1.456A22.86,22.86,0,0,0,987.586-179.681Z" transform="translate(-979.32 182.995)" fill="#fed190"/>
          <g id="Grupo_12486" data-name="Grupo 12486" transform="translate(0 8.315)">
            <path id="Trazado_16798" data-name="Trazado 16798" d="M980.157-171.606a.914.914,0,0,0-.936.464.93.93,0,0,0,.047.806,1.852,1.852,0,0,0,.56.611,1.064,1.064,0,0,0,.931.263.829.829,0,0,0,.5-.773A1.249,1.249,0,0,0,980.157-171.606Z" transform="translate(-979.15 171.613)" fill="#ffa08b"/>
            <path id="Trazado_16799" data-name="Trazado 16799" d="M980.759-169.772a.041.041,0,0,1-.025-.01.343.343,0,0,1-.111-.332.341.341,0,0,1,.245-.25.1.1,0,0,0,.029-.01s0,0,0-.019a.509.509,0,0,0-.116-.263,1.133,1.133,0,0,0-.423-.386.546.546,0,0,0-.532.018.217.217,0,0,0-.107.177.041.041,0,0,1-.037.044.043.043,0,0,1-.044-.038.289.289,0,0,1,.141-.249.628.628,0,0,1,.613-.025,1.208,1.208,0,0,1,.454.412.579.579,0,0,1,.132.307.112.112,0,0,1-.018.073.119.119,0,0,1-.069.037.259.259,0,0,0-.191.191.256.256,0,0,0,.084.251.041.041,0,0,1,.005.058A.042.042,0,0,1,980.759-169.772Z" transform="translate(-979.282 171.497)" fill="#c77968"/>
          </g>
        </g>
      </g>
    </g>
  </g>
</svg>
