<svg xmlns="http://www.w3.org/2000/svg" width="95.901" height="174.176" viewBox="0 0 95.901 174.176">
  <g id="Grupo_57062" data-name="Grupo 57062" transform="translate(-375.013 -96.379)">
    <g id="Grupo_54165" data-name="Grupo 54165" transform="translate(377.862 156.732)">
      <g id="Grupo_54160" data-name="Grupo 54160" transform="translate(0 47.935)">
        <g id="Grupo_54154" data-name="Grupo 54154" transform="translate(11.387 6.512)">
          <g id="Grupo_54153" data-name="Grupo 54153">
            <path id="Trazado_100954" data-name="Trazado 100954" d="M389.876,218.585l.011,3.936,4.1-2.35-.014-3.937Z" transform="translate(-389.876 -216.233)" fill="#2b2730"/>
          </g>
        </g>
        <g id="Grupo_54159" data-name="Grupo 54159" style="isolation: isolate">
          <g id="Grupo_54155" data-name="Grupo 54155" transform="translate(19.561 2.347)">
            <path id="Trazado_100955" data-name="Trazado 100955" d="M398.41,218.4l.011,1.174,11.38-6.517-.011-1.174Z" transform="translate(-398.41 -211.885)" fill="#2b2730"/>
          </g>
          <g id="Grupo_54156" data-name="Grupo 54156" transform="translate(4.076 8.864)">
            <path id="Trazado_100956" data-name="Trazado 100956" d="M382.243,227.55l.011,1.171,15.485-8.858-.011-1.174Z" transform="translate(-382.243 -218.689)" fill="#2b2730"/>
          </g>
          <g id="Grupo_54157" data-name="Grupo 54157">
            <path id="Trazado_100957" data-name="Trazado 100957" d="M377.988,224.815l4.076,2.345,11.384-6.515,4.1-2.347,11.38-6.517-4.072-2.347-11.384,6.512-4.1,2.352Z" transform="translate(-377.988 -209.435)" fill="#383340"/>
          </g>
          <g id="Grupo_54158" data-name="Grupo 54158" transform="translate(0 15.38)">
            <path id="Trazado_100958" data-name="Trazado 100958" d="M377.988,225.492l.011,1.174,4.076,2.341-.011-1.171Z" transform="translate(-377.988 -225.492)" fill="#2b2e31"/>
          </g>
        </g>
      </g>
      <g id="Grupo_54164" data-name="Grupo 54164" transform="translate(12.491)">
        <g id="Grupo_54163" data-name="Grupo 54163" style="isolation: isolate">
          <g id="Grupo_54161" data-name="Grupo 54161">
            <path id="Trazado_100959" data-name="Trazado 100959" d="M394.015,159.389l.043,59.02-2.987-1.724-.043-57.3Z" transform="translate(-391.028 -159.389)" fill="#2b2730"/>
          </g>
          <g id="Grupo_54162" data-name="Grupo 54162" transform="translate(2.987)">
            <path id="Trazado_100960" data-name="Trazado 100960" d="M396.7,159.389l.039,57.558-2.554,1.461-.043-59.02Z" transform="translate(-394.147 -159.389)" fill="#2b2730"/>
          </g>
        </g>
      </g>
    </g>
    <g id="Grupo_54178" data-name="Grupo 54178" transform="translate(432.841 189.161)">
      <g id="Grupo_54173" data-name="Grupo 54173" transform="translate(0 47.936)">
        <g id="Grupo_54167" data-name="Grupo 54167" transform="translate(11.384 6.51)">
          <g id="Grupo_54166" data-name="Grupo 54166">
            <path id="Trazado_100961" data-name="Trazado 100961" d="M447.272,252.44l.014,3.936,4.1-2.35-.014-3.938Z" transform="translate(-447.272 -250.088)" fill="#2b2730"/>
          </g>
        </g>
        <g id="Grupo_54172" data-name="Grupo 54172" style="isolation: isolate">
          <g id="Grupo_54168" data-name="Grupo 54168" transform="translate(19.557 2.345)">
            <path id="Trazado_100962" data-name="Trazado 100962" d="M455.805,252.257l.014,1.174,11.377-6.515-.011-1.176Z" transform="translate(-455.805 -245.74)" fill="#2b2730"/>
          </g>
          <g id="Grupo_54169" data-name="Grupo 54169" transform="translate(4.076 8.862)">
            <path id="Trazado_100963" data-name="Trazado 100963" d="M439.643,261.4l.01,1.174,15.485-8.86-.014-1.174Z" transform="translate(-439.643 -252.544)" fill="#2b2730"/>
          </g>
          <g id="Grupo_54170" data-name="Grupo 54170">
            <path id="Trazado_100964" data-name="Trazado 100964" d="M435.387,258.67l4.076,2.343,11.384-6.515,4.1-2.345,11.38-6.517-4.073-2.345-11.38,6.51-4.1,2.352Z" transform="translate(-435.387 -243.292)" fill="#383340"/>
          </g>
          <g id="Grupo_54171" data-name="Grupo 54171" transform="translate(0 15.378)">
            <path id="Trazado_100965" data-name="Trazado 100965" d="M435.387,259.347l.011,1.174,4.076,2.343-.01-1.174Z" transform="translate(-435.387 -259.347)" fill="#2b2e31"/>
          </g>
        </g>
      </g>
      <g id="Grupo_54177" data-name="Grupo 54177" transform="translate(12.491 0)">
        <g id="Grupo_54176" data-name="Grupo 54176" style="isolation: isolate">
          <g id="Grupo_54174" data-name="Grupo 54174">
            <path id="Trazado_100966" data-name="Trazado 100966" d="M451.411,193.246l.046,59.02-2.99-1.724-.039-57.3Z" transform="translate(-448.428 -193.246)" fill="#2b2730"/>
          </g>
          <g id="Grupo_54175" data-name="Grupo 54175" transform="translate(2.983)">
            <path id="Trazado_100967" data-name="Trazado 100967" d="M454.1,193.246l.039,57.557-2.554,1.463-.046-59.02Z" transform="translate(-451.543 -193.246)" fill="#2b2730"/>
          </g>
        </g>
      </g>
    </g>
    <g id="Grupo_54187" data-name="Grupo 54187" transform="translate(375.013 96.379)">
      <g id="Grupo_54179" data-name="Grupo 54179" transform="translate(5.83 6.697)">
        <path id="Trazado_100968" data-name="Trazado 100968" d="M381.1,103.371v60.308l85.526,50.155V153.528Z" transform="translate(-381.1 -103.371)" fill="#8ec8c8"/>
      </g>
      <g id="Grupo_54186" data-name="Grupo 54186">
        <g id="Grupo_54185" data-name="Grupo 54185" style="isolation: isolate">
          <g id="Grupo_54180" data-name="Grupo 54180" transform="translate(2.753 4.739)">
            <path id="Trazado_100969" data-name="Trazado 100969" d="M378.061,103.967l4.545-2.64-.177,61.514-4.541,2.638Z" transform="translate(-377.887 -101.327)" fill="#b8bcc6"/>
          </g>
          <g id="Grupo_54181" data-name="Grupo 54181" transform="translate(2.753 66.253)">
            <path id="Trazado_100970" data-name="Trazado 100970" d="M377.887,168.187l4.541-2.638,85.681,49.463-4.545,2.64Z" transform="translate(-377.887 -165.548)" fill="#f2eee5"/>
          </g>
          <g id="Grupo_54182" data-name="Grupo 54182" transform="translate(91.168 52.635)">
            <path id="Trazado_100971" data-name="Trazado 100971" d="M470.383,153.974l4.545-2.642-.192,67.822-4.541,2.638Z" transform="translate(-470.194 -151.332)" fill="#b8bcc6"/>
          </g>
          <g id="Grupo_54183" data-name="Grupo 54183" transform="translate(0.192)">
            <path id="Trazado_100972" data-name="Trazado 100972" d="M375.213,99.021l4.545-2.642,91.164,52.635-4.545,2.642Z" transform="translate(-375.213 -96.379)" fill="#f2eee5"/>
          </g>
          <g id="Grupo_54184" data-name="Grupo 54184" transform="translate(0 2.642)">
            <path id="Trazado_100973" data-name="Trazado 100973" d="M375.2,99.137l91.165,52.636-.189,67.817-91.168-52.633Zm88.238,115.714.173-61.509-85.676-49.467-.173,61.512,85.676,49.464Z" transform="translate(-375.013 -99.137)" fill="#d4d0c8"/>
          </g>
        </g>
      </g>
    </g>
    <g id="Grupo_54188" data-name="Grupo 54188" transform="translate(402.645 132.184)">
      <path id="Trazado_100974" data-name="Trazado 100974" d="M422.142,144.686v1.343l.645.372,1.554-3.817-.012.02c-.085.139-.181.294-.386.175a1.107,1.107,0,0,1-.386-.619c-.074-.205-.135-.378-.243-.441s-.17.04-.242.158c-.084.139-.18.294-.386.175a1.109,1.109,0,0,1-.386-.621c-.072-.2-.134-.376-.242-.439s-.17.04-.241.158c-.086.14-.181.295-.387.176a1.109,1.109,0,0,1-.385-.619c-.073-.2-.135-.378-.243-.441s-.17.04-.241.158c-.085.139-.181.3-.386.176a.992.992,0,0,1-.361-.551l1.527,5.512.606.35v-1.345c-.241-.164-.422-.359-.422-.47,0-.128.242-.093.541.08s.542.416.542.544S422.4,144.821,422.142,144.686Z" transform="translate(-404.534 -134.025)" fill="#fff"/>
      <path id="Trazado_100975" data-name="Trazado 100975" d="M425.873,140.938a8.337,8.337,0,0,0-3.869-6.36l-.013-.009-.014-.008c-2.116-1.221-3.7-.434-3.869,1.894-.085,1.141-.1,2.841,1.591,6.114a6.029,6.029,0,0,1,.484,2.114l.909.525-1.679-6.064a.053.053,0,0,1,.006-.05c.024-.026.077.018.118.055l.011.011a1.4,1.4,0,0,1,.309.562c.073.2.134.375.242.438s.17-.039.241-.157c.084-.139.18-.3.386-.177a1.106,1.106,0,0,1,.386.622c.073.2.135.375.242.438s.17-.039.241-.156c.085-.14.18-.3.387-.178a1.107,1.107,0,0,1,.386.623c.073.2.135.375.242.437s.17-.038.241-.155c.085-.141.18-.3.387-.178a1.109,1.109,0,0,1,.387.623c.073.2.135.375.242.437s.158-.021.242-.157c.068-.112.166-.235.318-.2a.058.058,0,0,1,.017,0,.167.167,0,0,1,.118.083.073.073,0,0,1,0,.057l-.024.051-1.657,4.071.911.526c.048-.546.163-1.306.485-1.556A4.492,4.492,0,0,0,425.873,140.938Z" transform="translate(-404.46 -133.77)" fill="#fff"/>
      <path id="Trazado_100976" data-name="Trazado 100976" d="M424.088,149.266a.825.825,0,0,0-.129-.411v-.394a.268.268,0,0,0,.129-.26.825.825,0,0,0-.129-.411v-.383l-3.773-2.179v.346a.252.252,0,0,0-.171.276.855.855,0,0,0,.171.471v.318a.252.252,0,0,0-.171.275.857.857,0,0,0,.171.472v.318a.252.252,0,0,0-.171.275.86.86,0,0,0,.171.472v.232l0,0a.634.634,0,0,0,.16.272l1.287,1.572a1.288,1.288,0,0,0,.873.5l1.287-.085c.106-.008.157-.04.16-.087h0v-.269a.27.27,0,0,0,.129-.261.82.82,0,0,0-.129-.41v-.394A.27.27,0,0,0,424.088,149.266Z" transform="translate(-404.542 -134.244)" fill="#fff"/>
      <path id="Trazado_100977" data-name="Trazado 100977" d="M414.683,153.6l-.765.12a7.747,7.747,0,0,1,.3,2.057c0,2.919-2.049,4.1-4.577,2.643a10.118,10.118,0,0,1-4.577-7.928c0-2.919,2.05-4.1,4.577-2.642A9.38,9.38,0,0,1,412.9,151.3l.783-.123.032-.43a11.808,11.808,0,0,0-4.069-4.292c-3.189-1.841-5.783-.343-5.783,3.339a12.8,12.8,0,0,0,5.783,10.015c3.189,1.841,5.782.344,5.782-3.338a9.686,9.686,0,0,0-.348-2.472Z" transform="translate(-403.861 -134.262)" fill="#fff"/>
      <path id="Trazado_100978" data-name="Trazado 100978" d="M412.174,153.471a4.564,4.564,0,0,1,.215,1.313c0,1.691-1.187,2.375-2.65,1.531a5.858,5.858,0,0,1-2.651-4.591c0-1.691,1.187-2.375,2.651-1.531a5.476,5.476,0,0,1,1.93,2.087l.858-.137a7.673,7.673,0,0,0-2.788-3.11c-2.016-1.164-3.656-.217-3.656,2.11a8.09,8.09,0,0,0,3.656,6.331c2.015,1.164,3.655.217,3.655-2.11a6.417,6.417,0,0,0-.361-2.024Z" transform="translate(-403.955 -134.383)" fill="#fff"/>
      <path id="Trazado_100979" data-name="Trazado 100979" d="M410.56,153.837c-.022.437-.343.61-.738.382a1.64,1.64,0,0,1-.742-1.285c0-.472.332-.665.742-.428a1.14,1.14,0,0,1,.206.159l.944-.151a3.487,3.487,0,0,0-1.15-1.168c-.964-.557-1.747-.1-1.747,1.009a3.864,3.864,0,0,0,1.747,3.025c.963.557,1.746.1,1.746-1.009a2.876,2.876,0,0,0-.088-.673Z" transform="translate(-404.039 -134.492)" fill="#fff"/>
      <path id="Trazado_100980" data-name="Trazado 100980" d="M415.349,154l1.186-.185-1.024-1,.4-.061c.127-.02.166-.193.084-.389s-.25-.334-.378-.315l-.392.062.114-1.154-1.185.186-.083,1.153-.233.037.064-.655-.66.1-.048.655-3.371.539s-.193.019-.059.36c.124.313.335.3.335.3l3.415-.517.557.562.661-.1-.573-.558.191-.029Z" transform="translate(-404.108 -134.485)" fill="#fff"/>
      <path id="Trazado_100981" data-name="Trazado 100981" d="M424.38,173.664l-.246.292-1.2,1.272,4.545,6.128.467-.509.2-1.983.146-.182Z" transform="translate(-404.665 -135.443)" fill="#fff"/>
      <path id="Trazado_100982" data-name="Trazado 100982" d="M421.06,176.19c0,.047-.033.066-.074.043l-.016-.01a.165.165,0,0,1-.075-.128h0c0-.048.034-.067.075-.043l.016.01a.164.164,0,0,1,.074.128Z" transform="translate(-404.579 -135.543)" fill="#fff"/>
      <path id="Trazado_100983" data-name="Trazado 100983" d="M423.983,176.384a9.566,9.566,0,0,1-2.72-.98l-.267.265c.71,1.744-.347,1.877-.528,1.887s-.394-.647-.394-.647a11.624,11.624,0,0,1-.685-2.685c.089-.586,1.359-1.271,1.359-1.271a31.652,31.652,0,0,1,3.256.984Z" transform="translate(-404.516 -135.413)" fill="#fff"/>
      <path id="Trazado_100984" data-name="Trazado 100984" d="M419.461,179.58c-.2.213-.622.027-.941-.416h0c-.319-.442-.416-.975-.215-1.19l.655-.7c.2-.215.621-.029.941.415h0c.319.443.415.976.215,1.19Z" transform="translate(-404.466 -135.591)" fill="#fff"/>
      <path id="Trazado_100985" data-name="Trazado 100985" d="M420.7,181.248c-.229.245-.674.083-.992-.359h0c-.32-.443-.392-1-.163-1.245l.751-.8c.23-.244.674-.083.993.36h0c.319.443.392,1,.163,1.245Z" transform="translate(-404.517 -135.656)" fill="#fff"/>
      <path id="Trazado_100986" data-name="Trazado 100986" d="M421.939,182.923c-.208.221-.635.042-.954-.4h0c-.319-.442-.409-.982-.2-1.2l.68-.723c.208-.221.635-.042.954.4h0c.319.443.409.983.2,1.2Z" transform="translate(-404.57 -135.731)" fill="#fff"/>
      <path id="Trazado_100987" data-name="Trazado 100987" d="M423.06,184.514c-.172.183-.552,0-.847-.411h0c-.3-.41-.4-.892-.223-1.076l.563-.6c.171-.184.551,0,.847.41h0c.3.411.395.892.222,1.075Z" transform="translate(-404.622 -135.809)" fill="#fff"/>
      <path id="Trazado_100988" data-name="Trazado 100988" d="M427.15,181.118l-4.258-5.856-.7-1.835a.225.225,0,0,0-.081-.1c-.094-.054-1.789-1.015-2.023-1.142l-.335-.415-.12.119.38.47a.163.163,0,0,0,.053.046c.543.292,1.656.924,1.9,1.057l.776,1.858a.273.273,0,0,0,.025.042l4.273,5.877c.342.462.434,1.05.206,1.312a.471.471,0,0,1-.622.025,1.424,1.424,0,0,1-.414-.385l-.156-.208-1.6-2.206c-.046-.063-.108-.086-.14-.051s-.02.113.026.175l1.6,2.2.23.339c.328.463.408,1.031.178,1.265a.447.447,0,0,1-.571,0,1.376,1.376,0,0,1-.361-.318l-1.648-2.268c-.046-.063-.109-.086-.14-.052s-.02.114.025.176l1.6,2.2a.817.817,0,0,1-.059.833.453.453,0,0,1-.566,0,1.339,1.339,0,0,1-.375-.339h0l-1.075-1.477a.177.177,0,0,1-.048-.01.851.851,0,0,1-.112.017l-.037,0s.9,1.144,1.141,1.568a.831.831,0,0,1-.068.731.427.427,0,0,1-.533,0,1.264,1.264,0,0,1-.393-.376l-.653-.984a.226.226,0,0,0-.019-.024,48.973,48.973,0,0,1-4.19-6.465l-.01-.015c-.049-.137-.4-1.161-.638-1.842a.242.242,0,0,0-.031-.06l-.441-.623-.118.119.421.6c.631,1.833.639,1.847.653,1.873l.018.032a49.455,49.455,0,0,0,4.237,6.532l.648.974a1.652,1.652,0,0,0,.515.5.557.557,0,0,0,.693,0,.788.788,0,0,0,.154-.687,1.452,1.452,0,0,0,.26.194.584.584,0,0,0,.728,0,.864.864,0,0,0,.156-.769,1.58,1.58,0,0,0,.266.2.577.577,0,0,0,.734-.006,1.154,1.154,0,0,0,.014-1.194.472.472,0,0,0,.1.067.6.6,0,0,0,.787-.031C427.7,182.448,427.583,181.7,427.15,181.118Z" transform="translate(-404.416 -135.363)" fill="#fff"/>
      <path id="Trazado_100989" data-name="Trazado 100989" d="M418.925,170.543,416.4,174.18l.238.338,2.984-2.989Z" transform="translate(-404.39 -135.311)" fill="#fff"/>
      <path id="Trazado_100990" data-name="Trazado 100990" d="M417.184,168.19l-2.927,4.208,1.6,1.988,2.927-4.208Zm-1.733,5.172c-.122.018-.283-.116-.36-.3s-.04-.35.081-.368.283.117.36.3S415.572,173.343,415.451,173.362Zm.4-.67c-.122.018-.282-.116-.359-.3s-.04-.35.081-.368.283.116.359.3S415.974,172.674,415.853,172.692Zm.4-.67c-.122.018-.282-.117-.359-.3s-.04-.349.081-.368.283.117.359.3S416.377,172,416.255,172.022Z" transform="translate(-404.299 -135.212)" fill="#fff"/>
      <path id="Trazado_100991" data-name="Trazado 100991" d="M424.614,173.069l-.223.293,4.379,5.619.6-.781Zm4.091,5.336a.477.477,0,0,1-.2-.376c.006-.134.106-.182.224-.108a.472.472,0,0,1,.205.377C428.924,178.431,428.824,178.479,428.705,178.405Z" transform="translate(-404.727 -135.418)" fill="#fff"/>
      <path id="Trazado_100992" data-name="Trazado 100992" d="M425.347,171.245l-.738,1.531,5.4,5.829.738-1.531Zm4.364,6.267a.879.879,0,0,1-.38-.7c.01-.248.2-.338.416-.2a.883.883,0,0,1,.38.7C430.117,177.561,429.931,177.65,429.71,177.512Z" transform="translate(-404.736 -135.341)" fill="#fff"/>
      <path id="Trazado_100993" data-name="Trazado 100993" d="M420.63,167.3a.8.8,0,0,1-.328-.436c-.08-.256,0-.454.182-.443,4.353.28,8.82.738,13.275,1.361a.7.7,0,0,1,.464.51c.07.255-.023.441-.209.415-4.442-.623-8.9-1.079-13.237-1.358A.333.333,0,0,1,420.63,167.3Z" transform="translate(-404.553 -135.137)" fill="#fff"/>
      <path id="Trazado_100994" data-name="Trazado 100994" d="M434.6,170.5l2.25-1.923-3.541-2.684Z" transform="translate(-405.103 -135.115)" fill="#fff"/>
      <path id="Trazado_100995" data-name="Trazado 100995" d="M407.554,140.685l-.007,0a.793.793,0,0,1-.353-.626,7.254,7.254,0,0,1,1.1-3.978,5.607,5.607,0,0,1,4.994-2.316,8.012,8.012,0,0,1,3.853,1.025.794.794,0,0,1,.367.618c0,.231-.152.33-.351.22a7.39,7.39,0,0,0-3.554-.935,5.334,5.334,0,0,0-4.685,2.157,6.643,6.643,0,0,0-1.011,3.639C407.91,140.71,407.75,140.8,407.554,140.685Z" transform="translate(-404.001 -133.76)" fill="#fff"/>
      <path id="Trazado_100996" data-name="Trazado 100996" d="M405.726,139.143l2.194,4.539,1.358-3.046Z" transform="translate(-403.94 -133.987)" fill="#fff"/>
      <path id="Trazado_100997" data-name="Trazado 100997" d="M414.363,178.387a.635.635,0,0,1-.084-.06,23.2,23.2,0,0,1-5.343-6.824c-1.948-3.749-2.806-7.984-2.237-11.05.071-.385.19-.792.53-.9.158-.049.383.115.5.367s.091.5-.066.544-.215.292-.262.552c-.528,2.847.267,6.779,2.076,10.26a21.589,21.589,0,0,0,4.965,6.337.753.753,0,0,1,.266.654C414.673,178.437,414.526,178.48,414.363,178.387Z" transform="translate(-403.973 -134.847)" fill="#fff"/>
      <path id="Trazado_100998" data-name="Trazado 100998" d="M413.94,180.16l3.3.3-2.856-4.149Z" transform="translate(-404.286 -135.554)" fill="#fff"/>
      <path id="Trazado_100999" data-name="Trazado 100999" d="M418.717,155.186a.806.806,0,0,1-.35-.52c-.046-.25.073-.405.266-.347a91.8,91.8,0,0,1,14.4,5.786.783.783,0,0,1,.382.607c.013.237-.136.348-.334.249a90.949,90.949,0,0,0-14.286-5.738A.4.4,0,0,1,418.717,155.186Z" transform="translate(-404.472 -134.627)" fill="#fff"/>
      <path id="Trazado_101000" data-name="Trazado 101000" d="M433.272,162.6l2.986-.565-3.21-3.695Z" transform="translate(-405.092 -134.797)" fill="#fff"/>
      <path id="Trazado_101001" data-name="Trazado 101001" d="M435.4,154.361a.648.648,0,0,1-.188-.17l-7.586-9.765a.593.593,0,0,1-.117-.64c.1-.135.326-.067.494.149l7.585,9.766a.59.59,0,0,1,.118.639C435.64,154.429,435.522,154.431,435.4,154.361Z" transform="translate(-404.856 -134.18)" fill="#fff"/>
      <path id="Trazado_101002" data-name="Trazado 101002" d="M434.305,154.964l3.583,2.183-1.705-4.625Z" transform="translate(-405.145 -134.551)" fill="#fff"/>
      <path id="Trazado_101003" data-name="Trazado 101003" d="M460.472,173.272l-.81-.762A17.9,17.9,0,0,0,458.079,169l.01-4.071a1.405,1.405,0,0,0-.475-1.121,3.675,3.675,0,0,0-3.593.074,20,20,0,0,0-3.711-2.8c-3.545-2.046-6.653-2.679-8.41-1.169a5.391,5.391,0,0,1-.854-.943,2.162,2.162,0,0,1-.208-.364.8.8,0,0,0,.661.223c.252-.083.218-.609.067-.979-.206-.5-.63-.742-.92-.657a.6.6,0,0,0-.4.494,1.582,1.582,0,0,1-.386-1.02c.006-.1-.113-.179-.147-.114-.2.388.129.981.512,1.448a1.7,1.7,0,0,0,.05.323,4.257,4.257,0,0,0,1.114,1.741c.054.057.113.117.175.178a6.251,6.251,0,0,0-1.182,4.192,15.072,15.072,0,0,0,2.681,7.754l-.387,2.2c-.175.525.446,1.676,1.388,2.57l.9.852a3.029,3.029,0,0,0,1.413.9c.169.031.889-.614,1.467-1.165a19.037,19.037,0,0,0,2.467,1.708,14.129,14.129,0,0,0,2.466,1.141,27.21,27.21,0,0,0,1.467,2.858,2.64,2.64,0,0,0,1.413.733l.9.184c.942.193,1.563-.24,1.388-.967l-.387-2.643a3.95,3.95,0,0,0,2.106-1.941l.81.174c.567.122,1.032-.437,1.032-1.239V175.7A3.822,3.822,0,0,0,460.472,173.272Zm-19.683-15.341c.085-.143.3-.26.437.07.222.542-.22.354-.494.161A.457.457,0,0,1,440.789,157.931Zm6.71,3.106a.187.187,0,0,1-.055-.022.427.427,0,0,1-.183-.262c-.031-.134.027-.223.128-.2a13.616,13.616,0,0,1,5.84,3.372.39.39,0,0,1,.128.348c-.03.1-.136.1-.237.012A13.1,13.1,0,0,0,447.5,161.037Zm9.549,11.154a1.414,1.414,0,0,1-.641-1.109c0-.409.286-.574.641-.37a1.417,1.417,0,0,1,.64,1.109C457.687,172.23,457.4,172.4,457.047,172.191Z" transform="translate(-405.37 -134.72)" fill="#fff"/>
      <path id="Trazado_101004" data-name="Trazado 101004" d="M450.949,153.848c-1.387-.8-2.511-.151-2.511,1.45a5.551,5.551,0,0,0,2.511,4.35c1.388.8,2.512.152,2.512-1.45A5.549,5.549,0,0,0,450.949,153.848Zm0,5.431a4.843,4.843,0,0,1-2.191-3.8c0-1.4.981-1.965,2.191-1.265a4.843,4.843,0,0,1,2.192,3.8C453.142,159.411,452.16,159.978,450.949,159.279Z" transform="translate(-405.741 -134.593)" fill="#fff"/>
      <path id="Trazado_101005" data-name="Trazado 101005" d="M450.975,154.556c-1.063-.615-1.926-.117-1.926,1.112a4.26,4.26,0,0,0,1.926,3.337c1.064.615,1.927.117,1.927-1.112A4.258,4.258,0,0,0,450.975,154.556Zm.826,3.341c0,.656-.337.61-.67.419v.316l-.319-.184v-.321a2.962,2.962,0,0,1-.585-.456v-.489c.133.089.462.3.772.484.142.081.255.108.255-.058V157.5a.345.345,0,0,0-.2-.338l-.26-.149a1.294,1.294,0,0,1-.644-1.15v-.239c0-.552.3-.559.663-.361v-.331l.319.185v.333a3.9,3.9,0,0,1,.58.45v.492c-.2-.136-.561-.361-.726-.456-.193-.115-.288-.151-.288.061v.095a.384.384,0,0,0,.237.371l.268.155a1.271,1.271,0,0,1,.6,1.124Z" transform="translate(-405.767 -134.626)" fill="#fff"/>
      <path id="Trazado_101006" data-name="Trazado 101006" d="M461.393,196.337l-27.64-15.464-.047-3.571,27.64,15.464Z" transform="translate(-405.119 -135.596)" fill="#fff"/>
      <path id="Trazado_101007" data-name="Trazado 101007" d="M461.385,202.226l-27.64-15.464-.047-3.571,27.64,15.464Z" transform="translate(-405.119 -135.844)" fill="#fff"/>
    </g>
    <g id="Grupo_54189" data-name="Grupo 54189" transform="translate(384.434 114.332)">
      <path id="Trazado_101008" data-name="Trazado 101008" d="M387.85,163.32l-3-1.733V115.122l3,1.732Z" transform="translate(-384.849 -115.122)" fill="#fff"/>
      <path id="Trazado_101009" data-name="Trazado 101009" d="M392.463,166.555l-3-1.732V131.351l3,1.732Z" transform="translate(-385.044 -115.806)" fill="#fff"/>
      <path id="Trazado_101010" data-name="Trazado 101010" d="M397.075,169.668l-3-1.732V144.7l3,1.732Z" transform="translate(-385.238 -116.369)" fill="#fff"/>
    </g>
    <g id="Character" transform="translate(380.424 159.06)">
      <g id="Character-2" data-name="Character">
        <g id="Grupo_25391" data-name="Grupo 25391" transform="translate(2.279 42.888)">
          <g id="Grupo_25385" data-name="Grupo 25385" transform="translate(0.968 48.688)">
            <path id="Trazado_65749" data-name="Trazado 65749" d="M418.229,349.156c-.275.112-.333.641-.351,1.691-.014.8-.153,2.185.783,2.441a2.913,2.913,0,0,0,2.875-.678c.723-.951,1.207-1.785,2.243-2.949a8.049,8.049,0,0,0,2.215-3.35c.308-1.261.016-1.8-.847-2.143-1.187-.474-3,1.2-3.913,1.483C420.446,345.89,418.5,349.045,418.229,349.156Z" transform="translate(-417.862 -344.084)" fill="#f5ca56"/>
          </g>
          <g id="Grupo_25386" data-name="Grupo 25386" transform="translate(1.312 52.242)">
            <path id="Trazado_65750" data-name="Trazado 65750" d="M427.047,352.181l.029,1.289a3.155,3.155,0,0,0,3.258.015c.054-.126.3-1.851.3-1.851Z" transform="translate(-427.047 -351.633)" fill="#12263f"/>
          </g>
          <g id="Grupo_25387" data-name="Grupo 25387" transform="translate(11.216 60.942)">
            <path id="Trazado_65751" data-name="Trazado 65751" d="M382.064,370.128a21.729,21.729,0,0,0-.521,2.113,5.682,5.682,0,0,0-.052,2.67c.286.579,1.358.934,3.008.884a9.69,9.69,0,0,1,3.9,1.267,10.247,10.247,0,0,0,4.889.663c1.464-.205,2.965-1.091,3.189-1.7s-.106-1.237-3.6-2.633c-.032-.013-4.844-1.459-6.559-3.268Z" transform="translate(-381.344 -370.119)" fill="#f5ca56"/>
          </g>
          <g id="Grupo_25388" data-name="Grupo 25388" transform="translate(11.905 59.55)">
            <path id="Trazado_65752" data-name="Trazado 65752" d="M403.032,367.169s.026.956.034,1.5.672,1.346,2.341,1.249c1.172-.069,1.984-.4,1.916-1.368l-.031-1.393Z" transform="translate(-403.032 -367.16)" fill="#12263f"/>
          </g>
          <g id="Grupo_25389" data-name="Grupo 25389" transform="translate(0)">
            <path id="Trazado_65753" data-name="Trazado 65753" d="M395.459,276.347a35.007,35.007,0,0,1,1.37-6.745s-.59-5.779-.935-11.264a69.15,69.15,0,0,1,.448-17.53s18.163-1.631,18.659,5.215-.208,24.319-.366,27.335-.619,5.691-1.131,10.585c-.505,4.83-1.971,16.244-1.971,16.244a4.519,4.519,0,0,1-4.259.009s-1.655-13.675-1.592-17.153a29.7,29.7,0,0,1,1.147-7.613s-.49-5.643-.921-10.552-.824-7.262-.946-9.4l-.416-.195s-.229,8.49-.387,11.507-.572,5.914-1.317,11.527c-.646,4.869-2.666,15.186-2.666,15.186a2.872,2.872,0,0,1-3.493-.076S394.964,280.57,395.459,276.347Z" transform="translate(-395.369 -240.638)" fill="#12263f"/>
          </g>
          <g id="Grupo_25390" data-name="Grupo 25390" transform="translate(2.53 10.648)">
            <path id="Trazado_65754" data-name="Trazado 65754" d="M424.131,267.454a40.042,40.042,0,0,1-7.062-4.193,15.361,15.361,0,0,0,5.087,4.274s1.244,10.513,1.235,10.3l.348-10.392Z" transform="translate(-417.069 -263.261)" fill="#12263f"/>
          </g>
        </g>
        <g id="Grupo_25405" data-name="Grupo 25405">
          <path id="Trazado_65755" data-name="Trazado 65755" d="M416.787,187.634l-.707,6.271-5.922-.3.658-7.319Z" transform="translate(-401.819 -168.981)" fill="#ffa8a7"/>
          <g id="Grupo_25396" data-name="Grupo 25396" transform="translate(0 13.997)">
            <path id="Trazado_65756" data-name="Trazado 65756" d="M433.894,194.231c-2.2-.1-3.324.229-4.315,2.131s-1.378,7.584-1.723,10.514-.431,5,.775,5.3a53.464,53.464,0,0,0,5.9.431Z" transform="translate(-427.632 -187.173)" fill="#d0a941"/>
            <path id="Trazado_65757" data-name="Trazado 65757" d="M395.57,197.452a4.533,4.533,0,0,1,4.787-3.248q.753.122,1.466.248c.259,1.055,3.151,1.715,5.912,1.065.833.218,3.573.731,4.266.962,1.985.659,2.8,2.613,3.113,9.087,0,0-.159,14.66-.081,17.58a23.881,23.881,0,0,1-12.9,1.566c-5.947-1.159-6.716-3.6-6.716-3.6l.885-6.707S394.848,201.422,395.57,197.452Z" transform="translate(-393.03 -187.145)" fill="#f5ca56"/>
            <path id="Trazado_65758" data-name="Trazado 65758" d="M414.225,192.369l-.044.394a8.79,8.79,0,0,1-3.636,0c-1.924-.428-2.313-.971-2.313-.971l.04-.448s-.479-.177-.731.56a8.016,8.016,0,0,0-.278.9s-.222,1.348,2.04,2.034a6.991,6.991,0,0,0,5.633-.615l.887.187s-.767-1.768-1-2.127a.589.589,0,0,0-.554-.307Z" transform="translate(-399.488 -185.644)" fill="#d0a941"/>
            <g id="Grupo_25393" data-name="Grupo 25393" transform="translate(27.208)">
              <path id="Trazado_65759" data-name="Trazado 65759" d="M352.341,179.255l11.743,6.128-5.835,15.955L347.29,195.2Z" transform="translate(-347.29 -179.255)" fill="#12263f"/>
              <path id="Trazado_65760" data-name="Trazado 65760" d="M354.67,182.574l9.852,5.141-5.164,13.717-9.194-5.15Z" transform="translate(-349.08 -181.012)" fill="#f5f5f5"/>
              <path id="Trazado_65761" data-name="Trazado 65761" d="M355.592,185.022l.19-.488c.105-.27.925-.109,1.831.359l1.735.9c.907.468,1.556,1.065,1.45,1.335l-.191.488Z" transform="translate(-347.924 -181.98)" opacity="0.15"/>
              <g id="Grupo_25392" data-name="Grupo 25392" transform="translate(7.554 0.936)">
                <path id="Trazado_65762" data-name="Trazado 65762" d="M353.6,181.4c.065-.168.422-.141.8.061l.679.367s.419-1.054,1.981-.325,1.206,1.951,1.206,1.951l.721.4c.4.219.682.536.633.707l-.088.31-6.049-3.156S353.532,181.566,353.6,181.4Z" transform="translate(-353.292 -181.244)" fill="#27debf"/>
                <path id="Trazado_65763" data-name="Trazado 65763" d="M356.174,182.81c.563.277.784.41.622.826-.185.474-.357.815-.357.815l2.676,1.4s.223-.6.321-.836.293-.344.719-.121l.159-.168-4.221-2.151Z" transform="translate(-355.216 -181.948)" fill="#27debf"/>
                <path id="Trazado_65764" data-name="Trazado 65764" d="M356.174,182.81c.563.277.784.41.622.826-.185.474-.357.815-.357.815l2.676,1.4s.223-.6.321-.836.293-.344.719-.121l.159-.168-4.221-2.151Z" transform="translate(-355.216 -181.948)" opacity="0.3"/>
                <path id="Trazado_65765" data-name="Trazado 65765" d="M355.836,185.076l.191-.488c.105-.269.925-.109,1.831.359l1.735.9c.906.468,1.556,1.065,1.45,1.335l-.191.488Z" transform="translate(-355.836 -182.945)" fill="#27debf"/>
              </g>
            </g>
            <g id="Grupo_25395" data-name="Grupo 25395" transform="translate(17.439 9.333)">
              <g id="Grupo_25394" data-name="Grupo 25394">
                <path id="Trazado_65766" data-name="Trazado 65766" d="M374.311,199.085c2.711.236,3.866.73,5.9,4.4,2.209,3.983,6.455,11.191,6.993,12.1a4.827,4.827,0,0,1,.244,4.355c-.6,1.086-2.52,1.583-4.692-.871-2.583-2.918-7.389-10.044-7.389-10.044S371.287,203.642,374.311,199.085Z" transform="translate(-373.196 -199.085)" fill="#ffa8a7"/>
              </g>
            </g>
            <path id="Trazado_65767" data-name="Trazado 65767" d="M346.564,222.368c2.078-.252,6.932-6.837,8.312-8.988a15.345,15.345,0,0,1,4.2-4.437c2.2-1.625,1.88-4.122.92-6.41-.333-.793-1.46-.277-1.46-.277l-.4,1.086-.688,1.88c-.466.433-.731.573-.762.445-.058-.243.342-1.254.333-2.308-.012-1.268-.9-.435-1.165.01a15.707,15.707,0,0,0-.937,2.095c-.443,1.135-.26,2.284-.8,3.058s-7.781,7.712-7.781,7.712Z" transform="translate(-316.289 -191.343)" fill="#ffa8a7"/>
            <path id="Trazado_65768" data-name="Trazado 65768" d="M364,198.781a5.793,5.793,0,0,1,5.145,2.207c1.528,1.986,7.647,12.787,7.647,12.787l3.434-3.078a5.985,5.985,0,0,1,2.641,3.732,37.231,37.231,0,0,1-3.109,4.22c-1.451,1.593-3.071,2.7-4.4,2.208s-2.682-1.541-5.541-5.52-5.977-8.675-5.977-8.675S361.869,202.075,364,198.781Z" transform="translate(-346.037 -189.589)" fill="#d0a941"/>
          </g>
          <g id="Grupo_25397" data-name="Grupo 25397" transform="translate(18.983 10.976)">
            <path id="Trazado_65769" data-name="Trazado 65769" d="M398.481,172.837s1.478,2.243,1.31,2.464-1.257.419-1.257.419Z" transform="translate(-398.481 -172.837)" fill="#f28f8f"/>
          </g>
          <g id="Grupo_25398" data-name="Grupo 25398" transform="translate(16.555 8.894)">
            <path id="Trazado_65770" data-name="Trazado 65770" d="M400.782,171.936a1.762,1.762,0,1,0-1.762-1.762A1.764,1.764,0,0,0,400.782,171.936Zm0-3.132a1.37,1.37,0,1,1-1.37,1.37A1.371,1.371,0,0,1,400.782,168.8Z" transform="translate(-399.02 -168.413)" fill="#263238"/>
          </g>
          <g id="Grupo_25399" data-name="Grupo 25399" transform="translate(5.971 4.477)">
            <path id="Trazado_65771" data-name="Trazado 65771" d="M410.262,159.32c2.992.631,3.856,1.946,4.138,6.7.294,4.966-.213,6.528-.865,7.2-.441.451-2.888.533-4.123.192-1.545-.426-5.037-1.664-6.673-4.162-1.924-2.939-2.43-6.923-.37-8.557C405.268,158.39,409.045,159.063,410.262,159.32Z" transform="translate(-401.042 -159.027)" fill="#ffa8a7"/>
          </g>
          <path id="Trazado_65772" data-name="Trazado 65772" d="M403.427,188.851l.139-.915a5.921,5.921,0,0,0,3.068.7A7.417,7.417,0,0,1,403.427,188.851Z" transform="translate(-388.597 -169.853)" fill="#f28f8f"/>
          <path id="Trazado_65773" data-name="Trazado 65773" d="M404.69,171.374l-5.32.688.214.374,5.105-.663Z" transform="translate(-384.754 -161.086)" fill="#263238"/>
          <g id="Grupo_25404" data-name="Grupo 25404" transform="translate(3.27)">
            <g id="Grupo_25401" data-name="Grupo 25401">
              <g id="Grupo_25400" data-name="Grupo 25400">
                <path id="Trazado_65774" data-name="Trazado 65774" d="M414.173,156.2a1.668,1.668,0,0,1-.675-.041,1.066,1.066,0,0,1-.365,1.247,1.506,1.506,0,0,1-1.342.178,1.3,1.3,0,0,1,.147.925,1.5,1.5,0,0,1-1.55,1.118c-.032.7-.04,1.375-.783,1.692,0,0-.473-1.836-2.02-1.6s-1.768,2.217-.786,3.424,1.885.75,1.9.744c-.09.046-.121.631-.153.742a5.375,5.375,0,0,1-.4,1,4.8,4.8,0,0,1-1.4,1.642,3.448,3.448,0,0,1-2.808.781,3.022,3.022,0,0,1-2.046-1.646,1.762,1.762,0,0,0-.334-.594,1.949,1.949,0,0,0-.762-.33,2.241,2.241,0,0,1-1.266-3.161,2.053,2.053,0,0,1-.786-3.587,2.464,2.464,0,0,1-1.059-2.673,2.5,2.5,0,0,1,1.769-1.7c.6-.175.372-.27.559-.861a2.169,2.169,0,0,1,2.756-1.422,2.091,2.091,0,0,1,1.494-1.607,2.068,2.068,0,0,1,1.056-.041c.248.064.759.3.852.532.314-.309.417-.718.8-1a2.268,2.268,0,0,1,3.34.714,2.786,2.786,0,0,1,2.09-.879,2.285,2.285,0,0,1,1.9,1.163,1.94,1.94,0,0,1-.257,2.175,2.226,2.226,0,0,1,1.156,1,1.4,1.4,0,0,1-.163,1.562,1.21,1.21,0,0,1-.584.435A1.772,1.772,0,0,1,414.173,156.2Z" transform="translate(-397.604 -149.516)" fill="#00223d"/>
              </g>
            </g>
            <g id="Grupo_25403" data-name="Grupo 25403" transform="translate(11.978 10.776)">
              <g id="Grupo_25402" data-name="Grupo 25402">
                <path id="Trazado_65775" data-name="Trazado 65775" d="M407.682,174.491l-.055-2.078a1.039,1.039,0,1,1,.055,2.078Z" transform="translate(-407.627 -172.412)" fill="#263238"/>
              </g>
            </g>
          </g>
        </g>
      </g>
    </g>
  </g>
</svg>
