<svg id="Grupo_64237" data-name="Grupo 64237" xmlns="http://www.w3.org/2000/svg" xmlns:xlink="http://www.w3.org/1999/xlink" width="91.25" height="91.25" viewBox="0 0 91.25 91.25">
  <defs>
    <radialGradient id="radial-gradient" cx="0.076" cy="0.019" r="1.465" gradientTransform="translate(0.001)" gradientUnits="objectBoundingBox">
      <stop offset="0" stop-color="#f6f6f7"/>
      <stop offset="0.477" stop-color="#f9f9fa"/>
      <stop offset="0.715" stop-color="#fff"/>
    </radialGradient>
  </defs>
  <g id="Grupo_18531" data-name="Grupo 18531" transform="translate(0 0)">
    <g id="Grupo_18423" data-name="Grupo 18423">
      <g id="Grupo_18421" data-name="Grupo 18421">
        <g id="Grupo_18420" data-name="Grupo 18420">
          <g id="Grupo_18419" data-name="Grupo 18419">
            <path id="Trazado_40936" data-name="Trazado 40936" d="M285.873,2191.345a45.625,45.625,0,1,1-45.624-45.624A45.624,45.624,0,0,1,285.873,2191.345Z" transform="translate(-194.623 -2145.721)" fill="#fff"/>
          </g>
        </g>
      </g>
      <path id="Trazado_40937" data-name="Trazado 40937" d="M285.561,2191.005a45.624,45.624,0,1,0-45.624,45.626A45.444,45.444,0,0,0,285.561,2191.005Z" transform="translate(-194.311 -2145.382)" fill="url(#radial-gradient)"/>
      <path id="Trazado_40938" data-name="Trazado 40938" d="M272.05,2188.31a34.825,34.825,0,1,0-34.825,34.825A34.7,34.7,0,0,0,272.05,2188.31Z" transform="translate(-191.461 -2142.534)" fill="none" stroke="#7d6eb2" stroke-miterlimit="10" stroke-width="4"/>
      <g id="Grupo_18422" data-name="Grupo 18422" transform="translate(8.083 25.615)">
        <path id="Trazado_40939" data-name="Trazado 40939" d="M279.1,2164.488a45.63,45.63,0,0,1-78.554,45.436,45.485,45.485,0,0,0,78.554-45.436Z" transform="translate(-200.545 -2164.488)" fill="#eceef0"/>
      </g>
    </g>
  </g>
  <g id="Grupo_22578" data-name="Grupo 22578" transform="translate(22.063 23.808)">
    <g id="Grupo_64239" data-name="Grupo 64239" transform="translate(5.045 1.905)">
      <path id="Trazado_114962" data-name="Trazado 114962" d="M-1053.656,1369.085a9.029,9.029,0,0,1-.968.111q-11.682.009-23.364.007c-.135,0-.271,0-.405-.01a.645.645,0,0,1-.685-.719c-.011-.66-.02-1.321,0-1.98.013-.363-.124-.474-.471-.461-.554.02-1.11.01-1.666,0-.535-.011-.764-.242-.772-.776-.009-.66,0-1.32,0-1.98q0-15.036,0-30.071c0-.937.164-1.1,1.094-1.1h23.319c.89,0,1.066.179,1.066,1.084,0,.57.008,1.14,0,1.71-.005.264.076.376.36.367.539-.018,1.08-.005,1.62,0,.7.005.917.227.918.913,0,2.236,0,4.472-.006,6.707a.742.742,0,0,0,.31.643,17.464,17.464,0,0,1,5.433,7.264,11.75,11.75,0,0,1,.519,5.8c-.159,1.247-.338,2.5-.386,3.751a7.826,7.826,0,0,0,.836,3.785,12.66,12.66,0,0,0,.844,1.323c.512.776,1.033,1.546,1.543,2.323.38.58.312.893-.272,1.269q-2.687,1.727-5.377,3.449c-.689.441-.958.386-1.4-.281-.606-.911-1.206-1.827-1.811-2.739C-1053.478,1369.328-1053.585,1369.186-1053.656,1369.085Zm-5.131-11.078a2.362,2.362,0,0,0-.309-.378c-.27-.22-.549-.418-.264-.739l-.441-.109a1.917,1.917,0,0,1,.357-.314,2.344,2.344,0,0,1,.492-.137l-.035-.154-1.072.234a1.4,1.4,0,0,1-.165-.316c-.13-.575-.518-.631-1.034-.628-3.841.02-7.683.011-11.525.011-.776,0-1.09-.2-1.088-.688,0-.463.32-.658,1.065-.658q5.852,0,11.7.006c.337,0,.543-.061.665-.425a1.416,1.416,0,0,1,1.223-1,11.024,11.024,0,0,1,1.294-.01v-19.191h-22.708v.658q0,14.969,0,29.937c0,.582,0,.581.594.581h21.339c.967,0,.8.088.811-.809a20.252,20.252,0,0,1,.041-2.651,3.131,3.131,0,0,0-.837-3.1,1.756,1.756,0,0,1-.121-.13c.217-.236.448-.486.246-.825a2.217,2.217,0,0,0-.431-.415l-.142.1C-1058.49,1357.114-1058.714,1357.578-1058.788,1358.007Zm5.363-12.874-.158.089c-.008.113-.024.226-.024.339,0,.93-.026,1.861.01,2.79a1.361,1.361,0,0,0,.3.791,5.349,5.349,0,0,1,1.238,2.365,14.059,14.059,0,0,1,.375,2.3,8.011,8.011,0,0,1-1.17,5.118,1.034,1.034,0,0,1-.939.5,1.478,1.478,0,0,1-1.193-.705c-.53-.778-1-1.594-1.488-2.4-.276-.463-.5-.961-.792-1.409a1.787,1.787,0,0,0-1.481-.89c-.322-.01-.49.141-.5.442a3.445,3.445,0,0,0,1.023,2.2c.5.644,1.055,1.247,1.565,1.886.047.059-.059.241-.1.391l.44.072c0,.96-.037,1.917.009,2.87a5.228,5.228,0,0,0,1.017,3.427,34.408,34.408,0,0,0,2.783,2.49c1.267-.809,2.77-1.765,4.263-2.738a.388.388,0,0,0,.07-.361,12.329,12.329,0,0,1-.67-7.36,12.75,12.75,0,0,0,.174-4.25,12.179,12.179,0,0,0-2.611-5.556C-1051.942,1346.693-1052.707,1345.931-1053.425,1345.132Zm-3.192,20.8a10.1,10.1,0,0,1-1.006.1q-9.428.009-18.856.005c-1.276,0-1.257,0-1.27,1.278,0,.442.148.542.566.541q10.846-.018,21.692-.009h.471l.075-.14Zm1.526-9.95.092-.03V1336.67h-1.506v.6c0,5.113.01,10.227-.012,15.34a2.685,2.685,0,0,0,.531,1.781A11.886,11.886,0,0,1-1055.091,1355.982Zm9.174,12.165-1.331-2-4.743,2.948,1.373,2.068Zm-7.674-10.873c.821-1.25.66-5.092,0-5.756Z" transform="translate(1081.988 -1332.103)" fill="#12263f"/>
      <path id="Trazado_114965" data-name="Trazado 114965" d="M-1013.777,1707.768l1.672,1.777-.075.14h-.471q-10.846,0-21.692.009c-.417,0-.57-.1-.566-.541.012-1.278-.006-1.278,1.27-1.278q9.428,0,18.856-.005C-1014.461,1707.869-1014.139,1707.805-1013.777,1707.768Z" transform="translate(1039.148 -1673.94)" fill="#fff"/>
      <path id="Trazado_114968" data-name="Trazado 114968" d="M-766.642,1553.455V1547.7C-765.983,1548.363-765.821,1552.205-766.642,1553.455Z" transform="translate(795.038 -1528.285)" fill="#fff"/>
      <path id="Trazado_114969" data-name="Trazado 114969" d="M-827.808,1607.105l.014.012c.074-.429.3-.893-.341-1.154l.142-.1a2.223,2.223,0,0,1,.431.415C-827.36,1606.62-827.591,1606.869-827.808,1607.105Z" transform="translate(850.994 -1581.214)" fill="#fff"/>
      <path id="Trazado_114971" data-name="Trazado 114971" d="M-1027.281,1500.479h-8.054a2.645,2.645,0,0,1-.448-.017.7.7,0,0,1-.613-.717.717.717,0,0,1,.694-.639c.1-.008.21,0,.315,0h16.109c.734,0,1.053.208,1.055.681s-.341.7-1.048.7Z" transform="translate(1040.503 -1484.063)" fill="#00223d"/>
      <path id="Trazado_114973" data-name="Trazado 114973" d="M-1027.285,1655.344h-8.1c-.654-.005-.968-.226-.964-.675s.322-.677.981-.676c2.893,0,5.786.019,8.679.02q3.821,0,7.643-.021c.392,0,.726.076.839.506.132.5-.208.87-.8.868q-3.15-.009-6.3-.021C-1025.965,1655.342-1026.625,1655.344-1027.285,1655.344Z" transform="translate(1040.46 -1625.006)" fill="#00223d"/>
      <path id="Trazado_114981" data-name="Trazado 114981" d="M-1027.285,1655.344h-8.1c-.654-.005-.968-.226-.964-.675s.322-.677.981-.676c2.893,0,5.786.019,8.679.02q3.821,0,7.643-.021c.392,0,.726.076.839.506.132.5-.208.87-.8.868q-3.15-.009-6.3-.021C-1025.965,1655.342-1026.625,1655.344-1027.285,1655.344Z" transform="translate(1040.46 -1627.801)" fill="#00223d"/>
      <path id="Trazado_114974" data-name="Trazado 114974" d="M-984.851,1539.253h-5.941c-.165,0-.331.006-.495-.008a.656.656,0,0,1-.64-.677.651.651,0,0,1,.621-.653,3.568,3.568,0,0,1,.494-.008h12.152a2.646,2.646,0,0,1,.27.006.645.645,0,0,1,.629.682.617.617,0,0,1-.655.648c-.885.016-1.77.01-2.655.01Q-982.96,1539.255-984.851,1539.253Z" transform="translate(1000.037 -1519.371)" fill="#00223d"/>
      <path id="Trazado_114975" data-name="Trazado 114975" d="M-918.593,1383.072q1.551,0,3.1,0c.561,0,.882.248.882.672s-.3.7-.871.7q-3.169,0-6.338-.02c-.5,0-.769-.267-.762-.69s.29-.653.8-.656C-920.72,1383.068-919.656,1383.073-918.593,1383.072Z" transform="translate(936.934 -1378.481)" fill="#00223d"/>
      <path id="Trazado_114976" data-name="Trazado 114976" d="M-918.583,1461.862c-1.049,0-2.1,0-3.147,0-.531,0-.811-.247-.807-.689,0-.42.272-.664.785-.665q3.191-.01,6.383,0a.713.713,0,0,1,.8.665c0,.412-.318.688-.825.69C-916.456,1461.866-917.519,1461.863-918.583,1461.862Z" transform="translate(936.895 -1448.94)" fill="#00223d"/>
      <path id="Trazado_114977" data-name="Trazado 114977" d="M-918.62,1423.205c-1.049,0-2.1,0-3.146,0-.539,0-.825-.238-.828-.667s.292-.672.824-.673q3.146,0,6.291,0c.54,0,.848.239.858.646.011.438-.3.692-.854.694C-916.523,1423.208-917.571,1423.206-918.62,1423.205Z" transform="translate(936.947 -1413.779)" fill="#00223d"/>
      <path id="Trazado_114978" data-name="Trazado 114978" d="M-1026.355,1539.659a.692.692,0,0,1-.724-.7.7.7,0,0,1,.748-.676.682.682,0,0,1,.717.7A.684.684,0,0,1-1026.355,1539.659Z" transform="translate(1032.023 -1519.72)" fill="#00223d"/>
      <path id="Trazado_114979" data-name="Trazado 114979" d="M-1025.726,1576.98a.675.675,0,0,1-.709.7.718.718,0,0,1-.765-.666.742.742,0,0,1,.728-.712A.7.7,0,0,1-1025.726,1576.98Z" transform="translate(1032.134 -1554.314)" fill="#00223d"/>
      <path id="Trazado_114980" data-name="Trazado 114980" d="M-925.661,1628.462l.832-.038.005.113c-.445.131-.695.1-.825-.089Z" transform="translate(939.738 -1601.741)"/>
      <g id="Grupo_64240" data-name="Grupo 64240" transform="translate(9.471 55.478)">
        <g id="Grupo_46366" data-name="Grupo 46366" transform="translate(-3.794 -52.229)">
          <path id="Trazado_96685" data-name="Trazado 96685" d="M484.137,179.436v-1.642a6.508,6.508,0,0,0,1.764-1.654,2.813,2.813,0,0,0,.591-1.643,2,2,0,0,0-.015-.24.537.537,0,0,0-.217-.44.924.924,0,0,0-.456-.1.563.563,0,0,0-.389.147.485.485,0,0,0-.164.387,1.619,1.619,0,0,0,.015.24.908.908,0,0,0,.03.145c.01.031.031.084.063.16s.059.138.079.187l-2.459.48c-.016-.053-.042-.136-.079-.249s-.061-.188-.071-.227l-.048-.181a1.21,1.21,0,0,1-.042-.2c0-.051-.011-.115-.018-.191s-.011-.155-.011-.237v-.049a2.674,2.674,0,0,1,.134-.867,2.075,2.075,0,0,1,1.424-1.292,4.913,4.913,0,0,1,1.461-.191,4.206,4.206,0,0,1,2.576.677,2.246,2.246,0,0,1,.893,1.9,3.983,3.983,0,0,1-.751,2.22,4.477,4.477,0,0,1-1.805,1.624v1.236Zm-.067,2.719v-2.116h2.654v2.116Z" transform="translate(-482.709 -171.779)" fill="#00223d"/>
        </g>
      </g>
    </g>
  </g>
</svg>
