<svg id="Grupo_28812" data-name="Grupo 28812" xmlns="http://www.w3.org/2000/svg" width="472.401" height="512.563" viewBox="0 0 472.401 512.563">
  <g id="Grupo_28795" data-name="Grupo 28795" transform="translate(221.691 480.902)">
    <path id="Trazado_68612" data-name="Trazado 68612" d="M1777.653,1699.586s-8.314,8.731-16.753,10.56-14.343,4.16-14.408,9.171,24.29,8.311,33.948,3.262c14.415-7.54,15.881-5.266,17.478-9.034S1796,1699.7,1796.1,1698.5C1796.231,1697.022,1777.653,1699.586,1777.653,1699.586Z" transform="translate(-1746.491 -1698.043)" fill="#61a3a3"/>
  </g>
  <g id="Grupo_28796" data-name="Grupo 28796" transform="translate(252.837 475.808)">
    <path id="Trazado_68613" data-name="Trazado 68613" d="M1782.788,1694.723a34.34,34.34,0,0,0-.936,4.178c.164.085,19.019,2.2,18.45-1.085-.464-2.661-1.124-5.553-1.124-5.553Z" transform="translate(-1781.836 -1692.264)" fill="#2f6b8c"/>
  </g>
  <g id="Grupo_28797" data-name="Grupo 28797" transform="translate(318.777 484.11)">
    <path id="Trazado_68614" data-name="Trazado 68614" d="M1884.659,1702.3s-6.115,8.5-14.3,10.465c-8.065,1.933-13.293,5.615-13.688,10.482s19.018,11.246,32.656,2.694c8.961-5.62,12.3-5.3,14.11-8.87s-.946-13.58-.765-14.739C1902.9,1700.9,1884.659,1702.3,1884.659,1702.3Z" transform="translate(-1856.67 -1701.685)" fill="#61a3a3"/>
  </g>
  <g id="Grupo_28798" data-name="Grupo 28798" transform="translate(346.733 478.981)">
    <path id="Trazado_68615" data-name="Trazado 68615" d="M1888.68,1697.4a37.505,37.505,0,0,0-.251,4.205c.154.091,18.126,3.274,18.018.033a25.064,25.064,0,0,0-1.139-5.775Z" transform="translate(-1888.395 -1695.863)" fill="#2f6b8c"/>
  </g>
  <g id="Grupo_28799" data-name="Grupo 28799" transform="translate(252.052 214.497)">
    <path id="Trazado_68616" data-name="Trazado 68616" d="M1801.7,1413.86s-8.731,63.43-12.3,84.872c-4.169,25.072-5.583,45.788-6.746,58.764-1.462,16.322-.651,99.849-1.675,104.62s20.649,2.293,20.649,2.293,15.893-108.891,20.25-126.272c4.057-16.186,15.214-82.912,18.916-78.493s15.687,80.43,18.429,93.2,13.81,113.252,13.81,113.252,18.421,4,23.447,0c0,0-1.123-89.6-2.87-113.536-.665-9.122,5.771-109.189-9.652-149.542C1875.808,1381.689,1801.7,1413.86,1801.7,1413.86Z" transform="translate(-1780.946 -1395.712)" fill="#00223d"/>
  </g>
  <path id="Trazado_68617" data-name="Trazado 68617" d="M1803.509,1419.745l-.986,9.524s26.6,10.778,91.371,10.784v-10.9Z" transform="translate(-1531.459 -1184.071)" fill="#61a3a3"/>
  <g id="Grupo_28802" data-name="Grupo 28802" transform="translate(165.576 115.817)">
    <g id="Grupo_28801" data-name="Grupo 28801">
      <g id="Grupo_28800" data-name="Grupo 28800">
        <path id="Trazado_68618" data-name="Trazado 68618" d="M1714.674,1283.724s-3.876,8.554-6.173,9.088-5.031,3.39-7,4.267-8.167,1.36-9.831,2.984c-.679.664-3.28,6.369-4.806,7.568s-4.9,3.254-3.857,4.537,4.562.268,4.562.268a2.513,2.513,0,0,0-.753,2.6c1.108,2.76,2.961,2.88,2.961,2.88s-.589,2.075.161,3.1a4.985,4.985,0,0,0,3.452,2.33,4.744,4.744,0,0,0,1.6,2.853,4.235,4.235,0,0,0,4.119.678s1.843,2.542,3.542,2.046,2.688-1.77,3.9-2.515,9.686-10.517,12.8-19.657a70,70,0,0,1,8.542-16.564Z" transform="translate(-1682.808 -1283.724)" fill="#eea886"/>
      </g>
    </g>
  </g>
  <g id="Grupo_28803" data-name="Grupo 28803" transform="translate(199.2 85.931)">
    <path id="Trazado_68619" data-name="Trazado 68619" d="M1720.966,1322.949s30.1,13.7,40.8,11.063c4.945-1.216,11.458-8.043,17.647-16.067,2.04-2.643,4.043-5.417,5.945-8.163a.017.017,0,0,0,.006-.012c7.594-10.963,13.544-21.474,13.544-21.474s22.447-26.3,4.433-38.03c0,0-6.535-2.45-12.538,3.985s-13.056,19.894-14.631,23.325-23.621,35.229-24.763,35.946-10.779-1.818-18.5-2.462c-12.6-1.049-10.1-1.582-10.1-1.582Z" transform="translate(-1720.966 -1249.807)" fill="#8ec8c8"/>
  </g>
  <path id="Trazado_68620" data-name="Trazado 68620" d="M1828.936,1243.564s-23.108,4.778-25.848,7.206c-2.977,2.583-8.225,27.892-8.54,34.941s2.787,36.5,5.762,47.464-3.919,57.646,1.6,65.34c0,0,47.625,15.277,93.37,9.324,0,0-9.82-44.054-7.99-59.079,2.345-19.251,7.99-63.6,7.99-63.6s-6.113-29.865-10.184-33.311-32.387-9.053-32.387-9.053Z" transform="translate(-1530.507 -1163.043)" fill="#8ec8c8"/>
  <path id="Trazado_68621" data-name="Trazado 68621" d="M1891.97,1312.064s4.364,28.4,4.057,30.22S1915.783,1336.58,1891.97,1312.064Z" transform="translate(-1542.088 -1171.275)" fill="#61a3a3"/>
  <g id="Grupo_28804" data-name="Grupo 28804" transform="translate(0 2.992)">
    <path id="Trazado_68622" data-name="Trazado 68622" d="M1996.517,1478.543l20.072-33.316a11.932,11.932,0,0,0-4.063-16.38l-50.3-30.3a11.934,11.934,0,0,0-16.38,4.063l-20.073,33.315a11.933,11.933,0,0,0,4.062,16.379l50.3,30.305A11.935,11.935,0,0,0,1996.517,1478.543Z" transform="translate(-1545.901 -1184.339)" fill="#c4b4af"/>
    <rect id="Rectángulo_26449" data-name="Rectángulo 26449" width="67.259" height="400.929" transform="translate(441.378 226.672) rotate(121.07)" fill="#7acff7"/>
    <rect id="Rectángulo_26450" data-name="Rectángulo 26450" width="22.42" height="400.929" transform="translate(86.395 38.966) rotate(-58.931)" fill="#f6c343"/>
    <rect id="Rectángulo_26451" data-name="Rectángulo 26451" width="22.42" height="400.928" transform="translate(429.809 245.873) rotate(121.069)" fill="#f6c343"/>
    <rect id="Rectángulo_26452" data-name="Rectángulo 26452" width="22.42" height="400.928" transform="matrix(-0.516, 0.857, -0.857, -0.516, 418.236, 265.08)" fill="#f6c343"/>
    <path id="Trazado_68623" data-name="Trazado 68623" d="M1558.156,1233.055l34.712-57.609-77.926-15.718-20.04-4.044,12.94,15.826Z" transform="translate(-1494.902 -1155.684)" fill="#eddad3"/>
    <path id="Trazado_68624" data-name="Trazado 68624" d="M1592.948,1197.315a11.216,11.216,0,0,0,11.57-19.2Z" transform="translate(-1506.553 -1158.349)" fill="#deccc6"/>
    <path id="Trazado_68625" data-name="Trazado 68625" d="M1579.816,1219.107a11.216,11.216,0,0,0,11.571-19.205Z" transform="translate(-1504.993 -1160.938)" fill="#e3d1ca"/>
    <path id="Trazado_68626" data-name="Trazado 68626" d="M1566.688,1240.9a11.216,11.216,0,0,0,11.57-19.2Z" transform="translate(-1503.434 -1163.528)" fill="#eddad3"/>
    <rect id="Rectángulo_26453" data-name="Rectángulo 26453" width="22.421" height="24.637" transform="matrix(0.516, -0.857, 0.857, 0.516, 420.515, 240.276)" fill="#b39696"/>
    <rect id="Rectángulo_26454" data-name="Rectángulo 26454" width="22.42" height="24.636" transform="translate(441.618 252.99) rotate(121.07)" fill="#dbb8b8"/>
    <rect id="Rectángulo_26455" data-name="Rectángulo 26455" width="22.42" height="24.636" transform="translate(430.048 272.193) rotate(121.067)" fill="#f2cbcb"/>
    <path id="Trazado_68627" data-name="Trazado 68627" d="M1581.3,1194.647l-86.4-38.964,97.967,19.761Z" transform="translate(-1494.902 -1155.684)" fill="#deccc6"/>
    <path id="Trazado_68628" data-name="Trazado 68628" d="M1569.727,1213.852l-74.825-58.168,86.4,38.964Z" transform="translate(-1494.902 -1155.684)" fill="#e3d1ca"/>
    <path id="Trazado_68629" data-name="Trazado 68629" d="M1569.727,1213.852l-74.825-58.168,63.255,77.373Z" transform="translate(-1494.902 -1155.684)" fill="#eddad3"/>
    <path id="Trazado_68630" data-name="Trazado 68630" d="M1507.842,1171.51l7.1-11.782-20.04-4.044Z" transform="translate(-1494.902 -1155.684)" fill="#00223d"/>
  </g>
  <g id="Grupo_28809" data-name="Grupo 28809" transform="translate(292.329 209.596)">
    <g id="Grupo_28808" data-name="Grupo 28808">
      <g id="Grupo_28807" data-name="Grupo 28807">
        <g id="Grupo_28806" data-name="Grupo 28806">
          <g id="Grupo_28805" data-name="Grupo 28805">
            <path id="Trazado_68631" data-name="Trazado 68631" d="M1836.87,1416.8a9.754,9.754,0,0,0,3.029-.716s1.553-1.1,2.706-1.81a9.077,9.077,0,0,1,.913-.513,17.806,17.806,0,0,0,5.032-2.679c1.946-1.622,8.535-10.786,8.535-10.786l-3.943-4.966-3.027-5.176s-15.338,2.374-17.326,3.677a6.448,6.448,0,0,0-.544.4c-1.575,1.267-2.217,2.873-2.965,3.63-.276.281-2.813,3.252-2.614,4.4a3.823,3.823,0,0,0,2.134,3.035s.678,3.1,2.357,4.429a5.673,5.673,0,0,0,3.091,3.938S1835.118,1416.526,1836.87,1416.8Z" transform="translate(-1826.654 -1390.149)" fill="#eea886"/>
          </g>
        </g>
      </g>
    </g>
  </g>
  <path id="Trazado_68632" data-name="Trazado 68632" d="M1879.156,1252.189c-3.03,1.173-6.24,8.5-3.855,22.881,2.562,15.425,7.656,22.015,9.7,25.62s13.306,25.831,11.282,28.755-21.138,21.782-22.245,23.318-22.447,20.855-22.447,20.855l10.866,15.183s46.086-36,49.68-39.59,14.343-11.144,10.367-23.7c-4.041-12.761-11.3-42.633-12.59-44.969S1899.19,1244.431,1879.156,1252.189Z" transform="translate(-1537.29 -1164.022)" fill="#8ec8c8"/>
  <g id="Grupo_28811" data-name="Grupo 28811" transform="translate(169.21 135.316)">
    <g id="Grupo_28810" data-name="Grupo 28810">
      <path id="Trazado_68633" data-name="Trazado 68633" d="M1688.528,1313.935s7.388-8.232,11.073-8.08,1.178,3.266,1.178,3.266,2.428-3.123,5.054-1.475-.5,5.144-.5,5.144a3.046,3.046,0,0,1,4.4.714c1.944,2.594-1.287,4.909-1.287,4.909s4.88-.726,3.841,3.26c-1.755,6.73-9.02,9.943-9.02,9.943s-2.076.811-3.773-1.82c0,0-4.591,1.722-5.856-3.562,0,0-5.505-1.274-3.818-5.537C1689.826,1320.7,1684.291,1318.566,1688.528,1313.935Z" transform="translate(-1686.931 -1305.853)" fill="#eea886"/>
    </g>
  </g>
  <path id="Trazado_68634" data-name="Trazado 68634" d="M1821.706,1245.24s-1.389-6.32,18.4-7.786,33.172,2.981,33.547,8.658-50.129,19.851-50.129,19.851Z" transform="translate(-1533.737 -1162.375)" fill="#61a3a3"/>
  <path id="Trazado_68635" data-name="Trazado 68635" d="M1840.892,1162.406s-27.8-10.285-26.057,26.652,8.248,40.692,26.535,35.532,19.815-28.47,22.2-39.685S1849.98,1164.018,1840.892,1162.406Z" transform="translate(-1532.912 -1153.334)" fill="#eea886"/>
  <path id="Trazado_68636" data-name="Trazado 68636" d="M1828.383,1245.067s6.661,2.935,28.35-6.619c0,0-.613-14.87,3.643-28.758s-29.106,18.517-29.106,18.517c.35.247.418,1.635.217,3.572a39.438,39.438,0,0,1-1.07,5.737C1829.2,1242.162,1829.482,1241.337,1828.383,1245.067Z" transform="translate(-1534.531 -1158.698)" fill="#eea886"/>
  <path id="Trazado_68637" data-name="Trazado 68637" d="M1859.6,1202.179s.08-9.868-4.023-10.775-6.217,4.8-6.217,4.8l-3.3-.177s2.952-10-.96-12.291-27.314-.281-30.25-3.646,1.32-23.361,7.708-25.322,23.824-5.944,34.9,3.92c0,0,9.513,4.109,9.9,11.954S1862.943,1196.828,1859.6,1202.179Z" transform="translate(-1532.81 -1152.288)" fill="#163342"/>
  <path id="Trazado_68638" data-name="Trazado 68638" d="M1830.69,1239.571c21.544-3.621,24.763-15.873,24.813-16.064-8.376,10.8-23.744,10.325-23.744,10.325A39.274,39.274,0,0,1,1830.69,1239.571Z" transform="translate(-1534.804 -1160.75)" fill="#b07c63"/>
  <path id="Trazado_68639" data-name="Trazado 68639" d="M1855.611,1191.643c1.227-3.254,8.161-2.845,7.45,2.316s-6.441,13.107-8.74,11.616S1853.916,1196.131,1855.611,1191.643Z" transform="translate(-1537.486 -1156.717)" fill="#eea886"/>
</svg>
