<svg id="Grupo_57027" data-name="Grupo 57027" xmlns="http://www.w3.org/2000/svg" xmlns:xlink="http://www.w3.org/1999/xlink" width="124.767" height="124.767" viewBox="0 0 124.767 124.767">
  <defs>
    <radialGradient id="radial-gradient" cx="0.076" cy="0.019" r="1.465" gradientTransform="translate(0.001)" gradientUnits="objectBoundingBox">
      <stop offset="0" stop-color="#f6f6f7"/>
      <stop offset="0.477" stop-color="#f9f9fa"/>
      <stop offset="0.715" stop-color="#fff"/>
    </radialGradient>
  </defs>
  <g id="Grupo_18531" data-name="Grupo 18531" transform="translate(0 0)">
    <g id="Grupo_18423" data-name="Grupo 18423">
      <g id="Grupo_18421" data-name="Grupo 18421">
        <g id="Grupo_18420" data-name="Grupo 18420">
          <g id="Grupo_18419" data-name="Grupo 18419">
            <path id="Trazado_40936" data-name="Trazado 40936" d="M319.39,2208.1a62.384,62.384,0,1,1-62.383-62.382A62.383,62.383,0,0,1,319.39,2208.1Z" transform="translate(-194.623 -2145.721)" fill="#fff"/>
          </g>
        </g>
      </g>
      <path id="Trazado_40937" data-name="Trazado 40937" d="M318.65,2207.3a62.382,62.382,0,1,0-62.383,62.385A62.136,62.136,0,0,0,318.65,2207.3Z" transform="translate(-193.883 -2144.915)" fill="url(#radial-gradient)"/>
      <path id="Trazado_40938" data-name="Trazado 40938" d="M297.307,2200.746a47.617,47.617,0,1,0-47.617,47.617A47.44,47.44,0,0,0,297.307,2200.746Z" transform="translate(-187.117 -2138.156)" fill="none" stroke="#7d6eb2" stroke-miterlimit="10" stroke-width="4"/>
      <g id="Grupo_18422" data-name="Grupo 18422" transform="translate(11.052 35.024)">
        <path id="Trazado_40939" data-name="Trazado 40939" d="M307.953,2164.488a62.391,62.391,0,0,1-107.408,62.125,62.193,62.193,0,0,0,107.408-62.125Z" transform="translate(-200.545 -2164.488)" fill="#eceef0"/>
      </g>
    </g>
  </g>
  <g id="Grupo_28523" data-name="Grupo 28523" transform="translate(28.433 36.982)">
    <path id="Trazado_67929" data-name="Trazado 67929" d="M383.165,254.5a.891.891,0,0,1-.442-.118c-.144-.082-14.593-8.233-28.994-5.229a.89.89,0,0,1-1.071-.871v-33.57a.889.889,0,0,1,.708-.871A33.677,33.677,0,0,1,358,213.21a.889.889,0,1,1,.118,1.775,32.178,32.178,0,0,0-3.681.455V247.2c13.422-2.33,26.174,4.015,28.729,5.388,2.555-1.373,15.307-7.72,28.73-5.388V215.44c-14.181-2.6-28.145,5.286-28.287,5.367a.889.889,0,1,1-.885-1.543c.612-.352,15.165-8.57,30.243-5.428a.889.889,0,0,1,.708.871v33.57a.89.89,0,0,1-1.071.871c-14.42-3.006-28.851,5.147-28.994,5.229A.893.893,0,0,1,383.165,254.5Z" transform="translate(-348.794 -209.435)" fill="#00223d"/>
    <path id="Trazado_67930" data-name="Trazado 67930" d="M435.338,223.762a.89.89,0,0,1-.169-1.763,40.533,40.533,0,0,1,12.662-.569.89.89,0,1,1-.217,1.766,38.67,38.67,0,0,0-12.1.55A.928.928,0,0,1,435.338,223.762Z" transform="translate(-386.344 -213.128)" fill="#00223d"/>
    <path id="Trazado_67931" data-name="Trazado 67931" d="M451.889,231.23a.961.961,0,0,1-.11-.007,35.867,35.867,0,0,0-7.293-.121.89.89,0,1,1-.145-1.773,37.67,37.67,0,0,1,7.655.129.889.889,0,0,1-.108,1.772Z" transform="translate(-390.51 -216.813)" fill="#00223d"/>
    <path id="Trazado_67932" data-name="Trazado 67932" d="M388.362,270a.888.888,0,0,1-.336-.066,51.5,51.5,0,0,0-13.045-3.46.889.889,0,1,1,.21-1.766,53.25,53.25,0,0,1,13.507,3.579.89.89,0,0,1-.336,1.713Z" transform="translate(-358.683 -233.114)" fill="#00223d"/>
    <path id="Trazado_67933" data-name="Trazado 67933" d="M388.113,258.871a.888.888,0,0,1-.332-.064,51.423,51.423,0,0,0-12.8-3.361.889.889,0,0,1,.21-1.766,53.2,53.2,0,0,1,13.253,3.476.889.889,0,0,1-.332,1.715Z" transform="translate(-358.683 -228.051)" fill="#00223d"/>
    <path id="Trazado_67934" data-name="Trazado 67934" d="M408.3,281.632a.889.889,0,0,1-.889-.889v-7.621a.89.89,0,1,1,1.779,0v7.621A.889.889,0,0,1,408.3,281.632Z" transform="translate(-373.932 -236.571)" fill="#00223d"/>
    <path id="Trazado_67935" data-name="Trazado 67935" d="M413.368,258.646H346.4a.89.89,0,0,1-.889-.889V217.925a.889.889,0,0,1,.889-.889h3.863a.889.889,0,1,1,0,1.779h-2.974v38.052h65.186V218.815h-2.974a.889.889,0,0,1,0-1.779h3.863a.889.889,0,0,1,.889.889v39.831A.89.89,0,0,1,413.368,258.646Z" transform="translate(-345.515 -211.231)" fill="#00223d"/>
    <path id="Trazado_67936" data-name="Trazado 67936" d="M415.017,251.578c-.029,0-.058,0-.088,0l-4.159-.412a.891.891,0,0,1-.8-.974l.238-2.4a10.2,10.2,0,0,1-1.764-.944l-1.863,1.528a.889.889,0,0,1-1.252-.124l-2.649-3.232a.89.89,0,0,1,.124-1.252l1.863-1.527a10.145,10.145,0,0,1-.579-1.915l-2.4-.237a.889.889,0,0,1-.8-.973l.412-4.158a.891.891,0,0,1,.973-.8l2.4.238a10.161,10.161,0,0,1,.944-1.764l-1.527-1.863a.89.89,0,0,1,.124-1.252l3.231-2.649a.89.89,0,0,1,1.252.124l1.527,1.863a10.187,10.187,0,0,1,1.914-.58l.237-2.4a.9.9,0,0,1,.973-.8l4.158.412a.889.889,0,0,1,.8.973l-.237,2.4a10.108,10.108,0,0,1,1.764.944l1.863-1.528a.891.891,0,0,1,1.252.124l2.649,3.231a.891.891,0,0,1-.124,1.252l-1.864,1.528a10.163,10.163,0,0,1,.58,1.914l2.4.237a.889.889,0,0,1,.8.973l-.412,4.158a.893.893,0,0,1-.973.8l-2.4-.237a10.133,10.133,0,0,1-.944,1.763l1.527,1.863a.889.889,0,0,1-.124,1.252l-3.231,2.649a.89.89,0,0,1-1.252-.124l-1.528-1.863a10.2,10.2,0,0,1-1.915.58l-.237,2.4a.889.889,0,0,1-.885.8Zm-3.185-2.1,2.388.237.217-2.193a.89.89,0,0,1,.774-.795,8.4,8.4,0,0,0,2.7-.818.89.89,0,0,1,1.085.232l1.4,1.7,1.856-1.52-1.4-1.7a.89.89,0,0,1-.014-1.109,8.39,8.39,0,0,0,1.332-2.487.889.889,0,0,1,.931-.6l2.193.217.237-2.388-2.193-.217a.891.891,0,0,1-.795-.775,8.4,8.4,0,0,0-.817-2.7.889.889,0,0,1,.232-1.085l1.7-1.4-1.521-1.855-1.7,1.4a.888.888,0,0,1-1.109.015,8.408,8.408,0,0,0-2.489-1.333.889.889,0,0,1-.6-.931l.217-2.193-2.388-.236-.217,2.192a.889.889,0,0,1-.774.8,8.4,8.4,0,0,0-2.7.818.889.889,0,0,1-1.085-.232l-1.4-1.7-1.856,1.521,1.4,1.7a.89.89,0,0,1,.015,1.109,8.4,8.4,0,0,0-1.332,2.489.893.893,0,0,1-.931.6l-2.192-.217-.236,2.388,2.192.216a.89.89,0,0,1,.795.775,8.385,8.385,0,0,0,.818,2.7.89.89,0,0,1-.233,1.086l-1.7,1.4,1.521,1.856,1.7-1.4a.888.888,0,0,1,1.109-.015,8.39,8.39,0,0,0,2.488,1.332.89.89,0,0,1,.6.932Z" transform="translate(-370.938 -214.923)" fill="#00223d"/>
    <path id="Trazado_67937" data-name="Trazado 67937" d="M419.1,250.695c-.244,0-.488-.011-.736-.036a7.419,7.419,0,1,1,.736.036Zm-.009-13.051a5.639,5.639,0,1,0,.559.028A5.574,5.574,0,0,0,419.09,237.644Z" transform="translate(-375.89 -219.875)" fill="#00223d"/>
    <path id="Trazado_67938" data-name="Trazado 67938" d="M376.9,228.686a.89.89,0,0,1-.868-.7l-.413-1.85a8.685,8.685,0,0,1-1.452-.254l-1.016,1.6a.89.89,0,0,1-1.227.274l-2.936-1.865a.889.889,0,0,1-.274-1.228l1.016-1.6a8.592,8.592,0,0,1-.846-1.205l-1.85.412a.889.889,0,0,1-1.062-.675l-.757-3.395a.889.889,0,0,1,.674-1.061l1.85-.413a8.57,8.57,0,0,1,.254-1.451l-1.6-1.016a.89.89,0,0,1-.274-1.228l1.865-2.936a.888.888,0,0,1,1.227-.274l1.6,1.016a8.594,8.594,0,0,1,1.206-.847l-.412-1.85a.89.89,0,0,1,.674-1.062l3.395-.757a.889.889,0,0,1,1.062.674l.413,1.85a8.615,8.615,0,0,1,1.451.254l1.016-1.6a.889.889,0,0,1,1.228-.274l2.936,1.865a.889.889,0,0,1,.274,1.227l-1.016,1.6a8.64,8.64,0,0,1,.847,1.206l1.85-.412a.889.889,0,0,1,1.061.674l.758,3.394a.89.89,0,0,1-.674,1.062l-1.85.413a8.615,8.615,0,0,1-.254,1.451l1.6,1.017a.889.889,0,0,1,.274,1.227l-1.865,2.936a.89.89,0,0,1-1.228.273l-1.6-1.016a8.518,8.518,0,0,1-1.206.847l.413,1.851a.889.889,0,0,1-.674,1.061l-3.394.757A.888.888,0,0,1,376.9,228.686Zm-3.118-4.739a.88.88,0,0,1,.3.052,6.824,6.824,0,0,0,2.264.4.889.889,0,0,1,.864.7l.367,1.645,1.658-.37-.367-1.645a.889.889,0,0,1,.486-1,6.829,6.829,0,0,0,1.882-1.321.888.888,0,0,1,1.1-.118l1.423.9.911-1.434-1.422-.9a.889.889,0,0,1-.361-1.049,6.836,6.836,0,0,0,.4-2.264.89.89,0,0,1,.7-.864l1.645-.367-.37-1.658-1.644.366a.89.89,0,0,1-1-.486,6.849,6.849,0,0,0-1.321-1.882.89.89,0,0,1-.119-1.1l.9-1.422-1.434-.911-.9,1.422a.887.887,0,0,1-1.048.361,6.843,6.843,0,0,0-2.265-.4.89.89,0,0,1-.864-.7l-.367-1.645-1.658.37.367,1.644a.891.891,0,0,1-.486,1,6.832,6.832,0,0,0-1.882,1.321.889.889,0,0,1-1.1.118l-1.422-.9-.911,1.434,1.422.9a.889.889,0,0,1,.361,1.049,6.832,6.832,0,0,0-.4,2.264.89.89,0,0,1-.7.864l-1.644.367.37,1.658,1.644-.367a.891.891,0,0,1,1,.486,6.831,6.831,0,0,0,1.32,1.881.889.889,0,0,1,.119,1.1l-.9,1.423,1.435.911.9-1.422A.889.889,0,0,1,373.782,223.946Z" transform="translate(-354.55 -206.305)" fill="#00223d"/>
    <path id="Trazado_67939" data-name="Trazado 67939" d="M380.509,227.946a6.319,6.319,0,1,1,5.345-2.93A6.282,6.282,0,0,1,380.509,227.946Zm.019-10.862a4.576,4.576,0,0,0-1,.11,4.52,4.52,0,1,0,1-.11Z" transform="translate(-358.684 -210.436)" fill="#00223d"/>
  </g>
</svg>
