<svg xmlns="http://www.w3.org/2000/svg" width="238.188" height="260.538" viewBox="0 0 238.188 260.538">
  <g id="Grupo_11787" data-name="Grupo 11787" transform="translate(-1005.404 -1510.137)">
    <g id="Grupo_11764" data-name="Grupo 11764" transform="translate(1005.404 1510.137)">
      <g id="Grupo_11762" data-name="Grupo 11762" transform="translate(6.809)">
        <g id="Grupo_11750" data-name="Grupo 11750">
          <path id="Trazado_15197" data-name="Trazado 15197" d="M1244.345,1520.725c-76.552-44.708-154.029,69.481-231.38,24.444l7.749,132.5c71.781,38.923,143.667-59.441,214.761-21.007Z" transform="translate(-1012.965 -1510.137)" fill="#fff"/>
          <g id="Grupo_11749" data-name="Grupo 11749">
            <path id="Trazado_15198" data-name="Trazado 15198" d="M1244.345,1520.725c-76.552-44.708-154.029,69.481-231.38,24.444l.634,10.837c76.895,44.521,153.914-68.328,230.02-24.152Z" transform="translate(-1012.965 -1510.137)" fill="#cf2a2a"/>
            <g id="Grupo_11743" data-name="Grupo 11743" transform="translate(1.27 22.542)">
              <path id="Trazado_15199" data-name="Trazado 15199" d="M1243.031,1545.5c-75.657-43.647-152.218,67.868-228.656,23.862l.619,10.586c75.993,43.507,152.107-66.714,227.328-23.582Z" transform="translate(-1014.375 -1535.169)" fill="#cf2a2a"/>
            </g>
            <g id="Grupo_11744" data-name="Grupo 11744" transform="translate(2.51 44.552)">
              <path id="Trazado_15200" data-name="Trazado 15200" d="M1241.748,1569.7c-74.785-42.622-150.45,66.311-226,23.3l.6,10.344c75.112,42.527,150.34-65.158,224.7-23.031Z" transform="translate(-1015.752 -1559.61)" fill="#cf2a2a"/>
            </g>
            <g id="Grupo_11745" data-name="Grupo 11745" transform="translate(3.721 66.05)">
              <path id="Trazado_15201" data-name="Trazado 15201" d="M1240.494,1593.335c-73.93-41.633-148.722,64.807-223.4,22.761l.592,10.109c74.25,41.581,148.614-63.654,222.129-22.5Z" transform="translate(-1017.097 -1583.483)" fill="#cf2a2a"/>
            </g>
            <g id="Grupo_11746" data-name="Grupo 11746" transform="translate(4.905 87.053)">
              <path id="Trazado_15202" data-name="Trazado 15202" d="M1239.269,1616.43c-73.1-40.678-147.033,63.354-220.857,22.238l.578,9.883c73.409,40.666,146.928-62.2,219.617-21.985Z" transform="translate(-1018.412 -1606.807)" fill="#cf2a2a"/>
            </g>
            <g id="Grupo_11747" data-name="Grupo 11747" transform="translate(6.063 107.579)">
              <path id="Trazado_15203" data-name="Trazado 15203" d="M1238.073,1639c-72.281-39.755-145.382,61.949-218.375,21.732l.566,9.664c72.586,39.781,145.279-60.8,217.161-21.488Z" transform="translate(-1019.698 -1629.599)" fill="#cf2a2a"/>
            </g>
            <g id="Grupo_11748" data-name="Grupo 11748" transform="translate(7.196 127.642)">
              <path id="Trazado_15204" data-name="Trazado 15204" d="M1236.9,1661.07c-71.484-38.865-143.768,60.589-215.946,21.244l.552,9.452c71.782,38.923,143.667-59.441,214.762-21.007Z" transform="translate(-1020.956 -1651.879)" fill="#cf2a2a"/>
            </g>
          </g>
        </g>
        <path id="Trazado_15205" data-name="Trazado 15205" d="M1124.991,1538.5c-37.227,16.672-73.841,31.72-112.026,9.487q2.226,38.075,4.334,74.122c36.629,20.509,71.809,6.633,107.555-8.728Q1124.92,1576.959,1124.991,1538.5Z" transform="translate(-1012.965 -1512.959)" fill="#2c4a8a"/>
        <g id="Grupo_11761" data-name="Grupo 11761" transform="translate(7.835 35.456)">
          <g id="Grupo_11755" data-name="Grupo 11755">
            <g id="Grupo_11751" data-name="Grupo 11751">
              <path id="Trazado_15206" data-name="Trazado 15206" d="M1025.493,1560.446q.674,1.432,1.348,2.849,1.375.712,2.748,1.364-.94.584-1.879,1.138.3,1.383.6,2.762-1.25-1.052-2.5-2.151-1.19.124-2.382.2.163-1.2.329-2.394-1.042-1.348-2.087-2.729,1.366.446,2.727.829Q1024.943,1561.387,1025.493,1560.446Z" transform="translate(-1021.665 -1550.598)" fill="#fff"/>
              <path id="Trazado_15207" data-name="Trazado 15207" d="M1045.41,1565.793q.652,1.266,1.3,2.521,1.352.359,2.7.671-.932.827-1.866,1.628.284,1.318.566,2.631-1.224-.74-2.45-1.52-1.175.439-2.35.838.173-1.25.346-2.5-1.014-1.079-2.031-2.187,1.34.074,2.678.1Q1044.859,1566.888,1045.41,1565.793Z" transform="translate(-1023.651 -1551.13)" fill="#fff"/>
              <path id="Trazado_15208" data-name="Trazado 15208" d="M1065.067,1566.415q.635,1.136,1.271,2.264,1.339.076,2.676.114-.935,1.025-1.869,2.029.269,1.27.538,2.536-1.209-.493-2.419-1.016-1.17.694-2.34,1.357.182-1.3.366-2.6-1-.864-1.994-1.752,1.329-.228,2.656-.5Q1064.508,1567.638,1065.067,1566.415Z" transform="translate(-1025.607 -1551.192)" fill="#fff"/>
              <path id="Trazado_15209" data-name="Trazado 15209" d="M1084.619,1563.285q.624,1.04,1.247,2.074,1.336-.142,2.671-.312-.943,1.179-1.886,2.343l.513,2.472q-1.2-.3-2.4-.63-1.174.894-2.346,1.765.193-1.341.389-2.685-.985-.7-1.971-1.421,1.326-.465,2.652-.96Q1084.051,1564.611,1084.619,1563.285Z" transform="translate(-1027.551 -1550.88)" fill="#fff"/>
              <path id="Trazado_15210" data-name="Trazado 15210" d="M1104.191,1557.34q.616.977,1.229,1.947,1.339-.3,2.678-.611-.957,1.291-1.91,2.57.244,1.22.489,2.436-1.2-.173-2.4-.36-1.183,1.04-2.366,2.064.208-1.376.416-2.757-.979-.586-1.96-1.183,1.332-.64,2.664-1.3Q1103.611,1558.745,1104.191,1557.34Z" transform="translate(-1029.494 -1550.289)" fill="#fff"/>
              <path id="Trazado_15211" data-name="Trazado 15211" d="M1123.869,1549.51q.606.942,1.214,1.88,1.347-.386,2.7-.783-.972,1.358-1.943,2.709.235,1.214.468,2.426-1.2-.1-2.407-.206-1.2,1.132-2.394,2.253l.443-2.812q-.977-.519-1.954-1.043,1.343-.751,2.685-1.515Q1123.272,1550.968,1123.869,1549.51Z" transform="translate(-1031.446 -1549.51)" fill="#fff"/>
            </g>
            <g id="Grupo_11752" data-name="Grupo 11752" transform="translate(0.801 14.839)">
              <path id="Trazado_15212" data-name="Trazado 15212" d="M1026.352,1576.748q.67,1.41,1.336,2.805,1.366.7,2.726,1.342-.932.576-1.864,1.121.3,1.36.593,2.717-1.24-1.035-2.483-2.117-1.181.123-2.363.2.164-1.175.327-2.355-1.032-1.327-2.069-2.686,1.355.438,2.705.816Q1025.8,1577.675,1026.352,1576.748Z" transform="translate(-1022.554 -1567.058)" fill="#fff"/>
              <path id="Trazado_15213" data-name="Trazado 15213" d="M1046.11,1582.011q.647,1.247,1.292,2.482,1.341.353,2.68.659-.927.814-1.852,1.6.281,1.3.561,2.59-1.214-.729-2.43-1.5-1.166.431-2.331.824.171-1.231.344-2.463-1.006-1.063-2.014-2.152,1.329.073,2.657.1Q1045.563,1583.088,1046.11,1582.011Z" transform="translate(-1024.524 -1567.582)" fill="#fff"/>
              <path id="Trazado_15214" data-name="Trazado 15214" d="M1065.609,1582.623q.631,1.12,1.26,2.23,1.329.074,2.656.112-.928,1.009-1.855,2,.267,1.25.533,2.5-1.2-.485-2.4-1-1.16.682-2.322,1.334.182-1.278.364-2.559-.987-.852-1.977-1.725,1.318-.224,2.635-.487Q1065.056,1583.827,1065.609,1582.623Z" transform="translate(-1026.465 -1567.643)" fill="#fff"/>
              <path id="Trazado_15215" data-name="Trazado 15215" d="M1085.007,1579.544q.62,1.024,1.236,2.042,1.325-.14,2.65-.308-.936,1.162-1.87,2.306.254,1.217.508,2.432-1.193-.3-2.385-.62-1.165.881-2.329,1.736.195-1.319.387-2.643-.977-.69-1.955-1.4,1.316-.458,2.631-.945Q1084.443,1580.849,1085.007,1579.544Z" transform="translate(-1028.393 -1567.337)" fill="#fff"/>
              <path id="Trazado_15216" data-name="Trazado 15216" d="M1104.425,1573.694q.609.96,1.219,1.916,1.329-.293,2.657-.6-.948,1.27-1.9,2.53.243,1.2.485,2.4-1.191-.17-2.383-.355-1.174,1.024-2.347,2.031.207-1.355.412-2.713-.971-.578-1.943-1.165,1.321-.63,2.642-1.28Q1103.849,1575.077,1104.425,1573.694Z" transform="translate(-1030.321 -1566.755)" fill="#fff"/>
              <path id="Trazado_15217" data-name="Trazado 15217" d="M1123.946,1565.988q.6.927,1.2,1.851,1.336-.382,2.673-.771-.965,1.336-1.927,2.665.232,1.2.464,2.387-1.194-.1-2.388-.2-1.187,1.113-2.374,2.217.219-1.382.439-2.767-.968-.511-1.938-1.027,1.33-.74,2.663-1.49Q1123.354,1567.423,1123.946,1565.988Z" transform="translate(-1032.257 -1565.988)" fill="#fff"/>
            </g>
            <g id="Grupo_11753" data-name="Grupo 11753" transform="translate(9.401 11.392)">
              <path id="Trazado_15218" data-name="Trazado 15218" d="M1035.888,1572.237q.661,1.333,1.318,2.654,1.356.521,2.711.991-.932.705-1.863,1.383.29,1.337.579,2.67-1.23-.881-2.464-1.8-1.175.286-2.353.529.168-1.212.336-2.429-1.023-1.2-2.048-2.424,1.345.249,2.688.443Q1035.341,1573.25,1035.888,1572.237Z" transform="translate(-1032.104 -1563.162)" fill="#fff"/>
              <path id="Trazado_15219" data-name="Trazado 15219" d="M1055.571,1575.076q.64,1.187,1.28,2.364,1.339.208,2.676.373-.929.924-1.858,1.824.274,1.282.548,2.558-1.21-.6-2.422-1.242-1.166.569-2.332,1.1l.354-2.531q-1-.959-2-1.942,1.328-.084,2.653-.213Q1055.018,1576.228,1055.571,1575.076Z" transform="translate(-1034.065 -1563.445)" fill="#fff"/>
              <path id="Trazado_15220" data-name="Trazado 15220" d="M1075.077,1573.717q.627,1.077,1.253,2.143,1.33-.041,2.661-.114-.935,1.1-1.869,2.178.262,1.241.522,2.479-1.2-.386-2.4-.8-1.166.8-2.332,1.562.188-1.31.376-2.623-.986-.771-1.973-1.562,1.321-.351,2.641-.738Q1074.516,1574.984,1075.077,1573.717Z" transform="translate(-1036.005 -1563.31)" fill="#fff"/>
              <path id="Trazado_15221" data-name="Trazado 15221" d="M1094.546,1569.1q.616,1,1.232,1.986,1.33-.226,2.662-.474-.945,1.23-1.889,2.448.25,1.216.5,2.43-1.2-.23-2.392-.476-1.174.966-2.345,1.912.2-1.349.4-2.7-.977-.634-1.956-1.281,1.322-.555,2.646-1.136Z" transform="translate(-1037.939 -1562.851)" fill="#fff"/>
              <path id="Trazado_15222" data-name="Trazado 15222" d="M1114.081,1562.16q.608.947,1.217,1.89,1.336-.347,2.675-.708-.96,1.32-1.918,2.629.238,1.205.476,2.407-1.2-.128-2.395-.266-1.185,1.083-2.368,2.154.213-1.38.428-2.764-.974-.543-1.948-1.093,1.331-.7,2.662-1.411Q1113.494,1563.582,1114.081,1562.16Z" transform="translate(-1039.877 -1562.16)" fill="#fff"/>
            </g>
            <g id="Grupo_11754" data-name="Grupo 11754" transform="translate(10.117 25.943)">
              <path id="Trazado_15223" data-name="Trazado 15223" d="M1036.654,1588.237q.655,1.311,1.308,2.612,1.345.513,2.688.975-.924.694-1.849,1.363.288,1.316.574,2.628-1.22-.867-2.443-1.776-1.167.281-2.335.521.166-1.193.334-2.391-1.014-1.178-2.031-2.386,1.334.246,2.666.437Q1036.111,1589.233,1036.654,1588.237Z" transform="translate(-1032.9 -1579.306)" fill="#fff"/>
              <path id="Trazado_15224" data-name="Trazado 15224" d="M1056.182,1591.031q.635,1.17,1.269,2.328,1.329.2,2.655.367-.923.909-1.844,1.8.272,1.262.543,2.519-1.2-.594-2.4-1.223-1.158.559-2.315,1.083.177-1.244.353-2.492-.992-.943-1.986-1.911,1.317-.082,2.632-.209Q1055.633,1592.166,1056.182,1591.031Z" transform="translate(-1034.845 -1579.583)" fill="#fff"/>
              <path id="Trazado_15225" data-name="Trazado 15225" d="M1075.535,1589.7q.621,1.059,1.243,2.11,1.32-.04,2.64-.113-.927,1.082-1.853,2.144.258,1.222.517,2.441-1.19-.381-2.38-.789-1.158.782-2.313,1.536.186-1.29.374-2.582-.978-.759-1.957-1.537,1.31-.346,2.62-.726Q1074.979,1590.942,1075.535,1589.7Z" transform="translate(-1036.77 -1579.451)" fill="#fff"/>
              <path id="Trazado_15226" data-name="Trazado 15226" d="M1094.852,1585.155q.612.981,1.222,1.955,1.321-.223,2.642-.467-.939,1.212-1.875,2.409l.494,2.392q-1.186-.226-2.374-.469-1.163.951-2.326,1.882.2-1.328.4-2.658-.97-.624-1.941-1.261,1.313-.546,2.625-1.118Q1094.284,1586.492,1094.852,1585.155Z" transform="translate(-1038.689 -1578.999)" fill="#fff"/>
              <path id="Trazado_15227" data-name="Trazado 15227" d="M1114.234,1578.319q.6.933,1.207,1.861,1.326-.341,2.654-.7-.952,1.3-1.9,2.587.238,1.186.473,2.369-1.187-.125-2.375-.261-1.176,1.066-2.35,2.12l.424-2.72q-.966-.534-1.932-1.076,1.321-.686,2.641-1.389Q1113.652,1579.72,1114.234,1578.319Z" transform="translate(-1040.612 -1578.319)" fill="#fff"/>
            </g>
          </g>
          <g id="Grupo_11756" data-name="Grupo 11756" transform="translate(1.553 28.783)">
            <path id="Trazado_15228" data-name="Trazado 15228" d="M1027.159,1592.067q.665,1.388,1.326,2.763,1.355.689,2.705,1.321-.925.567-1.851,1.1.294,1.34.587,2.677-1.229-1.02-2.463-2.086-1.171.12-2.346.195.164-1.158.326-2.32-1.024-1.306-2.053-2.647,1.344.432,2.684.8Q1026.616,1592.98,1027.159,1592.067Z" transform="translate(-1023.389 -1582.526)" fill="#fff"/>
            <path id="Trazado_15229" data-name="Trazado 15229" d="M1046.767,1597.251q.642,1.228,1.281,2.445,1.332.347,2.659.649-.918.8-1.838,1.58.278,1.278.556,2.551-1.2-.719-2.412-1.474-1.156.426-2.313.812.17-1.212.341-2.426-1-1.047-2-2.121,1.32.071,2.638.1Q1046.223,1598.313,1046.767,1597.251Z" transform="translate(-1025.344 -1583.042)" fill="#fff"/>
            <path id="Trazado_15230" data-name="Trazado 15230" d="M1066.119,1597.855q.627,1.1,1.251,2.2,1.319.074,2.635.111-.92.994-1.841,1.968.265,1.231.528,2.459-1.19-.478-2.381-.984-1.152.673-2.3,1.315.181-1.259.362-2.521-.981-.84-1.962-1.7,1.308-.22,2.615-.479Q1065.569,1599.041,1066.119,1597.855Z" transform="translate(-1027.27 -1583.102)" fill="#fff"/>
            <path id="Trazado_15231" data-name="Trazado 15231" d="M1085.373,1594.822q.613,1.009,1.226,2.011,1.314-.138,2.63-.3-.929,1.143-1.858,2.271.253,1.2.5,2.4-1.183-.294-2.367-.611-1.155.867-2.311,1.711.192-1.3.385-2.6-.969-.68-1.94-1.377,1.3-.451,2.612-.93Z" transform="translate(-1029.184 -1582.8)" fill="#fff"/>
            <path id="Trazado_15232" data-name="Trazado 15232" d="M1104.644,1589.061q.605.946,1.21,1.887,1.318-.288,2.637-.593-.942,1.251-1.881,2.492l.481,2.361q-1.182-.169-2.365-.349-1.165,1.008-2.329,2,.2-1.334.41-2.673-.965-.569-1.929-1.149,1.31-.619,2.622-1.26Q1104.072,1590.423,1104.644,1589.061Z" transform="translate(-1031.097 -1582.227)" fill="#fff"/>
            <path id="Trazado_15233" data-name="Trazado 15233" d="M1124.018,1581.472l1.2,1.823q1.325-.375,2.653-.759l-1.913,2.626q.231,1.176.46,2.351-1.185-.1-2.37-.2-1.179,1.1-2.356,2.184.218-1.362.437-2.725-.962-.5-1.924-1.012,1.321-.728,2.644-1.468Z" transform="translate(-1033.019 -1581.472)" fill="#fff"/>
          </g>
          <g id="Grupo_11757" data-name="Grupo 11757" transform="translate(2.329 43.167)">
            <path id="Trazado_15234" data-name="Trazado 15234" d="M1027.992,1607.872q.658,1.367,1.314,2.72,1.343.678,2.684,1.3-.919.558-1.837,1.087.291,1.32.581,2.636-1.218-1-2.442-2.053-1.163.119-2.328.192.162-1.14.324-2.284-1.016-1.286-2.036-2.605,1.335.426,2.664.792Q1027.452,1608.771,1027.992,1607.872Z" transform="translate(-1024.251 -1598.482)" fill="#fff"/>
            <path id="Trazado_15235" data-name="Trazado 15235" d="M1047.444,1612.977q.636,1.207,1.271,2.405,1.32.343,2.638.64-.913.789-1.825,1.554.276,1.258.551,2.512-1.2-.707-2.393-1.451-1.148.419-2.3.8.169-1.192.339-2.388-.989-1.031-1.982-2.087,1.31.071,2.617.094Q1046.9,1614.021,1047.444,1612.977Z" transform="translate(-1026.19 -1598.99)" fill="#fff"/>
            <path id="Trazado_15236" data-name="Trazado 15236" d="M1066.646,1613.571q.62,1.086,1.239,2.161,1.309.073,2.615.109-.913.978-1.827,1.937.262,1.212.523,2.421-1.179-.47-2.362-.969-1.144.662-2.287,1.294.18-1.24.36-2.482-.972-.827-1.947-1.673,1.3-.218,2.6-.473Q1066.1,1614.739,1066.646,1613.571Z" transform="translate(-1028.102 -1599.049)" fill="#fff"/>
            <path id="Trazado_15237" data-name="Trazado 15237" d="M1085.749,1610.586q.609.993,1.217,1.979,1.3-.135,2.61-.3-.921,1.126-1.842,2.236.25,1.181.5,2.359-1.174-.29-2.348-.6-1.148.854-2.294,1.684.19-1.279.382-2.563-.962-.67-1.925-1.356,1.3-.443,2.591-.916Q1085.194,1611.851,1085.749,1610.586Z" transform="translate(-1030 -1598.752)" fill="#fff"/>
            <path id="Trazado_15238" data-name="Trazado 15238" d="M1104.871,1604.915q.6.931,1.2,1.858,1.309-.284,2.617-.584-.935,1.232-1.867,2.453.238,1.163.477,2.324-1.174-.165-2.346-.343-1.158.993-2.312,1.969.2-1.314.407-2.631-.956-.559-1.915-1.13,1.3-.61,2.6-1.241Q1104.3,1606.256,1104.871,1604.915Z" transform="translate(-1031.899 -1598.188)" fill="#fff"/>
            <path id="Trazado_15239" data-name="Trazado 15239" d="M1124.094,1597.445l1.186,1.794q1.316-.369,2.632-.747-.95,1.3-1.9,2.584l.457,2.314q-1.175-.094-2.351-.2-1.17,1.078-2.339,2.149.218-1.34.434-2.683-.955-.5-1.909-1,1.312-.717,2.623-1.444Z" transform="translate(-1033.806 -1597.445)" fill="#fff"/>
          </g>
          <g id="Grupo_11758" data-name="Grupo 11758" transform="translate(10.801 39.824)">
            <path id="Trazado_15240" data-name="Trazado 15240" d="M1037.385,1603.5q.65,1.294,1.3,2.574,1.334.507,2.667.962-.917.684-1.834,1.341.284,1.3.567,2.589-1.21-.854-2.424-1.75-1.158.277-2.317.513.165-1.175.331-2.355-1.005-1.16-2.014-2.351,1.324.242,2.646.431Q1036.845,1604.48,1037.385,1603.5Z" transform="translate(-1033.659 -1594.704)" fill="#fff"/>
            <path id="Trazado_15241" data-name="Trazado 15241" d="M1056.765,1606.252q.63,1.151,1.259,2.293,1.318.2,2.634.362-.916.894-1.831,1.769l.539,2.481q-1.191-.586-2.385-1.2-1.148.551-2.3,1.068.174-1.226.35-2.455-.985-.929-1.97-1.883,1.308-.081,2.612-.205Q1056.221,1607.369,1056.765,1606.252Z" transform="translate(-1035.589 -1594.978)" fill="#fff"/>
            <path id="Trazado_15242" data-name="Trazado 15242" d="M1075.973,1604.936q.616,1.043,1.232,2.078,1.31-.041,2.62-.111-.921,1.065-1.841,2.112.257,1.205.513,2.405-1.18-.377-2.363-.778-1.148.771-2.3,1.514.185-1.27.372-2.543-.97-.748-1.943-1.515,1.3-.34,2.6-.714Q1075.42,1606.165,1075.973,1604.936Z" transform="translate(-1037.5 -1594.848)" fill="#fff"/>
            <path id="Trazado_15243" data-name="Trazado 15243" d="M1095.144,1600.465l1.213,1.925q1.31-.219,2.621-.459-.931,1.193-1.86,2.373.244,1.179.49,2.356-1.176-.221-2.355-.462-1.156.936-2.31,1.853.2-1.308.4-2.619-.963-.613-1.926-1.241,1.3-.539,2.605-1.1Q1094.582,1601.781,1095.144,1600.465Z" transform="translate(-1039.404 -1594.403)" fill="#fff"/>
            <path id="Trazado_15244" data-name="Trazado 15244" d="M1114.381,1593.733q.6.918,1.2,1.833,1.317-.336,2.634-.686-.946,1.279-1.889,2.548.235,1.168.469,2.334-1.178-.123-2.358-.258-1.167,1.05-2.332,2.088l.421-2.679q-.959-.527-1.918-1.061,1.31-.675,2.621-1.367Q1113.8,1595.112,1114.381,1593.733Z" transform="translate(-1041.313 -1593.733)" fill="#fff"/>
          </g>
          <g id="Grupo_11759" data-name="Grupo 11759" transform="translate(11.495 53.932)">
            <path id="Trazado_15245" data-name="Trazado 15245" d="M1038.129,1619.013q.644,1.274,1.285,2.534,1.325.5,2.648.946-.911.673-1.822,1.321.282,1.277.563,2.549-1.2-.842-2.405-1.723-1.148.273-2.3.505.166-1.158.33-2.319-1-1.143-2-2.314,1.314.238,2.626.423Q1037.592,1619.979,1038.129,1619.013Z" transform="translate(-1034.43 -1610.356)" fill="#fff"/>
            <path id="Trazado_15246" data-name="Trazado 15246" d="M1057.357,1621.724q.625,1.135,1.249,2.259,1.308.2,2.614.356-.909.882-1.818,1.742.268,1.224.534,2.443-1.182-.577-2.366-1.187-1.14.543-2.28,1.052.174-1.208.349-2.417-.977-.916-1.954-1.854,1.3-.08,2.593-.2Q1056.817,1622.824,1057.357,1621.724Z" transform="translate(-1036.345 -1610.626)" fill="#fff"/>
            <path id="Trazado_15247" data-name="Trazado 15247" d="M1076.417,1620.429q.612,1.028,1.223,2.047,1.3-.039,2.6-.109-.914,1.048-1.827,2.08.255,1.185.509,2.368-1.171-.372-2.344-.766-1.14.758-2.279,1.49.185-1.25.369-2.5-.962-.737-1.926-1.492,1.29-.335,2.581-.7Q1075.869,1621.639,1076.417,1620.429Z" transform="translate(-1038.241 -1610.497)" fill="#fff"/>
            <path id="Trazado_15248" data-name="Trazado 15248" d="M1095.442,1616.027q.6.951,1.2,1.9,1.3-.215,2.6-.452-.924,1.174-1.847,2.336.243,1.162.486,2.32-1.168-.219-2.337-.456-1.147.922-2.292,1.825.2-1.287.393-2.578-.954-.6-1.91-1.223,1.293-.53,2.585-1.083Q1094.882,1617.324,1095.442,1616.027Z" transform="translate(-1040.131 -1610.059)" fill="#fff"/>
            <path id="Trazado_15249" data-name="Trazado 15249" d="M1114.53,1609.4q.593.9,1.188,1.8,1.3-.333,2.612-.676-.937,1.259-1.874,2.509.232,1.151.466,2.3-1.17-.122-2.34-.254-1.158,1.035-2.315,2.056.209-1.317.419-2.638-.951-.517-1.9-1.043,1.3-.666,2.6-1.346Z" transform="translate(-1042.025 -1609.4)" fill="#fff"/>
          </g>
          <g id="Grupo_11760" data-name="Grupo 11760" transform="translate(3.092 57.31)">
            <path id="Trazado_15250" data-name="Trazado 15250" d="M1028.811,1623.414q.653,1.345,1.3,2.677,1.333.669,2.662,1.281-.911.55-1.823,1.07.288,1.3.576,2.6-1.209-.989-2.423-2.022-1.154.118-2.309.189.161-1.122.322-2.249-1.008-1.267-2.019-2.565,1.322.417,2.642.779Q1028.276,1624.3,1028.811,1623.414Z" transform="translate(-1025.099 -1614.172)" fill="#fff"/>
            <path id="Trazado_15251" data-name="Trazado 15251" d="M1048.111,1628.44q.631,1.19,1.26,2.369,1.31.338,2.618.629-.905.778-1.811,1.531.273,1.239.546,2.474-1.186-.7-2.374-1.429-1.139.412-2.279.786.169-1.174.339-2.351-.982-1.014-1.967-2.056,1.3.07,2.6.094Q1047.574,1629.468,1048.111,1628.44Z" transform="translate(-1027.023 -1614.672)" fill="#fff"/>
            <path id="Trazado_15252" data-name="Trazado 15252" d="M1067.163,1629.026q.616,1.068,1.23,2.128,1.3.072,2.594.107-.906.963-1.814,1.907.259,1.193.519,2.384-1.171-.463-2.344-.954-1.135.651-2.269,1.274.178-1.22.358-2.444-.964-.813-1.931-1.648,1.287-.214,2.575-.465Q1066.621,1630.175,1067.163,1629.026Z" transform="translate(-1028.92 -1614.73)" fill="#fff"/>
            <path id="Trazado_15253" data-name="Trazado 15253" d="M1086.119,1626.087q.605.978,1.208,1.95,1.294-.134,2.589-.293-.915,1.108-1.829,2.2.249,1.163.5,2.323-1.165-.285-2.331-.593-1.137.842-2.276,1.659.19-1.26.38-2.524-.955-.659-1.91-1.335,1.286-.436,2.572-.9Q1085.568,1627.334,1086.119,1626.087Z" transform="translate(-1030.804 -1614.438)" fill="#fff"/>
            <path id="Trazado_15254" data-name="Trazado 15254" d="M1105.094,1620.5q.6.917,1.19,1.829,1.3-.278,2.6-.575-.928,1.213-1.853,2.415.236,1.146.474,2.288-1.165-.162-2.328-.339-1.148.978-2.294,1.939.2-1.293.4-2.59-.948-.551-1.9-1.113,1.291-.6,2.583-1.221Z" transform="translate(-1032.688 -1613.882)" fill="#fff"/>
            <path id="Trazado_15255" data-name="Trazado 15255" d="M1124.168,1613.151q.587.885,1.176,1.766,1.306-.363,2.612-.735-.943,1.275-1.883,2.544.226,1.14.453,2.279-1.167-.094-2.333-.193-1.162,1.063-2.32,2.116.215-1.32.429-2.642-.945-.488-1.894-.981,1.3-.705,2.6-1.421Q1123.59,1614.52,1124.168,1613.151Z" transform="translate(-1034.58 -1613.151)" fill="#fff"/>
          </g>
        </g>
      </g>
      <g id="Grupo_11763" data-name="Grupo 11763" transform="translate(0 25.955)">
        <path id="Trazado_15256" data-name="Trazado 15256" d="M1012.425,1542.437l14.293,227.381a3.508,3.508,0,1,1-7,.436l-14.3-227.567a3.475,3.475,0,0,1,1.942-3.354,3.1,3.1,0,0,1,.783-.274c.11-.025.221-.039.335-.054.076-.01.147-.031.224-.036.1-.006.2.011.3.013s.192-.023.294-.013a.255.255,0,0,1,.114.031,2.637,2.637,0,0,1,.665.164,2.182,2.182,0,0,1,.48.214,2.512,2.512,0,0,1,.468.307,4.888,4.888,0,0,1,.456.421,4.123,4.123,0,0,1,.853,1.686A3.8,3.8,0,0,1,1012.425,1542.437Z" transform="translate(-1005.404 -1538.96)" fill="#2c4a8a"/>
        <path id="Trazado_15257" data-name="Trazado 15257" d="M1012.629,1542.25l14.3,227.566a3.487,3.487,0,0,1-2.526,3.579l-14.516-230.975a3.49,3.49,0,0,0-2.322-3.09,3.285,3.285,0,0,1,1.342-.364,2.927,2.927,0,0,1,.712.031,2.637,2.637,0,0,1,.665.164,2.182,2.182,0,0,1,.48.214,2.512,2.512,0,0,1,.468.307,4.888,4.888,0,0,1,.456.421,3.1,3.1,0,0,1,.853,1.686A1.871,1.871,0,0,1,1012.629,1542.25Z" transform="translate(-1005.619 -1538.959)" fill="#20365a"/>
      </g>
    </g>
    <g id="Grupo_11786" data-name="Grupo 11786" transform="translate(1005.404 1510.137)">
      <g id="Grupo_11784" data-name="Grupo 11784" transform="translate(6.809)">
        <g id="Grupo_11772" data-name="Grupo 11772">
          <path id="Trazado_15258" data-name="Trazado 15258" d="M1244.345,1520.725c-76.552-44.708-154.029,69.481-231.38,24.444l7.749,132.5c71.781,38.923,143.667-59.441,214.761-21.007Z" transform="translate(-1012.965 -1510.137)" fill="#fff"/>
          <g id="Grupo_11771" data-name="Grupo 11771">
            <path id="Trazado_15259" data-name="Trazado 15259" d="M1244.345,1520.725c-76.552-44.708-154.029,69.481-231.38,24.444l.634,10.837c76.895,44.521,153.914-68.328,230.02-24.152Z" transform="translate(-1012.965 -1510.137)" fill="#cf2a2a"/>
            <g id="Grupo_11765" data-name="Grupo 11765" transform="translate(1.27 22.542)">
              <path id="Trazado_15260" data-name="Trazado 15260" d="M1243.031,1545.5c-75.657-43.647-152.218,67.868-228.656,23.862l.619,10.586c75.993,43.507,152.107-66.714,227.328-23.582Z" transform="translate(-1014.375 -1535.169)" fill="#cf2a2a"/>
            </g>
            <g id="Grupo_11766" data-name="Grupo 11766" transform="translate(2.51 44.552)">
              <path id="Trazado_15261" data-name="Trazado 15261" d="M1241.748,1569.7c-74.785-42.622-150.45,66.311-226,23.3l.6,10.344c75.112,42.527,150.34-65.158,224.7-23.031Z" transform="translate(-1015.752 -1559.61)" fill="#cf2a2a"/>
            </g>
            <g id="Grupo_11767" data-name="Grupo 11767" transform="translate(3.721 66.05)">
              <path id="Trazado_15262" data-name="Trazado 15262" d="M1240.494,1593.335c-73.93-41.633-148.722,64.807-223.4,22.761l.592,10.109c74.25,41.581,148.614-63.654,222.129-22.5Z" transform="translate(-1017.097 -1583.483)" fill="#cf2a2a"/>
            </g>
            <g id="Grupo_11768" data-name="Grupo 11768" transform="translate(4.905 87.053)">
              <path id="Trazado_15263" data-name="Trazado 15263" d="M1239.269,1616.43c-73.1-40.678-147.033,63.354-220.857,22.238l.578,9.883c73.409,40.666,146.928-62.2,219.617-21.985Z" transform="translate(-1018.412 -1606.807)" fill="#cf2a2a"/>
            </g>
            <g id="Grupo_11769" data-name="Grupo 11769" transform="translate(6.063 107.579)">
              <path id="Trazado_15264" data-name="Trazado 15264" d="M1238.073,1639c-72.281-39.755-145.382,61.949-218.375,21.732l.566,9.664c72.586,39.781,145.279-60.8,217.161-21.488Z" transform="translate(-1019.698 -1629.599)" fill="#cf2a2a"/>
            </g>
            <g id="Grupo_11770" data-name="Grupo 11770" transform="translate(7.196 127.642)">
              <path id="Trazado_15265" data-name="Trazado 15265" d="M1236.9,1661.07c-71.484-38.865-143.768,60.589-215.946,21.244l.552,9.452c71.782,38.923,143.667-59.441,214.762-21.007Z" transform="translate(-1020.956 -1651.879)" fill="#cf2a2a"/>
            </g>
          </g>
        </g>
        <path id="Trazado_15266" data-name="Trazado 15266" d="M1124.991,1538.5c-37.227,16.672-73.841,31.72-112.026,9.487q2.226,38.075,4.334,74.122c36.629,20.509,71.809,6.633,107.555-8.728Q1124.92,1576.959,1124.991,1538.5Z" transform="translate(-1012.965 -1512.959)" fill="#2c4a8a"/>
        <g id="Grupo_11783" data-name="Grupo 11783" transform="translate(7.835 35.456)">
          <g id="Grupo_11777" data-name="Grupo 11777">
            <g id="Grupo_11773" data-name="Grupo 11773">
              <path id="Trazado_15267" data-name="Trazado 15267" d="M1025.493,1560.446q.674,1.432,1.348,2.849,1.375.712,2.748,1.364-.94.584-1.879,1.138.3,1.383.6,2.762-1.25-1.052-2.5-2.151-1.19.124-2.382.2.163-1.2.329-2.394-1.042-1.348-2.087-2.729,1.366.446,2.727.829Q1024.943,1561.387,1025.493,1560.446Z" transform="translate(-1021.665 -1550.598)" fill="#fff"/>
              <path id="Trazado_15268" data-name="Trazado 15268" d="M1045.41,1565.793q.652,1.266,1.3,2.521,1.352.359,2.7.671-.932.827-1.866,1.628.284,1.318.566,2.631-1.224-.74-2.45-1.52-1.175.439-2.35.838.173-1.25.346-2.5-1.014-1.079-2.031-2.187,1.34.074,2.678.1Q1044.859,1566.888,1045.41,1565.793Z" transform="translate(-1023.651 -1551.13)" fill="#fff"/>
              <path id="Trazado_15269" data-name="Trazado 15269" d="M1065.067,1566.415q.635,1.136,1.271,2.264,1.339.076,2.676.114-.935,1.025-1.869,2.029.269,1.27.538,2.536-1.209-.493-2.419-1.016-1.17.694-2.34,1.357.182-1.3.366-2.6-1-.864-1.994-1.752,1.329-.228,2.656-.5Q1064.508,1567.638,1065.067,1566.415Z" transform="translate(-1025.607 -1551.192)" fill="#fff"/>
              <path id="Trazado_15270" data-name="Trazado 15270" d="M1084.619,1563.285q.624,1.04,1.247,2.074,1.336-.142,2.671-.312-.943,1.179-1.886,2.343l.513,2.472q-1.2-.3-2.4-.63-1.174.894-2.346,1.765.193-1.341.389-2.685-.985-.7-1.971-1.421,1.326-.465,2.652-.96Q1084.051,1564.611,1084.619,1563.285Z" transform="translate(-1027.551 -1550.88)" fill="#fff"/>
              <path id="Trazado_15271" data-name="Trazado 15271" d="M1104.191,1557.34q.616.977,1.229,1.947,1.339-.3,2.678-.611-.957,1.291-1.91,2.57.244,1.22.489,2.436-1.2-.173-2.4-.36-1.183,1.04-2.366,2.064.208-1.376.416-2.757-.979-.586-1.96-1.183,1.332-.64,2.664-1.3Q1103.611,1558.745,1104.191,1557.34Z" transform="translate(-1029.494 -1550.289)" fill="#fff"/>
              <path id="Trazado_15272" data-name="Trazado 15272" d="M1123.869,1549.51q.606.942,1.214,1.88,1.347-.386,2.7-.783-.972,1.358-1.943,2.709.235,1.214.468,2.426-1.2-.1-2.407-.206-1.2,1.132-2.394,2.253l.443-2.812q-.977-.519-1.954-1.043,1.343-.751,2.685-1.515Q1123.272,1550.968,1123.869,1549.51Z" transform="translate(-1031.446 -1549.51)" fill="#fff"/>
            </g>
            <g id="Grupo_11774" data-name="Grupo 11774" transform="translate(0.801 14.839)">
              <path id="Trazado_15273" data-name="Trazado 15273" d="M1026.352,1576.748q.67,1.41,1.336,2.805,1.366.7,2.726,1.342-.932.576-1.864,1.121.3,1.36.593,2.717-1.24-1.035-2.483-2.117-1.181.123-2.363.2.164-1.175.327-2.355-1.032-1.327-2.069-2.686,1.355.438,2.705.816Q1025.8,1577.675,1026.352,1576.748Z" transform="translate(-1022.554 -1567.058)" fill="#fff"/>
              <path id="Trazado_15274" data-name="Trazado 15274" d="M1046.11,1582.011q.647,1.247,1.292,2.482,1.341.353,2.68.659-.927.814-1.852,1.6.281,1.3.561,2.59-1.214-.729-2.43-1.5-1.166.431-2.331.824.171-1.231.344-2.463-1.006-1.063-2.014-2.152,1.329.073,2.657.1Q1045.563,1583.088,1046.11,1582.011Z" transform="translate(-1024.524 -1567.582)" fill="#fff"/>
              <path id="Trazado_15275" data-name="Trazado 15275" d="M1065.609,1582.623q.631,1.12,1.26,2.23,1.329.074,2.656.112-.928,1.009-1.855,2,.267,1.25.533,2.5-1.2-.485-2.4-1-1.16.682-2.322,1.334.182-1.278.364-2.559-.987-.852-1.977-1.725,1.318-.224,2.635-.487Q1065.056,1583.827,1065.609,1582.623Z" transform="translate(-1026.465 -1567.643)" fill="#fff"/>
              <path id="Trazado_15276" data-name="Trazado 15276" d="M1085.007,1579.544q.62,1.024,1.236,2.042,1.325-.14,2.65-.308-.936,1.162-1.87,2.306.254,1.217.508,2.432-1.193-.3-2.385-.62-1.165.881-2.329,1.736.195-1.319.387-2.643-.977-.69-1.955-1.4,1.316-.458,2.631-.945Q1084.443,1580.849,1085.007,1579.544Z" transform="translate(-1028.393 -1567.337)" fill="#fff"/>
              <path id="Trazado_15277" data-name="Trazado 15277" d="M1104.425,1573.694q.609.96,1.219,1.916,1.329-.293,2.657-.6-.948,1.27-1.9,2.53.243,1.2.485,2.4-1.191-.17-2.383-.355-1.174,1.024-2.347,2.031.207-1.355.412-2.713-.971-.578-1.943-1.165,1.321-.63,2.642-1.28Q1103.849,1575.077,1104.425,1573.694Z" transform="translate(-1030.321 -1566.755)" fill="#fff"/>
              <path id="Trazado_15278" data-name="Trazado 15278" d="M1123.946,1565.988q.6.927,1.2,1.851,1.336-.382,2.673-.771-.965,1.336-1.927,2.665.232,1.2.464,2.387-1.194-.1-2.388-.2-1.187,1.113-2.374,2.217.219-1.382.439-2.767-.968-.511-1.938-1.027,1.33-.74,2.663-1.49Q1123.354,1567.423,1123.946,1565.988Z" transform="translate(-1032.257 -1565.988)" fill="#fff"/>
            </g>
            <g id="Grupo_11775" data-name="Grupo 11775" transform="translate(9.401 11.392)">
              <path id="Trazado_15279" data-name="Trazado 15279" d="M1035.888,1572.237q.661,1.333,1.318,2.654,1.356.521,2.711.991-.932.705-1.863,1.383.29,1.337.579,2.67-1.23-.881-2.464-1.8-1.175.286-2.353.529.168-1.212.336-2.429-1.023-1.2-2.048-2.424,1.345.249,2.688.443Q1035.341,1573.25,1035.888,1572.237Z" transform="translate(-1032.104 -1563.162)" fill="#fff"/>
              <path id="Trazado_15280" data-name="Trazado 15280" d="M1055.571,1575.076q.64,1.187,1.28,2.364,1.339.208,2.676.373-.929.924-1.858,1.824.274,1.282.548,2.558-1.21-.6-2.422-1.242-1.166.569-2.332,1.1l.354-2.531q-1-.959-2-1.942,1.328-.084,2.653-.213Q1055.018,1576.228,1055.571,1575.076Z" transform="translate(-1034.065 -1563.445)" fill="#fff"/>
              <path id="Trazado_15281" data-name="Trazado 15281" d="M1075.077,1573.717q.627,1.077,1.253,2.143,1.33-.041,2.661-.114-.935,1.1-1.869,2.178.262,1.241.522,2.479-1.2-.386-2.4-.8-1.166.8-2.332,1.562.188-1.31.376-2.623-.986-.771-1.973-1.562,1.321-.351,2.641-.738Q1074.516,1574.984,1075.077,1573.717Z" transform="translate(-1036.005 -1563.31)" fill="#fff"/>
              <path id="Trazado_15282" data-name="Trazado 15282" d="M1094.546,1569.1q.616,1,1.232,1.986,1.33-.226,2.662-.474-.945,1.23-1.889,2.448.25,1.216.5,2.43-1.2-.23-2.392-.476-1.174.966-2.345,1.912.2-1.349.4-2.7-.977-.634-1.956-1.281,1.322-.555,2.646-1.136Z" transform="translate(-1037.939 -1562.851)" fill="#fff"/>
              <path id="Trazado_15283" data-name="Trazado 15283" d="M1114.081,1562.16q.608.947,1.217,1.89,1.336-.347,2.675-.708-.96,1.32-1.918,2.629.238,1.205.476,2.407-1.2-.128-2.395-.266-1.185,1.083-2.368,2.154.213-1.38.428-2.764-.974-.543-1.948-1.093,1.331-.7,2.662-1.411Q1113.494,1563.582,1114.081,1562.16Z" transform="translate(-1039.877 -1562.16)" fill="#fff"/>
            </g>
            <g id="Grupo_11776" data-name="Grupo 11776" transform="translate(10.117 25.943)">
              <path id="Trazado_15284" data-name="Trazado 15284" d="M1036.654,1588.237q.655,1.311,1.308,2.612,1.345.513,2.688.975-.924.694-1.849,1.363.288,1.316.574,2.628-1.22-.867-2.443-1.776-1.167.281-2.335.521.166-1.193.334-2.391-1.014-1.178-2.031-2.386,1.334.246,2.666.437Q1036.111,1589.233,1036.654,1588.237Z" transform="translate(-1032.9 -1579.306)" fill="#fff"/>
              <path id="Trazado_15285" data-name="Trazado 15285" d="M1056.182,1591.031q.635,1.17,1.269,2.328,1.329.2,2.655.367-.923.909-1.844,1.8.272,1.262.543,2.519-1.2-.594-2.4-1.223-1.158.559-2.315,1.083.177-1.244.353-2.492-.992-.943-1.986-1.911,1.317-.082,2.632-.209Q1055.633,1592.166,1056.182,1591.031Z" transform="translate(-1034.845 -1579.583)" fill="#fff"/>
              <path id="Trazado_15286" data-name="Trazado 15286" d="M1075.535,1589.7q.621,1.059,1.243,2.11,1.32-.04,2.64-.113-.927,1.082-1.853,2.144.258,1.222.517,2.441-1.19-.381-2.38-.789-1.158.782-2.313,1.536.186-1.29.374-2.582-.978-.759-1.957-1.537,1.31-.346,2.62-.726Q1074.979,1590.942,1075.535,1589.7Z" transform="translate(-1036.77 -1579.451)" fill="#fff"/>
              <path id="Trazado_15287" data-name="Trazado 15287" d="M1094.852,1585.155q.612.981,1.222,1.955,1.321-.223,2.642-.467-.939,1.212-1.875,2.409l.494,2.392q-1.186-.226-2.374-.469-1.163.951-2.326,1.882.2-1.328.4-2.658-.97-.624-1.941-1.261,1.313-.546,2.625-1.118Q1094.284,1586.492,1094.852,1585.155Z" transform="translate(-1038.689 -1578.999)" fill="#fff"/>
              <path id="Trazado_15288" data-name="Trazado 15288" d="M1114.234,1578.319q.6.933,1.207,1.861,1.326-.341,2.654-.7-.952,1.3-1.9,2.587.238,1.186.473,2.369-1.187-.125-2.375-.261-1.176,1.066-2.35,2.12l.424-2.72q-.966-.534-1.932-1.076,1.321-.686,2.641-1.389Q1113.652,1579.72,1114.234,1578.319Z" transform="translate(-1040.612 -1578.319)" fill="#fff"/>
            </g>
          </g>
          <g id="Grupo_11778" data-name="Grupo 11778" transform="translate(1.553 28.783)">
            <path id="Trazado_15289" data-name="Trazado 15289" d="M1027.159,1592.067q.665,1.388,1.326,2.763,1.355.689,2.705,1.321-.925.567-1.851,1.1.294,1.34.587,2.677-1.229-1.02-2.463-2.086-1.171.12-2.346.195.164-1.158.326-2.32-1.024-1.306-2.053-2.647,1.344.432,2.684.8Q1026.616,1592.98,1027.159,1592.067Z" transform="translate(-1023.389 -1582.526)" fill="#fff"/>
            <path id="Trazado_15290" data-name="Trazado 15290" d="M1046.767,1597.251q.642,1.228,1.281,2.445,1.332.347,2.659.649-.918.8-1.838,1.58.278,1.278.556,2.551-1.2-.719-2.412-1.474-1.156.426-2.313.812.17-1.212.341-2.426-1-1.047-2-2.121,1.32.071,2.638.1Q1046.223,1598.313,1046.767,1597.251Z" transform="translate(-1025.344 -1583.042)" fill="#fff"/>
            <path id="Trazado_15291" data-name="Trazado 15291" d="M1066.119,1597.855q.627,1.1,1.251,2.2,1.319.074,2.635.111-.92.994-1.841,1.968.265,1.231.528,2.459-1.19-.478-2.381-.984-1.152.673-2.3,1.315.181-1.259.362-2.521-.981-.84-1.962-1.7,1.308-.22,2.615-.479Q1065.569,1599.041,1066.119,1597.855Z" transform="translate(-1027.27 -1583.102)" fill="#fff"/>
            <path id="Trazado_15292" data-name="Trazado 15292" d="M1085.373,1594.822q.613,1.009,1.226,2.011,1.314-.138,2.63-.3-.929,1.143-1.858,2.271.253,1.2.5,2.4-1.183-.294-2.367-.611-1.155.867-2.311,1.711.192-1.3.385-2.6-.969-.68-1.94-1.377,1.3-.451,2.612-.93Z" transform="translate(-1029.184 -1582.8)" fill="#fff"/>
            <path id="Trazado_15293" data-name="Trazado 15293" d="M1104.644,1589.061q.605.946,1.21,1.887,1.318-.288,2.637-.593-.942,1.251-1.881,2.492l.481,2.361q-1.182-.169-2.365-.349-1.165,1.008-2.329,2,.2-1.334.41-2.673-.965-.569-1.929-1.149,1.31-.619,2.622-1.26Q1104.072,1590.423,1104.644,1589.061Z" transform="translate(-1031.097 -1582.227)" fill="#fff"/>
            <path id="Trazado_15294" data-name="Trazado 15294" d="M1124.018,1581.472l1.2,1.823q1.325-.375,2.653-.759l-1.913,2.626q.231,1.176.46,2.351-1.185-.1-2.37-.2-1.179,1.1-2.356,2.184.218-1.362.437-2.725-.962-.5-1.924-1.012,1.321-.728,2.644-1.468Z" transform="translate(-1033.019 -1581.472)" fill="#fff"/>
          </g>
          <g id="Grupo_11779" data-name="Grupo 11779" transform="translate(2.329 43.167)">
            <path id="Trazado_15295" data-name="Trazado 15295" d="M1027.992,1607.872q.658,1.367,1.314,2.72,1.343.678,2.684,1.3-.919.558-1.837,1.087.291,1.32.581,2.636-1.218-1-2.442-2.053-1.163.119-2.328.192.162-1.14.324-2.284-1.016-1.286-2.036-2.605,1.335.426,2.664.792Q1027.452,1608.771,1027.992,1607.872Z" transform="translate(-1024.251 -1598.482)" fill="#fff"/>
            <path id="Trazado_15296" data-name="Trazado 15296" d="M1047.444,1612.977q.636,1.207,1.271,2.405,1.32.343,2.638.64-.913.789-1.825,1.554.276,1.258.551,2.512-1.2-.707-2.393-1.451-1.148.419-2.3.8.169-1.192.339-2.388-.989-1.031-1.982-2.087,1.31.071,2.617.094Q1046.9,1614.021,1047.444,1612.977Z" transform="translate(-1026.19 -1598.99)" fill="#fff"/>
            <path id="Trazado_15297" data-name="Trazado 15297" d="M1066.646,1613.571q.62,1.086,1.239,2.161,1.309.073,2.615.109-.913.978-1.827,1.937.262,1.212.523,2.421-1.179-.47-2.362-.969-1.144.662-2.287,1.294.18-1.24.36-2.482-.972-.827-1.947-1.673,1.3-.218,2.6-.473Q1066.1,1614.739,1066.646,1613.571Z" transform="translate(-1028.102 -1599.049)" fill="#fff"/>
            <path id="Trazado_15298" data-name="Trazado 15298" d="M1085.749,1610.586q.609.993,1.217,1.979,1.3-.135,2.61-.3-.921,1.126-1.842,2.236.25,1.181.5,2.359-1.174-.29-2.348-.6-1.148.854-2.294,1.684.19-1.279.382-2.563-.962-.67-1.925-1.356,1.3-.443,2.591-.916Q1085.194,1611.851,1085.749,1610.586Z" transform="translate(-1030 -1598.752)" fill="#fff"/>
            <path id="Trazado_15299" data-name="Trazado 15299" d="M1104.871,1604.915q.6.931,1.2,1.858,1.309-.284,2.617-.584-.935,1.232-1.867,2.453.238,1.163.477,2.324-1.174-.165-2.346-.343-1.158.993-2.312,1.969.2-1.314.407-2.631-.956-.559-1.915-1.13,1.3-.61,2.6-1.241Q1104.3,1606.256,1104.871,1604.915Z" transform="translate(-1031.899 -1598.188)" fill="#fff"/>
            <path id="Trazado_15300" data-name="Trazado 15300" d="M1124.094,1597.445l1.186,1.794q1.316-.369,2.632-.747-.95,1.3-1.9,2.584l.457,2.314q-1.175-.094-2.351-.2-1.17,1.078-2.339,2.149.218-1.34.434-2.683-.955-.5-1.909-1,1.312-.717,2.623-1.444Z" transform="translate(-1033.806 -1597.445)" fill="#fff"/>
          </g>
          <g id="Grupo_11780" data-name="Grupo 11780" transform="translate(10.801 39.824)">
            <path id="Trazado_15301" data-name="Trazado 15301" d="M1037.385,1603.5q.65,1.294,1.3,2.574,1.334.507,2.667.962-.917.684-1.834,1.341.284,1.3.567,2.589-1.21-.854-2.424-1.75-1.158.277-2.317.513.165-1.175.331-2.355-1.005-1.16-2.014-2.351,1.324.242,2.646.431Q1036.845,1604.48,1037.385,1603.5Z" transform="translate(-1033.659 -1594.704)" fill="#fff"/>
            <path id="Trazado_15302" data-name="Trazado 15302" d="M1056.765,1606.252q.63,1.151,1.259,2.293,1.318.2,2.634.362-.916.894-1.831,1.769l.539,2.481q-1.191-.586-2.385-1.2-1.148.551-2.3,1.068.174-1.226.35-2.455-.985-.929-1.97-1.883,1.308-.081,2.612-.205Q1056.221,1607.369,1056.765,1606.252Z" transform="translate(-1035.589 -1594.978)" fill="#fff"/>
            <path id="Trazado_15303" data-name="Trazado 15303" d="M1075.973,1604.936q.616,1.043,1.232,2.078,1.31-.041,2.62-.111-.921,1.065-1.841,2.112.257,1.205.513,2.405-1.18-.377-2.363-.778-1.148.771-2.3,1.514.185-1.27.372-2.543-.97-.748-1.943-1.515,1.3-.34,2.6-.714Q1075.42,1606.165,1075.973,1604.936Z" transform="translate(-1037.5 -1594.848)" fill="#fff"/>
            <path id="Trazado_15304" data-name="Trazado 15304" d="M1095.144,1600.465l1.213,1.925q1.31-.219,2.621-.459-.931,1.193-1.86,2.373.244,1.179.49,2.356-1.176-.221-2.355-.462-1.156.936-2.31,1.853.2-1.308.4-2.619-.963-.613-1.926-1.241,1.3-.539,2.605-1.1Q1094.582,1601.781,1095.144,1600.465Z" transform="translate(-1039.404 -1594.403)" fill="#fff"/>
            <path id="Trazado_15305" data-name="Trazado 15305" d="M1114.381,1593.733q.6.918,1.2,1.833,1.317-.336,2.634-.686-.946,1.279-1.889,2.548.235,1.168.469,2.334-1.178-.123-2.358-.258-1.167,1.05-2.332,2.088l.421-2.679q-.959-.527-1.918-1.061,1.31-.675,2.621-1.367Q1113.8,1595.112,1114.381,1593.733Z" transform="translate(-1041.313 -1593.733)" fill="#fff"/>
          </g>
          <g id="Grupo_11781" data-name="Grupo 11781" transform="translate(11.495 53.932)">
            <path id="Trazado_15306" data-name="Trazado 15306" d="M1038.129,1619.013q.644,1.274,1.285,2.534,1.325.5,2.648.946-.911.673-1.822,1.321.282,1.277.563,2.549-1.2-.842-2.405-1.723-1.148.273-2.3.505.166-1.158.33-2.319-1-1.143-2-2.314,1.314.238,2.626.423Q1037.592,1619.979,1038.129,1619.013Z" transform="translate(-1034.43 -1610.356)" fill="#fff"/>
            <path id="Trazado_15307" data-name="Trazado 15307" d="M1057.357,1621.724q.625,1.135,1.249,2.259,1.308.2,2.614.356-.909.882-1.818,1.742.268,1.224.534,2.443-1.182-.577-2.366-1.187-1.14.543-2.28,1.052.174-1.208.349-2.417-.977-.916-1.954-1.854,1.3-.08,2.593-.2Q1056.817,1622.824,1057.357,1621.724Z" transform="translate(-1036.345 -1610.626)" fill="#fff"/>
            <path id="Trazado_15308" data-name="Trazado 15308" d="M1076.417,1620.429q.612,1.028,1.223,2.047,1.3-.039,2.6-.109-.914,1.048-1.827,2.08.255,1.185.509,2.368-1.171-.372-2.344-.766-1.14.758-2.279,1.49.185-1.25.369-2.5-.962-.737-1.926-1.492,1.29-.335,2.581-.7Q1075.869,1621.639,1076.417,1620.429Z" transform="translate(-1038.241 -1610.497)" fill="#fff"/>
            <path id="Trazado_15309" data-name="Trazado 15309" d="M1095.442,1616.027q.6.951,1.2,1.9,1.3-.215,2.6-.452-.924,1.174-1.847,2.336.243,1.162.486,2.32-1.168-.219-2.337-.456-1.147.922-2.292,1.825.2-1.287.393-2.578-.954-.6-1.91-1.223,1.293-.53,2.585-1.083Q1094.882,1617.324,1095.442,1616.027Z" transform="translate(-1040.131 -1610.059)" fill="#fff"/>
            <path id="Trazado_15310" data-name="Trazado 15310" d="M1114.53,1609.4q.593.9,1.188,1.8,1.3-.333,2.612-.676-.937,1.259-1.874,2.509.232,1.151.466,2.3-1.17-.122-2.34-.254-1.158,1.035-2.315,2.056.209-1.317.419-2.638-.951-.517-1.9-1.043,1.3-.666,2.6-1.346Z" transform="translate(-1042.025 -1609.4)" fill="#fff"/>
          </g>
          <g id="Grupo_11782" data-name="Grupo 11782" transform="translate(3.092 57.31)">
            <path id="Trazado_15311" data-name="Trazado 15311" d="M1028.811,1623.414q.653,1.345,1.3,2.677,1.333.669,2.662,1.281-.911.55-1.823,1.07.288,1.3.576,2.6-1.209-.989-2.423-2.022-1.154.118-2.309.189.161-1.122.322-2.249-1.008-1.267-2.019-2.565,1.322.417,2.642.779Q1028.276,1624.3,1028.811,1623.414Z" transform="translate(-1025.099 -1614.172)" fill="#fff"/>
            <path id="Trazado_15312" data-name="Trazado 15312" d="M1048.111,1628.44q.631,1.19,1.26,2.369,1.31.338,2.618.629-.905.778-1.811,1.531.273,1.239.546,2.474-1.186-.7-2.374-1.429-1.139.412-2.279.786.169-1.174.339-2.351-.982-1.014-1.967-2.056,1.3.07,2.6.094Q1047.574,1629.468,1048.111,1628.44Z" transform="translate(-1027.023 -1614.672)" fill="#fff"/>
            <path id="Trazado_15313" data-name="Trazado 15313" d="M1067.163,1629.026q.616,1.068,1.23,2.128,1.3.072,2.594.107-.906.963-1.814,1.907.259,1.193.519,2.384-1.171-.463-2.344-.954-1.135.651-2.269,1.274.178-1.22.358-2.444-.964-.813-1.931-1.648,1.287-.214,2.575-.465Q1066.621,1630.175,1067.163,1629.026Z" transform="translate(-1028.92 -1614.73)" fill="#fff"/>
            <path id="Trazado_15314" data-name="Trazado 15314" d="M1086.119,1626.087q.605.978,1.208,1.95,1.294-.134,2.589-.293-.915,1.108-1.829,2.2.249,1.163.5,2.323-1.165-.285-2.331-.593-1.137.842-2.276,1.659.19-1.26.38-2.524-.955-.659-1.91-1.335,1.286-.436,2.572-.9Q1085.568,1627.334,1086.119,1626.087Z" transform="translate(-1030.804 -1614.438)" fill="#fff"/>
            <path id="Trazado_15315" data-name="Trazado 15315" d="M1105.094,1620.5q.6.917,1.19,1.829,1.3-.278,2.6-.575-.928,1.213-1.853,2.415.236,1.146.474,2.288-1.165-.162-2.328-.339-1.148.978-2.294,1.939.2-1.293.4-2.59-.948-.551-1.9-1.113,1.291-.6,2.583-1.221Z" transform="translate(-1032.688 -1613.882)" fill="#fff"/>
            <path id="Trazado_15316" data-name="Trazado 15316" d="M1124.168,1613.151q.587.885,1.176,1.766,1.306-.363,2.612-.735-.943,1.275-1.883,2.544.226,1.14.453,2.279-1.167-.094-2.333-.193-1.162,1.063-2.32,2.116.215-1.32.429-2.642-.945-.488-1.894-.981,1.3-.705,2.6-1.421Q1123.59,1614.52,1124.168,1613.151Z" transform="translate(-1034.58 -1613.151)" fill="#fff"/>
          </g>
        </g>
      </g>
      <g id="Grupo_11785" data-name="Grupo 11785" transform="translate(0 25.955)">
        <path id="Trazado_15317" data-name="Trazado 15317" d="M1012.425,1542.437l14.293,227.381a3.508,3.508,0,1,1-7,.436l-14.3-227.567a3.475,3.475,0,0,1,1.942-3.354,3.1,3.1,0,0,1,.783-.274c.11-.025.221-.039.335-.054.076-.01.147-.031.224-.036.1-.006.2.011.3.013s.192-.023.294-.013a.255.255,0,0,1,.114.031,2.637,2.637,0,0,1,.665.164,2.182,2.182,0,0,1,.48.214,2.512,2.512,0,0,1,.468.307,4.888,4.888,0,0,1,.456.421,4.123,4.123,0,0,1,.853,1.686A3.8,3.8,0,0,1,1012.425,1542.437Z" transform="translate(-1005.404 -1538.96)" fill="#2c4a8a"/>
        <path id="Trazado_15318" data-name="Trazado 15318" d="M1012.629,1542.25l14.3,227.566a3.487,3.487,0,0,1-2.526,3.579l-14.516-230.975a3.49,3.49,0,0,0-2.322-3.09,3.285,3.285,0,0,1,1.342-.364,2.927,2.927,0,0,1,.712.031,2.637,2.637,0,0,1,.665.164,2.182,2.182,0,0,1,.48.214,2.512,2.512,0,0,1,.468.307,4.888,4.888,0,0,1,.456.421,3.1,3.1,0,0,1,.853,1.686A1.871,1.871,0,0,1,1012.629,1542.25Z" transform="translate(-1005.619 -1538.959)" fill="#20365a"/>
      </g>
    </g>
    <path id="Trazado_15319" data-name="Trazado 15319" d="M1245.049,1521.028l-1.436,22.309-.714,10.852-.711,10.9-.705,10.621-.681,10.642-.675,10.364-.7,10.412-.643,10.131-.664,10.179-.657,9.9-.654,9.947-.624,9.69c-2.227-1.2-4.446-2.269-6.657-3.219-2.233-.926-4.461-1.76-6.679-2.455a74.986,74.986,0,0,0-23.38-3.407c-1.111,0-2.243.024-3.35.093-1.109.046-2.238.116-3.344.208-1.127.093-2.233.185-3.358.324-2.23.255-4.453.6-6.7,1-1.1.207-2.22.416-3.339.647-37.951,7.915-76.074,33.892-114.217,36.842a87.987,87.987,0,0,1-10.5.19,75.6,75.6,0,0,1-23.343-4.681,82.583,82.583,0,0,1-9.909-4.522l-.542-9.456-.722-11.995c147,32.839,194.478-106.864,206.773-143.247a74.262,74.262,0,0,1,10.943,4.018Q1241.484,1518.958,1245.049,1521.028Z" transform="translate(-1.468 -0.314)" fill="#262424" opacity="0.2" style="mix-blend-mode: multiply;isolation: isolate"/>
  </g>
</svg>
