<svg xmlns="http://www.w3.org/2000/svg" width="67" height="59.183" viewBox="0 0 67 59.183">
  <g id="Grupo_1100011" data-name="Grupo 1100011" transform="translate(-278.382 -5631.109)">
    <g id="Grupo_1099566" data-name="Grupo 1099566" transform="translate(98.382 1880.957)">
      <path id="_12068" data-name="12068" d="M66.039,71.828c-6.861-.947-14.108-.716-20.351,2.283C37.03,78.27,31.344,87.7,31.126,97.3s4.784,19.038,12.512,24.741a35.81,35.81,0,0,0,27.37,6.013c9.53-1.727,18.474-7.326,23.445-15.638,3.187-5.33,4.677-11.911,2.916-17.867a24.409,24.409,0,0,0-5.793-9.521A42.8,42.8,0,0,0,66.039,71.828Z" transform="translate(148.881 3680.691)" fill="#26aab7"/>
      <path id="Trazado_873155" data-name="Trazado 873155" d="M303.26,44.546a1.582,1.582,0,1,0-.106-2.456A1.573,1.573,0,0,0,303.26,44.546Z" transform="translate(138.287 4055.916) rotate(-90)" fill="#7d6eb2"/>
      <path id="Trazado_873156" data-name="Trazado 873156" d="M321.56,66.974a3.448,3.448,0,1,0-1.687-4.918A3.468,3.468,0,0,0,321.56,66.974Z" transform="translate(128.241 4079.581) rotate(-90)" fill="#ffd947"/>
      <circle id="Elipse_11521" data-name="Elipse 11521" cx="3.689" cy="3.689" r="3.689" transform="translate(237.702 3796.368) rotate(-90)" fill="none" stroke="#fff" stroke-linecap="round" stroke-linejoin="round" stroke-width="1.5"/>
    </g>
    <g id="entrevista" transform="translate(287.137 5602.535)">
      <path id="Trazado_874318" data-name="Trazado 874318" d="M300.389,114.995v1.54a.718.718,0,0,1-.4.642l-.321.161h8.618l-.643-.321a1.436,1.436,0,0,1-.794-1.284V103.694H296.081v5.744A5.741,5.741,0,0,0,300.389,114.995Z" transform="translate(-269.559 -57.915)" fill="#f5b97d"/>
      <path id="Trazado_874341" data-name="Trazado 874341" d="M4.308,0A4.308,4.308,0,1,1,0,4.308,4.308,4.308,0,0,1,4.308,0Z" transform="translate(2.108 40.753)" fill="#ffd947"/>
      <path id="Trazado_874319" data-name="Trazado 874319" d="M54.619,79.528c0-4.362-2.794-7.9-7.156-7.9a7.9,7.9,0,0,0-7.9,7.9c0,3.59,3.536,5.744,7.9,5.744S54.619,83.118,54.619,79.528Z" transform="translate(-36.02 -28.722)" fill="#ffd947"/>
      <path id="Trazado_874320" data-name="Trazado 874320" d="M44.59,99.239a6.56,6.56,0,0,1-2.612-2.8,7.87,7.87,0,0,0-2.414,5.677c0,3.571,3.5,5.719,7.829,5.742Z" transform="translate(-36.02 -51.306)" fill="#deac2f"/>
      <path id="Trazado_874321" data-name="Trazado 874321" d="M35.021,272.032H29.276a5.744,5.744,0,0,0-5.744,5.744v8.617H38.611V275.622a3.59,3.59,0,0,0-3.59-3.59Z" transform="translate(-21.424 -211.174)" fill="#7d6eb2"/>
      <path id="Trazado_874322" data-name="Trazado 874322" d="M29.276,274.187h1.436v-2.154H29.276a5.744,5.744,0,0,0-5.744,5.744v8.617h2.154v-8.617A3.594,3.594,0,0,1,29.276,274.187Z" transform="translate(-21.424 -211.175)" fill="#6b5e9a"/>
      <path id="Trazado_874323" data-name="Trazado 874323" d="M90.533,238.414a2.872,2.872,0,0,1-2.872-2.872v-3.59h5.744v3.59A2.872,2.872,0,0,1,90.533,238.414Z" transform="translate(-79.809 -174.684)" fill="#f7d291"/>
      <path id="Trazado_874324" data-name="Trazado 874324" d="M87.661,242.6a7.132,7.132,0,0,0,5.744.617v-3.25H87.661Z" transform="translate(-79.809 -181.983)" fill="#ecbd83"/>
      <path id="Trazado_874325" data-name="Trazado 874325" d="M92.57,320.129H79.645v10.053H92.57a1.436,1.436,0,0,0,1.436-1.436v-7.181A1.436,1.436,0,0,0,92.57,320.129Z" transform="translate(-72.511 -254.962)" fill="#fff"/>
      <path id="Trazado_874326" data-name="Trazado 874326" d="M65.049,320.129a1.436,1.436,0,0,0-1.436,1.436v7.181a1.436,1.436,0,0,0,1.436,1.436H77.974a1.436,1.436,0,0,0,1.436-1.436h0v-.718H67.921a2.154,2.154,0,0,1-2.154-2.154v-5.744Z" transform="translate(-57.915 -254.962)" fill="#e4e3ff"/>
      <path id="Trazado_874327" data-name="Trazado 874327" d="M66.216,127.742a16.088,16.088,0,0,0,7.328,2.313,1.429,1.429,0,0,1,1.288,1.428v2a5.744,5.744,0,0,1-11.489,0h0a6.671,6.671,0,0,1,1.726-4.478Z" transform="translate(-57.67 -79.809)" fill="#ffe1a0"/>
      <circle id="Elipse_11760" data-name="Elipse 11760" cx="1.436" cy="1.436" r="1.436" transform="translate(12.161 68.757)" fill="#fff"/>
      <path id="Trazado_874328" data-name="Trazado 874328" d="M289.115,257.36,286.4,256h-8.618l-4.157,2.078a2.872,2.872,0,0,0-1.588,2.569v14.022H290.7V259.929A2.872,2.872,0,0,0,289.115,257.36Z" transform="translate(-247.665 -196.578)" fill="#aee6e6"/>
      <path id="Trazado_874329" data-name="Trazado 874329" d="M277.057,293.8a3.59,3.59,0,0,0-1.347-2.8l-3.089-2.471a2.866,2.866,0,0,0-.59,1.734v14.022h5.026V293.8Z" transform="translate(-247.664 -226.186)" fill="#aee6e6"/>
      <path id="Trazado_874330" data-name="Trazado 874330" d="M341.07,352.194H331.017a2.872,2.872,0,0,0-2.872,2.872l2.154,7.181h13.643v-7.181A2.872,2.872,0,0,0,341.07,352.194Z" transform="translate(-298.751 -284.155)" fill="#9b959d"/>
      <path id="Trazado_874331" data-name="Trazado 874331" d="M300.388,114.995v-11.3H296.08v5.744A5.742,5.742,0,0,0,300.388,114.995Z" transform="translate(-269.558 -57.915)" fill="#e3aa75"/>
      <path id="Trazado_874332" data-name="Trazado 874332" d="M289.383,55.6h-5.744a3.59,3.59,0,0,0-3.59,3.59,1.436,1.436,0,0,0,1.436,1.436h.718a2.154,2.154,0,0,1,2.154,2.154v2.154a3.59,3.59,0,0,0,3.59,3.59h3.59a2.872,2.872,0,0,0,2.872-2.872V60.623A5.026,5.026,0,0,0,289.383,55.6Z" transform="translate(-254.962 -14.126)" fill="#9f6e50"/>
      <path id="Trazado_874333" data-name="Trazado 874333" d="M333.171,352.194h-2.154a2.872,2.872,0,0,0-2.872,2.872v7.181H330.3v-7.181A2.872,2.872,0,0,1,333.171,352.194Z" transform="translate(-298.751 -284.155)" fill="#857e87"/>
      <path id="Trazado_874334" data-name="Trazado 874334" d="M283.638,55.6a3.59,3.59,0,0,0-3.59,3.59,1.436,1.436,0,0,0,1.436,1.436h.718a2.154,2.154,0,0,1,2.154,2.154V55.6Z" transform="translate(-254.962 -14.126)" fill="#785353"/>
      <path id="Trazado_874335" data-name="Trazado 874335" d="M65.523,141.274V136.3l-.452.5a6.671,6.671,0,0,0-1.726,4.478h0a5.735,5.735,0,0,0,6.833,5.638A5.744,5.744,0,0,1,65.523,141.274Z" transform="translate(-57.671 -87.596)" fill="#f7d291"/>
      <path id="Trazado_874336" data-name="Trazado 874336" d="M112.015,208.814a.672.672,0,0,0,.337.888,4.35,4.35,0,0,0,3.423,0,.672.672,0,1,0-.551-1.225,3.012,3.012,0,0,1-2.321,0A.672.672,0,0,0,112.015,208.814Z" transform="translate(-101.927 -153.257)"/>
      <path id="Trazado_874337" data-name="Trazado 874337" d="M104.613,170.4a.672.672,0,0,0,.672-.672v-.718a.672.672,0,1,0-1.344,0v.718A.672.672,0,0,0,104.613,170.4Z" transform="translate(-94.63 -116.769)"/>
      <path id="Trazado_874338" data-name="Trazado 874338" d="M152.71,170.4a.672.672,0,0,0,.672-.672v-.718a.672.672,0,0,0-1.344,0v.718A.672.672,0,0,0,152.71,170.4Z" transform="translate(-138.419 -116.769)"/>
      <path id="Trazado_874339" data-name="Trazado 874339" d="M130.367,352.709a2.108,2.108,0,1,0,2.108,2.108A2.11,2.11,0,0,0,130.367,352.709Zm0,2.872a.764.764,0,1,1,.764-.764A.765.765,0,0,1,130.367,355.581Z" transform="translate(-116.77 -284.624)"/>
      <path id="Trazado_874340" data-name="Trazado 874340" d="M43.709,67.651v-4.3a3.525,3.525,0,0,0-1.959-3.17L38.388,58.5a.76.76,0,0,1-.422-.683V54.783a3.549,3.549,0,0,0,2.154-3.26V46.5a5.7,5.7,0,0,0-5.7-5.7H28.676a4.267,4.267,0,0,0-4.262,4.262,2.111,2.111,0,0,0,1.436,2v4.465a6.41,6.41,0,0,0,4.308,6.055v1.07l-4.5,2.252a3.525,3.525,0,0,0-1.959,3.17V74.548H22a2.166,2.166,0,0,0,.166-.834v-7.04a2.181,2.181,0,0,0-2.178-2.178h-2.13v-.046a4.268,4.268,0,0,0-3.59-4.209v-.816a6.433,6.433,0,0,0,3.494-4.784,5.537,5.537,0,0,0,1.508-3.834,9.108,9.108,0,0,0-2.12-6.027,7.486,7.486,0,0,0-5.732-2.543,8.645,8.645,0,0,0-.894.046,4.98,4.98,0,1,0-7.436,6.506,8.562,8.562,0,0,0-.241,2.018A5.558,5.558,0,0,0,5.24,55.4,6.426,6.426,0,0,0,7.18,58.489v1.733A6.425,6.425,0,0,0,1.436,66.6v7.945H.672a.672.672,0,1,0,0,1.344H23.7v2.2a.672.672,0,1,0,1.344,0V64.069a2.208,2.208,0,0,1,.154-.811l2.478,2.065a2.911,2.911,0,0,1,1.05,2.242V78.091a.672.672,0,1,0,1.344,0v-7.18a2.2,2.2,0,0,1,2.2-2.2H42.319a2.2,2.2,0,0,1,2.2,2.2v7.18a.672.672,0,1,0,1.344,0v-7.18A3.549,3.549,0,0,0,43.709,67.651ZM2.756,45.061a3.634,3.634,0,0,1,6.284-2.49,8.611,8.611,0,0,0-5.467,4.787,3.614,3.614,0,0,1-.817-2.3ZM5.01,53.333a4.175,4.175,0,0,1-.819-2.527,7.235,7.235,0,0,1,7.227-7.227,6.081,6.081,0,0,1,4.72,2.084,7.768,7.768,0,0,1,1.788,5.143,4.482,4.482,0,0,1-.092.91v-.041a2.092,2.092,0,0,0-1.9-2.1,15.465,15.465,0,0,1-7-2.192.672.672,0,0,0-.887.1L6.9,48.747A7.328,7.328,0,0,0,5.01,53.333Zm1.335.344A5.987,5.987,0,0,1,7.9,49.65l.759-.838a17.626,17.626,0,0,0,7.154,2.1.754.754,0,0,1,.68.759v2a5.073,5.073,0,1,1-10.145,0Zm6.579,6.237v.227a2.2,2.2,0,0,1-4.4,0V59.4a6.389,6.389,0,0,0,4.4.512Zm7.9,13.8a.835.835,0,0,1-.834.834H7.2a.835.835,0,0,1-.834-.834v-3.52a.672.672,0,1,0-1.344,0v3.52a2.166,2.166,0,0,0,.166.834H2.78V66.6a5.078,5.078,0,0,1,4.692-5.057,3.543,3.543,0,0,0,6.5.009,2.922,2.922,0,0,1,2.542,2.893v.046H7.2a2.181,2.181,0,0,0-2.178,2.178v.648a.672.672,0,0,0,1.344,0v-.648a.835.835,0,0,1,.834-.834H19.989a.835.835,0,0,1,.834.834Zm6.37-22.189V47.169h.046a1.484,1.484,0,0,1,1.482,1.482v2.154a4.267,4.267,0,0,0,4.262,4.262H33.7a.672.672,0,0,0,0-1.344h-.718a2.922,2.922,0,0,1-2.918-2.918V48.651a2.829,2.829,0,0,0-2.826-2.826h-.718a.765.765,0,0,1-.764-.764,2.922,2.922,0,0,1,2.918-2.918H34.42A4.36,4.36,0,0,1,38.775,46.5v5.026a2.2,2.2,0,0,1-2.2,2.2.672.672,0,0,0,0,1.344h.046v2.751a2.109,2.109,0,0,0,.217.933H31.5V57.08a.672.672,0,0,0-.5-.65,5.067,5.067,0,0,1-3.8-4.906ZM42.365,67.368h-10.1a3.525,3.525,0,0,0-2.2.769v-.57a4.251,4.251,0,0,0-1.534-3.274l-2.485-2.071a2.233,2.233,0,0,1,.208-.12l4.015-2.007h8.3l2.577,1.289a2.188,2.188,0,0,1,1.216,1.968Z"/>
    </g>
  </g>
</svg>
