<svg xmlns="http://www.w3.org/2000/svg" width="67" height="59.183" viewBox="0 0 67 59.183">
  <g id="Grupo_1100011" data-name="Grupo 1100011" transform="translate(-180 -6233.167)">
    <g id="Grupo_1099598" data-name="Grupo 1099598" transform="translate(0 2483.016)">
      <path id="_12068" data-name="12068" d="M66.039,71.828c-6.861-.947-14.108-.716-20.351,2.283C37.03,78.27,31.344,87.7,31.126,97.3s4.784,19.038,12.512,24.741a35.81,35.81,0,0,0,27.37,6.013c9.53-1.727,18.474-7.326,23.445-15.638,3.187-5.33,4.677-11.911,2.916-17.867a24.409,24.409,0,0,0-5.793-9.521A42.8,42.8,0,0,0,66.039,71.828Z" transform="translate(148.881 3680.691)" fill="#26aab7"/>
      <path id="Trazado_873155" data-name="Trazado 873155" d="M303.26,44.546a1.582,1.582,0,1,0-.106-2.456A1.573,1.573,0,0,0,303.26,44.546Z" transform="translate(138.287 4055.916) rotate(-90)" fill="#7d6eb2"/>
      <path id="Trazado_873156" data-name="Trazado 873156" d="M321.56,66.974a3.448,3.448,0,1,0-1.687-4.918A3.468,3.468,0,0,0,321.56,66.974Z" transform="translate(128.241 4079.581) rotate(-90)" fill="#ffd947"/>
      <circle id="Elipse_11521" data-name="Elipse 11521" cx="3.689" cy="3.689" r="3.689" transform="translate(237.702 3796.368) rotate(-90)" fill="none" stroke="#fff" stroke-linecap="round" stroke-linejoin="round" stroke-width="1.5"/>
    </g>
    <g id="_17_Group_Idea" data-name="17 Group Idea" transform="translate(187 6239.108)">
      <path id="Trazado_874298" data-name="Trazado 874298" d="M15.241,50A7.249,7.249,0,0,0,8,57.241a.724.724,0,0,0,.724.724H21.759a.724.724,0,0,0,.724-.724A7.249,7.249,0,0,0,15.241,50Z" transform="translate(-1.379 -12.966)" fill="#7d6eb2"/>
      <path id="Trazado_874299" data-name="Trazado 874299" d="M43.241,50A7.249,7.249,0,0,0,36,57.241a.724.724,0,0,0,.724.724H49.759a.724.724,0,0,0,.724-.724A7.249,7.249,0,0,0,43.241,50Z" transform="translate(-9.103 -12.966)" fill="#7d6eb2"/>
      <circle id="Elipse_11750" data-name="Elipse 11750" cx="3" cy="3" r="3" transform="translate(21 32)" fill="#ffd947"/>
      <path id="Trazado_874300" data-name="Trazado 874300" d="M8.069,30A5.075,5.075,0,0,0,3,35.069a.724.724,0,0,0,.724.724h8.69a.724.724,0,0,0,.724-.724A5.075,5.075,0,0,0,8.069,30Z" transform="translate(0 -7.448)" fill="#aee6e6"/>
      <path id="Trazado_874301" data-name="Trazado 874301" d="M52.069,30A5.075,5.075,0,0,0,47,35.069a.724.724,0,0,0,.724.724h8.69a.724.724,0,0,0,.724-.724A5.075,5.075,0,0,0,52.069,30Z" transform="translate(-12.138 -7.448)" fill="#aee6e6"/>
      <circle id="Elipse_11751" data-name="Elipse 11751" cx="2" cy="2" r="2" transform="translate(4 30)" fill="#ffd947"/>
      <circle id="Elipse_11752" data-name="Elipse 11752" cx="2" cy="2" r="2" transform="translate(7 8)" fill="#ffd947"/>
      <circle id="Elipse_11753" data-name="Elipse 11753" cx="2" cy="2" r="2" transform="translate(37 8)" fill="#ffd947"/>
      <circle id="Elipse_11754" data-name="Elipse 11754" cx="2" cy="2" r="2" transform="translate(40 30)" fill="#ffd947"/>
      <path id="Trazado_874302" data-name="Trazado 874302" d="M12.724,59.473A.724.724,0,0,1,12,58.749a4.309,4.309,0,0,1,1.274-3.072A.724.724,0,1,1,14.3,56.7a2.873,2.873,0,0,0-.849,2.048.724.724,0,0,1-.724.724Z" transform="translate(-2.483 -14.473)" fill="#08f"/>
      <path id="Trazado_874303" data-name="Trazado 874303" d="M50.313,59.467a.724.724,0,0,1-.724-.724A2.873,2.873,0,0,0,48.74,56.7a.724.724,0,1,1,1.023-1.024,4.306,4.306,0,0,1,1.274,3.07.724.724,0,0,1-.724.724Z" transform="translate(-12.555 -14.467)" fill="#08f"/>
      <circle id="Elipse_11755" data-name="Elipse 11755" cx="4" cy="4" r="4" transform="translate(10 30)" fill="#ffd947"/>
      <circle id="Elipse_11756" data-name="Elipse 11756" cx="4" cy="4" r="4" transform="translate(30 30)" fill="#ffd947"/>
      <path id="Trazado_874304" data-name="Trazado 874304" d="M34.22,35.9a.724.724,0,0,0-.7-.9H27.724a.724.724,0,0,0-.7.9l.587,2.348a1.448,1.448,0,0,0,1.4,1.1h3.214a1.448,1.448,0,0,0,1.4-1.1Z" transform="translate(-6.621 -8.828)" fill="#aeadb3"/>
      <path id="Trazado_874305" data-name="Trazado 874305" d="M34.69,31.724A.724.724,0,0,0,33.966,31H26.724a.724.724,0,0,0-.724.724V33.9a1.448,1.448,0,0,0,1.448,1.448h5.793A1.448,1.448,0,0,0,34.69,33.9Z" transform="translate(-6.345 -7.724)" fill="#d8d8da"/>
      <path id="Trazado_874306" data-name="Trazado 874306" d="M28.138,3A10.149,10.149,0,0,0,18,13.138a9.722,9.722,0,0,0,2.716,6.807c.91,1.113,1.629,1.99,1.629,3.331a1.448,1.448,0,0,0,1.448,1.448h8.69a1.448,1.448,0,0,0,1.448-1.448c0-1.34.719-2.217,1.629-3.331a9.724,9.724,0,0,0,2.716-6.807A10.149,10.149,0,0,0,28.138,3Z" transform="translate(-4.138)" fill="#ffd947"/>
      <path id="Trazado_874307" data-name="Trazado 874307" d="M33.414,17a2.172,2.172,0,0,0-2.172,2.172V19.9h-2.9v-.724a2.172,2.172,0,1,0-2.172,2.172H26.9v7.241h1.448V21.345h2.9v7.241H32.69V21.345h.724a2.172,2.172,0,0,0,0-4.345Zm-7.966,2.172a.724.724,0,1,1,1.448,0V19.9h-.724A.724.724,0,0,1,25.448,19.172Zm7.966.724H32.69v-.724a.724.724,0,1,1,.724.724Z" transform="translate(-5.793 -3.862)" fill="#ffa91f"/>
      <circle id="Elipse_11757" data-name="Elipse 11757" cx="3" cy="3" r="3" transform="translate(5 18)" fill="#ffd947"/>
      <circle id="Elipse_11758" data-name="Elipse 11758" cx="3" cy="3" r="3" transform="translate(37 18)" fill="#ffd947"/>
      <g id="Grupo_1099601" data-name="Grupo 1099601" transform="translate(3 3)">
        <path id="Trazado_874308" data-name="Trazado 874308" d="M12.414,34.131a.724.724,0,0,0,.724-.724,5.069,5.069,0,0,0-2.926-4.587,2.9,2.9,0,1,0-4.287,0A5.069,5.069,0,0,0,3,33.407a.724.724,0,0,0,.724.724ZM6.621,26.89a1.448,1.448,0,1,1,1.448,1.448A1.448,1.448,0,0,1,6.621,26.89Zm1.448,2.9a3.626,3.626,0,0,1,3.548,2.9h-7.1a3.626,3.626,0,0,1,3.548-2.9Z" transform="translate(-3 -8.786)" fill="#00223d"/>
        <path id="Trazado_874309" data-name="Trazado 874309" d="M30.9,43a2.9,2.9,0,1,0,2.9,2.9A2.9,2.9,0,0,0,30.9,43Zm0,4.345A1.448,1.448,0,1,1,32.345,45.9,1.448,1.448,0,0,1,30.9,47.345Z" transform="translate(-9.897 -14.034)" fill="#00223d"/>
        <path id="Trazado_874310" data-name="Trazado 874310" d="M54.212,28.82a2.9,2.9,0,1,0-4.287,0A5.069,5.069,0,0,0,47,33.407a.724.724,0,0,0,.724.724h8.69a.724.724,0,0,0,.724-.724,5.069,5.069,0,0,0-2.926-4.587ZM50.621,26.89a1.448,1.448,0,1,1,1.448,1.448A1.448,1.448,0,0,1,50.621,26.89Zm-2.1,5.793a3.621,3.621,0,0,1,7.1,0Z" transform="translate(-15.138 -8.786)" fill="#00223d"/>
        <path id="Trazado_874311" data-name="Trazado 874311" d="M8.345,42.172a2.172,2.172,0,1,0-2.172,2.172A2.172,2.172,0,0,0,8.345,42.172ZM6.172,42.9a.724.724,0,1,1,.724-.724A.724.724,0,0,1,6.172,42.9Z" transform="translate(-3.276 -13.207)" fill="#00223d"/>
        <path id="Trazado_874312" data-name="Trazado 874312" d="M10.172,14.345A2.172,2.172,0,1,0,8,12.172a2.172,2.172,0,0,0,2.172,2.172Zm0-2.9a.724.724,0,1,1-.724.724A.724.724,0,0,1,10.172,11.448Z" transform="translate(-4.379 -4.931)" fill="#00223d"/>
        <path id="Trazado_874313" data-name="Trazado 874313" d="M52.172,14.345A2.172,2.172,0,1,0,50,12.172a2.172,2.172,0,0,0,2.172,2.172Zm0-2.9a.724.724,0,1,1-.724.724A.724.724,0,0,1,52.172,11.448Z" transform="translate(-15.966 -4.931)" fill="#00223d"/>
        <path id="Trazado_874314" data-name="Trazado 874314" d="M56.172,40a2.172,2.172,0,1,0,2.172,2.172A2.172,2.172,0,0,0,56.172,40Zm0,2.9a.724.724,0,1,1,.724-.724A.724.724,0,0,1,56.172,42.9Z" transform="translate(-17.069 -13.207)" fill="#00223d"/>
        <path id="Trazado_874315" data-name="Trazado 874315" d="M22.345,23.276a1.448,1.448,0,0,0,1.448,1.448v1.448a1.448,1.448,0,0,0,.849,1.315l.483,1.932a1.448,1.448,0,0,0,1.406,1.1h3.214a1.448,1.448,0,0,0,1.406-1.1l.483-1.932a1.448,1.448,0,0,0,.849-1.315V24.724a1.448,1.448,0,0,0,1.448-1.448c0-1.34.719-2.217,1.629-3.331a9.728,9.728,0,0,0,2.716-6.807,10.138,10.138,0,1,0-20.276,0,9.722,9.722,0,0,0,2.716,6.807c.91,1.114,1.629,1.99,1.629,3.331Zm2.9-7.241h-.724a.724.724,0,1,1,.724-.724Zm1.448,1.448h2.9v5.793h-2.9Zm3.055,11.586H26.531l-.362-1.448h3.938Zm1.29-2.9H25.241V24.724h5.793Zm-2.9-21.724a8.7,8.7,0,0,1,8.69,8.69,8.281,8.281,0,0,1-2.39,5.892,6.5,6.5,0,0,0-1.955,4.246H31.034V17.483h.724a2.172,2.172,0,1,0-2.172-2.172v.724h-2.9V15.31a2.172,2.172,0,1,0-2.172,2.172h.724v5.793H23.793a6.494,6.494,0,0,0-1.955-4.243,8.3,8.3,0,0,1-2.39-5.9,8.7,8.7,0,0,1,8.69-8.69Zm2.9,11.586V15.31a.724.724,0,1,1,.724.724Z" transform="translate(-7.138 -3)" fill="#00223d"/>
        <path id="Trazado_874316" data-name="Trazado 874316" d="M17.921,47.758a4.345,4.345,0,1,0-5.353,0A7.249,7.249,0,0,0,8,54.48a.724.724,0,0,0,.724.724H21.759a.724.724,0,0,0,.724-.724,7.249,7.249,0,0,0-4.562-6.722Zm-5.576-3.416a2.9,2.9,0,1,1,2.9,2.9A2.9,2.9,0,0,1,12.345,44.342Zm.1,9.414a2.873,2.873,0,0,1,.747-1.323.724.724,0,1,0-1.024-1.024,4.309,4.309,0,0,0-1.21,2.347H9.493a5.793,5.793,0,0,1,11.5,0Z" transform="translate(-4.379 -13.204)" fill="#00223d"/>
        <path id="Trazado_874317" data-name="Trazado 874317" d="M45.921,47.758a4.345,4.345,0,1,0-5.353,0A7.249,7.249,0,0,0,36,54.48a.724.724,0,0,0,.724.724H49.759a.724.724,0,0,0,.724-.724A7.249,7.249,0,0,0,45.921,47.758Zm-5.576-3.416a2.9,2.9,0,1,1,2.9,2.9A2.9,2.9,0,0,1,40.345,44.342Zm7.178,9.414a4.306,4.306,0,0,0-1.211-2.347.724.724,0,1,0-1.023,1.024,2.867,2.867,0,0,1,.747,1.323H37.491a5.793,5.793,0,0,1,11.5,0Z" transform="translate(-12.103 -13.204)" fill="#00223d"/>
      </g>
    </g>
  </g>
</svg>
