<svg xmlns="http://www.w3.org/2000/svg" width="151.991" height="168.529" viewBox="0 0 151.991 168.529">
  <g id="Grupo_1100011" data-name="Grupo 1100011" transform="translate(-1144.999 -1307)">
    <g id="Grupo_1099384" data-name="Grupo 1099384" transform="translate(0 -1021)">
      <path id="_12068" data-name="12068" d="M103.949,72.366C89.64,70.39,74.525,70.874,61.5,77.128,43.447,85.8,31.588,105.464,31.133,125.491s9.978,39.705,26.1,51.6S94.6,193.2,114.312,189.632c19.875-3.6,38.53-15.279,48.9-32.614,6.648-11.116,9.755-24.842,6.082-37.264-2.217-7.5-6.75-14.14-12.082-19.858A89.263,89.263,0,0,0,103.949,72.366Z" transform="translate(1120.007 2305.667)" fill="#ffd947"/>
      <g id="Grupo_1099026" data-name="Grupo 1099026" transform="translate(1094.135 2624.56) rotate(-90)">
        <path id="Trazado_873104" data-name="Trazado 873104" d="M149.557,395.548a1.582,1.582,0,1,0-.106-2.456A1.573,1.573,0,0,0,149.557,395.548Z" transform="translate(13.93 -213.31)" fill="#fff"/>
        <path id="Trazado_873105" data-name="Trazado 873105" d="M417.219,416a1.582,1.582,0,1,0-.105-2.456A1.573,1.573,0,0,0,417.219,416Z" transform="translate(-222.435 -227.035)" fill="#ffd947"/>
        <path id="Trazado_873106" data-name="Trazado 873106" d="M303.26,44.546a1.582,1.582,0,1,0-.106-2.456A1.573,1.573,0,0,0,303.26,44.546Z" transform="translate(-52.901 9.151)" fill="#7d6eb2"/>
        <path id="Trazado_873109" data-name="Trazado 873109" d="M339.452,404.413a3.448,3.448,0,1,0-1.687-4.918A3.468,3.468,0,0,0,339.452,404.413Z" transform="translate(-106.207 -216.949)" fill="#26aab7"/>
        <path id="Trazado_873110" data-name="Trazado 873110" d="M390.262,440.006a3.448,3.448,0,1,0-1.687-4.918A3.468,3.468,0,0,0,390.262,440.006Z" transform="translate(-181.42 -237.38)" fill="#7d6eb2"/>
        <path id="Trazado_873111" data-name="Trazado 873111" d="M176.115,56.142a3.448,3.448,0,1,0-1.687-4.918A3.468,3.468,0,0,0,176.115,56.142Z" transform="translate(-32.569 42.202)" fill="#7d6eb2"/>
        <path id="Trazado_873113" data-name="Trazado 873113" d="M321.56,66.974a3.448,3.448,0,1,0-1.687-4.918A3.468,3.468,0,0,0,321.56,66.974Z" transform="translate(-76.565 -0.895)" fill="#ffd947"/>
        <circle id="Elipse_11485" data-name="Elipse 11485" cx="1.689" cy="1.689" r="1.689" transform="translate(149.167 187.566)" fill="none" stroke="#26aab7" stroke-linecap="round" stroke-linejoin="round" stroke-width="1.5"/>
      </g>
    </g>
    <g id="investigar" transform="translate(1154.896 1307)">
      <g id="Grupo_1099456" data-name="Grupo 1099456" transform="translate(8.387)">
        <path id="Trazado_873699" data-name="Trazado 873699" d="M92.341,12.719A16.061,16.061,0,0,0,89.71,3.726,8.032,8.032,0,0,0,83.309,0H5.761C2.584,0,0,3.642,0,8.152V135.31c0,4.482,2.584,8.124,5.761,8.124h80.8c3.177,0,5.761-3.642,5.761-8.124V110.881c.024,0,.024-98.162.024-98.162Z" transform="translate(0 0)" fill="#e6eaff"/>
        <path id="Trazado_873700" data-name="Trazado 873700" d="M319.488,3.726A9.86,9.86,0,0,0,311.952,0H296.6a9.885,9.885,0,0,1,7.48,3.726,14.179,14.179,0,0,1,3.11,8.993V135.31c0,4.482-3.054,8.124-6.807,8.124H315.79c3.754,0,6.807-3.642,6.807-8.124V12.719a13.965,13.965,0,0,0-3.11-8.993Z" transform="translate(-230.284)" fill="#cad4ff"/>
      </g>
      <path id="Trazado_873701" data-name="Trazado 873701" d="M150.315,52.069H99.749A1.865,1.865,0,0,1,97.9,50.22V45.149A1.865,1.865,0,0,1,99.749,43.3h50.566a1.865,1.865,0,0,1,1.849,1.849V50.22A1.847,1.847,0,0,1,150.315,52.069Z" transform="translate(-70.474 -31.17)" fill="#49458a"/>
      <g id="Grupo_1099460" data-name="Grupo 1099460" transform="translate(17.285 76.507)">
        <g id="Grupo_1099457" data-name="Grupo 1099457" transform="translate(7.928 18.826)">
          <path id="Trazado_873702" data-name="Trazado 873702" d="M104.6,370.263H90V342.641a2.248,2.248,0,0,1,2.241-2.241h10.085a2.248,2.248,0,0,1,2.241,2.241v27.622Z" transform="translate(-90 -340.372)" fill="#ff5d5c"/>
          <path id="Trazado_873703" data-name="Trazado 873703" d="M115.284,340.3H108a2.248,2.248,0,0,1,2.241,2.241v27.65h7.284V342.569A2.219,2.219,0,0,0,115.284,340.3Z" transform="translate(-102.957 -340.3)" fill="#e00f5b"/>
        </g>
        <g id="Grupo_1099458" data-name="Grupo 1099458" transform="translate(30.284 9.721)">
          <path id="Trazado_873704" data-name="Trazado 873704" d="M184.367,346.8H169.8V310.041a2.248,2.248,0,0,1,2.241-2.241h10.085a2.248,2.248,0,0,1,2.241,2.241Z" transform="translate(-169.8 -307.8)" fill="#fff259"/>
          <path id="Trazado_873705" data-name="Trazado 873705" d="M195.084,307.8H187.8a2.248,2.248,0,0,1,2.241,2.241V346.8h7.284V310.041A2.248,2.248,0,0,0,195.084,307.8Z" transform="translate(-182.757 -307.8)" fill="#ffc738"/>
        </g>
        <g id="Grupo_1099459" data-name="Grupo 1099459" transform="translate(52.639)">
          <path id="Trazado_873706" data-name="Trazado 873706" d="M264.168,321.817H249.6v-46.2a2.511,2.511,0,0,1,2.521-2.521h9.553a2.511,2.511,0,0,1,2.521,2.521v46.2Z" transform="translate(-249.6 -273.1)" fill="#23f1a8"/>
          <path id="Trazado_873707" data-name="Trazado 873707" d="M273.884,273.1H266.6a2.511,2.511,0,0,1,2.521,2.521v46.2h7.284v-46.2A2.529,2.529,0,0,0,273.884,273.1Z" transform="translate(-261.838 -273.1)" fill="#26d192"/>
        </g>
        <path id="Trazado_873708" data-name="Trazado 873708" d="M134.005,443.482H63.941a2.241,2.241,0,1,1,0-4.482h70.064a2.241,2.241,0,0,1,0,4.482Z" transform="translate(-61.7 -392.524)" fill="#49458a"/>
      </g>
      <g id="Grupo_1099461" data-name="Grupo 1099461" transform="translate(17.285 59.419)">
        <path id="Trazado_873709" data-name="Trazado 873709" d="M110.7,216.582H63.941a2.241,2.241,0,0,1,0-4.482H110.7a2.241,2.241,0,1,1,0,4.482Z" transform="translate(-61.7 -212.1)" fill="#49458a"/>
        <path id="Trazado_873710" data-name="Trazado 873710" d="M91.143,252.482h-27.2a2.241,2.241,0,0,1,0-4.482h27.2a2.241,2.241,0,1,1,0,4.482Z" transform="translate(-61.7 -237.943)" fill="#49458a"/>
        <path id="Trazado_873711" data-name="Trazado 873711" d="M80.19,288.382H63.941a2.241,2.241,0,0,1,0-4.482H80.19a2.241,2.241,0,0,1,0,4.482Z" transform="translate(-61.7 -263.786)" fill="#49458a"/>
      </g>
      <g id="Grupo_1099462" data-name="Grupo 1099462" transform="translate(39.136 26.109)">
        <circle id="Elipse_11734" data-name="Elipse 11734" cx="15.1" cy="15.1" r="15.1" transform="translate(0)" fill="#ffc738"/>
        <path id="Trazado_873712" data-name="Trazado 873712" d="M147.432,108.3a15.1,15.1,0,0,1,11.234-14.6,14.629,14.629,0,0,0-3.866-.5,15.1,15.1,0,0,0,0,30.2,14.629,14.629,0,0,0,3.866-.5A15.1,15.1,0,0,1,147.432,108.3Z" transform="translate(-139.7 -93.2)" fill="#fff259"/>
        <path id="Trazado_873713" data-name="Trazado 873713" d="M183.954,122.807a4.878,4.878,0,0,0-4.875-4.874h-2.633a1.653,1.653,0,0,1,0-3.306h4.314a1.6,1.6,0,0,0,0-3.194h-1.373V110.4a1.6,1.6,0,0,0-3.194,0v1.037a4.879,4.879,0,0,0,.28,9.749h2.633a1.656,1.656,0,0,1,1.653,1.653,1.674,1.674,0,0,1-1.653,1.653h-4.314a1.6,1.6,0,1,0,0,3.194h1.373v1.037a1.6,1.6,0,1,0,3.194,0v-1.037A4.9,4.9,0,0,0,183.954,122.807Z" transform="translate(-162.663 -104.43)" fill="#49458a"/>
      </g>
      <g id="Grupo_1099464" data-name="Grupo 1099464" transform="translate(69.924 76.507)">
        <path id="Trazado_873718" data-name="Trazado 873718" d="M264.168,275.621v29.415a16.311,16.311,0,0,1-14.568-2.913V276.63a16.136,16.136,0,0,1,6.219-3.054,16.144,16.144,0,0,1,7.032-.168,2.584,2.584,0,0,1,.728.616,2.927,2.927,0,0,1,.224.308,2.022,2.022,0,0,1,.252.56,2.089,2.089,0,0,1,.112.728Z" transform="translate(-249.6 -273.1)" fill="#23f1a8"/>
        <path id="Trazado_873719" data-name="Trazado 873719" d="M280.148,275.621v29.415a16.247,16.247,0,0,1-7.284.364V275.621a2.5,2.5,0,0,0-1.065-2.045,16.144,16.144,0,0,1,7.032-.168,2.584,2.584,0,0,1,.728.616,2.938,2.938,0,0,1,.224.308,2.022,2.022,0,0,1,.252.56,2.089,2.089,0,0,1,.112.728Z" transform="translate(-265.581 -273.1)" fill="#26d192"/>
      </g>
      <g id="Grupo_1099463" data-name="Grupo 1099463" transform="translate(30.781 66.982)">
        <path id="Trazado_873714" data-name="Trazado 873714" d="M340.617,376.2a4.885,4.885,0,0,0,.84,5.855L345.8,386.4l-4.9,4.9-4.342-4.342a4.921,4.921,0,0,0-5.855-.84,25.477,25.477,0,0,0,5.631-4.258,24.323,24.323,0,0,0,4.286-5.659Z" transform="translate(-292.292 -337.792)" fill="#ff5d5c"/>
        <path id="Exclusión_1" data-name="Exclusión 1" d="M1857.125,10407.648a25.731,25.731,0,1,1,9.7-1.891A25.654,25.654,0,0,1,1857.125,10407.648Zm0-42.107a16.275,16.275,0,1,0,11.514,4.764A16.251,16.251,0,0,0,1857.125,10365.541Z" transform="translate(-1831.323 -10356.018)" fill="#49458a"/>
        <path id="Trazado_873716" data-name="Trazado 873716" d="M389.354,424.112l-15.128-15.128a3.889,3.889,0,0,0-5.491,0l-5.351,5.351a3.889,3.889,0,0,0,0,5.491l15.128,15.128a3.889,3.889,0,0,0,5.491,0l5.351-5.351A3.889,3.889,0,0,0,389.354,424.112Z" transform="translate(-315.004 -360.576)" fill="#49458a"/>
      </g>
    </g>
  </g>
</svg>
