<svg id="Grupo_1099862" data-name="Grupo 1099862" xmlns="http://www.w3.org/2000/svg" xmlns:xlink="http://www.w3.org/1999/xlink" width="353.399" height="296.557" viewBox="0 0 353.399 296.557">
  <defs>
    <clipPath id="clip-path">
      <rect id="Rectángulo_401327" data-name="Rectángulo 401327" width="353.399" height="296.556" fill="none"/>
    </clipPath>
  </defs>
  <path id="Trazado_875423" data-name="Trazado 875423" d="M460.854,14.486H367.41v80.23h93.444Z" transform="translate(-111.535 -4.397)" fill="#fff"/>
  <path id="Trazado_875424" data-name="Trazado 875424" d="M461.266,95.129H366.359V13.436h94.907Zm-93.444-1.463H459.8V14.9H367.822Z" transform="translate(-111.216 -4.079)" fill="#7d86ba"/>
  <rect id="Rectángulo_401320" data-name="Rectángulo 401320" width="94.799" height="7.857" transform="translate(255.114 3.958)" fill="#7d86ba"/>
  <g id="Grupo_1099861" data-name="Grupo 1099861">
    <g id="Grupo_1099860" data-name="Grupo 1099860" clip-path="url(#clip-path)">
      <path id="Trazado_875425" data-name="Trazado 875425" d="M383,5.253a5.252,5.252,0,1,0-5.253,5.252A5.253,5.253,0,0,0,383,5.253" transform="translate(-113.078 0)" fill="#f15a28"/>
      <path id="Trazado_875426" data-name="Trazado 875426" d="M406.1,5.253a5.252,5.252,0,1,0-5.252,5.252A5.253,5.253,0,0,0,406.1,5.253" transform="translate(-120.093 0)" fill="#fcb033"/>
      <path id="Trazado_875427" data-name="Trazado 875427" d="M428.25,5.253A5.252,5.252,0,1,0,423,10.506a5.253,5.253,0,0,0,5.253-5.252" transform="translate(-126.816 0)" fill="#34b7bf"/>
      <rect id="Rectángulo_401321" data-name="Rectángulo 401321" width="13.387" height="38.313" transform="translate(313.023 18.593)" fill="#34b7bf"/>
      <rect id="Rectángulo_401322" data-name="Rectángulo 401322" width="13.387" height="28.971" transform="translate(296.239 27.934)" fill="#34b7bf"/>
      <rect id="Rectángulo_401323" data-name="Rectángulo 401323" width="13.387" height="19.981" transform="translate(278.657 36.925)" fill="#34b7bf"/>
      <rect id="Rectángulo_401324" data-name="Rectángulo 401324" width="69.682" height="2.743" transform="translate(267.756 64.776)" fill="#e2e2ec"/>
      <rect id="Rectángulo_401325" data-name="Rectángulo 401325" width="69.682" height="2.743" transform="translate(267.756 71.635)" fill="#e2e2ec"/>
      <rect id="Rectángulo_401326" data-name="Rectángulo 401326" width="69.682" height="2.743" transform="translate(267.756 79.224)" fill="#e2e2ec"/>
      <path id="Trazado_875428" data-name="Trazado 875428" d="M122.4,363.942a2.842,2.842,0,0,1-2.841-2.841V227.945a2.841,2.841,0,0,1,5.683,0V361.1a2.841,2.841,0,0,1-2.841,2.841" transform="translate(-36.296 -68.335)" fill="#313440"/>
      <path id="Trazado_875429" data-name="Trazado 875429" d="M61.64,386.778a2.843,2.843,0,0,1-2.509-4.172l45.191-85.3L151.8,381.925a2.841,2.841,0,1,1-4.956,2.781L104.466,309.18,64.154,385.266a2.843,2.843,0,0,1-2.513,1.512" transform="translate(-17.85 -90.255)" fill="#313440"/>
      <path id="Trazado_875430" data-name="Trazado 875430" d="M172.618,118.425a85.7,85.7,0,1,0-85.7,85.7,85.7,85.7,0,0,0,85.7-85.7" transform="translate(-0.371 -9.935)" fill="#f15a28"/>
      <path id="Trazado_875431" data-name="Trazado 875431" d="M160.015,128.163a63.356,63.356,0,1,0-63.356,63.356,63.356,63.356,0,0,0,63.356-63.356" transform="translate(-10.11 -19.674)" fill="#fff"/>
      <path id="Trazado_875432" data-name="Trazado 875432" d="M149.857,136.012a45.35,45.35,0,1,0-45.35,45.35,45.35,45.35,0,0,0,45.35-45.35" transform="translate(-17.959 -27.522)" fill="#f15a28"/>
      <path id="Trazado_875433" data-name="Trazado 875433" d="M140.217,143.461a28.26,28.26,0,1,0-28.26,28.26,28.261,28.261,0,0,0,28.26-28.26" transform="translate(-25.408 -34.972)" fill="#fff"/>
      <path id="Trazado_875434" data-name="Trazado 875434" d="M132.223,149.639a14.088,14.088,0,1,0-14.089,14.088,14.088,14.088,0,0,0,14.089-14.088" transform="translate(-31.585 -41.149)" fill="#f15a28"/>
      <path id="Trazado_875435" data-name="Trazado 875435" d="M227.552,42.807l13.73.346L259.76,25.11l-19.874,1.676Z" transform="translate(-69.078 -7.623)" fill="#7d86ba"/>
      <path id="Trazado_875436" data-name="Trazado 875436" d="M226.372,35.283l-3.321-13.328L236.648,0l2.683,19.763Z" transform="translate(-67.712 0)" fill="#7d86ba"/>
      <path id="Trazado_875437" data-name="Trazado 875437" d="M142.964,102.039a1.793,1.793,0,0,1,.48-1.214L212.8,26.2a1.794,1.794,0,0,1,2.629,2.442l-69.358,74.625a1.794,1.794,0,0,1-3.108-1.228" transform="translate(-43.4 -7.78)" fill="#313440"/>
      <path id="Trazado_875438" data-name="Trazado 875438" d="M125.834,145.77l25.248-14.141-10.345-2.111-4.4-9.482Z" transform="translate(-38.2 -36.44)" fill="#fcb033"/>
      <path id="Trazado_875439" data-name="Trazado 875439" d="M134.644,46.956A34.652,34.652,0,1,1,99.992,12.3a34.652,34.652,0,0,1,34.652,34.652" transform="translate(-19.835 -3.735)" fill="#34b7bf"/>
      <path id="Trazado_875440" data-name="Trazado 875440" d="M126.707,83.041H85.545s6.275-21.083,20.832-21.083,20.33,21.083,20.33,21.083" transform="translate(-25.969 -18.809)" fill="#fff"/>
      <path id="Trazado_875441" data-name="Trazado 875441" d="M121.818,36.607a11.169,11.169,0,1,0-11.169,11.169,11.169,11.169,0,0,0,11.169-11.169" transform="translate(-30.199 -7.722)" fill="#fff"/>
      <path id="Trazado_875442" data-name="Trazado 875442" d="M291.095,145.116l-4.066-.04,0-.545,4.066.04Z" transform="translate(-87.134 -43.875)" fill="#313440"/>
      <path id="Trazado_875443" data-name="Trazado 875443" d="M296.76,152.756s-7-6.391-12.455-4.08-5.526,14.354.588,16.351,13.03-3.091,13.03-3.091Z" transform="translate(-85.079 -44.981)" fill="#dda583"/>
      <path id="Trazado_875444" data-name="Trazado 875444" d="M287.706,163.9a.245.245,0,0,0,.06-.474,4.669,4.669,0,0,1-2.818-5.489,4.745,4.745,0,0,1,1.845-3.355c1.163-.728,2.943-.7,5.95.086a.245.245,0,0,0,.124-.474c-3.192-.836-5.027-.844-6.333-.026-1.04.651-1.7,1.818-2.066,3.675a5.226,5.226,0,0,0,3.128,6.044.252.252,0,0,0,.11.014" transform="translate(-86.317 -46.618)" fill="#313440"/>
      <path id="Trazado_875445" data-name="Trazado 875445" d="M287.831,107.487c-2.586,4.642-.848,14.092,1.97,22.337s1.036-16.519,1.036-16.519l5.122-7.639Z" transform="translate(-86.993 -32.077)" fill="#313440"/>
      <path id="Trazado_875446" data-name="Trazado 875446" d="M349.292,192.881c.163-2.449-6.53,1.959-19.265,1.632s-21.713-1.143-22.039-.327.979,6.694.979,6.694l33.631,2.775Z" transform="translate(-93.481 -58.327)" fill="#313440"/>
      <path id="Trazado_875447" data-name="Trazado 875447" d="M311.949,179.217l.5,15.485s13.533,6.048,35.922-3.914l-2.319-31.053L327.988,175.6Z" transform="translate(-94.699 -48.491)" fill="#f0b48f"/>
      <path id="Trazado_875448" data-name="Trazado 875448" d="M312.127,189.081l-.178-5.5,16.039-3.619,6.033-5.3,4.087-.556c-6.485,12.855-22.05,14.711-25.982,14.977" transform="translate(-94.699 -52.853)" fill="#313440"/>
      <path id="Trazado_875449" data-name="Trazado 875449" d="M288.878,106.171c-1.156,4.714,1.495,11.334,1.164,20.887s-2.19,29.767,16.4,31.793,32.61-14.843,32.61-14.843l4.374-30.5c2.032-14.166-7.924-24.314-22.151-25.856q-.492-.053-1-.091c-27.784-2.066-31.4,18.6-31.4,18.6" transform="translate(-87.606 -26.539)" fill="#f0b48f"/>
      <path id="Trazado_875450" data-name="Trazado 875450" d="M313.514,203.377c20.57,4.68,51.7,16.87,63.452,26.23,0,0-17.077,112.111-17.077,127.13L209.737,358.2l-29.391-.577c-2.734-4.413,6.156-101.111,26.354-127.9l.031-.205s29.045-23.949,63.358-25.317l6.53,2.123,6.2-3.266,7.51,2.83Z" transform="translate(-54.601 -61.64)" fill="#fcb033"/>
      <path id="Trazado_875451" data-name="Trazado 875451" d="M364.406,131.264l2.567-22.912-15.728-2.922s1.462,7.836,2.442,17.363-.243,13.592-.243,13.592Z" transform="translate(-106.628 -32.005)" fill="#313440"/>
      <path id="Trazado_875452" data-name="Trazado 875452" d="M315.607,152a.327.327,0,0,0,.119-.614,6.862,6.862,0,0,1-3.173-5.145c-.139-1.346.431-2.233,1.293-3.575a24.515,24.515,0,0,0,2.022-3.662.327.327,0,1,0-.6-.262,23.974,23.974,0,0,1-1.974,3.571c-.9,1.406-1.555,2.421-1.394,3.995a7.446,7.446,0,0,0,3.518,5.655.326.326,0,0,0,.186.036" transform="translate(-94.678 -42.059)" fill="#313440"/>
      <path id="Trazado_875453" data-name="Trazado 875453" d="M330.69,141.6c-.159-1.547.221-2.854.849-2.918s1.265,1.137,1.425,2.684-.221,2.854-.849,2.919-1.265-1.137-1.425-2.685" transform="translate(-100.377 -42.098)" fill="#313440"/>
      <path id="Trazado_875454" data-name="Trazado 875454" d="M299.906,143.585c-.16-1.547.221-2.854.848-2.918s1.266,1.137,1.426,2.684-.221,2.854-.849,2.919-1.266-1.137-1.425-2.685" transform="translate(-91.032 -42.702)" fill="#313440"/>
      <path id="Trazado_875455" data-name="Trazado 875455" d="M326.231,133.829c.117.54.71.813,1.235.985a21.923,21.923,0,0,0,8.354,1.034,3.472,3.472,0,0,0,1.451-.335,1.934,1.934,0,0,0,.875-2.217,2.523,2.523,0,0,0-1.451-1.451,7.219,7.219,0,0,0-2.059-.448c-2.609-.3-5.48-.467-7.622,1.054-.457.325-.9.829-.784,1.378" transform="translate(-99.029 -39.828)" fill="#313440"/>
      <path id="Trazado_875456" data-name="Trazado 875456" d="M294.427,138.217c1.637.026,3.727-.852,4.918-.889,1.049-.033,3.2.384,3.293-1.182a2.764,2.764,0,0,0-2.029-2.034,8.092,8.092,0,0,0-2.341-.224c-1.78.008-4.6-.049-5.753,1.624a1.543,1.543,0,0,0-.215,1.4,2.079,2.079,0,0,0,2.128,1.3" transform="translate(-88.707 -40.645)" fill="#313440"/>
      <path id="Trazado_875457" data-name="Trazado 875457" d="M333.244,148.982c.153-.016.311-.037.473-.065a.245.245,0,0,0,.2-.283.237.237,0,0,0-.283-.2,4.46,4.46,0,0,1-3.4-.565.245.245,0,0,0-.308.382,4.662,4.662,0,0,0,3.315.731" transform="translate(-100.13 -44.873)" fill="#313440"/>
      <path id="Trazado_875458" data-name="Trazado 875458" d="M300.5,149.842a4.917,4.917,0,0,0,2.915-1.094.245.245,0,0,0-.346-.346,4.575,4.575,0,0,1-2.619.953.245.245,0,1,0,.05.487" transform="translate(-91.142 -45.029)" fill="#313440"/>
      <path id="Trazado_875459" data-name="Trazado 875459" d="M321.648,201.229c9.576,1.052,24.162-2.721,27.264-6.149l2.83,5.931S340.1,224.466,337.647,224.14s-11.428-21.55-15.836-22.529-14.693,17.142-15.835,17.468.653-22.2,1.632-22.692-.816,3.211,14.04,4.843" transform="translate(-92.774 -59.221)" fill="#313440"/>
      <path id="Trazado_875460" data-name="Trazado 875460" d="M320.853,200.061c9.576,1.052,24.488-3.429,27.59-6.857l3.1,7.184s-11.918,22.2-14.366,21.876-11.754-20.244-16.163-21.224-14.367,15.836-15.509,16.163.653-22.2,1.633-22.692-1.143,3.918,13.713,5.551" transform="translate(-92.632 -58.651)" fill="#fcb033"/>
      <path id="Trazado_875461" data-name="Trazado 875461" d="M342.531,100.79c3.514-4.136,9.621-10.18,1.4-15.079s-9.565,1.148-15.273-6.471-17.519-13.953-24.875-7.288-23.8-.013-27.694,6.787-.333,14.313,4.241,17.289,16.92,3.347,29.453.745,23.984,8.2,23.984,8.2Z" transform="translate(-83.308 -20.991)" fill="#313440"/>
      <path id="Trazado_875462" data-name="Trazado 875462" d="M297.368,109.775a67.566,67.566,0,0,0,11.052-2.4c4.2-1.16,8.16-2.254,11.9-2.2l.01-.653c-3.836-.056-7.842,1.052-12.085,2.224-5.117,1.414-10.41,2.876-15.97,2.47-10.086-.739-16.188-8.484-16.55-13.555l-.652.046c.379,5.3,6.705,13.4,17.155,14.16a29.232,29.232,0,0,0,5.14-.1" transform="translate(-83.504 -29.041)" fill="#313440"/>
      <path id="Trazado_875463" data-name="Trazado 875463" d="M347.379,177.31a.239.239,0,0,0,.121-.047c.217-.161,5.337-3.989,7.449-6.829a.245.245,0,1,0-.393-.292c-2.07,2.782-7.3,6.689-7.349,6.728a.245.245,0,0,0,.171.44" transform="translate(-105.373 -51.62)" fill="#313440"/>
      <path id="Trazado_875464" data-name="Trazado 875464" d="M308.409,358.766a5.39,5.39,0,0,0,1.8,0c.132-.031.471-51.142.457-51.277-1.214-11.1,4.055-64.747,6.3-87.657.587-5.97,1.01-10.283,1.1-11.56a.244.244,0,0,0-.228-.26.239.239,0,0,0-.26.228c-.088,1.269-.511,5.579-1.1,11.545-2.442,24.867-7.523,76.61-6.3,87.758.014.125-.328,50.5-1.765,51.223" transform="translate(-93.624 -63.146)" fill="#313440"/>
      <path id="Trazado_875465" data-name="Trazado 875465" d="M306.145,218.764c.162-1.009.87-1.735,1.582-1.621s1.159,1.024,1,2.033-.87,1.735-1.582,1.621-1.159-1.024-1-2.033" transform="translate(-92.927 -65.915)" fill="#313440"/>
      <path id="Trazado_875466" data-name="Trazado 875466" d="M348.957,225.06a1.85,1.85,0,1,1,1.85,1.85,1.85,1.85,0,0,1-1.85-1.85" transform="translate(-105.934 -67.76)" fill="#313440"/>
      <path id="Trazado_875467" data-name="Trazado 875467" d="M351.893,226.467a.163.163,0,0,0,.116-.279l-1.347-1.347a.163.163,0,0,0-.231.23l1.347,1.347a.163.163,0,0,0,.116.048" transform="translate(-106.366 -68.241)" fill="#313440"/>
      <path id="Trazado_875468" data-name="Trazado 875468" d="M350.546,226.467a.163.163,0,0,1-.116-.279l1.347-1.347a.163.163,0,1,1,.231.23l-1.347,1.347a.163.163,0,0,1-.116.048" transform="translate(-106.366 -68.241)" fill="#313440"/>
      <path id="Trazado_875469" data-name="Trazado 875469" d="M325.173,212.939a1.85,1.85,0,1,1,1.85,1.85,1.85,1.85,0,0,1-1.85-1.85" transform="translate(-98.713 -64.081)" fill="#313440"/>
      <path id="Trazado_875470" data-name="Trazado 875470" d="M328.109,214.345a.163.163,0,0,0,.116-.279l-1.347-1.347a.163.163,0,1,0-.231.231l1.347,1.347a.163.163,0,0,0,.116.048" transform="translate(-99.146 -64.561)" fill="#313440"/>
      <path id="Trazado_875471" data-name="Trazado 875471" d="M326.762,214.345a.163.163,0,0,1-.116-.279l1.347-1.347a.163.163,0,1,1,.231.231l-1.347,1.347a.163.163,0,0,1-.116.048" transform="translate(-99.146 -64.561)" fill="#313440"/>
      <path id="Trazado_875472" data-name="Trazado 875472" d="M322.36,232.865a1.85,1.85,0,1,1,1.85,1.85,1.851,1.851,0,0,1-1.85-1.85" transform="translate(-97.859 -70.13)" fill="#313440"/>
      <path id="Trazado_875473" data-name="Trazado 875473" d="M325.3,234.271a.163.163,0,0,0,.116-.279l-1.347-1.347a.163.163,0,1,0-.231.23l1.347,1.347a.163.163,0,0,0,.116.048" transform="translate(-98.292 -70.61)" fill="#313440"/>
      <path id="Trazado_875474" data-name="Trazado 875474" d="M323.95,234.271a.163.163,0,0,1-.116-.279l1.347-1.347a.163.163,0,0,1,.231.23l-1.347,1.347a.16.16,0,0,1-.115.048" transform="translate(-98.292 -70.61)" fill="#313440"/>
      <path id="Trazado_875475" data-name="Trazado 875475" d="M320.8,258.182a1.85,1.85,0,1,1,1.85,1.85,1.85,1.85,0,0,1-1.85-1.85" transform="translate(-97.385 -77.815)" fill="#313440"/>
      <path id="Trazado_875476" data-name="Trazado 875476" d="M323.734,259.589a.163.163,0,0,0,.116-.279l-1.347-1.347a.163.163,0,1,0-.231.231l1.347,1.347a.163.163,0,0,0,.116.048" transform="translate(-97.818 -78.296)" fill="#313440"/>
      <path id="Trazado_875477" data-name="Trazado 875477" d="M322.387,259.589a.162.162,0,0,1-.116-.048.164.164,0,0,1,0-.23l1.347-1.347a.163.163,0,1,1,.231.231L322.5,259.54a.163.163,0,0,1-.116.048" transform="translate(-97.818 -78.296)" fill="#313440"/>
      <path id="Trazado_875478" data-name="Trazado 875478" d="M317.672,287.563a1.85,1.85,0,1,1,1.85,1.85,1.851,1.851,0,0,1-1.85-1.85" transform="translate(-96.436 -86.734)" fill="#fff"/>
      <path id="Trazado_875479" data-name="Trazado 875479" d="M320.608,288.969a.163.163,0,0,0,.116-.279l-1.347-1.347a.163.163,0,0,0-.231.23l1.347,1.347a.163.163,0,0,0,.116.048" transform="translate(-96.869 -87.215)" fill="#313440"/>
      <path id="Trazado_875480" data-name="Trazado 875480" d="M319.261,288.969a.163.163,0,0,1-.116-.279l1.347-1.347a.163.163,0,0,1,.231.23l-1.347,1.347a.163.163,0,0,1-.116.048" transform="translate(-96.869 -87.215)" fill="#313440"/>
      <path id="Trazado_875481" data-name="Trazado 875481" d="M315.994,386.411a1.85,1.85,0,1,1,1.85,1.85,1.85,1.85,0,0,1-1.85-1.85" transform="translate(-95.927 -116.742)" fill="#313440"/>
      <path id="Trazado_875482" data-name="Trazado 875482" d="M318.93,387.816a.162.162,0,0,0,.116-.048.164.164,0,0,0,0-.23l-1.347-1.347a.163.163,0,1,0-.231.231l1.347,1.347a.163.163,0,0,0,.116.048" transform="translate(-96.36 -117.222)" fill="#313440"/>
      <path id="Trazado_875483" data-name="Trazado 875483" d="M317.583,387.816a.163.163,0,0,1-.116-.279l1.347-1.347a.163.163,0,1,1,.231.231l-1.347,1.347a.163.163,0,0,1-.116.048" transform="translate(-96.36 -117.222)" fill="#313440"/>
      <path id="Trazado_875484" data-name="Trazado 875484" d="M314.962,406.351a1.85,1.85,0,1,1,1.85,1.85,1.85,1.85,0,0,1-1.85-1.85" transform="translate(-95.614 -122.795)" fill="#313440"/>
      <path id="Trazado_875485" data-name="Trazado 875485" d="M317.9,407.757a.163.163,0,0,0,.116-.279l-1.347-1.347a.163.163,0,1,0-.231.231l1.347,1.347a.162.162,0,0,0,.116.048" transform="translate(-96.047 -123.275)" fill="#313440"/>
      <path id="Trazado_875486" data-name="Trazado 875486" d="M316.552,407.757a.163.163,0,0,1-.116-.279l1.347-1.347a.163.163,0,1,1,.231.231l-1.347,1.347a.163.163,0,0,1-.116.048" transform="translate(-96.047 -123.275)" fill="#313440"/>
      <path id="Trazado_875487" data-name="Trazado 875487" d="M316.82,183.914a.245.245,0,0,0,.125-.437c-.114-.09-2.783-2.216-1.417-4.451a.245.245,0,1,0-.417-.256c-1.594,2.608,1.5,5.068,1.534,5.092a.244.244,0,0,0,.176.051" transform="translate(-95.521 -54.234)" fill="#313440"/>
      <path id="Trazado_875488" data-name="Trazado 875488" d="M434.934,241.183c14.6,9.457,32.135,93.477,26.02,127.489l-56.386-.359-33.757-24.042,11.847-36.306,28.281-2.675Z" transform="translate(-112.568 -73.216)" fill="#fcb033"/>
      <path id="Trazado_875489" data-name="Trazado 875489" d="M253.928,329.121a.278.278,0,0,1-.113-.024l-15.057-6.844a.273.273,0,1,1,.226-.5l14.938,6.789,13.01-6.59v-34.2H238.878l-.124,32.1a.273.273,0,1,1-.546,0l.124-32.373a.272.272,0,0,1,.273-.272h28.6a.273.273,0,0,1,.273.273v34.642a.271.271,0,0,1-.149.243l-13.276,6.725a.269.269,0,0,1-.124.03" transform="translate(-72.313 -87.188)" fill="#313440"/>
      <path id="Trazado_875490" data-name="Trazado 875490" d="M267.143,297.007h-28.2a.273.273,0,1,1,0-.546h28.2a.273.273,0,0,1,0,.546" transform="translate(-72.454 -89.997)" fill="#313440"/>
      <path id="Trazado_875491" data-name="Trazado 875491" d="M473.714,369.969a.276.276,0,0,1-.1-.017c-.171-.065-17.228-6.428-24.61-6.428a.273.273,0,1,1,0-.546c7.482,0,24.1,6.2,24.8,6.463a.273.273,0,0,1-.1.529" transform="translate(-136.223 -110.19)" fill="#313440"/>
      <path id="Trazado_875492" data-name="Trazado 875492" d="M428.958,259.142a.287.287,0,0,1-.134-.035.275.275,0,0,1-.1-.371c4.819-8.57,17.714-14.821,17.844-14.883a.275.275,0,0,1,.363.128.271.271,0,0,1-.128.364c-.128.061-12.869,6.24-17.6,14.657a.273.273,0,0,1-.239.14" transform="translate(-130.137 -74.019)" fill="#313440"/>
      <path id="Trazado_875493" data-name="Trazado 875493" d="M383.066,379a.3.3,0,0,1-.095-.016.275.275,0,0,1-.162-.35L395.7,343.106a.272.272,0,1,1,.512.185l-12.893,35.529a.273.273,0,0,1-.255.18" transform="translate(-116.205 -104.103)" fill="#313440"/>
      <path id="Trazado_875494" data-name="Trazado 875494" d="M388.01,345.493a2.555,2.555,0,1,1,2.555,2.555,2.556,2.556,0,0,1-2.555-2.555" transform="translate(-117.789 -104.106)" fill="#313440"/>
      <path id="Trazado_875495" data-name="Trazado 875495" d="M392.065,347.435a.226.226,0,0,0,.159-.385l-1.86-1.859a.225.225,0,0,0-.319.318l1.86,1.86a.225.225,0,0,0,.159.066" transform="translate(-118.387 -104.77)" fill="#313440"/>
      <path id="Trazado_875496" data-name="Trazado 875496" d="M390.2,347.435a.226.226,0,0,1-.16-.385l1.86-1.859a.225.225,0,0,1,.319.318l-1.86,1.86a.225.225,0,0,1-.159.066" transform="translate(-118.387 -104.77)" fill="#313440"/>
      <path id="Trazado_875497" data-name="Trazado 875497" d="M219.464,383.957h-.006a.273.273,0,0,1-.267-.279l2.06-82.569L219.6,289.2a.275.275,0,0,1,.235-.309.3.3,0,0,1,.307.234l1.648,11.953-2.058,82.612a.274.274,0,0,1-.273.267" transform="translate(-66.54 -87.699)" fill="#313440"/>
      <path id="Trazado_875498" data-name="Trazado 875498" d="M330.709,146c-4.493.462-8.59-3.443-9.132-8.706s2.676-9.919,7.168-10.382,8.59,3.442,9.132,8.705S335.2,145.537,330.709,146M328.8,127.454c-4.194.431-7.191,4.82-6.681,9.783s4.339,8.65,8.533,8.219,7.191-4.821,6.681-9.784-4.339-8.649-8.533-8.218" transform="translate(-97.604 -38.515)" fill="#313440"/>
      <path id="Trazado_875499" data-name="Trazado 875499" d="M295.981,149.572c-4.493.462-8.59-3.443-9.132-8.706s2.676-9.919,7.168-10.382,8.59,3.442,9.132,8.705-2.676,9.921-7.168,10.382m-1.908-18.544c-4.194.431-7.191,4.82-6.681,9.783s4.339,8.65,8.533,8.219,7.191-4.821,6.681-9.784-4.339-8.649-8.533-8.218" transform="translate(-87.061 -39.6)" fill="#313440"/>
      <path id="Trazado_875500" data-name="Trazado 875500" d="M318.3,142.617c-5.266-2.7-8.033.226-8.15.354l-.4-.366c.033-.036,3.148-3.374,8.8-.474Z" transform="translate(-94.03 -42.788)" fill="#313440"/>
      <path id="Trazado_875501" data-name="Trazado 875501" d="M362.669,141.3l-17.705.51-.018-.545,17.706-.51Z" transform="translate(-104.716 -42.729)" fill="#313440"/>
      <path id="Trazado_875502" data-name="Trazado 875502" d="M356.3,146.471s5.555-7.683,11.364-6.53,8.332,12.929,2.753,16.129-13.387-.373-13.387-.373Z" transform="translate(-108.163 -42.446)" fill="#f0b48f"/>
      <path id="Trazado_875503" data-name="Trazado 875503" d="M370.427,155.372a.243.243,0,0,0,.1-.036,5.226,5.226,0,0,0,1.832-6.555c-.739-1.742-1.618-2.752-2.77-3.177-1.446-.534-3.241-.153-6.2,1.315a.245.245,0,1,0,.218.439c2.784-1.385,4.522-1.772,5.807-1.3a4.745,4.745,0,0,1,2.489,2.91,4.669,4.669,0,0,1-1.641,5.947.245.245,0,0,0,.155.451" transform="translate(-110.276 -44.132)" fill="#313440"/>
      <path id="Trazado_875504" data-name="Trazado 875504" d="M320.62,168.045a14.911,14.911,0,0,1-2.339-.193.285.285,0,0,1,.089-.562c7.105,1.127,9.3-3.11,9.395-3.291a.285.285,0,0,1,.51.251c-.022.043-1.944,3.794-7.655,3.794" transform="translate(-96.548 -49.737)" fill="#313440"/>
      <path id="Trazado_875505" data-name="Trazado 875505" d="M381.13,241.285a8.049,8.049,0,0,1-6.075-2.435,4.014,4.014,0,0,1,2.034-6.9,11.05,11.05,0,0,1,3.267-.259l.419.008a17.4,17.4,0,0,0,6.886-1.059,24.525,24.525,0,0,0,2.7-1.374c.81-.455,1.647-.925,2.534-1.319,1.735-.77,4.3-1.468,6.658-.416a5.235,5.235,0,0,1,2.779,3.17,4.005,4.005,0,0,1-.36,3.332,6.641,6.641,0,0,1-3.839,2.459q-2.616.858-5.235,1.706l-5.312,1.726a21.742,21.742,0,0,1-6.185,1.355c-.09,0-.18,0-.268,0m-1.632-7.328a6.811,6.811,0,0,0-1.8.189,2.153,2.153,0,0,0-1.6,1.336,2.228,2.228,0,0,0,.653,1.851,5.883,5.883,0,0,0,4.589,1.673,20.006,20.006,0,0,0,5.539-1.243l5.313-1.726q2.615-.85,5.229-1.7a4.723,4.723,0,0,0,2.612-1.494,1.77,1.77,0,0,0,.12-1.465,2.94,2.94,0,0,0-1.531-1.762c-1.681-.749-3.734-.059-4.807.418-.79.351-1.545.774-2.344,1.224a26.448,26.448,0,0,1-2.953,1.5,19.6,19.6,0,0,1-7.782,1.227l-.432-.008c-.274-.006-.544-.013-.808-.013" transform="translate(-113.472 -68.911)" fill="#fff"/>
      <path id="Trazado_875506" data-name="Trazado 875506" d="M423.932,283.016a8.048,8.048,0,0,1-6.075-2.435,4.014,4.014,0,0,1,2.034-6.9,11.045,11.045,0,0,1,3.266-.259l.419.008a17.378,17.378,0,0,0,6.886-1.059h0a24.455,24.455,0,0,0,2.7-1.374c.81-.455,1.648-.925,2.534-1.319,1.735-.77,4.3-1.468,6.659-.417a5.238,5.238,0,0,1,2.779,3.17,4,4,0,0,1-.359,3.332,6.642,6.642,0,0,1-3.839,2.459q-2.616.858-5.234,1.706l-5.312,1.726a21.752,21.752,0,0,1-6.185,1.355c-.09,0-.18,0-.268,0m-1.632-7.328a6.809,6.809,0,0,0-1.8.189,2.154,2.154,0,0,0-1.6,1.336,2.231,2.231,0,0,0,.654,1.851,5.884,5.884,0,0,0,4.589,1.674,20.037,20.037,0,0,0,5.539-1.243l5.312-1.726q2.616-.85,5.229-1.7a4.726,4.726,0,0,0,2.612-1.494,1.773,1.773,0,0,0,.12-1.465,2.94,2.94,0,0,0-1.531-1.762c-1.68-.749-3.734-.059-4.808.418-.789.351-1.544.774-2.343,1.224a26.453,26.453,0,0,1-2.953,1.5,19.556,19.556,0,0,1-7.782,1.227l-.432-.009c-.274-.006-.543-.012-.807-.012" transform="translate(-126.465 -81.579)" fill="#fff"/>
      <path id="Trazado_875507" data-name="Trazado 875507" d="M347.96,284.621a8.048,8.048,0,0,1-6.075-2.435,4.014,4.014,0,0,1,2.034-6.9,11.056,11.056,0,0,1,3.268-.259l.418.008a17.4,17.4,0,0,0,6.886-1.059,24.458,24.458,0,0,0,2.7-1.374c.81-.455,1.648-.925,2.534-1.319,1.734-.77,4.3-1.468,6.657-.417a5.235,5.235,0,0,1,2.779,3.17,4,4,0,0,1-.36,3.332,6.639,6.639,0,0,1-3.839,2.459q-2.616.858-5.234,1.706l-5.313,1.726a21.717,21.717,0,0,1-6.184,1.354c-.09,0-.18,0-.268,0m-1.632-7.328a6.814,6.814,0,0,0-1.8.189,2.154,2.154,0,0,0-1.6,1.336,2.231,2.231,0,0,0,.654,1.851,5.871,5.871,0,0,0,4.589,1.673,20.043,20.043,0,0,0,5.539-1.243l5.312-1.726q2.616-.85,5.229-1.7a4.721,4.721,0,0,0,2.612-1.493,1.773,1.773,0,0,0,.12-1.465,2.94,2.94,0,0,0-1.531-1.762c-1.68-.749-3.734-.059-4.808.418-.789.351-1.544.774-2.344,1.224a26.436,26.436,0,0,1-2.953,1.5,19.574,19.574,0,0,1-7.783,1.227l-.431-.008c-.274-.006-.544-.013-.808-.013" transform="translate(-103.402 -82.067)" fill="#fff"/>
      <path id="Trazado_875508" data-name="Trazado 875508" d="M416.71,337.855a8.048,8.048,0,0,1-6.075-2.435,4.014,4.014,0,0,1,2.034-6.9,11.05,11.05,0,0,1,3.267-.259l.418.008a17.411,17.411,0,0,0,6.886-1.059h0a24.351,24.351,0,0,0,2.7-1.374c.81-.455,1.648-.925,2.534-1.319,1.735-.77,4.3-1.468,6.659-.417a5.241,5.241,0,0,1,2.779,3.17,4.005,4.005,0,0,1-.36,3.332,6.643,6.643,0,0,1-3.839,2.459q-2.616.858-5.234,1.706l-5.312,1.726a21.749,21.749,0,0,1-6.185,1.355c-.09,0-.18,0-.268,0m-1.632-7.329a6.805,6.805,0,0,0-1.8.189,2.154,2.154,0,0,0-1.6,1.336,2.233,2.233,0,0,0,.654,1.852,5.876,5.876,0,0,0,4.589,1.673,20.021,20.021,0,0,0,5.539-1.243l5.312-1.726q2.616-.85,5.23-1.7a4.725,4.725,0,0,0,2.612-1.494,1.773,1.773,0,0,0,.121-1.465,2.94,2.94,0,0,0-1.531-1.762c-1.681-.749-3.734-.059-4.808.418-.789.351-1.544.774-2.343,1.224a26.442,26.442,0,0,1-2.953,1.5,19.574,19.574,0,0,1-7.782,1.227l-.432-.008c-.274-.006-.544-.013-.808-.013" transform="translate(-124.272 -98.227)" fill="#fff"/>
      <path id="Trazado_875509" data-name="Trazado 875509" d="M487.662,331.917l-5.268,1.711a20.014,20.014,0,0,1-5.544,1.245l-.205,0a5.846,5.846,0,0,1-4.4-1.682,2.249,2.249,0,0,1-.657-1.87,2.214,2.214,0,0,1,1.612-1.35,6.849,6.849,0,0,1,1.809-.19c.267,0,.536.006.8.012l.965.013a18.984,18.984,0,0,0,7.241-1.229,25.077,25.077,0,0,0,2.785-1.405q-.217-1.156-.441-2.308c-.162.09-.327.178-.487.268a24.319,24.319,0,0,1-2.7,1.375,16.825,16.825,0,0,1-6.4,1.064l-.915-.013c-.285-.006-.57-.013-.855-.013a9.036,9.036,0,0,0-2.4.271,3.995,3.995,0,0,0-2.025,6.865,8.061,8.061,0,0,0,6.066,2.428l.263,0a22.022,22.022,0,0,0,6.178-1.352l4.957-1.611q-.187-1.115-.38-2.227" transform="translate(-142.472 -98.62)" fill="#f8eee9"/>
      <path id="Trazado_875510" data-name="Trazado 875510" d="M251.926,254.393a8.048,8.048,0,0,1-6.075-2.435,4.014,4.014,0,0,1,2.034-6.9,11.056,11.056,0,0,1,3.268-.259l.418.008a17.4,17.4,0,0,0,6.886-1.059,24.464,24.464,0,0,0,2.7-1.374c.81-.455,1.648-.925,2.534-1.319,1.734-.77,4.3-1.468,6.657-.416a5.235,5.235,0,0,1,2.779,3.17,4.005,4.005,0,0,1-.359,3.332,6.643,6.643,0,0,1-3.839,2.459q-2.615.858-5.234,1.706l-5.312,1.726a21.727,21.727,0,0,1-6.185,1.354c-.09,0-.18,0-.268,0m-1.632-7.328a6.807,6.807,0,0,0-1.8.189,2.151,2.151,0,0,0-1.6,1.336,2.228,2.228,0,0,0,.653,1.851,5.879,5.879,0,0,0,4.589,1.674,20.038,20.038,0,0,0,5.539-1.243l5.312-1.726q2.616-.85,5.229-1.7a4.726,4.726,0,0,0,2.612-1.494,1.773,1.773,0,0,0,.121-1.465,2.94,2.94,0,0,0-1.531-1.762c-1.68-.749-3.734-.059-4.808.418-.789.351-1.544.774-2.344,1.224a26.441,26.441,0,0,1-2.953,1.5,19.578,19.578,0,0,1-7.783,1.227l-.431-.008c-.274-.006-.544-.013-.808-.013" transform="translate(-74.249 -72.89)" fill="#fff"/>
      <path id="Trazado_875511" data-name="Trazado 875511" d="M414.569,391.891a8.048,8.048,0,0,1-6.075-2.435,4.014,4.014,0,0,1,2.034-6.9,11.05,11.05,0,0,1,3.267-.259l.418.008a17.4,17.4,0,0,0,6.886-1.058,24.47,24.47,0,0,0,2.7-1.374c.81-.455,1.647-.925,2.533-1.319,1.735-.77,4.3-1.468,6.659-.416a5.237,5.237,0,0,1,2.779,3.17,4,4,0,0,1-.359,3.332,6.642,6.642,0,0,1-3.839,2.459q-2.615.858-5.234,1.706l-5.312,1.726a21.759,21.759,0,0,1-6.185,1.355c-.09,0-.18,0-.268,0m-1.632-7.328a6.812,6.812,0,0,0-1.8.189,2.152,2.152,0,0,0-1.6,1.336,2.228,2.228,0,0,0,.653,1.851,5.877,5.877,0,0,0,4.589,1.674,20.017,20.017,0,0,0,5.539-1.243l5.312-1.726q2.616-.85,5.229-1.7a4.725,4.725,0,0,0,2.612-1.494,1.772,1.772,0,0,0,.12-1.465,2.94,2.94,0,0,0-1.531-1.762c-1.68-.749-3.733-.059-4.808.418-.789.35-1.544.774-2.343,1.224a26.457,26.457,0,0,1-2.953,1.5l-.43-1.053.43,1.053a19.6,19.6,0,0,1-7.782,1.227l-.432-.008c-.274-.006-.544-.013-.808-.013" transform="translate(-123.623 -114.631)" fill="#fff"/>
      <path id="Trazado_875512" data-name="Trazado 875512" d="M421.988,338.211a.272.272,0,0,1-.269-.229l-5.369-33.3a.272.272,0,1,1,.538-.088l5.37,33.3a.271.271,0,0,1-.226.313.289.289,0,0,1-.042,0" transform="translate(-126.391 -92.397)" fill="#313440"/>
      <path id="Trazado_875513" data-name="Trazado 875513" d="M417.443,320.329a.276.276,0,0,1-.1-.017c-2.215-.832-4.241-8.21-4.465-9.047a.274.274,0,0,1,.529-.141c.586,2.2,2.476,8.056,4.128,8.677a.273.273,0,0,1-.1.529" transform="translate(-125.337 -94.387)" fill="#313440"/>
      <path id="Trazado_875514" data-name="Trazado 875514" d="M181.479,283.906l93.735,1.249a3.514,3.514,0,0,1,3.413,2.9l11.759,65.992a3.515,3.515,0,0,1-3.445,4.132l-93.119.394a3.514,3.514,0,0,1-3.472-2.882l-12.375-67.636a3.515,3.515,0,0,1,3.5-4.147" transform="translate(-54.01 -86.186)" fill="#cfc1cc"/>
      <path id="Trazado_875515" data-name="Trazado 875515" d="M177.337,283.906l93.735,1.249a3.514,3.514,0,0,1,3.413,2.9l11.759,65.992a3.515,3.515,0,0,1-3.445,4.132l-93.119.394a3.514,3.514,0,0,1-3.472-2.882l-12.376-67.636a3.515,3.515,0,0,1,3.5-4.147" transform="translate(-52.753 -86.186)" fill="#34b7bf"/>
      <path id="Trazado_875516" data-name="Trazado 875516" d="M291.686,353.939l-11.759-65.993a3.514,3.514,0,0,0-3.413-2.9L182.778,283.8c-.117,0-.225.025-.338.034l91.189,1.215a3.514,3.514,0,0,1,3.413,2.9L288.8,353.939a3.514,3.514,0,0,1-3.445,4.131l-90.371.383a.525.525,0,0,1,.091.012l93.165-.395a3.514,3.514,0,0,0,3.445-4.131" transform="translate(-55.384 -86.153)" fill="#298c91"/>
      <path id="Trazado_875517" data-name="Trazado 875517" d="M240.345,337.009a8.185,8.185,0,0,0,7.1-.065c3.335-1.571,6.565-5.413,5.993-9.306-.554-3.77-4.189-6.245-7.715-6.947a9.1,9.1,0,0,0-7.2,1.5c-4.706,3.558-3.3,11.989,1.639,14.722.061.033.123.066.185.1" transform="translate(-71.532 -97.295)" fill="#fff"/>
      <path id="Trazado_875518" data-name="Trazado 875518" d="M366.3,327.472c-6.907-6.654-7.507-7.957-8.948-10.5s-18.122-12.832-23.071-18.457c-4.58-5.207-11.9-5.15-10.458,3.384,1.345,7.97,14.1,13.9,11.689,13.842-7.443-.174-7.439-.26-7.439-.26l.406,32.391L332.814,354l15.832,0Z" transform="translate(-98.248 -89.546)" fill="#f0b48f"/>
      <path id="Trazado_875519" data-name="Trazado 875519" d="M302.049,381.146a5.026,5.026,0,0,0,2.334.477l30.582-1.046a5.076,5.076,0,1,0-.349-10.147l-30.582,1.046a5.076,5.076,0,0,0-1.985,9.67" transform="translate(-90.807 -112.451)" fill="#f0b48f"/>
      <path id="Trazado_875520" data-name="Trazado 875520" d="M279.582,333.509a6.843,6.843,0,0,0,1.079.187l30.685,2.728a6.775,6.775,0,0,0,7.347-6.145c.331-3.73,9.524-7.522-6.145-7.347L281.864,320.2a6.772,6.772,0,0,0-2.281,13.306" transform="translate(-83.327 -97.197)" fill="#f0b48f"/>
      <path id="Trazado_875521" data-name="Trazado 875521" d="M367.275,335.8s-9.967-12.016-13.079-12.974c-13.328-4.1-25.84,9.345-25.84,9.345s-8.531,29.7-1.785,31.9c6.347,2.076,31.456,2.565,31.456,2.565Z" transform="translate(-98.35 -97.766)" fill="#f0b48f"/>
      <path id="Trazado_875522" data-name="Trazado 875522" d="M334.777,335.593a.279.279,0,0,0,.431.253l3.422-2.264a.278.278,0,0,0-.306-.465L334.9,335.38a.28.28,0,0,0-.125.212" transform="translate(-101.629 -101.111)" fill="#313440"/>
      <path id="Trazado_875523" data-name="Trazado 875523" d="M338.652,335.766a.28.28,0,0,1-.463.188l-3.057-2.736a.278.278,0,0,1,.37-.416l3.057,2.736a.279.279,0,0,1,.093.228" transform="translate(-101.708 -101.008)" fill="#313440"/>
      <path id="Trazado_875524" data-name="Trazado 875524" d="M278.94,332.828a.267.267,0,0,0,.247-.06.274.274,0,0,0,.023-.383c-1.99-2.247-.048-5.124.41-5.743l6.415.694c1.07,1.795-.2,6.037-.21,6.081a.271.271,0,0,0,.18.339l.013,0a.27.27,0,0,0,.327-.183c.059-.189,1.4-4.712.072-6.649a.294.294,0,0,0-.195-.118l-6.694-.724a.266.266,0,0,0-.238.1c-.029.033-2.983,3.736-.485,6.558a.258.258,0,0,0,.136.082" transform="translate(-84.333 -98.99)" fill="#313440"/>
      <path id="Trazado_875525" data-name="Trazado 875525" d="M320.923,353.066c-.178.006-.355,0-.536,0l-22.928-.87a6.926,6.926,0,0,1-6.939-7c.185-3.713,3.6-6.565,7.6-6.452l22.928.869a6.927,6.927,0,0,1,6.938,7,7.073,7.073,0,0,1-7.065,6.455" transform="translate(-88.192 -102.831)" fill="#f0b48f"/>
      <path id="Trazado_875526" data-name="Trazado 875526" d="M321.365,368.079c-.178.006-.355,0-.535,0l-22.928-.87a6.926,6.926,0,0,1-6.938-7c.185-3.713,3.6-6.565,7.6-6.452l22.928.869a6.928,6.928,0,0,1,6.939,7,7.073,7.073,0,0,1-7.065,6.454" transform="translate(-88.326 -107.388)" fill="#f0b48f"/>
      <path id="Trazado_875527" data-name="Trazado 875527" d="M313.243,341.717c-.678,0-17.946-.928-18.687-.969a.164.164,0,0,1,.009-.327h.008c6.254.336,18.132.968,18.661.968h.015a.164.164,0,0,1,0,.328Z" transform="translate(-89.372 -103.342)" fill="#313440"/>
      <path id="Trazado_875528" data-name="Trazado 875528" d="M307.589,357.109h-.009l-13.217-.673a.164.164,0,0,1,.008-.327h.009l13.217.674a.164.164,0,0,1-.008.327" transform="translate(-89.313 -108.104)" fill="#313440"/>
      <path id="Trazado_875529" data-name="Trazado 875529" d="M302.278,373.285a.164.164,0,0,1,0-.328l9.547-.281h0a.164.164,0,0,1,0,.328l-9.547.281Z" transform="translate(-91.713 -113.134)" fill="#313440"/>
      <path id="Trazado_875530" data-name="Trazado 875530" d="M334.566,350.626a.279.279,0,0,0,.431.253l3.422-2.264a.278.278,0,0,0-.306-.465l-3.422,2.263a.279.279,0,0,0-.125.212" transform="translate(-101.565 -105.674)" fill="#313440"/>
      <path id="Trazado_875531" data-name="Trazado 875531" d="M338.44,350.8a.271.271,0,0,1-.071.165.278.278,0,0,1-.392.023l-3.057-2.736a.278.278,0,0,1,.37-.416l3.057,2.736a.279.279,0,0,1,.093.228" transform="translate(-101.644 -105.572)" fill="#313440"/>
      <path id="Trazado_875532" data-name="Trazado 875532" d="M333.887,364.584a.279.279,0,0,0,.431.253l3.422-2.264a.278.278,0,0,0-.306-.465l-3.422,2.263a.28.28,0,0,0-.125.212" transform="translate(-101.358 -109.912)" fill="#313440"/>
      <path id="Trazado_875533" data-name="Trazado 875533" d="M337.761,364.756a.271.271,0,0,1-.071.165.278.278,0,0,1-.392.023l-3.057-2.736a.278.278,0,0,1,.37-.416l3.057,2.736a.279.279,0,0,1,.093.228" transform="translate(-101.438 -109.809)" fill="#313440"/>
      <path id="Trazado_875534" data-name="Trazado 875534" d="M408.053,397.218a.267.267,0,0,1-.134-.036l-37.324-21.267a.269.269,0,0,1-.125-.316l11.822-38.723a.27.27,0,0,1,.141-.166.265.265,0,0,1,.219-.007c.484.191,48.666,19.314,75.5,35.521a.272.272,0,1,1-.281.467c-25.739-15.544-71.171-33.786-75.142-35.37l-11.674,38.23,37.134,21.159a.273.273,0,0,1-.134.51" transform="translate(-112.46 -102.207)" fill="#313440"/>
      <path id="Trazado_875535" data-name="Trazado 875535" d="M84.844,204.036A30.044,30.044,0,1,1,54.8,173.993a30.043,30.043,0,0,1,30.043,30.043" transform="translate(-7.516 -52.819)" fill="#34b7bf"/>
      <path id="Trazado_875536" data-name="Trazado 875536" d="M77.963,235.321H42.275s5.44-18.279,18.062-18.279,17.626,18.279,17.626,18.279" transform="translate(-12.834 -65.888)" fill="#fff"/>
      <path id="Trazado_875537" data-name="Trazado 875537" d="M73.724,195.063a9.683,9.683,0,1,0-9.684,9.684,9.684,9.684,0,0,0,9.684-9.684" transform="translate(-16.501 -56.276)" fill="#fff"/>
      <path id="Trazado_875538" data-name="Trazado 875538" d="M446.36,191.208l-3.475-17.4a7.15,7.15,0,0,0-5.528-5.6l-.082-.022-10.936-3.635,11.21-4.082a7.179,7.179,0,0,0,5.391-5.483l3.757-17.661,4.114,17.847a7.118,7.118,0,0,0,5.278,5.344l12.006,3.853-11.919,4.02a7.179,7.179,0,0,0-5.551,5.322Zm-8.642-24.49a8.68,8.68,0,0,1,6.668,6.786l2.122,10.629,2.629-10.787a8.718,8.718,0,0,1,6.689-6.451L463.2,164.4l-7.528-2.417a8.614,8.614,0,0,1-6.354-6.473L446.757,144.4l-2.319,10.9a8.717,8.717,0,0,1-6.5,6.646l-6.948,2.534Z" transform="translate(-129.424 -41.687)" fill="#34b7bf"/>
      <path id="Trazado_875539" data-name="Trazado 875539" d="M309.014,23.115l7.207-2.434-7.3-2.343a5.932,5.932,0,0,1-4.376-4.43l-2.5-10.845-2.275,10.7a5.931,5.931,0,0,1-4.47,4.546l-6.782,2.473,6.629,2.2a5.932,5.932,0,0,1,4.582,4.641l2.1,10.5,2.582-10.591a5.931,5.931,0,0,1,4.6-4.413" transform="translate(-87.588 -0.93)" fill="#fcb033"/>
      <path id="Trazado_875540" data-name="Trazado 875540" d="M57.008,373.9a3.757,3.757,0,0,0-3.757-3.757H14.934a3.758,3.758,0,0,0-3.757,3.757v11.187a22.78,22.78,0,0,0,2.41,10.184c14.011-4.464,29-6.177,43.42-11.3Z" transform="translate(-3.393 -112.365)" fill="#fcb033"/>
      <path id="Trazado_875541" data-name="Trazado 875541" d="M14.637,401.3a22.9,22.9,0,0,0,43.42-10.184V390c-14.423,5.125-29.409,6.837-43.42,11.3" transform="translate(-4.443 -118.393)" fill="#fcb033"/>
      <path id="Trazado_875542" data-name="Trazado 875542" d="M56.572,373.233c0-1.179-9.049-2.135-20.211-2.135s-20.21.956-20.21,2.135,9.049,2.135,20.21,2.135,20.211-.956,20.211-2.135" transform="translate(-4.903 -112.655)" fill="#313440"/>
      <path id="Trazado_875543" data-name="Trazado 875543" d="M33.266,311.012c.427-.569,6.689-18.361-.854-19.926s-10.675,4.84-11.814,13.237,1.85,19.072.427,19.5-3.416-5.124-7.259-2.135-.427,8.255,2.419,11.1,2.7,3.985,2.135,3.985-3.558-1.708-5.266.712-1.708,8.54,8.255,11.671c0,0,8.113,2.135,13.663-.142s-1.708-38-1.708-38" transform="translate(-3.658 -88.294)" fill="#8fa159"/>
      <path id="Trazado_875544" data-name="Trazado 875544" d="M39.973,351.537c1.139,0,8.73.759,11.956-.949s11.766-14.043,9.109-17.08-5.124-2.467-5.124-2.467,10.247-11.007,4.933-12.525-7.021,1.139-7.021,1.139,7.4-22.773-3.985-22.2-5.124,22.013-5.124,22.013-1.9-8.729-7.97-7.211-4.934,12.715-1.708,21.064c0,0-3.985-3.415-6.262.759s11.2,17.459,11.2,17.459" transform="translate(-8.657 -90.295)" fill="#b0c66b"/>
      <path id="Trazado_875545" data-name="Trazado 875545" d="M54.133,353.384a.307.307,0,0,1-.21-.08.317.317,0,0,1-.03-.451c.05-.058,4.976-5.73,3.643-9.063a2.465,2.465,0,0,0-1.516-1.584c-1.448-.449-3.257.721-3.275.734a.314.314,0,0,1-.348,0,.318.318,0,0,1-.148-.315c.015-.1,1.383-10.081-.969-15.486a.317.317,0,0,1,.165-.421.314.314,0,0,1,.421.166c2.1,4.828,1.371,12.862,1.1,15.192a4.655,4.655,0,0,1,3.245-.489,3.086,3.086,0,0,1,1.921,1.957c1.479,3.7-3.543,9.482-3.759,9.725a.315.315,0,0,1-.24.11" transform="translate(-15.558 -99.175)" fill="#313440"/>
      <path id="Trazado_875546" data-name="Trazado 875546" d="M35.837,362.71a.321.321,0,0,1-.233-.1c-.383-.4-9.389-9.892-7.259-13.756a4.039,4.039,0,0,1,2.473-2.073,6.071,6.071,0,0,1,4.182.669.322.322,0,0,1,.118.438.33.33,0,0,1-.438.118,5.5,5.5,0,0,0-3.694-.606,3.414,3.414,0,0,0-2.08,1.764c-1.579,2.867,4.635,10.359,7.164,13a.321.321,0,0,1-.233.541" transform="translate(-8.506 -105.227)" fill="#313440"/>
      <path id="Trazado_875547" data-name="Trazado 875547" d="M58.033,321.223a.321.321,0,0,1-.253-.516c.03-.042,3.165-4.13,2.638-6.252a1.347,1.347,0,0,0-.809-.945,2,2,0,0,0-1.741-.045c-1.644.742-2.509,3.518-2.518,3.546a.31.31,0,0,1-.4.213.317.317,0,0,1-.213-.4c.038-.128.96-3.087,2.867-3.947a2.659,2.659,0,0,1,2.27.045,1.989,1.989,0,0,1,1.167,1.378c.6,2.421-2.619,6.618-2.756,6.8a.315.315,0,0,1-.253.125" transform="translate(-16.613 -94.911)" fill="#313440"/>
      <path id="Trazado_875548" data-name="Trazado 875548" d="M25.576,346.035a.318.318,0,0,1-.3-.21,3.558,3.558,0,0,1,1.21-3.611,2.584,2.584,0,0,1,1.847-.817,2.928,2.928,0,0,1,1.9.977.321.321,0,0,1-.038.451.314.314,0,0,1-.451-.035,2.308,2.308,0,0,0-1.443-.752,1.953,1.953,0,0,0-1.364.629,2.961,2.961,0,0,0-1.06,2.94.321.321,0,0,1-.195.408.344.344,0,0,1-.108.02" transform="translate(-7.639 -103.639)" fill="#313440"/>
      <path id="Trazado_875549" data-name="Trazado 875549" d="M77.567,343.319c1.93,2.038,8.824-6.832,5.693-7.828s-8.255,5.124-5.693,7.828" transform="translate(-23.336 -101.813)" fill="#b0c66b"/>
      <path id="Trazado_875550" data-name="Trazado 875550" d="M13.442,317.3c-2.683.824,2.2,10.942,4.482,8.579S17,316.207,13.442,317.3" transform="translate(-3.843 -96.29)" fill="#8fa159"/>
      <path id="Trazado_875551" data-name="Trazado 875551" d="M72.985,314.709c1.49.745,1.992-1.992,1.139-2.277s-2.277,1.708-1.139,2.277" transform="translate(-22.028 -94.837)" fill="#b0c66b"/>
      <path id="Trazado_875552" data-name="Trazado 875552" d="M12.082,331.058c1.49.745,1.992-1.992,1.139-2.277s-2.277,1.708-1.139,2.277" transform="translate(-3.539 -99.8)" fill="#8fa159"/>
      <path id="Trazado_875553" data-name="Trazado 875553" d="M49.8,290.459c2.724.272,1.85-6.832.285-6.832s-3.131,6.547-.285,6.832" transform="translate(-14.637 -86.101)" fill="#8fa159"/>
      <path id="Trazado_875554" data-name="Trazado 875554" d="M8.113,350.853s-.285-4.412-3.985-3.7-1,8.967,1.992,8.4,1.992-4.7,1.992-4.7" transform="translate(-0.708 -105.362)" fill="#8fa159"/>
      <path id="Trazado_875555" data-name="Trazado 875555" d="M57.093,387.352c-.343-.043-.687-.089-1.024-.117-2.492-.2-5.445.745-6,3.318a5.877,5.877,0,0,0,.23,2.753c.054.209.107.419.152.627.152.716.071,1.348-.2,1.536-.338.247-1.157-.185-1.619-.841a11.375,11.375,0,0,1-.6-.992,7.013,7.013,0,0,0-1.806-2.331,4.3,4.3,0,0,0-6.486,2.151,7.166,7.166,0,0,0-.206,1.081,5.053,5.053,0,0,1-.127.721,2.083,2.083,0,0,1-1.834,1.459,2.142,2.142,0,0,1-1.964-1.281,5.471,5.471,0,0,1-.244-1.412,7.531,7.531,0,0,0-.354-1.942,4.575,4.575,0,0,0-7.127-1.757,7.528,7.528,0,0,0-1.582,2.364c-.154.311-.306.623-.481.918-.387.657-1.081,1.279-1.6,1.153-.592-.152-.95-1.192-1.265-2.109l-.081-.235a6.671,6.671,0,0,0-2.285-3.385,3.894,3.894,0,0,0-4.582-.089A5.272,5.272,0,0,0,15,390.078c-.1.144-.206.289-.32.427a2.987,2.987,0,0,1-2.7.914,3.668,3.668,0,0,1-.715-.169v.835c0,.509.04,1.008.077,1.507.122.023.231.071.356.086a5.231,5.231,0,0,0,4.735-1.717c.148-.178.284-.367.419-.556a3.4,3.4,0,0,1,.563-.671,1.654,1.654,0,0,1,1.846.148,4.525,4.525,0,0,1,1.464,2.282l.078.227c.454,1.318,1.074,3.124,2.861,3.575,1.815.463,3.353-.9,4.119-2.2.2-.345.383-.7.562-1.068a5.657,5.657,0,0,1,1.076-1.69,2.313,2.313,0,0,1,3.449.85,5.679,5.679,0,0,1,.228,1.372,7.333,7.333,0,0,0,.389,2.027A4.391,4.391,0,0,0,37.493,399c.062,0,.125,0,.187,0a4.385,4.385,0,0,0,3.919-3.116,7.355,7.355,0,0,0,.191-1.036,5.135,5.135,0,0,1,.132-.74,2.043,2.043,0,0,1,2.933-.972,5.187,5.187,0,0,1,1.19,1.625,13.355,13.355,0,0,0,.724,1.189c1.1,1.564,3.2,2.516,4.789,1.392a3.619,3.619,0,0,0,1.118-3.871c-.051-.24-.111-.478-.172-.719a4.072,4.072,0,0,1-.212-1.71c.251-1.163,2.044-1.657,3.589-1.53.4.033.805.086,1.211.139Z" transform="translate(-3.419 -117.546)" fill="#fff"/>
      <path id="Trazado_875556" data-name="Trazado 875556" d="M223.9,171.761a30.044,30.044,0,1,1-30.043-30.043A30.043,30.043,0,0,1,223.9,171.761" transform="translate(-49.728 -43.022)" fill="#34b7bf"/>
      <path id="Trazado_875557" data-name="Trazado 875557" d="M217.015,203.046H181.327s5.44-18.279,18.062-18.279,17.626,18.279,17.626,18.279" transform="translate(-55.046 -56.09)" fill="#fff"/>
      <path id="Trazado_875558" data-name="Trazado 875558" d="M212.777,162.788a9.683,9.683,0,1,0-9.684,9.684,9.684,9.684,0,0,0,9.684-9.684" transform="translate(-58.714 -46.478)" fill="#fff"/>
      <path id="Trazado_875559" data-name="Trazado 875559" d="M25.357,23.164l7.137-2.411-7.225-2.319a5.874,5.874,0,0,1-4.333-4.388L18.46,3.306,16.208,13.9a5.876,5.876,0,0,1-4.426,4.5L5.064,20.85l6.565,2.182a5.876,5.876,0,0,1,4.539,4.6l2.075,10.4L20.8,27.534a5.876,5.876,0,0,1,4.557-4.37" transform="translate(-1.537 -1.004)" fill="#e2e2ec"/>
      <path id="Trazado_875560" data-name="Trazado 875560" d="M253.588,425.018h-47.01a.851.851,0,0,1,0-1.7h47.01a.851.851,0,0,1,0,1.7" transform="translate(-62.453 -128.507)" fill="#545e7d"/>
      <path id="Trazado_875561" data-name="Trazado 875561" d="M136.733,425.053h0L.851,425.018a.851.851,0,0,1,0-1.7l135.882.035a.851.851,0,0,1,0,1.7" transform="translate(0 -128.507)" fill="#545e7d"/>
      <path id="Trazado_875562" data-name="Trazado 875562" d="M444.194,425.018H302.742a.851.851,0,0,1,0-1.7H444.194a.851.851,0,0,1,0,1.7" transform="translate(-91.646 -128.507)" fill="#545e7d"/>
    </g>
  </g>
</svg>
