<svg xmlns="http://www.w3.org/2000/svg" width="1032" height="320.373" viewBox="0 0 1032 320.373">
  <g id="Grupo_1100023" data-name="Grupo 1100023" transform="translate(-284 -7302.407)">
    <g id="Grupo_1100022" data-name="Grupo 1100022">
      <path id="Trazado_875975" data-name="Trazado 875975" d="M0,0H146.351V90.964H0Z" transform="translate(285 7303.407)" fill="#fff" stroke="#000" stroke-width="2"/>
      <path id="Trazado_875962" data-name="Trazado 875962" d="M0,0H126.236V90.964H0Z" transform="translate(431.351 7303.407)" fill="#fff" stroke="#000" stroke-width="2"/>
      <path id="Trazado_875956" data-name="Trazado 875956" d="M0,0H126.236V90.964H0Z" transform="translate(557.586 7303.407)" fill="#fff" stroke="#000" stroke-width="2"/>
      <path id="Trazado_875951" data-name="Trazado 875951" d="M0,0H126.236V90.964H0Z" transform="translate(683.822 7303.407)" fill="#fff" stroke="#000" stroke-width="2"/>
      <path id="Trazado_875952" data-name="Trazado 875952" d="M0,0H126.236V90.964H0Z" transform="translate(810.058 7303.407)" fill="#fff" stroke="#000" stroke-width="2"/>
      <path id="Trazado_875953" data-name="Trazado 875953" d="M0,0H126.236V90.964H0Z" transform="translate(936.293 7303.407)" fill="#fff" stroke="#000" stroke-width="2"/>
      <path id="Trazado_875954" data-name="Trazado 875954" d="M0,0H126.236V90.964H0Z" transform="translate(1062.529 7303.407)" fill="#fff" stroke="#000" stroke-width="2"/>
      <path id="Trazado_875955" data-name="Trazado 875955" d="M0,0H126.236V90.964H0Z" transform="translate(1188.764 7303.407)" fill="#fff" stroke="#000" stroke-width="2"/>
      <path id="Trazado_875976" data-name="Trazado 875976" d="M0,0H146.351V45.482H0Z" transform="translate(285 7394.371)" fill="#ffd947" stroke="#000" stroke-width="2"/>
      <path id="Trazado_875963" data-name="Trazado 875963" d="M0,0H126.236V45.482H0Z" transform="translate(431.351 7394.371)" fill="#26aab7" stroke="#000" stroke-width="2"/>
      <path id="Trazado_875957" data-name="Trazado 875957" d="M0,0H126.236V45.482H0Z" transform="translate(557.586 7394.371)" fill="#26aab7" stroke="#000" stroke-width="2"/>
      <path id="Trazado_875946" data-name="Trazado 875946" d="M0,0H126.236V45.482H0Z" transform="translate(683.822 7394.371)" fill="#26aab7" stroke="#000" stroke-width="2"/>
      <path id="Trazado_875939" data-name="Trazado 875939" d="M0,0H126.236V45.482H0Z" transform="translate(810.058 7394.371)" fill="#26aab7" stroke="#000" stroke-width="2"/>
      <path id="Trazado_875936" data-name="Trazado 875936" d="M0,0H126.236V45.482H0Z" transform="translate(936.293 7394.371)" fill="#26aab7" stroke="#000" stroke-width="2"/>
      <path id="Trazado_875937" data-name="Trazado 875937" d="M0,0H126.236V45.482H0Z" transform="translate(1062.529 7394.371)" fill="#7d6eb2" stroke="#000" stroke-width="2"/>
      <path id="Trazado_875938" data-name="Trazado 875938" d="M0,0H126.236V45.482H0Z" transform="translate(1188.764 7394.371)" fill="#62529b" stroke="#000" stroke-width="2"/>
      <path id="Trazado_875977" data-name="Trazado 875977" d="M0,0H146.351V45.482H0Z" transform="translate(285 7439.853)" fill="#ffd947" stroke="#000" stroke-width="2"/>
      <path id="Trazado_875964" data-name="Trazado 875964" d="M0,0H126.236V45.482H0Z" transform="translate(431.351 7439.853)" fill="#26aab7" stroke="#000" stroke-width="2"/>
      <path id="Trazado_875958" data-name="Trazado 875958" d="M0,0H126.236V45.482H0Z" transform="translate(557.586 7439.853)" fill="#26aab7" stroke="#000" stroke-width="2"/>
      <path id="Trazado_875947" data-name="Trazado 875947" d="M0,0H126.236V45.482H0Z" transform="translate(683.822 7439.853)" fill="#26aab7" stroke="#000" stroke-width="2"/>
      <path id="Trazado_875940" data-name="Trazado 875940" d="M0,0H126.236V45.482H0Z" transform="translate(810.058 7439.853)" fill="#26aab7" stroke="#000" stroke-width="2"/>
      <path id="Trazado_875932" data-name="Trazado 875932" d="M0,0H126.236V45.482H0Z" transform="translate(936.293 7439.853)" fill="#26aab7" stroke="#000" stroke-width="2"/>
      <path id="Trazado_875930" data-name="Trazado 875930" d="M0,0H126.236V45.482H0Z" transform="translate(1062.529 7439.853)" fill="#7d6eb2" stroke="#000" stroke-width="2"/>
      <path id="Trazado_875931" data-name="Trazado 875931" d="M0,0H126.236V45.482H0Z" transform="translate(1188.764 7439.853)" fill="#62529b" stroke="#000" stroke-width="2"/>
      <path id="Trazado_875978" data-name="Trazado 875978" d="M0,0H146.351V45.482H0Z" transform="translate(285 7485.334)" fill="#ffd947" stroke="#000" stroke-width="2"/>
      <path id="Trazado_875965" data-name="Trazado 875965" d="M0,0H126.236V45.482H0Z" transform="translate(431.351 7485.334)" fill="#26aab7" stroke="#000" stroke-width="2"/>
      <path id="Trazado_875959" data-name="Trazado 875959" d="M0,0H126.236V45.482H0Z" transform="translate(557.586 7485.334)" fill="#26aab7" stroke="#000" stroke-width="2"/>
      <path id="Trazado_875948" data-name="Trazado 875948" d="M0,0H126.236V45.482H0Z" transform="translate(683.822 7485.334)" fill="#26aab7" stroke="#000" stroke-width="2"/>
      <path id="Trazado_875941" data-name="Trazado 875941" d="M0,0H126.236V45.482H0Z" transform="translate(810.058 7485.334)" fill="#26aab7" stroke="#000" stroke-width="2"/>
      <path id="Trazado_875933" data-name="Trazado 875933" d="M0,0H126.236V45.482H0Z" transform="translate(936.293 7485.334)" fill="#26aab7" stroke="#000" stroke-width="2"/>
      <path id="Trazado_875928" data-name="Trazado 875928" d="M0,0H126.236V45.482H0Z" transform="translate(1062.529 7485.334)" fill="#7d6eb2" stroke="#000" stroke-width="2"/>
      <path id="Trazado_875929" data-name="Trazado 875929" d="M0,0H126.236V45.482H0Z" transform="translate(1188.764 7485.334)" fill="#62529b" stroke="#000" stroke-width="2"/>
      <path id="Trazado_875979" data-name="Trazado 875979" d="M0,0H146.351V45.482H0Z" transform="translate(285 7530.816)" fill="#ffd947" stroke="#000" stroke-width="2"/>
      <path id="Trazado_875966" data-name="Trazado 875966" d="M0,0H126.236V45.482H0Z" transform="translate(431.351 7530.816)" fill="#26aab7" stroke="#000" stroke-width="2"/>
      <path id="Trazado_875960" data-name="Trazado 875960" d="M0,0H126.236V45.482H0Z" transform="translate(557.586 7530.816)" fill="#26aab7" stroke="#000" stroke-width="2"/>
      <path id="Trazado_875949" data-name="Trazado 875949" d="M0,0H126.236V45.482H0Z" transform="translate(683.822 7530.816)" fill="#26aab7" stroke="#000" stroke-width="2"/>
      <path id="Trazado_875942" data-name="Trazado 875942" d="M0,0H126.236V45.482H0Z" transform="translate(810.058 7530.816)" fill="#26aab7" stroke="#000" stroke-width="2"/>
      <path id="Trazado_875934" data-name="Trazado 875934" d="M0,0H126.236V45.482H0Z" transform="translate(936.293 7530.816)" fill="#26aab7" stroke="#000" stroke-width="2"/>
      <path id="Trazado_875926" data-name="Trazado 875926" d="M0,0H126.236V45.482H0Z" transform="translate(1062.529 7530.816)" fill="#7d6eb2" stroke="#000" stroke-width="2"/>
      <path id="Trazado_875925" data-name="Trazado 875925" d="M0,0H126.236V45.482H0Z" transform="translate(1188.764 7530.816)" fill="#62529b" stroke="#000" stroke-width="2"/>
      <path id="Trazado_875980" data-name="Trazado 875980" d="M0,0H146.351V45.482H0Z" transform="translate(285 7576.298)" fill="#ffd947" stroke="#000" stroke-width="2"/>
      <path id="Trazado_875967" data-name="Trazado 875967" d="M0,0H126.236V45.482H0Z" transform="translate(431.351 7576.298)" fill="#26aab7" stroke="#000" stroke-width="2"/>
      <path id="Trazado_875961" data-name="Trazado 875961" d="M0,0H126.236V45.482H0Z" transform="translate(557.586 7576.298)" fill="#26aab7" stroke="#000" stroke-width="2"/>
      <path id="Trazado_875950" data-name="Trazado 875950" d="M0,0H126.236V45.482H0Z" transform="translate(683.822 7576.298)" fill="#26aab7" stroke="#000" stroke-width="2"/>
      <path id="Trazado_875943" data-name="Trazado 875943" d="M0,0H126.236V45.482H0Z" transform="translate(810.058 7576.298)" fill="#26aab7" stroke="#000" stroke-width="2"/>
      <path id="Trazado_875935" data-name="Trazado 875935" d="M0,0H126.236V45.482H0Z" transform="translate(936.293 7576.298)" fill="#26aab7" stroke="#000" stroke-width="2"/>
      <path id="Trazado_875927" data-name="Trazado 875927" d="M0,0H126.236V45.482H0Z" transform="translate(1062.529 7576.298)" fill="#7d6eb2" stroke="#000" stroke-width="2"/>
      <path id="Trazado_875924" data-name="Trazado 875924" d="M0,0H126.236V45.482H0Z" transform="translate(1188.764 7576.298)" fill="#62529b" stroke="#000" stroke-width="2"/>
      <path id="Trazado_875982" data-name="Trazado 875982" d="M-26.679-5.546h-5.062v3.428H-25.8V0h-8.578V-12.8h8.561v2.136h-5.924v3.05h5.063Zm4.641-3.964.079,1.063a3.342,3.342,0,0,1,2.733-1.239A2.536,2.536,0,0,1-16.7-8.235a3.265,3.265,0,0,1,2.856-1.45,2.836,2.836,0,0,1,2.3.9,4.141,4.141,0,0,1,.756,2.711V0h-2.549V-6.064a1.811,1.811,0,0,0-.316-1.182A1.4,1.4,0,0,0-14.77-7.62a1.585,1.585,0,0,0-1.582,1.09L-16.343,0h-2.54V-6.056a1.789,1.789,0,0,0-.325-1.2,1.416,1.416,0,0,0-1.107-.369,1.646,1.646,0,0,0-1.564.9V0h-2.54V-9.51ZM-.277-4.667a5.7,5.7,0,0,1-1,3.52A3.2,3.2,0,0,1-3.968.176a2.963,2.963,0,0,1-2.329-1V3.656h-2.54V-9.51h2.355l.088.932A2.985,2.985,0,0,1-3.986-9.686a3.22,3.22,0,0,1,2.733,1.3A5.858,5.858,0,0,1-.277-4.8Zm-2.54-.185A3.743,3.743,0,0,0-3.287-6.9,1.532,1.532,0,0,0-4.654-7.62,1.663,1.663,0,0,0-6.3-6.706v3.894a1.692,1.692,0,0,0,1.661.94Q-2.817-1.872-2.817-4.852ZM6.64-7.128a6.9,6.9,0,0,0-.914-.07,1.86,1.86,0,0,0-1.89.976V0H1.3V-9.51H3.7l.07,1.134a2.354,2.354,0,0,1,2.118-1.31,2.662,2.662,0,0,1,.791.114Zm5.6,7.3A4.668,4.668,0,0,1,8.833-1.107,4.561,4.561,0,0,1,7.519-4.526v-.246a5.745,5.745,0,0,1,.554-2.562,4.064,4.064,0,0,1,1.569-1.74,4.4,4.4,0,0,1,2.316-.611,3.947,3.947,0,0,1,3.072,1.23A5,5,0,0,1,16.15-4.966v1.037H10.094a2.36,2.36,0,0,0,.743,1.494,2.245,2.245,0,0,0,1.569.563A2.742,2.742,0,0,0,14.7-2.936l1.248,1.4A3.813,3.813,0,0,1,14.4-.277,5.075,5.075,0,0,1,12.239.176Zm-.29-7.8a1.591,1.591,0,0,0-1.226.51,2.634,2.634,0,0,0-.6,1.459h3.533v-.2A1.878,1.878,0,0,0,13.2-7.167,1.642,1.642,0,0,0,11.949-7.629Zm10.793,5a.818.818,0,0,0-.461-.734A5.241,5.241,0,0,0,20.8-3.841q-3.393-.712-3.393-2.883a2.613,2.613,0,0,1,1.05-2.114A4.237,4.237,0,0,1,21.2-9.686a4.56,4.56,0,0,1,2.9.853,2.687,2.687,0,0,1,1.085,2.215h-2.54a1.229,1.229,0,0,0-.352-.9,1.488,1.488,0,0,0-1.1-.356,1.52,1.52,0,0,0-.993.29.916.916,0,0,0-.352.738.783.783,0,0,0,.4.681,4.114,4.114,0,0,0,1.349.448,11.019,11.019,0,0,1,1.6.426,2.628,2.628,0,0,1,2.013,2.558A2.481,2.481,0,0,1,24.1-.628a4.815,4.815,0,0,1-2.883.8A5.029,5.029,0,0,1,19.09-.25a3.561,3.561,0,0,1-1.455-1.169,2.716,2.716,0,0,1-.527-1.6h2.408a1.326,1.326,0,0,0,.5,1.037,1.987,1.987,0,0,0,1.248.36,1.839,1.839,0,0,0,1.1-.277A.861.861,0,0,0,22.742-2.628ZM32.357,0A2.821,2.821,0,0,1,32.1-.853,3.073,3.073,0,0,1,29.7.176a3.376,3.376,0,0,1-2.316-.809,2.6,2.6,0,0,1-.918-2.039,2.687,2.687,0,0,1,1.121-2.32,5.529,5.529,0,0,1,3.239-.817H32v-.545a1.567,1.567,0,0,0-.338-1.055,1.331,1.331,0,0,0-1.068-.4,1.513,1.513,0,0,0-1.006.308,1.045,1.045,0,0,0-.365.844h-2.54a2.551,2.551,0,0,1,.51-1.529,3.37,3.37,0,0,1,1.441-1.1,5.253,5.253,0,0,1,2.092-.4,4.15,4.15,0,0,1,2.791.883,3.09,3.09,0,0,1,1.033,2.483V-2.2a4.546,4.546,0,0,0,.378,2.048V0Zm-2.1-1.767a2.188,2.188,0,0,0,1.037-.25,1.645,1.645,0,0,0,.7-.672V-4.324h-.949q-1.907,0-2.03,1.318l-.009.149a1.017,1.017,0,0,0,.334.782A1.3,1.3,0,0,0,30.256-1.767Z" transform="translate(348.215 7350.903)"/>
      <path id="Trazado_875981" data-name="Trazado 875981" d="M-38.441-11.375l2.922,8.25,2.906-8.25h3.078V0h-2.352V-3.109l.234-5.367L-34.723,0h-1.609l-3.062-8.469.234,5.359V0H-41.5V-11.375ZM-25.254,0H-27.52V-8.453h2.266Zm-2.4-10.641a1.112,1.112,0,0,1,.34-.836,1.277,1.277,0,0,1,.926-.328,1.28,1.28,0,0,1,.922.328,1.105,1.105,0,0,1,.344.836,1.108,1.108,0,0,1-.348.844,1.283,1.283,0,0,1-.918.328A1.283,1.283,0,0,1-27.3-9.8,1.108,1.108,0,0,1-27.652-10.641ZM-15.52.156A4.15,4.15,0,0,1-18.547-.984a4.054,4.054,0,0,1-1.168-3.039v-.219a5.106,5.106,0,0,1,.492-2.277,3.612,3.612,0,0,1,1.395-1.547,3.914,3.914,0,0,1,2.059-.543,3.508,3.508,0,0,1,2.73,1.094,4.444,4.444,0,0,1,1,3.1v.922h-5.383a2.1,2.1,0,0,0,.66,1.328,2,2,0,0,0,1.395.5,2.437,2.437,0,0,0,2.039-.945l1.109,1.242A3.389,3.389,0,0,1-13.6-.246,4.511,4.511,0,0,1-15.52.156Zm-.258-6.937a1.414,1.414,0,0,0-1.09.453,2.341,2.341,0,0,0-.535,1.3h3.141v-.18a1.669,1.669,0,0,0-.406-1.16A1.459,1.459,0,0,0-15.777-6.781Zm7.133-1.672.07.945a2.971,2.971,0,0,1,2.43-1.1A2.255,2.255,0,0,1-3.9-7.32,2.9,2.9,0,0,1-1.363-8.609a2.521,2.521,0,0,1,2.047.8A3.681,3.681,0,0,1,1.355-5.4V0H-.91V-5.391a1.61,1.61,0,0,0-.281-1.051,1.246,1.246,0,0,0-.992-.332A1.409,1.409,0,0,0-3.59-5.8L-3.582,0H-5.84V-5.383a1.59,1.59,0,0,0-.289-1.062,1.259,1.259,0,0,0-.984-.328,1.463,1.463,0,0,0-1.391.8V0h-2.258V-8.453ZM10.7-4.148A5.07,5.07,0,0,1,9.813-1.02,2.843,2.843,0,0,1,7.418.156a2.633,2.633,0,0,1-2.07-.891V3.25H3.09v-11.7H5.184l.078.828A2.654,2.654,0,0,1,7.4-8.609a2.862,2.862,0,0,1,2.43,1.156A5.207,5.207,0,0,1,10.7-4.266ZM8.441-4.312a3.327,3.327,0,0,0-.418-1.82,1.361,1.361,0,0,0-1.215-.641,1.478,1.478,0,0,0-1.461.813V-2.5a1.5,1.5,0,0,0,1.477.836Q8.441-1.664,8.441-4.312Zm8.406-2.023a6.134,6.134,0,0,0-.812-.062,1.654,1.654,0,0,0-1.68.867V0H12.1V-8.453H14.23l.063,1.008a2.092,2.092,0,0,1,1.883-1.164,2.366,2.366,0,0,1,.7.1ZM21.824.156A4.15,4.15,0,0,1,18.8-.984a4.054,4.054,0,0,1-1.168-3.039v-.219a5.106,5.106,0,0,1,.492-2.277,3.612,3.612,0,0,1,1.395-1.547,3.914,3.914,0,0,1,2.059-.543A3.508,3.508,0,0,1,24.3-7.516a4.444,4.444,0,0,1,1,3.1v.922H19.918a2.1,2.1,0,0,0,.66,1.328,2,2,0,0,0,1.395.5,2.437,2.437,0,0,0,2.039-.945l1.109,1.242A3.389,3.389,0,0,1,23.746-.246,4.511,4.511,0,0,1,21.824.156Zm-.258-6.937a1.414,1.414,0,0,0-1.09.453,2.341,2.341,0,0,0-.535,1.3h3.141v-.18a1.669,1.669,0,0,0-.406-1.16A1.459,1.459,0,0,0,21.566-6.781ZM31.16-2.336a.727.727,0,0,0-.41-.652,4.659,4.659,0,0,0-1.316-.426q-3.016-.633-3.016-2.562a2.323,2.323,0,0,1,.934-1.879,3.766,3.766,0,0,1,2.441-.754,4.053,4.053,0,0,1,2.574.758,2.388,2.388,0,0,1,.965,1.969H31.074a1.092,1.092,0,0,0-.312-.8A1.322,1.322,0,0,0,29.785-7a1.351,1.351,0,0,0-.883.258.814.814,0,0,0-.312.656.7.7,0,0,0,.355.605,3.657,3.657,0,0,0,1.2.4,9.8,9.8,0,0,1,1.422.379A2.336,2.336,0,0,1,33.355-2.43a2.2,2.2,0,0,1-.992,1.871A4.28,4.28,0,0,1,29.8.156a4.47,4.47,0,0,1-1.887-.379,3.166,3.166,0,0,1-1.293-1.039,2.414,2.414,0,0,1-.469-1.426h2.141a1.179,1.179,0,0,0,.445.922,1.766,1.766,0,0,0,1.109.32,1.635,1.635,0,0,0,.98-.246A.766.766,0,0,0,31.16-2.336ZM39.707,0a2.507,2.507,0,0,1-.227-.758,2.732,2.732,0,0,1-2.133.914,3,3,0,0,1-2.059-.719,2.312,2.312,0,0,1-.816-1.812,2.389,2.389,0,0,1,1-2.062,4.915,4.915,0,0,1,2.879-.727h1.039v-.484a1.393,1.393,0,0,0-.3-.937,1.183,1.183,0,0,0-.949-.352,1.345,1.345,0,0,0-.895.273.929.929,0,0,0-.324.75H34.66a2.268,2.268,0,0,1,.453-1.359,3,3,0,0,1,1.281-.98,4.669,4.669,0,0,1,1.859-.355,3.689,3.689,0,0,1,2.48.785,2.747,2.747,0,0,1,.918,2.207v3.664a4.041,4.041,0,0,0,.336,1.82V0ZM37.84-1.57a1.945,1.945,0,0,0,.922-.223,1.462,1.462,0,0,0,.625-.6V-3.844h-.844q-1.7,0-1.8,1.172l-.008.133a.9.9,0,0,0,.3.7A1.153,1.153,0,0,0,37.84-1.57Z" transform="translate(349.134 7418.673)"/>
      <path id="Trazado_875983" data-name="Trazado 875983" d="M-13.32-3.789A4.025,4.025,0,0,1-14.676-.9,4.76,4.76,0,0,1-17.9.156,4.28,4.28,0,0,1-21.34-1.316a6.038,6.038,0,0,1-1.254-4.043v-.7a6.819,6.819,0,0,1,.578-2.891,4.332,4.332,0,0,1,1.652-1.918,4.629,4.629,0,0,1,2.5-.668A4.637,4.637,0,0,1-14.7-10.477,4.326,4.326,0,0,1-13.3-7.516h-2.344a2.376,2.376,0,0,0-.613-1.6,2.271,2.271,0,0,0-1.605-.5,1.991,1.991,0,0,0-1.754.84,4.707,4.707,0,0,0-.6,2.605V-5.3a5.038,5.038,0,0,0,.559,2.7,1.954,1.954,0,0,0,1.762.852,2.314,2.314,0,0,0,1.621-.5,2.241,2.241,0,0,0,.613-1.535Zm1.039-.516A5.013,5.013,0,0,1-11.8-6.547,3.546,3.546,0,0,1-10.4-8.07a4.069,4.069,0,0,1,2.113-.539A3.849,3.849,0,0,1-5.5-7.562,4.2,4.2,0,0,1-4.289-4.719l.016.578A4.418,4.418,0,0,1-5.359-1.02,3.775,3.775,0,0,1-8.273.156a3.793,3.793,0,0,1-2.918-1.172A4.5,4.5,0,0,1-12.281-4.2Zm2.258.164A3.151,3.151,0,0,0-9.57-2.3a1.5,1.5,0,0,0,1.3.637,1.5,1.5,0,0,0,1.281-.629A3.448,3.448,0,0,0-6.531-4.3a3.12,3.12,0,0,0-.461-1.828,1.5,1.5,0,0,0-1.3-.648,1.475,1.475,0,0,0-1.281.645A3.506,3.506,0,0,0-10.023-4.141ZM-.766-8.453l.07.945a2.971,2.971,0,0,1,2.43-1.1A2.255,2.255,0,0,1,3.977-7.32,2.9,2.9,0,0,1,6.516-8.609a2.521,2.521,0,0,1,2.047.8A3.681,3.681,0,0,1,9.234-5.4V0H6.969V-5.391a1.61,1.61,0,0,0-.281-1.051A1.246,1.246,0,0,0,5.7-6.773,1.409,1.409,0,0,0,4.289-5.8L4.3,0H2.039V-5.383A1.59,1.59,0,0,0,1.75-6.445a1.259,1.259,0,0,0-.984-.328,1.463,1.463,0,0,0-1.391.8V0H-2.883V-8.453ZM20.344,0H18.086V-8.7l-2.7.836V-9.7L20.1-11.391h.242Z" transform="translate(351.812 7464.156)"/>
      <path id="Trazado_875984" data-name="Trazado 875984" d="M-13.32-3.789A4.025,4.025,0,0,1-14.676-.9,4.76,4.76,0,0,1-17.9.156,4.28,4.28,0,0,1-21.34-1.316a6.038,6.038,0,0,1-1.254-4.043v-.7a6.819,6.819,0,0,1,.578-2.891,4.332,4.332,0,0,1,1.652-1.918,4.629,4.629,0,0,1,2.5-.668A4.637,4.637,0,0,1-14.7-10.477,4.326,4.326,0,0,1-13.3-7.516h-2.344a2.376,2.376,0,0,0-.613-1.6,2.271,2.271,0,0,0-1.605-.5,1.991,1.991,0,0,0-1.754.84,4.707,4.707,0,0,0-.6,2.605V-5.3a5.038,5.038,0,0,0,.559,2.7,1.954,1.954,0,0,0,1.762.852,2.314,2.314,0,0,0,1.621-.5,2.241,2.241,0,0,0,.613-1.535Zm1.039-.516A5.013,5.013,0,0,1-11.8-6.547,3.546,3.546,0,0,1-10.4-8.07a4.069,4.069,0,0,1,2.113-.539A3.849,3.849,0,0,1-5.5-7.562,4.2,4.2,0,0,1-4.289-4.719l.016.578A4.418,4.418,0,0,1-5.359-1.02,3.775,3.775,0,0,1-8.273.156a3.793,3.793,0,0,1-2.918-1.172A4.5,4.5,0,0,1-12.281-4.2Zm2.258.164A3.151,3.151,0,0,0-9.57-2.3a1.5,1.5,0,0,0,1.3.637,1.5,1.5,0,0,0,1.281-.629A3.448,3.448,0,0,0-6.531-4.3a3.12,3.12,0,0,0-.461-1.828,1.5,1.5,0,0,0-1.3-.648,1.475,1.475,0,0,0-1.281.645A3.506,3.506,0,0,0-10.023-4.141ZM-.766-8.453l.07.945a2.971,2.971,0,0,1,2.43-1.1A2.255,2.255,0,0,1,3.977-7.32,2.9,2.9,0,0,1,6.516-8.609a2.521,2.521,0,0,1,2.047.8A3.681,3.681,0,0,1,9.234-5.4V0H6.969V-5.391a1.61,1.61,0,0,0-.281-1.051A1.246,1.246,0,0,0,5.7-6.773,1.409,1.409,0,0,0,4.289-5.8L4.3,0H2.039V-5.383A1.59,1.59,0,0,0,1.75-6.445a1.259,1.259,0,0,0-.984-.328,1.463,1.463,0,0,0-1.391.8V0H-2.883V-8.453ZM22.656,0h-7.8V-1.547l3.68-3.922A9.078,9.078,0,0,0,19.66-6.914a2.322,2.322,0,0,0,.363-1.172,1.738,1.738,0,0,0-.383-1.191,1.382,1.382,0,0,0-1.094-.434,1.49,1.49,0,0,0-1.207.527A2.089,2.089,0,0,0,16.9-7.8H14.633a3.729,3.729,0,0,1,.5-1.9,3.5,3.5,0,0,1,1.4-1.348,4.262,4.262,0,0,1,2.055-.488,4.036,4.036,0,0,1,2.73.844A2.985,2.985,0,0,1,22.289-8.3a3.825,3.825,0,0,1-.437,1.719,9.551,9.551,0,0,1-1.5,2.039L17.766-1.82h4.891Z" transform="translate(351.812 7509.637)"/>
      <path id="Trazado_875985" data-name="Trazado 875985" d="M-13.32-3.789A4.025,4.025,0,0,1-14.676-.9,4.76,4.76,0,0,1-17.9.156,4.28,4.28,0,0,1-21.34-1.316a6.038,6.038,0,0,1-1.254-4.043v-.7a6.819,6.819,0,0,1,.578-2.891,4.332,4.332,0,0,1,1.652-1.918,4.629,4.629,0,0,1,2.5-.668A4.637,4.637,0,0,1-14.7-10.477,4.326,4.326,0,0,1-13.3-7.516h-2.344a2.376,2.376,0,0,0-.613-1.6,2.271,2.271,0,0,0-1.605-.5,1.991,1.991,0,0,0-1.754.84,4.707,4.707,0,0,0-.6,2.605V-5.3a5.038,5.038,0,0,0,.559,2.7,1.954,1.954,0,0,0,1.762.852,2.314,2.314,0,0,0,1.621-.5,2.241,2.241,0,0,0,.613-1.535Zm1.039-.516A5.013,5.013,0,0,1-11.8-6.547,3.546,3.546,0,0,1-10.4-8.07a4.069,4.069,0,0,1,2.113-.539A3.849,3.849,0,0,1-5.5-7.562,4.2,4.2,0,0,1-4.289-4.719l.016.578A4.418,4.418,0,0,1-5.359-1.02,3.775,3.775,0,0,1-8.273.156a3.793,3.793,0,0,1-2.918-1.172A4.5,4.5,0,0,1-12.281-4.2Zm2.258.164A3.151,3.151,0,0,0-9.57-2.3a1.5,1.5,0,0,0,1.3.637,1.5,1.5,0,0,0,1.281-.629A3.448,3.448,0,0,0-6.531-4.3a3.12,3.12,0,0,0-.461-1.828,1.5,1.5,0,0,0-1.3-.648,1.475,1.475,0,0,0-1.281.645A3.506,3.506,0,0,0-10.023-4.141ZM-.766-8.453l.07.945a2.971,2.971,0,0,1,2.43-1.1A2.255,2.255,0,0,1,3.977-7.32,2.9,2.9,0,0,1,6.516-8.609a2.521,2.521,0,0,1,2.047.8A3.681,3.681,0,0,1,9.234-5.4V0H6.969V-5.391a1.61,1.61,0,0,0-.281-1.051A1.246,1.246,0,0,0,5.7-6.773,1.409,1.409,0,0,0,4.289-5.8L4.3,0H2.039V-5.383A1.59,1.59,0,0,0,1.75-6.445a1.259,1.259,0,0,0-.984-.328,1.463,1.463,0,0,0-1.391.8V0H-2.883V-8.453ZM17.156-6.687h1.2a1.7,1.7,0,0,0,1.273-.43,1.574,1.574,0,0,0,.414-1.141,1.392,1.392,0,0,0-.41-1.07,1.59,1.59,0,0,0-1.129-.383,1.666,1.666,0,0,0-1.086.355,1.137,1.137,0,0,0-.437.926H14.727a2.777,2.777,0,0,1,.48-1.6,3.2,3.2,0,0,1,1.344-1.105,4.485,4.485,0,0,1,1.9-.4,4.253,4.253,0,0,1,2.828.863A2.945,2.945,0,0,1,22.3-8.289a2.394,2.394,0,0,1-.477,1.438,3.1,3.1,0,0,1-1.25,1.008,2.826,2.826,0,0,1,1.434,1.031,2.8,2.8,0,0,1,.473,1.625,2.994,2.994,0,0,1-1.105,2.43,4.445,4.445,0,0,1-2.926.914,4.214,4.214,0,0,1-2.785-.9,2.934,2.934,0,0,1-1.082-2.375h2.258a1.308,1.308,0,0,0,.48,1.047,1.771,1.771,0,0,0,1.184.406A1.779,1.779,0,0,0,19.77-2.09a1.47,1.47,0,0,0,.457-1.129q0-1.7-1.875-1.7h-1.2Z" transform="translate(351.812 7555.119)"/>
      <path id="Trazado_875986" data-name="Trazado 875986" d="M-13.32-3.789A4.025,4.025,0,0,1-14.676-.9,4.76,4.76,0,0,1-17.9.156,4.28,4.28,0,0,1-21.34-1.316a6.038,6.038,0,0,1-1.254-4.043v-.7a6.819,6.819,0,0,1,.578-2.891,4.332,4.332,0,0,1,1.652-1.918,4.629,4.629,0,0,1,2.5-.668A4.637,4.637,0,0,1-14.7-10.477,4.326,4.326,0,0,1-13.3-7.516h-2.344a2.376,2.376,0,0,0-.613-1.6,2.271,2.271,0,0,0-1.605-.5,1.991,1.991,0,0,0-1.754.84,4.707,4.707,0,0,0-.6,2.605V-5.3a5.038,5.038,0,0,0,.559,2.7,1.954,1.954,0,0,0,1.762.852,2.314,2.314,0,0,0,1.621-.5,2.241,2.241,0,0,0,.613-1.535Zm1.039-.516A5.013,5.013,0,0,1-11.8-6.547,3.546,3.546,0,0,1-10.4-8.07a4.069,4.069,0,0,1,2.113-.539A3.849,3.849,0,0,1-5.5-7.562,4.2,4.2,0,0,1-4.289-4.719l.016.578A4.418,4.418,0,0,1-5.359-1.02,3.775,3.775,0,0,1-8.273.156a3.793,3.793,0,0,1-2.918-1.172A4.5,4.5,0,0,1-12.281-4.2Zm2.258.164A3.151,3.151,0,0,0-9.57-2.3a1.5,1.5,0,0,0,1.3.637,1.5,1.5,0,0,0,1.281-.629A3.448,3.448,0,0,0-6.531-4.3a3.12,3.12,0,0,0-.461-1.828,1.5,1.5,0,0,0-1.3-.648,1.475,1.475,0,0,0-1.281.645A3.506,3.506,0,0,0-10.023-4.141ZM-.766-8.453l.07.945a2.971,2.971,0,0,1,2.43-1.1A2.255,2.255,0,0,1,3.977-7.32,2.9,2.9,0,0,1,6.516-8.609a2.521,2.521,0,0,1,2.047.8A3.681,3.681,0,0,1,9.234-5.4V0H6.969V-5.391a1.61,1.61,0,0,0-.281-1.051A1.246,1.246,0,0,0,5.7-6.773,1.409,1.409,0,0,0,4.289-5.8L4.3,0H2.039V-5.383A1.59,1.59,0,0,0,1.75-6.445a1.259,1.259,0,0,0-.984-.328,1.463,1.463,0,0,0-1.391.8V0H-2.883V-8.453Zm22.3,4.172h1.289v1.82H21.539V0H19.281V-2.461H14.617l-.1-1.422,4.742-7.492h2.281Zm-4.773,0h2.516V-8.3l-.148.258Z" transform="translate(351.812 7600.601)"/>
      <path id="Trazado_875968" data-name="Trazado 875968" d="M-24.144-5.229h-5.062V0h-2.637V-12.8h8.332v2.136h-5.7v3.3h5.063ZM-16.937,0a2.821,2.821,0,0,1-.255-.853,3.073,3.073,0,0,1-2.4,1.028,3.376,3.376,0,0,1-2.316-.809,2.6,2.6,0,0,1-.918-2.039A2.687,2.687,0,0,1-21.7-4.992a5.529,5.529,0,0,1,3.239-.817H-17.3v-.545a1.567,1.567,0,0,0-.338-1.055A1.331,1.331,0,0,0-18.7-7.8a1.513,1.513,0,0,0-1.006.308,1.045,1.045,0,0,0-.365.844h-2.54a2.551,2.551,0,0,1,.51-1.529,3.37,3.37,0,0,1,1.441-1.1,5.253,5.253,0,0,1,2.092-.4,4.15,4.15,0,0,1,2.791.883,3.09,3.09,0,0,1,1.033,2.483V-2.2A4.546,4.546,0,0,0-14.37-.149V0Zm-2.1-1.767A2.188,2.188,0,0,0-18-2.017a1.645,1.645,0,0,0,.7-.672V-4.324h-.949q-1.907,0-2.03,1.318l-.009.149a1.017,1.017,0,0,0,.334.782A1.3,1.3,0,0,0-19.037-1.767Zm10.2-.105A1.666,1.666,0,0,0-7.7-2.259a1.355,1.355,0,0,0,.457-1.028H-4.86a3.258,3.258,0,0,1-.527,1.771A3.48,3.48,0,0,1-6.807-.268,4.442,4.442,0,0,1-8.8.176a4.129,4.129,0,0,1-3.217-1.3A5.13,5.13,0,0,1-13.192-4.7v-.167a5.071,5.071,0,0,1,1.169-3.507,4.08,4.08,0,0,1,3.208-1.31A4,4,0,0,1-5.955-8.67a3.594,3.594,0,0,1,1.094,2.7H-7.242a1.731,1.731,0,0,0-.457-1.2,1.528,1.528,0,0,0-1.16-.461,1.531,1.531,0,0,0-1.34.646,3.739,3.739,0,0,0-.453,2.1v.264A3.786,3.786,0,0,0-10.2-2.514,1.55,1.55,0,0,0-8.842-1.872Zm8.473-9.976V-9.51H1.257v1.863H-.369V-2.9a1.133,1.133,0,0,0,.2.756,1.015,1.015,0,0,0,.773.229,4.051,4.051,0,0,0,.747-.062V-.053A5.229,5.229,0,0,1-.185.176a2.425,2.425,0,0,1-2.725-2.7V-7.646H-4.3V-9.51h1.389v-2.338Zm2.382,7a5.64,5.64,0,0,1,.545-2.522A3.989,3.989,0,0,1,4.126-9.079,4.577,4.577,0,0,1,6.5-9.686,4.33,4.33,0,0,1,9.646-8.508,4.727,4.727,0,0,1,11-5.309l.018.65A4.97,4.97,0,0,1,9.8-1.147,4.247,4.247,0,0,1,6.521.176,4.268,4.268,0,0,1,3.239-1.143,5.058,5.058,0,0,1,2.013-4.729Zm2.54.185a3.545,3.545,0,0,0,.51,2.07,1.682,1.682,0,0,0,1.459.716A1.686,1.686,0,0,0,7.963-2.58a3.879,3.879,0,0,0,.519-2.263A3.51,3.51,0,0,0,7.963-6.9,1.686,1.686,0,0,0,6.5-7.629,1.659,1.659,0,0,0,5.063-6.9,3.944,3.944,0,0,0,4.553-4.658ZM17.93-7.128a6.9,6.9,0,0,0-.914-.07,1.86,1.86,0,0,0-1.89.976V0h-2.54V-9.51h2.4l.07,1.134a2.354,2.354,0,0,1,2.118-1.31,2.662,2.662,0,0,1,.791.114ZM29.7,0h-2.54V-9.791l-3.032.94v-2.065l5.3-1.9H29.7Z" transform="translate(483.995 7350.903)"/>
      <path id="Trazado_875969" data-name="Trazado 875969" d="M-24.144-5.229h-5.062V0h-2.637V-12.8h8.332v2.136h-5.7v3.3h5.063ZM-16.937,0a2.821,2.821,0,0,1-.255-.853,3.073,3.073,0,0,1-2.4,1.028,3.376,3.376,0,0,1-2.316-.809,2.6,2.6,0,0,1-.918-2.039A2.687,2.687,0,0,1-21.7-4.992a5.529,5.529,0,0,1,3.239-.817H-17.3v-.545a1.567,1.567,0,0,0-.338-1.055A1.331,1.331,0,0,0-18.7-7.8a1.513,1.513,0,0,0-1.006.308,1.045,1.045,0,0,0-.365.844h-2.54a2.551,2.551,0,0,1,.51-1.529,3.37,3.37,0,0,1,1.441-1.1,5.253,5.253,0,0,1,2.092-.4,4.15,4.15,0,0,1,2.791.883,3.09,3.09,0,0,1,1.033,2.483V-2.2A4.546,4.546,0,0,0-14.37-.149V0Zm-2.1-1.767A2.188,2.188,0,0,0-18-2.017a1.645,1.645,0,0,0,.7-.672V-4.324h-.949q-1.907,0-2.03,1.318l-.009.149a1.017,1.017,0,0,0,.334.782A1.3,1.3,0,0,0-19.037-1.767Zm10.2-.105A1.666,1.666,0,0,0-7.7-2.259a1.355,1.355,0,0,0,.457-1.028H-4.86a3.258,3.258,0,0,1-.527,1.771A3.48,3.48,0,0,1-6.807-.268,4.442,4.442,0,0,1-8.8.176a4.129,4.129,0,0,1-3.217-1.3A5.13,5.13,0,0,1-13.192-4.7v-.167a5.071,5.071,0,0,1,1.169-3.507,4.08,4.08,0,0,1,3.208-1.31A4,4,0,0,1-5.955-8.67a3.594,3.594,0,0,1,1.094,2.7H-7.242a1.731,1.731,0,0,0-.457-1.2,1.528,1.528,0,0,0-1.16-.461,1.531,1.531,0,0,0-1.34.646,3.739,3.739,0,0,0-.453,2.1v.264A3.786,3.786,0,0,0-10.2-2.514,1.55,1.55,0,0,0-8.842-1.872Zm8.473-9.976V-9.51H1.257v1.863H-.369V-2.9a1.133,1.133,0,0,0,.2.756,1.015,1.015,0,0,0,.773.229,4.051,4.051,0,0,0,.747-.062V-.053A5.229,5.229,0,0,1-.185.176a2.425,2.425,0,0,1-2.725-2.7V-7.646H-4.3V-9.51h1.389v-2.338Zm2.382,7a5.64,5.64,0,0,1,.545-2.522A3.989,3.989,0,0,1,4.126-9.079,4.577,4.577,0,0,1,6.5-9.686,4.33,4.33,0,0,1,9.646-8.508,4.727,4.727,0,0,1,11-5.309l.018.65A4.97,4.97,0,0,1,9.8-1.147,4.247,4.247,0,0,1,6.521.176,4.268,4.268,0,0,1,3.239-1.143,5.058,5.058,0,0,1,2.013-4.729Zm2.54.185a3.545,3.545,0,0,0,.51,2.07,1.682,1.682,0,0,0,1.459.716A1.686,1.686,0,0,0,7.963-2.58a3.879,3.879,0,0,0,.519-2.263A3.51,3.51,0,0,0,7.963-6.9,1.686,1.686,0,0,0,6.5-7.629,1.659,1.659,0,0,0,5.063-6.9,3.944,3.944,0,0,0,4.553-4.658ZM17.93-7.128a6.9,6.9,0,0,0-.914-.07,1.86,1.86,0,0,0-1.89.976V0h-2.54V-9.51h2.4l.07,1.134a2.354,2.354,0,0,1,2.118-1.31,2.662,2.662,0,0,1,.791.114ZM32.3,0H23.528V-1.74l4.14-4.412a10.212,10.212,0,0,0,1.261-1.626A2.612,2.612,0,0,0,29.338-9.1a1.955,1.955,0,0,0-.431-1.34,1.555,1.555,0,0,0-1.23-.488,1.677,1.677,0,0,0-1.358.593,2.35,2.35,0,0,0-.5,1.56H23.273a4.2,4.2,0,0,1,.558-2.136,3.934,3.934,0,0,1,1.578-1.516,4.8,4.8,0,0,1,2.312-.549,4.54,4.54,0,0,1,3.072.949,3.358,3.358,0,0,1,1.094,2.681,4.3,4.3,0,0,1-.492,1.934,10.745,10.745,0,0,1-1.687,2.294L26.8-2.048h5.5Z" transform="translate(610.229 7350.903)"/>
      <path id="Trazado_875970" data-name="Trazado 875970" d="M-24.144-5.229h-5.062V0h-2.637V-12.8h8.332v2.136h-5.7v3.3h5.063ZM-16.937,0a2.821,2.821,0,0,1-.255-.853,3.073,3.073,0,0,1-2.4,1.028,3.376,3.376,0,0,1-2.316-.809,2.6,2.6,0,0,1-.918-2.039A2.687,2.687,0,0,1-21.7-4.992a5.529,5.529,0,0,1,3.239-.817H-17.3v-.545a1.567,1.567,0,0,0-.338-1.055A1.331,1.331,0,0,0-18.7-7.8a1.513,1.513,0,0,0-1.006.308,1.045,1.045,0,0,0-.365.844h-2.54a2.551,2.551,0,0,1,.51-1.529,3.37,3.37,0,0,1,1.441-1.1,5.253,5.253,0,0,1,2.092-.4,4.15,4.15,0,0,1,2.791.883,3.09,3.09,0,0,1,1.033,2.483V-2.2A4.546,4.546,0,0,0-14.37-.149V0Zm-2.1-1.767A2.188,2.188,0,0,0-18-2.017a1.645,1.645,0,0,0,.7-.672V-4.324h-.949q-1.907,0-2.03,1.318l-.009.149a1.017,1.017,0,0,0,.334.782A1.3,1.3,0,0,0-19.037-1.767Zm10.2-.105A1.666,1.666,0,0,0-7.7-2.259a1.355,1.355,0,0,0,.457-1.028H-4.86a3.258,3.258,0,0,1-.527,1.771A3.48,3.48,0,0,1-6.807-.268,4.442,4.442,0,0,1-8.8.176a4.129,4.129,0,0,1-3.217-1.3A5.13,5.13,0,0,1-13.192-4.7v-.167a5.071,5.071,0,0,1,1.169-3.507,4.08,4.08,0,0,1,3.208-1.31A4,4,0,0,1-5.955-8.67a3.594,3.594,0,0,1,1.094,2.7H-7.242a1.731,1.731,0,0,0-.457-1.2,1.528,1.528,0,0,0-1.16-.461,1.531,1.531,0,0,0-1.34.646,3.739,3.739,0,0,0-.453,2.1v.264A3.786,3.786,0,0,0-10.2-2.514,1.55,1.55,0,0,0-8.842-1.872Zm8.473-9.976V-9.51H1.257v1.863H-.369V-2.9a1.133,1.133,0,0,0,.2.756,1.015,1.015,0,0,0,.773.229,4.051,4.051,0,0,0,.747-.062V-.053A5.229,5.229,0,0,1-.185.176a2.425,2.425,0,0,1-2.725-2.7V-7.646H-4.3V-9.51h1.389v-2.338Zm2.382,7a5.64,5.64,0,0,1,.545-2.522A3.989,3.989,0,0,1,4.126-9.079,4.577,4.577,0,0,1,6.5-9.686,4.33,4.33,0,0,1,9.646-8.508,4.727,4.727,0,0,1,11-5.309l.018.65A4.97,4.97,0,0,1,9.8-1.147,4.247,4.247,0,0,1,6.521.176,4.268,4.268,0,0,1,3.239-1.143,5.058,5.058,0,0,1,2.013-4.729Zm2.54.185a3.545,3.545,0,0,0,.51,2.07,1.682,1.682,0,0,0,1.459.716A1.686,1.686,0,0,0,7.963-2.58a3.879,3.879,0,0,0,.519-2.263A3.51,3.51,0,0,0,7.963-6.9,1.686,1.686,0,0,0,6.5-7.629,1.659,1.659,0,0,0,5.063-6.9,3.944,3.944,0,0,0,4.553-4.658ZM17.93-7.128a6.9,6.9,0,0,0-.914-.07,1.86,1.86,0,0,0-1.89.976V0h-2.54V-9.51h2.4l.07,1.134a2.354,2.354,0,0,1,2.118-1.31,2.662,2.662,0,0,1,.791.114Zm8.183-.4h1.354A1.907,1.907,0,0,0,28.9-8.007a1.771,1.771,0,0,0,.466-1.283,1.566,1.566,0,0,0-.461-1.2,1.788,1.788,0,0,0-1.27-.431,1.874,1.874,0,0,0-1.222.4,1.279,1.279,0,0,0-.492,1.042h-2.54a3.124,3.124,0,0,1,.541-1.8,3.6,3.6,0,0,1,1.512-1.244,5.045,5.045,0,0,1,2.14-.448A4.785,4.785,0,0,1,30.753-12,3.314,3.314,0,0,1,31.9-9.325a2.693,2.693,0,0,1-.536,1.617,3.483,3.483,0,0,1-1.406,1.134,3.18,3.18,0,0,1,1.613,1.16,3.147,3.147,0,0,1,.532,1.828A3.369,3.369,0,0,1,30.863-.853,5,5,0,0,1,27.571.176,4.741,4.741,0,0,1,24.438-.835a3.3,3.3,0,0,1-1.217-2.672h2.54A1.472,1.472,0,0,0,26.3-2.329a1.992,1.992,0,0,0,1.332.457,2,2,0,0,0,1.419-.479,1.654,1.654,0,0,0,.514-1.27q0-1.916-2.109-1.916H26.112Z" transform="translate(736.464 7350.903)"/>
      <path id="Trazado_875971" data-name="Trazado 875971" d="M-24.144-5.229h-5.062V0h-2.637V-12.8h8.332v2.136h-5.7v3.3h5.063ZM-16.937,0a2.821,2.821,0,0,1-.255-.853,3.073,3.073,0,0,1-2.4,1.028,3.376,3.376,0,0,1-2.316-.809,2.6,2.6,0,0,1-.918-2.039A2.687,2.687,0,0,1-21.7-4.992a5.529,5.529,0,0,1,3.239-.817H-17.3v-.545a1.567,1.567,0,0,0-.338-1.055A1.331,1.331,0,0,0-18.7-7.8a1.513,1.513,0,0,0-1.006.308,1.045,1.045,0,0,0-.365.844h-2.54a2.551,2.551,0,0,1,.51-1.529,3.37,3.37,0,0,1,1.441-1.1,5.253,5.253,0,0,1,2.092-.4,4.15,4.15,0,0,1,2.791.883,3.09,3.09,0,0,1,1.033,2.483V-2.2A4.546,4.546,0,0,0-14.37-.149V0Zm-2.1-1.767A2.188,2.188,0,0,0-18-2.017a1.645,1.645,0,0,0,.7-.672V-4.324h-.949q-1.907,0-2.03,1.318l-.009.149a1.017,1.017,0,0,0,.334.782A1.3,1.3,0,0,0-19.037-1.767Zm10.2-.105A1.666,1.666,0,0,0-7.7-2.259a1.355,1.355,0,0,0,.457-1.028H-4.86a3.258,3.258,0,0,1-.527,1.771A3.48,3.48,0,0,1-6.807-.268,4.442,4.442,0,0,1-8.8.176a4.129,4.129,0,0,1-3.217-1.3A5.13,5.13,0,0,1-13.192-4.7v-.167a5.071,5.071,0,0,1,1.169-3.507,4.08,4.08,0,0,1,3.208-1.31A4,4,0,0,1-5.955-8.67a3.594,3.594,0,0,1,1.094,2.7H-7.242a1.731,1.731,0,0,0-.457-1.2,1.528,1.528,0,0,0-1.16-.461,1.531,1.531,0,0,0-1.34.646,3.739,3.739,0,0,0-.453,2.1v.264A3.786,3.786,0,0,0-10.2-2.514,1.55,1.55,0,0,0-8.842-1.872Zm8.473-9.976V-9.51H1.257v1.863H-.369V-2.9a1.133,1.133,0,0,0,.2.756,1.015,1.015,0,0,0,.773.229,4.051,4.051,0,0,0,.747-.062V-.053A5.229,5.229,0,0,1-.185.176a2.425,2.425,0,0,1-2.725-2.7V-7.646H-4.3V-9.51h1.389v-2.338Zm2.382,7a5.64,5.64,0,0,1,.545-2.522A3.989,3.989,0,0,1,4.126-9.079,4.577,4.577,0,0,1,6.5-9.686,4.33,4.33,0,0,1,9.646-8.508,4.727,4.727,0,0,1,11-5.309l.018.65A4.97,4.97,0,0,1,9.8-1.147,4.247,4.247,0,0,1,6.521.176,4.268,4.268,0,0,1,3.239-1.143,5.058,5.058,0,0,1,2.013-4.729Zm2.54.185a3.545,3.545,0,0,0,.51,2.07,1.682,1.682,0,0,0,1.459.716A1.686,1.686,0,0,0,7.963-2.58a3.879,3.879,0,0,0,.519-2.263A3.51,3.51,0,0,0,7.963-6.9,1.686,1.686,0,0,0,6.5-7.629,1.659,1.659,0,0,0,5.063-6.9,3.944,3.944,0,0,0,4.553-4.658ZM17.93-7.128a6.9,6.9,0,0,0-.914-.07,1.86,1.86,0,0,0-1.89.976V0h-2.54V-9.51h2.4l.07,1.134a2.354,2.354,0,0,1,2.118-1.31,2.662,2.662,0,0,1,.791.114ZM31.043-4.816h1.45v2.048h-1.45V0H28.5V-2.769H23.256l-.114-1.6L28.477-12.8h2.566Zm-5.37,0H28.5V-9.334l-.167.29Z" transform="translate(862.699 7350.903)"/>
      <path id="Trazado_875972" data-name="Trazado 875972" d="M-24.144-5.229h-5.062V0h-2.637V-12.8h8.332v2.136h-5.7v3.3h5.063ZM-16.937,0a2.821,2.821,0,0,1-.255-.853,3.073,3.073,0,0,1-2.4,1.028,3.376,3.376,0,0,1-2.316-.809,2.6,2.6,0,0,1-.918-2.039A2.687,2.687,0,0,1-21.7-4.992a5.529,5.529,0,0,1,3.239-.817H-17.3v-.545a1.567,1.567,0,0,0-.338-1.055A1.331,1.331,0,0,0-18.7-7.8a1.513,1.513,0,0,0-1.006.308,1.045,1.045,0,0,0-.365.844h-2.54a2.551,2.551,0,0,1,.51-1.529,3.37,3.37,0,0,1,1.441-1.1,5.253,5.253,0,0,1,2.092-.4,4.15,4.15,0,0,1,2.791.883,3.09,3.09,0,0,1,1.033,2.483V-2.2A4.546,4.546,0,0,0-14.37-.149V0Zm-2.1-1.767A2.188,2.188,0,0,0-18-2.017a1.645,1.645,0,0,0,.7-.672V-4.324h-.949q-1.907,0-2.03,1.318l-.009.149a1.017,1.017,0,0,0,.334.782A1.3,1.3,0,0,0-19.037-1.767Zm10.2-.105A1.666,1.666,0,0,0-7.7-2.259a1.355,1.355,0,0,0,.457-1.028H-4.86a3.258,3.258,0,0,1-.527,1.771A3.48,3.48,0,0,1-6.807-.268,4.442,4.442,0,0,1-8.8.176a4.129,4.129,0,0,1-3.217-1.3A5.13,5.13,0,0,1-13.192-4.7v-.167a5.071,5.071,0,0,1,1.169-3.507,4.08,4.08,0,0,1,3.208-1.31A4,4,0,0,1-5.955-8.67a3.594,3.594,0,0,1,1.094,2.7H-7.242a1.731,1.731,0,0,0-.457-1.2,1.528,1.528,0,0,0-1.16-.461,1.531,1.531,0,0,0-1.34.646,3.739,3.739,0,0,0-.453,2.1v.264A3.786,3.786,0,0,0-10.2-2.514,1.55,1.55,0,0,0-8.842-1.872Zm8.473-9.976V-9.51H1.257v1.863H-.369V-2.9a1.133,1.133,0,0,0,.2.756,1.015,1.015,0,0,0,.773.229,4.051,4.051,0,0,0,.747-.062V-.053A5.229,5.229,0,0,1-.185.176a2.425,2.425,0,0,1-2.725-2.7V-7.646H-4.3V-9.51h1.389v-2.338Zm2.382,7a5.64,5.64,0,0,1,.545-2.522A3.989,3.989,0,0,1,4.126-9.079,4.577,4.577,0,0,1,6.5-9.686,4.33,4.33,0,0,1,9.646-8.508,4.727,4.727,0,0,1,11-5.309l.018.65A4.97,4.97,0,0,1,9.8-1.147,4.247,4.247,0,0,1,6.521.176,4.268,4.268,0,0,1,3.239-1.143,5.058,5.058,0,0,1,2.013-4.729Zm2.54.185a3.545,3.545,0,0,0,.51,2.07,1.682,1.682,0,0,0,1.459.716A1.686,1.686,0,0,0,7.963-2.58a3.879,3.879,0,0,0,.519-2.263A3.51,3.51,0,0,0,7.963-6.9,1.686,1.686,0,0,0,6.5-7.629,1.659,1.659,0,0,0,5.063-6.9,3.944,3.944,0,0,0,4.553-4.658ZM17.93-7.128a6.9,6.9,0,0,0-.914-.07,1.86,1.86,0,0,0-1.89.976V0h-2.54V-9.51h2.4l.07,1.134a2.354,2.354,0,0,1,2.118-1.31,2.662,2.662,0,0,1,.791.114Zm5.977.835.738-6.5h7.172v2.118H26.728l-.316,2.751a4.027,4.027,0,0,1,1.925-.483A3.689,3.689,0,0,1,31.2-7.277,4.529,4.529,0,0,1,32.238-4.1a4.64,4.64,0,0,1-.523,2.219,3.691,3.691,0,0,1-1.5,1.521,4.678,4.678,0,0,1-2.3.541,4.968,4.968,0,0,1-2.153-.47,3.819,3.819,0,0,1-1.569-1.323,3.605,3.605,0,0,1-.611-1.942h2.514a1.878,1.878,0,0,0,.558,1.244,1.769,1.769,0,0,0,1.252.444,1.562,1.562,0,0,0,1.327-.62A2.87,2.87,0,0,0,29.7-4.245a2.374,2.374,0,0,0-.536-1.67,1.967,1.967,0,0,0-1.521-.58,2.2,2.2,0,0,0-1.468.475l-.246.229Z" transform="translate(988.934 7350.903)"/>
      <path id="Trazado_875973" data-name="Trazado 875973" d="M-9.22-10.661h-3.92V0h-2.637V-10.661h-3.867V-12.8H-9.22Zm-.888,5.818a5.64,5.64,0,0,1,.545-2.522A3.989,3.989,0,0,1-7.994-9.079a4.577,4.577,0,0,1,2.377-.606A4.33,4.33,0,0,1-2.474-8.508a4.727,4.727,0,0,1,1.358,3.2l.018.65A4.97,4.97,0,0,1-2.32-1.147,4.247,4.247,0,0,1-5.6.176,4.268,4.268,0,0,1-8.881-1.143a5.058,5.058,0,0,1-1.226-3.586Zm2.54.185a3.545,3.545,0,0,0,.51,2.07A1.682,1.682,0,0,0-5.6-1.872,1.686,1.686,0,0,0-4.157-2.58a3.879,3.879,0,0,0,.519-2.263A3.51,3.51,0,0,0-4.157-6.9a1.686,1.686,0,0,0-1.459-.729A1.659,1.659,0,0,0-7.058-6.9,3.944,3.944,0,0,0-7.567-4.658ZM3.507-11.848V-9.51H5.133v1.863H3.507V-2.9a1.133,1.133,0,0,0,.2.756,1.015,1.015,0,0,0,.773.229,4.051,4.051,0,0,0,.747-.062V-.053A5.229,5.229,0,0,1,3.691.176a2.425,2.425,0,0,1-2.725-2.7V-7.646H-.422V-9.51H.967v-2.338ZM12.059,0A2.821,2.821,0,0,1,11.8-.853,3.073,3.073,0,0,1,9.4.176,3.376,3.376,0,0,1,7.088-.633,2.6,2.6,0,0,1,6.17-2.672a2.687,2.687,0,0,1,1.121-2.32,5.529,5.529,0,0,1,3.239-.817H11.7v-.545a1.567,1.567,0,0,0-.338-1.055,1.331,1.331,0,0,0-1.068-.4A1.513,1.513,0,0,0,9.286-7.5a1.045,1.045,0,0,0-.365.844H6.381a2.551,2.551,0,0,1,.51-1.529,3.37,3.37,0,0,1,1.441-1.1,5.253,5.253,0,0,1,2.092-.4,4.15,4.15,0,0,1,2.791.883,3.09,3.09,0,0,1,1.033,2.483V-2.2a4.546,4.546,0,0,0,.378,2.048V0Zm-2.1-1.767A2.188,2.188,0,0,0,11-2.017a1.645,1.645,0,0,0,.7-.672V-4.324h-.949q-1.907,0-2.03,1.318l-.009.149a1.017,1.017,0,0,0,.334.782A1.3,1.3,0,0,0,9.958-1.767ZM18.879,0H16.33V-13.5h2.549Z" transform="translate(1118.228 7350.903)"/>
      <path id="Trazado_875944" data-name="Trazado 875944" d="M-18.39-2.238A.9.9,0,0,0-18.741-3a4.611,4.611,0,0,0-1.266-.562,8.972,8.972,0,0,1-1.447-.583,2.365,2.365,0,0,1-1.453-2.115,2.06,2.06,0,0,1,.39-1.233A2.542,2.542,0,0,1-21.4-8.344a4.212,4.212,0,0,1,1.638-.3,3.834,3.834,0,0,1,1.629.331,2.594,2.594,0,0,1,1.11.935,2.445,2.445,0,0,1,.4,1.371h-1.758a1.15,1.15,0,0,0-.369-.911,1.517,1.517,0,0,0-1.037-.325,1.621,1.621,0,0,0-1,.272.859.859,0,0,0-.357.718.823.823,0,0,0,.419.7,4.733,4.733,0,0,0,1.233.527,5.329,5.329,0,0,1,2.186,1.119,2.229,2.229,0,0,1,.686,1.664,2.053,2.053,0,0,1-.838,1.737,3.668,3.668,0,0,1-2.256.63,4.356,4.356,0,0,1-1.793-.36,2.837,2.837,0,0,1-1.233-.987,2.528,2.528,0,0,1-.425-1.453h1.764q0,1.412,1.688,1.412a1.642,1.642,0,0,0,.979-.255A.829.829,0,0,0-18.39-2.238Zm6.639,1.594a2.124,2.124,0,0,1-1.734.762,2,2,0,0,1-1.556-.586,2.5,2.5,0,0,1-.548-1.717V-6.34H-13.9v4.1q0,.99.9.99a1.223,1.223,0,0,0,1.184-.6V-6.34h1.7V0H-11.7Zm4.506-5.7.053.709A2.228,2.228,0,0,1-5.37-6.457a1.691,1.691,0,0,1,1.682.967,2.177,2.177,0,0,1,1.9-.967,1.891,1.891,0,0,1,1.535.6,2.761,2.761,0,0,1,.5,1.808V0h-1.7V-4.043a1.207,1.207,0,0,0-.211-.788A.935.935,0,0,0-2.4-5.08a1.057,1.057,0,0,0-1.055.727L-3.448,0H-5.142V-4.037a1.193,1.193,0,0,0-.217-.8A.944.944,0,0,0-6.1-5.08a1.1,1.1,0,0,0-1.043.6V0H-8.833V-6.34ZM5.229,0a1.88,1.88,0,0,1-.17-.568,2.049,2.049,0,0,1-1.6.686A2.251,2.251,0,0,1,1.916-.422,1.734,1.734,0,0,1,1.3-1.781a1.792,1.792,0,0,1,.747-1.547A3.686,3.686,0,0,1,4.21-3.873h.779v-.363a1.045,1.045,0,0,0-.226-.7A.887.887,0,0,0,4.052-5.2,1.009,1.009,0,0,0,3.381-5a.7.7,0,0,0-.243.563H1.444a1.7,1.7,0,0,1,.34-1.02,2.246,2.246,0,0,1,.961-.735A3.5,3.5,0,0,1,4.14-6.457,2.767,2.767,0,0,1,6-5.868a2.06,2.06,0,0,1,.688,1.655v2.748A3.031,3.031,0,0,0,6.94-.1V0Zm-1.4-1.178a1.458,1.458,0,0,0,.691-.167,1.1,1.1,0,0,0,.469-.448v-1.09H4.356Q3.085-2.883,3-2L3-1.9a.678.678,0,0,0,.223.521A.865.865,0,0,0,3.829-1.178Zm6.885-2.039a3.821,3.821,0,0,1,.665-2.361A2.158,2.158,0,0,1,13.2-6.457a1.942,1.942,0,0,1,1.529.691V-9h1.7V0H14.9l-.082-.674a1.993,1.993,0,0,1-1.629.791,2.152,2.152,0,0,1-1.8-.882A3.944,3.944,0,0,1,10.714-3.217Zm1.693.123a2.5,2.5,0,0,0,.311,1.365,1.012,1.012,0,0,0,.9.475,1.133,1.133,0,0,0,1.107-.662v-2.5a1.117,1.117,0,0,0-1.1-.662Q12.407-5.08,12.407-3.094ZM20.657.117a3.112,3.112,0,0,1-2.271-.855,3.041,3.041,0,0,1-.876-2.279v-.164A3.83,3.83,0,0,1,17.88-4.89a2.709,2.709,0,0,1,1.046-1.16,2.936,2.936,0,0,1,1.544-.407,2.631,2.631,0,0,1,2.048.82,3.333,3.333,0,0,1,.747,2.326v.691H19.228a1.573,1.573,0,0,0,.5,1,1.5,1.5,0,0,0,1.046.375A1.828,1.828,0,0,0,22.3-1.957l.832.932A2.542,2.542,0,0,1,22.1-.185,3.383,3.383,0,0,1,20.657.117Zm-.193-5.2a1.06,1.06,0,0,0-.817.34,1.756,1.756,0,0,0-.4.973H21.6v-.135a1.252,1.252,0,0,0-.3-.87A1.094,1.094,0,0,0,20.464-5.086ZM-29.47,11h-1.7V2h1.7Zm1.131-3.229a3.76,3.76,0,0,1,.363-1.682A2.659,2.659,0,0,1-26.93,4.947a3.051,3.051,0,0,1,1.585-.4,2.887,2.887,0,0,1,2.095.785,3.151,3.151,0,0,1,.905,2.133l.012.434a3.314,3.314,0,0,1-.814,2.341,2.831,2.831,0,0,1-2.186.882,2.845,2.845,0,0,1-2.188-.879,3.372,3.372,0,0,1-.817-2.391Zm1.693.123a2.363,2.363,0,0,0,.34,1.38,1.122,1.122,0,0,0,.973.478,1.124,1.124,0,0,0,.961-.472,2.586,2.586,0,0,0,.346-1.509A2.34,2.34,0,0,0-24.372,6.4a1.124,1.124,0,0,0-.973-.486,1.106,1.106,0,0,0-.961.483A2.63,2.63,0,0,0-26.646,7.895Zm8.789,1.354a.546.546,0,0,0-.308-.489,3.494,3.494,0,0,0-.987-.319q-2.262-.475-2.262-1.922a1.742,1.742,0,0,1,.7-1.409,2.824,2.824,0,0,1,1.831-.565,3.04,3.04,0,0,1,1.931.568,1.791,1.791,0,0,1,.724,1.477h-1.693a.819.819,0,0,0-.234-.6.992.992,0,0,0-.732-.237,1.013,1.013,0,0,0-.662.193.61.61,0,0,0-.234.492.522.522,0,0,0,.267.454,2.743,2.743,0,0,0,.9.3,7.346,7.346,0,0,1,1.066.284A1.752,1.752,0,0,1-16.21,9.178a1.654,1.654,0,0,1-.744,1.4,3.21,3.21,0,0,1-1.922.536,3.353,3.353,0,0,1-1.415-.284,2.374,2.374,0,0,1-.97-.779,1.811,1.811,0,0,1-.352-1.069h1.605a.884.884,0,0,0,.334.691,1.325,1.325,0,0,0,.832.24,1.226,1.226,0,0,0,.735-.185A.574.574,0,0,0-17.856,9.248ZM-11.669,11V5.9h-.943V4.66h.943V4.121a2.189,2.189,0,0,1,.612-1.655,2.371,2.371,0,0,1,1.714-.589,3.959,3.959,0,0,1,.861.117L-8.5,3.307a2.159,2.159,0,0,0-.516-.053q-.955,0-.955.9v.51h1.26V5.9H-9.97V11Zm7.512,0a1.88,1.88,0,0,1-.17-.568,2.049,2.049,0,0,1-1.6.686,2.251,2.251,0,0,1-1.544-.539,1.734,1.734,0,0,1-.612-1.359,1.792,1.792,0,0,1,.747-1.547,3.686,3.686,0,0,1,2.159-.545H-4.4V6.764a1.045,1.045,0,0,0-.226-.7A.887.887,0,0,0-5.335,5.8,1.009,1.009,0,0,0-6.006,6a.7.7,0,0,0-.243.563H-7.942a1.7,1.7,0,0,1,.34-1.02,2.246,2.246,0,0,1,.961-.735,3.5,3.5,0,0,1,1.395-.267,2.767,2.767,0,0,1,1.86.589A2.06,2.06,0,0,1-2.7,6.787V9.535A3.031,3.031,0,0,0-2.446,10.9V11Zm-1.4-1.178a1.458,1.458,0,0,0,.691-.167A1.1,1.1,0,0,0-4.4,9.207V8.117H-5.03Q-6.3,8.117-6.384,9l-.006.1a.678.678,0,0,0,.223.521A.865.865,0,0,0-5.558,9.822Zm6.8-.07A1.111,1.111,0,0,0,2,9.494a.9.9,0,0,0,.3-.686H3.894a2.172,2.172,0,0,1-.352,1.181,2.32,2.32,0,0,1-.946.832,2.962,2.962,0,0,1-1.327.3,2.752,2.752,0,0,1-2.145-.864,3.42,3.42,0,0,1-.785-2.388V7.754A3.381,3.381,0,0,1-.882,5.416a2.72,2.72,0,0,1,2.139-.873,2.667,2.667,0,0,1,1.907.677,2.4,2.4,0,0,1,.729,1.8H2.306a1.154,1.154,0,0,0-.3-.8,1.019,1.019,0,0,0-.773-.308,1.02,1.02,0,0,0-.894.431,2.493,2.493,0,0,0-.3,1.4v.176a2.524,2.524,0,0,0,.3,1.406A1.033,1.033,0,0,0,1.239,9.752ZM6.888,3.1V4.66H7.972V5.9H6.888V9.066a.756.756,0,0,0,.135.5.677.677,0,0,0,.516.152,2.7,2.7,0,0,0,.5-.041v1.283a3.486,3.486,0,0,1-1.025.152,1.617,1.617,0,0,1-1.816-1.8V5.9H4.269V4.66h.926V3.1Zm1.588,4.67A3.76,3.76,0,0,1,8.839,6.09,2.659,2.659,0,0,1,9.885,4.947a3.051,3.051,0,0,1,1.585-.4,2.887,2.887,0,0,1,2.095.785,3.151,3.151,0,0,1,.905,2.133l.012.434a3.314,3.314,0,0,1-.814,2.341,2.831,2.831,0,0,1-2.186.882,2.845,2.845,0,0,1-2.188-.879,3.372,3.372,0,0,1-.817-2.391Zm1.693.123a2.363,2.363,0,0,0,.34,1.38,1.222,1.222,0,0,0,1.934.006,2.586,2.586,0,0,0,.346-1.509A2.34,2.34,0,0,0,12.442,6.4a1.124,1.124,0,0,0-.973-.486,1.106,1.106,0,0,0-.961.483A2.63,2.63,0,0,0,10.169,7.895Zm8.918-1.646a4.6,4.6,0,0,0-.609-.047,1.24,1.24,0,0,0-1.26.65V11H15.524V4.66h1.6l.047.756a1.569,1.569,0,0,1,1.412-.873,1.774,1.774,0,0,1,.527.076Zm3.732,4.869a3.112,3.112,0,0,1-2.271-.855,3.041,3.041,0,0,1-.876-2.279V7.818a3.83,3.83,0,0,1,.369-1.708,2.709,2.709,0,0,1,1.046-1.16,2.936,2.936,0,0,1,1.544-.407,2.631,2.631,0,0,1,2.048.82,3.333,3.333,0,0,1,.747,2.326v.691H21.39a1.573,1.573,0,0,0,.5,1,1.5,1.5,0,0,0,1.046.375,1.828,1.828,0,0,0,1.529-.709l.832.932a2.542,2.542,0,0,1-1.031.841A3.383,3.383,0,0,1,22.819,11.117Zm-.193-5.2a1.06,1.06,0,0,0-.817.34,1.756,1.756,0,0,0-.4.973h2.355V7.092a1.252,1.252,0,0,0-.3-.87A1.094,1.094,0,0,0,22.626,5.914Zm7.2,3.334a.546.546,0,0,0-.308-.489,3.494,3.494,0,0,0-.987-.319q-2.262-.475-2.262-1.922a1.742,1.742,0,0,1,.7-1.409A2.824,2.824,0,0,1,28.8,4.543a3.04,3.04,0,0,1,1.931.568,1.791,1.791,0,0,1,.724,1.477H29.757a.819.819,0,0,0-.234-.6.992.992,0,0,0-.732-.237,1.013,1.013,0,0,0-.662.193.61.61,0,0,0-.234.492.522.522,0,0,0,.267.454,2.743,2.743,0,0,0,.9.3,7.346,7.346,0,0,1,1.066.284,1.752,1.752,0,0,1,1.342,1.705,1.654,1.654,0,0,1-.744,1.4,3.21,3.21,0,0,1-1.922.536,3.353,3.353,0,0,1-1.415-.284,2.374,2.374,0,0,1-.97-.779,1.811,1.811,0,0,1-.352-1.069h1.605A.884.884,0,0,0,28,9.676a1.325,1.325,0,0,0,.832.24,1.226,1.226,0,0,0,.735-.185A.574.574,0,0,0,29.821,9.248Z" transform="translate(1119.681 7415.318)" fill="#fff"/>
      <path id="Trazado_875945" data-name="Trazado 875945" d="M-27.853-3.006V0H-29.61V-8.531h3.328a3.85,3.85,0,0,1,1.69.352,2.591,2.591,0,0,1,1.122,1,2.786,2.786,0,0,1,.393,1.474,2.45,2.45,0,0,1-.858,1.978,3.575,3.575,0,0,1-2.376.724Zm0-1.424h1.57a1.544,1.544,0,0,0,1.063-.328,1.193,1.193,0,0,0,.366-.937,1.407,1.407,0,0,0-.369-1.014,1.379,1.379,0,0,0-1.02-.4h-1.611Zm9.668,3.785a2.124,2.124,0,0,1-1.734.762,2,2,0,0,1-1.556-.586,2.5,2.5,0,0,1-.548-1.717V-6.34h1.693v4.1q0,.99.9.99a1.223,1.223,0,0,0,1.184-.6V-6.34h1.7V0h-1.594Zm5.836.762a3.112,3.112,0,0,1-2.271-.855A3.041,3.041,0,0,1-15.5-3.018v-.164a3.83,3.83,0,0,1,.369-1.708A2.709,2.709,0,0,1-14.08-6.05a2.936,2.936,0,0,1,1.544-.407,2.631,2.631,0,0,1,2.048.82,3.333,3.333,0,0,1,.747,2.326v.691h-4.037a1.573,1.573,0,0,0,.5,1,1.5,1.5,0,0,0,1.046.375,1.828,1.828,0,0,0,1.529-.709l.832.932a2.542,2.542,0,0,1-1.031.841A3.383,3.383,0,0,1-12.349.117Zm-.193-5.2a1.06,1.06,0,0,0-.817.34,1.756,1.756,0,0,0-.4.973h2.355v-.135a1.252,1.252,0,0,0-.3-.87A1.094,1.094,0,0,0-12.542-5.086Zm7.2,3.334a.546.546,0,0,0-.308-.489,3.494,3.494,0,0,0-.987-.319Q-8.9-3.035-8.9-4.482a1.742,1.742,0,0,1,.7-1.409,2.824,2.824,0,0,1,1.831-.565,3.04,3.04,0,0,1,1.931.568,1.791,1.791,0,0,1,.724,1.477H-5.411a.819.819,0,0,0-.234-.6.992.992,0,0,0-.732-.237,1.013,1.013,0,0,0-.662.193.61.61,0,0,0-.234.492.522.522,0,0,0,.267.454,2.743,2.743,0,0,0,.9.3,7.346,7.346,0,0,1,1.066.284A1.752,1.752,0,0,1-3.7-1.822a1.654,1.654,0,0,1-.744,1.4A3.21,3.21,0,0,1-6.366.117,3.353,3.353,0,0,1-7.781-.167a2.374,2.374,0,0,1-.97-.779A1.811,1.811,0,0,1-9.1-2.016H-7.5a.884.884,0,0,0,.334.691,1.325,1.325,0,0,0,.832.24A1.226,1.226,0,0,0-5.6-1.269.574.574,0,0,0-5.347-1.752ZM-.583-7.9V-6.34H.5V-5.1H-.583v3.164a.756.756,0,0,0,.135.5.677.677,0,0,0,.516.152,2.7,2.7,0,0,0,.5-.041V-.035A3.486,3.486,0,0,1-.46.117a1.617,1.617,0,0,1-1.816-1.8V-5.1H-3.2V-6.34h.926V-7.9ZM1-3.229A3.76,3.76,0,0,1,1.368-4.91,2.659,2.659,0,0,1,2.414-6.053,3.051,3.051,0,0,1,4-6.457a2.887,2.887,0,0,1,2.095.785A3.151,3.151,0,0,1,7-3.539l.012.434A3.314,3.314,0,0,1,6.2-.765,2.831,2.831,0,0,1,4.011.117,2.845,2.845,0,0,1,1.822-.762,3.372,3.372,0,0,1,1-3.152ZM2.7-3.105a2.363,2.363,0,0,0,.34,1.38,1.122,1.122,0,0,0,.973.478,1.124,1.124,0,0,0,.961-.472,2.586,2.586,0,0,0,.346-1.509A2.34,2.34,0,0,0,4.972-4.6,1.124,1.124,0,0,0,4-5.086a1.106,1.106,0,0,0-.961.483A2.63,2.63,0,0,0,2.7-3.105Zm8.08-.123a3.79,3.79,0,0,1,.665-2.361,2.174,2.174,0,0,1,1.825-.867,1.947,1.947,0,0,1,1.623.779L15-6.34h1.488V2.438h-1.7V-.545a1.952,1.952,0,0,1-1.535.662,2.158,2.158,0,0,1-1.8-.879A3.975,3.975,0,0,1,10.778-3.229Zm1.693.123a2.479,2.479,0,0,0,.319,1.383,1.023,1.023,0,0,0,.9.475,1.139,1.139,0,0,0,1.1-.621V-4.488a1.13,1.13,0,0,0-1.09-.6,1.035,1.035,0,0,0-.908.475A2.738,2.738,0,0,0,12.472-3.105ZM21.618-.645a2.124,2.124,0,0,1-1.734.762,2,2,0,0,1-1.556-.586,2.5,2.5,0,0,1-.548-1.717V-6.34h1.693v4.1q0,.99.9.99a1.223,1.223,0,0,0,1.184-.6V-6.34h1.7V0H21.665Zm5.836.762a3.112,3.112,0,0,1-2.271-.855,3.041,3.041,0,0,1-.876-2.279v-.164a3.83,3.83,0,0,1,.369-1.708,2.709,2.709,0,0,1,1.046-1.16,2.936,2.936,0,0,1,1.544-.407,2.631,2.631,0,0,1,2.048.82,3.333,3.333,0,0,1,.747,2.326v.691H26.024a1.573,1.573,0,0,0,.5,1,1.5,1.5,0,0,0,1.046.375,1.828,1.828,0,0,0,1.529-.709l.832.932A2.542,2.542,0,0,1,28.9-.185,3.383,3.383,0,0,1,27.454.117Zm-.193-5.2a1.06,1.06,0,0,0-.817.34,1.756,1.756,0,0,0-.4.973H28.4v-.135a1.252,1.252,0,0,0-.3-.87A1.094,1.094,0,0,0,27.261-5.086ZM-16.087,6.771a3.76,3.76,0,0,1,.363-1.682,2.659,2.659,0,0,1,1.046-1.143,3.051,3.051,0,0,1,1.585-.4A2.887,2.887,0,0,1-11,4.328a3.151,3.151,0,0,1,.905,2.133l.012.434A3.314,3.314,0,0,1-10.9,9.235a2.831,2.831,0,0,1-2.186.882,2.845,2.845,0,0,1-2.188-.879,3.372,3.372,0,0,1-.817-2.391Zm1.693.123a2.363,2.363,0,0,0,.34,1.38,1.122,1.122,0,0,0,.973.478,1.124,1.124,0,0,0,.961-.472,2.586,2.586,0,0,0,.346-1.509A2.34,2.34,0,0,0-12.12,5.4a1.124,1.124,0,0,0-.973-.486,1.106,1.106,0,0,0-.961.483A2.63,2.63,0,0,0-14.394,6.895ZM-6.4,8.752a1.111,1.111,0,0,0,.762-.258.9.9,0,0,0,.3-.686h1.588A2.172,2.172,0,0,1-4.1,8.989a2.32,2.32,0,0,1-.946.832,2.962,2.962,0,0,1-1.327.3,2.752,2.752,0,0,1-2.145-.864A3.42,3.42,0,0,1-9.3,6.865V6.754a3.381,3.381,0,0,1,.779-2.338,2.72,2.72,0,0,1,2.139-.873,2.667,2.667,0,0,1,1.907.677,2.4,2.4,0,0,1,.729,1.8H-5.335a1.154,1.154,0,0,0-.3-.8,1.019,1.019,0,0,0-.773-.308,1.02,1.02,0,0,0-.894.431,2.493,2.493,0,0,0-.3,1.4v.176a2.524,2.524,0,0,0,.3,1.406A1.033,1.033,0,0,0-6.4,8.752Zm7.418.6a2.124,2.124,0,0,1-1.734.762,2,2,0,0,1-1.556-.586,2.5,2.5,0,0,1-.548-1.717V3.66h1.693v4.1q0,.99.9.99a1.223,1.223,0,0,0,1.184-.6V3.66h1.7V10H1.063ZM9.642,6.889a3.8,3.8,0,0,1-.665,2.347,2.132,2.132,0,0,1-1.8.882,1.975,1.975,0,0,1-1.553-.668v2.988H3.935V3.66H5.5l.059.621a1.99,1.99,0,0,1,1.605-.738,2.147,2.147,0,0,1,1.822.867A3.905,3.905,0,0,1,9.642,6.8ZM7.948,6.766A2.5,2.5,0,0,0,7.635,5.4a1.021,1.021,0,0,0-.911-.48,1.109,1.109,0,0,0-1.1.609v2.6a1.128,1.128,0,0,0,1.107.627Q7.948,8.752,7.948,6.766ZM14.364,10a1.88,1.88,0,0,1-.17-.568,2.049,2.049,0,0,1-1.6.686,2.251,2.251,0,0,1-1.544-.539,1.734,1.734,0,0,1-.612-1.359,1.792,1.792,0,0,1,.747-1.547,3.686,3.686,0,0,1,2.159-.545h.779V5.764a1.045,1.045,0,0,0-.226-.7.887.887,0,0,0-.712-.264A1.009,1.009,0,0,0,12.516,5a.7.7,0,0,0-.243.563H10.579a1.7,1.7,0,0,1,.34-1.02,2.246,2.246,0,0,1,.961-.735,3.5,3.5,0,0,1,1.395-.267,2.767,2.767,0,0,1,1.86.589,2.06,2.06,0,0,1,.688,1.655V8.535A3.031,3.031,0,0,0,16.075,9.9V10Zm-1.4-1.178a1.458,1.458,0,0,0,.691-.167,1.1,1.1,0,0,0,.469-.448V7.117h-.633q-1.271,0-1.354.879l-.006.1a.678.678,0,0,0,.223.521A.865.865,0,0,0,12.964,8.822Z" transform="translate(1244.45 7414.478)" fill="#fff"/>
      <path id="Trazado_875974" data-name="Trazado 875974" d="M-29.276-12.8v8.429A4.315,4.315,0,0,1-30.59-1.046,5.066,5.066,0,0,1-34.181.176a5.123,5.123,0,0,1-3.56-1.187,4.242,4.242,0,0,1-1.345-3.261V-12.8h2.637v8.446a2.438,2.438,0,0,0,.6,1.833,2.311,2.311,0,0,0,1.666.576q2.224,0,2.259-2.338V-12.8Zm10.564,8.13A5.758,5.758,0,0,1-19.687-1.1,3.231,3.231,0,0,1-22.412.176a2.969,2.969,0,0,1-2.47-1.187L-25,0h-2.285V-13.5h2.54v4.843A2.893,2.893,0,0,1-22.43-9.686,3.258,3.258,0,0,1-19.7-8.407a5.767,5.767,0,0,1,.989,3.6Zm-2.54-.185a3.783,3.783,0,0,0-.457-2.1,1.545,1.545,0,0,0-1.362-.664,1.676,1.676,0,0,0-1.67.993v3.753a1.7,1.7,0,0,0,1.688,1,1.568,1.568,0,0,0,1.617-1.213A6.257,6.257,0,0,0-21.252-4.852ZM-14.467,0h-2.549V-9.51h2.549Zm-2.7-11.971a1.251,1.251,0,0,1,.382-.94,1.436,1.436,0,0,1,1.042-.369,1.44,1.44,0,0,1,1.037.369,1.244,1.244,0,0,1,.387.94,1.247,1.247,0,0,1-.391.949,1.443,1.443,0,0,1-1.033.369,1.443,1.443,0,0,1-1.033-.369A1.247,1.247,0,0,1-17.165-11.971Zm8.745,10.1a1.666,1.666,0,0,0,1.143-.387A1.355,1.355,0,0,0-6.82-3.287h2.382a3.258,3.258,0,0,1-.527,1.771A3.48,3.48,0,0,1-6.385-.268,4.442,4.442,0,0,1-8.376.176a4.129,4.129,0,0,1-3.217-1.3A5.13,5.13,0,0,1-12.771-4.7v-.167A5.071,5.071,0,0,1-11.6-8.376a4.08,4.08,0,0,1,3.208-1.31A4,4,0,0,1-5.533-8.67a3.594,3.594,0,0,1,1.094,2.7H-6.82a1.731,1.731,0,0,0-.457-1.2,1.528,1.528,0,0,0-1.16-.461,1.531,1.531,0,0,0-1.34.646,3.739,3.739,0,0,0-.453,2.1v.264a3.786,3.786,0,0,0,.448,2.109A1.55,1.55,0,0,0-8.42-1.872ZM2.522,0a2.821,2.821,0,0,1-.255-.853A3.073,3.073,0,0,1-.132.176,3.376,3.376,0,0,1-2.448-.633a2.6,2.6,0,0,1-.918-2.039,2.687,2.687,0,0,1,1.121-2.32A5.529,5.529,0,0,1,.993-5.81H2.162v-.545a1.567,1.567,0,0,0-.338-1.055A1.331,1.331,0,0,0,.756-7.8,1.513,1.513,0,0,0-.25-7.5a1.045,1.045,0,0,0-.365.844h-2.54a2.551,2.551,0,0,1,.51-1.529A3.37,3.37,0,0,1-1.2-9.286a5.253,5.253,0,0,1,2.092-.4A4.15,4.15,0,0,1,3.678-8.8,3.09,3.09,0,0,1,4.711-6.319V-2.2A4.546,4.546,0,0,0,5.089-.149V0ZM.422-1.767a2.188,2.188,0,0,0,1.037-.25,1.645,1.645,0,0,0,.7-.672V-4.324H1.213q-1.907,0-2.03,1.318l-.009.149a1.017,1.017,0,0,0,.334.782A1.3,1.3,0,0,0,.422-1.767Zm10.2-.105a1.666,1.666,0,0,0,1.143-.387,1.355,1.355,0,0,0,.457-1.028H14.6a3.258,3.258,0,0,1-.527,1.771A3.48,3.48,0,0,1,12.652-.268a4.442,4.442,0,0,1-1.991.444,4.129,4.129,0,0,1-3.217-1.3A5.13,5.13,0,0,1,6.267-4.7v-.167A5.071,5.071,0,0,1,7.436-8.376a4.08,4.08,0,0,1,3.208-1.31A4,4,0,0,1,13.5-8.67a3.594,3.594,0,0,1,1.094,2.7H12.217a1.731,1.731,0,0,0-.457-1.2,1.528,1.528,0,0,0-1.16-.461,1.531,1.531,0,0,0-1.34.646,3.739,3.739,0,0,0-.453,2.1v.264a3.786,3.786,0,0,0,.448,2.109A1.55,1.55,0,0,0,10.617-1.872ZM18.729,0H16.181V-9.51h2.549Zm-2.7-11.971a1.251,1.251,0,0,1,.382-.94,1.436,1.436,0,0,1,1.042-.369,1.44,1.44,0,0,1,1.037.369,1.244,1.244,0,0,1,.387.94,1.247,1.247,0,0,1-.391.949,1.443,1.443,0,0,1-1.033.369,1.443,1.443,0,0,1-1.033-.369A1.247,1.247,0,0,1,16.031-11.971Zm4.395,7.128a5.64,5.64,0,0,1,.545-2.522A3.989,3.989,0,0,1,22.54-9.079a4.577,4.577,0,0,1,2.377-.606,4.33,4.33,0,0,1,3.142,1.178,4.727,4.727,0,0,1,1.358,3.2l.018.65a4.97,4.97,0,0,1-1.222,3.511A4.247,4.247,0,0,1,24.935.176a4.268,4.268,0,0,1-3.283-1.318,5.058,5.058,0,0,1-1.226-3.586Zm2.54.185a3.545,3.545,0,0,0,.51,2.07,1.682,1.682,0,0,0,1.459.716,1.686,1.686,0,0,0,1.441-.708,3.879,3.879,0,0,0,.519-2.263A3.51,3.51,0,0,0,26.376-6.9a1.686,1.686,0,0,0-1.459-.729,1.659,1.659,0,0,0-1.441.725A3.944,3.944,0,0,0,22.966-4.658ZM25.418-13.5h2.769l-2.435,2.725H23.687Zm7.919,3.99.079,1.1a3.32,3.32,0,0,1,2.733-1.274A2.759,2.759,0,0,1,38.4-8.8a4.142,4.142,0,0,1,.756,2.654V0h-2.54V-6.082a1.648,1.648,0,0,0-.352-1.173,1.574,1.574,0,0,0-1.169-.365,1.747,1.747,0,0,0-1.608.914V0h-2.54V-9.51Z" transform="translate(1238.996 7350.903)"/>
    </g>
  </g>
</svg>
