<svg xmlns="http://www.w3.org/2000/svg" width="78.501" height="73.271" viewBox="0 0 78.501 73.271">
  <g id="Grupo_1099953" data-name="Grupo 1099953" transform="translate(-1921.749 1456.089)">
    <path id="_12068" data-name="12068" d="M72.033,71.913c-8.038-1.11-16.53-.839-23.844,2.675C38.045,79.46,31.382,90.507,31.127,101.757s5.606,22.305,14.66,28.988,21,9.051,32.068,7.045c11.165-2.023,21.645-8.583,27.469-18.322,3.735-6.245,5.48-13.956,3.417-20.934a28.6,28.6,0,0,0-6.787-11.156A50.145,50.145,0,0,0,72.033,71.913Z" transform="translate(1890.63 -1521.3)" fill="#26aab7"/>
    <g id="desarrollando" transform="translate(1931.997 -1456.202)">
      <g id="Grupo_1099937" data-name="Grupo 1099937" transform="translate(2 1.999)">
        <g id="Grupo_1099922" data-name="Grupo 1099922" transform="translate(47.98 0)">
          <path id="Trazado_875735" data-name="Trazado 875735" d="M55,2l5,8H58V26.989H52V10H50Z" transform="translate(-50 -2)" fill="#aee6e6"/>
        </g>
        <g id="Grupo_1099923" data-name="Grupo 1099923" transform="translate(1.999 35.985)">
          <path id="Trazado_875736" data-name="Trazado 875736" d="M9,38l5,8H12V62.989H6V46H4Z" transform="translate(-4 -38)" fill="#aee6e6"/>
        </g>
        <g id="Grupo_1099924" data-name="Grupo 1099924" transform="translate(36.465 30.547)">
          <path id="Trazado_875737" data-name="Trazado 875737" d="M49.225,36.278a18.083,18.083,0,0,0,1.659-3.429,3.946,3.946,0,0,0,.46.23,3.841,3.841,0,0,0,3.718-.43l.12-.09,4.248,4.248-.09.12a3.872,3.872,0,0,0-.43,3.718,3.865,3.865,0,0,0,2.929,2.329l.15.02v6l-.15.03a3.843,3.843,0,0,0-2.5,6.037l.09.12-4.248,4.238-.12-.08a3.872,3.872,0,0,0-3.718-.43,3.865,3.865,0,0,0-2.329,2.929l-.02.15H43l-.03-.16a3.834,3.834,0,0,0-2.319-2.919,3.948,3.948,0,0,0-2.169-.23A8.007,8.007,0,0,0,40,53.991a10,10,0,1,0,9.1-17.5h-.01c.05-.07.1-.14.14-.21Z" transform="translate(-38.48 -32.56)" fill="#deac2f"/>
        </g>
        <g id="Grupo_1099925" data-name="Grupo 1099925" transform="translate(0)">
          <path id="Trazado_875738" data-name="Trazado 875738" d="M12.665,21.592,12,26.53c0,.13,0,.27.01.4H12a1.921,1.921,0,0,0-1.2-1.779c-.01,0-.01-.01-.02-.01a1.922,1.922,0,0,0-2.1.41l-.75.75L3.689,22.062l.75-.75a1.922,1.922,0,0,0,.41-2.1c0-.01-.01-.01-.01-.02a1.921,1.921,0,0,0-1.779-1.2H2V12H3.06a1.921,1.921,0,0,0,1.779-1.2c0-.01.01-.01.01-.02a1.922,1.922,0,0,0-.41-2.1l-.75-.75L7.927,3.689l.75.75a1.922,1.922,0,0,0,2.1.41c.01,0,.01-.01.02-.01A1.921,1.921,0,0,0,12,3.06V2h6V3.06a1.921,1.921,0,0,0,1.2,1.779c.01,0,.01.01.02.01a1.922,1.922,0,0,0,2.1-.41l.75-.75L26.3,7.927l-.75.75a18.3,18.3,0,0,0-4.918,2.189v-.01a7,7,0,1,0-7.967,10.735Z" transform="translate(-2 -2)" fill="#deac2f"/>
        </g>
        <g id="Grupo_1099926" data-name="Grupo 1099926" transform="translate(5.997 5.997)">
          <path id="Trazado_875739" data-name="Trazado 875739" d="M20.635,10.859v.01a18.248,18.248,0,0,0-3.129,2.479,3,3,0,1,0-3.359,4.528,17.922,17.922,0,0,0-1.479,3.718,7,7,0,1,1,7.967-10.735Z" transform="translate(-8 -8)" fill="#f5ca56"/>
        </g>
        <g id="Grupo_1099927" data-name="Grupo 1099927" transform="translate(35.985 34.475)">
          <path id="Trazado_875740" data-name="Trazado 875740" d="M40,46a6,6,0,1,0,6.207-6l-.01-.01a17.942,17.942,0,0,0,2.889-3.5h.01a10,10,0,1,1-9.1,17.5v-1a1,1,0,0,0-1-1H38V48h1a1,1,0,0,0,1-1Z" transform="translate(-38 -36.49)" fill="#f5ca56"/>
        </g>
        <g id="Grupo_1099928" data-name="Grupo 1099928" transform="translate(21.991 49.979)">
          <path id="Trazado_875741" data-name="Trazado 875741" d="M39.993,53v1a8.007,8.007,0,0,1-1.519,4.688,8.409,8.409,0,0,1-.82.97A8,8,0,0,1,24,54V53a1,1,0,0,1,1-1H38.994A1,1,0,0,1,39.993,53Z" transform="translate(-24 -52)" fill="#7d6eb2"/>
        </g>
        <g id="Grupo_1099929" data-name="Grupo 1099929" transform="translate(23.99 45.981)">
          <path id="Trazado_875742" data-name="Trazado 875742" d="M37.995,48v4H26V48H37.995Z" transform="translate(-26 -48)" fill="#e4f0f5"/>
        </g>
        <g id="Grupo_1099930" data-name="Grupo 1099930" transform="translate(9.996 5.997)">
          <path id="Trazado_875743" data-name="Trazado 875743" d="M39.988,45.984v1a1,1,0,0,1-1,1h-5v-10h-4v10h-5a1,1,0,0,1-1-1v-11H20v5.778A18.478,18.478,0,0,1,12.01,26.932c-.01-.13-.01-.27-.01-.4l.67-4.938a17.922,17.922,0,0,1,1.479-3.718,18.491,18.491,0,0,1,3.279-4.448l.08-.08A18.708,18.708,0,0,1,25.554,8.68,18.587,18.587,0,0,1,30.532,8h2.919A18.525,18.525,0,0,1,50.874,32.839a18.082,18.082,0,0,1-1.659,3.429c-.04.07-.09.14-.14.21a17.941,17.941,0,0,1-2.889,3.5,16.378,16.378,0,0,1-2.2,1.789V27.992h-4V45.984Z" transform="translate(-12 -8)" fill="#f5ca56"/>
        </g>
        <g id="Grupo_1099931" data-name="Grupo 1099931" transform="translate(35.985 13.994)">
          <path id="Trazado_875744" data-name="Trazado 875744" d="M42,16a4,4,0,1,1-4,4A4,4,0,0,1,42,16Z" transform="translate(-38 -16)" fill="#ff826e"/>
        </g>
        <g id="Grupo_1099932" data-name="Grupo 1099932" transform="translate(25.989 23.99)">
          <path id="Trazado_875745" data-name="Trazado 875745" d="M34.827,27.17A4,4,0,1,1,32,26,4.023,4.023,0,0,1,34.827,27.17Z" transform="translate(-28 -26)" fill="#ff826e"/>
        </g>
        <g id="Grupo_1099933" data-name="Grupo 1099933" transform="translate(17.992 25.989)">
          <circle id="Elipse_11809" data-name="Elipse 11809" cx="1.999" cy="1.999" r="1.999" fill="#ff826e"/>
        </g>
        <g id="Grupo_1099934" data-name="Grupo 1099934" transform="translate(37.984 25.989)">
          <path id="Trazado_875746" data-name="Trazado 875746" d="M44,41.774v.01a17.974,17.974,0,0,1-2.249,1.329L40,43.993V28h4Z" transform="translate(-40 -28)" fill="#e4f0f5"/>
        </g>
        <g id="Grupo_1099935" data-name="Grupo 1099935" transform="translate(27.988 35.985)">
          <path id="Trazado_875747" data-name="Trazado 875747" d="M30,38h4V48H30Z" transform="translate(-30 -38)" fill="#e4f0f5"/>
        </g>
        <g id="Grupo_1099936" data-name="Grupo 1099936" transform="translate(17.992 33.986)">
          <path id="Trazado_875748" data-name="Trazado 875748" d="M24,36v8l-1.749-.88A17.975,17.975,0,0,1,20,41.788V36Z" transform="translate(-20 -36)" fill="#e4f0f5"/>
        </g>
      </g>
      <g id="Grupo_1099938" data-name="Grupo 1099938" transform="translate(1 0.113)">
        <circle id="Elipse_11810" data-name="Elipse 11810" cx="1" cy="1" r="1" transform="translate(29.987 28.875)"/>
        <path id="Trazado_875749" data-name="Trazado 875749" d="M31.995,34.992a4.99,4.99,0,0,0,4.165-7.75l3.079-3.079a5.013,5.013,0,1,0-1.413-1.413l-3.079,3.079A4.989,4.989,0,0,0,27.1,28.994H24.814a3,3,0,1,0,0,2H27.1a5.007,5.007,0,0,0,4.9,4ZM41.99,17a3,3,0,1,1-3,3A3,3,0,0,1,41.99,17Zm-10,10a3,3,0,1,1-3,3A3,3,0,0,1,31.995,26.995Zm-10,4a1,1,0,1,1,1-1A1,1,0,0,1,22,30.993Z" transform="translate(-1.008 -0.119)" fill="#00223d"/>
        <circle id="Elipse_11811" data-name="Elipse 11811" cx="1" cy="1" r="1" transform="translate(39.983 18.879)"/>
        <path id="Trazado_875750" data-name="Trazado 875750" d="M2.195,47H5V63.988h8V47h2.8L9,36.113ZM11,45V61.989H7V45H5.8L9,39.885,12.191,45Z" transform="translate(-1.001 -0.128)" fill="#00223d"/>
        <path id="Trazado_875751" data-name="Trazado 875751" d="M61.989,41.971A2.855,2.855,0,0,1,60.136,37.5l.58-.812-5.438-5.439-.813.581a2.821,2.821,0,0,1-2.341.426,19.539,19.539,0,0,0,.8-4.264h6.053V11h2.8L54.977.113,48.175,11h2.8v6.981A19.536,19.536,0,0,0,33.445,7H30.529a19.583,19.583,0,0,0-3.421.319L22.063,2.271,20.6,3.728a.934.934,0,0,1-1.035.184.918.918,0,0,1-.578-.851V1H11V3.062a.955.955,0,0,1-1.611.667L7.926,2.271,2.271,7.925,3.729,9.384a.933.933,0,0,1,.185,1.035A.921.921,0,0,1,3.062,11H1v8H3.062a.932.932,0,0,1,.862.6.921.921,0,0,1-.2,1.009L2.271,22.063l5.654,5.654,1.458-1.457a.934.934,0,0,1,1.035-.184.918.918,0,0,1,.578.851h.014A19.417,19.417,0,0,0,21.793,44l1.2.6V46.98a2,2,0,0,0,2,2v2a2,2,0,0,0-2,2v1a8.989,8.989,0,0,0,16,5.637,2.866,2.866,0,0,1,1.266.209,2.824,2.824,0,0,1,1.716,2.161l.166.99h7.692l.161-.984a2.856,2.856,0,0,1,4.476-1.853l.813.58,5.439-5.439-.579-.81a2.855,2.855,0,0,1,1.846-4.477l.99-.164V42.135ZM38.984,50.978v-2a1.968,1.968,0,0,0,.631-.112A6.995,6.995,0,1,0,48.2,39.34a19.459,19.459,0,0,0,1.289-1.646,9,9,0,1,1-8.5,15.76v-.477A2,2,0,0,0,38.984,50.978Zm4-9.745a17.794,17.794,0,0,1-1.7.979l-.3.152V28.988h2Zm-2,3.366,1.2-.6a19.715,19.715,0,0,0,4.353-2.965,4.987,4.987,0,1,1-5.551,4.945ZM54.977,3.885,58.171,9H56.976V25.989h-4V9H51.784ZM7.971,24.844l-.045.045L5.1,22.061l.044-.044a2.953,2.953,0,0,0-2.081-5.024H3v-4h.063A2.954,2.954,0,0,0,5.143,7.971L5.1,7.926,7.926,5.1l.045.044a2.953,2.953,0,0,0,5.024-2.08V3h4v.063a2.955,2.955,0,0,0,5.025,2.082l.045-.045,2.755,2.755a19.388,19.388,0,0,0-3.949,1.722A7.987,7.987,0,1,0,11.5,22.167a19.139,19.139,0,0,0-.358,2.046,2.916,2.916,0,0,0-3.176.631Zm5.8-8.291a1.985,1.985,0,0,1,1.226-3.557,1.978,1.978,0,0,1,1.142.377A19.588,19.588,0,0,0,13.768,16.552Zm3.808-4.6a3.99,3.99,0,1,0-4.755,6.387,19.529,19.529,0,0,0-.76,1.882,5.99,5.99,0,1,1,7.087-9.532,19.7,19.7,0,0,0-1.572,1.262Zm5.111,30.263a17.884,17.884,0,0,1-1.7-.979V36.984h2v5.38Zm-3.694-7.227v4.747A17.533,17.533,0,0,1,30.529,9h2.917A17.533,17.533,0,0,1,44.981,39.732V26.989h-6V46.98h-4v-10h-6v10h-4V34.985ZM32.986,46.98h-2v-8h2Zm-6,2h10v2h-10Zm5,11.995a7.005,7.005,0,0,1-7-7v-1H38.984v1A7.005,7.005,0,0,1,31.987,60.974ZM60.975,48.183a4.857,4.857,0,0,0-2.833,6.842L55.025,58.14a4.857,4.857,0,0,0-6.841,2.833H43.779a4.752,4.752,0,0,0-3.622-3.255,8.926,8.926,0,0,0,.659-2.033,10.886,10.886,0,0,0,5.166,1.29,10.992,10.992,0,0,0,4.567-20.992,19.236,19.236,0,0,0,.888-1.826,4.817,4.817,0,0,0,3.589-.337l3.116,3.116a4.857,4.857,0,0,0,2.834,6.842Z" transform="translate(-1 -0.113)" fill="#00223d"/>
      </g>
    </g>
  </g>
</svg>
