<svg xmlns="http://www.w3.org/2000/svg" width="129.737" height="118.16" viewBox="0 0 129.737 118.16">
  <g id="Grupo_1100024" data-name="Grupo 1100024" transform="translate(-251.264 -4861.932)">
    <path id="_12068" data-name="12068" d="M98.737,72.292c-13.285-1.834-27.318-1.386-39.407,4.421-16.765,8.052-27.775,26.309-28.2,44.9S40.4,158.479,55.36,169.523s34.7,14.959,53,11.643c18.453-3.344,35.773-14.186,45.4-30.28,6.172-10.321,9.057-23.065,5.647-34.6-2.059-6.961-6.267-13.128-11.217-18.437A82.875,82.875,0,0,0,98.737,72.292Z" transform="translate(220.145 4797.783)" fill="#26aab7"/>
    <g id="investigacion-cualitativa" transform="translate(253.017 4857.932)">
      <path id="Trazado_875849" data-name="Trazado 875849" d="M45.234,165.465h29.92c-5.709-28.426,13.816-39.019,9.907-58.917A31.515,31.515,0,0,0,69.913,85.164,36.9,36.9,0,0,0,51.9,80.121a39.5,39.5,0,0,0-18.414,4.12c-7.943,3.962-14.2,10.57-15.867,18.951-.977,4.927-.318,9.884.1,14.3-.041,1.605-2.2,5.054-5.395,9.947-2.294,3.554-2.427,5.968,2.376,6.459,1.627.166,3.355.358,4.184,1.295.52.587-.066,1.815-.313,3.079-.652,1.311-.6,2.59,1.217,3.044.637.159,2.112.539,3.381.834-.1.059-.8.321-1.709.758-.844.407-1.952.809-2.378,1.658A2.518,2.518,0,0,0,20.6,148.04c.677.459.548,2.506.878,4.576,1.222,7.673,6.418,4.659,12.345,3.831,4.773-.666,7.683-.033,9.743,4.575.629,1.407,1.144,2.98,1.669,4.442Z" transform="translate(-5.422 -60.684)" fill="#d9c5bf" fill-rule="evenodd"/>
      <path id="Trazado_875850" data-name="Trazado 875850" d="M53.205,174.193H75.9c-5.709-28.426,13.816-39.019,9.907-58.917-1.9-9.67-7.011-15.9-14.526-20.345-16.362-8.966-41.933-1.971-45.693,16.99-.977,4.927-.318,9.884.1,14.3-.041,1.605-2.2,5.054-5.395,9.947-2.294,3.554-2.427,5.968,2.376,6.459,1.627.166,3.355.358,4.184,1.295.52.587-.066,1.815-.314,3.079-.652,1.311-.6,2.59,1.217,3.044.637.159,2.112.539,3.381.834-.1.059-.8.321-1.709.758-.844.407-1.952.809-2.378,1.658a2.518,2.518,0,0,0,1.516,3.477c.677.459.548,2.506.878,4.576.571,3.584,2.008,4.836,3.983,5.069,1.971-.18,4.3-.9,6.747-1.237a17.569,17.569,0,0,1,3.549-.2c3.653-.206,6.044.823,7.81,4.773.629,1.407,1.144,2.98,1.669,4.442Z" transform="translate(-11.777 -69.412)" fill="#f0e3df" fill-rule="evenodd"/>
      <path id="Trazado_875851" data-name="Trazado 875851" d="M154.812,152.994a26.02,26.02,0,0,0,39.294,22.374,4.412,4.412,0,0,1,5.432.679l4.646,4.646,4.342-4.342-4.646-4.646a4.412,4.412,0,0,1-.679-5.432,26.016,26.016,0,1,0-48.389-13.28Z" transform="translate(-120.254 -98.05)" fill="#4eb1fc" fill-rule="evenodd"/>
      <path id="Trazado_875852" data-name="Trazado 875852" d="M210.018,178.9l2.545-2.545-4.646-4.646a4.412,4.412,0,0,1-.679-5.432,26.019,26.019,0,1,0-46-24.191,25.981,25.981,0,0,0-1.367,8.345c0,20.31,20.793,32.852,38.563,21.643a4.412,4.412,0,0,1,5.432.679l6.147,6.147Z" transform="translate(-124.292 -98.05)" fill="#85caff" fill-rule="evenodd"/>
      <path id="Trazado_875853" data-name="Trazado 875853" d="M391.305,371.341,376.155,356.19a2.69,2.69,0,0,1,0-3.8l4.073-4.073a2.69,2.69,0,0,1,3.8,0l15.151,15.151a5.565,5.565,0,0,1-7.87,7.87Z" transform="translate(-296.103 -273.897)" fill="#a34f41" fill-rule="evenodd"/>
      <path id="Trazado_875854" data-name="Trazado 875854" d="M388.928,349.8l1.484-1.484h0a2.69,2.69,0,0,1,3.8,0l15.151,15.151a3.954,3.954,0,1,1-5.281,5.281L388.928,353.6A2.69,2.69,0,0,1,388.928,349.8Z" transform="translate(-306.287 -273.898)" fill="#c86f5c" fill-rule="evenodd"/>
      <ellipse id="Elipse_11812" data-name="Elipse 11812" cx="19.512" cy="19.092" rx="19.512" ry="19.092" transform="translate(41.06 34.243)" fill="#4eb1fc"/>
      <circle id="Elipse_11813" data-name="Elipse 11813" cx="19.46" cy="19.46" r="19.46" transform="translate(33.043 54.944) rotate(-45)" fill="#f7f1ef"/>
      <g id="Grupo_1099985" data-name="Grupo 1099985" transform="translate(3.983 4)">
        <path id="Trazado_875855" data-name="Trazado 875855" d="M187.21,184.836a19.459,19.459,0,1,0,19.447-18.776,19.46,19.46,0,0,0-19.447,18.776Z" transform="translate(-150.068 -133.209)" fill="#fff" fill-rule="evenodd"/>
        <path id="Trazado_875856" data-name="Trazado 875856" d="M206.177,49.562h17.332V48.334c0-8.394,8.666-10.753,8.666-22.034,0-10.351-8.666-15.526-17.332-15.526S197.511,15.948,197.511,26.3c0,11.281,8.666,13.64,8.666,22.034v1.228Z" transform="translate(-158.281 -9.4)" fill="#fcdb35" fill-rule="evenodd"/>
        <path id="Trazado_875857" data-name="Trazado 875857" d="M206.178,49.852h13.784V48.623c0-8.394,8.666-10.753,8.666-22.034,0-9.644-7.522-14.794-15.558-15.453-8.036.659-15.558,5.81-15.558,15.453,0,11.281,8.666,13.64,8.666,22.034Z" transform="translate(-158.281 -9.689)" fill="#ffeb87" fill-rule="evenodd"/>
        <path id="Trazado_875858" data-name="Trazado 875858" d="M240.262,202.125h17.332v2.78a1.928,1.928,0,0,1-1.925,1.925H242.187a1.928,1.928,0,0,1-1.925-1.925Z" transform="translate(-192.366 -161.963)" fill="#909cd1" fill-rule="evenodd"/>
        <path id="Trazado_875859" data-name="Trazado 875859" d="M240.262,202.125h13.784v2.78a1.928,1.928,0,0,1-1.925,1.925h-9.935a1.928,1.928,0,0,1-1.924-1.925Z" transform="translate(-192.366 -161.963)" fill="#a3afe0" fill-rule="evenodd"/>
        <path id="Trazado_875860" data-name="Trazado 875860" d="M250.259,225.334h13.279v2.7a1.928,1.928,0,0,1-1.924,1.925h-9.43a1.928,1.928,0,0,1-1.925-1.925Z" transform="translate(-200.336 -180.467)" fill="#5d689e" fill-rule="evenodd"/>
        <path id="Trazado_875861" data-name="Trazado 875861" d="M250.259,225.334h9.731v2.7a1.928,1.928,0,0,1-1.925,1.925h-5.881a1.928,1.928,0,0,1-1.925-1.925Z" transform="translate(-200.336 -180.467)" fill="#7986bf" fill-rule="evenodd"/>
        <path id="Trazado_875862" data-name="Trazado 875862" d="M265.924,248.152h6.928v2.292a1.928,1.928,0,0,1-1.925,1.925h-3.079a1.928,1.928,0,0,1-1.924-1.925Z" transform="translate(-212.826 -198.66)" fill="#3d4a75" fill-rule="evenodd"/>
        <path id="Trazado_875863" data-name="Trazado 875863" d="M265.924,248.152h3.38v2.292a1.7,1.7,0,1,1-3.38,0Z" transform="translate(-212.826 -198.66)" fill="#5d689e" fill-rule="evenodd"/>
        <path id="Trazado_875864" data-name="Trazado 875864" d="M89.108,26.012a1.419,1.419,0,0,1,1.419-1.419h14.207a1.419,1.419,0,0,1,0,2.838H90.527A1.419,1.419,0,0,1,89.108,26.012ZM92.857,20.9a1.419,1.419,0,0,1,1.419-1.419h10.458a1.419,1.419,0,0,1,0,2.838H94.276A1.419,1.419,0,0,1,92.857,20.9ZM54.4,20.382A6.209,6.209,0,0,1,60.541,15,6.334,6.334,0,0,1,65.216,17a5.989,5.989,0,0,1,1.061,6.177A9.906,9.906,0,0,1,64,26.257c-.274.285-.533.554-.75.8a4.5,4.5,0,0,0-1.3,3.19,1.419,1.419,0,1,1-2.838,0,7.338,7.338,0,0,1,2-5.051c.265-.3.561-.613.848-.911a8.068,8.068,0,0,0,1.672-2.137,3.178,3.178,0,0,0-.5-3.237,3.54,3.54,0,0,0-2.584-1.076,3.363,3.363,0,0,0-3.324,2.913,1.419,1.419,0,1,1-2.813-.372ZM61.95,35.161v.45a1.419,1.419,0,0,1-2.838,0v-.45a1.419,1.419,0,0,1,2.838,0ZM102.1,96.489a4.184,4.184,0,0,1-5.91,0L81.1,81.4a1.287,1.287,0,0,1,0-1.813l4.1-4.1a1.283,1.283,0,0,1,1.813,0L102.1,90.579A4.184,4.184,0,0,1,102.1,96.489ZM73.1,76.1a5.792,5.792,0,0,1,6.859.615l2.361-2.361a5.792,5.792,0,0,1-.616-6.86,24.711,24.711,0,0,0,.908-23.483L80.074,47.4a20.926,20.926,0,1,1-40.449,7.539,20.793,20.793,0,0,1,9.289-17.389c-.584-1.013-1.287-2-2.031-3.034l-.023-.032A24.611,24.611,0,0,0,73.1,76.1Zm-5.114,27.228a48.093,48.093,0,0,1,1.223-22.352,27.448,27.448,0,0,1-23.97-48.83,19.417,19.417,0,0,1-3.43-11.034,38.281,38.281,0,0,0-13.1,3.781C20.582,28.95,15.082,35.487,13.627,42.828c-.834,4.2-.418,8.41-.016,12.476q.07.7.136,1.392a1.429,1.429,0,0,1,.006.169c-.047,1.859-1.695,4.669-5.619,10.676-1.52,2.354-1.339,3.16-1.248,3.351.077.16.491.7,2.577.913,1.732.177,3.887.4,5.1,1.764.885,1,.528,2.318.242,3.377-.082.3-.167.618-.225.912a1.424,1.424,0,0,1-.122.359,1.444,1.444,0,0,0-.227.811,1.186,1.186,0,0,0,.516.221l.546.137c.732.185,1.838.464,2.809.69a1.419,1.419,0,0,1,.42,2.592A3.625,3.625,0,0,1,18,82.91c-.307.128-.77.322-1.314.584-.128.061-.26.123-.4.185-.5.23-1.185.545-1.327.829a1.1,1.1,0,0,0,.683,1.486,1.413,1.413,0,0,1,.36.176c1.015.688,1.129,2,1.274,3.662.053.608.108,1.236.207,1.86.285,1.789.812,2.958,1.568,3.475,1.173.8,3.292.346,5.746-.184,1.095-.236,2.227-.481,3.419-.647,4.978-.7,8.792-.043,11.223,5.4.514,1.151.947,2.381,1.365,3.571l.009.025H67.991ZM60.544,6.838c-7.655,0-15.895,4.41-15.895,14.091,0,5.594,2.308,8.815,4.541,11.929,1.994,2.781,4.054,5.656,4.115,9.89H67.783c.061-4.234,2.121-7.109,4.115-9.89,2.232-3.114,4.541-6.335,4.541-11.929,0-9.682-8.239-14.091-15.895-14.091Zm7.238,40.107a.51.51,0,0,1-.5.5H53.809a.51.51,0,0,1-.5-.5V45.587H67.782Zm-2.528,5.124h-9.42a.51.51,0,0,1-.5-.5V50.287H65.757v1.279A.51.51,0,0,1,65.254,52.069ZM58.5,54.907h4.082v.87a.51.51,0,0,1-.5.5H59.006a.51.51,0,0,1-.5-.5Zm13.058,1.455a1.419,1.419,0,0,0,1.987-.282l4.447-5.916a18.085,18.085,0,1,1-35.531,4.771A17.969,17.969,0,0,1,50.076,40.19a9.68,9.68,0,0,1,.392,2.75v4a3.346,3.346,0,0,0,2.024,3.07v1.551A3.343,3.343,0,0,0,55.665,54.9v.879a3.345,3.345,0,0,0,3.341,3.341h3.076a3.345,3.345,0,0,0,3.341-3.341V54.9A3.343,3.343,0,0,0,68.6,51.566V50.015a3.346,3.346,0,0,0,2.024-3.07v-4a9.687,9.687,0,0,1,.392-2.749,17.981,17.981,0,0,1,5.8,6.818l-5.536,7.366a1.419,1.419,0,0,0,.282,1.987Zm9.517-15.024L78.7,44.5a20.873,20.873,0,0,0-6.526-6.956c.584-1.014,1.288-2,2.032-3.035l.022-.031a24.633,24.633,0,0,1,6.851,6.857ZM104.1,88.573,89.019,73.487a4.127,4.127,0,0,0-4.469-.9,3,3,0,0,1-.4-3.639,27.464,27.464,0,0,0,.342-27.426l6.745-8.975h13.5a1.419,1.419,0,0,0,0-2.838H90.527a1.419,1.419,0,0,0-1.134.567l-6.53,8.689a27.655,27.655,0,0,0-7.02-6.814,19.421,19.421,0,0,0,3.434-11.22A15.7,15.7,0,0,0,73.331,8.187,20.521,20.521,0,0,0,60.544,4,20.52,20.52,0,0,0,47.757,8.187,15.386,15.386,0,0,0,42,18.246a40.541,40.541,0,0,0-14.553,4.108c-8.925,4.451-14.978,11.712-16.606,19.921-.916,4.617-.459,9.234-.057,13.308q.064.645.125,1.277C10.783,58.3,7.765,62.915,5.753,66,4.587,67.8,3.371,70.13,4.327,72.12c.684,1.424,2.269,2.244,4.847,2.508a8.374,8.374,0,0,1,3.1.683c-.035.237-.139.619-.213.893s-.162.6-.233.925a3.579,3.579,0,0,0-.179,3.086,3.2,3.2,0,0,0,2,1.669,3.658,3.658,0,0,0-1.225,1.351,3.934,3.934,0,0,0,1.835,5.256,14.7,14.7,0,0,1,.191,1.588c.055.626.117,1.336.232,2.059.418,2.626,1.324,4.382,2.768,5.371,2.181,1.493,4.982.888,7.947.248,1.045-.225,2.124-.459,3.213-.61,4.794-.669,6.643.17,8.24,3.744.467,1.044.88,2.218,1.279,3.354.116.331.232.659.348.983a1.419,1.419,0,0,0,1.336.94H69.7a1.419,1.419,0,0,0,1.391-1.7,46.025,46.025,0,0,1,1.528-24.884c.658-.322,1.305-.668,1.937-1.044a3,3,0,0,1,3.639.4,4.125,4.125,0,0,0,.9,4.469L94.181,98.5a7.017,7.017,0,0,0,9.924-9.924Z" transform="translate(-3.983 -4)" fill-rule="evenodd"/>
      </g>
    </g>
  </g>
</svg>
