<svg xmlns="http://www.w3.org/2000/svg" width="68.343" height="106.529" viewBox="0 0 68.343 106.529">
  <path id="Trazado_16208" data-name="Trazado 16208" d="M1212.291,254.025v-5.732a22.694,22.694,0,0,1,2.465-11.033q2.466-4.5,8.757-8.766a33.493,33.493,0,0,0,7.184-6.133,9.745,9.745,0,0,0,2.189-6.267,5.13,5.13,0,0,0-2.344-4.432,10.451,10.451,0,0,0-6.1-1.634q-9.314,0-21.769,7.132l-8.572-18.132a60.232,60.232,0,0,1,32.067-9.466q13.753,0,21.585,6.534t7.831,17.8a27,27,0,0,1-3.483,13.966q-3.483,5.9-11.132,11.166-6.474,4.532-8.11,6.633a7.856,7.856,0,0,0-1.635,4.966v3.4Zm-2.653,23.331q0-6.133,3.3-9.467t9.711-3.332q6.167,0,9.467,3.366t3.3,9.432q0,6.066-3.423,9.4t-9.343,3.335q-6.1,0-9.557-3.3T1209.638,277.356Z" transform="translate(-1190.238 -186.561)" fill="none" stroke="#61529b" stroke-width="6"/>
</svg>
