<svg xmlns="http://www.w3.org/2000/svg" xmlns:xlink="http://www.w3.org/1999/xlink" width="413.98" height="433.898" viewBox="0 0 413.98 433.898">
  <defs>
    <clipPath id="clip-path">
      <path id="Background" d="M20,0H413.98a0,0,0,0,1,0,0V433.9a0,0,0,0,1,0,0H20a20,20,0,0,1-20-20V20A20,20,0,0,1,20,0Z" transform="translate(0 0)" fill="#aee6e6"/>
    </clipPath>
    <clipPath id="clip-path-2">
      <path id="Trazado_873727" data-name="Trazado 873727" d="M0,0,49.663-.127l-.246,76.273-49.663.127Z" transform="translate(75.682 61.957) rotate(152.705)" fill="none" stroke="#7d6eb2" stroke-width="1"/>
    </clipPath>
  </defs>
  <g id="Grupo_1100011" data-name="Grupo 1100011" transform="translate(-179.02 -2520)">
    <path id="Background-2" data-name="Background" d="M20,0H413.98a0,0,0,0,1,0,0V433.9a0,0,0,0,1,0,0H20a20,20,0,0,1-20-20V20A20,20,0,0,1,20,0Z" transform="translate(179.02 2520)" fill="#aee6e6"/>
    <g id="Enmascarar_grupo_1098680" data-name="Enmascarar grupo 1098680" transform="translate(179.02 2520)" clip-path="url(#clip-path)">
      <g id="Grupo_1099044" data-name="Grupo 1099044" transform="translate(-15.371 -20.481)">
        <g id="Grupo_1099009" data-name="Grupo 1099009" transform="matrix(0.469, -0.883, 0.883, 0.469, 32.13, 447.461)">
          <g id="Enmascarar_grupo_1098676" data-name="Enmascarar grupo 1098676" transform="translate(0 0)" clip-path="url(#clip-path-2)">
            <g id="Grupo_1099009-2" data-name="Grupo 1099009" transform="translate(-32.529 10.462)">
              <path id="Trazado_873720" data-name="Trazado 873720" d="M44.146-2.856c25.209-1.023,44.816,14.63,43.793,34.962s-22.288,37.643-47.5,38.666S-4.374,56.141-3.351,35.809,18.937-1.833,44.146-2.856Z" transform="translate(-3.655 19.664) rotate(-16.624)" fill="none" stroke="#7d6eb2" stroke-width="2"/>
              <path id="Trazado_873721" data-name="Trazado 873721" d="M38.273,7.7c19.307,2.149,36.7,21.1,38.85,42.325S65.363,86.718,46.056,84.569s-36.7-21.1-38.85-42.325S18.966,5.553,38.273,7.7Z" transform="translate(-3.029 78.111) rotate(-85.029)" fill="none" stroke="#7d6eb2" stroke-width="2"/>
              <path id="Trazado_873722" data-name="Trazado 873722" d="M34.127,7.007C51.257,8.971,66.736,25.475,68.7,43.87S58.368,75.586,41.238,73.623,8.629,55.155,6.666,36.76,17,5.044,34.127,7.007Z" transform="matrix(0.14, -0.99, 0.99, 0.14, 1.38, 71.751)" fill="none" stroke="#7d6eb2" stroke-width="2"/>
              <path id="Trazado_873723" data-name="Trazado 873723" d="M27.619-4.046C43.869-5.515,55.851,4.86,54.382,19.128S38.549,46.154,22.3,47.623-5.933,38.717-4.464,24.449,11.369-2.577,27.619-4.046Z" transform="translate(21.627 18.313)" fill="none" stroke="#7d6eb2" stroke-width="2"/>
              <path id="Trazado_873724" data-name="Trazado 873724" d="M23.707-2.8c13.832-1.017,24.221,7.626,23.2,19.3S33.857,38.473,20.024,39.49-4.2,31.864-3.18,20.186,9.875-1.783,23.707-2.8Z" transform="translate(22.833 24.277) rotate(-6.323)" fill="none" stroke="#7d6eb2" stroke-width="2"/>
              <path id="Trazado_873140" data-name="Trazado 873140" d="M21.564,3.065c10.98.942,20.644,9.425,21.586,18.948s-7.2,16.48-18.176,15.538S4.33,28.125,3.389,18.6,10.584,2.123,21.564,3.065Z" transform="translate(16.496 47.064) rotate(-54.14)" fill="none" stroke="#7d6eb2" stroke-width="2"/>
              <path id="Trazado_873725" data-name="Trazado 873725" d="M16.169,2.721c8.132.814,15.384,7.442,16.2,14.805S27.247,30.2,19.115,29.385,3.731,21.943,2.917,14.58,8.037,1.907,16.169,2.721Z" transform="matrix(0.495, -0.869, 0.869, 0.495, 23.908, 47.494)" fill="none" stroke="#7d6eb2" stroke-width="2"/>
              <path id="Trazado_873726" data-name="Trazado 873726" d="M10.329-.432c5.833-.153,10.438,3.5,10.285,8.15s-5.006,8.552-10.839,8.7S-.664,12.927-.51,8.273,4.5-.279,10.329-.432Z" transform="translate(34.356 36.18) rotate(-20.72)" fill="none" stroke="#7d6eb2" stroke-width="2"/>
              <path id="Trazado_873141" data-name="Trazado 873141" d="M-.432,6.466c-1.1-2.156.2-5.046,2.915-6.456S8.293-.794,9.4,1.362s-.2,5.046-2.916,6.455S.671,8.621-.432,6.466Z" transform="translate(42.104 36.188)" fill="none" stroke="#7d6eb2" stroke-miterlimit="10" stroke-width="2"/>
            </g>
          </g>
        </g>
        <g id="Grupo_1099010" data-name="Grupo 1099010" transform="translate(366.582 39.859)">
          <g id="Grupo_1099012" data-name="Grupo 1099012" transform="translate(0 0)">
            <path id="Trazado_873142" data-name="Trazado 873142" d="M640.186,391.326c3.11,0,3.11,2.358,6.221,2.358s3.11-2.358,6.22-2.358,3.109,2.358,6.219,2.358,3.11-2.358,6.22-2.358,3.11,2.358,6.221,2.358,3.11-2.358,6.22-2.358,3.11,2.358,6.221,2.358,3.11-2.358,6.221-2.358,3.111,2.358,6.222,2.358,3.111-2.358,6.221-2.358,3.111,2.358,6.222,2.358,3.111-2.358,6.222-2.358,3.11,2.358,6.22,2.358,3.111-2.358,6.222-2.358,3.112,2.358,6.224,2.358,3.111-2.358,6.222-2.358,3.113,2.358,6.226,2.358,3.113-2.358,6.226-2.358" transform="translate(-640.186 -391.326)" fill="none" stroke="#26aab7" stroke-miterlimit="10" stroke-width="2"/>
          </g>
          <g id="Grupo_1099013" data-name="Grupo 1099013" transform="translate(0 10.155)">
            <path id="Trazado_873143" data-name="Trazado 873143" d="M640.186,408.556c3.11,0,3.11,2.358,6.221,2.358s3.11-2.358,6.22-2.358,3.109,2.358,6.219,2.358,3.11-2.358,6.22-2.358,3.11,2.358,6.221,2.358,3.11-2.358,6.22-2.358,3.11,2.358,6.221,2.358,3.11-2.358,6.221-2.358,3.111,2.358,6.222,2.358,3.111-2.358,6.221-2.358,3.111,2.358,6.222,2.358,3.111-2.358,6.222-2.358,3.11,2.358,6.22,2.358,3.111-2.358,6.222-2.358,3.112,2.358,6.224,2.358,3.111-2.358,6.222-2.358,3.113,2.358,6.226,2.358,3.113-2.358,6.226-2.358" transform="translate(-640.186 -408.556)" fill="none" stroke="#26aab7" stroke-miterlimit="10" stroke-width="2"/>
          </g>
          <g id="Grupo_1099014" data-name="Grupo 1099014" transform="translate(0 20.311)">
            <path id="Trazado_873144" data-name="Trazado 873144" d="M640.186,425.786c3.11,0,3.11,2.358,6.221,2.358s3.11-2.358,6.22-2.358,3.109,2.358,6.219,2.358,3.11-2.358,6.22-2.358,3.11,2.358,6.221,2.358,3.11-2.358,6.22-2.358,3.11,2.358,6.221,2.358,3.11-2.358,6.221-2.358,3.111,2.358,6.222,2.358,3.111-2.358,6.221-2.358,3.111,2.358,6.222,2.358,3.111-2.358,6.222-2.358,3.11,2.358,6.22,2.358,3.111-2.358,6.222-2.358,3.112,2.358,6.224,2.358,3.111-2.358,6.222-2.358,3.113,2.358,6.226,2.358,3.113-2.358,6.226-2.358" transform="translate(-640.186 -425.786)" fill="none" stroke="#26aab7" stroke-miterlimit="10" stroke-width="2"/>
          </g>
          <g id="Grupo_1099015" data-name="Grupo 1099015" transform="translate(0 30.466)">
            <path id="Trazado_873145" data-name="Trazado 873145" d="M640.186,443.016c3.11,0,3.11,2.358,6.221,2.358s3.11-2.358,6.22-2.358,3.109,2.358,6.219,2.358,3.11-2.358,6.22-2.358,3.11,2.358,6.221,2.358,3.11-2.358,6.22-2.358,3.11,2.358,6.221,2.358,3.11-2.358,6.221-2.358,3.111,2.358,6.222,2.358,3.111-2.358,6.221-2.358,3.111,2.358,6.222,2.358,3.111-2.358,6.222-2.358,3.11,2.358,6.22,2.358,3.111-2.358,6.222-2.358,3.112,2.358,6.224,2.358,3.111-2.358,6.222-2.358,3.113,2.358,6.226,2.358,3.113-2.358,6.226-2.358" transform="translate(-640.186 -443.016)" fill="none" stroke="#26aab7" stroke-miterlimit="10" stroke-width="2"/>
          </g>
        </g>
        <path id="Shape_2" data-name="Shape 2" d="M104.292,0V72.683H0a15.325,15.325,0,0,1,2.176-1.122c3.889-1.621,8.18-2.022,11.935-4.022A23.329,23.329,0,0,0,23.209,58c2.319-4.125,4.234-8.443,7.808-11.576,3.927-3.442,9-5.124,13.936-6.232a22.481,22.481,0,0,0,12.633-7.922c1.852-2.3,3.281-4.946,5.1-7.277a14.309,14.309,0,0,1,8.543-5.47c3-.633,6.448-.727,8.964-2.782,1.775-1.45,2.512-3.668,2.955-5.9.76-3.82.718-8.873,4.324-10.839Z" transform="translate(104.292 72.683) rotate(180)" fill="#7d6eb2"/>
      </g>
    </g>
  </g>
</svg>
