<svg xmlns="http://www.w3.org/2000/svg" xmlns:xlink="http://www.w3.org/1999/xlink" width="619.985" height="465.767" viewBox="0 0 619.985 465.767">
  <defs>
    <clipPath id="clip-path">
      <path id="Background" d="M20,0H619.985a0,0,0,0,1,0,0V465.767a0,0,0,0,1,0,0H20a20,20,0,0,1-20-20V20A20,20,0,0,1,20,0Z" transform="translate(0 0)" fill="#aee6e6"/>
    </clipPath>
    <clipPath id="clip-path-2">
      <path id="Trazado_875572" data-name="Trazado 875572" d="M0,0,53.314.069l.133,114.222L.133,114.222Z" transform="translate(100.828 103.243) rotate(152.705)" fill="none" stroke="#7d6eb2" stroke-width="1"/>
    </clipPath>
  </defs>
  <g id="Grupo_1100011" data-name="Grupo 1100011" transform="translate(-180.02 -4807.282)">
    <path id="Background-2" data-name="Background" d="M20,0H619.985a0,0,0,0,1,0,0V465.767a0,0,0,0,1,0,0H20a20,20,0,0,1-20-20V20A20,20,0,0,1,20,0Z" transform="translate(180.02 4807.282)" fill="#aee6e6"/>
    <g id="Enmascarar_grupo_1098743" data-name="Enmascarar grupo 1098743" transform="translate(180.02 4807.282)" clip-path="url(#clip-path)">
      <g id="Grupo_1099878" data-name="Grupo 1099878" transform="translate(-23.019 -21.986)">
        <g id="Grupo_1099872" data-name="Grupo 1099872" transform="matrix(0.469, -0.883, 0.883, 0.469, 44.762, 480.373)">
          <g id="Enmascarar_grupo_1098742" data-name="Enmascarar grupo 1098742" transform="translate(0 0)" clip-path="url(#clip-path-2)">
            <g id="Grupo_1099871" data-name="Grupo 1099871" transform="translate(-38.323 7.639)">
              <path id="Trazado_875563" data-name="Trazado 875563" d="M49.474.866c27.393.553,50.047,25.345,50.6,55.375s-21.205,53.925-48.6,53.372S1.43,84.268.877,54.239,22.082.314,49.474.866Z" transform="translate(1.065 30.282) rotate(-16.624)" fill="none" stroke="#7d6eb2" stroke-width="2"/>
              <path id="Trazado_875564" data-name="Trazado 875564" d="M47.472-1.85C73.545-3.012,93.74,16.341,92.578,41.376S69.337,87.649,43.264,88.811-3,70.619-1.841,45.584,21.4-.688,47.472-1.85Z" transform="translate(17.987 110.203) rotate(-85.029)" fill="none" stroke="#7d6eb2" stroke-width="2"/>
              <path id="Trazado_875565" data-name="Trazado 875565" d="M41.412-1.69C64.151-2.751,81.724,14.267,80.663,36.322s-20.356,40.795-43.1,41.856S-2.745,62.222-1.683,40.167,18.673-.628,41.412-1.69Z" transform="matrix(0.14, -0.99, 0.99, 0.14, 21.825, 102.502)" fill="none" stroke="#7d6eb2" stroke-width="2"/>
              <path id="Trazado_875566" data-name="Trazado 875566" d="M33.682,1.244c18.7.794,34.511,17.47,35.305,37.246S55.263,73.653,36.559,72.859,2.048,55.389,1.253,35.614,14.978.45,33.682,1.244Z" transform="translate(30.114 31.721)" fill="none" stroke="#7d6eb2" stroke-width="2"/>
              <path id="Trazado_875567" data-name="Trazado 875567" d="M27.94.861c15.5.55,28.512,14.506,29.062,31.171s-11.57,29.73-27.071,29.18S1.419,46.706.869,30.041,12.439.311,27.94.861Z" transform="translate(33.057 41.111) rotate(-6.323)" fill="none" stroke="#7d6eb2" stroke-width="2"/>
              <path id="Trazado_875568" data-name="Trazado 875568" d="M22.8-.805c12.532-.509,22.279,9.876,21.77,23.2S33.491,46.921,20.958,47.43-1.32,37.554-.811,24.235,10.27-.3,22.8-.805Z" transform="translate(33.523 72.848) rotate(-54.14)" fill="none" stroke="#7d6eb2" stroke-width="2"/>
              <path id="Trazado_875569" data-name="Trazado 875569" d="M17.408-.7c9.561-.44,16.956,7.291,16.516,17.268S25.376,34.993,15.815,35.433-1.14,28.141-.7,18.164,7.847-.257,17.408-.7Z" transform="matrix(0.495, -0.869, 0.869, 0.495, 41.924, 74.619)" fill="none" stroke="#7d6eb2" stroke-width="2"/>
              <path id="Trazado_875570" data-name="Trazado 875570" d="M11.377.13C17.67.213,22.839,5.9,22.922,12.829s-4.952,12.482-11.245,12.4S.214,19.46.131,12.529,5.083.047,11.377.13Z" transform="translate(49.968 60.991) rotate(-20.72)" fill="none" stroke="#7d6eb2" stroke-width="2"/>
              <path id="Trazado_875571" data-name="Trazado 875571" d="M1.022,9.374C-.645,6.153.37,2.324,3.289.822s6.638-.108,8.3,3.113.652,7.05-2.268,8.551S2.689,12.6,1.022,9.374Z" transform="translate(58.927 62.117)" fill="none" stroke="#7d6eb2" stroke-miterlimit="10" stroke-width="2"/>
            </g>
          </g>
        </g>
        <g id="Grupo_1099877" data-name="Grupo 1099877" transform="translate(549 42.787)">
          <g id="Grupo_1099873" data-name="Grupo 1099873" transform="translate(0 0)">
            <path id="Trazado_875573" data-name="Trazado 875573" d="M640.186,391.326c4.658,0,4.658,2.531,9.316,2.531s4.658-2.531,9.316-2.531,4.657,2.531,9.313,2.531,4.657-2.531,9.316-2.531,4.658,2.531,9.317,2.531,4.658-2.531,9.316-2.531,4.658,2.531,9.316,2.531,4.658-2.531,9.317-2.531,4.66,2.531,9.318,2.531,4.659-2.531,9.317-2.531,4.659,2.531,9.318,2.531,4.66-2.531,9.318-2.531,4.657,2.531,9.315,2.531,4.659-2.531,9.318-2.531,4.66,2.531,9.32,2.531,4.659-2.531,9.318-2.531,4.662,2.531,9.325,2.531,4.662-2.531,9.324-2.531" transform="translate(-640.186 -391.326)" fill="none" stroke="#26aab7" stroke-miterlimit="10" stroke-width="2"/>
          </g>
          <g id="Grupo_1099874" data-name="Grupo 1099874" transform="translate(0 10.901)">
            <path id="Trazado_875574" data-name="Trazado 875574" d="M640.186,408.556c4.658,0,4.658,2.531,9.316,2.531s4.658-2.531,9.316-2.531,4.657,2.531,9.313,2.531,4.657-2.531,9.316-2.531,4.658,2.531,9.317,2.531,4.658-2.531,9.316-2.531,4.658,2.531,9.316,2.531,4.658-2.531,9.317-2.531,4.66,2.531,9.318,2.531,4.659-2.531,9.317-2.531,4.659,2.531,9.318,2.531,4.66-2.531,9.318-2.531,4.657,2.531,9.315,2.531,4.659-2.531,9.318-2.531,4.66,2.531,9.32,2.531,4.659-2.531,9.318-2.531,4.662,2.531,9.325,2.531,4.662-2.531,9.324-2.531" transform="translate(-640.186 -408.556)" fill="none" stroke="#26aab7" stroke-miterlimit="10" stroke-width="2"/>
          </g>
          <g id="Grupo_1099875" data-name="Grupo 1099875" transform="translate(0 21.802)">
            <path id="Trazado_875575" data-name="Trazado 875575" d="M640.186,425.786c4.658,0,4.658,2.531,9.316,2.531s4.658-2.531,9.316-2.531,4.657,2.531,9.313,2.531,4.657-2.531,9.316-2.531,4.658,2.531,9.317,2.531,4.658-2.531,9.316-2.531,4.658,2.531,9.316,2.531,4.658-2.531,9.317-2.531,4.66,2.531,9.318,2.531,4.659-2.531,9.317-2.531,4.659,2.531,9.318,2.531,4.66-2.531,9.318-2.531,4.657,2.531,9.315,2.531,4.659-2.531,9.318-2.531,4.66,2.531,9.32,2.531,4.659-2.531,9.318-2.531,4.662,2.531,9.325,2.531,4.662-2.531,9.324-2.531" transform="translate(-640.186 -425.786)" fill="none" stroke="#26aab7" stroke-miterlimit="10" stroke-width="2"/>
          </g>
          <g id="Grupo_1099876" data-name="Grupo 1099876" transform="translate(0 32.704)">
            <path id="Trazado_875576" data-name="Trazado 875576" d="M640.186,443.016c4.658,0,4.658,2.531,9.316,2.531s4.658-2.531,9.316-2.531,4.657,2.531,9.313,2.531,4.657-2.531,9.316-2.531,4.658,2.531,9.317,2.531,4.658-2.531,9.316-2.531,4.658,2.531,9.316,2.531,4.658-2.531,9.317-2.531,4.66,2.531,9.318,2.531,4.659-2.531,9.317-2.531,4.659,2.531,9.318,2.531,4.66-2.531,9.318-2.531,4.657,2.531,9.315,2.531,4.659-2.531,9.318-2.531,4.66,2.531,9.32,2.531,4.659-2.531,9.318-2.531,4.662,2.531,9.325,2.531,4.662-2.531,9.324-2.531" transform="translate(-640.186 -443.016)" fill="none" stroke="#26aab7" stroke-miterlimit="10" stroke-width="2"/>
          </g>
        </g>
        <path id="Shape_2" data-name="Shape 2" d="M156.19,0V78.022H0a27.229,27.229,0,0,1,3.259-1.2c5.824-1.74,12.25-2.17,17.875-4.317A31.268,31.268,0,0,0,34.758,62.255c3.473-4.428,6.341-9.064,11.693-12.427,5.882-3.695,13.476-5.5,20.871-6.689a37.271,37.271,0,0,0,18.919-8.5c2.774-2.471,4.914-5.309,7.637-7.812a23.52,23.52,0,0,1,12.794-5.872c4.491-.679,9.657-.78,13.425-2.986a9.791,9.791,0,0,0,4.426-6.331C125.662,7.535,125.6,2.11,131,0Z" transform="translate(156.19 78.022) rotate(180)" fill="#7d6eb2"/>
      </g>
    </g>
  </g>
</svg>
