<svg xmlns="http://www.w3.org/2000/svg" xmlns:xlink="http://www.w3.org/1999/xlink" width="414" height="434" viewBox="0 0 414 434">
  <defs>
    <clipPath id="clip-path">
      <path id="Background" d="M0,0H392.99a20,20,0,0,1,20,20V413.9a20,20,0,0,1-20,20H0a0,0,0,0,1,0,0V0A0,0,0,0,1,0,0Z" transform="translate(0 0)" fill="#aee6e6"/>
    </clipPath>
    <clipPath id="clip-path-2">
      <path id="Trazado_873735" data-name="Trazado 873735" d="M.221.077,49.884.2,50.133,76.3.469,76.167Z" transform="translate(58.297 98.216) rotate(-152.705)" fill="none" stroke="#aee6e6" stroke-width="1"/>
    </clipPath>
  </defs>
  <g id="Grupo_1100012" data-name="Grupo 1100012" transform="translate(-580 -2582)">
    <g id="Rectángulo_401338" data-name="Rectángulo 401338" transform="translate(580 2582)" fill="#7d6eb2" stroke="#707070" stroke-width="1">
      <rect width="414" height="434" stroke="none"/>
      <rect x="0.5" y="0.5" width="413" height="433" fill="none"/>
    </g>
    <g id="Enmascarar_grupo_1098682" data-name="Enmascarar grupo 1098682" transform="translate(580.995 2582)" clip-path="url(#clip-path)">
      <g id="Grupo_1099052" data-name="Grupo 1099052" transform="translate(-49.102 -20.481)">
        <g id="Grupo_1099046" data-name="Grupo 1099046" transform="matrix(-0.469, -0.883, 0.883, -0.469, 372.159, 505.901)">
          <g id="Enmascarar_grupo_1098681" data-name="Enmascarar grupo 1098681" transform="translate(0 0)" clip-path="url(#clip-path-2)">
            <g id="Grupo_1099045" data-name="Grupo 1099045" transform="translate(-33.36 -14.955)">
              <path id="Trazado_873728" data-name="Trazado 873728" d="M47.413,3.119c25.207,1.032,46.478,18.313,47.51,38.6S76.358,77.611,51.15,76.579,4.672,58.265,3.64,37.98,22.206,2.087,47.413,3.119Z" transform="matrix(0.958, 0.286, -0.286, 0.958, 28.766, 4.297)" fill="none" stroke="#aee6e6" stroke-width="2"/>
              <path id="Trazado_873729" data-name="Trazado 873729" d="M32.853-6.423C52.13-8.591,66,6.847,63.83,28.061S44.276,68.229,25,70.4-8.146,57.128-5.977,35.915,13.577-4.254,32.853-6.423Z" transform="translate(93.949 24.99) rotate(85.029)" fill="none" stroke="#aee6e6" stroke-width="2"/>
              <path id="Trazado_873730" data-name="Trazado 873730" d="M29.071-5.794C46.177-7.775,58.438,5.521,56.456,23.9S39,58.794,21.9,60.775-7.47,49.461-5.489,31.078,11.966-3.812,29.071-5.794Z" transform="matrix(0.14, 0.99, -0.99, 0.14, 88.228, 27.489)" fill="none" stroke="#aee6e6" stroke-width="2"/>
              <path id="Trazado_873731" data-name="Trazado 873731" d="M32.035,4.844C48.278,6.327,62.648,19.075,64.13,33.318S53.647,57.9,37.4,56.422,6.792,42.192,5.31,27.949,15.793,3.362,32.035,4.844Z" transform="translate(29.868 25.946)" fill="none" stroke="#aee6e6" stroke-width="2"/>
              <path id="Trazado_873732" data-name="Trazado 873732" d="M26.853,3.256c13.829,1.026,25.871,11.306,26.9,22.961S44.4,46.488,30.569,45.462,4.7,34.156,3.672,22.5,13.024,2.23,26.853,3.256Z" transform="translate(38.734 29.206) rotate(6.323)" fill="none" stroke="#aee6e6" stroke-width="2"/>
              <path id="Trazado_873157" data-name="Trazado 873157" d="M15.253,31.818c10.976-.95,20.643-9.426,21.594-18.932S29.67-3.555,18.694-2.6-1.949,6.822-2.9,16.328,4.277,32.769,15.253,31.818Z" transform="matrix(0.586, 0.81, -0.81, 0.586, 66.483, 34.266)" fill="none" stroke="#aee6e6" stroke-width="2"/>
              <path id="Trazado_873733" data-name="Trazado 873733" d="M13.765-2.261c8.127-.821,14.05,4.473,13.229,11.825s-8.075,13.977-16.2,14.8S-3.258,19.888-2.437,12.537,5.637-1.44,13.765-2.261Z" transform="translate(68.118 40.442) rotate(60.355)" fill="none" stroke="#aee6e6" stroke-width="2"/>
              <path id="Trazado_873734" data-name="Trazado 873734" d="M10.822.458C16.655.613,21.509,4.5,21.663,9.146s-4.449,8.283-10.282,8.128S.694,13.23.54,8.586,4.989.3,10.822.458Z" transform="translate(57.341 44.359) rotate(20.72)" fill="none" stroke="#aee6e6" stroke-width="2"/>
              <path id="Trazado_873158" data-name="Trazado 873158" d="M1.321,2.95C.22,5.1,1.527,7.987,4.242,9.4s5.807.808,6.908-1.342-.207-5.037-2.921-6.446S2.422.8,1.321,2.95Z" transform="translate(58.352 51.078)" fill="none" stroke="#aee6e6" stroke-miterlimit="10" stroke-width="2"/>
            </g>
          </g>
        </g>
        <g id="Grupo_1099051" data-name="Grupo 1099051" transform="translate(0 39.859)">
          <g id="Grupo_1099047" data-name="Grupo 1099047" transform="translate(0 0)">
            <path id="Trazado_873159" data-name="Trazado 873159" d="M751.907,391.326c-3.1,0-3.1,2.358-6.206,2.358s-3.1-2.358-6.205-2.358-3.1,2.358-6.2,2.358-3.1-2.358-6.205-2.358-3.1,2.358-6.206,2.358-3.1-2.358-6.205-2.358-3.1,2.358-6.206,2.358-3.1-2.358-6.206-2.358-3.1,2.358-6.207,2.358-3.1-2.358-6.206-2.358-3.1,2.358-6.207,2.358-3.1-2.358-6.207-2.358-3.1,2.358-6.2,2.358-3.1-2.358-6.207-2.358-3.1,2.358-6.209,2.358-3.1-2.358-6.207-2.358-3.106,2.358-6.211,2.358-3.105-2.358-6.211-2.358" transform="translate(-640.186 -391.326)" fill="none" stroke="#ffd947" stroke-miterlimit="10" stroke-width="2"/>
          </g>
          <g id="Grupo_1099048" data-name="Grupo 1099048" transform="translate(0 10.155)">
            <path id="Trazado_873160" data-name="Trazado 873160" d="M751.907,408.556c-3.1,0-3.1,2.358-6.206,2.358s-3.1-2.358-6.205-2.358-3.1,2.358-6.2,2.358-3.1-2.358-6.205-2.358-3.1,2.358-6.206,2.358-3.1-2.358-6.205-2.358-3.1,2.358-6.206,2.358-3.1-2.358-6.206-2.358-3.1,2.358-6.207,2.358-3.1-2.358-6.206-2.358-3.1,2.358-6.207,2.358-3.1-2.358-6.207-2.358-3.1,2.358-6.2,2.358-3.1-2.358-6.207-2.358-3.1,2.358-6.209,2.358-3.1-2.358-6.207-2.358-3.106,2.358-6.211,2.358-3.105-2.358-6.211-2.358" transform="translate(-640.186 -408.556)" fill="none" stroke="#ffd947" stroke-miterlimit="10" stroke-width="2"/>
          </g>
          <g id="Grupo_1099049" data-name="Grupo 1099049" transform="translate(0 20.311)">
            <path id="Trazado_873161" data-name="Trazado 873161" d="M751.907,425.786c-3.1,0-3.1,2.358-6.206,2.358s-3.1-2.358-6.205-2.358-3.1,2.358-6.2,2.358-3.1-2.358-6.205-2.358-3.1,2.358-6.206,2.358-3.1-2.358-6.205-2.358-3.1,2.358-6.206,2.358-3.1-2.358-6.206-2.358-3.1,2.358-6.207,2.358-3.1-2.358-6.206-2.358-3.1,2.358-6.207,2.358-3.1-2.358-6.207-2.358-3.1,2.358-6.2,2.358-3.1-2.358-6.207-2.358-3.1,2.358-6.209,2.358-3.1-2.358-6.207-2.358-3.106,2.358-6.211,2.358-3.105-2.358-6.211-2.358" transform="translate(-640.186 -425.786)" fill="none" stroke="#ffd947" stroke-miterlimit="10" stroke-width="2"/>
          </g>
          <g id="Grupo_1099050" data-name="Grupo 1099050" transform="translate(0 30.466)">
            <path id="Trazado_873162" data-name="Trazado 873162" d="M751.907,443.016c-3.1,0-3.1,2.358-6.206,2.358s-3.1-2.358-6.205-2.358-3.1,2.358-6.2,2.358-3.1-2.358-6.205-2.358-3.1,2.358-6.206,2.358-3.1-2.358-6.205-2.358-3.1,2.358-6.206,2.358-3.1-2.358-6.206-2.358-3.1,2.358-6.207,2.358-3.1-2.358-6.206-2.358-3.1,2.358-6.207,2.358-3.1-2.358-6.207-2.358-3.1,2.358-6.2,2.358-3.1-2.358-6.207-2.358-3.1,2.358-6.209,2.358-3.1-2.358-6.207-2.358-3.106,2.358-6.211,2.358-3.105-2.358-6.211-2.358" transform="translate(-640.186 -443.016)" fill="none" stroke="#ffd947" stroke-miterlimit="10" stroke-width="2"/>
          </g>
        </g>
        <g id="Grupo_1099984" data-name="Grupo 1099984" transform="translate(396.398 39.859)">
          <g id="Grupo_1099047-2" data-name="Grupo 1099047" transform="translate(0 0)">
            <path id="Trazado_873159-2" data-name="Trazado 873159" d="M751.907,391.326c-3.1,0-3.1,2.358-6.206,2.358s-3.1-2.358-6.205-2.358-3.1,2.358-6.2,2.358-3.1-2.358-6.205-2.358-3.1,2.358-6.206,2.358-3.1-2.358-6.205-2.358-3.1,2.358-6.206,2.358-3.1-2.358-6.206-2.358-3.1,2.358-6.207,2.358-3.1-2.358-6.206-2.358-3.1,2.358-6.207,2.358-3.1-2.358-6.207-2.358-3.1,2.358-6.2,2.358-3.1-2.358-6.207-2.358-3.1,2.358-6.209,2.358-3.1-2.358-6.207-2.358-3.106,2.358-6.211,2.358-3.105-2.358-6.211-2.358" transform="translate(-640.186 -391.326)" fill="none" stroke="#ffd947" stroke-miterlimit="10" stroke-width="2"/>
          </g>
          <g id="Grupo_1099048-2" data-name="Grupo 1099048" transform="translate(0 10.155)">
            <path id="Trazado_873160-2" data-name="Trazado 873160" d="M751.907,408.556c-3.1,0-3.1,2.358-6.206,2.358s-3.1-2.358-6.205-2.358-3.1,2.358-6.2,2.358-3.1-2.358-6.205-2.358-3.1,2.358-6.206,2.358-3.1-2.358-6.205-2.358-3.1,2.358-6.206,2.358-3.1-2.358-6.206-2.358-3.1,2.358-6.207,2.358-3.1-2.358-6.206-2.358-3.1,2.358-6.207,2.358-3.1-2.358-6.207-2.358-3.1,2.358-6.2,2.358-3.1-2.358-6.207-2.358-3.1,2.358-6.209,2.358-3.1-2.358-6.207-2.358-3.106,2.358-6.211,2.358-3.105-2.358-6.211-2.358" transform="translate(-640.186 -408.556)" fill="none" stroke="#ffd947" stroke-miterlimit="10" stroke-width="2"/>
          </g>
          <g id="Grupo_1099049-2" data-name="Grupo 1099049" transform="translate(0 20.311)">
            <path id="Trazado_873161-2" data-name="Trazado 873161" d="M751.907,425.786c-3.1,0-3.1,2.358-6.206,2.358s-3.1-2.358-6.205-2.358-3.1,2.358-6.2,2.358-3.1-2.358-6.205-2.358-3.1,2.358-6.206,2.358-3.1-2.358-6.205-2.358-3.1,2.358-6.206,2.358-3.1-2.358-6.206-2.358-3.1,2.358-6.207,2.358-3.1-2.358-6.206-2.358-3.1,2.358-6.207,2.358-3.1-2.358-6.207-2.358-3.1,2.358-6.2,2.358-3.1-2.358-6.207-2.358-3.1,2.358-6.209,2.358-3.1-2.358-6.207-2.358-3.106,2.358-6.211,2.358-3.105-2.358-6.211-2.358" transform="translate(-640.186 -425.786)" fill="none" stroke="#ffd947" stroke-miterlimit="10" stroke-width="2"/>
          </g>
          <g id="Grupo_1099050-2" data-name="Grupo 1099050" transform="translate(0 30.466)">
            <path id="Trazado_873162-2" data-name="Trazado 873162" d="M751.907,443.016c-3.1,0-3.1,2.358-6.206,2.358s-3.1-2.358-6.205-2.358-3.1,2.358-6.2,2.358-3.1-2.358-6.205-2.358-3.1,2.358-6.206,2.358-3.1-2.358-6.205-2.358-3.1,2.358-6.206,2.358-3.1-2.358-6.206-2.358-3.1,2.358-6.207,2.358-3.1-2.358-6.206-2.358-3.1,2.358-6.207,2.358-3.1-2.358-6.207-2.358-3.1,2.358-6.2,2.358-3.1-2.358-6.207-2.358-3.1,2.358-6.209,2.358-3.1-2.358-6.207-2.358-3.106,2.358-6.211,2.358-3.105-2.358-6.211-2.358" transform="translate(-640.186 -443.016)" fill="none" stroke="#ffd947" stroke-miterlimit="10" stroke-width="2"/>
          </g>
        </g>
      </g>
    </g>
  </g>
</svg>
