<svg xmlns="http://www.w3.org/2000/svg" xmlns:xlink="http://www.w3.org/1999/xlink" width="413.98" height="433.898" viewBox="0 0 413.98 433.898">
  <defs>
    <clipPath id="clip-path">
      <path id="Background" d="M0,0H393.98a20,20,0,0,1,20,20V413.9a20,20,0,0,1-20,20H0a0,0,0,0,1,0,0V0A0,0,0,0,1,0,0Z" transform="translate(0 0)" fill="#aee6e6"/>
    </clipPath>
    <clipPath id="clip-path-2">
      <path id="Trazado_875817" data-name="Trazado 875817" d="M.246,76.273,49.91,76.4,49.663.127,0,0Z" transform="translate(44.353 90.781) rotate(-152.705)" fill="none" stroke="#7d6eb2" stroke-width="1"/>
    </clipPath>
  </defs>
  <g id="Grupo_1100013" data-name="Grupo 1100013" transform="translate(-1007 -2520)">
    <path id="Background-2" data-name="Background" d="M0,0H393.98a20,20,0,0,1,20,20V413.9a20,20,0,0,1-20,20H0a0,0,0,0,1,0,0V0A0,0,0,0,1,0,0Z" transform="translate(1007 2520)" fill="#aee6e6"/>
    <g id="Enmascarar_grupo_1098747" data-name="Enmascarar grupo 1098747" transform="translate(1007 2520)" clip-path="url(#clip-path)">
      <g id="Grupo_1099983" data-name="Grupo 1099983" transform="translate(-49.22 -20.481)">
        <g id="Grupo_1099977" data-name="Grupo 1099977" transform="matrix(-0.469, -0.883, 0.883, -0.469, 373.137, 490.32)">
          <g id="Enmascarar_grupo_1098746" data-name="Enmascarar grupo 1098746" transform="translate(0 0)" clip-path="url(#clip-path-2)">
            <g id="Grupo_1099976" data-name="Grupo 1099976" transform="translate(-36.834 -14.11)">
              <path id="Trazado_875808" data-name="Trazado 875808" d="M47.535,73.675C72.744,74.7,92.351,59.045,91.328,38.713S69.04,1.07,43.831.047-.984,14.678.038,35.009,22.326,72.652,47.535,73.675Z" transform="matrix(0.958, 0.286, -0.286, 0.958, 21.091, 0)" fill="none" stroke="#7d6eb2" stroke-width="2"/>
              <path id="Trazado_875809" data-name="Trazado 875809" d="M31.286,77.066c19.307-2.149,36.7-21.1,38.85-42.325S58.376-1.95,39.069.2,2.368,21.3.219,42.524,11.979,79.215,31.286,77.066Z" transform="translate(89.759 9.997) rotate(85.029)" fill="none" stroke="#7d6eb2" stroke-width="2"/>
              <path id="Trazado_875810" data-name="Trazado 875810" d="M27.668,66.808C44.8,64.844,60.276,48.34,62.24,29.945S51.908-1.772,34.778.192,2.169,18.66.206,37.055,10.537,68.771,27.668,66.808Z" transform="matrix(0.14, 0.99, -0.99, 0.14, 83.104, 12.773)" fill="none" stroke="#7d6eb2" stroke-width="2"/>
              <path id="Trazado_875811" data-name="Trazado 875811" d="M32.205,51.808c16.25,1.469,28.232-8.906,26.763-23.174S43.135,1.608,26.885.139-1.347,9.045.122,23.313,15.955,50.339,32.205,51.808Z" transform="translate(24.774 22.417)" fill="none" stroke="#7d6eb2" stroke-width="2"/>
              <path id="Trazado_875812" data-name="Trazado 875812" d="M26.956,42.371c13.832,1.017,24.221-7.626,23.2-19.3S37.105,1.1,23.273.081-.948,7.707.069,19.385,13.123,41.354,26.956,42.371Z" transform="translate(31.695 24.527) rotate(6.323)" fill="none" stroke="#7d6eb2" stroke-width="2"/>
              <path id="Trazado_875813" data-name="Trazado 875813" d="M18.25,34.571c10.98-.942,20.644-9.425,21.586-18.948S32.64-.856,21.66.085,1.016,9.51.074,19.034,7.27,35.513,18.25,34.571Z" transform="matrix(0.586, 0.81, -0.81, 0.586, 56.673, 22.066)" fill="none" stroke="#7d6eb2" stroke-width="2"/>
              <path id="Trazado_875814" data-name="Trazado 875814" d="M13.326,26.747c8.132-.814,15.384-7.442,16.2-14.805S24.4-.731,16.272.082.888,7.524.075,14.888,5.194,27.56,13.326,26.747Z" transform="translate(58.658 28.893) rotate(60.355)" fill="none" stroke="#7d6eb2" stroke-width="2"/>
              <path id="Trazado_875815" data-name="Trazado 875815" d="M10.843,16.86c5.833.153,10.438-3.5,10.285-8.15S16.122.158,10.289,0-.149,3.5,0,8.155,5.01,16.707,10.843,16.86Z" transform="translate(47.42 36.765) rotate(20.72)" fill="none" stroke="#7d6eb2" stroke-width="2"/>
              <path id="Trazado_875816" data-name="Trazado 875816" d="M.392,2.112c-1.1,2.156.2,5.046,2.915,6.456s5.809.8,6.913-1.352S10.019,2.17,7.3.761,1.5-.044.392,2.112Z" transform="translate(49.013 43.726)" fill="none" stroke="#7d6eb2" stroke-miterlimit="10" stroke-width="2"/>
            </g>
          </g>
        </g>
        <g id="Grupo_1099982" data-name="Grupo 1099982" transform="translate(0 39.859)">
          <g id="Grupo_1099978" data-name="Grupo 1099978" transform="translate(0 0)">
            <path id="Trazado_875818" data-name="Trazado 875818" d="M752.175,391.326c-3.11,0-3.11,2.358-6.221,2.358s-3.11-2.358-6.22-2.358-3.109,2.358-6.219,2.358-3.11-2.358-6.22-2.358-3.11,2.358-6.221,2.358-3.11-2.358-6.22-2.358-3.11,2.358-6.221,2.358-3.11-2.358-6.221-2.358-3.111,2.358-6.222,2.358-3.111-2.358-6.221-2.358-3.111,2.358-6.222,2.358-3.111-2.358-6.222-2.358-3.11,2.358-6.22,2.358-3.111-2.358-6.222-2.358-3.112,2.358-6.224,2.358-3.111-2.358-6.222-2.358-3.113,2.358-6.226,2.358-3.113-2.358-6.226-2.358" transform="translate(-640.186 -391.326)" fill="none" stroke="#26aab7" stroke-miterlimit="10" stroke-width="2"/>
          </g>
          <g id="Grupo_1099979" data-name="Grupo 1099979" transform="translate(0 10.155)">
            <path id="Trazado_875819" data-name="Trazado 875819" d="M752.175,408.556c-3.11,0-3.11,2.358-6.221,2.358s-3.11-2.358-6.22-2.358-3.109,2.358-6.219,2.358-3.11-2.358-6.22-2.358-3.11,2.358-6.221,2.358-3.11-2.358-6.22-2.358-3.11,2.358-6.221,2.358-3.11-2.358-6.221-2.358-3.111,2.358-6.222,2.358-3.111-2.358-6.221-2.358-3.111,2.358-6.222,2.358-3.111-2.358-6.222-2.358-3.11,2.358-6.22,2.358-3.111-2.358-6.222-2.358-3.112,2.358-6.224,2.358-3.111-2.358-6.222-2.358-3.113,2.358-6.226,2.358-3.113-2.358-6.226-2.358" transform="translate(-640.186 -408.556)" fill="none" stroke="#26aab7" stroke-miterlimit="10" stroke-width="2"/>
          </g>
          <g id="Grupo_1099980" data-name="Grupo 1099980" transform="translate(0 20.311)">
            <path id="Trazado_875820" data-name="Trazado 875820" d="M752.175,425.786c-3.11,0-3.11,2.358-6.221,2.358s-3.11-2.358-6.22-2.358-3.109,2.358-6.219,2.358-3.11-2.358-6.22-2.358-3.11,2.358-6.221,2.358-3.11-2.358-6.22-2.358-3.11,2.358-6.221,2.358-3.11-2.358-6.221-2.358-3.111,2.358-6.222,2.358-3.111-2.358-6.221-2.358-3.111,2.358-6.222,2.358-3.111-2.358-6.222-2.358-3.11,2.358-6.22,2.358-3.111-2.358-6.222-2.358-3.112,2.358-6.224,2.358-3.111-2.358-6.222-2.358-3.113,2.358-6.226,2.358-3.113-2.358-6.226-2.358" transform="translate(-640.186 -425.786)" fill="none" stroke="#26aab7" stroke-miterlimit="10" stroke-width="2"/>
          </g>
          <g id="Grupo_1099981" data-name="Grupo 1099981" transform="translate(0 30.466)">
            <path id="Trazado_875821" data-name="Trazado 875821" d="M752.175,443.016c-3.11,0-3.11,2.358-6.221,2.358s-3.11-2.358-6.22-2.358-3.109,2.358-6.219,2.358-3.11-2.358-6.22-2.358-3.11,2.358-6.221,2.358-3.11-2.358-6.22-2.358-3.11,2.358-6.221,2.358-3.11-2.358-6.221-2.358-3.111,2.358-6.222,2.358-3.111-2.358-6.221-2.358-3.111,2.358-6.222,2.358-3.111-2.358-6.222-2.358-3.11,2.358-6.22,2.358-3.111-2.358-6.222-2.358-3.112,2.358-6.224,2.358-3.111-2.358-6.222-2.358-3.113,2.358-6.226,2.358-3.113-2.358-6.226-2.358" transform="translate(-640.186 -443.016)" fill="none" stroke="#26aab7" stroke-miterlimit="10" stroke-width="2"/>
          </g>
        </g>
        <path id="Shape_2" data-name="Shape 2" d="M104.292,72.683V0H0A15.325,15.325,0,0,0,2.176,1.122c3.889,1.621,8.18,2.022,11.935,4.022a23.329,23.329,0,0,1,9.1,9.544c2.319,4.125,4.234,8.443,7.808,11.576,3.927,3.442,9,5.124,13.936,6.232a22.481,22.481,0,0,1,12.633,7.922c1.852,2.3,3.281,4.946,5.1,7.277a14.309,14.309,0,0,0,8.543,5.47c3,.633,6.448.727,8.964,2.782,1.775,1.45,2.512,3.668,2.955,5.9.76,3.82.718,8.873,4.324,10.839Z" transform="translate(374.279)" fill="#7d6eb2"/>
      </g>
    </g>
  </g>
</svg>
