<svg id="Grupo_12271" data-name="Grupo 12271" xmlns="http://www.w3.org/2000/svg" width="120.311" height="120.309" viewBox="0 0 120.311 120.309">
  <g id="Grupo_12270" data-name="Grupo 12270">
    <g id="Grupo_12269" data-name="Grupo 12269">
      <path id="Trazado_16214" data-name="Trazado 16214" d="M1035.191,428.384a2.507,2.507,0,1,0,0,5.013c.979,0,2.178,1.948,2.633,3.287a2.5,2.5,0,0,0,2.379,1.726,2.475,2.475,0,0,0,.783-.126,2.5,2.5,0,0,0,1.6-3.162C1042.358,434.431,1040.229,428.384,1035.191,428.384Z" transform="translate(-992.58 -338.152)" fill="#62529b"/>
      <path id="Trazado_16215" data-name="Trazado 16215" d="M1061.461,428.384c-5.037,0-7.166,6.047-7.393,6.738a2.5,2.5,0,1,0,4.758,1.562c.392-1.18,1.6-3.288,2.634-3.288a2.506,2.506,0,1,0,0-5.012Z" transform="translate(-983.76 -338.152)" fill="#62529b"/>
      <path id="Trazado_16216" data-name="Trazado 16216" d="M1124.23,410.846c-6.424-9.635-13.719-13.5-20.243-15.072,8.59-5.882,9.541-17.095,10.119-23.916a41.8,41.8,0,0,1,.475-4.256,2.508,2.508,0,0,0-4.778-1.442c-5.241,12.6-18,17.316-25.357,18.248A31.245,31.245,0,0,0,1067,379.654h-5.013a31.239,31.239,0,0,0-17.443,4.754c-7.353-.932-20.117-5.648-25.356-18.248a2.509,2.509,0,0,0-4.778,1.442,41.985,41.985,0,0,1,.474,4.256c.578,6.821,1.53,18.039,10.124,23.919-6.53,1.571-13.828,5.44-20.248,15.069a2.5,2.5,0,0,0,.965,3.632c.407.2,9.692,4.685,23.749,5.182-.024.867-.07,1.711-.07,2.6,0,4.181,1.948,7.226,3.833,10.168,1.895,2.963,3.687,5.76,3.687,9.885v10.309a18.284,18.284,0,0,0-2.507,9.742c0,3.936,1.648,10.1,11.248,11.964.638.668,1.265,1.346,1.866,2.031,3.544,4.011,7.559,8.561,16.963,8.561s13.418-4.55,16.962-8.561c.6-.685,1.228-1.363,1.866-2.031,9.6-1.863,11.249-8.028,11.249-11.964a18.3,18.3,0,0,0-2.506-9.742V442.313c0-4.124,1.791-6.922,3.685-9.885,1.885-2.942,3.833-5.986,3.833-10.168,0-.891-.045-1.735-.071-2.6,14.059-.5,23.344-4.978,23.75-5.182a2.5,2.5,0,0,0,.965-3.632Zm-62.241-26.183H1067c17.457,0,24.331,12,26.6,25.326-.638.1-1.278.206-1.926.371-10.1,2.562-17.154,12.058-17.154,23.088v11.37H1054.47v-11.37c0-11.032-7.055-20.526-17.154-23.088-.647-.164-1.288-.27-1.926-.371C1037.66,396.666,1044.534,384.663,1061.989,384.663Zm-32.228,30.017a62.73,62.73,0,0,1-19.031-3.557c7.391-9.55,15.457-11.093,22.177-11.35A57.207,57.207,0,0,0,1029.761,414.68Zm-9.186-37.177a39.336,39.336,0,0,0,19.037,11.065,30.345,30.345,0,0,0-4.151,5.722C1025.189,392.845,1021.913,385.989,1020.575,377.5Zm16.884,52.222c-1.63-2.55-3.041-4.753-3.041-7.465,0-2.364.1-4.791.319-7.218.455.074.878.059,1.344.178a16.447,16.447,0,0,1,5.938,2.949,4.819,4.819,0,0,0-2.59,4.09,2.5,2.5,0,0,0,2.506,2.506h5.477a19.706,19.706,0,0,1,2.043,8.682v11.571a19.847,19.847,0,0,0-7.52,2.636v-5.344C1041.937,436.72,1039.559,433,1037.459,429.725Zm27.037,50.182c-6.006,0-8.848-2.153-11.616-5.116a12.5,12.5,0,0,0,6.554-2.814c1.592-1.17,2.85-2.1,5.062-2.1s3.471.926,5.061,2.1a12.5,12.5,0,0,0,6.555,2.814C1073.345,477.754,1070.5,479.907,1064.5,479.907Zm12.532-10.026c-1.86,0-2.967-.815-4.5-1.94-1.86-1.37-4.171-3.073-8.032-3.073s-6.173,1.7-8.033,3.073c-1.532,1.125-2.639,1.94-4.5,1.94-8.317,0-12.532-2.53-12.532-7.519,0-3.867,1.083-6.892,3.212-9,3.6-3.558,9.017-3.573,9.32-3.536h25.109c.06,0,5.644-.047,9.278,3.536,2.13,2.1,3.211,5.129,3.211,9C1089.56,467.352,1085.345,469.881,1077.028,469.881Zm14.506-40.156c-2.1,3.28-4.479,7-4.479,12.587v5.34a19.632,19.632,0,0,0-7.521-2.632V433.449a19.718,19.718,0,0,1,2.043-8.683h5.478a2.5,2.5,0,0,0,2.506-2.506,4.819,4.819,0,0,0-2.59-4.09,16.438,16.438,0,0,1,5.938-2.949c.466-.119.891-.1,1.345-.178.216,2.427.32,4.853.32,7.218C1094.573,424.971,1093.164,427.174,1091.534,429.725Zm2-35.435a30.39,30.39,0,0,0-4.152-5.722,39.344,39.344,0,0,0,19.039-11.065C1107.079,385.989,1103.8,392.845,1093.531,394.29Zm5.7,20.392a57.188,57.188,0,0,0-3.148-14.91c6.715.255,14.781,1.788,22.184,11.356A62.455,62.455,0,0,1,1099.231,414.682Z" transform="translate(-1004.34 -364.611)" fill="#62529b"/>
    </g>
  </g>
</svg>
