<svg xmlns="http://www.w3.org/2000/svg" width="129.737" height="117.828" viewBox="0 0 129.737 117.828">
  <g id="Grupo_1100012" data-name="Grupo 1100012" transform="translate(-860 -4862.263)">
    <path id="_12068" data-name="12068" d="M98.737,72.292c-13.285-1.834-27.318-1.386-39.407,4.421-16.765,8.052-27.775,26.309-28.2,44.9S40.4,158.479,55.36,169.523s34.7,14.959,53,11.643c18.453-3.344,35.773-14.186,45.4-30.28,6.172-10.321,9.057-23.065,5.647-34.6-2.059-6.961-6.267-13.128-11.217-18.437A82.875,82.875,0,0,0,98.737,72.292Z" transform="translate(828.881 4797.783)" fill="#26aab7"/>
    <g id="investigacion" transform="translate(874.966 4861.263)">
      <g id="Grupo_1100005" data-name="Grupo 1100005" transform="translate(2.593 2.593)">
        <g id="Grupo_1099986" data-name="Grupo 1099986" transform="translate(38.221 6.37)">
          <path id="Trazado_875865" data-name="Trazado 875865" d="M38.677,6,33.74,10.937l.605.605a6.135,6.135,0,0,1,1.768,4.013H26V6Z" transform="translate(-26 -6)" fill="#aab2bd"/>
        </g>
        <g id="Grupo_1099987" data-name="Grupo 1099987" transform="translate(0 6.37)">
          <path id="Trazado_875866" data-name="Trazado 875866" d="M46.591,88.812v6.37h-43A1.6,1.6,0,0,1,2,93.589v-86A1.6,1.6,0,0,1,3.593,6H21.11v9.555H8.37V88.812Z" transform="translate(-2 -6)" fill="#aab2bd"/>
        </g>
        <g id="Grupo_1099988" data-name="Grupo 1099988" transform="translate(71.664 67.603)">
          <path id="Trazado_875867" data-name="Trazado 875867" d="M61.333,72.4H51.778L47,53.289l1.5-4.507L53.37,51.7l1.449-7.246A22.9,22.9,0,0,1,70.888,66.3v6.1Z" transform="translate(-47 -44.45)" fill="#b4dd7f"/>
        </g>
        <g id="Grupo_1099989" data-name="Grupo 1099989" transform="translate(41.406 0)">
          <path id="Trazado_875868" data-name="Trazado 875868" d="M34.928,17.925a6.135,6.135,0,0,0-1.768-4.013l-.605-.605L37.491,8.37l1.815-1.815.605.605a6.165,6.165,0,0,0,4.332,1.784,6.238,6.238,0,0,0,2.325-.462A6.056,6.056,0,0,0,50.3,2.892V2h9.555v.876a6.043,6.043,0,0,0,3.742,5.606A6.116,6.116,0,0,0,70.234,7.16l.605-.605,6.752,6.752-.605.605A6.156,6.156,0,0,0,75.2,18.228a6.238,6.238,0,0,0,.462,2.325A6.076,6.076,0,0,0,81.27,24.3h.876v9.555h-.892a6.051,6.051,0,0,0-3.36,1.019,5.929,5.929,0,0,0-2.23,2.707c-.064.175-.127.366-.191.541a16.821,16.821,0,0,0-3.01-6.9,19.014,19.014,0,0,0,.127-2.15A17.518,17.518,0,1,0,38.67,35.236,17.032,17.032,0,0,0,37.555,41.3a17.239,17.239,0,0,0,.51,4.141L38.75,48.2l.016.016a4.55,4.55,0,0,0-1.019,1.815l-.255-.255-4.937-4.937.605-.621a6.055,6.055,0,0,0,1.784-4.284,5.959,5.959,0,0,0-.462-2.341,6.076,6.076,0,0,0-5.606-3.742H28V24.3h.876a6.043,6.043,0,0,0,5.606-3.742,6.026,6.026,0,0,0,.446-2.628Z" transform="translate(-28 -2)" fill="#ffc729"/>
        </g>
        <g id="Grupo_1099990" data-name="Grupo 1099990" transform="translate(50.961 22.295)">
          <path id="Trazado_875869" data-name="Trazado 875869" d="M46.74,28.74a6.368,6.368,0,0,0-6.37,6.37V38.3H38.778A4.665,4.665,0,0,0,35.21,39.92l-.016-.016-.685-2.755A17.239,17.239,0,0,1,34,33.008a16.933,16.933,0,0,1,4.985-12.024,18.707,18.707,0,0,1,1.433-1.29A16.933,16.933,0,0,1,51.008,16h4.2a16.86,16.86,0,0,1,6.943,1.481V17.5a16.963,16.963,0,0,1,9.762,12.326,16.239,16.239,0,0,1,.3,3.185,17.239,17.239,0,0,1-.51,4.141L71.026,39.9l-.016.016A4.665,4.665,0,0,0,67.443,38.3H65.851V35.11a3.194,3.194,0,0,0-3.185-3.185H49.925A3.194,3.194,0,0,1,46.74,28.74Z" transform="translate(-34 -16)" fill="#b27946"/>
        </g>
        <g id="Grupo_1099991" data-name="Grupo 1099991" transform="translate(82.812 44.591)">
          <path id="Trazado_875870" data-name="Trazado 875870" d="M59.16,31.624a4.768,4.768,0,0,1-3.567,7.931H54V30h1.593A4.665,4.665,0,0,1,59.16,31.624Z" transform="translate(-54 -30)" fill="#f0d0b4"/>
        </g>
        <g id="Grupo_1099992" data-name="Grupo 1099992" transform="translate(50.961 9.555)">
          <path id="Trazado_875871" data-name="Trazado 875871" d="M69.036,25.518a19.014,19.014,0,0,1-.127,2.15,16.915,16.915,0,0,0-6.752-5.431v-.016l.016-.016a11.157,11.157,0,0,0-21.754,2.23,18.71,18.71,0,0,0-1.433,1.29,16.969,16.969,0,0,0-3.87,5.956,17.52,17.52,0,1,1,33.921-6.163Z" transform="translate(-34 -8)" fill="#fcd770"/>
        </g>
        <g id="Grupo_1099993" data-name="Grupo 1099993" transform="translate(57.331 35.036)">
          <path id="Trazado_875872" data-name="Trazado 875872" d="M63.48,33.555V43.11a9.564,9.564,0,0,1-7.5,9.332,9.666,9.666,0,0,1-2.054.223h-6.37a9.666,9.666,0,0,1-2.054-.223A9.564,9.564,0,0,1,38,43.11V30.37A6.368,6.368,0,0,1,44.37,24a3.194,3.194,0,0,0,3.185,3.185H60.3A3.194,3.194,0,0,1,63.48,30.37Z" transform="translate(-38 -24)" fill="#f0d0b4"/>
        </g>
        <g id="Grupo_1099994" data-name="Grupo 1099994" transform="translate(70.071 66.886)">
          <path id="Trazado_875873" data-name="Trazado 875873" d="M55.412,44.717l-1.449,7.246L49.09,49.048,46,47.185,52.37,44A24.143,24.143,0,0,1,55.412,44.717Z" transform="translate(-46 -44)" fill="#a0d468"/>
        </g>
        <g id="Grupo_1099995" data-name="Grupo 1099995" transform="translate(63.701 63.478)">
          <path id="Trazado_875874" data-name="Trazado 875874" d="M53.61,41.86l1.131,3.408-6.37,3.185L42,45.268l1.131-3.408a9.666,9.666,0,0,0,2.054.223h6.37A9.667,9.667,0,0,0,53.61,41.86Z" transform="translate(-42 -41.86)" fill="#f0d0b4"/>
        </g>
        <g id="Grupo_1099996" data-name="Grupo 1099996" transform="translate(63.701 76.441)">
          <path id="Trazado_875875" data-name="Trazado 875875" d="M49.963,50,54.74,69.11H42L46.778,50Z" transform="translate(-42 -50)" fill="#e6e9ed"/>
        </g>
        <g id="Grupo_1099997" data-name="Grupo 1099997" transform="translate(66.982 70.071)">
          <path id="Trazado_875876" data-name="Trazado 875876" d="M47.15,46l3.09,1.863-1.5,4.507H45.557l-1.5-4.507Z" transform="translate(-44.06 -46)" fill="#ccd1d9"/>
        </g>
        <g id="Grupo_1099998" data-name="Grupo 1099998" transform="translate(60.659 66.886)">
          <path id="Trazado_875877" data-name="Trazado 875877" d="M49.5,47.185l-3.09,1.863-4.873,2.914L40.09,44.717A24.145,24.145,0,0,1,43.132,44Z" transform="translate(-40.09 -44)" fill="#a0d468"/>
        </g>
        <g id="Grupo_1099999" data-name="Grupo 1099999" transform="translate(44.591 67.603)">
          <path id="Trazado_875878" data-name="Trazado 875878" d="M39.555,72.4H30v-6.37a22.9,22.9,0,0,1,10.718-19.11,23.374,23.374,0,0,1,5.351-2.468L47.518,51.7l4.873-2.914,1.5,4.507L49.11,72.4Z" transform="translate(-30 -44.45)" fill="#b4dd7f"/>
        </g>
        <g id="Grupo_1100000" data-name="Grupo 1100000" transform="translate(50.961 44.591)">
          <path id="Trazado_875879" data-name="Trazado 875879" d="M40.37,30v9.555H38.778A4.785,4.785,0,0,1,34,34.778a4.6,4.6,0,0,1,.191-1.338,4.55,4.55,0,0,1,1.019-1.815A4.665,4.665,0,0,1,38.778,30Z" transform="translate(-34 -30)" fill="#f0d0b4"/>
        </g>
        <g id="Grupo_1100001" data-name="Grupo 1100001" transform="translate(6.37 15.925)">
          <path id="Trazado_875880" data-name="Trazado 875880" d="M56.961,50.221H55.368a4.785,4.785,0,0,1-4.778-4.778,4.6,4.6,0,0,1,.191-1.338l-.255-.255L45.59,38.914l.605-.621a6.055,6.055,0,0,0,1.784-4.284,5.959,5.959,0,0,0-.462-2.341,6.076,6.076,0,0,0-5.606-3.742h-.876V18.37h.876a6.043,6.043,0,0,0,5.606-3.742A6.025,6.025,0,0,0,47.963,12H6V85.256H44.221a22.9,22.9,0,0,1,10.718-19.11,23.374,23.374,0,0,1,5.351-2.468,24.144,24.144,0,0,1,3.042-.717l1.131-3.408a9.564,9.564,0,0,1-7.5-9.332Z" transform="translate(-6 -12)" fill="#e6e9ed"/>
        </g>
        <g id="Grupo_1100002" data-name="Grupo 1100002" transform="translate(19.11 6.37)">
          <path id="Trazado_875881" data-name="Trazado 875881" d="M14,6H33.11v9.555H14Z" transform="translate(-14 -6)" fill="#a0d468"/>
        </g>
        <g id="Grupo_1100003" data-name="Grupo 1100003" transform="translate(12.74 66.886)">
          <path id="Trazado_875882" data-name="Trazado 875882" d="M25.925,44.462V59.925H10V44H25.925Z" transform="translate(-10 -44)" fill="#ff826e"/>
        </g>
        <g id="Grupo_1100004" data-name="Grupo 1100004" transform="translate(12.74 44.591)">
          <path id="Trazado_875883" data-name="Trazado 875883" d="M25.925,30.462V45.925H10V30H25.925Z" transform="translate(-10 -30)" fill="#ff826e"/>
        </g>
      </g>
      <g id="Grupo_1100006" data-name="Grupo 1100006" transform="translate(1 1)">
        <circle id="Elipse_11814" data-name="Elipse 11814" cx="1.5" cy="1.5" r="1.5" transform="translate(64 44.737)"/>
        <ellipse id="Elipse_11815" data-name="Elipse 11815" cx="2" cy="1.5" rx="2" ry="1.5" transform="translate(76 44.737)"/>
        <path id="Trazado_875884" data-name="Trazado 875884" d="M49.37,38.185H43V41.37h6.37A6.377,6.377,0,0,0,55.74,35H52.555A3.188,3.188,0,0,1,49.37,38.185Z" transform="translate(23.886 19.146)"/>
        <path id="Trazado_875885" data-name="Trazado 875885" d="M97.257,36.036h2.48V23.3H97.264a4.482,4.482,0,0,1-3.152-7.66L95.846,13.9,86.836,4.891,85.1,6.628a4.485,4.485,0,0,1-7.662-3.153V1H64.7V3.48a4.484,4.484,0,0,1-7.665,3.144L55.305,4.892,52.827,7.37H4.185A3.188,3.188,0,0,0,1,10.555v86a3.188,3.188,0,0,0,3.185,3.185H99.737v-7.7a24.364,24.364,0,0,0-19.48-23.925L79.921,67.1a11.166,11.166,0,0,0,6.948-8.773H87A6.36,6.36,0,0,0,92.3,48.449l.508-2.032a18.01,18.01,0,0,0,.29-7.525c.013-.035.024-.072.038-.107a4.447,4.447,0,0,1,4.118-2.75Zm-49.225-20.4a4.489,4.489,0,0,1,.892,1.292H42.406v-6.37h7.236L46.3,13.9Zm-3.163,20.4a4.483,4.483,0,0,1,3.171,7.652L46.3,45.43l3.344,3.346H45.591v3.185h6.37a6.3,6.3,0,0,0,.885,3.185H36.036v3.185H58.458A11.166,11.166,0,0,0,65.407,67.1l-.336,1.008a24.485,24.485,0,0,0-7.623,2.959H45.591v3.185h7.655a24.216,24.216,0,0,0-2.832,3.185H36.036v3.185H48.418a24.4,24.4,0,0,0-2.744,9.555H10.555V20.11H49.149c-.043.145-.084.29-.142.432A4.459,4.459,0,0,1,44.879,23.3H42.406v12.74ZM52.041,43.2a18.575,18.575,0,0,0,.476,3.218l.244.971-1.981-1.981A7.624,7.624,0,0,0,52.041,43.2Zm3.105-13.532A15.921,15.921,0,0,1,86.88,27.815a18.642,18.642,0,0,0-3.9-2.578,12.709,12.709,0,0,0-24.5,2.546,18.737,18.737,0,0,0-3.238,3.586,15.941,15.941,0,0,1-.1-1.7ZM89.721,45.645l-.127.511a6.328,6.328,0,0,0-2.6-.565V44a4.783,4.783,0,0,0-4.778-4.778H69.479a1.594,1.594,0,0,1-1.593-1.593V32.851H64.7V36.2a7.976,7.976,0,0,0-6.37,7.8v1.593a6.3,6.3,0,0,0-2.6.567l-.127-.511A15.426,15.426,0,0,1,70.57,26.48h4.19A15.425,15.425,0,0,1,89.721,45.645Zm-31.39,9.5a3.185,3.185,0,0,1,0-6.37ZM62.711,25.06a9.523,9.523,0,0,1,15.78-1.387,18.6,18.6,0,0,0-3.733-.377h-4.19A18.48,18.48,0,0,0,62.711,25.06Zm16.54,46.091c.326.062.648.131.968.205l-.71,3.555L75.972,72.79ZM55.146,87v9.555h-6.37V92.037a21.187,21.187,0,0,1,13.28-19.7l1.527,7.636,5.1-3.061.729,2.188L65.05,96.552H58.331V87Zm17.169-6.37h.7L77,96.552h-8.66Zm.793-3.185h-.89l-.737-2.21,1.183-.71,1.182.709Zm-7.289-2.529-.71-3.555q.48-.115.968-.205l3.279,1.639ZM23.3,16.925v-6.37H39.221v6.37Zm-19.11-6.37H20.11v6.37H7.37V93.367H45.591v3.185H4.185ZM96.552,92.037v4.515h-6.37V87H87v9.555H80.278L75.914,79.1l.729-2.188,5.1,3.061,1.527-7.636a21.187,21.187,0,0,1,13.28,19.7ZM77.086,68.671l-4.422,2.212-4.422-2.212.279-.834c.317.029.635.049.959.049h6.37c.323,0,.642-.021.959-.049Zm6.725-11.933A7.972,7.972,0,0,1,75.849,64.7h-6.37a7.972,7.972,0,0,1-7.963-7.963V44a4.786,4.786,0,0,1,3.521-4.61,4.786,4.786,0,0,0,4.442,3.018h12.74A1.594,1.594,0,0,1,83.812,44ZM87,55.146v-6.37a3.185,3.185,0,0,1,0,6.37Zm3.082-23.781c.051-.565.1-1.132.1-1.7A19.11,19.11,0,1,0,53,35.835a18.412,18.412,0,0,0-.718,2.717,7.877,7.877,0,0,0-.328-.975,7.64,7.64,0,0,0-6.361-4.692V26.449a7.669,7.669,0,0,0,5.187-12.522l4.553-4.555A7.668,7.668,0,0,0,67.853,4.187h6.435A7.67,7.67,0,0,0,86.812,9.374l4.551,4.553A7.669,7.669,0,0,0,96.55,26.449v6.435A7.607,7.607,0,0,0,92,34.945a18.379,18.379,0,0,0-1.924-3.58Z" transform="translate(-1 -1)"/>
        <path id="Trazado_875886" data-name="Trazado 875886" d="M28.505,41.342l-2.311,2.64H9v19.11H28.11V46.628l2.79-3.19Zm-3.58,18.566H12.185V47.167H23.406L18.477,52.8,16.5,50.819l-2.252,2.252,4.389,4.389,6.292-7.192Z" transform="translate(3.74 22.904)"/>
        <path id="Trazado_875887" data-name="Trazado 875887" d="M23,45h6.37v3.185H23Z" transform="translate(12.036 25.071)"/>
        <path id="Trazado_875888" data-name="Trazado 875888" d="M26.195,29.982H9v19.11H28.11V32.628l2.79-3.19-2.4-2.1ZM24.925,45.908H12.185V33.167H23.406L18.477,38.8,16.5,36.819l-2.252,2.252,4.389,4.389,6.292-7.192Z" transform="translate(3.74 14.608)"/>
        <path id="Trazado_875889" data-name="Trazado 875889" d="M23,31h6.37v3.185H23Z" transform="translate(12.036 16.776)"/>
        <path id="Trazado_875890" data-name="Trazado 875890" d="M9,15h9.555v3.185H9Z" transform="translate(3.74 7.295)"/>
        <path id="Trazado_875891" data-name="Trazado 875891" d="M17,15H29.74v3.185H17Z" transform="translate(8.48 7.295)"/>
        <path id="Trazado_875892" data-name="Trazado 875892" d="M9,19H34.48v3.185H9Z" transform="translate(3.74 9.666)"/>
        <path id="Trazado_875893" data-name="Trazado 875893" d="M9,23H34.48v3.185H9Z" transform="translate(3.74 12.036)"/>
      </g>
    </g>
  </g>
</svg>
