<svg xmlns="http://www.w3.org/2000/svg" xmlns:xlink="http://www.w3.org/1999/xlink" width="620.995" height="465.767" viewBox="0 0 620.995 465.767">
  <defs>
    <clipPath id="clip-path">
      <path id="Background" d="M0,0H599.985a20,20,0,0,1,20,20V445.767a20,20,0,0,1-20,20H0a0,0,0,0,1,0,0V0A0,0,0,0,1,0,0Z" transform="translate(0 0)" fill="#aee6e6"/>
    </clipPath>
    <clipPath id="clip-path-2">
      <path id="Trazado_875587" data-name="Trazado 875587" d="M.016.009,53.33-.06,53.2,114.162l-53.314.069Z" transform="translate(43.914 124.052) rotate(-152.705)" fill="none" stroke="#aee6e6" stroke-width="1"/>
    </clipPath>
  </defs>
  <g id="Grupo_1100012" data-name="Grupo 1100012" transform="translate(-810 -4829.282)">
    <path id="Background-2" data-name="Background" d="M0,0H601a20,20,0,0,1,20,20V445.767a20,20,0,0,1-20,20H0a0,0,0,0,1,0,0V0A0,0,0,0,1,0,0Z" transform="translate(810 4829.282)" fill="#7d6eb2"/>
    <g id="Enmascarar_grupo_1098745" data-name="Enmascarar grupo 1098745" transform="translate(810.995 4829.282)" clip-path="url(#clip-path)">
      <g id="Grupo_1099886" data-name="Grupo 1099886" transform="translate(-73.712 -21.986)">
        <g id="Grupo_1099880" data-name="Grupo 1099880" transform="matrix(-0.469, -0.883, 0.883, -0.469, 558.769, 535.542)">
          <g id="Enmascarar_grupo_1098744" data-name="Enmascarar grupo 1098744" transform="translate(0 0)" clip-path="url(#clip-path-2)">
            <g id="Grupo_1099879" data-name="Grupo 1099879" transform="translate(-38.074 -14.7)">
              <path id="Trazado_875578" data-name="Trazado 875578" d="M49.719-.87C77.112-1.423,98.87,22.472,98.317,52.5s-23.207,54.822-50.6,55.375S-1.434,84.534-.881,54.5,22.327-.318,49.719-.87Z" transform="matrix(0.958, 0.286, -0.286, 0.958, 29.184, -1.078)" fill="none" stroke="#aee6e6" stroke-width="2"/>
              <path id="Trazado_875579" data-name="Trazado 875579" d="M46.927,1.831C73,2.993,95.078,24.23,96.24,49.265S77.207,93.654,51.134,92.492,2.983,70.093,1.821,45.057,20.854.669,46.927,1.831Z" transform="translate(103.295 11.194) rotate(85.029)" fill="none" stroke="#aee6e6" stroke-width="2"/>
              <path id="Trazado_875580" data-name="Trazado 875580" d="M40.915,1.671c22.739,1.062,42.033,19.8,43.1,41.856S67.5,82.6,44.76,81.54s-42.033-19.8-43.1-41.856S18.176.61,40.915,1.671Z" transform="matrix(0.14, 0.99, -0.99, 0.14, 95.739, 15.873)" fill="none" stroke="#aee6e6" stroke-width="2"/>
              <path id="Trazado_875581" data-name="Trazado 875581" d="M34.04-1.257c18.7-.794,33.223,14.593,32.429,34.369s-16.6,36.451-35.305,37.246S-2.06,55.765-1.266,35.989,15.336-.462,34.04-1.257Z" transform="translate(27.958 29.576)" fill="none" stroke="#aee6e6" stroke-width="2"/>
              <path id="Trazado_875582" data-name="Trazado 875582" d="M28.186-.868c15.5-.55,27.621,12.514,27.071,29.18S41.7,58.933,26.195,59.483-1.426,46.968-.876,30.3,12.685-.318,28.186-.868Z" transform="translate(36.762 32.003) rotate(6.323)" fill="none" stroke="#aee6e6" stroke-width="2"/>
              <path id="Trazado_875583" data-name="Trazado 875583" d="M24.417,49.033c12.532.509,22.279-9.876,21.77-23.2S35.106,1.307,22.574.8.295,10.674.8,23.993,11.885,48.524,24.417,49.033Z" transform="matrix(0.586, 0.81, -0.81, 0.586, 66.988, 30.489)" fill="none" stroke="#aee6e6" stroke-width="2"/>
              <path id="Trazado_875584" data-name="Trazado 875584" d="M17.209.689c9.561.44,17.669,8.884,18.108,18.861S28.363,37.259,18.8,36.819,1.133,27.934.693,17.958,7.648.25,17.209.689Z" transform="translate(67.953 39.202) rotate(60.355)" fill="none" stroke="#aee6e6" stroke-width="2"/>
              <path id="Trazado_875585" data-name="Trazado 875585" d="M11.413-.13c6.293-.083,11.328,5.469,11.245,12.4s-5.252,12.616-11.545,12.7S-.215,19.5-.132,12.569,5.12-.047,11.413-.13Z" transform="translate(54.419 48.526) rotate(20.72)" fill="none" stroke="#aee6e6" stroke-width="2"/>
              <path id="Trazado_875586" data-name="Trazado 875586" d="M.57,3.486c-1.667,3.221-.652,7.05,2.267,8.552s6.638.108,8.3-3.113.652-7.05-2.268-8.551S2.236.265.57,3.486Z" transform="translate(54.704 57.921)" fill="none" stroke="#aee6e6" stroke-miterlimit="10" stroke-width="2"/>
            </g>
          </g>
        </g>
        <g id="Grupo_1099885" data-name="Grupo 1099885" transform="translate(0 42.787)">
          <g id="Grupo_1099881" data-name="Grupo 1099881" transform="translate(0 0)">
            <path id="Trazado_875588" data-name="Trazado 875588" d="M807.9,391.326c-4.658,0-4.658,2.531-9.316,2.531s-4.658-2.531-9.316-2.531-4.657,2.531-9.313,2.531-4.657-2.531-9.316-2.531-4.658,2.531-9.317,2.531-4.658-2.531-9.316-2.531-4.658,2.531-9.316,2.531-4.658-2.531-9.317-2.531-4.66,2.531-9.318,2.531-4.659-2.531-9.317-2.531-4.659,2.531-9.318,2.531-4.66-2.531-9.318-2.531-4.657,2.531-9.315,2.531-4.659-2.531-9.318-2.531-4.66,2.531-9.32,2.531-4.659-2.531-9.318-2.531-4.662,2.531-9.325,2.531-4.662-2.531-9.324-2.531" transform="translate(-640.186 -391.326)" fill="none" stroke="#ffd947" stroke-miterlimit="10" stroke-width="2"/>
          </g>
          <g id="Grupo_1099882" data-name="Grupo 1099882" transform="translate(0 10.901)">
            <path id="Trazado_875589" data-name="Trazado 875589" d="M807.9,408.556c-4.658,0-4.658,2.531-9.316,2.531s-4.658-2.531-9.316-2.531-4.657,2.531-9.313,2.531-4.657-2.531-9.316-2.531-4.658,2.531-9.317,2.531-4.658-2.531-9.316-2.531-4.658,2.531-9.316,2.531-4.658-2.531-9.317-2.531-4.66,2.531-9.318,2.531-4.659-2.531-9.317-2.531-4.659,2.531-9.318,2.531-4.66-2.531-9.318-2.531-4.657,2.531-9.315,2.531-4.659-2.531-9.318-2.531-4.66,2.531-9.32,2.531-4.659-2.531-9.318-2.531-4.662,2.531-9.325,2.531-4.662-2.531-9.324-2.531" transform="translate(-640.186 -408.556)" fill="none" stroke="#ffd947" stroke-miterlimit="10" stroke-width="2"/>
          </g>
          <g id="Grupo_1099883" data-name="Grupo 1099883" transform="translate(0 21.802)">
            <path id="Trazado_875590" data-name="Trazado 875590" d="M807.9,425.786c-4.658,0-4.658,2.531-9.316,2.531s-4.658-2.531-9.316-2.531-4.657,2.531-9.313,2.531-4.657-2.531-9.316-2.531-4.658,2.531-9.317,2.531-4.658-2.531-9.316-2.531-4.658,2.531-9.316,2.531-4.658-2.531-9.317-2.531-4.66,2.531-9.318,2.531-4.659-2.531-9.317-2.531-4.659,2.531-9.318,2.531-4.66-2.531-9.318-2.531-4.657,2.531-9.315,2.531-4.659-2.531-9.318-2.531-4.66,2.531-9.32,2.531-4.659-2.531-9.318-2.531-4.662,2.531-9.325,2.531-4.662-2.531-9.324-2.531" transform="translate(-640.186 -425.786)" fill="none" stroke="#ffd947" stroke-miterlimit="10" stroke-width="2"/>
          </g>
          <g id="Grupo_1099884" data-name="Grupo 1099884" transform="translate(0 32.704)">
            <path id="Trazado_875591" data-name="Trazado 875591" d="M807.9,443.016c-4.658,0-4.658,2.531-9.316,2.531s-4.658-2.531-9.316-2.531-4.657,2.531-9.313,2.531-4.657-2.531-9.316-2.531-4.658,2.531-9.317,2.531-4.658-2.531-9.316-2.531-4.658,2.531-9.316,2.531-4.658-2.531-9.317-2.531-4.66,2.531-9.318,2.531-4.659-2.531-9.317-2.531-4.659,2.531-9.318,2.531-4.66-2.531-9.318-2.531-4.657,2.531-9.315,2.531-4.659-2.531-9.318-2.531-4.66,2.531-9.32,2.531-4.659-2.531-9.318-2.531-4.662,2.531-9.325,2.531-4.662-2.531-9.324-2.531" transform="translate(-640.186 -443.016)" fill="none" stroke="#ffd947" stroke-miterlimit="10" stroke-width="2"/>
          </g>
        </g>
        <path id="Shape_2" data-name="Shape 2" d="M156.19,78.022V0H0A27.229,27.229,0,0,0,3.259,1.2c5.824,1.74,12.25,2.17,17.875,4.317A31.268,31.268,0,0,1,34.758,15.766C38.23,20.194,41.1,24.83,46.451,28.193c5.882,3.695,13.476,5.5,20.871,6.689a37.271,37.271,0,0,1,18.919,8.5c2.774,2.471,4.914,5.309,7.637,7.812a23.52,23.52,0,0,0,12.794,5.872c4.491.679,9.657.78,13.425,2.986a9.791,9.791,0,0,1,4.426,6.331c1.138,4.1,1.076,9.525,6.476,11.635Z" transform="translate(560.527 0)" fill="#aee6e6"/>
      </g>
    </g>
  </g>
</svg>
