<svg id="Grupo_12268" data-name="Grupo 12268" xmlns="http://www.w3.org/2000/svg" width="161.711" height="120.309" viewBox="0 0 161.711 120.309">
  <g id="Grupo_12267" data-name="Grupo 12267">
    <path id="Trazado_16210" data-name="Trazado 16210" d="M1215.41,400.344a3.159,3.159,0,0,0-4.316,1.156c-.97,1.683-5.635,2.278-6.9,1.7a3.158,3.158,0,0,0-3.3,5.384,9.316,9.316,0,0,0,4.839,1.128,16.983,16.983,0,0,0,4.032-.5,10.564,10.564,0,0,0,6.806-4.552,3.16,3.16,0,0,0-1.156-4.314Z" transform="translate(-1155.05 -358.419)" fill="#62529b"/>
    <path id="Trazado_16211" data-name="Trazado 16211" d="M1322.177,401.939c-15.8-15.658-29.522-29.257-45.083-21.954-5.218-3.59-12.418-6.249-24.822-6.249s-19.6,2.66-24.822,6.249c-15.561-7.3-29.283,6.294-45.082,21.954a36.272,36.272,0,0,0-10.859,28.974,52.176,52.176,0,0,0,7.531,23.071c2.993,4.82,6.756,7.462,10.079,9.794,3.926,2.756,7.026,4.933,8.267,10.2,1.221,5.183,4.136,5.948,5.752,5.948a4.617,4.617,0,0,0,.983-.1c5.139-1.113,7.483-9.8,8.253-13.491a66.981,66.981,0,0,0,.68-20.694c6.332,4.062,7.1,7.993,7.185,8.637-.093,2.733-.477,5.861-.884,9.172-1.007,8.172-2.046,16.623,1.033,21.911,3.165,5.435,7.75,8.679,12.266,8.679,2.348,0,5.576-.878,8.644-4.62a22.146,22.146,0,0,0,21.948,0c3.069,3.742,6.3,4.62,8.644,4.62,4.515,0,9.1-3.244,12.266-8.679,3.08-5.288,2.04-13.739,1.033-21.911-.407-3.311-.791-6.44-.884-9.172.085-.644.853-4.574,7.185-8.637a66.955,66.955,0,0,0,.676,20.668c.768,3.691,3.112,12.4,8.256,13.517a4.63,4.63,0,0,0,.984.1c1.618,0,4.533-.767,5.753-5.948,1.239-5.272,4.341-7.448,8.268-10.2,3.32-2.332,7.085-4.974,10.077-9.8a52.112,52.112,0,0,0,7.531-23.07,36.262,36.262,0,0,0-10.857-28.974Zm-115.771,62.015a25.949,25.949,0,0,1-2.867,8.589l0-.01c-1.791-7.611-6.364-10.821-10.787-13.926-3.1-2.176-6.029-4.232-8.342-7.957-1.645-2.65-15.561-26.414,2.41-44.225,15.212-15.079,25.063-24.166,35.063-21.741-.764.748-1.505,1.506-2.245,2.26-.623.637-1.25,1.279-1.9,1.918-7.3,7.232-16.995,18.357-16.995,31.427,0,.666,0,1.306,0,1.924-.027,8.215-.043,13.548,5.2,18.492a64.512,64.512,0,0,1,.463,23.247Zm38.341,20.188a18.4,18.4,0,0,1,4.092-4.914,3.6,3.6,0,0,1,2.63-.55c.529.013,1.078.013,1.609,0a3.6,3.6,0,0,1,2.629.55,18.386,18.386,0,0,1,4.092,4.914,16.032,16.032,0,0,1-15.052,0Zm7.526-23.223c-2.518,0-2.877-.445-3.831-1.633a12.289,12.289,0,0,0-2.875-2.774,13.2,13.2,0,0,0-4.049-1.641,7.4,7.4,0,0,1-1.761-.609,1.968,1.968,0,0,1-.115-.848c0-3.3,6.374-6.667,12.632-6.667s12.634,3.365,12.634,6.667a2.268,2.268,0,0,1-.1.834,7,7,0,0,1-1.772.623,13.2,13.2,0,0,0-4.05,1.641,12.285,12.285,0,0,0-2.876,2.774c-.954,1.187-1.312,1.633-3.832,1.633Zm26.426,21.267c-1.93,3.316-4.667,5.543-6.807,5.543-2.168,0-3.987-2.344-5.133-4.311-2.839-4.874-5.134-7.765-7.442-9.372a8.977,8.977,0,0,0-3.887-1.576v-5.535a9.081,9.081,0,0,0,5.6-3.69,6.514,6.514,0,0,1,1.455-1.476,8.082,8.082,0,0,1,2.194-.8c2.289-.618,6.548-1.767,6.548-7.554,0-7.765-9.8-12.983-18.952-12.983s-18.95,5.218-18.95,12.983c0,5.787,4.259,6.936,6.546,7.554a8.077,8.077,0,0,1,2.194.8,6.533,6.533,0,0,1,1.456,1.476,9.078,9.078,0,0,0,5.6,3.69v5.535a8.979,8.979,0,0,0-3.886,1.576c-2.308,1.607-4.6,4.5-7.441,9.372-1.146,1.967-2.966,4.311-5.133,4.311-2.141,0-4.877-2.227-6.807-5.543-2.009-3.449-1.06-11.158-.222-17.959.414-3.371.844-6.857.936-9.919.236-7.778,5.785-16.568,14.483-22.941,5.027-3.682,7.483-11.2,8.21-25.124a3.158,3.158,0,1,0-6.308-.33c-.218,4.173-.883,16.875-5.635,20.358-7.218,5.287-12.5,11.929-15.149,18.784a29.693,29.693,0,0,0-7.323-5.712c-7.823-4.476-7.815-6.9-7.783-17.108,0-.625,0-1.271,0-1.943,0-10.71,8.632-20.5,15.126-26.94.673-.669,1.329-1.339,1.965-1.987,5.939-6.069,11.069-11.309,28.121-11.309.946,0,1.849.018,2.723.049.023,2.716.021,5.492.015,8.2-.027,18.93-.053,36.808,8.491,43.068,8.7,6.372,14.248,15.162,14.482,22.941.093,3.061.521,6.546.937,9.917.837,6.8,1.787,14.51-.222,17.959Zm3.686-37.13c-2.652-6.857-7.932-13.5-15.149-18.785-5.957-4.362-5.93-22.212-5.908-37.961,0-2.517.007-5.093-.011-7.638,10.128,1.555,14.35,5.86,19.079,10.691.634.648,1.29,1.319,1.965,1.987,6.492,6.435,15.124,16.23,15.124,26.94,0,.672,0,1.319.006,1.943.023,7.923.031,11.157-3.624,14.3a3.529,3.529,0,0,0-.385.319,28.979,28.979,0,0,1-3.775,2.488A29.632,29.632,0,0,0,1282.385,445.056Zm37.753,5.6c-2.311,3.725-5.24,5.781-8.341,7.957-4.421,3.105-8.994,6.315-10.786,13.926l0,.011a25.941,25.941,0,0,1-2.871-8.613,64.469,64.469,0,0,1,.466-23.223c5.245-4.945,5.227-10.279,5.2-18.494,0-.62,0-1.26,0-1.924,0-13.07-9.7-24.2-16.994-31.427-.647-.639-1.274-1.281-1.9-1.919-.739-.753-1.481-1.51-2.243-2.26,10-2.422,19.856,6.67,35.063,21.743C1335.7,424.237,1321.785,448,1320.137,450.651Z" transform="translate(-1171.417 -373.736)" fill="#62529b"/>
    <path id="Trazado_16212" data-name="Trazado 16212" d="M1247.166,403.195c-1.27.582-5.934-.013-6.907-1.7a3.158,3.158,0,0,0-5.469,3.159,10.562,10.562,0,0,0,6.806,4.552,16.975,16.975,0,0,0,4.03.5,9.316,9.316,0,0,0,4.839-1.128,3.158,3.158,0,0,0-3.3-5.386Z" transform="translate(-1134.592 -358.419)" fill="#62529b"/>
    <path id="Trazado_16213" data-name="Trazado 16213" d="M1219.879,383.183h0a3.159,3.159,0,1,0,3.161,3.159A3.158,3.158,0,0,0,1219.875,383.183Z" transform="translate(-1144.916 -368.21)" fill="#62529b"/>
  </g>
</svg>
