<svg xmlns="http://www.w3.org/2000/svg" width="78.501" height="67.148" viewBox="0 0 78.501 67.148">
  <g id="Grupo_1099954" data-name="Grupo 1099954" transform="translate(-1075.749 -10250.033)">
    <path id="_12068" data-name="12068" d="M72.033,71.913c-8.038-1.11-16.53-.839-23.844,2.675C38.045,79.46,31.382,90.507,31.127,101.757s5.606,22.305,14.66,28.988,21,9.051,32.068,7.045c11.165-2.023,21.645-8.583,27.469-18.322,3.735-6.245,5.48-13.956,3.417-20.934a28.6,28.6,0,0,0-6.787-11.156A50.145,50.145,0,0,0,72.033,71.913Z" transform="translate(1044.63 10178.7)" fill="#26aab7"/>
    <g id="amenaza" transform="translate(1075.759 10181.82)">
      <g id="Grupo_1099941" data-name="Grupo 1099941" transform="translate(1.218 71.114)">
        <path id="Trazado_875752" data-name="Trazado 875752" d="M116.559,131.968,137,167.372a5.68,5.68,0,0,1-4.917,8.518H91.2a5.68,5.68,0,0,1-4.917-8.518l20.44-35.4a5.678,5.678,0,0,1,9.834,0Z" transform="translate(-73.62 -121.273)" fill="#f5ca56" fill-rule="evenodd"/>
        <g id="Grupo_1099940" data-name="Grupo 1099940" transform="translate(0 0)">
          <path id="Trazado_875753" data-name="Trazado 875753" d="M237.107,212.813l.682,13.683a2.162,2.162,0,0,0,2.16,2.059h.1a2.161,2.161,0,0,0,2.163-2.059l.682-13.683a2.836,2.836,0,0,0-2.829-2.973h-.126a2.831,2.831,0,0,0-2.83,2.973Z" transform="translate(-201.978 -189.609)" fill="#ff4646" fill-rule="evenodd"/>
          <path id="Trazado_875754" data-name="Trazado 875754" d="M241.843,372.077a2.563,2.563,0,1,0-2.563-2.563A2.568,2.568,0,0,0,241.843,372.077Z" transform="translate(-203.821 -322.631)" fill="#ff4646" fill-rule="evenodd"/>
          <path id="Trazado_875755" data-name="Trazado 875755" d="M122.444,81.054a2.112,2.112,0,1,1,3.655-2.117l3.014,5.22a2.112,2.112,0,1,1-3.655,2.117Z" transform="translate(-104.656 -77.883)" fill="#ff4646"/>
          <path id="Trazado_875756" data-name="Trazado 875756" d="M39.687,165.394a2.108,2.108,0,1,1,2.1-3.655l5.22,3.014a2.108,2.108,0,1,1-2.1,3.655Z" transform="translate(-33.932 -148.644)" fill="#ff4646"/>
          <path id="Trazado_875757" data-name="Trazado 875757" d="M10.117,279.765a2.117,2.117,0,1,1,0-4.235h6.028a2.117,2.117,0,1,1,0,4.235Z" transform="translate(-8 -245.228)" fill="#ff4646"/>
          <path id="Trazado_875758" data-name="Trazado 875758" d="M345.925,78.943a2.112,2.112,0,1,1,3.655,2.117l-3.014,5.22a2.112,2.112,0,1,1-3.655-2.117Z" transform="translate(-291.323 -77.888)" fill="#ff4646"/>
          <path id="Trazado_875759" data-name="Trazado 875759" d="M418.078,161.749a2.108,2.108,0,1,1,2.1,3.655l-5.22,3.014a2.108,2.108,0,1,1-2.1-3.655Z" transform="translate(-349.889 -148.653)" fill="#ff4646"/>
          <path id="Trazado_875760" data-name="Trazado 875760" d="M445.206,275.53a2.117,2.117,0,1,1,0,4.235h-6.028a2.117,2.117,0,1,1,0-4.235Z" transform="translate(-371.278 -245.228)" fill="#ff4646"/>
        </g>
        <path id="Trazado_875761" data-name="Trazado 875761" d="M94.108,175.88H91.2a5.68,5.68,0,0,1-4.917-8.518l20.44-35.4a5.541,5.541,0,0,1,4.917-2.838,5.874,5.874,0,0,1,1.452.176,5.536,5.536,0,0,0-3.465,2.662l-20.44,35.405a5.679,5.679,0,0,0,4.918,8.517Z" transform="translate(-73.62 -121.265)" fill="#deac2f" fill-rule="evenodd"/>
      </g>
      <path id="Trazado_875762" data-name="Trazado 875762" d="M45.218,81.194a6.907,6.907,0,0,0-11.96,0l-20.44,35.4a6.905,6.905,0,0,0,5.982,10.36H59.679a6.906,6.906,0,0,0,5.982-10.36L49.917,89.332Zm18.318,41.081a4.3,4.3,0,0,1-3.857,2.225H18.8a4.449,4.449,0,0,1-3.856-6.675l20.439-35.4a4.453,4.453,0,0,1,7.71,0l20.442,35.4a4.319,4.319,0,0,1,0,4.451ZM39.3,90.12h-.13a4.057,4.057,0,0,0-4.055,4.259v0l.682,13.68a3.39,3.39,0,0,0,3.39,3.227h.1a3.39,3.39,0,0,0,3.39-3.227l.678-13.682A4.05,4.05,0,0,0,39.3,90.12Zm1.6,4.14-.678,13.682a.939.939,0,0,1-.938.892h-.1a.939.939,0,0,1-.938-.894l-.682-13.68a1.6,1.6,0,0,1,1.6-1.685h.13a1.595,1.595,0,0,1,1.6,1.685ZM39.24,114.2A3.792,3.792,0,1,0,43.032,118,3.8,3.8,0,0,0,39.24,114.2Zm0,5.128A1.337,1.337,0,1,1,40.577,118,1.338,1.338,0,0,1,39.24,119.333ZM20.959,80.123a3.339,3.339,0,1,0,5.78-3.345L23.72,71.549A3.339,3.339,0,0,0,17.942,74.9Zm-.57-7.66a.888.888,0,0,1,1.208.32l3.016,5.223a.884.884,0,0,1-1.529.888l-3.016-5.223a.005.005,0,0,0,0,0,.884.884,0,0,1,.322-1.205ZM6.359,88.926l5.222,3.016a3.316,3.316,0,0,0,1.66.448,3.36,3.36,0,0,0,.875-.117,3.306,3.306,0,0,0,2.021-1.561,3.345,3.345,0,0,0-1.228-4.55L9.684,83.143a3.336,3.336,0,0,0-3.325,5.783Zm.9-3.327a.891.891,0,0,1,.771-.443.862.862,0,0,1,.432.115l5.22,3.016a.884.884,0,0,1,.325,1.205.872.872,0,0,1-1.2.324L7.587,86.8l0,0a.882.882,0,0,1-.327-1.2Zm2.11,14.591H3.334a3.344,3.344,0,0,0,0,6.688H9.365a3.344,3.344,0,0,0,0-6.688Zm0,4.233H3.334a.889.889,0,1,1,0-1.778H9.365a.889.889,0,0,1,0,1.778ZM52.959,81.341a3.344,3.344,0,0,0,4.564-1.219L60.539,74.9a3.339,3.339,0,0,0-5.782-3.344l-3.016,5.223A3.349,3.349,0,0,0,52.959,81.341Zm.908-3.335,3.016-5.223a.884.884,0,1,1,1.529.889L55.4,78.9a.884.884,0,1,1-1.529-.889Zm10.5,14.266a3.318,3.318,0,0,0,2.536-.331l5.214-3.013A3.335,3.335,0,1,0,68.8,83.143l0,0-5.217,3.014a3.34,3.34,0,0,0,.788,6.114Zm.02-3.45a.887.887,0,0,1,.417-.538l5.217-3.016a.88.88,0,1,1,.872,1.529l-5.219,3.016a.864.864,0,0,1-.665.087.876.876,0,0,1-.534-.415A.857.857,0,0,1,64.384,88.823ZM75.147,100.19H69.115a3.344,3.344,0,0,0,0,6.688h6.031a3.344,3.344,0,1,0,0-6.688Zm0,4.233H69.115a.889.889,0,1,1,0-1.778h6.031a.889.889,0,1,1,0,1.778Z" transform="translate(0)" fill="#00223d"/>
    </g>
  </g>
</svg>
