<svg xmlns="http://www.w3.org/2000/svg" width="78.501" height="74.271" viewBox="0 0 78.501 74.271">
  <g id="Grupo_1099955" data-name="Grupo 1099955" transform="translate(-760.749 -10242.911)">
    <path id="_12068" data-name="12068" d="M72.033,71.913c-8.038-1.11-16.53-.839-23.844,2.675C38.045,79.46,31.382,90.507,31.127,101.757s5.606,22.305,14.66,28.988,21,9.051,32.068,7.045c11.165-2.023,21.645-8.583,27.469-18.322,3.735-6.245,5.48-13.956,3.417-20.934a28.6,28.6,0,0,0-6.787-11.156A50.145,50.145,0,0,0,72.033,71.913Z" transform="translate(729.63 10178.7)" fill="#26aab7"/>
    <g id="oportunidad" transform="translate(764.337 10242.911)">
      <path id="Trazado_875763" data-name="Trazado 875763" d="M360,69.3V40.32l6.687-5.572v-15.6H360L370.17,8l9.891,11.145h-5.572V39.206L367.8,44.778V69.3Z" transform="translate(-309.848 -6.886)" fill="#f4b651"/>
      <path id="Trazado_875764" data-name="Trazado 875764" d="M366.687,19.145v15.6L360,40.32V69.3h3.761V42.549l6.408-5.99V8L360,19.145Z" transform="translate(-309.848 -6.886)" fill="#f2a536"/>
      <path id="Trazado_875765" data-name="Trazado 875765" d="M29.175,69.3V40.32l-6.687-5.572v-15.6h6.687L19.006,8,8,19.145h6.687V39.206l6.687,5.572V69.3Z" transform="translate(-6.886 -6.886)" fill="#3dfaff"/>
      <path id="Trazado_875766" data-name="Trazado 875766" d="M93.408,42.549V69.3H97.17V40.32l-6.687-5.572v-15.6H97.17L87,8V36.559Z" transform="translate(-74.88 -6.886)" fill="#2dd"/>
      <path id="Trazado_875767" data-name="Trazado 875767" d="M168.32,312.359V327.4h-5.34v4.458H141.572V327.4H136V312.359A8.359,8.359,0,0,1,144.359,304h15.6A8.359,8.359,0,0,1,168.32,312.359Z" transform="translate(-117.054 -261.649)" fill="#7d6eb2"/>
      <path id="Trazado_875768" data-name="Trazado 875768" d="M221.374,171.671a3.9,3.9,0,0,1-2.987,4.066,2.215,2.215,0,0,0-1.471,2.1v2.229h-4.458v-2.229a2.215,2.215,0,0,0-1.471-2.1A3.9,3.9,0,0,1,208,171.671v-7.213A4.458,4.458,0,0,1,212.458,160h4.458a4.458,4.458,0,0,1,4.458,4.458Z" transform="translate(-179.024 -137.71)" fill="#894619"/>
      <path id="Trazado_875769" data-name="Trazado 875769" d="M141.572,472v4.458h-4.458L136,472Z" transform="translate(-117.054 -406.245)" fill="#fdcaa7"/>
      <path id="Trazado_875770" data-name="Trazado 875770" d="M335.01,472l-1.115,4.458H329.67V472Z" transform="translate(-283.743 -406.245)" fill="#fdcaa7"/>
      <path id="Trazado_875771" data-name="Trazado 875771" d="M190.687,25.832V19.145H184L195.145,8l10.03,11.145h-6.687v6.687Z" transform="translate(-158.367 -6.886)" fill="#f2cb2a"/>
      <path id="Trazado_875772" data-name="Trazado 875772" d="M238.164,281.114v2.229h4.458v-2.229a2.242,2.242,0,0,1,.3-1.114h-5.052A2.242,2.242,0,0,1,238.164,281.114Z" transform="translate(-204.73 -240.993)" fill="#fdcaa7"/>
      <path id="Trazado_875773" data-name="Trazado 875773" d="M150.191,171.564V160.079a4.458,4.458,0,0,0-4.161,4.447v7.213a3.9,3.9,0,0,0,2.987,4.066,2.215,2.215,0,0,1,1.471,2.1v2.229h-6.13A8.359,8.359,0,0,0,136,188.488v15.046h5.572v5.572h3v-5.572l0-15.6c-.209-5.589,8.7-7.8,8.7-7.8v-3.875a2.116,2.116,0,0,0-1.2-1.907l-.191-.091A2.985,2.985,0,0,1,150.191,171.564Z" transform="translate(-117.054 -137.778)" fill="#fafbfc" opacity="0.2"/>
      <path id="Trazado_875774" data-name="Trazado 875774" d="M266.483,19.5h6.687l-9.78-10.867-.308-.22L263,8.5V26.191h3.483Z" transform="translate(-226.361 -7.244)" fill="#f7d74f"/>
      <path id="Trazado_875775" data-name="Trazado 875775" d="M128,181.534V196.58a1.11,1.11,0,0,0,.033.27l1.114,4.458,2.162-.541-.768-3.073h3.031v3.343a1.114,1.114,0,0,0,1.114,1.114h21.175a1.114,1.114,0,0,0,1.114-1.114v-3.343h3.031l-.768,3.073,2.162.541,1.114-4.458a1.11,1.11,0,0,0,.033-.27V181.534a9.484,9.484,0,0,0-9.473-9.473h-3.9v-1.115a1.1,1.1,0,0,1,.724-1.044,4.989,4.989,0,0,0,3.734-5.118v-7.213A5.579,5.579,0,0,0,148.061,152H143.6a5.579,5.579,0,0,0-5.572,5.572v7.213a4.988,4.988,0,0,0,3.734,5.118,1.1,1.1,0,0,1,.724,1.044v1.115h-5.015A9.484,9.484,0,0,0,128,181.534Zm12.259-16.749v-7.213a3.347,3.347,0,0,1,3.344-3.343h4.458a3.347,3.347,0,0,1,3.343,3.343v7.213a2.81,2.81,0,0,1-2.239,3.013,3.282,3.282,0,0,0-1.369.919h-3.929a3.282,3.282,0,0,0-1.369-.919A2.81,2.81,0,0,1,140.259,164.785Zm4.458,6.161h2.229v1.115h-2.229Zm-7.244,3.343h15.6a7.252,7.252,0,0,1,7.244,7.244v13.931h-3.343V177.633h-2.229v22.29H135.8v-22.29h-2.229v17.832h-3.344V181.534a7.252,7.252,0,0,1,7.244-7.244Z" transform="translate(-110.168 -130.825)" fill="#00223d"/>
      <path id="Trazado_875776" data-name="Trazado 875776" d="M190.491,12.261v6.687h2.229V13.375h5.572a1.114,1.114,0,0,0,.828-1.86L189.09.37a1.114,1.114,0,0,0-1.616-.042L176.329,11.473a1.114,1.114,0,0,0,.788,1.9h5.572v5.572h2.229V12.261a1.114,1.114,0,0,0-1.115-1.114h-4l8.412-8.412,7.571,8.412h-4.185A1.115,1.115,0,0,0,190.491,12.261Z" transform="translate(-151.484 -0.001)" fill="#00223d"/>
      <path id="Trazado_875777" data-name="Trazado 875777" d="M.086,12.689a1.114,1.114,0,0,0,1.028.685H6.687V32.32a1.114,1.114,0,0,0,.4.856l6.286,5.238v24H15.6V37.893a1.114,1.114,0,0,0-.4-.856L8.916,31.8V12.26A1.114,1.114,0,0,0,7.8,11.145H3.781l8.307-8.412,7.676,8.412H15.6a1.114,1.114,0,0,0-1.114,1.114v15.6a1.114,1.114,0,0,0,.4.856l6.286,5.238v6.165H23.4V33.435a1.114,1.114,0,0,0-.4-.856l-6.286-5.238V13.374H22.29a1.114,1.114,0,0,0,.823-1.866L12.943.363A1.114,1.114,0,0,0,11.327.331L.321,11.476a1.114,1.114,0,0,0-.236,1.213Z" transform="translate(0 0)" fill="#00223d"/>
      <path id="Trazado_875778" data-name="Trazado 875778" d="M374.009,11.52,364.118.375A1.115,1.115,0,0,0,363.292,0h-.008a1.114,1.114,0,0,0-.823.363l-10.17,11.145a1.114,1.114,0,0,0,.823,1.866h5.572V27.34L352.4,32.578a1.114,1.114,0,0,0-.4.856v6.687h2.229V33.957l6.286-5.238a1.114,1.114,0,0,0,.4-.856v-15.6a1.114,1.114,0,0,0-1.115-1.114H355.64l7.632-8.364,7.423,8.364H367.6a1.115,1.115,0,0,0-1.115,1.114V31.8L360.2,37.036a1.114,1.114,0,0,0-.4.856V62.412h2.229v-24l6.286-5.238a1.115,1.115,0,0,0,.4-.856V13.374h4.458a1.114,1.114,0,0,0,.833-1.854Z" transform="translate(-302.962)" fill="#00223d"/>
    </g>
  </g>
</svg>
