<svg xmlns="http://www.w3.org/2000/svg" width="91.737" height="86.793" viewBox="0 0 91.737 86.793">
  <g id="Grupo_1099056" data-name="Grupo 1099056" transform="translate(0)">
    <path id="_12068" data-name="12068" d="M78.931,72.011c-9.394-1.3-19.317-.98-27.865,3.126-11.854,5.694-19.64,18.6-19.938,31.75s6.551,26.066,17.132,33.876S72.8,151.341,85.735,149c13.048-2.365,25.295-10.031,32.1-21.411,4.364-7.3,6.4-16.309,3.993-24.463A33.421,33.421,0,0,0,113.9,90.084,58.6,58.6,0,0,0,78.931,72.011Z" transform="translate(-31.119 -63.01)" fill="#7d6eb2"/>
    <g id="camara" transform="translate(6.745)">
      <g id="Grupo_1099380" data-name="Grupo 1099380">
        <g id="Grupo_1099332" data-name="Grupo 1099332" transform="translate(21.848 54.908)">
          <g id="Grupo_1099331" data-name="Grupo 1099331">
            <path id="Trazado_873572" data-name="Trazado 873572" d="M73.869,86.585v4.021a3.316,3.316,0,0,1-3.316,3.316H48.37a3.316,3.316,0,0,1-3.316-3.316V86.585Z" transform="translate(-45.055 -86.585)" fill="#7d6eb2"/>
          </g>
        </g>
        <g id="Grupo_1099334" data-name="Grupo 1099334" transform="translate(21.919 54.908)">
          <g id="Grupo_1099333" data-name="Grupo 1099333">
            <path id="Trazado_873573" data-name="Trazado 873573" d="M73.884,86.585V90.6a3.318,3.318,0,0,1-3.316,3.316H48.386a3.323,3.323,0,0,1-3.244-2.629,3.351,3.351,0,0,0,1.239.24H68.562a3.313,3.313,0,0,0,3.316-3.316v-1.63h2.006Z" transform="translate(-45.141 -86.585)" fill="#6b5e9a"/>
          </g>
        </g>
        <g id="Grupo_1099336" data-name="Grupo 1099336" transform="translate(62.466 30.199)">
          <g id="Grupo_1099335" data-name="Grupo 1099335">
            <path id="Trazado_873574" data-name="Trazado 873574" d="M94.291,56.634h5.242V69.515H94.291Z" transform="translate(-94.291 -56.634)" fill="#fff"/>
          </g>
        </g>
        <g id="Grupo_1099338" data-name="Grupo 1099338" transform="translate(67.707 23.225)">
          <g id="Grupo_1099337" data-name="Grupo 1099337">
            <path id="Trazado_873575" data-name="Trazado 873575" d="M100.645,55.154V68.035l6.413,6.4a1.953,1.953,0,0,0,3.332-1.382V50.136a1.953,1.953,0,0,0-3.332-1.382Z" transform="translate(-100.645 -48.18)" fill="#f5ca56"/>
          </g>
        </g>
        <g id="Grupo_1099340" data-name="Grupo 1099340" transform="translate(67.706 23.224)">
          <g id="Grupo_1099339" data-name="Grupo 1099339">
            <path id="Trazado_873576" data-name="Trazado 873576" d="M110.392,50.137V73.054a1.955,1.955,0,0,1-3.332,1.382l-6.417-6.4V67.8l3.8,3.788a1.952,1.952,0,0,0,3.332-1.382V48.3A1.95,1.95,0,0,1,110.392,50.137Z" transform="translate(-100.644 -48.179)" fill="#deac2f"/>
          </g>
        </g>
        <g id="Grupo_1099342" data-name="Grupo 1099342" transform="translate(5.342 28.585)">
          <g id="Grupo_1099341" data-name="Grupo 1099341">
            <path id="Trazado_873577" data-name="Trazado 873577" d="M25.047,54.677h4.7v6.9h-4.7Z" transform="translate(-25.047 -54.677)" fill="#fff"/>
          </g>
        </g>
        <g id="Grupo_1099344" data-name="Grupo 1099344" transform="translate(0.802 24.83)">
          <g id="Grupo_1099343" data-name="Grupo 1099343">
            <path id="Trazado_873578" data-name="Trazado 873578" d="M19.544,52.4v9.868a2.27,2.27,0,0,0,2.27,2.27h0a2.27,2.27,0,0,0,2.27-2.27V52.4a2.27,2.27,0,0,0-2.27-2.27h0a2.27,2.27,0,0,0-2.27,2.27Z" transform="translate(-19.544 -50.125)" fill="#f5ca56"/>
          </g>
        </g>
        <g id="Grupo_1099346" data-name="Grupo 1099346" transform="translate(0.951 24.854)">
          <g id="Grupo_1099345" data-name="Grupo 1099345">
            <path id="Trazado_873579" data-name="Trazado 873579" d="M24.112,52.4v9.869a2.269,2.269,0,0,1-4.387.815,2.179,2.179,0,0,0,.328.024,2.264,2.264,0,0,0,2.269-2.269V50.97a2.307,2.307,0,0,0-.152-.815A2.266,2.266,0,0,1,24.112,52.4Z" transform="translate(-19.725 -50.155)" fill="#deac2f"/>
          </g>
        </g>
        <g id="Grupo_1099348" data-name="Grupo 1099348" transform="translate(10.043 18.369)">
          <g id="Grupo_1099347" data-name="Grupo 1099347">
            <path id="Trazado_873580" data-name="Trazado 873580" d="M83.168,46.839v27.45a4.546,4.546,0,0,1-4.546,4.546H35.291a4.546,4.546,0,0,1-4.546-4.546V46.839a4.546,4.546,0,0,1,4.546-4.546H78.623A4.546,4.546,0,0,1,83.168,46.839Z" transform="translate(-30.746 -42.293)" fill="#fff"/>
          </g>
        </g>
        <g id="Grupo_1099350" data-name="Grupo 1099350" transform="translate(16.959 40.565)">
          <g id="Grupo_1099349" data-name="Grupo 1099349">
            <path id="Trazado_873581" data-name="Trazado 873581" d="M55.929,70.61v5.143a1.411,1.411,0,0,1-1.41,1.41H40.539a1.41,1.41,0,0,1-1.41-1.41V70.61a1.41,1.41,0,0,1,1.41-1.41H54.518A1.41,1.41,0,0,1,55.929,70.61Z" transform="translate(-39.129 -69.199)" fill="#f5ca56"/>
          </g>
        </g>
        <g id="Grupo_1099352" data-name="Grupo 1099352" transform="translate(16.957 40.564)">
          <g id="Grupo_1099351" data-name="Grupo 1099351">
            <path id="Trazado_873582" data-name="Trazado 873582" d="M55.931,70.613v5.138a1.412,1.412,0,0,1-1.414,1.414H40.541a1.412,1.412,0,0,1-1.414-1.414V74.7H51.888A1.412,1.412,0,0,0,53.3,73.282V69.2h1.215a1.412,1.412,0,0,1,1.414,1.414Z" transform="translate(-39.126 -69.198)" fill="#deac2f"/>
          </g>
        </g>
        <g id="Grupo_1099354" data-name="Grupo 1099354" transform="translate(10.061 18.398)">
          <g id="Grupo_1099353" data-name="Grupo 1099353">
            <path id="Trazado_873583" data-name="Trazado 873583" d="M83.171,46.843V74.292a4.544,4.544,0,0,1-4.547,4.547H35.3a4.525,4.525,0,0,1-4.531-4.3,3.546,3.546,0,0,0,.5.032H74.6a4.549,4.549,0,0,0,4.547-4.547V42.576a1.289,1.289,0,0,0-.016-.248,4.55,4.55,0,0,1,4.035,4.515Z" transform="translate(-30.767 -42.329)" fill="#e4e3ff"/>
          </g>
        </g>
        <g id="Grupo_1099359" data-name="Grupo 1099359" transform="translate(10.647 0.797)">
          <g id="Grupo_1099356" data-name="Grupo 1099356" transform="translate(0 3.532)">
            <g id="Grupo_1099355" data-name="Grupo 1099355">
              <path id="Trazado_873584" data-name="Trazado 873584" d="M55.319,37.192A11.921,11.921,0,1,1,43.394,25.275,11.927,11.927,0,0,1,55.319,37.192Z" transform="translate(-31.477 -25.275)" fill="#7d6eb2"/>
            </g>
          </g>
          <g id="Grupo_1099358" data-name="Grupo 1099358" transform="translate(23.842)">
            <g id="Grupo_1099357" data-name="Grupo 1099357">
              <path id="Trazado_873585" data-name="Trazado 873585" d="M87.751,34.676A13.687,13.687,0,1,1,74.06,20.993,13.694,13.694,0,0,1,87.751,34.676Z" transform="translate(-60.377 -20.993)" fill="#7d6eb2"/>
            </g>
          </g>
        </g>
        <g id="Grupo_1099364" data-name="Grupo 1099364" transform="translate(11.899 4.67)">
          <g id="Grupo_1099361" data-name="Grupo 1099361" transform="translate(0 2.845)">
            <g id="Grupo_1099360" data-name="Grupo 1099360">
              <path id="Trazado_873586" data-name="Trazado 873586" d="M55.585,37.87a12.319,12.319,0,0,1-.248,2.445A11.928,11.928,0,0,1,32.995,43.2,11.923,11.923,0,0,0,51.773,29.136a12.9,12.9,0,0,1,1.406,1.55,11.881,11.881,0,0,1,2.405,7.184Z" transform="translate(-32.995 -29.136)" fill="#6b5e9a"/>
            </g>
          </g>
          <g id="Grupo_1099363" data-name="Grupo 1099363" transform="translate(24.196)">
            <g id="Grupo_1099362" data-name="Grupo 1099362">
              <path id="Trazado_873587" data-name="Trazado 873587" d="M88.1,35.5a13.685,13.685,0,0,1-25.77,6.425A13.684,13.684,0,0,0,83.94,25.688,13.628,13.628,0,0,1,88.1,35.5Z" transform="translate(-62.325 -25.688)" fill="#6b5e9a"/>
            </g>
          </g>
        </g>
        <g id="Grupo_1099367" data-name="Grupo 1099367" transform="translate(31.932 9.065)">
          <g id="Grupo_1099366" data-name="Grupo 1099366">
            <g id="Grupo_1099365" data-name="Grupo 1099365">
              <path id="Trazado_873588" data-name="Trazado 873588" d="M59.835,38.2a12.319,12.319,0,0,1-.248,2.445,13.674,13.674,0,0,1-2.309-7.615,12.844,12.844,0,0,1,.152-2.014A11.881,11.881,0,0,1,59.835,38.2Z" transform="translate(-57.278 -31.015)" fill="#6b5e9a"/>
            </g>
          </g>
        </g>
        <g id="Grupo_1099372" data-name="Grupo 1099372" transform="translate(18.135 9.395)">
          <g id="Grupo_1099369" data-name="Grupo 1099369" transform="translate(0 2.423)">
            <g id="Grupo_1099368" data-name="Grupo 1099368">
              <path id="Trazado_873589" data-name="Trazado 873589" d="M49.419,38.784a4.432,4.432,0,1,1-4.434-4.431A4.434,4.434,0,0,1,49.419,38.784Z" transform="translate(-40.555 -34.353)" fill="#fff"/>
            </g>
          </g>
          <g id="Grupo_1099371" data-name="Grupo 1099371" transform="translate(24.951)">
            <g id="Grupo_1099370" data-name="Grupo 1099370">
              <path id="Trazado_873590" data-name="Trazado 873590" d="M80.978,36.5a5.089,5.089,0,1,1-5.09-5.087A5.091,5.091,0,0,1,80.978,36.5Z" transform="translate(-70.8 -31.416)" fill="#fff"/>
            </g>
          </g>
        </g>
        <g id="Grupo_1099377" data-name="Grupo 1099377" transform="translate(18.323 10.159)">
          <g id="Grupo_1099374" data-name="Grupo 1099374" transform="translate(0 2.213)">
            <g id="Grupo_1099373" data-name="Grupo 1099373">
              <path id="Trazado_873591" data-name="Trazado 873591" d="M49.461,38.9a4.433,4.433,0,0,1-8.678,1.279,4.37,4.37,0,0,0,2.134.551A4.435,4.435,0,0,0,47.351,36.3a4.481,4.481,0,0,0-.184-1.271A4.429,4.429,0,0,1,49.461,38.9Z" transform="translate(-40.783 -35.025)" fill="#e4e3ff"/>
            </g>
          </g>
          <g id="Grupo_1099376" data-name="Grupo 1099376" transform="translate(25.067)">
            <g id="Grupo_1099375" data-name="Grupo 1099375">
              <path id="Trazado_873592" data-name="Trazado 873592" d="M81.045,36.665a5.087,5.087,0,0,1-9.877,1.718,5.013,5.013,0,0,0,2.677.767,5.093,5.093,0,0,0,5.09-5.09,4.887,4.887,0,0,0-.3-1.718,5.085,5.085,0,0,1,2.413,4.323Z" transform="translate(-71.168 -32.342)" fill="#e4e3ff"/>
            </g>
          </g>
        </g>
        <g id="Grupo_1099379" data-name="Grupo 1099379">
          <path id="Trazado_873593" data-name="Trazado 873593" d="M92.125,43.258l-6.179,6.171H81.838V42.945a5.279,5.279,0,0,0-1.444-3.63,14.3,14.3,0,0,0,.841-4.81,14.477,14.477,0,0,0-28.527-3.49,12.706,12.706,0,0,0-23.8,8.712,5.255,5.255,0,0,0-1.089,3.217v4.867h-3.11v-.685a3.069,3.069,0,0,0-6.138,0v9.867a3.069,3.069,0,0,0,6.138,0v-.685h3.11V70.391a5.348,5.348,0,0,0,5.337,5.346h6.46v3.217a4.123,4.123,0,0,0,4.117,4.117H45.49L39.624,93.779a3.085,3.085,0,0,0,5.412,2.962l6.385-11.657v9.933a3.4,3.4,0,1,0,6.806,0V85.084L64.621,96.74a3.081,3.081,0,1,0,5.4-2.962L64.159,83.071h1.757a4.123,4.123,0,0,0,4.117-4.117V75.737h6.459a5.355,5.355,0,0,0,5.346-5.346V63.907h4.108l6.179,6.162a2.748,2.748,0,0,0,4.694-1.947V45.205a2.75,2.75,0,0,0-4.694-1.947Zm3.1,24.864a1.152,1.152,0,0,1-1.972.817l-1.708-1.708-4.471-4.455V50.559l6.179-6.171a.981.981,0,0,1,.148-.124,1.155,1.155,0,0,1,1.823.94Zm-9.751-5.816H81.838V51.029h3.638ZM68.432,78.954a2.521,2.521,0,0,1-2.516,2.516H43.733a2.516,2.516,0,0,1-2.343-1.609,2.371,2.371,0,0,1-.173-.907V75.737H68.432ZM33.157,74.137a3.764,3.764,0,0,1-3.737-3.465c-.008-.091-.008-.182-.008-.281V42.945a3.765,3.765,0,0,1,.231-1.262,12.7,12.7,0,0,0,23.676-1.757A14.485,14.485,0,0,0,79.676,41a3.653,3.653,0,0,1,.561,1.947V70.391a3.753,3.753,0,0,1-3.745,3.745H33.157ZM27.819,49.412v5.3h-3.11v-5.3ZM41.134,25.159a11.1,11.1,0,0,1,8.91,4.463c.008,0,.008,0,.008.008.165.223.322.445.479.685a11.064,11.064,0,0,1,1.733,5.956,10.953,10.953,0,0,1-.091,1.386c-.025.247-.066.495-.115.742a11.116,11.116,0,0,1-19.775,4.6,10.925,10.925,0,0,1-1.848-3.688,11.118,11.118,0,0,1,10.7-14.148Zm25.607-3.539a12.865,12.865,0,0,1,10.527,5.461.008.008,0,0,0,.008.008A12.839,12.839,0,0,1,78.81,39.034a12.6,12.6,0,0,1-1.79,3.25,12.873,12.873,0,0,1-20.327.281v-.008A12.882,12.882,0,0,1,66.741,21.619ZM20.172,56.994V47.127a1.472,1.472,0,0,1,1.468-1.468,1.328,1.328,0,0,1,.479.082,1.46,1.46,0,0,1,1,1.386v9.867a1.473,1.473,0,0,1-2.945,0ZM43.634,95.973a1.486,1.486,0,1,1-2.607-1.427l6.286-11.475H50.7Zm13-.957a1.807,1.807,0,1,1-3.613,0V83.071h3.613Zm11.987-.47a1.486,1.486,0,1,1-2.607,1.427l-7.062-12.9h3.382Z" transform="translate(-18.571 -20.027)" fill="#00223d"/>
          <g id="Grupo_1099378" data-name="Grupo 1099378" transform="translate(22.27 63.044)">
            <path id="Trazado_873594" data-name="Trazado 873594" d="M55.429,96.447l-7.07,12.9a1.486,1.486,0,1,1-2.607-1.427l6.286-11.475Z" transform="translate(-45.566 -96.447)" fill="#62529b"/>
            <path id="Trazado_873595" data-name="Trazado 873595" d="M63.945,96.447v11.945a1.807,1.807,0,1,1-3.613,0V96.447Z" transform="translate(-48.151 -96.447)" fill="#62529b"/>
            <path id="Trazado_873596" data-name="Trazado 873596" d="M75.887,110.125a1.5,1.5,0,0,1-1.3-.775l-7.062-12.9H70.9l6.286,11.475a1.487,1.487,0,0,1-1.3,2.2Z" transform="translate(-49.409 -96.447)" fill="#62529b"/>
          </g>
          <path id="Trazado_873597" data-name="Trazado 873597" d="M44.816,43.847a5.231,5.231,0,1,0-5.23-5.233A5.238,5.238,0,0,0,44.816,43.847Zm0-8.865a3.633,3.633,0,1,1-3.632,3.632A3.637,3.637,0,0,1,44.816,34.982Z" transform="translate(-22.25 -22.365)"/>
          <path id="Trazado_873598" data-name="Trazado 873598" d="M75.718,42.223a5.888,5.888,0,1,0-5.886-5.89A5.9,5.9,0,0,0,75.718,42.223Zm0-10.178a4.29,4.29,0,1,1-4.288,4.288A4.295,4.295,0,0,1,75.718,32.045Z" transform="translate(-27.544 -21.851)"/>
          <path id="Trazado_873599" data-name="Trazado 873599" d="M54.349,68.231H40.369A2.212,2.212,0,0,0,38.16,70.44v5.143a2.212,2.212,0,0,0,2.209,2.21h13.98a2.212,2.212,0,0,0,2.209-2.21V70.44A2.212,2.212,0,0,0,54.349,68.231Zm.611,7.352a.612.612,0,0,1-.611.612H40.369a.612.612,0,0,1-.611-.612V70.44a.611.611,0,0,1,.611-.611h13.98a.611.611,0,0,1,.611.611Z" transform="translate(-22 -28.465)" fill="#00223d"/>
        </g>
      </g>
    </g>
  </g>
</svg>
