<svg xmlns="http://www.w3.org/2000/svg" xmlns:xlink="http://www.w3.org/1999/xlink" width="1240" height="403" viewBox="0 0 1240 403">
  <defs>
    <linearGradient id="linear-gradient" y1="0.5" x2="0.786" y2="0.5" gradientUnits="objectBoundingBox">
      <stop offset="0" stop-color="#fff"/>
      <stop offset="1" stop-color="#f1f7fa"/>
    </linearGradient>
    <clipPath id="clip-path">
      <path id="Rectangle_652" data-name="Rectangle 652" d="M19.528,0H1220.473C1231.257,0,1240,6.683,1240,14.926V388.074c0,8.243-8.743,14.926-19.527,14.926H19.528C8.743,403,0,396.317,0,388.074V14.926C0,6.683,8.743,0,19.528,0Z" transform="translate(-12473.333 -12587.882)" fill="url(#linear-gradient)" style="mix-blend-mode: multiply;isolation: isolate"/>
    </clipPath>
    <clipPath id="clip-path-2">
      <rect id="Rectángulo_400993" data-name="Rectángulo 400993" width="56.764" height="110.08" transform="translate(100.924 97.823) rotate(152.705)" fill="none" stroke="#7d6eb2" stroke-width="1"/>
    </clipPath>
  </defs>
  <g id="Grupo_1100011" data-name="Grupo 1100011" transform="translate(-180 -570)">
    <path id="Trazado_873511" data-name="Trazado 873511" d="M20,0H1220a20,20,0,0,1,20,20V383a20,20,0,0,1-20,20H20A20,20,0,0,1,0,383V20A20,20,0,0,1,20,0Z" transform="translate(180 570)" fill="#e7f8f8"/>
    <g id="Enmascarar_grupo_1098673" data-name="Enmascarar grupo 1098673" transform="translate(12653.333 13157.882)" clip-path="url(#clip-path)">
      <g id="Grupo_1098993" data-name="Grupo 1098993" transform="matrix(0.469, -0.883, 0.883, 0.469, -12473.333, -12177.485)">
        <g id="Grupo_1098992" data-name="Grupo 1098992" transform="translate(0 0)" clip-path="url(#clip-path-2)">
          <g id="Grupo_1098991" data-name="Grupo 1098991" transform="translate(-40.452 9.018)">
            <circle id="Elipse_11491" data-name="Elipse 11491" cx="52.595" cy="52.595" r="52.595" transform="translate(0 30.094) rotate(-16.624)" fill="none" stroke="#7d6eb2" stroke-miterlimit="10" stroke-width="2"/>
            <circle id="Elipse_11492" data-name="Elipse 11492" cx="46.812" cy="46.812" r="46.812" transform="translate(14.752 108.024) rotate(-85.029)" fill="none" stroke="#7d6eb2" stroke-miterlimit="10" stroke-width="2"/>
            <circle id="Elipse_11493" data-name="Elipse 11493" cx="41.029" cy="41.029" r="41.029" transform="matrix(0.14, -0.99, 0.99, 0.14, 19.062, 100.307)" fill="none" stroke="#7d6eb2" stroke-miterlimit="10" stroke-width="2"/>
            <circle id="Elipse_11494" data-name="Elipse 11494" cx="35.246" cy="35.246" r="35.246" transform="translate(30.199 30.199)" fill="none" stroke="#7d6eb2" stroke-miterlimit="10" stroke-width="2"/>
            <circle id="Elipse_11495" data-name="Elipse 11495" cx="29.462" cy="29.462" r="29.462" transform="translate(32.916 39.406) rotate(-6.323)" fill="none" stroke="#7d6eb2" stroke-miterlimit="10" stroke-width="2"/>
            <path id="Trazado_873122" data-name="Trazado 873122" d="M23.679,0A23.679,23.679,0,1,1,0,23.679,23.679,23.679,0,0,1,23.679,0Z" transform="translate(32.382 70.763) rotate(-54.14)" fill="none" stroke="#7d6eb2" stroke-width="2"/>
            <circle id="Elipse_11496" data-name="Elipse 11496" cx="17.896" cy="17.896" r="17.896" transform="matrix(0.495, -0.869, 0.869, 0.495, 41.039, 72.146)" fill="none" stroke="#7d6eb2" stroke-miterlimit="10" stroke-width="2"/>
            <circle id="Elipse_11497" data-name="Elipse 11497" cx="12.112" cy="12.112" r="12.112" transform="translate(49.83 58.4) rotate(-20.72)" fill="none" stroke="#7d6eb2" stroke-miterlimit="10" stroke-width="2"/>
            <path id="Trazado_873123" data-name="Trazado 873123" d="M.706,9.233a6.329,6.329,0,1,1,8.526,2.721A6.329,6.329,0,0,1,.706,9.233Z" transform="translate(59.114 59.114)" fill="none" stroke="#7d6eb2" stroke-miterlimit="10" stroke-width="2"/>
          </g>
        </g>
      </g>
      <g id="Grupo_1098998" data-name="Grupo 1098998" transform="translate(-11290.389 -12577.395)">
        <g id="Grupo_1098994" data-name="Grupo 1098994" transform="translate(0 0)">
          <path id="Trazado_873124" data-name="Trazado 873124" d="M640.186,391.326c4.349,0,4.349,2.611,8.7,2.611s4.349-2.611,8.7-2.611,4.348,2.611,8.7,2.611,4.349-2.611,8.7-2.611,4.349,2.611,8.7,2.611,4.349-2.611,8.7-2.611,4.349,2.611,8.7,2.611,4.349-2.611,8.7-2.611,4.351,2.611,8.7,2.611,4.35-2.611,8.7-2.611,4.35,2.611,8.7,2.611,4.351-2.611,8.7-2.611,4.349,2.611,8.7,2.611,4.35-2.611,8.7-2.611,4.351,2.611,8.7,2.611,4.35-2.611,8.7-2.611,4.353,2.611,8.707,2.611,4.353-2.611,8.706-2.611" transform="translate(-640.186 -391.326)" fill="none" stroke="#26aab7" stroke-miterlimit="10" stroke-width="2"/>
        </g>
        <g id="Grupo_1098995" data-name="Grupo 1098995" transform="translate(0 11.246)">
          <path id="Trazado_873125" data-name="Trazado 873125" d="M640.186,408.556c4.349,0,4.349,2.611,8.7,2.611s4.349-2.611,8.7-2.611,4.348,2.611,8.7,2.611,4.349-2.611,8.7-2.611,4.349,2.611,8.7,2.611,4.349-2.611,8.7-2.611,4.349,2.611,8.7,2.611,4.349-2.611,8.7-2.611,4.351,2.611,8.7,2.611,4.35-2.611,8.7-2.611,4.35,2.611,8.7,2.611,4.351-2.611,8.7-2.611,4.349,2.611,8.7,2.611,4.35-2.611,8.7-2.611,4.351,2.611,8.7,2.611,4.35-2.611,8.7-2.611,4.353,2.611,8.707,2.611,4.353-2.611,8.706-2.611" transform="translate(-640.186 -408.556)" fill="none" stroke="#26aab7" stroke-miterlimit="10" stroke-width="2"/>
        </g>
        <g id="Grupo_1098996" data-name="Grupo 1098996" transform="translate(0 22.491)">
          <path id="Trazado_873126" data-name="Trazado 873126" d="M640.186,425.786c4.349,0,4.349,2.611,8.7,2.611s4.349-2.611,8.7-2.611,4.348,2.611,8.7,2.611,4.349-2.611,8.7-2.611,4.349,2.611,8.7,2.611,4.349-2.611,8.7-2.611,4.349,2.611,8.7,2.611,4.349-2.611,8.7-2.611,4.351,2.611,8.7,2.611,4.35-2.611,8.7-2.611,4.35,2.611,8.7,2.611,4.351-2.611,8.7-2.611,4.349,2.611,8.7,2.611,4.35-2.611,8.7-2.611,4.351,2.611,8.7,2.611,4.35-2.611,8.7-2.611,4.353,2.611,8.707,2.611,4.353-2.611,8.706-2.611" transform="translate(-640.186 -425.786)" fill="none" stroke="#26aab7" stroke-miterlimit="10" stroke-width="2"/>
        </g>
        <g id="Grupo_1098997" data-name="Grupo 1098997" transform="translate(0 33.737)">
          <path id="Trazado_873127" data-name="Trazado 873127" d="M640.186,443.016c4.349,0,4.349,2.611,8.7,2.611s4.349-2.611,8.7-2.611,4.348,2.611,8.7,2.611,4.349-2.611,8.7-2.611,4.349,2.611,8.7,2.611,4.349-2.611,8.7-2.611,4.349,2.611,8.7,2.611,4.349-2.611,8.7-2.611,4.351,2.611,8.7,2.611,4.35-2.611,8.7-2.611,4.35,2.611,8.7,2.611,4.351-2.611,8.7-2.611,4.349,2.611,8.7,2.611,4.35-2.611,8.7-2.611,4.351,2.611,8.7,2.611,4.35-2.611,8.7-2.611,4.353,2.611,8.707,2.611,4.353-2.611,8.706-2.611" transform="translate(-640.186 -443.016)" fill="none" stroke="#26aab7" stroke-miterlimit="10" stroke-width="2"/>
        </g>
      </g>
      <path id="Trazado_873128" data-name="Trazado 873128" d="M48.9,166.626c-.8,0-10.848-.651-10.848-1.454a1.454,1.454,0,0,1,2.909,0C40.965,165.975,49.707,166.626,48.9,166.626Zm-9.394-6.283a1.454,1.454,0,1,1,1.454-1.454A1.454,1.454,0,0,1,39.51,160.343Zm0-6.283a1.454,1.454,0,1,1,1.454-1.454A1.454,1.454,0,0,1,39.51,154.06Zm0-6.283a1.454,1.454,0,1,1,1.454-1.454A1.454,1.454,0,0,1,39.51,147.777Zm0-6.283a1.454,1.454,0,1,1,1.454-1.454A1.454,1.454,0,0,1,39.51,141.494Zm0-6.283a1.454,1.454,0,1,1,1.454-1.454A1.454,1.454,0,0,1,39.51,135.211Zm0-6.283a1.454,1.454,0,1,1,1.454-1.454A1.454,1.454,0,0,1,39.51,128.928Zm0-6.283a1.454,1.454,0,1,1,1.454-1.454A1.454,1.454,0,0,1,39.51,122.645Zm6.283,62.831a1.454,1.454,0,1,1,1.454-1.454A1.454,1.454,0,0,1,45.793,185.475Zm0-6.283a1.454,1.454,0,1,1,1.454-1.454A1.454,1.454,0,0,1,45.793,179.192Zm0-6.283a1.454,1.454,0,1,1,1.454-1.454A1.454,1.454,0,0,1,45.793,172.909Zm0-6.283a1.454,1.454,0,1,1,1.454-1.454A1.454,1.454,0,0,1,45.793,166.626Zm0-6.283a1.454,1.454,0,1,1,1.454-1.454A1.454,1.454,0,0,1,45.793,160.343Zm0-6.283a1.454,1.454,0,1,1,1.454-1.454A1.454,1.454,0,0,1,45.793,154.06Zm0-6.283a1.454,1.454,0,1,1,1.454-1.454A1.454,1.454,0,0,1,45.793,147.777Zm0-6.283a1.454,1.454,0,1,1,1.454-1.454A1.454,1.454,0,0,1,45.793,141.494Zm0-6.283a1.454,1.454,0,1,1,1.454-1.454A1.454,1.454,0,0,1,45.793,135.211Zm0-6.283a1.454,1.454,0,1,1,1.454-1.454A1.454,1.454,0,0,1,45.793,128.928Zm0-6.283a1.454,1.454,0,1,1,1.454-1.454A1.454,1.454,0,0,1,45.793,122.645Zm0-6.283a1.454,1.454,0,1,1,1.454-1.454A1.454,1.454,0,0,1,45.793,116.362Zm0-6.283a1.454,1.454,0,1,1,1.454-1.454A1.454,1.454,0,0,1,45.793,110.078Zm0-6.283a1.454,1.454,0,1,1,1.454-1.454A1.454,1.454,0,0,1,45.793,103.8Zm6.283,94.246a1.454,1.454,0,1,1,1.454-1.454A1.454,1.454,0,0,1,52.076,198.041Zm0-6.283a1.454,1.454,0,1,1,1.454-1.454A1.454,1.454,0,0,1,52.076,191.758Zm0-6.283a1.454,1.454,0,1,1,1.454-1.454A1.454,1.454,0,0,1,52.076,185.475Zm0-6.283a1.454,1.454,0,1,1,1.454-1.454A1.454,1.454,0,0,1,52.076,179.192Zm0-6.283a1.454,1.454,0,1,1,1.454-1.454A1.454,1.454,0,0,1,52.076,172.909Zm0-6.283a1.454,1.454,0,1,1,1.454-1.454A1.454,1.454,0,0,1,52.076,166.626Zm0-6.283a1.454,1.454,0,1,1,1.454-1.454A1.454,1.454,0,0,1,52.076,160.343Zm0-6.283a1.454,1.454,0,1,1,1.454-1.454A1.454,1.454,0,0,1,52.076,154.06Zm0-6.283a1.454,1.454,0,1,1,1.454-1.454A1.454,1.454,0,0,1,52.076,147.777Zm0-6.283a1.454,1.454,0,1,1,1.454-1.454A1.454,1.454,0,0,1,52.076,141.494Zm0-6.283a1.454,1.454,0,1,1,1.454-1.454A1.454,1.454,0,0,1,52.076,135.211Zm0-6.283a1.454,1.454,0,1,1,1.454-1.454A1.454,1.454,0,0,1,52.076,128.928Zm0-6.283a1.454,1.454,0,1,1,1.454-1.454A1.454,1.454,0,0,1,52.076,122.645Zm0-6.283a1.454,1.454,0,1,1,1.454-1.454A1.454,1.454,0,0,1,52.076,116.362Zm0-6.283a1.454,1.454,0,1,1,1.454-1.454A1.454,1.454,0,0,1,52.076,110.078Zm0-6.283a1.454,1.454,0,1,1,1.454-1.454A1.454,1.454,0,0,1,52.076,103.8Zm0-6.283a1.454,1.454,0,1,1,1.454-1.454A1.454,1.454,0,0,1,52.076,97.512Zm0-6.283a1.454,1.454,0,1,1,1.454-1.454A1.454,1.454,0,0,1,52.076,91.229Zm6.283,113.1a1.454,1.454,0,1,1,1.454-1.454A1.454,1.454,0,0,1,58.36,204.324Zm0-6.283a1.454,1.454,0,1,1,1.454-1.454A1.454,1.454,0,0,1,58.36,198.041Zm0-6.283a1.454,1.454,0,1,1,1.454-1.454A1.454,1.454,0,0,1,58.36,191.758Zm0-6.283a1.454,1.454,0,1,1,1.454-1.454A1.454,1.454,0,0,1,58.36,185.475Zm0-6.283a1.454,1.454,0,1,1,1.454-1.454A1.454,1.454,0,0,1,58.36,179.192Zm0-6.283a1.454,1.454,0,1,1,1.454-1.454A1.454,1.454,0,0,1,58.36,172.909Zm0-6.283a1.454,1.454,0,1,1,1.454-1.454A1.454,1.454,0,0,1,58.36,166.626Zm0-6.283a1.454,1.454,0,1,1,1.454-1.454A1.454,1.454,0,0,1,58.36,160.343Zm0-6.283a1.454,1.454,0,1,1,1.454-1.454A1.454,1.454,0,0,1,58.36,154.06Zm0-6.283a1.454,1.454,0,1,1,1.454-1.454A1.454,1.454,0,0,1,58.36,147.777Zm0-6.283a1.454,1.454,0,1,1,1.454-1.454A1.454,1.454,0,0,1,58.36,141.494Zm0-6.283a1.454,1.454,0,1,1,1.454-1.454A1.454,1.454,0,0,1,58.36,135.211Zm0-6.283a1.454,1.454,0,1,1,1.454-1.454A1.454,1.454,0,0,1,58.36,128.928Zm0-6.283a1.454,1.454,0,1,1,1.454-1.454A1.454,1.454,0,0,1,58.36,122.645Zm0-6.283a1.454,1.454,0,1,1,1.454-1.454A1.454,1.454,0,0,1,58.36,116.362Zm0-6.283a1.454,1.454,0,1,1,1.454-1.454A1.454,1.454,0,0,1,58.36,110.078Zm0-6.283a1.454,1.454,0,1,1,1.454-1.454A1.454,1.454,0,0,1,58.36,103.8Zm0-6.283a1.454,1.454,0,1,1,1.454-1.454A1.454,1.454,0,0,1,58.36,97.512Zm0-6.283a1.454,1.454,0,1,1,1.454-1.454A1.454,1.454,0,0,1,58.36,91.229Zm0-6.283a1.454,1.454,0,1,1,1.454-1.454A1.454,1.454,0,0,1,58.36,84.946Zm6.283,131.944a1.454,1.454,0,1,1,1.454-1.454A1.454,1.454,0,0,1,64.643,216.891Zm0-6.283a1.454,1.454,0,1,1,1.454-1.454A1.454,1.454,0,0,1,64.643,210.608Zm0-6.283A1.454,1.454,0,1,1,66.1,202.87,1.454,1.454,0,0,1,64.643,204.324Zm0-6.283a1.454,1.454,0,1,1,1.454-1.454A1.454,1.454,0,0,1,64.643,198.041Zm0-6.283A1.454,1.454,0,1,1,66.1,190.3,1.454,1.454,0,0,1,64.643,191.758Zm0-6.283a1.454,1.454,0,1,1,1.454-1.454A1.454,1.454,0,0,1,64.643,185.475Zm0-6.283a1.454,1.454,0,1,1,1.454-1.454A1.454,1.454,0,0,1,64.643,179.192Zm0-6.283a1.454,1.454,0,1,1,1.454-1.454A1.454,1.454,0,0,1,64.643,172.909Zm0-6.283a1.454,1.454,0,1,1,1.454-1.454A1.454,1.454,0,0,1,64.643,166.626Zm0-6.283a1.454,1.454,0,1,1,1.454-1.454A1.454,1.454,0,0,1,64.643,160.343Zm0-6.283a1.454,1.454,0,1,1,1.454-1.454A1.454,1.454,0,0,1,64.643,154.06Zm0-6.283a1.454,1.454,0,1,1,1.454-1.454A1.454,1.454,0,0,1,64.643,147.777Zm0-6.283a1.454,1.454,0,1,1,1.454-1.454A1.454,1.454,0,0,1,64.643,141.494Zm0-6.283a1.454,1.454,0,1,1,1.454-1.454A1.454,1.454,0,0,1,64.643,135.211Zm0-6.283a1.454,1.454,0,1,1,1.454-1.454A1.454,1.454,0,0,1,64.643,128.928Zm0-6.283A1.454,1.454,0,1,1,66.1,121.19,1.454,1.454,0,0,1,64.643,122.645Zm0-6.283a1.454,1.454,0,1,1,1.454-1.454A1.454,1.454,0,0,1,64.643,116.362Zm0-6.283a1.454,1.454,0,1,1,1.454-1.454A1.454,1.454,0,0,1,64.643,110.078Zm0-6.283a1.454,1.454,0,1,1,1.454-1.454A1.454,1.454,0,0,1,64.643,103.8Zm0-6.283A1.454,1.454,0,1,1,66.1,96.058,1.454,1.454,0,0,1,64.643,97.512Zm0-6.283A1.454,1.454,0,1,1,66.1,89.775,1.454,1.454,0,0,1,64.643,91.229Zm0-6.283A1.454,1.454,0,1,1,66.1,83.492,1.454,1.454,0,0,1,64.643,84.946Zm0-6.283A1.454,1.454,0,1,1,66.1,77.209,1.454,1.454,0,0,1,64.643,78.663Zm0-6.283A1.454,1.454,0,1,1,66.1,70.926,1.454,1.454,0,0,1,64.643,72.38Zm6.283,150.794a1.454,1.454,0,1,1,1.454-1.454A1.454,1.454,0,0,1,70.926,223.174Zm0-6.283a1.454,1.454,0,1,1,1.454-1.454A1.454,1.454,0,0,1,70.926,216.891Zm0-6.283a1.454,1.454,0,1,1,1.454-1.454A1.454,1.454,0,0,1,70.926,210.608Zm0-6.283a1.454,1.454,0,1,1,1.454-1.454A1.454,1.454,0,0,1,70.926,204.324Zm0-6.283a1.454,1.454,0,1,1,1.454-1.454A1.454,1.454,0,0,1,70.926,198.041Zm0-6.283A1.454,1.454,0,1,1,72.38,190.3,1.454,1.454,0,0,1,70.926,191.758Zm0-6.283a1.454,1.454,0,1,1,1.454-1.454A1.454,1.454,0,0,1,70.926,185.475Zm0-6.283a1.454,1.454,0,1,1,1.454-1.454A1.454,1.454,0,0,1,70.926,179.192Zm0-6.283a1.454,1.454,0,1,1,1.454-1.454A1.454,1.454,0,0,1,70.926,172.909Zm0-6.283a1.454,1.454,0,1,1,1.454-1.454A1.454,1.454,0,0,1,70.926,166.626Zm0-6.283a1.454,1.454,0,1,1,1.454-1.454A1.454,1.454,0,0,1,70.926,160.343Zm0-6.283a1.454,1.454,0,1,1,1.454-1.454A1.454,1.454,0,0,1,70.926,154.06Zm0-6.283a1.454,1.454,0,1,1,1.454-1.454A1.454,1.454,0,0,1,70.926,147.777Zm0-6.283a1.454,1.454,0,1,1,1.454-1.454A1.454,1.454,0,0,1,70.926,141.494Zm0-6.283a1.454,1.454,0,1,1,1.454-1.454A1.454,1.454,0,0,1,70.926,135.211Zm0-6.283a1.454,1.454,0,1,1,1.454-1.454A1.454,1.454,0,0,1,70.926,128.928Zm0-6.283a1.454,1.454,0,1,1,1.454-1.454A1.454,1.454,0,0,1,70.926,122.645Zm0-6.283a1.454,1.454,0,1,1,1.454-1.454A1.454,1.454,0,0,1,70.926,116.362Zm0-6.283a1.454,1.454,0,1,1,1.454-1.454A1.454,1.454,0,0,1,70.926,110.078Zm0-6.283a1.454,1.454,0,1,1,1.454-1.454A1.454,1.454,0,0,1,70.926,103.8Zm0-6.283a1.454,1.454,0,1,1,1.454-1.454A1.454,1.454,0,0,1,70.926,97.512Zm0-6.283a1.454,1.454,0,1,1,1.454-1.454A1.454,1.454,0,0,1,70.926,91.229Zm0-6.283a1.454,1.454,0,1,1,1.454-1.454A1.454,1.454,0,0,1,70.926,84.946Zm0-6.283a1.454,1.454,0,1,1,1.454-1.454A1.454,1.454,0,0,1,70.926,78.663Zm0-6.283a1.454,1.454,0,1,1,1.454-1.454A1.454,1.454,0,0,1,70.926,72.38Zm0-6.283a1.454,1.454,0,1,1,1.454-1.454A1.454,1.454,0,0,1,70.926,66.1Zm6.283,157.077a1.454,1.454,0,1,1,1.454-1.454A1.454,1.454,0,0,1,77.209,223.174Zm0-6.283a1.454,1.454,0,1,1,1.454-1.454A1.454,1.454,0,0,1,77.209,216.891Zm0-6.283a1.454,1.454,0,1,1,1.454-1.454A1.454,1.454,0,0,1,77.209,210.608Zm0-6.283a1.454,1.454,0,1,1,1.454-1.454A1.454,1.454,0,0,1,77.209,204.324Zm0-6.283a1.454,1.454,0,1,1,1.454-1.454A1.454,1.454,0,0,1,77.209,198.041Zm0-6.283a1.454,1.454,0,1,1,1.454-1.454A1.454,1.454,0,0,1,77.209,191.758Zm0-6.283a1.454,1.454,0,1,1,1.454-1.454A1.454,1.454,0,0,1,77.209,185.475Zm0-6.283a1.454,1.454,0,1,1,1.454-1.454A1.454,1.454,0,0,1,77.209,179.192Zm0-6.283a1.454,1.454,0,1,1,1.454-1.454A1.454,1.454,0,0,1,77.209,172.909Zm0-6.283a1.454,1.454,0,1,1,1.454-1.454A1.454,1.454,0,0,1,77.209,166.626Zm0-6.283a1.454,1.454,0,1,1,1.454-1.454A1.454,1.454,0,0,1,77.209,160.343Zm0-6.283a1.454,1.454,0,1,1,1.454-1.454A1.454,1.454,0,0,1,77.209,154.06Zm0-6.283a1.454,1.454,0,1,1,1.454-1.454A1.454,1.454,0,0,1,77.209,147.777Zm0-6.283a1.454,1.454,0,1,1,1.454-1.454A1.454,1.454,0,0,1,77.209,141.494Zm0-6.283a1.454,1.454,0,1,1,1.454-1.454A1.454,1.454,0,0,1,77.209,135.211Zm0-6.283a1.454,1.454,0,1,1,1.454-1.454A1.454,1.454,0,0,1,77.209,128.928Zm0-6.283a1.454,1.454,0,1,1,1.454-1.454A1.454,1.454,0,0,1,77.209,122.645Zm0-6.283a1.454,1.454,0,1,1,1.454-1.454A1.454,1.454,0,0,1,77.209,116.362Zm0-6.283a1.454,1.454,0,1,1,1.454-1.454A1.454,1.454,0,0,1,77.209,110.078Zm0-6.283a1.454,1.454,0,1,1,1.454-1.454A1.454,1.454,0,0,1,77.209,103.8Zm0-6.283a1.454,1.454,0,1,1,1.454-1.454A1.454,1.454,0,0,1,77.209,97.512Zm0-6.283a1.454,1.454,0,1,1,1.454-1.454A1.454,1.454,0,0,1,77.209,91.229Zm0-6.283a1.454,1.454,0,1,1,1.454-1.454A1.454,1.454,0,0,1,77.209,84.946Zm0-6.283a1.454,1.454,0,1,1,1.454-1.454A1.454,1.454,0,0,1,77.209,78.663Zm0-6.283a1.454,1.454,0,1,1,1.454-1.454A1.454,1.454,0,0,1,77.209,72.38Zm0-6.283a1.454,1.454,0,1,1,1.454-1.454A1.454,1.454,0,0,1,77.209,66.1Zm6.283,163.36A1.454,1.454,0,1,1,84.946,228,1.454,1.454,0,0,1,83.492,229.457Zm0-6.283a1.454,1.454,0,1,1,1.454-1.454A1.454,1.454,0,0,1,83.492,223.174Zm0-6.283a1.454,1.454,0,1,1,1.454-1.454A1.454,1.454,0,0,1,83.492,216.891Zm0-6.283a1.454,1.454,0,1,1,1.454-1.454A1.454,1.454,0,0,1,83.492,210.608Zm0-6.283a1.454,1.454,0,1,1,1.454-1.454A1.454,1.454,0,0,1,83.492,204.324Zm0-6.283a1.454,1.454,0,1,1,1.454-1.454A1.454,1.454,0,0,1,83.492,198.041Zm0-6.283a1.454,1.454,0,1,1,1.454-1.454A1.454,1.454,0,0,1,83.492,191.758Zm0-6.283a1.454,1.454,0,1,1,1.454-1.454A1.454,1.454,0,0,1,83.492,185.475Zm0-6.283a1.454,1.454,0,1,1,1.454-1.454A1.454,1.454,0,0,1,83.492,179.192Zm0-6.283a1.454,1.454,0,1,1,1.454-1.454A1.454,1.454,0,0,1,83.492,172.909Zm0-6.283a1.454,1.454,0,1,1,1.454-1.454A1.454,1.454,0,0,1,83.492,166.626Zm0-6.283a1.454,1.454,0,1,1,1.454-1.454A1.454,1.454,0,0,1,83.492,160.343Zm0-6.283a1.454,1.454,0,1,1,1.454-1.454A1.454,1.454,0,0,1,83.492,154.06Zm0-6.283a1.454,1.454,0,1,1,1.454-1.454A1.454,1.454,0,0,1,83.492,147.777Zm0-6.283a1.454,1.454,0,1,1,1.454-1.454A1.454,1.454,0,0,1,83.492,141.494Zm0-6.283a1.454,1.454,0,1,1,1.454-1.454A1.454,1.454,0,0,1,83.492,135.211Zm0-6.283a1.454,1.454,0,1,1,1.454-1.454A1.454,1.454,0,0,1,83.492,128.928Zm0-6.283a1.454,1.454,0,1,1,1.454-1.454A1.454,1.454,0,0,1,83.492,122.645Zm0-6.283a1.454,1.454,0,1,1,1.454-1.454A1.454,1.454,0,0,1,83.492,116.362Zm0-6.283a1.454,1.454,0,1,1,1.454-1.454A1.454,1.454,0,0,1,83.492,110.078Zm0-6.283a1.454,1.454,0,1,1,1.454-1.454A1.454,1.454,0,0,1,83.492,103.8Zm0-6.283a1.454,1.454,0,1,1,1.454-1.454A1.454,1.454,0,0,1,83.492,97.512Zm0-6.283a1.454,1.454,0,1,1,1.454-1.454A1.454,1.454,0,0,1,83.492,91.229Zm0-6.283a1.454,1.454,0,1,1,1.454-1.454A1.454,1.454,0,0,1,83.492,84.946Zm0-6.283a1.454,1.454,0,1,1,1.454-1.454A1.454,1.454,0,0,1,83.492,78.663Zm0-6.283a1.454,1.454,0,1,1,1.454-1.454A1.454,1.454,0,0,1,83.492,72.38Zm0-6.283a1.454,1.454,0,1,1,1.454-1.454A1.454,1.454,0,0,1,83.492,66.1Zm0-6.283a1.454,1.454,0,1,1,1.454-1.454A1.454,1.454,0,0,1,83.492,59.814ZM89.775,235.74a1.454,1.454,0,1,1,1.454-1.454A1.454,1.454,0,0,1,89.775,235.74Zm0-6.283A1.454,1.454,0,1,1,91.229,228,1.454,1.454,0,0,1,89.775,229.457Zm0-6.283a1.454,1.454,0,1,1,1.454-1.454A1.454,1.454,0,0,1,89.775,223.174Zm0-6.283a1.454,1.454,0,1,1,1.454-1.454A1.454,1.454,0,0,1,89.775,216.891Zm0-6.283a1.454,1.454,0,1,1,1.454-1.454A1.454,1.454,0,0,1,89.775,210.608Zm0-6.283a1.454,1.454,0,1,1,1.454-1.454A1.454,1.454,0,0,1,89.775,204.324Zm0-6.283a1.454,1.454,0,1,1,1.454-1.454A1.454,1.454,0,0,1,89.775,198.041Zm0-6.283a1.454,1.454,0,1,1,1.454-1.454A1.454,1.454,0,0,1,89.775,191.758Zm0-6.283a1.454,1.454,0,1,1,1.454-1.454A1.454,1.454,0,0,1,89.775,185.475Zm0-6.283a1.454,1.454,0,1,1,1.454-1.454A1.454,1.454,0,0,1,89.775,179.192Zm0-6.283a1.454,1.454,0,1,1,1.454-1.454A1.454,1.454,0,0,1,89.775,172.909Zm0-6.283a1.454,1.454,0,1,1,1.454-1.454A1.454,1.454,0,0,1,89.775,166.626Zm0-6.283a1.454,1.454,0,1,1,1.454-1.454A1.454,1.454,0,0,1,89.775,160.343Zm0-6.283a1.454,1.454,0,1,1,1.454-1.454A1.454,1.454,0,0,1,89.775,154.06Zm0-6.283a1.454,1.454,0,1,1,1.454-1.454A1.454,1.454,0,0,1,89.775,147.777Zm0-6.283a1.454,1.454,0,1,1,1.454-1.454A1.454,1.454,0,0,1,89.775,141.494Zm0-6.283a1.454,1.454,0,1,1,1.454-1.454A1.454,1.454,0,0,1,89.775,135.211Zm0-6.283a1.454,1.454,0,1,1,1.454-1.454A1.454,1.454,0,0,1,89.775,128.928Zm0-6.283a1.454,1.454,0,1,1,1.454-1.454A1.454,1.454,0,0,1,89.775,122.645Zm0-6.283a1.454,1.454,0,1,1,1.454-1.454A1.454,1.454,0,0,1,89.775,116.362Zm0-6.283a1.454,1.454,0,1,1,1.454-1.454A1.454,1.454,0,0,1,89.775,110.078Zm0-6.283a1.454,1.454,0,1,1,1.454-1.454A1.454,1.454,0,0,1,89.775,103.8Zm0-6.283a1.454,1.454,0,1,1,1.454-1.454A1.454,1.454,0,0,1,89.775,97.512Zm0-6.283a1.454,1.454,0,1,1,1.454-1.454A1.454,1.454,0,0,1,89.775,91.229Zm0-6.283a1.454,1.454,0,1,1,1.454-1.454A1.454,1.454,0,0,1,89.775,84.946Zm0-6.283a1.454,1.454,0,1,1,1.454-1.454A1.454,1.454,0,0,1,89.775,78.663Zm0-6.283a1.454,1.454,0,1,1,1.454-1.454A1.454,1.454,0,0,1,89.775,72.38Zm0-6.283a1.454,1.454,0,1,1,1.454-1.454A1.454,1.454,0,0,1,89.775,66.1Zm0-6.283a1.454,1.454,0,1,1,1.454-1.454A1.454,1.454,0,0,1,89.775,59.814Zm0-6.283a1.454,1.454,0,1,1,1.454-1.454A1.454,1.454,0,0,1,89.775,53.531ZM96.058,235.74a1.454,1.454,0,1,1,1.454-1.454A1.454,1.454,0,0,1,96.058,235.74Zm0-6.283A1.454,1.454,0,1,1,97.512,228,1.454,1.454,0,0,1,96.058,229.457Zm0-6.283a1.454,1.454,0,1,1,1.454-1.454A1.454,1.454,0,0,1,96.058,223.174Zm0-6.283a1.454,1.454,0,1,1,1.454-1.454A1.454,1.454,0,0,1,96.058,216.891Zm0-6.283a1.454,1.454,0,1,1,1.454-1.454A1.454,1.454,0,0,1,96.058,210.608Zm0-6.283a1.454,1.454,0,1,1,1.454-1.454A1.454,1.454,0,0,1,96.058,204.324Zm0-6.283a1.454,1.454,0,1,1,1.454-1.454A1.454,1.454,0,0,1,96.058,198.041Zm0-6.283a1.454,1.454,0,1,1,1.454-1.454A1.454,1.454,0,0,1,96.058,191.758Zm0-6.283a1.454,1.454,0,1,1,1.454-1.454A1.454,1.454,0,0,1,96.058,185.475Zm0-6.283a1.454,1.454,0,1,1,1.454-1.454A1.454,1.454,0,0,1,96.058,179.192Zm0-6.283a1.454,1.454,0,1,1,1.454-1.454A1.454,1.454,0,0,1,96.058,172.909Zm0-6.283a1.454,1.454,0,1,1,1.454-1.454A1.454,1.454,0,0,1,96.058,166.626Zm0-6.283a1.454,1.454,0,1,1,1.454-1.454A1.454,1.454,0,0,1,96.058,160.343Zm0-6.283a1.454,1.454,0,1,1,1.454-1.454A1.454,1.454,0,0,1,96.058,154.06Zm0-6.283a1.454,1.454,0,1,1,1.454-1.454A1.454,1.454,0,0,1,96.058,147.777Zm0-6.283a1.454,1.454,0,1,1,1.454-1.454A1.454,1.454,0,0,1,96.058,141.494Zm0-6.283a1.454,1.454,0,1,1,1.454-1.454A1.454,1.454,0,0,1,96.058,135.211Zm0-6.283a1.454,1.454,0,1,1,1.454-1.454A1.454,1.454,0,0,1,96.058,128.928Zm0-6.283a1.454,1.454,0,1,1,1.454-1.454A1.454,1.454,0,0,1,96.058,122.645Zm0-6.283a1.454,1.454,0,1,1,1.454-1.454A1.454,1.454,0,0,1,96.058,116.362Zm0-6.283a1.454,1.454,0,1,1,1.454-1.454A1.454,1.454,0,0,1,96.058,110.078Zm0-6.283a1.454,1.454,0,1,1,1.454-1.454A1.454,1.454,0,0,1,96.058,103.8Zm0-6.283a1.454,1.454,0,1,1,1.454-1.454A1.454,1.454,0,0,1,96.058,97.512Zm0-6.283a1.454,1.454,0,1,1,1.454-1.454A1.454,1.454,0,0,1,96.058,91.229Zm0-6.283a1.454,1.454,0,1,1,1.454-1.454A1.454,1.454,0,0,1,96.058,84.946Zm0-6.283a1.454,1.454,0,1,1,1.454-1.454A1.454,1.454,0,0,1,96.058,78.663Zm0-6.283a1.454,1.454,0,1,1,1.454-1.454A1.454,1.454,0,0,1,96.058,72.38Zm0-6.283a1.454,1.454,0,1,1,1.454-1.454A1.454,1.454,0,0,1,96.058,66.1Zm0-6.283a1.454,1.454,0,1,1,1.454-1.454A1.454,1.454,0,0,1,96.058,59.814Zm0-6.283a1.454,1.454,0,1,1,1.454-1.454A1.454,1.454,0,0,1,96.058,53.531Zm6.283,188.492a1.454,1.454,0,1,1,1.454-1.454A1.454,1.454,0,0,1,102.341,242.023Zm0-6.283a1.454,1.454,0,1,1,1.454-1.454A1.454,1.454,0,0,1,102.341,235.74Zm0-6.283A1.454,1.454,0,1,1,103.8,228,1.454,1.454,0,0,1,102.341,229.457Zm0-6.283a1.454,1.454,0,1,1,1.454-1.454A1.454,1.454,0,0,1,102.341,223.174Zm0-6.283a1.454,1.454,0,1,1,1.454-1.454A1.454,1.454,0,0,1,102.341,216.891Zm0-6.283a1.454,1.454,0,1,1,1.454-1.454A1.454,1.454,0,0,1,102.341,210.608Zm0-6.283a1.454,1.454,0,1,1,1.454-1.454A1.454,1.454,0,0,1,102.341,204.324Zm0-6.283a1.454,1.454,0,1,1,1.454-1.454A1.454,1.454,0,0,1,102.341,198.041Zm0-6.283A1.454,1.454,0,1,1,103.8,190.3,1.454,1.454,0,0,1,102.341,191.758Zm0-6.283a1.454,1.454,0,1,1,1.454-1.454A1.454,1.454,0,0,1,102.341,185.475Zm0-6.283a1.454,1.454,0,1,1,1.454-1.454A1.454,1.454,0,0,1,102.341,179.192Zm0-6.283a1.454,1.454,0,1,1,1.454-1.454A1.454,1.454,0,0,1,102.341,172.909Zm0-6.283a1.454,1.454,0,1,1,1.454-1.454A1.454,1.454,0,0,1,102.341,166.626Zm0-6.283a1.454,1.454,0,1,1,1.454-1.454A1.454,1.454,0,0,1,102.341,160.343Zm0-6.283a1.454,1.454,0,1,1,1.454-1.454A1.454,1.454,0,0,1,102.341,154.06Zm0-6.283a1.454,1.454,0,1,1,1.454-1.454A1.454,1.454,0,0,1,102.341,147.777Zm0-6.283a1.454,1.454,0,1,1,1.454-1.454A1.454,1.454,0,0,1,102.341,141.494Zm0-6.283a1.454,1.454,0,1,1,1.454-1.454A1.454,1.454,0,0,1,102.341,135.211Zm0-6.283a1.454,1.454,0,1,1,1.454-1.454A1.454,1.454,0,0,1,102.341,128.928Zm0-6.283a1.454,1.454,0,1,1,1.454-1.454A1.454,1.454,0,0,1,102.341,122.645Zm0-6.283a1.454,1.454,0,1,1,1.454-1.454A1.454,1.454,0,0,1,102.341,116.362Zm0-6.283a1.454,1.454,0,1,1,1.454-1.454A1.454,1.454,0,0,1,102.341,110.078Zm0-6.283a1.454,1.454,0,1,1,1.454-1.454A1.454,1.454,0,0,1,102.341,103.8Zm0-6.283a1.454,1.454,0,1,1,1.454-1.454A1.454,1.454,0,0,1,102.341,97.512Zm0-6.283a1.454,1.454,0,1,1,1.454-1.454A1.454,1.454,0,0,1,102.341,91.229Zm0-6.283a1.454,1.454,0,1,1,1.454-1.454A1.454,1.454,0,0,1,102.341,84.946Zm0-6.283a1.454,1.454,0,1,1,1.454-1.454A1.454,1.454,0,0,1,102.341,78.663Zm0-6.283a1.454,1.454,0,1,1,1.454-1.454A1.454,1.454,0,0,1,102.341,72.38Zm0-6.283a1.454,1.454,0,1,1,1.454-1.454A1.454,1.454,0,0,1,102.341,66.1Zm0-6.283A1.454,1.454,0,1,1,103.8,58.36,1.454,1.454,0,0,1,102.341,59.814Zm0-6.283a1.454,1.454,0,1,1,1.454-1.454A1.454,1.454,0,0,1,102.341,53.531Zm0-6.283a1.454,1.454,0,1,1,1.454-1.454A1.454,1.454,0,0,1,102.341,47.248Zm6.283,194.775a1.454,1.454,0,1,1,1.454-1.454A1.454,1.454,0,0,1,108.624,242.023Zm0-6.283a1.454,1.454,0,1,1,1.454-1.454A1.454,1.454,0,0,1,108.624,235.74Zm0-6.283A1.454,1.454,0,1,1,110.078,228,1.454,1.454,0,0,1,108.624,229.457Zm0-6.283a1.454,1.454,0,1,1,1.454-1.454A1.454,1.454,0,0,1,108.624,223.174Zm0-6.283a1.454,1.454,0,1,1,1.454-1.454A1.454,1.454,0,0,1,108.624,216.891Zm0-6.283a1.454,1.454,0,1,1,1.454-1.454A1.454,1.454,0,0,1,108.624,210.608Zm0-6.283a1.454,1.454,0,1,1,1.454-1.454A1.454,1.454,0,0,1,108.624,204.324Zm0-6.283a1.454,1.454,0,1,1,1.454-1.454A1.454,1.454,0,0,1,108.624,198.041Zm0-6.283a1.454,1.454,0,1,1,1.454-1.454A1.454,1.454,0,0,1,108.624,191.758Zm0-6.283a1.454,1.454,0,1,1,1.454-1.454A1.454,1.454,0,0,1,108.624,185.475Zm0-6.283a1.454,1.454,0,1,1,1.454-1.454A1.454,1.454,0,0,1,108.624,179.192Zm0-6.283a1.454,1.454,0,1,1,1.454-1.454A1.454,1.454,0,0,1,108.624,172.909Zm0-6.283a1.454,1.454,0,1,1,1.454-1.454A1.454,1.454,0,0,1,108.624,166.626Zm0-6.283a1.454,1.454,0,1,1,1.454-1.454A1.454,1.454,0,0,1,108.624,160.343Zm0-6.283a1.454,1.454,0,1,1,1.454-1.454A1.454,1.454,0,0,1,108.624,154.06Zm0-6.283a1.454,1.454,0,1,1,1.454-1.454A1.454,1.454,0,0,1,108.624,147.777Zm0-6.283a1.454,1.454,0,1,1,1.454-1.454A1.454,1.454,0,0,1,108.624,141.494Zm0-6.283a1.454,1.454,0,1,1,1.454-1.454A1.454,1.454,0,0,1,108.624,135.211Zm0-6.283a1.454,1.454,0,1,1,1.454-1.454A1.454,1.454,0,0,1,108.624,128.928Zm0-6.283a1.454,1.454,0,1,1,1.454-1.454A1.454,1.454,0,0,1,108.624,122.645Zm0-6.283a1.454,1.454,0,1,1,1.454-1.454A1.454,1.454,0,0,1,108.624,116.362Zm0-6.283a1.454,1.454,0,1,1,1.454-1.454A1.454,1.454,0,0,1,108.624,110.078Zm0-6.283a1.454,1.454,0,1,1,1.454-1.454A1.454,1.454,0,0,1,108.624,103.8Zm0-6.283a1.454,1.454,0,1,1,1.454-1.454A1.454,1.454,0,0,1,108.624,97.512Zm0-6.283a1.454,1.454,0,1,1,1.454-1.454A1.454,1.454,0,0,1,108.624,91.229Zm0-6.283a1.454,1.454,0,1,1,1.454-1.454A1.454,1.454,0,0,1,108.624,84.946Zm0-6.283a1.454,1.454,0,1,1,1.454-1.454A1.454,1.454,0,0,1,108.624,78.663Zm0-6.283a1.454,1.454,0,1,1,1.454-1.454A1.454,1.454,0,0,1,108.624,72.38Zm0-6.283a1.454,1.454,0,1,1,1.454-1.454A1.454,1.454,0,0,1,108.624,66.1Zm0-6.283a1.454,1.454,0,1,1,1.454-1.454A1.454,1.454,0,0,1,108.624,59.814Zm0-6.283a1.454,1.454,0,1,1,1.454-1.454A1.454,1.454,0,0,1,108.624,53.531Zm0-6.283a1.454,1.454,0,1,1,1.454-1.454A1.454,1.454,0,0,1,108.624,47.248Zm6.283,194.775a1.454,1.454,0,1,1,1.454-1.454A1.454,1.454,0,0,1,114.907,242.023Zm0-6.283a1.454,1.454,0,1,1,1.454-1.454A1.454,1.454,0,0,1,114.907,235.74Zm0-6.283A1.454,1.454,0,1,1,116.362,228,1.454,1.454,0,0,1,114.907,229.457Zm0-6.283a1.454,1.454,0,1,1,1.454-1.454A1.454,1.454,0,0,1,114.907,223.174Zm0-6.283a1.454,1.454,0,1,1,1.454-1.454A1.454,1.454,0,0,1,114.907,216.891Zm0-6.283a1.454,1.454,0,1,1,1.454-1.454A1.454,1.454,0,0,1,114.907,210.608Zm0-6.283a1.454,1.454,0,1,1,1.454-1.454A1.454,1.454,0,0,1,114.907,204.324Zm0-6.283a1.454,1.454,0,1,1,1.454-1.454A1.454,1.454,0,0,1,114.907,198.041Zm0-6.283a1.454,1.454,0,1,1,1.454-1.454A1.454,1.454,0,0,1,114.907,191.758Zm0-6.283a1.454,1.454,0,1,1,1.454-1.454A1.454,1.454,0,0,1,114.907,185.475Zm0-6.283a1.454,1.454,0,1,1,1.454-1.454A1.454,1.454,0,0,1,114.907,179.192Zm0-6.283a1.454,1.454,0,1,1,1.454-1.454A1.454,1.454,0,0,1,114.907,172.909Zm0-6.283a1.454,1.454,0,1,1,1.454-1.454A1.454,1.454,0,0,1,114.907,166.626Zm0-6.283a1.454,1.454,0,1,1,1.454-1.454A1.454,1.454,0,0,1,114.907,160.343Zm0-6.283a1.454,1.454,0,1,1,1.454-1.454A1.454,1.454,0,0,1,114.907,154.06Zm0-6.283a1.454,1.454,0,1,1,1.454-1.454A1.454,1.454,0,0,1,114.907,147.777Zm0-6.283a1.454,1.454,0,1,1,1.454-1.454A1.454,1.454,0,0,1,114.907,141.494Zm0-6.283a1.454,1.454,0,1,1,1.454-1.454A1.454,1.454,0,0,1,114.907,135.211Zm0-6.283a1.454,1.454,0,1,1,1.454-1.454A1.454,1.454,0,0,1,114.907,128.928Zm0-6.283a1.454,1.454,0,1,1,1.454-1.454A1.454,1.454,0,0,1,114.907,122.645Zm0-6.283a1.454,1.454,0,1,1,1.454-1.454A1.454,1.454,0,0,1,114.907,116.362Zm0-6.283a1.454,1.454,0,1,1,1.454-1.454A1.454,1.454,0,0,1,114.907,110.078Zm0-6.283a1.454,1.454,0,1,1,1.454-1.454A1.454,1.454,0,0,1,114.907,103.8Zm0-6.283a1.454,1.454,0,1,1,1.454-1.454A1.454,1.454,0,0,1,114.907,97.512Zm0-6.283a1.454,1.454,0,1,1,1.454-1.454A1.454,1.454,0,0,1,114.907,91.229Zm0-6.283a1.454,1.454,0,1,1,1.454-1.454A1.454,1.454,0,0,1,114.907,84.946Zm0-6.283a1.454,1.454,0,1,1,1.454-1.454A1.454,1.454,0,0,1,114.907,78.663Zm0-6.283a1.454,1.454,0,1,1,1.454-1.454A1.454,1.454,0,0,1,114.907,72.38Zm0-6.283a1.454,1.454,0,1,1,1.454-1.454A1.454,1.454,0,0,1,114.907,66.1Zm0-6.283a1.454,1.454,0,1,1,1.454-1.454A1.454,1.454,0,0,1,114.907,59.814Zm0-6.283a1.454,1.454,0,1,1,1.454-1.454A1.454,1.454,0,0,1,114.907,53.531Zm0-6.283a1.454,1.454,0,1,1,1.454-1.454A1.454,1.454,0,0,1,114.907,47.248Zm6.283,201.058a1.454,1.454,0,1,1,1.454-1.454A1.454,1.454,0,0,1,121.19,248.306Zm0-6.283a1.454,1.454,0,1,1,1.454-1.454A1.454,1.454,0,0,1,121.19,242.023Zm0-6.283a1.454,1.454,0,1,1,1.454-1.454A1.454,1.454,0,0,1,121.19,235.74Zm0-6.283A1.454,1.454,0,1,1,122.645,228,1.454,1.454,0,0,1,121.19,229.457Zm0-6.283a1.454,1.454,0,1,1,1.454-1.454A1.454,1.454,0,0,1,121.19,223.174Zm0-6.283a1.454,1.454,0,1,1,1.454-1.454A1.454,1.454,0,0,1,121.19,216.891Zm0-6.283a1.454,1.454,0,1,1,1.454-1.454A1.454,1.454,0,0,1,121.19,210.608Zm0-6.283a1.454,1.454,0,1,1,1.454-1.454A1.454,1.454,0,0,1,121.19,204.324Zm0-6.283a1.454,1.454,0,1,1,1.454-1.454A1.454,1.454,0,0,1,121.19,198.041Zm0-6.283a1.454,1.454,0,1,1,1.454-1.454A1.454,1.454,0,0,1,121.19,191.758Zm0-6.283a1.454,1.454,0,1,1,1.454-1.454A1.454,1.454,0,0,1,121.19,185.475Zm0-6.283a1.454,1.454,0,1,1,1.454-1.454A1.454,1.454,0,0,1,121.19,179.192Zm0-6.283a1.454,1.454,0,1,1,1.454-1.454A1.454,1.454,0,0,1,121.19,172.909Zm0-6.283a1.454,1.454,0,1,1,1.454-1.454A1.454,1.454,0,0,1,121.19,166.626Zm0-6.283a1.454,1.454,0,1,1,1.454-1.454A1.454,1.454,0,0,1,121.19,160.343Zm0-6.283a1.454,1.454,0,1,1,1.454-1.454A1.454,1.454,0,0,1,121.19,154.06Zm0-6.283a1.454,1.454,0,1,1,1.454-1.454A1.454,1.454,0,0,1,121.19,147.777Zm0-6.283a1.454,1.454,0,1,1,1.454-1.454A1.454,1.454,0,0,1,121.19,141.494Zm0-6.283a1.454,1.454,0,1,1,1.454-1.454A1.454,1.454,0,0,1,121.19,135.211Zm0-6.283a1.454,1.454,0,1,1,1.454-1.454A1.454,1.454,0,0,1,121.19,128.928Zm0-6.283a1.454,1.454,0,1,1,1.454-1.454A1.454,1.454,0,0,1,121.19,122.645Zm0-6.283a1.454,1.454,0,1,1,1.454-1.454A1.454,1.454,0,0,1,121.19,116.362Zm0-6.283a1.454,1.454,0,1,1,1.454-1.454A1.454,1.454,0,0,1,121.19,110.078Zm0-6.283a1.454,1.454,0,1,1,1.454-1.454A1.454,1.454,0,0,1,121.19,103.8Zm0-6.283a1.454,1.454,0,1,1,1.454-1.454A1.454,1.454,0,0,1,121.19,97.512Zm0-6.283a1.454,1.454,0,1,1,1.454-1.454A1.454,1.454,0,0,1,121.19,91.229Zm0-6.283a1.454,1.454,0,1,1,1.454-1.454A1.454,1.454,0,0,1,121.19,84.946Zm0-6.283a1.454,1.454,0,1,1,1.454-1.454A1.454,1.454,0,0,1,121.19,78.663Zm0-6.283a1.454,1.454,0,1,1,1.454-1.454A1.454,1.454,0,0,1,121.19,72.38Zm0-6.283a1.454,1.454,0,1,1,1.454-1.454A1.454,1.454,0,0,1,121.19,66.1Zm0-6.283a1.454,1.454,0,1,1,1.454-1.454A1.454,1.454,0,0,1,121.19,59.814Zm0-6.283a1.454,1.454,0,1,1,1.454-1.454A1.454,1.454,0,0,1,121.19,53.531Zm0-6.283a1.454,1.454,0,1,1,1.454-1.454A1.454,1.454,0,0,1,121.19,47.248Zm0-6.283a1.454,1.454,0,1,1,1.454-1.454A1.454,1.454,0,0,1,121.19,40.965Zm6.283,207.341a1.454,1.454,0,1,1,1.454-1.454A1.454,1.454,0,0,1,127.473,248.306Zm0-6.283a1.454,1.454,0,1,1,1.454-1.454A1.454,1.454,0,0,1,127.473,242.023Zm0-6.283a1.454,1.454,0,1,1,1.454-1.454A1.454,1.454,0,0,1,127.473,235.74Zm0-6.283A1.454,1.454,0,1,1,128.928,228,1.454,1.454,0,0,1,127.473,229.457Zm0-6.283a1.454,1.454,0,1,1,1.454-1.454A1.454,1.454,0,0,1,127.473,223.174Zm0-6.283a1.454,1.454,0,1,1,1.454-1.454A1.454,1.454,0,0,1,127.473,216.891Zm0-6.283a1.454,1.454,0,1,1,1.454-1.454A1.454,1.454,0,0,1,127.473,210.608Zm0-6.283a1.454,1.454,0,1,1,1.454-1.454A1.454,1.454,0,0,1,127.473,204.324Zm0-6.283a1.454,1.454,0,1,1,1.454-1.454A1.454,1.454,0,0,1,127.473,198.041Zm0-6.283a1.454,1.454,0,1,1,1.454-1.454A1.454,1.454,0,0,1,127.473,191.758Zm0-6.283a1.454,1.454,0,1,1,1.454-1.454A1.454,1.454,0,0,1,127.473,185.475Zm0-6.283a1.454,1.454,0,1,1,1.454-1.454A1.454,1.454,0,0,1,127.473,179.192Zm0-6.283a1.454,1.454,0,1,1,1.454-1.454A1.454,1.454,0,0,1,127.473,172.909Zm0-6.283a1.454,1.454,0,1,1,1.454-1.454A1.454,1.454,0,0,1,127.473,166.626Zm0-6.283a1.454,1.454,0,1,1,1.454-1.454A1.454,1.454,0,0,1,127.473,160.343Zm0-6.283a1.454,1.454,0,1,1,1.454-1.454A1.454,1.454,0,0,1,127.473,154.06Zm0-6.283a1.454,1.454,0,1,1,1.454-1.454A1.454,1.454,0,0,1,127.473,147.777Zm0-6.283a1.454,1.454,0,1,1,1.454-1.454A1.454,1.454,0,0,1,127.473,141.494Zm0-6.283a1.454,1.454,0,1,1,1.454-1.454A1.454,1.454,0,0,1,127.473,135.211Zm0-6.283a1.454,1.454,0,1,1,1.454-1.454A1.454,1.454,0,0,1,127.473,128.928Zm0-6.283a1.454,1.454,0,1,1,1.454-1.454A1.454,1.454,0,0,1,127.473,122.645Zm0-6.283a1.454,1.454,0,1,1,1.454-1.454A1.454,1.454,0,0,1,127.473,116.362Zm0-6.283a1.454,1.454,0,1,1,1.454-1.454A1.454,1.454,0,0,1,127.473,110.078Zm0-6.283a1.454,1.454,0,1,1,1.454-1.454A1.454,1.454,0,0,1,127.473,103.8Zm0-6.283a1.454,1.454,0,1,1,1.454-1.454A1.454,1.454,0,0,1,127.473,97.512Zm0-6.283a1.454,1.454,0,1,1,1.454-1.454A1.454,1.454,0,0,1,127.473,91.229Zm0-6.283a1.454,1.454,0,1,1,1.454-1.454A1.454,1.454,0,0,1,127.473,84.946Zm0-6.283a1.454,1.454,0,1,1,1.454-1.454A1.454,1.454,0,0,1,127.473,78.663Zm0-6.283a1.454,1.454,0,1,1,1.454-1.454A1.454,1.454,0,0,1,127.473,72.38Zm0-6.283a1.454,1.454,0,1,1,1.454-1.454A1.454,1.454,0,0,1,127.473,66.1Zm0-6.283a1.454,1.454,0,1,1,1.454-1.454A1.454,1.454,0,0,1,127.473,59.814Zm0-6.283a1.454,1.454,0,1,1,1.454-1.454A1.454,1.454,0,0,1,127.473,53.531Zm0-6.283a1.454,1.454,0,1,1,1.454-1.454A1.454,1.454,0,0,1,127.473,47.248Zm0-6.283a1.454,1.454,0,1,1,1.454-1.454A1.454,1.454,0,0,1,127.473,40.965Zm6.283,207.341a1.454,1.454,0,1,1,1.454-1.454A1.454,1.454,0,0,1,133.756,248.306Zm0-6.283a1.454,1.454,0,1,1,1.454-1.454A1.454,1.454,0,0,1,133.756,242.023Zm0-6.283a1.454,1.454,0,1,1,1.454-1.454A1.454,1.454,0,0,1,133.756,235.74Zm0-6.283A1.454,1.454,0,1,1,135.211,228,1.454,1.454,0,0,1,133.756,229.457Zm0-6.283a1.454,1.454,0,1,1,1.454-1.454A1.454,1.454,0,0,1,133.756,223.174Zm0-6.283a1.454,1.454,0,1,1,1.454-1.454A1.454,1.454,0,0,1,133.756,216.891Zm0-6.283a1.454,1.454,0,1,1,1.454-1.454A1.454,1.454,0,0,1,133.756,210.608Zm0-6.283a1.454,1.454,0,1,1,1.454-1.454A1.454,1.454,0,0,1,133.756,204.324Zm0-6.283a1.454,1.454,0,1,1,1.454-1.454A1.454,1.454,0,0,1,133.756,198.041Zm0-6.283a1.454,1.454,0,1,1,1.454-1.454A1.454,1.454,0,0,1,133.756,191.758Zm0-6.283a1.454,1.454,0,1,1,1.454-1.454A1.454,1.454,0,0,1,133.756,185.475Zm0-6.283a1.454,1.454,0,1,1,1.454-1.454A1.454,1.454,0,0,1,133.756,179.192Zm0-6.283a1.454,1.454,0,1,1,1.454-1.454A1.454,1.454,0,0,1,133.756,172.909Zm0-6.283a1.454,1.454,0,1,1,1.454-1.454A1.454,1.454,0,0,1,133.756,166.626Zm0-6.283a1.454,1.454,0,1,1,1.454-1.454A1.454,1.454,0,0,1,133.756,160.343Zm0-6.283a1.454,1.454,0,1,1,1.454-1.454A1.454,1.454,0,0,1,133.756,154.06Zm0-6.283a1.454,1.454,0,1,1,1.454-1.454A1.454,1.454,0,0,1,133.756,147.777Zm0-6.283a1.454,1.454,0,1,1,1.454-1.454A1.454,1.454,0,0,1,133.756,141.494Zm0-6.283a1.454,1.454,0,1,1,1.454-1.454A1.454,1.454,0,0,1,133.756,135.211Zm0-6.283a1.454,1.454,0,1,1,1.454-1.454A1.454,1.454,0,0,1,133.756,128.928Zm0-6.283a1.454,1.454,0,1,1,1.454-1.454A1.454,1.454,0,0,1,133.756,122.645Zm0-6.283a1.454,1.454,0,1,1,1.454-1.454A1.454,1.454,0,0,1,133.756,116.362Zm0-6.283a1.454,1.454,0,1,1,1.454-1.454A1.454,1.454,0,0,1,133.756,110.078Zm0-6.283a1.454,1.454,0,1,1,1.454-1.454A1.454,1.454,0,0,1,133.756,103.8Zm0-6.283a1.454,1.454,0,1,1,1.454-1.454A1.454,1.454,0,0,1,133.756,97.512Zm0-6.283a1.454,1.454,0,1,1,1.454-1.454A1.454,1.454,0,0,1,133.756,91.229Zm0-6.283a1.454,1.454,0,1,1,1.454-1.454A1.454,1.454,0,0,1,133.756,84.946Zm0-6.283a1.454,1.454,0,1,1,1.454-1.454A1.454,1.454,0,0,1,133.756,78.663Zm0-6.283a1.454,1.454,0,1,1,1.454-1.454A1.454,1.454,0,0,1,133.756,72.38Zm0-6.283a1.454,1.454,0,1,1,1.454-1.454A1.454,1.454,0,0,1,133.756,66.1Zm0-6.283a1.454,1.454,0,1,1,1.454-1.454A1.454,1.454,0,0,1,133.756,59.814Zm0-6.283a1.454,1.454,0,1,1,1.454-1.454A1.454,1.454,0,0,1,133.756,53.531Zm0-6.283a1.454,1.454,0,1,1,1.454-1.454A1.454,1.454,0,0,1,133.756,47.248Zm0-6.283a1.454,1.454,0,1,1,1.454-1.454A1.454,1.454,0,0,1,133.756,40.965Zm6.283,207.341a1.454,1.454,0,1,1,1.454-1.454A1.454,1.454,0,0,1,140.039,248.306Zm0-6.283a1.454,1.454,0,1,1,1.454-1.454A1.454,1.454,0,0,1,140.039,242.023Zm0-6.283a1.454,1.454,0,1,1,1.454-1.454A1.454,1.454,0,0,1,140.039,235.74Zm0-6.283A1.454,1.454,0,1,1,141.494,228,1.454,1.454,0,0,1,140.039,229.457Zm0-6.283a1.454,1.454,0,1,1,1.454-1.454A1.454,1.454,0,0,1,140.039,223.174Zm0-6.283a1.454,1.454,0,1,1,1.454-1.454A1.454,1.454,0,0,1,140.039,216.891Zm0-6.283a1.454,1.454,0,1,1,1.454-1.454A1.454,1.454,0,0,1,140.039,210.608Zm0-6.283a1.454,1.454,0,1,1,1.454-1.454A1.454,1.454,0,0,1,140.039,204.324Zm0-6.283a1.454,1.454,0,1,1,1.454-1.454A1.454,1.454,0,0,1,140.039,198.041Zm0-6.283a1.454,1.454,0,1,1,1.454-1.454A1.454,1.454,0,0,1,140.039,191.758Zm0-6.283a1.454,1.454,0,1,1,1.454-1.454A1.454,1.454,0,0,1,140.039,185.475Zm0-6.283a1.454,1.454,0,1,1,1.454-1.454A1.454,1.454,0,0,1,140.039,179.192Zm0-6.283a1.454,1.454,0,1,1,1.454-1.454A1.454,1.454,0,0,1,140.039,172.909Zm0-6.283a1.454,1.454,0,1,1,1.454-1.454A1.454,1.454,0,0,1,140.039,166.626Zm0-6.283a1.454,1.454,0,1,1,1.454-1.454A1.454,1.454,0,0,1,140.039,160.343Zm0-6.283a1.454,1.454,0,1,1,1.454-1.454A1.454,1.454,0,0,1,140.039,154.06Zm0-6.283a1.454,1.454,0,1,1,1.454-1.454A1.454,1.454,0,0,1,140.039,147.777Zm0-6.283a1.454,1.454,0,1,1,1.454-1.454A1.454,1.454,0,0,1,140.039,141.494Zm0-6.283a1.454,1.454,0,1,1,1.454-1.454A1.454,1.454,0,0,1,140.039,135.211Zm0-6.283a1.454,1.454,0,1,1,1.454-1.454A1.454,1.454,0,0,1,140.039,128.928Zm0-6.283a1.454,1.454,0,1,1,1.454-1.454A1.454,1.454,0,0,1,140.039,122.645Zm0-6.283a1.454,1.454,0,1,1,1.454-1.454A1.454,1.454,0,0,1,140.039,116.362Zm0-6.283a1.454,1.454,0,1,1,1.454-1.454A1.454,1.454,0,0,1,140.039,110.078Zm0-6.283a1.454,1.454,0,1,1,1.454-1.454A1.454,1.454,0,0,1,140.039,103.8Zm0-6.283a1.454,1.454,0,1,1,1.454-1.454A1.454,1.454,0,0,1,140.039,97.512Zm0-6.283a1.454,1.454,0,1,1,1.454-1.454A1.454,1.454,0,0,1,140.039,91.229Zm0-6.283a1.454,1.454,0,1,1,1.454-1.454A1.454,1.454,0,0,1,140.039,84.946Zm0-6.283a1.454,1.454,0,1,1,1.454-1.454A1.454,1.454,0,0,1,140.039,78.663Zm0-6.283a1.454,1.454,0,1,1,1.454-1.454A1.454,1.454,0,0,1,140.039,72.38Zm0-6.283a1.454,1.454,0,1,1,1.454-1.454A1.454,1.454,0,0,1,140.039,66.1Zm0-6.283a1.454,1.454,0,1,1,1.454-1.454A1.454,1.454,0,0,1,140.039,59.814Zm0-6.283a1.454,1.454,0,1,1,1.454-1.454A1.454,1.454,0,0,1,140.039,53.531Zm0-6.283a1.454,1.454,0,1,1,1.454-1.454A1.454,1.454,0,0,1,140.039,47.248Zm0-6.283a1.454,1.454,0,1,1,1.454-1.454A1.454,1.454,0,0,1,140.039,40.965Zm6.283,207.341a1.454,1.454,0,1,1,1.454-1.454A1.454,1.454,0,0,1,146.323,248.306Zm0-6.283a1.454,1.454,0,1,1,1.454-1.454A1.454,1.454,0,0,1,146.323,242.023Zm0-6.283a1.454,1.454,0,1,1,1.454-1.454A1.454,1.454,0,0,1,146.323,235.74Zm0-6.283A1.454,1.454,0,1,1,147.777,228,1.454,1.454,0,0,1,146.323,229.457Zm0-6.283a1.454,1.454,0,1,1,1.454-1.454A1.454,1.454,0,0,1,146.323,223.174Zm0-6.283a1.454,1.454,0,1,1,1.454-1.454A1.454,1.454,0,0,1,146.323,216.891Zm0-6.283a1.454,1.454,0,1,1,1.454-1.454A1.454,1.454,0,0,1,146.323,210.608Zm0-6.283a1.454,1.454,0,1,1,1.454-1.454A1.454,1.454,0,0,1,146.323,204.324Zm0-6.283a1.454,1.454,0,1,1,1.454-1.454A1.454,1.454,0,0,1,146.323,198.041Zm0-6.283a1.454,1.454,0,1,1,1.454-1.454A1.454,1.454,0,0,1,146.323,191.758Zm0-6.283a1.454,1.454,0,1,1,1.454-1.454A1.454,1.454,0,0,1,146.323,185.475Zm0-6.283a1.454,1.454,0,1,1,1.454-1.454A1.454,1.454,0,0,1,146.323,179.192Zm0-6.283a1.454,1.454,0,1,1,1.454-1.454A1.454,1.454,0,0,1,146.323,172.909Zm0-6.283a1.454,1.454,0,1,1,1.454-1.454A1.454,1.454,0,0,1,146.323,166.626Zm0-6.283a1.454,1.454,0,1,1,1.454-1.454A1.454,1.454,0,0,1,146.323,160.343Zm0-6.283a1.454,1.454,0,1,1,1.454-1.454A1.454,1.454,0,0,1,146.323,154.06Zm0-6.283a1.454,1.454,0,1,1,1.454-1.454A1.454,1.454,0,0,1,146.323,147.777Zm0-6.283a1.454,1.454,0,1,1,1.454-1.454A1.454,1.454,0,0,1,146.323,141.494Zm0-6.283a1.454,1.454,0,1,1,1.454-1.454A1.454,1.454,0,0,1,146.323,135.211Zm0-6.283a1.454,1.454,0,1,1,1.454-1.454A1.454,1.454,0,0,1,146.323,128.928Zm0-6.283a1.454,1.454,0,1,1,1.454-1.454A1.454,1.454,0,0,1,146.323,122.645Zm0-6.283a1.454,1.454,0,1,1,1.454-1.454A1.454,1.454,0,0,1,146.323,116.362Zm0-6.283a1.454,1.454,0,1,1,1.454-1.454A1.454,1.454,0,0,1,146.323,110.078Zm0-6.283a1.454,1.454,0,1,1,1.454-1.454A1.454,1.454,0,0,1,146.323,103.8Zm0-6.283a1.454,1.454,0,1,1,1.454-1.454A1.454,1.454,0,0,1,146.323,97.512Zm0-6.283a1.454,1.454,0,1,1,1.454-1.454A1.454,1.454,0,0,1,146.323,91.229Zm0-6.283a1.454,1.454,0,1,1,1.454-1.454A1.454,1.454,0,0,1,146.323,84.946Zm0-6.283a1.454,1.454,0,1,1,1.454-1.454A1.454,1.454,0,0,1,146.323,78.663Zm0-6.283a1.454,1.454,0,1,1,1.454-1.454A1.454,1.454,0,0,1,146.323,72.38Zm0-6.283a1.454,1.454,0,1,1,1.454-1.454A1.454,1.454,0,0,1,146.323,66.1Zm0-6.283a1.454,1.454,0,1,1,1.454-1.454A1.454,1.454,0,0,1,146.323,59.814Zm0-6.283a1.454,1.454,0,1,1,1.454-1.454A1.454,1.454,0,0,1,146.323,53.531Zm0-6.283a1.454,1.454,0,1,1,1.454-1.454A1.454,1.454,0,0,1,146.323,47.248Zm0-6.283a1.454,1.454,0,1,1,1.454-1.454A1.454,1.454,0,0,1,146.323,40.965Zm6.283,207.341a1.454,1.454,0,1,1,1.454-1.454A1.454,1.454,0,0,1,152.606,248.306Zm0-6.283a1.454,1.454,0,1,1,1.454-1.454A1.454,1.454,0,0,1,152.606,242.023Zm0-6.283a1.454,1.454,0,1,1,1.454-1.454A1.454,1.454,0,0,1,152.606,235.74Zm0-6.283A1.454,1.454,0,1,1,154.06,228,1.454,1.454,0,0,1,152.606,229.457Zm0-6.283a1.454,1.454,0,1,1,1.454-1.454A1.454,1.454,0,0,1,152.606,223.174Zm0-6.283a1.454,1.454,0,1,1,1.454-1.454A1.454,1.454,0,0,1,152.606,216.891Zm0-6.283a1.454,1.454,0,1,1,1.454-1.454A1.454,1.454,0,0,1,152.606,210.608Zm0-6.283a1.454,1.454,0,1,1,1.454-1.454A1.454,1.454,0,0,1,152.606,204.324Zm0-6.283a1.454,1.454,0,1,1,1.454-1.454A1.454,1.454,0,0,1,152.606,198.041Zm0-6.283a1.454,1.454,0,1,1,1.454-1.454A1.454,1.454,0,0,1,152.606,191.758Zm0-6.283a1.454,1.454,0,1,1,1.454-1.454A1.454,1.454,0,0,1,152.606,185.475Zm0-6.283a1.454,1.454,0,1,1,1.454-1.454A1.454,1.454,0,0,1,152.606,179.192Zm0-6.283a1.454,1.454,0,1,1,1.454-1.454A1.454,1.454,0,0,1,152.606,172.909Zm0-6.283a1.454,1.454,0,1,1,1.454-1.454A1.454,1.454,0,0,1,152.606,166.626Zm0-6.283a1.454,1.454,0,1,1,1.454-1.454A1.454,1.454,0,0,1,152.606,160.343Zm0-6.283a1.454,1.454,0,1,1,1.454-1.454A1.454,1.454,0,0,1,152.606,154.06Zm0-6.283a1.454,1.454,0,1,1,1.454-1.454A1.454,1.454,0,0,1,152.606,147.777Zm0-6.283a1.454,1.454,0,1,1,1.454-1.454A1.454,1.454,0,0,1,152.606,141.494Zm0-6.283a1.454,1.454,0,1,1,1.454-1.454A1.454,1.454,0,0,1,152.606,135.211Zm0-6.283a1.454,1.454,0,1,1,1.454-1.454A1.454,1.454,0,0,1,152.606,128.928Zm0-6.283a1.454,1.454,0,1,1,1.454-1.454A1.454,1.454,0,0,1,152.606,122.645Zm0-6.283a1.454,1.454,0,1,1,1.454-1.454A1.454,1.454,0,0,1,152.606,116.362Zm0-6.283a1.454,1.454,0,1,1,1.454-1.454A1.454,1.454,0,0,1,152.606,110.078Zm0-6.283a1.454,1.454,0,1,1,1.454-1.454A1.454,1.454,0,0,1,152.606,103.8Zm0-6.283a1.454,1.454,0,1,1,1.454-1.454A1.454,1.454,0,0,1,152.606,97.512Zm0-6.283a1.454,1.454,0,1,1,1.454-1.454A1.454,1.454,0,0,1,152.606,91.229Zm0-6.283a1.454,1.454,0,1,1,1.454-1.454A1.454,1.454,0,0,1,152.606,84.946Zm0-6.283a1.454,1.454,0,1,1,1.454-1.454A1.454,1.454,0,0,1,152.606,78.663Zm0-6.283a1.454,1.454,0,1,1,1.454-1.454A1.454,1.454,0,0,1,152.606,72.38Zm0-6.283a1.454,1.454,0,1,1,1.454-1.454A1.454,1.454,0,0,1,152.606,66.1Zm0-6.283a1.454,1.454,0,1,1,1.454-1.454A1.454,1.454,0,0,1,152.606,59.814Zm0-6.283a1.454,1.454,0,1,1,1.454-1.454A1.454,1.454,0,0,1,152.606,53.531Zm0-6.283a1.454,1.454,0,1,1,1.454-1.454A1.454,1.454,0,0,1,152.606,47.248Zm0-6.283a1.454,1.454,0,1,1,1.454-1.454A1.454,1.454,0,0,1,152.606,40.965Zm6.283,207.341a1.454,1.454,0,1,1,1.454-1.454A1.454,1.454,0,0,1,158.889,248.306Zm0-6.283a1.454,1.454,0,1,1,1.454-1.454A1.454,1.454,0,0,1,158.889,242.023Zm0-6.283a1.454,1.454,0,1,1,1.454-1.454A1.454,1.454,0,0,1,158.889,235.74Zm0-6.283A1.454,1.454,0,1,1,160.343,228,1.454,1.454,0,0,1,158.889,229.457Zm0-6.283a1.454,1.454,0,1,1,1.454-1.454A1.454,1.454,0,0,1,158.889,223.174Zm0-6.283a1.454,1.454,0,1,1,1.454-1.454A1.454,1.454,0,0,1,158.889,216.891Zm0-6.283a1.454,1.454,0,1,1,1.454-1.454A1.454,1.454,0,0,1,158.889,210.608Zm0-6.283a1.454,1.454,0,1,1,1.454-1.454A1.454,1.454,0,0,1,158.889,204.324Zm0-6.283a1.454,1.454,0,1,1,1.454-1.454A1.454,1.454,0,0,1,158.889,198.041Zm0-6.283a1.454,1.454,0,1,1,1.454-1.454A1.454,1.454,0,0,1,158.889,191.758Zm0-6.283a1.454,1.454,0,1,1,1.454-1.454A1.454,1.454,0,0,1,158.889,185.475Zm0-6.283a1.454,1.454,0,1,1,1.454-1.454A1.454,1.454,0,0,1,158.889,179.192Zm0-6.283a1.454,1.454,0,1,1,1.454-1.454A1.454,1.454,0,0,1,158.889,172.909Zm0-6.283a1.454,1.454,0,1,1,1.454-1.454A1.454,1.454,0,0,1,158.889,166.626Zm0-6.283a1.454,1.454,0,1,1,1.454-1.454A1.454,1.454,0,0,1,158.889,160.343Zm0-6.283a1.454,1.454,0,1,1,1.454-1.454A1.454,1.454,0,0,1,158.889,154.06Zm0-6.283a1.454,1.454,0,1,1,1.454-1.454A1.454,1.454,0,0,1,158.889,147.777Zm0-6.283a1.454,1.454,0,1,1,1.454-1.454A1.454,1.454,0,0,1,158.889,141.494Zm0-6.283a1.454,1.454,0,1,1,1.454-1.454A1.454,1.454,0,0,1,158.889,135.211Zm0-6.283a1.454,1.454,0,1,1,1.454-1.454A1.454,1.454,0,0,1,158.889,128.928Zm0-6.283a1.454,1.454,0,1,1,1.454-1.454A1.454,1.454,0,0,1,158.889,122.645Zm0-6.283a1.454,1.454,0,1,1,1.454-1.454A1.454,1.454,0,0,1,158.889,116.362Zm0-6.283a1.454,1.454,0,1,1,1.454-1.454A1.454,1.454,0,0,1,158.889,110.078Zm0-6.283a1.454,1.454,0,1,1,1.454-1.454A1.454,1.454,0,0,1,158.889,103.8Zm0-6.283a1.454,1.454,0,1,1,1.454-1.454A1.454,1.454,0,0,1,158.889,97.512Zm0-6.283a1.454,1.454,0,1,1,1.454-1.454A1.454,1.454,0,0,1,158.889,91.229Zm0-6.283a1.454,1.454,0,1,1,1.454-1.454A1.454,1.454,0,0,1,158.889,84.946Zm0-6.283a1.454,1.454,0,1,1,1.454-1.454A1.454,1.454,0,0,1,158.889,78.663Zm0-6.283a1.454,1.454,0,1,1,1.454-1.454A1.454,1.454,0,0,1,158.889,72.38Zm0-6.283a1.454,1.454,0,1,1,1.454-1.454A1.454,1.454,0,0,1,158.889,66.1Zm0-6.283a1.454,1.454,0,1,1,1.454-1.454A1.454,1.454,0,0,1,158.889,59.814Zm0-6.283a1.454,1.454,0,1,1,1.454-1.454A1.454,1.454,0,0,1,158.889,53.531Zm0-6.283a1.454,1.454,0,1,1,1.454-1.454A1.454,1.454,0,0,1,158.889,47.248Zm0-6.283a1.454,1.454,0,1,1,1.454-1.454A1.454,1.454,0,0,1,158.889,40.965Zm6.283,207.341a1.454,1.454,0,1,1,1.454-1.454A1.454,1.454,0,0,1,165.172,248.306Zm0-6.283a1.454,1.454,0,1,1,1.454-1.454A1.454,1.454,0,0,1,165.172,242.023Zm0-6.283a1.454,1.454,0,1,1,1.454-1.454A1.454,1.454,0,0,1,165.172,235.74Zm0-6.283A1.454,1.454,0,1,1,166.626,228,1.454,1.454,0,0,1,165.172,229.457Zm0-6.283a1.454,1.454,0,1,1,1.454-1.454A1.454,1.454,0,0,1,165.172,223.174Zm0-6.283a1.454,1.454,0,1,1,1.454-1.454A1.454,1.454,0,0,1,165.172,216.891Zm0-6.283a1.454,1.454,0,1,1,1.454-1.454A1.454,1.454,0,0,1,165.172,210.608Zm0-6.283a1.454,1.454,0,1,1,1.454-1.454A1.454,1.454,0,0,1,165.172,204.324Zm0-6.283a1.454,1.454,0,1,1,1.454-1.454A1.454,1.454,0,0,1,165.172,198.041Zm0-6.283a1.454,1.454,0,1,1,1.454-1.454A1.454,1.454,0,0,1,165.172,191.758Zm0-6.283a1.454,1.454,0,1,1,1.454-1.454A1.454,1.454,0,0,1,165.172,185.475Zm0-6.283a1.454,1.454,0,1,1,1.454-1.454A1.454,1.454,0,0,1,165.172,179.192Zm0-6.283a1.454,1.454,0,1,1,1.454-1.454A1.454,1.454,0,0,1,165.172,172.909Zm0-6.283a1.454,1.454,0,1,1,1.454-1.454A1.454,1.454,0,0,1,165.172,166.626Zm0-6.283a1.454,1.454,0,1,1,1.454-1.454A1.454,1.454,0,0,1,165.172,160.343Zm0-6.283a1.454,1.454,0,1,1,1.454-1.454A1.454,1.454,0,0,1,165.172,154.06Zm0-6.283a1.454,1.454,0,1,1,1.454-1.454A1.454,1.454,0,0,1,165.172,147.777Zm0-6.283a1.454,1.454,0,1,1,1.454-1.454A1.454,1.454,0,0,1,165.172,141.494Zm0-6.283a1.454,1.454,0,1,1,1.454-1.454A1.454,1.454,0,0,1,165.172,135.211Zm0-6.283a1.454,1.454,0,1,1,1.454-1.454A1.454,1.454,0,0,1,165.172,128.928Zm0-6.283a1.454,1.454,0,1,1,1.454-1.454A1.454,1.454,0,0,1,165.172,122.645Zm0-6.283a1.454,1.454,0,1,1,1.454-1.454A1.454,1.454,0,0,1,165.172,116.362Zm0-6.283a1.454,1.454,0,1,1,1.454-1.454A1.454,1.454,0,0,1,165.172,110.078Zm0-6.283a1.454,1.454,0,1,1,1.454-1.454A1.454,1.454,0,0,1,165.172,103.8Zm0-6.283a1.454,1.454,0,1,1,1.454-1.454A1.454,1.454,0,0,1,165.172,97.512Zm0-6.283a1.454,1.454,0,1,1,1.454-1.454A1.454,1.454,0,0,1,165.172,91.229Zm0-6.283a1.454,1.454,0,1,1,1.454-1.454A1.454,1.454,0,0,1,165.172,84.946Zm0-6.283a1.454,1.454,0,1,1,1.454-1.454A1.454,1.454,0,0,1,165.172,78.663Zm0-6.283a1.454,1.454,0,1,1,1.454-1.454A1.454,1.454,0,0,1,165.172,72.38Zm0-6.283a1.454,1.454,0,1,1,1.454-1.454A1.454,1.454,0,0,1,165.172,66.1Zm0-6.283a1.454,1.454,0,1,1,1.454-1.454A1.454,1.454,0,0,1,165.172,59.814Zm0-6.283a1.454,1.454,0,1,1,1.454-1.454A1.454,1.454,0,0,1,165.172,53.531Zm0-6.283a1.454,1.454,0,1,1,1.454-1.454A1.454,1.454,0,0,1,165.172,47.248Zm0-6.283a1.454,1.454,0,1,1,1.454-1.454A1.454,1.454,0,0,1,165.172,40.965Zm6.283,201.058a1.454,1.454,0,1,1,1.454-1.454A1.454,1.454,0,0,1,171.455,242.023Zm0-6.283a1.454,1.454,0,1,1,1.454-1.454A1.454,1.454,0,0,1,171.455,235.74Zm0-6.283A1.454,1.454,0,1,1,172.909,228,1.454,1.454,0,0,1,171.455,229.457Zm0-6.283a1.454,1.454,0,1,1,1.454-1.454A1.454,1.454,0,0,1,171.455,223.174Zm0-6.283a1.454,1.454,0,1,1,1.454-1.454A1.454,1.454,0,0,1,171.455,216.891Zm0-6.283a1.454,1.454,0,1,1,1.454-1.454A1.454,1.454,0,0,1,171.455,210.608Zm0-6.283a1.454,1.454,0,1,1,1.454-1.454A1.454,1.454,0,0,1,171.455,204.324Zm0-6.283a1.454,1.454,0,1,1,1.454-1.454A1.454,1.454,0,0,1,171.455,198.041Zm0-6.283a1.454,1.454,0,1,1,1.454-1.454A1.454,1.454,0,0,1,171.455,191.758Zm0-6.283a1.454,1.454,0,1,1,1.454-1.454A1.454,1.454,0,0,1,171.455,185.475Zm0-6.283a1.454,1.454,0,1,1,1.454-1.454A1.454,1.454,0,0,1,171.455,179.192Zm0-6.283a1.454,1.454,0,1,1,1.454-1.454A1.454,1.454,0,0,1,171.455,172.909Zm0-6.283a1.454,1.454,0,1,1,1.454-1.454A1.454,1.454,0,0,1,171.455,166.626Zm0-6.283a1.454,1.454,0,1,1,1.454-1.454A1.454,1.454,0,0,1,171.455,160.343Zm0-6.283a1.454,1.454,0,1,1,1.454-1.454A1.454,1.454,0,0,1,171.455,154.06Zm0-6.283a1.454,1.454,0,1,1,1.454-1.454A1.454,1.454,0,0,1,171.455,147.777Zm0-6.283a1.454,1.454,0,1,1,1.454-1.454A1.454,1.454,0,0,1,171.455,141.494Zm0-6.283a1.454,1.454,0,1,1,1.454-1.454A1.454,1.454,0,0,1,171.455,135.211Zm0-6.283a1.454,1.454,0,1,1,1.454-1.454A1.454,1.454,0,0,1,171.455,128.928Zm0-6.283a1.454,1.454,0,1,1,1.454-1.454A1.454,1.454,0,0,1,171.455,122.645Zm0-6.283a1.454,1.454,0,1,1,1.454-1.454A1.454,1.454,0,0,1,171.455,116.362Zm0-6.283a1.454,1.454,0,1,1,1.454-1.454A1.454,1.454,0,0,1,171.455,110.078Zm0-6.283a1.454,1.454,0,1,1,1.454-1.454A1.454,1.454,0,0,1,171.455,103.8Zm0-6.283a1.454,1.454,0,1,1,1.454-1.454A1.454,1.454,0,0,1,171.455,97.512Zm0-6.283a1.454,1.454,0,1,1,1.454-1.454A1.454,1.454,0,0,1,171.455,91.229Zm0-6.283a1.454,1.454,0,1,1,1.454-1.454A1.454,1.454,0,0,1,171.455,84.946Zm0-6.283a1.454,1.454,0,1,1,1.454-1.454A1.454,1.454,0,0,1,171.455,78.663Zm0-6.283a1.454,1.454,0,1,1,1.454-1.454A1.454,1.454,0,0,1,171.455,72.38Zm0-6.283a1.454,1.454,0,1,1,1.454-1.454A1.454,1.454,0,0,1,171.455,66.1Zm0-6.283a1.454,1.454,0,1,1,1.454-1.454A1.454,1.454,0,0,1,171.455,59.814Zm0-6.283a1.454,1.454,0,1,1,1.454-1.454A1.454,1.454,0,0,1,171.455,53.531Zm0-6.283a1.454,1.454,0,1,1,1.454-1.454A1.454,1.454,0,0,1,171.455,47.248Zm6.283,194.775a1.454,1.454,0,1,1,1.454-1.454A1.454,1.454,0,0,1,177.738,242.023Zm0-6.283a1.454,1.454,0,1,1,1.454-1.454A1.454,1.454,0,0,1,177.738,235.74Zm0-6.283A1.454,1.454,0,1,1,179.192,228,1.454,1.454,0,0,1,177.738,229.457Zm0-6.283a1.454,1.454,0,1,1,1.454-1.454A1.454,1.454,0,0,1,177.738,223.174Zm0-6.283a1.454,1.454,0,1,1,1.454-1.454A1.454,1.454,0,0,1,177.738,216.891Zm0-6.283a1.454,1.454,0,1,1,1.454-1.454A1.454,1.454,0,0,1,177.738,210.608Zm0-6.283a1.454,1.454,0,1,1,1.454-1.454A1.454,1.454,0,0,1,177.738,204.324Zm0-6.283a1.454,1.454,0,1,1,1.454-1.454A1.454,1.454,0,0,1,177.738,198.041Zm0-6.283a1.454,1.454,0,1,1,1.454-1.454A1.454,1.454,0,0,1,177.738,191.758Zm0-6.283a1.454,1.454,0,1,1,1.454-1.454A1.454,1.454,0,0,1,177.738,185.475Zm0-6.283a1.454,1.454,0,1,1,1.454-1.454A1.454,1.454,0,0,1,177.738,179.192Zm0-6.283a1.454,1.454,0,1,1,1.454-1.454A1.454,1.454,0,0,1,177.738,172.909Zm0-6.283a1.454,1.454,0,1,1,1.454-1.454A1.454,1.454,0,0,1,177.738,166.626Zm0-6.283a1.454,1.454,0,1,1,1.454-1.454A1.454,1.454,0,0,1,177.738,160.343Zm0-6.283a1.454,1.454,0,1,1,1.454-1.454A1.454,1.454,0,0,1,177.738,154.06Zm0-6.283a1.454,1.454,0,1,1,1.454-1.454A1.454,1.454,0,0,1,177.738,147.777Zm0-6.283a1.454,1.454,0,1,1,1.454-1.454A1.454,1.454,0,0,1,177.738,141.494Zm0-6.283a1.454,1.454,0,1,1,1.454-1.454A1.454,1.454,0,0,1,177.738,135.211Zm0-6.283a1.454,1.454,0,1,1,1.454-1.454A1.454,1.454,0,0,1,177.738,128.928Zm0-6.283a1.454,1.454,0,1,1,1.454-1.454A1.454,1.454,0,0,1,177.738,122.645Zm0-6.283a1.454,1.454,0,1,1,1.454-1.454A1.454,1.454,0,0,1,177.738,116.362Zm0-6.283a1.454,1.454,0,1,1,1.454-1.454A1.454,1.454,0,0,1,177.738,110.078Zm0-6.283a1.454,1.454,0,1,1,1.454-1.454A1.454,1.454,0,0,1,177.738,103.8Zm0-6.283a1.454,1.454,0,1,1,1.454-1.454A1.454,1.454,0,0,1,177.738,97.512Zm0-6.283a1.454,1.454,0,1,1,1.454-1.454A1.454,1.454,0,0,1,177.738,91.229Zm0-6.283a1.454,1.454,0,1,1,1.454-1.454A1.454,1.454,0,0,1,177.738,84.946Zm0-6.283a1.454,1.454,0,1,1,1.454-1.454A1.454,1.454,0,0,1,177.738,78.663Zm0-6.283a1.454,1.454,0,1,1,1.454-1.454A1.454,1.454,0,0,1,177.738,72.38Zm0-6.283a1.454,1.454,0,1,1,1.454-1.454A1.454,1.454,0,0,1,177.738,66.1Zm0-6.283a1.454,1.454,0,1,1,1.454-1.454A1.454,1.454,0,0,1,177.738,59.814Zm0-6.283a1.454,1.454,0,1,1,1.454-1.454A1.454,1.454,0,0,1,177.738,53.531Zm0-6.283a1.454,1.454,0,1,1,1.454-1.454A1.454,1.454,0,0,1,177.738,47.248Zm6.283,194.775a1.454,1.454,0,1,1,1.454-1.454A1.454,1.454,0,0,1,184.021,242.023Zm0-6.283a1.454,1.454,0,1,1,1.454-1.454A1.454,1.454,0,0,1,184.021,235.74Zm0-6.283A1.454,1.454,0,1,1,185.475,228,1.454,1.454,0,0,1,184.021,229.457Zm0-6.283a1.454,1.454,0,1,1,1.454-1.454A1.454,1.454,0,0,1,184.021,223.174Zm0-6.283a1.454,1.454,0,1,1,1.454-1.454A1.454,1.454,0,0,1,184.021,216.891Zm0-6.283a1.454,1.454,0,1,1,1.454-1.454A1.454,1.454,0,0,1,184.021,210.608Zm0-6.283a1.454,1.454,0,1,1,1.454-1.454A1.454,1.454,0,0,1,184.021,204.324Zm0-6.283a1.454,1.454,0,1,1,1.454-1.454A1.454,1.454,0,0,1,184.021,198.041Zm0-6.283a1.454,1.454,0,1,1,1.454-1.454A1.454,1.454,0,0,1,184.021,191.758Zm0-6.283a1.454,1.454,0,1,1,1.454-1.454A1.454,1.454,0,0,1,184.021,185.475Zm0-6.283a1.454,1.454,0,1,1,1.454-1.454A1.454,1.454,0,0,1,184.021,179.192Zm0-6.283a1.454,1.454,0,1,1,1.454-1.454A1.454,1.454,0,0,1,184.021,172.909Zm0-6.283a1.454,1.454,0,1,1,1.454-1.454A1.454,1.454,0,0,1,184.021,166.626Zm0-6.283a1.454,1.454,0,1,1,1.454-1.454A1.454,1.454,0,0,1,184.021,160.343Zm0-6.283a1.454,1.454,0,1,1,1.454-1.454A1.454,1.454,0,0,1,184.021,154.06Zm0-6.283a1.454,1.454,0,1,1,1.454-1.454A1.454,1.454,0,0,1,184.021,147.777Zm0-6.283a1.454,1.454,0,1,1,1.454-1.454A1.454,1.454,0,0,1,184.021,141.494Zm0-6.283a1.454,1.454,0,1,1,1.454-1.454A1.454,1.454,0,0,1,184.021,135.211Zm0-6.283a1.454,1.454,0,1,1,1.454-1.454A1.454,1.454,0,0,1,184.021,128.928Zm0-6.283a1.454,1.454,0,1,1,1.454-1.454A1.454,1.454,0,0,1,184.021,122.645Zm0-6.283a1.454,1.454,0,1,1,1.454-1.454A1.454,1.454,0,0,1,184.021,116.362Zm0-6.283a1.454,1.454,0,1,1,1.454-1.454A1.454,1.454,0,0,1,184.021,110.078Zm0-6.283a1.454,1.454,0,1,1,1.454-1.454A1.454,1.454,0,0,1,184.021,103.8Zm0-6.283a1.454,1.454,0,1,1,1.454-1.454A1.454,1.454,0,0,1,184.021,97.512Zm0-6.283a1.454,1.454,0,1,1,1.454-1.454A1.454,1.454,0,0,1,184.021,91.229Zm0-6.283a1.454,1.454,0,1,1,1.454-1.454A1.454,1.454,0,0,1,184.021,84.946Zm0-6.283a1.454,1.454,0,1,1,1.454-1.454A1.454,1.454,0,0,1,184.021,78.663Zm0-6.283a1.454,1.454,0,1,1,1.454-1.454A1.454,1.454,0,0,1,184.021,72.38Zm0-6.283a1.454,1.454,0,1,1,1.454-1.454A1.454,1.454,0,0,1,184.021,66.1Zm0-6.283a1.454,1.454,0,1,1,1.454-1.454A1.454,1.454,0,0,1,184.021,59.814Zm0-6.283a1.454,1.454,0,1,1,1.454-1.454A1.454,1.454,0,0,1,184.021,53.531Zm0-6.283a1.454,1.454,0,1,1,1.454-1.454A1.454,1.454,0,0,1,184.021,47.248ZM190.3,235.74a1.454,1.454,0,1,1,1.454-1.454A1.454,1.454,0,0,1,190.3,235.74Zm0-6.283A1.454,1.454,0,1,1,191.758,228,1.454,1.454,0,0,1,190.3,229.457Zm0-6.283a1.454,1.454,0,1,1,1.454-1.454A1.454,1.454,0,0,1,190.3,223.174Zm0-6.283a1.454,1.454,0,1,1,1.454-1.454A1.454,1.454,0,0,1,190.3,216.891Zm0-6.283a1.454,1.454,0,1,1,1.454-1.454A1.454,1.454,0,0,1,190.3,210.608Zm0-6.283a1.454,1.454,0,1,1,1.454-1.454A1.454,1.454,0,0,1,190.3,204.324Zm0-6.283a1.454,1.454,0,1,1,1.454-1.454A1.454,1.454,0,0,1,190.3,198.041Zm0-6.283a1.454,1.454,0,1,1,1.454-1.454A1.454,1.454,0,0,1,190.3,191.758Zm0-6.283a1.454,1.454,0,1,1,1.454-1.454A1.454,1.454,0,0,1,190.3,185.475Zm0-6.283a1.454,1.454,0,1,1,1.454-1.454A1.454,1.454,0,0,1,190.3,179.192Zm0-6.283a1.454,1.454,0,1,1,1.454-1.454A1.454,1.454,0,0,1,190.3,172.909Zm0-6.283a1.454,1.454,0,1,1,1.454-1.454A1.454,1.454,0,0,1,190.3,166.626Zm0-6.283a1.454,1.454,0,1,1,1.454-1.454A1.454,1.454,0,0,1,190.3,160.343Zm0-6.283a1.454,1.454,0,1,1,1.454-1.454A1.454,1.454,0,0,1,190.3,154.06Zm0-6.283a1.454,1.454,0,1,1,1.454-1.454A1.454,1.454,0,0,1,190.3,147.777Zm0-6.283a1.454,1.454,0,1,1,1.454-1.454A1.454,1.454,0,0,1,190.3,141.494Zm0-6.283a1.454,1.454,0,1,1,1.454-1.454A1.454,1.454,0,0,1,190.3,135.211Zm0-6.283a1.454,1.454,0,1,1,1.454-1.454A1.454,1.454,0,0,1,190.3,128.928Zm0-6.283a1.454,1.454,0,1,1,1.454-1.454A1.454,1.454,0,0,1,190.3,122.645Zm0-6.283a1.454,1.454,0,1,1,1.454-1.454A1.454,1.454,0,0,1,190.3,116.362Zm0-6.283a1.454,1.454,0,1,1,1.454-1.454A1.454,1.454,0,0,1,190.3,110.078Zm0-6.283a1.454,1.454,0,1,1,1.454-1.454A1.454,1.454,0,0,1,190.3,103.8Zm0-6.283a1.454,1.454,0,1,1,1.454-1.454A1.454,1.454,0,0,1,190.3,97.512Zm0-6.283a1.454,1.454,0,1,1,1.454-1.454A1.454,1.454,0,0,1,190.3,91.229Zm0-6.283a1.454,1.454,0,1,1,1.454-1.454A1.454,1.454,0,0,1,190.3,84.946Zm0-6.283a1.454,1.454,0,1,1,1.454-1.454A1.454,1.454,0,0,1,190.3,78.663Zm0-6.283a1.454,1.454,0,1,1,1.454-1.454A1.454,1.454,0,0,1,190.3,72.38Zm0-6.283a1.454,1.454,0,1,1,1.454-1.454A1.454,1.454,0,0,1,190.3,66.1Zm0-6.283a1.454,1.454,0,1,1,1.454-1.454A1.454,1.454,0,0,1,190.3,59.814Zm0-6.283a1.454,1.454,0,1,1,1.454-1.454A1.454,1.454,0,0,1,190.3,53.531Zm6.283,182.209a1.454,1.454,0,1,1,1.454-1.454A1.454,1.454,0,0,1,196.587,235.74Zm0-6.283A1.454,1.454,0,1,1,198.041,228,1.454,1.454,0,0,1,196.587,229.457Zm0-6.283a1.454,1.454,0,1,1,1.454-1.454A1.454,1.454,0,0,1,196.587,223.174Zm0-6.283a1.454,1.454,0,1,1,1.454-1.454A1.454,1.454,0,0,1,196.587,216.891Zm0-6.283a1.454,1.454,0,1,1,1.454-1.454A1.454,1.454,0,0,1,196.587,210.608Zm0-6.283a1.454,1.454,0,1,1,1.454-1.454A1.454,1.454,0,0,1,196.587,204.324Zm0-6.283a1.454,1.454,0,1,1,1.454-1.454A1.454,1.454,0,0,1,196.587,198.041Zm0-6.283a1.454,1.454,0,1,1,1.454-1.454A1.454,1.454,0,0,1,196.587,191.758Zm0-6.283a1.454,1.454,0,1,1,1.454-1.454A1.454,1.454,0,0,1,196.587,185.475Zm0-6.283a1.454,1.454,0,1,1,1.454-1.454A1.454,1.454,0,0,1,196.587,179.192Zm0-6.283a1.454,1.454,0,1,1,1.454-1.454A1.454,1.454,0,0,1,196.587,172.909Zm0-6.283a1.454,1.454,0,1,1,1.454-1.454A1.454,1.454,0,0,1,196.587,166.626Zm0-6.283a1.454,1.454,0,1,1,1.454-1.454A1.454,1.454,0,0,1,196.587,160.343Zm0-6.283a1.454,1.454,0,1,1,1.454-1.454A1.454,1.454,0,0,1,196.587,154.06Zm0-6.283a1.454,1.454,0,1,1,1.454-1.454A1.454,1.454,0,0,1,196.587,147.777Zm0-6.283a1.454,1.454,0,1,1,1.454-1.454A1.454,1.454,0,0,1,196.587,141.494Zm0-6.283a1.454,1.454,0,1,1,1.454-1.454A1.454,1.454,0,0,1,196.587,135.211Zm0-6.283a1.454,1.454,0,1,1,1.454-1.454A1.454,1.454,0,0,1,196.587,128.928Zm0-6.283a1.454,1.454,0,1,1,1.454-1.454A1.454,1.454,0,0,1,196.587,122.645Zm0-6.283a1.454,1.454,0,1,1,1.454-1.454A1.454,1.454,0,0,1,196.587,116.362Zm0-6.283a1.454,1.454,0,1,1,1.454-1.454A1.454,1.454,0,0,1,196.587,110.078Zm0-6.283a1.454,1.454,0,1,1,1.454-1.454A1.454,1.454,0,0,1,196.587,103.8Zm0-6.283a1.454,1.454,0,1,1,1.454-1.454A1.454,1.454,0,0,1,196.587,97.512Zm0-6.283a1.454,1.454,0,1,1,1.454-1.454A1.454,1.454,0,0,1,196.587,91.229Zm0-6.283a1.454,1.454,0,1,1,1.454-1.454A1.454,1.454,0,0,1,196.587,84.946Zm0-6.283a1.454,1.454,0,1,1,1.454-1.454A1.454,1.454,0,0,1,196.587,78.663Zm0-6.283a1.454,1.454,0,1,1,1.454-1.454A1.454,1.454,0,0,1,196.587,72.38Zm0-6.283a1.454,1.454,0,1,1,1.454-1.454A1.454,1.454,0,0,1,196.587,66.1Zm0-6.283a1.454,1.454,0,1,1,1.454-1.454A1.454,1.454,0,0,1,196.587,59.814Zm0-6.283a1.454,1.454,0,1,1,1.454-1.454A1.454,1.454,0,0,1,196.587,53.531Zm6.283,175.926A1.454,1.454,0,1,1,204.324,228,1.454,1.454,0,0,1,202.87,229.457Zm0-6.283a1.454,1.454,0,1,1,1.454-1.454A1.454,1.454,0,0,1,202.87,223.174Zm0-6.283a1.454,1.454,0,1,1,1.454-1.454A1.454,1.454,0,0,1,202.87,216.891Zm0-6.283a1.454,1.454,0,1,1,1.454-1.454A1.454,1.454,0,0,1,202.87,210.608Zm0-6.283a1.454,1.454,0,1,1,1.454-1.454A1.454,1.454,0,0,1,202.87,204.324Zm0-6.283a1.454,1.454,0,1,1,1.454-1.454A1.454,1.454,0,0,1,202.87,198.041Zm0-6.283a1.454,1.454,0,1,1,1.454-1.454A1.454,1.454,0,0,1,202.87,191.758Zm0-6.283a1.454,1.454,0,1,1,1.454-1.454A1.454,1.454,0,0,1,202.87,185.475Zm0-6.283a1.454,1.454,0,1,1,1.454-1.454A1.454,1.454,0,0,1,202.87,179.192Zm0-6.283a1.454,1.454,0,1,1,1.454-1.454A1.454,1.454,0,0,1,202.87,172.909Zm0-6.283a1.454,1.454,0,1,1,1.454-1.454A1.454,1.454,0,0,1,202.87,166.626Zm0-6.283a1.454,1.454,0,1,1,1.454-1.454A1.454,1.454,0,0,1,202.87,160.343Zm0-6.283a1.454,1.454,0,1,1,1.454-1.454A1.454,1.454,0,0,1,202.87,154.06Zm0-6.283a1.454,1.454,0,1,1,1.454-1.454A1.454,1.454,0,0,1,202.87,147.777Zm0-6.283a1.454,1.454,0,1,1,1.454-1.454A1.454,1.454,0,0,1,202.87,141.494Zm0-6.283a1.454,1.454,0,1,1,1.454-1.454A1.454,1.454,0,0,1,202.87,135.211Zm0-6.283a1.454,1.454,0,1,1,1.454-1.454A1.454,1.454,0,0,1,202.87,128.928Zm0-6.283a1.454,1.454,0,1,1,1.454-1.454A1.454,1.454,0,0,1,202.87,122.645Zm0-6.283a1.454,1.454,0,1,1,1.454-1.454A1.454,1.454,0,0,1,202.87,116.362Zm0-6.283a1.454,1.454,0,1,1,1.454-1.454A1.454,1.454,0,0,1,202.87,110.078Zm0-6.283a1.454,1.454,0,1,1,1.454-1.454A1.454,1.454,0,0,1,202.87,103.8Zm0-6.283a1.454,1.454,0,1,1,1.454-1.454A1.454,1.454,0,0,1,202.87,97.512Zm0-6.283a1.454,1.454,0,1,1,1.454-1.454A1.454,1.454,0,0,1,202.87,91.229Zm0-6.283a1.454,1.454,0,1,1,1.454-1.454A1.454,1.454,0,0,1,202.87,84.946Zm0-6.283a1.454,1.454,0,1,1,1.454-1.454A1.454,1.454,0,0,1,202.87,78.663Zm0-6.283a1.454,1.454,0,1,1,1.454-1.454A1.454,1.454,0,0,1,202.87,72.38Zm0-6.283a1.454,1.454,0,1,1,1.454-1.454A1.454,1.454,0,0,1,202.87,66.1Zm0-6.283a1.454,1.454,0,1,1,1.454-1.454A1.454,1.454,0,0,1,202.87,59.814Zm6.283,163.36a1.454,1.454,0,1,1,1.454-1.454A1.454,1.454,0,0,1,209.153,223.174Zm0-6.283a1.454,1.454,0,1,1,1.454-1.454A1.454,1.454,0,0,1,209.153,216.891Zm0-6.283a1.454,1.454,0,1,1,1.454-1.454A1.454,1.454,0,0,1,209.153,210.608Zm0-6.283a1.454,1.454,0,1,1,1.454-1.454A1.454,1.454,0,0,1,209.153,204.324Zm0-6.283a1.454,1.454,0,1,1,1.454-1.454A1.454,1.454,0,0,1,209.153,198.041Zm0-6.283a1.454,1.454,0,1,1,1.454-1.454A1.454,1.454,0,0,1,209.153,191.758Zm0-6.283a1.454,1.454,0,1,1,1.454-1.454A1.454,1.454,0,0,1,209.153,185.475Zm0-6.283a1.454,1.454,0,1,1,1.454-1.454A1.454,1.454,0,0,1,209.153,179.192Zm0-6.283a1.454,1.454,0,1,1,1.454-1.454A1.454,1.454,0,0,1,209.153,172.909Zm0-6.283a1.454,1.454,0,1,1,1.454-1.454A1.454,1.454,0,0,1,209.153,166.626Zm0-6.283a1.454,1.454,0,1,1,1.454-1.454A1.454,1.454,0,0,1,209.153,160.343Zm0-6.283a1.454,1.454,0,1,1,1.454-1.454A1.454,1.454,0,0,1,209.153,154.06Zm0-6.283a1.454,1.454,0,1,1,1.454-1.454A1.454,1.454,0,0,1,209.153,147.777Zm0-6.283a1.454,1.454,0,1,1,1.454-1.454A1.454,1.454,0,0,1,209.153,141.494Zm0-6.283a1.454,1.454,0,1,1,1.454-1.454A1.454,1.454,0,0,1,209.153,135.211Zm0-6.283a1.454,1.454,0,1,1,1.454-1.454A1.454,1.454,0,0,1,209.153,128.928Zm0-6.283a1.454,1.454,0,1,1,1.454-1.454A1.454,1.454,0,0,1,209.153,122.645Zm0-6.283a1.454,1.454,0,1,1,1.454-1.454A1.454,1.454,0,0,1,209.153,116.362Zm0-6.283a1.454,1.454,0,1,1,1.454-1.454A1.454,1.454,0,0,1,209.153,110.078Zm0-6.283a1.454,1.454,0,1,1,1.454-1.454A1.454,1.454,0,0,1,209.153,103.8Zm0-6.283a1.454,1.454,0,1,1,1.454-1.454A1.454,1.454,0,0,1,209.153,97.512Zm0-6.283a1.454,1.454,0,1,1,1.454-1.454A1.454,1.454,0,0,1,209.153,91.229Zm0-6.283a1.454,1.454,0,1,1,1.454-1.454A1.454,1.454,0,0,1,209.153,84.946Zm0-6.283a1.454,1.454,0,1,1,1.454-1.454A1.454,1.454,0,0,1,209.153,78.663Zm0-6.283a1.454,1.454,0,1,1,1.454-1.454A1.454,1.454,0,0,1,209.153,72.38Zm0-6.283a1.454,1.454,0,1,1,1.454-1.454A1.454,1.454,0,0,1,209.153,66.1Zm6.283,157.077a1.454,1.454,0,1,1,1.454-1.454A1.454,1.454,0,0,1,215.436,223.174Zm0-6.283a1.454,1.454,0,1,1,1.454-1.454A1.454,1.454,0,0,1,215.436,216.891Zm0-6.283a1.454,1.454,0,1,1,1.454-1.454A1.454,1.454,0,0,1,215.436,210.608Zm0-6.283a1.454,1.454,0,1,1,1.454-1.454A1.454,1.454,0,0,1,215.436,204.324Zm0-6.283a1.454,1.454,0,1,1,1.454-1.454A1.454,1.454,0,0,1,215.436,198.041Zm0-6.283a1.454,1.454,0,1,1,1.454-1.454A1.454,1.454,0,0,1,215.436,191.758Zm0-6.283a1.454,1.454,0,1,1,1.454-1.454A1.454,1.454,0,0,1,215.436,185.475Zm0-6.283a1.454,1.454,0,1,1,1.454-1.454A1.454,1.454,0,0,1,215.436,179.192Zm0-6.283a1.454,1.454,0,1,1,1.454-1.454A1.454,1.454,0,0,1,215.436,172.909Zm0-6.283a1.454,1.454,0,1,1,1.454-1.454A1.454,1.454,0,0,1,215.436,166.626Zm0-6.283a1.454,1.454,0,1,1,1.454-1.454A1.454,1.454,0,0,1,215.436,160.343Zm0-6.283a1.454,1.454,0,1,1,1.454-1.454A1.454,1.454,0,0,1,215.436,154.06Zm0-6.283a1.454,1.454,0,1,1,1.454-1.454A1.454,1.454,0,0,1,215.436,147.777Zm0-6.283a1.454,1.454,0,1,1,1.454-1.454A1.454,1.454,0,0,1,215.436,141.494Zm0-6.283a1.454,1.454,0,1,1,1.454-1.454A1.454,1.454,0,0,1,215.436,135.211Zm0-6.283a1.454,1.454,0,1,1,1.454-1.454A1.454,1.454,0,0,1,215.436,128.928Zm0-6.283a1.454,1.454,0,1,1,1.454-1.454A1.454,1.454,0,0,1,215.436,122.645Zm0-6.283a1.454,1.454,0,1,1,1.454-1.454A1.454,1.454,0,0,1,215.436,116.362Zm0-6.283a1.454,1.454,0,1,1,1.454-1.454A1.454,1.454,0,0,1,215.436,110.078Zm0-6.283a1.454,1.454,0,1,1,1.454-1.454A1.454,1.454,0,0,1,215.436,103.8Zm0-6.283a1.454,1.454,0,1,1,1.454-1.454A1.454,1.454,0,0,1,215.436,97.512Zm0-6.283a1.454,1.454,0,1,1,1.454-1.454A1.454,1.454,0,0,1,215.436,91.229Zm0-6.283a1.454,1.454,0,1,1,1.454-1.454A1.454,1.454,0,0,1,215.436,84.946Zm0-6.283a1.454,1.454,0,1,1,1.454-1.454A1.454,1.454,0,0,1,215.436,78.663Zm0-6.283a1.454,1.454,0,1,1,1.454-1.454A1.454,1.454,0,0,1,215.436,72.38Zm0-6.283a1.454,1.454,0,1,1,1.454-1.454A1.454,1.454,0,0,1,215.436,66.1Zm6.283,150.794a1.454,1.454,0,1,1,1.454-1.454A1.454,1.454,0,0,1,221.719,216.891Zm0-6.283a1.454,1.454,0,1,1,1.454-1.454A1.454,1.454,0,0,1,221.719,210.608Zm0-6.283a1.454,1.454,0,1,1,1.454-1.454A1.454,1.454,0,0,1,221.719,204.324Zm0-6.283a1.454,1.454,0,1,1,1.454-1.454A1.454,1.454,0,0,1,221.719,198.041Zm0-6.283a1.454,1.454,0,1,1,1.454-1.454A1.454,1.454,0,0,1,221.719,191.758Zm0-6.283a1.454,1.454,0,1,1,1.454-1.454A1.454,1.454,0,0,1,221.719,185.475Zm0-6.283a1.454,1.454,0,1,1,1.454-1.454A1.454,1.454,0,0,1,221.719,179.192Zm0-6.283a1.454,1.454,0,1,1,1.454-1.454A1.454,1.454,0,0,1,221.719,172.909Zm0-6.283a1.454,1.454,0,1,1,1.454-1.454A1.454,1.454,0,0,1,221.719,166.626Zm0-6.283a1.454,1.454,0,1,1,1.454-1.454A1.454,1.454,0,0,1,221.719,160.343Zm0-6.283a1.454,1.454,0,1,1,1.454-1.454A1.454,1.454,0,0,1,221.719,154.06Zm0-6.283a1.454,1.454,0,1,1,1.454-1.454A1.454,1.454,0,0,1,221.719,147.777Zm0-6.283a1.454,1.454,0,1,1,1.454-1.454A1.454,1.454,0,0,1,221.719,141.494Zm0-6.283a1.454,1.454,0,1,1,1.454-1.454A1.454,1.454,0,0,1,221.719,135.211Zm0-6.283a1.454,1.454,0,1,1,1.454-1.454A1.454,1.454,0,0,1,221.719,128.928Zm0-6.283a1.454,1.454,0,1,1,1.454-1.454A1.454,1.454,0,0,1,221.719,122.645Zm0-6.283a1.454,1.454,0,1,1,1.454-1.454A1.454,1.454,0,0,1,221.719,116.362Zm0-6.283a1.454,1.454,0,1,1,1.454-1.454A1.454,1.454,0,0,1,221.719,110.078Zm0-6.283a1.454,1.454,0,1,1,1.454-1.454A1.454,1.454,0,0,1,221.719,103.8Zm0-6.283a1.454,1.454,0,1,1,1.454-1.454A1.454,1.454,0,0,1,221.719,97.512Zm0-6.283a1.454,1.454,0,1,1,1.454-1.454A1.454,1.454,0,0,1,221.719,91.229Zm0-6.283a1.454,1.454,0,1,1,1.454-1.454A1.454,1.454,0,0,1,221.719,84.946Zm0-6.283a1.454,1.454,0,1,1,1.454-1.454A1.454,1.454,0,0,1,221.719,78.663Zm0-6.283a1.454,1.454,0,1,1,1.454-1.454A1.454,1.454,0,0,1,221.719,72.38ZM228,204.324a1.454,1.454,0,1,1,1.454-1.454A1.454,1.454,0,0,1,228,204.324Zm0-6.283a1.454,1.454,0,1,1,1.454-1.454A1.454,1.454,0,0,1,228,198.041Zm0-6.283a1.454,1.454,0,1,1,1.454-1.454A1.454,1.454,0,0,1,228,191.758Zm0-6.283a1.454,1.454,0,1,1,1.454-1.454A1.454,1.454,0,0,1,228,185.475Zm0-6.283a1.454,1.454,0,1,1,1.454-1.454A1.454,1.454,0,0,1,228,179.192Zm0-6.283a1.454,1.454,0,1,1,1.454-1.454A1.454,1.454,0,0,1,228,172.909Zm0-6.283a1.454,1.454,0,1,1,1.454-1.454A1.454,1.454,0,0,1,228,166.626Zm0-6.283a1.454,1.454,0,1,1,1.454-1.454A1.454,1.454,0,0,1,228,160.343Zm0-6.283a1.454,1.454,0,1,1,1.454-1.454A1.454,1.454,0,0,1,228,154.06Zm0-6.283a1.454,1.454,0,1,1,1.454-1.454A1.454,1.454,0,0,1,228,147.777Zm0-6.283a1.454,1.454,0,1,1,1.454-1.454A1.454,1.454,0,0,1,228,141.494Zm0-6.283a1.454,1.454,0,1,1,1.454-1.454A1.454,1.454,0,0,1,228,135.211Zm0-6.283a1.454,1.454,0,1,1,1.454-1.454A1.454,1.454,0,0,1,228,128.928Zm0-6.283a1.454,1.454,0,1,1,1.454-1.454A1.454,1.454,0,0,1,228,122.645Zm0-6.283a1.454,1.454,0,1,1,1.454-1.454A1.454,1.454,0,0,1,228,116.362Zm0-6.283a1.454,1.454,0,1,1,1.454-1.454A1.454,1.454,0,0,1,228,110.078Zm0-6.283a1.454,1.454,0,1,1,1.454-1.454A1.454,1.454,0,0,1,228,103.8Zm0-6.283a1.454,1.454,0,1,1,1.454-1.454A1.454,1.454,0,0,1,228,97.512Zm0-6.283a1.454,1.454,0,1,1,1.454-1.454A1.454,1.454,0,0,1,228,91.229Zm0-6.283a1.454,1.454,0,1,1,1.454-1.454A1.454,1.454,0,0,1,228,84.946Zm6.283,113.1a1.454,1.454,0,1,1,1.454-1.454A1.454,1.454,0,0,1,234.286,198.041Zm0-6.283a1.454,1.454,0,1,1,1.454-1.454A1.454,1.454,0,0,1,234.286,191.758Zm0-6.283a1.454,1.454,0,1,1,1.454-1.454A1.454,1.454,0,0,1,234.286,185.475Zm0-6.283a1.454,1.454,0,1,1,1.454-1.454A1.454,1.454,0,0,1,234.286,179.192Zm0-6.283a1.454,1.454,0,1,1,1.454-1.454A1.454,1.454,0,0,1,234.286,172.909Zm0-6.283a1.454,1.454,0,1,1,1.454-1.454A1.454,1.454,0,0,1,234.286,166.626Zm0-6.283a1.454,1.454,0,1,1,1.454-1.454A1.454,1.454,0,0,1,234.286,160.343Zm0-6.283a1.454,1.454,0,1,1,1.454-1.454A1.454,1.454,0,0,1,234.286,154.06Zm0-6.283a1.454,1.454,0,1,1,1.454-1.454A1.454,1.454,0,0,1,234.286,147.777Zm0-6.283a1.454,1.454,0,1,1,1.454-1.454A1.454,1.454,0,0,1,234.286,141.494Zm0-6.283a1.454,1.454,0,1,1,1.454-1.454A1.454,1.454,0,0,1,234.286,135.211Zm0-6.283a1.454,1.454,0,1,1,1.454-1.454A1.454,1.454,0,0,1,234.286,128.928Zm0-6.283a1.454,1.454,0,1,1,1.454-1.454A1.454,1.454,0,0,1,234.286,122.645Zm0-6.283a1.454,1.454,0,1,1,1.454-1.454A1.454,1.454,0,0,1,234.286,116.362Zm0-6.283a1.454,1.454,0,1,1,1.454-1.454A1.454,1.454,0,0,1,234.286,110.078Zm0-6.283a1.454,1.454,0,1,1,1.454-1.454A1.454,1.454,0,0,1,234.286,103.8Zm0-6.283a1.454,1.454,0,1,1,1.454-1.454A1.454,1.454,0,0,1,234.286,97.512Zm0-6.283a1.454,1.454,0,1,1,1.454-1.454A1.454,1.454,0,0,1,234.286,91.229Zm6.283,94.246a1.454,1.454,0,1,1,1.454-1.454A1.454,1.454,0,0,1,240.569,185.475Zm0-6.283a1.454,1.454,0,1,1,1.454-1.454A1.454,1.454,0,0,1,240.569,179.192Zm0-6.283a1.454,1.454,0,1,1,1.454-1.454A1.454,1.454,0,0,1,240.569,172.909Zm0-6.283a1.454,1.454,0,1,1,1.454-1.454A1.454,1.454,0,0,1,240.569,166.626Zm0-6.283a1.454,1.454,0,1,1,1.454-1.454A1.454,1.454,0,0,1,240.569,160.343Zm0-6.283a1.454,1.454,0,1,1,1.454-1.454A1.454,1.454,0,0,1,240.569,154.06Zm0-6.283a1.454,1.454,0,1,1,1.454-1.454A1.454,1.454,0,0,1,240.569,147.777Zm0-6.283a1.454,1.454,0,1,1,1.454-1.454A1.454,1.454,0,0,1,240.569,141.494Zm0-6.283a1.454,1.454,0,1,1,1.454-1.454A1.454,1.454,0,0,1,240.569,135.211Zm0-6.283a1.454,1.454,0,1,1,1.454-1.454A1.454,1.454,0,0,1,240.569,128.928Zm0-6.283a1.454,1.454,0,1,1,1.454-1.454A1.454,1.454,0,0,1,240.569,122.645Zm0-6.283a1.454,1.454,0,1,1,1.454-1.454A1.454,1.454,0,0,1,240.569,116.362Zm0-6.283a1.454,1.454,0,1,1,1.454-1.454A1.454,1.454,0,0,1,240.569,110.078Zm0-6.283a1.454,1.454,0,1,1,1.454-1.454A1.454,1.454,0,0,1,240.569,103.8Zm6.283,62.831a1.454,1.454,0,1,1,1.454-1.454A1.454,1.454,0,0,1,246.852,166.626Zm0-6.283a1.454,1.454,0,1,1,1.454-1.454A1.454,1.454,0,0,1,246.852,160.343Zm0-6.283a1.454,1.454,0,1,1,1.454-1.454A1.454,1.454,0,0,1,246.852,154.06Zm0-6.283a1.454,1.454,0,1,1,1.454-1.454A1.454,1.454,0,0,1,246.852,147.777Zm0-6.283a1.454,1.454,0,1,1,1.454-1.454A1.454,1.454,0,0,1,246.852,141.494Zm0-6.283a1.454,1.454,0,1,1,1.454-1.454A1.454,1.454,0,0,1,246.852,135.211Zm0-6.283a1.454,1.454,0,1,1,1.454-1.454A1.454,1.454,0,0,1,246.852,128.928Zm0-6.283a1.454,1.454,0,1,1,1.454-1.454A1.454,1.454,0,0,1,246.852,122.645Z" transform="translate(-11426.354 -12350.506)" fill="#aee6e6"/>
      <path id="Shape_2" data-name="Shape 2" d="M145.84,0V80.487H0a23.938,23.938,0,0,1,3.043-1.243c5.438-1.8,11.439-2.239,16.69-4.453A29.7,29.7,0,0,0,32.454,64.223c3.243-4.567,5.921-9.35,10.918-12.819,5.492-3.811,12.583-5.674,19.488-6.9A33.378,33.378,0,0,0,80.526,35.73c2.59-2.549,4.589-5.477,7.131-8.059A21.113,21.113,0,0,1,99.6,21.614c4.193-.7,9.017-.8,12.536-3.08,2.482-1.605,3.512-4.062,4.133-6.531,1.062-4.23,1-9.826,6.047-12Z" transform="translate(-12353.159 -12525.395) rotate(180)" fill="#7d6eb2"/>
    </g>
  </g>
</svg>
