<svg xmlns="http://www.w3.org/2000/svg" width="504.893" height="506.503" viewBox="0 0 504.893 506.503">
  <g id="Grupo_1100024" data-name="Grupo 1100024" transform="translate(-285 -9287.897)">
    <path id="Trazado_875987" data-name="Trazado 875987" d="M20,0H137.893a20,20,0,0,1,20,20V137.893a20,20,0,0,1-20,20H20a20,20,0,0,1-20-20V20A20,20,0,0,1,20,0Z" transform="translate(459 9287.897)" fill="#3c4973"/>
    <path id="Trazado_875988" data-name="Trazado 875988" d="M-38.547,0V-10.664h3.281a4.983,4.983,0,0,1,2.516.634,4.418,4.418,0,0,1,1.732,1.8A5.557,5.557,0,0,1-30.4-5.574v.491a5.573,5.573,0,0,1-.612,2.644A4.38,4.38,0,0,1-32.732-.645,5.021,5.021,0,0,1-35.244,0Zm2.2-8.884v7.119h1.062a2.386,2.386,0,0,0,1.97-.842,3.806,3.806,0,0,0,.7-2.41v-.564A3.867,3.867,0,0,0-33.3-8.046a2.378,2.378,0,0,0-1.97-.839ZM-25.291.146A3.89,3.89,0,0,1-28.129-.923a3.8,3.8,0,0,1-1.095-2.849v-.205a4.787,4.787,0,0,1,.461-2.135,3.386,3.386,0,0,1,1.307-1.45,3.669,3.669,0,0,1,1.93-.509,3.289,3.289,0,0,1,2.56,1.025,4.167,4.167,0,0,1,.934,2.908v.864h-5.046a1.966,1.966,0,0,0,.619,1.245,1.871,1.871,0,0,0,1.307.469,2.285,2.285,0,0,0,1.912-.886l1.04,1.165A3.178,3.178,0,0,1-23.489-.231,4.229,4.229,0,0,1-25.291.146Zm-.242-6.5a1.326,1.326,0,0,0-1.022.425,2.195,2.195,0,0,0-.5,1.216h2.944v-.168a1.565,1.565,0,0,0-.381-1.088A1.368,1.368,0,0,0-25.532-6.357Zm11.843,2.468A4.8,4.8,0,0,1-14.5-.919,2.693,2.693,0,0,1-16.772.146a2.474,2.474,0,0,1-2.058-.989l-.1.842h-1.9V-11.25h2.117v4.036a2.411,2.411,0,0,1,1.926-.857,2.715,2.715,0,0,1,2.274,1.066,4.806,4.806,0,0,1,.824,3Zm-2.117-.154A3.153,3.153,0,0,0-16.187-5.8a1.288,1.288,0,0,0-1.135-.553,1.4,1.4,0,0,0-1.392.828V-2.4a1.415,1.415,0,0,0,1.406.835,1.307,1.307,0,0,0,1.348-1.011A5.214,5.214,0,0,0-15.806-4.043ZM-10.151,0h-2.124V-7.925h2.124ZM-12.4-9.976a1.042,1.042,0,0,1,.319-.784,1.2,1.2,0,0,1,.868-.308,1.2,1.2,0,0,1,.864.308,1.036,1.036,0,0,1,.322.784,1.039,1.039,0,0,1-.326.791,1.2,1.2,0,0,1-.861.308,1.2,1.2,0,0,1-.861-.308A1.039,1.039,0,0,1-12.4-9.976ZM-6.174,0H-8.3V-11.25h2.124ZM-2.2,0H-4.321V-7.925H-2.2ZM-4.446-9.976a1.042,1.042,0,0,1,.319-.784,1.2,1.2,0,0,1,.868-.308,1.2,1.2,0,0,1,.864.308,1.036,1.036,0,0,1,.322.784,1.039,1.039,0,0,1-.326.791,1.2,1.2,0,0,1-.861.308,1.2,1.2,0,0,1-.861-.308A1.039,1.039,0,0,1-4.446-9.976ZM-.784-4.021A4.776,4.776,0,0,1,.048-6.973a2.7,2.7,0,0,1,2.274-1.1,2.427,2.427,0,0,1,1.912.864V-11.25H6.357V0H4.446l-.1-.842A2.491,2.491,0,0,1,2.307.146,2.69,2.69,0,0,1,.062-.956,4.93,4.93,0,0,1-.784-4.021Zm2.117.154a3.12,3.12,0,0,0,.388,1.707,1.265,1.265,0,0,0,1.128.593A1.417,1.417,0,0,0,4.233-2.4V-5.522a1.4,1.4,0,0,0-1.37-.828Q1.333-6.35,1.333-3.867ZM12.59,0a2.351,2.351,0,0,1-.212-.71,2.561,2.561,0,0,1-2,.857,2.814,2.814,0,0,1-1.93-.674,2.167,2.167,0,0,1-.765-1.7A2.24,2.24,0,0,1,8.617-4.16a4.608,4.608,0,0,1,2.7-.681h.974V-5.3a1.306,1.306,0,0,0-.282-.879,1.109,1.109,0,0,0-.89-.33,1.261,1.261,0,0,0-.839.256.871.871,0,0,0-.3.7H7.859a2.126,2.126,0,0,1,.425-1.274,2.808,2.808,0,0,1,1.2-.919,4.378,4.378,0,0,1,1.743-.333,3.459,3.459,0,0,1,2.325.736,2.575,2.575,0,0,1,.861,2.069v3.435a3.789,3.789,0,0,0,.315,1.707V0ZM10.84-1.472a1.823,1.823,0,0,0,.864-.209,1.371,1.371,0,0,0,.586-.56V-3.6H11.5Q9.91-3.6,9.807-2.5L9.8-2.38a.847.847,0,0,0,.278.652A1.081,1.081,0,0,0,10.84-1.472ZM15.71-4.021a4.776,4.776,0,0,1,.831-2.952,2.7,2.7,0,0,1,2.274-1.1,2.427,2.427,0,0,1,1.912.864V-11.25h2.124V0H20.94l-.1-.842A2.491,2.491,0,0,1,18.8.146a2.69,2.69,0,0,1-2.245-1.1A4.93,4.93,0,0,1,15.71-4.021Zm2.117.154a3.12,3.12,0,0,0,.388,1.707,1.265,1.265,0,0,0,1.128.593A1.417,1.417,0,0,0,20.728-2.4V-5.522a1.4,1.4,0,0,0-1.37-.828Q17.827-6.35,17.827-3.867ZM28.14.146A3.89,3.89,0,0,1,25.3-.923a3.8,3.8,0,0,1-1.095-2.849v-.205a4.787,4.787,0,0,1,.461-2.135,3.386,3.386,0,0,1,1.307-1.45,3.669,3.669,0,0,1,1.93-.509,3.289,3.289,0,0,1,2.56,1.025A4.167,4.167,0,0,1,31.4-4.138v.864H26.353a1.966,1.966,0,0,0,.619,1.245,1.871,1.871,0,0,0,1.307.469,2.285,2.285,0,0,0,1.912-.886l1.04,1.165A3.178,3.178,0,0,1,29.941-.231,4.229,4.229,0,0,1,28.14.146Zm-.242-6.5a1.326,1.326,0,0,0-1.022.425,2.195,2.195,0,0,0-.5,1.216h2.944v-.168a1.565,1.565,0,0,0-.381-1.088A1.368,1.368,0,0,0,27.9-6.357ZM36.892-2.19a.682.682,0,0,0-.385-.612,4.368,4.368,0,0,0-1.234-.4q-2.827-.593-2.827-2.4a2.178,2.178,0,0,1,.875-1.761,3.531,3.531,0,0,1,2.289-.707,3.8,3.8,0,0,1,2.413.71,2.239,2.239,0,0,1,.9,1.846H36.812a1.024,1.024,0,0,0-.293-.751,1.24,1.24,0,0,0-.916-.3,1.267,1.267,0,0,0-.828.242.763.763,0,0,0-.293.615.652.652,0,0,0,.333.568,3.428,3.428,0,0,0,1.124.374,9.183,9.183,0,0,1,1.333.355A2.19,2.19,0,0,1,38.95-2.278a2.067,2.067,0,0,1-.93,1.754,4.013,4.013,0,0,1-2.4.67,4.191,4.191,0,0,1-1.769-.355,2.968,2.968,0,0,1-1.212-.974A2.263,2.263,0,0,1,32.2-2.52H34.2a1.105,1.105,0,0,0,.417.864,1.656,1.656,0,0,0,1.04.3,1.533,1.533,0,0,0,.919-.231A.718.718,0,0,0,36.892-2.19Z" transform="translate(537 9370.723)" fill="#fff"/>
    <path id="Trazado_875991" data-name="Trazado 875991" d="M20,0H137.893a20,20,0,0,1,20,20V137.893a20,20,0,0,1-20,20H20a20,20,0,0,1-20-20V20A20,20,0,0,1,20,0Z" transform="translate(632 9287.897)" fill="#b54273"/>
    <path id="Trazado_875992" data-name="Trazado 875992" d="M-26.24-4.067h-3.937V0h-2.051V-9.953h6.48v1.661h-4.43v2.57h3.938Zm1.1.3a4.387,4.387,0,0,1,.424-1.962A3.1,3.1,0,0,1-23.5-7.062a3.56,3.56,0,0,1,1.849-.472,3.368,3.368,0,0,1,2.444.916,3.676,3.676,0,0,1,1.056,2.488l.014.506a3.866,3.866,0,0,1-.95,2.731A3.3,3.3,0,0,1-21.632.137,3.319,3.319,0,0,1-24.186-.889a3.934,3.934,0,0,1-.954-2.789Zm1.976.144a2.757,2.757,0,0,0,.4,1.61,1.309,1.309,0,0,0,1.135.557,1.312,1.312,0,0,0,1.121-.55,3.017,3.017,0,0,0,.4-1.76,2.73,2.73,0,0,0-.4-1.6,1.312,1.312,0,0,0-1.135-.567,1.29,1.29,0,0,0-1.121.564A3.068,3.068,0,0,0-23.164-3.623Zm10.4-1.921A5.367,5.367,0,0,0-13.47-5.6a1.447,1.447,0,0,0-1.47.759V0h-1.976V-7.4h1.866l.055.882a1.831,1.831,0,0,1,1.647-1.019,2.07,2.07,0,0,1,.615.089ZM-9.1-9.215V-7.4h1.265v1.449H-9.1v3.691a.881.881,0,0,0,.157.588.79.79,0,0,0,.6.178,3.151,3.151,0,0,0,.581-.048v1.5a4.067,4.067,0,0,1-1.2.178,1.886,1.886,0,0,1-2.119-2.1V-5.947h-1.08V-7.4h1.08V-9.215ZM-2.451,0a2.194,2.194,0,0,1-.2-.663,2.39,2.39,0,0,1-1.866.8,2.626,2.626,0,0,1-1.8-.629,2.023,2.023,0,0,1-.714-1.586,2.09,2.09,0,0,1,.872-1.8A4.3,4.3,0,0,1-3.64-4.519h.909v-.424a1.219,1.219,0,0,0-.263-.82,1.035,1.035,0,0,0-.831-.308,1.177,1.177,0,0,0-.783.239.813.813,0,0,0-.284.656H-6.867a1.984,1.984,0,0,1,.4-1.189,2.621,2.621,0,0,1,1.121-.858,4.086,4.086,0,0,1,1.627-.311,3.228,3.228,0,0,1,2.17.687,2.4,2.4,0,0,1,.8,1.931v3.206A3.536,3.536,0,0,0-.455-.116V0ZM-4.084-1.374a1.7,1.7,0,0,0,.807-.195,1.28,1.28,0,0,0,.547-.523V-3.363h-.738q-1.483,0-1.579,1.025l-.007.116a.791.791,0,0,0,.26.608A1.009,1.009,0,0,0-4.084-1.374ZM2.854,0H.872V-10.5H2.854ZM7.885.137a3.631,3.631,0,0,1-2.649-1A3.548,3.548,0,0,1,4.214-3.521v-.191A4.468,4.468,0,0,1,4.645-5.7a3.161,3.161,0,0,1,1.22-1.354,3.425,3.425,0,0,1,1.8-.475,3.07,3.07,0,0,1,2.389.957,3.889,3.889,0,0,1,.872,2.714v.807H6.217a1.835,1.835,0,0,0,.578,1.162,1.746,1.746,0,0,0,1.22.438A2.132,2.132,0,0,0,9.8-2.283L10.77-1.2a2.966,2.966,0,0,1-1.2.981A3.947,3.947,0,0,1,7.885.137ZM7.66-5.934a1.237,1.237,0,0,0-.954.4A2.048,2.048,0,0,0,6.238-4.4H8.986V-4.56A1.46,1.46,0,0,0,8.63-5.575,1.277,1.277,0,0,0,7.66-5.934Zm6.658,4.341h3.616V0H11.8V-1.2L15.275-5.8H11.9V-7.4h5.927v1.169ZM23.458,0a2.194,2.194,0,0,1-.2-.663,2.39,2.39,0,0,1-1.866.8,2.626,2.626,0,0,1-1.8-.629,2.023,2.023,0,0,1-.714-1.586,2.09,2.09,0,0,1,.872-1.8,4.3,4.3,0,0,1,2.519-.636h.909v-.424a1.219,1.219,0,0,0-.263-.82,1.035,1.035,0,0,0-.831-.308,1.177,1.177,0,0,0-.783.239.813.813,0,0,0-.284.656H19.042a1.984,1.984,0,0,1,.4-1.189,2.621,2.621,0,0,1,1.121-.858,4.086,4.086,0,0,1,1.627-.311,3.228,3.228,0,0,1,2.17.687,2.4,2.4,0,0,1,.8,1.931v3.206a3.536,3.536,0,0,0,.294,1.593V0ZM21.824-1.374a1.7,1.7,0,0,0,.807-.195,1.28,1.28,0,0,0,.547-.523V-3.363h-.738q-1.483,0-1.579,1.025l-.007.116a.791.791,0,0,0,.26.608A1.009,1.009,0,0,0,21.824-1.374Zm8.859-.67a.637.637,0,0,0-.359-.571,4.077,4.077,0,0,0-1.152-.373q-2.639-.554-2.639-2.242a2.032,2.032,0,0,1,.817-1.644,3.3,3.3,0,0,1,2.136-.66,3.547,3.547,0,0,1,2.252.663,2.09,2.09,0,0,1,.844,1.723H30.608a.956.956,0,0,0-.273-.7,1.157,1.157,0,0,0-.854-.277,1.182,1.182,0,0,0-.772.226.712.712,0,0,0-.273.574.609.609,0,0,0,.311.53,3.2,3.2,0,0,0,1.049.349,8.571,8.571,0,0,1,1.244.332A2.044,2.044,0,0,1,32.6-2.126a1.929,1.929,0,0,1-.868,1.637,3.745,3.745,0,0,1-2.242.625,3.912,3.912,0,0,1-1.651-.332A2.77,2.77,0,0,1,26.711-1.1a2.113,2.113,0,0,1-.41-1.248h1.873a1.031,1.031,0,0,0,.39.807,1.546,1.546,0,0,0,.971.28,1.43,1.43,0,0,0,.858-.215A.67.67,0,0,0,30.683-2.044Z" transform="translate(711 9369.723)" fill="#fff"/>
    <path id="Trazado_875989" data-name="Trazado 875989" d="M20,0H137.893a20,20,0,0,1,20,20V137.893a20,20,0,0,1-20,20H20a20,20,0,0,1-20-20V20A20,20,0,0,1,20,0Z" transform="translate(459 9462.202)" fill="#5ca09a"/>
    <path id="Trazado_875993" data-name="Trazado 875993" d="M-42.543-4.622h-4.219v2.856h4.951V0h-7.148V-10.664h7.134v1.78h-4.937v2.542h4.219Zm6.174,2.432a.682.682,0,0,0-.385-.612,4.368,4.368,0,0,0-1.234-.4q-2.827-.593-2.827-2.4a2.178,2.178,0,0,1,.875-1.761,3.531,3.531,0,0,1,2.289-.707,3.8,3.8,0,0,1,2.413.71,2.239,2.239,0,0,1,.9,1.846h-2.117a1.024,1.024,0,0,0-.293-.751,1.24,1.24,0,0,0-.916-.3,1.267,1.267,0,0,0-.828.242.763.763,0,0,0-.293.615.652.652,0,0,0,.333.568,3.428,3.428,0,0,0,1.124.374,9.183,9.183,0,0,1,1.333.355A2.19,2.19,0,0,1-34.31-2.278a2.067,2.067,0,0,1-.93,1.754,4.013,4.013,0,0,1-2.4.67,4.191,4.191,0,0,1-1.769-.355,2.968,2.968,0,0,1-1.212-.974,2.263,2.263,0,0,1-.439-1.337h2.007a1.105,1.105,0,0,0,.417.864,1.656,1.656,0,0,0,1.04.3,1.533,1.533,0,0,0,.919-.231A.718.718,0,0,0-36.368-2.19Zm5.955-7.683v1.948h1.355v1.553h-1.355v3.955a.944.944,0,0,0,.168.63.846.846,0,0,0,.645.19,3.376,3.376,0,0,0,.623-.051v1.6a4.358,4.358,0,0,1-1.282.19A2.021,2.021,0,0,1-32.531-2.1v-4.27h-1.157V-7.925h1.157V-9.873Zm6.987,3.933A5.75,5.75,0,0,0-24.188-6a1.55,1.55,0,0,0-1.575.813V0H-27.88V-7.925h2l.059.945a1.961,1.961,0,0,1,1.765-1.091,2.218,2.218,0,0,1,.659.1ZM-18.036,0a2.351,2.351,0,0,1-.212-.71,2.561,2.561,0,0,1-2,.857,2.814,2.814,0,0,1-1.93-.674,2.167,2.167,0,0,1-.765-1.7,2.24,2.24,0,0,1,.934-1.934,4.608,4.608,0,0,1,2.7-.681h.974V-5.3a1.306,1.306,0,0,0-.282-.879,1.109,1.109,0,0,0-.89-.33,1.261,1.261,0,0,0-.839.256.871.871,0,0,0-.3.7h-2.117a2.126,2.126,0,0,1,.425-1.274,2.808,2.808,0,0,1,1.2-.919A4.378,4.378,0,0,1-19.4-8.071a3.459,3.459,0,0,1,2.325.736,2.575,2.575,0,0,1,.861,2.069v3.435A3.789,3.789,0,0,0-15.9-.125V0Zm-1.75-1.472a1.823,1.823,0,0,0,.864-.209,1.371,1.371,0,0,0,.586-.56V-3.6h-.791q-1.589,0-1.692,1.1l-.007.125a.847.847,0,0,0,.278.652A1.081,1.081,0,0,0-19.786-1.472Zm7.734-8.4v1.948H-10.7v1.553h-1.355v3.955a.944.944,0,0,0,.168.63.846.846,0,0,0,.645.19,3.376,3.376,0,0,0,.623-.051v1.6A4.358,4.358,0,0,1-11.9.146,2.021,2.021,0,0,1-14.169-2.1v-4.27h-1.157V-7.925h1.157V-9.873ZM-5.87.146A3.89,3.89,0,0,1-8.708-.923,3.8,3.8,0,0,1-9.8-3.772v-.205a4.787,4.787,0,0,1,.461-2.135,3.386,3.386,0,0,1,1.307-1.45A3.669,3.669,0,0,1-6.1-8.071a3.289,3.289,0,0,1,2.56,1.025,4.167,4.167,0,0,1,.934,2.908v.864H-7.657a1.966,1.966,0,0,0,.619,1.245,1.871,1.871,0,0,0,1.307.469A2.285,2.285,0,0,0-3.82-2.446l1.04,1.165A3.178,3.178,0,0,1-4.069-.231,4.229,4.229,0,0,1-5.87.146Zm-.242-6.5a1.326,1.326,0,0,0-1.022.425,2.195,2.195,0,0,0-.5,1.216h2.944v-.168a1.565,1.565,0,0,0-.381-1.088A1.368,1.368,0,0,0-6.112-6.357Zm4.395,2.336A4.644,4.644,0,0,1-.85-6.958,2.812,2.812,0,0,1,1.49-8.071a2.466,2.466,0,0,1,2.029.894l.088-.747H5.526V-.264a3.387,3.387,0,0,1-.472,1.809A3.034,3.034,0,0,1,3.724,2.717a4.673,4.673,0,0,1-2.007.4,4.346,4.346,0,0,1-1.7-.348,3.016,3.016,0,0,1-1.252-.9L-.3.586a2.48,2.48,0,0,0,1.919.886,1.815,1.815,0,0,0,1.311-.45A1.69,1.69,0,0,0,3.4-.256V-.681A2.448,2.448,0,0,1,1.476.146,2.8,2.8,0,0,1-.835-.97a4.643,4.643,0,0,1-.883-2.963ZM.4-3.867A2.884,2.884,0,0,0,.831-2.179a1.375,1.375,0,0,0,1.187.612A1.47,1.47,0,0,0,3.4-2.292V-5.625a1.467,1.467,0,0,0-1.37-.725,1.384,1.384,0,0,0-1.2.623A3.251,3.251,0,0,0,.4-3.867ZM9.386,0H7.262V-7.925H9.386ZM7.137-9.976a1.042,1.042,0,0,1,.319-.784,1.2,1.2,0,0,1,.868-.308,1.2,1.2,0,0,1,.864.308,1.036,1.036,0,0,1,.322.784,1.039,1.039,0,0,1-.326.791,1.2,1.2,0,0,1-.861.308,1.2,1.2,0,0,1-.861-.308A1.039,1.039,0,0,1,7.137-9.976ZM15.721,0a2.351,2.351,0,0,1-.212-.71,2.561,2.561,0,0,1-2,.857,2.814,2.814,0,0,1-1.93-.674,2.167,2.167,0,0,1-.765-1.7,2.24,2.24,0,0,1,.934-1.934,4.608,4.608,0,0,1,2.7-.681h.974V-5.3a1.306,1.306,0,0,0-.282-.879,1.109,1.109,0,0,0-.89-.33,1.261,1.261,0,0,0-.839.256.871.871,0,0,0-.3.7H10.99a2.126,2.126,0,0,1,.425-1.274,2.808,2.808,0,0,1,1.2-.919,4.378,4.378,0,0,1,1.743-.333,3.459,3.459,0,0,1,2.325.736,2.575,2.575,0,0,1,.861,2.069v3.435A3.789,3.789,0,0,0,17.86-.125V0Zm-1.75-1.472a1.823,1.823,0,0,0,.864-.209,1.371,1.371,0,0,0,.586-.56V-3.6H14.63q-1.589,0-1.692,1.1l-.007.125a.847.847,0,0,0,.278.652A1.081,1.081,0,0,0,13.971-1.472Zm9.492-.718a.682.682,0,0,0-.385-.612,4.368,4.368,0,0,0-1.234-.4q-2.827-.593-2.827-2.4a2.178,2.178,0,0,1,.875-1.761,3.531,3.531,0,0,1,2.289-.707,3.8,3.8,0,0,1,2.413.71,2.239,2.239,0,0,1,.9,1.846H23.383a1.024,1.024,0,0,0-.293-.751,1.24,1.24,0,0,0-.916-.3,1.267,1.267,0,0,0-.828.242.763.763,0,0,0-.293.615.652.652,0,0,0,.333.568,3.428,3.428,0,0,0,1.124.374,9.183,9.183,0,0,1,1.333.355,2.19,2.19,0,0,1,1.677,2.131,2.067,2.067,0,0,1-.93,1.754,4.013,4.013,0,0,1-2.4.67A4.191,4.191,0,0,1,20.42-.209a2.968,2.968,0,0,1-1.212-.974,2.263,2.263,0,0,1-.439-1.337h2.007a1.105,1.105,0,0,0,.417.864,1.656,1.656,0,0,0,1.04.3,1.533,1.533,0,0,0,.919-.231A.718.718,0,0,0,23.463-2.19ZM30.758,0V-10.664h3.281a4.983,4.983,0,0,1,2.516.634,4.418,4.418,0,0,1,1.732,1.8,5.557,5.557,0,0,1,.623,2.655v.491A5.573,5.573,0,0,1,38.3-2.439,4.38,4.38,0,0,1,36.573-.645,5.021,5.021,0,0,1,34.061,0Zm2.2-8.884v7.119h1.062a2.386,2.386,0,0,0,1.97-.842,3.806,3.806,0,0,0,.7-2.41v-.564a3.867,3.867,0,0,0-.674-2.465,2.378,2.378,0,0,0-1.97-.839ZM49.266-5.09a6.438,6.438,0,0,1-.557,2.761A4.192,4.192,0,0,1,47.117-.5,4.407,4.407,0,0,1,44.74.146a4.437,4.437,0,0,1-2.366-.637,4.233,4.233,0,0,1-1.611-1.82,6.253,6.253,0,0,1-.579-2.721v-.527a6.4,6.4,0,0,1,.568-2.772,4.226,4.226,0,0,1,1.6-1.838,4.412,4.412,0,0,1,2.369-.641,4.412,4.412,0,0,1,2.369.641,4.226,4.226,0,0,1,1.6,1.838,6.386,6.386,0,0,1,.568,2.765ZM47.04-5.574a4.488,4.488,0,0,0-.6-2.549,1.957,1.957,0,0,0-1.714-.872,1.958,1.958,0,0,0-1.707.861,4.436,4.436,0,0,0-.608,2.523v.52a4.544,4.544,0,0,0,.6,2.534,1.952,1.952,0,0,0,1.729.9,1.935,1.935,0,0,0,1.7-.868,4.517,4.517,0,0,0,.6-2.531Z" transform="translate(537 9545.026)" fill="#fff"/>
    <path id="Trazado_875670" data-name="Trazado 875670" d="M20,0H137.893a20,20,0,0,1,20,20V137.893a20,20,0,0,1-20,20H20a20,20,0,0,1-20-20V20A20,20,0,0,1,20,0Z" transform="translate(632 9462.202)" fill="#7d6eb2"/>
    <path id="Trazado_875994" data-name="Trazado 875994" d="M-41.777-4.622H-46v2.856h4.951V0h-7.148V-10.664h7.134v1.78H-46v2.542h4.219ZM-35.6-2.19a.682.682,0,0,0-.385-.612,4.368,4.368,0,0,0-1.234-.4q-2.827-.593-2.827-2.4a2.178,2.178,0,0,1,.875-1.761,3.531,3.531,0,0,1,2.289-.707,3.8,3.8,0,0,1,2.413.71,2.239,2.239,0,0,1,.9,1.846h-2.117a1.024,1.024,0,0,0-.293-.751,1.24,1.24,0,0,0-.916-.3,1.267,1.267,0,0,0-.828.242.763.763,0,0,0-.293.615.652.652,0,0,0,.333.568,3.428,3.428,0,0,0,1.124.374,9.183,9.183,0,0,1,1.333.355,2.19,2.19,0,0,1,1.677,2.131,2.067,2.067,0,0,1-.93,1.754,4.013,4.013,0,0,1-2.4.67,4.191,4.191,0,0,1-1.769-.355,2.968,2.968,0,0,1-1.212-.974A2.263,2.263,0,0,1-40.3-2.52h2.007a1.105,1.105,0,0,0,.417.864,1.656,1.656,0,0,0,1.04.3,1.533,1.533,0,0,0,.919-.231A.718.718,0,0,0-35.6-2.19Zm5.955-7.683v1.948h1.355v1.553h-1.355v3.955a.944.944,0,0,0,.168.63.846.846,0,0,0,.645.19,3.376,3.376,0,0,0,.623-.051v1.6a4.358,4.358,0,0,1-1.282.19A2.021,2.021,0,0,1-31.765-2.1v-4.27h-1.157V-7.925h1.157V-9.873Zm6.987,3.933A5.75,5.75,0,0,0-23.423-6,1.55,1.55,0,0,0-25-5.186V0h-2.117V-7.925h2l.059.945a1.961,1.961,0,0,1,1.765-1.091,2.218,2.218,0,0,1,.659.1ZM-17.271,0a2.351,2.351,0,0,1-.212-.71,2.561,2.561,0,0,1-2,.857,2.814,2.814,0,0,1-1.93-.674,2.167,2.167,0,0,1-.765-1.7,2.24,2.24,0,0,1,.934-1.934,4.608,4.608,0,0,1,2.7-.681h.974V-5.3a1.306,1.306,0,0,0-.282-.879,1.109,1.109,0,0,0-.89-.33,1.261,1.261,0,0,0-.839.256.871.871,0,0,0-.3.7H-22a2.126,2.126,0,0,1,.425-1.274,2.808,2.808,0,0,1,1.2-.919,4.378,4.378,0,0,1,1.743-.333,3.459,3.459,0,0,1,2.325.736,2.575,2.575,0,0,1,.861,2.069v3.435a3.789,3.789,0,0,0,.315,1.707V0Zm-1.75-1.472a1.823,1.823,0,0,0,.864-.209,1.371,1.371,0,0,0,.586-.56V-3.6h-.791q-1.589,0-1.692,1.1l-.007.125a.847.847,0,0,0,.278.652A1.081,1.081,0,0,0-19.021-1.472Zm7.734-8.4v1.948h1.355v1.553h-1.355v3.955a.944.944,0,0,0,.168.63.846.846,0,0,0,.645.19,3.376,3.376,0,0,0,.623-.051v1.6a4.358,4.358,0,0,1-1.282.19A2.021,2.021,0,0,1-13.4-2.1v-4.27h-1.157V-7.925H-13.4V-9.873ZM-5.1.146A3.89,3.89,0,0,1-7.943-.923,3.8,3.8,0,0,1-9.038-3.772v-.205a4.787,4.787,0,0,1,.461-2.135,3.386,3.386,0,0,1,1.307-1.45,3.669,3.669,0,0,1,1.93-.509A3.289,3.289,0,0,1-2.78-7.046a4.167,4.167,0,0,1,.934,2.908v.864H-6.892a1.966,1.966,0,0,0,.619,1.245,1.871,1.871,0,0,0,1.307.469,2.285,2.285,0,0,0,1.912-.886l1.04,1.165A3.178,3.178,0,0,1-3.3-.231,4.229,4.229,0,0,1-5.1.146Zm-.242-6.5a1.326,1.326,0,0,0-1.022.425,2.195,2.195,0,0,0-.5,1.216h2.944v-.168a1.565,1.565,0,0,0-.381-1.088A1.368,1.368,0,0,0-5.347-6.357ZM-.952-4.021A4.644,4.644,0,0,1-.084-6.958a2.812,2.812,0,0,1,2.34-1.113,2.466,2.466,0,0,1,2.029.894l.088-.747H6.292V-.264a3.387,3.387,0,0,1-.472,1.809A3.034,3.034,0,0,1,4.49,2.717a4.673,4.673,0,0,1-2.007.4,4.346,4.346,0,0,1-1.7-.348,3.016,3.016,0,0,1-1.252-.9L.469.586a2.48,2.48,0,0,0,1.919.886A1.815,1.815,0,0,0,3.7,1.022,1.69,1.69,0,0,0,4.167-.256V-.681A2.448,2.448,0,0,1,2.241.146,2.8,2.8,0,0,1-.07-.97,4.643,4.643,0,0,1-.952-3.933Zm2.117.154A2.884,2.884,0,0,0,1.6-2.179a1.375,1.375,0,0,0,1.187.612,1.47,1.47,0,0,0,1.384-.725V-5.625A1.467,1.467,0,0,0,2.8-6.35a1.384,1.384,0,0,0-1.2.623A3.251,3.251,0,0,0,1.165-3.867ZM10.151,0H8.027V-7.925h2.124ZM7.9-9.976a1.042,1.042,0,0,1,.319-.784,1.2,1.2,0,0,1,.868-.308,1.2,1.2,0,0,1,.864.308,1.036,1.036,0,0,1,.322.784,1.039,1.039,0,0,1-.326.791,1.2,1.2,0,0,1-.861.308,1.2,1.2,0,0,1-.861-.308A1.039,1.039,0,0,1,7.9-9.976ZM16.487,0a2.351,2.351,0,0,1-.212-.71,2.561,2.561,0,0,1-2,.857,2.814,2.814,0,0,1-1.93-.674,2.167,2.167,0,0,1-.765-1.7,2.24,2.24,0,0,1,.934-1.934,4.608,4.608,0,0,1,2.7-.681h.974V-5.3a1.306,1.306,0,0,0-.282-.879,1.109,1.109,0,0,0-.89-.33,1.261,1.261,0,0,0-.839.256.871.871,0,0,0-.3.7H11.755a2.126,2.126,0,0,1,.425-1.274,2.808,2.808,0,0,1,1.2-.919,4.378,4.378,0,0,1,1.743-.333,3.459,3.459,0,0,1,2.325.736,2.575,2.575,0,0,1,.861,2.069v3.435a3.789,3.789,0,0,0,.315,1.707V0Zm-1.75-1.472a1.823,1.823,0,0,0,.864-.209,1.371,1.371,0,0,0,.586-.56V-3.6H15.4q-1.589,0-1.692,1.1L13.7-2.38a.847.847,0,0,0,.278.652A1.081,1.081,0,0,0,14.736-1.472Zm9.492-.718a.682.682,0,0,0-.385-.612,4.368,4.368,0,0,0-1.234-.4q-2.827-.593-2.827-2.4a2.178,2.178,0,0,1,.875-1.761,3.531,3.531,0,0,1,2.289-.707,3.8,3.8,0,0,1,2.413.71,2.239,2.239,0,0,1,.9,1.846H24.148a1.024,1.024,0,0,0-.293-.751,1.24,1.24,0,0,0-.916-.3,1.267,1.267,0,0,0-.828.242.763.763,0,0,0-.293.615.652.652,0,0,0,.333.568,3.428,3.428,0,0,0,1.124.374,9.183,9.183,0,0,1,1.333.355,2.19,2.19,0,0,1,1.677,2.131,2.067,2.067,0,0,1-.93,1.754,4.013,4.013,0,0,1-2.4.67,4.191,4.191,0,0,1-1.769-.355,2.968,2.968,0,0,1-1.212-.974,2.263,2.263,0,0,1-.439-1.337h2.007a1.105,1.105,0,0,0,.417.864,1.656,1.656,0,0,0,1.04.3,1.533,1.533,0,0,0,.919-.231A.718.718,0,0,0,24.229-2.19ZM37.939-4.358H33.721V0h-2.2V-10.664h6.943v1.78H33.721V-6.13h4.219ZM48.5-5.09a6.438,6.438,0,0,1-.557,2.761A4.192,4.192,0,0,1,46.351-.5a4.407,4.407,0,0,1-2.377.645,4.437,4.437,0,0,1-2.366-.637A4.233,4.233,0,0,1,40-2.311a6.253,6.253,0,0,1-.579-2.721v-.527a6.4,6.4,0,0,1,.568-2.772,4.226,4.226,0,0,1,1.6-1.838,4.412,4.412,0,0,1,2.369-.641,4.412,4.412,0,0,1,2.369.641,4.226,4.226,0,0,1,1.6,1.838A6.386,6.386,0,0,1,48.5-5.566Zm-2.227-.483a4.488,4.488,0,0,0-.6-2.549,1.957,1.957,0,0,0-1.714-.872,1.958,1.958,0,0,0-1.707.861,4.436,4.436,0,0,0-.608,2.523v.52a4.544,4.544,0,0,0,.6,2.534,1.952,1.952,0,0,0,1.729.9,1.935,1.935,0,0,0,1.7-.868,4.517,4.517,0,0,0,.6-2.531Z" transform="translate(711 9545.026)" fill="#fff"/>
    <path id="Trazado_875996" data-name="Trazado 875996" d="M20,0H137.893a20,20,0,0,1,20,20V137.893a20,20,0,0,1-20,20H20a20,20,0,0,1-20-20V20A20,20,0,0,1,20,0Z" transform="translate(459 9636.507)" fill="#26aab7"/>
    <path id="Trazado_875999" data-name="Trazado 875999" d="M-39.583-4.313h-3.937v2.666H-38.9V0h-6.672V-9.953h6.658v1.661h-4.607V-5.92h3.938Zm5.763,2.27a.637.637,0,0,0-.359-.571,4.077,4.077,0,0,0-1.152-.373q-2.639-.554-2.639-2.242a2.032,2.032,0,0,1,.817-1.644,3.3,3.3,0,0,1,2.136-.66,3.547,3.547,0,0,1,2.252.663,2.09,2.09,0,0,1,.844,1.723H-33.9a.956.956,0,0,0-.273-.7,1.157,1.157,0,0,0-.854-.277A1.182,1.182,0,0,0-35.8-5.9a.712.712,0,0,0-.273.574.609.609,0,0,0,.311.53,3.2,3.2,0,0,0,1.049.349,8.571,8.571,0,0,1,1.244.332A2.044,2.044,0,0,1-31.9-2.126a1.929,1.929,0,0,1-.868,1.637A3.745,3.745,0,0,1-35.01.137a3.912,3.912,0,0,1-1.651-.332A2.77,2.77,0,0,1-37.792-1.1a2.113,2.113,0,0,1-.41-1.248h1.873a1.031,1.031,0,0,0,.39.807,1.546,1.546,0,0,0,.971.28,1.43,1.43,0,0,0,.858-.215A.67.67,0,0,0-33.821-2.044Zm5.558-7.171V-7.4H-27v1.449h-1.265v3.691a.881.881,0,0,0,.157.588.79.79,0,0,0,.6.178,3.151,3.151,0,0,0,.581-.048v1.5a4.067,4.067,0,0,1-1.2.178,1.886,1.886,0,0,1-2.119-2.1V-5.947h-1.08V-7.4h1.08V-9.215Zm6.521,3.671a5.367,5.367,0,0,0-.711-.055,1.447,1.447,0,0,0-1.47.759V0H-25.9V-7.4h1.866l.055.882A1.831,1.831,0,0,1-22.33-7.533a2.07,2.07,0,0,1,.615.089ZM-16.71,0a2.194,2.194,0,0,1-.2-.663,2.39,2.39,0,0,1-1.866.8,2.626,2.626,0,0,1-1.8-.629,2.023,2.023,0,0,1-.714-1.586,2.09,2.09,0,0,1,.872-1.8A4.3,4.3,0,0,1-17.9-4.519h.909v-.424a1.219,1.219,0,0,0-.263-.82,1.035,1.035,0,0,0-.831-.308,1.177,1.177,0,0,0-.783.239.813.813,0,0,0-.284.656h-1.976a1.984,1.984,0,0,1,.4-1.189,2.621,2.621,0,0,1,1.121-.858,4.086,4.086,0,0,1,1.627-.311,3.228,3.228,0,0,1,2.17.687,2.4,2.4,0,0,1,.8,1.931v3.206a3.536,3.536,0,0,0,.294,1.593V0Zm-1.634-1.374a1.7,1.7,0,0,0,.807-.195,1.28,1.28,0,0,0,.547-.523V-3.363h-.738q-1.483,0-1.579,1.025l-.007.116a.791.791,0,0,0,.26.608A1.009,1.009,0,0,0-18.344-1.374Zm7.219-7.841V-7.4h1.265v1.449h-1.265v3.691a.881.881,0,0,0,.157.588.79.79,0,0,0,.6.178,3.151,3.151,0,0,0,.581-.048v1.5a4.067,4.067,0,0,1-1.2.178,1.886,1.886,0,0,1-2.119-2.1V-5.947h-1.08V-7.4h1.08V-9.215ZM-5.356.137A3.631,3.631,0,0,1-8-.861,3.548,3.548,0,0,1-9.027-3.521v-.191A4.468,4.468,0,0,1-8.6-5.7a3.161,3.161,0,0,1,1.22-1.354,3.425,3.425,0,0,1,1.8-.475,3.07,3.07,0,0,1,2.389.957,3.889,3.889,0,0,1,.872,2.714v.807h-4.71a1.835,1.835,0,0,0,.578,1.162,1.746,1.746,0,0,0,1.22.438,2.132,2.132,0,0,0,1.784-.827L-2.471-1.2a2.966,2.966,0,0,1-1.2.981A3.947,3.947,0,0,1-5.356.137Zm-.226-6.07a1.237,1.237,0,0,0-.954.4A2.048,2.048,0,0,0-7-4.4h2.748V-4.56a1.46,1.46,0,0,0-.355-1.015A1.277,1.277,0,0,0-5.582-5.934Zm4.1,2.181A4.335,4.335,0,0,1-.67-6.494,2.625,2.625,0,0,1,1.514-7.533,2.3,2.3,0,0,1,3.408-6.7l.082-.7H5.281v7.15A3.161,3.161,0,0,1,4.84,1.442,2.832,2.832,0,0,1,3.6,2.536a4.362,4.362,0,0,1-1.873.376A4.056,4.056,0,0,1,.14,2.587,2.815,2.815,0,0,1-1.029,1.75l.875-1.2a2.314,2.314,0,0,0,1.791.827A1.694,1.694,0,0,0,2.861.954,1.577,1.577,0,0,0,3.3-.239v-.4A2.285,2.285,0,0,1,1.5.137,2.618,2.618,0,0,1-.656-.906,4.334,4.334,0,0,1-1.48-3.671ZM.5-3.609A2.692,2.692,0,0,0,.9-2.034a1.284,1.284,0,0,0,1.107.571A1.372,1.372,0,0,0,3.3-2.14V-5.25A1.369,1.369,0,0,0,2.02-5.927,1.292,1.292,0,0,0,.9-5.346,3.034,3.034,0,0,0,.5-3.609ZM8.883,0H6.9V-7.4H8.883Zm-2.1-9.311a.973.973,0,0,1,.3-.731,1.117,1.117,0,0,1,.81-.287,1.12,1.12,0,0,1,.807.287.967.967,0,0,1,.3.731.97.97,0,0,1-.3.738,1.122,1.122,0,0,1-.8.287,1.122,1.122,0,0,1-.8-.287A.97.97,0,0,1,6.785-9.311ZM14.8,0a2.194,2.194,0,0,1-.2-.663,2.39,2.39,0,0,1-1.866.8,2.626,2.626,0,0,1-1.8-.629,2.023,2.023,0,0,1-.714-1.586,2.09,2.09,0,0,1,.872-1.8,4.3,4.3,0,0,1,2.519-.636h.909v-.424a1.219,1.219,0,0,0-.263-.82,1.035,1.035,0,0,0-.831-.308,1.177,1.177,0,0,0-.783.239.813.813,0,0,0-.284.656H10.38a1.984,1.984,0,0,1,.4-1.189A2.621,2.621,0,0,1,11.9-7.222a4.086,4.086,0,0,1,1.627-.311,3.228,3.228,0,0,1,2.17.687,2.4,2.4,0,0,1,.8,1.931v3.206a3.536,3.536,0,0,0,.294,1.593V0ZM13.163-1.374a1.7,1.7,0,0,0,.807-.195,1.28,1.28,0,0,0,.547-.523V-3.363h-.738q-1.483,0-1.579,1.025l-.007.116a.791.791,0,0,0,.26.608A1.009,1.009,0,0,0,13.163-1.374Zm8.859-.67a.637.637,0,0,0-.359-.571,4.077,4.077,0,0,0-1.152-.373q-2.639-.554-2.639-2.242a2.032,2.032,0,0,1,.817-1.644,3.3,3.3,0,0,1,2.136-.66,3.547,3.547,0,0,1,2.252.663,2.09,2.09,0,0,1,.844,1.723H21.947a.956.956,0,0,0-.273-.7,1.157,1.157,0,0,0-.854-.277,1.182,1.182,0,0,0-.772.226.712.712,0,0,0-.273.574.609.609,0,0,0,.311.53,3.2,3.2,0,0,0,1.049.349,8.571,8.571,0,0,1,1.244.332,2.044,2.044,0,0,1,1.565,1.989,1.929,1.929,0,0,1-.868,1.637,3.745,3.745,0,0,1-2.242.625,3.912,3.912,0,0,1-1.651-.332A2.77,2.77,0,0,1,18.05-1.1a2.113,2.113,0,0,1-.41-1.248h1.873a1.031,1.031,0,0,0,.39.807,1.546,1.546,0,0,0,.971.28,1.43,1.43,0,0,0,.858-.215A.67.67,0,0,0,22.022-2.044ZM28.831,0V-9.953h3.063a4.651,4.651,0,0,1,2.348.591A4.123,4.123,0,0,1,35.858-7.68,5.187,5.187,0,0,1,36.439-5.2v.458a5.2,5.2,0,0,1-.571,2.468A4.088,4.088,0,0,1,34.258-.6a4.686,4.686,0,0,1-2.345.6Zm2.051-8.292v6.645h.991a2.227,2.227,0,0,0,1.839-.786,3.552,3.552,0,0,0,.649-2.249v-.526a3.609,3.609,0,0,0-.629-2.3,2.219,2.219,0,0,0-1.839-.783ZM43.548-2.051h-3.6L39.269,0H37.088l3.705-9.953h1.9L46.419,0H44.239ZM40.506-3.712h2.488L41.744-7.437Z" transform="translate(537 9718.332)" fill="#fff"/>
    <path id="Trazado_875990" data-name="Trazado 875990" d="M20,0H137.893a20,20,0,0,1,20,20V137.893a20,20,0,0,1-20,20H20a20,20,0,0,1-20-20V20A20,20,0,0,1,20,0Z" transform="translate(285 9462.202)" fill="#167377"/>
    <path id="Trazado_875995" data-name="Trazado 875995" d="M-40.151-5.09a6.438,6.438,0,0,1-.557,2.761A4.192,4.192,0,0,1-42.3-.5a4.407,4.407,0,0,1-2.377.645,4.437,4.437,0,0,1-2.366-.637,4.233,4.233,0,0,1-1.611-1.82,6.253,6.253,0,0,1-.579-2.721v-.527a6.4,6.4,0,0,1,.568-2.772,4.226,4.226,0,0,1,1.6-1.838,4.412,4.412,0,0,1,2.369-.641,4.412,4.412,0,0,1,2.369.641,4.226,4.226,0,0,1,1.6,1.838,6.386,6.386,0,0,1,.568,2.765Zm-2.227-.483a4.488,4.488,0,0,0-.6-2.549,1.957,1.957,0,0,0-1.714-.872,1.958,1.958,0,0,0-1.707.861,4.436,4.436,0,0,0-.608,2.523v.52a4.544,4.544,0,0,0,.6,2.534,1.952,1.952,0,0,0,1.729.9,1.935,1.935,0,0,0,1.7-.868,4.517,4.517,0,0,0,.6-2.531ZM-31.56-3.889a4.753,4.753,0,0,1-.831,2.933,2.665,2.665,0,0,1-2.245,1.1,2.469,2.469,0,0,1-1.941-.835V3.047h-2.117V-7.925h1.963l.073.776a2.488,2.488,0,0,1,2.007-.923,2.683,2.683,0,0,1,2.278,1.084A4.882,4.882,0,0,1-31.56-4Zm-2.117-.154a3.119,3.119,0,0,0-.392-1.707,1.276,1.276,0,0,0-1.139-.6,1.386,1.386,0,0,0-1.37.762v3.245a1.41,1.41,0,0,0,1.384.784Q-33.677-1.56-33.677-4.043Zm3.1.007a4.7,4.7,0,0,1,.454-2.1,3.324,3.324,0,0,1,1.307-1.428,3.814,3.814,0,0,1,1.981-.505,3.609,3.609,0,0,1,2.618.981,3.939,3.939,0,0,1,1.132,2.666l.015.542A4.142,4.142,0,0,1-24.089-.956a3.539,3.539,0,0,1-2.732,1.1,3.556,3.556,0,0,1-2.736-1.1A4.215,4.215,0,0,1-30.579-3.94Zm2.117.154a2.954,2.954,0,0,0,.425,1.725,1.4,1.4,0,0,0,1.216.6,1.405,1.405,0,0,0,1.2-.59,3.233,3.233,0,0,0,.432-1.886A2.925,2.925,0,0,0-25.62-5.75a1.405,1.405,0,0,0-1.216-.608,1.382,1.382,0,0,0-1.2.6A3.287,3.287,0,0,0-28.462-3.882ZM-17.314-5.94A5.75,5.75,0,0,0-18.076-6a1.55,1.55,0,0,0-1.575.813V0h-2.117V-7.925h2l.059.945a1.961,1.961,0,0,1,1.765-1.091,2.218,2.218,0,0,1,.659.1ZM-13.4-9.873v1.948h1.355v1.553H-13.4v3.955a.944.944,0,0,0,.168.63.846.846,0,0,0,.645.19,3.376,3.376,0,0,0,.623-.051v1.6a4.358,4.358,0,0,1-1.282.19A2.021,2.021,0,0,1-15.513-2.1v-4.27H-16.67V-7.925h1.157V-9.873Zm7.28,9.067A2.654,2.654,0,0,1-8.284.146a2.5,2.5,0,0,1-1.945-.732,3.127,3.127,0,0,1-.685-2.146V-7.925H-8.8v5.12q0,1.238,1.128,1.238a1.529,1.529,0,0,0,1.479-.747v-5.61h2.124V0H-6.057Zm5.6-7.119.066.916A2.767,2.767,0,0,1,1.824-8.071a2.3,2.3,0,0,1,1.875.74,3.451,3.451,0,0,1,.63,2.212V0H2.212V-5.068a1.373,1.373,0,0,0-.293-.978,1.312,1.312,0,0,0-.974-.3A1.456,1.456,0,0,0-.4-5.588V0H-2.512V-7.925ZM8.167,0H6.042V-7.925H8.167ZM5.918-9.976a1.042,1.042,0,0,1,.319-.784,1.2,1.2,0,0,1,.868-.308,1.2,1.2,0,0,1,.864.308,1.036,1.036,0,0,1,.322.784,1.039,1.039,0,0,1-.326.791,1.2,1.2,0,0,1-.861.308,1.2,1.2,0,0,1-.861-.308A1.039,1.039,0,0,1,5.918-9.976ZM9.58-4.021a4.776,4.776,0,0,1,.831-2.952,2.7,2.7,0,0,1,2.274-1.1,2.427,2.427,0,0,1,1.912.864V-11.25h2.124V0H14.81l-.1-.842a2.491,2.491,0,0,1-2.036.989,2.69,2.69,0,0,1-2.245-1.1A4.93,4.93,0,0,1,9.58-4.021Zm2.117.154a3.12,3.12,0,0,0,.388,1.707,1.265,1.265,0,0,0,1.128.593A1.417,1.417,0,0,0,14.6-2.4V-5.522a1.4,1.4,0,0,0-1.37-.828Q11.7-6.35,11.7-3.867ZM22.954,0a2.351,2.351,0,0,1-.212-.71,2.561,2.561,0,0,1-2,.857,2.814,2.814,0,0,1-1.93-.674,2.167,2.167,0,0,1-.765-1.7,2.24,2.24,0,0,1,.934-1.934,4.608,4.608,0,0,1,2.7-.681h.974V-5.3a1.306,1.306,0,0,0-.282-.879,1.109,1.109,0,0,0-.89-.33,1.261,1.261,0,0,0-.839.256.871.871,0,0,0-.3.7H18.223a2.126,2.126,0,0,1,.425-1.274,2.808,2.808,0,0,1,1.2-.919,4.378,4.378,0,0,1,1.743-.333,3.459,3.459,0,0,1,2.325.736,2.575,2.575,0,0,1,.861,2.069v3.435a3.789,3.789,0,0,0,.315,1.707V0ZM21.2-1.472a1.823,1.823,0,0,0,.864-.209,1.371,1.371,0,0,0,.586-.56V-3.6h-.791q-1.589,0-1.692,1.1l-.007.125a.847.847,0,0,0,.278.652A1.081,1.081,0,0,0,21.2-1.472Zm4.871-2.549a4.776,4.776,0,0,1,.831-2.952,2.7,2.7,0,0,1,2.274-1.1,2.427,2.427,0,0,1,1.912.864V-11.25h2.124V0H31.3l-.1-.842a2.491,2.491,0,0,1-2.036.989,2.69,2.69,0,0,1-2.245-1.1A4.93,4.93,0,0,1,26.074-4.021Zm2.117.154a3.12,3.12,0,0,0,.388,1.707,1.265,1.265,0,0,0,1.128.593A1.417,1.417,0,0,0,31.091-2.4V-5.522a1.4,1.4,0,0,0-1.37-.828Q28.191-6.35,28.191-3.867ZM38.5.146A3.89,3.89,0,0,1,35.665-.923,3.8,3.8,0,0,1,34.57-3.772v-.205a4.787,4.787,0,0,1,.461-2.135,3.386,3.386,0,0,1,1.307-1.45,3.669,3.669,0,0,1,1.93-.509,3.289,3.289,0,0,1,2.56,1.025,4.167,4.167,0,0,1,.934,2.908v.864H36.716a1.966,1.966,0,0,0,.619,1.245,1.871,1.871,0,0,0,1.307.469,2.285,2.285,0,0,0,1.912-.886l1.04,1.165A3.178,3.178,0,0,1,40.305-.231,4.229,4.229,0,0,1,38.5.146Zm-.242-6.5a1.326,1.326,0,0,0-1.022.425,2.195,2.195,0,0,0-.5,1.216h2.944v-.168A1.565,1.565,0,0,0,39.3-5.973,1.368,1.368,0,0,0,38.262-6.357ZM47.256-2.19a.682.682,0,0,0-.385-.612,4.368,4.368,0,0,0-1.234-.4Q42.81-3.794,42.81-5.6a2.178,2.178,0,0,1,.875-1.761,3.531,3.531,0,0,1,2.289-.707,3.8,3.8,0,0,1,2.413.71,2.239,2.239,0,0,1,.9,1.846H47.175a1.024,1.024,0,0,0-.293-.751,1.24,1.24,0,0,0-.916-.3,1.267,1.267,0,0,0-.828.242.763.763,0,0,0-.293.615.652.652,0,0,0,.333.568,3.428,3.428,0,0,0,1.124.374,9.183,9.183,0,0,1,1.333.355,2.19,2.19,0,0,1,1.677,2.131,2.067,2.067,0,0,1-.93,1.754,4.013,4.013,0,0,1-2.4.67,4.191,4.191,0,0,1-1.769-.355A2.968,2.968,0,0,1,43-1.183a2.263,2.263,0,0,1-.439-1.337h2.007a1.105,1.105,0,0,0,.417.864,1.656,1.656,0,0,0,1.04.3,1.533,1.533,0,0,0,.919-.231A.718.718,0,0,0,47.256-2.19Z" transform="translate(364 9545.026)" fill="#fff"/>
    <path id="Trazado_875997" data-name="Trazado 875997" d="M20,0H137.893a20,20,0,0,1,20,20V137.893a20,20,0,0,1-20,20H20a20,20,0,0,1-20-20V20A20,20,0,0,1,20,0Z" transform="translate(285 9636.507)" fill="#ffd947"/>
    <path id="Trazado_876000" data-name="Trazado 876000" d="M-26.633-2.051h-3.6L-30.912,0h-2.181l3.705-9.953h1.9L-23.762,0h-2.181Zm-3.042-1.661h2.488l-1.251-3.726ZM-21.109-7.4l.062.827a2.6,2.6,0,0,1,2.126-.964A1.973,1.973,0,0,1-16.96-6.405a2.54,2.54,0,0,1,2.222-1.128,2.206,2.206,0,0,1,1.791.7,3.221,3.221,0,0,1,.588,2.109V0h-1.982V-4.717a1.408,1.408,0,0,0-.246-.919,1.091,1.091,0,0,0-.868-.291,1.233,1.233,0,0,0-1.23.848L-16.68,0h-1.976V-4.71a1.391,1.391,0,0,0-.253-.93,1.1,1.1,0,0,0-.861-.287,1.28,1.28,0,0,0-1.217.7V0h-1.976V-7.4ZM-7.437.137a3.631,3.631,0,0,1-2.649-1,3.548,3.548,0,0,1-1.022-2.659v-.191A4.468,4.468,0,0,1-10.678-5.7a3.161,3.161,0,0,1,1.22-1.354,3.425,3.425,0,0,1,1.8-.475,3.07,3.07,0,0,1,2.389.957A3.889,3.889,0,0,1-4.4-3.862v.807h-4.71a1.835,1.835,0,0,0,.578,1.162,1.746,1.746,0,0,0,1.22.438,2.132,2.132,0,0,0,1.784-.827L-4.553-1.2a2.966,2.966,0,0,1-1.2.981A3.947,3.947,0,0,1-7.437.137Zm-.226-6.07a1.237,1.237,0,0,0-.954.4A2.048,2.048,0,0,0-9.085-4.4h2.748V-4.56a1.46,1.46,0,0,0-.355-1.015A1.277,1.277,0,0,0-7.663-5.934ZM-1.456-7.4l.062.854A2.582,2.582,0,0,1,.731-7.533a2.146,2.146,0,0,1,1.75.69,3.221,3.221,0,0,1,.588,2.064V0H1.094V-4.73A1.282,1.282,0,0,0,.82-5.643a1.224,1.224,0,0,0-.909-.284,1.359,1.359,0,0,0-1.251.711V0H-3.315V-7.4ZM8.853,0a2.194,2.194,0,0,1-.2-.663,2.39,2.39,0,0,1-1.866.8,2.626,2.626,0,0,1-1.8-.629,2.023,2.023,0,0,1-.714-1.586,2.09,2.09,0,0,1,.872-1.8,4.3,4.3,0,0,1,2.519-.636h.909v-.424a1.219,1.219,0,0,0-.263-.82,1.035,1.035,0,0,0-.831-.308,1.177,1.177,0,0,0-.783.239.813.813,0,0,0-.284.656H4.437a1.984,1.984,0,0,1,.4-1.189,2.621,2.621,0,0,1,1.121-.858,4.086,4.086,0,0,1,1.627-.311,3.228,3.228,0,0,1,2.17.687,2.4,2.4,0,0,1,.8,1.931v3.206a3.536,3.536,0,0,0,.294,1.593V0ZM7.219-1.374a1.7,1.7,0,0,0,.807-.195,1.28,1.28,0,0,0,.547-.523V-3.363H7.834q-1.483,0-1.579,1.025l-.007.116a.791.791,0,0,0,.26.608A1.009,1.009,0,0,0,7.219-1.374Zm7.123-.219h3.616V0H11.819V-1.2L15.3-5.8H11.922V-7.4h5.927v1.169ZM23.481,0a2.194,2.194,0,0,1-.2-.663,2.39,2.39,0,0,1-1.866.8,2.626,2.626,0,0,1-1.8-.629A2.023,2.023,0,0,1,18.9-2.078a2.09,2.09,0,0,1,.872-1.8,4.3,4.3,0,0,1,2.519-.636H23.2v-.424a1.219,1.219,0,0,0-.263-.82,1.035,1.035,0,0,0-.831-.308,1.177,1.177,0,0,0-.783.239.813.813,0,0,0-.284.656H19.065a1.984,1.984,0,0,1,.4-1.189,2.621,2.621,0,0,1,1.121-.858,4.086,4.086,0,0,1,1.627-.311,3.228,3.228,0,0,1,2.17.687,2.4,2.4,0,0,1,.8,1.931v3.206a3.536,3.536,0,0,0,.294,1.593V0ZM21.848-1.374a1.7,1.7,0,0,0,.807-.195,1.28,1.28,0,0,0,.547-.523V-3.363h-.738q-1.483,0-1.579,1.025l-.007.116a.791.791,0,0,0,.26.608A1.009,1.009,0,0,0,21.848-1.374Zm8.859-.67a.637.637,0,0,0-.359-.571A4.077,4.077,0,0,0,29.2-2.987q-2.639-.554-2.639-2.242a2.032,2.032,0,0,1,.817-1.644,3.3,3.3,0,0,1,2.136-.66,3.547,3.547,0,0,1,2.252.663,2.09,2.09,0,0,1,.844,1.723H30.632a.956.956,0,0,0-.273-.7,1.157,1.157,0,0,0-.854-.277,1.182,1.182,0,0,0-.772.226.712.712,0,0,0-.273.574.609.609,0,0,0,.311.53,3.2,3.2,0,0,0,1.049.349,8.571,8.571,0,0,1,1.244.332,2.044,2.044,0,0,1,1.565,1.989A1.929,1.929,0,0,1,31.76-.489a3.745,3.745,0,0,1-2.242.625,3.912,3.912,0,0,1-1.651-.332A2.77,2.77,0,0,1,26.735-1.1a2.113,2.113,0,0,1-.41-1.248H28.2a1.031,1.031,0,0,0,.39.807,1.546,1.546,0,0,0,.971.28,1.43,1.43,0,0,0,.858-.215A.67.67,0,0,0,30.707-2.044Z" transform="translate(364 9718.332)" fill="#12263f"/>
    <path id="Trazado_875998" data-name="Trazado 875998" d="M20,0H137.893a20,20,0,0,1,20,20V137.893a20,20,0,0,1-20,20H20a20,20,0,0,1-20-20V20A20,20,0,0,1,20,0Z" transform="translate(632 9636.507)" fill="#f9c869"/>
    <path id="Trazado_876001" data-name="Trazado 876001" d="M-38.213-4.313H-42.15v2.666h4.621V0H-44.2V-9.953h6.658v1.661H-42.15V-5.92h3.938Zm5.763,2.27a.637.637,0,0,0-.359-.571,4.077,4.077,0,0,0-1.152-.373Q-36.6-3.541-36.6-5.229a2.032,2.032,0,0,1,.817-1.644,3.3,3.3,0,0,1,2.136-.66,3.547,3.547,0,0,1,2.252.663,2.09,2.09,0,0,1,.844,1.723h-1.976a.956.956,0,0,0-.273-.7,1.157,1.157,0,0,0-.854-.277,1.182,1.182,0,0,0-.772.226.712.712,0,0,0-.273.574.609.609,0,0,0,.311.53,3.2,3.2,0,0,0,1.049.349,8.571,8.571,0,0,1,1.244.332,2.044,2.044,0,0,1,1.565,1.989A1.929,1.929,0,0,1-31.4-.489,3.745,3.745,0,0,1-33.64.137a3.912,3.912,0,0,1-1.651-.332A2.77,2.77,0,0,1-36.422-1.1a2.113,2.113,0,0,1-.41-1.248h1.873a1.031,1.031,0,0,0,.39.807,1.546,1.546,0,0,0,.971.28,1.43,1.43,0,0,0,.858-.215A.67.67,0,0,0-32.45-2.044Zm5.558-7.171V-7.4h1.265v1.449h-1.265v3.691a.881.881,0,0,0,.157.588.79.79,0,0,0,.6.178,3.151,3.151,0,0,0,.581-.048v1.5a4.067,4.067,0,0,1-1.2.178,1.886,1.886,0,0,1-2.119-2.1V-5.947h-1.08V-7.4h1.08V-9.215Zm6.521,3.671a5.367,5.367,0,0,0-.711-.055,1.447,1.447,0,0,0-1.47.759V0h-1.976V-7.4h1.866l.055.882a1.831,1.831,0,0,1,1.647-1.019,2.07,2.07,0,0,1,.615.089ZM-15.34,0a2.194,2.194,0,0,1-.2-.663,2.39,2.39,0,0,1-1.866.8,2.626,2.626,0,0,1-1.8-.629,2.023,2.023,0,0,1-.714-1.586,2.09,2.09,0,0,1,.872-1.8,4.3,4.3,0,0,1,2.519-.636h.909v-.424a1.219,1.219,0,0,0-.263-.82,1.035,1.035,0,0,0-.831-.308,1.177,1.177,0,0,0-.783.239.813.813,0,0,0-.284.656h-1.976a1.984,1.984,0,0,1,.4-1.189,2.621,2.621,0,0,1,1.121-.858,4.086,4.086,0,0,1,1.627-.311,3.228,3.228,0,0,1,2.17.687,2.4,2.4,0,0,1,.8,1.931v3.206a3.536,3.536,0,0,0,.294,1.593V0Zm-1.634-1.374a1.7,1.7,0,0,0,.807-.195,1.28,1.28,0,0,0,.547-.523V-3.363h-.738q-1.483,0-1.579,1.025l-.007.116a.791.791,0,0,0,.26.608A1.009,1.009,0,0,0-16.974-1.374Zm7.219-7.841V-7.4H-8.49v1.449H-9.755v3.691a.881.881,0,0,0,.157.588A.79.79,0,0,0-9-1.49a3.151,3.151,0,0,0,.581-.048v1.5a4.067,4.067,0,0,1-1.2.178,1.886,1.886,0,0,1-2.119-2.1V-5.947h-1.08V-7.4h1.08V-9.215ZM-3.985.137a3.631,3.631,0,0,1-2.649-1A3.548,3.548,0,0,1-7.656-3.521v-.191A4.468,4.468,0,0,1-7.226-5.7a3.161,3.161,0,0,1,1.22-1.354,3.425,3.425,0,0,1,1.8-.475,3.07,3.07,0,0,1,2.389.957A3.889,3.889,0,0,1-.943-3.862v.807h-4.71a1.835,1.835,0,0,0,.578,1.162,1.746,1.746,0,0,0,1.22.438,2.132,2.132,0,0,0,1.784-.827L-1.1-1.2a2.966,2.966,0,0,1-1.2.981A3.947,3.947,0,0,1-3.985.137Zm-.226-6.07a1.237,1.237,0,0,0-.954.4A2.048,2.048,0,0,0-5.633-4.4h2.748V-4.56A1.46,1.46,0,0,0-3.24-5.575,1.277,1.277,0,0,0-4.211-5.934Zm4.1,2.181A4.335,4.335,0,0,1,.7-6.494,2.625,2.625,0,0,1,2.885-7.533,2.3,2.3,0,0,1,4.778-6.7l.082-.7H6.651v7.15A3.161,3.161,0,0,1,6.21,1.442,2.832,2.832,0,0,1,4.97,2.536,4.362,4.362,0,0,1,3.1,2.912a4.056,4.056,0,0,1-1.586-.325A2.815,2.815,0,0,1,.342,1.75l.875-1.2a2.314,2.314,0,0,0,1.791.827A1.694,1.694,0,0,0,4.231.954,1.577,1.577,0,0,0,4.669-.239v-.4a2.285,2.285,0,0,1-1.8.772A2.618,2.618,0,0,1,.714-.906,4.334,4.334,0,0,1-.109-3.671Zm1.976.144a2.692,2.692,0,0,0,.4,1.576,1.284,1.284,0,0,0,1.107.571A1.372,1.372,0,0,0,4.669-2.14V-5.25a1.369,1.369,0,0,0-1.278-.677,1.292,1.292,0,0,0-1.118.581A3.034,3.034,0,0,0,1.866-3.609ZM10.254,0H8.271V-7.4h1.982Zm-2.1-9.311a.973.973,0,0,1,.3-.731,1.117,1.117,0,0,1,.81-.287,1.12,1.12,0,0,1,.807.287.967.967,0,0,1,.3.731.97.97,0,0,1-.3.738,1.122,1.122,0,0,1-.8.287,1.122,1.122,0,0,1-.8-.287A.97.97,0,0,1,8.155-9.311ZM16.167,0a2.194,2.194,0,0,1-.2-.663,2.39,2.39,0,0,1-1.866.8,2.626,2.626,0,0,1-1.8-.629,2.023,2.023,0,0,1-.714-1.586,2.09,2.09,0,0,1,.872-1.8,4.3,4.3,0,0,1,2.519-.636h.909v-.424a1.219,1.219,0,0,0-.263-.82,1.035,1.035,0,0,0-.831-.308,1.177,1.177,0,0,0-.783.239.813.813,0,0,0-.284.656H11.751a1.984,1.984,0,0,1,.4-1.189,2.621,2.621,0,0,1,1.121-.858A4.086,4.086,0,0,1,14.9-7.533a3.228,3.228,0,0,1,2.17.687,2.4,2.4,0,0,1,.8,1.931v3.206a3.536,3.536,0,0,0,.294,1.593V0ZM14.533-1.374a1.7,1.7,0,0,0,.807-.195,1.28,1.28,0,0,0,.547-.523V-3.363h-.738q-1.483,0-1.579,1.025l-.007.116a.791.791,0,0,0,.26.608A1.009,1.009,0,0,0,14.533-1.374Zm8.859-.67a.637.637,0,0,0-.359-.571,4.077,4.077,0,0,0-1.152-.373q-2.639-.554-2.639-2.242a2.032,2.032,0,0,1,.817-1.644,3.3,3.3,0,0,1,2.136-.66,3.547,3.547,0,0,1,2.252.663,2.09,2.09,0,0,1,.844,1.723H23.317a.956.956,0,0,0-.273-.7,1.157,1.157,0,0,0-.854-.277,1.182,1.182,0,0,0-.772.226.712.712,0,0,0-.273.574.609.609,0,0,0,.311.53,3.2,3.2,0,0,0,1.049.349,8.571,8.571,0,0,1,1.244.332,2.044,2.044,0,0,1,1.565,1.989,1.929,1.929,0,0,1-.868,1.637A3.745,3.745,0,0,1,22.2.137a3.912,3.912,0,0,1-1.651-.332A2.77,2.77,0,0,1,19.421-1.1a2.113,2.113,0,0,1-.41-1.248h1.873a1.031,1.031,0,0,0,.39.807,1.546,1.546,0,0,0,.971.28A1.43,1.43,0,0,0,23.1-1.48.67.67,0,0,0,23.393-2.044Zm12.8-2.023H32.252V0H30.2V-9.953h6.48v1.661h-4.43v2.57h3.938Zm5.988,2.017h-3.6L37.9,0H35.718l3.705-9.953h1.9L45.049,0H42.868ZM39.136-3.712h2.488L40.373-7.437Z" transform="translate(711 9718.332)" fill="#12263f"/>
  </g>
</svg>
