<svg xmlns="http://www.w3.org/2000/svg" xmlns:xlink="http://www.w3.org/1999/xlink" width="602.94" height="515.804" viewBox="0 0 602.94 515.804">
  <defs>
    <clipPath id="clip-path">
      <rect id="Rectángulo_401123" data-name="Rectángulo 401123" width="602.94" height="515.804" fill="none"/>
    </clipPath>
    <clipPath id="clip-path-3">
      <rect id="Rectángulo_401116" data-name="Rectángulo 401116" width="82.217" height="82.503" fill="none"/>
    </clipPath>
    <clipPath id="clip-path-4">
      <rect id="Rectángulo_401117" data-name="Rectángulo 401117" width="79.453" height="79.73" fill="none"/>
    </clipPath>
    <clipPath id="clip-path-5">
      <rect id="Rectángulo_401118" data-name="Rectángulo 401118" width="28.25" height="18.667" fill="none"/>
    </clipPath>
    <clipPath id="clip-path-6">
      <rect id="Rectángulo_401119" data-name="Rectángulo 401119" width="36.754" height="23.478" fill="none"/>
    </clipPath>
    <clipPath id="clip-path-7">
      <rect id="Rectángulo_401120" data-name="Rectángulo 401120" width="97.445" height="52.581" fill="none"/>
    </clipPath>
    <clipPath id="clip-path-8">
      <rect id="Rectángulo_401121" data-name="Rectángulo 401121" width="118.186" height="63.772" fill="none"/>
    </clipPath>
  </defs>
  <g id="Grupo_1099863" data-name="Grupo 1099863" transform="translate(0)">
    <g id="Grupo_1099563" data-name="Grupo 1099563" transform="translate(0)" clip-path="url(#clip-path)">
      <g id="Grupo_1099562" data-name="Grupo 1099562">
        <g id="Grupo_1099561" data-name="Grupo 1099561" clip-path="url(#clip-path)">
          <path id="Trazado_874001" data-name="Trazado 874001" d="M120.436,20.587A30.423,30.423,0,1,1,116.619,63.5,30.288,30.288,0,0,1,120.436,20.587Z" transform="translate(299.39 2.922)" fill="none" stroke="#d1beb4" stroke-linejoin="round" stroke-width="0.857" stroke-dasharray="1.428 1.428"/>
          <path id="Trazado_874002" data-name="Trazado 874002" d="M14.54,433.921c1.451-7.836,2.792-15.664,4.094-23.372l1.252-7.371c1.135-6.656,2.422-14.2,5.647-20.906,4.557-9.467,12.74-16.793,19.961-23.257a.839.839,0,0,1,1.117,1.252C39.5,366.627,31.451,373.835,27.038,383c-3.123,6.492-4.389,13.91-5.507,20.456l-1.249,7.37c-1.254,7.424-2.543,14.957-3.932,22.506a8.061,8.061,0,0,0-1.809.585" transform="translate(538.363 77.711)" fill="#8fa159"/>
          <path id="Trazado_874003" data-name="Trazado 874003" d="M20.563,352.73a15.537,15.537,0,0,0-3.215-4.1c-1.4-1.279-3.235-2.359-5.089-1.985A7.451,7.451,0,0,0,9.4,348.173,16.022,16.022,0,0,0,5.2,352.191a14.41,14.41,0,0,0-1.319,2.932c-.854,2.4-1.588,5.05-.769,7.465a3.56,3.56,0,0,0,1.87,2.246,4.88,4.88,0,0,0,2.162.176c2.529-.174,5.211-.4,7.248-1.914a12.634,12.634,0,0,0,2.22-2.3q1.9-2.358,3.651-4.829a3.353,3.353,0,0,0,.769-1.708,3.051,3.051,0,0,0-.466-1.529" transform="translate(578.562 75.061)" fill="#8fa159"/>
          <path id="Trazado_874004" data-name="Trazado 874004" d="M34.338,368.244a5.3,5.3,0,0,0,1.114-6.161l-1.047-3.057a9.115,9.115,0,0,0-2.344-4.2c-2.178-1.842-5.761-1.106-7.641,1.04a8.349,8.349,0,0,0-1.444,7.9,11.631,11.631,0,0,0,5.257,6.295,4.541,4.541,0,0,0,2.848.811c1.422-.2,2.422-1.457,3.258-2.628" transform="translate(539.502 76.623)" fill="#8fa159"/>
          <path id="Trazado_874005" data-name="Trazado 874005" d="M45.018,376.271a6.417,6.417,0,0,0-.429-3.622,6.438,6.438,0,0,0-1.6-1.718l-2.258-1.891a8.293,8.293,0,0,0-3.81-2.169c-2.568-.405-5.02,1.87-5.477,4.438a7.616,7.616,0,0,0,2.594,6.854,10.565,10.565,0,0,0,7.071,2.422,4.15,4.15,0,0,0,2.606-.718c1.018-.827,1.2-2.287,1.307-3.6" transform="translate(519.725 79.449)" fill="#8fa159"/>
          <path id="Trazado_874006" data-name="Trazado 874006" d="M48.649,390.374a4.838,4.838,0,0,0-.728-5.668l-1.754-2.37a8.3,8.3,0,0,0-3.2-3c-2.4-1-5.316.638-6.36,3.026a7.623,7.623,0,0,0,.92,7.274,10.588,10.588,0,0,0,6.308,4.018,4.142,4.142,0,0,0,2.7-.085c1.184-.565,1.706-1.94,2.111-3.19" transform="translate(509.864 82.093)" fill="#8fa159"/>
          <path id="Trazado_874007" data-name="Trazado 874007" d="M25.574,373.628q-.542,1.841-1.083,3.683c-.311,1.061-.728,2.245-1.735,2.692a3.523,3.523,0,0,1-2.268-.013,21.056,21.056,0,0,1-9.553-5.344,2.483,2.483,0,0,1-.754-1.094c-.179-.708.245-1.417.332-2.142a12.372,12.372,0,0,1,.072-1.869,2.935,2.935,0,0,1,1.381-1.547,10.726,10.726,0,0,1,12.6,1.1,4.048,4.048,0,0,1,1.283,1.847,5.026,5.026,0,0,1-.279,2.687" transform="translate(564.66 79.367)" fill="#8fa159"/>
          <path id="Trazado_874008" data-name="Trazado 874008" d="M32.252,382.018,31.4,384.93a3.077,3.077,0,0,1-1.37,2.127,2.775,2.775,0,0,1-1.792-.011,16.64,16.64,0,0,1-7.55-4.223,1.964,1.964,0,0,1-.6-.865c-.141-.56.193-1.121.263-1.693a9.6,9.6,0,0,1,.057-1.477,2.31,2.31,0,0,1,1.091-1.221,8.478,8.478,0,0,1,9.96.869,3.2,3.2,0,0,1,1.013,1.461,3.978,3.978,0,0,1-.22,2.123" transform="translate(545.997 81.51)" fill="#8fa159"/>
          <path id="Trazado_874009" data-name="Trazado 874009" d="M35.131,390.05q.164,1.509.327,3.017a3.091,3.091,0,0,1-.449,2.493,2.79,2.79,0,0,1-1.658.682,16.6,16.6,0,0,1-8.588-.981,1.956,1.956,0,0,1-.882-.568c-.346-.461-.252-1.108-.408-1.664a9.755,9.755,0,0,1-.515-1.384,2.324,2.324,0,0,1,.539-1.55,8.485,8.485,0,0,1,9.526-3.046,3.19,3.19,0,0,1,1.5.956,3.975,3.975,0,0,1,.612,2.045" transform="translate(539.504 83.733)" fill="#8fa159"/>
          <path id="Trazado_874010" data-name="Trazado 874010" d="M49.071,407.179a3,3,0,0,0,2.242-1.283,4.982,4.982,0,0,0,.511-4.371A12.118,12.118,0,0,0,49.5,397.63q-1.193-1.475-2.506-2.847a7.423,7.423,0,0,0-3-2.166,4.762,4.762,0,0,0-5.34,2.4,6.781,6.781,0,0,0,.088,6.119,11.772,11.772,0,0,0,4.33,4.537,7.216,7.216,0,0,0,2.451,1.106c.681.135,1.386.109,2.073.209a8.4,8.4,0,0,0,1.472.189" transform="translate(504.651 84.998)" fill="#8fa159"/>
          <path id="Trazado_874011" data-name="Trazado 874011" d="M26,404.2a6.507,6.507,0,0,1,.937-1.659c1.589-2.259,3.6-4.7,6.355-4.824a4.7,4.7,0,0,1,3.767,1.681,1.434,1.434,0,0,1,.349.661,1.608,1.608,0,0,1-.214.925,23.558,23.558,0,0,1-3.365,4.826c-1.3,1.566-2.785,3.225-4.79,3.568a2.588,2.588,0,0,1-2.838-1.189,3.516,3.516,0,0,1-.226-.937A6.664,6.664,0,0,1,26,404.2" transform="translate(534.132 86.138)" fill="#8fa159"/>
          <path id="Trazado_874012" data-name="Trazado 874012" d="M51.972,415.358a8.375,8.375,0,0,0-1.3-1.844c-1.5-1.981-1.953-4.79-3.966-6.245a4.343,4.343,0,0,0-4.815-.14,4.064,4.064,0,0,0-1.608,4.5,7.647,7.647,0,0,0,2.621,3.211l2.371,2.006a10.383,10.383,0,0,0,2.539,1.746,3.492,3.492,0,0,0,2.988.013,2.691,2.691,0,0,0,1.175-3.251" transform="translate(502.009 88.035)" fill="#8fa159"/>
          <path id="Trazado_874013" data-name="Trazado 874013" d="M33.829,410.644c1.151-.594,2.5-1.2,3.686-.68,1.377.6,1.763,2.417,1.524,3.905a6.023,6.023,0,0,1-.891,2.388c-1.53,2.293-4.6,2.847-7.325,3.2a3.752,3.752,0,0,1-1.136.03,2.3,2.3,0,0,1-1.706-1.7,3.768,3.768,0,0,1,.3-2.481c1.018-2.247,3.357-3.532,5.544-4.661" transform="translate(529.909 88.75)" fill="#8fa159"/>
          <path id="Trazado_874014" data-name="Trazado 874014" d="M479.855,448.691a8.877,8.877,0,0,0-1.7.619c-13.671-42.438-42.251-125.263-64.916-151.582l2.819-2.447c23.445,27.225,52.119,110.549,65.767,153.128a11.94,11.94,0,0,0-1.972.281" transform="translate(-381.63 63.954)" fill="#b0c66b"/>
          <path id="Trazado_874015" data-name="Trazado 874015" d="M466.389,268.2c-5.852-.133-4.291,5.262-.86,11.5s11.215,7.525,16.035,12.859,4.208,10.179,8.308,13.455,10.37,6.433,8.686,2.676-4.341-2.912-5.42-8.364-5.285-18.779-9.926-21.632-11.15-10.37-16.823-10.5" transform="translate(-458.537 58.087)" fill="#b0c66b"/>
          <path id="Trazado_874016" data-name="Trazado 874016" d="M457.829,272.884c-3.728-3.565-5.9.872-7.348,6.971s2.853,11.558,2.84,17.892-3.27,9.123-2.537,13.689,2.948,10.347,4.07,6.9-1.1-4.475,1.411-8.661,7.646-15.355,6.31-19.969-1.133-13.37-4.746-16.825" transform="translate(-407.538 58.827)" fill="#b0c66b"/>
          <path id="Trazado_874017" data-name="Trazado 874017" d="M456.47,305.44c-1.989-4.767,2.916-5.217,9.111-4.4s9.742,6.8,15.645,9.045,9.659.19,13.649,2.506,8.581,6.455,4.973,6.278-3.771-2.631-8.566-1.766-17.022,1.69-20.841-1.209-12.044-5.831-13.971-10.45" transform="translate(-453.004 65.13)" fill="#b0c66b"/>
          <path id="Trazado_874018" data-name="Trazado 874018" d="M446.009,300.833c-3.4-3.879-5.95.352-7.927,6.3s1.836,11.763,1.27,18.072-4.05,8.8-3.718,13.414,2.037,10.566,3.454,7.234-.711-4.554,2.159-8.5,8.953-14.626,8.023-19.34.036-13.419-3.262-17.177" transform="translate(-376.385 64.832)" fill="#b0c66b"/>
          <path id="Trazado_874019" data-name="Trazado 874019" d="M444.112,329.787c-1.566-4.922,3.359-4.942,9.46-3.588s9.113,7.627,14.8,10.382,9.6,1.035,13.379,3.692,7.986,7.183,4.409,6.69-3.528-2.953-8.38-2.511-17.105.191-20.656-3.03-11.491-6.864-13.009-11.635" transform="translate(-424.517 70.484)" fill="#b0c66b"/>
          <path id="Trazado_874020" data-name="Trazado 874020" d="M433.985,329.627c-3.4-3.878-5.95.352-7.927,6.3s1.836,11.763,1.27,18.072-4.05,8.8-3.718,13.415,2.037,10.565,3.454,7.233-.71-4.554,2.159-8.5,8.953-14.626,8.023-19.34.036-13.419-3.262-17.177" transform="translate(-349.732 71.069)" fill="#b0c66b"/>
          <path id="Trazado_874021" data-name="Trazado 874021" d="M432.087,358.582c-1.565-4.922,3.36-4.942,9.46-3.588s9.115,7.627,14.8,10.382,9.606,1.035,13.378,3.692,7.986,7.183,4.41,6.69-3.529-2.953-8.38-2.511-17.105.191-20.656-3.031-11.491-6.864-13.01-11.635" transform="translate(-397.863 76.721)" fill="#b0c66b"/>
          <path id="Trazado_874022" data-name="Trazado 874022" d="M426.5,358.284c-2.961-4.228-5.953-.3-8.566,5.394s.546,11.895-.7,18.1-4.983,8.306-5.155,12.927.875,10.725,2.646,7.568-.211-4.6,3.072-8.217,10.491-13.558,10.079-18.346,1.5-13.334-1.375-17.431" transform="translate(-326.484 77.214)" fill="#b0c66b"/>
          <path id="Trazado_874023" data-name="Trazado 874023" d="M421.058,386.593c-1.566-4.922,3.359-4.942,9.46-3.588s9.113,7.627,14.8,10.382,9.6,1.035,13.379,3.692,7.986,7.183,4.409,6.69-3.528-2.953-8.38-2.511-17.105.191-20.656-3.031-11.491-6.864-13.009-11.635" transform="translate(-373.415 82.787)" fill="#b0c66b"/>
          <path id="Trazado_874024" data-name="Trazado 874024" d="M417.706,408.726c.3,3.757-5.408,11.516-8,14.33a5.66,5.66,0,0,0-1.745,4.069,11.872,11.872,0,0,0-1.767.262c-.259.062-.518.153-.776.242a22.378,22.378,0,0,1-.2-4.1c.158-3.623,3.1-5.246,4.111-10.109s-1.432-9.74.647-14.193,4.445-7.515,6.746-4.184c2.229,3.229.687,9.92.984,13.677" transform="translate(-307.97 85.257)" fill="#b0c66b"/>
          <path id="Trazado_874025" data-name="Trazado 874025" d="M421.435,409.183c4.422.982,6.606,5.528,10.725,7.525s6.964.752,9.7,2.678c2.213,1.558,4.583,3.973,4.051,4.659-.176.033-.356.057-.528.1-.1.023-.192.063-.288.09-.018,0-.022,0-.04,0-2.593-.356-2.557-2.139-6.073-1.819s-12.4.139-14.974-2.2-8.329-4.976-9.428-8.435c-1.135-3.568,2.434-3.582,6.857-2.6" transform="translate(-347.158 88.503)" fill="#b0c66b"/>
          <path id="Trazado_874026" data-name="Trazado 874026" d="M486.445,435.144c-1.451-7.836-2.792-15.664-4.094-23.372L481.1,404.4c-1.135-6.656-2.422-14.2-5.647-20.906-4.557-9.467-12.74-16.792-19.961-23.257a.839.839,0,0,0-1.117,1.252c7.106,6.36,15.16,13.569,19.572,22.738,3.123,6.492,4.389,13.91,5.508,20.456l1.249,7.37c1.254,7.424,2.543,14.957,3.932,22.506a8.062,8.062,0,0,1,1.809.585" transform="translate(-435.953 77.976)" fill="#8fa159"/>
          <path id="Trazado_874027" data-name="Trazado 874027" d="M477.917,353.952a15.537,15.537,0,0,1,3.215-4.1c1.4-1.279,3.235-2.359,5.089-1.985a7.451,7.451,0,0,1,2.855,1.534,16.022,16.022,0,0,1,4.207,4.017,14.41,14.41,0,0,1,1.319,2.932c.854,2.4,1.588,5.05.768,7.465a3.555,3.555,0,0,1-1.869,2.246,4.88,4.88,0,0,1-2.162.176c-2.529-.174-5.211-.4-7.248-1.914a12.6,12.6,0,0,1-2.22-2.3q-1.9-2.358-3.651-4.829a3.353,3.353,0,0,1-.769-1.708,3.051,3.051,0,0,1,.466-1.529" transform="translate(-473.645 75.325)" fill="#8fa159"/>
          <path id="Trazado_874028" data-name="Trazado 874028" d="M463.277,369.467a5.3,5.3,0,0,1-1.114-6.161l1.047-3.057a9.115,9.115,0,0,1,2.344-4.2c2.178-1.842,5.76-1.106,7.641,1.04a8.35,8.35,0,0,1,1.444,7.9,11.627,11.627,0,0,1-5.257,6.295,4.541,4.541,0,0,1-2.848.811c-1.422-.2-2.422-1.457-3.258-2.628" transform="translate(-433.722 76.888)" fill="#8fa159"/>
          <path id="Trazado_874029" data-name="Trazado 874029" d="M452.652,377.494a4.832,4.832,0,0,1,2.032-5.34l2.258-1.891a8.294,8.294,0,0,1,3.81-2.169c2.568-.405,5.02,1.87,5.477,4.438a7.617,7.617,0,0,1-2.594,6.854,10.566,10.566,0,0,1-7.071,2.422,4.15,4.15,0,0,1-2.606-.718c-1.018-.827-1.2-2.287-1.307-3.6" transform="translate(-414 79.714)" fill="#8fa159"/>
          <path id="Trazado_874030" data-name="Trazado 874030" d="M448.917,391.6a4.838,4.838,0,0,1,.728-5.668q.878-1.186,1.754-2.37a8.3,8.3,0,0,1,3.2-3c2.4-1,5.316.637,6.36,3.026a7.623,7.623,0,0,1-.92,7.274,10.589,10.589,0,0,1-6.308,4.018,4.147,4.147,0,0,1-2.7-.085c-1.183-.565-1.7-1.94-2.11-3.19" transform="translate(-404.034 82.358)" fill="#8fa159"/>
          <path id="Trazado_874031" data-name="Trazado 874031" d="M472.466,374.85q.542,1.841,1.083,3.683c.311,1.061.728,2.245,1.735,2.692a3.523,3.523,0,0,0,2.268-.013,21.056,21.056,0,0,0,9.553-5.344,2.483,2.483,0,0,0,.754-1.094c.179-.708-.245-1.417-.332-2.142a12.362,12.362,0,0,0-.072-1.869,2.934,2.934,0,0,0-1.381-1.548,10.727,10.727,0,0,0-12.6,1.1,4.038,4.038,0,0,0-1.282,1.847,5.014,5.014,0,0,0,.277,2.687" transform="translate(-459.305 79.631)" fill="#8fa159"/>
          <path id="Trazado_874032" data-name="Trazado 874032" d="M465.2,383.241q.431,1.456.857,2.911a3.078,3.078,0,0,0,1.371,2.127,2.771,2.771,0,0,0,1.791-.011,16.627,16.627,0,0,0,7.55-4.223,1.977,1.977,0,0,0,.6-.865c.141-.56-.193-1.12-.263-1.693a9.763,9.763,0,0,0-.057-1.477,2.31,2.31,0,0,0-1.091-1.221,8.48,8.48,0,0,0-9.961.869,3.218,3.218,0,0,0-1.013,1.461,3.978,3.978,0,0,0,.22,2.123" transform="translate(-440.051 81.775)" fill="#8fa159"/>
          <path id="Trazado_874033" data-name="Trazado 874033" d="M462.332,391.273q-.164,1.509-.327,3.017a3.091,3.091,0,0,0,.449,2.493,2.786,2.786,0,0,0,1.658.682,16.6,16.6,0,0,0,8.588-.981,1.955,1.955,0,0,0,.882-.568c.346-.461.252-1.108.408-1.664a9.756,9.756,0,0,0,.515-1.384,2.324,2.324,0,0,0-.539-1.55,8.485,8.485,0,0,0-9.526-3.046,3.19,3.19,0,0,0-1.5.956,3.976,3.976,0,0,0-.612,2.045" transform="translate(-433.572 83.997)" fill="#8fa159"/>
          <path id="Trazado_874034" data-name="Trazado 874034" d="M448.671,408.4a3,3,0,0,1-2.242-1.284,4.982,4.982,0,0,1-.511-4.371,12.118,12.118,0,0,1,2.325-3.894q1.194-1.474,2.506-2.847a7.424,7.424,0,0,1,3-2.166,4.762,4.762,0,0,1,5.34,2.4A6.781,6.781,0,0,1,459,402.36a11.771,11.771,0,0,1-4.33,4.537A7.216,7.216,0,0,1,452.216,408c-.681.135-1.386.109-2.073.209a8.414,8.414,0,0,1-1.472.189" transform="translate(-398.998 85.263)" fill="#8fa159"/>
          <path id="Trazado_874035" data-name="Trazado 874035" d="M471.3,405.419a6.508,6.508,0,0,0-.937-1.659c-1.589-2.259-3.6-4.7-6.355-4.824a4.7,4.7,0,0,0-3.767,1.681,1.434,1.434,0,0,0-.349.661,1.608,1.608,0,0,0,.214.925,23.559,23.559,0,0,0,3.365,4.826c1.3,1.566,2.785,3.225,4.79,3.568a2.588,2.588,0,0,0,2.838-1.189,3.515,3.515,0,0,0,.226-.937,6.663,6.663,0,0,0-.026-3.052" transform="translate(-428.029 86.403)" fill="#8fa159"/>
          <path id="Trazado_874036" data-name="Trazado 874036" d="M445.4,416.58a8.376,8.376,0,0,1,1.3-1.844c1.5-1.981,1.953-4.79,3.966-6.245a4.343,4.343,0,0,1,4.815-.14,4.064,4.064,0,0,1,1.608,4.5,7.646,7.646,0,0,1-2.621,3.211l-2.371,2.006a10.382,10.382,0,0,1-2.539,1.746,3.492,3.492,0,0,1-2.988.013,2.691,2.691,0,0,1-1.175-3.251" transform="translate(-395.984 88.3)" fill="#8fa159"/>
          <path id="Trazado_874037" data-name="Trazado 874037" d="M463.394,411.866c-1.151-.594-2.5-1.2-3.686-.68-1.377.6-1.763,2.417-1.524,3.905a6.021,6.021,0,0,0,.891,2.388c1.53,2.293,4.6,2.847,7.325,3.2a3.753,3.753,0,0,0,1.136.03,2.3,2.3,0,0,0,1.706-1.7,3.768,3.768,0,0,0-.3-2.481c-1.017-2.247-3.356-3.532-5.544-4.661" transform="translate(-423.737 89.014)" fill="#8fa159"/>
          <path id="Trazado_874038" data-name="Trazado 874038" d="M372.487,182.013c-2.01-2.017,3.372-110.355,6-160.881,81.894,3.7,147.162,71.473,147.162,154.565,0,85.463-69.042,154.745-154.208,154.745-83.056,0-150.745-65.9-154.05-148.428Z" transform="translate(-187.178 4.577)" fill="#ebd6ca"/>
          <path id="Trazado_874039" data-name="Trazado 874039" d="M506.929,4.833c2.364,0,4.709.074,7.048.179-2.627,50.527-8.009,158.864-6,160.881h-155.1c-.084-2.1-.158-4.2-.158-6.315,0-85.463,69.041-154.745,154.208-154.745" transform="translate(-340.152 1.047)" fill="#fcb036"/>
          <path id="Trazado_874040" data-name="Trazado 874040" d="M343.281,153.372h155.1L456.4,296.24A154.674,154.674,0,0,1,343.281,153.372" transform="translate(-313.071 33.218)" fill="#f5e6dc"/>
          <path id="Trazado_874041" data-name="Trazado 874041" d="M367.423,98.019,235.092,182.013c-2.01-2.017,3.372-110.354,6-160.881A154.094,154.094,0,0,1,367.423,98.019" transform="translate(-49.958 4.577)" fill="#f5e6dc"/>
          <path id="Trazado_874042" data-name="Trazado 874042" d="M163.861,84.529c15.493-1.456,22.085,5.82,26.7,21.035s-3.3,25.8,5.932,39.689,26.368,17.2,29.664,27.782-1.318,15.215,1.319,22.491,23.731,18.521,23.731,23.152-3.955,10.584-3.955,10.584L91.021,205.447l-14.5-9.261s-10.548-13.23,1.318-20.507,21.754-5.291,23.732-27.12,0-46.3,9.887-59.534,37.574-15.876,44.825-10.584,7.579,6.087,7.579,6.087" transform="translate(263.898 16.436)" fill="#313440"/>
          <path id="Trazado_874043" data-name="Trazado 874043" d="M33.592,274.035l22.6-16.677L33.622,274.079l22.573-16.721,22.574-16.722c5.589,7.6,24.844,35.371,33.07,67.28-19.687,1.675-39.374,5.647-59.062,6.338-3.183-13.363-10.438-28.233-19.186-40.219" transform="translate(450.233 52.118)" fill="#f0b48f"/>
          <path id="Trazado_874044" data-name="Trazado 874044" d="M264.454,348.5c41.507,6.673,93.15-41.608,123.146-74.787l-38.04-50.2c-21.537,23.77-46.168,41.462-61.807,48.988,3.279-18.8,13.2-49.357,33.468-81.343l-46.4-20.053C244.788,218.41,199.9,303.4,242.063,338.225A46.176,46.176,0,0,0,264.454,348.5" transform="translate(-58.217 37.058)" fill="#f0b48f"/>
          <path id="Trazado_874045" data-name="Trazado 874045" d="M50.672,291.232c-14.5,3.968,6.722-40.215,6.722-40.215l16.949-2.229c2.732,4.607,6.77,15.395,9.469,19.589-6.245,6.313-21.186,19.583-33.14,22.855" transform="translate(463.648 53.884)" fill="#313440"/>
          <path id="Trazado_874046" data-name="Trazado 874046" d="M228.422,249.938a18.2,18.2,0,0,1-1.454-3.358c1.461-1.594,2.92-3.239,4.368-4.95,12.468.849,45.235,20.021,45.235,20.021s-3.668-3.768-3.681.417c-3.943,5.108-10.525,14.611-15.9,20.177-4.782-2.953-17.252-11.488-28.569-32.308" transform="translate(50.243 52.334)" fill="#313440"/>
          <path id="Trazado_874047" data-name="Trazado 874047" d="M243.029,340.16s25.852,24.475,52.221,98.562H64.236s6.744-75.741,37.4-99.224Z" transform="translate(229.541 73.53)" fill="#51597a"/>
          <path id="Trazado_874048" data-name="Trazado 874048" d="M215.194,169.5c32.511,4.427,54.265,15.672,65.471,24.933s43.508,64.826,51.418,69.456c0,0-20.435,39.69-42.848,46.965l-22.412,7.276-8.57-18.521s-3.955,59.975-10.987,67.912c0,0-94.044,24.7-133.6,3.088,0,0-3.516-.442-7.91-9.7s-4.394-52.7-4.394-52.7-9.888-11.025-11.207-26.459c0,0-37.134-4.19-48.56-37.264,0,0,15.381-16.317,29.444-28.224s31.2-37.484,44.386-42.776,49.66-3.968,49.66-3.968Z" transform="translate(220.251 36.684)" fill="#fcb036"/>
          <path id="Trazado_874049" data-name="Trazado 874049" d="M199.859,121.852s-7.806-8.185-14.469-5.87-7.72,16.667-.618,19.542,15.73-2.633,15.73-2.633Z" transform="translate(183.573 25.031)" fill="#ff8f76"/>
          <path id="Trazado_874050" data-name="Trazado 874050" d="M188.854,131.549a.313.313,0,0,1-.086-.023,6.249,6.249,0,0,1-3.23-7.459c.588-2.183,1.461-3.522,2.749-4.215,1.617-.867,3.8-.709,7.522.544a.293.293,0,0,1-.186.556c-3.51-1.183-5.621-1.356-7.061-.583-1.136.611-1.919,1.835-2.461,3.85a5.568,5.568,0,0,0,2.905,6.771.294.294,0,0,1,.147.387.29.29,0,0,1-.3.172" transform="translate(181.543 25.84)" fill="#313440"/>
          <path id="Trazado_874051" data-name="Trazado 874051" d="M184.248,145.034s-2.647,20.209.714,24.23,10.292,5.511,10.292,5.511S143.9,245.3,141.688,245.3c-2.467,0-4.012-70.725-4.012-70.725s10.222-1.159,12.634-3.417,2.649-21.36,2.649-21.36Z" transform="translate(240.191 31.412)" fill="#f0b48f"/>
          <path id="Trazado_874052" data-name="Trazado 874052" d="M178.249,145.928l-12.4,1.159L149.332,149.6a104.559,104.559,0,0,1-.633,12.932c5.2-.08,19.279-1.02,29.55-16.605" transform="translate(243.786 31.606)" fill="#313440"/>
          <path id="Trazado_874053" data-name="Trazado 874053" d="M135.734,103.588c-2.133,5.391-.086,13.661-2.033,24.914s-2.787,33.887,13.125,38.348c10.887,3.052,22.368,1.537,29.921-2.279a29.31,29.31,0,0,0,14.9-18.123l7.23-25.243c4.707-16.435-4.859-33.83-21.391-37.983q-.571-.144-1.161-.271c-32.437-6.992-40.6,20.637-40.6,20.637" transform="translate(241.459 17.72)" fill="#f0b48f"/>
          <path id="Trazado_874054" data-name="Trazado 874054" d="M160.857,122.938c.156-1.852-.326-3.4-1.075-3.467s-1.482,1.387-1.636,3.239.326,3.4,1.074,3.467,1.482-1.387,1.638-3.239" transform="translate(249.692 25.875)" fill="#313440"/>
          <path id="Trazado_874055" data-name="Trazado 874055" d="M181.033,120.733c.156-1.85-.326-3.4-1.075-3.466s-1.482,1.386-1.636,3.237.326,3.405,1.074,3.468,1.482-1.388,1.638-3.24" transform="translate(204.97 25.398)" fill="#313440"/>
          <path id="Trazado_874056" data-name="Trazado 874056" d="M173.28,135.63a.4.4,0,0,0,.223-.1.392.392,0,0,0,.017-.551,11.142,11.142,0,0,1-2.606-5.507c-.182-1.471.785-2.284,2.009-3.312A7.352,7.352,0,0,0,175.9,122a.389.389,0,1,0-.762-.161,6.634,6.634,0,0,1-2.711,3.72c-1.237,1.039-2.516,2.112-2.281,4.006a11.746,11.746,0,0,0,2.81,5.945.386.386,0,0,0,.327.12" transform="translate(220.077 26.321)" fill="#313440"/>
          <path id="Trazado_874057" data-name="Trazado 874057" d="M163.359,118.993a1.165,1.165,0,0,1-.769-.326c-.111-.1-2.475-2.281-6.868-1.652a1.17,1.17,0,0,1-.331-2.316,10.682,10.682,0,0,1,8.823,2.286,1.175,1.175,0,0,1,.021,1.656,1.162,1.162,0,0,1-.876.353" transform="translate(250.544 24.812)" fill="#313440"/>
          <path id="Trazado_874058" data-name="Trazado 874058" d="M184.455,115.658a1.157,1.157,0,0,1-.832-.055c-.14-.062-3.085-1.338-7.028.7a1.169,1.169,0,0,1-1.071-2.079c5.014-2.6,8.918-.826,9.081-.749a1.173,1.173,0,0,1,.562,1.557,1.16,1.16,0,0,1-.712.622" transform="translate(204.891 24.434)" fill="#313440"/>
          <path id="Trazado_874059" data-name="Trazado 874059" d="M185.885,135.109s-11.492-14.952-16.858-34.074a90.965,90.965,0,0,1-18.113,5.561c-9.2,1.63-14.017-.335-18.945,7.106s-2.585-4-2.585-4,5.242-38.857,48.368-26.025,13.021,56.283,13.021,56.283Z" transform="translate(245.216 17.561)" fill="#313440"/>
          <path id="Trazado_874060" data-name="Trazado 874060" d="M167.071,136.9c-1.548.308-3.107.373-4.658.6-1.656.247-2.9,1.287-2.5,3.055,1.63,7.124,11.553,6.346,16.729,4.318a7.741,7.741,0,0,0,3.234-2.168c1.591-1.942,1.813-5.543-.4-7.134-1.891-1.358-4.574-.708-6.644-.2-1.775.436-3.512,1.013-5.291,1.431-.157.035-.313.069-.47.1" transform="translate(227.38 29.188)" fill="#fff"/>
          <path id="Trazado_874061" data-name="Trazado 874061" d="M156.4,115.938a.408.408,0,0,0,.4-.346c.776-5.06,8.529-8.626,15.577-9.15,8.026-.6,18-3.875,21.525-8.989a.406.406,0,0,0-.667-.465c-3.385,4.906-13.084,8.062-20.918,8.644-7.262.539-15.451,4.17-16.319,9.837a.405.405,0,0,0,.339.464.356.356,0,0,0,.062,0" transform="translate(219.19 20.968)" fill="#313440"/>
          <path id="Trazado_874062" data-name="Trazado 874062" d="M127.994,126.2s7.806-8.185,14.469-5.87,7.72,16.667.618,19.542-15.73-2.633-15.73-2.633Z" transform="translate(300.054 25.973)" fill="#f0b48f"/>
          <path id="Trazado_874063" data-name="Trazado 874063" d="M137.244,135.9a.314.314,0,0,0,.086-.023,6.249,6.249,0,0,0,3.23-7.459c-.588-2.183-1.461-3.522-2.749-4.215-1.617-.867-3.8-.709-7.522.544a.293.293,0,0,0,.186.556c3.51-1.183,5.621-1.357,7.061-.583,1.136.611,1.919,1.835,2.461,3.851a5.568,5.568,0,0,1-2.905,6.771.294.294,0,0,0-.147.387.29.29,0,0,0,.3.172" transform="translate(303.84 26.782)" fill="#313440"/>
          <path id="Trazado_874064" data-name="Trazado 874064" d="M137.515,215.61a.7.7,0,0,0,.613-.353c4.217-7.157-5.97-15.3-13.406-21.259-3.159-2.53-6.146-4.92-6.773-6.3-.848-1.875-.444-4.8.022-8.192.65-4.695,1.455-10.543-.9-16.043-2.267-5.312-11.2-12.228-19.841-18.915-6.572-5.087-12.781-9.893-14.471-12.909-1.478-2.636-1.933-6.212-2.51-10.739-.926-7.27-2.078-16.313-8.033-27.181a.71.71,0,0,0-.967-.28.719.719,0,0,0-.282.974c5.823,10.621,6.956,19.519,7.866,26.67.6,4.679,1.067,8.377,2.683,11.26,1.831,3.268,7.863,7.936,14.845,13.341,8.1,6.268,17.279,13.375,19.4,18.339,2.191,5.143,1.45,10.531.792,15.288-.5,3.61-.928,6.726.092,8.982.769,1.7,3.6,3.961,7.183,6.832,7.026,5.618,16.651,13.319,13.069,19.407a.717.717,0,0,0,.613,1.08" transform="translate(377.589 20.218)" fill="#313440"/>
          <path id="Trazado_874065" data-name="Trazado 874065" d="M227.754,270.009a.714.714,0,0,0,.714-.717c0-27.32,15.2-41,15.359-41.136a.715.715,0,0,0,.066-1.007.706.706,0,0,0-1.007-.067c-.157.134-15.845,14.208-15.845,42.211a.714.714,0,0,0,.713.717" transform="translate(82.656 49.144)" fill="#313440"/>
          <path id="Trazado_874066" data-name="Trazado 874066" d="M116.033,283.476a.678.678,0,0,0,.231-.039.715.715,0,0,0,.444-.906c-5.658-16.6-13.566-34.718-13.646-34.9a.7.7,0,0,0-.939-.369.715.715,0,0,0-.366.94c.078.184,7.964,18.248,13.6,34.785a.711.711,0,0,0,.675.487" transform="translate(362.471 53.54)" fill="#313440"/>
          <path id="Trazado_874067" data-name="Trazado 874067" d="M118.582,261.649a.716.716,0,0,0,.451-1.27l-9.669-7.941a.7.7,0,0,0-1,.1.715.715,0,0,0,.1,1.007l9.671,7.941a.687.687,0,0,0,.451.162" transform="translate(352.011 54.639)" fill="#313440"/>
          <path id="Trazado_874068" data-name="Trazado 874068" d="M164.927,279.562c7.846,0,17.076-1.555,27.725-5.718a.715.715,0,0,0,.406-.923.7.7,0,0,0-.926-.409c-40.737,15.915-60.08-7.05-60.272-7.286a.7.7,0,0,0-1-.1.717.717,0,0,0-.1,1.007c.146.178,11.255,13.429,34.171,13.429" transform="translate(250.954 57.386)" fill="#313440"/>
          <path id="Trazado_874069" data-name="Trazado 874069" d="M144.547,350.819l.439-16.317,9.229-.44v18.08Z" transform="translate(272.872 72.353)" fill="#ff5a4a"/>
          <path id="Trazado_874070" data-name="Trazado 874070" d="M223.188,347.022l.659-14.553-5.493-.22-.659,14.111Z" transform="translate(114.248 71.96)" fill="#ff5a4a"/>
          <path id="Trazado_874071" data-name="Trazado 874071" d="M115.6,346.493l-1.758-14.333,8.13-1.543,2.2,14.773Z" transform="translate(340.271 71.607)" fill="#ff5a4a"/>
          <path id="Trazado_874072" data-name="Trazado 874072" d="M194.341,342.7h9.229a.717.717,0,0,0,0-1.433h-9.229a.717.717,0,0,0,0,1.433" transform="translate(163.092 73.913)" fill="#ffbd00"/>
          <path id="Trazado_874073" data-name="Trazado 874073" d="M217.506,335.071a.924.924,0,0,0,.591-.213c.87-.717.373-2.652-2.133-10.627a147.866,147.866,0,0,1-4.155-15.008.738.738,0,0,0-.835-.572.72.72,0,0,0-.566.839,148.333,148.333,0,0,0,4.194,15.171,87.228,87.228,0,0,1,2.432,8.556c-2.652-2.372-9.272-12.025-10.5-17.19a.714.714,0,0,0-1.388.336c1.391,5.82,9.19,17.123,11.774,18.54a1.221,1.221,0,0,0,.589.168" transform="translate(134.896 66.848)" fill="#313440"/>
          <path id="Trazado_874074" data-name="Trazado 874074" d="M309.055,202.39s18.863-10.918,20.075-31.317c.709-11.955-7.484-30.258-7.484-30.258s-46.012-4.814-50.738,4.668-4.922,52.908-4.922,52.908Z" transform="translate(-49.827 30.234)" fill="#f0b48f"/>
          <path id="Trazado_874075" data-name="Trazado 874075" d="M253.939,189.566a7.144,7.144,0,0,0,7.19-3.038c9.921-14.682,22.934-32.052,26.657-34.516a7.174,7.174,0,0,0-7.883-11.987c-7.792,5.164-25.4,30.731-30.615,38.443a7.183,7.183,0,0,0,4.652,11.1" transform="translate(10.16 30.07)" fill="#f0b48f"/>
          <path id="Trazado_874076" data-name="Trazado 874076" d="M278.618,185.125a.512.512,0,0,0,.089.009.6.6,0,0,0,.612-.58c.719-23.636,21.944-25.236,22.849-25.292a.6.6,0,0,0-.073-1.195c-.232.015-23.215,1.708-23.967,26.452a.6.6,0,0,0,.49.606" transform="translate(-38.152 34.235)" fill="#313440"/>
          <path id="Trazado_874077" data-name="Trazado 874077" d="M327.159,140.218l-68.674,31.607a2.093,2.093,0,0,1-2.782-1.034l-4.145-9.068a2.11,2.11,0,0,1,1.033-2.793l68.675-31.607Z" transform="translate(-30.029 27.576)" fill="#f05923"/>
          <path id="Trazado_874078" data-name="Trazado 874078" d="M264.9,125.675l-14.867,6.842,7.118,15.575,14.867-6.842Z" transform="translate(26.742 27.219)" fill="#33bac1"/>
          <g id="Grupo_1099545" data-name="Grupo 1099545" transform="translate(291.09 103.939)" opacity="0.33">
            <g id="Grupo_1099544" data-name="Grupo 1099544">
              <g id="Grupo_1099543" data-name="Grupo 1099543" clip-path="url(#clip-path-3)">
                <path id="Trazado_874079" data-name="Trazado 874079" d="M267.217,109.493a41.123,41.123,0,1,0-20.222,54.679,41.039,41.039,0,0,0,20.222-54.679" transform="translate(-188.752 -85.435)" fill="#c7e2e0"/>
              </g>
            </g>
          </g>
          <path id="Trazado_874080" data-name="Trazado 874080" d="M258.186,133.4a31.57,31.57,0,0,1-2.481-8.284l-6.739,3.1a38.572,38.572,0,0,0,7.118,15.574l6.74-3.1a31.423,31.423,0,0,1-4.639-7.291" transform="translate(37.225 27.098)" fill="#248287"/>
          <path id="Trazado_874081" data-name="Trazado 874081" d="M271.8,108.481a45.34,45.34,0,1,0-22.3,60.288,45.3,45.3,0,0,0,22.3-60.288m-7.664,3.527a36.9,36.9,0,1,1-48.9-18.212,37.1,37.1,0,0,1,48.9,18.212" transform="translate(101.591 17.753)" fill="#33bac1"/>
          <g id="Grupo_1099548" data-name="Grupo 1099548" transform="translate(292.472 105.325)" opacity="0.52" style="mix-blend-mode: multiply;isolation: isolate">
            <g id="Grupo_1099547" data-name="Grupo 1099547">
              <g id="Grupo_1099546" data-name="Grupo 1099546" clip-path="url(#clip-path-4)">
                <path id="Trazado_874082" data-name="Trazado 874082" d="M246.177,162.676a39.843,39.843,0,1,1,19.547-52.856,39.716,39.716,0,0,1-19.547,52.856m16.959-51.666a36.9,36.9,0,1,0-18.147,49.071,36.871,36.871,0,0,0,18.147-49.071" transform="translate(-189.886 -86.574)" fill="#9fa4af"/>
              </g>
            </g>
          </g>
          <g id="Grupo_1099551" data-name="Grupo 1099551" transform="translate(312.754 113.793)" opacity="0.42">
            <g id="Grupo_1099550" data-name="Grupo 1099550">
              <g id="Grupo_1099549" data-name="Grupo 1099549" clip-path="url(#clip-path-5)">
                <path id="Trazado_874083" data-name="Trazado 874083" d="M225.88,95.042c5.747-2.645,17.993-2.232,17.668,4.666s-24.372,17.267-27.642,10.04c-2.668-5.9,4.035-11.972,9.974-14.706" transform="translate(-215.305 -93.535)" fill="#fff"/>
              </g>
            </g>
          </g>
          <g id="Grupo_1099554" data-name="Grupo 1099554" transform="translate(302.388 134.983)" opacity="0.42">
            <g id="Grupo_1099553" data-name="Grupo 1099553">
              <g id="Grupo_1099552" data-name="Grupo 1099552" clip-path="url(#clip-path-6)">
                <path id="Trazado_874084" data-name="Trazado 874084" d="M235.382,115.29c6.207.052,18.391-8.465,18.2-1.771-.881,31.5-38.575,20.115-36.684,12.409,3.349-13.64,11.947-10.693,18.48-10.638" transform="translate(-216.833 -110.952)" fill="#fff"/>
              </g>
            </g>
          </g>
          <path id="Trazado_874085" data-name="Trazado 874085" d="M322.256,124.011l8.915,22.038a7.639,7.639,0,0,1-13.117,7.571,7.619,7.619,0,0,1-12.089,7.3,7.6,7.6,0,0,1-13.7,3.826A6.838,6.838,0,0,1,279.1,166.74l-7.993-19.757a6.846,6.846,0,0,1,10.795-7.8,7.5,7.5,0,0,1,4.681-8.162,7.6,7.6,0,0,1,7.439.983,7.577,7.577,0,0,1,13.584-3.951,7.645,7.645,0,0,1,14.644-4.038" transform="translate(-58.012 25.821)" fill="#e0a886"/>
          <path id="Trazado_874086" data-name="Trazado 874086" d="M292.121,152.291a.295.295,0,0,0,.5-.3l-10.442-25.573a.3.3,0,1,0-.546.224l10.443,25.573a.282.282,0,0,0,.045.077" transform="translate(-32.307 27.341)" fill="#313440"/>
          <path id="Trazado_874087" data-name="Trazado 874087" d="M297.4,156.578a.3.3,0,0,0,.5-.291l-5.78-15.93a.3.3,0,0,0-.556.2l5.781,15.93a.3.3,0,0,0,.05.086" transform="translate(-49.672 30.357)" fill="#313440"/>
          <path id="Trazado_874088" data-name="Trazado 874088" d="M311.452,154.99a.3.3,0,0,0,.506-.287l-6.357-18.13a.29.29,0,0,0-.375-.182.3.3,0,0,0-.181.377L311.4,154.9a.265.265,0,0,0,.05.089" transform="translate(-80.128 29.537)" fill="#313440"/>
          <path id="Trazado_874089" data-name="Trazado 874089" d="M303.642,157.347a.294.294,0,0,0,.311.1.3.3,0,0,0,.2-.369l-.77-2.589a.3.3,0,0,0-.367-.2.3.3,0,0,0-.2.369l.77,2.589a.3.3,0,0,0,.056.1" transform="translate(-69.612 33.413)" fill="#313440"/>
          <path id="Trazado_874090" data-name="Trazado 874090" d="M272.711,142.03a.311.311,0,0,0,.011.089l1.608,6.027a.305.305,0,0,0,.172.2,8.368,8.368,0,0,0,6.652-.238.317.317,0,0,0,.14-.411.305.305,0,0,0-.409-.142,7.911,7.911,0,0,1-6,.283l-1.533-5.745c2.448-3.66,6.987-3.316,7.959-3.2l1.408,4.977a.3.3,0,0,0,.377.212.307.307,0,0,0,.21-.378l-1.462-5.169a.3.3,0,0,0-.238-.219c-.06-.01-5.91-1.009-8.843,3.555a.313.313,0,0,0-.049.157" transform="translate(-12.151 29.936)" fill="#313440"/>
          <path id="Trazado_874091" data-name="Trazado 874091" d="M283.165,148.2a.312.312,0,0,0,.018.089l2.062,5.885a.3.3,0,0,0,.186.189,8.366,8.366,0,0,0,6.613-.748.316.316,0,0,0,.108-.42.3.3,0,0,0-.418-.111,7.9,7.9,0,0,1-5.962.741l-1.966-5.608c2.163-3.837,6.714-3.843,7.692-3.8l1.784,4.858a.3.3,0,0,0,.392.18.309.309,0,0,0,.181-.393L292,144.017a.307.307,0,0,0-.254-.2c-.061,0-5.97-.552-8.548,4.222a.325.325,0,0,0-.036.161" transform="translate(-35.428 31.144)" fill="#313440"/>
          <path id="Trazado_874092" data-name="Trazado 874092" d="M294.059,152.155a.3.3,0,0,0,.018.088l2.062,5.886a.294.294,0,0,0,.186.187,8.363,8.363,0,0,0,6.613-.747.316.316,0,0,0,.108-.42.3.3,0,0,0-.419-.111,7.906,7.906,0,0,1-5.962.741l-1.966-5.61c2.163-3.836,6.714-3.842,7.693-3.8l1.784,4.857a.3.3,0,0,0,.392.181.309.309,0,0,0,.181-.393l-1.852-5.043a.306.306,0,0,0-.254-.2c-.061,0-5.97-.552-8.548,4.222a.32.32,0,0,0-.037.161" transform="translate(-59.576 32.001)" fill="#313440"/>
          <path id="Trazado_874093" data-name="Trazado 874093" d="M305.575,155.023a.321.321,0,0,0,.017.083l1.953,5.576a.287.287,0,0,0,.176.178,7.926,7.926,0,0,0,6.265-.708.3.3,0,0,0,.1-.4.289.289,0,0,0-.4-.1,7.5,7.5,0,0,1-5.649.7l-1.861-5.314c2.049-3.633,6.36-3.639,7.286-3.6l1.689,4.6a.288.288,0,0,0,.371.173.293.293,0,0,0,.173-.372l-1.754-4.776a.285.285,0,0,0-.241-.19c-.057,0-5.655-.524-8.1,4a.3.3,0,0,0-.034.152" transform="translate(-84.536 32.673)" fill="#313440"/>
          <path id="Trazado_874094" data-name="Trazado 874094" d="M307.056,285.007a.716.716,0,0,0,.689-.526c.036-.135,3.784-13.817,7.174-29.754a.716.716,0,0,0-.549-.852.687.687,0,0,0-.846.549c-3.385,15.9-7.118,29.541-7.157,29.676a.714.714,0,0,0,.5.878.584.584,0,0,0,.19.028" transform="translate(-84.688 54.98)" fill="#313440"/>
          <path id="Trazado_874095" data-name="Trazado 874095" d="M223.388,312.215c-9.9-6.535-15.334-10.482-17.661-13.251s-21.2-13.245-28.489-18.974c-6.745-5.3-14.632-2.815-10.944,7.257,3.443,9.408,23.266,16.459,20.324,16.94-9.079,1.483-12.378,2.124-12.378,2.124l7.846,39.382,6.655,6.478,19.226-3.612Z" transform="translate(178.386 60.054)" fill="#f0b48f"/>
          <path id="Trazado_874096" data-name="Trazado 874096" d="M362.251,320.549l-.624,1.313a53.544,53.544,0,0,1-14.806-.185A46.172,46.172,0,0,1,324.43,311.4a44.317,44.317,0,0,1-10.745-13.06c.195-.1.318-.221.521-.313,19.639-8.8,36.824,2.112,48.045,22.523" transform="translate(-140.936 63.883)" fill="#f0b48f"/>
          <path id="Trazado_874097" data-name="Trazado 874097" d="M45.04,308.163c43.683,15.176,88.65,14.1,104.213,9.711.955-5.461-.137-8.7-1.781-15.6,19.687-.69,39.375-4.663,59.062-6.338,4.78,18.538,5.848,38.47-1.676,56.66-9.95,24.051-35.249,32.3-65.277,32.3-37.091,0-87.586-20.1-109.095-34.647Z" transform="translate(355.54 64.096)" fill="#f0b48f"/>
          <path id="Trazado_874098" data-name="Trazado 874098" d="M189.39,359.344a6.165,6.165,0,0,0,2.9-.51l34.688-15.088a6.29,6.29,0,0,0-4.992-11.548L187.3,347.286a6.3,6.3,0,0,0,2.093,12.058" transform="translate(148.918 71.835)" fill="#f0b48f"/>
          <path id="Trazado_874099" data-name="Trazado 874099" d="M208.633,314.825h.019l13.413-1.33a.419.419,0,0,0,.352-.282l.513-1.537a.417.417,0,0,0-.264-.527.409.409,0,0,0-.523.26l-.427,1.282-13.135,1.3a.417.417,0,0,0,.052.831" transform="translate(126.684 67.385)" fill="#313440"/>
          <path id="Trazado_874100" data-name="Trazado 874100" d="M201.928,321.06a8.376,8.376,0,0,0,1.352-.018l37.887-3.666a8.4,8.4,0,0,0-1.6-16.717l-37.887,3.666a8.4,8.4,0,0,0,.251,16.735" transform="translate(118.055 65.109)" fill="#f0b48f"/>
          <path id="Trazado_874101" data-name="Trazado 874101" d="M195.559,346.825a8.376,8.376,0,0,0,1.352-.018l37.887-3.666a8.4,8.4,0,0,0-1.6-16.717l-37.887,3.666a8.4,8.4,0,0,0,.251,16.735" transform="translate(132.172 70.691)" fill="#f0b48f"/>
          <path id="Trazado_874102" data-name="Trazado 874102" d="M198.136,337.725a8.524,8.524,0,0,0,2.034-.114l44.005-7.948a8.4,8.4,0,0,0-2.965-16.527L197.2,321.085a8.4,8.4,0,0,0,.932,16.64" transform="translate(120.339 67.792)" fill="#f0b48f"/>
          <path id="Trazado_874103" data-name="Trazado 874103" d="M209.679,310.574s-17.519-9.548-23.424-8.134c-16.76,4.01-23.171,8.171-23.171,8.171s-11.227,38.7-2.534,39.855c8.18,1.084,51.789-3.767,51.789-3.767Z" transform="translate(199.295 65.473)" fill="#f0b48f"/>
          <path id="Trazado_874104" data-name="Trazado 874104" d="M197.284,309.778a.335.335,0,0,0,.1.2.341.341,0,0,0,.484.01l3.642-3.539a.345.345,0,0,0-.478-.5l-3.641,3.539a.348.348,0,0,0-.1.287" transform="translate(161.318 66.244)" fill="#313440"/>
          <path id="Trazado_874105" data-name="Trazado 874105" d="M202.018,309.171a.345.345,0,0,1-.519.335l-4.335-2.638a.345.345,0,0,1,.355-.591l4.335,2.638a.342.342,0,0,1,.164.257" transform="translate(161.256 66.324)" fill="#313440"/>
          <path id="Trazado_874106" data-name="Trazado 874106" d="M193.985,321.513a.335.335,0,0,0,.1.2.341.341,0,0,0,.484.01l3.642-3.539a.345.345,0,0,0-.478-.5l-3.641,3.539a.347.347,0,0,0-.1.287" transform="translate(168.631 68.786)" fill="#313440"/>
          <path id="Trazado_874107" data-name="Trazado 874107" d="M198.718,320.905a.345.345,0,0,1-.519.335l-4.335-2.638a.345.345,0,0,1,.355-.591l4.335,2.638a.342.342,0,0,1,.164.257" transform="translate(168.571 68.866)" fill="#313440"/>
          <path id="Trazado_874108" data-name="Trazado 874108" d="M192.591,332.392a.335.335,0,0,0,.1.2.341.341,0,0,0,.484.01l3.642-3.539a.345.345,0,0,0-.478-.5l-3.641,3.539a.348.348,0,0,0-.1.287" transform="translate(171.721 71.142)" fill="#313440"/>
          <path id="Trazado_874109" data-name="Trazado 874109" d="M197.325,331.784a.345.345,0,0,1-.52.335l-4.335-2.638a.345.345,0,0,1,.355-.591l4.335,2.638a.343.343,0,0,1,.164.257" transform="translate(171.658 71.222)" fill="#313440"/>
          <path id="Trazado_874110" data-name="Trazado 874110" d="M209.173,334.129a.392.392,0,0,0,0,.092.307.307,0,0,0,.358.254l27.651-4.958a.323.323,0,0,0,.254-.359.309.309,0,0,0-.358-.254l-27.652,4.958a.31.31,0,0,0-.257.266" transform="translate(111.024 71.235)" fill="#313440"/>
          <path id="Trazado_874111" data-name="Trazado 874111" d="M204.253,342.188a.538.538,0,0,0,0,.108.327.327,0,0,0,.375.241L216.061,340a.334.334,0,0,0,.241-.376.326.326,0,0,0-.375-.241l-11.432,2.539a.317.317,0,0,0-.242.268" transform="translate(138.148 73.504)" fill="#313440"/>
          <path id="Trazado_874112" data-name="Trazado 874112" d="M229.168,316.851a.331.331,0,0,0,.287-.129.341.341,0,0,0-.06-.472c-2.926-2.286-1.221-6.234-.805-7.094l7.949-.616c1.707,1.944,1.133,7.4,1.125,7.46a.335.335,0,0,0,.294.372h.017a.333.333,0,0,0,.354-.3c.029-.245.635-6.063-1.422-8.119a.358.358,0,0,0-.264-.1l-8.293.642a.327.327,0,0,0-.266.179c-.027.047-2.774,5.234.9,8.1a.31.31,0,0,0,.184.069" transform="translate(88.251 66.677)" fill="#313440"/>
          <path id="Trazado_874113" data-name="Trazado 874113" d="M229.127,332.845a.331.331,0,0,0,.287-.129.341.341,0,0,0-.06-.472c-2.926-2.286-1.221-6.234-.805-7.094l7.949-.616c1.707,1.944,1.133,7.4,1.125,7.46a.335.335,0,0,0,.294.372h.017a.333.333,0,0,0,.354-.3c.029-.245.635-6.063-1.422-8.12a.358.358,0,0,0-.264-.1l-8.293.641a.331.331,0,0,0-.266.18c-.027.047-2.774,5.234.9,8.1a.318.318,0,0,0,.184.069" transform="translate(88.342 70.141)" fill="#313440"/>
          <path id="Trazado_874114" data-name="Trazado 874114" d="M222.96,344.321a.331.331,0,0,0,.265-.169.34.34,0,0,0-.127-.459c-3.223-1.842-2.1-5.993-1.81-6.9l7.779-1.752c1.968,1.678,2.179,7.162,2.179,7.162a.351.351,0,0,0,.347.384h.012a.336.336,0,0,0,.313-.345c-.007-.246-.238-6.091-2.568-7.831a.364.364,0,0,0-.275-.061l-8.117,1.829a.332.332,0,0,0-.237.217c-.021.051-2,5.578,2.048,7.888a.319.319,0,0,0,.192.043" transform="translate(103.107 72.413)" fill="#313440"/>
          <path id="Trazado_874115" data-name="Trazado 874115" d="M213.81,356.048a.292.292,0,0,0,.2-.19.3.3,0,0,0-.184-.374c-3.074-1.055-2.787-4.813-2.687-5.645l6.409-2.788c1.968,1.12,3.046,5.807,3.056,5.855a.292.292,0,0,0,.35.224l.015,0a.293.293,0,0,0,.209-.348c-.046-.21-1.2-5.2-3.49-6.317a.317.317,0,0,0-.247-.007l-6.688,2.91a.288.288,0,0,0-.168.225c-.01.047-.809,5.13,3.052,6.453a.273.273,0,0,0,.17,0" transform="translate(125.647 75.032)" fill="#313440"/>
          <path id="Trazado_874116" data-name="Trazado 874116" d="M37.87,351.618c4.588-11.508,9.488-26.7,26.989-29.5a73.44,73.44,0,0,1-5.284,24.812c-5.523,13.348-15.786,21.815-28.95,26.719.275-7.272,4.482-15.1,7.245-22.029" transform="translate(500.823 69.766)" fill="#f0b48f"/>
          <path id="Trazado_874117" data-name="Trazado 874117" d="M176.2,356.407q7,4.422,13.988,8.845" transform="translate(198.38 77.193)" fill="none" stroke="#fff" stroke-linecap="round" stroke-linejoin="round" stroke-width="3.585"/>
          <path id="Trazado_874118" data-name="Trazado 874118" d="M198.487,367.779c14.715,10.336,27.221,19.2,27.221,19.2" transform="translate(135.755 79.656)" fill="none" stroke="#fff" stroke-linecap="round" stroke-linejoin="round" stroke-width="3.585"/>
          <line id="Línea_1560" data-name="Línea 1560" x2="16.921" y2="11.075" transform="translate(396.042 468.844)" fill="none" stroke="#fff" stroke-linecap="round" stroke-linejoin="round" stroke-width="3.585"/>
          <line id="Línea_1561" data-name="Línea 1561" x2="46.349" y2="31.007" transform="translate(425.47 451.125)" fill="none" stroke="#fff" stroke-linecap="round" stroke-linejoin="round" stroke-width="3.585"/>
          <line id="Línea_1562" data-name="Línea 1562" x2="12.508" y2="11.812" transform="translate(479.913 461.461)" fill="none" stroke="#fff" stroke-linecap="round" stroke-linejoin="round" stroke-width="3.585"/>
          <line id="Línea_1563" data-name="Línea 1563" x2="17.658" y2="16.241" transform="translate(323.942 491.73)" fill="none" stroke="#fff" stroke-linecap="round" stroke-linejoin="round" stroke-width="3.585"/>
          <path id="Trazado_874119" data-name="Trazado 874119" d="M206.243,172.832l-50.488,66.444s-14.9,27.132-15.449,39.313a176.6,176.6,0,0,0,1.378,26.579" transform="translate(226.124 37.433)" fill="none" stroke="#313440" stroke-miterlimit="10" stroke-width="0.896"/>
          <path id="Trazado_874120" data-name="Trazado 874120" d="M217.737,173.613l-34.763,29.623,1.1,30.454-43.59,9.137L119.8,218.187l14.622-20.765-7.449-24.362" transform="translate(239.461 37.482)" fill="none" stroke="#313440" stroke-miterlimit="10" stroke-width="0.896"/>
          <path id="Trazado_874121" data-name="Trazado 874121" d="M105,243.832s-28.141,43.742-55.731,48.725" transform="translate(438 52.81)" fill="none" stroke="#313440" stroke-miterlimit="10" stroke-width="0.896"/>
          <path id="Trazado_874122" data-name="Trazado 874122" d="M243.842,231.088s16,22.148,35.866,26.024" transform="translate(26.577 50.05)" fill="none" stroke="#313440" stroke-miterlimit="10" stroke-width="0.896"/>
          <path id="Trazado_874123" data-name="Trazado 874123" d="M403.341,122.81h41.3s-6.295-21.225-20.9-21.225-20.4,21.225-20.4,21.225" transform="translate(-332.396 22.002)" fill="#fff"/>
          <path id="Trazado_874124" data-name="Trazado 874124" d="M411.344,91.782a11.205,11.205,0,1,1,11.2,11.244,11.225,11.225,0,0,1-11.2-11.244" transform="translate(-331.25 17.443)" fill="#fff"/>
          <path id="Trazado_874125" data-name="Trazado 874125" d="M360.539,122.81h41.3s-6.295-21.225-20.9-21.225-20.4,21.225-20.4,21.225" transform="translate(-237.522 22.002)" fill="#fff"/>
          <path id="Trazado_874126" data-name="Trazado 874126" d="M368.542,91.782a11.205,11.205,0,1,1,11.2,11.244,11.225,11.225,0,0,1-11.2-11.244" transform="translate(-236.376 17.443)" fill="#fff"/>
          <path id="Trazado_874127" data-name="Trazado 874127" d="M443.508,122.048h41.3s-6.295-21.225-20.9-21.225-20.4,21.225-20.4,21.225" transform="translate(-421.429 21.837)" fill="#fff"/>
          <path id="Trazado_874128" data-name="Trazado 874128" d="M451.511,91.021a11.205,11.205,0,1,1,11.2,11.244,11.225,11.225,0,0,1-11.2-11.244" transform="translate(-420.284 17.279)" fill="#fff"/>
          <path id="Trazado_874129" data-name="Trazado 874129" d="M360.539,76.115h41.3s-6.295-21.225-20.9-21.225-20.4,21.225-20.4,21.225" transform="translate(-237.522 11.888)" fill="#fff"/>
          <path id="Trazado_874130" data-name="Trazado 874130" d="M368.542,45.088a11.205,11.205,0,1,1,11.2,11.244,11.225,11.225,0,0,1-11.2-11.244" transform="translate(-236.376 7.33)" fill="#fff"/>
          <path id="Trazado_874131" data-name="Trazado 874131" d="M404.635,75.354h41.3s-6.295-21.225-20.9-21.225-20.4,21.225-20.4,21.225" transform="translate(-335.264 11.724)" fill="#fff"/>
          <path id="Trazado_874132" data-name="Trazado 874132" d="M412.638,44.325a11.205,11.205,0,1,1,11.2,11.244,11.225,11.225,0,0,1-11.2-11.244" transform="translate(-334.118 7.165)" fill="#fff"/>
          <path id="Trazado_874133" data-name="Trazado 874133" d="M49.184,68.317a25.3,25.3,0,1,0-25.215-25.3,25.285,25.285,0,0,0,25.215,25.3m0-38.923A13.625,13.625,0,1,1,35.607,43.017,13.615,13.615,0,0,1,49.184,29.394" transform="translate(499.382 3.837)" fill="#33bac1"/>
          <path id="Trazado_874134" data-name="Trazado 874134" d="M56.887,68.308a25.285,25.285,0,0,1-1.049-50.545V29.491a13.592,13.592,0,0,0,1.049,27.142,13.433,13.433,0,0,0,7.8-2.51l8.039,8.542a25.032,25.032,0,0,1-15.842,5.644" transform="translate(491.679 3.847)" fill="#ee5a23"/>
          <path id="Trazado_874135" data-name="Trazado 874135" d="M68.146,17.762V29.49a13.545,13.545,0,0,0-12.4,12.191l-10.189-7.4a25.25,25.25,0,0,1,22.59-16.524" transform="translate(479.371 3.847)" fill="#fcb036"/>
          <path id="Trazado_874136" data-name="Trazado 874136" d="M25.727,71.861H69.705a1.206,1.206,0,0,0,1.2-1.2V68.341a1.205,1.205,0,0,0-1.2-1.2H25.727a1.2,1.2,0,0,0-1.2,1.2v2.318a1.205,1.205,0,0,0,1.2,1.2" transform="translate(502.196 14.541)" fill="#51587a"/>
          <path id="Trazado_874137" data-name="Trazado 874137" d="M25.727,81.564H69.705a1.206,1.206,0,0,0,1.2-1.2V78.044a1.205,1.205,0,0,0-1.2-1.2H25.727a1.2,1.2,0,0,0-1.2,1.2v2.318a1.205,1.205,0,0,0,1.2,1.2" transform="translate(502.196 16.643)" fill="#51587a"/>
          <path id="Trazado_874138" data-name="Trazado 874138" d="M49.184,140.746a25.3,25.3,0,1,0-25.215-25.3,25.285,25.285,0,0,0,25.215,25.3m0-38.923a13.625,13.625,0,1,1-13.577,13.623,13.615,13.615,0,0,1,13.577-13.623" transform="translate(499.382 19.525)" fill="#fcb036"/>
          <path id="Trazado_874139" data-name="Trazado 874139" d="M56.887,140.736a25.285,25.285,0,0,1-1.049-50.545v11.728a13.592,13.592,0,0,0,1.049,27.142,13.433,13.433,0,0,0,7.8-2.51l8.039,8.542a25.032,25.032,0,0,1-15.842,5.644" transform="translate(491.679 19.534)" fill="#33bac1"/>
          <path id="Trazado_874140" data-name="Trazado 874140" d="M68.146,90.191v11.728a13.545,13.545,0,0,0-12.4,12.191l-10.189-7.4a25.25,25.25,0,0,1,22.59-16.522" transform="translate(479.371 19.534)" fill="#ee5a23"/>
          <path id="Trazado_874141" data-name="Trazado 874141" d="M25.727,144.29H69.705a1.206,1.206,0,0,0,1.2-1.2V140.77a1.205,1.205,0,0,0-1.2-1.2H25.727a1.2,1.2,0,0,0-1.2,1.2v2.318a1.205,1.205,0,0,0,1.2,1.2" transform="translate(502.196 30.228)" fill="#51587a"/>
          <path id="Trazado_874142" data-name="Trazado 874142" d="M25.727,153.993H69.705a1.206,1.206,0,0,0,1.2-1.2v-2.318a1.206,1.206,0,0,0-1.2-1.2H25.727a1.2,1.2,0,0,0-1.2,1.2v2.318a1.205,1.205,0,0,0,1.2,1.2" transform="translate(502.196 32.33)" fill="#51587a"/>
          <path id="Trazado_874143" data-name="Trazado 874143" d="M355.041,333.223a8.837,8.837,0,1,0-8.811-8.837,8.823,8.823,0,0,0,8.811,8.837" transform="translate(-182.13 68.344)" fill="#51587a"/>
          <path id="Trazado_874144" data-name="Trazado 874144" d="M353.472,234.166v99.168a8.667,8.667,0,0,0,8.655,8.68H416.4" transform="translate(-243.49 50.717)" fill="none" stroke="#51587a" stroke-miterlimit="10" stroke-width="3.258"/>
          <path id="Trazado_874145" data-name="Trazado 874145" d="M406.766,244.575a8.837,8.837,0,1,0-8.81-8.837,8.824,8.824,0,0,0,8.81,8.837" transform="translate(-296.785 49.144)" fill="#51587a"/>
          <g id="Grupo_1099557" data-name="Grupo 1099557" transform="translate(332.32 6.95)" opacity="0.74" style="mix-blend-mode: multiply;isolation: isolate">
            <g id="Grupo_1099556" data-name="Grupo 1099556">
              <g id="Grupo_1099555" data-name="Grupo 1099555" clip-path="url(#clip-path-7)">
                <path id="Trazado_874146" data-name="Trazado 874146" d="M168.636,58.294H213.5a26.29,26.29,0,0,0,0-52.581H168.636a26.29,26.29,0,0,0,0,52.581" transform="translate(-142.347 -5.713)" fill="#c7c9cf"/>
              </g>
            </g>
          </g>
          <path id="Trazado_874147" data-name="Trazado 874147" d="M164.987,56.751h44.865a26.29,26.29,0,0,0,0-52.581H164.987a26.29,26.29,0,0,0,0,52.581" transform="translate(198.061 0.903)" fill="#ee5a23"/>
          <line id="Línea_1564" data-name="Línea 1564" x1="72.653" transform="translate(348.973 20.892)" fill="none" stroke="#fff" stroke-linecap="round" stroke-miterlimit="10" stroke-width="5.873"/>
          <line id="Línea_1565" data-name="Línea 1565" x1="51.727" transform="translate(369.899 38.661)" fill="none" stroke="#fff" stroke-linecap="round" stroke-miterlimit="10" stroke-width="6.264"/>
          <path id="Trazado_874148" data-name="Trazado 874148" d="M238.908,15.558a7.157,7.157,0,1,1-7.135,7.156,7.146,7.146,0,0,1,7.135-7.156" transform="translate(74.924 3.37)" fill="#51587a"/>
          <path id="Trazado_874149" data-name="Trazado 874149" d="M288.6,21.44H244.647a7.019,7.019,0,0,0-7.009,7.029V88.783" transform="translate(25.232 4.644)" fill="none" stroke="#51587a" stroke-miterlimit="10" stroke-width="2.639"/>
          <path id="Trazado_874150" data-name="Trazado 874150" d="M280.8,70.912a7.157,7.157,0,1,1-7.135,7.156,7.146,7.146,0,0,1,7.135-7.156" transform="translate(-17.928 15.359)" fill="#51587a"/>
          <g id="Grupo_1099560" data-name="Grupo 1099560" transform="translate(135.248 410.847)" opacity="0.74" style="mix-blend-mode: multiply;isolation: isolate">
            <g id="Grupo_1099559" data-name="Grupo 1099559">
              <g id="Grupo_1099558" data-name="Grupo 1099558" clip-path="url(#clip-path-8)">
                <path id="Trazado_874151" data-name="Trazado 874151" d="M319.169,401.477h54.414a31.886,31.886,0,0,0,0-63.772H319.169a31.886,31.886,0,0,0,0,63.772" transform="translate(-287.283 -337.705)" fill="#c7c9cf"/>
              </g>
            </g>
          </g>
          <path id="Trazado_874152" data-name="Trazado 874152" d="M314.744,399.606h54.414a31.886,31.886,0,0,0,0-63.772H314.744a31.886,31.886,0,0,0,0,63.772" transform="translate(-142.227 72.737)" fill="#33bac1"/>
          <line id="Línea_1566" data-name="Línea 1566" x1="88.117" transform="translate(155.446 427.757)" fill="none" stroke="#fff" stroke-linecap="round" stroke-miterlimit="10" stroke-width="7.123"/>
          <line id="Línea_1567" data-name="Línea 1567" x1="62.737" transform="translate(180.826 449.308)" fill="none" stroke="#fff" stroke-linecap="round" stroke-miterlimit="10" stroke-width="7.597"/>
          <path id="Trazado_874153" data-name="Trazado 874153" d="M15.378,224.2H34.53a.666.666,0,0,0,.667-.668V204.31a.666.666,0,0,0-.667-.668H15.378a.665.665,0,0,0-.665.668v19.218a.665.665,0,0,0,.665.668m18.486-1.337H16.045V204.978H33.864Z" transform="translate(549.843 44.106)" fill="#d1beb4"/>
          <path id="Trazado_874154" data-name="Trazado 874154" d="M26.8,219.4a.664.664,0,0,0,.485-.21l5.237-5.585a.667.667,0,1,0-.97-.916l-4.7,5.009-8.526-11.358a.667.667,0,1,0-1.065.8l9,11.991a.663.663,0,0,0,.5.265Z" transform="translate(549.384 44.632)" fill="#d1beb4"/>
          <path id="Trazado_874155" data-name="Trazado 874155" d="M292.925,26.084A.8.8,0,0,0,293.28,26l7.61-4.017L308.5,26a.761.761,0,0,0,.8-.06.753.753,0,0,0,.3-.742l-1.45-8.506,6.155-6.025a.756.756,0,0,0-.42-1.294l-8.51-1.241L301.57.392a.786.786,0,0,0-1.36,0L296.4,8.129l-8.51,1.241a.756.756,0,0,0-.42,1.294l6.155,6.025-1.45,8.506a.753.753,0,0,0,.3.742.726.726,0,0,0,.444.146m7.965-5.722a.8.8,0,0,0-.355.086l-6.6,3.486,1.26-7.381a.749.749,0,0,0-.219-.672l-5.344-5.229,7.386-1.078a.762.762,0,0,0,.574-.415l3.3-6.717,3.3,6.717a.762.762,0,0,0,.574.415l7.386,1.078-5.344,5.229a.746.746,0,0,0-.219.672l1.26,7.381-6.6-3.486a.8.8,0,0,0-.355-.086" transform="translate(-61.052 0)" fill="#d1beb4"/>
          <path id="Trazado_874156" data-name="Trazado 874156" d="M475.854,258.69a.436.436,0,0,0,.1-.012l3.443-.827a.444.444,0,0,0,.341-.437l-.031-4a12.239,12.239,0,0,0,2.625-2.212l3.228,1.123a.454.454,0,0,0,.533-.2l1.787-3.168a.446.446,0,0,0-.079-.54l-2.635-2.548a12.976,12.976,0,0,0,.405-3.763l2.843-1.388a.443.443,0,0,0,.238-.5l-.81-3.576a.4.4,0,0,0-.438-.347l-3.452.044a12.163,12.163,0,0,0-2.253-2.894l0,0,.9-3.234a.446.446,0,0,0-.209-.509l-3.1-1.763a.444.444,0,0,0-.561.1l-2.135,2.591a11.534,11.534,0,0,0-3.492-.35l-1.743-3.153a.443.443,0,0,0-.524-.209l-3.372,1.094a.446.446,0,0,0-.307.465l.326,3.58a12.238,12.238,0,0,0-2.767,2.352l-3.341-1.064a.449.449,0,0,0-.524.21l-1.743,3.2a.45.45,0,0,0,.09.544l2.742,2.518a13.08,13.08,0,0,0-.366,3.4l-3.068,1.759a.446.446,0,0,0-.207.509l.993,3.524a.424.424,0,0,0,.462.322l3.4-.271a12.176,12.176,0,0,0,2.172,2.866l-1.086,3.3a.446.446,0,0,0,.189.518l3.033,1.882a.45.45,0,0,0,.562-.079l2.459-2.7a11.331,11.331,0,0,0,3.537.373l1.436,3.215a.443.443,0,0,0,.4.263m3-1.624-2.741.659-1.411-3.16a.425.425,0,0,0-.439-.26,10.912,10.912,0,0,1-3.8-.4.438.438,0,0,0-.451.128l-2.394,2.633-2.422-1.5,1.067-3.24a.448.448,0,0,0-.125-.472,11.239,11.239,0,0,1-2.335-3.073.413.413,0,0,0-.428-.237l-3.326.266-.8-2.837,3-1.719a.446.446,0,0,0,.223-.408,12.2,12.2,0,0,1,.4-3.664.444.444,0,0,0-.129-.442l-2.682-2.464,1.4-2.567,3.284,1.045a.444.444,0,0,0,.475-.139l.169-.213a11.341,11.341,0,0,1,2.793-2.321.446.446,0,0,0,.217-.425l-.319-3.5,2.687-.872,1.7,3.08a.437.437,0,0,0,.422.229,10.755,10.755,0,0,1,3.75.376.433.433,0,0,0,.463-.145l2.079-2.523,2.473,1.406-.882,3.17a.45.45,0,0,0,.131.453l.2.169a11.312,11.312,0,0,1,2.209,2.9.443.443,0,0,0,.391.236h0l3.359-.043.652,2.88-2.79,1.36a.443.443,0,0,0-.248.428,12.111,12.111,0,0,1-.429,4.024.446.446,0,0,0,.12.44l2.576,2.493-1.436,2.543-3.166-1.1a.446.446,0,0,0-.487.134l.266.383-.338-.291a11.348,11.348,0,0,1-2.743,2.3.448.448,0,0,0-.218.386Zm-5.471-5.572a8.476,8.476,0,0,0,6.371-2.944,9.033,9.033,0,0,0-.487-12.4,8.131,8.131,0,0,0-5.59-2.226,8.476,8.476,0,0,0-6.371,2.944,9.035,9.035,0,0,0,.488,12.4,8.122,8.122,0,0,0,5.589,2.226m.294-16.679a7.243,7.243,0,0,1,4.982,1.985,8.129,8.129,0,0,1,.427,11.161,7.587,7.587,0,0,1-5.7,2.642,7.246,7.246,0,0,1-4.982-1.987,8.133,8.133,0,0,1-.427-11.162,7.6,7.6,0,0,1,5.7-2.64" transform="translate(-443.261 49.144)" fill="#d1beb4"/>
          <path id="Trazado_874157" data-name="Trazado 874157" d="M266.261,349.815a17.875,17.875,0,0,0,0-35.751,17.589,17.589,0,0,0-6.613,1.288.306.306,0,0,0-.168.4l6.346,15.919-17.03,1.314a.309.309,0,0,0-.28.328,17.9,17.9,0,0,0,17.745,16.5m0-35.142a17.267,17.267,0,1,1-17.115,18.895l17.138-1.324a.321.321,0,0,0,.235-.142.316.316,0,0,0,.024-.276l-6.387-16.019a16.953,16.953,0,0,1,6.1-1.134" transform="translate(16.526 68.022)" fill="#d1beb4"/>
          <path id="Trazado_874158" data-name="Trazado 874158" d="M268.375,329.9h.023l17.442-1.347a.318.318,0,0,0,.234-.144.313.313,0,0,0,.024-.275l-6.5-16.3a.312.312,0,0,0-.163-.167.319.319,0,0,0-.232,0A17.791,17.791,0,0,0,268,328.254c0,.47.033.926.066,1.371a.305.305,0,0,0,.107.206.292.292,0,0,0,.2.074m17.005-1.922-16.727,1.292c-.023-.337-.043-.676-.043-1.021a17.187,17.187,0,0,1,10.537-15.908Z" transform="translate(-9.23 67.498)" fill="#d1beb4"/>
          <path id="Trazado_874159" data-name="Trazado 874159" d="M265.816,341.368a.3.3,0,0,0,.163-.561l-14.413-9.281,7.276-15.637a.3.3,0,1,0-.549-.257l-7.388,15.878a.3.3,0,0,0,.112.384l14.635,9.426a.313.313,0,0,0,.163.047" transform="translate(31.606 68.323)" fill="#d1beb4"/>
          <line id="Línea_1568" data-name="Línea 1568" x1="79.943" transform="translate(275.607 512.252)" fill="none" stroke="#313440" stroke-linecap="round" stroke-miterlimit="10" stroke-width="4.961"/>
          <line id="Línea_1569" data-name="Línea 1569" x1="231.714" transform="translate(368.207 512.252)" fill="none" stroke="#313440" stroke-linecap="round" stroke-miterlimit="10" stroke-width="4.961"/>
          <line id="Línea_1570" data-name="Línea 1570" x1="238.614" y2="0.534" transform="translate(3.018 512.252)" fill="none" stroke="#313440" stroke-linecap="round" stroke-miterlimit="10" stroke-width="4.961"/>
        </g>
      </g>
    </g>
  </g>
</svg>
