<svg xmlns="http://www.w3.org/2000/svg" width="67" height="59.183" viewBox="0 0 67 59.183">
  <g id="Grupo_1100013" data-name="Grupo 1100013" transform="translate(-180 -7142.064)">
    <g id="Grupo_1099602" data-name="Grupo 1099602" transform="translate(0 3391.912)">
      <path id="_12068" data-name="12068" d="M66.039,71.828c-6.861-.947-14.108-.716-20.351,2.283C37.03,78.27,31.344,87.7,31.126,97.3s4.784,19.038,12.512,24.741a35.81,35.81,0,0,0,27.37,6.013c9.53-1.727,18.474-7.326,23.445-15.638,3.187-5.33,4.677-11.911,2.916-17.867a24.409,24.409,0,0,0-5.793-9.521A42.8,42.8,0,0,0,66.039,71.828Z" transform="translate(148.881 3680.691)" fill="#26aab7"/>
      <path id="Trazado_873155" data-name="Trazado 873155" d="M303.26,44.546a1.582,1.582,0,1,0-.106-2.456A1.573,1.573,0,0,0,303.26,44.546Z" transform="translate(138.287 4055.916) rotate(-90)" fill="#7d6eb2"/>
      <path id="Trazado_873156" data-name="Trazado 873156" d="M321.56,66.974a3.448,3.448,0,1,0-1.687-4.918A3.468,3.468,0,0,0,321.56,66.974Z" transform="translate(128.241 4079.581) rotate(-90)" fill="#ffd947"/>
      <circle id="Elipse_11521" data-name="Elipse 11521" cx="3.689" cy="3.689" r="3.689" transform="translate(237.702 3796.368) rotate(-90)" fill="none" stroke="#fff" stroke-linecap="round" stroke-linejoin="round" stroke-width="1.5"/>
    </g>
    <g id="hablar" transform="translate(192.579 7148.852)">
      <path id="Trazado_874629" data-name="Trazado 874629" d="M89.4,27.961h3.739v-1.2A5.285,5.285,0,0,1,90.7,22.318V20.245a.519.519,0,0,1,.339-.487,16.7,16.7,0,0,0,6.345-4.519.52.52,0,0,1,.764-.019,6.606,6.606,0,0,0,3.212,1.876.519.519,0,0,1,.368.5v.57a2.764,2.764,0,0,1,2.345.862V15.833a7.86,7.86,0,1,0-15.72,0V26.919A1.042,1.042,0,0,0,89.4,27.961Zm0,0" transform="translate(-80.053 -7.265)" fill="#576574"/>
      <path id="Trazado_874630" data-name="Trazado 874630" d="M91.02,26.922V24.136a5.224,5.224,0,0,1-.319-1.814V20.249a.519.519,0,0,1,.319-.478V15.837a7.862,7.862,0,0,1,6.528-7.747,7.865,7.865,0,0,0-9.192,7.747V26.922A1.042,1.042,0,0,0,89.4,27.965h2.664A1.042,1.042,0,0,1,91.02,26.922Zm0,0" transform="translate(-80.053 -7.268)" fill="#3e4b5a"/>
      <path id="Trazado_874631" data-name="Trazado 874631" d="M214.734,162.154a5.918,5.918,0,0,1-2.422,4.628v1.035h3.729a1.042,1.042,0,0,0,1.042-1.042v-5.315A2.678,2.678,0,0,1,214.734,162.154Zm0,0" transform="translate(-193.001 -147.121)" fill="#576574"/>
      <path id="Trazado_874632" data-name="Trazado 874632" d="M120.863,220.294a5.686,5.686,0,0,0,8.362,0l.886-.942-1.249-.484a.774.774,0,0,1-.495-.723v-2.781a5.57,5.57,0,0,1-3.163.982,5.857,5.857,0,0,1-3.341-1v2.767a.815.815,0,0,1-.521.76l-1.327.514Zm0,0" transform="translate(-108.901 -196.225)" fill="#ffbeab"/>
      <path id="Trazado_874633" data-name="Trazado 874633" d="M124.531,216.312a5.747,5.747,0,0,1-2.667-.961v2.767a.816.816,0,0,1-.521.76l-1.327.514.848.9a5.737,5.737,0,0,0,3.667,1.808Zm0,0" transform="translate(-108.901 -196.225)" fill="#f7af9f"/>
      <path id="Trazado_874634" data-name="Trazado 874634" d="M37,272.6a2.33,2.33,0,0,0-1.075.024l-4.409,1.128a.286.286,0,0,1-.31-.433l.547-.837a2.368,2.368,0,0,0-.28-2.95,11.015,11.015,0,0,1-2.965-9.528l-.382-.148-.9.956a5.5,5.5,0,0,1-8.081,0l-.863-.917-6.874,2.665A5.452,5.452,0,0,0,8.227,267.5v12.679a1.45,1.45,0,0,0,1.45,1.45H36.842a1.45,1.45,0,0,0,1.45-1.45V272.8A10.956,10.956,0,0,1,37,272.6Zm0,0" transform="translate(-7.04 -236.78)" fill="#7d6eb2"/>
      <path id="Trazado_874635" data-name="Trazado 874635" d="M10.895,302.965V288.858a5.227,5.227,0,0,1,1.764-3.991l-1.247.484a5.452,5.452,0,0,0-3.182,4.936v12.679a1.45,1.45,0,0,0,1.45,1.45h2.664A1.45,1.45,0,0,1,10.895,302.965Zm0,0" transform="translate(-7.044 -259.567)" fill="#62529b"/>
      <path id="Trazado_874636" data-name="Trazado 874636" d="M251.141,159.753a11.084,11.084,0,0,0-14.123,16.933,2.293,2.293,0,0,1,.269,2.839l-.547.837a.375.375,0,0,0,.406.568l4.409-1.129a2.258,2.258,0,0,1,1.034-.023,11.084,11.084,0,0,0,8.551-20.025Zm0,0" transform="translate(-212.647 -143.869)" fill="#f5ca56"/>
      <path id="Trazado_874637" data-name="Trazado 874637" d="M239.951,179.529a2.293,2.293,0,0,0-.269-2.839,11.053,11.053,0,0,1,6.653-18.714,11.069,11.069,0,0,0-9.317,18.714,2.293,2.293,0,0,1,.269,2.839l-.547.837a.375.375,0,0,0,.406.568l2.266-.58Zm0,0" transform="translate(-212.647 -143.873)" fill="#deac2f"/>
      <path id="Trazado_874638" data-name="Trazado 874638" d="M240.762,121.7v4.252c0,.051,0,.1,0,.152a2.268,2.268,0,1,0,0-4.4Zm0,0" transform="translate(-218.92 -110.856)" fill="#ffbeab"/>
      <path id="Trazado_874639" data-name="Trazado 874639" d="M242.946,122.368a2.409,2.409,0,0,0-2.185-.664v4.252c0,.051,0,.1,0,.152a2.409,2.409,0,0,0,2.188-.664Zm0,0" transform="translate(-218.92 -110.856)" fill="#f7af9f"/>
      <path id="Trazado_874640" data-name="Trazado 874640" d="M124.548,87.244a8.063,8.063,0,0,1-3.38-2.128.52.52,0,0,0-.764.019,17.611,17.611,0,0,1-6.513,4.771.52.52,0,0,0-.34.487v2.073a5.683,5.683,0,0,0,11.365,0V87.741A.519.519,0,0,0,124.548,87.244Zm0,0" transform="translate(-103.01 -77.413)" fill="#ffcdbf"/>
      <path id="Trazado_874641" data-name="Trazado 874641" d="M116.216,131.326v-3.72a12.727,12.727,0,0,1-2.325,1.16.52.52,0,0,0-.34.487v2.073a5.744,5.744,0,0,0,7.05,5.451A5.567,5.567,0,0,1,116.216,131.326Zm0,0" transform="translate(-103.01 -116.272)" fill="#ffbeab"/>
      <g id="Grupo_1099674" data-name="Grupo 1099674" transform="translate(0.5)">
        <path id="Trazado_874642" data-name="Trazado 874642" d="M306.826,243.512h-9.691a.666.666,0,0,0,0,1.332h9.691a.666.666,0,1,0,0-1.332Zm0,0" transform="translate(-270.183 -221.885)" fill="#00223d"/>
        <path id="Trazado_874643" data-name="Trazado 874643" d="M306.826,277.16h-9.691a.666.666,0,1,0,0,1.332h9.691a.666.666,0,1,0,0-1.332Zm0,0" transform="translate(-270.183 -252.545)" fill="#00223d"/>
        <path id="Trazado_874644" data-name="Trazado 874644" d="M306.826,310.809h-9.691a.666.666,0,0,0,0,1.332h9.691a.666.666,0,1,0,0-1.332Zm0,0" transform="translate(-270.183 -283.204)" fill="#00223d"/>
        <path id="Trazado_874645" data-name="Trazado 874645" d="M42.539,23.792a.666.666,0,0,0,1.322-.161,11.7,11.7,0,0,0-19.133-7.465V14.7a2.819,2.819,0,0,0,0-3.394V8.526a8.526,8.526,0,1,0-17.052,0V19.612A1.71,1.71,0,0,0,9.384,21.32h2.892v.531a.15.15,0,0,1-.1.139L4.107,25.12l-.012.005-.009,0A6.076,6.076,0,0,0,.5,30.677V43.356a2.119,2.119,0,0,0,2.116,2.117H14.645a.666.666,0,0,0,0-1.332h-7.4V31.924a.666.666,0,0,0-1.333,0V44.14h-3.3a.785.785,0,0,1-.784-.784V30.677a4.669,4.669,0,0,1,.506-2.167A4.932,4.932,0,0,1,4.6,26.36l6.448-2.5.555.59a6.156,6.156,0,0,0,9.04.011,11.7,11.7,0,0,0,3.28,8.7l.017.017a1.691,1.691,0,0,1,.476,1.163c.008.639-.252.917-.824,1.793a.952.952,0,0,0,1.033,1.443l.528-.135v6.7h-7.4a.666.666,0,0,0,0,1.332H29.781A2.119,2.119,0,0,0,31.9,43.356V36.693a11.667,11.667,0,0,0,11.9-9.765.666.666,0,1,0-1.315-.215,10.359,10.359,0,0,1-12.4,8.417,3.01,3.01,0,0,0-1.382.029l-3.461.886.011-.018a3.054,3.054,0,0,0-.361-3.779,10.32,10.32,0,1,1,17.649-8.455ZM26.482,37.1c3.593-.92,2.552-.758,4.083-.531v6.785a.785.785,0,0,1-.784.784h-3.3ZM12.276,19.988H9.384a.376.376,0,0,1-.376-.376V8.526a7.194,7.194,0,1,1,14.387,0v1.8a3.163,3.163,0,0,0-.852-.176,1.18,1.18,0,0,0-.826-1l-.008,0a7.387,7.387,0,0,1-3.1-1.954,1.185,1.185,0,0,0-1.742.044,16.935,16.935,0,0,1-6.244,4.585,1.191,1.191,0,0,0-.775,1.112v2.073a6.238,6.238,0,0,0,2.422,4.945Zm8.943-9.594v4.618a5.017,5.017,0,0,1-10.033,0V13.04a17.939,17.939,0,0,0,6.583-4.8A8.838,8.838,0,0,0,21.219,10.394ZM19.681,23.537A4.848,4.848,0,0,1,16.126,25.1a4.91,4.91,0,0,1-3.741-1.758l.277-.108a1.491,1.491,0,0,0,.946-1.381V20.74a6.852,6.852,0,0,0,2.675.539,6.327,6.327,0,0,0,2.5-.519v1.119a1.45,1.45,0,0,0,.92,1.344l.2.078Zm1.279-1.255c-.824-.319-.847-.3-.847-.4V21.32h1.125Q21.078,21.795,20.959,22.282ZM23.4,17.495a11.814,11.814,0,0,0-1.619,2.493H20.113V19.97a6.276,6.276,0,0,0,2.379-4.105,3.134,3.134,0,0,0,.9-.179v1.809Zm-.845-2.971v-3.03A1.519,1.519,0,0,1,22.551,14.523Zm0,0" transform="translate(-0.5)" fill="#00223d"/>
      </g>
    </g>
  </g>
</svg>
