<svg xmlns="http://www.w3.org/2000/svg" width="151.991" height="168.529" viewBox="0 0 151.991 168.529">
  <g id="Grupo_1099382" data-name="Grupo 1099382" transform="translate(-307.493 -2328)">
    <path id="_12068" data-name="12068" d="M103.949,72.366C89.64,70.39,74.525,70.874,61.5,77.128,43.447,85.8,31.588,105.464,31.133,125.491s9.978,39.705,26.1,51.6S94.6,193.2,114.312,189.632c19.875-3.6,38.53-15.279,48.9-32.614,6.648-11.116,9.755-24.842,6.082-37.264-2.217-7.5-6.75-14.14-12.082-19.858A89.263,89.263,0,0,0,103.949,72.366Z" transform="translate(281.007 2305.667)" fill="#26aab7"/>
    <g id="Grupo_1099024" data-name="Grupo 1099024" transform="translate(256.629 2624.56) rotate(-90)">
      <path id="Trazado_873104" data-name="Trazado 873104" d="M149.557,395.548a1.582,1.582,0,1,0-.106-2.456A1.573,1.573,0,0,0,149.557,395.548Z" transform="translate(13.93 -213.31)" fill="#fff"/>
      <path id="Trazado_873105" data-name="Trazado 873105" d="M417.219,416a1.582,1.582,0,1,0-.105-2.456A1.573,1.573,0,0,0,417.219,416Z" transform="translate(-222.435 -227.035)" fill="#ffd947"/>
      <path id="Trazado_873106" data-name="Trazado 873106" d="M303.26,44.546a1.582,1.582,0,1,0-.106-2.456A1.573,1.573,0,0,0,303.26,44.546Z" transform="translate(-52.901 9.151)" fill="#7d6eb2"/>
      <path id="Trazado_873109" data-name="Trazado 873109" d="M339.452,404.413a3.448,3.448,0,1,0-1.687-4.918A3.468,3.468,0,0,0,339.452,404.413Z" transform="translate(-106.207 -220.255)" fill="#7d6eb2"/>
      <path id="Trazado_873110" data-name="Trazado 873110" d="M390.262,440.006a3.448,3.448,0,1,0-1.687-4.918A3.468,3.468,0,0,0,390.262,440.006Z" transform="translate(-181.42 -237.38)" fill="#ffd947"/>
      <path id="Trazado_873111" data-name="Trazado 873111" d="M176.115,56.142a3.448,3.448,0,1,0-1.687-4.918A3.468,3.468,0,0,0,176.115,56.142Z" transform="translate(-32.569 42.202)" fill="#ffd947"/>
      <path id="Trazado_873113" data-name="Trazado 873113" d="M321.56,66.974a3.448,3.448,0,1,0-1.687-4.918A3.468,3.468,0,0,0,321.56,66.974Z" transform="translate(-76.565 -0.895)" fill="#ffd947"/>
      <circle id="Elipse_11485" data-name="Elipse 11485" cx="1.689" cy="1.689" r="1.689" transform="translate(149.167 187.566)" fill="none" stroke="#26aab7" stroke-linecap="round" stroke-linejoin="round" stroke-width="1.5"/>
    </g>
    <g id="cuantitativo" transform="translate(254.978 2318)">
      <g id="Grupo_1099413" data-name="Grupo 1099413" transform="translate(72 10)">
        <path id="Trazado_873649" data-name="Trazado 873649" d="M72,10h93.7V153.5H72Z" transform="translate(-72 -10)" fill="#e6eaff"/>
      </g>
      <g id="Grupo_1099418" data-name="Grupo 1099418" transform="translate(81.917 28.375)">
        <g id="Grupo_1099414" data-name="Grupo 1099414" transform="translate(22.167 6.492)">
          <path id="Trazado_873650" data-name="Trazado 873650" d="M197.674,126.608a22.166,22.166,0,0,0,0-31.348L182,110.934Z" transform="translate(-182 -95.26)" fill="#aee6e6"/>
        </g>
        <g id="Grupo_1099415" data-name="Grupo 1099415" transform="translate(0 22.167)">
          <path id="Trazado_873651" data-name="Trazado 873651" d="M143.841,164.674,128.167,149H106a22.167,22.167,0,0,0,37.841,15.674Z" transform="translate(-106 -149)" fill="#80d6fb"/>
        </g>
        <g id="Grupo_1099416" data-name="Grupo 1099416" transform="translate(0 0)">
          <path id="Trazado_873652" data-name="Trazado 873652" d="M106,95.167h22.167V73A22.166,22.166,0,0,0,106,95.167Z" transform="translate(-106 -73)" fill="#ffd947"/>
        </g>
        <g id="Grupo_1099417" data-name="Grupo 1099417" transform="translate(22.167)">
          <path id="Trazado_873653" data-name="Trazado 873653" d="M182,73V95.167l15.674-15.674A22.1,22.1,0,0,0,182,73Z" transform="translate(-182 -73)" fill="#59836b"/>
        </g>
      </g>
      <g id="Grupo_1099425" data-name="Grupo 1099425" transform="translate(81.917 82.625)">
        <g id="Grupo_1099423" data-name="Grupo 1099423" transform="translate(5.833)">
          <g id="Grupo_1099419" data-name="Grupo 1099419" transform="translate(0 29.167)">
            <path id="Trazado_873654" data-name="Trazado 873654" d="M126,359h14.583v23.333H126Z" transform="translate(-126 -359)" fill="#aee6e6"/>
          </g>
          <g id="Grupo_1099420" data-name="Grupo 1099420" transform="translate(20.417 11.667)">
            <path id="Trazado_873655" data-name="Trazado 873655" d="M196,299h14.583v40.833H196Z" transform="translate(-196 -299)" fill="#ffd947"/>
          </g>
          <g id="Grupo_1099421" data-name="Grupo 1099421" transform="translate(40.833 23.333)">
            <path id="Trazado_873656" data-name="Trazado 873656" d="M266,339h14.583v29.167H266Z" transform="translate(-266 -339)" fill="#80d6fb"/>
          </g>
          <g id="Grupo_1099422" data-name="Grupo 1099422" transform="translate(61.25)">
            <path id="Trazado_873657" data-name="Trazado 873657" d="M336,259h14.583v52.5H336Z" transform="translate(-336 -259)" fill="#59836b"/>
          </g>
        </g>
        <g id="Grupo_1099424" data-name="Grupo 1099424" transform="translate(0 52.5)">
          <path id="Trazado_873658" data-name="Trazado 873658" d="M106,439h87.5v5.833H106Z" transform="translate(-106 -439)" fill="#62529b"/>
        </g>
      </g>
      <g id="Grupo_1099431" data-name="Grupo 1099431" transform="translate(118.709 88.45)">
        <g id="Grupo_1099426" data-name="Grupo 1099426" transform="translate(41.419 41.426)">
          <path id="Trazado_873659" data-name="Trazado 873659" d="M0,0H8.249V4.95H0Z" transform="translate(0 5.832) rotate(-45)" fill="#466089"/>
        </g>
        <g id="Grupo_1099427" data-name="Grupo 1099427" transform="translate(43.779 43.758)">
          <path id="Trazado_873660" data-name="Trazado 873660" d="M437.167,429,429,437.167l13.125,13.125h8.167v-8.167Z" transform="translate(-429 -429)" fill="#7d6eb2"/>
        </g>
        <g id="Grupo_1099430" data-name="Grupo 1099430" transform="translate(0 0)">
          <g id="Grupo_1099428" data-name="Grupo 1099428">
            <circle id="Elipse_11732" data-name="Elipse 11732" cx="26.15" cy="26.15" r="26.15" fill="#7d6eb2"/>
          </g>
          <g id="Grupo_1099429" data-name="Grupo 1099429" transform="translate(6.035 6.035)">
            <circle id="Elipse_11733" data-name="Elipse 11733" cx="20.451" cy="20.451" r="20.451" transform="translate(0 0)" fill="#80d6fb"/>
          </g>
        </g>
      </g>
      <g id="Grupo_1099440" data-name="Grupo 1099440" transform="translate(130.9 28.375)">
        <g id="Grupo_1099433" data-name="Grupo 1099433" transform="translate(0)">
          <g id="Grupo_1099432" data-name="Grupo 1099432">
            <path id="Trazado_873661" data-name="Trazado 873661" d="M308,73h30.917v5.833H308Z" transform="translate(-308 -73)" fill="#7d6eb2"/>
          </g>
        </g>
        <g id="Grupo_1099435" data-name="Grupo 1099435" transform="translate(0 12.833)">
          <g id="Grupo_1099434" data-name="Grupo 1099434">
            <path id="Trazado_873662" data-name="Trazado 873662" d="M308,117h30.917v5.833H308Z" transform="translate(-308 -117)" fill="#7d6eb2"/>
          </g>
        </g>
        <g id="Grupo_1099437" data-name="Grupo 1099437" transform="translate(0 25.667)">
          <g id="Grupo_1099436" data-name="Grupo 1099436">
            <path id="Trazado_873663" data-name="Trazado 873663" d="M308,161h30.917v5.833H308Z" transform="translate(-308 -161)" fill="#7d6eb2"/>
          </g>
        </g>
        <g id="Grupo_1099439" data-name="Grupo 1099439" transform="translate(0 38.5)">
          <g id="Grupo_1099438" data-name="Grupo 1099438">
            <path id="Trazado_873664" data-name="Trazado 873664" d="M308,205h30.917v5.833H308Z" transform="translate(-308 -205)" fill="#7d6eb2"/>
          </g>
        </g>
      </g>
    </g>
  </g>
</svg>
