<svg xmlns="http://www.w3.org/2000/svg" width="497" height="495.37" viewBox="0 0 497 495.37">
  <g id="Grupo_1100020" data-name="Grupo 1100020" transform="translate(-556 -1488.343)">
    <path id="Trazado_875411" data-name="Trazado 875411" d="M10,0H171.831a10,10,0,0,1,10,10V171.831a10,10,0,0,1-10,10H10a10,10,0,0,1-10-10V10A10,10,0,0,1,10,0Z" transform="translate(871.169 1601.942)" fill="#e94e1b"/>
    <path id="Trazado_875898" data-name="Trazado 875898" d="M10,0H171.831a10,10,0,0,1,10,10V171.831a10,10,0,0,1-10,10H10a10,10,0,0,1-10-10V10A10,10,0,0,1,10,0Z" transform="translate(669.849 1601.942)" fill="#62529b"/>
    <path id="Trazado_875896" data-name="Trazado 875896" d="M10,0H171.831a10,10,0,0,1,10,10V171.831a10,10,0,0,1-10,10H10a10,10,0,0,1-10-10V10A10,10,0,0,1,10,0Z" transform="translate(669.849 1801.882)" fill="#59836b"/>
    <path id="Trazado_875894" data-name="Trazado 875894" d="M10,0H171.831a10,10,0,0,1,10,10V171.831a10,10,0,0,1-10,10H10a10,10,0,0,1-10-10V10A10,10,0,0,1,10,0Z" transform="translate(871.169 1801.882)" fill="#ffd947"/>
    <path id="Trazado_875901" data-name="Trazado 875901" d="M-66.206-5.01V0h-2.93V-14.219h5.547a6.417,6.417,0,0,1,2.817.586,4.318,4.318,0,0,1,1.87,1.665,4.643,4.643,0,0,1,.654,2.456,4.083,4.083,0,0,1-1.431,3.3,5.959,5.959,0,0,1-3.96,1.206Zm0-2.373h2.617a2.573,2.573,0,0,0,1.772-.547,1.989,1.989,0,0,0,.61-1.562,2.345,2.345,0,0,0-.615-1.689,2.3,2.3,0,0,0-1.7-.664h-2.686ZM-51.558.2A5.187,5.187,0,0,1-55.342-1.23a5.068,5.068,0,0,1-1.46-3.8V-5.3a6.383,6.383,0,0,1,.615-2.847,4.515,4.515,0,0,1,1.743-1.934,4.893,4.893,0,0,1,2.573-.679,4.385,4.385,0,0,1,3.413,1.367,5.555,5.555,0,0,1,1.245,3.877v1.152H-53.94a2.622,2.622,0,0,0,.825,1.66,2.5,2.5,0,0,0,1.743.625,3.046,3.046,0,0,0,2.549-1.182l1.387,1.553a4.237,4.237,0,0,1-1.719,1.4A5.639,5.639,0,0,1-51.558.2Zm-.322-8.672a1.767,1.767,0,0,0-1.362.566,2.926,2.926,0,0,0-.669,1.621h3.926v-.225a2.086,2.086,0,0,0-.508-1.45A1.824,1.824,0,0,0-51.88-8.477Zm8.867-2.09.088,1.221a3.689,3.689,0,0,1,3.037-1.416,3.066,3.066,0,0,1,2.5.986,4.6,4.6,0,0,1,.84,2.949V0H-39.37V-6.758a1.831,1.831,0,0,0-.391-1.3,1.749,1.749,0,0,0-1.3-.405,1.942,1.942,0,0,0-1.787,1.016V0h-2.822V-10.566ZM-29.546.2A5.187,5.187,0,0,1-33.33-1.23a5.068,5.068,0,0,1-1.46-3.8V-5.3a6.383,6.383,0,0,1,.615-2.847,4.515,4.515,0,0,1,1.743-1.934,4.893,4.893,0,0,1,2.573-.679,4.385,4.385,0,0,1,3.413,1.367A5.555,5.555,0,0,1-25.2-5.518v1.152h-6.729a2.622,2.622,0,0,0,.825,1.66,2.5,2.5,0,0,0,1.743.625,3.046,3.046,0,0,0,2.549-1.182l1.387,1.553a4.237,4.237,0,0,1-1.719,1.4A5.639,5.639,0,0,1-29.546.2Zm-.322-8.672a1.767,1.767,0,0,0-1.362.566A2.926,2.926,0,0,0-31.9-6.289h3.926v-.225a2.086,2.086,0,0,0-.508-1.45A1.824,1.824,0,0,0-29.868-8.477Zm9.648-4.687v2.6h1.807V-8.5H-20.22v5.273a1.259,1.259,0,0,0,.225.84,1.128,1.128,0,0,0,.859.254,4.5,4.5,0,0,0,.83-.068V-.059A5.81,5.81,0,0,1-20.015.2q-2.969,0-3.027-3V-8.5h-1.543v-2.07h1.543v-2.6ZM-10.9-7.92A7.667,7.667,0,0,0-11.919-8a2.067,2.067,0,0,0-2.1,1.084V0h-2.822V-10.566h2.666l.078,1.26a2.615,2.615,0,0,1,2.354-1.455,2.957,2.957,0,0,1,.879.127ZM-3.716,0A3.134,3.134,0,0,1-4-.947,3.415,3.415,0,0,1-6.665.2,3.752,3.752,0,0,1-9.238-.7a2.89,2.89,0,0,1-1.021-2.266A2.986,2.986,0,0,1-9.014-5.547a6.144,6.144,0,0,1,3.6-.908h1.3v-.605a1.741,1.741,0,0,0-.376-1.172,1.479,1.479,0,0,0-1.187-.439A1.682,1.682,0,0,0-6.8-8.33a1.161,1.161,0,0,0-.405.938h-2.822a2.835,2.835,0,0,1,.566-1.7,3.744,3.744,0,0,1,1.6-1.226,5.837,5.837,0,0,1,2.324-.444,4.611,4.611,0,0,1,3.1.981A3.433,3.433,0,0,1-1.284-7.021v4.58A5.052,5.052,0,0,0-.864-.166V0ZM-6.05-1.963A2.431,2.431,0,0,0-4.9-2.241a1.828,1.828,0,0,0,.781-.747V-4.8H-5.171Q-7.29-4.8-7.427-3.34l-.01.166a1.13,1.13,0,0,0,.371.869A1.441,1.441,0,0,0-6.05-1.963ZM5.278-2.08a1.851,1.851,0,0,0,1.27-.43,1.506,1.506,0,0,0,.508-1.143H9.7a3.62,3.62,0,0,1-.586,1.968A3.866,3.866,0,0,1,7.539-.3,4.936,4.936,0,0,1,5.327.2a4.587,4.587,0,0,1-3.574-1.44A5.7,5.7,0,0,1,.444-5.225V-5.41a5.635,5.635,0,0,1,1.3-3.9,4.534,4.534,0,0,1,3.564-1.455A4.444,4.444,0,0,1,8.486-9.634a3.994,3.994,0,0,1,1.216,3H7.056a1.923,1.923,0,0,0-.508-1.333,1.7,1.7,0,0,0-1.289-.513,1.7,1.7,0,0,0-1.489.718,4.155,4.155,0,0,0-.5,2.329v.293a4.207,4.207,0,0,0,.5,2.344A1.722,1.722,0,0,0,5.278-2.08ZM14.292,0H11.46V-10.566h2.832Zm-3-13.3a1.39,1.39,0,0,1,.425-1.045,1.6,1.6,0,0,1,1.157-.41,1.6,1.6,0,0,1,1.152.41,1.382,1.382,0,0,1,.43,1.045,1.386,1.386,0,0,1-.435,1.055,1.6,1.6,0,0,1-1.147.41,1.6,1.6,0,0,1-1.147-.41A1.386,1.386,0,0,1,11.294-13.3Zm4.883,7.92a6.266,6.266,0,0,1,.605-2.8,4.432,4.432,0,0,1,1.743-1.9,5.086,5.086,0,0,1,2.642-.674,4.812,4.812,0,0,1,3.491,1.309A5.252,5.252,0,0,1,26.167-5.9l.02.723a5.523,5.523,0,0,1-1.357,3.9A4.718,4.718,0,0,1,21.187.2,4.742,4.742,0,0,1,17.539-1.27a5.62,5.62,0,0,1-1.362-3.984ZM19-5.176a3.939,3.939,0,0,0,.566,2.3,1.869,1.869,0,0,0,1.621.8,1.874,1.874,0,0,0,1.6-.786,4.31,4.31,0,0,0,.576-2.515,3.9,3.9,0,0,0-.576-2.285,1.874,1.874,0,0,0-1.621-.811,1.843,1.843,0,0,0-1.6.806A4.383,4.383,0,0,0,19-5.176ZM21.724-15H24.8l-2.705,3.027H19.8Zm8.8,4.434.088,1.221a3.689,3.689,0,0,1,3.037-1.416,3.066,3.066,0,0,1,2.5.986,4.6,4.6,0,0,1,.84,2.949V0H34.165V-6.758a1.831,1.831,0,0,0-.391-1.3,1.749,1.749,0,0,0-1.3-.405,1.942,1.942,0,0,0-1.787,1.016V0H27.866V-10.566ZM43.667-5.361A6.368,6.368,0,0,1,44.775-9.3a3.6,3.6,0,0,1,3.032-1.465,3.236,3.236,0,0,1,2.549,1.152V-15h2.832V0H50.64L50.5-1.123A3.321,3.321,0,0,1,47.788.2a3.587,3.587,0,0,1-2.993-1.47A6.573,6.573,0,0,1,43.667-5.361Zm2.822.205a4.16,4.16,0,0,0,.518,2.275,1.687,1.687,0,0,0,1.5.791,1.889,1.889,0,0,0,1.846-1.1v-4.17a1.862,1.862,0,0,0-1.826-1.1Q46.489-8.467,46.489-5.156ZM60.239.2A5.187,5.187,0,0,1,56.455-1.23,5.068,5.068,0,0,1,55-5.029V-5.3a6.383,6.383,0,0,1,.615-2.847,4.515,4.515,0,0,1,1.743-1.934,4.893,4.893,0,0,1,2.573-.679A4.385,4.385,0,0,1,63.34-9.395a5.555,5.555,0,0,1,1.245,3.877v1.152H57.856a2.622,2.622,0,0,0,.825,1.66,2.5,2.5,0,0,0,1.743.625,3.046,3.046,0,0,0,2.549-1.182L64.36-1.709a4.237,4.237,0,0,1-1.719,1.4A5.639,5.639,0,0,1,60.239.2Zm-.322-8.672a1.767,1.767,0,0,0-1.362.566,2.926,2.926,0,0,0-.669,1.621h3.926v-.225a2.086,2.086,0,0,0-.508-1.45A1.824,1.824,0,0,0,59.917-8.477ZM69.165,0H66.333V-15h2.832ZM-35.752,6.434l.088,1.182a3.713,3.713,0,0,1,3.037-1.377,2.818,2.818,0,0,1,2.8,1.611A3.628,3.628,0,0,1-26.65,6.238a3.152,3.152,0,0,1,2.559,1,4.6,4.6,0,0,1,.84,3.013V17h-2.832V10.262a2.012,2.012,0,0,0-.352-1.313,1.558,1.558,0,0,0-1.24-.415,1.761,1.761,0,0,0-1.758,1.211l.01,7.256h-2.822V10.271a1.988,1.988,0,0,0-.361-1.328,1.573,1.573,0,0,0-1.23-.41,1.829,1.829,0,0,0-1.738,1V17H-38.4V6.434ZM-16.221,17.2A5.187,5.187,0,0,1-20,15.77a5.068,5.068,0,0,1-1.46-3.8V11.7a6.383,6.383,0,0,1,.615-2.847,4.515,4.515,0,0,1,1.743-1.934,4.893,4.893,0,0,1,2.573-.679A4.385,4.385,0,0,1-13.12,7.605a5.555,5.555,0,0,1,1.245,3.877v1.152H-18.6a2.622,2.622,0,0,0,.825,1.66,2.5,2.5,0,0,0,1.743.625,3.046,3.046,0,0,0,2.549-1.182l1.387,1.553a4.237,4.237,0,0,1-1.719,1.4A5.639,5.639,0,0,1-16.221,17.2Zm-.322-8.672a1.767,1.767,0,0,0-1.362.566,2.926,2.926,0,0,0-.669,1.621h3.926v-.225a2.086,2.086,0,0,0-.508-1.45A1.824,1.824,0,0,0-16.543,8.523Zm12.207.557A7.667,7.667,0,0,0-5.352,9a2.067,2.067,0,0,0-2.1,1.084V17h-2.822V6.434h2.666l.078,1.26A2.615,2.615,0,0,1-5.176,6.238a2.957,2.957,0,0,1,.879.127ZM1.23,14.92a1.851,1.851,0,0,0,1.27-.43,1.506,1.506,0,0,0,.508-1.143H5.654a3.62,3.62,0,0,1-.586,1.968A3.866,3.866,0,0,1,3.491,16.7a4.936,4.936,0,0,1-2.212.493,4.587,4.587,0,0,1-3.574-1.44A5.7,5.7,0,0,1-3.6,11.775V11.59a5.635,5.635,0,0,1,1.3-3.9A4.534,4.534,0,0,1,1.26,6.238,4.444,4.444,0,0,1,4.438,7.366a3.994,3.994,0,0,1,1.216,3H3.008A1.923,1.923,0,0,0,2.5,9.036a1.7,1.7,0,0,0-1.289-.513,1.7,1.7,0,0,0-1.489.718,4.155,4.155,0,0,0-.5,2.329v.293a4.207,4.207,0,0,0,.5,2.344A1.722,1.722,0,0,0,1.23,14.92ZM13.389,17a3.134,3.134,0,0,1-.283-.947A3.415,3.415,0,0,1,10.439,17.2a3.752,3.752,0,0,1-2.573-.9,2.89,2.89,0,0,1-1.021-2.266,2.986,2.986,0,0,1,1.245-2.578,6.144,6.144,0,0,1,3.6-.908h1.3V9.939a1.741,1.741,0,0,0-.376-1.172,1.479,1.479,0,0,0-1.187-.439,1.682,1.682,0,0,0-1.118.342,1.161,1.161,0,0,0-.405.938H7.08a2.835,2.835,0,0,1,.566-1.7,3.744,3.744,0,0,1,1.6-1.226,5.837,5.837,0,0,1,2.324-.444,4.611,4.611,0,0,1,3.1.981A3.433,3.433,0,0,1,15.82,9.979v4.58a5.052,5.052,0,0,0,.42,2.275V17Zm-2.334-1.963a2.431,2.431,0,0,0,1.152-.278,1.828,1.828,0,0,0,.781-.747V12.2H11.934q-2.119,0-2.256,1.465l-.01.166a1.13,1.13,0,0,0,.371.869A1.441,1.441,0,0,0,11.055,15.037Zm6.494-3.4A6.368,6.368,0,0,1,18.657,7.7a3.6,3.6,0,0,1,3.032-1.465,3.236,3.236,0,0,1,2.549,1.152V2H27.07V17H24.521l-.137-1.123A3.321,3.321,0,0,1,21.67,17.2a3.587,3.587,0,0,1-2.993-1.47A6.573,6.573,0,0,1,17.549,11.639Zm2.822.205a4.16,4.16,0,0,0,.518,2.275,1.687,1.687,0,0,0,1.5.791,1.889,1.889,0,0,0,1.846-1.1V9.637a1.862,1.862,0,0,0-1.826-1.1Q20.371,8.533,20.371,11.844Zm8.447-.225a6.266,6.266,0,0,1,.605-2.8,4.432,4.432,0,0,1,1.743-1.9,5.086,5.086,0,0,1,2.642-.674A4.812,4.812,0,0,1,37.3,7.547,5.252,5.252,0,0,1,38.809,11.1l.02.723a5.523,5.523,0,0,1-1.357,3.9,4.718,4.718,0,0,1-3.643,1.47,4.742,4.742,0,0,1-3.647-1.465,5.62,5.62,0,0,1-1.362-3.984Zm2.822.205a3.939,3.939,0,0,0,.566,2.3,2.037,2.037,0,0,0,3.223.01,4.31,4.31,0,0,0,.576-2.515,3.9,3.9,0,0,0-.576-2.285,1.874,1.874,0,0,0-1.621-.811,1.843,1.843,0,0,0-1.6.806A4.383,4.383,0,0,0,31.641,11.824Z" transform="translate(753.118 1691.153)" fill="#fff"/>
    <path id="Trazado_875903" data-name="Trazado 875903" d="M-33.759-4.268h-6.851L-42.148,0h-2.224l6.244-16.352h1.887L-29.985,0H-32.2Zm-6.2-1.774H-34.4l-2.785-7.648Zm16.722,4.571a2.993,2.993,0,0,0,1.943-.674,2.371,2.371,0,0,0,.921-1.685h1.965a3.768,3.768,0,0,1-.719,1.988,4.734,4.734,0,0,1-1.769,1.5,5.1,5.1,0,0,1-2.342.562,5.006,5.006,0,0,1-3.948-1.656,6.6,6.6,0,0,1-1.466-4.531v-.348A7.316,7.316,0,0,1-28-9.467a4.961,4.961,0,0,1,1.87-2.145,5.312,5.312,0,0,1,2.881-.764,4.873,4.873,0,0,1,3.4,1.224,4.375,4.375,0,0,1,1.443,3.178h-1.965a2.863,2.863,0,0,0-.893-1.937,2.777,2.777,0,0,0-1.982-.758A2.908,2.908,0,0,0-25.7-9.529a5.353,5.353,0,0,0-.87,3.3v.393a5.247,5.247,0,0,0,.865,3.234A2.922,2.922,0,0,0-23.236-1.471Zm9.984-13.623v2.942h2.269v1.606h-2.269V-3.01a1.683,1.683,0,0,0,.3,1.095,1.277,1.277,0,0,0,1.033.365,5.03,5.03,0,0,0,.988-.135V0a6.023,6.023,0,0,1-1.595.225,2.587,2.587,0,0,1-2.1-.842A3.618,3.618,0,0,1-15.33-3.01v-7.536h-2.212v-1.606h2.212v-2.942ZM-1.056-1.2A4.413,4.413,0,0,1-4.616.225,3.777,3.777,0,0,1-7.575-.9,4.885,4.885,0,0,1-8.6-4.245v-7.906h2.078V-4.3q0,2.763,2.246,2.763A3.11,3.11,0,0,0-1.112-3.313v-8.838H.966V0H-1.011ZM11.624,0a4.364,4.364,0,0,1-.292-1.28A4.636,4.636,0,0,1,7.873.225,4.289,4.289,0,0,1,4.925-.792,3.288,3.288,0,0,1,3.773-3.369,3.435,3.435,0,0,1,5.217-6.317a6.8,6.8,0,0,1,4.06-1.05H11.3v-.955a2.333,2.333,0,0,0-.651-1.735,2.618,2.618,0,0,0-1.92-.646,3.03,3.03,0,0,0-1.864.562,1.655,1.655,0,0,0-.752,1.359H4.021a2.867,2.867,0,0,1,.646-1.758,4.407,4.407,0,0,1,1.752-1.342,5.894,5.894,0,0,1,2.431-.494,4.8,4.8,0,0,1,3.291,1.05,3.788,3.788,0,0,1,1.235,2.892v5.593A6.838,6.838,0,0,0,13.8-.18V0ZM8.176-1.583a3.651,3.651,0,0,0,1.853-.505A3.057,3.057,0,0,0,11.3-3.4V-5.9H9.669q-3.818,0-3.818,2.235A1.891,1.891,0,0,0,6.5-2.134,2.5,2.5,0,0,0,8.176-1.583ZM18.89,0H16.812V-17.25H18.89Zm8.367.225A5.309,5.309,0,0,1,23.236-1.4a6.023,6.023,0,0,1-1.55-4.341v-.382a7.292,7.292,0,0,1,.691-3.229,5.388,5.388,0,0,1,1.932-2.224,4.857,4.857,0,0,1,2.69-.8,4.551,4.551,0,0,1,3.684,1.561A6.759,6.759,0,0,1,32-6.345v.865H23.764a4.319,4.319,0,0,0,1.05,2.9,3.3,3.3,0,0,0,2.555,1.106,3.619,3.619,0,0,0,1.864-.449,4.684,4.684,0,0,0,1.336-1.19l1.269.988A5.1,5.1,0,0,1,27.256.225ZM27-10.669a2.771,2.771,0,0,0-2.111.915,4.449,4.449,0,0,0-1.056,2.566h6.087v-.157A3.957,3.957,0,0,0,29.064-9.8,2.609,2.609,0,0,0,27-10.669ZM41.474-3.223a1.529,1.529,0,0,0-.635-1.308,6.108,6.108,0,0,0-2.212-.8,10.46,10.46,0,0,1-2.5-.809,3.563,3.563,0,0,1-1.37-1.123,2.686,2.686,0,0,1-.444-1.55,3.152,3.152,0,0,1,1.263-2.527A4.934,4.934,0,0,1,38.8-12.376a5.077,5.077,0,0,1,3.352,1.067A3.389,3.389,0,0,1,43.439-8.58H41.351a1.876,1.876,0,0,0-.724-1.471,2.714,2.714,0,0,0-1.825-.618,2.841,2.841,0,0,0-1.774.494,1.555,1.555,0,0,0-.64,1.292,1.26,1.26,0,0,0,.6,1.134,7.323,7.323,0,0,0,2.151.73,11.206,11.206,0,0,1,2.521.831,3.678,3.678,0,0,1,1.432,1.162,2.858,2.858,0,0,1,.466,1.656,3.11,3.11,0,0,1-1.3,2.611,5.464,5.464,0,0,1-3.38.983,6.119,6.119,0,0,1-2.583-.517,4.2,4.2,0,0,1-1.758-1.443,3.478,3.478,0,0,1-.635-2h2.078a2.151,2.151,0,0,0,.837,1.656,3.246,3.246,0,0,0,2.061.612,3.35,3.35,0,0,0,1.892-.477A1.467,1.467,0,0,0,41.474-3.223Z" transform="translate(753.511 1577.877)" fill="#12263f"/>
    <path id="Trazado_875899" data-name="Trazado 875899" d="M-33.759-4.268h-6.851L-42.148,0h-2.224l6.244-16.352h1.887L-29.985,0H-32.2Zm-6.2-1.774H-34.4l-2.785-7.648Zm16.722,4.571a2.993,2.993,0,0,0,1.943-.674,2.371,2.371,0,0,0,.921-1.685h1.965a3.768,3.768,0,0,1-.719,1.988,4.734,4.734,0,0,1-1.769,1.5,5.1,5.1,0,0,1-2.342.562,5.006,5.006,0,0,1-3.948-1.656,6.6,6.6,0,0,1-1.466-4.531v-.348A7.316,7.316,0,0,1-28-9.467a4.961,4.961,0,0,1,1.87-2.145,5.312,5.312,0,0,1,2.881-.764,4.873,4.873,0,0,1,3.4,1.224,4.375,4.375,0,0,1,1.443,3.178h-1.965a2.863,2.863,0,0,0-.893-1.937,2.777,2.777,0,0,0-1.982-.758A2.908,2.908,0,0,0-25.7-9.529a5.353,5.353,0,0,0-.87,3.3v.393a5.247,5.247,0,0,0,.865,3.234A2.922,2.922,0,0,0-23.236-1.471Zm9.984-13.623v2.942h2.269v1.606h-2.269V-3.01a1.683,1.683,0,0,0,.3,1.095,1.277,1.277,0,0,0,1.033.365,5.03,5.03,0,0,0,.988-.135V0a6.023,6.023,0,0,1-1.595.225,2.587,2.587,0,0,1-2.1-.842A3.618,3.618,0,0,1-15.33-3.01v-7.536h-2.212v-1.606h2.212v-2.942ZM-1.056-1.2A4.413,4.413,0,0,1-4.616.225,3.777,3.777,0,0,1-7.575-.9,4.885,4.885,0,0,1-8.6-4.245v-7.906h2.078V-4.3q0,2.763,2.246,2.763A3.11,3.11,0,0,0-1.112-3.313v-8.838H.966V0H-1.011ZM11.624,0a4.364,4.364,0,0,1-.292-1.28A4.636,4.636,0,0,1,7.873.225,4.289,4.289,0,0,1,4.925-.792,3.288,3.288,0,0,1,3.773-3.369,3.435,3.435,0,0,1,5.217-6.317a6.8,6.8,0,0,1,4.06-1.05H11.3v-.955a2.333,2.333,0,0,0-.651-1.735,2.618,2.618,0,0,0-1.92-.646,3.03,3.03,0,0,0-1.864.562,1.655,1.655,0,0,0-.752,1.359H4.021a2.867,2.867,0,0,1,.646-1.758,4.407,4.407,0,0,1,1.752-1.342,5.894,5.894,0,0,1,2.431-.494,4.8,4.8,0,0,1,3.291,1.05,3.788,3.788,0,0,1,1.235,2.892v5.593A6.838,6.838,0,0,0,13.8-.18V0ZM8.176-1.583a3.651,3.651,0,0,0,1.853-.505A3.057,3.057,0,0,0,11.3-3.4V-5.9H9.669q-3.818,0-3.818,2.235A1.891,1.891,0,0,0,6.5-2.134,2.5,2.5,0,0,0,8.176-1.583ZM18.89,0H16.812V-17.25H18.89Zm8.367.225A5.309,5.309,0,0,1,23.236-1.4a6.023,6.023,0,0,1-1.55-4.341v-.382a7.292,7.292,0,0,1,.691-3.229,5.388,5.388,0,0,1,1.932-2.224,4.857,4.857,0,0,1,2.69-.8,4.551,4.551,0,0,1,3.684,1.561A6.759,6.759,0,0,1,32-6.345v.865H23.764a4.319,4.319,0,0,0,1.05,2.9,3.3,3.3,0,0,0,2.555,1.106,3.619,3.619,0,0,0,1.864-.449,4.684,4.684,0,0,0,1.336-1.19l1.269.988A5.1,5.1,0,0,1,27.256.225ZM27-10.669a2.771,2.771,0,0,0-2.111.915,4.449,4.449,0,0,0-1.056,2.566h6.087v-.157A3.957,3.957,0,0,0,29.064-9.8,2.609,2.609,0,0,0,27-10.669ZM41.474-3.223a1.529,1.529,0,0,0-.635-1.308,6.108,6.108,0,0,0-2.212-.8,10.46,10.46,0,0,1-2.5-.809,3.563,3.563,0,0,1-1.37-1.123,2.686,2.686,0,0,1-.444-1.55,3.152,3.152,0,0,1,1.263-2.527A4.934,4.934,0,0,1,38.8-12.376a5.077,5.077,0,0,1,3.352,1.067A3.389,3.389,0,0,1,43.439-8.58H41.351a1.876,1.876,0,0,0-.724-1.471,2.714,2.714,0,0,0-1.825-.618,2.841,2.841,0,0,0-1.774.494,1.555,1.555,0,0,0-.64,1.292,1.26,1.26,0,0,0,.6,1.134,7.323,7.323,0,0,0,2.151.73,11.206,11.206,0,0,1,2.521.831,3.678,3.678,0,0,1,1.432,1.162,2.858,2.858,0,0,1,.466,1.656,3.11,3.11,0,0,1-1.3,2.611,5.464,5.464,0,0,1-3.38.983,6.119,6.119,0,0,1-2.583-.517,4.2,4.2,0,0,1-1.758-1.443,3.478,3.478,0,0,1-.635-2h2.078a2.151,2.151,0,0,0,.837,1.656,3.246,3.246,0,0,0,2.061.612,3.35,3.35,0,0,0,1.892-.477A1.467,1.467,0,0,0,41.474-3.223Z" transform="translate(644.145 1706.667) rotate(-90)" fill="#12263f"/>
    <path id="Trazado_875904" data-name="Trazado 875904" d="M-24.067,0h-2.167l-8.232-12.6V0h-2.167V-16.352h2.167l8.254,12.657V-16.352h2.145Zm11.006-1.2A4.413,4.413,0,0,1-16.621.225,3.777,3.777,0,0,1-19.58-.9a4.885,4.885,0,0,1-1.028-3.341v-7.906h2.078V-4.3q0,2.763,2.246,2.763a3.11,3.11,0,0,0,3.167-1.774v-8.838h2.078V0h-1.977ZM-2.841.225A5.309,5.309,0,0,1-6.862-1.4a6.023,6.023,0,0,1-1.55-4.341v-.382a7.292,7.292,0,0,1,.691-3.229,5.388,5.388,0,0,1,1.932-2.224,4.857,4.857,0,0,1,2.69-.8A4.551,4.551,0,0,1,.584-10.815,6.759,6.759,0,0,1,1.9-6.345v.865H-6.334a4.319,4.319,0,0,0,1.05,2.9A3.3,3.3,0,0,0-2.729-1.471,3.619,3.619,0,0,0-.865-1.92,4.684,4.684,0,0,0,.472-3.111l1.269.988A5.1,5.1,0,0,1-2.841.225ZM-3.1-10.669a2.771,2.771,0,0,0-2.111.915A4.449,4.449,0,0,0-6.267-7.187H-.18v-.157A3.957,3.957,0,0,0-1.033-9.8,2.609,2.609,0,0,0-3.1-10.669ZM8.165-2.819l3.01-9.333H13.3L8.939,0H7.356l-4.4-12.151H5.076Zm6.413-3.369a7.177,7.177,0,0,1,.7-3.212,5.236,5.236,0,0,1,1.954-2.2,5.319,5.319,0,0,1,2.858-.775,5.124,5.124,0,0,1,4.015,1.718,6.611,6.611,0,0,1,1.533,4.571v.146a7.24,7.24,0,0,1-.679,3.184,5.159,5.159,0,0,1-1.943,2.2,5.38,5.38,0,0,1-2.9.786,5.112,5.112,0,0,1-4-1.718,6.577,6.577,0,0,1-1.533-4.548Zm2.089.247A5.2,5.2,0,0,0,17.6-2.7a3,3,0,0,0,2.51,1.224,2.983,2.983,0,0,0,2.516-1.241,5.685,5.685,0,0,0,.932-3.476,5.189,5.189,0,0,0-.949-3.24,3.017,3.017,0,0,0-2.521-1.241,2.983,2.983,0,0,0-2.482,1.224A5.642,5.642,0,0,0,16.666-5.941ZM35.32-3.223a1.529,1.529,0,0,0-.635-1.308,6.108,6.108,0,0,0-2.212-.8,10.46,10.46,0,0,1-2.5-.809A3.563,3.563,0,0,1,28.6-7.266a2.686,2.686,0,0,1-.444-1.55,3.152,3.152,0,0,1,1.263-2.527,4.934,4.934,0,0,1,3.229-1.033A5.077,5.077,0,0,1,36-11.309,3.389,3.389,0,0,1,37.285-8.58H35.2a1.876,1.876,0,0,0-.724-1.471,2.714,2.714,0,0,0-1.825-.618,2.84,2.84,0,0,0-1.774.494,1.555,1.555,0,0,0-.64,1.292,1.26,1.26,0,0,0,.6,1.134,7.323,7.323,0,0,0,2.151.73,11.206,11.206,0,0,1,2.521.831,3.678,3.678,0,0,1,1.432,1.162A2.858,2.858,0,0,1,37.4-3.369a3.11,3.11,0,0,1-1.3,2.611,5.464,5.464,0,0,1-3.38.983,6.119,6.119,0,0,1-2.583-.517,4.2,4.2,0,0,1-1.758-1.443,3.478,3.478,0,0,1-.635-2h2.078a2.151,2.151,0,0,0,.837,1.656,3.246,3.246,0,0,0,2.061.612,3.35,3.35,0,0,0,1.892-.477A1.467,1.467,0,0,0,35.32-3.223Z" transform="translate(957.724 1577.877)" fill="#12263f"/>
    <path id="Trazado_875900" data-name="Trazado 875900" d="M-24.067,0h-2.167l-8.232-12.6V0h-2.167V-16.352h2.167l8.254,12.657V-16.352h2.145Zm11.006-1.2A4.413,4.413,0,0,1-16.621.225,3.777,3.777,0,0,1-19.58-.9a4.885,4.885,0,0,1-1.028-3.341v-7.906h2.078V-4.3q0,2.763,2.246,2.763a3.11,3.11,0,0,0,3.167-1.774v-8.838h2.078V0h-1.977ZM-2.841.225A5.309,5.309,0,0,1-6.862-1.4a6.023,6.023,0,0,1-1.55-4.341v-.382a7.292,7.292,0,0,1,.691-3.229,5.388,5.388,0,0,1,1.932-2.224,4.857,4.857,0,0,1,2.69-.8A4.551,4.551,0,0,1,.584-10.815,6.759,6.759,0,0,1,1.9-6.345v.865H-6.334a4.319,4.319,0,0,0,1.05,2.9A3.3,3.3,0,0,0-2.729-1.471,3.619,3.619,0,0,0-.865-1.92,4.684,4.684,0,0,0,.472-3.111l1.269.988A5.1,5.1,0,0,1-2.841.225ZM-3.1-10.669a2.771,2.771,0,0,0-2.111.915A4.449,4.449,0,0,0-6.267-7.187H-.18v-.157A3.957,3.957,0,0,0-1.033-9.8,2.609,2.609,0,0,0-3.1-10.669ZM8.165-2.819l3.01-9.333H13.3L8.939,0H7.356l-4.4-12.151H5.076Zm6.413-3.369a7.177,7.177,0,0,1,.7-3.212,5.236,5.236,0,0,1,1.954-2.2,5.319,5.319,0,0,1,2.858-.775,5.124,5.124,0,0,1,4.015,1.718,6.611,6.611,0,0,1,1.533,4.571v.146a7.24,7.24,0,0,1-.679,3.184,5.159,5.159,0,0,1-1.943,2.2,5.38,5.38,0,0,1-2.9.786,5.112,5.112,0,0,1-4-1.718,6.577,6.577,0,0,1-1.533-4.548Zm2.089.247A5.2,5.2,0,0,0,17.6-2.7a3,3,0,0,0,2.51,1.224,2.983,2.983,0,0,0,2.516-1.241,5.685,5.685,0,0,0,.932-3.476,5.189,5.189,0,0,0-.949-3.24,3.017,3.017,0,0,0-2.521-1.241,2.983,2.983,0,0,0-2.482,1.224A5.642,5.642,0,0,0,16.666-5.941ZM35.32-3.223a1.529,1.529,0,0,0-.635-1.308,6.108,6.108,0,0,0-2.212-.8,10.46,10.46,0,0,1-2.5-.809A3.563,3.563,0,0,1,28.6-7.266a2.686,2.686,0,0,1-.444-1.55,3.152,3.152,0,0,1,1.263-2.527,4.934,4.934,0,0,1,3.229-1.033A5.077,5.077,0,0,1,36-11.309,3.389,3.389,0,0,1,37.285-8.58H35.2a1.876,1.876,0,0,0-.724-1.471,2.714,2.714,0,0,0-1.825-.618,2.84,2.84,0,0,0-1.774.494,1.555,1.555,0,0,0-.64,1.292,1.26,1.26,0,0,0,.6,1.134,7.323,7.323,0,0,0,2.151.73,11.206,11.206,0,0,1,2.521.831,3.678,3.678,0,0,1,1.432,1.162A2.858,2.858,0,0,1,37.4-3.369a3.11,3.11,0,0,1-1.3,2.611,5.464,5.464,0,0,1-3.38.983,6.119,6.119,0,0,1-2.583-.517,4.2,4.2,0,0,1-1.758-1.443,3.478,3.478,0,0,1-.635-2h2.078a2.151,2.151,0,0,0,.837,1.656,3.246,3.246,0,0,0,2.061.612,3.35,3.35,0,0,0,1.892-.477A1.467,1.467,0,0,0,35.32-3.223Z" transform="translate(644.145 1903.713) rotate(-90)" fill="#12263f"/>
    <path id="Trazado_875902" data-name="Trazado 875902" d="M-58.4,0V-14.219h4.375a6.644,6.644,0,0,1,3.354.845,5.89,5.89,0,0,1,2.31,2.4,7.41,7.41,0,0,1,.83,3.54v.654a7.431,7.431,0,0,1-.815,3.525,5.84,5.84,0,0,1-2.3,2.393A6.694,6.694,0,0,1-53.994,0Zm2.93-11.846v9.492h1.416a3.181,3.181,0,0,0,2.627-1.123A5.075,5.075,0,0,0-50.5-6.689v-.752a5.156,5.156,0,0,0-.9-3.286,3.171,3.171,0,0,0-2.627-1.118ZM-40.723.2A5.187,5.187,0,0,1-44.507-1.23a5.068,5.068,0,0,1-1.46-3.8V-5.3a6.383,6.383,0,0,1,.615-2.847,4.515,4.515,0,0,1,1.743-1.934,4.893,4.893,0,0,1,2.573-.679,4.385,4.385,0,0,1,3.413,1.367,5.555,5.555,0,0,1,1.245,3.877v1.152h-6.729a2.622,2.622,0,0,0,.825,1.66,2.5,2.5,0,0,0,1.743.625,3.046,3.046,0,0,0,2.549-1.182L-36.6-1.709a4.237,4.237,0,0,1-1.719,1.4A5.639,5.639,0,0,1-40.723.2Zm-.322-8.672a1.767,1.767,0,0,0-1.362.566,2.926,2.926,0,0,0-.669,1.621h3.926v-.225a2.086,2.086,0,0,0-.508-1.45A1.824,1.824,0,0,0-41.045-8.477ZM-29.053-2.92a.909.909,0,0,0-.513-.815,5.824,5.824,0,0,0-1.646-.532q-3.77-.791-3.77-3.2a2.9,2.9,0,0,1,1.167-2.349,4.707,4.707,0,0,1,3.052-.942,5.067,5.067,0,0,1,3.218.947,2.985,2.985,0,0,1,1.206,2.461H-29.16a1.366,1.366,0,0,0-.391-1,1.653,1.653,0,0,0-1.221-.4,1.689,1.689,0,0,0-1.1.322,1.017,1.017,0,0,0-.391.82.87.87,0,0,0,.444.757,4.571,4.571,0,0,0,1.5.5,12.244,12.244,0,0,1,1.777.474,2.92,2.92,0,0,1,2.236,2.842A2.756,2.756,0,0,1-27.549-.7a5.35,5.35,0,0,1-3.2.894A5.588,5.588,0,0,1-33.11-.278a3.957,3.957,0,0,1-1.616-1.3,3.018,3.018,0,0,1-.586-1.782h2.676a1.473,1.473,0,0,0,.557,1.152,2.208,2.208,0,0,0,1.387.4,2.044,2.044,0,0,0,1.226-.308A.957.957,0,0,0-29.053-2.92ZM-18.369,0a3.134,3.134,0,0,1-.283-.947A3.415,3.415,0,0,1-21.318.2a3.752,3.752,0,0,1-2.573-.9,2.89,2.89,0,0,1-1.021-2.266,2.986,2.986,0,0,1,1.245-2.578,6.144,6.144,0,0,1,3.6-.908h1.3v-.605a1.741,1.741,0,0,0-.376-1.172,1.479,1.479,0,0,0-1.187-.439,1.682,1.682,0,0,0-1.118.342,1.161,1.161,0,0,0-.405.938h-2.822a2.835,2.835,0,0,1,.566-1.7,3.744,3.744,0,0,1,1.6-1.226,5.837,5.837,0,0,1,2.324-.444,4.611,4.611,0,0,1,3.1.981,3.433,3.433,0,0,1,1.147,2.759v4.58a5.052,5.052,0,0,0,.42,2.275V0ZM-20.7-1.963a2.431,2.431,0,0,0,1.152-.278,1.828,1.828,0,0,0,.781-.747V-4.8h-1.055q-2.119,0-2.256,1.465l-.01.166a1.13,1.13,0,0,0,.371.869A1.441,1.441,0,0,0-20.7-1.963ZM-7.832-7.92A7.667,7.667,0,0,0-8.848-8a2.067,2.067,0,0,0-2.1,1.084V0H-13.77V-10.566H-11.1l.078,1.26a2.615,2.615,0,0,1,2.354-1.455,2.957,2.957,0,0,1,.879.127Zm7.295,0A7.667,7.667,0,0,0-1.553-8a2.067,2.067,0,0,0-2.1,1.084V0H-6.475V-10.566h2.666l.078,1.26a2.615,2.615,0,0,1,2.354-1.455,2.957,2.957,0,0,1,.879.127ZM.029-5.381a6.266,6.266,0,0,1,.605-2.8,4.432,4.432,0,0,1,1.743-1.9,5.086,5.086,0,0,1,2.642-.674A4.812,4.812,0,0,1,8.511-9.453,5.252,5.252,0,0,1,10.02-5.9l.02.723a5.523,5.523,0,0,1-1.357,3.9A4.718,4.718,0,0,1,5.039.2,4.742,4.742,0,0,1,1.392-1.27,5.62,5.62,0,0,1,.029-5.254Zm2.822.205a3.939,3.939,0,0,0,.566,2.3,1.869,1.869,0,0,0,1.621.8,1.874,1.874,0,0,0,1.6-.786,4.31,4.31,0,0,0,.576-2.515,3.9,3.9,0,0,0-.576-2.285A1.874,1.874,0,0,0,5.02-8.477a1.843,1.843,0,0,0-1.6.806A4.383,4.383,0,0,0,2.852-5.176ZM14.756,0H11.924V-15h2.832Zm5.3,0H17.227V-15h2.832Zm1.885-5.381a6.266,6.266,0,0,1,.605-2.8,4.432,4.432,0,0,1,1.743-1.9,5.086,5.086,0,0,1,2.642-.674,4.812,4.812,0,0,1,3.491,1.309A5.252,5.252,0,0,1,31.934-5.9l.02.723a5.523,5.523,0,0,1-1.357,3.9A4.718,4.718,0,0,1,26.953.2,4.742,4.742,0,0,1,23.306-1.27a5.62,5.62,0,0,1-1.362-3.984Zm2.822.205a3.939,3.939,0,0,0,.566,2.3,1.869,1.869,0,0,0,1.621.8,1.874,1.874,0,0,0,1.6-.786,4.31,4.31,0,0,0,.576-2.515,3.9,3.9,0,0,0-.576-2.285,1.874,1.874,0,0,0-1.621-.811,1.843,1.843,0,0,0-1.6.806A4.383,4.383,0,0,0,24.766-5.176Zm13.467-.186A6.368,6.368,0,0,1,39.341-9.3a3.6,3.6,0,0,1,3.032-1.465,3.236,3.236,0,0,1,2.549,1.152V-15h2.832V0H45.205l-.137-1.123A3.321,3.321,0,0,1,42.354.2a3.587,3.587,0,0,1-2.993-1.47A6.573,6.573,0,0,1,38.232-5.361Zm2.822.205a4.16,4.16,0,0,0,.518,2.275,1.687,1.687,0,0,0,1.5.791,1.889,1.889,0,0,0,1.846-1.1v-4.17a1.862,1.862,0,0,0-1.826-1.1Q41.055-8.467,41.055-5.156ZM54.8.2A5.187,5.187,0,0,1,51.021-1.23a5.068,5.068,0,0,1-1.46-3.8V-5.3a6.383,6.383,0,0,1,.615-2.847,4.515,4.515,0,0,1,1.743-1.934,4.893,4.893,0,0,1,2.573-.679,4.385,4.385,0,0,1,3.413,1.367A5.555,5.555,0,0,1,59.15-5.518v1.152H52.422a2.622,2.622,0,0,0,.825,1.66,2.5,2.5,0,0,0,1.743.625,3.046,3.046,0,0,0,2.549-1.182l1.387,1.553a4.237,4.237,0,0,1-1.719,1.4A5.639,5.639,0,0,1,54.8.2Zm-.322-8.672a1.767,1.767,0,0,0-1.362.566,2.926,2.926,0,0,0-.669,1.621h3.926v-.225a2.086,2.086,0,0,0-.508-1.45A1.824,1.824,0,0,0,54.482-8.477ZM-34.634,11.814a6.337,6.337,0,0,1-1.108,3.911,3.554,3.554,0,0,1-2.993,1.47,3.292,3.292,0,0,1-2.588-1.113v4.98h-2.822V6.434h2.617l.1,1.035a3.317,3.317,0,0,1,2.676-1.23,3.578,3.578,0,0,1,3.037,1.445,6.509,6.509,0,0,1,1.084,3.984Zm-2.822-.205a4.159,4.159,0,0,0-.522-2.275,1.7,1.7,0,0,0-1.519-.8,1.848,1.848,0,0,0-1.826,1.016v4.326a1.879,1.879,0,0,0,1.846,1.045Q-37.456,14.92-37.456,11.609ZM-26.948,9.08A7.667,7.667,0,0,0-27.964,9a2.067,2.067,0,0,0-2.1,1.084V17h-2.822V6.434h2.666l.078,1.26a2.615,2.615,0,0,1,2.354-1.455,2.957,2.957,0,0,1,.879.127Zm.566,2.539a6.266,6.266,0,0,1,.605-2.8,4.432,4.432,0,0,1,1.743-1.9,5.086,5.086,0,0,1,2.642-.674A4.812,4.812,0,0,1-17.9,7.547,5.252,5.252,0,0,1-16.392,11.1l.02.723a5.523,5.523,0,0,1-1.357,3.9,4.718,4.718,0,0,1-3.643,1.47A4.742,4.742,0,0,1-25.02,15.73a5.62,5.62,0,0,1-1.362-3.984Zm2.822.205a3.939,3.939,0,0,0,.566,2.3,1.869,1.869,0,0,0,1.621.8,1.874,1.874,0,0,0,1.6-.786,4.31,4.31,0,0,0,.576-2.515,3.9,3.9,0,0,0-.576-2.285,1.874,1.874,0,0,0-1.621-.811,1.843,1.843,0,0,0-1.6.806A4.383,4.383,0,0,0-23.56,11.824Zm8.486-.186A6.368,6.368,0,0,1-13.965,7.7a3.6,3.6,0,0,1,3.032-1.465A3.236,3.236,0,0,1-8.384,7.391V2h2.832V17H-8.1l-.137-1.123A3.321,3.321,0,0,1-10.952,17.2a3.587,3.587,0,0,1-2.993-1.47A6.573,6.573,0,0,1-15.073,11.639Zm2.822.205a4.16,4.16,0,0,0,.518,2.275,1.687,1.687,0,0,0,1.5.791,1.889,1.889,0,0,0,1.846-1.1V9.637a1.862,1.862,0,0,0-1.826-1.1Q-12.251,8.533-12.251,11.844ZM2.964,15.926A3.539,3.539,0,0,1,.073,17.2a3.338,3.338,0,0,1-2.593-.977,4.169,4.169,0,0,1-.913-2.861V6.434H-.61V13.26q0,1.65,1.5,1.65a2.038,2.038,0,0,0,1.973-1V6.434H5.7V17H3.042Zm9.258-1.006a1.851,1.851,0,0,0,1.27-.43A1.506,1.506,0,0,0,14,13.348h2.646a3.62,3.62,0,0,1-.586,1.968A3.866,3.866,0,0,1,14.482,16.7a4.936,4.936,0,0,1-2.212.493A4.587,4.587,0,0,1,8.7,15.755a5.7,5.7,0,0,1-1.309-3.979V11.59a5.635,5.635,0,0,1,1.3-3.9,4.534,4.534,0,0,1,3.564-1.455A4.444,4.444,0,0,1,15.43,7.366a3.994,3.994,0,0,1,1.216,3H14a1.923,1.923,0,0,0-.508-1.333A1.7,1.7,0,0,0,12.2,8.523a1.7,1.7,0,0,0-1.489.718,4.155,4.155,0,0,0-.5,2.329v.293a4.207,4.207,0,0,0,.5,2.344A1.722,1.722,0,0,0,12.222,14.92ZM21.636,3.836v2.6h1.807V8.5H21.636v5.273a1.259,1.259,0,0,0,.225.84,1.128,1.128,0,0,0,.859.254,4.5,4.5,0,0,0,.83-.068v2.139a5.81,5.81,0,0,1-1.709.254q-2.969,0-3.027-3V8.5H17.271V6.434h1.543v-2.6Zm2.646,7.783a6.266,6.266,0,0,1,.605-2.8,4.432,4.432,0,0,1,1.743-1.9,5.086,5.086,0,0,1,2.642-.674,4.812,4.812,0,0,1,3.491,1.309A5.252,5.252,0,0,1,34.272,11.1l.02.723a5.523,5.523,0,0,1-1.357,3.9,4.718,4.718,0,0,1-3.643,1.47,4.742,4.742,0,0,1-3.647-1.465,5.62,5.62,0,0,1-1.362-3.984Zm2.822.205a3.939,3.939,0,0,0,.566,2.3,2.037,2.037,0,0,0,3.223.01,4.31,4.31,0,0,0,.576-2.515,3.9,3.9,0,0,0-.576-2.285,1.874,1.874,0,0,0-1.621-.811,1.843,1.843,0,0,0-1.6.806A4.383,4.383,0,0,0,27.1,11.824ZM41.753,14.08a.909.909,0,0,0-.513-.815,5.824,5.824,0,0,0-1.646-.532q-3.77-.791-3.77-3.2a2.9,2.9,0,0,1,1.167-2.349,4.707,4.707,0,0,1,3.052-.942,5.067,5.067,0,0,1,3.218.947,2.985,2.985,0,0,1,1.206,2.461H41.646a1.366,1.366,0,0,0-.391-1,1.653,1.653,0,0,0-1.221-.4,1.689,1.689,0,0,0-1.1.322,1.017,1.017,0,0,0-.391.82.87.87,0,0,0,.444.757,4.571,4.571,0,0,0,1.5.5,12.244,12.244,0,0,1,1.777.474A2.92,2.92,0,0,1,44.5,13.963a2.756,2.756,0,0,1-1.24,2.339,5.35,5.35,0,0,1-3.2.894,5.588,5.588,0,0,1-2.358-.474,3.957,3.957,0,0,1-1.616-1.3,3.018,3.018,0,0,1-.586-1.782h2.676a1.473,1.473,0,0,0,.557,1.152,2.208,2.208,0,0,0,1.387.4,2.044,2.044,0,0,0,1.226-.308A.957.957,0,0,0,41.753,14.08Z" transform="translate(958.783 1691.153)" fill="#fff"/>
    <path id="Trazado_875897" data-name="Trazado 875897" d="M-58.4,0V-14.219h4.375a6.644,6.644,0,0,1,3.354.845,5.89,5.89,0,0,1,2.31,2.4,7.41,7.41,0,0,1,.83,3.54v.654a7.431,7.431,0,0,1-.815,3.525,5.84,5.84,0,0,1-2.3,2.393A6.694,6.694,0,0,1-53.994,0Zm2.93-11.846v9.492h1.416a3.181,3.181,0,0,0,2.627-1.123A5.075,5.075,0,0,0-50.5-6.689v-.752a5.156,5.156,0,0,0-.9-3.286,3.171,3.171,0,0,0-2.627-1.118ZM-40.723.2A5.187,5.187,0,0,1-44.507-1.23a5.068,5.068,0,0,1-1.46-3.8V-5.3a6.383,6.383,0,0,1,.615-2.847,4.515,4.515,0,0,1,1.743-1.934,4.893,4.893,0,0,1,2.573-.679,4.385,4.385,0,0,1,3.413,1.367,5.555,5.555,0,0,1,1.245,3.877v1.152h-6.729a2.622,2.622,0,0,0,.825,1.66,2.5,2.5,0,0,0,1.743.625,3.046,3.046,0,0,0,2.549-1.182L-36.6-1.709a4.237,4.237,0,0,1-1.719,1.4A5.639,5.639,0,0,1-40.723.2Zm-.322-8.672a1.767,1.767,0,0,0-1.362.566,2.926,2.926,0,0,0-.669,1.621h3.926v-.225a2.086,2.086,0,0,0-.508-1.45A1.824,1.824,0,0,0-41.045-8.477ZM-29.053-2.92a.909.909,0,0,0-.513-.815,5.824,5.824,0,0,0-1.646-.532q-3.77-.791-3.77-3.2a2.9,2.9,0,0,1,1.167-2.349,4.707,4.707,0,0,1,3.052-.942,5.067,5.067,0,0,1,3.218.947,2.985,2.985,0,0,1,1.206,2.461H-29.16a1.366,1.366,0,0,0-.391-1,1.653,1.653,0,0,0-1.221-.4,1.689,1.689,0,0,0-1.1.322,1.017,1.017,0,0,0-.391.82.87.87,0,0,0,.444.757,4.571,4.571,0,0,0,1.5.5,12.244,12.244,0,0,1,1.777.474,2.92,2.92,0,0,1,2.236,2.842A2.756,2.756,0,0,1-27.549-.7a5.35,5.35,0,0,1-3.2.894A5.588,5.588,0,0,1-33.11-.278a3.957,3.957,0,0,1-1.616-1.3,3.018,3.018,0,0,1-.586-1.782h2.676a1.473,1.473,0,0,0,.557,1.152,2.208,2.208,0,0,0,1.387.4,2.044,2.044,0,0,0,1.226-.308A.957.957,0,0,0-29.053-2.92ZM-18.369,0a3.134,3.134,0,0,1-.283-.947A3.415,3.415,0,0,1-21.318.2a3.752,3.752,0,0,1-2.573-.9,2.89,2.89,0,0,1-1.021-2.266,2.986,2.986,0,0,1,1.245-2.578,6.144,6.144,0,0,1,3.6-.908h1.3v-.605a1.741,1.741,0,0,0-.376-1.172,1.479,1.479,0,0,0-1.187-.439,1.682,1.682,0,0,0-1.118.342,1.161,1.161,0,0,0-.405.938h-2.822a2.835,2.835,0,0,1,.566-1.7,3.744,3.744,0,0,1,1.6-1.226,5.837,5.837,0,0,1,2.324-.444,4.611,4.611,0,0,1,3.1.981,3.433,3.433,0,0,1,1.147,2.759v4.58a5.052,5.052,0,0,0,.42,2.275V0ZM-20.7-1.963a2.431,2.431,0,0,0,1.152-.278,1.828,1.828,0,0,0,.781-.747V-4.8h-1.055q-2.119,0-2.256,1.465l-.01.166a1.13,1.13,0,0,0,.371.869A1.441,1.441,0,0,0-20.7-1.963ZM-7.832-7.92A7.667,7.667,0,0,0-8.848-8a2.067,2.067,0,0,0-2.1,1.084V0H-13.77V-10.566H-11.1l.078,1.26a2.615,2.615,0,0,1,2.354-1.455,2.957,2.957,0,0,1,.879.127Zm7.295,0A7.667,7.667,0,0,0-1.553-8a2.067,2.067,0,0,0-2.1,1.084V0H-6.475V-10.566h2.666l.078,1.26a2.615,2.615,0,0,1,2.354-1.455,2.957,2.957,0,0,1,.879.127ZM.029-5.381a6.266,6.266,0,0,1,.605-2.8,4.432,4.432,0,0,1,1.743-1.9,5.086,5.086,0,0,1,2.642-.674A4.812,4.812,0,0,1,8.511-9.453,5.252,5.252,0,0,1,10.02-5.9l.02.723a5.523,5.523,0,0,1-1.357,3.9A4.718,4.718,0,0,1,5.039.2,4.742,4.742,0,0,1,1.392-1.27,5.62,5.62,0,0,1,.029-5.254Zm2.822.205a3.939,3.939,0,0,0,.566,2.3,1.869,1.869,0,0,0,1.621.8,1.874,1.874,0,0,0,1.6-.786,4.31,4.31,0,0,0,.576-2.515,3.9,3.9,0,0,0-.576-2.285A1.874,1.874,0,0,0,5.02-8.477a1.843,1.843,0,0,0-1.6.806A4.383,4.383,0,0,0,2.852-5.176ZM14.756,0H11.924V-15h2.832Zm5.3,0H17.227V-15h2.832Zm1.885-5.381a6.266,6.266,0,0,1,.605-2.8,4.432,4.432,0,0,1,1.743-1.9,5.086,5.086,0,0,1,2.642-.674,4.812,4.812,0,0,1,3.491,1.309A5.252,5.252,0,0,1,31.934-5.9l.02.723a5.523,5.523,0,0,1-1.357,3.9A4.718,4.718,0,0,1,26.953.2,4.742,4.742,0,0,1,23.306-1.27a5.62,5.62,0,0,1-1.362-3.984Zm2.822.205a3.939,3.939,0,0,0,.566,2.3,1.869,1.869,0,0,0,1.621.8,1.874,1.874,0,0,0,1.6-.786,4.31,4.31,0,0,0,.576-2.515,3.9,3.9,0,0,0-.576-2.285,1.874,1.874,0,0,0-1.621-.811,1.843,1.843,0,0,0-1.6.806A4.383,4.383,0,0,0,24.766-5.176Zm13.467-.186A6.368,6.368,0,0,1,39.341-9.3a3.6,3.6,0,0,1,3.032-1.465,3.236,3.236,0,0,1,2.549,1.152V-15h2.832V0H45.205l-.137-1.123A3.321,3.321,0,0,1,42.354.2a3.587,3.587,0,0,1-2.993-1.47A6.573,6.573,0,0,1,38.232-5.361Zm2.822.205a4.16,4.16,0,0,0,.518,2.275,1.687,1.687,0,0,0,1.5.791,1.889,1.889,0,0,0,1.846-1.1v-4.17a1.862,1.862,0,0,0-1.826-1.1Q41.055-8.467,41.055-5.156ZM54.8.2A5.187,5.187,0,0,1,51.021-1.23a5.068,5.068,0,0,1-1.46-3.8V-5.3a6.383,6.383,0,0,1,.615-2.847,4.515,4.515,0,0,1,1.743-1.934,4.893,4.893,0,0,1,2.573-.679,4.385,4.385,0,0,1,3.413,1.367A5.555,5.555,0,0,1,59.15-5.518v1.152H52.422a2.622,2.622,0,0,0,.825,1.66,2.5,2.5,0,0,0,1.743.625,3.046,3.046,0,0,0,2.549-1.182l1.387,1.553a4.237,4.237,0,0,1-1.719,1.4A5.639,5.639,0,0,1,54.8.2Zm-.322-8.672a1.767,1.767,0,0,0-1.362.566,2.926,2.926,0,0,0-.669,1.621h3.926v-.225a2.086,2.086,0,0,0-.508-1.45A1.824,1.824,0,0,0,54.482-8.477ZM-40.894,6.434l.088,1.182a3.713,3.713,0,0,1,3.037-1.377,2.818,2.818,0,0,1,2.8,1.611,3.628,3.628,0,0,1,3.174-1.611,3.152,3.152,0,0,1,2.559,1,4.6,4.6,0,0,1,.84,3.013V17h-2.832V10.262a2.012,2.012,0,0,0-.352-1.313,1.558,1.558,0,0,0-1.24-.415,1.761,1.761,0,0,0-1.758,1.211l.01,7.256h-2.822V10.271a1.988,1.988,0,0,0-.361-1.328,1.573,1.573,0,0,0-1.23-.41,1.829,1.829,0,0,0-1.738,1V17H-43.54V6.434ZM-21.362,17.2a5.187,5.187,0,0,1-3.784-1.426,5.068,5.068,0,0,1-1.46-3.8V11.7a6.383,6.383,0,0,1,.615-2.847,4.515,4.515,0,0,1,1.743-1.934,4.893,4.893,0,0,1,2.573-.679,4.385,4.385,0,0,1,3.413,1.367,5.555,5.555,0,0,1,1.245,3.877v1.152h-6.729a2.622,2.622,0,0,0,.825,1.66,2.5,2.5,0,0,0,1.743.625,3.046,3.046,0,0,0,2.549-1.182l1.387,1.553a4.237,4.237,0,0,1-1.719,1.4A5.639,5.639,0,0,1-21.362,17.2Zm-.322-8.672a1.767,1.767,0,0,0-1.362.566,2.926,2.926,0,0,0-.669,1.621h3.926v-.225a2.086,2.086,0,0,0-.508-1.45A1.824,1.824,0,0,0-21.685,8.523Zm12.207.557A7.667,7.667,0,0,0-10.493,9a2.067,2.067,0,0,0-2.1,1.084V17h-2.822V6.434h2.666l.078,1.26a2.615,2.615,0,0,1,2.354-1.455,2.957,2.957,0,0,1,.879.127Zm5.566,5.84a1.851,1.851,0,0,0,1.27-.43,1.506,1.506,0,0,0,.508-1.143H.513a3.62,3.62,0,0,1-.586,1.968A3.866,3.866,0,0,1-1.65,16.7a4.936,4.936,0,0,1-2.212.493,4.587,4.587,0,0,1-3.574-1.44,5.7,5.7,0,0,1-1.309-3.979V11.59a5.635,5.635,0,0,1,1.3-3.9A4.534,4.534,0,0,1-3.882,6.238,4.444,4.444,0,0,1-.7,7.366a3.994,3.994,0,0,1,1.216,3H-2.134a1.923,1.923,0,0,0-.508-1.333,1.7,1.7,0,0,0-1.289-.513,1.7,1.7,0,0,0-1.489.718,4.155,4.155,0,0,0-.5,2.329v.293a4.207,4.207,0,0,0,.5,2.344A1.722,1.722,0,0,0-3.911,14.92ZM8.247,17a3.134,3.134,0,0,1-.283-.947A3.415,3.415,0,0,1,5.3,17.2a3.752,3.752,0,0,1-2.573-.9A2.89,2.89,0,0,1,1.7,14.031a2.986,2.986,0,0,1,1.245-2.578,6.144,6.144,0,0,1,3.6-.908h1.3V9.939a1.741,1.741,0,0,0-.376-1.172,1.479,1.479,0,0,0-1.187-.439,1.682,1.682,0,0,0-1.118.342,1.161,1.161,0,0,0-.405.938H1.938a2.835,2.835,0,0,1,.566-1.7,3.744,3.744,0,0,1,1.6-1.226,5.837,5.837,0,0,1,2.324-.444,4.611,4.611,0,0,1,3.1.981,3.433,3.433,0,0,1,1.147,2.759v4.58a5.052,5.052,0,0,0,.42,2.275V17ZM5.913,15.037a2.431,2.431,0,0,0,1.152-.278,1.828,1.828,0,0,0,.781-.747V12.2H6.792q-2.119,0-2.256,1.465l-.01.166A1.13,1.13,0,0,0,4.9,14.7,1.441,1.441,0,0,0,5.913,15.037Zm6.494-3.4A6.368,6.368,0,0,1,13.516,7.7a3.6,3.6,0,0,1,3.032-1.465A3.236,3.236,0,0,1,19.1,7.391V2h2.832V17H19.38l-.137-1.123A3.321,3.321,0,0,1,16.528,17.2a3.587,3.587,0,0,1-2.993-1.47A6.573,6.573,0,0,1,12.407,11.639Zm2.822.205a4.16,4.16,0,0,0,.518,2.275,1.687,1.687,0,0,0,1.5.791,1.889,1.889,0,0,0,1.846-1.1V9.637a1.862,1.862,0,0,0-1.826-1.1Q15.229,8.533,15.229,11.844Zm8.447-.225a6.266,6.266,0,0,1,.605-2.8,4.432,4.432,0,0,1,1.743-1.9,5.086,5.086,0,0,1,2.642-.674,4.812,4.812,0,0,1,3.491,1.309A5.252,5.252,0,0,1,33.667,11.1l.02.723a5.523,5.523,0,0,1-1.357,3.9,4.718,4.718,0,0,1-3.643,1.47,4.742,4.742,0,0,1-3.647-1.465,5.62,5.62,0,0,1-1.362-3.984Zm2.822.205a3.939,3.939,0,0,0,.566,2.3,2.037,2.037,0,0,0,3.223.01,4.31,4.31,0,0,0,.576-2.515,3.9,3.9,0,0,0-.576-2.285,1.874,1.874,0,0,0-1.621-.811,1.843,1.843,0,0,0-1.6.806A4.383,4.383,0,0,0,26.5,11.824ZM41.147,14.08a.909.909,0,0,0-.513-.815,5.824,5.824,0,0,0-1.646-.532q-3.77-.791-3.77-3.2a2.9,2.9,0,0,1,1.167-2.349,4.707,4.707,0,0,1,3.052-.942,5.067,5.067,0,0,1,3.218.947,2.985,2.985,0,0,1,1.206,2.461H41.04a1.366,1.366,0,0,0-.391-1,1.653,1.653,0,0,0-1.221-.4,1.689,1.689,0,0,0-1.1.322,1.017,1.017,0,0,0-.391.82.87.87,0,0,0,.444.757,4.571,4.571,0,0,0,1.5.5,12.244,12.244,0,0,1,1.777.474,2.92,2.92,0,0,1,2.236,2.842,2.756,2.756,0,0,1-1.24,2.339,5.35,5.35,0,0,1-3.2.894,5.588,5.588,0,0,1-2.358-.474,3.957,3.957,0,0,1-1.616-1.3,3.018,3.018,0,0,1-.586-1.782h2.676a1.473,1.473,0,0,0,.557,1.152,2.208,2.208,0,0,0,1.387.4,2.044,2.044,0,0,0,1.226-.308A.957.957,0,0,0,41.147,14.08Z" transform="translate(755.943 1892.572)" fill="#fff"/>
    <path id="Trazado_875895" data-name="Trazado 875895" d="M-65.562,0V-14.219h4.375a6.644,6.644,0,0,1,3.354.845,5.89,5.89,0,0,1,2.31,2.4,7.41,7.41,0,0,1,.83,3.54v.654a7.431,7.431,0,0,1-.815,3.525,5.84,5.84,0,0,1-2.3,2.393A6.694,6.694,0,0,1-61.157,0Zm2.93-11.846v9.492h1.416a3.181,3.181,0,0,0,2.627-1.123,5.075,5.075,0,0,0,.928-3.213v-.752a5.156,5.156,0,0,0-.9-3.286,3.171,3.171,0,0,0-2.627-1.118ZM-49.771,0H-52.6V-10.566h2.832Zm-3-13.3a1.39,1.39,0,0,1,.425-1.045,1.6,1.6,0,0,1,1.157-.41,1.6,1.6,0,0,1,1.152.41A1.382,1.382,0,0,1-49.6-13.3a1.386,1.386,0,0,1-.435,1.055,1.6,1.6,0,0,1-1.147.41,1.6,1.6,0,0,1-1.147-.41A1.386,1.386,0,0,1-52.769-13.3Zm9.277,9.854,1.963-7.119h2.949L-42.144,0h-2.7L-48.4-10.566h2.949ZM-32.476.2A5.187,5.187,0,0,1-36.26-1.23a5.068,5.068,0,0,1-1.46-3.8V-5.3A6.383,6.383,0,0,1-37.1-8.149a4.515,4.515,0,0,1,1.743-1.934,4.893,4.893,0,0,1,2.573-.679,4.385,4.385,0,0,1,3.413,1.367A5.555,5.555,0,0,1-28.13-5.518v1.152h-6.729a2.622,2.622,0,0,0,.825,1.66,2.5,2.5,0,0,0,1.743.625,3.046,3.046,0,0,0,2.549-1.182l1.387,1.553a4.237,4.237,0,0,1-1.719,1.4A5.639,5.639,0,0,1-32.476.2ZM-32.8-8.477a1.767,1.767,0,0,0-1.362.566,2.926,2.926,0,0,0-.669,1.621H-30.9v-.225a2.086,2.086,0,0,0-.508-1.45A1.824,1.824,0,0,0-32.8-8.477Zm12.207.557A7.667,7.667,0,0,0-21.606-8a2.067,2.067,0,0,0-2.1,1.084V0h-2.822V-10.566h2.666l.078,1.26a2.615,2.615,0,0,1,2.354-1.455,2.957,2.957,0,0,1,.879.127Zm7.08,5a.909.909,0,0,0-.513-.815,5.824,5.824,0,0,0-1.646-.532q-3.77-.791-3.77-3.2a2.9,2.9,0,0,1,1.167-2.349,4.707,4.707,0,0,1,3.052-.942A5.067,5.067,0,0,1-12-9.814,2.985,2.985,0,0,1-10.8-7.354h-2.822a1.366,1.366,0,0,0-.391-1,1.653,1.653,0,0,0-1.221-.4,1.689,1.689,0,0,0-1.1.322,1.017,1.017,0,0,0-.391.82.87.87,0,0,0,.444.757,4.571,4.571,0,0,0,1.5.5A12.244,12.244,0,0,1-13-5.879a2.92,2.92,0,0,1,2.236,2.842A2.756,2.756,0,0,1-12.007-.7,5.35,5.35,0,0,1-15.21.2a5.588,5.588,0,0,1-2.358-.474,3.957,3.957,0,0,1-1.616-1.3,3.018,3.018,0,0,1-.586-1.782h2.676a1.473,1.473,0,0,0,.557,1.152,2.208,2.208,0,0,0,1.387.4,2.044,2.044,0,0,0,1.226-.308A.957.957,0,0,0-13.511-2.92ZM-5.972,0H-8.8V-10.566h2.832Zm-3-13.3a1.39,1.39,0,0,1,.425-1.045,1.6,1.6,0,0,1,1.157-.41,1.6,1.6,0,0,1,1.152.41,1.382,1.382,0,0,1,.43,1.045,1.386,1.386,0,0,1-.435,1.055,1.6,1.6,0,0,1-1.147.41,1.6,1.6,0,0,1-1.147-.41A1.386,1.386,0,0,1-8.97-13.3ZM-2.964,0V-8.5H-4.536v-2.07h1.572v-.488a3.963,3.963,0,0,1,1.226-3.071,4.931,4.931,0,0,1,3.4-1.079,11.289,11.289,0,0,1,3.2.576l-.41,2.334a12.5,12.5,0,0,0-1.484-.366,7.293,7.293,0,0,0-1.133-.083Q-.132-12.744-.132-11v.43h2.08V-8.5H-.132V0Zm9.15,0H3.354V-10.566H6.187Zm6.729-2.08a1.851,1.851,0,0,0,1.27-.43,1.506,1.506,0,0,0,.508-1.143h2.646a3.62,3.62,0,0,1-.586,1.968A3.866,3.866,0,0,1,15.176-.3,4.936,4.936,0,0,1,12.964.2,4.587,4.587,0,0,1,9.39-1.245,5.7,5.7,0,0,1,8.081-5.225V-5.41a5.635,5.635,0,0,1,1.3-3.9,4.534,4.534,0,0,1,3.564-1.455,4.444,4.444,0,0,1,3.179,1.128,3.994,3.994,0,0,1,1.216,3H14.692a1.923,1.923,0,0,0-.508-1.333A1.7,1.7,0,0,0,12.9-8.477a1.7,1.7,0,0,0-1.489.718,4.155,4.155,0,0,0-.5,2.329v.293a4.207,4.207,0,0,0,.5,2.344A1.722,1.722,0,0,0,12.915-2.08ZM25.073,0a3.134,3.134,0,0,1-.283-.947A3.415,3.415,0,0,1,22.124.2a3.752,3.752,0,0,1-2.573-.9A2.89,2.89,0,0,1,18.53-2.969a2.986,2.986,0,0,1,1.245-2.578,6.144,6.144,0,0,1,3.6-.908h1.3v-.605A1.741,1.741,0,0,0,24.3-8.232a1.479,1.479,0,0,0-1.187-.439,1.682,1.682,0,0,0-1.118.342,1.161,1.161,0,0,0-.405.938H18.765a2.835,2.835,0,0,1,.566-1.7,3.744,3.744,0,0,1,1.6-1.226,5.837,5.837,0,0,1,2.324-.444,4.611,4.611,0,0,1,3.1.981A3.433,3.433,0,0,1,27.5-7.021v4.58a5.052,5.052,0,0,0,.42,2.275V0ZM22.739-1.963a2.431,2.431,0,0,0,1.152-.278,1.828,1.828,0,0,0,.781-.747V-4.8H23.618Q21.5-4.8,21.362-3.34l-.01.166a1.13,1.13,0,0,0,.371.869A1.441,1.441,0,0,0,22.739-1.963ZM34.067-2.08a1.851,1.851,0,0,0,1.27-.43,1.506,1.506,0,0,0,.508-1.143h2.646a3.62,3.62,0,0,1-.586,1.968A3.866,3.866,0,0,1,36.328-.3,4.936,4.936,0,0,1,34.116.2a4.587,4.587,0,0,1-3.574-1.44,5.7,5.7,0,0,1-1.309-3.979V-5.41a5.635,5.635,0,0,1,1.3-3.9A4.534,4.534,0,0,1,34.1-10.762a4.444,4.444,0,0,1,3.179,1.128,3.994,3.994,0,0,1,1.216,3H35.845a1.923,1.923,0,0,0-.508-1.333,1.7,1.7,0,0,0-1.289-.513,1.7,1.7,0,0,0-1.489.718,4.155,4.155,0,0,0-.5,2.329v.293a4.207,4.207,0,0,0,.5,2.344A1.722,1.722,0,0,0,34.067-2.08ZM43.081,0H40.249V-10.566h2.832Zm-3-13.3a1.39,1.39,0,0,1,.425-1.045,1.6,1.6,0,0,1,1.157-.41,1.6,1.6,0,0,1,1.152.41,1.382,1.382,0,0,1,.43,1.045,1.386,1.386,0,0,1-.435,1.055,1.6,1.6,0,0,1-1.147.41,1.6,1.6,0,0,1-1.147-.41A1.386,1.386,0,0,1,40.083-13.3Zm4.883,7.92a6.267,6.267,0,0,1,.605-2.8,4.432,4.432,0,0,1,1.743-1.9,5.086,5.086,0,0,1,2.642-.674,4.812,4.812,0,0,1,3.491,1.309A5.252,5.252,0,0,1,54.956-5.9l.02.723a5.523,5.523,0,0,1-1.357,3.9A4.718,4.718,0,0,1,49.976.2,4.742,4.742,0,0,1,46.328-1.27a5.62,5.62,0,0,1-1.362-3.984Zm2.822.205a3.939,3.939,0,0,0,.566,2.3,1.869,1.869,0,0,0,1.621.8,1.874,1.874,0,0,0,1.6-.786,4.31,4.31,0,0,0,.576-2.515,3.9,3.9,0,0,0-.576-2.285,1.874,1.874,0,0,0-1.621-.811,1.843,1.843,0,0,0-1.6.806A4.383,4.383,0,0,0,47.788-5.176ZM50.513-15h3.076l-2.705,3.027H48.589Zm8.8,4.434L59.4-9.346a3.689,3.689,0,0,1,3.037-1.416,3.066,3.066,0,0,1,2.5.986,4.6,4.6,0,0,1,.84,2.949V0H62.954V-6.758a1.831,1.831,0,0,0-.391-1.3,1.749,1.749,0,0,0-1.3-.405,1.942,1.942,0,0,0-1.787,1.016V0H56.655V-10.566Z" transform="translate(962.599 1899.492)" fill="#12263f"/>
    <path id="Trazado_875908" data-name="Trazado 875908" d="M-60.683-7.264V0h-4.248V-20.617h8.043a9.305,9.305,0,0,1,4.085.85,6.261,6.261,0,0,1,2.712,2.414,6.732,6.732,0,0,1,.949,3.561,5.92,5.92,0,0,1-2.074,4.779,8.64,8.64,0,0,1-5.742,1.749Zm0-3.441h3.795a3.731,3.731,0,0,0,2.57-.793,2.884,2.884,0,0,0,.885-2.266,3.4,3.4,0,0,0-.892-2.45,3.332,3.332,0,0,0-2.464-.963h-3.894Zm22.8-.779a11.118,11.118,0,0,0-1.473-.113q-2.322,0-3.044,1.572V0h-4.092V-15.321h3.866l.113,1.827A3.792,3.792,0,0,1-39.1-15.6a4.288,4.288,0,0,1,1.274.184Zm.821,3.682a9.086,9.086,0,0,1,.878-4.064,6.427,6.427,0,0,1,2.528-2.761,7.374,7.374,0,0,1,3.83-.977,6.977,6.977,0,0,1,5.062,1.9,7.615,7.615,0,0,1,2.188,5.154L-22.55-7.5a8.008,8.008,0,0,1-1.968,5.657A6.842,6.842,0,0,1-29.8.283a6.876,6.876,0,0,1-5.289-2.124,8.149,8.149,0,0,1-1.975-5.777Zm4.092.3a5.712,5.712,0,0,0,.821,3.335A2.711,2.711,0,0,0-29.8-3.016a2.717,2.717,0,0,0,2.322-1.14A6.25,6.25,0,0,0-26.642-7.8a5.654,5.654,0,0,0-.835-3.313,2.717,2.717,0,0,0-2.351-1.175,2.673,2.673,0,0,0-2.322,1.168A6.355,6.355,0,0,0-32.972-7.5Zm12.305-.269A9.233,9.233,0,0,1-19.06-13.48a5.215,5.215,0,0,1,4.4-2.124,4.693,4.693,0,0,1,3.7,1.671V-21.75h4.106V0h-3.7l-.2-1.628A4.816,4.816,0,0,1-14.691.283a5.2,5.2,0,0,1-4.34-2.131A9.531,9.531,0,0,1-20.667-7.774Zm4.092.3a6.031,6.031,0,0,0,.75,3.3A2.446,2.446,0,0,0-13.643-3.03a2.739,2.739,0,0,0,2.676-1.6v-6.046a2.7,2.7,0,0,0-2.648-1.6Q-16.574-12.277-16.574-7.477ZM5.487-1.558A5.132,5.132,0,0,1,1.3.283a4.84,4.84,0,0,1-3.76-1.416A6.045,6.045,0,0,1-3.788-5.282v-10.04H.3v9.9Q.3-3.03,2.485-3.03a2.956,2.956,0,0,0,2.86-1.444V-15.321H9.452V0H5.6ZM18.911-3.016a2.684,2.684,0,0,0,1.841-.623A2.183,2.183,0,0,0,21.488-5.3h3.837a5.249,5.249,0,0,1-.85,2.853A5.606,5.606,0,0,1,22.189-.432a7.157,7.157,0,0,1-3.207.715A6.652,6.652,0,0,1,13.8-1.805a8.265,8.265,0,0,1-1.9-5.77v-.269a8.171,8.171,0,0,1,1.883-5.65,6.574,6.574,0,0,1,5.168-2.11,6.444,6.444,0,0,1,4.609,1.635,5.791,5.791,0,0,1,1.763,4.354H21.488a2.789,2.789,0,0,0-.736-1.933,2.462,2.462,0,0,0-1.869-.743,2.466,2.466,0,0,0-2.159,1.041,6.024,6.024,0,0,0-.729,3.377v.425a6.1,6.1,0,0,0,.722,3.4A2.5,2.5,0,0,0,18.911-3.016Zm13.65-16.072v3.767h2.62v3h-2.62v7.646a1.826,1.826,0,0,0,.326,1.218,1.636,1.636,0,0,0,1.246.368,6.526,6.526,0,0,0,1.2-.1v3.1a8.425,8.425,0,0,1-2.478.368q-4.3,0-4.39-4.347v-8.255H26.232v-3h2.237v-3.767ZM36.4-7.8a9.086,9.086,0,0,1,.878-4.064A6.427,6.427,0,0,1,39.8-14.627a7.374,7.374,0,0,1,3.83-.977,6.977,6.977,0,0,1,5.062,1.9,7.615,7.615,0,0,1,2.188,5.154L50.913-7.5a8.008,8.008,0,0,1-1.968,5.657A6.842,6.842,0,0,1,43.663.283a6.876,6.876,0,0,1-5.289-2.124A8.149,8.149,0,0,1,36.4-7.618Zm4.092.3a5.712,5.712,0,0,0,.821,3.335,2.711,2.711,0,0,0,2.351,1.154,2.717,2.717,0,0,0,2.322-1.14A6.25,6.25,0,0,0,46.821-7.8a5.654,5.654,0,0,0-.835-3.313,2.717,2.717,0,0,0-2.351-1.175,2.673,2.673,0,0,0-2.322,1.168A6.355,6.355,0,0,0,40.491-7.5Zm21.24,3.271a1.319,1.319,0,0,0-.743-1.182A8.444,8.444,0,0,0,58.6-6.188q-5.466-1.147-5.466-4.645a4.21,4.21,0,0,1,1.692-3.406A6.826,6.826,0,0,1,59.253-15.6a7.347,7.347,0,0,1,4.666,1.374,4.329,4.329,0,0,1,1.749,3.568H61.575a1.98,1.98,0,0,0-.566-1.451,2.4,2.4,0,0,0-1.77-.573,2.449,2.449,0,0,0-1.6.467,1.475,1.475,0,0,0-.566,1.189,1.261,1.261,0,0,0,.644,1.1,6.628,6.628,0,0,0,2.174.722,17.753,17.753,0,0,1,2.577.687Q65.71-7.335,65.71-4.4a4,4,0,0,1-1.8,3.391,7.758,7.758,0,0,1-4.645,1.3A8.1,8.1,0,0,1,55.848-.4,5.738,5.738,0,0,1,53.5-2.287a4.376,4.376,0,0,1-.85-2.584h3.88A2.136,2.136,0,0,0,57.342-3.2a3.2,3.2,0,0,0,2.011.581,2.963,2.963,0,0,0,1.777-.446A1.388,1.388,0,0,0,61.731-4.234Z" transform="translate(848.073 1510.093)" fill="#12263f"/>
    <path id="Trazado_875907" data-name="Trazado 875907" d="M-55.48-19.906l5.113,14.438,5.086-14.437h5.387V0H-44.01V-5.441l.41-9.393L-48.973,0h-2.816l-5.359-14.82.41,9.379V0h-4.1V-19.906ZM-29.764.273a7.262,7.262,0,0,1-5.3-2,7.1,7.1,0,0,1-2.044-5.318v-.383a8.936,8.936,0,0,1,.861-3.985,6.321,6.321,0,0,1,2.44-2.707,6.85,6.85,0,0,1,3.6-.95,6.139,6.139,0,0,1,4.778,1.914A7.778,7.778,0,0,1-23.68-7.725v1.613H-33.1a3.671,3.671,0,0,0,1.155,2.324,3.492,3.492,0,0,0,2.44.875,4.265,4.265,0,0,0,3.568-1.654l1.941,2.174A5.931,5.931,0,0,1-26.4-.431,7.9,7.9,0,0,1-29.764.273Zm-.451-12.141a2.474,2.474,0,0,0-1.907.793,4.1,4.1,0,0,0-.937,2.27h5.5v-.314a2.921,2.921,0,0,0-.711-2.03A2.554,2.554,0,0,0-30.215-11.867Zm17.09.779a10.734,10.734,0,0,0-1.422-.109A2.894,2.894,0,0,0-17.486-9.68V0h-3.951V-14.793h3.732l.109,1.764A3.661,3.661,0,0,1-14.3-15.066a4.14,4.14,0,0,1,1.23.178Zm7.793,8.176a2.592,2.592,0,0,0,1.777-.6,2.108,2.108,0,0,0,.711-1.6H.861a5.068,5.068,0,0,1-.82,2.755A5.413,5.413,0,0,1-2.167-.417a6.91,6.91,0,0,1-3.1.69,6.422,6.422,0,0,1-5-2.017A7.98,7.98,0,0,1-12.1-7.314v-.26a7.889,7.889,0,0,1,1.818-5.455,6.347,6.347,0,0,1,4.99-2.037,6.222,6.222,0,0,1,4.45,1.579,5.591,5.591,0,0,1,1.7,4.2H-2.844a2.693,2.693,0,0,0-.711-1.866,2.377,2.377,0,0,0-1.8-.718,2.381,2.381,0,0,0-2.085,1,5.817,5.817,0,0,0-.7,3.261v.41a5.89,5.89,0,0,0,.7,3.281A2.411,2.411,0,0,0-5.332-2.912ZM11.689,0a4.388,4.388,0,0,1-.4-1.326A4.781,4.781,0,0,1,7.561.273a5.252,5.252,0,0,1-3.6-1.258A4.045,4.045,0,0,1,2.529-4.156,4.18,4.18,0,0,1,4.272-7.766,8.6,8.6,0,0,1,9.311-9.037h1.818v-.848a2.438,2.438,0,0,0-.526-1.641,2.071,2.071,0,0,0-1.661-.615,2.354,2.354,0,0,0-1.565.479,1.626,1.626,0,0,0-.567,1.313H2.857a3.969,3.969,0,0,1,.793-2.379,5.242,5.242,0,0,1,2.242-1.716,8.171,8.171,0,0,1,3.254-.622,6.456,6.456,0,0,1,4.341,1.374A4.807,4.807,0,0,1,15.094-9.83v6.412a7.072,7.072,0,0,0,.588,3.186V0ZM8.422-2.748a3.4,3.4,0,0,0,1.613-.39,2.559,2.559,0,0,0,1.094-1.046V-6.727H9.652q-2.967,0-3.158,2.051l-.014.232A1.582,1.582,0,0,0,7-3.227,2.018,2.018,0,0,0,8.422-2.748Zm9.092-4.758a8.915,8.915,0,0,1,1.552-5.51,5.035,5.035,0,0,1,4.245-2.051,4.531,4.531,0,0,1,3.568,1.613V-21h3.965V0H27.275l-.191-1.572a4.65,4.65,0,0,1-3.8,1.846,5.021,5.021,0,0,1-4.19-2.058A9.2,9.2,0,0,1,17.514-7.506Zm3.951.287a5.824,5.824,0,0,0,.725,3.186,2.361,2.361,0,0,0,2.105,1.107,2.644,2.644,0,0,0,2.584-1.545v-5.838a2.606,2.606,0,0,0-2.557-1.545Q21.465-11.854,21.465-7.219Zm11.826-.314a8.773,8.773,0,0,1,.848-3.924,6.205,6.205,0,0,1,2.44-2.666,7.12,7.12,0,0,1,3.7-.943,6.736,6.736,0,0,1,4.888,1.832,7.353,7.353,0,0,1,2.112,4.977L47.3-7.246a7.732,7.732,0,0,1-1.9,5.462A6.606,6.606,0,0,1,40.3.273,6.639,6.639,0,0,1,35.2-1.777a7.868,7.868,0,0,1-1.907-5.578Zm3.951.287a5.515,5.515,0,0,0,.793,3.22A2.617,2.617,0,0,0,40.3-2.912a2.623,2.623,0,0,0,2.242-1.1,6.034,6.034,0,0,0,.807-3.521,5.459,5.459,0,0,0-.807-3.2,2.623,2.623,0,0,0-2.27-1.135,2.581,2.581,0,0,0-2.242,1.128A6.136,6.136,0,0,0,37.242-7.246ZM57.75-4.088a1.273,1.273,0,0,0-.718-1.142,8.153,8.153,0,0,0-2.3-.745q-5.277-1.107-5.277-4.484a4.065,4.065,0,0,1,1.634-3.288,6.59,6.59,0,0,1,4.272-1.319,7.093,7.093,0,0,1,4.5,1.326,4.179,4.179,0,0,1,1.688,3.445H57.6a1.912,1.912,0,0,0-.547-1.4,2.314,2.314,0,0,0-1.709-.554A2.365,2.365,0,0,0,53.8-11.8a1.424,1.424,0,0,0-.547,1.148,1.217,1.217,0,0,0,.622,1.06,6.4,6.4,0,0,0,2.1.7,17.141,17.141,0,0,1,2.488.663q3.131,1.148,3.131,3.979A3.859,3.859,0,0,1,59.855-.978,7.49,7.49,0,0,1,55.371.273a7.823,7.823,0,0,1-3.3-.663,5.54,5.54,0,0,1-2.263-1.818,4.225,4.225,0,0,1-.82-2.5h3.746a2.063,2.063,0,0,0,.779,1.613,3.091,3.091,0,0,0,1.941.561,2.861,2.861,0,0,0,1.716-.431A1.34,1.34,0,0,0,57.75-4.088Z" transform="translate(577 1807.23) rotate(-90)" fill="#12263f"/>
    <path id="Trazado_875905" data-name="Trazado 875905" d="M0,381.77V0" transform="translate(612.518 1601.942)" fill="none" stroke="#12263f" stroke-width="2"/>
    <path id="Trazado_875906" data-name="Trazado 875906" d="M0,0H381.77" transform="translate(669.849 1544.61)" fill="none" stroke="#12263f" stroke-width="2"/>
  </g>
</svg>
