<svg xmlns="http://www.w3.org/2000/svg" width="129.737" height="110.976" viewBox="0 0 129.737 110.976">
  <g id="Grupo_1100012" data-name="Grupo 1100012" transform="translate(-652.995 -2581.833)">
    <path id="_12068" data-name="12068" d="M98.737,72.292c-13.285-1.834-27.318-1.386-39.407,4.421-16.765,8.052-27.775,26.309-28.2,44.9S40.4,158.479,55.36,169.523s34.7,14.959,53,11.643c18.453-3.344,35.773-14.186,45.4-30.28,6.172-10.321,9.057-23.065,5.647-34.6-2.059-6.961-6.267-13.128-11.217-18.437A82.875,82.875,0,0,0,98.737,72.292Z" transform="translate(621.876 2510.501)" fill="#26aab7"/>
    <g id="humano" transform="translate(669.995 2580.834)">
      <g id="Grupo_1099513" data-name="Grupo 1099513" transform="translate(2.485 2.485)">
        <g id="Grupo_1099469" data-name="Grupo 1099469" transform="translate(12.031 8.912)">
          <path id="Trazado_873778" data-name="Trazado 873778" d="M24.656,13.941H10.1a7.429,7.429,0,0,1,14.556,0Z" transform="translate(-10.1 -8)" fill="#656d78"/>
        </g>
        <g id="Grupo_1099470" data-name="Grupo 1099470" transform="translate(37.282)">
          <path id="Trazado_873779" data-name="Trazado 873779" d="M41.656,7.941H27.1a7.429,7.429,0,0,1,14.556,0Z" transform="translate(-27.1 -2)" fill="#b27946"/>
        </g>
        <g id="Grupo_1099471" data-name="Grupo 1099471" transform="translate(62.533 8.912)">
          <path id="Trazado_873780" data-name="Trazado 873780" d="M53.487,8.3a7.437,7.437,0,0,1,5.169,5.644H44.1A7.427,7.427,0,0,1,51.378,8,7.617,7.617,0,0,1,53.487,8.3Z" transform="translate(-44.1 -8)" fill="#e6e9ed"/>
        </g>
        <g id="Grupo_1099472" data-name="Grupo 1099472" transform="translate(71.92 5.941)">
          <path id="Trazado_873781" data-name="Trazado 873781" d="M61.679,11.941a5.94,5.94,0,0,1-5.941,5.941h-.149a7.5,7.5,0,0,0,0-2.971A7.437,7.437,0,0,0,50.42,9.268a5.949,5.949,0,0,1,11.259,2.674Z" transform="translate(-50.42 -6)" fill="#e6e9ed"/>
        </g>
        <g id="Grupo_1099473" data-name="Grupo 1099473" transform="translate(9.061 23.914)">
          <path id="Trazado_873782" data-name="Trazado 873782" d="M13.893,19.437a4.45,4.45,0,0,0,4.456,4.456H8.1A7.421,7.421,0,0,1,13.893,18.1Z" transform="translate(-8.1 -18.1)" fill="#b4dd7f"/>
        </g>
        <g id="Grupo_1099474" data-name="Grupo 1099474" transform="translate(19.309 23.914)">
          <path id="Trazado_873783" data-name="Trazado 873783" d="M25.353,24.591a15.771,15.771,0,0,0-1.159,3.728,8.949,8.949,0,0,0-7.709-4.426H15a4.463,4.463,0,0,0,4.456-4.456V18.1a7.435,7.435,0,0,1,5.9,6.491Z" transform="translate(-15 -18.1)" fill="#b4dd7f"/>
        </g>
        <g id="Grupo_1099475" data-name="Grupo 1099475" transform="translate(69.811 23.914)">
          <path id="Trazado_873784" data-name="Trazado 873784" d="M59.4,25.378V26.8a9.97,9.97,0,0,0-7.055-2.911H49a4.463,4.463,0,0,0,4.456-4.456V18.1A7.427,7.427,0,0,1,59.4,25.378Z" transform="translate(-49 -18.1)" fill="#b4dd7f"/>
        </g>
        <g id="Grupo_1099476" data-name="Grupo 1099476" transform="translate(59.458 23.914)">
          <path id="Trazado_873785" data-name="Trazado 873785" d="M52.383,23.893h-.371a10,10,0,0,0-8.7,5.065h-.015a16.075,16.075,0,0,0-1.263-4.367,7.435,7.435,0,0,1,5.9-6.491v1.337a4.45,4.45,0,0,0,4.456,4.456Z" transform="translate(-42.03 -18.1)" fill="#b4dd7f"/>
        </g>
        <g id="Grupo_1099477" data-name="Grupo 1099477" transform="translate(34.163 15.002)">
          <path id="Trazado_873786" data-name="Trazado 873786" d="M30.941,13.437A4.45,4.45,0,0,0,35.4,17.893,16.264,16.264,0,0,0,25,21.621V19.378A7.427,7.427,0,0,1,30.941,12.1Z" transform="translate(-25 -12.1)" fill="#ff826e"/>
        </g>
        <g id="Grupo_1099478" data-name="Grupo 1099478" transform="translate(44.56 15.002)">
          <path id="Trazado_873787" data-name="Trazado 873787" d="M42.4,19.378v2.243A16.264,16.264,0,0,0,32,17.893a4.463,4.463,0,0,0,4.456-4.456V12.1A7.4,7.4,0,0,1,42.4,19.378Z" transform="translate(-32 -12.1)" fill="#ff826e"/>
        </g>
        <g id="Grupo_1099479" data-name="Grupo 1099479" transform="translate(0 59.012)">
          <path id="Trazado_873788" data-name="Trazado 873788" d="M12.888,47.077l3.476,6.446,3.461,6.431V71.838H2V51.7a10.207,10.207,0,0,1,4.085-8.169,10.049,10.049,0,0,1,3.921-1.8Z" transform="translate(-2 -41.73)" fill="#ff826e"/>
        </g>
        <g id="Grupo_1099480" data-name="Grupo 1099480" transform="translate(17.824 71.727)">
          <path id="Trazado_873789" data-name="Trazado 873789" d="M19.941,55.8V67.683H14V55.8l2.971-5.511v4.025A1.49,1.49,0,0,0,18.456,55.8Z" transform="translate(-14 -50.29)" fill="#ff826e"/>
        </g>
        <g id="Grupo_1099481" data-name="Grupo 1099481" transform="translate(14.363 66.84)">
          <path id="Trazado_873790" data-name="Trazado 873790" d="M13.645,47h4.946a15.481,15.481,0,0,0-.49,3.832v1.055L15.131,57.4,11.67,50.966Z" transform="translate(-11.67 -47)" fill="#e6e9ed"/>
        </g>
        <g id="Grupo_1099482" data-name="Grupo 1099482" transform="translate(14.853 60.899)">
          <path id="Trazado_873791" data-name="Trazado 873791" d="M14.971,43l4.9,2.451a14.371,14.371,0,0,0-1.426,3.491H13.485L12,44.485Z" transform="translate(-12 -43)" fill="#ccd1d9"/>
        </g>
        <g id="Grupo_1099483" data-name="Grupo 1099483" transform="translate(10.888 62.384)">
          <path id="Trazado_873792" data-name="Trazado 873792" d="M14.781,48.456l-1.975,3.966L9.33,45.975,13.3,44Z" transform="translate(-9.33 -44)" fill="#fcd770"/>
        </g>
        <g id="Grupo_1099484" data-name="Grupo 1099484" transform="translate(17.824 57.928)">
          <path id="Trazado_873793" data-name="Trazado 873793" d="M18.456,41l4.426.891a14.547,14.547,0,0,0-3.981,4.53L14,43.971Z" transform="translate(-14 -41)" fill="#ffc729"/>
        </g>
        <g id="Grupo_1099485" data-name="Grupo 1099485" transform="translate(8.006 57.928)">
          <path id="Trazado_873794" data-name="Trazado 873794" d="M17.208,43.971l-2.971,1.485-3.966,1.975L7.39,42.084a1.094,1.094,0,0,1,.208-.059L12.752,41Z" transform="translate(-7.39 -41)" fill="#ffc729"/>
        </g>
        <g id="Grupo_1099486" data-name="Grupo 1099486" transform="translate(5.941 29.707)">
          <path id="Trazado_873795" data-name="Trazado 873795" d="M28.28,37.655A11.138,11.138,0,0,1,26.215,40.3l-1.055,1.01a7,7,0,0,0,.149-1.485V37.032a5.955,5.955,0,0,0-4.5-5.763l-.98-.238-.015-.015a5.074,5.074,0,0,1-3.372,2.005l-3.431.49a2.985,2.985,0,0,0-2.555,2.941v3.372a7,7,0,0,0,.149,1.485L9.55,40.3A11.345,11.345,0,0,1,6,32.026V24.971A2.979,2.979,0,0,1,8.971,22H20.853a8.949,8.949,0,0,1,7.709,4.426,15.449,15.449,0,0,0-.282,3Z" transform="translate(-6 -22)" fill="#b27946"/>
        </g>
        <g id="Grupo_1099487" data-name="Grupo 1099487" transform="translate(60.721 29.707)">
          <path id="Trazado_873796" data-name="Trazado 873796" d="M60.882,36.452a2.985,2.985,0,0,0-2.555-2.941l-3.431-.49a5.073,5.073,0,0,1-3.372-2.005l-.015.015-.98.238a5.955,5.955,0,0,0-4.5,5.763v2.792a7,7,0,0,0,.149,1.485L45.123,40.3a11.138,11.138,0,0,1-2.065-2.644V29.427a15.51,15.51,0,0,0-.178-2.362h.015A10,10,0,0,1,51.6,22h3.713A10.041,10.041,0,0,1,65.338,32.026a11.345,11.345,0,0,1-3.55,8.273l-1.055,1.01a7,7,0,0,0,.149-1.485Z" transform="translate(-42.88 -22)" fill="#b27946"/>
        </g>
        <g id="Grupo_1099488" data-name="Grupo 1099488" transform="translate(71.296 59.012)">
          <path id="Trazado_873797" data-name="Trazado 873797" d="M61.883,71.838H50V59.955l3.461-6.431,3.476-6.446,2.882-5.347a10.181,10.181,0,0,1,6.922,5.392A10.268,10.268,0,0,1,67.824,51.7V71.838Z" transform="translate(-50 -41.73)" fill="#e6e9ed"/>
        </g>
        <g id="Grupo_1099489" data-name="Grupo 1099489" transform="translate(65.355 71.727)">
          <path id="Trazado_873798" data-name="Trazado 873798" d="M51.941,55.8V67.683H46V55.8h1.485a1.49,1.49,0,0,0,1.485-1.485V50.29Z" transform="translate(-46 -50.29)" fill="#e6e9ed"/>
        </g>
        <g id="Grupo_1099490" data-name="Grupo 1099490" transform="translate(67.835 66.84)">
          <path id="Trazado_873799" data-name="Trazado 873799" d="M52.616,47l1.976,3.966L51.131,57.4,48.16,51.887V50.832A15.48,15.48,0,0,0,47.67,47Z" transform="translate(-47.67 -47)" fill="#fcd770"/>
        </g>
        <g id="Grupo_1099491" data-name="Grupo 1099491" transform="translate(66.395 60.899)">
          <path id="Trazado_873800" data-name="Trazado 873800" d="M54.572,44.485l-1.485,4.456H48.126A14.372,14.372,0,0,0,46.7,45.451L51.6,43Z" transform="translate(-46.7 -43)" fill="#ffc729"/>
        </g>
        <g id="Grupo_1099492" data-name="Grupo 1099492" transform="translate(72.781 62.384)">
          <path id="Trazado_873801" data-name="Trazado 873801" d="M56.451,45.975l-3.476,6.446L51,48.456,52.485,44Z" transform="translate(-51 -44)" fill="#ff826e"/>
        </g>
        <g id="Grupo_1099493" data-name="Grupo 1099493" transform="translate(71.296 57.928)">
          <path id="Trazado_873802" data-name="Trazado 873802" d="M59.818,42.084l-2.882,5.347-3.966-1.976L50,43.971,54.456,41l5.154,1.025a1.093,1.093,0,0,1,.208.059Z" transform="translate(-50 -41)" fill="#fc6e51"/>
        </g>
        <g id="Grupo_1099494" data-name="Grupo 1099494" transform="translate(62.414 57.928)">
          <path id="Trazado_873803" data-name="Trazado 873803" d="M52.9,43.971,48,46.421a14.547,14.547,0,0,0-3.981-4.53L48.446,41Z" transform="translate(-44.02 -41)" fill="#fc6e51"/>
        </g>
        <g id="Grupo_1099495" data-name="Grupo 1099495" transform="translate(23.765 77.237)">
          <path id="Trazado_873804" data-name="Trazado 873804" d="M26.912,61.427v4.456H18V54h6.253a17.825,17.825,0,0,0,.891,3Z" transform="translate(-18 -54)" fill="#f0d0b4"/>
        </g>
        <g id="Grupo_1099496" data-name="Grupo 1099496" transform="translate(56.443 77.237)">
          <path id="Trazado_873805" data-name="Trazado 873805" d="M48.912,54V65.883H40V61.427L41.768,57a17.826,17.826,0,0,0,.891-3Z" transform="translate(-40 -54)" fill="#f0d0b4"/>
        </g>
        <g id="Grupo_1099497" data-name="Grupo 1099497" transform="translate(20.795 55.804)">
          <path id="Trazado_873806" data-name="Trazado 873806" d="M25.224,61H17.485A1.49,1.49,0,0,1,16,59.518v-5.08a15.481,15.481,0,0,1,.49-3.832h.015a14.371,14.371,0,0,1,1.426-3.491,14.547,14.547,0,0,1,3.981-4.53,10.388,10.388,0,0,1,1.53-1A14.93,14.93,0,0,1,28.6,39.763l1.233-.193,4.337,8.065,5.6,10.4V72.886H27.883V68.43L26.115,64a17.825,17.825,0,0,1-.891-3Z" transform="translate(-16 -39.57)" fill="#aee6e6"/>
        </g>
        <g id="Grupo_1099498" data-name="Grupo 1099498" transform="translate(44.56 55.804)">
          <path id="Trazado_873807" data-name="Trazado 873807" d="M46.541,61a17.826,17.826,0,0,1-.891,3L43.883,68.43v4.456H32V58.033l5.6-10.4,4.337-8.065,1.233.193a14.93,14.93,0,0,1,5.154,1.827,10.387,10.387,0,0,1,1.53,1,14.547,14.547,0,0,1,3.981,4.53,14.371,14.371,0,0,1,1.426,3.491h.015a15.481,15.481,0,0,1,.49,3.832v5.08A1.49,1.49,0,0,1,54.28,61H46.541Z" transform="translate(-32 -39.57)" fill="#aee6e6"/>
        </g>
        <g id="Grupo_1099499" data-name="Grupo 1099499" transform="translate(38.96 63.869)">
          <path id="Trazado_873808" data-name="Trazado 873808" d="M39.429,45l-5.6,10.4L28.23,45Z" transform="translate(-28.23 -45)" fill="#ffeaa7"/>
        </g>
        <g id="Grupo_1099500" data-name="Grupo 1099500" transform="translate(28.221 20.795)">
          <path id="Trazado_873809" data-name="Trazado 873809" d="M37.339,24.912a12.969,12.969,0,0,1-8.229,5.511l-2.169.431v5.941a10.4,10.4,0,0,0,5.941,9.387v.163a4.443,4.443,0,0,1-3.773,4.4l-1.708.267-1.233.193a14.93,14.93,0,0,0-5.154,1.827L21,53.015V32.339a15.449,15.449,0,0,1,.282-3,15.771,15.771,0,0,1,1.159-3.728,16.356,16.356,0,0,1,25.3-5.882,15.46,15.46,0,0,1,1.159,1.055,16.334,16.334,0,0,1,3.342,4.827A16.074,16.074,0,0,1,53.5,29.977a15.509,15.509,0,0,1,.178,2.362V53.015l-.015.015A14.93,14.93,0,0,0,48.508,51.2l-1.233-.193-1.708-.267a4.443,4.443,0,0,1-3.773-4.4V46.3a10.1,10.1,0,0,0,5.941-9.194V30.853l-2.169-.431a13.02,13.02,0,0,1-8.229-5.511Z" transform="translate(-21 -16)" fill="#ffd947"/>
        </g>
        <g id="Grupo_1099501" data-name="Grupo 1099501" transform="translate(14.853 23.765)">
          <path id="Trazado_873810" data-name="Trazado 873810" d="M20.912,18.149v1.337a4.456,4.456,0,1,1-8.912,0V18.149A7,7,0,0,1,13.485,18h5.941A7,7,0,0,1,20.912,18.149Z" transform="translate(-12 -18)" fill="#f0d0b4"/>
        </g>
        <g id="Grupo_1099502" data-name="Grupo 1099502" transform="translate(11.883 14.853)">
          <path id="Trazado_873811" data-name="Trazado 873811" d="M24.7,12a7,7,0,0,1,.149,1.485,7.427,7.427,0,1,1-14.853,0A7,7,0,0,1,10.149,12Z" transform="translate(-10 -12)" fill="#f0d0b4"/>
        </g>
        <g id="Grupo_1099503" data-name="Grupo 1099503" transform="translate(40.104 14.853)">
          <path id="Trazado_873812" data-name="Trazado 873812" d="M37.912,12.149v1.337a4.456,4.456,0,1,1-8.912,0V12.149A7,7,0,0,1,30.485,12h5.941A7,7,0,0,1,37.912,12.149Z" transform="translate(-29 -12)" fill="#f0d0b4"/>
        </g>
        <g id="Grupo_1099504" data-name="Grupo 1099504" transform="translate(37.133 5.941)">
          <path id="Trazado_873813" data-name="Trazado 873813" d="M41.7,6a7,7,0,0,1,.149,1.485A7.427,7.427,0,0,1,27,7.485,7,7,0,0,1,27.149,6Z" transform="translate(-27 -6)" fill="#f0d0b4"/>
        </g>
        <g id="Grupo_1099505" data-name="Grupo 1099505" transform="translate(65.355 23.765)">
          <path id="Trazado_873814" data-name="Trazado 873814" d="M54.912,18.149v1.337a4.456,4.456,0,1,1-8.912,0V18.149A7,7,0,0,1,47.485,18h5.941A7,7,0,0,1,54.912,18.149Z" transform="translate(-46 -18)" fill="#f0d0b4"/>
        </g>
        <g id="Grupo_1099506" data-name="Grupo 1099506" transform="translate(62.384 14.853)">
          <path id="Trazado_873815" data-name="Trazado 873815" d="M58.7,14.971A7.428,7.428,0,0,1,44,13.485,7,7,0,0,1,44.149,12H58.7a7.5,7.5,0,0,1,0,2.971Z" transform="translate(-44 -12)" fill="#f0d0b4"/>
        </g>
        <g id="Grupo_1099507" data-name="Grupo 1099507" transform="translate(66.84 54.081)">
          <path id="Trazado_873816" data-name="Trazado 873816" d="M51.456,39.286a7.286,7.286,0,0,0,3.491-.876l.965,3.847-4.456,2.971L47,42.257l.965-3.847Z" transform="translate(-47 -38.41)" fill="#f0d0b4"/>
        </g>
        <g id="Grupo_1099508" data-name="Grupo 1099508" transform="translate(63.869 38.723)">
          <path id="Trazado_873817" data-name="Trazado 873817" d="M50.5,28.07a5.074,5.074,0,0,0,3.372,2.005l3.431.49a2.985,2.985,0,0,1,2.555,2.941v3.372a7,7,0,0,1-.149,1.485,7.4,7.4,0,0,1-3.788,5.065,7.286,7.286,0,0,1-3.491.876l-3.491-.876a7.215,7.215,0,0,1-1.768-1.292,7.494,7.494,0,0,1-2.02-3.773A7,7,0,0,1,45,36.878V34.086a5.955,5.955,0,0,1,4.5-5.763l.98-.238Z" transform="translate(-45 -28.07)" fill="#f0d0b4"/>
        </g>
        <g id="Grupo_1099509" data-name="Grupo 1099509" transform="translate(13.368 54.081)">
          <path id="Trazado_873818" data-name="Trazado 873818" d="M19.912,42.257l-4.456,2.971L11,42.257l.965-3.847a7.286,7.286,0,0,0,3.491.876l3.491-.876Z" transform="translate(-11 -38.41)" fill="#f0d0b4"/>
        </g>
        <g id="Grupo_1099510" data-name="Grupo 1099510" transform="translate(10.397 38.723)">
          <path id="Trazado_873819" data-name="Trazado 873819" d="M19.353,28.323a5.955,5.955,0,0,1,4.5,5.763v2.792a7,7,0,0,1-.149,1.485,7.494,7.494,0,0,1-2.02,3.773,7.215,7.215,0,0,1-1.768,1.292l-3.491.876a7.286,7.286,0,0,1-3.491-.876,7.4,7.4,0,0,1-3.788-5.065A7,7,0,0,1,9,36.878V33.506a2.985,2.985,0,0,1,2.555-2.941l3.431-.49a5.074,5.074,0,0,0,3.372-2.005l.015.015Z" transform="translate(-9 -28.07)" fill="#f0d0b4"/>
        </g>
        <g id="Grupo_1099511" data-name="Grupo 1099511" transform="translate(34.623 50.977)">
          <path id="Trazado_873820" data-name="Trazado 873820" d="M45.184,41.147l-4.337,8.065h-11.2L25.31,41.147l1.708-.267a4.443,4.443,0,0,0,3.773-4.4V36.32a10.361,10.361,0,0,0,4.5,1.01h.267a9.93,9.93,0,0,0,4.144-.891v.045a4.443,4.443,0,0,0,3.773,4.4Z" transform="translate(-25.31 -36.32)" fill="#f0d0b4"/>
        </g>
        <g id="Grupo_1099512" data-name="Grupo 1099512" transform="translate(34.163 29.707)">
          <path id="Trazado_873821" data-name="Trazado 873821" d="M45.795,27.941v6.253a10.1,10.1,0,0,1-5.941,9.194,9.93,9.93,0,0,1-4.144.891h-.267A10.416,10.416,0,0,1,25,33.883V27.941l2.169-.431A12.969,12.969,0,0,0,35.4,22a13.02,13.02,0,0,0,8.229,5.511Z" transform="translate(-25 -22)" fill="#f0d0b4"/>
        </g>
      </g>
      <g id="Grupo_1099514" data-name="Grupo 1099514" transform="translate(1 1)">
        <path id="Trazado_873822" data-name="Trazado 873822" d="M88.411,62.1a11.8,11.8,0,0,0-4.728-2.114L79.45,59.14l-.474-1.9a8.928,8.928,0,0,0,3.413-4.957l.755-.719a12.9,12.9,0,0,0,4.006-9.346,11.454,11.454,0,0,0-2.971-7.693v-.851a8.917,8.917,0,0,0-5.814-8.345,8.927,8.927,0,0,0,2.36-3.639A7.41,7.41,0,1,0,73.7,10.034a8.894,8.894,0,0,0-7.474,15.3,8.858,8.858,0,0,0-4.657,3.991,17.988,17.988,0,0,0-2.639-2.95V24.765a8.917,8.917,0,0,0-5.814-8.345,8.912,8.912,0,1,0-12.138,0,8.917,8.917,0,0,0-5.814,8.345v1.606a17.978,17.978,0,0,0-2.639,2.948,8.868,8.868,0,0,0-4.658-3.991,8.911,8.911,0,1,0-12.14,0,8.931,8.931,0,0,0-5.318,5.494,4.458,4.458,0,0,0-3.467,4.337v7.058a12.909,12.909,0,0,0,4,9.344l.756.72a8.933,8.933,0,0,0,3.413,4.957l-.474,1.9-4.233.847A11.705,11.705,0,0,0,1,71.463V93.091H93.091V71.463a11.765,11.765,0,0,0-4.68-9.362ZM28.917,52.287l.3-.291v7.456c-.134.086-.272.166-.4.257l-2.841-.567-.474-1.9a8.933,8.933,0,0,0,3.413-4.957Zm-3.84,9.7.936.187A15.951,15.951,0,0,0,24.654,63.9l-1.39-.7ZM19.895,67.84l-.74-2.218,1.154-.578,2.9,1.448q-.292.659-.526,1.346H19.895Zm-3.424-.876.749,2.247-.425.85-1.383-2.568Zm3.271,3.847h2.232a16.728,16.728,0,0,0-.18,2.345v.674l-1.485,2.758L18.518,73.26ZM21.795,80.1l.307-.57a2.965,2.965,0,0,0,2.663,1.681V90.12H21.795Zm5.941,1.111h3.6a18.4,18.4,0,0,0,.67,2.06l1.667,4.166V90.12H27.736Zm7.033.957a15.267,15.267,0,0,1-.31-10.491l.627-1.879-2.816-.94-.628,1.879a18.245,18.245,0,0,0-.934,5.765q0,.876.083,1.739H24.765V73.156A13.3,13.3,0,0,1,36.1,59.943l.19-.03L45.56,77.126V90.12H36.648V86.864ZM47.045,34.619a14.306,14.306,0,0,0,7.93,4.536l.982.2v5.034a8.611,8.611,0,0,1-8.6,8.6H47.1a8.949,8.949,0,0,1-8.963-8.915v-4.72l.982-.2a14.306,14.306,0,0,0,7.93-4.536ZM43.764,55.478a11.978,11.978,0,0,0,3.332.48h.261a11.555,11.555,0,0,0,2.99-.405A5.879,5.879,0,0,0,54.7,59.4l-2.942,5.465H42.334L39.391,59.4a5.873,5.873,0,0,0,4.373-3.927ZM47.045,73.62,43.934,67.84h6.224Zm1.485,3.508L57.8,59.914l.19.03A13.3,13.3,0,0,1,69.325,73.156v5.081H63.3q.08-.864.082-1.739a18.2,18.2,0,0,0-.936-5.765l-.627-1.879-2.816.94.625,1.877a15.259,15.259,0,0,1-.309,10.492l-1.879,4.7V90.12H48.531ZM64.869,52l.3.29a8.933,8.933,0,0,0,3.413,4.957l-.474,1.9-2.841.567c-.131-.091-.269-.171-.4-.257ZM74.2,67.84H71.409q-.234-.688-.526-1.346l2.9-1.45,1.154.578ZM69.437,63.9a16.327,16.327,0,0,0-1.359-1.719l.936-.187L70.829,63.2Zm-9.023,23.54,1.667-4.166a18.008,18.008,0,0,0,.67-2.06h3.6V90.12H60.413Zm8.912-6.227a2.965,2.965,0,0,0,2.663-1.681l.307.57V90.12H69.325Zm4.456-4.619L72.3,73.83v-.674a16.507,16.507,0,0,0-.181-2.345h2.232l1.225,2.451ZM77.3,70.062l-.425-.85.749-2.247,1.059.53Zm4.046-7.513-1.254,2.328L76.736,63.2l1.815-1.209Zm-4.8-2.791L73.781,61.6,71.02,59.757l.3-1.184a8.74,8.74,0,0,0,4.931,0Zm3.18-9.742a5.941,5.941,0,1,1-11.883,0V47.228a4.449,4.449,0,0,1,3.376-4.322l.122-.031a6.585,6.585,0,0,0,3.673,1.815l3.436.492a1.49,1.49,0,0,1,1.276,1.469Zm3.947-4.652a9.93,9.93,0,0,1-.976,2.068V46.65a4.476,4.476,0,0,0-3.825-4.41l-3.436-.492A3.669,3.669,0,0,1,72.3,38.133H69.325a6.56,6.56,0,0,0,.359,2.142,7.416,7.416,0,0,0-4.815,6.953V39.619a17.793,17.793,0,0,0-.12-2,8.559,8.559,0,0,1,7.179-3.942h3.707a8.554,8.554,0,0,1,8.544,8.544,9.9,9.9,0,0,1-.509,3.143Zm-8.4-17.628a2.971,2.971,0,1,1-5.941,0Zm5.674,4.276a11.417,11.417,0,0,0-3.606-1.166,5.874,5.874,0,0,0,.823-2.328A5.927,5.927,0,0,1,80.941,32.012ZM72.3,24.765a5.947,5.947,0,0,1-5.941-5.941H78.237A5.947,5.947,0,0,1,72.3,24.765ZM79.723,9.912a4.434,4.434,0,0,1,1.47,8.625,8.909,8.909,0,0,0-4.483-7.445A4.432,4.432,0,0,1,79.723,9.912ZM72.3,12.883a5.922,5.922,0,0,1,5.116,2.971H67.182A5.918,5.918,0,0,1,72.3,12.883ZM66.432,28.5a5.883,5.883,0,0,0,1.315,3.009,11.6,11.6,0,0,0-3.816,2.443c-.14-.416-.282-.829-.452-1.23A5.9,5.9,0,0,1,66.432,28.5ZM55.9,24.17a17.715,17.715,0,0,0-4.171-1.73,5.871,5.871,0,0,0,1.181-2.833A5.913,5.913,0,0,1,55.9,24.17ZM44.075,18.824h5.941a2.971,2.971,0,1,1-5.941,0Zm2.971-2.971A5.947,5.947,0,0,1,41.1,9.912H52.987A5.947,5.947,0,0,1,47.045,15.853Zm0-11.883a5.922,5.922,0,0,1,5.115,2.971H41.931A5.918,5.918,0,0,1,47.045,3.971ZM41.183,19.607a5.871,5.871,0,0,0,1.181,2.833,17.715,17.715,0,0,0-4.171,1.73,5.916,5.916,0,0,1,2.99-4.563Zm5.863,5.159A14.87,14.87,0,0,1,61.9,39.619V57.943a16.556,16.556,0,0,0-3.456-.936l-2.937-.452a2.947,2.947,0,0,1-2.4-2.142,11.57,11.57,0,0,0,5.823-10.029v-7.47l-3.37-.674A11.344,11.344,0,0,1,48.529,31.7V27.736H45.559V31.7a11.352,11.352,0,0,1-7.027,4.536l-3.369.674v7.156a11.87,11.87,0,0,0,5.86,10.212,2.948,2.948,0,0,1-2.437,2.273l-2.937.452a16.556,16.556,0,0,0-3.456.936V39.619A14.87,14.87,0,0,1,47.045,24.765ZM30.61,32.725c-.105.25-.186.509-.281.763a10.45,10.45,0,0,0-3.78-2.228,5.875,5.875,0,0,0,1.108-2.76,5.89,5.89,0,0,1,2.953,4.224ZM18.824,27.736h5.941a2.971,2.971,0,1,1-5.941,0Zm2.971-2.971a5.947,5.947,0,0,1-5.941-5.941H27.736A5.947,5.947,0,0,1,21.795,24.765Zm0-11.883a5.922,5.922,0,0,1,5.115,2.971H16.681A5.918,5.918,0,0,1,21.795,12.883ZM15.931,28.5a5.868,5.868,0,0,0,.75,2.21H13.689A5.961,5.961,0,0,1,15.931,28.5ZM10.421,45.363a9.885,9.885,0,0,1-.509-3.141V35.163A1.487,1.487,0,0,1,11.4,33.677H23.28a7.452,7.452,0,0,1,6.158,3.3,17.955,17.955,0,0,0-.217,2.638v7.609a7.414,7.414,0,0,0-4.815-6.953,6.561,6.561,0,0,0,.359-2.142H21.795a3.672,3.672,0,0,1-3.136,3.617l-3.436.492A4.474,4.474,0,0,0,11.4,46.65v.781a9.941,9.941,0,0,1-.976-2.069Zm3.947,1.288a1.493,1.493,0,0,1,1.274-1.47l3.436-.492a6.6,6.6,0,0,0,3.673-1.815l.123.031a4.452,4.452,0,0,1,3.376,4.324v2.788a5.941,5.941,0,0,1-11.883,0Zm5.941,12.278a8.841,8.841,0,0,0,2.466-.355l.3,1.184L20.309,61.6l-2.761-1.842.3-1.184A8.841,8.841,0,0,0,20.309,58.928Zm-4.768,3.063L17.357,63.2,14,64.877l-1.255-2.328ZM3.971,71.463a8.668,8.668,0,0,1,5.785-8.206L18.824,80.1V90.12H9.912V73.781H6.941V90.12H3.971ZM90.12,90.12H87.149V73.781H84.179V90.12H75.267V80.1l9.068-16.841a8.663,8.663,0,0,1,5.785,8.2Z" transform="translate(-1 -1)" fill="#00223d"/>
        <path id="Trazado_873823" data-name="Trazado 873823" d="M33.89,35.673a6.256,6.256,0,0,0,5.628-3.479l.156-.313-2.657-1.329-.156.315a3.321,3.321,0,0,1-5.941,0l-.156-.313-2.657,1.329.156.312A6.256,6.256,0,0,0,33.89,35.673Z" transform="translate(12.156 13.343)" fill="#00223d"/>
      </g>
    </g>
  </g>
</svg>
