<svg xmlns="http://www.w3.org/2000/svg" width="290" height="274.222" viewBox="0 0 290 274.222">
  <g id="Grupo_1100021" data-name="Grupo 1100021" transform="translate(-395 -5109.026)">
    <path id="Trazado_875916" data-name="Trazado 875916" d="M10,0H90.862a10,10,0,0,1,10,10V90.862a10,10,0,0,1-10,10H10a10,10,0,0,1-10-10V10A10,10,0,0,1,10,0Z" transform="translate(584.138 5109.026)" fill="#e94e1b"/>
    <path id="Trazado_875917" data-name="Trazado 875917" d="M10,0H90.862a10,10,0,0,1,10,10V90.862a10,10,0,0,1-10,10H10a10,10,0,0,1-10-10V10A10,10,0,0,1,10,0Z" transform="translate(472.466 5109.026)" fill="#62529b"/>
    <path id="Trazado_875912" data-name="Trazado 875912" d="M10,0H90.862a10,10,0,0,1,10,10V90.862a10,10,0,0,1-10,10H10a10,10,0,0,1-10-10V10A10,10,0,0,1,10,0Z" transform="translate(472.466 5219.933)" fill="#59836b"/>
    <path id="Trazado_875412" data-name="Trazado 875412" d="M7.831,0h85.2a7.831,7.831,0,0,1,7.831,7.831v85.2a7.831,7.831,0,0,1-7.831,7.831H7.831A7.831,7.831,0,0,1,0,93.031V7.831A7.831,7.831,0,0,1,7.831,0Z" transform="translate(584.138 5219.933)" fill="#ffd947"/>
    <path id="Trazado_875920" data-name="Trazado 875920" d="M-21.56-2.755V0h-1.611V-7.82h3.051a3.53,3.53,0,0,1,1.55.322,2.375,2.375,0,0,1,1.029.916,2.553,2.553,0,0,1,.36,1.351,2.245,2.245,0,0,1-.787,1.813,3.277,3.277,0,0,1-2.178.663Zm0-1.305h1.439a1.415,1.415,0,0,0,.975-.3,1.094,1.094,0,0,0,.336-.859,1.29,1.29,0,0,0-.338-.929,1.264,1.264,0,0,0-.935-.365H-21.56Zm8.647-.3a4.217,4.217,0,0,0-.559-.043,1.137,1.137,0,0,0-1.155.6V0h-1.552V-5.812h1.466l.043.693a1.438,1.438,0,0,1,1.294-.8,1.626,1.626,0,0,1,.483.07Zm.312,1.4A3.447,3.447,0,0,1-12.268-4.5a2.438,2.438,0,0,1,.959-1.047,2.8,2.8,0,0,1,1.453-.371,2.646,2.646,0,0,1,1.92.72,2.889,2.889,0,0,1,.83,1.955l.011.4A3.038,3.038,0,0,1-7.842-.7a2.6,2.6,0,0,1-2,.808A2.608,2.608,0,0,1-11.851-.7,3.091,3.091,0,0,1-12.6-2.89Zm1.552.113a2.166,2.166,0,0,0,.312,1.265,1.028,1.028,0,0,0,.892.438,1.031,1.031,0,0,0,.881-.432,2.371,2.371,0,0,0,.317-1.383,2.145,2.145,0,0,0-.317-1.257,1.031,1.031,0,0,0-.892-.446,1.014,1.014,0,0,0-.881.443A2.41,2.41,0,0,0-11.048-2.847Zm4.667-.1a3.5,3.5,0,0,1,.61-2.165A1.978,1.978,0,0,1-4.1-5.919a1.78,1.78,0,0,1,1.4.634V-8.25h1.558V0h-1.4l-.075-.618A1.827,1.827,0,0,1-4.114.107,1.973,1.973,0,0,1-5.76-.7,3.615,3.615,0,0,1-6.381-2.949Zm1.552.113a2.288,2.288,0,0,0,.285,1.251.928.928,0,0,0,.827.435A1.039,1.039,0,0,0-2.7-1.756V-4.05a1.024,1.024,0,0,0-1-.607Q-4.829-4.657-4.829-2.836ZM3.54-.591a1.947,1.947,0,0,1-1.59.7A1.836,1.836,0,0,1,.524-.43,2.293,2.293,0,0,1,.021-2V-5.812H1.574v3.754q0,.908.827.908A1.121,1.121,0,0,0,3.486-1.7V-5.812H5.043V0H3.583Zm5.092-.553a1.018,1.018,0,0,0,.7-.236.828.828,0,0,0,.279-.628h1.456a1.991,1.991,0,0,1-.322,1.082,2.126,2.126,0,0,1-.867.763A2.715,2.715,0,0,1,8.658.107,2.523,2.523,0,0,1,6.692-.685a3.135,3.135,0,0,1-.72-2.189v-.1a3.1,3.1,0,0,1,.714-2.143,2.494,2.494,0,0,1,1.96-.8A2.444,2.444,0,0,1,10.4-5.3a2.2,2.2,0,0,1,.669,1.652H9.609A1.058,1.058,0,0,0,9.33-4.38a.934.934,0,0,0-.709-.282.935.935,0,0,0-.819.395,2.285,2.285,0,0,0-.277,1.281v.161A2.314,2.314,0,0,0,7.8-1.536.947.947,0,0,0,8.631-1.144Zm5.178-6.1v1.429H14.8v1.139h-.994v2.9a.693.693,0,0,0,.124.462.62.62,0,0,0,.473.14,2.475,2.475,0,0,0,.457-.038V-.032a3.2,3.2,0,0,1-.94.14,1.482,1.482,0,0,1-1.665-1.649V-4.673h-.849V-5.812h.849V-7.24Zm1.456,4.281A3.447,3.447,0,0,1,15.6-4.5a2.438,2.438,0,0,1,.959-1.047,2.8,2.8,0,0,1,1.453-.371,2.646,2.646,0,0,1,1.92.72,2.889,2.889,0,0,1,.83,1.955l.011.4A3.038,3.038,0,0,1,20.023-.7a2.6,2.6,0,0,1-2,.808A2.608,2.608,0,0,1,16.014-.7a3.091,3.091,0,0,1-.749-2.191Zm1.552.113a2.166,2.166,0,0,0,.312,1.265,1.028,1.028,0,0,0,.892.438,1.031,1.031,0,0,0,.881-.432,2.371,2.371,0,0,0,.317-1.383A2.145,2.145,0,0,0,18.9-4.216a1.031,1.031,0,0,0-.892-.446,1.014,1.014,0,0,0-.881.443A2.41,2.41,0,0,0,16.817-2.847ZM-15.232,10.107a2.853,2.853,0,0,1-2.081-.784,2.787,2.787,0,0,1-.8-2.089v-.15a3.511,3.511,0,0,1,.338-1.566,2.483,2.483,0,0,1,.959-1.063A2.691,2.691,0,0,1-15.4,4.081a2.412,2.412,0,0,1,1.877.752,3.056,3.056,0,0,1,.685,2.132V7.6h-3.7a1.442,1.442,0,0,0,.454.913,1.372,1.372,0,0,0,.959.344,1.675,1.675,0,0,0,1.4-.65l.763.854a2.33,2.33,0,0,1-.945.771A3.1,3.1,0,0,1-15.232,10.107Zm-.177-4.77a.972.972,0,0,0-.749.312,1.609,1.609,0,0,0-.368.892h2.159V6.417a1.147,1.147,0,0,0-.279-.8A1,1,0,0,0-15.41,5.338Zm6.6,3.056A.5.5,0,0,0-9.1,7.946,3.2,3.2,0,0,0-10,7.653q-2.073-.435-2.073-1.762A1.6,1.6,0,0,1-11.432,4.6a2.589,2.589,0,0,1,1.678-.518,2.787,2.787,0,0,1,1.77.521,1.642,1.642,0,0,1,.663,1.354H-8.873a.751.751,0,0,0-.215-.551.909.909,0,0,0-.671-.218.929.929,0,0,0-.607.177.56.56,0,0,0-.215.451.478.478,0,0,0,.244.416,2.514,2.514,0,0,0,.824.274,6.734,6.734,0,0,1,.978.26A1.606,1.606,0,0,1-7.3,8.33a1.516,1.516,0,0,1-.682,1.286,2.943,2.943,0,0,1-1.762.491,3.073,3.073,0,0,1-1.3-.26,2.176,2.176,0,0,1-.889-.714,1.66,1.66,0,0,1-.322-.98h1.472a.81.81,0,0,0,.306.634,1.214,1.214,0,0,0,.763.22,1.124,1.124,0,0,0,.674-.169A.526.526,0,0,0-8.814,8.394ZM-4.447,2.76V4.188h.994V5.327h-.994v2.9a.693.693,0,0,0,.124.462.62.62,0,0,0,.473.14,2.475,2.475,0,0,0,.457-.038V9.968a3.2,3.2,0,0,1-.94.14A1.482,1.482,0,0,1-6,8.458V5.327h-.849V4.188H-6V2.76ZM.677,5.644A4.217,4.217,0,0,0,.118,5.6a1.137,1.137,0,0,0-1.155.6V10H-2.589V4.188h1.466l.043.693a1.438,1.438,0,0,1,1.294-.8,1.626,1.626,0,0,1,.483.07ZM4.1,10.107a2.853,2.853,0,0,1-2.081-.784,2.787,2.787,0,0,1-.8-2.089v-.15a3.511,3.511,0,0,1,.338-1.566,2.483,2.483,0,0,1,.959-1.063,2.691,2.691,0,0,1,1.415-.373A2.412,2.412,0,0,1,5.8,4.833a3.056,3.056,0,0,1,.685,2.132V7.6h-3.7a1.442,1.442,0,0,0,.454.913,1.372,1.372,0,0,0,.959.344,1.675,1.675,0,0,0,1.4-.65l.763.854a2.33,2.33,0,0,1-.945.771A3.1,3.1,0,0,1,4.1,10.107Zm-.177-4.77a.972.972,0,0,0-.749.312,1.609,1.609,0,0,0-.368.892H4.963V6.417a1.147,1.147,0,0,0-.279-.8A1,1,0,0,0,3.921,5.338ZM9.007,10H7.45V1.75H9.007Zm2.917,0H10.366V1.75h1.558Zm4.646,0a1.724,1.724,0,0,1-.156-.521,1.878,1.878,0,0,1-1.466.628,2.063,2.063,0,0,1-1.415-.494,1.589,1.589,0,0,1-.561-1.246,1.642,1.642,0,0,1,.685-1.418,3.379,3.379,0,0,1,1.979-.5h.714V6.117a.958.958,0,0,0-.207-.645.813.813,0,0,0-.653-.242.925.925,0,0,0-.615.188.639.639,0,0,0-.223.516H13.1A1.559,1.559,0,0,1,13.412,5a2.059,2.059,0,0,1,.881-.674,3.21,3.21,0,0,1,1.278-.244,2.536,2.536,0,0,1,1.705.54,1.888,1.888,0,0,1,.631,1.517V8.657a2.778,2.778,0,0,0,.231,1.251V10ZM15.286,8.92a1.337,1.337,0,0,0,.634-.153,1,1,0,0,0,.43-.411v-1h-.58q-1.166,0-1.241.806l-.005.091a.621.621,0,0,0,.2.478A.793.793,0,0,0,15.286,8.92Z" transform="translate(516.303 5124.242)" fill="#fff"/>
    <path id="Trazado_875913" data-name="Trazado 875913" d="M-12.3-4.082h-3.878V0H-17.4V-9.242h5.726v1h-4.507v3.161H-12.3Zm6,3.4A2.494,2.494,0,0,1-8.312.127,2.135,2.135,0,0,1-9.985-.511,2.761,2.761,0,0,1-10.566-2.4V-6.868h1.174v4.437q0,1.562,1.27,1.562a1.758,1.758,0,0,0,1.79-1v-5h1.174V0H-6.275ZM-.524.127A3,3,0,0,1-2.8-.79a3.4,3.4,0,0,1-.876-2.453v-.216a4.121,4.121,0,0,1,.39-1.825A3.045,3.045,0,0,1-2.19-6.541,2.745,2.745,0,0,1-.67-7a2.572,2.572,0,0,1,2.082.882,3.82,3.82,0,0,1,.743,2.526V-3.1H-2.5A2.441,2.441,0,0,0-1.9-1.457,1.866,1.866,0,0,0-.46-.832,2.045,2.045,0,0,0,.594-1.085a2.648,2.648,0,0,0,.755-.673l.717.559A2.884,2.884,0,0,1-.524.127ZM-.67-6.03a1.566,1.566,0,0,0-1.193.517,2.515,2.515,0,0,0-.6,1.45H.981v-.089A2.237,2.237,0,0,0,.5-5.538,1.475,1.475,0,0,0-.67-6.03Zm7.5.216a3.519,3.519,0,0,0-.578-.044,1.547,1.547,0,0,0-1.568.984V0H3.513V-6.868H4.656l.019.793A1.829,1.829,0,0,1,6.313-7a1.2,1.2,0,0,1,.521.089Zm2.99-2.717v1.663h1.282v.908H9.823V-1.7a.951.951,0,0,0,.171.619.722.722,0,0,0,.584.206,2.843,2.843,0,0,0,.559-.076V0a3.4,3.4,0,0,1-.9.127A1.462,1.462,0,0,1,9.049-.349a2.045,2.045,0,0,1-.4-1.352V-5.96H7.4v-.908h1.25V-8.531Zm5.5,8.658A3,3,0,0,1,13.054-.79a3.4,3.4,0,0,1-.876-2.453v-.216a4.121,4.121,0,0,1,.39-1.825A3.045,3.045,0,0,1,13.66-6.541,2.745,2.745,0,0,1,15.18-7a2.572,2.572,0,0,1,2.082.882,3.82,3.82,0,0,1,.743,2.526V-3.1H13.352a2.441,2.441,0,0,0,.594,1.641,1.866,1.866,0,0,0,1.444.625,2.045,2.045,0,0,0,1.054-.254,2.648,2.648,0,0,0,.755-.673l.717.559A2.884,2.884,0,0,1,15.326.127ZM15.18-6.03a1.566,1.566,0,0,0-1.193.517,2.515,2.515,0,0,0-.6,1.45h3.44v-.089a2.237,2.237,0,0,0-.482-1.387A1.475,1.475,0,0,0,15.18-6.03Z" transform="translate(520.044 5342.124)" fill="#12263f"/>
    <path id="Trazado_875918" data-name="Trazado 875918" d="M-5.408-2.412H-9.28L-10.15,0h-1.257l3.529-9.242h1.066L-3.275,0h-1.25Zm-3.5-1H-5.77L-7.344-7.738ZM-.939,0H-2.114V-9.75H-.939ZM2.533-8.531v1.663H3.815v.908H2.533V-1.7a.951.951,0,0,0,.171.619.722.722,0,0,0,.584.206,2.843,2.843,0,0,0,.559-.076V0a3.4,3.4,0,0,1-.9.127A1.462,1.462,0,0,1,1.758-.349a2.045,2.045,0,0,1-.4-1.352V-5.96H.108v-.908h1.25V-8.531ZM4.748-3.5a4.057,4.057,0,0,1,.4-1.815,2.96,2.96,0,0,1,1.1-1.244A3.007,3.007,0,0,1,7.865-7a2.9,2.9,0,0,1,2.269.971A3.736,3.736,0,0,1,11-3.44v.083a4.092,4.092,0,0,1-.384,1.8,2.916,2.916,0,0,1-1.1,1.241A3.041,3.041,0,0,1,7.877.127,2.889,2.889,0,0,1,5.615-.844a3.718,3.718,0,0,1-.866-2.571Zm1.181.14a2.938,2.938,0,0,0,.53,1.834,1.7,1.7,0,0,0,1.419.692,1.686,1.686,0,0,0,1.422-.7A3.213,3.213,0,0,0,9.826-3.5,2.933,2.933,0,0,0,9.29-5.329a1.705,1.705,0,0,0-1.425-.7,1.686,1.686,0,0,0-1.4.692A3.189,3.189,0,0,0,5.929-3.358Z" transform="translate(453.969 5163.905) rotate(-90)" fill="#12263f"/>
    <path id="Trazado_875910" data-name="Trazado 875910" d="M-14.468,0V-9.953h2.81a4.523,4.523,0,0,1,2.3.574A3.884,3.884,0,0,1-7.82-7.745a5.318,5.318,0,0,1,.55,2.434v.636a5.336,5.336,0,0,1-.543,2.468A3.823,3.823,0,0,1-9.365-.581,4.811,4.811,0,0,1-11.713,0Zm1.313-8.873v7.8h1.381a3.006,3.006,0,0,0,2.362-.943A3.9,3.9,0,0,0-8.569-4.7v-.581a3.957,3.957,0,0,0-.8-2.635,2.835,2.835,0,0,0-2.259-.954ZM-2.417.137A3.232,3.232,0,0,1-4.864-.851a3.666,3.666,0,0,1-.943-2.642v-.232a4.438,4.438,0,0,1,.42-1.965A3.28,3.28,0,0,1-4.211-7.044a2.956,2.956,0,0,1,1.637-.489,2.77,2.77,0,0,1,2.242.95,4.114,4.114,0,0,1,.8,2.721v.526H-4.542A2.629,2.629,0,0,0-3.9-1.569,2.009,2.009,0,0,0-2.348-.9a2.2,2.2,0,0,0,1.135-.273A2.851,2.851,0,0,0-.4-1.894l.772.6A3.106,3.106,0,0,1-2.417.137Zm-.157-6.631a1.687,1.687,0,0,0-1.285.557A2.708,2.708,0,0,0-4.5-4.375H-.8v-.1a2.409,2.409,0,0,0-.52-1.494A1.588,1.588,0,0,0-2.574-6.494Zm.615-4.006H-.427L-2.259-8.49H-3.278ZM8.193-3.616A4.4,4.4,0,0,1,7.414-.892,2.49,2.49,0,0,1,5.322.137,2.578,2.578,0,0,1,3.155-.854L3.093,0H1.931V-10.5H3.2v3.917a2.564,2.564,0,0,1,2.112-.95A2.505,2.505,0,0,1,7.424-6.515a4.53,4.53,0,0,1,.769,2.789ZM6.928-3.76a3.417,3.417,0,0,0-.5-2,1.652,1.652,0,0,0-1.436-.7A1.857,1.857,0,0,0,3.2-5.3v3.2A1.909,1.909,0,0,0,5.007-.937a1.643,1.643,0,0,0,1.415-.7A3.634,3.634,0,0,0,6.928-3.76ZM11.16,0H9.9V-7.4H11.16ZM9.792-9.358a.755.755,0,0,1,.188-.52.706.706,0,0,1,.557-.212.717.717,0,0,1,.561.212.747.747,0,0,1,.191.52.722.722,0,0,1-.191.513.73.73,0,0,1-.561.205.718.718,0,0,1-.557-.205A.73.73,0,0,1,9.792-9.358ZM14.557,0H13.292V-10.5h1.265Z" transform="translate(631.851 5342.476)" fill="#12263f"/>
    <path id="Trazado_875919" data-name="Trazado 875919" d="M-11.769,0V-9.242h3.021a3.507,3.507,0,0,1,2.263.622,2.242,2.242,0,0,1,.759,1.841,1.877,1.877,0,0,1-.368,1.146,2.387,2.387,0,0,1-1,.771,2.143,2.143,0,0,1,1.184.8,2.286,2.286,0,0,1,.435,1.4A2.472,2.472,0,0,1-6.284-.711,3.334,3.334,0,0,1-8.563,0Zm1.219-4.323V-1h2.012A1.938,1.938,0,0,0-7.2-1.438,1.549,1.549,0,0,0-6.7-2.653q0-1.669-1.815-1.669Zm0-.978h1.841A1.932,1.932,0,0,0-7.43-5.7a1.339,1.339,0,0,0,.479-1.085A1.317,1.317,0,0,0-7.4-7.893a2.186,2.186,0,0,0-1.352-.346h-1.8ZM.381,0A2.467,2.467,0,0,1,.216-.724,2.62,2.62,0,0,1-1.739.127,2.424,2.424,0,0,1-3.406-.448,1.859,1.859,0,0,1-4.056-1.9,1.942,1.942,0,0,1-3.24-3.571,3.846,3.846,0,0,1-.946-4.164H.2V-4.7a1.319,1.319,0,0,0-.368-.981,1.48,1.48,0,0,0-1.085-.365,1.712,1.712,0,0,0-1.054.317.935.935,0,0,0-.425.768H-3.917a1.621,1.621,0,0,1,.365-.993,2.491,2.491,0,0,1,.99-.759A3.331,3.331,0,0,1-1.187-7,2.715,2.715,0,0,1,.673-6.4a2.141,2.141,0,0,1,.7,1.635v3.161A3.865,3.865,0,0,0,1.612-.1V0ZM-1.568-.9A2.064,2.064,0,0,0-.521-1.181,1.728,1.728,0,0,0,.2-1.923V-3.333h-.92q-2.158,0-2.158,1.263a1.069,1.069,0,0,0,.368.863A1.415,1.415,0,0,0-1.568-.9ZM4.424-6.868V.793q0,1.98-1.8,1.98a2.179,2.179,0,0,1-.717-.114V1.72a2.27,2.27,0,0,0,.533.051.8.8,0,0,0,.6-.213A1.051,1.051,0,0,0,3.25.819V-6.868ZM3.129-8.69A.7.7,0,0,1,3.3-9.169a.642.642,0,0,1,.511-.2.666.666,0,0,1,.521.2.694.694,0,0,1,.178.482.671.671,0,0,1-.178.476.678.678,0,0,1-.521.19.657.657,0,0,1-.514-.19A.685.685,0,0,1,3.129-8.69ZM6-3.5a4.057,4.057,0,0,1,.4-1.815,2.96,2.96,0,0,1,1.1-1.244A3.007,3.007,0,0,1,9.122-7a2.9,2.9,0,0,1,2.269.971,3.736,3.736,0,0,1,.866,2.583v.083a4.092,4.092,0,0,1-.384,1.8,2.916,2.916,0,0,1-1.1,1.241A3.041,3.041,0,0,1,9.134.127,2.889,2.889,0,0,1,6.871-.844,3.718,3.718,0,0,1,6-3.415Zm1.181.14a2.938,2.938,0,0,0,.53,1.834,1.7,1.7,0,0,0,1.419.692,1.686,1.686,0,0,0,1.422-.7A3.213,3.213,0,0,0,11.083-3.5a2.933,2.933,0,0,0-.536-1.831,1.705,1.705,0,0,0-1.425-.7,1.686,1.686,0,0,0-1.4.692A3.189,3.189,0,0,0,7.186-3.358Z" transform="translate(454.48 5275.208) rotate(-90)" fill="#12263f"/>
    <path id="Trazado_875921" data-name="Trazado 875921" d="M-21.56-2.755V0h-1.611V-7.82h3.051a3.53,3.53,0,0,1,1.55.322,2.375,2.375,0,0,1,1.029.916,2.553,2.553,0,0,1,.36,1.351,2.245,2.245,0,0,1-.787,1.813,3.277,3.277,0,0,1-2.178.663Zm0-1.305h1.439a1.415,1.415,0,0,0,.975-.3,1.094,1.094,0,0,0,.336-.859,1.29,1.29,0,0,0-.338-.929,1.264,1.264,0,0,0-.935-.365H-21.56Zm8.647-.3a4.217,4.217,0,0,0-.559-.043,1.137,1.137,0,0,0-1.155.6V0h-1.552V-5.812h1.466l.043.693a1.438,1.438,0,0,1,1.294-.8,1.626,1.626,0,0,1,.483.07Zm.312,1.4A3.447,3.447,0,0,1-12.268-4.5a2.438,2.438,0,0,1,.959-1.047,2.8,2.8,0,0,1,1.453-.371,2.646,2.646,0,0,1,1.92.72,2.889,2.889,0,0,1,.83,1.955l.011.4A3.038,3.038,0,0,1-7.842-.7a2.6,2.6,0,0,1-2,.808A2.608,2.608,0,0,1-11.851-.7,3.091,3.091,0,0,1-12.6-2.89Zm1.552.113a2.166,2.166,0,0,0,.312,1.265,1.028,1.028,0,0,0,.892.438,1.031,1.031,0,0,0,.881-.432,2.371,2.371,0,0,0,.317-1.383,2.145,2.145,0,0,0-.317-1.257,1.031,1.031,0,0,0-.892-.446,1.014,1.014,0,0,0-.881.443A2.41,2.41,0,0,0-11.048-2.847Zm4.667-.1a3.5,3.5,0,0,1,.61-2.165A1.978,1.978,0,0,1-4.1-5.919a1.78,1.78,0,0,1,1.4.634V-8.25h1.558V0h-1.4l-.075-.618A1.827,1.827,0,0,1-4.114.107,1.973,1.973,0,0,1-5.76-.7,3.615,3.615,0,0,1-6.381-2.949Zm1.552.113a2.288,2.288,0,0,0,.285,1.251.928.928,0,0,0,.827.435A1.039,1.039,0,0,0-2.7-1.756V-4.05a1.024,1.024,0,0,0-1-.607Q-4.829-4.657-4.829-2.836ZM3.54-.591a1.947,1.947,0,0,1-1.59.7A1.836,1.836,0,0,1,.524-.43,2.293,2.293,0,0,1,.021-2V-5.812H1.574v3.754q0,.908.827.908A1.121,1.121,0,0,0,3.486-1.7V-5.812H5.043V0H3.583Zm5.092-.553a1.018,1.018,0,0,0,.7-.236.828.828,0,0,0,.279-.628h1.456a1.991,1.991,0,0,1-.322,1.082,2.126,2.126,0,0,1-.867.763A2.715,2.715,0,0,1,8.658.107,2.523,2.523,0,0,1,6.692-.685a3.135,3.135,0,0,1-.72-2.189v-.1a3.1,3.1,0,0,1,.714-2.143,2.494,2.494,0,0,1,1.96-.8A2.444,2.444,0,0,1,10.4-5.3a2.2,2.2,0,0,1,.669,1.652H9.609A1.058,1.058,0,0,0,9.33-4.38a.934.934,0,0,0-.709-.282.935.935,0,0,0-.819.395,2.285,2.285,0,0,0-.277,1.281v.161A2.314,2.314,0,0,0,7.8-1.536.947.947,0,0,0,8.631-1.144Zm5.178-6.1v1.429H14.8v1.139h-.994v2.9a.693.693,0,0,0,.124.462.62.62,0,0,0,.473.14,2.475,2.475,0,0,0,.457-.038V-.032a3.2,3.2,0,0,1-.94.14,1.482,1.482,0,0,1-1.665-1.649V-4.673h-.849V-5.812h.849V-7.24Zm1.456,4.281A3.447,3.447,0,0,1,15.6-4.5a2.438,2.438,0,0,1,.959-1.047,2.8,2.8,0,0,1,1.453-.371,2.646,2.646,0,0,1,1.92.72,2.889,2.889,0,0,1,.83,1.955l.011.4A3.038,3.038,0,0,1,20.023-.7a2.6,2.6,0,0,1-2,.808A2.608,2.608,0,0,1,16.014-.7a3.091,3.091,0,0,1-.749-2.191Zm1.552.113a2.166,2.166,0,0,0,.312,1.265,1.028,1.028,0,0,0,.892.438,1.031,1.031,0,0,0,.881-.432,2.371,2.371,0,0,0,.317-1.383A2.145,2.145,0,0,0,18.9-4.216a1.031,1.031,0,0,0-.892-.446,1.014,1.014,0,0,0-.881.443A2.41,2.41,0,0,0,16.817-2.847ZM-20.767,10h-1.558V4.188h1.558Zm-1.649-7.315a.764.764,0,0,1,.234-.575.878.878,0,0,1,.636-.226.88.88,0,0,1,.634.226.76.76,0,0,1,.236.575.762.762,0,0,1-.239.58.882.882,0,0,1-.631.226.882.882,0,0,1-.631-.226A.762.762,0,0,1-22.416,2.685Zm4.356,1.5.048.671a2.029,2.029,0,0,1,1.67-.779,1.686,1.686,0,0,1,1.375.542A2.531,2.531,0,0,1-14.5,6.246V10h-1.552V6.283a1.007,1.007,0,0,0-.215-.717.962.962,0,0,0-.714-.223,1.068,1.068,0,0,0-.983.559V10h-1.552V4.188Zm7.149,4.667a1.018,1.018,0,0,0,.7-.236.828.828,0,0,0,.279-.628h1.456A1.991,1.991,0,0,1-8.8,9.073a2.126,2.126,0,0,1-.867.763,2.715,2.715,0,0,1-1.217.271,2.523,2.523,0,0,1-1.966-.792,3.135,3.135,0,0,1-.72-2.189v-.1a3.1,3.1,0,0,1,.714-2.143,2.494,2.494,0,0,1,1.96-.8,2.444,2.444,0,0,1,1.748.62,2.2,2.2,0,0,1,.669,1.652H-9.934a1.058,1.058,0,0,0-.279-.733.934.934,0,0,0-.709-.282.935.935,0,0,0-.819.395,2.285,2.285,0,0,0-.277,1.281v.161a2.314,2.314,0,0,0,.274,1.289A.947.947,0,0,0-10.911,8.856Zm3.078-1.815A3.447,3.447,0,0,1-7.5,5.5a2.438,2.438,0,0,1,.959-1.047,2.8,2.8,0,0,1,1.453-.371,2.646,2.646,0,0,1,1.92.72,2.889,2.889,0,0,1,.83,1.955l.011.4A3.038,3.038,0,0,1-3.075,9.3a2.6,2.6,0,0,1-2,.808A2.608,2.608,0,0,1-7.084,9.3,3.091,3.091,0,0,1-7.834,7.11Zm1.552.113A2.166,2.166,0,0,0-5.97,8.418a1.028,1.028,0,0,0,.892.438A1.031,1.031,0,0,0-4.2,8.424a2.371,2.371,0,0,0,.317-1.383A2.145,2.145,0,0,0-4.2,5.784a1.031,1.031,0,0,0-.892-.446,1.014,1.014,0,0,0-.881.443A2.41,2.41,0,0,0-6.281,7.153Zm4.684-.1A3.406,3.406,0,0,1-.961,4.9,2.062,2.062,0,0,1,.755,4.081a1.809,1.809,0,0,1,1.488.655l.064-.548H3.714V9.807a2.484,2.484,0,0,1-.346,1.327,2.225,2.225,0,0,1-.975.859,3.427,3.427,0,0,1-1.472.3,3.187,3.187,0,0,1-1.246-.255,2.212,2.212,0,0,1-.918-.658l.688-.945a1.818,1.818,0,0,0,1.407.65,1.331,1.331,0,0,0,.961-.33,1.239,1.239,0,0,0,.344-.937V9.5a1.8,1.8,0,0,1-1.413.607A2.057,2.057,0,0,1-.951,9.288,3.405,3.405,0,0,1-1.6,7.116Zm1.552.113A2.115,2.115,0,0,0,.271,8.4a1.009,1.009,0,0,0,.87.448,1.078,1.078,0,0,0,1.015-.532V5.875a1.076,1.076,0,0,0-1-.532A1.015,1.015,0,0,0,.274,5.8,2.384,2.384,0,0,0-.046,7.164ZM6.335,4.188l.048.671a2.029,2.029,0,0,1,1.67-.779,1.686,1.686,0,0,1,1.375.542,2.531,2.531,0,0,1,.462,1.622V10H8.339V6.283a1.007,1.007,0,0,0-.215-.717.962.962,0,0,0-.714-.223,1.068,1.068,0,0,0-.983.559V10H4.874V4.188ZM12.705,10H11.148V4.188h1.558ZM11.056,2.685a.764.764,0,0,1,.234-.575,1.007,1.007,0,0,1,1.27,0,.76.76,0,0,1,.236.575.762.762,0,0,1-.239.58,1,1,0,0,1-1.262,0A.762.762,0,0,1,11.056,2.685Zm4.786.075V4.188h.994V5.327h-.994v2.9a.693.693,0,0,0,.124.462.62.62,0,0,0,.473.14,2.475,2.475,0,0,0,.457-.038V9.968a3.2,3.2,0,0,1-.94.14A1.482,1.482,0,0,1,14.29,8.458V5.327h-.849V4.188h.849V2.76ZM21.068,10a1.724,1.724,0,0,1-.156-.521,1.878,1.878,0,0,1-1.466.628,2.063,2.063,0,0,1-1.415-.494,1.589,1.589,0,0,1-.561-1.246,1.642,1.642,0,0,1,.685-1.418,3.379,3.379,0,0,1,1.979-.5h.714V6.117a.958.958,0,0,0-.207-.645.813.813,0,0,0-.653-.242.925.925,0,0,0-.615.188.639.639,0,0,0-.223.516H17.6A1.559,1.559,0,0,1,17.91,5a2.059,2.059,0,0,1,.881-.674,3.21,3.21,0,0,1,1.278-.244,2.536,2.536,0,0,1,1.705.54,1.888,1.888,0,0,1,.631,1.517V8.657a2.778,2.778,0,0,0,.231,1.251V10ZM19.784,8.92a1.337,1.337,0,0,0,.634-.153,1,1,0,0,0,.43-.411v-1h-.58q-1.166,0-1.241.806l-.005.091a.621.621,0,0,0,.2.478A.793.793,0,0,0,19.784,8.92Z" transform="translate(628.284 5121.923)" fill="#fff"/>
    <path id="Trazado_875914" data-name="Trazado 875914" d="M-21.56-2.755V0h-1.611V-7.82h3.051a3.53,3.53,0,0,1,1.55.322,2.375,2.375,0,0,1,1.029.916,2.553,2.553,0,0,1,.36,1.351,2.245,2.245,0,0,1-.787,1.813,3.277,3.277,0,0,1-2.178.663Zm0-1.305h1.439a1.415,1.415,0,0,0,.975-.3,1.094,1.094,0,0,0,.336-.859,1.29,1.29,0,0,0-.338-.929,1.264,1.264,0,0,0-.935-.365H-21.56Zm8.647-.3a4.217,4.217,0,0,0-.559-.043,1.137,1.137,0,0,0-1.155.6V0h-1.552V-5.812h1.466l.043.693a1.438,1.438,0,0,1,1.294-.8,1.626,1.626,0,0,1,.483.07Zm.312,1.4A3.447,3.447,0,0,1-12.268-4.5a2.438,2.438,0,0,1,.959-1.047,2.8,2.8,0,0,1,1.453-.371,2.646,2.646,0,0,1,1.92.72,2.889,2.889,0,0,1,.83,1.955l.011.4A3.038,3.038,0,0,1-7.842-.7a2.6,2.6,0,0,1-2,.808A2.608,2.608,0,0,1-11.851-.7,3.091,3.091,0,0,1-12.6-2.89Zm1.552.113a2.166,2.166,0,0,0,.312,1.265,1.028,1.028,0,0,0,.892.438,1.031,1.031,0,0,0,.881-.432,2.371,2.371,0,0,0,.317-1.383,2.145,2.145,0,0,0-.317-1.257,1.031,1.031,0,0,0-.892-.446,1.014,1.014,0,0,0-.881.443A2.41,2.41,0,0,0-11.048-2.847Zm4.667-.1a3.5,3.5,0,0,1,.61-2.165A1.978,1.978,0,0,1-4.1-5.919a1.78,1.78,0,0,1,1.4.634V-8.25h1.558V0h-1.4l-.075-.618A1.827,1.827,0,0,1-4.114.107,1.973,1.973,0,0,1-5.76-.7,3.615,3.615,0,0,1-6.381-2.949Zm1.552.113a2.288,2.288,0,0,0,.285,1.251.928.928,0,0,0,.827.435A1.039,1.039,0,0,0-2.7-1.756V-4.05a1.024,1.024,0,0,0-1-.607Q-4.829-4.657-4.829-2.836ZM3.54-.591a1.947,1.947,0,0,1-1.59.7A1.836,1.836,0,0,1,.524-.43,2.293,2.293,0,0,1,.021-2V-5.812H1.574v3.754q0,.908.827.908A1.121,1.121,0,0,0,3.486-1.7V-5.812H5.043V0H3.583Zm5.092-.553a1.018,1.018,0,0,0,.7-.236.828.828,0,0,0,.279-.628h1.456a1.991,1.991,0,0,1-.322,1.082,2.126,2.126,0,0,1-.867.763A2.715,2.715,0,0,1,8.658.107,2.523,2.523,0,0,1,6.692-.685a3.135,3.135,0,0,1-.72-2.189v-.1a3.1,3.1,0,0,1,.714-2.143,2.494,2.494,0,0,1,1.96-.8A2.444,2.444,0,0,1,10.4-5.3a2.2,2.2,0,0,1,.669,1.652H9.609A1.058,1.058,0,0,0,9.33-4.38a.934.934,0,0,0-.709-.282.935.935,0,0,0-.819.395,2.285,2.285,0,0,0-.277,1.281v.161A2.314,2.314,0,0,0,7.8-1.536.947.947,0,0,0,8.631-1.144Zm5.178-6.1v1.429H14.8v1.139h-.994v2.9a.693.693,0,0,0,.124.462.62.62,0,0,0,.473.14,2.475,2.475,0,0,0,.457-.038V-.032a3.2,3.2,0,0,1-.94.14,1.482,1.482,0,0,1-1.665-1.649V-4.673h-.849V-5.812h.849V-7.24Zm1.456,4.281A3.447,3.447,0,0,1,15.6-4.5a2.438,2.438,0,0,1,.959-1.047,2.8,2.8,0,0,1,1.453-.371,2.646,2.646,0,0,1,1.92.72,2.889,2.889,0,0,1,.83,1.955l.011.4A3.038,3.038,0,0,1,20.023-.7a2.6,2.6,0,0,1-2,.808A2.608,2.608,0,0,1,16.014-.7a3.091,3.091,0,0,1-.749-2.191Zm1.552.113a2.166,2.166,0,0,0,.312,1.265,1.028,1.028,0,0,0,.892.438,1.031,1.031,0,0,0,.881-.432,2.371,2.371,0,0,0,.317-1.383A2.145,2.145,0,0,0,18.9-4.216a1.031,1.031,0,0,0-.892-.446,1.014,1.014,0,0,0-.881.443A2.41,2.41,0,0,0,16.817-2.847ZM-8.733,8.1l1.08-3.916h1.622L-7.992,10H-9.475l-1.96-5.812h1.622ZM-2.062,10a1.724,1.724,0,0,1-.156-.521,1.878,1.878,0,0,1-1.466.628A2.063,2.063,0,0,1-5.1,9.613a1.589,1.589,0,0,1-.561-1.246,1.642,1.642,0,0,1,.685-1.418A3.379,3.379,0,0,1-3,6.45h.714V6.117a.958.958,0,0,0-.207-.645.813.813,0,0,0-.653-.242.925.925,0,0,0-.615.188.639.639,0,0,0-.223.516H-5.532A1.559,1.559,0,0,1-5.221,5a2.059,2.059,0,0,1,.881-.674,3.21,3.21,0,0,1,1.278-.244,2.536,2.536,0,0,1,1.705.54A1.888,1.888,0,0,1-.725,6.138V8.657A2.778,2.778,0,0,0-.494,9.909V10ZM-3.346,8.92a1.337,1.337,0,0,0,.634-.153,1,1,0,0,0,.43-.411v-1h-.58q-1.166,0-1.241.806l-.005.091a.621.621,0,0,0,.2.478A.793.793,0,0,0-3.346,8.92Zm6.23-.064a1.018,1.018,0,0,0,.7-.236.828.828,0,0,0,.279-.628H5.317A1.991,1.991,0,0,1,5,9.073a2.126,2.126,0,0,1-.867.763,2.715,2.715,0,0,1-1.217.271A2.523,2.523,0,0,1,.945,9.315a3.135,3.135,0,0,1-.72-2.189v-.1A3.1,3.1,0,0,1,.94,4.881a2.494,2.494,0,0,1,1.96-.8,2.444,2.444,0,0,1,1.748.62,2.2,2.2,0,0,1,.669,1.652H3.862a1.058,1.058,0,0,0-.279-.733.934.934,0,0,0-.709-.282.935.935,0,0,0-.819.395,2.285,2.285,0,0,0-.277,1.281v.161a2.314,2.314,0,0,0,.274,1.289A.947.947,0,0,0,2.884,8.856ZM9.571,10a1.724,1.724,0,0,1-.156-.521,1.878,1.878,0,0,1-1.466.628,2.063,2.063,0,0,1-1.415-.494,1.589,1.589,0,0,1-.561-1.246,1.642,1.642,0,0,1,.685-1.418,3.379,3.379,0,0,1,1.979-.5h.714V6.117a.958.958,0,0,0-.207-.645.813.813,0,0,0-.653-.242.925.925,0,0,0-.615.188.639.639,0,0,0-.223.516H6.1A1.559,1.559,0,0,1,6.413,5a2.059,2.059,0,0,1,.881-.674,3.21,3.21,0,0,1,1.278-.244,2.536,2.536,0,0,1,1.705.54,1.888,1.888,0,0,1,.631,1.517V8.657a2.778,2.778,0,0,0,.231,1.251V10ZM8.288,8.92a1.337,1.337,0,0,0,.634-.153,1,1,0,0,0,.43-.411v-1h-.58q-1.166,0-1.241.806l-.005.091a.621.621,0,0,0,.2.478A.793.793,0,0,0,8.288,8.92Z" transform="translate(515.333 5233.335)" fill="#fff"/>
    <path id="Trazado_875915" data-name="Trazado 875915" d="M-21.56-2.755V0h-1.611V-7.82h3.051a3.53,3.53,0,0,1,1.55.322,2.375,2.375,0,0,1,1.029.916,2.553,2.553,0,0,1,.36,1.351,2.245,2.245,0,0,1-.787,1.813,3.277,3.277,0,0,1-2.178.663Zm0-1.305h1.439a1.415,1.415,0,0,0,.975-.3,1.094,1.094,0,0,0,.336-.859,1.29,1.29,0,0,0-.338-.929,1.264,1.264,0,0,0-.935-.365H-21.56Zm8.647-.3a4.217,4.217,0,0,0-.559-.043,1.137,1.137,0,0,0-1.155.6V0h-1.552V-5.812h1.466l.043.693a1.438,1.438,0,0,1,1.294-.8,1.626,1.626,0,0,1,.483.07Zm.312,1.4A3.447,3.447,0,0,1-12.268-4.5a2.438,2.438,0,0,1,.959-1.047,2.8,2.8,0,0,1,1.453-.371,2.646,2.646,0,0,1,1.92.72,2.889,2.889,0,0,1,.83,1.955l.011.4A3.038,3.038,0,0,1-7.842-.7a2.6,2.6,0,0,1-2,.808A2.608,2.608,0,0,1-11.851-.7,3.091,3.091,0,0,1-12.6-2.89Zm1.552.113a2.166,2.166,0,0,0,.312,1.265,1.028,1.028,0,0,0,.892.438,1.031,1.031,0,0,0,.881-.432,2.371,2.371,0,0,0,.317-1.383,2.145,2.145,0,0,0-.317-1.257,1.031,1.031,0,0,0-.892-.446,1.014,1.014,0,0,0-.881.443A2.41,2.41,0,0,0-11.048-2.847Zm4.667-.1a3.5,3.5,0,0,1,.61-2.165A1.978,1.978,0,0,1-4.1-5.919a1.78,1.78,0,0,1,1.4.634V-8.25h1.558V0h-1.4l-.075-.618A1.827,1.827,0,0,1-4.114.107,1.973,1.973,0,0,1-5.76-.7,3.615,3.615,0,0,1-6.381-2.949Zm1.552.113a2.288,2.288,0,0,0,.285,1.251.928.928,0,0,0,.827.435A1.039,1.039,0,0,0-2.7-1.756V-4.05a1.024,1.024,0,0,0-1-.607Q-4.829-4.657-4.829-2.836ZM3.54-.591a1.947,1.947,0,0,1-1.59.7A1.836,1.836,0,0,1,.524-.43,2.293,2.293,0,0,1,.021-2V-5.812H1.574v3.754q0,.908.827.908A1.121,1.121,0,0,0,3.486-1.7V-5.812H5.043V0H3.583Zm5.092-.553a1.018,1.018,0,0,0,.7-.236.828.828,0,0,0,.279-.628h1.456a1.991,1.991,0,0,1-.322,1.082,2.126,2.126,0,0,1-.867.763A2.715,2.715,0,0,1,8.658.107,2.523,2.523,0,0,1,6.692-.685a3.135,3.135,0,0,1-.72-2.189v-.1a3.1,3.1,0,0,1,.714-2.143,2.494,2.494,0,0,1,1.96-.8A2.444,2.444,0,0,1,10.4-5.3a2.2,2.2,0,0,1,.669,1.652H9.609A1.058,1.058,0,0,0,9.33-4.38a.934.934,0,0,0-.709-.282.935.935,0,0,0-.819.395,2.285,2.285,0,0,0-.277,1.281v.161A2.314,2.314,0,0,0,7.8-1.536.947.947,0,0,0,8.631-1.144Zm5.178-6.1v1.429H14.8v1.139h-.994v2.9a.693.693,0,0,0,.124.462.62.62,0,0,0,.473.14,2.475,2.475,0,0,0,.457-.038V-.032a3.2,3.2,0,0,1-.94.14,1.482,1.482,0,0,1-1.665-1.649V-4.673h-.849V-5.812h.849V-7.24Zm1.456,4.281A3.447,3.447,0,0,1,15.6-4.5a2.438,2.438,0,0,1,.959-1.047,2.8,2.8,0,0,1,1.453-.371,2.646,2.646,0,0,1,1.92.72,2.889,2.889,0,0,1,.83,1.955l.011.4A3.038,3.038,0,0,1,20.023-.7a2.6,2.6,0,0,1-2,.808A2.608,2.608,0,0,1,16.014-.7a3.091,3.091,0,0,1-.749-2.191Zm1.552.113a2.166,2.166,0,0,0,.312,1.265,1.028,1.028,0,0,0,.892.438,1.031,1.031,0,0,0,.881-.432,2.371,2.371,0,0,0,.317-1.383A2.145,2.145,0,0,0,18.9-4.216a1.031,1.031,0,0,0-.892-.446,1.014,1.014,0,0,0-.881.443A2.41,2.41,0,0,0,16.817-2.847ZM-7.267,7.148A3.485,3.485,0,0,1-7.877,9.3a1.955,1.955,0,0,1-1.646.808A1.811,1.811,0,0,1-10.946,9.5v2.739H-12.5V4.188h1.439l.054.569a1.824,1.824,0,0,1,1.472-.677,1.968,1.968,0,0,1,1.67.795,3.58,3.58,0,0,1,.6,2.191Zm-1.552-.113a2.287,2.287,0,0,0-.287-1.251.936.936,0,0,0-.835-.44,1.016,1.016,0,0,0-1,.559V8.281a1.034,1.034,0,0,0,1.015.575Q-8.819,8.856-8.819,7.035Zm5.188,3.072a2.853,2.853,0,0,1-2.081-.784,2.787,2.787,0,0,1-.8-2.089v-.15a3.511,3.511,0,0,1,.338-1.566,2.483,2.483,0,0,1,.959-1.063A2.691,2.691,0,0,1-3.8,4.081a2.412,2.412,0,0,1,1.877.752,3.056,3.056,0,0,1,.685,2.132V7.6h-3.7a1.442,1.442,0,0,0,.454.913,1.372,1.372,0,0,0,.959.344,1.675,1.675,0,0,0,1.4-.65l.763.854a2.33,2.33,0,0,1-.945.771A3.1,3.1,0,0,1-3.631,10.107Zm-.177-4.77a.972.972,0,0,0-.749.312,1.609,1.609,0,0,0-.368.892h2.159V6.417a1.147,1.147,0,0,0-.279-.8A1,1,0,0,0-3.808,5.338Zm6.714.306A4.217,4.217,0,0,0,2.347,5.6a1.137,1.137,0,0,0-1.155.6V10H-.36V4.188H1.106l.043.693a1.438,1.438,0,0,1,1.294-.8,1.626,1.626,0,0,1,.483.07Zm4.012,0A4.217,4.217,0,0,0,6.359,5.6,1.137,1.137,0,0,0,5.2,6.2V10H3.652V4.188H5.119l.043.693a1.438,1.438,0,0,1,1.294-.8,1.626,1.626,0,0,1,.483.07Zm.312,1.4A3.447,3.447,0,0,1,7.563,5.5a2.438,2.438,0,0,1,.959-1.047,2.8,2.8,0,0,1,1.453-.371,2.646,2.646,0,0,1,1.92.72,2.889,2.889,0,0,1,.83,1.955l.011.4A3.038,3.038,0,0,1,11.988,9.3a2.6,2.6,0,0,1-2,.808A2.608,2.608,0,0,1,7.979,9.3,3.091,3.091,0,0,1,7.229,7.11Zm1.552.113a2.166,2.166,0,0,0,.312,1.265,1.12,1.12,0,0,0,1.772.005,2.371,2.371,0,0,0,.317-1.383,2.145,2.145,0,0,0-.317-1.257,1.031,1.031,0,0,0-.892-.446,1.014,1.014,0,0,0-.881.443A2.41,2.41,0,0,0,8.782,7.153Z" transform="translate(627.28 5235.487)" fill="#12263f"/>
    <path id="Trazado_875909" data-name="Trazado 875909" d="M-93.765-5.291h.7A2.322,2.322,0,0,0-91.6-5.677,1.352,1.352,0,0,0-91.12-6.8a1.386,1.386,0,0,0-.407-1.1A1.906,1.906,0,0,0-92.8-8.258h-.964Zm4.785-1.586a3.055,3.055,0,0,1-1.008,2.468,4.312,4.312,0,0,1-2.868.854h-.909V0h-2.119V-9.994h3.192a4.246,4.246,0,0,1,2.765.783A2.854,2.854,0,0,1-88.98-6.877ZM-82.4,0l-.4-1.039h-.055a3.079,3.079,0,0,1-1.083.919A3.5,3.5,0,0,1-85.4.137a2.349,2.349,0,0,1-1.733-.629,2.415,2.415,0,0,1-.632-1.791,2.017,2.017,0,0,1,.851-1.794,4.931,4.931,0,0,1,2.567-.639l1.326-.041v-.335a1.039,1.039,0,0,0-1.189-1.162,5.42,5.42,0,0,0-2.153.554l-.69-1.408a6.213,6.213,0,0,1,2.926-.69,3.644,3.644,0,0,1,2.358.67,2.476,2.476,0,0,1,.82,2.037V0Zm-.615-3.541-.807.027a2.583,2.583,0,0,0-1.354.328,1.031,1.031,0,0,0-.444.916q0,.882,1.012.882A1.6,1.6,0,0,0-83.453-1.8a1.465,1.465,0,0,0,.434-1.107Zm8.483-4.245a3.362,3.362,0,0,1,.7.062l-.157,1.955a2.388,2.388,0,0,0-.615-.068,2.211,2.211,0,0,0-1.555.513,1.853,1.853,0,0,0-.557,1.436V0H-78.8V-7.643h1.579l.308,1.285h.1a2.873,2.873,0,0,1,.96-1.036A2.368,2.368,0,0,1-74.536-7.786Zm5.312,6.262a4.52,4.52,0,0,0,1.313-.239V-.212a4.68,4.68,0,0,1-1.914.349A2.343,2.343,0,0,1-71.647-.5a2.752,2.752,0,0,1-.571-1.9V-6.077h-1v-.882l1.148-.7.6-1.613h1.333v1.627h2.14v1.565h-2.14v3.685a.814.814,0,0,0,.25.656A.984.984,0,0,0-69.224-1.524Zm2.769-8.094q0-1.019,1.135-1.019t1.135,1.019a.993.993,0,0,1-.284.755,1.192,1.192,0,0,1-.851.27Q-66.456-8.593-66.456-9.618ZM-64.282,0h-2.085V-7.643h2.085Zm5.291.137q-3.568,0-3.568-3.917a4.178,4.178,0,0,1,.971-2.977,3.641,3.641,0,0,1,2.782-1.029,5.3,5.3,0,0,1,2.379.52l-.615,1.613q-.492-.2-.916-.325a2.951,2.951,0,0,0-.848-.126q-1.627,0-1.627,2.311,0,2.242,1.627,2.242a3.709,3.709,0,0,0,1.114-.161,4.023,4.023,0,0,0,1.025-.5V-.431a3.36,3.36,0,0,1-1.022.444A5.747,5.747,0,0,1-58.991.137Zm4.006-9.755q0-1.019,1.135-1.019t1.135,1.019A.993.993,0,0,1-53-8.863a1.192,1.192,0,0,1-.851.27Q-54.985-8.593-54.985-9.618ZM-52.811,0H-54.9V-7.643h2.085Zm6.385.137a2.535,2.535,0,0,1-2.112-.978h-.109q.109.957.109,1.107v3.1h-2.085V-7.643h1.7l.294.991h.1a2.412,2.412,0,0,1,2.167-1.135A2.48,2.48,0,0,1-44.252-6.74a4.837,4.837,0,0,1,.766,2.905,5.737,5.737,0,0,1-.359,2.126A2.982,2.982,0,0,1-44.868-.335,2.619,2.619,0,0,1-46.426.137Zm-.615-6.255a1.316,1.316,0,0,0-1.128.475,2.728,2.728,0,0,0-.369,1.569v.226a3.22,3.22,0,0,0,.366,1.764,1.305,1.305,0,0,0,1.159.533q1.4,0,1.4-2.311a3.3,3.3,0,0,0-.345-1.692A1.178,1.178,0,0,0-47.042-6.118ZM-36.911,0l-.4-1.039h-.055a3.079,3.079,0,0,1-1.083.919A3.5,3.5,0,0,1-39.9.137a2.349,2.349,0,0,1-1.733-.629,2.415,2.415,0,0,1-.632-1.791,2.017,2.017,0,0,1,.851-1.794,4.932,4.932,0,0,1,2.567-.639l1.326-.041v-.335a1.039,1.039,0,0,0-1.189-1.162,5.42,5.42,0,0,0-2.153.554l-.69-1.408a6.213,6.213,0,0,1,2.926-.69,3.644,3.644,0,0,1,2.358.67,2.476,2.476,0,0,1,.82,2.037V0Zm-.615-3.541-.807.027a2.583,2.583,0,0,0-1.354.328,1.031,1.031,0,0,0-.444.916q0,.882,1.012.882A1.6,1.6,0,0,0-37.96-1.8a1.465,1.465,0,0,0,.434-1.107ZM-30.2.137q-3.568,0-3.568-3.917A4.178,4.178,0,0,1-32.8-6.757,3.641,3.641,0,0,1-30.02-7.786a5.3,5.3,0,0,1,2.379.52l-.615,1.613q-.492-.2-.916-.325A2.951,2.951,0,0,0-30.02-6.1q-1.627,0-1.627,2.311,0,2.242,1.627,2.242a3.709,3.709,0,0,0,1.114-.161,4.023,4.023,0,0,0,1.025-.5V-.431A3.36,3.36,0,0,1-28.9.014,5.747,5.747,0,0,1-30.2.137ZM-26.2-9.618q0-1.019,1.135-1.019t1.135,1.019a.993.993,0,0,1-.284.755,1.192,1.192,0,0,1-.851.27Q-26.2-8.593-26.2-9.618ZM-24.025,0H-26.11V-7.643h2.085Zm3.849-3.835A3.208,3.208,0,0,0-19.8-2.119a1.332,1.332,0,0,0,1.213.581,1.311,1.311,0,0,0,1.2-.578,3.254,3.254,0,0,0,.366-1.719,3.157,3.157,0,0,0-.369-1.7A1.335,1.335,0,0,0-18.6-6.1a1.33,1.33,0,0,0-1.2.564A3.154,3.154,0,0,0-20.176-3.835Zm5.284,0a4.107,4.107,0,0,1-.984,2.919A3.569,3.569,0,0,1-18.618.137a3.835,3.835,0,0,1-1.941-.482,3.207,3.207,0,0,1-1.292-1.384A4.652,4.652,0,0,1-22.3-3.835a4.084,4.084,0,0,1,.978-2.912,3.59,3.59,0,0,1,2.748-1.039,3.856,3.856,0,0,1,1.941.479,3.194,3.194,0,0,1,1.292,1.374A4.608,4.608,0,0,1-14.892-3.835Zm-4.847-4.648v-.185a19.246,19.246,0,0,0,1.606-2.058h2.338v.144q-.355.355-1.213,1.056t-1.343,1.042ZM-6.115,0H-8.2V-4.464A2.144,2.144,0,0,0-8.494-5.7a1.069,1.069,0,0,0-.937-.414,1.408,1.408,0,0,0-1.265.584,3.625,3.625,0,0,0-.39,1.938V0h-2.085V-7.643h1.593l.28.978h.116a2.2,2.2,0,0,1,.96-.837,3.271,3.271,0,0,1,1.391-.284,2.673,2.673,0,0,1,2.023.721,2.894,2.894,0,0,1,.69,2.082ZM2.833-6.3a1.322,1.322,0,0,0-1.039.42,1.946,1.946,0,0,0-.431,1.193H4.29a1.738,1.738,0,0,0-.4-1.193A1.366,1.366,0,0,0,2.833-6.3ZM3.127.137A3.945,3.945,0,0,1,.243-.882,3.857,3.857,0,0,1-.8-3.767a4.242,4.242,0,0,1,.96-2.97A3.42,3.42,0,0,1,2.82-7.786a3.366,3.366,0,0,1,2.522.923,3.491,3.491,0,0,1,.9,2.55V-3.3H1.316a2.007,2.007,0,0,0,.526,1.388,1.852,1.852,0,0,0,1.381.5,5.732,5.732,0,0,0,1.306-.144,6.533,6.533,0,0,0,1.285-.458V-.4A4.9,4.9,0,0,1,4.645,0,7.37,7.37,0,0,1,3.127.137ZM14.995,0H12.91V-4.464A2.144,2.144,0,0,0,12.616-5.7a1.069,1.069,0,0,0-.937-.414,1.408,1.408,0,0,0-1.265.584,3.625,3.625,0,0,0-.39,1.938V0H7.94V-7.643H9.533l.28.978h.116a2.2,2.2,0,0,1,.96-.837,3.271,3.271,0,0,1,1.391-.284,2.673,2.673,0,0,1,2.023.721,2.894,2.894,0,0,1,.69,2.082Zm8.948-6.3a1.322,1.322,0,0,0-1.039.42,1.946,1.946,0,0,0-.431,1.193H25.4A1.738,1.738,0,0,0,25-5.882,1.366,1.366,0,0,0,23.943-6.3ZM24.237.137A3.945,3.945,0,0,1,21.352-.882a3.857,3.857,0,0,1-1.039-2.885,4.242,4.242,0,0,1,.96-2.97,3.42,3.42,0,0,1,2.656-1.049,3.366,3.366,0,0,1,2.522.923,3.491,3.491,0,0,1,.9,2.55V-3.3H22.425a2.007,2.007,0,0,0,.526,1.388,1.852,1.852,0,0,0,1.381.5,5.732,5.732,0,0,0,1.306-.144,6.533,6.533,0,0,0,1.285-.458V-.4A4.9,4.9,0,0,1,25.754,0,7.37,7.37,0,0,1,24.237.137ZM31.134,0H29.049V-10.637h2.085ZM43.8,0H41.716V-4.464A2.249,2.249,0,0,0,41.439-5.7a.974.974,0,0,0-.872-.414,1.262,1.262,0,0,0-1.162.588A3.856,3.856,0,0,0,39.043-3.6V0H36.958V-7.643h1.593l.28.978h.116a2.118,2.118,0,0,1,.889-.824,2.885,2.885,0,0,1,1.333-.3,2.4,2.4,0,0,1,2.324,1.121h.185a2.065,2.065,0,0,1,.906-.827,3.021,3.021,0,0,1,1.35-.294A2.665,2.665,0,0,1,47.9-7.12a2.927,2.927,0,0,1,.667,2.136V0H46.474V-4.464A2.249,2.249,0,0,0,46.2-5.7a.974.974,0,0,0-.872-.414,1.3,1.3,0,0,0-1.145.547A3.1,3.1,0,0,0,43.8-3.835ZM53.871-6.3a1.322,1.322,0,0,0-1.039.42A1.946,1.946,0,0,0,52.4-4.689h2.926a1.738,1.738,0,0,0-.4-1.193A1.366,1.366,0,0,0,53.871-6.3ZM54.165.137A3.945,3.945,0,0,1,51.28-.882a3.857,3.857,0,0,1-1.039-2.885,4.242,4.242,0,0,1,.96-2.97,3.42,3.42,0,0,1,2.656-1.049,3.366,3.366,0,0,1,2.522.923,3.491,3.491,0,0,1,.9,2.55V-3.3H52.353a2.007,2.007,0,0,0,.526,1.388,1.852,1.852,0,0,0,1.381.5,5.732,5.732,0,0,0,1.306-.144,6.533,6.533,0,0,0,1.285-.458V-.4A4.9,4.9,0,0,1,55.682,0,7.37,7.37,0,0,1,54.165.137Zm9.078-7.923a3.362,3.362,0,0,1,.7.062L63.79-5.77a2.388,2.388,0,0,0-.615-.068,2.211,2.211,0,0,0-1.555.513,1.853,1.853,0,0,0-.557,1.436V0H58.977V-7.643h1.579l.308,1.285h.1a2.873,2.873,0,0,1,.96-1.036A2.368,2.368,0,0,1,63.243-7.786ZM68.158.137q-3.568,0-3.568-3.917a4.178,4.178,0,0,1,.971-2.977,3.641,3.641,0,0,1,2.782-1.029,5.3,5.3,0,0,1,2.379.52l-.615,1.613q-.492-.2-.916-.325a2.951,2.951,0,0,0-.848-.126q-1.627,0-1.627,2.311,0,2.242,1.627,2.242a3.709,3.709,0,0,0,1.114-.161,4.023,4.023,0,0,0,1.025-.5V-.431A3.36,3.36,0,0,1,69.46.014,5.747,5.747,0,0,1,68.158.137ZM77.106,0l-.4-1.039h-.055a3.079,3.079,0,0,1-1.083.919,3.5,3.5,0,0,1-1.453.256,2.349,2.349,0,0,1-1.733-.629,2.415,2.415,0,0,1-.632-1.791A2.017,2.017,0,0,1,72.6-4.078a4.931,4.931,0,0,1,2.567-.639l1.326-.041v-.335A1.039,1.039,0,0,0,75.3-6.255a5.42,5.42,0,0,0-2.153.554l-.69-1.408a6.213,6.213,0,0,1,2.926-.69,3.644,3.644,0,0,1,2.358.67,2.476,2.476,0,0,1,.82,2.037V0Zm-.615-3.541-.807.027a2.583,2.583,0,0,0-1.354.328,1.031,1.031,0,0,0-.444.916q0,.882,1.012.882A1.6,1.6,0,0,0,76.057-1.8a1.465,1.465,0,0,0,.434-1.107ZM83.128.137A2.482,2.482,0,0,1,81.013-.909a4.808,4.808,0,0,1-.769-2.9,4.813,4.813,0,0,1,.783-2.929,2.542,2.542,0,0,1,2.157-1.049,2.493,2.493,0,0,1,2.2,1.121h.068A8.523,8.523,0,0,1,85.3-8.189v-2.447h2.092V0h-1.6l-.4-.991H85.3A2.386,2.386,0,0,1,83.128.137Zm.731-1.661a1.413,1.413,0,0,0,1.172-.465,2.7,2.7,0,0,0,.407-1.579v-.226a3.125,3.125,0,0,0-.379-1.764,1.409,1.409,0,0,0-1.234-.533,1.224,1.224,0,0,0-1.083.591,3.155,3.155,0,0,0-.386,1.719,2.99,2.99,0,0,0,.39,1.692A1.273,1.273,0,0,0,83.86-1.524Zm7.369-2.311A3.208,3.208,0,0,0,91.6-2.119a1.332,1.332,0,0,0,1.213.581,1.311,1.311,0,0,0,1.2-.578,3.254,3.254,0,0,0,.366-1.719,3.157,3.157,0,0,0-.369-1.7A1.335,1.335,0,0,0,92.8-6.1a1.33,1.33,0,0,0-1.2.564A3.154,3.154,0,0,0,91.229-3.835Zm5.284,0a4.107,4.107,0,0,1-.984,2.919A3.569,3.569,0,0,1,92.788.137a3.835,3.835,0,0,1-1.941-.482,3.207,3.207,0,0,1-1.292-1.384A4.652,4.652,0,0,1,89.1-3.835a4.084,4.084,0,0,1,.978-2.912,3.59,3.59,0,0,1,2.748-1.039,3.856,3.856,0,0,1,1.941.479,3.194,3.194,0,0,1,1.292,1.374A4.608,4.608,0,0,1,96.513-3.835Z" transform="translate(563.718 5379.885)" fill="#12263f"/>
    <path id="Trazado_875923" data-name="Trazado 875923" d="M-86.734-3.789A4.025,4.025,0,0,1-88.09-.9,4.76,4.76,0,0,1-91.312.156a4.28,4.28,0,0,1-3.441-1.473,6.038,6.038,0,0,1-1.254-4.043v-.7a6.819,6.819,0,0,1,.578-2.891,4.332,4.332,0,0,1,1.652-1.918,4.629,4.629,0,0,1,2.5-.668,4.637,4.637,0,0,1,3.172,1.055,4.326,4.326,0,0,1,1.391,2.961h-2.344a2.376,2.376,0,0,0-.613-1.6,2.271,2.271,0,0,0-1.605-.5,1.991,1.991,0,0,0-1.754.84,4.707,4.707,0,0,0-.6,2.605V-5.3a5.038,5.038,0,0,0,.559,2.7,1.954,1.954,0,0,0,1.762.852,2.314,2.314,0,0,0,1.621-.5,2.241,2.241,0,0,0,.613-1.535Zm6.141-2.547a6.134,6.134,0,0,0-.812-.062,1.654,1.654,0,0,0-1.68.867V0h-2.258V-8.453h2.133l.063,1.008a2.092,2.092,0,0,1,1.883-1.164,2.366,2.366,0,0,1,.7.1ZM-75.617.156A4.15,4.15,0,0,1-78.645-.984a4.054,4.054,0,0,1-1.168-3.039v-.219A5.106,5.106,0,0,1-79.32-6.52a3.612,3.612,0,0,1,1.395-1.547,3.914,3.914,0,0,1,2.059-.543,3.508,3.508,0,0,1,2.73,1.094,4.444,4.444,0,0,1,1,3.1v.922h-5.383a2.1,2.1,0,0,0,.66,1.328,2,2,0,0,0,1.395.5,2.437,2.437,0,0,0,2.039-.945l1.109,1.242A3.389,3.389,0,0,1-73.7-.246,4.511,4.511,0,0,1-75.617.156Zm-.258-6.937a1.414,1.414,0,0,0-1.09.453,2.341,2.341,0,0,0-.535,1.3h3.141v-.18a1.669,1.669,0,0,0-.406-1.16A1.459,1.459,0,0,0-75.875-6.781Zm8.531,5.117a1.481,1.481,0,0,0,1.016-.344,1.2,1.2,0,0,0,.406-.914H-63.8a2.9,2.9,0,0,1-.469,1.574A3.093,3.093,0,0,1-65.535-.238,3.949,3.949,0,0,1-67.3.156,3.67,3.67,0,0,1-70.164-1,4.56,4.56,0,0,1-71.211-4.18v-.148a4.508,4.508,0,0,1,1.039-3.117A3.627,3.627,0,0,1-67.32-8.609a3.555,3.555,0,0,1,2.543.9A3.2,3.2,0,0,1-63.8-5.3h-2.117a1.539,1.539,0,0,0-.406-1.066,1.358,1.358,0,0,0-1.031-.41,1.361,1.361,0,0,0-1.191.574,3.324,3.324,0,0,0-.4,1.863v.234a3.366,3.366,0,0,0,.4,1.875A1.378,1.378,0,0,0-67.344-1.664ZM-60.133,0H-62.4V-8.453h2.266Zm-2.4-10.641a1.112,1.112,0,0,1,.34-.836,1.277,1.277,0,0,1,.926-.328,1.28,1.28,0,0,1,.922.328,1.105,1.105,0,0,1,.344.836,1.108,1.108,0,0,1-.348.844,1.283,1.283,0,0,1-.918.328,1.283,1.283,0,0,1-.918-.328A1.108,1.108,0,0,1-62.531-10.641Zm6.375,2.188.07.945a2.971,2.971,0,0,1,2.43-1.1A2.255,2.255,0,0,1-51.414-7.32a2.9,2.9,0,0,1,2.539-1.289,2.521,2.521,0,0,1,2.047.8,3.681,3.681,0,0,1,.672,2.41V0h-2.266V-5.391A1.61,1.61,0,0,0-48.7-6.441a1.246,1.246,0,0,0-.992-.332A1.409,1.409,0,0,0-51.1-5.8l.008,5.8h-2.258V-5.383a1.59,1.59,0,0,0-.289-1.062,1.259,1.259,0,0,0-.984-.328,1.463,1.463,0,0,0-1.391.8V0h-2.258V-8.453ZM-42.039,0H-44.3V-8.453h2.266Zm-2.4-10.641a1.112,1.112,0,0,1,.34-.836,1.277,1.277,0,0,1,.926-.328,1.28,1.28,0,0,1,.922.328,1.105,1.105,0,0,1,.344.836,1.108,1.108,0,0,1-.348.844,1.283,1.283,0,0,1-.918.328A1.283,1.283,0,0,1-44.09-9.8,1.108,1.108,0,0,1-44.437-10.641Zm8.148,10.8A4.15,4.15,0,0,1-39.316-.984a4.054,4.054,0,0,1-1.168-3.039v-.219a5.106,5.106,0,0,1,.492-2.277A3.612,3.612,0,0,1-38.6-8.066a3.914,3.914,0,0,1,2.059-.543,3.508,3.508,0,0,1,2.73,1.094,4.444,4.444,0,0,1,1,3.1v.922H-38.2a2.1,2.1,0,0,0,.66,1.328,2,2,0,0,0,1.395.5A2.437,2.437,0,0,0-34.1-2.609l1.109,1.242A3.389,3.389,0,0,1-34.367-.246,4.511,4.511,0,0,1-36.289.156Zm-.258-6.937a1.414,1.414,0,0,0-1.09.453,2.341,2.341,0,0,0-.535,1.3h3.141v-.18a1.669,1.669,0,0,0-.406-1.16A1.459,1.459,0,0,0-36.547-6.781Zm7.094-1.672.07.977a2.951,2.951,0,0,1,2.43-1.133,2.453,2.453,0,0,1,2,.789,3.682,3.682,0,0,1,.672,2.359V0h-2.258V-5.406a1.465,1.465,0,0,0-.312-1.043,1.4,1.4,0,0,0-1.039-.324,1.553,1.553,0,0,0-1.43.813V0h-2.258V-8.453Zm9.586-2.078v2.078h1.445V-6.8h-1.445v4.219a1.007,1.007,0,0,0,.18.672A.9.9,0,0,0-19-1.7a3.6,3.6,0,0,0,.664-.055V-.047a4.648,4.648,0,0,1-1.367.2,2.156,2.156,0,0,1-2.422-2.4V-6.8h-1.234V-8.453h1.234v-2.078ZM-17.75-4.3a5.013,5.013,0,0,1,.484-2.242A3.546,3.546,0,0,1-15.871-8.07a4.069,4.069,0,0,1,2.113-.539,3.849,3.849,0,0,1,2.793,1.047A4.2,4.2,0,0,1-9.758-4.719l.016.578A4.418,4.418,0,0,1-10.828-1.02,3.775,3.775,0,0,1-13.742.156,3.793,3.793,0,0,1-16.66-1.016,4.5,4.5,0,0,1-17.75-4.2Zm2.258.164a3.151,3.151,0,0,0,.453,1.84,1.5,1.5,0,0,0,1.3.637,1.5,1.5,0,0,0,1.281-.629A3.448,3.448,0,0,0-12-4.3a3.12,3.12,0,0,0-.461-1.828,1.5,1.5,0,0,0-1.3-.648,1.475,1.475,0,0,0-1.281.645A3.506,3.506,0,0,0-15.492-4.141Zm10.773-.148a5.094,5.094,0,0,1,.887-3.148A2.877,2.877,0,0,1-1.406-8.609a2.589,2.589,0,0,1,2.039.922V-12H2.9V0H.859L.75-.9A2.657,2.657,0,0,1-1.422.156,2.869,2.869,0,0,1-3.816-1.02,5.258,5.258,0,0,1-4.719-4.289Zm2.258.164A3.328,3.328,0,0,0-2.047-2.3a1.349,1.349,0,0,0,1.2.633A1.511,1.511,0,0,0,.633-2.555V-5.891A1.489,1.489,0,0,0-.828-6.773Q-2.461-6.773-2.461-4.125Zm11,4.281A4.15,4.15,0,0,1,5.512-.984,4.054,4.054,0,0,1,4.344-4.023v-.219A5.106,5.106,0,0,1,4.836-6.52,3.612,3.612,0,0,1,6.23-8.066a3.914,3.914,0,0,1,2.059-.543,3.508,3.508,0,0,1,2.73,1.094,4.444,4.444,0,0,1,1,3.1v.922H6.633a2.1,2.1,0,0,0,.66,1.328,2,2,0,0,0,1.395.5,2.437,2.437,0,0,0,2.039-.945l1.109,1.242A3.389,3.389,0,0,1,10.461-.246,4.511,4.511,0,0,1,8.539.156ZM8.281-6.781a1.414,1.414,0,0,0-1.09.453,2.341,2.341,0,0,0-.535,1.3H9.8v-.18a1.669,1.669,0,0,0-.406-1.16A1.459,1.459,0,0,0,8.281-6.781ZM19.664,0H17.4V-12h2.266Zm6.758,0A2.507,2.507,0,0,1,26.2-.758a2.732,2.732,0,0,1-2.133.914A3,3,0,0,1,22-.562a2.312,2.312,0,0,1-.816-1.812,2.389,2.389,0,0,1,1-2.062,4.915,4.915,0,0,1,2.879-.727H26.1v-.484a1.393,1.393,0,0,0-.3-.937,1.183,1.183,0,0,0-.949-.352,1.345,1.345,0,0,0-.895.273.929.929,0,0,0-.324.75H21.375a2.268,2.268,0,0,1,.453-1.359,3,3,0,0,1,1.281-.98,4.669,4.669,0,0,1,1.859-.355,3.689,3.689,0,0,1,2.48.785,2.747,2.747,0,0,1,.918,2.207v3.664A4.041,4.041,0,0,0,28.7-.133V0ZM24.555-1.57a1.945,1.945,0,0,0,.922-.223,1.462,1.462,0,0,0,.625-.6V-3.844h-.844q-1.7,0-1.8,1.172l-.008.133a.9.9,0,0,0,.3.7A1.153,1.153,0,0,0,24.555-1.57ZM36.469,0H34.2V-8.453h2.266Zm-2.4-10.641a1.112,1.112,0,0,1,.34-.836,1.277,1.277,0,0,1,.926-.328,1.28,1.28,0,0,1,.922.328,1.105,1.105,0,0,1,.344.836,1.108,1.108,0,0,1-.348.844,1.283,1.283,0,0,1-.918.328,1.283,1.283,0,0,1-.918-.328A1.108,1.108,0,0,1,34.07-10.641Zm6.336,2.188.07.977a2.951,2.951,0,0,1,2.43-1.133,2.453,2.453,0,0,1,2,.789,3.682,3.682,0,0,1,.672,2.359V0H43.32V-5.406a1.465,1.465,0,0,0-.312-1.043,1.4,1.4,0,0,0-1.039-.324,1.553,1.553,0,0,0-1.43.813V0H38.281V-8.453Zm6.531,4.164a5.094,5.094,0,0,1,.887-3.148A2.877,2.877,0,0,1,50.25-8.609a2.589,2.589,0,0,1,2.039.922V-12h2.266V0H52.516l-.109-.9A2.657,2.657,0,0,1,50.234.156,2.869,2.869,0,0,1,47.84-1.02,5.258,5.258,0,0,1,46.938-4.289Zm2.258.164a3.328,3.328,0,0,0,.414,1.82,1.349,1.349,0,0,0,1.2.633,1.511,1.511,0,0,0,1.477-.883V-5.891a1.489,1.489,0,0,0-1.461-.883Q49.2-6.773,49.2-4.125ZM61.367-.859A2.831,2.831,0,0,1,59.055.156,2.67,2.67,0,0,1,56.98-.625a3.335,3.335,0,0,1-.73-2.289V-8.453h2.258v5.461q0,1.32,1.2,1.32a1.631,1.631,0,0,0,1.578-.8V-8.453h2.266V0H61.43Zm8.469-1.477a.727.727,0,0,0-.41-.652,4.659,4.659,0,0,0-1.316-.426q-3.016-.633-3.016-2.562a2.323,2.323,0,0,1,.934-1.879,3.766,3.766,0,0,1,2.441-.754,4.053,4.053,0,0,1,2.574.758,2.388,2.388,0,0,1,.965,1.969H69.75a1.092,1.092,0,0,0-.312-.8A1.322,1.322,0,0,0,68.461-7a1.351,1.351,0,0,0-.883.258.814.814,0,0,0-.312.656.7.7,0,0,0,.355.605,3.657,3.657,0,0,0,1.2.4,9.8,9.8,0,0,1,1.422.379A2.336,2.336,0,0,1,72.031-2.43a2.2,2.2,0,0,1-.992,1.871,4.28,4.28,0,0,1-2.562.715A4.47,4.47,0,0,1,66.59-.223,3.166,3.166,0,0,1,65.3-1.262a2.414,2.414,0,0,1-.469-1.426h2.141a1.179,1.179,0,0,0,.445.922,1.766,1.766,0,0,0,1.109.32,1.635,1.635,0,0,0,.98-.246A.766.766,0,0,0,69.836-2.336Zm6.352-8.2v2.078h1.445V-6.8H76.188v4.219a1.007,1.007,0,0,0,.18.672.9.9,0,0,0,.688.2,3.6,3.6,0,0,0,.664-.055V-.047a4.648,4.648,0,0,1-1.367.2,2.156,2.156,0,0,1-2.422-2.4V-6.8H72.7V-8.453H73.93v-2.078Zm7.453,4.2a6.134,6.134,0,0,0-.812-.062,1.654,1.654,0,0,0-1.68.867V0H78.891V-8.453h2.133l.063,1.008a2.092,2.092,0,0,1,1.883-1.164,2.366,2.366,0,0,1,.7.1ZM87.109,0H84.844V-8.453h2.266Zm-2.4-10.641a1.112,1.112,0,0,1,.34-.836,1.277,1.277,0,0,1,.926-.328,1.28,1.28,0,0,1,.922.328,1.105,1.105,0,0,1,.344.836,1.108,1.108,0,0,1-.348.844,1.283,1.283,0,0,1-.918.328,1.283,1.283,0,0,1-.918-.328A1.108,1.108,0,0,1,84.711-10.641ZM93.867,0a2.507,2.507,0,0,1-.227-.758,2.732,2.732,0,0,1-2.133.914,3,3,0,0,1-2.059-.719,2.312,2.312,0,0,1-.816-1.812,2.389,2.389,0,0,1,1-2.062,4.915,4.915,0,0,1,2.879-.727h1.039v-.484a1.393,1.393,0,0,0-.3-.937,1.183,1.183,0,0,0-.949-.352,1.345,1.345,0,0,0-.895.273.929.929,0,0,0-.324.75H88.82a2.268,2.268,0,0,1,.453-1.359,3,3,0,0,1,1.281-.98,4.669,4.669,0,0,1,1.859-.355,3.689,3.689,0,0,1,2.48.785,2.747,2.747,0,0,1,.918,2.207v3.664a4.041,4.041,0,0,0,.336,1.82V0ZM92-1.57a1.945,1.945,0,0,0,.922-.223,1.462,1.462,0,0,0,.625-.6V-3.844H92.7q-1.7,0-1.8,1.172l-.008.133a.9.9,0,0,0,.3.7A1.153,1.153,0,0,0,92-1.57ZM-54.027,11.8l1.563-5.258h2.422l-3.4,9.766-.187.445a2.577,2.577,0,0,1-2.5,1.656,3.552,3.552,0,0,1-1-.148V16.555l.344.008a1.857,1.857,0,0,0,.957-.2,1.283,1.283,0,0,0,.5-.648l.266-.7-2.961-8.477h2.43Zm5.586,4.172h-1.68l4.188-12.352h1.68Zm4.914-5.281a5.013,5.013,0,0,1,.484-2.242A3.546,3.546,0,0,1-41.648,6.93a4.069,4.069,0,0,1,2.113-.539,3.849,3.849,0,0,1,2.793,1.047,4.2,4.2,0,0,1,1.207,2.844l.016.578a4.418,4.418,0,0,1-1.086,3.121,3.775,3.775,0,0,1-2.914,1.176,3.793,3.793,0,0,1-2.918-1.172,4.5,4.5,0,0,1-1.09-3.187Zm2.258.164a3.151,3.151,0,0,0,.453,1.84,1.5,1.5,0,0,0,1.3.637,1.5,1.5,0,0,0,1.281-.629,3.448,3.448,0,0,0,.461-2.012,3.12,3.12,0,0,0-.461-1.828,1.5,1.5,0,0,0-1.3-.648,1.475,1.475,0,0,0-1.281.645A3.506,3.506,0,0,0-41.27,10.859Zm10.773-.148a5.094,5.094,0,0,1,.887-3.148,2.877,2.877,0,0,1,2.426-1.172,2.589,2.589,0,0,1,2.039.922V3h2.266V15h-2.039l-.109-.9A2.657,2.657,0,0,1-27.2,15.156a2.869,2.869,0,0,1-2.395-1.176A5.258,5.258,0,0,1-30.5,10.711Zm2.258.164a3.328,3.328,0,0,0,.414,1.82,1.349,1.349,0,0,0,1.2.633,1.511,1.511,0,0,0,1.477-.883V9.109a1.489,1.489,0,0,0-1.461-.883Q-28.238,8.227-28.238,10.875Zm11,4.281a4.15,4.15,0,0,1-3.027-1.141,4.054,4.054,0,0,1-1.168-3.039v-.219a5.106,5.106,0,0,1,.492-2.277,3.612,3.612,0,0,1,1.395-1.547,3.914,3.914,0,0,1,2.059-.543,3.508,3.508,0,0,1,2.73,1.094,4.444,4.444,0,0,1,1,3.1v.922h-5.383a2.1,2.1,0,0,0,.66,1.328,2,2,0,0,0,1.395.5,2.437,2.437,0,0,0,2.039-.945l1.109,1.242a3.389,3.389,0,0,1-1.375,1.121A4.511,4.511,0,0,1-17.238,15.156ZM-17.5,8.219a1.414,1.414,0,0,0-1.09.453,2.341,2.341,0,0,0-.535,1.3h3.141v-.18a1.669,1.669,0,0,0-.406-1.16A1.459,1.459,0,0,0-17.5,8.219ZM-10.1,15h-2.266V3H-10.1Zm7.961-8.453.07.945a2.971,2.971,0,0,1,2.43-1.1A2.255,2.255,0,0,1,2.605,7.68,2.9,2.9,0,0,1,5.145,6.391a2.521,2.521,0,0,1,2.047.8A3.681,3.681,0,0,1,7.863,9.6V15H5.6V9.609a1.61,1.61,0,0,0-.281-1.051,1.246,1.246,0,0,0-.992-.332A1.409,1.409,0,0,0,2.918,9.2L2.926,15H.668V9.617A1.59,1.59,0,0,0,.379,8.555a1.259,1.259,0,0,0-.984-.328A1.463,1.463,0,0,0-2,9.023V15H-4.254V6.547Zm15.625,8.609a4.15,4.15,0,0,1-3.027-1.141,4.054,4.054,0,0,1-1.168-3.039v-.219A5.106,5.106,0,0,1,9.785,8.48,3.612,3.612,0,0,1,11.18,6.934a3.914,3.914,0,0,1,2.059-.543,3.508,3.508,0,0,1,2.73,1.094,4.444,4.444,0,0,1,1,3.1v.922H11.582a2.1,2.1,0,0,0,.66,1.328,2,2,0,0,0,1.395.5,2.437,2.437,0,0,0,2.039-.945l1.109,1.242a3.389,3.389,0,0,1-1.375,1.121A4.511,4.511,0,0,1,13.488,15.156ZM13.23,8.219a1.414,1.414,0,0,0-1.09.453,2.341,2.341,0,0,0-.535,1.3h3.141v-.18a1.669,1.669,0,0,0-.406-1.16A1.459,1.459,0,0,0,13.23,8.219ZM23,8.664a6.134,6.134,0,0,0-.812-.062,1.654,1.654,0,0,0-1.68.867V15H18.246V6.547h2.133l.063,1.008a2.092,2.092,0,0,1,1.883-1.164,2.366,2.366,0,0,1,.7.1Zm4.453,4.672a1.481,1.481,0,0,0,1.016-.344,1.2,1.2,0,0,0,.406-.914h2.117a2.9,2.9,0,0,1-.469,1.574,3.093,3.093,0,0,1-1.262,1.109,3.949,3.949,0,0,1-1.77.395A3.67,3.67,0,0,1,24.629,14a4.56,4.56,0,0,1-1.047-3.184v-.148a4.508,4.508,0,0,1,1.039-3.117,3.627,3.627,0,0,1,2.852-1.164,3.555,3.555,0,0,1,2.543.9,3.2,3.2,0,0,1,.973,2.4H28.871a1.539,1.539,0,0,0-.406-1.066,1.513,1.513,0,0,0-2.223.164,3.324,3.324,0,0,0-.4,1.863v.234a3.366,3.366,0,0,0,.4,1.875A1.378,1.378,0,0,0,27.449,13.336ZM37.176,15a2.507,2.507,0,0,1-.227-.758,2.732,2.732,0,0,1-2.133.914,3,3,0,0,1-2.059-.719,2.312,2.312,0,0,1-.816-1.812,2.389,2.389,0,0,1,1-2.062,4.915,4.915,0,0,1,2.879-.727h1.039V9.352a1.393,1.393,0,0,0-.3-.937,1.183,1.183,0,0,0-.949-.352,1.345,1.345,0,0,0-.895.273.929.929,0,0,0-.324.75H32.129a2.268,2.268,0,0,1,.453-1.359,3,3,0,0,1,1.281-.98,4.669,4.669,0,0,1,1.859-.355,3.689,3.689,0,0,1,2.48.785,2.747,2.747,0,0,1,.918,2.207v3.664a4.041,4.041,0,0,0,.336,1.82V15Zm-1.867-1.57a1.945,1.945,0,0,0,.922-.223,1.462,1.462,0,0,0,.625-.6V11.156h-.844q-1.7,0-1.8,1.172l-.008.133a.9.9,0,0,0,.3.7A1.153,1.153,0,0,0,35.309,13.43Zm5.2-2.719a5.094,5.094,0,0,1,.887-3.148,2.877,2.877,0,0,1,2.426-1.172,2.589,2.589,0,0,1,2.039.922V3h2.266V15H46.082l-.109-.9A2.657,2.657,0,0,1,43.8,15.156a2.869,2.869,0,0,1-2.395-1.176A5.258,5.258,0,0,1,40.5,10.711Zm2.258.164a3.328,3.328,0,0,0,.414,1.82,1.349,1.349,0,0,0,1.2.633,1.511,1.511,0,0,0,1.477-.883V9.109a1.489,1.489,0,0,0-1.461-.883Q42.762,8.227,42.762,10.875Zm6.758-.18A5.013,5.013,0,0,1,50,8.453,3.546,3.546,0,0,1,51.4,6.93a4.069,4.069,0,0,1,2.113-.539A3.849,3.849,0,0,1,56.3,7.438a4.2,4.2,0,0,1,1.207,2.844l.016.578a4.418,4.418,0,0,1-1.086,3.121,4.209,4.209,0,0,1-5.832,0A4.5,4.5,0,0,1,49.52,10.8Zm2.258.164a3.151,3.151,0,0,0,.453,1.84,1.629,1.629,0,0,0,2.578.008A3.448,3.448,0,0,0,55.27,10.7a3.12,3.12,0,0,0-.461-1.828,1.5,1.5,0,0,0-1.3-.648,1.475,1.475,0,0,0-1.281.645A3.506,3.506,0,0,0,51.777,10.859Z" transform="translate(407 5225.279) rotate(-90)" fill="#12263f"/>
    <path id="Trazado_875922" data-name="Trazado 875922" d="M0,211.768V0" transform="translate(440.664 5109.026)" fill="none" stroke="#122637" stroke-width="2"/>
    <path id="Trazado_875911" data-name="Trazado 875911" d="M0,0H211.769" transform="translate(472.466 5352.597)" fill="none" stroke="#122637" stroke-width="2"/>
    <g id="Grupo_12266" data-name="Grupo 12266" transform="translate(616.549 5144.059)">
      <path id="Trazado_16208" data-name="Trazado 16208" d="M1204.763,224.518V221.41a11.555,11.555,0,0,1,1.445-5.983,15.167,15.167,0,0,1,5.134-4.754,19.287,19.287,0,0,0,4.211-3.326,5.043,5.043,0,0,0,1.283-3.4,2.731,2.731,0,0,0-1.374-2.4,6.5,6.5,0,0,0-3.578-.886q-5.46,0-12.761,3.868l-5.025-9.833a37.422,37.422,0,0,1,18.8-5.133q8.062,0,12.653,3.543a11.536,11.536,0,0,1,4.591,9.652,13.786,13.786,0,0,1-2.042,7.573,20.8,20.8,0,0,1-6.525,6.055,25.236,25.236,0,0,0-4.754,3.6,4.055,4.055,0,0,0-.958,2.693v1.844Zm-1.555,12.652a6.681,6.681,0,0,1,1.935-5.134,8.051,8.051,0,0,1,5.693-1.807,7.786,7.786,0,0,1,5.55,1.825,6.7,6.7,0,0,1,1.934,5.115,6.507,6.507,0,0,1-2.007,5.1,7.882,7.882,0,0,1-5.477,1.808,8.167,8.167,0,0,1-5.6-1.79A6.463,6.463,0,0,1,1203.208,237.171Z" transform="translate(-1194.098 -189.561)" fill="none" stroke="#fff" stroke-linecap="round" stroke-linejoin="round" stroke-width="3"/>
    </g>
    <g id="Grupo_12272" data-name="Grupo 12272" transform="translate(494.236 5144.059)">
      <path id="Trazado_16209" data-name="Trazado 16209" d="M1030.456,189.561l8.856,17.945,19.8,2.878-14.33,13.968,3.383,19.724-17.713-9.312-17.713,9.312,3.383-19.724-14.33-13.968,19.8-2.878Z" transform="translate(-1001.795 -189.561)" fill="none" stroke="#fff" stroke-linecap="round" stroke-linejoin="round" stroke-width="3"/>
      <g id="Grupo_12268" data-name="Grupo 12268" transform="translate(107.886 117.143)">
        <g id="Grupo_12267" data-name="Grupo 12267">
          <path id="Trazado_16210" data-name="Trazado 16210" d="M1205.822,400.09a1.267,1.267,0,0,0-1.732.464c-.389.675-2.261.914-2.771.681a1.267,1.267,0,0,0-1.325,2.161,3.738,3.738,0,0,0,1.942.453,6.816,6.816,0,0,0,1.618-.2,4.239,4.239,0,0,0,2.731-1.827,1.268,1.268,0,0,0-.464-1.731Z" transform="translate(-1181.6 -383.266)" fill="#12263f"/>
          <path id="Trazado_16211" data-name="Trazado 16211" d="M1231.915,385.054c-6.339-6.283-11.847-11.741-18.091-8.81-2.094-1.441-4.983-2.508-9.961-2.508s-7.866,1.067-9.961,2.508c-6.244-2.93-11.751,2.526-18.091,8.81a14.555,14.555,0,0,0-4.358,11.627,20.938,20.938,0,0,0,3.022,9.258,13.186,13.186,0,0,0,4.044,3.93c1.575,1.106,2.819,1.979,3.318,4.095.49,2.08,1.66,2.387,2.308,2.387a1.852,1.852,0,0,0,.394-.04c2.062-.446,3-3.934,3.312-5.414a26.877,26.877,0,0,0,.273-8.3c2.541,1.63,2.849,3.208,2.883,3.466-.037,1.1-.192,2.352-.355,3.681-.4,3.279-.821,6.671.415,8.793,1.27,2.181,3.11,3.483,4.922,3.483a4.432,4.432,0,0,0,3.469-1.854,8.887,8.887,0,0,0,8.807,0,4.431,4.431,0,0,0,3.469,1.854c1.812,0,3.652-1.3,4.922-3.483,1.236-2.122.819-5.513.415-8.793-.163-1.329-.317-2.584-.355-3.681.034-.258.342-1.836,2.883-3.466a26.872,26.872,0,0,0,.271,8.294c.308,1.481,1.249,4.976,3.313,5.424a1.857,1.857,0,0,0,.395.04c.649,0,1.819-.308,2.309-2.387.5-2.115,1.742-2.989,3.318-4.095a13.184,13.184,0,0,0,4.044-3.931,20.911,20.911,0,0,0,3.022-9.258,14.552,14.552,0,0,0-4.357-11.627Zm-46.458,24.886a10.414,10.414,0,0,1-1.151,3.447v0c-.719-3.054-2.554-4.342-4.328-5.588a10.8,10.8,0,0,1-3.348-3.193c-.66-1.063-6.245-10.6.967-17.747,6.1-6.051,10.057-9.7,14.07-8.724-.307.3-.6.6-.9.907-.25.256-.5.513-.761.77-2.928,2.9-6.82,7.367-6.82,12.611,0,.267,0,.524,0,.772-.011,3.3-.017,5.437,2.087,7.421a25.889,25.889,0,0,1,.186,9.329Zm15.386,8.1a7.381,7.381,0,0,1,1.642-1.972,1.446,1.446,0,0,1,1.055-.221c.212.005.433.005.646,0a1.446,1.446,0,0,1,1.055.221,7.379,7.379,0,0,1,1.642,1.972,6.433,6.433,0,0,1-6.04,0Zm3.02-9.319c-1.01,0-1.154-.179-1.537-.655a4.93,4.93,0,0,0-1.154-1.113,5.3,5.3,0,0,0-1.625-.658,2.968,2.968,0,0,1-.707-.244.789.789,0,0,1-.046-.34c0-1.325,2.558-2.675,5.069-2.675s5.07,1.35,5.07,2.675a.909.909,0,0,1-.042.335,2.809,2.809,0,0,1-.711.25,5.3,5.3,0,0,0-1.625.658,4.929,4.929,0,0,0-1.154,1.113c-.383.476-.526.655-1.538.655Zm10.6,8.534c-.775,1.331-1.873,2.224-2.731,2.224s-1.6-.941-2.06-1.73a11.6,11.6,0,0,0-2.986-3.761,3.6,3.6,0,0,0-1.56-.632v-2.221a3.644,3.644,0,0,0,2.246-1.481,2.613,2.613,0,0,1,.584-.592,3.243,3.243,0,0,1,.88-.321,2.936,2.936,0,0,0,2.628-3.031c0-3.116-3.932-5.21-7.605-5.21s-7.6,2.094-7.6,5.21a2.936,2.936,0,0,0,2.627,3.031,3.241,3.241,0,0,1,.881.321,2.622,2.622,0,0,1,.584.592,3.643,3.643,0,0,0,2.246,1.481v2.221a3.6,3.6,0,0,0-1.56.632,11.6,11.6,0,0,0-2.986,3.761c-.46.789-1.19,1.73-2.06,1.73s-1.957-.894-2.732-2.224c-.806-1.384-.425-4.478-.089-7.207.166-1.353.339-2.752.376-3.98.094-3.121,2.321-6.648,5.812-9.206,2.017-1.478,3-4.493,3.295-10.082a1.267,1.267,0,1,0-2.531-.132c-.087,1.675-.354,6.772-2.261,8.169a17.46,17.46,0,0,0-6.079,7.538,11.914,11.914,0,0,0-2.938-2.292c-3.139-1.8-3.136-2.769-3.123-6.865,0-.251,0-.51,0-.78,0-4.3,3.464-8.228,6.07-10.811.27-.268.533-.537.789-.8,2.383-2.435,4.442-4.538,11.285-4.538.38,0,.742.007,1.093.02.009,1.09.008,2.2.006,3.29-.011,7.6-.021,14.771,3.407,17.282,3.491,2.557,5.717,6.084,5.812,9.206.037,1.228.209,2.627.376,3.98.336,2.729.717,5.823-.089,7.207Zm1.479-14.9a17.464,17.464,0,0,0-6.079-7.538c-2.39-1.75-2.38-8.913-2.371-15.233,0-1.01,0-2.044,0-3.065,4.064.624,5.758,2.351,7.656,4.29.255.26.518.529.789.8,2.605,2.582,6.069,6.513,6.069,10.811,0,.27,0,.529,0,.78.009,3.18.012,4.477-1.454,5.739a1.414,1.414,0,0,0-.155.128,11.633,11.633,0,0,1-1.515,1A11.891,11.891,0,0,0,1215.947,402.356Zm15.15,2.245a10.785,10.785,0,0,1-3.347,3.193c-1.774,1.246-3.609,2.534-4.328,5.588v0a10.41,10.41,0,0,1-1.152-3.456,25.87,25.87,0,0,1,.187-9.319c2.1-1.984,2.1-4.125,2.088-7.421q0-.373,0-.772c0-5.245-3.892-9.709-6.82-12.611-.26-.256-.511-.514-.761-.77-.3-.3-.594-.606-.9-.907,4.013-.972,7.968,2.676,14.07,8.725C1237.341,394,1231.758,403.538,1231.1,404.6Z" transform="translate(-1171.417 -373.736)" fill="#12263f"/>
          <path id="Trazado_16212" data-name="Trazado 16212" d="M1239.5,401.234c-.51.233-2.381-.005-2.772-.681a1.267,1.267,0,0,0-2.195,1.268,4.238,4.238,0,0,0,2.731,1.827,6.811,6.811,0,0,0,1.617.2,3.738,3.738,0,0,0,1.942-.453,1.267,1.267,0,0,0-1.324-2.161Z" transform="translate(-1194.328 -383.266)" fill="#12263f"/>
          <path id="Trazado_16213" data-name="Trazado 16213" d="M1217.987,383.183h0a1.268,1.268,0,1,0,1.268,1.268A1.267,1.267,0,0,0,1217.985,383.183Z" transform="translate(-1187.905 -377.174)" fill="#12263f"/>
        </g>
      </g>
      <g id="Grupo_12271" data-name="Grupo 12271" transform="translate(1.618 111.339)">
        <g id="Grupo_12270" data-name="Grupo 12270">
          <g id="Grupo_12269" data-name="Grupo 12269">
            <path id="Trazado_16214" data-name="Trazado 16214" d="M1033.811,428.384a1.127,1.127,0,1,0,0,2.253c.44,0,.979.876,1.183,1.478a1.125,1.125,0,0,0,1.069.776,1.112,1.112,0,0,0,.352-.057,1.126,1.126,0,0,0,.718-1.422C1037.033,431.1,1036.075,428.384,1033.811,428.384Z" transform="translate(-1014.656 -387.822)" fill="#fff"/>
            <path id="Trazado_16215" data-name="Trazado 16215" d="M1057.322,428.384c-2.264,0-3.221,2.718-3.323,3.029a1.126,1.126,0,1,0,2.139.7c.176-.53.72-1.478,1.184-1.478a1.126,1.126,0,1,0,0-2.253Z" transform="translate(-1022.393 -387.822)" fill="#fff"/>
            <path id="Trazado_16216" data-name="Trazado 16216" d="M1058.234,385.4c-2.888-4.331-6.167-6.07-9.1-6.775,3.861-2.644,4.289-7.685,4.549-10.751a18.778,18.778,0,0,1,.214-1.913,1.128,1.128,0,0,0-2.148-.648c-2.356,5.664-8.094,7.784-11.4,8.2a14.045,14.045,0,0,0-7.842-2.137h-2.254a14.043,14.043,0,0,0-7.841,2.137c-3.305-.419-9.043-2.539-11.4-8.2a1.128,1.128,0,0,0-2.148.648,18.9,18.9,0,0,1,.213,1.913c.26,3.066.688,8.109,4.551,10.752-2.936.706-6.216,2.446-9.1,6.774a1.125,1.125,0,0,0,.434,1.633,28.289,28.289,0,0,0,10.676,2.329c-.011.39-.032.769-.032,1.17a8.216,8.216,0,0,0,1.723,4.571,7.824,7.824,0,0,1,1.658,4.443v4.634a8.219,8.219,0,0,0-1.127,4.379c0,1.77.741,4.541,5.056,5.378.287.3.569.6.839.913,1.593,1.8,3.4,3.849,7.625,3.849s6.032-2.045,7.625-3.849c.27-.308.552-.613.839-.913,4.316-.838,5.057-3.609,5.057-5.378a8.227,8.227,0,0,0-1.126-4.379v-4.634a7.823,7.823,0,0,1,1.657-4.443,8.214,8.214,0,0,0,1.723-4.571c0-.4-.02-.78-.032-1.17a28.284,28.284,0,0,0,10.676-2.329,1.125,1.125,0,0,0,.434-1.633Zm-27.979-11.77h2.254c7.847,0,10.938,5.4,11.957,11.384-.287.045-.574.093-.866.167a10.528,10.528,0,0,0-7.711,10.379v5.111h-9.013v-5.111a10.528,10.528,0,0,0-7.711-10.379c-.291-.074-.579-.122-.866-.167C1019.318,379.021,1022.408,373.625,1030.255,373.625Zm-14.488,13.494a28.2,28.2,0,0,1-8.555-1.6,12.125,12.125,0,0,1,9.969-5.1A25.722,25.722,0,0,0,1015.767,387.119Zm-4.129-16.712a17.683,17.683,0,0,0,8.558,4.974,13.643,13.643,0,0,0-1.866,2.572C1013.712,377.3,1012.24,374.221,1011.638,370.407Zm7.59,23.475a6.318,6.318,0,0,1-1.367-3.356c0-1.063.047-2.154.144-3.244.2.033.395.027.6.08a7.393,7.393,0,0,1,2.669,1.326,2.167,2.167,0,0,0-1.164,1.839,1.126,1.126,0,0,0,1.126,1.126h2.462a8.858,8.858,0,0,1,.918,3.9v5.2a8.922,8.922,0,0,0-3.38,1.185v-2.4A9.883,9.883,0,0,0,1019.228,393.882Zm12.154,22.558a6.29,6.29,0,0,1-5.222-2.3,5.621,5.621,0,0,0,2.946-1.265,3.219,3.219,0,0,1,4.551,0,5.62,5.62,0,0,0,2.947,1.265A6.291,6.291,0,0,1,1031.382,416.44Zm5.634-4.507a3.191,3.191,0,0,1-2.023-.872,5.41,5.41,0,0,0-7.222,0,3.19,3.19,0,0,1-2.023.872c-3.739,0-5.633-1.137-5.633-3.38a5.455,5.455,0,0,1,1.444-4.044,6.292,6.292,0,0,1,4.19-1.59h11.287a6.475,6.475,0,0,1,4.171,1.59,5.454,5.454,0,0,1,1.443,4.044C1042.649,410.8,1040.754,411.933,1037.015,411.933Zm6.521-18.051a9.877,9.877,0,0,0-2.014,5.658v2.4a8.825,8.825,0,0,0-3.381-1.183v-5.2a8.864,8.864,0,0,1,.918-3.9h2.462a1.126,1.126,0,0,0,1.126-1.126,2.166,2.166,0,0,0-1.164-1.839,7.389,7.389,0,0,1,2.669-1.326c.21-.053.4-.047.6-.08.1,1.091.144,2.182.144,3.244A6.322,6.322,0,0,1,1043.536,393.882Zm.9-15.929a13.659,13.659,0,0,0-1.866-2.572,17.686,17.686,0,0,0,8.558-4.974C1050.524,374.221,1049.051,377.3,1044.434,377.953Zm2.563,9.167a25.706,25.706,0,0,0-1.415-6.7,12.119,12.119,0,0,1,9.972,5.1A28.075,28.075,0,0,1,1047,387.119Z" transform="translate(-1004.34 -364.611)" fill="#fff"/>
          </g>
        </g>
      </g>
    </g>
  </g>
</svg>
