<svg xmlns="http://www.w3.org/2000/svg" width="129.737" height="122.746" viewBox="0 0 129.737 122.746">
  <g id="Grupo_1100013" data-name="Grupo 1100013" transform="translate(-1052.264 -2570.063)">
    <path id="_12068" data-name="12068" d="M98.737,72.292c-13.285-1.834-27.318-1.386-39.407,4.421-16.765,8.052-27.775,26.309-28.2,44.9S40.4,158.479,55.36,169.523s34.7,14.959,53,11.643c18.453-3.344,35.773-14.186,45.4-30.28,6.172-10.321,9.057-23.065,5.647-34.6-2.059-6.961-6.267-13.128-11.217-18.437A82.875,82.875,0,0,0,98.737,72.292Z" transform="translate(1021.145 2510.501)" fill="#26aab7"/>
    <g id="resumen" transform="translate(1075 2570.063)">
      <path id="Trazado_875823" data-name="Trazado 875823" d="M7.52,7.5h78.15V114.216H7.52Zm0,0" transform="translate(-5.905 -5.89)" fill="#dcdfe8"/>
      <path id="Trazado_875824" data-name="Trazado 875824" d="M341.523,7.5h6.441V114.216h-6.441Zm0,0" transform="translate(-268.192 -5.89)" fill="#cbcdd9"/>
      <path id="Trazado_875825" data-name="Trazado 875825" d="M7.52,7.5h78.15V24.678H7.52Zm0,0" transform="translate(-5.905 -5.89)" fill="#5793c9"/>
      <path id="Trazado_875826" data-name="Trazado 875826" d="M341.523,7.5h6.441V24.678h-6.441Zm0,0" transform="translate(-268.192 -5.89)" fill="#4c87bd"/>
      <path id="Trazado_875827" data-name="Trazado 875827" d="M44.942,35.221A3.221,3.221,0,1,1,41.721,32,3.221,3.221,0,0,1,44.942,35.221Zm0,0" transform="translate(-30.233 -25.129)" fill="#ff4b26"/>
      <path id="Trazado_875828" data-name="Trazado 875828" d="M104.942,35.221A3.221,3.221,0,1,1,101.721,32,3.221,3.221,0,0,1,104.942,35.221Zm0,0" transform="translate(-77.35 -25.129)" fill="#ffd659"/>
      <path id="Trazado_875829" data-name="Trazado 875829" d="M164.942,35.221A3.221,3.221,0,1,1,161.721,32,3.221,3.221,0,0,1,164.942,35.221Zm0,0" transform="translate(-124.467 -25.129)" fill="#47d5e6"/>
      <path id="Trazado_875830" data-name="Trazado 875830" d="M268.682,437.222a3.435,3.435,0,0,1-3.436-3.436v-5.153h6.871v5.153A3.435,3.435,0,0,1,268.682,437.222Zm0,0" transform="translate(-208.293 -336.597)" fill="#5793c9"/>
      <path id="Trazado_875831" data-name="Trazado 875831" d="M262.268,171.255H253.11a1.858,1.858,0,0,1-1.864-1.853V102.729a1.856,1.856,0,0,1,1.861-1.85h9.16a1.856,1.856,0,0,1,1.862,1.85V169.4A1.856,1.856,0,0,1,262.268,171.255Zm0,0" transform="translate(-197.299 -79.218)" fill="#ffd659"/>
      <path id="Trazado_875832" data-name="Trazado 875832" d="M270.932,102.726a1.856,1.856,0,0,0-1.861-1.851h-6.442a1.856,1.856,0,0,1,1.861,1.851V169.4a1.856,1.856,0,0,1-1.861,1.85h6.441a1.856,1.856,0,0,0,1.862-1.85Zm0,0" transform="translate(-204.102 -79.215)" fill="#ffbd54"/>
      <path id="Trazado_875833" data-name="Trazado 875833" d="M251.246,334.145h12.883V346.72H251.246Zm0,0" transform="translate(-197.299 -262.397)" fill="#4fc6f5"/>
      <path id="Trazado_875834" data-name="Trazado 875834" d="M281.246,334.145h6.442V346.72h-6.442Zm0,0" transform="translate(-220.857 -262.397)" fill="#3bb3e3"/>
      <path id="Trazado_875835" data-name="Trazado 875835" d="M270.833,69.589H263v-4.67a3.919,3.919,0,1,1,7.837,0Zm0,0" transform="translate(-206.526 -47.902)" fill="#ff4b26"/>
      <path id="Trazado_875836" data-name="Trazado 875836" d="M35.831,24.5a4.831,4.831,0,1,0,4.831,4.831A4.837,4.837,0,0,0,35.831,24.5Zm0,6.442a1.61,1.61,0,1,1,1.61-1.61A1.612,1.612,0,0,1,35.831,30.942Zm0,0" transform="translate(-24.344 -19.239)"/>
      <path id="Trazado_875837" data-name="Trazado 875837" d="M95.831,24.5a4.831,4.831,0,1,0,4.831,4.831A4.837,4.837,0,0,0,95.831,24.5Zm0,6.442a1.61,1.61,0,1,1,1.61-1.61A1.612,1.612,0,0,1,95.831,30.942Zm0,0" transform="translate(-71.461 -19.239)"/>
      <path id="Trazado_875838" data-name="Trazado 875838" d="M155.831,24.5a4.831,4.831,0,1,0,4.831,4.831A4.837,4.837,0,0,0,155.831,24.5Zm0,6.442a1.61,1.61,0,1,1,1.61-1.61A1.612,1.612,0,0,1,155.831,30.942Zm0,0" transform="translate(-118.577 -19.239)"/>
      <path id="Trazado_875839" data-name="Trazado 875839" d="M13.205,225.364H3.221V152.7A1.61,1.61,0,1,0,0,152.7v74.274a1.61,1.61,0,0,0,1.61,1.61H13.205a1.61,1.61,0,1,0,0-3.221Zm0,0" transform="translate(0 -118.648)"/>
      <path id="Trazado_875840" data-name="Trazado 875840" d="M79.768,0H1.61A1.61,1.61,0,0,0,0,1.61v25.8a1.61,1.61,0,1,0,3.221,0V20.4H54.3a3.461,3.461,0,0,0-1.964,3.113V90.184a3.471,3.471,0,0,0,3.006,3.428V97.19a5.046,5.046,0,1,0,10.092,0V93.612a3.468,3.468,0,0,0,3.006-3.426v-21.4a1.61,1.61,0,0,0-3.221,0v1.355H55.558V28.565H65.22V61.839a1.61,1.61,0,0,0,3.221,0V28.565h.588V42.385a1.61,1.61,0,0,0,3.221,0V26.955a1.61,1.61,0,0,0-1.61-1.61h-2.2V23.51A3.462,3.462,0,0,0,66.478,20.4h11.68v86.317H20.076a1.61,1.61,0,0,0,0,3.221H79.768a1.61,1.61,0,0,0,1.61-1.61V1.61A1.61,1.61,0,0,0,79.768,0ZM62.7,20.05H58.081V17.017a2.308,2.308,0,1,1,4.616,0ZM65.22,90.186a.246.246,0,0,1-.251.241H55.811a.249.249,0,0,1-.253-.242V85.933H65.22Zm-3.006,7a1.825,1.825,0,1,1-3.65,0V93.647h3.65ZM65.22,73.358v9.355H55.558V73.358ZM55.558,25.344V23.511a.246.246,0,0,1,.251-.24h9.16a.246.246,0,0,1,.252.24v1.834Zm10.36-8.167v-.161a5.529,5.529,0,1,0-11.058,0v.161H3.221V3.221H78.158V17.178Zm0,0"/>
      <path id="Trazado_875841" data-name="Trazado 875841" d="M54.058,151.082l-12.081,0a1.61,1.61,0,1,0,0,3.221l12.081,0a1.61,1.61,0,1,0,0-3.221Zm0,0" transform="translate(-31.7 -118.642)"/>
      <path id="Trazado_875842" data-name="Trazado 875842" d="M97.612,180.918H70.106a1.61,1.61,0,0,0,0,3.221H97.612a1.61,1.61,0,1,0,0-3.221Zm0,0" transform="translate(-53.789 -142.071)"/>
      <path id="Trazado_875843" data-name="Trazado 875843" d="M75.523,210.75H41.978a1.61,1.61,0,0,0,0,3.221H75.523a1.61,1.61,0,1,0,0-3.221Zm0,0" transform="translate(-31.7 -165.498)"/>
      <path id="Trazado_875844" data-name="Trazado 875844" d="M75.523,241.4l-33.546,0a1.61,1.61,0,1,0,0,3.221l33.546,0a1.61,1.61,0,1,0,0-3.221Zm0,0" transform="translate(-31.7 -189.565)"/>
      <path id="Trazado_875845" data-name="Trazado 875845" d="M77.134,271.849a1.611,1.611,0,0,0-1.61-1.61l-33.546,0a1.61,1.61,0,1,0,0,3.221l33.546,0A1.61,1.61,0,0,0,77.134,271.849Zm0,0" transform="translate(-31.7 -212.213)"/>
      <path id="Trazado_875846" data-name="Trazado 875846" d="M41.978,299.08a1.61,1.61,0,0,0,0,3.221l19.047,0a1.61,1.61,0,1,0,0-3.221Zm0,0" transform="translate(-31.7 -234.86)"/>
      <path id="Trazado_875847" data-name="Trazado 875847" d="M41.978,415.348l36.893,0a1.61,1.61,0,1,0,0-3.221l-36.893,0a1.61,1.61,0,0,0,0,3.221Zm0,0" transform="translate(-31.7 -323.634)"/>
      <path id="Trazado_875848" data-name="Trazado 875848" d="M41.978,446.719l24.535,0a1.61,1.61,0,0,0,0-3.221l-24.535,0a1.61,1.61,0,0,0,0,3.221Zm0,0" transform="translate(-31.7 -348.269)"/>
    </g>
  </g>
</svg>
